<svg width="99.00000012mm" height="119.08717102mm" viewBox="0 0 38976378 46884713"  version="1.1" xmlns="http://www.w3.org/2000/svg" xmlns:xlink="http://www.w3.org/1999/xlink">
<desc>
Origin 0 0 Bound 10687012 14338256 38976378 46884713
</desc>
<g fill-rule="evenodd" fill="rgb(128, 128, 0)" stroke="black" stroke-width="1" transform="translate(0, 46884713) scale(1, -1) translate(-10687012, -14338256)">
<path id="N" d="M 23592530.00 24301190.00 L 23601891.00 24278591.00 L 23601891.00 24160480.00 L 23592530.00 24137881.00 L 23569931.00 24128520.00 L 23547332.00 24137881.00 L 23537971.00 24160480.00 L 23537971.00 24246631.00 L 23050710.00 24246631.00 L 23050710.00 23967860.00 L 23077263.00 23941307.00 L 23093114.00 23903038.00 L 23077263.00 23864769.00 L 23050710.00 23853770.76 L 23050710.00 23759369.00 L 23537971.00 23759369.00 L 23537971.00 23845520.00 L 23547332.00 23868119.00 L 23569931.00 23877480.00 L 23584680.00 23871370.64 L 23584680.00 24003006.00 A 54118.70 54118.70 0 0 0 23692920.00 24003006.00 L 23692920.00 23403200.00 L 23677069.00 23364931.00 L 23638800.00 23349080.00 L 23238929.00 23349080.00 A 54118.70 54118.70 0 1 0 23238929.00 23457320.00 L 23584680.00 23457320.00 L 23584680.00 23550429.36 L 23569931.00 23544320.00 L 23547332.00 23553681.00 L 23537971.00 23576280.00 L 23537971.00 23662431.00 L 23050710.00 23662431.00 L 23050710.00 23452467.24 L 23077263.00 23441469.00 L 23093114.00 23403200.00 L 23077263.00 23364931.00 L 23050710.00 23353932.76 L 23050710.00 23175169.00 L 23537971.00 23175169.00 L 23537971.00 23261320.00 L 23547332.00 23283919.00 L 23569931.00 23293280.00 L 23592530.00 23283919.00 L 23601891.00 23261320.00 L 23601891.00 23143209.00 L 23592530.00 23120610.00 L 23569931.00 23111249.00 L 22467569.00 23111249.00 L 22444970.00 23120610.00 L 22435609.00 23143209.00 L 22435609.00 23261320.00 L 22444970.00 23283919.00 L 22467569.00 23293280.00 L 22490168.00 23283919.00 L 22499529.00 23261320.00 L 22499529.00 23175169.00 L 22986790.00 23175169.00 L 22986790.00 23349080.00 L 22839059.00 23349080.00 A 54118.70 54118.70 0 1 0 22839059.00 23457320.00 L 22884906.00 23457320.00 L 22884906.00 23662431.00 L 22499529.00 23662431.00 L 22499529.00 23576280.00 L 22490168.00 23553681.00 L 22467569.00 23544320.00 L 22444970.00 23553681.00 L 22435609.00 23576280.00 L 22435609.00 23694391.00 L 22442447.39 23710900.00 L 22435609.00 23727409.00 L 22435609.00 23845520.00 L 22444970.00 23868119.00 L 22467569.00 23877480.00 L 22490168.00 23868119.00 L 22499529.00 23845520.00 L 22499529.00 23759369.00 L 22884906.00 23759369.00 L 22884905.00 24003006.00 A 54122.11 54122.11 0 0 0 22977295.00 24041275.00 L 22986790.00 24031780.00 L 22986790.00 24246631.00 L 22499529.00 24246631.00 L 22499529.00 24160480.00 L 22490168.00 24137881.00 L 22467569.00 24128520.00 L 22444970.00 24137881.00 L 22435609.00 24160480.00 L 22435609.00 24278591.00 L 22444970.00 24301190.00 L 22467569.00 24310551.00 L 23569931.00 24310551.00 L 23592530.00 24301190.00  z"/>
<path id="N" d="M 23666190.00 20207980.00 L 23675551.00 20185381.00 L 23675551.00 19083019.00 L 23666190.00 19060420.00 L 23643591.00 19051059.00 L 23525480.00 19051059.00 L 23502881.00 19060420.00 L 23493520.00 19083019.00 L 23502881.00 19105618.00 L 23525480.00 19114979.00 L 23611631.00 19114979.00 L 23611631.00 19602240.00 L 23124369.00 19602240.00 L 23124369.00 19114979.00 L 23210520.00 19114979.00 L 23233119.00 19105618.00 L 23242480.00 19083019.00 L 23233119.00 19060420.00 L 23210520.00 19051059.00 L 23092409.00 19051059.00 L 23069810.00 19060420.00 L 23063200.00 19076377.63 L 23056590.00 19060420.00 L 23033991.00 19051059.00 L 22915880.00 19051059.00 L 22893281.00 19060420.00 L 22883920.00 19083019.00 L 22893281.00 19105618.00 L 22915880.00 19114979.00 L 23002031.00 19114979.00 L 23002031.00 19602240.00 L 22514769.00 19602240.00 L 22514769.00 19114979.00 L 22600920.00 19114979.00 L 22623519.00 19105618.00 L 22632880.00 19083019.00 L 22623519.00 19060420.00 L 22600920.00 19051059.00 L 22482809.00 19051059.00 L 22460210.00 19060420.00 L 22450849.00 19083019.00 L 22450849.00 20185381.00 L 22460210.00 20207980.00 L 22482809.00 20217341.00 L 22600920.00 20217341.00 L 22623519.00 20207980.00 L 22632880.00 20185381.00 L 22623519.00 20162782.00 L 22600920.00 20153421.00 L 22514769.00 20153421.00 L 22514769.00 19666160.00 L 23002031.00 19666160.00 L 23002031.00 20153421.00 L 22915880.00 20153421.00 L 22893281.00 20162782.00 L 22883920.00 20185381.00 L 22893281.00 20207980.00 L 22915880.00 20217341.00 L 23033991.00 20217341.00 L 23056590.00 20207980.00 L 23063200.00 20192022.37 L 23069810.00 20207980.00 L 23092409.00 20217341.00 L 23210520.00 20217341.00 L 23233119.00 20207980.00 L 23242480.00 20185381.00 L 23233119.00 20162782.00 L 23210520.00 20153421.00 L 23124369.00 20153421.00 L 23124369.00 19666160.00 L 23611631.00 19666160.00 L 23611631.00 20153421.00 L 23525480.00 20153421.00 L 23502881.00 20162782.00 L 23493520.00 20185381.00 L 23502881.00 20207980.00 L 23525480.00 20217341.00 L 23643591.00 20217341.00 L 23666190.00 20207980.00  z"/>
<path id="N" d="M 22352681.00 20774613.00 L 22357437.00 20763132.00 L 22352681.00 20751651.00 L 22213784.58 20612755.00 L 22341200.00 20612755.00 L 22352681.00 20608000.00 L 22357436.00 20596519.00 L 22352681.00 20585038.00 L 22341200.00 20580283.00 L 22213784.58 20580283.00 L 22352681.00 20441387.00 L 22357437.00 20429906.00 L 22352681.00 20418425.00 L 22341200.00 20413669.00 L 22329719.00 20418425.00 L 22190823.00 20557321.42 L 22190823.00 20429906.00 L 22186068.00 20418425.00 L 22174587.00 20413670.00 L 22163106.00 20418425.00 L 22158351.00 20429906.00 L 22158351.00 20557321.58 L 22019454.00 20418425.00 L 22007974.00 20413669.00 L 21996493.00 20418425.00 L 21995406.35 20421048.17 L 21978700.00 20414128.00 L 21168700.00 20414128.00 L 21145739.00 20423639.00 L 21136228.00 20446600.00 L 21145739.00 20469561.00 L 21168700.00 20479072.00 L 21978700.00 20479072.00 L 22001661.00 20469561.00 L 22008399.71 20453292.74 L 22135389.58 20580283.00 L 22007974.00 20580283.00 L 21996493.00 20585038.00 L 21991738.00 20596519.00 L 21996493.00 20608000.00 L 22007974.00 20612755.00 L 22135389.58 20612755.00 L 21996493.00 20751652.00 L 21991737.00 20763132.00 L 21996493.00 20774613.00 L 22007974.00 20779369.00 L 22019454.00 20774613.00 L 22158351.00 20635716.42 L 22158351.00 20763132.00 L 22163106.00 20774613.00 L 22174587.00 20779368.00 L 22186068.00 20774613.00 L 22190823.00 20763132.00 L 22190823.00 20635716.58 L 22329719.00 20774613.00 L 22341200.00 20779369.00 L 22352681.00 20774613.00  z"/>
<path id="N" d="M 18907204.00 18962901.00 L 19007172.00 18862933.00 L 19023023.00 18824664.00 L 19023024.00 18624729.00 L 19007172.00 18586460.00 L 18907204.00 18486492.00 L 18868935.00 18470641.00 L 18768968.00 18470640.00 L 18730699.00 18486492.00 L 18630731.00 18586460.00 L 18614880.00 18624729.00 L 18614880.00 18793974.54 L 18513542.03 18692636.06 L 18511756.00 18689064.00 L 18511756.00 18089697.00 A 54118.70 54118.70 0 0 0 18403516.00 18089697.00 L 18403516.00 18235512.00 L 18157733.00 18235512.00 L 18119464.00 18251363.00 L 18019496.00 18351331.00 L 18003645.00 18389602.41 L 18003645.00 18589535.00 L 18019496.00 18627804.00 L 18119464.00 18727772.00 L 18157735.41 18743623.00 L 18418019.53 18743623.00 L 18420658.00 18748900.00 L 18427386.98 18754736.14 L 18430796.00 18762966.00 L 18630731.00 18962901.00 L 18669002.41 18978752.00 L 18868935.00 18978753.00 L 18907204.00 18962901.00  zM 18363900.07 18635383.00 L 18180151.00 18635383.00 L 18111885.00 18567117.00 L 18111885.00 18412018.00 L 18180151.00 18343752.00 L 18403516.00 18343752.00 L 18403516.00 18488426.87 L 18386211.00 18473418.00 A 54121.65 54121.65 0 0 0 18320691.00 18548964.00 L 18363900.07 18635383.00  zM 18846517.00 18870512.00 L 18723120.00 18870512.00 L 18723120.00 18647147.00 L 18791386.00 18578881.00 L 18846517.00 18578881.00 L 18914783.00 18647147.00 L 18914783.00 18802246.00 L 18846517.00 18870512.00  z"/>
<path id="N" d="M 21844070.00 24240866.00 L 21736523.54 24133319.00 L 21805802.00 24133319.00 A 54118.70 54118.70 0 0 0 21805802.00 24025079.00 L 21736525.00 24025079.00 L 21844071.00 23917533.00 A 54119.43 54119.43 0 0 0 21767533.00 23840995.00 L 21659987.00 23948541.54 L 21659987.00 23879264.00 A 54118.70 54118.70 0 0 0 21551747.00 23879264.00 L 21551747.00 23948541.54 L 21444201.00 23840995.00 A 54119.43 54119.43 0 0 0 21367663.00 23917533.00 L 21475209.00 24025079.00 L 21405932.00 24025079.00 A 54118.70 54118.70 0 0 0 21405932.00 24133319.00 L 21475210.46 24133319.00 L 21367664.00 24240866.00 A 54118.22 54118.22 0 0 0 21444201.00 24317403.00 L 21551747.00 24209857.00 L 21551747.00 24279135.00 A 54118.70 54118.70 0 0 0 21659987.00 24279135.00 L 21659987.00 24209857.00 L 21767533.00 24317403.00 A 54118.22 54118.22 0 1 0 21844070.00 24240866.00  z"/>
<path id="N" d="M 43934314.00 18579806.00 L 43934314.00 18279903.00 L 43929493.10 18268263.92 L 43928600.00 18255700.00 L 43921872.24 18249864.92 L 43918463.00 18241634.00 L 43906823.49 18236812.92 L 43897308.00 18228560.00 L 43888423.29 18229191.57 L 43880194.00 18225783.00 L 43868554.92 18230603.90 L 43855991.00 18231497.00 L 43667482.06 18325751.00 L 43602709.00 18325751.00 L 43534443.00 18257485.00 L 43534443.00 18102386.00 L 43602709.00 18034120.00 L 43757808.00 18034120.00 L 43841925.00 18118237.00 A 54121.84 54121.84 0 1 0 43918463.00 18041699.00 L 43818495.00 17941731.00 L 43780223.59 17925880.00 L 43580291.00 17925880.00 L 43542022.00 17941731.00 L 43442054.00 18041699.00 L 43426203.00 18079970.41 L 43426203.00 18279903.00 L 43442054.00 18318172.00 L 43542022.00 18418140.00 L 43580293.41 18433991.00 L 43680259.00 18433991.00 L 43691897.93 18429170.16 L 43704463.00 18428277.00 L 43826074.00 18367470.89 L 43826074.00 18525686.00 L 43480323.00 18525686.00 A 54118.70 54118.70 0 1 0 43480323.00 18633926.00 L 43880194.00 18633926.00 L 43918463.00 18618075.00 L 43934314.00 18579806.00  z"/>
<path id="N" d="M 20502752.00 28570103.00 L 20502752.00 28270200.00 L 20497931.10 28258560.92 L 20497038.00 28245997.00 L 20490310.24 28240161.92 L 20486901.00 28231931.00 L 20475261.49 28227109.92 L 20465746.00 28218857.00 L 20456861.29 28219488.57 L 20448632.00 28216080.00 L 20436992.92 28220900.90 L 20424429.00 28221794.00 L 20235920.06 28316048.00 L 20171147.00 28316048.00 L 20102881.00 28247782.00 L 20102881.00 28092683.00 L 20171147.00 28024417.00 L 20326246.00 28024417.00 L 20410363.00 28108534.00 A 54121.84 54121.84 0 0 0 20486901.00 28031996.00 L 20386933.00 27932028.00 L 20348661.59 27916177.00 L 20148729.00 27916177.00 L 20110460.00 27932028.00 L 20010492.00 28031996.00 L 19994641.00 28070267.41 L 19994641.00 28270200.00 L 20010492.00 28308469.00 L 20110460.00 28408437.00 L 20148731.41 28424288.00 L 20248697.00 28424288.00 L 20260335.93 28419467.16 L 20272901.00 28418574.00 L 20394512.00 28357767.89 L 20394512.00 28515983.00 L 20048761.00 28515983.00 A 54118.70 54118.70 0 1 0 20048761.00 28624223.00 L 20448632.00 28624223.00 L 20486901.00 28608372.00 L 20502752.00 28570103.00  z"/>
<path id="N" d="M 18648552.00 21051703.00 L 18648552.00 20751800.00 L 18643731.10 20740160.92 L 18642838.00 20727597.00 L 18636110.24 20721761.92 L 18632701.00 20713531.00 L 18621061.49 20708709.92 L 18611546.00 20700457.00 L 18602661.29 20701088.57 L 18594432.00 20697680.00 L 18582792.92 20702500.90 L 18570229.00 20703394.00 L 18381720.06 20797648.00 L 18316947.00 20797648.00 L 18248681.00 20729382.00 L 18248681.00 20574283.00 L 18316947.00 20506017.00 L 18472046.00 20506017.00 L 18556163.00 20590134.00 A 54121.84 54121.84 0 1 0 18632701.00 20513596.00 L 18532733.00 20413628.00 L 18494461.59 20397777.00 L 18294529.00 20397777.00 L 18256260.00 20413628.00 L 18156292.00 20513596.00 L 18140441.00 20551867.41 L 18140441.00 20751800.00 L 18156292.00 20790069.00 L 18256260.00 20890037.00 L 18294531.41 20905888.00 L 18394497.00 20905888.00 L 18406135.93 20901067.16 L 18418701.00 20900174.00 L 18540312.00 20839367.89 L 18540312.00 20997583.00 L 18194561.00 20997583.00 A 54118.70 54118.70 0 1 0 18194561.00 21105823.00 L 18594432.00 21105823.00 L 18632701.00 21089972.00 L 18648552.00 21051703.00  z"/>
<path id="N" d="M 24238131.41 27100223.00 L 24438064.00 27100223.00 L 24476333.00 27084372.00 L 24576301.00 26984404.00 A 54119.43 54119.43 0 0 0 24499763.00 26907866.00 L 24415646.00 26991983.00 L 24260547.00 26991983.00 L 24192281.00 26923717.00 L 24192281.00 26868586.00 L 24260547.00 26800320.00 L 24338097.00 26800320.00 A 54118.70 54118.70 0 0 0 24338097.00 26692080.00 L 24260547.00 26692080.00 L 24192281.00 26623814.00 L 24192281.00 26568683.00 L 24260547.00 26500417.00 L 24415646.00 26500417.00 L 24499763.00 26584534.00 A 54121.84 54121.84 0 0 0 24576301.00 26507996.00 L 24476333.00 26408028.00 L 24438061.59 26392177.00 L 24238129.00 26392177.00 L 24199860.00 26408028.00 L 24099892.00 26507996.00 L 24084041.00 26546267.41 L 24084041.00 26646232.00 L 24099892.00 26684501.00 L 24161591.00 26746200.00 L 24099892.00 26807899.00 L 24084041.00 26846170.41 L 24084041.00 26946135.00 L 24099892.00 26984404.00 L 24199860.00 27084372.00 L 24238131.41 27100223.00  z"/>
<path id="N" d="M 17557929.41 18743623.00 L 17757862.00 18743623.00 L 17796131.00 18727772.00 L 17896099.00 18627804.00 A 54119.43 54119.43 0 0 0 17819561.00 18551266.00 L 17735444.00 18635383.00 L 17580345.00 18635383.00 L 17512079.00 18567117.00 L 17512079.00 18511986.00 L 17580345.00 18443720.00 L 17657895.00 18443720.00 A 54118.70 54118.70 0 1 0 17657895.00 18335480.00 L 17580345.00 18335480.00 L 17512079.00 18267214.00 L 17512079.00 18212083.00 L 17580345.00 18143817.00 L 17735444.00 18143817.00 L 17819561.00 18227934.00 A 54121.84 54121.84 0 0 0 17896099.00 18151396.00 L 17796131.00 18051428.00 L 17757859.59 18035577.00 L 17557927.00 18035577.00 L 17519658.00 18051428.00 L 17419690.00 18151396.00 L 17403839.00 18189667.41 L 17403839.00 18289632.00 L 17419690.00 18327901.00 L 17481389.00 18389600.00 L 17419690.00 18451299.00 L 17403839.00 18489570.41 L 17403839.00 18589535.00 L 17419690.00 18627804.00 L 17519658.00 18727772.00 L 17557929.41 18743623.00  z"/>
<path id="N" d="M 43580293.41 32813926.00 L 43780226.00 32813926.00 L 43818495.00 32798075.00 L 43918463.00 32698107.00 A 54119.43 54119.43 0 0 0 43841925.00 32621569.00 L 43757808.00 32705686.00 L 43602709.00 32705686.00 L 43534443.00 32637420.00 L 43534443.00 32582289.00 L 43602709.00 32514023.00 L 43680259.00 32514023.00 A 54118.70 54118.70 0 0 0 43680259.00 32405783.00 L 43602709.00 32405783.00 L 43534443.00 32337517.00 L 43534443.00 32282386.00 L 43602709.00 32214120.00 L 43757808.00 32214120.00 L 43841925.00 32298237.00 A 54121.84 54121.84 0 0 0 43918463.00 32221699.00 L 43818495.00 32121731.00 L 43780223.59 32105880.00 L 43580291.00 32105880.00 L 43542022.00 32121731.00 L 43442054.00 32221699.00 L 43426203.00 32259970.41 L 43426203.00 32359935.00 L 43442054.00 32398204.00 L 43503753.00 32459903.00 L 43442054.00 32521602.00 L 43426203.00 32559873.41 L 43426203.00 32659838.00 L 43442054.00 32698107.00 L 43542022.00 32798075.00 L 43580293.41 32813926.00  z"/>
<path id="N" d="M 22947628.41 29614823.00 L 23147561.00 29614823.00 L 23185830.00 29598972.00 L 23285798.00 29499004.00 A 54119.43 54119.43 0 0 0 23209260.00 29422466.00 L 23125143.00 29506583.00 L 22970044.00 29506583.00 L 22901778.00 29438317.00 L 22901778.00 29383186.00 L 22970044.00 29314920.00 L 23047594.00 29314920.00 A 54118.70 54118.70 0 1 0 23047594.00 29206680.00 L 22970044.00 29206680.00 L 22901778.00 29138414.00 L 22901778.00 29083283.00 L 22970044.00 29015017.00 L 23125143.00 29015017.00 L 23209260.00 29099134.00 A 54121.84 54121.84 0 0 0 23285798.00 29022596.00 L 23185830.00 28922628.00 L 23147558.59 28906777.00 L 22947626.00 28906777.00 L 22909357.00 28922628.00 L 22809389.00 29022596.00 L 22793538.00 29060867.41 L 22793538.00 29160832.00 L 22809389.00 29199101.00 L 22871088.00 29260800.00 L 22809389.00 29322499.00 L 22793538.00 29360770.41 L 22793538.00 29460735.00 L 22809389.00 29499004.00 L 22909357.00 29598972.00 L 22947628.41 29614823.00  z"/>
<path id="N" d="M 11544976.41 36869268.00 L 11744909.00 36869268.00 L 11783178.00 36853417.00 L 11883146.00 36753449.00 L 11898997.00 36715177.59 L 11898997.00 36615213.00 L 11883146.00 36576944.00 L 11821447.00 36515245.00 L 11883146.00 36453546.00 L 11898997.00 36415274.59 L 11898997.00 36315310.00 L 11883146.00 36277041.00 L 11783178.00 36177073.00 L 11744906.59 36161222.00 L 11544974.00 36161222.00 L 11506705.00 36177073.00 L 11406737.00 36277041.00 L 11390886.00 36315312.41 L 11390886.00 36415277.00 L 11406737.00 36453546.00 L 11468436.00 36515245.00 L 11406737.00 36576944.00 L 11390886.00 36615215.41 L 11390886.00 36715180.00 L 11406737.00 36753449.00 L 11506705.00 36853417.00 L 11544976.41 36869268.00  zM 11722491.00 36461125.00 L 11567392.00 36461125.00 L 11499126.00 36392859.00 L 11499126.00 36337728.00 L 11567392.00 36269462.00 L 11722491.00 36269462.00 L 11790757.00 36337728.00 L 11790757.00 36392859.00 L 11722491.00 36461125.00  zM 11722491.00 36761028.00 L 11567392.00 36761028.00 L 11499126.00 36692762.00 L 11499126.00 36637631.00 L 11567392.00 36569365.00 L 11722491.00 36569365.00 L 11790757.00 36637631.00 L 11790757.00 36692762.00 L 11722491.00 36761028.00  z"/>
<path id="N" d="M 22807570.41 18165952.00 L 22907535.00 18165952.00 L 22945804.00 18150101.00 L 23045772.00 18050133.00 L 23061623.00 18011861.59 L 23061623.00 17811929.00 L 23045772.00 17773660.00 L 22945804.00 17673692.00 L 22907532.59 17657841.00 L 22807568.00 17657841.00 L 22769299.00 17673692.00 L 22707600.00 17735391.00 L 22645901.00 17673692.00 L 22607629.59 17657841.00 L 22507665.00 17657841.00 L 22469396.00 17673692.00 L 22369428.00 17773660.00 L 22353577.00 17811931.41 L 22353577.00 18011864.00 L 22369428.00 18050133.00 L 22469396.00 18150101.00 L 22507667.41 18165952.00 L 22607632.00 18165952.00 L 22645901.00 18150101.00 L 22707600.00 18088402.00 L 22769299.00 18150101.00 L 22807570.41 18165952.00  zM 22585214.00 18057712.00 L 22530083.00 18057712.00 L 22461817.00 17989446.00 L 22461817.00 17834347.00 L 22530083.00 17766081.00 L 22585214.00 17766081.00 L 22653480.00 17834347.00 L 22653480.00 17989446.00 L 22585214.00 18057712.00  zM 22885117.00 18057712.00 L 22829986.00 18057712.00 L 22761720.00 17989446.00 L 22761720.00 17834347.00 L 22829986.00 17766081.00 L 22885117.00 17766081.00 L 22953383.00 17834347.00 L 22953383.00 17989446.00 L 22885117.00 18057712.00  z"/>
<path id="N" d="M 21376380.00 18738590.00 L 21385741.00 18715991.00 L 21385741.00 18597880.00 L 21376380.00 18575281.00 L 21353781.00 18565920.00 L 21331182.00 18575281.00 L 21321821.00 18597880.00 L 21321821.00 18684031.00 L 20834560.00 18684031.00 L 20834560.00 18196769.00 L 21321821.00 18196769.00 L 21321821.00 18282920.00 L 21331182.00 18305519.00 L 21353781.00 18314880.00 L 21376380.00 18305519.00 L 21385741.00 18282920.00 L 21385741.00 18164809.00 L 21376380.00 18142210.00 L 21353781.00 18132849.00 L 20251419.00 18132849.00 L 20228820.00 18142210.00 L 20219459.00 18164809.00 L 20219459.00 18282920.00 L 20228820.00 18305519.00 L 20251419.00 18314880.00 L 20274018.00 18305519.00 L 20283379.00 18282920.00 L 20283379.00 18196769.00 L 20770640.00 18196769.00 L 20770640.00 18684031.00 L 20283379.00 18684031.00 L 20283379.00 18597880.00 L 20274018.00 18575281.00 L 20251419.00 18565920.00 L 20228820.00 18575281.00 L 20219459.00 18597880.00 L 20219459.00 18715991.00 L 20228820.00 18738590.00 L 20251419.00 18747951.00 L 21353781.00 18747951.00 L 21376380.00 18738590.00  z"/>
<path id="N" d="M 20011130.00 19767290.00 L 20020491.00 19744691.00 L 20020491.00 18406109.00 L 20011130.00 18383510.00 L 19988531.00 18374149.00 L 19909791.00 18374149.00 L 19887192.00 18383510.00 L 19877831.00 18406109.00 L 19887192.00 18428708.00 L 19909791.00 18438069.00 L 19956571.00 18438069.00 L 19956571.00 19043440.00 L 19311829.00 19043440.00 L 19311829.00 18438069.00 L 19358609.00 18438069.00 L 19381208.00 18428708.00 L 19390569.00 18406109.00 L 19381208.00 18383510.00 L 19358609.00 18374149.00 L 19279869.00 18374149.00 L 19257270.00 18383510.00 L 19247909.00 18406109.00 L 19247909.00 19744691.00 L 19257270.00 19767290.00 L 19279869.00 19776651.00 L 19358609.00 19776651.00 L 19381208.00 19767290.00 L 19390569.00 19744691.00 L 19381208.00 19722092.00 L 19358609.00 19712731.00 L 19311829.00 19712731.00 L 19311829.00 19107360.00 L 19956571.00 19107360.00 L 19956571.00 19712731.00 L 19909791.00 19712731.00 L 19887192.00 19722092.00 L 19877831.00 19744691.00 L 19887192.00 19767290.00 L 19909791.00 19776651.00 L 19988531.00 19776651.00 L 20011130.00 19767290.00  z"/>
<path id="N" d="M 24155140.00 25668599.00 L 24164501.00 25646000.00 L 24164501.00 24646000.00 L 24155140.00 24623401.00 L 24132541.00 24614040.00 L 24056950.00 24614040.00 L 24034351.00 24623401.00 L 24024990.00 24646000.00 L 24034351.00 24668599.00 L 24056950.00 24677960.00 L 24100581.00 24677960.00 L 24100581.00 25114040.00 L 23613319.00 25114040.00 L 23613319.00 24677960.00 L 23656950.00 24677960.00 L 23679549.00 24668599.00 L 23688910.00 24646000.00 L 23679549.00 24623401.00 L 23656950.00 24614040.00 L 23581359.00 24614040.00 L 23558760.00 24623401.00 L 23549399.00 24646000.00 L 23549399.00 25646000.00 L 23558760.00 25668599.00 L 23581359.00 25677960.00 L 23656950.00 25677960.00 L 23679549.00 25668599.00 L 23688910.00 25646000.00 L 23679549.00 25623401.00 L 23656950.00 25614040.00 L 23613319.00 25614040.00 L 23613319.00 25177960.00 L 24100581.00 25177960.00 L 24100581.00 25614040.00 L 24056950.00 25614040.00 L 24034351.00 25623401.00 L 24024990.00 25646000.00 L 24034351.00 25668599.00 L 24056950.00 25677960.00 L 24132541.00 25677960.00 L 24155140.00 25668599.00  z"/>
<path id="N" d="M 24049349.00 26307790.00 L 24058710.00 26285191.00 L 24058710.00 26209600.00 L 24049349.00 26187001.00 L 24026750.00 26177640.00 L 24004151.00 26187001.00 L 23994790.00 26209600.00 L 23994790.00 26253231.00 L 23558710.00 26253231.00 L 23558710.00 25765969.00 L 23994790.00 25765969.00 L 23994790.00 25809600.00 L 24004151.00 25832199.00 L 24026750.00 25841560.00 L 24049349.00 25832199.00 L 24058710.00 25809600.00 L 24058710.00 25734009.00 L 24049349.00 25711410.00 L 24026750.00 25702049.00 L 23026750.00 25702049.00 L 23004151.00 25711410.00 L 22994790.00 25734009.00 L 22994790.00 25809600.00 L 23004151.00 25832199.00 L 23026750.00 25841560.00 L 23049349.00 25832199.00 L 23058710.00 25809600.00 L 23058710.00 25765969.00 L 23494790.00 25765969.00 L 23494790.00 26253231.00 L 23058710.00 26253231.00 L 23058710.00 26209600.00 L 23049349.00 26187001.00 L 23026750.00 26177640.00 L 23004151.00 26187001.00 L 22994790.00 26209600.00 L 22994790.00 26285191.00 L 23004151.00 26307790.00 L 23026750.00 26317151.00 L 24026750.00 26317151.00 L 24049349.00 26307790.00  z"/>
<path id="N" d="M 20112730.00 21926290.00 L 20122091.00 21903691.00 L 20122091.00 20565109.00 L 20112730.00 20542510.00 L 20090131.00 20533149.00 L 20011391.00 20533149.00 L 19988792.00 20542510.00 L 19979431.00 20565109.00 L 19988792.00 20587708.00 L 20011391.00 20597069.00 L 20058171.00 20597069.00 L 20058171.00 21202440.00 L 19413429.00 21202440.00 L 19413429.00 20597069.00 L 19460209.00 20597069.00 L 19482808.00 20587708.00 L 19492169.00 20565109.00 L 19482808.00 20542510.00 L 19460209.00 20533149.00 L 19381469.00 20533149.00 L 19358870.00 20542510.00 L 19349509.00 20565109.00 L 19349509.00 21903691.00 L 19358870.00 21926290.00 L 19381469.00 21935651.00 L 19460209.00 21935651.00 L 19482808.00 21926290.00 L 19492169.00 21903691.00 L 19482808.00 21881092.00 L 19460209.00 21871731.00 L 19413429.00 21871731.00 L 19413429.00 21266360.00 L 20058171.00 21266360.00 L 20058171.00 21871731.00 L 20011391.00 21871731.00 L 19988792.00 21881092.00 L 19979431.00 21903691.00 L 19988792.00 21926290.00 L 20011391.00 21935651.00 L 20090131.00 21935651.00 L 20112730.00 21926290.00  z"/>
<path id="N" d="M 23834804.00 18200901.00 L 23934772.00 18100933.00 L 23950623.00 18062664.00 L 23950624.00 17862729.00 L 23934772.00 17824460.00 L 23834804.00 17724492.00 L 23796535.00 17708641.00 L 23396665.00 17708640.00 L 23358396.00 17724492.00 L 23258428.00 17824460.00 L 23242577.00 17862729.00 L 23242576.00 18062664.00 L 23258428.00 18100933.00 L 23358396.00 18200901.00 L 23396665.00 18216752.00 L 23496632.00 18216753.00 L 23534901.00 18200901.00 L 23634869.00 18100933.00 L 23650720.00 18062664.00 L 23650720.00 17816881.00 L 23774117.00 17816881.00 L 23842383.00 17885147.00 L 23842383.00 18040246.00 L 23758266.00 18124363.00 A 54119.43 54119.43 0 1 0 23834804.00 18200901.00  zM 23474214.00 18108512.00 L 23419083.00 18108512.00 L 23350817.00 18040246.00 L 23350817.00 17885147.00 L 23419083.00 17816881.00 L 23542480.00 17816881.00 L 23542480.00 18040246.00 L 23474214.00 18108512.00  z"/>
<path id="N" d="M 47873178.00 36853415.00 L 47973146.00 36753447.00 L 47988997.00 36715178.00 L 47988998.00 36315308.00 L 47973146.00 36277039.00 L 47873178.00 36177071.00 L 47834909.00 36161220.00 L 47634974.00 36161219.00 L 47596705.00 36177071.00 L 47496737.00 36277039.00 L 47480886.00 36315308.00 L 47480885.00 36415275.00 L 47496737.00 36453544.00 L 47596705.00 36553512.00 L 47634974.00 36569363.00 L 47880757.00 36569363.00 L 47880757.00 36692760.00 L 47812491.00 36761026.00 L 47657392.00 36761026.00 L 47573275.00 36676909.00 A 54119.43 54119.43 0 0 0 47496737.00 36753447.00 L 47596705.00 36853415.00 L 47634974.00 36869266.00 L 47834909.00 36869267.00 L 47873178.00 36853415.00  zM 47880757.00 36461123.00 L 47657392.00 36461123.00 L 47589126.00 36392857.00 L 47589126.00 36337726.00 L 47657392.00 36269460.00 L 47812491.00 36269460.00 L 47880757.00 36337726.00 L 47880757.00 36461123.00  z"/>
<path id="N" d="M 20003114.00 26942109.00 L 20203050.00 26842142.00 L 20208886.14 26835413.02 L 20217116.00 26832004.00 L 20417051.00 26632069.00 L 20432902.00 26593797.59 L 20432903.00 26393865.00 L 20417051.00 26355596.00 L 20317083.00 26255628.00 L 20278814.00 26239777.00 L 20078879.00 26239776.00 L 20040610.00 26255628.00 L 19940642.00 26355596.00 L 19924791.00 26393865.00 L 19924790.00 26493832.00 L 19940642.00 26532101.00 L 20040610.00 26632069.00 L 20078879.00 26647920.00 L 20248124.54 26647920.00 L 20146786.06 26749257.97 L 19954708.00 26845297.00 A 54118.07 54118.07 0 0 0 20003114.00 26942109.00  zM 20324662.00 26539680.00 L 20101297.00 26539680.00 L 20033031.00 26471414.00 L 20033031.00 26416283.00 L 20101297.00 26348017.00 L 20256396.00 26348017.00 L 20324662.00 26416283.00 L 20324662.00 26539680.00  z"/>
<path id="N" d="M 29069901.00 35378918.00 L 29169869.00 35278950.00 L 29185720.00 35240681.00 L 29185720.00 35071435.46 L 29287057.97 35172773.94 L 29383097.00 35364852.00 A 54118.07 54118.07 0 0 0 29479909.00 35316446.00 L 29379942.00 35116510.00 L 29373213.02 35110673.86 L 29369804.00 35102444.00 L 29169869.00 34902509.00 L 29131597.59 34886658.00 L 28931665.00 34886657.00 L 28893396.00 34902509.00 L 28793428.00 35002477.00 L 28777577.00 35040746.00 L 28777576.00 35240681.00 L 28793428.00 35278950.00 L 28893396.00 35378918.00 L 28931665.00 35394769.00 L 29031632.00 35394770.00 L 29069901.00 35378918.00  zM 29009214.00 35286529.00 L 28954083.00 35286529.00 L 28885817.00 35218263.00 L 28885817.00 35063164.00 L 28954083.00 34994898.00 L 29077480.00 34994898.00 L 29077480.00 35218263.00 L 29009214.00 35286529.00  z"/>
<path id="N" d="M 18968903.00 19470318.00 L 18823088.00 19470318.00 L 18823088.00 19346920.84 L 19007171.00 19162836.00 A 54118.22 54118.22 0 0 0 18930634.00 19086299.00 L 18814099.32 19202833.68 L 18807237.00 19186266.00 L 18707269.00 19086298.00 L 18668997.59 19070447.00 L 18469065.00 19070447.00 L 18430796.00 19086298.00 L 18330828.00 19186266.00 L 18314977.00 19224537.41 L 18314977.00 19524438.00 L 18330828.00 19562707.00 L 18369097.00 19578558.00 L 18968903.00 19578558.00 A 54121.84 54121.84 0 0 0 18968903.00 19470318.00  zM 18714848.00 19470318.00 L 18423217.00 19470318.00 L 18423217.00 19246953.00 L 18491483.00 19178687.00 L 18646582.00 19178687.00 L 18714848.00 19246953.00 L 18714848.00 19470318.00  z"/>
<path id="N" d="M 18894337.41 21105823.00 L 19194238.00 21105823.00 L 19232507.00 21089972.00 L 19248358.00 21051703.00 L 19248358.00 20451897.00 A 54118.70 54118.70 0 1 0 19140118.00 20451897.00 L 19140118.00 20597712.00 L 19016720.84 20597712.00 L 18832636.00 20413629.00 A 54118.22 54118.22 0 0 0 18756099.00 20490166.00 L 18872633.68 20606700.68 L 18856066.00 20613563.00 L 18756098.00 20713531.00 L 18740247.00 20751802.41 L 18740247.00 20951735.00 L 18756098.00 20990004.00 L 18856066.00 21089972.00 L 18894337.41 21105823.00  zM 19140118.00 20997583.00 L 18916753.00 20997583.00 L 18848487.00 20929317.00 L 18848487.00 20774218.00 L 18916753.00 20705952.00 L 19140118.00 20705952.00 L 19140118.00 20997583.00  z"/>
<path id="N" d="M 25728569.41 26363623.00 L 26028470.00 26363623.00 L 26066739.00 26347772.00 L 26082590.00 26309503.00 L 26082590.00 25709697.00 A 54118.70 54118.70 0 0 0 25974350.00 25709697.00 L 25974350.00 25855512.00 L 25850952.84 25855512.00 L 25666868.00 25671429.00 A 54118.22 54118.22 0 1 0 25590331.00 25747966.00 L 25706865.68 25864500.68 L 25690298.00 25871363.00 L 25590330.00 25971331.00 L 25574479.00 26009602.41 L 25574479.00 26209535.00 L 25590330.00 26247804.00 L 25690298.00 26347772.00 L 25728569.41 26363623.00  zM 25974350.00 26255383.00 L 25750985.00 26255383.00 L 25682719.00 26187117.00 L 25682719.00 26032018.00 L 25750985.00 25963752.00 L 25974350.00 25963752.00 L 25974350.00 26255383.00  z"/>
<path id="N" d="M 25345937.41 24585623.00 L 25645838.00 24585623.00 L 25684107.00 24569772.00 L 25699958.00 24531503.00 L 25699958.00 23931697.00 A 54118.70 54118.70 0 0 0 25591718.00 23931697.00 L 25591718.00 24077512.00 L 25468320.84 24077512.00 L 25284236.00 23893429.00 A 54118.22 54118.22 0 0 0 25207699.00 23969966.00 L 25324233.68 24086500.68 L 25307666.00 24093363.00 L 25207698.00 24193331.00 L 25191847.00 24231602.41 L 25191847.00 24431535.00 L 25207698.00 24469804.00 L 25307666.00 24569772.00 L 25345937.41 24585623.00  zM 25591718.00 24477383.00 L 25368353.00 24477383.00 L 25300087.00 24409117.00 L 25300087.00 24254018.00 L 25368353.00 24185752.00 L 25591718.00 24185752.00 L 25591718.00 24477383.00  z"/>
<path id="N" d="M 20891489.00 26068372.00 L 20991457.00 25968404.00 L 21007308.00 25930135.00 L 21007309.00 25530265.00 L 20991457.00 25491996.00 L 20891489.00 25392028.00 L 20853220.00 25376177.00 L 20653285.00 25376176.00 L 20615016.00 25392028.00 L 20515048.00 25491996.00 A 54121.84 54121.84 0 0 0 20591586.00 25568534.00 L 20675703.00 25484417.00 L 20830802.00 25484417.00 L 20899068.00 25552683.00 L 20899068.00 25907717.00 L 20830802.00 25975983.00 L 20675703.00 25975983.00 L 20591586.00 25891866.00 A 54119.43 54119.43 0 0 0 20515048.00 25968404.00 L 20615016.00 26068372.00 L 20653285.00 26084223.00 L 20853220.00 26084224.00 L 20891489.00 26068372.00  z"/>
<path id="N" d="M 22945804.00 18749907.00 L 23045772.00 18649939.00 L 23061623.00 18611670.00 L 23061624.00 18411735.00 L 23045772.00 18373466.00 L 22945804.00 18273498.00 A 54121.84 54121.84 0 0 0 22869266.00 18350036.00 L 22953383.00 18434153.00 L 22953383.00 18589252.00 L 22885117.00 18657518.00 L 22530083.00 18657518.00 L 22461817.00 18589252.00 L 22461817.00 18434153.00 L 22545934.00 18350036.00 A 54119.43 54119.43 0 1 0 22469396.00 18273498.00 L 22369428.00 18373466.00 L 22353577.00 18411735.00 L 22353576.00 18611670.00 L 22369428.00 18649939.00 L 22469396.00 18749907.00 L 22507665.00 18765758.00 L 22907535.00 18765759.00 L 22945804.00 18749907.00  z"/>
<path id="N" d="M 25660339.00 23807772.00 L 25760307.00 23707804.00 L 25776158.00 23669535.00 L 25776159.00 23269665.00 L 25760307.00 23231396.00 L 25660339.00 23131428.00 L 25622070.00 23115577.00 L 25422135.00 23115576.00 L 25383866.00 23131428.00 L 25283898.00 23231396.00 A 54121.84 54121.84 0 1 0 25360436.00 23307934.00 L 25444553.00 23223817.00 L 25599652.00 23223817.00 L 25667918.00 23292083.00 L 25667918.00 23647117.00 L 25599652.00 23715383.00 L 25444553.00 23715383.00 L 25360436.00 23631266.00 A 54119.43 54119.43 0 0 0 25283898.00 23707804.00 L 25383866.00 23807772.00 L 25422135.00 23823623.00 L 25622070.00 23823624.00 L 25660339.00 23807772.00  z"/>
<path id="N" d="M 25661971.00 23071172.00 L 25761939.00 22971204.00 L 25777790.00 22932935.00 L 25777791.00 22533065.00 L 25761939.00 22494796.00 L 25661971.00 22394828.00 L 25623702.00 22378977.00 L 25423767.00 22378976.00 L 25385498.00 22394828.00 L 25285530.00 22494796.00 A 54121.84 54121.84 0 1 0 25362068.00 22571334.00 L 25446185.00 22487217.00 L 25601284.00 22487217.00 L 25669550.00 22555483.00 L 25669550.00 22910517.00 L 25601284.00 22978783.00 L 25446185.00 22978783.00 L 25362068.00 22894666.00 A 54119.43 54119.43 0 1 0 25285530.00 22971204.00 L 25385498.00 23071172.00 L 25423767.00 23087023.00 L 25623702.00 23087024.00 L 25661971.00 23071172.00  z"/>
<path id="N" d="M 23834804.00 18800707.00 L 23934772.00 18700739.00 L 23950623.00 18662470.00 L 23950624.00 18462535.00 L 23934772.00 18424266.00 L 23834804.00 18324298.00 A 54121.84 54121.84 0 1 0 23758266.00 18400836.00 L 23842383.00 18484953.00 L 23842383.00 18640052.00 L 23774117.00 18708318.00 L 23419083.00 18708318.00 L 23350817.00 18640052.00 L 23350817.00 18484953.00 L 23434934.00 18400836.00 A 54119.43 54119.43 0 1 0 23358396.00 18324298.00 L 23258428.00 18424266.00 L 23242577.00 18462535.00 L 23242576.00 18662470.00 L 23258428.00 18700739.00 L 23358396.00 18800707.00 L 23396665.00 18816558.00 L 23796535.00 18816559.00 L 23834804.00 18800707.00  z"/>
<path id="N" d="M 21566858.00 17965772.00 L 21666826.00 17865804.00 L 21682677.00 17827535.00 L 21682678.00 17427665.00 L 21666826.00 17389396.00 L 21566858.00 17289428.00 L 21528589.00 17273577.00 L 21328654.00 17273576.00 L 21290385.00 17289428.00 L 21190417.00 17389396.00 A 54121.84 54121.84 0 1 0 21266955.00 17465934.00 L 21351072.00 17381817.00 L 21506171.00 17381817.00 L 21574437.00 17450083.00 L 21574437.00 17805117.00 L 21506171.00 17873383.00 L 21351072.00 17873383.00 L 21266955.00 17789266.00 A 54119.43 54119.43 0 1 0 21190417.00 17865804.00 L 21290385.00 17965772.00 L 21328654.00 17981623.00 L 21528589.00 17981624.00 L 21566858.00 17965772.00  z"/>
<path id="N" d="M 20916889.00 26931972.00 L 21016857.00 26832004.00 L 21032708.00 26793735.00 L 21032709.00 26393865.00 L 21016857.00 26355596.00 L 20916889.00 26255628.00 L 20878620.00 26239777.00 L 20678685.00 26239776.00 L 20640416.00 26255628.00 L 20540448.00 26355596.00 A 54121.84 54121.84 0 0 0 20616986.00 26432134.00 L 20701103.00 26348017.00 L 20856202.00 26348017.00 L 20924468.00 26416283.00 L 20924468.00 26771317.00 L 20856202.00 26839583.00 L 20701103.00 26839583.00 L 20616986.00 26755466.00 A 54119.43 54119.43 0 0 0 20540448.00 26832004.00 L 20640416.00 26931972.00 L 20678685.00 26947823.00 L 20878620.00 26947824.00 L 20916889.00 26931972.00  z"/>
<path id="N" d="M 20916889.00 27795572.00 L 21016857.00 27695604.00 L 21032708.00 27657335.00 L 21032709.00 27257465.00 L 21016857.00 27219196.00 L 20916889.00 27119228.00 L 20878620.00 27103377.00 L 20678685.00 27103376.00 L 20640416.00 27119228.00 L 20540448.00 27219196.00 A 54121.84 54121.84 0 0 0 20616986.00 27295734.00 L 20701103.00 27211617.00 L 20856202.00 27211617.00 L 20924468.00 27279883.00 L 20924468.00 27634917.00 L 20856202.00 27703183.00 L 20701103.00 27703183.00 L 20616986.00 27619066.00 A 54119.43 54119.43 0 0 0 20540448.00 27695604.00 L 20640416.00 27795572.00 L 20678685.00 27811423.00 L 20878620.00 27811424.00 L 20916889.00 27795572.00  z"/>
<path id="N" d="M 25076139.00 27084372.00 L 25176107.00 26984404.00 L 25191958.00 26946135.00 L 25191959.00 26546265.00 L 25176107.00 26507996.00 L 25076139.00 26408028.00 L 25037870.00 26392177.00 L 24837935.00 26392176.00 L 24799666.00 26408028.00 L 24699698.00 26507996.00 A 54121.84 54121.84 0 0 0 24776236.00 26584534.00 L 24860353.00 26500417.00 L 25015452.00 26500417.00 L 25083718.00 26568683.00 L 25083718.00 26923717.00 L 25015452.00 26991983.00 L 24860353.00 26991983.00 L 24776236.00 26907866.00 A 54119.43 54119.43 0 0 0 24699698.00 26984404.00 L 24799666.00 27084372.00 L 24837935.00 27100223.00 L 25037870.00 27100224.00 L 25076139.00 27084372.00  z"/>
<path id="N" d="M 20986739.00 28608372.00 L 21086707.00 28508404.00 L 21102558.00 28470135.00 L 21102559.00 28070265.00 L 21086707.00 28031996.00 L 20986739.00 27932028.00 L 20948470.00 27916177.00 L 20748535.00 27916176.00 L 20710266.00 27932028.00 L 20610298.00 28031996.00 A 54121.84 54121.84 0 0 0 20686836.00 28108534.00 L 20770953.00 28024417.00 L 20926052.00 28024417.00 L 20994318.00 28092683.00 L 20994318.00 28447717.00 L 20926052.00 28515983.00 L 20770953.00 28515983.00 L 20686836.00 28431866.00 A 54119.43 54119.43 0 0 0 20610298.00 28508404.00 L 20710266.00 28608372.00 L 20748535.00 28624223.00 L 20948470.00 28624224.00 L 20986739.00 28608372.00  z"/>
<path id="N" d="M 33778495.00 32798075.00 L 33878463.00 32698107.00 A 54121.84 54121.84 0 0 0 33801925.00 32621569.00 L 33717808.00 32705686.00 L 33562709.00 32705686.00 L 33494443.00 32637420.00 L 33494443.00 32582289.00 L 33878463.00 32198269.00 A 54119.43 54119.43 0 0 0 33840191.59 32105880.00 L 33440323.00 32105880.00 A 54118.70 54118.70 0 0 0 33440323.00 32214120.00 L 33709536.00 32214120.00 L 33402054.00 32521602.00 L 33386203.00 32559873.41 L 33386202.00 32659838.00 L 33402054.00 32698107.00 L 33502022.00 32798075.00 L 33540291.00 32813926.00 L 33740226.00 32813927.00 L 33778495.00 32798075.00  z"/>
<path id="N" d="M 19426630.00 24061772.00 L 19526598.00 23961804.00 A 54121.84 54121.84 0 0 0 19450060.00 23885266.00 L 19365943.00 23969383.00 L 19210844.00 23969383.00 L 19142578.00 23901117.00 L 19142578.00 23845986.00 L 19526598.00 23461966.00 A 54119.43 54119.43 0 0 0 19488326.59 23369577.00 L 19088458.00 23369577.00 A 54118.70 54118.70 0 0 0 19088458.00 23477817.00 L 19357671.00 23477817.00 L 19050189.00 23785299.00 L 19034338.00 23823570.41 L 19034337.00 23923535.00 L 19050189.00 23961804.00 L 19150157.00 24061772.00 L 19188426.00 24077623.00 L 19388361.00 24077624.00 L 19426630.00 24061772.00  z"/>
<path id="N" d="M 15878495.00 18928075.00 L 15978463.00 18828107.00 A 54121.84 54121.84 0 0 0 15901925.00 18751569.00 L 15817808.00 18835686.00 L 15662709.00 18835686.00 L 15594443.00 18767420.00 L 15594443.00 18712289.00 L 15978463.00 18328269.00 A 54119.43 54119.43 0 0 0 15940191.59 18235880.00 L 15540323.00 18235880.00 A 54118.70 54118.70 0 0 0 15540323.00 18344120.00 L 15809536.00 18344120.00 L 15502054.00 18651602.00 L 15486203.00 18689873.41 L 15486202.00 18789838.00 L 15502054.00 18828107.00 L 15602022.00 18928075.00 L 15640291.00 18943926.00 L 15840226.00 18943927.00 L 15878495.00 18928075.00  z"/>
<path id="N" d="M 25060533.00 23807772.00 L 25160501.00 23707804.00 A 54121.84 54121.84 0 0 0 25083963.00 23631266.00 L 24999846.00 23715383.00 L 24844747.00 23715383.00 L 24776481.00 23647117.00 L 24776481.00 23591986.00 L 25160501.00 23207966.00 A 54119.43 54119.43 0 0 0 25122229.59 23115577.00 L 24722361.00 23115577.00 A 54118.70 54118.70 0 0 0 24722361.00 23223817.00 L 24991574.00 23223817.00 L 24684092.00 23531299.00 L 24668241.00 23569570.41 L 24668240.00 23669535.00 L 24684092.00 23707804.00 L 24784060.00 23807772.00 L 24822329.00 23823623.00 L 25022264.00 23823624.00 L 25060533.00 23807772.00  z"/>
<path id="N" d="M 24984333.00 24569772.00 L 25084301.00 24469804.00 A 54121.84 54121.84 0 1 0 25007763.00 24393266.00 L 24923646.00 24477383.00 L 24768547.00 24477383.00 L 24700281.00 24409117.00 L 24700281.00 24353986.00 L 25084301.00 23969966.00 A 54119.43 54119.43 0 0 0 25046029.59 23877577.00 L 24646161.00 23877577.00 A 54118.70 54118.70 0 0 0 24646161.00 23985817.00 L 24915374.00 23985817.00 L 24607892.00 24293299.00 L 24592041.00 24331570.41 L 24592040.00 24431535.00 L 24607892.00 24469804.00 L 24707860.00 24569772.00 L 24746129.00 24585623.00 L 24946064.00 24585624.00 L 24984333.00 24569772.00  z"/>
<path id="N" d="M 17545824.77 17769927.00 L 17939385.00 17769927.00 L 17969518.00 17757446.00 L 17981999.00 17727313.00 L 17969518.00 17697180.00 L 17939385.00 17684699.00 L 17588207.00 17684699.00 L 17588207.00 14777799.00 L 19825923.00 14777799.00 L 19825923.00 17684699.00 L 19474817.00 17684699.00 L 19444684.00 17697180.00 L 19432203.00 17727313.00 L 19444684.00 17757446.00 L 19474817.00 17769927.00 L 19868537.00 17769927.00 L 19898670.00 17757446.00 L 19911151.00 17727313.00 L 19911151.00 14735185.00 L 19898670.00 14705052.00 L 19868537.00 14692571.00 L 17545689.00 14692571.00 L 17515460.00 14705148.00 L 17502979.00 14735281.00 L 17502979.00 17727409.00 L 17515460.00 17757542.00 L 17545824.77 17769927.00  z"/>
<path id="N" d="M 47035170.41 36869266.00 L 47135135.00 36869266.00 L 47173404.00 36853415.00 L 47273372.00 36753447.00 L 47289223.00 36715175.59 L 47289223.00 36269460.00 L 47335071.00 36269460.00 A 54118.70 54118.70 0 1 0 47335071.00 36161220.00 L 47135135.00 36161220.00 A 54118.70 54118.70 0 1 0 47135135.00 36269460.00 L 47180983.00 36269460.00 L 47180983.00 36692760.00 L 47112717.00 36761026.00 L 47057586.00 36761026.00 L 46973469.00 36676909.00 A 54121.84 54121.84 0 0 0 46896931.00 36753447.00 L 46996899.00 36853415.00 L 47035170.41 36869266.00  z"/>
<path id="N" d="M 44280065.00 18525686.00 L 44234217.00 18525686.00 L 44234217.00 18102386.00 L 44302483.00 18034120.00 L 44357614.00 18034120.00 L 44441731.00 18118237.00 A 54121.84 54121.84 0 0 0 44518269.00 18041699.00 L 44418301.00 17941731.00 L 44380029.59 17925880.00 L 44280065.00 17925880.00 L 44241796.00 17941731.00 L 44141828.00 18041699.00 L 44125977.00 18079970.41 L 44125977.00 18525686.00 L 44080129.00 18525686.00 A 54118.70 54118.70 0 0 0 44080129.00 18633926.00 L 44280065.00 18633926.00 A 54121.84 54121.84 0 0 0 44280065.00 18525686.00  z"/>
<path id="N" d="M 10945170.41 36869268.00 L 11045135.00 36869268.00 L 11083404.00 36853417.00 L 11183372.00 36753449.00 L 11199223.00 36715177.59 L 11199223.00 36269462.00 L 11245071.00 36269462.00 A 54118.70 54118.70 0 1 0 11245071.00 36161222.00 L 11045135.00 36161222.00 A 54118.70 54118.70 0 1 0 11045135.00 36269462.00 L 11090983.00 36269462.00 L 11090983.00 36692762.00 L 11022717.00 36761028.00 L 10967586.00 36761028.00 L 10883469.00 36676911.00 A 54121.84 54121.84 0 0 0 10806931.00 36753449.00 L 10906899.00 36853417.00 L 10945170.41 36869268.00  z"/>
<path id="N" d="M 14269226.77 17769927.00 L 14662787.00 17769927.00 L 14692920.00 17757446.00 L 14705401.00 17727313.00 L 14692920.00 17697180.00 L 14662787.00 17684699.00 L 14311609.00 17684699.00 L 14311609.00 14777799.00 L 16549325.00 14777799.00 L 16549325.00 17684699.00 L 16198219.00 17684699.00 L 16168086.00 17697180.00 L 16155605.00 17727313.00 L 16168086.00 17757446.00 L 16198219.00 17769927.00 L 16591939.00 17769927.00 L 16622072.00 17757446.00 L 16634553.00 17727313.00 L 16634553.00 14735185.00 L 16622072.00 14705052.00 L 16591939.00 14692571.00 L 14269091.00 14692571.00 L 14238862.00 14705148.00 L 14226381.00 14735281.00 L 14226381.00 17727409.00 L 14238862.00 17757542.00 L 14269226.77 17769927.00  z"/>
<path id="N" d="M 44280065.00 32705686.00 L 44234217.00 32705686.00 L 44234217.00 32282386.00 L 44302483.00 32214120.00 L 44357614.00 32214120.00 L 44441731.00 32298237.00 A 54121.84 54121.84 0 0 0 44518269.00 32221699.00 L 44418301.00 32121731.00 L 44380029.59 32105880.00 L 44280065.00 32105880.00 L 44241796.00 32121731.00 L 44141828.00 32221699.00 L 44125977.00 32259970.41 L 44125977.00 32705686.00 L 44080129.00 32705686.00 A 54118.70 54118.70 0 0 0 44080129.00 32813926.00 L 44280065.00 32813926.00 A 54121.84 54121.84 0 0 0 44280065.00 32705686.00  z"/>
<path id="N" d="M 34240065.00 32705686.00 L 34194217.00 32705686.00 L 34194217.00 32282386.00 L 34262483.00 32214120.00 L 34317614.00 32214120.00 L 34401731.00 32298237.00 A 54121.84 54121.84 0 0 0 34478269.00 32221699.00 L 34378301.00 32121731.00 L 34340029.59 32105880.00 L 34240065.00 32105880.00 L 34201796.00 32121731.00 L 34101828.00 32221699.00 L 34085977.00 32259970.41 L 34085977.00 32705686.00 L 34040129.00 32705686.00 A 54118.70 54118.70 0 0 0 34040129.00 32813926.00 L 34240065.00 32813926.00 A 54121.84 54121.84 0 0 0 34240065.00 32705686.00  z"/>
<path id="N" d="M 42922631.00 34740843.00 L 42922631.00 34540907.00 A 54118.70 54118.70 0 0 0 42814391.00 34540907.00 L 42814391.00 34586755.00 L 42391091.00 34586755.00 L 42322825.00 34518489.00 L 42322825.00 34463358.00 L 42406942.00 34379241.00 A 54121.84 54121.84 0 1 0 42330404.00 34302703.00 L 42230436.00 34402671.00 L 42214585.00 34440942.41 L 42214585.00 34540907.00 L 42230436.00 34579176.00 L 42330404.00 34679144.00 L 42368675.41 34694995.00 L 42814391.00 34694995.00 L 42814391.00 34740843.00 A 54118.70 54118.70 0 0 0 42922631.00 34740843.00  z"/>
<path id="N" d="M 16850065.00 63315686.00 L 16804217.00 63315686.00 L 16804217.00 62892386.00 L 16872483.00 62824120.00 L 16927614.00 62824120.00 L 17011731.00 62908237.00 A 54121.84 54121.84 0 0 0 17088269.00 62831699.00 L 16988301.00 62731731.00 L 16950029.59 62715880.00 L 16850065.00 62715880.00 L 16811796.00 62731731.00 L 16711828.00 62831699.00 L 16695977.00 62869970.41 L 16695977.00 63315686.00 L 16650129.00 63315686.00 A 54118.70 54118.70 0 1 0 16650129.00 63423926.00 L 16850065.00 63423926.00 A 54121.84 54121.84 0 1 0 16850065.00 63315686.00  z"/>
<path id="N" d="M 35820065.00 18525686.00 L 35774217.00 18525686.00 L 35774217.00 18102386.00 L 35842483.00 18034120.00 L 35897614.00 18034120.00 L 35981731.00 18118237.00 A 54121.84 54121.84 0 0 0 36058269.00 18041699.00 L 35958301.00 17941731.00 L 35920029.59 17925880.00 L 35820065.00 17925880.00 L 35781796.00 17941731.00 L 35681828.00 18041699.00 L 35665977.00 18079970.41 L 35665977.00 18525686.00 L 35620129.00 18525686.00 A 54118.70 54118.70 0 0 0 35620129.00 18633926.00 L 35820065.00 18633926.00 A 54121.84 54121.84 0 0 0 35820065.00 18525686.00  z"/>
<path id="N" d="M 29485623.00 34740843.00 L 29485623.00 34540907.00 A 54118.70 54118.70 0 0 0 29377383.00 34540907.00 L 29377383.00 34586755.00 L 28954083.00 34586755.00 L 28885817.00 34518489.00 L 28885817.00 34463358.00 L 28969934.00 34379241.00 A 54121.84 54121.84 0 1 0 28893396.00 34302703.00 L 28793428.00 34402671.00 L 28777577.00 34440942.41 L 28777577.00 34540907.00 L 28793428.00 34579176.00 L 28893396.00 34679144.00 L 28931667.41 34694995.00 L 29377383.00 34694995.00 L 29377383.00 34740843.00 A 54118.70 54118.70 0 0 0 29485623.00 34740843.00  z"/>
<path id="N" d="M 20229012.41 17981623.00 L 20428945.00 17981623.00 L 20467214.00 17965772.00 L 20567182.00 17865804.00 L 20583033.00 17827532.59 L 20583033.00 17427665.00 L 20567182.00 17389396.00 L 20467214.00 17289428.00 L 20428942.59 17273577.00 L 20229010.00 17273577.00 L 20190741.00 17289428.00 L 20090773.00 17389396.00 L 20074922.00 17427667.41 L 20074922.00 17827535.00 L 20090773.00 17865804.00 L 20190741.00 17965772.00 L 20229012.41 17981623.00  zM 20406527.00 17873383.00 L 20251428.00 17873383.00 L 20183162.00 17805117.00 L 20183162.00 17450083.00 L 20251428.00 17381817.00 L 20406527.00 17381817.00 L 20474793.00 17450083.00 L 20474793.00 17805117.00 L 20406527.00 17873383.00  z"/>
<path id="N" d="M 20091748.00 26068372.00 L 20391651.00 25768469.00 A 54119.43 54119.43 0 0 0 20353379.59 25676080.00 L 20107599.00 25676080.00 L 20107599.00 25430297.00 A 54118.70 54118.70 0 0 0 19999359.00 25430297.00 L 19999359.00 25676080.00 L 19953511.00 25676080.00 A 54118.70 54118.70 0 0 0 19953511.00 25784320.00 L 19999359.00 25784320.00 L 19999358.00 26030103.00 A 54122.11 54122.11 0 0 0 20091748.00 26068372.00  zM 20107599.00 25899445.00 L 20107599.00 25784320.00 L 20222724.00 25784320.00 L 20107599.00 25899445.00  z"/>
<path id="N" d="M 35158560.00 18618075.00 L 35458463.00 18318172.00 A 54119.43 54119.43 0 0 0 35420191.59 18225783.00 L 35174411.00 18225783.00 L 35174411.00 17980000.00 A 54118.70 54118.70 0 0 0 35066171.00 17980000.00 L 35066171.00 18225783.00 L 35020323.00 18225783.00 A 54118.70 54118.70 0 0 0 35020323.00 18334023.00 L 35066171.00 18334023.00 L 35066170.00 18579806.00 A 54122.11 54122.11 0 0 0 35158560.00 18618075.00  zM 35174411.00 18449148.00 L 35174411.00 18334023.00 L 35289536.00 18334023.00 L 35174411.00 18449148.00  z"/>
<path id="N" d="M 24633102.00 20467446.00 L 24487287.00 20467446.00 L 24487287.00 20221663.00 L 24471436.00 20183394.00 L 24371468.00 20083426.00 L 24333196.59 20067575.00 L 24133264.00 20067575.00 L 24094995.00 20083426.00 L 23995027.00 20183394.00 L 23979176.00 20221665.41 L 23979176.00 20521566.00 L 23995027.00 20559835.00 L 24033296.00 20575686.00 L 24633102.00 20575686.00 A 54121.84 54121.84 0 1 0 24633102.00 20467446.00  zM 24379047.00 20467446.00 L 24087416.00 20467446.00 L 24087416.00 20244081.00 L 24155682.00 20175815.00 L 24310781.00 20175815.00 L 24379047.00 20244081.00 L 24379047.00 20467446.00  z"/>
<path id="N" d="M 19788234.41 24077623.00 L 20088135.00 24077623.00 L 20126404.00 24061772.00 L 20142255.00 24023503.00 L 20142255.00 23423697.00 A 54118.70 54118.70 0 0 0 20034015.00 23423697.00 L 20034015.00 23569512.00 L 19788232.00 23569512.00 L 19749963.00 23585363.00 L 19649995.00 23685331.00 L 19634144.00 23723602.41 L 19634144.00 23923535.00 L 19649995.00 23961804.00 L 19749963.00 24061772.00 L 19788234.41 24077623.00  zM 20034015.00 23969383.00 L 19810650.00 23969383.00 L 19742384.00 23901117.00 L 19742384.00 23746018.00 L 19810650.00 23677752.00 L 20034015.00 23677752.00 L 20034015.00 23969383.00  z"/>
<path id="N" d="M 16240099.41 18943926.00 L 16540000.00 18943926.00 L 16578269.00 18928075.00 L 16594120.00 18889806.00 L 16594120.00 18290000.00 A 54118.70 54118.70 0 0 0 16485880.00 18290000.00 L 16485880.00 18435815.00 L 16240097.00 18435815.00 L 16201828.00 18451666.00 L 16101860.00 18551634.00 L 16086009.00 18589905.41 L 16086009.00 18789838.00 L 16101860.00 18828107.00 L 16201828.00 18928075.00 L 16240099.41 18943926.00  zM 16485880.00 18835686.00 L 16262515.00 18835686.00 L 16194249.00 18767420.00 L 16194249.00 18612321.00 L 16262515.00 18544055.00 L 16485880.00 18544055.00 L 16485880.00 18835686.00  z"/>
<path id="N" d="M 23547434.41 29614823.00 L 23847335.00 29614823.00 L 23885604.00 29598972.00 L 23901455.00 29560703.00 L 23901455.00 28960897.00 A 54118.70 54118.70 0 1 0 23793215.00 28960897.00 L 23793215.00 29106712.00 L 23547432.00 29106712.00 L 23509163.00 29122563.00 L 23409195.00 29222531.00 L 23393344.00 29260802.41 L 23393344.00 29460735.00 L 23409195.00 29499004.00 L 23509163.00 29598972.00 L 23547434.41 29614823.00  zM 23793215.00 29506583.00 L 23569850.00 29506583.00 L 23501584.00 29438317.00 L 23501584.00 29283218.00 L 23569850.00 29214952.00 L 23793215.00 29214952.00 L 23793215.00 29506583.00  z"/>
<path id="N" d="M 25062165.00 23071172.00 L 25162133.00 22971204.00 A 54121.84 54121.84 0 1 0 25078016.00 22902245.00 L 25078016.00 22487217.00 L 25123864.00 22487217.00 A 54118.70 54118.70 0 0 0 25123864.00 22378977.00 L 24923929.00 22378977.00 A 54118.70 54118.70 0 0 0 24923929.00 22487217.00 L 24969776.00 22487217.00 L 24969775.00 23032903.00 A 54122.11 54122.11 0 0 0 25062165.00 23071172.00  z"/>
<path id="N" d="M 20967052.00 17965772.00 L 21067020.00 17865804.00 A 54121.84 54121.84 0 1 0 20982903.00 17796845.00 L 20982903.00 17381817.00 L 21028751.00 17381817.00 A 54118.70 54118.70 0 0 0 21028751.00 17273577.00 L 20828816.00 17273577.00 A 54118.70 54118.70 0 1 0 20828816.00 17381817.00 L 20874663.00 17381817.00 L 20874662.00 17927503.00 A 54122.11 54122.11 0 0 0 20967052.00 17965772.00  z"/>
<path id="N" d="M 16388495.00 63408075.00 L 16488463.00 63308107.00 A 54121.84 54121.84 0 1 0 16404346.00 63239148.00 L 16404346.00 62824120.00 L 16450194.00 62824120.00 A 54118.70 54118.70 0 0 0 16450194.00 62715880.00 L 16250259.00 62715880.00 A 54118.70 54118.70 0 0 0 16250259.00 62824120.00 L 16296106.00 62824120.00 L 16296105.00 63369806.00 A 54122.11 54122.11 0 0 0 16388495.00 63408075.00  z"/>
<path id="N" d="M 24687222.00 19921760.00 L 24687222.00 19721825.00 A 54118.70 54118.70 0 0 0 24578982.00 19721825.00 L 24578982.00 19767672.00 L 24033296.00 19767671.00 A 54122.11 54122.11 0 0 0 23995027.00 19860061.00 L 24094995.00 19960029.00 A 54121.84 54121.84 0 1 0 24163954.00 19875912.00 L 24578982.00 19875912.00 L 24578982.00 19921760.00 A 54118.70 54118.70 0 0 0 24687222.00 19921760.00  z"/>
<path id="N" d="M 21252165.00 21242372.00 L 21352133.00 21142404.00 A 54121.84 54121.84 0 1 0 21268016.00 21073445.00 L 21268016.00 20658417.00 L 21313864.00 20658417.00 A 54118.70 54118.70 0 1 0 21313864.00 20550177.00 L 21113929.00 20550177.00 A 54118.70 54118.70 0 1 0 21113929.00 20658417.00 L 21159776.00 20658417.00 L 21159775.00 21204103.00 A 54122.11 54122.11 0 0 0 21252165.00 21242372.00  z"/>
<path id="N" d="M 25366965.00 26347772.00 L 25466933.00 26247804.00 A 54121.84 54121.84 0 1 0 25382816.00 26178845.00 L 25382816.00 25763817.00 L 25428664.00 25763817.00 A 54118.70 54118.70 0 0 0 25428664.00 25655577.00 L 25228729.00 25655577.00 A 54118.70 54118.70 0 0 0 25228729.00 25763817.00 L 25274576.00 25763817.00 L 25274575.00 26309503.00 A 54122.11 54122.11 0 0 0 25366965.00 26347772.00  z"/>
<path id="N" d="M 21967790.00 21204103.00 L 21967791.00 20704265.00 L 21951939.00 20665996.00 L 21851971.00 20566028.00 L 21813702.00 20550177.00 L 21613767.00 20550176.00 L 21575498.00 20566028.00 L 21475530.00 20665996.00 L 21459679.00 20704265.00 L 21459679.00 21204103.00 A 54118.70 54118.70 0 0 0 21567919.00 21204103.00 L 21567919.00 20726683.00 L 21636185.00 20658417.00 L 21791284.00 20658417.00 L 21859550.00 20726683.00 L 21859550.00 21204103.00 A 54118.70 54118.70 0 0 0 21967790.00 21204103.00  z"/>
<path id="N" d="M 42768545.41 35394769.00 L 42868511.00 35394769.00 L 42906780.00 35378918.00 L 42922631.00 35340649.00 L 42922631.00 34940778.00 A 54118.70 54118.70 0 0 0 42814391.00 34940778.00 L 42814391.00 35286529.00 L 42790961.00 35286529.00 L 42406942.00 34902509.00 L 42368673.00 34886658.00 L 42268705.00 34886658.00 A 54118.70 54118.70 0 0 0 42268705.00 34994898.00 L 42346255.92 34994898.00 L 42730274.00 35378918.00 L 42768545.41 35394769.00  z"/>
<path id="N" d="M 20378782.00 27703183.00 L 20033031.00 27703183.00 L 20033031.00 27679753.00 L 20417051.00 27295734.00 L 20432902.00 27257465.00 L 20432902.00 27157497.00 A 54118.70 54118.70 0 0 0 20324662.00 27157497.00 L 20324662.00 27235047.92 L 19940642.00 27619066.00 L 19924791.00 27657337.41 L 19924791.00 27757303.00 L 19940642.00 27795572.00 L 19978911.00 27811423.00 L 20378782.00 27811423.00 A 54121.84 54121.84 0 0 0 20378782.00 27703183.00  z"/>
<path id="N" d="M 44585289.00 17171459.00 L 44585289.00 15596655.00 A 100353.26 100353.26 0 0 0 44384583.00 15596655.00 L 44384583.00 17171459.00 A 100353.26 100353.26 0 0 0 44585289.00 17171459.00  z"/>
<path id="N" d="M 44585289.00 31344687.00 L 44585289.00 29769883.00 A 100353.26 100353.26 0 0 0 44384583.00 29769883.00 L 44384583.00 31344687.00 A 100353.26 100353.26 0 0 0 44585289.00 31344687.00  z"/>
<path id="N" d="M 38601037.00 17171459.00 L 38601037.00 15596655.00 A 100353.26 100353.26 0 0 0 38400331.00 15596655.00 L 38400331.00 17171459.00 A 100353.26 100353.26 0 0 0 38601037.00 17171459.00  z"/>
<path id="N" d="M 38601037.00 31344687.00 L 38601037.00 29769883.00 A 100353.26 100353.26 0 0 0 38400331.00 29769883.00 L 38400331.00 31344687.00 A 100353.26 100353.26 0 0 0 38601037.00 31344687.00  z"/>
<path id="N" d="M 36120722.00 17171459.00 L 36120722.00 15596655.00 A 100353.26 100353.26 0 1 0 35920016.00 15596655.00 L 35920016.00 17171459.00 A 100353.26 100353.26 0 1 0 36120722.00 17171459.00  z"/>
<path id="N" d="M 34545919.00 31344687.00 L 34545919.00 29769883.00 A 100353.26 100353.26 0 0 0 34345213.00 29769883.00 L 34345213.00 31344687.00 A 100353.26 100353.26 0 0 0 34545919.00 31344687.00  z"/>
<path id="N" d="M 28561667.00 31344687.00 L 28561667.00 29769883.00 A 100353.26 100353.26 0 0 0 28360961.00 29769883.00 L 28360961.00 31344687.00 A 100353.26 100353.26 0 0 0 28561667.00 31344687.00  z"/>
<path id="N" d="M 30136470.00 17171459.00 L 30136470.00 15596655.00 A 100353.26 100353.26 0 0 0 29935764.00 15596655.00 L 29935764.00 17171459.00 A 100353.26 100353.26 0 0 0 30136470.00 17171459.00  z"/>
<path id="N" d="M 24087416.00 21121372.00 L 24087416.00 20975557.00 L 24633102.00 20975557.00 A 54118.70 54118.70 0 0 0 24633102.00 20867317.00 L 24087416.00 20867317.00 L 24087416.00 20721501.00 A 54118.70 54118.70 0 1 0 23979176.00 20721501.00 L 23979176.00 21121372.00 A 54118.70 54118.70 0 0 0 24087416.00 21121372.00  z"/>
<path id="N" d="M 24447141.00 29506583.00 L 24301326.00 29506583.00 L 24301326.00 28960897.00 A 54118.70 54118.70 0 1 0 24193086.00 28960897.00 L 24193086.00 29506583.00 L 24047270.00 29506583.00 A 54118.70 54118.70 0 0 0 24047270.00 29614823.00 L 24447141.00 29614823.00 A 54121.84 54121.84 0 0 0 24447141.00 29506583.00  z"/>
<path id="N" d="M 20687941.00 23969383.00 L 20542126.00 23969383.00 L 20542126.00 23423697.00 A 54118.70 54118.70 0 1 0 20433886.00 23423697.00 L 20433886.00 23969383.00 L 20288070.00 23969383.00 A 54118.70 54118.70 0 1 0 20288070.00 24077623.00 L 20687941.00 24077623.00 A 54121.84 54121.84 0 0 0 20687941.00 23969383.00  z"/>
<path id="N" d="M 46915084.92 37519361.92 m -80279.37 0 a 80279.37 80279.37 0 1 1 160558.73 0a 80279.37 80279.37 0 1 1 -160558.73 0"/>
<path id="N" d="M 10825084.92 37519361.92 m -80279.37 0 a 80279.37 80279.37 0 1 1 160558.73 0a 80279.37 80279.37 0 1 1 -160558.73 0"/>
<path id="N" d="M 17020514.00 58739435.00 L 17032995.00 58709302.00 L 17032995.00 58664027.00 L 17020514.00 58633894.00 L 16990381.00 58621413.00 L 13388019.00 58621413.00 L 13357886.00 58633894.00 L 13345405.00 58664027.00 L 13345405.00 58709302.00 L 13357886.00 58739435.00 L 13388019.00 58751916.00 L 13418152.00 58739435.00 L 13430633.00 58706641.00 L 16947767.00 58706641.00 L 16960248.00 58739435.00 L 16990381.00 58751916.00 L 17020514.00 58739435.00  z"/>
<path id="N" d="M 22958388.00 25626985.00 L 22970869.00 25596852.00 L 22970869.00 24376380.00 L 22958388.00 24346247.00 L 22928255.00 24333766.00 L 22534554.00 24333766.00 L 22504421.00 24346247.00 L 22491940.00 24376380.00 L 22491940.00 25596852.00 L 22504421.00 25626985.00 L 22534554.00 25639466.00 L 22928255.00 25639466.00 L 22958388.00 25626985.00  zM 22885641.00 25554238.00 L 22577168.00 25554238.00 L 22577168.00 24418994.00 L 22885641.00 24418994.00 L 22885641.00 25554238.00  z"/>
<path id="N" d="M 19107098.47 17895797.47 m -100354.75 0 a 100354.75 100354.75 0 1 1 200709.51 0a 100354.75 100354.75 0 1 1 -200709.51 0"/>
<path id="N" d="M 21713186.47 22174198.47 m -100354.75 0 a 100354.75 100354.75 0 1 1 200709.51 0a 100354.75 100354.75 0 1 1 -200709.51 0"/>
<path id="N" d="M 22190064.47 24277952.47 m -100354.75 0 a 100354.75 100354.75 0 1 1 200709.51 0a 100354.75 100354.75 0 1 1 -200709.51 0"/>
<path id="N" d="M 23692140.00 23050790.00 L 23704621.00 23020657.00 L 23704621.00 21327743.00 L 23692140.00 21297610.00 L 23662007.00 21285129.00 L 21969093.00 21285129.00 L 21938960.00 21297610.00 L 21926479.00 21327743.00 L 21926479.00 23020657.00 L 21938960.00 23050790.00 L 21969093.00 23063271.00 L 23662007.00 23063271.00 L 23692140.00 23050790.00  zM 23619393.00 22978043.00 L 22011707.00 22978043.00 L 22011707.00 21370357.00 L 23619393.00 21370357.00 L 23619393.00 22978043.00  z"/>
<path id="N" d="M 14017939.47 58463237.47 m -100354.75 0 a 100354.75 100354.75 0 1 1 200709.51 0a 100354.75 100354.75 0 1 1 -200709.51 0"/>
<path id="N" d="M 15830500.47 17895797.47 m -100354.75 0 a 100354.75 100354.75 0 1 1 200709.51 0a 100354.75 100354.75 0 1 1 -200709.51 0"/>
<path id="N" d="M 12660333.00 38411696.00 L 12672814.00 38381563.00 L 12672814.00 37220146.00 L 12660333.00 37190013.00 L 12630200.00 37177532.00 L 11630200.00 37177532.00 L 11600067.00 37190013.00 L 11587586.00 37220146.00 L 11600067.00 37250279.00 L 11630200.00 37262760.00 L 12587586.00 37262760.00 L 12587586.00 38381563.00 L 12600067.00 38411696.00 L 12630200.00 38424177.00 L 12660333.00 38411696.00  z"/>
<path id="N" d="M 48750333.00 57250279.00 L 48762814.00 57220146.00 L 48750333.00 57190013.00 L 48720200.00 57177532.00 L 47762814.00 57177532.00 L 47762814.00 56058729.00 L 47750333.00 56028596.00 L 47720200.00 56016115.00 L 47690067.00 56028596.00 L 47677586.00 56058729.00 L 47677586.00 57220146.00 L 47690067.00 57250279.00 L 47720200.00 57262760.00 L 48720200.00 57262760.00 L 48750333.00 57250279.00  z"/>
<path id="N" d="M 12660333.00 57250279.00 L 12672814.00 57220146.00 L 12660333.00 57190013.00 L 12630200.00 57177532.00 L 11672814.00 57177532.00 L 11672814.00 56058729.00 L 11660333.00 56028596.00 L 11630200.00 56016115.00 L 11600067.00 56028596.00 L 11587586.00 56058729.00 L 11587586.00 57220146.00 L 11600067.00 57250279.00 L 11630200.00 57262760.00 L 12630200.00 57262760.00 L 12660333.00 57250279.00  z"/>
<path id="N" d="M 48750333.00 38411696.00 L 48762814.00 38381563.00 L 48762814.00 37220146.00 L 48750333.00 37190013.00 L 48720200.00 37177532.00 L 47720200.00 37177532.00 L 47690067.00 37190013.00 L 47677586.00 37220146.00 L 47690067.00 37250279.00 L 47720200.00 37262760.00 L 48677586.00 37262760.00 L 48677586.00 38381563.00 L 48690067.00 38411696.00 L 48720200.00 38424177.00 L 48750333.00 38411696.00  z"/>
<path id="N" d="M 22447538.00 26867456.00 L 22460019.00 26837323.00 L 22447538.00 26807190.00 L 22417405.00 26794709.00 L 22299295.00 26794709.00 L 22269162.00 26807190.00 L 22256681.00 26837323.00 L 22269162.00 26867456.00 L 22299295.00 26879937.00 L 22417405.00 26879937.00 L 22447538.00 26867456.00  z"/>
<path id="N" d="M 22447538.00 27193210.00 L 22460019.00 27163077.00 L 22447538.00 27132944.00 L 22417405.00 27120463.00 L 22299295.00 27120463.00 L 22269162.00 27132944.00 L 22256681.00 27163077.00 L 22269162.00 27193210.00 L 22299295.00 27205691.00 L 22417405.00 27205691.00 L 22447538.00 27193210.00  z"/>
<path id="N" d="M 22447538.00 28188256.00 L 22460019.00 28158123.00 L 22447538.00 28127990.00 L 22417405.00 28115509.00 L 22299295.00 28115509.00 L 22269162.00 28127990.00 L 22256681.00 28158123.00 L 22269162.00 28188256.00 L 22299295.00 28200737.00 L 22417405.00 28200737.00 L 22447538.00 28188256.00  z"/>
<path id="N" d="M 23615938.00 26867456.00 L 23628419.00 26837323.00 L 23615938.00 26807190.00 L 23585805.00 26794709.00 L 23467695.00 26794709.00 L 23437562.00 26807190.00 L 23425081.00 26837323.00 L 23437562.00 26867456.00 L 23467695.00 26879937.00 L 23585805.00 26879937.00 L 23615938.00 26867456.00  z"/>
<path id="N" d="M 23615938.00 26532810.00 L 23628419.00 26502677.00 L 23615938.00 26472544.00 L 23585805.00 26460063.00 L 23467695.00 26460063.00 L 23437562.00 26472544.00 L 23425081.00 26502677.00 L 23437562.00 26532810.00 L 23467695.00 26545291.00 L 23585805.00 26545291.00 L 23615938.00 26532810.00  z"/>
<path id="N" d="M 13418152.00 60207939.00 L 13430633.00 60177806.00 L 13430633.00 59949460.00 L 13418152.00 59919327.00 L 13388019.00 59906846.00 L 13357886.00 59919327.00 L 13345405.00 59949460.00 L 13345405.00 60177806.00 L 13357886.00 60207939.00 L 13388019.00 60220420.00 L 13418152.00 60207939.00  z"/>
<path id="N" d="M 22447538.00 26207056.00 L 22460019.00 26176923.00 L 22447538.00 26146790.00 L 22417405.00 26134309.00 L 22299295.00 26134309.00 L 22269162.00 26146790.00 L 22256681.00 26176923.00 L 22269162.00 26207056.00 L 22299295.00 26219537.00 L 22417405.00 26219537.00 L 22447538.00 26207056.00  z"/>
<path id="N" d="M 22001661.00 19149561.00 L 22011172.00 19126600.00 L 22001661.00 19103639.00 L 21978700.00 19094128.00 L 21168700.00 19094128.00 L 21145739.00 19103639.00 L 21136228.00 19126600.00 L 21145739.00 19149561.00 L 21168700.00 19159072.00 L 21978700.00 19159072.00 L 22001661.00 19149561.00  z"/>
<path id="N" d="M 17020514.00 60207939.00 L 17032995.00 60177806.00 L 17032995.00 59949460.00 L 17020514.00 59919327.00 L 16990381.00 59906846.00 L 16960248.00 59919327.00 L 16947767.00 59949460.00 L 16947767.00 60177806.00 L 16960248.00 60207939.00 L 16990381.00 60220420.00 L 17020514.00 60207939.00  z"/>
<path id="N" d="M 22447538.00 27527856.00 L 22460019.00 27497723.00 L 22447538.00 27467590.00 L 22417405.00 27455109.00 L 22299295.00 27455109.00 L 22269162.00 27467590.00 L 22256681.00 27497723.00 L 22269162.00 27527856.00 L 22299295.00 27540337.00 L 22417405.00 27540337.00 L 22447538.00 27527856.00  z"/>
<path id="N" d="M 22447538.00 27853610.00 L 22460019.00 27823477.00 L 22447538.00 27793344.00 L 22417405.00 27780863.00 L 22299295.00 27780863.00 L 22269162.00 27793344.00 L 22256681.00 27823477.00 L 22269162.00 27853610.00 L 22299295.00 27866091.00 L 22417405.00 27866091.00 L 22447538.00 27853610.00  z"/>
<path id="N" d="M 22447538.00 26532810.00 L 22460019.00 26502677.00 L 22447538.00 26472544.00 L 22417405.00 26460063.00 L 22299295.00 26460063.00 L 22269162.00 26472544.00 L 22256681.00 26502677.00 L 22269162.00 26532810.00 L 22299295.00 26545291.00 L 22417405.00 26545291.00 L 22447538.00 26532810.00  z"/>
<path id="N" d="M 22447538.00 25872410.00 L 22460019.00 25842277.00 L 22447538.00 25812144.00 L 22417405.00 25799663.00 L 22299295.00 25799663.00 L 22269162.00 25812144.00 L 22256681.00 25842277.00 L 22269162.00 25872410.00 L 22299295.00 25884891.00 L 22417405.00 25884891.00 L 22447538.00 25872410.00  z"/>
</g>
</svg>
