<svg width="99.00000012mm" height="119.08716594mm" viewBox="0 0 38976378 46884711"  version="1.1" xmlns="http://www.w3.org/2000/svg" xmlns:xlink="http://www.w3.org/1999/xlink">
<desc>
Origin 0 0 Bound 10687011 14338257 38976378 46884711
</desc>
<g fill-rule="evenodd" fill="rgb(128, 0, 128)" stroke="black" stroke-width="1" transform="translate(0, 46884711) scale(1, -1) translate(-10687011, -14338257)">
<path id="N" d="M 20529530.00 60335658.00 L 20529531.00 59354371.00 A 989040.26 989040.26 0 0 0 19642219.00 58467060.00 L 16986224.00 58467059.00 L 16889750.00 58462319.00 A 984244.34 984244.34 0 0 1 16001972.00 57482808.00 L 16001973.00 36976052.00 L 16006712.00 36879578.00 A 984244.34 984244.34 0 0 1 16986224.00 35991800.00 L 43364176.00 35991801.00 L 43460649.00 35996540.00 A 984244.34 984244.34 0 0 1 44348428.00 36976052.00 L 44348428.00 59332834.00 A 989014.36 989014.36 0 0 0 45235739.00 60220146.00 L 48776077.00 60220146.00 A 989040.26 989040.26 0 0 0 49663389.00 59332834.00 L 49663388.00 34933107.00 A 989002.09 989002.09 0 0 0 49443654.00 34402624.00 L 47401446.00 32360414.00 L 47336581.00 32288846.00 A 984241.09 984241.09 0 0 1 47113167.00 31664444.00 L 47113167.00 14338257.00 L 13237233.00 14338257.00 L 13237233.00 31664445.00 L 13232493.00 31760918.00 A 984241.79 984241.79 0 0 1 12948952.00 32360416.00 L 10906744.00 34402623.00 A 989019.94 989019.94 0 0 0 10687011.00 34933107.00 L 10687011.00 59332834.00 A 989014.36 989014.36 0 0 0 11574322.00 60220146.00 L 11671263.00 60220146.00 L 13442917.00 61222968.00 L 19642219.00 61222968.00 A 989027.50 989027.50 0 0 0 20529530.00 60335658.00  zM 15036798.33 17195806.15 m -278596.85 0 a 278596.85 278596.85 0 1 1 557193.70 0a 278596.85 278596.85 0 1 1 -557193.70 0M 16100422.00 17472020.00 L 15547982.00 17472020.00 L 15547982.00 16919580.00 L 16100422.00 16919580.00 L 16100422.00 17472020.00  zM 18313396.33 17195806.15 m -278596.85 0 a 278596.85 278596.85 0 1 1 557193.70 0a 278596.85 278596.85 0 1 1 -557193.70 0M 19377020.00 17472020.00 L 18824580.00 17472020.00 L 18824580.00 16919580.00 L 19377020.00 16919580.00 L 19377020.00 17472020.00  zM 21529802.00 16103593.05 m -338174.95 0 a 338174.95 338174.95 0 1 1 676349.89 0a 338174.95 338174.95 0 1 1 -676349.89 0M 22865075.00 16438875.00 L 22194525.00 16438875.00 L 22194525.00 15768325.00 L 22865075.00 15768325.00 L 22865075.00 16438875.00  zM 25450800.65 20472396.97 m -168236.03 0 a 168236.03 168236.03 0 1 1 336472.07 0a 168236.03 168236.03 0 1 1 -336472.07 0M 29546600.65 28111396.97 m -168236.03 0 a 168236.03 168236.03 0 1 1 336472.07 0a 168236.03 168236.03 0 1 1 -336472.07 0M 14325602.00 30327593.05 m -338174.95 0 a 338174.95 338174.95 0 1 1 676349.89 0a 338174.95 338174.95 0 1 1 -676349.89 0M 14660875.00 31662875.00 L 13990325.00 31662875.00 L 13990325.00 30992325.00 L 14660875.00 30992325.00 L 14660875.00 31662875.00  zM 19506130.65 31672726.97 m -168236.03 0 a 168236.03 168236.03 0 1 1 336472.07 0a 168236.03 168236.03 0 1 1 -336472.07 0M 20294600.65 31648396.97 m -168236.03 0 a 168236.03 168236.03 0 1 1 336472.07 0a 168236.03 168236.03 0 1 1 -336472.07 0M 20955000.65 31292796.97 m -168236.03 0 a 168236.03 168236.03 0 1 1 336472.07 0a 168236.03 168236.03 0 1 1 -336472.07 0M 28473400.65 28854396.97 m -168236.03 0 a 168236.03 168236.03 0 1 1 336472.07 0a 168236.03 168236.03 0 1 1 -336472.07 0M 28524200.65 32130996.97 m -168236.03 0 a 168236.03 168236.03 0 1 1 336472.07 0a 168236.03 168236.03 0 1 1 -336472.07 0M 30251400.65 17957796.97 m -168236.03 0 a 168236.03 168236.03 0 1 1 336472.07 0a 168236.03 168236.03 0 1 1 -336472.07 0M 31064200.65 23088596.97 m -168236.03 0 a 168236.03 168236.03 0 1 1 336472.07 0a 168236.03 168236.03 0 1 1 -336472.07 0M 30683200.65 23367996.97 m -168236.03 0 a 168236.03 168236.03 0 1 1 336472.07 0a 168236.03 168236.03 0 1 1 -336472.07 0M 31445200.65 23672796.97 m -168236.03 0 a 168236.03 168236.03 0 1 1 336472.07 0a 168236.03 168236.03 0 1 1 -336472.07 0M 30431038.65 23799796.97 m -168236.03 0 a 168236.03 168236.03 0 1 1 336472.07 0a 168236.03 168236.03 0 1 1 -336472.07 0M 31623000.65 25473596.97 m -168236.03 0 a 168236.03 168236.03 0 1 1 336472.07 0a 168236.03 168236.03 0 1 1 -336472.07 0M 30175200.65 25473596.97 m -168236.03 0 a 168236.03 168236.03 0 1 1 336472.07 0a 168236.03 168236.03 0 1 1 -336472.07 0M 29921200.65 26746196.97 m -168236.03 0 a 168236.03 168236.03 0 1 1 336472.07 0a 168236.03 168236.03 0 1 1 -336472.07 0M 31851600.65 28346396.97 m -168236.03 0 a 168236.03 168236.03 0 1 1 336472.07 0a 168236.03 168236.03 0 1 1 -336472.07 0M 29700200.65 32265596.97 m -168236.03 0 a 168236.03 168236.03 0 1 1 336472.07 0a 168236.03 168236.03 0 1 1 -336472.07 0M 30022800.65 32613596.97 m -168236.03 0 a 168236.03 168236.03 0 1 1 336472.07 0a 168236.03 168236.03 0 1 1 -336472.07 0M 30403800.65 32842196.97 m -168236.03 0 a 168236.03 168236.03 0 1 1 336472.07 0a 168236.03 168236.03 0 1 1 -336472.07 0M 30750041.65 33085785.97 m -168236.03 0 a 168236.03 168236.03 0 1 1 336472.07 0a 168236.03 168236.03 0 1 1 -336472.07 0M 31216600.65 33223196.97 m -168236.03 0 a 168236.03 168236.03 0 1 1 336472.07 0a 168236.03 168236.03 0 1 1 -336472.07 0M 13004800.65 33908996.97 m -168236.03 0 a 168236.03 168236.03 0 1 1 336472.07 0a 168236.03 168236.03 0 1 1 -336472.07 0M 13258800.65 34543996.97 m -168236.03 0 a 168236.03 168236.03 0 1 1 336472.07 0a 168236.03 168236.03 0 1 1 -336472.07 0M 14357721.07 34175244.58 m -672513.42 0 a 672513.42 672513.42 0 1 1 1345026.84 0a 672513.42 672513.42 0 1 1 -1345026.84 0M 13614400.65 35077396.97 m -168236.03 0 a 168236.03 168236.03 0 1 1 336472.07 0a 168236.03 168236.03 0 1 1 -336472.07 0M 19050000.65 34569396.97 m -168236.03 0 a 168236.03 168236.03 0 1 1 336472.07 0a 168236.03 168236.03 0 1 1 -336472.07 0M 20066000.65 34594796.97 m -168236.03 0 a 168236.03 168236.03 0 1 1 336472.07 0a 168236.03 168236.03 0 1 1 -336472.07 0M 21361400.65 34315396.97 m -168236.03 0 a 168236.03 168236.03 0 1 1 336472.07 0a 168236.03 168236.03 0 1 1 -336472.07 0M 21107400.65 34594796.97 m -168236.03 0 a 168236.03 168236.03 0 1 1 336472.07 0a 168236.03 168236.03 0 1 1 -336472.07 0M 23063200.65 34594796.97 m -168236.03 0 a 168236.03 168236.03 0 1 1 336472.07 0a 168236.03 168236.03 0 1 1 -336472.07 0M 23206696.50 35105971.31 m -181279.69 0 a 181279.69 181279.69 0 1 1 362559.37 0a 181279.69 181279.69 0 1 1 -362559.37 0M 24104600.65 34620196.97 m -168236.03 0 a 168236.03 168236.03 0 1 1 336472.07 0a 168236.03 168236.03 0 1 1 -336472.07 0M 23706696.50 35105971.31 m -181279.69 0 a 181279.69 181279.69 0 1 1 362559.37 0a 181279.69 181279.69 0 1 1 -362559.37 0M 24206696.50 35105971.31 m -181279.69 0 a 181279.69 181279.69 0 1 1 362559.37 0a 181279.69 181279.69 0 1 1 -362559.37 0M 24706696.50 35105971.31 m -181279.69 0 a 181279.69 181279.69 0 1 1 362559.37 0a 181279.69 181279.69 0 1 1 -362559.37 0M 25069800.65 34569396.97 m -168236.03 0 a 168236.03 168236.03 0 1 1 336472.07 0a 168236.03 168236.03 0 1 1 -336472.07 0M 25206696.50 35105971.31 m -181279.69 0 a 181279.69 181279.69 0 1 1 362559.37 0a 181279.69 181279.69 0 1 1 -362559.37 0M 25706696.50 35105971.31 m -181279.69 0 a 181279.69 181279.69 0 1 1 362559.37 0a 181279.69 181279.69 0 1 1 -362559.37 0M 26035000.65 34594796.97 m -168236.03 0 a 168236.03 168236.03 0 1 1 336472.07 0a 168236.03 168236.03 0 1 1 -336472.07 0M 26206696.50 35105971.31 m -181279.69 0 a 181279.69 181279.69 0 1 1 362559.37 0a 181279.69 181279.69 0 1 1 -362559.37 0M 27051000.65 34594796.97 m -168236.03 0 a 168236.03 168236.03 0 1 1 336472.07 0a 168236.03 168236.03 0 1 1 -336472.07 0M 26706696.50 35105971.31 m -181279.69 0 a 181279.69 181279.69 0 1 1 362559.37 0a 181279.69 181279.69 0 1 1 -362559.37 0M 27206696.50 35105971.31 m -181279.69 0 a 181279.69 181279.69 0 1 1 362559.37 0a 181279.69 181279.69 0 1 1 -362559.37 0M 28092400.65 34594796.97 m -168236.03 0 a 168236.03 168236.03 0 1 1 336472.07 0a 168236.03 168236.03 0 1 1 -336472.07 0M 27706696.50 35105971.31 m -181279.69 0 a 181279.69 181279.69 0 1 1 362559.37 0a 181279.69 181279.69 0 1 1 -362559.37 0M 28206696.50 35105971.31 m -181279.69 0 a 181279.69 181279.69 0 1 1 362559.37 0a 181279.69 181279.69 0 1 1 -362559.37 0M 30757721.07 35075244.58 m -672513.42 0 a 672513.42 672513.42 0 1 1 1345026.84 0a 672513.42 672513.42 0 1 1 -1345026.84 0M 31394400.65 33578796.97 m -168236.03 0 a 168236.03 168236.03 0 1 1 336472.07 0a 168236.03 168236.03 0 1 1 -336472.07 0M 31165800.65 34118596.97 m -168236.03 0 a 168236.03 168236.03 0 1 1 336472.07 0a 168236.03 168236.03 0 1 1 -336472.07 0M 31826200.65 33756596.97 m -168236.03 0 a 168236.03 168236.03 0 1 1 336472.07 0a 168236.03 168236.03 0 1 1 -336472.07 0M 32385000.65 23806196.97 m -168236.03 0 a 168236.03 168236.03 0 1 1 336472.07 0a 168236.03 168236.03 0 1 1 -336472.07 0M 37280800.65 23571196.97 m -168236.03 0 a 168236.03 168236.03 0 1 1 336472.07 0a 168236.03 168236.03 0 1 1 -336472.07 0M 38658800.65 17957796.97 m -168236.03 0 a 168236.03 168236.03 0 1 1 336472.07 0a 168236.03 168236.03 0 1 1 -336472.07 0M 37515800.65 23088596.97 m -168236.03 0 a 168236.03 168236.03 0 1 1 336472.07 0a 168236.03 168236.03 0 1 1 -336472.07 0M 36093400.65 25069796.97 m -168236.03 0 a 168236.03 168236.03 0 1 1 336472.07 0a 168236.03 168236.03 0 1 1 -336472.07 0M 37033200.65 25473596.97 m -168236.03 0 a 168236.03 168236.03 0 1 1 336472.07 0a 168236.03 168236.03 0 1 1 -336472.07 0M 38125400.65 24587196.97 m -168236.03 0 a 168236.03 168236.03 0 1 1 336472.07 0a 168236.03 168236.03 0 1 1 -336472.07 0M 37820600.65 26212796.97 m -168236.03 0 a 168236.03 168236.03 0 1 1 336472.07 0a 168236.03 168236.03 0 1 1 -336472.07 0M 32207200.65 26263596.97 m -168236.03 0 a 168236.03 168236.03 0 1 1 336472.07 0a 168236.03 168236.03 0 1 1 -336472.07 0M 35458400.65 27203396.97 m -168236.03 0 a 168236.03 168236.03 0 1 1 336472.07 0a 168236.03 168236.03 0 1 1 -336472.07 0M 33070800.65 27787596.97 m -168236.03 0 a 168236.03 168236.03 0 1 1 336472.07 0a 168236.03 168236.03 0 1 1 -336472.07 0M 32410400.65 32334196.97 m -168236.03 0 a 168236.03 168236.03 0 1 1 336472.07 0a 168236.03 168236.03 0 1 1 -336472.07 0M 36779200.65 27787596.97 m -168236.03 0 a 168236.03 168236.03 0 1 1 336472.07 0a 168236.03 168236.03 0 1 1 -336472.07 0M 36423600.65 28168596.97 m -168236.03 0 a 168236.03 168236.03 0 1 1 336472.07 0a 168236.03 168236.03 0 1 1 -336472.07 0M 38608000.65 29692596.97 m -168236.03 0 a 168236.03 168236.03 0 1 1 336472.07 0a 168236.03 168236.03 0 1 1 -336472.07 0M 32258000.65 32791396.97 m -168236.03 0 a 168236.03 168236.03 0 1 1 336472.07 0a 168236.03 168236.03 0 1 1 -336472.07 0M 32842200.65 32359596.97 m -168236.03 0 a 168236.03 168236.03 0 1 1 336472.07 0a 168236.03 168236.03 0 1 1 -336472.07 0M 32969200.65 33807396.97 m -168236.03 0 a 168236.03 168236.03 0 1 1 336472.07 0a 168236.03 168236.03 0 1 1 -336472.07 0M 32766000.65 34594796.97 m -168236.03 0 a 168236.03 168236.03 0 1 1 336472.07 0a 168236.03 168236.03 0 1 1 -336472.07 0M 32643704.50 35105971.31 m -181279.69 0 a 181279.69 181279.69 0 1 1 362559.37 0a 181279.69 181279.69 0 1 1 -362559.37 0M 33643704.50 35105971.31 m -181279.69 0 a 181279.69 181279.69 0 1 1 362559.37 0a 181279.69 181279.69 0 1 1 -362559.37 0M 34643704.50 35105971.31 m -181279.69 0 a 181279.69 181279.69 0 1 1 362559.37 0a 181279.69 181279.69 0 1 1 -362559.37 0M 35123034.65 34010596.97 m -168236.03 0 a 168236.03 168236.03 0 1 1 336472.07 0a 168236.03 168236.03 0 1 1 -336472.07 0M 35433000.65 33705796.97 m -168236.03 0 a 168236.03 168236.03 0 1 1 336472.07 0a 168236.03 168236.03 0 1 1 -336472.07 0M 35643704.50 35105971.31 m -181279.69 0 a 181279.69 181279.69 0 1 1 362559.37 0a 181279.69 181279.69 0 1 1 -362559.37 0M 36643704.50 35105971.31 m -181279.69 0 a 181279.69 181279.69 0 1 1 362559.37 0a 181279.69 181279.69 0 1 1 -362559.37 0M 36830000.65 33172396.97 m -168236.03 0 a 168236.03 168236.03 0 1 1 336472.07 0a 168236.03 168236.03 0 1 1 -336472.07 0M 37643704.50 35105971.31 m -181279.69 0 a 181279.69 181279.69 0 1 1 362559.37 0a 181279.69 181279.69 0 1 1 -362559.37 0M 38643704.50 35105971.31 m -181279.69 0 a 181279.69 181279.69 0 1 1 362559.37 0a 181279.69 181279.69 0 1 1 -362559.37 0M 40513000.65 26060396.97 m -168236.03 0 a 168236.03 168236.03 0 1 1 336472.07 0a 168236.03 168236.03 0 1 1 -336472.07 0M 40157400.65 27508196.97 m -168236.03 0 a 168236.03 168236.03 0 1 1 336472.07 0a 168236.03 168236.03 0 1 1 -336472.07 0M 42259200.65 25780996.97 m -168236.03 0 a 168236.03 168236.03 0 1 1 336472.07 0a 168236.03 168236.03 0 1 1 -336472.07 0M 41884600.65 26517596.97 m -168236.03 0 a 168236.03 168236.03 0 1 1 336472.07 0a 168236.03 168236.03 0 1 1 -336472.07 0M 39928800.65 28752796.97 m -168236.03 0 a 168236.03 168236.03 0 1 1 336472.07 0a 168236.03 168236.03 0 1 1 -336472.07 0M 41275000.65 28143196.97 m -168236.03 0 a 168236.03 168236.03 0 1 1 336472.07 0a 168236.03 168236.03 0 1 1 -336472.07 0M 41656000.65 28574996.97 m -168236.03 0 a 168236.03 168236.03 0 1 1 336472.07 0a 168236.03 168236.03 0 1 1 -336472.07 0M 42494200.65 24079196.97 m -168236.03 0 a 168236.03 168236.03 0 1 1 336472.07 0a 168236.03 168236.03 0 1 1 -336472.07 0M 43738800.65 24358596.97 m -168236.03 0 a 168236.03 168236.03 0 1 1 336472.07 0a 168236.03 168236.03 0 1 1 -336472.07 0M 44205926.65 24450270.97 m -168236.03 0 a 168236.03 168236.03 0 1 1 336472.07 0a 168236.03 168236.03 0 1 1 -336472.07 0M 44958000.65 23774396.97 m -168236.03 0 a 168236.03 168236.03 0 1 1 336472.07 0a 168236.03 168236.03 0 1 1 -336472.07 0M 42849800.65 25349196.97 m -168236.03 0 a 168236.03 168236.03 0 1 1 336472.07 0a 168236.03 168236.03 0 1 1 -336472.07 0M 43510200.65 24968196.97 m -168236.03 0 a 168236.03 168236.03 0 1 1 336472.07 0a 168236.03 168236.03 0 1 1 -336472.07 0M 43053000.65 26974796.97 m -168236.03 0 a 168236.03 168236.03 0 1 1 336472.07 0a 168236.03 168236.03 0 1 1 -336472.07 0M 39471600.65 28752796.97 m -168236.03 0 a 168236.03 168236.03 0 1 1 336472.07 0a 168236.03 168236.03 0 1 1 -336472.07 0M 39801800.65 32638996.97 m -168236.03 0 a 168236.03 168236.03 0 1 1 336472.07 0a 168236.03 168236.03 0 1 1 -336472.07 0M 39420800.65 32918396.97 m -168236.03 0 a 168236.03 168236.03 0 1 1 336472.07 0a 168236.03 168236.03 0 1 1 -336472.07 0M 40335200.65 33197796.97 m -168236.03 0 a 168236.03 168236.03 0 1 1 336472.07 0a 168236.03 168236.03 0 1 1 -336472.07 0M 39496362.65 34594158.97 m -168236.03 0 a 168236.03 168236.03 0 1 1 336472.07 0a 168236.03 168236.03 0 1 1 -336472.07 0M 40513000.65 33781996.97 m -168236.03 0 a 168236.03 168236.03 0 1 1 336472.07 0a 168236.03 168236.03 0 1 1 -336472.07 0M 39643704.50 35105971.31 m -181279.69 0 a 181279.69 181279.69 0 1 1 362559.37 0a 181279.69 181279.69 0 1 1 -362559.37 0M 40640000.65 33451796.97 m -168236.03 0 a 168236.03 168236.03 0 1 1 336472.07 0a 168236.03 168236.03 0 1 1 -336472.07 0M 40513000.65 34569396.97 m -168236.03 0 a 168236.03 168236.03 0 1 1 336472.07 0a 168236.03 168236.03 0 1 1 -336472.07 0M 41040000.65 28752796.97 m -168236.03 0 a 168236.03 168236.03 0 1 1 336472.07 0a 168236.03 168236.03 0 1 1 -336472.07 0M 46157722.07 34025244.58 m -672513.42 0 a 672513.42 672513.42 0 1 1 1345026.84 0a 672513.42 672513.42 0 1 1 -1345026.84 0M 40643704.50 35105971.31 m -181279.69 0 a 181279.69 181279.69 0 1 1 362559.37 0a 181279.69 181279.69 0 1 1 -362559.37 0M 41143704.50 35105971.31 m -181279.69 0 a 181279.69 181279.69 0 1 1 362559.37 0a 181279.69 181279.69 0 1 1 -362559.37 0M 41643704.50 35105971.31 m -181279.69 0 a 181279.69 181279.69 0 1 1 362559.37 0a 181279.69 181279.69 0 1 1 -362559.37 0M 12130196.60 35220161.06 m -633585.94 0 a 633585.94 633585.94 0 1 1 1267171.88 0a 633585.94 633585.94 0 1 1 -1267171.88 0M 11963400.65 36499796.97 m -168236.03 0 a 168236.03 168236.03 0 1 1 336472.07 0a 168236.03 168236.03 0 1 1 -336472.07 0M 12598400.65 36220396.97 m -168236.03 0 a 168236.03 168236.03 0 1 1 336472.07 0a 168236.03 168236.03 0 1 1 -336472.07 0M 14097000.65 36017196.97 m -168236.03 0 a 168236.03 168236.03 0 1 1 336472.07 0a 168236.03 168236.03 0 1 1 -336472.07 0M 14198600.65 35458396.97 m -168236.03 0 a 168236.03 168236.03 0 1 1 336472.07 0a 168236.03 168236.03 0 1 1 -336472.07 0M 14935200.65 35178996.97 m -168236.03 0 a 168236.03 168236.03 0 1 1 336472.07 0a 168236.03 168236.03 0 1 1 -336472.07 0M 15088000.65 35738666.97 m -168236.03 0 a 168236.03 168236.03 0 1 1 336472.07 0a 168236.03 168236.03 0 1 1 -336472.07 0M 14630400.65 36245796.97 m -168236.03 0 a 168236.03 168236.03 0 1 1 336472.07 0a 168236.03 168236.03 0 1 1 -336472.07 0M 11499294.65 38245490.97 m -168236.03 0 a 168236.03 168236.03 0 1 1 336472.07 0a 168236.03 168236.03 0 1 1 -336472.07 0M 12130202.01 37720138.95 m -245511.05 0 a 245511.05 245511.05 0 1 1 491022.11 0a 245511.05 245511.05 0 1 1 -491022.11 0M 12130202.01 38720138.95 m -245511.05 0 a 245511.05 245511.05 0 1 1 491022.11 0a 245511.05 245511.05 0 1 1 -491022.11 0M 12761106.65 38165890.97 m -168236.03 0 a 168236.03 168236.03 0 1 1 336472.07 0a 168236.03 168236.03 0 1 1 -336472.07 0M 12130202.01 39720138.95 m -245511.05 0 a 245511.05 245511.05 0 1 1 491022.11 0a 245511.05 245511.05 0 1 1 -491022.11 0M 12761106.65 40147090.97 m -168236.03 0 a 168236.03 168236.03 0 1 1 336472.07 0a 168236.03 168236.03 0 1 1 -336472.07 0M 12996106.65 39268396.97 m -168236.03 0 a 168236.03 168236.03 0 1 1 336472.07 0a 168236.03 168236.03 0 1 1 -336472.07 0M 12130202.01 40720138.95 m -245511.05 0 a 245511.05 245511.05 0 1 1 491022.11 0a 245511.05 245511.05 0 1 1 -491022.11 0M 12130202.01 41720138.95 m -245511.05 0 a 245511.05 245511.05 0 1 1 491022.11 0a 245511.05 245511.05 0 1 1 -491022.11 0M 12130202.01 42720138.95 m -245511.05 0 a 245511.05 245511.05 0 1 1 491022.11 0a 245511.05 245511.05 0 1 1 -491022.11 0M 12130202.01 43720138.95 m -245511.05 0 a 245511.05 245511.05 0 1 1 491022.11 0a 245511.05 245511.05 0 1 1 -491022.11 0M 12130202.01 44720138.95 m -245511.05 0 a 245511.05 245511.05 0 1 1 491022.11 0a 245511.05 245511.05 0 1 1 -491022.11 0M 12130202.01 45720138.95 m -245511.05 0 a 245511.05 245511.05 0 1 1 491022.11 0a 245511.05 245511.05 0 1 1 -491022.11 0M 12130202.01 46720138.95 m -245511.05 0 a 245511.05 245511.05 0 1 1 491022.11 0a 245511.05 245511.05 0 1 1 -491022.11 0M 12130202.01 47720138.95 m -245511.05 0 a 245511.05 245511.05 0 1 1 491022.11 0a 245511.05 245511.05 0 1 1 -491022.11 0M 12130202.01 48720138.95 m -245511.05 0 a 245511.05 245511.05 0 1 1 491022.11 0a 245511.05 245511.05 0 1 1 -491022.11 0M 12130202.01 49720138.95 m -245511.05 0 a 245511.05 245511.05 0 1 1 491022.11 0a 245511.05 245511.05 0 1 1 -491022.11 0M 12130202.01 50720138.95 m -245511.05 0 a 245511.05 245511.05 0 1 1 491022.11 0a 245511.05 245511.05 0 1 1 -491022.11 0M 12130202.01 51720138.95 m -245511.05 0 a 245511.05 245511.05 0 1 1 491022.11 0a 245511.05 245511.05 0 1 1 -491022.11 0M 12130202.01 52720138.95 m -245511.05 0 a 245511.05 245511.05 0 1 1 491022.11 0a 245511.05 245511.05 0 1 1 -491022.11 0M 12130202.01 53720138.95 m -245511.05 0 a 245511.05 245511.05 0 1 1 491022.11 0a 245511.05 245511.05 0 1 1 -491022.11 0M 12130202.01 54720138.95 m -245511.05 0 a 245511.05 245511.05 0 1 1 491022.11 0a 245511.05 245511.05 0 1 1 -491022.11 0M 12130202.01 55720138.95 m -245511.05 0 a 245511.05 245511.05 0 1 1 491022.11 0a 245511.05 245511.05 0 1 1 -491022.11 0M 12130202.01 56720138.95 m -245511.05 0 a 245511.05 245511.05 0 1 1 491022.11 0a 245511.05 245511.05 0 1 1 -491022.11 0M 15011400.65 58216796.97 m -168236.03 0 a 168236.03 168236.03 0 1 1 336472.07 0a 168236.03 168236.03 0 1 1 -336472.07 0M 14017941.00 58943552.32 m -130461.68 0 a 130461.68 130461.68 0 1 1 260923.35 0a 130461.68 130461.68 0 1 1 -260923.35 0M 14352587.00 58943552.32 m -130461.68 0 a 130461.68 130461.68 0 1 1 260923.35 0a 130461.68 130461.68 0 1 1 -260923.35 0M 14687232.00 58943552.32 m -130461.68 0 a 130461.68 130461.68 0 1 1 260923.35 0a 130461.68 130461.68 0 1 1 -260923.35 0M 15356523.65 58257119.97 m -168236.03 0 a 168236.03 168236.03 0 1 1 336472.07 0a 168236.03 168236.03 0 1 1 -336472.07 0M 15356524.00 58943552.32 m -130461.68 0 a 130461.68 130461.68 0 1 1 260923.35 0a 130461.68 130461.68 0 1 1 -260923.35 0M 15021878.00 58943552.32 m -130461.68 0 a 130461.68 130461.68 0 1 1 260923.35 0a 130461.68 130461.68 0 1 1 -260923.35 0M 15691170.00 58943552.32 m -130461.68 0 a 130461.68 130461.68 0 1 1 260923.35 0a 130461.68 130461.68 0 1 1 -260923.35 0M 15748000.65 58242196.97 m -168236.03 0 a 168236.03 168236.03 0 1 1 336472.07 0a 168236.03 168236.03 0 1 1 -336472.07 0M 16025815.00 58943552.32 m -130461.68 0 a 130461.68 130461.68 0 1 1 260923.35 0a 130461.68 130461.68 0 1 1 -260923.35 0M 16360461.00 58943552.32 m -130461.68 0 a 130461.68 130461.68 0 1 1 260923.35 0a 130461.68 130461.68 0 1 1 -260923.35 0M 12130196.60 59220161.06 m -633585.94 0 a 633585.94 633585.94 0 1 1 1267171.88 0a 633585.94 633585.94 0 1 1 -1267171.88 0M 13305808.00 60817570.00 L 13305808.00 60502610.00 A 180637.35 180637.35 0 0 1 13667080.00 60502610.00 L 13667080.00 60817570.00 A 180637.35 180637.35 0 1 1 13305808.00 60817570.00  zM 13305808.00 59624657.00 L 13305808.00 59034105.00 A 180637.35 180637.35 0 0 1 13667080.00 59034105.00 L 13667080.00 59624657.00 A 180637.35 180637.35 0 0 1 13305808.00 59624657.00  zM 14017941.00 59475048.32 m -130461.68 0 a 130461.68 130461.68 0 1 1 260923.35 0a 130461.68 130461.68 0 1 1 -260923.35 0M 14352587.00 59475048.32 m -130461.68 0 a 130461.68 130461.68 0 1 1 260923.35 0a 130461.68 130461.68 0 1 1 -260923.35 0M 14687232.00 59475048.32 m -130461.68 0 a 130461.68 130461.68 0 1 1 260923.35 0a 130461.68 130461.68 0 1 1 -260923.35 0M 15021878.00 59475048.32 m -130461.68 0 a 130461.68 130461.68 0 1 1 260923.35 0a 130461.68 130461.68 0 1 1 -260923.35 0M 15356524.00 59475048.32 m -130461.68 0 a 130461.68 130461.68 0 1 1 260923.35 0a 130461.68 130461.68 0 1 1 -260923.35 0M 15691170.00 59475048.32 m -130461.68 0 a 130461.68 130461.68 0 1 1 260923.35 0a 130461.68 130461.68 0 1 1 -260923.35 0M 16025815.00 59475048.32 m -130461.68 0 a 130461.68 130461.68 0 1 1 260923.35 0a 130461.68 130461.68 0 1 1 -260923.35 0M 16360461.00 59475048.32 m -130461.68 0 a 130461.68 130461.68 0 1 1 260923.35 0a 130461.68 130461.68 0 1 1 -260923.35 0M 16711320.00 59624657.00 L 16711320.00 59034105.00 A 180637.35 180637.35 0 0 1 17072592.00 59034105.00 L 17072592.00 59624657.00 A 180637.35 180637.35 0 0 1 16711320.00 59624657.00  zM 18235290.00 60656148.00 L 17702534.00 60656148.00 L 17702534.00 60044652.00 L 18235290.00 60044652.00 L 18235290.00 60656148.00  zM 16711320.00 60817570.00 L 16711320.00 60502610.00 A 180637.35 180637.35 0 0 1 17072592.00 60502610.00 L 17072592.00 60817570.00 A 180637.35 180637.35 0 1 1 16711320.00 60817570.00  zM 18706696.50 35105971.31 m -181279.69 0 a 181279.69 181279.69 0 1 1 362559.37 0a 181279.69 181279.69 0 1 1 -362559.37 0M 19206696.50 35105971.31 m -181279.69 0 a 181279.69 181279.69 0 1 1 362559.37 0a 181279.69 181279.69 0 1 1 -362559.37 0M 19706696.50 35105971.31 m -181279.69 0 a 181279.69 181279.69 0 1 1 362559.37 0a 181279.69 181279.69 0 1 1 -362559.37 0M 20206696.50 35105971.31 m -181279.69 0 a 181279.69 181279.69 0 1 1 362559.37 0a 181279.69 181279.69 0 1 1 -362559.37 0M 20706696.50 35105971.31 m -181279.69 0 a 181279.69 181279.69 0 1 1 362559.37 0a 181279.69 181279.69 0 1 1 -362559.37 0M 21206696.50 35105971.31 m -181279.69 0 a 181279.69 181279.69 0 1 1 362559.37 0a 181279.69 181279.69 0 1 1 -362559.37 0M 21706696.50 35105971.31 m -181279.69 0 a 181279.69 181279.69 0 1 1 362559.37 0a 181279.69 181279.69 0 1 1 -362559.37 0M 22206696.50 35105971.31 m -181279.69 0 a 181279.69 181279.69 0 1 1 362559.37 0a 181279.69 181279.69 0 1 1 -362559.37 0M 22706696.50 35105971.31 m -181279.69 0 a 181279.69 181279.69 0 1 1 362559.37 0a 181279.69 181279.69 0 1 1 -362559.37 0M 24612600.65 35585396.97 m -168236.03 0 a 168236.03 168236.03 0 1 1 336472.07 0a 168236.03 168236.03 0 1 1 -336472.07 0M 32143704.50 35105971.31 m -181279.69 0 a 181279.69 181279.69 0 1 1 362559.37 0a 181279.69 181279.69 0 1 1 -362559.37 0M 33143704.50 35105971.31 m -181279.69 0 a 181279.69 181279.69 0 1 1 362559.37 0a 181279.69 181279.69 0 1 1 -362559.37 0M 34143704.50 35105971.31 m -181279.69 0 a 181279.69 181279.69 0 1 1 362559.37 0a 181279.69 181279.69 0 1 1 -362559.37 0M 35143704.50 35105971.31 m -181279.69 0 a 181279.69 181279.69 0 1 1 362559.37 0a 181279.69 181279.69 0 1 1 -362559.37 0M 36143704.50 35105971.31 m -181279.69 0 a 181279.69 181279.69 0 1 1 362559.37 0a 181279.69 181279.69 0 1 1 -362559.37 0M 19558000.65 35610796.97 m -168236.03 0 a 168236.03 168236.03 0 1 1 336472.07 0a 168236.03 168236.03 0 1 1 -336472.07 0M 23723600.65 35610796.97 m -168236.03 0 a 168236.03 168236.03 0 1 1 336472.07 0a 168236.03 168236.03 0 1 1 -336472.07 0M 25621616.65 35617780.97 m -168236.03 0 a 168236.03 168236.03 0 1 1 336472.07 0a 168236.03 168236.03 0 1 1 -336472.07 0M 26517600.65 35610796.97 m -168236.03 0 a 168236.03 168236.03 0 1 1 336472.07 0a 168236.03 168236.03 0 1 1 -336472.07 0M 27584400.65 35610796.97 m -168236.03 0 a 168236.03 168236.03 0 1 1 336472.07 0a 168236.03 168236.03 0 1 1 -336472.07 0M 28727400.65 35610796.97 m -168236.03 0 a 168236.03 168236.03 0 1 1 336472.07 0a 168236.03 168236.03 0 1 1 -336472.07 0M 33274000.65 35610796.97 m -168236.03 0 a 168236.03 168236.03 0 1 1 336472.07 0a 168236.03 168236.03 0 1 1 -336472.07 0M 21539200.65 35636196.97 m -168236.03 0 a 168236.03 168236.03 0 1 1 336472.07 0a 168236.03 168236.03 0 1 1 -336472.07 0M 22555200.65 35636196.97 m -168236.03 0 a 168236.03 168236.03 0 1 1 336472.07 0a 168236.03 168236.03 0 1 1 -336472.07 0M 20548600.65 35636196.97 m -168236.03 0 a 168236.03 168236.03 0 1 1 336472.07 0a 168236.03 168236.03 0 1 1 -336472.07 0M 18008600.65 59029596.97 m -168236.03 0 a 168236.03 168236.03 0 1 1 336472.07 0a 168236.03 168236.03 0 1 1 -336472.07 0M 18260690.00 59843348.00 L 17727934.00 59843348.00 L 17727934.00 59231852.00 L 18260690.00 59231852.00 L 18260690.00 59843348.00  zM 18949666.00 59843348.00 L 18416910.00 59843348.00 L 18416910.00 59231852.00 L 18949666.00 59231852.00 L 18949666.00 59843348.00  zM 18924266.00 60656148.00 L 18391510.00 60656148.00 L 18391510.00 60044652.00 L 18924266.00 60044652.00 L 18924266.00 60656148.00  zM 37143704.50 35105971.31 m -181279.69 0 a 181279.69 181279.69 0 1 1 362559.37 0a 181279.69 181279.69 0 1 1 -362559.37 0M 38143704.50 35105971.31 m -181279.69 0 a 181279.69 181279.69 0 1 1 362559.37 0a 181279.69 181279.69 0 1 1 -362559.37 0M 39143704.50 35105971.31 m -181279.69 0 a 181279.69 181279.69 0 1 1 362559.37 0a 181279.69 181279.69 0 1 1 -362559.37 0M 39998016.65 35617780.97 m -168236.03 0 a 168236.03 168236.03 0 1 1 336472.07 0a 168236.03 168236.03 0 1 1 -336472.07 0M 40143704.50 35105971.31 m -181279.69 0 a 181279.69 181279.69 0 1 1 362559.37 0a 181279.69 181279.69 0 1 1 -362559.37 0M 41122600.65 35636196.97 m -168236.03 0 a 168236.03 168236.03 0 1 1 336472.07 0a 168236.03 168236.03 0 1 1 -336472.07 0M 48220202.01 40720138.95 m -245511.05 0 a 245511.05 245511.05 0 1 1 491022.11 0a 245511.05 245511.05 0 1 1 -491022.11 0M 48220196.60 35220161.06 m -633585.94 0 a 633585.94 633585.94 0 1 1 1267171.88 0a 633585.94 633585.94 0 1 1 -1267171.88 0M 48220202.01 37720138.95 m -245511.05 0 a 245511.05 245511.05 0 1 1 491022.11 0a 245511.05 245511.05 0 1 1 -491022.11 0M 48220202.01 38720138.95 m -245511.05 0 a 245511.05 245511.05 0 1 1 491022.11 0a 245511.05 245511.05 0 1 1 -491022.11 0M 48220202.01 39720138.95 m -245511.05 0 a 245511.05 245511.05 0 1 1 491022.11 0a 245511.05 245511.05 0 1 1 -491022.11 0M 48220202.01 41720138.95 m -245511.05 0 a 245511.05 245511.05 0 1 1 491022.11 0a 245511.05 245511.05 0 1 1 -491022.11 0M 48220202.01 42720138.95 m -245511.05 0 a 245511.05 245511.05 0 1 1 491022.11 0a 245511.05 245511.05 0 1 1 -491022.11 0M 48220202.01 43720138.95 m -245511.05 0 a 245511.05 245511.05 0 1 1 491022.11 0a 245511.05 245511.05 0 1 1 -491022.11 0M 48220202.01 44720138.95 m -245511.05 0 a 245511.05 245511.05 0 1 1 491022.11 0a 245511.05 245511.05 0 1 1 -491022.11 0M 48220202.01 45720138.95 m -245511.05 0 a 245511.05 245511.05 0 1 1 491022.11 0a 245511.05 245511.05 0 1 1 -491022.11 0M 48220202.01 46720138.95 m -245511.05 0 a 245511.05 245511.05 0 1 1 491022.11 0a 245511.05 245511.05 0 1 1 -491022.11 0M 48220202.01 47720138.95 m -245511.05 0 a 245511.05 245511.05 0 1 1 491022.11 0a 245511.05 245511.05 0 1 1 -491022.11 0M 48220202.01 48720138.95 m -245511.05 0 a 245511.05 245511.05 0 1 1 491022.11 0a 245511.05 245511.05 0 1 1 -491022.11 0M 48220202.01 49720138.95 m -245511.05 0 a 245511.05 245511.05 0 1 1 491022.11 0a 245511.05 245511.05 0 1 1 -491022.11 0M 48220202.01 50720138.95 m -245511.05 0 a 245511.05 245511.05 0 1 1 491022.11 0a 245511.05 245511.05 0 1 1 -491022.11 0M 48220202.01 51720138.95 m -245511.05 0 a 245511.05 245511.05 0 1 1 491022.11 0a 245511.05 245511.05 0 1 1 -491022.11 0M 48220202.01 52720138.95 m -245511.05 0 a 245511.05 245511.05 0 1 1 491022.11 0a 245511.05 245511.05 0 1 1 -491022.11 0M 48220202.01 53720138.95 m -245511.05 0 a 245511.05 245511.05 0 1 1 491022.11 0a 245511.05 245511.05 0 1 1 -491022.11 0M 48220202.01 54720138.95 m -245511.05 0 a 245511.05 245511.05 0 1 1 491022.11 0a 245511.05 245511.05 0 1 1 -491022.11 0M 48220202.01 55720138.95 m -245511.05 0 a 245511.05 245511.05 0 1 1 491022.11 0a 245511.05 245511.05 0 1 1 -491022.11 0M 48220202.01 56720138.95 m -245511.05 0 a 245511.05 245511.05 0 1 1 491022.11 0a 245511.05 245511.05 0 1 1 -491022.11 0M 48220196.60 59220161.06 m -633585.94 0 a 633585.94 633585.94 0 1 1 1267171.88 0a 633585.94 633585.94 0 1 1 -1267171.88 0"/>
</g>
</svg>
