**ABCDEFGHIJKLMNOPQRSTUVWXYZabcdefghijklmnopqrstuvwxyz**************************
**PARASOLID !"#$%&'()*+,-./:;<=>?@[\]^_`{|}~0123456789**************************
**PART1;
MC=AMD64;
MC_MODEL=AMD64 Family 25 Model 33 Stepping 0, AuthenticAMD;
MC_ID=unknown;
OS=Windows_NT;
OS_RELEASE=unknown;
FRU=CAD Exchanger 3.13.0 (cadexchanger.com);
APPL=unknown;
SITE=unknown;
USER=unknown;
FORMAT=text;
GUISE=transmit;
KEY=CAP_0603_1608_C1608X7R1C105K080AC;
FILE=CAP_0603_1608_C1608X7R1C105K080AC.x_t;
DATE=Thu Oct 26 18:52:05 2023;
**PART2;
SCH=SCH_1200000_12103;
USFLD_SIZE=0;
**PART3;
**END_OF_HEADER*****************************************************************
T51 : TRANSMIT FILE created by modeller version 120000017 SCH_1200000_121030 12
 1 516 0 2 0 0 0 0 1000.0 1.0e-08 0 0 0 1 0 1 1 11 13 19 17 8 18 16 70 2 0 1 0 0
 4 1 20 0 3 3 1 T74 20 3 1 0 4 0 0 0 0 0 0 0 0 0 0 0 0 0 0 0 0 0 0 0 81 1 4 7 5
 12 0 0 41 0 7 80 1 5 0 6 8001 0 0 0 0 3 5 0 0 0 FFFFTFTFFFFFFF2 79 15 6 SDL/TYS
A_COLOUR83 3 7 0.556862771511078 0.4941176474094392 0.2862745225429535 19 8 1 0
 1 10 0 9 V13 9 2 0 1 0 0 0 0 8 12 19 10 3 0 1 0 8 11 S13 11 4 0 1 0 12 0 0 10 0
 14 12 5 4 1.0e-08 39 0 14 11 13 -0 0 39 0 9 50 13 6 0 12 40 0 0 +8.000812799999
9985e-04 -3.9992126000000016e-04 8.120000000000001e-04 2.4492935982947066e-16 1.
0 7.4292931603320396e-17 -1.8196520177455918e-32 -7.4292931603320396e-17 1.0 15
 14 8 0 15 12 0 17 15 0 14 23 35 16 20 18 0 28 -18 16 9 0 15 0 21 17 ?1 29 17 10
 0 16 22 0 -4.9991871999999998e-04 -3.9992125999999982e-04 1.2000000000000024e-0
5 16 18 11 0 ?20 0 26 19 0 0 1 30 19 12 0 18 27 0 0 +-4.9991871999999998e-04 -3.
9992125999999986e-04 8.1199999999999992e-04 -1.8196520177455918e-32 -7.429293160
3320396e-17 1.0 17 20 0 739 740 707 21 15 18 0 35 +18 21 13 0 20 16 24 22 ?1 29
 22 14 0 21 25 17 -4.9991871999999998e-04 -3.9992125999999986e-04 8.119999999999
9992e-04 17 23 0 14 29 15 24 28 26 0 34 -18 24 15 0 23 21 30 25 ?1 29 25 16 0 24
 31 22 5.0008127999999985e-04 -3.9992126000000004e-04 1.2000000000000024e-05 16
 26 17 0 ?28 18 32 27 0 0 1 30 27 18 0 26 33 19 0 +8.0008127999999985e-04 -3.999
2126000000012e-04 1.2000000000000024e-05 -1.0 2.4492935982947066e-16 0.0 17 28 0
 43 44 56 16 23 26 0 49 +17 29 0 14 35 23 30 34 32 0 93 -18 30 19 0 38 24 45 31
 ?1 29 31 20 0 30 46 25 5.0008127999999985e-04 -3.9992126000000008e-04 8.1199999
999999992e-04 16 32 21 0 ?34 26 36 33 0 0 1 30 33 22 0 32 37 27 0 +5.00081279999
99985e-04 -3.9992126000000008e-04 8.1199999999999992e-04 1.8196520177455918e-32
 7.4292931603320396e-17 -1.0 17 34 0 407 375 408 24 29 32 0 56 +17 35 0 14 15 29
 21 38 36 0 86 +16 36 23 0 ?35 32 47 37 0 0 1 30 37 24 0 36 48 33 0 +8.000812799
9999985e-04 -3.9992126000000016e-04 8.1199999999999992e-04 -1.0 2.44929359829470
66e-16 0.0 17 38 0 85 90 86 30 35 36 0 426 -14 39 25 41 1.0e-08 60 12 43 11 40 -
0 0 60 12 9 50 40 26 0 39 61 13 0 +8.0008127999999985e-04 -3.9992126000000012e-0
4 1.2000000000000024e-05 1.4997597826618576e-32 6.1232339957367659e-17 1.0 -2.44
92935982947066e-16 -1.0 6.1232339957367659e-17 81 1 41 27 5 39 0 0 62 4 42 83 3
 42 0.556862771511078 0.4941176474094392 0.2862745225429535 15 43 28 0 44 39 0 1
7 44 0 43 50 28 45 49 47 0 55 -18 45 29 0 70 30 51 46 ?1 29 46 30 0 45 52 31 -4.
999187199999997e-04 4.0007874000000001e-04 1.1999999999999977e-05 16 47 31 0 ?49
 36 53 48 0 0 1 30 48 32 0 47 54 37 0 +-4.9991871999999998e-04 -3.99921259999999
82e-04 1.2000000000000024e-05 -2.4492935982947066e-16 -1.0 6.1232339957367659e-1
7 17 49 0 641 642 646 16 44 47 0 645 +17 50 0 43 56 44 51 55 53 0 77 -18 51 33 0
 50 45 66 52 ?1 29 52 34 0 51 67 46 5.0008128000000003e-04 4.0007873999999983e-0
4 1.1999999999999977e-05 16 53 35 0 ?55 47 57 54 0 0 1 30 54 36 0 53 58 48 0 +8.
0008128000000003e-04 4.0007873999999974e-04 1.1999999999999977e-05 -1.0 2.449293
5982947066e-16 0.0 17 55 0 64 65 77 45 50 53 0 695 +17 56 0 43 28 50 24 59 57 0
 372 -16 57 37 0 ?59 53 68 58 0 0 1 30 58 38 0 57 69 54 0 +5.0008127999999985e-0
4 -3.9992126000000004e-04 1.2000000000000024e-05 2.4492935982947066e-16 1.0 -6.1
232339957367659e-17 17 59 0 331 332 336 51 56 57 0 335 +14 60 39 62 1.0e-08 81 3
9 64 11 61 -0 0 81 39 9 50 61 40 0 60 82 40 0 +8.0008128000000003e-04 4.00078739
99999974e-04 1.1999999999999977e-05 -2.4492935982947066e-16 -1.0 1.9675761151805
574e-16 -4.8191715830693074e-32 -1.9675761151805574e-16 -1.0 81 1 62 41 5 60 0 0
 83 41 63 83 3 63 0.556862771511078 0.4941176474094392 0.2862745225429535 15 64
 42 0 65 60 0 17 65 0 64 71 55 66 70 68 0 76 -18 66 43 0 65 51 72 67 ?1 29 67 44
 0 66 73 52 -4.999187199999997e-04 4.0007874000000019e-04 8.1199999999999992e-04
 16 68 45 0 ?70 57 74 69 0 0 1 30 69 46 0 68 75 58 0 +-4.999187199999997e-04 4.0
007874000000001e-04 1.1999999999999977e-05 -4.8191715830693074e-32 -1.9675761151
805574e-16 -1.0 17 70 0 730 698 731 45 65 68 0 44 +17 71 0 64 77 65 72 76 74 0 8
0 -18 72 47 0 420 66 100 73 ?1 29 73 48 0 72 101 67 5.0008128000000003e-04 4.000
7874000000001e-04 8.1199999999999992e-04 16 74 49 0 ?76 68 78 75 0 0 1 30 75 50
 0 74 79 69 0 +8.0008128000000003e-04 4.0007873999999983e-04 8.1199999999999992e
-04 -1.0 2.4492935982947066e-16 0.0 17 76 0 85 86 90 66 71 74 0 89 +17 77 0 64 5
5 71 51 80 78 0 59 -16 78 51 0 ?80 74 87 79 0 0 1 30 79 52 0 78 88 75 0 +5.00081
28000000003e-04 4.0007873999999983e-04 1.1999999999999977e-05 4.8191715830693074
e-32 1.9675761151805574e-16 1.0 17 80 0 380 381 348 72 77 78 0 90 +14 81 53 83 1
.0e-08 94 60 85 11 82 -0 0 94 60 9 50 82 54 0 81 95 61 0 +8.0008128000000003e-04
 4.0007873999999983e-04 8.120000000000001e-04 -1.4997597826618576e-32 -6.1232339
957367659e-17 -1.0 2.4492935982947066e-16 1.0 -6.1232339957367659e-17 81 1 83 55
 5 81 0 0 96 62 84 83 3 84 0.556862771511078 0.4941176474094392 0.28627452254295
35 15 85 56 0 86 81 0 17 86 0 85 38 76 21 89 87 0 743 -16 87 57 0 ?89 78 91 88 0
 0 1 30 88 58 0 87 92 79 0 +-4.999187199999997e-04 4.0007874000000019e-04 8.1199
999999999992e-04 2.4492935982947066e-16 1.0 -6.1232339957367659e-17 17 89 0 775
 761 770 66 86 87 0 758 +17 90 0 85 76 38 72 93 91 0 384 -16 91 59 0 ?93 87 102
 92 0 0 1 30 92 60 0 91 103 88 0 +5.0008128000000003e-04 4.0007874000000001e-04
 8.1199999999999992e-04 -2.4492935982947066e-16 -1.0 6.1232339957367659e-17 17 9
3 0 434 429 420 30 90 91 0 0 +14 94 61 96 1.0e-08 123 81 98 11 95 +0 0 123 81 9
 50 95 62 0 94 124 82 0 +5.0008128000000003e-04 4.1207874000000002e-04 8.2400000
000000002e-04 1.4997597826618576e-32 6.1232339957367659e-17 1.0 -2.4492935982947
066e-16 -1.0 6.1232339957367659e-17 81 1 96 63 5 94 0 0 125 83 97 83 3 97 0.7529
411911964418 0.7529411911964418 0.7529411911964418 15 98 64 0 99 94 0 17 99 0 98
 107 119 100 104 102 0 112 +18 100 65 0 417 72 105 101 ?1 29 101 66 0 100 106 73
 5.1208128000000013e-04 4.0007874000000001e-04 8.2400000000000002e-04 16 102 67
 0 ?99 91 110 103 0 0 1 30 103 68 0 102 111 92 0 +5.0008128000000003e-04 4.00078
74000000001e-04 8.2400000000000002e-04 -1.0 2.4492935982947066e-16 0.0 17 104 0
 389 357 390 105 99 102 0 354 -18 105 69 0 305 100 108 106 ?1 29 106 70 0 105 10
9 101 7.8808128000000012e-04 4.0007873999999983e-04 8.2400000000000002e-04 17 10
7 0 98 113 99 108 112 110 0 0 +18 108 71 0 402 105 114 109 ?1 29 109 72 0 108 11
5 106 5.1208127999999977e-04 -3.9992126000000004e-04 8.2400000000000002e-04 16 1
10 73 0 ?107 102 116 111 0 0 1 30 111 74 0 110 117 103 0 +5.1208127999999977e-04
 -4.1192126000000009e-04 8.2400000000000002e-04 -2.4492935982947066e-16 -1.0 6.1
232339957367659e-17 17 112 0 434 420 429 100 107 110 0 390 -17 113 0 98 119 107
 114 118 116 0 122 +18 114 75 0 113 108 129 115 ?1 29 115 76 0 114 130 109 7.880
8127999999994e-04 -3.9992126000000012e-04 8.2400000000000002e-04 16 116 77 0 ?11
3 110 120 117 0 0 1 30 117 78 0 116 121 111 0 +5.0008127999999985e-04 -3.9992126
000000004e-04 8.2400000000000002e-04 1.0 -2.4492935982947066e-16 0.0 17 118 0 39
8 399 366 108 113 116 0 429 -17 119 0 98 99 113 105 122 120 0 104 +16 120 79 0 ?
119 116 131 121 0 0 1 30 121 80 0 120 132 117 0 +7.8808128000000012e-04 4.120787
3999999984e-04 8.2400000000000002e-04 2.4492935982947066e-16 1.0 -6.123233995736
7659e-17 17 122 0 300 301 305 114 119 120 0 304 -14 123 81 125 1.0e-08 152 94 12
7 11 124 +0 0 152 94 9 50 124 82 0 123 153 95 0 +5.0008128000000003e-04 4.120787
3999999984e-04 -2.5227724062435476e-20 2.4492935982947066e-16 1.0 -1.92810273511
43374e-16 4.7224896859700616e-32 1.9281027351143374e-16 1.0 81 1 125 83 5 123 0
 0 154 96 126 83 3 126 0.7529411911964418 0.7529411911964418 0.7529411911964418
 15 127 84 0 128 123 0 17 128 0 127 136 148 129 133 131 0 141 +18 129 85 0 128 1
14 134 130 ?1 29 130 86 0 129 135 115 5.1208128000000013e-04 4.1207874000000002e
-04 8.1199999999999992e-04 16 131 87 0 ?128 120 139 132 0 0 1 30 132 88 0 131 14
0 121 0 +5.1208128000000013e-04 4.1207874000000002e-04 8.2400000000000002e-04 4.
7224896859700616e-32 1.9281027351143374e-16 1.0 17 133 0 380 348 381 134 128 131
 0 283 -18 134 89 0 133 129 137 135 ?1 29 135 90 0 134 138 130 5.120812800000001
3e-04 4.1207873999999984e-04 1.1999999999999973e-05 17 136 0 127 142 128 137 141
 139 0 147 +18 137 91 0 295 134 143 138 ?1 29 138 92 0 137 144 135 7.88081280000
00012e-04 4.1207873999999984e-04 8.1199999999999992e-04 16 139 93 0 ?136 131 145
 140 0 0 1 30 140 94 0 139 146 132 0 +5.0008128000000003e-04 4.1207874000000002e
-04 8.1199999999999992e-04 1.0 -2.4492935982947066e-16 0.0 17 141 0 389 390 357
 129 136 139 0 381 -17 142 0 127 148 136 143 147 145 0 0 +18 143 95 0 261 137 15
8 144 ?1 29 144 96 0 143 159 138 7.8808128000000012e-04 4.1207873999999976e-04 1
.1999999999999973e-05 16 145 97 0 ?142 139 149 146 0 0 1 30 146 98 0 145 150 140
 0 +7.8808128000000012e-04 4.1207873999999976e-04 -2.5227724062435476e-20 -4.722
4896859700616e-32 -1.9281027351143374e-16 -1.0 17 147 0 291 292 260 137 142 145
 0 357 -17 148 0 127 128 142 134 151 149 0 345 +16 149 99 0 ?148 145 160 150 0 0
 1 30 150 100 0 149 161 146 0 +5.0008128000000003e-04 4.1207873999999984e-04 1.1
999999999999973e-05 -1.0 2.4492935982947066e-16 0.0 17 151 0 282 264 283 143 148
 149 0 260 -14 152 101 154 1.0e-08 181 123 156 11 153 +0 0 181 123 9 50 153 102
 0 152 182 124 0 +5.0008127999999985e-04 -4.1192126e-04 2.5227724062435476e-20 -
1.4997597826618576e-32 -6.1232339957367659e-17 -1.0 2.4492935982947066e-16 1.0 -
6.1232339957367659e-17 81 1 154 103 5 152 0 0 183 125 155 83 3 155 0.75294119119
64418 0.7529411911964418 0.7529411911964418 15 156 104 0 157 152 0 17 157 0 156
 165 177 158 162 160 0 339 +18 158 105 0 170 143 163 159 ?1 29 159 106 0 158 164
 144 5.1208127999999977e-04 -3.9992126000000004e-04 2.4492935982947057e-20 16 16
0 107 0 ?157 149 168 161 0 0 1 30 161 108 0 160 169 150 0 +5.0008127999999985e-0
4 -3.9992126000000004e-04 2.4492935982947057e-20 -1.0 2.4492935982947066e-16 0.0
 17 162 0 322 273 323 163 157 160 0 0 -18 163 109 0 270 158 166 164 ?1 29 164 11
0 0 163 167 159 7.8808127999999994e-04 -3.9992126000000008e-04 2.449293598294705
7e-20 17 165 0 156 171 157 166 170 168 0 176 +18 166 111 0 165 163 172 167 ?1 29
 167 112 0 166 173 164 5.1208128000000013e-04 4.0007873999999974e-04 -2.44929359
82947057e-20 16 168 113 0 ?165 160 174 169 0 0 1 30 169 114 0 168 175 161 0 +5.1
208128000000013e-04 4.1207873999999984e-04 -2.5227724062435476e-20 2.44929359829
47066e-16 1.0 -6.1232339957367659e-17 17 170 0 331 336 332 158 165 168 0 157 -17
 171 0 156 177 165 172 176 174 0 180 +18 172 115 0 264 166 187 173 ?1 29 173 116
 0 172 188 167 7.8808128000000012e-04 4.0007873999999974e-04 -2.4492935982947057
e-20 16 174 117 0 ?171 168 178 175 0 0 1 30 175 118 0 174 179 169 0 +5.000812800
0000003e-04 4.0007873999999974e-04 -2.4492935982947057e-20 1.0 -2.44929359829470
66e-16 0.0 17 176 0 282 283 264 166 171 174 0 286 -17 177 0 156 157 171 163 180
 178 0 248 +16 178 119 0 ?177 174 189 179 0 0 1 30 179 120 0 178 190 175 0 +7.88
08127999999994e-04 -4.1192126000000009e-04 2.5227724062435476e-20 -2.44929359829
47066e-16 -1.0 6.1232339957367659e-17 17 180 0 243 244 248 172 177 178 0 247 -14
 181 121 183 1.0e-08 210 152 185 11 182 +0 0 210 152 9 50 182 122 0 181 211 153
 0 +5.0008127999999985e-04 -4.1192126000000009e-04 8.2400000000000002e-04 -2.449
2935982947066e-16 -1.0 -7.034559359669843e-17 1.722970120646346e-32 7.0345593596
69843e-17 -1.0 81 1 183 123 5 181 0 0 212 154 184 83 3 184 0.7529411911964418 0.
7529411911964418 0.7529411911964418 15 185 124 0 186 181 0 17 186 0 185 194 206
 187 191 189 0 199 +18 187 125 0 186 172 192 188 ?1 29 188 126 0 187 193 173 5.1
208127999999977e-04 -4.1192126e-04 1.1999999999999993e-05 16 189 127 0 ?186 178
 197 190 0 0 1 30 190 128 0 189 198 179 0 +5.1208127999999977e-04 -4.1192126e-04
 2.3648788859786678e-20 1.722970120646346e-32 7.034559359669843e-17 -1.0 17 191
 0 407 408 375 192 186 189 0 206 -18 192 129 0 399 187 195 193 ?1 29 193 130 0 1
92 196 188 5.1208127999999977e-04 -4.1192126000000009e-04 8.1199999999999992e-04
 17 194 0 185 200 186 195 199 197 0 205 +18 195 131 0 273 192 201 196 ?1 29 196
 132 0 195 202 193 7.8808127999999994e-04 -4.1192126000000009e-04 1.199999999999
9993e-05 16 197 133 0 ?194 189 203 198 0 0 1 30 198 134 0 197 204 190 0 +5.00081
27999999985e-04 -4.1192126e-04 1.1999999999999993e-05 1.0 -2.4492935982947066e-1
6 0.0 17 199 0 322 323 273 187 194 197 0 375 -17 200 0 185 206 194 201 205 203 0
 209 +18 201 135 0 200 195 216 202 ?1 29 202 136 0 201 217 196 7.880812799999999
4e-04 -4.1192126000000018e-04 8.1199999999999992e-04 16 203 137 0 ?200 197 207 2
04 0 0 1 30 204 138 0 203 208 198 0 +7.8808127999999994e-04 -4.1192126000000018e
-04 8.2400000000000002e-04 -1.722970120646346e-32 -7.034559359669843e-17 1.0 17
 205 0 313 277 314 195 200 203 0 0 -17 206 0 185 186 200 192 209 207 0 0 +16 207
 139 0 ?206 203 218 208 0 0 1 30 208 140 0 207 219 204 0 +5.0008127999999985e-04
 -4.1192126000000009e-04 8.1199999999999992e-04 -1.0 2.4492935982947066e-16 0.0
 17 209 0 398 366 399 201 206 207 0 363 -14 210 141 212 1.0e-08 239 181 214 11 2
11 +0 0 239 181 9 50 211 142 0 210 240 182 0 +8.0008127999999985e-04 -3.99921260
00000012e-04 1.2000000000000024e-05 1.0 -2.4492935982947066e-16 0.0 2.4492935982
947066e-16 1.0 -6.1232339957367659e-17 81 1 212 143 5 210 0 0 241 183 213 83 3 2
13 0.7529411911964418 0.7529411911964418 0.7529411911964418 15 214 144 0 215 210
 0 17 215 0 214 223 235 216 220 218 0 0 +18 216 145 0 228 201 221 217 ?1 29 217
 146 0 216 222 202 8.0008128000000003e-04 4.0007873999999974e-04 1.1999999999999
977e-05 16 218 147 0 ?215 207 226 219 0 0 1 30 219 148 0 218 227 208 0 +8.000812
7999999985e-04 -3.9992126000000012e-04 1.2000000000000024e-05 2.4492935982947066
e-16 1.0 -6.1232339957367659e-17 17 220 0 243 248 244 221 215 218 0 0 -18 221 14
9 0 235 216 224 222 ?1 29 222 150 0 221 225 217 8.0008127999999985e-04 -3.999212
6000000012e-04 1.2000000000000024e-05 17 223 0 214 229 215 224 228 226 0 308 +18
 224 151 0 223 221 230 225 ?1 29 225 152 0 224 231 222 8.0008128000000003e-04 4.
0007873999999983e-04 8.1199999999999992e-04 16 226 153 0 ?223 218 232 227 0 0 1
 30 227 154 0 226 233 219 0 +8.0008128000000003e-04 4.0007873999999974e-04 1.199
9999999999871e-05 4.7224896859700616e-32 1.9281027351143374e-16 1.0 17 228 0 291
 260 292 216 223 226 0 244 -17 229 0 214 235 223 230 234 232 0 238 +18 230 155 0
 229 224 441 231 ?1 29 231 156 0 230 442 225 8.0008127999999985e-04 -3.999212600
0000016e-04 8.1199999999999992e-04 16 232 157 0 ?229 226 236 233 0 0 1 30 233 15
8 0 232 237 227 0 +8.0008127999999985e-04 -3.9992126000000008e-04 8.119999999999
9992e-04 -2.4492935982947066e-16 -1.0 6.1232339957367659e-17 17 234 0 300 305 30
1 224 229 232 0 292 -17 235 0 214 215 229 221 238 236 0 277 +16 236 159 0 ?235 2
32 245 237 0 0 1 30 237 160 0 236 246 233 0 +8.0008127999999985e-04 -3.999212600
0000012e-04 1.2000000000000024e-05 1.722970120646346e-32 7.034559359669843e-17 -
1.0 17 238 0 313 314 277 230 235 236 0 301 -14 239 161 241 1.0e-08 252 210 243 1
1 240 +0 0 252 210 9 51 240 162 0 239 253 211 0 +7.8808127999999994e-04 -3.99921
26000000008e-04 1.2000000000000024e-05 2.4492935982947066e-16 1.0 -6.12323399573
67659e-17 1.1999999999999966e-05 -1.0 2.4492935982947066e-16 0.0 81 1 241 163 5
 239 0 0 254 212 242 83 3 242 0.7529411911964418 0.7529411911964418 0.7529411911
964418 15 243 164 0 244 239 0 17 244 0 243 220 180 216 247 245 0 257 -16 245 165
 0 ?247 236 249 246 0 0 1 31 246 166 0 245 250 237 0 +7.8808128000000012e-04 4.0
007873999999974e-04 1.1999999999999977e-05 2.4492935982947066e-16 1.0 -4.5787413
919803024e-15 1.1214681979624348e-30 4.5787413919803024e-15 1.0 1.2e-05 17 247 0
 256 261 257 172 244 245 0 0 +17 248 0 243 180 220 163 251 249 0 162 -16 249 167
 0 ?251 245 258 250 0 0 1 31 250 168 0 249 259 246 0 +7.8808127999999994e-04 -3.
9992126000000008e-04 1.2000000000000024e-05 -2.4492935982947066e-16 -1.0 6.12323
39957367659e-17 1.0 -2.4492935982947066e-16 0.0 1.1999999999999966e-05 17 251 0
 269 274 270 221 248 249 0 220 +14 252 169 254 1.0e-08 265 239 256 11 253 +0 0 2
65 239 9 53 253 170 0 252 266 240 0 +7.8808128000000012e-04 4.0007873999999974e-
04 1.1999999999999977e-05 1.2e-05 1.4997597826618576e-32 6.1232339957367659e-17
 1.0 1.0 -2.4492935982947066e-16 0.0 81 1 254 171 5 252 0 0 267 241 255 83 3 255
 0.7529411911964418 0.7529411911964418 0.7529411911964418 15 256 172 0 257 252 0
 17 257 0 256 247 261 216 260 258 0 215 -16 258 173 0 ?260 249 262 259 0 0 1 31
 259 174 0 258 263 250 0 +7.8808128000000012e-04 4.0007873999999974e-04 1.199999
9999999977e-05 4.957480408086278e-32 2.0240449783308416e-16 1.0 2.44929359829470
66e-16 1.0 -2.0240449783308416e-16 1.200000000000002e-05 17 260 0 291 147 228 14
3 257 258 0 142 +17 261 0 256 257 247 143 264 262 0 151 -16 262 175 0 ?264 258 2
71 263 0 0 1 31 263 176 0 262 272 259 0 +7.8808128000000012e-04 4.00078739999999
74e-04 1.1999999999999977e-05 -1.0 2.4492935982947066e-16 0.0 2.4492935982947066
e-16 1.0 -6.1232339957367659e-17 1.200000000000002e-05 17 264 0 282 176 151 172
 261 262 0 171 +14 265 177 267 1.0e-08 278 252 269 11 266 +0 0 278 252 9 53 266
 178 0 265 279 253 0 +7.8808127999999994e-04 -3.9992126000000008e-04 1.200000000
0000024e-05 1.2e-05 1.4997597826618576e-32 6.1232339957367659e-17 1.0 1.0 -2.449
2935982947066e-16 0.0 81 1 267 179 5 265 0 0 280 254 268 83 3 268 0.752941191196
4418 0.7529411911964418 0.7529411911964418 15 269 180 0 270 265 0 17 270 0 269 2
51 274 163 273 271 0 177 -16 271 181 0 ?273 262 275 272 0 0 1 31 272 182 0 271 2
76 263 0 +7.8808127999999994e-04 -3.9992126000000008e-04 1.1999999999999991e-05
 -1.0 2.4492935982947066e-16 0.0 2.4492935982947066e-16 1.0 -6.1232339957367659e
-17 1.200000000000002e-05 17 273 0 322 199 162 195 270 271 0 274 +17 274 0 269 2
70 251 195 277 275 0 194 -16 275 183 0 ?277 271 284 276 0 0 1 31 276 184 0 275 2
85 272 0 +7.8808127999999994e-04 -3.9992126000000008e-04 1.2000000000000024e-05
 -7.1112373351250957e-31 -2.9033829754326784e-15 1.0 2.4492935982947066e-16 1.0
 2.9033829754326784e-15 1.200000000000002e-05 17 277 0 313 238 205 221 274 275 0
 251 +14 278 185 280 1.0e-08 287 265 282 11 279 +0 0 287 265 9 51 279 186 0 278
 288 266 0 +5.0008128000000003e-04 4.0007873999999974e-04 1.1999999999999977e-05
 1.0 -2.4492935982947066e-16 0.0 1.200000000000002e-05 2.4492935982947066e-16 1.
0 -6.1232339957367659e-17 81 1 280 187 5 278 0 0 289 267 281 83 3 281 0.75294119
11964418 0.7529411911964418 0.7529411911964418 15 282 188 0 264 278 0 17 283 0 2
82 151 176 134 286 284 0 148 -16 284 189 0 ?286 275 293 285 0 0 1 31 285 190 0 2
84 294 276 0 +5.1208128000000013e-04 4.0007873999999983e-04 1.1999999999999977e-
05 -1.0 2.4492935982947066e-16 0.0 -2.4492935982947066e-16 -1.0 6.12323399573676
59e-17 1.200000000000002e-05 17 286 0 344 335 345 166 283 284 0 332 +14 287 191
 289 1.0e-08 296 278 291 11 288 +0 0 296 278 9 51 288 192 0 287 297 279 0 +7.880
8128000000012e-04 4.0007873999999974e-04 1.1999999999999871e-05 4.72248968597006
16e-32 1.9281027351143374e-16 1.0 1.200000000000002e-05 -2.4492935982947066e-16
 -1.0 1.9281027351143374e-16 81 1 289 193 5 287 0 0 298 280 290 83 3 290 0.75294
11911964418 0.7529411911964418 0.7529411911964418 15 291 194 0 260 287 0 17 292
 0 291 228 147 224 295 293 0 0 -16 293 195 0 ?295 284 302 294 0 0 1 31 294 196 0
 293 303 285 0 +7.8808128000000012e-04 4.0007873999999983e-04 8.120000000000001e
-04 1.4997597826618576e-32 6.1232339957367659e-17 1.0 -2.4492935982947066e-16 -1
.0 6.1232339957367659e-17 1.200000000000002e-05 17 295 0 353 354 308 137 292 293
 0 136 +14 296 197 298 1.0e-08 309 287 300 11 297 +0 0 309 287 9 51 297 198 0 29
6 310 288 0 +7.8808127999999994e-04 -3.9992126000000008e-04 8.120000000000001e-0
4 -2.4492935982947066e-16 -1.0 6.1232339957367659e-17 1.1999999999999966e-05 1.0
 -2.4492935982947066e-16 0.0 81 1 298 199 5 296 0 0 311 289 299 83 3 299 0.75294
11911964418 0.7529411911964418 0.7529411911964418 15 300 200 0 301 296 0 17 301
 0 300 234 122 230 304 302 0 317 -16 302 201 0 ?304 293 306 303 0 0 1 31 303 202
 0 302 307 294 0 +7.8808127999999994e-04 -3.9992126000000016e-04 8.1200000000000
01e-04 -2.4492935982947066e-16 -1.0 4.5787413919803158e-15 -1.1214681979624381e-
30 -4.5787413919803158e-15 -1.0 1.1999999999999966e-05 17 304 0 362 363 317 114
 301 302 0 366 +17 305 0 300 122 234 105 308 306 0 119 -16 306 203 0 ?308 302 31
5 307 0 0 1 31 307 204 0 306 316 303 0 +7.8808128000000012e-04 4.000787399999998
3e-04 8.120000000000001e-04 2.4492935982947066e-16 1.0 -6.1232339957367659e-17 -
1.0 2.4492935982947066e-16 0.0 1.1999999999999966e-05 17 308 0 353 295 354 224 3
05 306 0 234 +14 309 205 311 1.0e-08 318 296 313 11 310 +0 0 318 296 9 51 310 20
6 0 309 319 297 0 +7.8808127999999994e-04 -3.9992126000000008e-04 1.200000000000
0024e-05 1.722970120646346e-32 7.034559359669843e-17 -1.0 1.200000000000002e-05
 2.4492935982947066e-16 1.0 7.034559359669843e-17 81 1 311 207 5 309 0 0 320 298
 312 83 3 312 0.7529411911964418 0.7529411911964418 0.7529411911964418 15 313 20
8 0 277 309 0 17 314 0 313 205 238 201 317 315 0 0 -16 315 209 0 ?317 306 324 31
6 0 0 1 31 316 210 0 315 325 307 0 +7.8808127999999994e-04 -3.9992126000000016e-
04 8.120000000000001e-04 1.4997597826618576e-32 6.1232339957367659e-17 1.0 -2.44
92935982947066e-16 -1.0 6.1232339957367659e-17 1.200000000000002e-05 17 317 0 36
2 304 363 230 314 315 0 0 +14 318 211 320 1.0e-08 327 309 322 11 319 +0 0 327 30
9 9 51 319 212 0 318 328 310 0 +5.0008127999999985e-04 -3.9992126000000004e-04 1
.1999999999999991e-05 1.0 -2.4492935982947066e-16 0.0 1.200000000000002e-05 2.44
92935982947066e-16 1.0 -6.1232339957367659e-17 81 1 320 213 5 318 0 0 329 311 32
1 83 3 321 0.7529411911964418 0.7529411911964418 0.7529411911964418 15 322 214 0
 273 318 0 17 323 0 322 162 199 158 326 324 0 0 -16 324 215 0 ?326 315 333 325 0
 0 1 31 325 216 0 324 334 316 0 +5.1208127999999995e-04 -3.9992126000000004e-04
 1.2000000000000024e-05 -1.0 2.4492935982947066e-16 0.0 -2.4492935982947066e-16
 -1.0 6.1232339957367659e-17 1.200000000000002e-05 17 326 0 371 372 339 187 323
 324 0 0 +14 327 217 329 1.0e-08 340 318 331 11 328 +0 0 340 318 9 51 328 218 0
 327 341 319 0 +5.1208127999999995e-04 -4.1192126e-04 1.2000000000000026e-05 -2.
4492935982947066e-16 -1.0 6.1232339957367659e-17 1.1999999999999966e-05 1.0 -2.4
492935982947066e-16 0.0 81 1 329 219 5 327 0 0 342 320 330 83 3 330 0.7529411911
964418 0.7529411911964418 0.7529411911964418 15 331 220 0 332 327 0 17 332 0 331
 170 59 166 335 333 0 0 -16 333 221 0 ?335 324 337 334 0 0 1 31 334 222 0 333 33
8 325 0 +5.1208128000000013e-04 4.0007873999999974e-04 1.1999999999999977e-05 4.
7624384118524176e-15 1.0 -6.1232339957367659e-17 -1.0 4.7624384118524176e-15 -2.
7661765003395482e-31 1.1999999999999966e-05 17 335 0 344 345 286 51 332 333 0 34
8 +17 336 0 331 59 170 24 339 337 0 0 -16 337 223 0 ?339 333 346 338 0 0 1 31 33
8 224 0 337 347 334 0 +5.1208127999999995e-04 -3.9992126000000004e-04 1.20000000
00000024e-05 -2.4492935982947066e-16 -1.0 6.1232339957367659e-17 1.0 -2.44929359
82947066e-16 0.0 1.1999999999999966e-05 17 339 0 371 326 372 158 336 337 0 323 +
14 340 225 342 1.0e-08 349 327 344 11 341 +0 0 349 327 9 53 341 226 0 340 350 32
8 0 +5.1208128000000013e-04 4.0007873999999983e-04 1.1999999999999977e-05 1.2e-0
5 1.4997597826618576e-32 6.1232339957367659e-17 1.0 1.0 -2.4492935982947066e-16
 0.0 81 1 342 227 5 340 0 0 351 329 343 83 3 343 0.7529411911964418 0.7529411911
964418 0.7529411911964418 15 344 228 0 286 340 0 17 345 0 344 286 335 134 348 34
6 0 0 -16 346 229 0 ?348 337 355 347 0 0 1 31 347 230 0 346 356 338 0 +5.1208128
000000013e-04 4.0007873999999983e-04 1.1999999999999977e-05 4.957480408086278e-3
2 2.0240449783308416e-16 1.0 2.4492935982947066e-16 1.0 -2.0240449783308416e-16
 1.200000000000002e-05 17 348 0 380 80 133 51 345 346 0 0 +14 349 231 351 1.0e-0
8 358 340 353 11 350 +0 0 358 340 9 53 350 232 0 349 359 341 0 +7.88081280000000
12e-04 4.0007873999999983e-04 8.120000000000001e-04 1.2e-05 1.4997597826618576e-
32 6.1232339957367659e-17 1.0 1.0 -2.4492935982947066e-16 0.0 81 1 351 233 5 349
 0 0 360 342 352 83 3 352 0.7529411911964418 0.7529411911964418 0.75294119119644
18 15 353 234 0 308 349 0 17 354 0 353 308 295 105 357 355 0 0 -16 355 235 0 ?35
7 346 364 356 0 0 1 31 356 236 0 355 365 347 0 +7.8808128000000012e-04 4.0007873
999999983e-04 8.120000000000001e-04 -1.0 2.4492935982947066e-16 0.0 2.4492935982
947066e-16 1.0 -6.1232339957367659e-17 1.200000000000002e-05 17 357 0 389 141 10
4 137 354 355 0 0 +14 358 237 360 1.0e-08 367 349 362 11 359 +0 0 367 349 9 53 3
59 238 0 358 368 350 0 +7.8808127999999994e-04 -3.9992126000000016e-04 8.1200000
00000001e-04 1.2e-05 1.4997597826618576e-32 6.1232339957367659e-17 1.0 1.0 -2.44
92935982947066e-16 0.0 81 1 360 239 5 358 0 0 369 351 361 83 3 361 0.75294119119
64418 0.7529411911964418 0.7529411911964418 15 362 240 0 317 358 0 17 363 0 362
 317 304 201 366 364 0 314 -16 364 241 0 ?366 355 373 365 0 0 1 31 365 242 0 364
 374 356 0 +7.8808127999999994e-04 -3.9992126000000012e-04 8.120000000000001e-04
 -1.0 2.4492935982947066e-16 0.0 2.4492935982947066e-16 1.0 -6.1232339957367659e
-17 1.200000000000002e-05 17 366 0 398 118 209 114 363 364 0 0 +14 367 243 369 1
.0e-08 376 358 371 11 368 +0 0 376 358 9 53 368 244 0 367 377 359 0 +5.120812799
9999995e-04 -3.9992126000000004e-04 1.2000000000000024e-05 1.2e-05 1.49975978266
18576e-32 6.1232339957367659e-17 1.0 1.0 -2.4492935982947066e-16 0.0 81 1 369 24
5 5 367 0 0 378 360 370 83 3 370 0.7529411911964418 0.7529411911964418 0.7529411
911964418 15 371 246 0 339 367 0 17 372 0 371 339 326 24 375 373 0 336 -16 373 2
47 0 ?375 364 382 374 0 0 1 31 374 248 0 373 383 365 0 +5.1208127999999995e-04 -
3.9992126000000004e-04 1.1999999999999991e-05 2.8234431575143426e-15 -7.99398179
1834952e-17 1.0 1.0 -2.4492935982947084e-16 -2.8234431575143426e-15 1.1999999999
999966e-05 17 375 0 407 191 34 187 372 373 0 326 +14 376 249 378 1.0e-08 385 367
 380 11 377 +0 0 385 367 9 51 377 250 0 376 386 368 0 +5.1208128000000013e-04 4.
0007873999999983e-04 -2.291400078029827e-20 -4.7224896859700616e-32 -1.928102735
1143374e-16 -1.0 1.200000000000002e-05 2.4492935982947066e-16 1.0 -1.92810273511
43374e-16 81 1 378 251 5 376 0 0 387 369 379 83 3 379 0.7529411911964418 0.75294
11911964418 0.7529411911964418 15 380 252 0 348 376 0 17 381 0 380 133 80 129 38
4 382 0 393 -16 382 253 0 ?384 373 391 383 0 0 1 31 383 254 0 382 392 374 0 +5.1
208128000000013e-04 4.0007874000000001e-04 8.120000000000001e-04 1.4997597826618
576e-32 6.1232339957367659e-17 1.0 -2.4492935982947066e-16 -1.0 6.12323399573676
59e-17 1.200000000000002e-05 17 384 0 416 417 393 72 381 382 0 0 +14 385 255 387
 1.0e-08 394 376 389 11 386 +0 0 394 376 9 51 386 256 0 385 395 377 0 +5.0008128
000000003e-04 4.0007874000000001e-04 8.120000000000001e-04 1.0 -2.44929359829470
66e-16 0.0 1.200000000000002e-05 2.4492935982947066e-16 1.0 -6.1232339957367659e
-17 81 1 387 257 5 385 0 0 396 378 388 83 3 388 0.7529411911964418 0.75294119119
64418 0.7529411911964418 15 389 258 0 357 385 0 17 390 0 389 104 141 100 393 391
 0 0 -16 391 259 0 ?393 382 400 392 0 0 1 31 392 260 0 391 401 383 0 +5.12081280
00000013e-04 4.0007874000000001e-04 8.120000000000001e-04 -1.0 2.449293598294706
6e-16 0.0 -2.4492935982947066e-16 -1.0 6.1232339957367659e-17 1.200000000000002e
-05 17 393 0 416 384 417 129 390 391 0 0 +14 394 261 396 1.0e-08 403 385 398 11
 395 +0 0 403 385 9 51 395 262 0 394 404 386 0 +5.0008127999999985e-04 -3.999212
6000000004e-04 8.120000000000001e-04 1.0 -2.4492935982947066e-16 0.0 1.200000000
000002e-05 2.4492935982947066e-16 1.0 -6.1232339957367659e-17 81 1 396 263 5 394
 0 0 405 387 397 83 3 397 0.7529411911964418 0.7529411911964418 0.75294119119644
18 15 398 264 0 366 394 0 17 399 0 398 209 118 192 402 400 0 411 -16 400 265 0 ?
402 391 409 401 0 0 1 31 401 266 0 400 410 392 0 +5.1208127999999995e-04 -3.9992
126000000008e-04 8.120000000000001e-04 -1.0 2.4492935982947066e-16 0.0 -2.449293
5982947066e-16 -1.0 6.1232339957367659e-17 1.200000000000002e-05 17 402 0 425 42
6 411 108 399 400 0 118 +14 403 267 405 1.0e-08 412 394 407 11 404 +0 0 412 394
 9 51 404 268 0 403 413 395 0 +5.1208127999999995e-04 -3.9992126000000008e-04 8.
2400000000000002e-04 -1.722970120646346e-32 -7.034559359669843e-17 1.0 1.2000000
00000002e-05 -2.4492935982947066e-16 -1.0 -7.034559359669843e-17 81 1 405 269 5
 403 0 0 414 396 406 83 3 406 0.7529411911964418 0.7529411911964418 0.7529411911
964418 15 407 270 0 375 403 0 17 408 0 407 34 191 30 411 409 0 29 -16 409 271 0
 ?411 400 418 410 0 0 1 31 410 272 0 409 419 401 0 +5.1208127999999995e-04 -3.99
92126000000008e-04 8.120000000000001e-04 1.4997597826618576e-32 6.12323399573676
59e-17 1.0 -2.4492935982947066e-16 -1.0 6.1232339957367659e-17 1.200000000000002
e-05 17 411 0 425 402 426 192 408 409 0 191 +14 412 273 414 1.0e-08 421 403 416
 11 413 +0 0 421 403 9 53 413 274 0 412 422 404 0 +5.1208128000000013e-04 4.0007
874000000001e-04 8.120000000000001e-04 1.2e-05 1.4997597826618576e-32 6.12323399
57367659e-17 1.0 1.0 -2.4492935982947066e-16 0.0 81 1 414 275 5 412 0 0 423 405
 415 83 3 415 0.7529411911964418 0.7529411911964418 0.7529411911964418 15 416 27
6 0 393 412 0 17 417 0 416 393 384 100 420 418 0 99 -16 418 277 0 ?420 409 427 4
19 0 0 1 31 419 278 0 418 428 410 0 +5.1208128000000013e-04 4.0007874000000001e-
04 8.120000000000001e-04 -2.4492935982947066e-16 -1.0 6.1232339957367659e-17 -1.
0 2.4492935982947066e-16 0.0 1.1999999999999966e-05 17 420 0 434 93 112 72 417 4
18 0 71 +14 421 279 423 1.0e-08 430 412 425 11 422 +0 0 430 412 9 53 422 280 0 4
21 431 413 0 +5.1208127999999995e-04 -3.9992126000000008e-04 8.120000000000001e-
04 1.2e-05 1.4997597826618576e-32 6.1232339957367659e-17 1.0 1.0 -2.449293598294
7066e-16 0.0 81 1 423 281 5 421 0 0 432 414 424 83 3 424 0.7529411911964418 0.75
29411911964418 0.7529411911964418 15 425 282 0 411 421 0 17 426 0 425 411 402 30
 429 427 0 408 -16 427 283 0 ?429 418 443 428 0 0 1 31 428 284 0 427 444 419 0 +
5.1208127999999995e-04 -3.9992126000000004e-04 8.120000000000001e-04 -4.27257969
2193478e-15 1.0 -6.1232339957367659e-17 1.0 4.272579692193478e-15 -2.76617650033
95492e-31 1.1999999999999966e-05 17 429 0 434 112 93 108 426 427 0 107 +14 430 2
85 432 1.0e-08 435 421 434 11 431 +0 0 435 421 9 51 431 286 0 430 436 422 0 +5.1
208128000000013e-04 4.1207874000000002e-04 8.120000000000001e-04 2.4492935982947
066e-16 1.0 -6.1232339957367659e-17 1.1999999999999966e-05 -1.0 2.44929359829470
66e-16 0.0 81 1 432 287 5 430 0 0 437 423 433 83 3 433 0.7529411911964418 0.7529
411911964418 0.7529411911964418 15 434 288 0 420 430 0 14 435 289 437 1.0e-08 46
4 430 439 11 436 -0 0 464 430 9 50 436 290 0 435 465 431 0 +-4.9991871999999988e
-04 4.120787400000002e-04 8.2400000000000002e-04 -1.4997597826618576e-32 -6.1232
339957367659e-17 -1.0 2.4492935982947066e-16 1.0 -6.1232339957367659e-17 81 1 43
7 291 5 435 0 0 466 432 438 83 3 438 0.7529411911964418 0.7529411911964418 0.752
9411911964418 15 439 292 0 440 435 0 17 440 0 439 448 460 441 445 443 0 725 +18
 441 293 0 453 230 446 442 ?1 29 442 294 0 441 447 231 -5.119187199999999e-04 4.
0007874000000019e-04 8.2400000000000002e-04 16 443 295 0 ?440 427 451 444 0 0 1
 30 444 296 0 443 452 428 0 +-5.119187199999999e-04 4.120787400000002e-04 8.2400
000000000002e-04 2.4492935982947066e-16 1.0 -6.1232339957367659e-17 17 445 0 775
 770 761 446 440 443 0 749 -18 446 297 0 460 441 449 447 ?1 29 447 298 0 446 450
 442 -5.1191872000000016e-04 -3.9992125999999986e-04 8.2400000000000002e-04 17 4
48 0 439 454 440 449 453 451 0 459 +18 449 299 0 448 446 455 450 ?1 29 450 300 0
 449 456 447 -7.8791871999999988e-04 4.0007874000000028e-04 8.2400000000000002e-
04 16 451 301 0 ?448 443 457 452 0 0 1 30 452 302 0 451 458 444 0 +-4.9991871999
999988e-04 4.0007874000000019e-04 8.2400000000000002e-04 -1.0 2.4492935982947066
e-16 0.0 17 453 0 721 722 689 441 448 451 0 440 -17 454 0 439 460 448 455 459 45
7 0 463 +18 455 303 0 454 449 470 456 ?1 29 456 304 0 455 471 450 -7.87918720000
00014e-04 -3.9992125999999982e-04 8.2400000000000002e-04 16 457 305 0 ?454 451 4
61 458 0 0 1 30 458 306 0 457 462 452 0 +-7.8791871999999988e-04 4.1207874000000
029e-04 8.2400000000000002e-04 -2.4492935982947066e-16 -1.0 6.1232339957367659e-
17 17 459 0 672 673 677 449 454 457 0 689 -17 460 0 439 440 454 446 463 461 0 44
5 +16 461 307 0 ?460 457 472 462 0 0 1 30 462 308 0 461 473 458 0 +-4.9991872000
000006e-04 -3.9992125999999982e-04 8.2400000000000002e-04 1.0 -2.449293598294706
6e-16 0.0 17 463 0 748 716 749 455 460 461 0 677 -14 464 309 466 1.0e-08 493 435
 468 11 465 -0 0 493 435 9 50 465 310 0 464 494 436 0 +-4.9991872000000006e-04 -
4.1192125999999991e-04 8.2400000000000002e-04 2.4492935982947066e-16 1.0 7.03455
9359669843e-17 -1.722970120646346e-32 -7.034559359669843e-17 1.0 81 1 466 311 5
 464 0 0 495 437 467 83 3 467 0.7529411911964418 0.7529411911964418 0.7529411911
964418 15 468 312 0 469 464 0 17 469 0 468 477 489 470 474 472 0 482 +18 470 313
 0 469 455 475 471 ?1 29 471 314 0 470 476 456 -5.1191872000000016e-04 -4.119212
5999999991e-04 8.1199999999999992e-04 16 472 315 0 ?469 461 480 473 0 0 1 30 473
 316 0 472 481 462 0 +-5.1191872000000016e-04 -4.1192125999999991e-04 8.24000000
00000002e-04 -1.722970120646346e-32 -7.034559359669843e-17 1.0 17 474 0 739 707
 740 475 469 472 0 489 -18 475 317 0 474 470 478 476 ?1 29 476 318 0 475 479 471
 -5.1191872000000016e-04 -4.1192125999999973e-04 1.2000000000000024e-05 17 477 0
 468 483 469 478 482 480 0 488 +18 478 319 0 477 475 484 479 ?1 29 479 320 0 478
 485 476 -7.8791872000000014e-04 -4.1192125999999973e-04 8.1199999999999992e-04
 16 480 321 0 ?477 472 486 481 0 0 1 30 481 322 0 480 487 473 0 +-4.999187200000
0006e-04 -4.1192125999999991e-04 8.1199999999999992e-04 -1.0 2.4492935982947066e
-16 0.0 17 482 0 748 749 716 470 477 480 0 740 -17 483 0 468 489 477 484 488 486
 0 614 +18 484 323 0 483 478 499 485 ?1 29 485 324 0 484 500 479 -7.879187200000
0014e-04 -4.1192125999999973e-04 1.2000000000000024e-05 16 486 325 0 ?483 480 49
0 487 0 0 1 30 487 326 0 486 491 481 0 +-7.8791872000000014e-04 -4.1192125999999
973e-04 8.2400000000000002e-04 1.722970120646346e-32 7.034559359669843e-17 -1.0
 17 488 0 663 664 614 478 483 486 0 667 -17 489 0 468 469 483 475 492 490 0 655
 +16 490 327 0 ?489 486 501 491 0 0 1 30 491 328 0 490 502 487 0 +-4.99918720000
00006e-04 -4.1192125999999973e-04 1.1999999999999993e-05 1.0 -2.4492935982947066
e-16 0.0 17 492 0 654 618 655 484 489 490 0 615 -14 493 329 495 1.0e-08 522 464
 497 11 494 -0 0 522 464 9 50 494 330 0 493 523 465 0 +-4.9991872000000006e-04 -
4.1192125999999982e-04 2.5227724062435476e-20 1.4997597826618576e-32 6.123233995
7367659e-17 1.0 -2.4492935982947066e-16 -1.0 6.1232339957367659e-17 81 1 495 331
 5 493 0 0 524 466 496 83 3 496 0.7529411911964418 0.7529411911964418 0.75294119
11964418 15 497 332 0 498 493 0 17 498 0 497 506 518 499 503 501 0 511 +18 499 3
33 0 498 484 504 500 ?1 29 500 334 0 499 505 485 -7.8791871999999988e-04 4.00078
7400000001e-04 -2.4492935982947057e-20 16 501 335 0 ?498 490 509 502 0 0 1 30 50
2 336 0 501 510 491 0 +-7.8791872000000014e-04 -4.1192125999999973e-04 2.5227724
062435476e-20 2.4492935982947066e-16 1.0 -6.1232339957367659e-17 17 503 0 584 58
9 585 504 498 501 0 518 -18 504 337 0 503 499 507 505 ?1 29 505 338 0 504 508 50
0 -7.8791872000000014e-04 -3.9992125999999972e-04 2.4492935982947057e-20 17 506
 0 497 512 498 507 511 509 0 517 +18 507 339 0 506 504 513 508 ?1 29 508 340 0 5
07 514 505 -5.119187199999999e-04 4.0007874000000001e-04 -2.4492935982947057e-20
 16 509 341 0 ?506 501 515 510 0 0 1 30 510 342 0 509 516 502 0 +-4.999187199999
9988e-04 4.0007874000000001e-04 -2.4492935982947057e-20 1.0 -2.4492935982947066e
-16 0.0 17 511 0 632 601 633 499 506 509 0 585 -17 512 0 497 518 506 513 517 515
 0 642 +18 513 343 0 521 507 528 514 ?1 29 514 344 0 513 529 508 -5.119187200000
0016e-04 -3.9992125999999982e-04 2.4492935982947057e-20 16 515 345 0 ?512 509 51
9 516 0 0 1 30 516 346 0 515 520 510 0 +-5.1191872000000016e-04 -4.1192125999999
973e-04 2.5227724062435476e-20 -2.4492935982947066e-16 -1.0 6.1232339957367659e-
17 17 517 0 641 646 642 507 512 515 0 633 -17 518 0 497 498 512 504 521 519 0 61
8 +16 519 347 0 ?518 515 530 520 0 0 1 30 520 348 0 519 531 516 0 +-4.9991872000
000006e-04 -3.9992125999999982e-04 2.4492935982947057e-20 -1.0 2.449293598294706
6e-16 0.0 17 521 0 654 655 618 513 518 519 0 512 -14 522 349 524 1.0e-08 551 493
 526 11 523 -0 0 551 493 9 50 523 350 0 522 552 494 0 +-4.9991871999999988e-04 4
.1207874000000002e-04 -2.5227724062435476e-20 -2.4492935982947066e-16 -1.0 1.928
1027351143374e-16 -4.7224896859700616e-32 -1.9281027351143374e-16 -1.0 81 1 524
 351 5 522 0 0 553 495 525 83 3 525 0.7529411911964418 0.7529411911964418 0.7529
411911964418 15 526 352 0 527 522 0 17 527 0 526 535 547 528 532 530 0 540 +18 5
28 353 0 527 513 533 529 ?1 29 529 354 0 528 534 514 -5.119187199999999e-04 4.12
07874000000002e-04 1.1999999999999973e-05 16 530 355 0 ?527 519 538 531 0 0 1 30
 531 356 0 530 539 520 0 +-5.119187199999999e-04 4.1207874000000002e-04 -2.52277
24062435476e-20 -4.7224896859700616e-32 -1.9281027351143374e-16 -1.0 17 532 0 73
0 731 698 533 527 530 0 722 -18 533 357 0 547 528 536 534 ?1 29 534 358 0 533 53
7 529 -5.119187199999999e-04 4.120787400000002e-04 8.1199999999999992e-04 17 535
 0 526 541 527 536 540 538 0 546 +18 536 359 0 602 533 542 537 ?1 29 537 360 0 5
36 543 534 -7.8791871999999988e-04 4.1207874000000011e-04 1.1999999999999973e-05
 16 538 361 0 ?535 530 544 539 0 0 1 30 539 362 0 538 545 531 0 +-4.999187199999
9988e-04 4.1207874000000002e-04 1.1999999999999973e-05 -1.0 2.4492935982947066e-
16 0.0 17 540 0 632 633 601 528 535 538 0 698 -17 541 0 526 547 535 542 546 544
 0 686 +18 542 363 0 550 536 557 543 ?1 29 543 364 0 542 558 537 -7.879187199999
9988e-04 4.1207874000000029e-04 8.1199999999999992e-04 16 544 365 0 ?541 538 548
 545 0 0 1 30 545 366 0 544 549 539 0 +-7.8791871999999988e-04 4.120787400000001
1e-04 -2.5227724062435476e-20 4.7224896859700616e-32 1.9281027351143374e-16 1.0
 17 546 0 623 605 624 536 541 544 0 601 -17 547 0 526 527 541 533 550 548 0 532
 +16 548 367 0 ?547 544 559 549 0 0 1 30 549 368 0 548 560 545 0 +-4.99918719999
99988e-04 4.120787400000002e-04 8.1199999999999992e-04 1.0 -2.4492935982947066e-
16 0.0 17 550 0 721 689 722 542 547 548 0 541 -14 551 369 553 1.0e-08 580 522 55
5 11 552 -0 0 580 522 9 50 552 370 0 551 581 523 0 +-7.9991872000000024e-04 -3.9
992125999999968e-04 1.2000000000000024e-05 1.0 -2.4492935982947066e-16 0.0 2.449
2935982947066e-16 1.0 -6.1232339957367659e-17 81 1 553 371 5 551 0 0 582 524 554
 83 3 554 0.7529411911964418 0.7529411911964418 0.7529411911964418 15 555 372 0
 556 551 0 17 556 0 555 564 576 557 561 559 0 569 +18 557 373 0 556 542 562 558
 ?1 29 558 374 0 557 563 543 -7.9991871999999998e-04 4.0007874000000028e-04 8.11
99999999999992e-04 16 559 375 0 ?556 548 567 560 0 0 1 30 560 376 0 559 568 549
 0 +-7.9991872000000024e-04 -3.9992125999999968e-04 8.1199999999999992e-04 2.449
2935982947066e-16 1.0 -6.1232339957367659e-17 17 561 0 672 677 673 562 556 559 0
 576 -18 562 377 0 561 557 565 563 ?1 29 563 378 0 562 566 558 -7.99918720000000
24e-04 -3.9992125999999982e-04 8.1199999999999992e-04 17 564 0 555 570 556 565 5
69 567 0 575 +18 565 379 0 605 562 571 566 ?1 29 566 380 0 565 572 563 -7.999187
1999999998e-04 4.000787400000001e-04 1.1999999999999977e-05 16 567 381 0 ?564 55
9 573 568 0 0 1 30 568 382 0 567 574 560 0 +-7.9991871999999998e-04 4.0007874000
00001e-04 1.1999999999999871e-05 -4.7224896859700616e-32 -1.9281027351143374e-16
 -1.0 17 569 0 623 624 605 557 564 567 0 627 -17 570 0 555 576 564 571 575 573 0
 589 +18 571 383 0 611 565 0 572 ?1 29 572 384 0 571 0 566 -7.9991872000000024e-
04 -3.9992125999999968e-04 1.2000000000000024e-05 16 573 385 0 ?570 567 577 574
 0 0 1 30 574 386 0 573 578 568 0 +-7.9991872000000024e-04 -3.9992125999999968e-
04 1.2000000000000024e-05 -2.4492935982947066e-16 -1.0 6.1232339957367659e-17 17
 575 0 584 585 589 565 570 573 0 588 -17 576 0 555 556 570 562 579 577 0 664 +16
 577 387 0 ?576 573 586 578 0 0 1 30 578 388 0 577 587 574 0 +-7.999187200000002
4e-04 -3.9992125999999968e-04 1.2000000000000024e-05 -1.722970120646346e-32 -7.0
34559359669843e-17 1.0 17 579 0 663 614 664 571 576 577 0 570 -14 580 389 582 1.
0e-08 593 551 584 11 581 +0 0 593 551 9 51 581 390 0 580 594 552 0 +-7.879187200
0000024e-04 -4.1192125999999973e-04 1.2000000000000026e-05 2.4492935982947066e-1
6 1.0 -6.1232339957367659e-17 1.1999999999999966e-05 -1.0 2.4492935982947066e-16
 0.0 81 1 582 391 5 580 0 0 595 553 583 83 3 583 0.7529411911964418 0.7529411911
964418 0.7529411911964418 15 584 392 0 585 580 0 17 585 0 584 503 575 499 588 58
6 0 598 -16 586 393 0 ?588 577 590 587 0 0 1 31 587 394 0 586 591 578 0 +-7.8791
872000000006e-04 4.000787400000001e-04 1.1999999999999977e-05 2.4492935982947066
e-16 1.0 -6.1232339957367659e-17 -1.0 2.4492935982947066e-16 0.0 1.1999999999999
966e-05 17 588 0 597 602 598 565 585 586 0 0 +17 589 0 584 575 503 571 592 590 0
 0 -16 590 395 0 ?592 586 599 591 0 0 1 31 591 396 0 590 600 587 0 +-7.879187200
0000024e-04 -3.9992125999999972e-04 1.2000000000000024e-05 -2.4492935982947066e-
16 -1.0 6.1232339957367659e-17 1.0 -2.4492935982947066e-16 0.0 1.199999999999996
6e-05 17 592 0 610 615 611 504 589 590 0 0 +14 593 397 595 1.0e-08 606 580 597 1
1 594 +0 0 606 580 9 53 594 398 0 593 607 581 0 +-7.8791872000000006e-04 4.00078
7400000001e-04 1.1999999999999977e-05 1.2e-05 1.4997597826618576e-32 6.123233995
7367659e-17 1.0 1.0 -2.4492935982947066e-16 0.0 81 1 595 399 5 593 0 0 608 582 5
96 83 3 596 0.7529411911964418 0.7529411911964418 0.7529411911964418 15 597 400
 0 598 593 0 17 598 0 597 588 602 499 601 599 0 0 -16 599 401 0 ?601 590 603 600
 0 0 1 31 600 402 0 599 604 591 0 +-7.8791872000000006e-04 4.000787400000001e-04
 1.1999999999999977e-05 1.0 -2.4492935982947066e-16 0.0 -2.4492935982947066e-16
 -1.0 6.1232339957367659e-17 1.200000000000002e-05 17 601 0 632 540 511 536 598
 599 0 0 +17 602 0 597 598 588 536 605 603 0 535 -16 603 403 0 ?605 599 612 604
 0 0 1 31 604 404 0 603 613 600 0 +-7.8791872000000006e-04 4.000787400000001e-04
 1.1999999999999977e-05 4.957480408086278e-32 2.0240449783308416e-16 1.0 2.44929
35982947066e-16 1.0 -2.0240449783308416e-16 1.200000000000002e-05 17 605 0 623 5
69 546 565 602 603 0 564 +14 606 405 608 1.0e-08 619 593 610 11 607 +0 0 619 593
 9 53 607 406 0 606 620 594 0 +-7.8791872000000024e-04 -3.9992125999999972e-04 1
.2000000000000024e-05 1.2e-05 1.4997597826618576e-32 6.1232339957367659e-17 1.0
 1.0 -2.4492935982947066e-16 0.0 81 1 608 407 5 606 0 0 621 595 609 83 3 609 0.7
529411911964418 0.7529411911964418 0.7529411911964418 15 610 408 0 611 606 0 17
 611 0 610 592 615 571 614 612 0 579 -16 612 409 0 ?614 603 616 613 0 0 1 31 613
 410 0 612 617 604 0 +-7.8791872000000024e-04 -3.9992125999999972e-04 1.20000000
00000024e-05 -1.9579608427625626e-32 -7.9939817918348836e-17 1.0 2.4492935982947
066e-16 1.0 7.9939817918348836e-17 1.200000000000002e-05 17 614 0 663 488 579 48
4 611 612 0 492 +17 615 0 610 611 592 484 618 616 0 0 -16 616 411 0 ?618 612 625
 617 0 0 1 31 617 412 0 616 626 613 0 +-7.8791872000000024e-04 -3.99921259999999
72e-04 1.2000000000000024e-05 1.0 -2.4492935982947066e-16 0.0 -2.449293598294706
6e-16 -1.0 6.1232339957367659e-17 1.200000000000002e-05 17 618 0 654 521 492 504
 615 616 0 592 +14 619 413 621 1.0e-08 628 606 623 11 620 +0 0 628 606 9 51 620
 414 0 619 629 607 0 +-7.8791872000000006e-04 4.000787400000001e-04 -2.291400078
029827e-20 4.7224896859700616e-32 1.9281027351143374e-16 1.0 1.200000000000002e-
05 -2.4492935982947066e-16 -1.0 1.9281027351143374e-16 81 1 621 415 5 619 0 0 63
0 608 622 83 3 622 0.7529411911964418 0.7529411911964418 0.7529411911964418 15 6
23 416 0 605 619 0 17 624 0 623 546 569 542 627 625 0 0 -16 625 417 0 ?627 616 6
34 626 0 0 1 31 626 418 0 625 635 617 0 +-7.8791872000000006e-04 4.0007874000000
028e-04 8.120000000000001e-04 1.4997597826618576e-32 6.1232339957367659e-17 1.0
 -2.4492935982947066e-16 -1.0 6.1232339957367659e-17 1.200000000000002e-05 17 62
7 0 685 676 686 557 624 625 0 673 +14 628 419 630 1.0e-08 637 619 632 11 629 +0
 0 637 619 9 51 629 420 0 628 638 620 0 +-4.9991871999999988e-04 4.0007874000000
001e-04 1.1999999999999977e-05 -1.0 2.4492935982947066e-16 0.0 1.200000000000002
e-05 -2.4492935982947066e-16 -1.0 6.1232339957367659e-17 81 1 630 421 5 628 0 0
 639 621 631 83 3 631 0.7529411911964418 0.7529411911964418 0.7529411911964418 1
5 632 422 0 601 628 0 17 633 0 632 511 540 507 636 634 0 649 -16 634 423 0 ?636
 625 643 635 0 0 1 31 635 424 0 634 644 626 0 +-5.119187199999999e-04 4.00078740
00000001e-04 1.1999999999999977e-05 1.0 -2.4492935982947066e-16 0.0 2.4492935982
947066e-16 1.0 -6.1232339957367659e-17 1.200000000000002e-05 17 636 0 694 695 64
9 528 633 634 0 0 +14 637 425 639 1.0e-08 650 628 641 11 638 +0 0 650 628 9 51 6
38 426 0 637 651 629 0 +-5.1191872000000016e-04 -4.1192125999999991e-04 1.199999
9999999993e-05 2.4492935982947066e-16 1.0 -6.1232339957367659e-17 1.199999999999
9966e-05 -1.0 2.4492935982947066e-16 0.0 81 1 639 427 5 637 0 0 652 630 640 83 3
 640 0.7529411911964418 0.7529411911964418 0.7529411911964418 15 641 428 0 642 6
37 0 17 642 0 641 517 49 513 645 643 0 658 -16 643 429 0 ?645 634 647 644 0 0 1
 31 644 430 0 643 648 635 0 +-5.1191872000000016e-04 -3.9992125999999982e-04 1.2
000000000000024e-05 -2.4492935982947066e-16 -1.0 6.1232339957367659e-17 1.0 -2.4
492935982947066e-16 0.0 1.1999999999999966e-05 17 645 0 703 704 658 16 642 643 0
 707 +17 646 0 641 49 517 45 649 647 0 0 -16 647 431 0 ?649 643 656 648 0 0 1 31
 648 432 0 647 657 644 0 +-5.119187199999999e-04 4.000787400000001e-04 1.1999999
999999942e-05 2.4492935982947066e-16 1.0 -4.5787413919803158e-15 1.1214681979624
381e-30 4.5787413919803158e-15 1.0 1.2e-05 17 649 0 694 636 695 507 646 647 0 0
 +14 650 433 652 1.0e-08 659 637 654 11 651 +0 0 659 637 9 51 651 434 0 650 660
 638 0 +-4.9991872000000006e-04 -3.9992125999999982e-04 1.2000000000000024e-05 -
1.0 2.4492935982947066e-16 0.0 1.200000000000002e-05 -2.4492935982947066e-16 -1.
0 6.1232339957367659e-17 81 1 652 435 5 650 0 0 661 639 653 83 3 653 0.752941191
1964418 0.7529411911964418 0.7529411911964418 15 654 436 0 618 650 0 17 655 0 65
4 492 521 475 658 656 0 704 -16 656 437 0 ?658 647 665 657 0 0 1 31 657 438 0 65
6 666 648 0 +-5.1191872000000016e-04 -3.9992125999999982e-04 1.2000000000000024e
-05 1.0 -2.4492935982947066e-16 0.0 2.4492935982947066e-16 1.0 -6.12323399573676
59e-17 1.200000000000002e-05 17 658 0 703 645 704 513 655 656 0 0 +14 659 439 66
1 1.0e-08 668 650 663 11 660 +0 0 668 650 9 51 660 440 0 659 669 651 0 +-7.87918
72000000024e-04 -3.9992125999999982e-04 8.2400000000000002e-04 1.722970120646346
e-32 7.034559359669843e-17 -1.0 1.200000000000002e-05 2.4492935982947066e-16 1.0
 7.034559359669843e-17 81 1 661 441 5 659 0 0 670 652 662 83 3 662 0.75294119119
64418 0.7529411911964418 0.7529411911964418 15 663 442 0 614 659 0 17 664 0 663
 579 488 562 667 665 0 680 -16 665 443 0 ?667 656 674 666 0 0 1 31 666 444 0 665
 675 657 0 +-7.8791872000000024e-04 -3.9992125999999982e-04 8.120000000000001e-0
4 1.4997597826618576e-32 6.1232339957367659e-17 1.0 -2.4492935982947066e-16 -1.0
 6.1232339957367659e-17 1.200000000000002e-05 17 667 0 712 713 680 478 664 665 0
 716 +14 668 445 670 1.0e-08 681 659 672 11 669 +0 0 681 659 9 51 669 446 0 668
 682 660 0 +-7.8791872000000006e-04 4.1207874000000029e-04 8.120000000000001e-04
 -2.4492935982947066e-16 -1.0 6.1232339957367659e-17 1.1999999999999966e-05 1.0
 -2.4492935982947066e-16 0.0 81 1 670 447 5 668 0 0 683 661 671 83 3 671 0.75294
11911964418 0.7529411911964418 0.7529411911964418 15 672 448 0 673 668 0 17 673
 0 672 561 459 557 676 674 0 0 -16 674 449 0 ?676 665 678 675 0 0 1 31 675 450 0
 674 679 666 0 +-7.8791872000000006e-04 4.0007874000000028e-04 8.120000000000001
e-04 2.4492935982947066e-16 1.0 -6.1232339957367659e-17 -1.0 2.4492935982947066e
-16 0.0 1.1999999999999966e-05 17 676 0 685 686 627 449 673 674 0 0 +17 677 0 67
2 459 561 455 680 678 0 713 -16 678 451 0 ?680 674 687 679 0 0 1 31 679 452 0 67
8 688 675 0 +-7.8791872000000024e-04 -3.9992125999999982e-04 8.120000000000001e-
04 -2.4492935982947066e-16 -1.0 6.1232339957367659e-17 1.0 -2.4492935982947066e-
16 0.0 1.1999999999999966e-05 17 680 0 712 667 713 562 677 678 0 0 +14 681 453 6
83 1.0e-08 690 668 685 11 682 +0 0 690 668 9 53 682 454 0 681 691 669 0 +-7.8791
872000000006e-04 4.0007874000000028e-04 8.120000000000001e-04 1.2e-05 1.49975978
26618576e-32 6.1232339957367659e-17 1.0 1.0 -2.4492935982947066e-16 0.0 81 1 683
 455 5 681 0 0 692 670 684 83 3 684 0.7529411911964418 0.7529411911964418 0.7529
411911964418 15 685 456 0 627 681 0 17 686 0 685 627 676 542 689 687 0 624 -16 6
87 457 0 ?689 678 696 688 0 0 1 31 688 458 0 687 697 679 0 +-7.8791872000000006e
-04 4.0007874000000028e-04 8.120000000000001e-04 1.0 -2.4492935982947066e-16 0.0
 -2.4492935982947066e-16 -1.0 6.1232339957367659e-17 1.200000000000002e-05 17 68
9 0 721 453 550 449 686 687 0 676 +14 690 459 692 1.0e-08 699 681 694 11 691 +0
 0 699 681 9 53 691 460 0 690 700 682 0 +-5.119187199999999e-04 4.00078740000000
01e-04 1.1999999999999977e-05 1.2e-05 1.4997597826618576e-32 6.1232339957367659e
-17 1.0 1.0 -2.4492935982947066e-16 0.0 81 1 692 461 5 690 0 0 701 683 693 83 3
 693 0.7529411911964418 0.7529411911964418 0.7529411911964418 15 694 462 0 649 6
90 0 17 695 0 694 649 636 45 698 696 0 646 -16 696 463 0 ?698 687 705 697 0 0 1
 31 697 464 0 696 706 688 0 +-5.119187199999999e-04 4.0007874000000001e-04 1.199
9999999999977e-05 2.8234431575143418e-15 2.024044978330835e-16 1.0 1.0 -2.449293
5982947084e-16 -2.8234431575143418e-15 1.1999999999999966e-05 17 698 0 730 532 7
0 528 695 696 0 636 +14 699 465 701 1.0e-08 708 690 703 11 700 +0 0 708 690 9 53
 700 466 0 699 709 691 0 +-5.1191872000000016e-04 -3.9992125999999982e-04 1.2000
000000000024e-05 1.2e-05 1.4997597826618576e-32 6.1232339957367659e-17 1.0 1.0 -
2.4492935982947066e-16 0.0 81 1 701 467 5 699 0 0 710 692 702 83 3 702 0.7529411
911964418 0.7529411911964418 0.7529411911964418 15 703 468 0 658 699 0 17 704 0
 703 658 645 475 707 705 0 0 -16 705 469 0 ?707 696 714 706 0 0 1 31 706 470 0 7
05 715 697 0 +-5.1191872000000016e-04 -3.9992125999999982e-04 1.1999999999999991
e-05 6.719645166572584e-31 2.7435033395959808e-15 1.0 2.4492935982947066e-16 1.0
 -2.7435033395959808e-15 1.200000000000002e-05 17 707 0 739 20 474 16 704 705 0
 0 +14 708 471 710 1.0e-08 717 699 712 11 709 +0 0 717 699 9 53 709 472 0 708 71
8 700 0 +-7.8791872000000024e-04 -3.9992125999999982e-04 8.120000000000001e-04 1
.2e-05 1.4997597826618576e-32 6.1232339957367659e-17 1.0 1.0 -2.4492935982947066
e-16 0.0 81 1 710 473 5 708 0 0 719 701 711 83 3 711 0.7529411911964418 0.752941
1911964418 0.7529411911964418 15 712 474 0 680 708 0 17 713 0 712 680 667 455 71
6 714 0 0 -16 714 475 0 ?716 705 723 715 0 0 1 31 715 476 0 714 724 706 0 +-7.87
91872000000024e-04 -3.9992125999999982e-04 8.120000000000001e-04 1.0 -2.44929359
82947066e-16 0.0 -2.4492935982947066e-16 -1.0 6.1232339957367659e-17 1.200000000
000002e-05 17 716 0 748 482 463 478 713 714 0 0 +14 717 477 719 1.0e-08 726 708
 721 11 718 +0 0 726 708 9 51 718 478 0 717 727 709 0 +-4.9991871999999988e-04 4
.0007874000000028e-04 8.120000000000001e-04 -1.0 2.4492935982947066e-16 0.0 1.20
0000000000002e-05 -2.4492935982947066e-16 -1.0 6.1232339957367659e-17 81 1 719 4
79 5 717 0 0 728 710 720 83 3 720 0.7529411911964418 0.7529411911964418 0.752941
1911964418 15 721 480 0 689 717 0 17 722 0 721 550 453 533 725 723 0 734 -16 723
 481 0 ?725 714 732 724 0 0 1 31 724 482 0 723 733 715 0 +-5.119187199999999e-04
 4.0007874000000028e-04 8.120000000000001e-04 1.0 -2.4492935982947066e-16 0.0 2.
4492935982947066e-16 1.0 -6.1232339957367659e-17 1.200000000000002e-05 17 725 0
 757 758 734 441 722 723 0 761 +14 726 483 728 1.0e-08 735 717 730 11 727 +0 0 7
35 717 9 51 727 484 0 726 736 718 0 +-5.119187199999999e-04 4.0007874000000028e-
04 8.2399999999999985e-04 4.7224896859700616e-32 1.9281027351143374e-16 1.0 1.20
0000000000002e-05 -2.4492935982947066e-16 -1.0 1.9281027351143374e-16 81 1 728 4
85 5 726 0 0 737 719 729 83 3 729 0.7529411911964418 0.7529411911964418 0.752941
1911964418 15 730 486 0 698 726 0 17 731 0 730 70 532 66 734 732 0 0 -16 732 487
 0 ?734 723 741 733 0 0 1 31 733 488 0 732 742 724 0 +-5.119187199999999e-04 4.0
007874000000028e-04 8.120000000000001e-04 1.4997597826618576e-32 6.1232339957367
659e-17 1.0 -2.4492935982947066e-16 -1.0 6.1232339957367659e-17 1.20000000000000
2e-05 17 734 0 757 725 758 533 731 732 0 0 +14 735 489 737 1.0e-08 744 726 739 1
1 736 +0 0 744 726 9 51 736 490 0 735 745 727 0 +-5.1191872000000016e-04 -3.9992
125999999986e-04 8.2400000000000002e-04 1.722970120646346e-32 7.034559359669843e
-17 -1.0 1.200000000000002e-05 2.4492935982947066e-16 1.0 7.034559359669843e-17
 81 1 737 491 5 735 0 0 746 728 738 83 3 738 0.7529411911964418 0.75294119119644
18 0.7529411911964418 15 739 492 0 707 735 0 17 740 0 739 474 20 470 743 741 0 7
52 -16 741 493 0 ?743 732 750 742 0 0 1 31 742 494 0 741 751 733 0 +-5.119187200
0000016e-04 -3.9992125999999986e-04 8.120000000000001e-04 1.4997597826618576e-32
 6.1232339957367659e-17 1.0 -2.4492935982947066e-16 -1.0 6.1232339957367659e-17
 1.200000000000002e-05 17 743 0 766 767 752 21 740 741 0 770 +14 744 495 746 1.0
e-08 753 735 748 11 745 +0 0 753 735 9 51 745 496 0 744 754 736 0 +-4.9991872000
000006e-04 -3.9992125999999986e-04 8.120000000000001e-04 -1.0 2.4492935982947066
e-16 0.0 1.200000000000002e-05 -2.4492935982947066e-16 -1.0 6.1232339957367659e-
17 81 1 746 497 5 744 0 0 755 737 747 83 3 747 0.7529411911964418 0.752941191196
4418 0.7529411911964418 15 748 498 0 716 744 0 17 749 0 748 463 482 446 752 750
 0 767 -16 750 499 0 ?752 741 759 751 0 0 1 31 751 500 0 750 760 742 0 +-5.11918
72000000016e-04 -3.9992125999999986e-04 8.120000000000001e-04 1.0 -2.44929359829
47066e-16 0.0 2.4492935982947066e-16 1.0 -6.1232339957367659e-17 1.2000000000000
02e-05 17 752 0 766 743 767 470 749 750 0 0 +14 753 501 755 1.0e-08 762 744 757
 11 754 +0 0 762 744 9 53 754 502 0 753 763 745 0 +-5.119187199999999e-04 4.0007
874000000028e-04 8.120000000000001e-04 1.2e-05 1.4997597826618576e-32 6.12323399
57367659e-17 1.0 1.0 -2.4492935982947066e-16 0.0 81 1 755 503 5 753 0 0 764 746
 756 83 3 756 0.7529411911964418 0.7529411911964418 0.7529411911964418 15 757 50
4 0 734 753 0 17 758 0 757 734 725 66 761 759 0 731 -16 759 505 0 ?761 750 768 7
60 0 0 1 31 760 506 0 759 769 751 0 +-5.119187199999999e-04 4.0007874000000028e-
04 8.120000000000001e-04 4.272579692193478e-15 -1.0 6.1232339957367659e-17 -1.0
 -4.272579692193478e-15 2.7661765003395492e-31 1.1999999999999966e-05 17 761 0 7
75 445 89 441 758 759 0 0 +14 762 507 764 1.0e-08 771 753 766 11 763 +0 0 771 75
3 9 53 763 508 0 762 772 754 0 +-5.1191872000000016e-04 -3.9992125999999986e-04
 8.120000000000001e-04 1.2e-05 1.4997597826618576e-32 6.1232339957367659e-17 1.0
 1.0 -2.4492935982947066e-16 0.0 81 1 764 509 5 762 0 0 773 755 765 83 3 765 0.7
529411911964418 0.7529411911964418 0.7529411911964418 15 766 510 0 752 762 0 17
 767 0 766 752 743 446 770 768 0 0 -16 768 511 0 ?770 759 0 769 0 0 1 31 769 512
 0 768 0 760 0 +-5.1191872000000016e-04 -3.9992125999999986e-04 8.12000000000000
1e-04 2.4492935982947066e-16 1.0 -6.1232339957367659e-17 1.0 -2.4492935982947066
e-16 0.0 1.1999999999999966e-05 17 770 0 775 89 445 21 767 768 0 0 +14 771 513 7
73 1.0e-08 0 762 775 11 772 +0 0 0 762 9 51 772 514 0 771 0 763 0 +-5.1191872000
000016e-04 -4.1192125999999991e-04 8.120000000000001e-04 -2.4492935982947066e-16
 -1.0 6.1232339957367659e-17 1.1999999999999966e-05 1.0 -2.4492935982947066e-16
 0.0 81 1 773 515 5 771 0 0 0 764 774 83 3 774 0.7529411911964418 0.752941191196
4418 0.7529411911964418 15 775 516 0 761 771 0 1 0 
