%TF.GenerationSoftware,Altium Limited,Altium Designer,22.7.1 (60)*%
G04 Layer_Physical_Order=2*
G04 Layer_Color=16711680*
%FSLAX45Y45*%
%MOMM*%
%TF.SameCoordinates,3BEA7849-7BF4-4C83-8F54-36563B6BDC8B*%
%TF.FilePolarity,Positive*%
%TF.FileFunction,Copper,L2,Bot,Signal*%
%TF.Part,Single*%
G01*
G75*
%TA.AperFunction,SMDPad,CuDef*%
%ADD10R,1.15000X1.35000*%
%TA.AperFunction,Conductor*%
%ADD11C,0.25400*%
%ADD12C,1.27000*%
%ADD13C,1.01600*%
%ADD14C,0.50800*%
%ADD15C,0.30480*%
%TA.AperFunction,ComponentPad*%
%ADD16C,1.20000*%
%ADD17R,1.20000X1.20000*%
%ADD18C,0.65000*%
G04:AMPARAMS|DCode=19|XSize=0.9mm|YSize=2.4mm|CornerRadius=0.45mm|HoleSize=0mm|Usage=FLASHONLY|Rotation=0.000|XOffset=0mm|YOffset=0mm|HoleType=Round|Shape=RoundedRectangle|*
%AMROUNDEDRECTD19*
21,1,0.90000,1.50000,0,0,0.0*
21,1,0.00000,2.40000,0,0,0.0*
1,1,0.90000,0.00000,-0.75000*
1,1,0.90000,0.00000,-0.75000*
1,1,0.90000,0.00000,0.75000*
1,1,0.90000,0.00000,0.75000*
%
%ADD19ROUNDEDRECTD19*%
G04:AMPARAMS|DCode=20|XSize=0.9mm|YSize=1.7mm|CornerRadius=0.45mm|HoleSize=0mm|Usage=FLASHONLY|Rotation=0.000|XOffset=0mm|YOffset=0mm|HoleType=Round|Shape=RoundedRectangle|*
%AMROUNDEDRECTD20*
21,1,0.90000,0.80000,0,0,0.0*
21,1,0.00000,1.70000,0,0,0.0*
1,1,0.90000,0.00000,-0.40000*
1,1,0.90000,0.00000,-0.40000*
1,1,0.90000,0.00000,0.40000*
1,1,0.90000,0.00000,0.40000*
%
%ADD20ROUNDEDRECTD20*%
%ADD21C,1.50000*%
%ADD22R,1.50000X1.50000*%
%ADD23R,1.50000X1.50000*%
%TA.AperFunction,ViaPad*%
%ADD24C,1.50000*%
%ADD25C,0.63500*%
%ADD26C,1.27000*%
%TA.AperFunction,SMDPad,CuDef*%
%ADD27R,3.80000X2.03000*%
%ADD28R,0.90000X1.00000*%
%ADD29R,0.85000X0.95000*%
%ADD30R,0.65000X1.05000*%
%ADD31R,2.03000X3.80000*%
%ADD32R,0.95000X0.85000*%
%ADD33R,0.95250X0.60960*%
%ADD34R,1.00000X0.90000*%
%ADD35R,0.98000X3.40000*%
%ADD36R,1.00000X0.60000*%
%ADD37R,0.25000X2.00000*%
%TA.AperFunction,Conductor*%
%ADD38C,0.58420*%
%ADD39C,0.63500*%
G36*
X9679860Y6755000D02*
Y1255000D01*
X9342430Y917570D01*
Y5000D01*
X9342430Y5000D01*
X342430D01*
Y793306D01*
X342430Y793306D01*
Y917570D01*
X5000Y1255000D01*
Y6755000D01*
X705000Y7455000D01*
X8979860D01*
X9679860Y6755000D01*
D02*
G37*
%LPC*%
G36*
X2844801Y7419935D02*
Y7323300D01*
X2903108D01*
Y7350600D01*
X2900688Y7368978D01*
X2893595Y7386104D01*
X2882310Y7400810D01*
X2867604Y7412094D01*
X2850479Y7419188D01*
X2844801Y7419935D01*
D02*
G37*
G36*
X2819401D02*
X2813722Y7419188D01*
X2796597Y7412094D01*
X2781891Y7400810D01*
X2770606Y7386104D01*
X2763513Y7368978D01*
X2761093Y7350600D01*
Y7323300D01*
X2819401D01*
Y7419935D01*
D02*
G37*
G36*
X1979800D02*
Y7323300D01*
X2038108D01*
Y7350600D01*
X2035688Y7368978D01*
X2028595Y7386104D01*
X2017310Y7400810D01*
X2002604Y7412094D01*
X1985479Y7419188D01*
X1979800Y7419935D01*
D02*
G37*
G36*
X1954400D02*
X1948722Y7419188D01*
X1931597Y7412094D01*
X1916891Y7400810D01*
X1905606Y7386104D01*
X1898513Y7368978D01*
X1896093Y7350600D01*
Y7323300D01*
X1954400D01*
Y7419935D01*
D02*
G37*
G36*
X2038108Y7297900D02*
X1979800D01*
Y7201265D01*
X1985479Y7202012D01*
X2002604Y7209106D01*
X2017310Y7220390D01*
X2028595Y7235097D01*
X2035688Y7252222D01*
X2038108Y7270600D01*
Y7297900D01*
D02*
G37*
G36*
X1954400D02*
X1896093D01*
Y7270600D01*
X1898513Y7252222D01*
X1905606Y7235097D01*
X1916891Y7220390D01*
X1931597Y7209106D01*
X1948722Y7202012D01*
X1954400Y7201265D01*
Y7297900D01*
D02*
G37*
G36*
X2903108D02*
X2761093D01*
Y7270600D01*
X2763513Y7252222D01*
X2770606Y7235097D01*
X2781891Y7220390D01*
X2785062Y7217956D01*
X2780751Y7205256D01*
X2687613D01*
X2675720Y7202891D01*
X2665638Y7196154D01*
X2526824Y7057340D01*
X2517605D01*
X2500058Y7050072D01*
X2492897Y7042911D01*
X2484601Y7037874D01*
X2476304Y7042911D01*
X2469143Y7050072D01*
X2451597Y7057340D01*
X2432604D01*
X2415058Y7050072D01*
X2407897Y7042911D01*
X2399600Y7037874D01*
X2391304Y7042911D01*
X2384143Y7050072D01*
X2366596Y7057340D01*
X2347604D01*
X2330058Y7050072D01*
X2322897Y7042911D01*
X2314600Y7037874D01*
X2306304Y7042911D01*
X2299143Y7050072D01*
X2281596Y7057340D01*
X2262604D01*
X2245058Y7050072D01*
X2237897Y7042911D01*
X2229600Y7037874D01*
X2221304Y7042911D01*
X2214143Y7050072D01*
X2196597Y7057340D01*
X2177604D01*
X2160058Y7050072D01*
X2142804Y7050779D01*
X2134898Y7058685D01*
X2114800Y7067010D01*
Y7009600D01*
X2089400D01*
Y7067010D01*
X2069303Y7058685D01*
X2053015Y7042398D01*
X2050808Y7037069D01*
X2038108Y7039595D01*
Y7047600D01*
X2035688Y7065978D01*
X2028595Y7083104D01*
X2017310Y7097810D01*
X2002604Y7109094D01*
X1985479Y7116188D01*
X1979800Y7116935D01*
Y6972600D01*
Y6828264D01*
X1985479Y6829012D01*
X2002604Y6836106D01*
X2017310Y6847390D01*
X2028595Y6862096D01*
X2031500Y6869111D01*
X2044200Y6866585D01*
Y6863083D01*
X2053015Y6841802D01*
X2069303Y6825515D01*
X2089400Y6817190D01*
Y6874600D01*
X2114800D01*
Y6817190D01*
X2134898Y6825515D01*
X2142804Y6833421D01*
X2160058Y6834128D01*
X2177604Y6826860D01*
X2196597D01*
X2214143Y6834128D01*
X2221304Y6841288D01*
X2229601Y6846326D01*
X2237897Y6841288D01*
X2245058Y6834128D01*
X2262604Y6826860D01*
X2281596D01*
X2299143Y6834128D01*
X2306304Y6841289D01*
X2314600Y6846326D01*
X2322897Y6841289D01*
X2326023Y6838162D01*
Y6602223D01*
X2039743Y6315942D01*
X2033006Y6305860D01*
X2030641Y6293968D01*
Y5853944D01*
X2026887Y5852938D01*
X2006309Y5841058D01*
X1989508Y5824257D01*
X1977628Y5803679D01*
X1971478Y5780728D01*
Y5756968D01*
X1977628Y5734017D01*
X1989508Y5713439D01*
X2006309Y5696638D01*
X2026887Y5684758D01*
X2049838Y5678608D01*
X2073598D01*
X2096549Y5684758D01*
X2117127Y5696638D01*
X2123421Y5702932D01*
X2136121Y5697672D01*
Y5633200D01*
X2108008Y5605088D01*
X1971478D01*
Y5472455D01*
X1959745Y5467595D01*
X1045897Y6381444D01*
X1036655Y6387619D01*
X1025753Y6389788D01*
X1025752Y6389787D01*
X344790D01*
X343090Y6396131D01*
X331210Y6416709D01*
X314409Y6433510D01*
X293831Y6445390D01*
X270880Y6451540D01*
X247120D01*
X224169Y6445390D01*
X203591Y6433510D01*
X186790Y6416709D01*
X174910Y6396131D01*
X168760Y6373180D01*
Y6349420D01*
X174910Y6326469D01*
X186790Y6305891D01*
X203591Y6289090D01*
X224169Y6277210D01*
X247120Y6271060D01*
X270880D01*
X293831Y6277210D01*
X314409Y6289090D01*
X331210Y6305891D01*
X343090Y6326469D01*
X344790Y6332813D01*
X1013953D01*
X1199245Y6147521D01*
X1194384Y6135787D01*
X344790D01*
X343090Y6142131D01*
X331210Y6162709D01*
X314409Y6179510D01*
X293831Y6191390D01*
X270880Y6197540D01*
X247120D01*
X224169Y6191390D01*
X203591Y6179510D01*
X186790Y6162709D01*
X174910Y6142131D01*
X168760Y6119180D01*
Y6095420D01*
X174910Y6072469D01*
X186790Y6051891D01*
X203591Y6035090D01*
X224169Y6023210D01*
X247120Y6017060D01*
X270880D01*
X293831Y6023210D01*
X314409Y6035090D01*
X331210Y6051891D01*
X343090Y6072469D01*
X344790Y6078813D01*
X1210479D01*
X1395771Y5893521D01*
X1390911Y5881787D01*
X344790D01*
X343090Y5888131D01*
X331210Y5908709D01*
X314409Y5925510D01*
X293831Y5937390D01*
X270880Y5943540D01*
X247120D01*
X224169Y5937390D01*
X203591Y5925510D01*
X186790Y5908709D01*
X174910Y5888131D01*
X168760Y5865180D01*
Y5841420D01*
X174910Y5818469D01*
X186790Y5797891D01*
X203591Y5781090D01*
X224169Y5769210D01*
X247120Y5763060D01*
X270880D01*
X293831Y5769210D01*
X314409Y5781090D01*
X331210Y5797891D01*
X343090Y5818469D01*
X344790Y5824813D01*
X1407006D01*
X1592298Y5639521D01*
X1587438Y5627787D01*
X344790D01*
X343090Y5634131D01*
X331210Y5654709D01*
X314409Y5671510D01*
X293831Y5683390D01*
X270880Y5689540D01*
X247120D01*
X224169Y5683390D01*
X203591Y5671510D01*
X186790Y5654709D01*
X174910Y5634131D01*
X168760Y5611180D01*
Y5587420D01*
X174910Y5564469D01*
X186790Y5543891D01*
X203591Y5527090D01*
X224169Y5515210D01*
X247120Y5509060D01*
X270880D01*
X293831Y5515210D01*
X314409Y5527090D01*
X331210Y5543891D01*
X343090Y5564469D01*
X344790Y5570813D01*
X1595337D01*
X1780629Y5385521D01*
X1775769Y5373787D01*
X344790D01*
X343090Y5380131D01*
X331210Y5400709D01*
X314409Y5417510D01*
X293831Y5429390D01*
X270880Y5435540D01*
X247120D01*
X224169Y5429390D01*
X203591Y5417510D01*
X186790Y5400709D01*
X174910Y5380131D01*
X168760Y5357180D01*
Y5333420D01*
X174910Y5310469D01*
X186790Y5289891D01*
X203591Y5273090D01*
X224169Y5261210D01*
X247120Y5255060D01*
X270880D01*
X293831Y5261210D01*
X314409Y5273090D01*
X331210Y5289891D01*
X343090Y5310469D01*
X344790Y5316813D01*
X1784821D01*
X1872430Y5229204D01*
X1881672Y5223029D01*
X1892573Y5220860D01*
X1892575Y5220861D01*
X2751081D01*
X2755941Y5209127D01*
X2666601Y5119787D01*
X344790D01*
X343090Y5126131D01*
X331210Y5146709D01*
X314409Y5163510D01*
X293831Y5175390D01*
X270880Y5181540D01*
X247120D01*
X224169Y5175390D01*
X203591Y5163510D01*
X186790Y5146709D01*
X174910Y5126131D01*
X168760Y5103180D01*
Y5079420D01*
X174910Y5056469D01*
X186790Y5035891D01*
X203591Y5019090D01*
X224169Y5007210D01*
X247120Y5001060D01*
X270880D01*
X293831Y5007210D01*
X314409Y5019090D01*
X331210Y5035891D01*
X343090Y5056469D01*
X344790Y5062813D01*
X2657549D01*
X2662409Y5051079D01*
X2477117Y4865787D01*
X344790D01*
X343090Y4872131D01*
X331210Y4892709D01*
X314409Y4909510D01*
X293831Y4921390D01*
X270880Y4927540D01*
X247120D01*
X224169Y4921390D01*
X203591Y4909510D01*
X186790Y4892709D01*
X174910Y4872131D01*
X168760Y4849180D01*
Y4825420D01*
X174910Y4802469D01*
X186790Y4781891D01*
X203591Y4765090D01*
X224169Y4753210D01*
X247120Y4747060D01*
X270880D01*
X293831Y4753210D01*
X314409Y4765090D01*
X331210Y4781891D01*
X343090Y4802469D01*
X344790Y4808813D01*
X2468065D01*
X2472925Y4797079D01*
X2287633Y4611787D01*
X344790D01*
X343090Y4618131D01*
X331210Y4638709D01*
X314409Y4655510D01*
X293831Y4667390D01*
X270880Y4673540D01*
X247120D01*
X224169Y4667390D01*
X203591Y4655510D01*
X186790Y4638709D01*
X174910Y4618131D01*
X168760Y4595180D01*
Y4571420D01*
X174910Y4548469D01*
X186790Y4527891D01*
X203591Y4511090D01*
X224169Y4499210D01*
X247120Y4493060D01*
X270880D01*
X293831Y4499210D01*
X314409Y4511090D01*
X331210Y4527891D01*
X343090Y4548469D01*
X344790Y4554813D01*
X2299432D01*
X2299434Y4554812D01*
X2310335Y4556981D01*
X2319577Y4563156D01*
X4179363Y6422942D01*
X4664666D01*
Y6327247D01*
X4663919Y6323489D01*
Y6079076D01*
X4660463Y6078388D01*
X4651221Y6072213D01*
X4651220Y6072212D01*
X4602674Y6023666D01*
X4596498Y6014424D01*
X4594330Y6003522D01*
X4594330Y6003521D01*
Y5964904D01*
X4581267Y5951841D01*
X4565196Y5956148D01*
X4544463D01*
X4524437Y5950782D01*
X4506482Y5940415D01*
X4491822Y5925755D01*
X4481456Y5907800D01*
X4476090Y5887774D01*
Y5867041D01*
X4481456Y5847015D01*
X4491822Y5829060D01*
X4506482Y5814400D01*
X4524437Y5804034D01*
X4544463Y5798668D01*
X4565196D01*
X4585222Y5804034D01*
X4603177Y5814400D01*
X4617837Y5829060D01*
X4628204Y5847015D01*
X4633570Y5867041D01*
Y5887774D01*
X4628204Y5907800D01*
X4624396Y5914395D01*
X4642960Y5932960D01*
X4642961Y5932960D01*
X4649136Y5942202D01*
X4651305Y5953104D01*
X4651305Y5953105D01*
Y5978137D01*
X4651419Y5978213D01*
X4664119Y5971424D01*
Y5884495D01*
X4663919Y5883489D01*
X4664666Y5879730D01*
Y5768249D01*
X4713919D01*
Y3414776D01*
X1844382Y545240D01*
X1704190D01*
Y364760D01*
X1884670D01*
Y504952D01*
X4751219Y3371501D01*
X4763919Y3366241D01*
Y3210776D01*
X2088949Y535806D01*
X2083261Y539090D01*
X2060310Y545240D01*
X2036550D01*
X2013599Y539090D01*
X1993021Y527210D01*
X1976220Y510408D01*
X1964340Y489831D01*
X1958190Y466880D01*
Y443120D01*
X1964340Y420169D01*
X1976220Y399591D01*
X1993021Y382790D01*
X2013599Y370910D01*
X2036550Y364760D01*
X2060310D01*
X2083261Y370910D01*
X2103839Y382790D01*
X2120640Y399591D01*
X2132520Y420169D01*
X2138670Y443120D01*
Y466880D01*
X2132520Y489831D01*
X2129237Y495519D01*
X2262209Y628492D01*
X2273943Y623631D01*
Y540790D01*
X2267599Y539090D01*
X2247021Y527210D01*
X2230220Y510408D01*
X2218340Y489831D01*
X2212190Y466880D01*
Y443120D01*
X2218340Y420169D01*
X2230220Y399591D01*
X2247021Y382790D01*
X2267599Y370910D01*
X2290550Y364760D01*
X2314310D01*
X2337261Y370910D01*
X2357839Y382790D01*
X2374640Y399591D01*
X2386520Y420169D01*
X2392670Y443120D01*
Y466880D01*
X2386520Y489831D01*
X2374640Y510408D01*
X2357839Y527210D01*
X2337261Y539090D01*
X2330917Y540790D01*
Y639726D01*
X2516209Y825018D01*
X2527943Y820158D01*
Y540790D01*
X2521599Y539090D01*
X2501021Y527210D01*
X2484220Y510408D01*
X2472340Y489831D01*
X2466190Y466880D01*
Y443120D01*
X2472340Y420169D01*
X2484220Y399591D01*
X2501021Y382790D01*
X2521599Y370910D01*
X2544550Y364760D01*
X2568310D01*
X2591261Y370910D01*
X2611839Y382790D01*
X2628640Y399591D01*
X2640520Y420169D01*
X2646670Y443120D01*
Y466880D01*
X2640520Y489831D01*
X2628640Y510408D01*
X2611839Y527210D01*
X2591261Y539090D01*
X2584917Y540790D01*
Y836253D01*
X4972569Y3223905D01*
X4972570Y3223905D01*
X4978745Y3233147D01*
X4980914Y3244049D01*
X4980914Y3244050D01*
Y5672733D01*
X4978745Y5683635D01*
X4972570Y5692877D01*
X4972569Y5692877D01*
X4970894Y5694553D01*
Y5768249D01*
X5013919D01*
Y5694558D01*
X5012242Y5692882D01*
X5006067Y5683640D01*
X5003899Y5672738D01*
X5003899Y5672737D01*
Y3172124D01*
X2790286Y958512D01*
X2784111Y949270D01*
X2781942Y938368D01*
X2781943Y938367D01*
Y540790D01*
X2775599Y539090D01*
X2755021Y527210D01*
X2738220Y510408D01*
X2726340Y489831D01*
X2720190Y466880D01*
Y443120D01*
X2726340Y420169D01*
X2738220Y399591D01*
X2755021Y382790D01*
X2775599Y370910D01*
X2798550Y364760D01*
X2822310D01*
X2845261Y370910D01*
X2865839Y382790D01*
X2882640Y399591D01*
X2894520Y420169D01*
X2900670Y443120D01*
Y466880D01*
X2894520Y489831D01*
X2882640Y510408D01*
X2865839Y527210D01*
X2845261Y539090D01*
X2838917Y540790D01*
Y926568D01*
X3024209Y1111860D01*
X3035943Y1107000D01*
Y540790D01*
X3029599Y539090D01*
X3009021Y527210D01*
X2992220Y510408D01*
X2980340Y489831D01*
X2974190Y466880D01*
Y443120D01*
X2980340Y420169D01*
X2992220Y399591D01*
X3009021Y382790D01*
X3029599Y370910D01*
X3052550Y364760D01*
X3076310D01*
X3099261Y370910D01*
X3119839Y382790D01*
X3136640Y399591D01*
X3148520Y420169D01*
X3154670Y443120D01*
Y466880D01*
X3148520Y489831D01*
X3136640Y510408D01*
X3119839Y527210D01*
X3099261Y539090D01*
X3092917Y540790D01*
Y1123094D01*
X3278209Y1308386D01*
X3289943Y1303526D01*
Y540790D01*
X3283599Y539090D01*
X3263021Y527210D01*
X3246220Y510408D01*
X3234340Y489831D01*
X3228190Y466880D01*
Y443120D01*
X3234340Y420169D01*
X3246220Y399591D01*
X3263021Y382790D01*
X3283599Y370910D01*
X3306550Y364760D01*
X3330310D01*
X3353261Y370910D01*
X3373839Y382790D01*
X3390640Y399591D01*
X3402520Y420169D01*
X3408670Y443120D01*
Y466880D01*
X3402520Y489831D01*
X3390640Y510408D01*
X3373839Y527210D01*
X3353261Y539090D01*
X3346917Y540790D01*
Y1319621D01*
X3532209Y1504913D01*
X3543943Y1500052D01*
Y540790D01*
X3537599Y539090D01*
X3517021Y527210D01*
X3500220Y510408D01*
X3488340Y489831D01*
X3482190Y466880D01*
Y443120D01*
X3488340Y420169D01*
X3500220Y399591D01*
X3517021Y382790D01*
X3537599Y370910D01*
X3560550Y364760D01*
X3584310D01*
X3607261Y370910D01*
X3627839Y382790D01*
X3644640Y399591D01*
X3656520Y420169D01*
X3662670Y443120D01*
Y466880D01*
X3656520Y489831D01*
X3644640Y510408D01*
X3627839Y527210D01*
X3607261Y539090D01*
X3600917Y540790D01*
Y1516147D01*
X3786209Y1701439D01*
X3797943Y1696579D01*
Y540790D01*
X3791599Y539090D01*
X3771021Y527210D01*
X3754220Y510408D01*
X3742340Y489831D01*
X3736190Y466880D01*
Y443120D01*
X3742340Y420169D01*
X3754220Y399591D01*
X3771021Y382790D01*
X3791599Y370910D01*
X3814550Y364760D01*
X3838310D01*
X3861261Y370910D01*
X3881839Y382790D01*
X3898640Y399591D01*
X3910520Y420169D01*
X3916670Y443120D01*
Y466880D01*
X3910520Y489831D01*
X3898640Y510408D01*
X3881839Y527210D01*
X3861261Y539090D01*
X3854917Y540790D01*
Y1712673D01*
X4040209Y1897965D01*
X4051943Y1893105D01*
Y540790D01*
X4045599Y539090D01*
X4025021Y527210D01*
X4008220Y510408D01*
X3996340Y489831D01*
X3990190Y466880D01*
Y443120D01*
X3996340Y420169D01*
X4008220Y399591D01*
X4025021Y382790D01*
X4045599Y370910D01*
X4068550Y364760D01*
X4092310D01*
X4115261Y370910D01*
X4135839Y382790D01*
X4152640Y399591D01*
X4164520Y420169D01*
X4170670Y443120D01*
Y466880D01*
X4164520Y489831D01*
X4152640Y510408D01*
X4135839Y527210D01*
X4115261Y539090D01*
X4108917Y540790D01*
Y1909200D01*
X4294209Y2094492D01*
X4305943Y2089632D01*
Y540790D01*
X4299599Y539090D01*
X4279021Y527210D01*
X4262220Y510408D01*
X4250340Y489831D01*
X4244190Y466880D01*
Y443120D01*
X4250340Y420169D01*
X4262220Y399591D01*
X4279021Y382790D01*
X4299599Y370910D01*
X4322550Y364760D01*
X4346310D01*
X4369261Y370910D01*
X4389839Y382790D01*
X4406640Y399591D01*
X4418520Y420169D01*
X4424670Y443120D01*
Y466880D01*
X4418520Y489831D01*
X4406640Y510408D01*
X4389839Y527210D01*
X4369261Y539090D01*
X4362917Y540790D01*
Y2105726D01*
X5052933Y2795742D01*
X5064666Y2790882D01*
Y2727248D01*
X5063919Y2723489D01*
Y2325257D01*
X5028713D01*
X5028203Y2327162D01*
X5017837Y2345117D01*
X5003176Y2359777D01*
X4985221Y2370144D01*
X4965195Y2375510D01*
X4944463D01*
X4924436Y2370144D01*
X4906481Y2359777D01*
X4891821Y2345117D01*
X4881455Y2327162D01*
X4876089Y2307136D01*
Y2286403D01*
X4881455Y2266377D01*
X4891821Y2248422D01*
X4906481Y2233762D01*
X4924436Y2223396D01*
X4944463Y2218030D01*
X4965195D01*
X4985221Y2223396D01*
X5003176Y2233762D01*
X5017837Y2248422D01*
X5028203Y2266377D01*
X5028713Y2268282D01*
X5064666D01*
Y2168249D01*
X5204506D01*
Y2158089D01*
X5229706D01*
Y2283489D01*
Y2408889D01*
X5204506D01*
Y2398729D01*
X5120893D01*
Y2608249D01*
X5204506D01*
Y2598089D01*
X5229706D01*
Y2723489D01*
Y2848889D01*
X5204506D01*
Y2838729D01*
X5112514D01*
X5107654Y2850463D01*
X5531930Y3274739D01*
X5538105Y3283981D01*
X5540274Y3294883D01*
X5540274Y3294884D01*
Y4596329D01*
X5552007Y4601189D01*
X6414359Y3738837D01*
Y2677333D01*
X6401659Y2668847D01*
X6395907Y2671229D01*
X6378905D01*
X6363196Y2664722D01*
X6351173Y2652700D01*
X6344666Y2636991D01*
Y2619988D01*
X6351173Y2604279D01*
X6363196Y2592256D01*
X6378905Y2585749D01*
X6395907D01*
X6401659Y2588132D01*
X6414359Y2579646D01*
Y2209493D01*
X6284962Y2080096D01*
X6185039D01*
X6174137Y2077928D01*
X6164895Y2071753D01*
X6164895Y2071752D01*
X4628949Y535806D01*
X4623261Y539090D01*
X4600310Y545240D01*
X4576550D01*
X4553599Y539090D01*
X4533021Y527210D01*
X4516220Y510408D01*
X4504340Y489831D01*
X4498190Y466880D01*
Y443120D01*
X4504340Y420169D01*
X4516220Y399591D01*
X4533021Y382790D01*
X4553599Y370910D01*
X4576550Y364760D01*
X4600310D01*
X4623261Y370910D01*
X4643839Y382790D01*
X4660640Y399591D01*
X4672520Y420169D01*
X4678670Y443120D01*
Y466880D01*
X4672520Y489831D01*
X4669237Y495519D01*
X6196839Y2023121D01*
X6296760D01*
X6296762Y2023121D01*
X6307663Y2025290D01*
X6316905Y2031465D01*
X6443265Y2157825D01*
X6454999Y2152965D01*
Y2107856D01*
X4882949Y535806D01*
X4877261Y539090D01*
X4854310Y545240D01*
X4830550D01*
X4807599Y539090D01*
X4787021Y527210D01*
X4770220Y510408D01*
X4758340Y489831D01*
X4752190Y466880D01*
Y443120D01*
X4758340Y420169D01*
X4770220Y399591D01*
X4787021Y382790D01*
X4807599Y370910D01*
X4830550Y364760D01*
X4854310D01*
X4877261Y370910D01*
X4897839Y382790D01*
X4914640Y399591D01*
X4926520Y420169D01*
X4932670Y443120D01*
Y466880D01*
X4926520Y489831D01*
X4923237Y495519D01*
X6483905Y2056188D01*
X6495639Y2051328D01*
Y1894496D01*
X5136949Y535806D01*
X5131261Y539090D01*
X5108310Y545240D01*
X5084550D01*
X5061599Y539090D01*
X5041021Y527210D01*
X5024220Y510408D01*
X5012340Y489831D01*
X5006190Y466880D01*
Y443120D01*
X5012340Y420169D01*
X5024220Y399591D01*
X5041021Y382790D01*
X5061599Y370910D01*
X5084550Y364760D01*
X5108310D01*
X5131261Y370910D01*
X5151839Y382790D01*
X5168640Y399591D01*
X5180520Y420169D01*
X5186670Y443120D01*
Y466880D01*
X5180520Y489831D01*
X5177237Y495519D01*
X5310209Y628492D01*
X5321943Y623631D01*
Y540790D01*
X5315599Y539090D01*
X5295021Y527210D01*
X5278220Y510408D01*
X5266340Y489831D01*
X5260190Y466880D01*
Y443120D01*
X5266340Y420169D01*
X5278220Y399591D01*
X5295021Y382790D01*
X5315599Y370910D01*
X5338550Y364760D01*
X5362310D01*
X5385261Y370910D01*
X5405839Y382790D01*
X5422640Y399591D01*
X5434520Y420169D01*
X5440670Y443120D01*
Y466880D01*
X5434520Y489831D01*
X5422640Y510408D01*
X5405839Y527210D01*
X5385261Y539090D01*
X5378917Y540790D01*
Y639726D01*
X6565185Y1825995D01*
X6576919Y1821134D01*
Y1467776D01*
X5644949Y535806D01*
X5639261Y539090D01*
X5616310Y545240D01*
X5592550D01*
X5569599Y539090D01*
X5549021Y527210D01*
X5532220Y510408D01*
X5520340Y489831D01*
X5514190Y466880D01*
Y443120D01*
X5520340Y420169D01*
X5532220Y399591D01*
X5549021Y382790D01*
X5569599Y370910D01*
X5592550Y364760D01*
X5616310D01*
X5639261Y370910D01*
X5659839Y382790D01*
X5676640Y399591D01*
X5688520Y420169D01*
X5694670Y443120D01*
Y466880D01*
X5688520Y489831D01*
X5685237Y495519D01*
X6625550Y1435832D01*
X6631725Y1445074D01*
X6633894Y1455976D01*
X6633894Y1455977D01*
Y3817970D01*
X6633894Y3817972D01*
X6631725Y3828873D01*
X6625550Y3838115D01*
X6625549Y3838116D01*
X5880914Y4582752D01*
Y5673805D01*
X5878745Y5684706D01*
X5872570Y5693948D01*
X5872569Y5693949D01*
X5870894Y5695625D01*
Y5768249D01*
X5920146D01*
Y5847361D01*
X5929539Y5850580D01*
X5932846Y5850824D01*
X5948260Y5835410D01*
X5967933Y5827261D01*
Y5883859D01*
Y5940457D01*
X5948260Y5932309D01*
X5932846Y5916894D01*
X5929539Y5917139D01*
X5920146Y5920357D01*
Y5998729D01*
X5780306D01*
Y6008889D01*
X5755106D01*
Y5883489D01*
X5729706D01*
Y6008889D01*
X5704506D01*
Y5998729D01*
X5480306D01*
Y6008889D01*
X5455106D01*
Y5883489D01*
X5429706D01*
Y6008889D01*
X5404506D01*
Y5998729D01*
X5180306D01*
Y6008889D01*
X5155106D01*
Y5883489D01*
X5129706D01*
Y6008889D01*
X5104506D01*
Y5998729D01*
X4880306D01*
Y6008889D01*
X4855106D01*
Y5883489D01*
X4829706D01*
Y6008889D01*
X4804506D01*
Y5998729D01*
X4746124D01*
X4735701Y6011429D01*
X4735773Y6011790D01*
Y6037190D01*
X4733604Y6048092D01*
X4727429Y6057334D01*
X4727428Y6057334D01*
X4720894Y6063869D01*
Y6098256D01*
X4733594Y6103517D01*
X4799201Y6037909D01*
X4799202Y6037909D01*
X4808444Y6031733D01*
X4819345Y6029565D01*
X5936575D01*
X6661822Y5304319D01*
Y1298679D01*
X5898949Y535806D01*
X5893261Y539090D01*
X5870310Y545240D01*
X5846550D01*
X5823599Y539090D01*
X5803021Y527210D01*
X5786220Y510408D01*
X5774340Y489831D01*
X5768190Y466880D01*
Y443120D01*
X5774340Y420169D01*
X5786220Y399591D01*
X5803021Y382790D01*
X5823599Y370910D01*
X5846550Y364760D01*
X5870310D01*
X5893261Y370910D01*
X5913839Y382790D01*
X5930640Y399591D01*
X5942520Y420169D01*
X5948670Y443120D01*
Y466880D01*
X5942520Y489831D01*
X5939237Y495519D01*
X6072209Y628492D01*
X6083943Y623631D01*
Y540790D01*
X6077599Y539090D01*
X6057021Y527210D01*
X6040220Y510408D01*
X6028340Y489831D01*
X6022190Y466880D01*
Y443120D01*
X6028340Y420169D01*
X6040220Y399591D01*
X6057021Y382790D01*
X6077599Y370910D01*
X6100550Y364760D01*
X6124310D01*
X6147261Y370910D01*
X6167839Y382790D01*
X6184640Y399591D01*
X6196520Y420169D01*
X6202670Y443120D01*
Y466880D01*
X6196520Y489831D01*
X6184640Y510408D01*
X6167839Y527210D01*
X6147261Y539090D01*
X6140917Y540790D01*
Y639726D01*
X6326209Y825018D01*
X6337943Y820158D01*
Y540790D01*
X6331599Y539090D01*
X6311021Y527210D01*
X6294220Y510408D01*
X6282340Y489831D01*
X6276190Y466880D01*
Y443120D01*
X6282340Y420169D01*
X6294220Y399591D01*
X6311021Y382790D01*
X6331599Y370910D01*
X6354550Y364760D01*
X6378310D01*
X6401261Y370910D01*
X6421839Y382790D01*
X6438640Y399591D01*
X6450520Y420169D01*
X6456670Y443120D01*
Y466880D01*
X6450520Y489831D01*
X6438640Y510408D01*
X6421839Y527210D01*
X6401261Y539090D01*
X6394917Y540790D01*
Y836253D01*
X6791732Y1233068D01*
X6791733Y1233068D01*
X6797908Y1242310D01*
X6800077Y1253212D01*
Y5738063D01*
X6797908Y5748965D01*
X6791733Y5758207D01*
X6791732Y5758207D01*
X6059685Y6490255D01*
X6050443Y6496430D01*
X6039541Y6498599D01*
X6039540Y6498599D01*
X5887016D01*
X5887015Y6498599D01*
X5876113Y6496430D01*
X5866871Y6490255D01*
X5866871Y6490254D01*
X5833594Y6456977D01*
X5826492Y6458378D01*
X5820894Y6461709D01*
Y6528632D01*
X5833373Y6541111D01*
X5840527Y6558382D01*
Y6577076D01*
X5833373Y6594346D01*
X5820154Y6607565D01*
X5802884Y6614719D01*
X5784190D01*
X5766919Y6607565D01*
X5753701Y6594346D01*
X5746547Y6577076D01*
Y6558382D01*
X5753701Y6541111D01*
X5763919Y6530893D01*
Y6448889D01*
X5755106D01*
Y6323489D01*
Y6198089D01*
X5780306D01*
Y6208249D01*
X5920146D01*
Y6438729D01*
X5931647Y6441624D01*
X6027741D01*
X6743102Y5726263D01*
Y5391174D01*
X6731369Y5386314D01*
X5969398Y6148285D01*
X5960155Y6154460D01*
X5949254Y6156629D01*
X5949253Y6156629D01*
X4851379D01*
X4822618Y6185389D01*
X4824775Y6198089D01*
X4829706D01*
Y6323489D01*
X4855106D01*
Y6198089D01*
X4880306D01*
Y6208249D01*
X5104506D01*
Y6198089D01*
X5129706D01*
Y6323489D01*
X5155106D01*
Y6198089D01*
X5180306D01*
Y6208249D01*
X5404506D01*
Y6198089D01*
X5429706D01*
Y6323489D01*
X5455106D01*
Y6198089D01*
X5480306D01*
Y6208249D01*
X5704506D01*
Y6198089D01*
X5729706D01*
Y6323489D01*
Y6448889D01*
X5720894D01*
Y6601776D01*
X5762448Y6643331D01*
X5762449Y6643331D01*
X5768624Y6652573D01*
X5770793Y6663475D01*
Y6811524D01*
X5782141Y6822873D01*
X5789295Y6840144D01*
Y6858838D01*
X5782141Y6876108D01*
X5768923Y6889327D01*
X5751652Y6896481D01*
X5732958D01*
X5715688Y6889327D01*
X5702469Y6876108D01*
X5695315Y6858838D01*
Y6840144D01*
X5699702Y6829554D01*
X5689982Y6819833D01*
X5686755Y6821170D01*
X5668061D01*
X5650790Y6814016D01*
X5637572Y6800798D01*
X5630418Y6783527D01*
Y6764833D01*
X5637572Y6747562D01*
X5648921Y6736214D01*
Y6700488D01*
X5622263Y6673830D01*
X5616087Y6664588D01*
X5613919Y6653687D01*
X5613919Y6653685D01*
Y6438729D01*
X5570894D01*
Y6518553D01*
X5576321Y6526675D01*
X5578489Y6537577D01*
Y6673323D01*
X5581760Y6676595D01*
X5588914Y6693865D01*
Y6712559D01*
X5581760Y6729830D01*
X5568542Y6743048D01*
X5551271Y6750202D01*
X5532577D01*
X5515307Y6743048D01*
X5502088Y6729830D01*
X5494934Y6712559D01*
Y6693865D01*
X5495734Y6691935D01*
X5487248Y6679235D01*
X5480965D01*
X5463694Y6672081D01*
X5450476Y6658862D01*
X5443322Y6641592D01*
Y6622898D01*
X5450476Y6605627D01*
X5461824Y6594278D01*
Y6553064D01*
X5449124Y6547803D01*
X5445265Y6551662D01*
X5425592Y6559811D01*
Y6503213D01*
X5400192D01*
Y6559811D01*
X5380520Y6551662D01*
X5364443Y6535586D01*
X5359640Y6523990D01*
X5344659Y6521010D01*
X5109617Y6756053D01*
X5100375Y6762228D01*
X5089473Y6764397D01*
X5089472Y6764397D01*
X4028826D01*
X4017924Y6762228D01*
X4008682Y6756053D01*
X4008681Y6756052D01*
X2693024Y5440395D01*
X2151958D01*
Y5561138D01*
X2189173Y5598353D01*
X2195910Y5608435D01*
X2198275Y5620328D01*
Y6276898D01*
X2464075Y6542698D01*
X2470812Y6552780D01*
X2473178Y6564673D01*
Y6838162D01*
X2476304Y6841289D01*
X2484601Y6846326D01*
X2492897Y6841289D01*
X2500058Y6834128D01*
X2517605Y6826860D01*
X2536597D01*
X2554143Y6834128D01*
X2561304Y6841288D01*
X2569601Y6846326D01*
X2577897Y6841288D01*
X2585058Y6834128D01*
X2602604Y6826860D01*
X2621596D01*
X2639143Y6834128D01*
X2656231Y6833587D01*
X2664303Y6825515D01*
X2684401Y6817190D01*
Y6874600D01*
X2709801D01*
Y6817190D01*
X2729898Y6825515D01*
X2746186Y6841802D01*
X2755001Y6863083D01*
Y6866585D01*
X2767701Y6869111D01*
X2770606Y6862096D01*
X2781891Y6847390D01*
X2796597Y6836106D01*
X2813722Y6829012D01*
X2819401Y6828264D01*
Y6972600D01*
Y7116935D01*
X2813722Y7116188D01*
X2796597Y7109094D01*
X2781891Y7097810D01*
X2770606Y7083104D01*
X2763513Y7065978D01*
X2761093Y7047600D01*
Y7039595D01*
X2748393Y7037069D01*
X2746186Y7042398D01*
X2729898Y7058685D01*
X2709801Y7067010D01*
Y7009600D01*
X2684401D01*
Y7067010D01*
X2664303Y7058685D01*
X2656397Y7050779D01*
X2639143Y7050072D01*
X2629436Y7054093D01*
X2626456Y7069073D01*
X2700485Y7143102D01*
X3125907D01*
X3134666Y7134343D01*
X3151937Y7127189D01*
X3170631D01*
X3187902Y7134343D01*
X3201120Y7147562D01*
X3208274Y7164832D01*
Y7183526D01*
X3201120Y7200797D01*
X3187902Y7214015D01*
X3170631Y7221169D01*
X3151937D01*
X3134666Y7214015D01*
X3125907Y7205256D01*
X2883450D01*
X2879139Y7217956D01*
X2882310Y7220390D01*
X2893595Y7235097D01*
X2900688Y7252222D01*
X2903108Y7270600D01*
Y7297900D01*
D02*
G37*
G36*
X2844801Y7116935D02*
Y6985300D01*
X2903108D01*
Y7047600D01*
X2900688Y7065978D01*
X2893595Y7083104D01*
X2882310Y7097810D01*
X2867604Y7109094D01*
X2850479Y7116188D01*
X2844801Y7116935D01*
D02*
G37*
G36*
X1954400D02*
X1948722Y7116188D01*
X1931597Y7109094D01*
X1916891Y7097810D01*
X1905606Y7083104D01*
X1898513Y7065978D01*
X1896093Y7047600D01*
Y6985300D01*
X1954400D01*
Y7116935D01*
D02*
G37*
G36*
X2903108Y6959900D02*
X2844801D01*
Y6828264D01*
X2850479Y6829012D01*
X2867604Y6836106D01*
X2882310Y6847390D01*
X2893595Y6862096D01*
X2900688Y6879222D01*
X2903108Y6897600D01*
Y6959900D01*
D02*
G37*
G36*
X1954400D02*
X1896093D01*
Y6897600D01*
X1898513Y6879222D01*
X1905606Y6862096D01*
X1916891Y6847390D01*
X1931597Y6836106D01*
X1948722Y6829012D01*
X1954400Y6828264D01*
Y6959900D01*
D02*
G37*
G36*
X8279706Y6448889D02*
X8254506D01*
Y6438729D01*
X8030306D01*
Y6448889D01*
X8005106D01*
Y6323489D01*
Y6198089D01*
X8030306D01*
Y6208249D01*
X8254506D01*
Y6198089D01*
X8279706D01*
Y6323489D01*
Y6448889D01*
D02*
G37*
G36*
X7979706D02*
X7954506D01*
Y6438729D01*
X7730306D01*
Y6448889D01*
X7705106D01*
Y6323489D01*
Y6198089D01*
X7730306D01*
Y6208249D01*
X7954506D01*
Y6198089D01*
X7979706D01*
Y6323489D01*
Y6448889D01*
D02*
G37*
G36*
X7679706D02*
X7654506D01*
Y6438729D01*
X7430306D01*
Y6448889D01*
X7405106D01*
Y6323489D01*
Y6198089D01*
X7430306D01*
Y6208249D01*
X7654506D01*
Y6198089D01*
X7679706D01*
Y6323489D01*
Y6448889D01*
D02*
G37*
G36*
X9437740Y6451540D02*
X9413980D01*
X9391029Y6445390D01*
X9370451Y6433510D01*
X9353650Y6416709D01*
X9341770Y6396131D01*
X9335620Y6373180D01*
Y6349420D01*
X9341770Y6326469D01*
X9353650Y6305891D01*
X9370451Y6289090D01*
X9391029Y6277210D01*
X9413980Y6271060D01*
X9437740D01*
X9460691Y6277210D01*
X9481269Y6289090D01*
X9498070Y6305891D01*
X9509950Y6326469D01*
X9516100Y6349420D01*
Y6373180D01*
X9509950Y6396131D01*
X9498070Y6416709D01*
X9481269Y6433510D01*
X9460691Y6445390D01*
X9437740Y6451540D01*
D02*
G37*
G36*
X8330306Y6448889D02*
X8305106D01*
Y6323489D01*
Y6198089D01*
X8330306D01*
Y6208249D01*
X8470146D01*
Y6438729D01*
X8330306D01*
Y6448889D01*
D02*
G37*
G36*
X7379706D02*
X7354506D01*
Y6438729D01*
X7214666D01*
Y6327247D01*
X7213919Y6323489D01*
Y5899443D01*
X7112580D01*
X7112070Y5901349D01*
X7101703Y5919303D01*
X7087043Y5933964D01*
X7069088Y5944330D01*
X7049062Y5949696D01*
X7028329D01*
X7008303Y5944330D01*
X6990348Y5933964D01*
X6975688Y5919303D01*
X6965322Y5901349D01*
X6959956Y5881322D01*
Y5860590D01*
X6965322Y5840563D01*
X6975688Y5822609D01*
X6990348Y5807948D01*
X7008303Y5797582D01*
X7028329Y5792216D01*
X7049062D01*
X7069088Y5797582D01*
X7087043Y5807948D01*
X7101703Y5822609D01*
X7112070Y5840563D01*
X7112580Y5842469D01*
X7214666D01*
Y5768249D01*
X7354506D01*
Y5758089D01*
X7379706D01*
Y5883489D01*
Y6008889D01*
X7354506D01*
Y5998729D01*
X7270894D01*
Y6208249D01*
X7354506D01*
Y6198089D01*
X7379706D01*
Y6323489D01*
Y6448889D01*
D02*
G37*
G36*
X8545907Y6271229D02*
X8528905D01*
X8513196Y6264722D01*
X8501173Y6252699D01*
X8494666Y6236991D01*
Y6219988D01*
X8501173Y6204279D01*
X8513196Y6192256D01*
X8528905Y6185749D01*
X8545907D01*
X8561616Y6192256D01*
X8573639Y6204279D01*
X8580146Y6219988D01*
Y6236991D01*
X8573639Y6252699D01*
X8561616Y6264722D01*
X8545907Y6271229D01*
D02*
G37*
G36*
X7155908D02*
X7138905D01*
X7123196Y6264722D01*
X7111173Y6252699D01*
X7104667Y6236991D01*
Y6219988D01*
X7111173Y6204279D01*
X7123196Y6192256D01*
X7138905Y6185749D01*
X7155908D01*
X7171617Y6192256D01*
X7183639Y6204279D01*
X7190146Y6219988D01*
Y6236991D01*
X7183639Y6252699D01*
X7171617Y6264722D01*
X7155908Y6271229D01*
D02*
G37*
G36*
X5995907D02*
X5978905D01*
X5963196Y6264722D01*
X5951173Y6252699D01*
X5944666Y6236991D01*
Y6219988D01*
X5951173Y6204279D01*
X5963196Y6192256D01*
X5978905Y6185749D01*
X5995907D01*
X6011616Y6192256D01*
X6023639Y6204279D01*
X6030146Y6219988D01*
Y6236991D01*
X6023639Y6252699D01*
X6011616Y6264722D01*
X5995907Y6271229D01*
D02*
G37*
G36*
X4605908D02*
X4588905D01*
X4573196Y6264722D01*
X4561173Y6252699D01*
X4554667Y6236991D01*
Y6219988D01*
X4561173Y6204279D01*
X4573196Y6192256D01*
X4588905Y6185749D01*
X4605908D01*
X4621617Y6192256D01*
X4633639Y6204279D01*
X4640146Y6219988D01*
Y6236991D01*
X4633639Y6252699D01*
X4621617Y6264722D01*
X4605908Y6271229D01*
D02*
G37*
G36*
X8279706Y6008889D02*
X8254506D01*
Y5998729D01*
X8030306D01*
Y6008889D01*
X8005106D01*
Y5883489D01*
Y5758089D01*
X8030306D01*
Y5768249D01*
X8254506D01*
Y5758089D01*
X8279706D01*
Y5883489D01*
Y6008889D01*
D02*
G37*
G36*
X7979706D02*
X7954506D01*
Y5998729D01*
X7730306D01*
Y6008889D01*
X7705106D01*
Y5883489D01*
Y5758089D01*
X7730306D01*
Y5768249D01*
X7954506D01*
Y5758089D01*
X7979706D01*
Y5883489D01*
Y6008889D01*
D02*
G37*
G36*
X7679706D02*
X7654506D01*
Y5998729D01*
X7430306D01*
Y6008889D01*
X7405106D01*
Y5883489D01*
Y5758089D01*
X7430306D01*
Y5768249D01*
X7654506D01*
Y5758089D01*
X7679706D01*
Y5883489D01*
Y6008889D01*
D02*
G37*
G36*
X5993333Y5940457D02*
Y5896559D01*
X6037231D01*
X6029083Y5916232D01*
X6013006Y5932309D01*
X5993333Y5940457D01*
D02*
G37*
G36*
X6037231Y5871159D02*
X5993333D01*
Y5827261D01*
X6013006Y5835410D01*
X6029083Y5851486D01*
X6037231Y5871159D01*
D02*
G37*
G36*
X8330306Y6008889D02*
X8305106D01*
Y5883489D01*
Y5758089D01*
X8330306D01*
Y5768249D01*
X8470146D01*
Y5998729D01*
X8330306D01*
Y6008889D01*
D02*
G37*
G36*
X4625594Y5759812D02*
Y5715914D01*
X4669492D01*
X4661343Y5735587D01*
X4645267Y5751664D01*
X4625594Y5759812D01*
D02*
G37*
G36*
X4600194D02*
X4580521Y5751664D01*
X4564445Y5735587D01*
X4556296Y5715914D01*
X4600194D01*
Y5759812D01*
D02*
G37*
G36*
X4669492Y5690514D02*
X4625594D01*
Y5646616D01*
X4645267Y5654765D01*
X4661343Y5670842D01*
X4669492Y5690514D01*
D02*
G37*
G36*
X4600194D02*
X4556296D01*
X4564445Y5670842D01*
X4580521Y5654765D01*
X4600194Y5646616D01*
Y5690514D01*
D02*
G37*
G36*
X270880Y4419540D02*
X247120D01*
X224169Y4413390D01*
X203591Y4401510D01*
X186790Y4384709D01*
X174910Y4364131D01*
X168760Y4341180D01*
Y4317420D01*
X174910Y4294469D01*
X186790Y4273891D01*
X203591Y4257090D01*
X224169Y4245210D01*
X247120Y4239060D01*
X270880D01*
X293831Y4245210D01*
X314409Y4257090D01*
X331210Y4273891D01*
X343090Y4294469D01*
X349240Y4317420D01*
Y4341180D01*
X343090Y4364131D01*
X331210Y4384709D01*
X314409Y4401510D01*
X293831Y4413390D01*
X270880Y4419540D01*
D02*
G37*
G36*
Y4165540D02*
X247120D01*
X224169Y4159390D01*
X203591Y4147510D01*
X186790Y4130709D01*
X174910Y4110131D01*
X168760Y4087180D01*
Y4063420D01*
X174910Y4040469D01*
X186790Y4019891D01*
X203591Y4003090D01*
X224169Y3991210D01*
X247120Y3985060D01*
X270880D01*
X293831Y3991210D01*
X314409Y4003090D01*
X331210Y4019891D01*
X343090Y4040469D01*
X349240Y4063420D01*
Y4087180D01*
X343090Y4110131D01*
X331210Y4130709D01*
X314409Y4147510D01*
X293831Y4159390D01*
X270880Y4165540D01*
D02*
G37*
G36*
Y3911540D02*
X247120D01*
X224169Y3905390D01*
X203591Y3893510D01*
X186790Y3876709D01*
X174910Y3856131D01*
X168760Y3833180D01*
Y3809420D01*
X174910Y3786469D01*
X186790Y3765891D01*
X203591Y3749090D01*
X224169Y3737210D01*
X247120Y3731060D01*
X270880D01*
X293831Y3737210D01*
X314409Y3749090D01*
X331210Y3765891D01*
X343090Y3786469D01*
X349240Y3809420D01*
Y3833180D01*
X343090Y3856131D01*
X331210Y3876709D01*
X314409Y3893510D01*
X293831Y3905390D01*
X270880Y3911540D01*
D02*
G37*
G36*
Y3657540D02*
X247120D01*
X224169Y3651390D01*
X203591Y3639510D01*
X186790Y3622709D01*
X174910Y3602131D01*
X168760Y3579180D01*
Y3555420D01*
X174910Y3532469D01*
X186790Y3511891D01*
X203591Y3495090D01*
X224169Y3483210D01*
X247120Y3477060D01*
X270880D01*
X293831Y3483210D01*
X314409Y3495090D01*
X331210Y3511891D01*
X343090Y3532469D01*
X349240Y3555420D01*
Y3579180D01*
X343090Y3602131D01*
X331210Y3622709D01*
X314409Y3639510D01*
X293831Y3651390D01*
X270880Y3657540D01*
D02*
G37*
G36*
Y3403540D02*
X247120D01*
X224169Y3397390D01*
X203591Y3385510D01*
X186790Y3368709D01*
X174910Y3348131D01*
X168760Y3325180D01*
Y3301420D01*
X174910Y3278469D01*
X186790Y3257891D01*
X203591Y3241090D01*
X224169Y3229210D01*
X247120Y3223060D01*
X270880D01*
X293831Y3229210D01*
X314409Y3241090D01*
X331210Y3257891D01*
X343090Y3278469D01*
X349240Y3301420D01*
Y3325180D01*
X343090Y3348131D01*
X331210Y3368709D01*
X314409Y3385510D01*
X293831Y3397390D01*
X270880Y3403540D01*
D02*
G37*
G36*
Y3149540D02*
X247120D01*
X224169Y3143390D01*
X203591Y3131510D01*
X186790Y3114709D01*
X174910Y3094131D01*
X168760Y3071180D01*
Y3047420D01*
X174910Y3024469D01*
X186790Y3003891D01*
X203591Y2987090D01*
X224169Y2975210D01*
X247120Y2969060D01*
X270880D01*
X293831Y2975210D01*
X314409Y2987090D01*
X331210Y3003891D01*
X343090Y3024469D01*
X349240Y3047420D01*
Y3071180D01*
X343090Y3094131D01*
X331210Y3114709D01*
X314409Y3131510D01*
X293831Y3143390D01*
X270880Y3149540D01*
D02*
G37*
G36*
X8279706Y2848889D02*
X8254506D01*
Y2838729D01*
X8030306D01*
Y2848889D01*
X8005106D01*
Y2723489D01*
Y2598089D01*
X8030306D01*
Y2608249D01*
X8254506D01*
Y2598089D01*
X8279706D01*
Y2723489D01*
Y2848889D01*
D02*
G37*
G36*
X7979706D02*
X7954506D01*
Y2838729D01*
X7730306D01*
Y2848889D01*
X7705106D01*
Y2723489D01*
Y2598089D01*
X7730306D01*
Y2608249D01*
X7954506D01*
Y2598089D01*
X7979706D01*
Y2723489D01*
Y2848889D01*
D02*
G37*
G36*
X7679706D02*
X7654506D01*
Y2838729D01*
X7430306D01*
Y2848889D01*
X7405106D01*
Y2723489D01*
Y2598089D01*
X7430306D01*
Y2608249D01*
X7654506D01*
Y2598089D01*
X7679706D01*
Y2723489D01*
Y2848889D01*
D02*
G37*
G36*
X6129706D02*
X6104506D01*
Y2838729D01*
X5880306D01*
Y2848889D01*
X5855106D01*
Y2723489D01*
Y2598089D01*
X5880306D01*
Y2608249D01*
X6104506D01*
Y2598089D01*
X6129706D01*
Y2723489D01*
Y2848889D01*
D02*
G37*
G36*
X5829706D02*
X5804506D01*
Y2838729D01*
X5580306D01*
Y2848889D01*
X5555106D01*
Y2723489D01*
Y2598089D01*
X5580306D01*
Y2608249D01*
X5804506D01*
Y2598089D01*
X5829706D01*
Y2723489D01*
Y2848889D01*
D02*
G37*
G36*
X5529706D02*
X5504506D01*
Y2838729D01*
X5280306D01*
Y2848889D01*
X5255106D01*
Y2723489D01*
Y2598089D01*
X5280306D01*
Y2608249D01*
X5504506D01*
Y2598089D01*
X5529706D01*
Y2723489D01*
Y2848889D01*
D02*
G37*
G36*
X270880Y2895540D02*
X247120D01*
X224169Y2889390D01*
X203591Y2877510D01*
X186790Y2860709D01*
X174910Y2840131D01*
X168760Y2817180D01*
Y2793420D01*
X174910Y2770469D01*
X186790Y2749891D01*
X203591Y2733090D01*
X224169Y2721210D01*
X247120Y2715060D01*
X270880D01*
X293831Y2721210D01*
X314409Y2733090D01*
X331210Y2749891D01*
X343090Y2770469D01*
X349240Y2793420D01*
Y2817180D01*
X343090Y2840131D01*
X331210Y2860709D01*
X314409Y2877510D01*
X293831Y2889390D01*
X270880Y2895540D01*
D02*
G37*
G36*
X8330306Y2848889D02*
X8305106D01*
Y2723489D01*
Y2598089D01*
X8330306D01*
Y2608249D01*
X8470146D01*
Y2838729D01*
X8330306D01*
Y2848889D01*
D02*
G37*
G36*
X7379706D02*
X7354506D01*
Y2838729D01*
X7214666D01*
Y2727248D01*
X7213919Y2723489D01*
Y2331709D01*
X7112580D01*
X7112070Y2333614D01*
X7101703Y2351569D01*
X7087043Y2366229D01*
X7069088Y2376595D01*
X7049062Y2381961D01*
X7028329D01*
X7008303Y2376595D01*
X6990348Y2366229D01*
X6975688Y2351569D01*
X6965322Y2333614D01*
X6959956Y2313587D01*
Y2292855D01*
X6965322Y2272829D01*
X6975688Y2254874D01*
X6990348Y2240213D01*
X7008303Y2229847D01*
X7028329Y2224481D01*
X7049062D01*
X7069088Y2229847D01*
X7087043Y2240213D01*
X7101703Y2254874D01*
X7112070Y2272829D01*
X7112580Y2274734D01*
X7214666D01*
Y2168249D01*
X7354506D01*
Y2158089D01*
X7379706D01*
Y2283489D01*
Y2408889D01*
X7354506D01*
Y2398729D01*
X7270894D01*
Y2608249D01*
X7354506D01*
Y2598089D01*
X7379706D01*
Y2723489D01*
Y2848889D01*
D02*
G37*
G36*
X6180306D02*
X6155106D01*
Y2723489D01*
Y2598089D01*
X6180306D01*
Y2608249D01*
X6320146D01*
Y2838729D01*
X6180306D01*
Y2848889D01*
D02*
G37*
G36*
X8545907Y2671229D02*
X8528905D01*
X8513196Y2664722D01*
X8501173Y2652700D01*
X8494666Y2636991D01*
Y2619988D01*
X8501173Y2604279D01*
X8513196Y2592256D01*
X8528905Y2585749D01*
X8545907D01*
X8561616Y2592256D01*
X8573639Y2604279D01*
X8580146Y2619988D01*
Y2636991D01*
X8573639Y2652700D01*
X8561616Y2664722D01*
X8545907Y2671229D01*
D02*
G37*
G36*
X7155908D02*
X7138905D01*
X7123196Y2664722D01*
X7111173Y2652700D01*
X7104667Y2636991D01*
Y2619988D01*
X7111173Y2604279D01*
X7123196Y2592256D01*
X7138905Y2585749D01*
X7155908D01*
X7171617Y2592256D01*
X7183639Y2604279D01*
X7190146Y2619988D01*
Y2636991D01*
X7183639Y2652700D01*
X7171617Y2664722D01*
X7155908Y2671229D01*
D02*
G37*
G36*
X5005908D02*
X4988905D01*
X4973196Y2664722D01*
X4961173Y2652700D01*
X4954666Y2636991D01*
Y2619988D01*
X4961173Y2604279D01*
X4973196Y2592256D01*
X4988905Y2585749D01*
X5005908D01*
X5021617Y2592256D01*
X5033639Y2604279D01*
X5040146Y2619988D01*
Y2636991D01*
X5033639Y2652700D01*
X5021617Y2664722D01*
X5005908Y2671229D01*
D02*
G37*
G36*
X2599792Y2592077D02*
Y2548179D01*
X2643690D01*
X2635541Y2567852D01*
X2619464Y2583928D01*
X2599792Y2592077D01*
D02*
G37*
G36*
X2777358Y3758424D02*
X2396825D01*
X2393793Y3757168D01*
X2390512D01*
X2384910Y3754848D01*
X2382591Y3752528D01*
X2379559Y3751272D01*
X2353609Y3725322D01*
X1238707D01*
X1220372Y3721676D01*
X1204829Y3711290D01*
X966120Y3472581D01*
X955734Y3457038D01*
X952088Y3438703D01*
Y2550143D01*
X279244Y1877299D01*
X270880Y1879540D01*
X247120D01*
X224169Y1873390D01*
X203591Y1861510D01*
X186790Y1844709D01*
X174910Y1824131D01*
X168760Y1801180D01*
Y1777420D01*
X174910Y1754469D01*
X186790Y1733891D01*
X203591Y1717090D01*
X224169Y1705210D01*
X247120Y1699060D01*
X270880D01*
X293831Y1705210D01*
X314409Y1717090D01*
X331210Y1733891D01*
X343090Y1754469D01*
X349240Y1777420D01*
Y1801180D01*
X346999Y1809543D01*
X1033876Y2496420D01*
X1044262Y2511963D01*
X1047908Y2530298D01*
Y3386427D01*
X1060608Y3388098D01*
X1062108Y3382504D01*
X1068872Y3370788D01*
Y1519072D01*
X1012725D01*
X1002666Y1529132D01*
X989223Y1538115D01*
X973366Y1541269D01*
X940883D01*
Y1624672D01*
X795403D01*
Y1463179D01*
X795403Y1459193D01*
X795403D01*
X795403Y1450479D01*
X795404D01*
Y1284999D01*
X940884D01*
Y1320206D01*
X941426Y1320675D01*
X954126Y1314868D01*
Y1239672D01*
X975243D01*
Y1181367D01*
X956129D01*
Y1114487D01*
X836209Y994566D01*
X827226Y981124D01*
X824072Y965267D01*
Y891545D01*
X809350Y880249D01*
X796729Y863800D01*
X788795Y844646D01*
X786089Y824091D01*
Y693705D01*
X786089Y693703D01*
X788795Y673148D01*
X796729Y653993D01*
X809350Y637545D01*
X883745Y563151D01*
X883746Y563150D01*
X900194Y550528D01*
X919348Y542595D01*
X929626Y541241D01*
X939904Y539888D01*
X939906Y539888D01*
X1258014D01*
X1258016Y539888D01*
X1278571Y542595D01*
X1297726Y550529D01*
X1314174Y563150D01*
X2410991Y1659967D01*
X2410992Y1659967D01*
X2423613Y1676416D01*
X2431547Y1695570D01*
X2432900Y1705848D01*
X2434254Y1716126D01*
X2434253Y1716128D01*
Y1751243D01*
X2670962D01*
X2682560Y1756047D01*
X2684477D01*
Y1760541D01*
X2687458Y1767738D01*
Y2316124D01*
X2682627Y2327789D01*
X2438925Y2571490D01*
X2443785Y2583223D01*
X2458263D01*
Y2651123D01*
X2483663D01*
Y2583223D01*
X2534399Y2583223D01*
X2534987D01*
D01*
X2536053Y2583223D01*
X2537336Y2580127D01*
X2541314Y2570523D01*
X2538642Y2567852D01*
X2530494Y2548179D01*
X2574392D01*
Y2592077D01*
X2556563Y2584692D01*
X2549065Y2587629D01*
X2543863Y2591033D01*
X2543863Y2592007D01*
X2543863Y2592007D01*
X2543863Y2592688D01*
Y2609480D01*
X2547771Y2620561D01*
X2556563Y2620561D01*
X2781251D01*
Y3031041D01*
X2547771D01*
Y2812201D01*
X2533703D01*
Y2838864D01*
X2483169D01*
Y2872738D01*
X2509832D01*
Y2998218D01*
X2493169D01*
Y3035480D01*
X2519832D01*
Y3170960D01*
X2424352D01*
Y3035480D01*
X2431015D01*
Y2998218D01*
X2396933D01*
X2394352Y2998218D01*
X2384233Y3004449D01*
Y3125745D01*
X2382977Y3128776D01*
Y3132058D01*
X2380657Y3137659D01*
X2378336Y3139979D01*
X2377081Y3143010D01*
X2367104Y3152987D01*
X2358809Y3161285D01*
X2400376Y3202853D01*
X2777358D01*
X2780390Y3204108D01*
X2783672Y3204109D01*
X2785992Y3205070D01*
X2788311Y3207390D01*
X2789023Y3207684D01*
X2789317Y3208396D01*
X2791593Y3210671D01*
X2792304Y3210965D01*
X2792598Y3211676D01*
X2794918Y3213996D01*
X2795879Y3216316D01*
X2795880Y3219598D01*
X2797135Y3222630D01*
Y3738647D01*
X2795880Y3741679D01*
X2795879Y3744960D01*
X2794918Y3747280D01*
X2792598Y3749600D01*
X2792304Y3750311D01*
X2791592Y3750606D01*
X2789317Y3752881D01*
X2789023Y3753592D01*
X2788312Y3753887D01*
X2785992Y3756207D01*
X2783672Y3757168D01*
X2780390Y3757168D01*
X2777358Y3758424D01*
D02*
G37*
G36*
X2643690Y2522779D02*
X2599792D01*
Y2478881D01*
X2619464Y2487029D01*
X2635541Y2503106D01*
X2643690Y2522779D01*
D02*
G37*
G36*
X2574392D02*
X2530494D01*
X2538642Y2503106D01*
X2554719Y2487029D01*
X2574392Y2478881D01*
Y2522779D01*
D02*
G37*
G36*
X270880Y2641540D02*
X247120D01*
X224169Y2635390D01*
X203591Y2623510D01*
X186790Y2606709D01*
X174910Y2586131D01*
X168760Y2563180D01*
Y2539420D01*
X174910Y2516469D01*
X186790Y2495891D01*
X203591Y2479090D01*
X224169Y2467210D01*
X247120Y2461060D01*
X270880D01*
X293831Y2467210D01*
X314409Y2479090D01*
X331210Y2495891D01*
X343090Y2516469D01*
X349240Y2539420D01*
Y2563180D01*
X343090Y2586131D01*
X331210Y2606709D01*
X314409Y2623510D01*
X293831Y2635390D01*
X270880Y2641540D01*
D02*
G37*
G36*
X8279706Y2408889D02*
X8254506D01*
Y2398729D01*
X8030306D01*
Y2408889D01*
X8005106D01*
Y2283489D01*
Y2158089D01*
X8030306D01*
Y2168249D01*
X8254506D01*
Y2158089D01*
X8279706D01*
Y2283489D01*
Y2408889D01*
D02*
G37*
G36*
X7979706D02*
X7954506D01*
Y2398729D01*
X7730306D01*
Y2408889D01*
X7705106D01*
Y2283489D01*
Y2158089D01*
X7730306D01*
Y2168249D01*
X7954506D01*
Y2158089D01*
X7979706D01*
Y2283489D01*
Y2408889D01*
D02*
G37*
G36*
X7679706D02*
X7654506D01*
Y2398729D01*
X7430306D01*
Y2408889D01*
X7405106D01*
Y2283489D01*
Y2158089D01*
X7430306D01*
Y2168249D01*
X7654506D01*
Y2158089D01*
X7679706D01*
Y2283489D01*
Y2408889D01*
D02*
G37*
G36*
X6129706D02*
X6104506D01*
Y2398729D01*
X5880306D01*
Y2408889D01*
X5855106D01*
Y2283489D01*
Y2158089D01*
X5880306D01*
Y2168249D01*
X6104506D01*
Y2158089D01*
X6129706D01*
Y2283489D01*
Y2408889D01*
D02*
G37*
G36*
X5829706D02*
X5804506D01*
Y2398729D01*
X5580306D01*
Y2408889D01*
X5555106D01*
Y2283489D01*
Y2158089D01*
X5580306D01*
Y2168249D01*
X5804506D01*
Y2158089D01*
X5829706D01*
Y2283489D01*
Y2408889D01*
D02*
G37*
G36*
X5529706D02*
X5504506D01*
Y2398729D01*
X5280306D01*
Y2408889D01*
X5255106D01*
Y2283489D01*
Y2158089D01*
X5280306D01*
Y2168249D01*
X5504506D01*
Y2158089D01*
X5529706D01*
Y2283489D01*
Y2408889D01*
D02*
G37*
G36*
X270880Y2387540D02*
X247120D01*
X224169Y2381390D01*
X203591Y2369510D01*
X186790Y2352709D01*
X174910Y2332131D01*
X168760Y2309180D01*
Y2285420D01*
X174910Y2262469D01*
X186790Y2241891D01*
X203591Y2225090D01*
X224169Y2213210D01*
X247120Y2207060D01*
X270880D01*
X293831Y2213210D01*
X314409Y2225090D01*
X331210Y2241891D01*
X343090Y2262469D01*
X349240Y2285420D01*
Y2309180D01*
X343090Y2332131D01*
X331210Y2352709D01*
X314409Y2369510D01*
X293831Y2381390D01*
X270880Y2387540D01*
D02*
G37*
G36*
X8330306Y2408889D02*
X8305106D01*
Y2283489D01*
Y2158089D01*
X8330306D01*
Y2168249D01*
X8470146D01*
Y2398729D01*
X8330306D01*
Y2408889D01*
D02*
G37*
G36*
X6180306D02*
X6155106D01*
Y2283489D01*
Y2158089D01*
X6180306D01*
Y2168249D01*
X6320146D01*
Y2398729D01*
X6180306D01*
Y2408889D01*
D02*
G37*
G36*
X270880Y2133540D02*
X247120D01*
X224169Y2127390D01*
X203591Y2115510D01*
X186790Y2098709D01*
X174910Y2078131D01*
X168760Y2055180D01*
Y2031420D01*
X174910Y2008469D01*
X186790Y1987891D01*
X203591Y1971090D01*
X224169Y1959210D01*
X247120Y1953060D01*
X270880D01*
X293831Y1959210D01*
X314409Y1971090D01*
X331210Y1987891D01*
X343090Y2008469D01*
X349240Y2031420D01*
Y2055180D01*
X343090Y2078131D01*
X331210Y2098709D01*
X314409Y2115510D01*
X293831Y2127390D01*
X270880Y2133540D01*
D02*
G37*
G36*
X973988Y1785627D02*
Y1741729D01*
X1017886D01*
X1009738Y1761402D01*
X993661Y1777478D01*
X973988Y1785627D01*
D02*
G37*
G36*
X948588D02*
X928916Y1777478D01*
X912839Y1761402D01*
X904690Y1741729D01*
X948588D01*
Y1785627D01*
D02*
G37*
G36*
X1017886Y1716329D02*
X973988D01*
Y1672431D01*
X993661Y1680579D01*
X1009738Y1696656D01*
X1017886Y1716329D01*
D02*
G37*
G36*
X948588D02*
X904690D01*
X912839Y1696656D01*
X928916Y1680579D01*
X948588Y1672431D01*
Y1716329D01*
D02*
G37*
G36*
X776043Y1634832D02*
X705843D01*
Y1554632D01*
X776043D01*
Y1634832D01*
D02*
G37*
G36*
X680443D02*
X610243D01*
Y1554632D01*
X680443D01*
Y1634832D01*
D02*
G37*
G36*
X359400Y1635700D02*
X271700D01*
Y1548000D01*
X359400D01*
Y1635700D01*
D02*
G37*
G36*
X246300D02*
X158600D01*
Y1548000D01*
X246300D01*
Y1635700D01*
D02*
G37*
G36*
X9437740Y1625540D02*
X9413980D01*
X9391029Y1619390D01*
X9370451Y1607510D01*
X9353650Y1590709D01*
X9341770Y1570131D01*
X9335620Y1547180D01*
Y1523420D01*
X9341770Y1500469D01*
X9353650Y1479891D01*
X9370451Y1463090D01*
X9391029Y1451210D01*
X9413980Y1445060D01*
X9437740D01*
X9460691Y1451210D01*
X9481269Y1463090D01*
X9498070Y1479891D01*
X9509950Y1500469D01*
X9516100Y1523420D01*
Y1547180D01*
X9509950Y1570131D01*
X9498070Y1590709D01*
X9481269Y1607510D01*
X9460691Y1619390D01*
X9437740Y1625540D01*
D02*
G37*
G36*
X359400Y1522600D02*
X271700D01*
Y1434900D01*
X359400D01*
Y1522600D01*
D02*
G37*
G36*
X246300D02*
X158600D01*
Y1434900D01*
X246300D01*
Y1522600D01*
D02*
G37*
G36*
X776043Y1529232D02*
X693143D01*
X610243D01*
Y1449032D01*
X610244D01*
Y1380439D01*
X693144D01*
X776044D01*
Y1460639D01*
X776043D01*
Y1529232D01*
D02*
G37*
G36*
X776044Y1355039D02*
X705844D01*
Y1274839D01*
X776044D01*
Y1355039D01*
D02*
G37*
G36*
X680444D02*
X610244D01*
Y1274839D01*
X680444D01*
Y1355039D01*
D02*
G37*
G36*
X864311Y1243692D02*
Y1199794D01*
X908209D01*
X900061Y1219467D01*
X883984Y1235544D01*
X864311Y1243692D01*
D02*
G37*
G36*
X838911D02*
X819238Y1235544D01*
X803162Y1219467D01*
X795013Y1199794D01*
X838911D01*
Y1243692D01*
D02*
G37*
G36*
X908209Y1174394D02*
X864311D01*
Y1130496D01*
X883984Y1138645D01*
X900061Y1154722D01*
X908209Y1174394D01*
D02*
G37*
G36*
X838911D02*
X795013D01*
X803162Y1154722D01*
X819238Y1138645D01*
X838911Y1130496D01*
Y1174394D01*
D02*
G37*
G36*
X8816629Y909490D02*
X8743929D01*
Y836791D01*
X8816629D01*
Y909490D01*
D02*
G37*
G36*
X8718529D02*
X8645829D01*
Y836791D01*
X8718529D01*
Y909490D01*
D02*
G37*
G36*
X8541134Y899330D02*
X8521323D01*
X8502187Y894203D01*
X8485030Y884297D01*
X8471022Y870289D01*
X8461116Y853132D01*
X8455989Y833996D01*
Y814185D01*
X8461116Y795049D01*
X8471022Y777892D01*
X8485030Y763884D01*
X8502187Y753978D01*
X8521323Y748851D01*
X8541134D01*
X8560270Y753978D01*
X8577427Y763884D01*
X8591435Y777892D01*
X8601341Y795049D01*
X8606468Y814185D01*
Y833996D01*
X8601341Y853132D01*
X8591435Y870289D01*
X8577427Y884297D01*
X8560270Y894203D01*
X8541134Y899330D01*
D02*
G37*
G36*
X8816629Y811391D02*
X8743929D01*
Y738691D01*
X8816629D01*
Y811391D01*
D02*
G37*
G36*
X8718529D02*
X8645829D01*
Y738691D01*
X8718529D01*
Y811391D01*
D02*
G37*
G36*
X6887648Y555400D02*
X6887130D01*
Y467700D01*
X6974830D01*
Y468218D01*
X6967988Y493753D01*
X6954770Y516647D01*
X6936077Y535340D01*
X6913183Y548558D01*
X6887648Y555400D01*
D02*
G37*
G36*
X6861730D02*
X6861212D01*
X6835677Y548558D01*
X6812783Y535340D01*
X6794090Y516647D01*
X6780872Y493753D01*
X6774030Y468218D01*
Y467700D01*
X6861730D01*
Y555400D01*
D02*
G37*
G36*
X7902310Y545240D02*
X7878550D01*
X7855599Y539090D01*
X7835021Y527210D01*
X7818220Y510408D01*
X7806340Y489831D01*
X7800190Y466880D01*
Y443120D01*
X7806340Y420169D01*
X7818220Y399591D01*
X7835021Y382790D01*
X7855599Y370910D01*
X7878550Y364760D01*
X7902310D01*
X7925261Y370910D01*
X7945839Y382790D01*
X7962640Y399591D01*
X7974520Y420169D01*
X7980670Y443120D01*
Y466880D01*
X7974520Y489831D01*
X7962640Y510408D01*
X7945839Y527210D01*
X7925261Y539090D01*
X7902310Y545240D01*
D02*
G37*
G36*
X7648310D02*
X7624550D01*
X7601599Y539090D01*
X7581021Y527210D01*
X7564220Y510408D01*
X7552340Y489831D01*
X7546190Y466880D01*
Y443120D01*
X7552340Y420169D01*
X7564220Y399591D01*
X7581021Y382790D01*
X7601599Y370910D01*
X7624550Y364760D01*
X7648310D01*
X7671261Y370910D01*
X7691839Y382790D01*
X7708640Y399591D01*
X7720520Y420169D01*
X7726670Y443120D01*
Y466880D01*
X7720520Y489831D01*
X7708640Y510408D01*
X7691839Y527210D01*
X7671261Y539090D01*
X7648310Y545240D01*
D02*
G37*
G36*
X7394310D02*
X7370550D01*
X7347599Y539090D01*
X7327021Y527210D01*
X7310220Y510408D01*
X7298340Y489831D01*
X7292190Y466880D01*
Y443120D01*
X7298340Y420169D01*
X7310220Y399591D01*
X7327021Y382790D01*
X7347599Y370910D01*
X7370550Y364760D01*
X7394310D01*
X7417261Y370910D01*
X7437839Y382790D01*
X7454640Y399591D01*
X7466520Y420169D01*
X7472670Y443120D01*
Y466880D01*
X7466520Y489831D01*
X7454640Y510408D01*
X7437839Y527210D01*
X7417261Y539090D01*
X7394310Y545240D01*
D02*
G37*
G36*
X7140310D02*
X7116550D01*
X7093599Y539090D01*
X7073021Y527210D01*
X7056220Y510408D01*
X7044340Y489831D01*
X7038190Y466880D01*
Y443120D01*
X7044340Y420169D01*
X7056220Y399591D01*
X7073021Y382790D01*
X7093599Y370910D01*
X7116550Y364760D01*
X7140310D01*
X7163261Y370910D01*
X7183839Y382790D01*
X7200640Y399591D01*
X7212520Y420169D01*
X7218670Y443120D01*
Y466880D01*
X7212520Y489831D01*
X7200640Y510408D01*
X7183839Y527210D01*
X7163261Y539090D01*
X7140310Y545240D01*
D02*
G37*
G36*
X6632310D02*
X6608550D01*
X6585599Y539090D01*
X6565021Y527210D01*
X6548220Y510408D01*
X6536340Y489831D01*
X6530190Y466880D01*
Y443120D01*
X6536340Y420169D01*
X6548220Y399591D01*
X6565021Y382790D01*
X6585599Y370910D01*
X6608550Y364760D01*
X6632310D01*
X6655261Y370910D01*
X6675839Y382790D01*
X6692640Y399591D01*
X6704520Y420169D01*
X6710670Y443120D01*
Y466880D01*
X6704520Y489831D01*
X6692640Y510408D01*
X6675839Y527210D01*
X6655261Y539090D01*
X6632310Y545240D01*
D02*
G37*
G36*
X6974830Y442300D02*
X6887130D01*
Y354600D01*
X6887648D01*
X6913183Y361442D01*
X6936077Y374660D01*
X6954770Y393353D01*
X6967988Y416247D01*
X6974830Y441782D01*
Y442300D01*
D02*
G37*
G36*
X6861730D02*
X6774030D01*
Y441782D01*
X6780872Y416247D01*
X6794090Y393353D01*
X6812783Y374660D01*
X6835677Y361442D01*
X6861212Y354600D01*
X6861730D01*
Y442300D01*
D02*
G37*
%LPD*%
G36*
X2407897Y6841289D02*
X2411023Y6838162D01*
Y6577546D01*
X2145223Y6311745D01*
X2138486Y6301663D01*
X2136121Y6289771D01*
Y5840024D01*
X2123421Y5834764D01*
X2117127Y5841058D01*
X2096549Y5852938D01*
X2092795Y5853944D01*
Y6281095D01*
X2379075Y6567375D01*
X2385812Y6577457D01*
X2388178Y6589350D01*
Y6838162D01*
X2391304Y6841289D01*
X2399600Y6846326D01*
X2407897Y6841289D01*
D02*
G37*
G36*
X5152706Y5581872D02*
X5160649Y5585162D01*
X5171209Y5578106D01*
Y3224487D01*
X5113247Y3166525D01*
X5101514Y3171385D01*
Y5579546D01*
X5114214Y5587295D01*
X5127306Y5581872D01*
Y5638470D01*
X5152706D01*
Y5581872D01*
D02*
G37*
G36*
X5764796Y5574582D02*
X5772739Y5577872D01*
X5783299Y5570816D01*
Y4582013D01*
X5771566Y4577152D01*
X5720894Y4627824D01*
Y5570816D01*
X5731453Y5577872D01*
X5739396Y5574582D01*
Y5631180D01*
X5764796D01*
Y5574582D01*
D02*
G37*
G36*
X5464796D02*
X5472739Y5577872D01*
X5483299Y5570816D01*
Y3306683D01*
X5432627Y3256011D01*
X5420894Y3260871D01*
Y5570816D01*
X5431453Y5577872D01*
X5439396Y5574582D01*
Y5631180D01*
X5464796D01*
Y5574582D01*
D02*
G37*
G36*
X4864796Y5574577D02*
X4872739Y5577867D01*
X4883299Y5570811D01*
Y3272682D01*
X4832627Y3222010D01*
X4820894Y3226871D01*
Y5570811D01*
X4831453Y5577867D01*
X4839396Y5574577D01*
Y5631175D01*
X4864796D01*
Y5574577D01*
D02*
G37*
G36*
X5613919Y5692028D02*
X5609027Y5684706D01*
X5606858Y5673805D01*
X5606858Y5673803D01*
Y4643506D01*
X5595125Y4638646D01*
X5580914Y4652857D01*
Y5673805D01*
X5578745Y5684706D01*
X5572570Y5693948D01*
X5572569Y5693949D01*
X5570894Y5695625D01*
Y5768249D01*
X5613919D01*
Y5692028D01*
D02*
G37*
G36*
X5314119Y3252449D02*
X5282627Y3220958D01*
X5270894Y3225818D01*
Y5768249D01*
X5314119D01*
Y3252449D01*
D02*
G37*
G36*
X2779678Y3740967D02*
X2780640Y3738647D01*
Y3222630D01*
X2779678Y3220310D01*
X2777358Y3219348D01*
X2393544D01*
X2388713Y3214517D01*
X2388712Y3214517D01*
X2347144Y3172949D01*
X2347143Y3172948D01*
X2347143Y3172948D01*
X2335479Y3161284D01*
X2347143Y3149620D01*
X2347143Y3149620D01*
X2365417Y3131346D01*
X2367737Y3125745D01*
Y3004449D01*
Y2883865D01*
X2142818D01*
Y2885005D01*
X2141931Y2887146D01*
Y3487035D01*
X2142818Y3489176D01*
Y3491203D01*
X2146394Y3494778D01*
X2146394Y3494779D01*
X2257720Y3606104D01*
X2257720Y3606104D01*
X2257720Y3606104D01*
X2391223Y3739608D01*
X2396825Y3741928D01*
X2777358D01*
X2779678Y3740967D01*
D02*
G37*
G36*
X2244608Y3621262D02*
X2245088Y3616802D01*
X2134730Y3506443D01*
X2127578D01*
Y3495489D01*
X2126691Y3493348D01*
Y3492093D01*
X2126322Y3491203D01*
Y3489176D01*
X2125435Y3487035D01*
Y2887146D01*
X2126322Y2885005D01*
Y2883865D01*
X2126691Y2882975D01*
Y2880833D01*
X2127578Y2878692D01*
Y2867738D01*
X2129998D01*
Y2745397D01*
X2122611Y2740782D01*
X2114902Y2740730D01*
X2112814Y2742265D01*
Y2815880D01*
X1982334D01*
Y2794450D01*
X1955866D01*
X1949194Y2801121D01*
X1931924Y2808275D01*
X1913230D01*
X1895959Y2801121D01*
X1882741Y2787902D01*
X1875587Y2770632D01*
Y2751938D01*
X1882741Y2734667D01*
X1895959Y2721449D01*
X1913230Y2714295D01*
X1931924D01*
X1949194Y2721449D01*
X1959961Y2732216D01*
X1972174Y2727573D01*
Y2693014D01*
X1961615Y2685959D01*
X1954632Y2688851D01*
Y2632253D01*
X1941932D01*
Y2619553D01*
X1885334D01*
X1893482Y2599880D01*
X1909559Y2583803D01*
X1923739Y2577930D01*
X1927139Y2563370D01*
X1838325Y2474555D01*
X1716126D01*
X1708928Y2471574D01*
X1704434D01*
Y2469657D01*
X1699630Y2458060D01*
Y2109673D01*
X1704461Y2098009D01*
X2020590Y1781881D01*
X2023707Y1780589D01*
Y1776046D01*
X2152187D01*
Y2078054D01*
X2164887Y2083314D01*
X2174074Y2074127D01*
X2193747Y2065978D01*
Y2122576D01*
X2219147D01*
Y2065978D01*
X2238820Y2074127D01*
X2248007Y2083314D01*
X2260707Y2078054D01*
Y1776046D01*
X2265495D01*
X2265751Y1775429D01*
X2275415Y1765765D01*
Y1749022D01*
X1225119Y698727D01*
X972800D01*
X944928Y726600D01*
Y824091D01*
X942222Y844646D01*
X934288Y863800D01*
X921667Y880249D01*
X906945Y891545D01*
Y948103D01*
X1009729Y1050887D01*
X1074837Y1050887D01*
X1080969Y1040726D01*
X1082741Y1040726D01*
X1082742Y1040727D01*
X1138669D01*
Y1116127D01*
Y1191527D01*
X1082742D01*
X1082741Y1191527D01*
X1080968D01*
X1077778Y1186240D01*
X1063512Y1184951D01*
X1058116Y1190347D01*
Y1239672D01*
X1079856D01*
Y1299036D01*
X1092556Y1304533D01*
X1102177Y1297150D01*
X1118242Y1290496D01*
X1135482Y1288226D01*
X1137706Y1288519D01*
X1171608Y1254616D01*
X1171609Y1254616D01*
X1186312Y1244792D01*
X1203655Y1241342D01*
X1229716D01*
Y1239672D01*
X1355446D01*
Y1244928D01*
X1392822D01*
Y1227096D01*
X1523301D01*
Y1227096D01*
X1534757D01*
Y1227096D01*
X1665237D01*
Y1347576D01*
X1675397Y1351936D01*
Y1409636D01*
X1599997D01*
Y1422336D01*
X1587297D01*
Y1492736D01*
X1470762D01*
Y1422336D01*
X1445362D01*
Y1492736D01*
X1387357D01*
X1381697Y1505036D01*
X1468377Y1591716D01*
X1473860D01*
X1491131Y1598870D01*
X1504349Y1612089D01*
X1511503Y1629359D01*
Y1648053D01*
X1504349Y1665324D01*
X1491131Y1678542D01*
X1473860Y1685696D01*
X1455166D01*
X1437896Y1678542D01*
X1424677Y1665324D01*
X1417523Y1648053D01*
Y1629359D01*
X1419843Y1623758D01*
X1315158Y1519072D01*
X1229716D01*
Y1435252D01*
X1219556D01*
Y1392072D01*
X1292581D01*
Y1366672D01*
X1219556D01*
Y1359538D01*
X1214626Y1355343D01*
X1206856Y1353132D01*
X1202092Y1357452D01*
Y3370788D01*
X1208856Y3382504D01*
X1214222Y3402530D01*
Y3423263D01*
X1208856Y3443289D01*
X1198489Y3461244D01*
X1183829Y3475904D01*
X1165874Y3486270D01*
X1145848Y3491636D01*
X1138648D01*
X1133387Y3504336D01*
X1258552Y3629502D01*
X2241195D01*
X2244608Y3621262D01*
D02*
G37*
G36*
X2096770Y2193544D02*
X2135480Y2154834D01*
Y1793545D01*
X2032254D01*
X1716126Y2109673D01*
Y2458060D01*
X1845158D01*
X1999996Y2612898D01*
X2096770D01*
Y2193544D01*
D02*
G37*
G36*
X2670962Y2316124D02*
Y1767738D01*
X2296770D01*
X2277415Y1787093D01*
Y2548382D01*
X2270963Y2554834D01*
Y2612898D01*
X2374189D01*
X2670962Y2316124D01*
D02*
G37*
%LPC*%
G36*
X1883664Y3592075D02*
Y3548177D01*
X1927562D01*
X1919413Y3567850D01*
X1903337Y3583926D01*
X1883664Y3592075D01*
D02*
G37*
G36*
X1858264D02*
X1838591Y3583926D01*
X1822515Y3567850D01*
X1814366Y3548177D01*
X1858264D01*
Y3592075D01*
D02*
G37*
G36*
X1927562Y3522777D02*
X1883664D01*
Y3478879D01*
X1903337Y3487027D01*
X1919413Y3503104D01*
X1927562Y3522777D01*
D02*
G37*
G36*
X1858264D02*
X1814366D01*
X1822515Y3503104D01*
X1838591Y3487027D01*
X1858264Y3478879D01*
Y3522777D01*
D02*
G37*
G36*
X2063218Y3516603D02*
X2018018D01*
Y3451403D01*
X2063218D01*
Y3516603D01*
D02*
G37*
G36*
X1992618D02*
X1947418D01*
Y3451403D01*
X1992618D01*
Y3516603D01*
D02*
G37*
G36*
X2063218Y3426003D02*
X2005318D01*
X1947418D01*
Y3361561D01*
X1947418Y3360803D01*
Y3348861D01*
X1947418Y3348103D01*
Y3293611D01*
X1934718Y3291085D01*
X1932317Y3296882D01*
X1916240Y3312959D01*
X1896567Y3321108D01*
Y3264510D01*
Y3207912D01*
X1916240Y3216060D01*
X1932317Y3232137D01*
X1934718Y3237935D01*
X1947418Y3235408D01*
Y3193820D01*
X1947418Y3193061D01*
Y3181120D01*
X1947418Y3180361D01*
Y3115920D01*
X2005318D01*
X2063218D01*
Y3180361D01*
X2063219Y3181120D01*
Y3193061D01*
X2063218Y3193820D01*
Y3258261D01*
X2005318D01*
Y3283661D01*
X2063218D01*
Y3348103D01*
X2063219Y3348861D01*
Y3360803D01*
X2063218Y3361561D01*
Y3426003D01*
D02*
G37*
G36*
X1871167Y3321108D02*
X1851494Y3312959D01*
X1835418Y3296882D01*
X1827269Y3277210D01*
X1871167D01*
Y3321108D01*
D02*
G37*
G36*
Y3251810D02*
X1827269D01*
X1835418Y3232137D01*
X1851494Y3216060D01*
X1871167Y3207912D01*
Y3251810D01*
D02*
G37*
G36*
X1893214Y3156661D02*
X1874520D01*
X1857250Y3149507D01*
X1844031Y3136289D01*
X1836877Y3119018D01*
Y3100324D01*
X1844031Y3083054D01*
X1857250Y3069835D01*
X1874520Y3062681D01*
X1893214D01*
X1910485Y3069835D01*
X1923703Y3083054D01*
X1930857Y3100324D01*
Y3119018D01*
X1923703Y3136289D01*
X1910485Y3149507D01*
X1893214Y3156661D01*
D02*
G37*
G36*
X2063218Y3090520D02*
X2005318D01*
X1947418D01*
Y3026078D01*
X1947418Y3025320D01*
Y3013378D01*
X1947418Y3012619D01*
Y2964579D01*
X1934718Y2962053D01*
X1932317Y2967851D01*
X1916240Y2983927D01*
X1896567Y2992076D01*
Y2935478D01*
Y2878880D01*
X1916240Y2887029D01*
X1932317Y2903105D01*
X1934718Y2908903D01*
X1947418Y2906377D01*
Y2857578D01*
X1992618D01*
Y2935478D01*
X2005318D01*
Y2948178D01*
X2063218D01*
Y3012619D01*
X2063219Y3013378D01*
Y3025320D01*
X2063218Y3026078D01*
Y3090520D01*
D02*
G37*
G36*
X1871167Y2992076D02*
X1851494Y2983927D01*
X1835418Y2967851D01*
X1827269Y2948178D01*
X1871167D01*
Y2992076D01*
D02*
G37*
G36*
Y2922778D02*
X1827269D01*
X1835418Y2903105D01*
X1851494Y2887029D01*
X1871167Y2878880D01*
Y2922778D01*
D02*
G37*
G36*
X2063218D02*
X2018018D01*
Y2857578D01*
X2063218D01*
Y2922778D01*
D02*
G37*
G36*
X1929232Y2688851D02*
X1909559Y2680702D01*
X1893482Y2664626D01*
X1885334Y2644953D01*
X1929232D01*
Y2688851D01*
D02*
G37*
G36*
X1806245Y2604980D02*
Y2561082D01*
X1850143D01*
X1841994Y2580755D01*
X1825918Y2596831D01*
X1806245Y2604980D01*
D02*
G37*
G36*
X1780845D02*
X1761172Y2596831D01*
X1745095Y2580755D01*
X1736947Y2561082D01*
X1780845D01*
Y2604980D01*
D02*
G37*
G36*
X1850143Y2535682D02*
X1806245D01*
Y2491784D01*
X1825918Y2499933D01*
X1841994Y2516009D01*
X1850143Y2535682D01*
D02*
G37*
G36*
X1780845D02*
X1736947D01*
X1745095Y2516009D01*
X1761172Y2499933D01*
X1780845Y2491784D01*
Y2535682D01*
D02*
G37*
G36*
X1303020Y1688853D02*
Y1644955D01*
X1346918D01*
X1338769Y1664628D01*
X1322693Y1680704D01*
X1303020Y1688853D01*
D02*
G37*
G36*
X1277620D02*
X1257947Y1680704D01*
X1241871Y1664628D01*
X1233722Y1644955D01*
X1277620D01*
Y1688853D01*
D02*
G37*
G36*
X1346918Y1619555D02*
X1303020D01*
Y1575657D01*
X1322693Y1583805D01*
X1338769Y1599882D01*
X1346918Y1619555D01*
D02*
G37*
G36*
X1277620D02*
X1233722D01*
X1241871Y1599882D01*
X1257947Y1583805D01*
X1277620Y1575657D01*
Y1619555D01*
D02*
G37*
G36*
X1675397Y1492736D02*
X1612697D01*
Y1435036D01*
X1675397D01*
Y1492736D01*
D02*
G37*
G36*
X1367536Y1179176D02*
Y1135278D01*
X1411434D01*
X1403285Y1154951D01*
X1387209Y1171028D01*
X1367536Y1179176D01*
D02*
G37*
G36*
X1342136D02*
X1322463Y1171028D01*
X1306387Y1154951D01*
X1298238Y1135278D01*
X1342136D01*
Y1179176D01*
D02*
G37*
G36*
X1221769Y1191527D02*
X1164069D01*
Y1128827D01*
X1221769D01*
Y1191527D01*
D02*
G37*
G36*
X1411434Y1109878D02*
X1367536D01*
Y1065980D01*
X1387209Y1074129D01*
X1403285Y1090206D01*
X1411434Y1109878D01*
D02*
G37*
G36*
X1342136D02*
X1298238D01*
X1306387Y1090206D01*
X1322463Y1074129D01*
X1342136Y1065980D01*
Y1109878D01*
D02*
G37*
G36*
X1221769Y1103427D02*
X1164069D01*
Y1040727D01*
X1221769D01*
Y1103427D01*
D02*
G37*
G36*
X1140749Y899330D02*
X990269D01*
Y748851D01*
X1140749D01*
Y899330D01*
D02*
G37*
%LPD*%
D10*
X868144Y1367739D02*
D03*
X693144D02*
D03*
X868143Y1541932D02*
D03*
X693143D02*
D03*
D11*
X5192406Y5708612D02*
X5199696Y5701322D01*
X3318430Y1331421D02*
X5199696Y3212687D01*
X5192406Y5708612D02*
Y5883489D01*
X5199696Y3212687D02*
Y5701322D01*
X3572430Y1527947D02*
X5242406Y3197923D01*
Y5883489D01*
X2810430Y938368D02*
X5032386Y3160324D01*
X3064430Y1134894D02*
X5073026Y3143491D01*
X5032386Y3160324D02*
Y5672738D01*
X5073026Y5655904D02*
X5092406Y5675284D01*
Y5796189D01*
X5140006Y5657909D02*
X5144806Y5662709D01*
X5042406Y5682758D02*
Y5796189D01*
X5140006Y5638470D02*
Y5657909D01*
X5073026Y3143491D02*
Y5655904D01*
X5032386Y5672738D02*
X5042406Y5682758D01*
X5142406Y5665109D02*
Y5883489D01*
X4842606Y5788467D02*
X4844755Y5786318D01*
Y5665104D02*
X4844806Y5665053D01*
Y5643266D02*
Y5665053D01*
X4842406Y5883489D02*
X4842606Y5883289D01*
Y5788467D02*
Y5883289D01*
X4844755Y5665104D02*
Y5786318D01*
X4833046Y5631505D02*
X4844806Y5643266D01*
X4742406Y3402976D02*
Y5883489D01*
X1794430Y455000D02*
X4742406Y3402976D01*
X2048430Y455000D02*
X4792406Y3198976D01*
Y5883489D01*
X4845152Y5624231D02*
X4852096Y5631175D01*
X4942406Y5682753D02*
Y5883489D01*
X2302430Y651526D02*
X4911786Y3260882D01*
Y5655900D01*
X4892406Y5675279D02*
X4911786Y5655900D01*
X4892406Y5675279D02*
Y5883489D01*
X4942406Y5682753D02*
X4952426Y5672733D01*
Y3244049D02*
Y5672733D01*
X2556430Y848053D02*
X4952426Y3244049D01*
X3826430Y1724474D02*
X5342606Y3240650D01*
Y5796189D01*
X5842406Y5683825D02*
X5852426Y5673805D01*
X5842406Y5683825D02*
Y5883489D01*
X5752096Y5632247D02*
Y5642557D01*
X5811786Y4554118D02*
Y5656971D01*
X5742406Y5652247D02*
X5752096Y5642557D01*
X5742406Y5652247D02*
Y5883489D01*
X5792406Y5676351D02*
X5811786Y5656971D01*
X5852426Y4570951D02*
Y5673805D01*
X5692406Y4616024D02*
Y5883489D01*
Y4616024D02*
X6524126Y3784304D01*
X5811786Y4554118D02*
X6564766Y3801138D01*
X5852426Y4570951D02*
X6605406Y3817972D01*
X5792406Y5676351D02*
Y5883489D01*
X5635346Y4615611D02*
Y5673805D01*
Y4615611D02*
X6483486Y3767471D01*
X5635346Y5673805D02*
X5642406Y5680865D01*
Y5883489D01*
X4334430Y2117526D02*
X5511786Y3294883D01*
X5445150Y5639193D02*
Y5721745D01*
X5542406Y5683825D02*
Y5883489D01*
X5492406Y5676351D02*
X5511786Y5656971D01*
X5552426Y4641057D02*
X6442846Y3750637D01*
X5445150Y5639193D02*
X5452096Y5632247D01*
X5492406Y5676351D02*
Y5883489D01*
X5392406Y3232976D02*
Y5883489D01*
X4080430Y1921000D02*
X5392406Y3232976D01*
X5511786Y3294883D02*
Y5656971D01*
X5542406Y5683825D02*
X5552426Y5673805D01*
Y4641057D02*
Y5673805D01*
X5442406Y5724489D02*
X5445150Y5721745D01*
X5442406Y5724489D02*
Y5883489D01*
X5642406Y6653687D02*
X5677408Y6688688D01*
X5642406Y6323489D02*
Y6653687D01*
X5677408Y6688688D02*
Y6774180D01*
X5742305Y6663475D02*
Y6849491D01*
X5692406Y6613576D02*
X5742305Y6663475D01*
X5692406Y6323489D02*
Y6613576D01*
X5541924Y6692903D02*
Y6703212D01*
Y6692903D02*
X5550002Y6684825D01*
Y6537577D02*
Y6684825D01*
X5542406Y6529982D02*
X5550002Y6537577D01*
X5542406Y6323489D02*
Y6529982D01*
X5492406Y6323489D02*
Y6511570D01*
X5490312Y6513665D02*
X5492406Y6511570D01*
X5490312Y6513665D02*
Y6632245D01*
X4554830Y5885116D02*
X4622817Y5953104D01*
X4554830Y5877408D02*
Y5885116D01*
X4622817Y5953104D02*
Y6003522D01*
X1927254Y2765962D02*
X2042897D01*
X2047574Y2770640D01*
X1922577Y2761285D02*
X1927254Y2765962D01*
X5792406Y6323489D02*
Y6566598D01*
X5793537Y6567729D01*
X1309726Y1473352D02*
X1457223Y1620850D01*
Y1631417D01*
X1292581Y1473352D02*
X1309726D01*
X1457223Y1631417D02*
X1464513Y1638706D01*
X6690309Y1286879D02*
Y5316118D01*
X4819345Y6058052D02*
X5948375D01*
X6690309Y5316118D01*
X4839579Y6128141D02*
X5949254D01*
X6730949Y5346446D01*
Y1270045D02*
Y5346446D01*
X4792606Y6175114D02*
Y6323289D01*
Y6175114D02*
X4839579Y6128141D01*
X4742606Y6134792D02*
X4819345Y6058052D01*
X4742606Y6134792D02*
Y6323289D01*
X5887015Y6470111D02*
X6039541D01*
X6771589Y5738063D01*
Y1253212D02*
Y5738063D01*
X5851966Y6420149D02*
Y6435062D01*
X5842406Y6410589D02*
X5851966Y6420149D01*
Y6435062D02*
X5887015Y6470111D01*
X5842406Y6323489D02*
Y6410589D01*
X6366430Y848053D02*
X6771589Y1253212D01*
X6366430Y455000D02*
Y848053D01*
X6442846Y2197693D02*
Y3750637D01*
X6524126Y1882696D02*
Y3784304D01*
X6483486Y2096056D02*
Y3767471D01*
X6564766Y1865862D02*
Y3801138D01*
X6605406Y1455976D02*
Y3817972D01*
X4792406Y6323489D02*
X4792606Y6323289D01*
X6112430Y651526D02*
X6730949Y1270045D01*
X6112430Y455000D02*
Y651526D01*
X4671364Y6052069D02*
X4692406D01*
X4622817Y6003522D02*
X4671364Y6052069D01*
X4692406D02*
X4707285Y6037190D01*
Y6011790D02*
Y6037190D01*
X4692606Y5997111D02*
X4707285Y6011790D01*
X4692606Y5883689D02*
Y5997111D01*
X4692406Y5883489D02*
X4692606Y5883689D01*
X4692406Y6052069D02*
Y6323489D01*
X5858430Y455000D02*
X6690309Y1286879D01*
X4742406Y6323489D02*
X4742606Y6323289D01*
X4842430Y455000D02*
X6483486Y2096056D01*
X6185039Y2051609D02*
X6296762D01*
X5096430Y455000D02*
X6524126Y1882696D01*
X6296762Y2051609D02*
X6442846Y2197693D01*
X7242406Y2283489D02*
Y2723489D01*
X7038696Y2303221D02*
X7242206D01*
X7038696Y5870956D02*
X7242206D01*
X7242406Y5871156D02*
Y5883489D01*
X7242206Y5870956D02*
X7242406Y5871156D01*
X5092406Y2296570D02*
Y2723489D01*
X4954829Y2296770D02*
X5092206D01*
X5092406Y2283489D02*
Y2296570D01*
X5092206Y2296770D02*
X5092406Y2296570D01*
X7242406Y5883489D02*
Y6323489D01*
X259000Y4837300D02*
X2488918D01*
X4143687Y6492069D02*
X4883313D01*
X2488918Y4837300D02*
X4143687Y6492069D01*
X4167563Y6451429D02*
X4866479D01*
X259000Y4583300D02*
X2299434D01*
X4167563Y6451429D01*
X259000Y5091300D02*
X2678402D01*
X4119811Y6532709D02*
X4935199D01*
X2678402Y5091300D02*
X4119811Y6532709D01*
X1892573Y5249348D02*
X2772159D01*
X1796621Y5345300D02*
X1892573Y5249348D01*
X259000Y5345300D02*
X1796621D01*
X1916450Y5289988D02*
X2755325D01*
X259000Y5599300D02*
X1607138D01*
X1916450Y5289988D01*
X259000Y6107300D02*
X1222279D01*
X259000Y6361300D02*
X1025753D01*
X1418806Y5853300D02*
X1941478Y5330628D01*
X1975145Y5411908D02*
X2704824D01*
X1025753Y6361300D02*
X1975145Y5411908D01*
X1941478Y5330628D02*
X2738491D01*
X1222279Y6107300D02*
X1958311Y5371268D01*
X259000Y5853300D02*
X1418806D01*
X1958311Y5371268D02*
X2721658D01*
X2738491Y5330628D02*
X4062493Y6654629D01*
X2721658Y5371268D02*
X4045659Y6695269D01*
X2755325Y5289988D02*
X4079326Y6613989D01*
X5392206Y6323689D02*
Y6433176D01*
X5089473Y6735909D02*
X5392206Y6433176D01*
X4028826Y6735909D02*
X5089473D01*
X2772159Y5249348D02*
X4096160Y6573349D01*
X5392206Y6323689D02*
X5392406Y6323489D01*
X2704824Y5411908D02*
X4028826Y6735909D01*
X4883313Y6492069D02*
X4942206Y6433176D01*
X4935199Y6532709D02*
X5042206Y6425702D01*
X4952033Y6573349D02*
X5092206Y6433176D01*
X4079326Y6613989D02*
X5003919D01*
X5192206Y6425702D01*
X4062493Y6654629D02*
X5048573D01*
X5342206Y6323689D02*
X5342406Y6323489D01*
X5342206Y6323689D02*
Y6425702D01*
X5072639Y6695269D02*
X5342206Y6425702D01*
X4045659Y6695269D02*
X5072639D01*
X5048573Y6654629D02*
X5242406Y6460796D01*
X4096160Y6573349D02*
X4952033D01*
X4866479Y6451429D02*
X4892206Y6425702D01*
X5192206Y6323689D02*
Y6425702D01*
X4892206Y6323689D02*
Y6425702D01*
X5242406Y6323489D02*
Y6460796D01*
X5192206Y6323689D02*
X5192406Y6323489D01*
X5092206Y6323689D02*
X5092406Y6323489D01*
X5092206Y6323689D02*
Y6433176D01*
X5042206Y6323689D02*
X5042406Y6323489D01*
X5042206Y6323689D02*
Y6425702D01*
X4942206Y6323689D02*
X4942406Y6323489D01*
X4942206Y6323689D02*
Y6433176D01*
X4892206Y6323689D02*
X4892406Y6323489D01*
X5604430Y455000D02*
X6605406Y1455976D01*
X5350430Y651526D02*
X6564766Y1865862D01*
X5350430Y455000D02*
Y651526D01*
X4588430Y455000D02*
X6185039Y2051609D01*
X4334430Y455000D02*
Y2117526D01*
X4080430Y455000D02*
Y1921000D01*
X3826430Y455000D02*
Y1724474D01*
X3572430Y455000D02*
Y1527947D01*
X3318430Y455000D02*
Y1331421D01*
X3064430Y455000D02*
Y1134894D01*
X2810430Y455000D02*
Y938368D01*
X2556430Y455000D02*
Y848053D01*
X2302430Y455000D02*
Y651526D01*
D12*
X1258016Y619308D02*
X2354834Y1716126D01*
X939904Y619308D02*
X1258016D01*
X2354834Y1716126D02*
Y1859884D01*
X2456237Y1961286D01*
X865509Y693703D02*
X939904Y619308D01*
X865509Y693703D02*
Y824091D01*
D13*
X1135482Y1354836D02*
Y3412896D01*
D14*
X1458062Y1422336D02*
X1599997D01*
X1453062D02*
X1458062D01*
X1292581Y1379372D02*
X1297661Y1384452D01*
X1415178D01*
X1453062Y1422336D01*
X865509Y824091D02*
Y965267D01*
X1016369Y1111127D02*
Y1116127D01*
X996769Y1091527D02*
X1016369Y1111127D01*
X865509Y965267D02*
X991769Y1091527D01*
X996769D01*
X1016369Y1116127D02*
X1016680Y1116438D01*
X1458062Y1287336D02*
X1599997D01*
X1293552Y1286364D02*
X1457090D01*
X1458062Y1287336D01*
X1292581Y1285392D02*
X1293552Y1286364D01*
X868143Y1531932D02*
X900243Y1499832D01*
X868143Y1531932D02*
Y1541932D01*
X900243Y1499832D02*
X973366D01*
X999846Y1473352D01*
X1016991D01*
X868144Y1367739D02*
X874697Y1374292D01*
X1011911D01*
X1016991Y1379372D01*
X1016680Y1116438D02*
Y1285082D01*
X1016991Y1285392D01*
D15*
X2452092Y2935478D02*
X2462092Y2945478D01*
Y3093220D01*
X2472092Y3103220D01*
X2452092Y2799994D02*
X2470963Y2781123D01*
X2452092Y2799994D02*
Y2935478D01*
X2470963Y2781123D02*
X2619833D01*
X2664511Y2825801D01*
X2322574Y2770640D02*
X2327816Y2775882D01*
X2465721D01*
X2470963Y2781123D01*
X2167198Y5620328D02*
Y6289771D01*
X2442101Y6564673D02*
Y6874600D01*
X2167198Y6289771D02*
X2442101Y6564673D01*
X2121478Y5574608D02*
X2121478D01*
X2167198Y5620328D01*
X2061718Y5514848D02*
X2121478Y5574608D01*
X2061718Y5768848D02*
Y6293968D01*
X2357100Y6589350D02*
Y6874600D01*
X2061718Y6293968D02*
X2357100Y6589350D01*
Y6878667D02*
X2435496Y6957062D01*
Y7002995D02*
X2442101Y7009600D01*
X2357100Y6874600D02*
Y6878667D01*
X2435496Y6957062D02*
Y7002995D01*
X2687613Y7174179D02*
X3161284D01*
X2527101Y7013667D02*
X2687613Y7174179D01*
X2527101Y7009600D02*
Y7013667D01*
D16*
X865509Y824091D02*
D03*
X8531229D02*
D03*
D17*
X1065509D02*
D03*
X8731229D02*
D03*
D18*
X2102100Y7009600D02*
D03*
X2187101D02*
D03*
X2272100D02*
D03*
X2357100D02*
D03*
X2442101D02*
D03*
X2527101D02*
D03*
X2612100D02*
D03*
X2697101D02*
D03*
Y6874600D02*
D03*
X2612100D02*
D03*
X2527101D02*
D03*
X2442101D02*
D03*
X2357100D02*
D03*
X2272100D02*
D03*
X2187101D02*
D03*
X2102100D02*
D03*
D19*
X2832101Y6972600D02*
D03*
X1967100D02*
D03*
D20*
X2832101Y7310600D02*
D03*
X1967100D02*
D03*
D21*
X259000Y6361300D02*
D03*
Y6107300D02*
D03*
Y5853300D02*
D03*
Y5599300D02*
D03*
Y5345300D02*
D03*
Y5091300D02*
D03*
Y4837300D02*
D03*
Y4583300D02*
D03*
Y4329300D02*
D03*
Y4075300D02*
D03*
Y3821300D02*
D03*
Y3567300D02*
D03*
Y3313300D02*
D03*
Y3059300D02*
D03*
Y2805300D02*
D03*
Y2551300D02*
D03*
Y2297300D02*
D03*
Y2043300D02*
D03*
Y1789300D02*
D03*
X2048430Y455000D02*
D03*
X2302430D02*
D03*
X2556430D02*
D03*
X2810430D02*
D03*
X3064430D02*
D03*
X3318430D02*
D03*
X3572430D02*
D03*
X3826430D02*
D03*
X4080430D02*
D03*
X4334430D02*
D03*
X4588430D02*
D03*
X4842430D02*
D03*
X5096430D02*
D03*
X5350430D02*
D03*
X5604430D02*
D03*
X5858430D02*
D03*
X6112430D02*
D03*
X6366430D02*
D03*
X6620430D02*
D03*
X6874430D02*
D03*
X7128430D02*
D03*
X7382430D02*
D03*
X7636430D02*
D03*
X7890430D02*
D03*
X2061718Y5768848D02*
D03*
D22*
X259000Y1535300D02*
D03*
X2061718Y5514848D02*
D03*
D23*
X1794430Y455000D02*
D03*
D24*
X9425860Y1535300D02*
D03*
Y6361300D02*
D03*
D25*
X8116113Y6109665D02*
D03*
X7580630Y6103214D02*
D03*
X8109661Y2496769D02*
D03*
X7587082D02*
D03*
X6006440Y2503221D02*
D03*
X5464505D02*
D03*
X5140006Y5638470D02*
D03*
X4852096Y5631175D02*
D03*
X5452096Y5631180D02*
D03*
X5752096D02*
D03*
X5412892Y6503213D02*
D03*
X5980633Y5883859D02*
D03*
X4612894Y5703214D02*
D03*
X2587092Y2535479D02*
D03*
X2180641Y2580640D02*
D03*
X2206447Y2122576D02*
D03*
X1883867Y2935478D02*
D03*
X1793545Y2548382D02*
D03*
X1883867Y3109671D02*
D03*
Y3264510D02*
D03*
X1941932Y2632253D02*
D03*
X1870964Y3535477D02*
D03*
X961288Y1729029D02*
D03*
X1354836Y1122578D02*
D03*
X851611Y1187094D02*
D03*
X1290320Y1632255D02*
D03*
X5677408Y6774180D02*
D03*
X5742305Y6849491D02*
D03*
X5541924Y6703212D02*
D03*
X5490312Y6632245D02*
D03*
X1922577Y2761285D02*
D03*
X5793537Y6567729D02*
D03*
X1464513Y1638706D02*
D03*
X2645156Y3477412D02*
D03*
X2729027Y3270961D02*
D03*
Y3477412D02*
D03*
Y3677412D02*
D03*
X2638704D02*
D03*
Y3270961D02*
D03*
X2419350Y2503221D02*
D03*
X3161284Y7174179D02*
D03*
D26*
X4554830Y5877408D02*
D03*
X1135482Y3412896D02*
D03*
X7038696Y2303221D02*
D03*
Y5870956D02*
D03*
X4954829Y2296770D02*
D03*
D27*
X1909674Y2354834D02*
D03*
D28*
X2325560Y2425802D02*
D03*
X2190560D02*
D03*
X1151369Y1116127D02*
D03*
X1016369D02*
D03*
X2190560Y2277415D02*
D03*
X2325560D02*
D03*
D29*
X2452092Y2935478D02*
D03*
X2322092D02*
D03*
D30*
X2302092Y3103220D02*
D03*
X2472092D02*
D03*
X2175318Y2935478D02*
D03*
X2005318D02*
D03*
X2175318Y3103220D02*
D03*
X2005318D02*
D03*
X2175318Y3270961D02*
D03*
X2005318D02*
D03*
X2175318Y3438703D02*
D03*
X2005318D02*
D03*
D31*
X2374189Y3412896D02*
D03*
X2664511Y2825801D02*
D03*
X2567737Y1961286D02*
D03*
D32*
X2470963Y2651123D02*
D03*
Y2781123D02*
D03*
D33*
X1292581Y1473352D02*
D03*
Y1379372D02*
D03*
Y1285392D02*
D03*
X1016991D02*
D03*
Y1379372D02*
D03*
Y1473352D02*
D03*
D34*
X1599997Y1287336D02*
D03*
Y1422336D02*
D03*
X1458062Y1287336D02*
D03*
Y1422336D02*
D03*
D35*
X2087947Y1961286D02*
D03*
X2324947D02*
D03*
D36*
X2322574Y2580640D02*
D03*
Y2675640D02*
D03*
Y2770640D02*
D03*
X2047574D02*
D03*
Y2675640D02*
D03*
Y2580640D02*
D03*
D37*
X6292406Y2723489D02*
D03*
X6242406D02*
D03*
X6192406D02*
D03*
X6142406D02*
D03*
X5942406D02*
D03*
X5992406D02*
D03*
X6092406D02*
D03*
X5892406D02*
D03*
X6042406D02*
D03*
X5842406D02*
D03*
X5792406D02*
D03*
X5592406D02*
D03*
X5642406D02*
D03*
X5742406D02*
D03*
X5542406D02*
D03*
X5692406D02*
D03*
X5492406D02*
D03*
X5442406D02*
D03*
X5242406D02*
D03*
X5292406D02*
D03*
X5392406D02*
D03*
X5192406D02*
D03*
X5342406D02*
D03*
X5142406D02*
D03*
X5092406D02*
D03*
X6292406Y2283489D02*
D03*
X6242406D02*
D03*
X6192406D02*
D03*
X6142406D02*
D03*
X5942406D02*
D03*
X5992406D02*
D03*
X6092406D02*
D03*
X5892406D02*
D03*
X6042406D02*
D03*
X5842406D02*
D03*
X5792406D02*
D03*
X5592406D02*
D03*
X5642406D02*
D03*
X5742406D02*
D03*
X5542406D02*
D03*
X5692406D02*
D03*
X5492406D02*
D03*
X5442406D02*
D03*
X5242406D02*
D03*
X5292406D02*
D03*
X5392406D02*
D03*
X5192406D02*
D03*
X5342406D02*
D03*
X5142406D02*
D03*
X5092406D02*
D03*
X8442406Y2723489D02*
D03*
X8392406D02*
D03*
X8342406D02*
D03*
X8292406D02*
D03*
X8092406D02*
D03*
X8142406D02*
D03*
X8242406D02*
D03*
X8042406D02*
D03*
X8192406D02*
D03*
X7992406D02*
D03*
X7942406D02*
D03*
X7742406D02*
D03*
X7792406D02*
D03*
X7892406D02*
D03*
X7692406D02*
D03*
X7842406D02*
D03*
X7642406D02*
D03*
X7592406D02*
D03*
X7392406D02*
D03*
X7442406D02*
D03*
X7542406D02*
D03*
X7342406D02*
D03*
X7492406D02*
D03*
X7292406D02*
D03*
X7242406D02*
D03*
X8442406Y2283489D02*
D03*
X8392406D02*
D03*
X8342406D02*
D03*
X8292406D02*
D03*
X8092406D02*
D03*
X8142406D02*
D03*
X8242406D02*
D03*
X8042406D02*
D03*
X8192406D02*
D03*
X7992406D02*
D03*
X7942406D02*
D03*
X7742406D02*
D03*
X7792406D02*
D03*
X7892406D02*
D03*
X7692406D02*
D03*
X7842406D02*
D03*
X7642406D02*
D03*
X7592406D02*
D03*
X7392406D02*
D03*
X7442406D02*
D03*
X7542406D02*
D03*
X7342406D02*
D03*
X7492406D02*
D03*
X7292406D02*
D03*
X7242406D02*
D03*
X8442406Y6323489D02*
D03*
X8392406D02*
D03*
X8342406D02*
D03*
X8292406D02*
D03*
X8092406D02*
D03*
X8142406D02*
D03*
X8242406D02*
D03*
X8042406D02*
D03*
X8192406D02*
D03*
X7992406D02*
D03*
X7942406D02*
D03*
X7742406D02*
D03*
X7792406D02*
D03*
X7892406D02*
D03*
X7692406D02*
D03*
X7842406D02*
D03*
X7642406D02*
D03*
X7592406D02*
D03*
X7392406D02*
D03*
X7442406D02*
D03*
X7542406D02*
D03*
X7342406D02*
D03*
X7492406D02*
D03*
X7292406D02*
D03*
X7242406D02*
D03*
X8442406Y5883489D02*
D03*
X8392406D02*
D03*
X8342406D02*
D03*
X8292406D02*
D03*
X8092406D02*
D03*
X8142406D02*
D03*
X8242406D02*
D03*
X8042406D02*
D03*
X8192406D02*
D03*
X7992406D02*
D03*
X7942406D02*
D03*
X7742406D02*
D03*
X7792406D02*
D03*
X7892406D02*
D03*
X7692406D02*
D03*
X7842406D02*
D03*
X7642406D02*
D03*
X7592406D02*
D03*
X7392406D02*
D03*
X7442406D02*
D03*
X7542406D02*
D03*
X7342406D02*
D03*
X7492406D02*
D03*
X7292406D02*
D03*
X7242406D02*
D03*
X5892406Y6323489D02*
D03*
X5842406D02*
D03*
X5792406D02*
D03*
X5742406D02*
D03*
X5542406D02*
D03*
X5592406D02*
D03*
X5692406D02*
D03*
X5492406D02*
D03*
X5642406D02*
D03*
X5442406D02*
D03*
X5392406D02*
D03*
X5192406D02*
D03*
X5242406D02*
D03*
X5342406D02*
D03*
X5142406D02*
D03*
X5292406D02*
D03*
X5092406D02*
D03*
X5042406D02*
D03*
X4842406D02*
D03*
X4892406D02*
D03*
X4992406D02*
D03*
X4792406D02*
D03*
X4942406D02*
D03*
X4742406D02*
D03*
X4692406D02*
D03*
X5892406Y5883489D02*
D03*
X5842406D02*
D03*
X5792406D02*
D03*
X5742406D02*
D03*
X5542406D02*
D03*
X5592406D02*
D03*
X5692406D02*
D03*
X5492406D02*
D03*
X5642406D02*
D03*
X5442406D02*
D03*
X5392406D02*
D03*
X5192406D02*
D03*
X5242406D02*
D03*
X5342406D02*
D03*
X5142406D02*
D03*
X5292406D02*
D03*
X5092406D02*
D03*
X5042406D02*
D03*
X4842406D02*
D03*
X4892406D02*
D03*
X4992406D02*
D03*
X4792406D02*
D03*
X4942406D02*
D03*
X4742406D02*
D03*
X4692406D02*
D03*
D38*
X1135482Y1354836D02*
X1203655Y1286662D01*
X1291311D01*
X1292581Y1285392D01*
X2175318Y2735396D02*
Y2935478D01*
Y2735396D02*
X2234284Y2676430D01*
X2321784D01*
X2322574Y2675640D01*
D39*
X1238707Y3677412D02*
X2638704D01*
X999998Y3438703D02*
X1238707Y3677412D01*
X999998Y2530298D02*
Y3438703D01*
X259000Y1789300D02*
X999998Y2530298D01*
%TF.MD5,2b22a022ae6cf24ec73ffce0fed059ba*%
M02*
