%TF.GenerationSoftware,Altium Limited,Altium Designer,22.7.1 (60)*%
G04 Layer_Color=16711935*
%FSLAX45Y45*%
%MOMM*%
%TF.SameCoordinates,3BEA7849-7BF4-4C83-8F54-36563B6BDC8B*%
%TF.FilePolarity,Negative*%
%TF.FileFunction,Soldermask,Bot*%
%TF.Part,Single*%
G01*
G75*
%TA.AperFunction,ComponentPad*%
%ADD18C,0.65000*%
G04:AMPARAMS|DCode=19|XSize=0.9mm|YSize=2.4mm|CornerRadius=0.45mm|HoleSize=0mm|Usage=FLASHONLY|Rotation=0.000|XOffset=0mm|YOffset=0mm|HoleType=Round|Shape=RoundedRectangle|*
%AMROUNDEDRECTD19*
21,1,0.90000,1.50000,0,0,0.0*
21,1,0.00000,2.40000,0,0,0.0*
1,1,0.90000,0.00000,-0.75000*
1,1,0.90000,0.00000,-0.75000*
1,1,0.90000,0.00000,0.75000*
1,1,0.90000,0.00000,0.75000*
%
%ADD19ROUNDEDRECTD19*%
G04:AMPARAMS|DCode=20|XSize=0.9mm|YSize=1.7mm|CornerRadius=0.45mm|HoleSize=0mm|Usage=FLASHONLY|Rotation=0.000|XOffset=0mm|YOffset=0mm|HoleType=Round|Shape=RoundedRectangle|*
%AMROUNDEDRECTD20*
21,1,0.90000,0.80000,0,0,0.0*
21,1,0.00000,1.70000,0,0,0.0*
1,1,0.90000,0.00000,-0.40000*
1,1,0.90000,0.00000,-0.40000*
1,1,0.90000,0.00000,0.40000*
1,1,0.90000,0.00000,0.40000*
%
%ADD20ROUNDEDRECTD20*%
%TA.AperFunction,SMDPad,CuDef*%
%ADD33R,0.95250X0.60960*%
%ADD35R,0.98000X3.40000*%
%ADD47R,4.00320X2.23320*%
%ADD48R,1.10320X1.20320*%
%ADD49R,1.05320X1.15320*%
%ADD50R,0.85320X1.25320*%
%ADD51R,2.23320X4.00320*%
%ADD52R,1.15320X1.05320*%
%ADD53R,1.35320X1.55320*%
%ADD54R,1.20320X1.10320*%
%ADD55R,1.20320X0.80320*%
%ADD56R,0.45320X2.20320*%
%TA.AperFunction,ComponentPad*%
%ADD57C,1.40320*%
%ADD58R,1.40320X1.40320*%
%ADD59C,1.70320*%
%ADD60R,1.70320X1.70320*%
%ADD61R,1.70320X1.70320*%
%TA.AperFunction,ViaPad*%
%ADD62C,1.70320*%
%ADD63C,0.83820*%
%ADD64C,1.47320*%
D18*
X2102100Y7009600D02*
D03*
X2187101D02*
D03*
X2272100D02*
D03*
X2357100D02*
D03*
X2442101D02*
D03*
X2527101D02*
D03*
X2612100D02*
D03*
X2697101D02*
D03*
Y6874600D02*
D03*
X2612100D02*
D03*
X2527101D02*
D03*
X2442101D02*
D03*
X2357100D02*
D03*
X2272100D02*
D03*
X2187101D02*
D03*
X2102100D02*
D03*
D19*
X2832101Y6972600D02*
D03*
X1967100D02*
D03*
D20*
X2832101Y7310600D02*
D03*
X1967100D02*
D03*
D33*
X1292581Y1473352D02*
D03*
Y1379372D02*
D03*
Y1285392D02*
D03*
X1016991D02*
D03*
Y1379372D02*
D03*
Y1473352D02*
D03*
D35*
X2087947Y1961286D02*
D03*
X2324947D02*
D03*
D47*
X1909674Y2354834D02*
D03*
D48*
X2325560Y2425802D02*
D03*
X2190560D02*
D03*
X1151369Y1116127D02*
D03*
X1016369D02*
D03*
X2190560Y2277415D02*
D03*
X2325560D02*
D03*
D49*
X2452092Y2935478D02*
D03*
X2322092D02*
D03*
D50*
X2302092Y3103220D02*
D03*
X2472092D02*
D03*
X2175318Y2935478D02*
D03*
X2005318D02*
D03*
X2175318Y3103220D02*
D03*
X2005318D02*
D03*
X2175318Y3270961D02*
D03*
X2005318D02*
D03*
X2175318Y3438703D02*
D03*
X2005318D02*
D03*
D51*
X2374189Y3412896D02*
D03*
X2664511Y2825801D02*
D03*
X2567737Y1961286D02*
D03*
D52*
X2470963Y2651123D02*
D03*
Y2781123D02*
D03*
D53*
X868144Y1367739D02*
D03*
X693144D02*
D03*
X868143Y1541932D02*
D03*
X693143D02*
D03*
D54*
X1599997Y1287336D02*
D03*
Y1422336D02*
D03*
X1458062Y1287336D02*
D03*
Y1422336D02*
D03*
D55*
X2322574Y2580640D02*
D03*
Y2675640D02*
D03*
Y2770640D02*
D03*
X2047574D02*
D03*
Y2675640D02*
D03*
Y2580640D02*
D03*
D56*
X6292406Y2723489D02*
D03*
X6242406D02*
D03*
X6192406D02*
D03*
X6142406D02*
D03*
X5942406D02*
D03*
X5992406D02*
D03*
X6092406D02*
D03*
X5892406D02*
D03*
X6042406D02*
D03*
X5842406D02*
D03*
X5792406D02*
D03*
X5592406D02*
D03*
X5642406D02*
D03*
X5742406D02*
D03*
X5542406D02*
D03*
X5692406D02*
D03*
X5492406D02*
D03*
X5442406D02*
D03*
X5242406D02*
D03*
X5292406D02*
D03*
X5392406D02*
D03*
X5192406D02*
D03*
X5342406D02*
D03*
X5142406D02*
D03*
X5092406D02*
D03*
X6292406Y2283489D02*
D03*
X6242406D02*
D03*
X6192406D02*
D03*
X6142406D02*
D03*
X5942406D02*
D03*
X5992406D02*
D03*
X6092406D02*
D03*
X5892406D02*
D03*
X6042406D02*
D03*
X5842406D02*
D03*
X5792406D02*
D03*
X5592406D02*
D03*
X5642406D02*
D03*
X5742406D02*
D03*
X5542406D02*
D03*
X5692406D02*
D03*
X5492406D02*
D03*
X5442406D02*
D03*
X5242406D02*
D03*
X5292406D02*
D03*
X5392406D02*
D03*
X5192406D02*
D03*
X5342406D02*
D03*
X5142406D02*
D03*
X5092406D02*
D03*
X8442406Y2723489D02*
D03*
X8392406D02*
D03*
X8342406D02*
D03*
X8292406D02*
D03*
X8092406D02*
D03*
X8142406D02*
D03*
X8242406D02*
D03*
X8042406D02*
D03*
X8192406D02*
D03*
X7992406D02*
D03*
X7942406D02*
D03*
X7742406D02*
D03*
X7792406D02*
D03*
X7892406D02*
D03*
X7692406D02*
D03*
X7842406D02*
D03*
X7642406D02*
D03*
X7592406D02*
D03*
X7392406D02*
D03*
X7442406D02*
D03*
X7542406D02*
D03*
X7342406D02*
D03*
X7492406D02*
D03*
X7292406D02*
D03*
X7242406D02*
D03*
X8442406Y2283489D02*
D03*
X8392406D02*
D03*
X8342406D02*
D03*
X8292406D02*
D03*
X8092406D02*
D03*
X8142406D02*
D03*
X8242406D02*
D03*
X8042406D02*
D03*
X8192406D02*
D03*
X7992406D02*
D03*
X7942406D02*
D03*
X7742406D02*
D03*
X7792406D02*
D03*
X7892406D02*
D03*
X7692406D02*
D03*
X7842406D02*
D03*
X7642406D02*
D03*
X7592406D02*
D03*
X7392406D02*
D03*
X7442406D02*
D03*
X7542406D02*
D03*
X7342406D02*
D03*
X7492406D02*
D03*
X7292406D02*
D03*
X7242406D02*
D03*
X8442406Y6323489D02*
D03*
X8392406D02*
D03*
X8342406D02*
D03*
X8292406D02*
D03*
X8092406D02*
D03*
X8142406D02*
D03*
X8242406D02*
D03*
X8042406D02*
D03*
X8192406D02*
D03*
X7992406D02*
D03*
X7942406D02*
D03*
X7742406D02*
D03*
X7792406D02*
D03*
X7892406D02*
D03*
X7692406D02*
D03*
X7842406D02*
D03*
X7642406D02*
D03*
X7592406D02*
D03*
X7392406D02*
D03*
X7442406D02*
D03*
X7542406D02*
D03*
X7342406D02*
D03*
X7492406D02*
D03*
X7292406D02*
D03*
X7242406D02*
D03*
X8442406Y5883489D02*
D03*
X8392406D02*
D03*
X8342406D02*
D03*
X8292406D02*
D03*
X8092406D02*
D03*
X8142406D02*
D03*
X8242406D02*
D03*
X8042406D02*
D03*
X8192406D02*
D03*
X7992406D02*
D03*
X7942406D02*
D03*
X7742406D02*
D03*
X7792406D02*
D03*
X7892406D02*
D03*
X7692406D02*
D03*
X7842406D02*
D03*
X7642406D02*
D03*
X7592406D02*
D03*
X7392406D02*
D03*
X7442406D02*
D03*
X7542406D02*
D03*
X7342406D02*
D03*
X7492406D02*
D03*
X7292406D02*
D03*
X7242406D02*
D03*
X5892406Y6323489D02*
D03*
X5842406D02*
D03*
X5792406D02*
D03*
X5742406D02*
D03*
X5542406D02*
D03*
X5592406D02*
D03*
X5692406D02*
D03*
X5492406D02*
D03*
X5642406D02*
D03*
X5442406D02*
D03*
X5392406D02*
D03*
X5192406D02*
D03*
X5242406D02*
D03*
X5342406D02*
D03*
X5142406D02*
D03*
X5292406D02*
D03*
X5092406D02*
D03*
X5042406D02*
D03*
X4842406D02*
D03*
X4892406D02*
D03*
X4992406D02*
D03*
X4792406D02*
D03*
X4942406D02*
D03*
X4742406D02*
D03*
X4692406D02*
D03*
X5892406Y5883489D02*
D03*
X5842406D02*
D03*
X5792406D02*
D03*
X5742406D02*
D03*
X5542406D02*
D03*
X5592406D02*
D03*
X5692406D02*
D03*
X5492406D02*
D03*
X5642406D02*
D03*
X5442406D02*
D03*
X5392406D02*
D03*
X5192406D02*
D03*
X5242406D02*
D03*
X5342406D02*
D03*
X5142406D02*
D03*
X5292406D02*
D03*
X5092406D02*
D03*
X5042406D02*
D03*
X4842406D02*
D03*
X4892406D02*
D03*
X4992406D02*
D03*
X4792406D02*
D03*
X4942406D02*
D03*
X4742406D02*
D03*
X4692406D02*
D03*
D57*
X865509Y824091D02*
D03*
X8531229D02*
D03*
D58*
X1065509D02*
D03*
X8731229D02*
D03*
D59*
X259000Y6361300D02*
D03*
Y6107300D02*
D03*
Y5853300D02*
D03*
Y5599300D02*
D03*
Y5345300D02*
D03*
Y5091300D02*
D03*
Y4837300D02*
D03*
Y4583300D02*
D03*
Y4329300D02*
D03*
Y4075300D02*
D03*
Y3821300D02*
D03*
Y3567300D02*
D03*
Y3313300D02*
D03*
Y3059300D02*
D03*
Y2805300D02*
D03*
Y2551300D02*
D03*
Y2297300D02*
D03*
Y2043300D02*
D03*
Y1789300D02*
D03*
X2048430Y455000D02*
D03*
X2302430D02*
D03*
X2556430D02*
D03*
X2810430D02*
D03*
X3064430D02*
D03*
X3318430D02*
D03*
X3572430D02*
D03*
X3826430D02*
D03*
X4080430D02*
D03*
X4334430D02*
D03*
X4588430D02*
D03*
X4842430D02*
D03*
X5096430D02*
D03*
X5350430D02*
D03*
X5604430D02*
D03*
X5858430D02*
D03*
X6112430D02*
D03*
X6366430D02*
D03*
X6620430D02*
D03*
X6874430D02*
D03*
X7128430D02*
D03*
X7382430D02*
D03*
X7636430D02*
D03*
X7890430D02*
D03*
X2061718Y5768848D02*
D03*
D60*
X259000Y1535300D02*
D03*
X2061718Y5514848D02*
D03*
D61*
X1794430Y455000D02*
D03*
D62*
X9425860Y1535300D02*
D03*
Y6361300D02*
D03*
D63*
X8116113Y6109665D02*
D03*
X7580630Y6103214D02*
D03*
X8109661Y2496769D02*
D03*
X7587082D02*
D03*
X6006440Y2503221D02*
D03*
X5464505D02*
D03*
X5140006Y5638470D02*
D03*
X4852096Y5631175D02*
D03*
X5452096Y5631180D02*
D03*
X5752096D02*
D03*
X5412892Y6503213D02*
D03*
X5980633Y5883859D02*
D03*
X4612894Y5703214D02*
D03*
X2587092Y2535479D02*
D03*
X2180641Y2580640D02*
D03*
X2206447Y2122576D02*
D03*
X1883867Y2935478D02*
D03*
X1793545Y2548382D02*
D03*
X1883867Y3109671D02*
D03*
Y3264510D02*
D03*
X1941932Y2632253D02*
D03*
X1870964Y3535477D02*
D03*
X961288Y1729029D02*
D03*
X1354836Y1122578D02*
D03*
X851611Y1187094D02*
D03*
X1290320Y1632255D02*
D03*
X5677408Y6774180D02*
D03*
X5742305Y6849491D02*
D03*
X5541924Y6703212D02*
D03*
X5490312Y6632245D02*
D03*
X1922577Y2761285D02*
D03*
X5793537Y6567729D02*
D03*
X1464513Y1638706D02*
D03*
X2645156Y3477412D02*
D03*
X2729027Y3270961D02*
D03*
Y3477412D02*
D03*
Y3677412D02*
D03*
X2638704D02*
D03*
Y3270961D02*
D03*
X2419350Y2503221D02*
D03*
X3161284Y7174179D02*
D03*
D64*
X4554830Y5877408D02*
D03*
X1135482Y3412896D02*
D03*
X7038696Y2303221D02*
D03*
Y5870956D02*
D03*
X4954829Y2296770D02*
D03*
%TF.MD5,960d457d706175ef182b96aa1fcf8f9c*%
M02*
