%TF.GenerationSoftware,Altium Limited,Altium Designer,22.7.1 (60)*%
G04 Layer_Color=0*
%FSLAX45Y45*%
%MOMM*%
%TF.SameCoordinates,3BEA7849-7BF4-4C83-8F54-36563B6BDC8B*%
%TF.FilePolarity,Positive*%
%TF.FileFunction,Plated,1,2,PTH,Drill*%
%TF.Part,Single*%
G01*
G75*
%TA.AperFunction,ComponentDrill*%
%ADD67C,0.70000*%
%ADD68C,0.40000*%
%ADD69O,0.60000X2.10000*%
%ADD70O,0.60000X1.40000*%
%ADD71C,0.90000*%
%ADD72C,0.90000*%
%TA.AperFunction,OtherDrill,Pad Free-15 (94.259mm,15.353mm)*%
%ADD73C,0.90000*%
%TA.AperFunction,OtherDrill,Pad Free-15 (94.259mm,63.613mm)*%
%ADD74C,0.90000*%
%TA.AperFunction,ViaDrill,NotFilled*%
%ADD75C,0.38100*%
%ADD76C,0.76200*%
D67*
X865509Y824091D02*
D03*
X1065509D02*
D03*
X8731229D02*
D03*
X8531229D02*
D03*
D68*
X2102100Y7009600D02*
D03*
X2187101D02*
D03*
X2272100D02*
D03*
X2357100D02*
D03*
X2442101D02*
D03*
X2527101D02*
D03*
X2612100D02*
D03*
X2697101D02*
D03*
Y6874600D02*
D03*
X2612100D02*
D03*
X2527101D02*
D03*
X2442101D02*
D03*
X2357100D02*
D03*
X2272100D02*
D03*
X2187101D02*
D03*
X2102100D02*
D03*
D69*
X2832101Y6972600D02*
D03*
X1967100D02*
D03*
D70*
X2832101Y7310600D02*
D03*
X1967100D02*
D03*
D71*
X259000Y6361300D02*
D03*
Y6107300D02*
D03*
Y5853300D02*
D03*
Y5599300D02*
D03*
Y5345300D02*
D03*
Y5091300D02*
D03*
Y4837300D02*
D03*
Y4583300D02*
D03*
Y4329300D02*
D03*
Y4075300D02*
D03*
Y3821300D02*
D03*
Y3567300D02*
D03*
Y3313300D02*
D03*
Y3059300D02*
D03*
Y2805300D02*
D03*
Y2551300D02*
D03*
Y2297300D02*
D03*
Y2043300D02*
D03*
Y1789300D02*
D03*
Y1535300D02*
D03*
X2061718Y5514848D02*
D03*
Y5768848D02*
D03*
D72*
X1794430Y455000D02*
D03*
X2048430D02*
D03*
X2302430D02*
D03*
X2556430D02*
D03*
X2810430D02*
D03*
X3064430D02*
D03*
X3318430D02*
D03*
X3572430D02*
D03*
X3826430D02*
D03*
X4080430D02*
D03*
X4334430D02*
D03*
X4588430D02*
D03*
X4842430D02*
D03*
X5096430D02*
D03*
X5350430D02*
D03*
X5604430D02*
D03*
X5858430D02*
D03*
X6112430D02*
D03*
X6366430D02*
D03*
X6620430D02*
D03*
X6874430D02*
D03*
X7128430D02*
D03*
X7382430D02*
D03*
X7636430D02*
D03*
X7890430D02*
D03*
D73*
X9425860Y1535300D02*
D03*
D74*
Y6361300D02*
D03*
D75*
X8116113Y6109665D02*
D03*
X7580630Y6103214D02*
D03*
X8109661Y2496769D02*
D03*
X7587082D02*
D03*
X6006440Y2503221D02*
D03*
X5464505D02*
D03*
X5140006Y5638470D02*
D03*
X4852096Y5631175D02*
D03*
X5452096Y5631180D02*
D03*
X5752096D02*
D03*
X5412892Y6503213D02*
D03*
X5980633Y5883859D02*
D03*
X4612894Y5703214D02*
D03*
X2587092Y2535479D02*
D03*
X2180641Y2580640D02*
D03*
X2206447Y2122576D02*
D03*
X1883867Y2935478D02*
D03*
X1793545Y2548382D02*
D03*
X1883867Y3109671D02*
D03*
Y3264510D02*
D03*
X1941932Y2632253D02*
D03*
X1870964Y3535477D02*
D03*
X961288Y1729029D02*
D03*
X1354836Y1122578D02*
D03*
X851611Y1187094D02*
D03*
X1290320Y1632255D02*
D03*
X5677408Y6774180D02*
D03*
X5742305Y6849491D02*
D03*
X5541924Y6703212D02*
D03*
X5490312Y6632245D02*
D03*
X1922577Y2761285D02*
D03*
X5793537Y6567729D02*
D03*
X1464513Y1638706D02*
D03*
X2645156Y3477412D02*
D03*
X2729027Y3270961D02*
D03*
Y3477412D02*
D03*
Y3677412D02*
D03*
X2638704D02*
D03*
Y3270961D02*
D03*
X2419350Y2503221D02*
D03*
X3161284Y7174179D02*
D03*
D76*
X4554830Y5877408D02*
D03*
X1135482Y3412896D02*
D03*
X7038696Y2303221D02*
D03*
Y5870956D02*
D03*
X4954829Y2296770D02*
D03*
%TF.MD5,7b807431fa67976274cee7775d1de3eb*%
M02*
