<svg width="99.00000012mm" height="119.08716594mm" viewBox="0 0 38976378 46884711"  version="1.1" xmlns="http://www.w3.org/2000/svg" xmlns:xlink="http://www.w3.org/1999/xlink">
<desc>
Origin 0 0 Bound 10687011 14338257 38976378 46884711
</desc>
<g fill-rule="evenodd" fill="rgb(255, 0, 255)" stroke="black" stroke-width="1" transform="translate(0, 46884711) scale(1, -1) translate(-10687011, -14338257)">
<path id="N" d="M 20529530.00 60335658.00 L 20529531.00 59354371.00 A 989040.26 989040.26 0 0 0 19642219.00 58467060.00 L 16986224.00 58467059.00 L 16889750.00 58462319.00 A 984244.34 984244.34 0 0 1 16001972.00 57482808.00 L 16001973.00 36976052.00 L 16006712.00 36879578.00 A 984244.34 984244.34 0 0 1 16986224.00 35991800.00 L 43364176.00 35991801.00 L 43460649.00 35996540.00 A 984244.34 984244.34 0 0 1 44348428.00 36976052.00 L 44348428.00 59332834.00 A 989014.36 989014.36 0 0 0 45235739.00 60220146.00 L 48776077.00 60220146.00 A 989040.26 989040.26 0 0 0 49663389.00 59332834.00 L 49663388.00 34933107.00 A 989002.09 989002.09 0 0 0 49443654.00 34402624.00 L 47401446.00 32360414.00 L 47336581.00 32288846.00 A 984241.09 984241.09 0 0 1 47113167.00 31664444.00 L 47113167.00 14338257.00 L 13237233.00 14338257.00 L 13237233.00 31664445.00 L 13232493.00 31760918.00 A 984241.79 984241.79 0 0 1 12948952.00 32360416.00 L 10906744.00 34402623.00 A 989019.94 989019.94 0 0 0 10687011.00 34933107.00 L 10687011.00 59332834.00 A 989014.36 989014.36 0 0 0 11574322.00 60220146.00 L 11671263.00 60220146.00 L 13442917.00 61222968.00 L 19642219.00 61222968.00 A 989027.50 989027.50 0 0 0 20529530.00 60335658.00  zM 15036798.33 17195806.15 m -278596.85 0 a 278596.85 278596.85 0 1 1 557193.70 0a 278596.85 278596.85 0 1 1 -557193.70 0M 16100422.00 17472020.00 L 15547982.00 17472020.00 L 15547982.00 16919580.00 L 16100422.00 16919580.00 L 16100422.00 17472020.00  zM 18313396.33 17195806.15 m -278596.85 0 a 278596.85 278596.85 0 1 1 557193.70 0a 278596.85 278596.85 0 1 1 -557193.70 0M 19377020.00 17472020.00 L 18824580.00 17472020.00 L 18824580.00 16919580.00 L 19377020.00 16919580.00 L 19377020.00 17472020.00  zM 19939948.00 18997290.00 L 19328452.00 18997290.00 L 19328452.00 18464534.00 L 19939948.00 18464534.00 L 19939948.00 18997290.00  zM 19939948.00 19686266.00 L 19328452.00 19686266.00 L 19328452.00 19153510.00 L 19939948.00 19153510.00 L 19939948.00 19686266.00  zM 20754017.00 18677250.00 L 20319687.00 18677250.00 L 20319687.00 18203550.00 L 20754017.00 18203550.00 L 20754017.00 18677250.00  zM 21218700.00 19536600.00 L 20843700.00 19536600.00 L 20843700.00 19296600.00 L 21218700.00 19296600.00 L 21218700.00 19536600.00  zM 21218700.00 19906600.00 L 20843700.00 19906600.00 L 20843700.00 19666600.00 L 21218700.00 19666600.00 L 21218700.00 19906600.00  zM 20041548.00 21156290.00 L 19430052.00 21156290.00 L 19430052.00 20623534.00 L 20041548.00 20623534.00 L 20041548.00 21156290.00  zM 21218700.00 20276600.00 L 20843700.00 20276600.00 L 20843700.00 20036600.00 L 21218700.00 20036600.00 L 21218700.00 20276600.00  zM 20041548.00 21845266.00 L 19430052.00 21845266.00 L 19430052.00 21312510.00 L 20041548.00 21312510.00 L 20041548.00 21845266.00  zM 21529802.00 16103593.05 m -338174.95 0 a 338174.95 338174.95 0 1 1 676349.89 0a 338174.95 338174.95 0 1 1 -676349.89 0M 22865075.00 16438875.00 L 22194525.00 16438875.00 L 22194525.00 15768325.00 L 22865075.00 15768325.00 L 22865075.00 16438875.00  zM 21285513.00 18677250.00 L 20851183.00 18677250.00 L 20851183.00 18203550.00 L 21285513.00 18203550.00 L 21285513.00 18677250.00  zM 22303700.00 19536600.00 L 21928700.00 19536600.00 L 21928700.00 19296600.00 L 22303700.00 19296600.00 L 22303700.00 19536600.00  zM 22995250.00 19585617.00 L 22521550.00 19585617.00 L 22521550.00 19151287.00 L 22995250.00 19151287.00 L 22995250.00 19585617.00  zM 23604850.00 19585617.00 L 23131150.00 19585617.00 L 23131150.00 19151287.00 L 23604850.00 19151287.00 L 23604850.00 19585617.00  zM 22303700.00 19906600.00 L 21928700.00 19906600.00 L 21928700.00 19666600.00 L 22303700.00 19666600.00 L 22303700.00 19906600.00  zM 22995250.00 20117113.00 L 22521550.00 20117113.00 L 22521550.00 19682783.00 L 22995250.00 19682783.00 L 22995250.00 20117113.00  zM 23604850.00 20117113.00 L 23131150.00 20117113.00 L 23131150.00 19682783.00 L 23604850.00 19682783.00 L 23604850.00 20117113.00  zM 22303700.00 20276600.00 L 21928700.00 20276600.00 L 21928700.00 20036600.00 L 22303700.00 20036600.00 L 22303700.00 20276600.00  zM 23474998.00 22843491.00 L 23089172.00 22843491.00 L 23089172.00 21504909.00 L 23474998.00 21504909.00 L 23474998.00 22843491.00  zM 22541928.00 22843491.00 L 22156102.00 22843491.00 L 22156102.00 21504909.00 L 22541928.00 21504909.00 L 22541928.00 22843491.00  zM 23501663.00 23655650.00 L 23067333.00 23655650.00 L 23067333.00 23181950.00 L 23501663.00 23181950.00 L 23501663.00 23655650.00  zM 22970167.00 23655650.00 L 22535837.00 23655650.00 L 22535837.00 23181950.00 L 22970167.00 23181950.00 L 22970167.00 23655650.00  zM 22435181.00 24163206.00 L 20859119.00 24163206.00 L 20859119.00 23283994.00 L 22435181.00 23283994.00 L 22435181.00 24163206.00  zM 22970167.00 24239850.00 L 22535837.00 24239850.00 L 22535837.00 23766150.00 L 22970167.00 23766150.00 L 22970167.00 24239850.00  zM 23501663.00 24239850.00 L 23067333.00 24239850.00 L 23067333.00 23766150.00 L 23501663.00 23766150.00 L 23501663.00 24239850.00  zM 22426916.00 24770710.00 L 21953216.00 24770710.00 L 21953216.00 24454490.00 L 22426916.00 24454490.00 L 22426916.00 24770710.00  zM 22426916.00 25144726.00 L 21953216.00 25144726.00 L 21953216.00 24828506.00 L 22426916.00 24828506.00 L 22426916.00 25144726.00  zM 23509593.00 24770710.00 L 23035893.00 24770710.00 L 23035893.00 24454490.00 L 23509593.00 24454490.00 L 23509593.00 24770710.00  zM 23509593.00 25144726.00 L 23035893.00 25144726.00 L 23035893.00 24828506.00 L 23509593.00 24828506.00 L 23509593.00 25144726.00  zM 23509593.00 25518741.00 L 23035893.00 25518741.00 L 23035893.00 25202521.00 L 23509593.00 25202521.00 L 23509593.00 25518741.00  zM 22426916.00 25518741.00 L 21953216.00 25518741.00 L 21953216.00 25202521.00 L 22426916.00 25202521.00 L 22426916.00 25518741.00  zM 22860948.00 26256293.00 L 22525042.00 26256293.00 L 22525042.00 25762907.00 L 22860948.00 25762907.00 L 22860948.00 26256293.00  zM 22191657.00 26256293.00 L 21855751.00 26256293.00 L 21855751.00 25762907.00 L 22191657.00 25762907.00 L 22191657.00 26256293.00  zM 22191657.00 26916693.00 L 21855751.00 26916693.00 L 21855751.00 26423307.00 L 22191657.00 26423307.00 L 22191657.00 26916693.00  zM 23360058.00 26916693.00 L 23024152.00 26916693.00 L 23024152.00 26423307.00 L 23360058.00 26423307.00 L 23360058.00 26916693.00  zM 23478168.00 26236608.00 L 23063522.00 26236608.00 L 23063522.00 25782592.00 L 23478168.00 25782592.00 L 23478168.00 26236608.00  zM 22860948.00 26916693.00 L 22525042.00 26916693.00 L 22525042.00 26423307.00 L 22860948.00 26423307.00 L 22860948.00 26916693.00  zM 22191657.00 27577093.00 L 21855751.00 27577093.00 L 21855751.00 27083707.00 L 22191657.00 27083707.00 L 22191657.00 27577093.00  zM 22860948.00 27577093.00 L 22525042.00 27577093.00 L 22525042.00 27083707.00 L 22860948.00 27083707.00 L 22860948.00 27577093.00  zM 22191657.00 28237493.00 L 21855751.00 28237493.00 L 21855751.00 27744107.00 L 22191657.00 27744107.00 L 22191657.00 28237493.00  zM 22860948.00 28237493.00 L 22525042.00 28237493.00 L 22525042.00 27744107.00 L 22860948.00 27744107.00 L 22860948.00 28237493.00  zM 30952101.00 15951616.00 L 30773677.00 15951616.00 L 30773677.00 15084214.00 L 30952101.00 15084214.00 L 30952101.00 15951616.00  zM 30755250.00 15951616.00 L 30576826.00 15951616.00 L 30576826.00 15084214.00 L 30755250.00 15084214.00 L 30755250.00 15951616.00  zM 31148951.00 15951616.00 L 30970527.00 15951616.00 L 30970527.00 15084214.00 L 31148951.00 15084214.00 L 31148951.00 15951616.00  zM 31739502.00 15951616.00 L 31561078.00 15951616.00 L 31561078.00 15084214.00 L 31739502.00 15084214.00 L 31739502.00 15951616.00  zM 31542652.00 15951616.00 L 31364228.00 15951616.00 L 31364228.00 15084214.00 L 31542652.00 15084214.00 L 31542652.00 15951616.00  zM 32133203.00 15951616.00 L 31954779.00 15951616.00 L 31954779.00 15084214.00 L 32133203.00 15084214.00 L 32133203.00 15951616.00  zM 31936353.00 15951616.00 L 31757929.00 15951616.00 L 31757929.00 15084214.00 L 31936353.00 15084214.00 L 31936353.00 15951616.00  zM 31345801.00 15951616.00 L 31167377.00 15951616.00 L 31167377.00 15084214.00 L 31345801.00 15084214.00 L 31345801.00 15951616.00  zM 31542652.00 17683900.00 L 31364228.00 17683900.00 L 31364228.00 16816498.00 L 31542652.00 16816498.00 L 31542652.00 17683900.00  zM 30755250.00 17683900.00 L 30576826.00 17683900.00 L 30576826.00 16816498.00 L 30755250.00 16816498.00 L 30755250.00 17683900.00  zM 31148951.00 17683900.00 L 30970527.00 17683900.00 L 30970527.00 16816498.00 L 31148951.00 16816498.00 L 31148951.00 17683900.00  zM 32133203.00 17683900.00 L 31954779.00 17683900.00 L 31954779.00 16816498.00 L 32133203.00 16816498.00 L 32133203.00 17683900.00  zM 32330053.00 15951616.00 L 32151629.00 15951616.00 L 32151629.00 15084214.00 L 32330053.00 15084214.00 L 32330053.00 15951616.00  zM 32526904.00 15951616.00 L 32348480.00 15951616.00 L 32348480.00 15084214.00 L 32526904.00 15084214.00 L 32526904.00 15951616.00  zM 32723754.00 15951616.00 L 32545330.00 15951616.00 L 32545330.00 15084214.00 L 32723754.00 15084214.00 L 32723754.00 15951616.00  zM 32920605.00 15951616.00 L 32742181.00 15951616.00 L 32742181.00 15084214.00 L 32920605.00 15084214.00 L 32920605.00 15951616.00  zM 33117455.00 15951616.00 L 32939031.00 15951616.00 L 32939031.00 15084214.00 L 33117455.00 15084214.00 L 33117455.00 15951616.00  zM 33511156.00 15951616.00 L 33332732.00 15951616.00 L 33332732.00 15084214.00 L 33511156.00 15084214.00 L 33511156.00 15951616.00  zM 33314305.00 15951616.00 L 33135881.00 15951616.00 L 33135881.00 15084214.00 L 33314305.00 15084214.00 L 33314305.00 15951616.00  zM 32526904.00 17683900.00 L 32348480.00 17683900.00 L 32348480.00 16816498.00 L 32526904.00 16816498.00 L 32526904.00 17683900.00  zM 32723754.00 17683900.00 L 32545330.00 17683900.00 L 32545330.00 16816498.00 L 32723754.00 16816498.00 L 32723754.00 17683900.00  zM 32330053.00 17683900.00 L 32151629.00 17683900.00 L 32151629.00 16816498.00 L 32330053.00 16816498.00 L 32330053.00 17683900.00  zM 33314305.00 17683900.00 L 33135881.00 17683900.00 L 33135881.00 16816498.00 L 33314305.00 16816498.00 L 33314305.00 17683900.00  zM 30952101.00 17683900.00 L 30773677.00 17683900.00 L 30773677.00 16816498.00 L 30952101.00 16816498.00 L 30952101.00 17683900.00  zM 31345801.00 17683900.00 L 31167377.00 17683900.00 L 31167377.00 16816498.00 L 31345801.00 16816498.00 L 31345801.00 17683900.00  zM 31739502.00 17683900.00 L 31561078.00 17683900.00 L 31561078.00 16816498.00 L 31739502.00 16816498.00 L 31739502.00 17683900.00  zM 31936353.00 17683900.00 L 31757929.00 17683900.00 L 31757929.00 16816498.00 L 31936353.00 16816498.00 L 31936353.00 17683900.00  zM 32920605.00 17683900.00 L 32742181.00 17683900.00 L 32742181.00 16816498.00 L 32920605.00 16816498.00 L 32920605.00 17683900.00  zM 33117455.00 17683900.00 L 32939031.00 17683900.00 L 32939031.00 16816498.00 L 33117455.00 16816498.00 L 33117455.00 17683900.00  zM 24677556.00 22962231.00 L 23798344.00 22962231.00 L 23798344.00 21386169.00 L 24677556.00 21386169.00 L 24677556.00 22962231.00  zM 24083958.00 25097417.00 L 23629942.00 25097417.00 L 23629942.00 24682771.00 L 24083958.00 24682771.00 L 24083958.00 25097417.00  zM 24083958.00 25609228.00 L 23629942.00 25609228.00 L 23629942.00 25194582.00 L 24083958.00 25194582.00 L 24083958.00 25609228.00  zM 23989979.00 26236608.00 L 23575333.00 26236608.00 L 23575333.00 25782592.00 L 23989979.00 25782592.00 L 23989979.00 26236608.00  zM 24029349.00 26916693.00 L 23693443.00 26916693.00 L 23693443.00 26423307.00 L 24029349.00 26423307.00 L 24029349.00 26916693.00  zM 23915556.00 28677231.00 L 23036344.00 28677231.00 L 23036344.00 27101169.00 L 23915556.00 27101169.00 L 23915556.00 28677231.00  zM 29770998.00 30124844.00 L 29592574.00 30124844.00 L 29592574.00 29257442.00 L 29770998.00 29257442.00 L 29770998.00 30124844.00  zM 31739502.00 30124844.00 L 31561078.00 30124844.00 L 31561078.00 29257442.00 L 31739502.00 29257442.00 L 31739502.00 30124844.00  zM 32133203.00 30124844.00 L 31954779.00 30124844.00 L 31954779.00 29257442.00 L 32133203.00 29257442.00 L 32133203.00 30124844.00  zM 31936353.00 30124844.00 L 31757929.00 30124844.00 L 31757929.00 29257442.00 L 31936353.00 29257442.00 L 31936353.00 30124844.00  zM 32330054.00 30124844.00 L 32151630.00 30124844.00 L 32151630.00 29257442.00 L 32330054.00 29257442.00 L 32330054.00 30124844.00  zM 32723754.00 30124844.00 L 32545330.00 30124844.00 L 32545330.00 29257442.00 L 32723754.00 29257442.00 L 32723754.00 30124844.00  zM 32526904.00 30124844.00 L 32348480.00 30124844.00 L 32348480.00 29257442.00 L 32526904.00 29257442.00 L 32526904.00 30124844.00  zM 32920605.00 30124844.00 L 32742181.00 30124844.00 L 32742181.00 29257442.00 L 32920605.00 29257442.00 L 32920605.00 30124844.00  zM 33117455.00 30124844.00 L 32939031.00 30124844.00 L 32939031.00 29257442.00 L 33117455.00 29257442.00 L 33117455.00 30124844.00  zM 33314306.00 30124844.00 L 33135882.00 30124844.00 L 33135882.00 29257442.00 L 33314306.00 29257442.00 L 33314306.00 30124844.00  zM 33904857.00 15951616.00 L 33726433.00 15951616.00 L 33726433.00 15084214.00 L 33904857.00 15084214.00 L 33904857.00 15951616.00  zM 33708006.00 15951616.00 L 33529582.00 15951616.00 L 33529582.00 15084214.00 L 33708006.00 15084214.00 L 33708006.00 15951616.00  zM 34101707.00 15951616.00 L 33923283.00 15951616.00 L 33923283.00 15084214.00 L 34101707.00 15084214.00 L 34101707.00 15951616.00  zM 34495408.00 15951616.00 L 34316984.00 15951616.00 L 34316984.00 15084214.00 L 34495408.00 15084214.00 L 34495408.00 15951616.00  zM 34298557.00 15951616.00 L 34120133.00 15951616.00 L 34120133.00 15084214.00 L 34298557.00 15084214.00 L 34298557.00 15951616.00  zM 34692258.00 15951616.00 L 34513834.00 15951616.00 L 34513834.00 15084214.00 L 34692258.00 15084214.00 L 34692258.00 15951616.00  zM 35085959.00 15951616.00 L 34907535.00 15951616.00 L 34907535.00 15084214.00 L 35085959.00 15084214.00 L 35085959.00 15951616.00  zM 34889109.00 15951616.00 L 34710685.00 15951616.00 L 34710685.00 15084214.00 L 34889109.00 15084214.00 L 34889109.00 15951616.00  zM 35282809.00 15951616.00 L 35104385.00 15951616.00 L 35104385.00 15084214.00 L 35282809.00 15084214.00 L 35282809.00 15951616.00  zM 35479660.00 15951616.00 L 35301236.00 15951616.00 L 35301236.00 15084214.00 L 35479660.00 15084214.00 L 35479660.00 15951616.00  zM 39219817.00 15951616.00 L 39041393.00 15951616.00 L 39041393.00 15084214.00 L 39219817.00 15084214.00 L 39219817.00 15951616.00  zM 39416668.00 15951616.00 L 39238244.00 15951616.00 L 39238244.00 15084214.00 L 39416668.00 15084214.00 L 39416668.00 15951616.00  zM 39810368.00 15951616.00 L 39631944.00 15951616.00 L 39631944.00 15084214.00 L 39810368.00 15084214.00 L 39810368.00 15951616.00  zM 39613518.00 15951616.00 L 39435094.00 15951616.00 L 39435094.00 15084214.00 L 39613518.00 15084214.00 L 39613518.00 15951616.00  zM 40007219.00 15951616.00 L 39828795.00 15951616.00 L 39828795.00 15084214.00 L 40007219.00 15084214.00 L 40007219.00 15951616.00  zM 40597770.00 15951616.00 L 40419346.00 15951616.00 L 40419346.00 15084214.00 L 40597770.00 15084214.00 L 40597770.00 15951616.00  zM 40794620.00 15951616.00 L 40616196.00 15951616.00 L 40616196.00 15084214.00 L 40794620.00 15084214.00 L 40794620.00 15951616.00  zM 40204069.00 15951616.00 L 40025645.00 15951616.00 L 40025645.00 15084214.00 L 40204069.00 15084214.00 L 40204069.00 15951616.00  zM 40400920.00 15951616.00 L 40222496.00 15951616.00 L 40222496.00 15084214.00 L 40400920.00 15084214.00 L 40400920.00 15951616.00  zM 40597770.00 17683900.00 L 40419346.00 17683900.00 L 40419346.00 16816498.00 L 40597770.00 16816498.00 L 40597770.00 17683900.00  zM 40400920.00 17683900.00 L 40222496.00 17683900.00 L 40222496.00 16816498.00 L 40400920.00 16816498.00 L 40400920.00 17683900.00  zM 40204069.00 17683900.00 L 40025645.00 17683900.00 L 40025645.00 16816498.00 L 40204069.00 16816498.00 L 40204069.00 17683900.00  zM 39613518.00 17683900.00 L 39435094.00 17683900.00 L 39435094.00 16816498.00 L 39613518.00 16816498.00 L 39613518.00 17683900.00  zM 41385172.00 15951616.00 L 41206748.00 15951616.00 L 41206748.00 15084214.00 L 41385172.00 15084214.00 L 41385172.00 15951616.00  zM 40991471.00 15951616.00 L 40813047.00 15951616.00 L 40813047.00 15084214.00 L 40991471.00 15084214.00 L 40991471.00 15951616.00  zM 41582022.00 15951616.00 L 41403598.00 15951616.00 L 41403598.00 15084214.00 L 41582022.00 15084214.00 L 41582022.00 15951616.00  zM 41778872.00 15951616.00 L 41600448.00 15951616.00 L 41600448.00 15084214.00 L 41778872.00 15084214.00 L 41778872.00 15951616.00  zM 42369424.00 15951616.00 L 42191000.00 15951616.00 L 42191000.00 15084214.00 L 42369424.00 15084214.00 L 42369424.00 15951616.00  zM 42566274.00 15951616.00 L 42387850.00 15951616.00 L 42387850.00 15084214.00 L 42566274.00 15084214.00 L 42566274.00 15951616.00  zM 41188321.00 15951616.00 L 41009897.00 15951616.00 L 41009897.00 15084214.00 L 41188321.00 15084214.00 L 41188321.00 15951616.00  zM 41975723.00 15951616.00 L 41797299.00 15951616.00 L 41797299.00 15084214.00 L 41975723.00 15084214.00 L 41975723.00 15951616.00  zM 42172573.00 15951616.00 L 41994149.00 15951616.00 L 41994149.00 15084214.00 L 42172573.00 15084214.00 L 42172573.00 15951616.00  zM 40794620.00 17683900.00 L 40616196.00 17683900.00 L 40616196.00 16816498.00 L 40794620.00 16816498.00 L 40794620.00 17683900.00  zM 40991471.00 17683900.00 L 40813047.00 17683900.00 L 40813047.00 16816498.00 L 40991471.00 16816498.00 L 40991471.00 17683900.00  zM 42959975.00 15951616.00 L 42781551.00 15951616.00 L 42781551.00 15084214.00 L 42959975.00 15084214.00 L 42959975.00 15951616.00  zM 42763124.00 15951616.00 L 42584700.00 15951616.00 L 42584700.00 15084214.00 L 42763124.00 15084214.00 L 42763124.00 15951616.00  zM 43156825.00 15951616.00 L 42978401.00 15951616.00 L 42978401.00 15084214.00 L 43156825.00 15084214.00 L 43156825.00 15951616.00  zM 43550526.00 15951616.00 L 43372102.00 15951616.00 L 43372102.00 15084214.00 L 43550526.00 15084214.00 L 43550526.00 15951616.00  zM 43353676.00 15951616.00 L 43175252.00 15951616.00 L 43175252.00 15084214.00 L 43353676.00 15084214.00 L 43353676.00 15951616.00  zM 43944227.00 15951616.00 L 43765803.00 15951616.00 L 43765803.00 15084214.00 L 43944227.00 15084214.00 L 43944227.00 15951616.00  zM 43747376.00 15951616.00 L 43568952.00 15951616.00 L 43568952.00 15084214.00 L 43747376.00 15084214.00 L 43747376.00 15951616.00  zM 42763124.00 17683900.00 L 42584700.00 17683900.00 L 42584700.00 16816498.00 L 42763124.00 16816498.00 L 42763124.00 17683900.00  zM 43944227.00 17683900.00 L 43765803.00 17683900.00 L 43765803.00 16816498.00 L 43944227.00 16816498.00 L 43944227.00 17683900.00  zM 43156825.00 17683900.00 L 42978401.00 17683900.00 L 42978401.00 16816498.00 L 43156825.00 16816498.00 L 43156825.00 17683900.00  zM 43550526.00 17683900.00 L 43372102.00 17683900.00 L 43372102.00 16816498.00 L 43550526.00 16816498.00 L 43550526.00 17683900.00  zM 33904857.00 17683900.00 L 33726433.00 17683900.00 L 33726433.00 16816498.00 L 33904857.00 16816498.00 L 33904857.00 17683900.00  zM 33708006.00 17683900.00 L 33529582.00 17683900.00 L 33529582.00 16816498.00 L 33708006.00 16816498.00 L 33708006.00 17683900.00  zM 34101707.00 17683900.00 L 33923283.00 17683900.00 L 33923283.00 16816498.00 L 34101707.00 16816498.00 L 34101707.00 17683900.00  zM 34495408.00 17683900.00 L 34316984.00 17683900.00 L 34316984.00 16816498.00 L 34495408.00 16816498.00 L 34495408.00 17683900.00  zM 34298557.00 17683900.00 L 34120133.00 17683900.00 L 34120133.00 16816498.00 L 34298557.00 16816498.00 L 34298557.00 17683900.00  zM 34692258.00 17683900.00 L 34513834.00 17683900.00 L 34513834.00 16816498.00 L 34692258.00 16816498.00 L 34692258.00 17683900.00  zM 35282809.00 17683900.00 L 35104385.00 17683900.00 L 35104385.00 16816498.00 L 35282809.00 16816498.00 L 35282809.00 17683900.00  zM 35479660.00 17683900.00 L 35301236.00 17683900.00 L 35301236.00 16816498.00 L 35479660.00 16816498.00 L 35479660.00 17683900.00  zM 39219817.00 17683900.00 L 39041393.00 17683900.00 L 39041393.00 16816498.00 L 39219817.00 16816498.00 L 39219817.00 17683900.00  zM 39416668.00 17683900.00 L 39238244.00 17683900.00 L 39238244.00 16816498.00 L 39416668.00 16816498.00 L 39416668.00 17683900.00  zM 39810368.00 17683900.00 L 39631944.00 17683900.00 L 39631944.00 16816498.00 L 39810368.00 16816498.00 L 39810368.00 17683900.00  zM 40007219.00 17683900.00 L 39828795.00 17683900.00 L 39828795.00 16816498.00 L 40007219.00 16816498.00 L 40007219.00 17683900.00  zM 41188321.00 17683900.00 L 41009897.00 17683900.00 L 41009897.00 16816498.00 L 41188321.00 16816498.00 L 41188321.00 17683900.00  zM 41582022.00 17683900.00 L 41403598.00 17683900.00 L 41403598.00 16816498.00 L 41582022.00 16816498.00 L 41582022.00 17683900.00  zM 41975723.00 17683900.00 L 41797299.00 17683900.00 L 41797299.00 16816498.00 L 41975723.00 16816498.00 L 41975723.00 17683900.00  zM 41778872.00 17683900.00 L 41600448.00 17683900.00 L 41600448.00 16816498.00 L 41778872.00 16816498.00 L 41778872.00 17683900.00  zM 42172573.00 17683900.00 L 41994149.00 17683900.00 L 41994149.00 16816498.00 L 42172573.00 16816498.00 L 42172573.00 17683900.00  zM 42369424.00 17683900.00 L 42191000.00 17683900.00 L 42191000.00 16816498.00 L 42369424.00 16816498.00 L 42369424.00 17683900.00  zM 42566274.00 17683900.00 L 42387850.00 17683900.00 L 42387850.00 16816498.00 L 42566274.00 16816498.00 L 42566274.00 17683900.00  zM 42959975.00 17683900.00 L 42781551.00 17683900.00 L 42781551.00 16816498.00 L 42959975.00 16816498.00 L 42959975.00 17683900.00  zM 43353676.00 17683900.00 L 43175252.00 17683900.00 L 43175252.00 16816498.00 L 43353676.00 16816498.00 L 43353676.00 17683900.00  zM 43747376.00 17683900.00 L 43568952.00 17683900.00 L 43568952.00 16816498.00 L 43747376.00 16816498.00 L 43747376.00 17683900.00  zM 33511156.00 17683900.00 L 33332732.00 17683900.00 L 33332732.00 16816498.00 L 33511156.00 16816498.00 L 33511156.00 17683900.00  zM 34889109.00 17683900.00 L 34710685.00 17683900.00 L 34710685.00 16816498.00 L 34889109.00 16816498.00 L 34889109.00 17683900.00  zM 41385172.00 17683900.00 L 41206748.00 17683900.00 L 41206748.00 16816498.00 L 41385172.00 16816498.00 L 41385172.00 17683900.00  zM 35085959.00 17683900.00 L 34907535.00 17683900.00 L 34907535.00 16816498.00 L 35085959.00 16816498.00 L 35085959.00 17683900.00  zM 43747376.00 30124844.00 L 43568952.00 30124844.00 L 43568952.00 29257442.00 L 43747376.00 29257442.00 L 43747376.00 30124844.00  zM 40991471.00 30124844.00 L 40813047.00 30124844.00 L 40813047.00 29257442.00 L 40991471.00 29257442.00 L 40991471.00 30124844.00  zM 33708006.00 30124844.00 L 33529582.00 30124844.00 L 33529582.00 29257442.00 L 33708006.00 29257442.00 L 33708006.00 30124844.00  zM 39219817.00 30124844.00 L 39041393.00 30124844.00 L 39041393.00 29257442.00 L 39219817.00 29257442.00 L 39219817.00 30124844.00  zM 39810368.00 30124844.00 L 39631944.00 30124844.00 L 39631944.00 29257442.00 L 39810368.00 29257442.00 L 39810368.00 30124844.00  zM 41778872.00 30124844.00 L 41600448.00 30124844.00 L 41600448.00 29257442.00 L 41778872.00 29257442.00 L 41778872.00 30124844.00  zM 43944227.00 30124844.00 L 43765803.00 30124844.00 L 43765803.00 29257442.00 L 43944227.00 29257442.00 L 43944227.00 30124844.00  zM 33511156.00 30124844.00 L 33332732.00 30124844.00 L 33332732.00 29257442.00 L 33511156.00 29257442.00 L 33511156.00 30124844.00  zM 33904857.00 30124844.00 L 33726433.00 30124844.00 L 33726433.00 29257442.00 L 33904857.00 29257442.00 L 33904857.00 30124844.00  zM 39416668.00 30124844.00 L 39238244.00 30124844.00 L 39238244.00 29257442.00 L 39416668.00 29257442.00 L 39416668.00 30124844.00  zM 39613518.00 30124844.00 L 39435094.00 30124844.00 L 39435094.00 29257442.00 L 39613518.00 29257442.00 L 39613518.00 30124844.00  zM 40204069.00 30124844.00 L 40025645.00 30124844.00 L 40025645.00 29257442.00 L 40204069.00 29257442.00 L 40204069.00 30124844.00  zM 40597770.00 30124844.00 L 40419346.00 30124844.00 L 40419346.00 29257442.00 L 40597770.00 29257442.00 L 40597770.00 30124844.00  zM 41385172.00 30124844.00 L 41206748.00 30124844.00 L 41206748.00 29257442.00 L 41385172.00 29257442.00 L 41385172.00 30124844.00  zM 42172573.00 30124844.00 L 41994149.00 30124844.00 L 41994149.00 29257442.00 L 42172573.00 29257442.00 L 42172573.00 30124844.00  zM 42566274.00 30124844.00 L 42387850.00 30124844.00 L 42387850.00 29257442.00 L 42566274.00 29257442.00 L 42566274.00 30124844.00  zM 42959975.00 30124844.00 L 42781551.00 30124844.00 L 42781551.00 29257442.00 L 42959975.00 29257442.00 L 42959975.00 30124844.00  zM 43353676.00 30124844.00 L 43175252.00 30124844.00 L 43175252.00 29257442.00 L 43353676.00 29257442.00 L 43353676.00 30124844.00  zM 14325602.00 30327593.05 m -338174.95 0 a 338174.95 338174.95 0 1 1 676349.89 0a 338174.95 338174.95 0 1 1 -676349.89 0M 14660875.00 31662875.00 L 13990325.00 31662875.00 L 13990325.00 30992325.00 L 14660875.00 30992325.00 L 14660875.00 31662875.00  zM 12130196.60 35220161.06 m -633585.94 0 a 633585.94 633585.94 0 1 1 1267171.88 0a 633585.94 633585.94 0 1 1 -1267171.88 0M 18578513.00 34977790.00 L 18621417.97 34949122.00 L 18521027.00 34949122.00 L 18521027.00 34239202.00 L 18892365.00 34239202.00 L 18892365.00 34949122.00 L 18791974.03 34949122.00 L 18834879.00 34977790.00 A 181279.69 181279.69 0 1 1 18578513.00 34977790.00  zM 19578513.00 34977790.00 L 19621417.97 34949122.00 L 19521027.00 34949122.00 L 19521027.00 34239202.00 L 19892365.00 34239202.00 L 19892365.00 34949122.00 L 19791974.03 34949122.00 L 19834879.00 34977790.00 A 181279.69 181279.69 0 1 1 19578513.00 34977790.00  zM 19392365.00 35972744.00 L 19021027.00 35972744.00 L 19021027.00 35262824.00 L 19121417.97 35262824.00 L 19078513.00 35234156.00 A 181279.69 181279.69 0 1 1 19334879.00 35234156.00 L 19291974.03 35262824.00 L 19392365.00 35262824.00 L 19392365.00 35972744.00  zM 20578513.00 34977790.00 L 20621417.97 34949122.00 L 20521027.00 34949122.00 L 20521027.00 34239202.00 L 20892365.00 34239202.00 L 20892365.00 34949122.00 L 20791974.03 34949122.00 L 20834879.00 34977790.00 A 181279.69 181279.69 0 1 1 20578513.00 34977790.00  zM 21578513.00 34977790.00 L 21621417.97 34949122.00 L 21521027.00 34949122.00 L 21521027.00 34239202.00 L 21892365.00 34239202.00 L 21892365.00 34949122.00 L 21791974.03 34949122.00 L 21834879.00 34977790.00 A 181279.69 181279.69 0 1 1 21578513.00 34977790.00  zM 22392365.00 35972744.00 L 22021027.00 35972744.00 L 22021027.00 35262824.00 L 22121417.97 35262824.00 L 22078513.00 35234156.00 A 181279.69 181279.69 0 1 1 22334879.00 35234156.00 L 22291974.03 35262824.00 L 22392365.00 35262824.00 L 22392365.00 35972744.00  zM 22578513.00 34977790.00 L 22621417.97 34949122.00 L 22521027.00 34949122.00 L 22521027.00 34239202.00 L 22892365.00 34239202.00 L 22892365.00 34949122.00 L 22791974.03 34949122.00 L 22834879.00 34977790.00 A 181279.69 181279.69 0 1 1 22578513.00 34977790.00  zM 23578513.00 34977790.00 L 23621417.97 34949122.00 L 23521027.00 34949122.00 L 23521027.00 34239202.00 L 23892365.00 34239202.00 L 23892365.00 34949122.00 L 23791974.03 34949122.00 L 23834879.00 34977790.00 A 181279.69 181279.69 0 1 1 23578513.00 34977790.00  zM 23392365.00 35972744.00 L 23021027.00 35972744.00 L 23021027.00 35262824.00 L 23121417.97 35262824.00 L 23078513.00 35234156.00 A 181279.69 181279.69 0 1 1 23334879.00 35234156.00 L 23291974.03 35262824.00 L 23392365.00 35262824.00 L 23392365.00 35972744.00  zM 29180447.00 30124844.00 L 29002023.00 30124844.00 L 29002023.00 29257442.00 L 29180447.00 29257442.00 L 29180447.00 30124844.00  zM 29180447.00 31857128.00 L 29002023.00 31857128.00 L 29002023.00 30989726.00 L 29180447.00 30989726.00 L 29180447.00 31857128.00  zM 29377298.00 31857128.00 L 29198874.00 31857128.00 L 29198874.00 30989726.00 L 29377298.00 30989726.00 L 29377298.00 31857128.00  zM 24578513.00 34977790.00 L 24621417.97 34949122.00 L 24521027.00 34949122.00 L 24521027.00 34239202.00 L 24892365.00 34239202.00 L 24892365.00 34949122.00 L 24791974.03 34949122.00 L 24834879.00 34977790.00 A 181279.69 181279.69 0 1 1 24578513.00 34977790.00  zM 25578513.00 34977790.00 L 25621417.97 34949122.00 L 25521027.00 34949122.00 L 25521027.00 34239202.00 L 25892365.00 34239202.00 L 25892365.00 34949122.00 L 25791974.03 34949122.00 L 25834879.00 34977790.00 A 181279.69 181279.69 0 1 1 25578513.00 34977790.00  zM 26578513.00 34977790.00 L 26621417.97 34949122.00 L 26521027.00 34949122.00 L 26521027.00 34239202.00 L 26892365.00 34239202.00 L 26892365.00 34949122.00 L 26791974.03 34949122.00 L 26834879.00 34977790.00 A 181279.69 181279.69 0 1 1 26578513.00 34977790.00  zM 24392365.00 35972744.00 L 24021027.00 35972744.00 L 24021027.00 35262824.00 L 24121417.97 35262824.00 L 24078513.00 35234156.00 A 181279.69 181279.69 0 1 1 24334879.00 35234156.00 L 24291974.03 35262824.00 L 24392365.00 35262824.00 L 24392365.00 35972744.00  zM 25392365.00 35972744.00 L 25021027.00 35972744.00 L 25021027.00 35262824.00 L 25121417.97 35262824.00 L 25078513.00 35234156.00 A 181279.69 181279.69 0 1 1 25334879.00 35234156.00 L 25291974.03 35262824.00 L 25392365.00 35262824.00 L 25392365.00 35972744.00  zM 26392365.00 35972744.00 L 26021027.00 35972744.00 L 26021027.00 35262824.00 L 26121417.97 35262824.00 L 26078513.00 35234156.00 A 181279.69 181279.69 0 1 1 26334879.00 35234156.00 L 26291974.03 35262824.00 L 26392365.00 35262824.00 L 26392365.00 35972744.00  zM 27578513.00 34977790.00 L 27621417.97 34949122.00 L 27521027.00 34949122.00 L 27521027.00 34239202.00 L 27892365.00 34239202.00 L 27892365.00 34949122.00 L 27791974.03 34949122.00 L 27834879.00 34977790.00 A 181279.69 181279.69 0 1 1 27578513.00 34977790.00  zM 27392365.00 35972744.00 L 27021027.00 35972744.00 L 27021027.00 35262824.00 L 27121417.97 35262824.00 L 27078513.00 35234156.00 A 181279.69 181279.69 0 1 1 27334879.00 35234156.00 L 27291974.03 35262824.00 L 27392365.00 35262824.00 L 27392365.00 35972744.00  zM 29574148.00 30124844.00 L 29395724.00 30124844.00 L 29395724.00 29257442.00 L 29574148.00 29257442.00 L 29574148.00 30124844.00  zM 29377298.00 30124844.00 L 29198874.00 30124844.00 L 29198874.00 29257442.00 L 29377298.00 29257442.00 L 29377298.00 30124844.00  zM 29967849.00 30124844.00 L 29789425.00 30124844.00 L 29789425.00 29257442.00 L 29967849.00 29257442.00 L 29967849.00 30124844.00  zM 30361550.00 30124844.00 L 30183126.00 30124844.00 L 30183126.00 29257442.00 L 30361550.00 29257442.00 L 30361550.00 30124844.00  zM 30164699.00 30124844.00 L 29986275.00 30124844.00 L 29986275.00 29257442.00 L 30164699.00 29257442.00 L 30164699.00 30124844.00  zM 30558400.00 30124844.00 L 30379976.00 30124844.00 L 30379976.00 29257442.00 L 30558400.00 29257442.00 L 30558400.00 30124844.00  zM 30952101.00 30124844.00 L 30773677.00 30124844.00 L 30773677.00 29257442.00 L 30952101.00 29257442.00 L 30952101.00 30124844.00  zM 30755250.00 30124844.00 L 30576826.00 30124844.00 L 30576826.00 29257442.00 L 30755250.00 29257442.00 L 30755250.00 30124844.00  zM 31148951.00 30124844.00 L 30970527.00 30124844.00 L 30970527.00 29257442.00 L 31148951.00 29257442.00 L 31148951.00 30124844.00  zM 31345802.00 30124844.00 L 31167378.00 30124844.00 L 31167378.00 29257442.00 L 31345802.00 29257442.00 L 31345802.00 30124844.00  zM 31542652.00 30124844.00 L 31364228.00 30124844.00 L 31364228.00 29257442.00 L 31542652.00 29257442.00 L 31542652.00 30124844.00  zM 29770998.00 31857128.00 L 29592574.00 31857128.00 L 29592574.00 30989726.00 L 29770998.00 30989726.00 L 29770998.00 31857128.00  zM 29574148.00 31857128.00 L 29395724.00 31857128.00 L 29395724.00 30989726.00 L 29574148.00 30989726.00 L 29574148.00 31857128.00  zM 29967849.00 31857128.00 L 29789425.00 31857128.00 L 29789425.00 30989726.00 L 29967849.00 30989726.00 L 29967849.00 31857128.00  zM 30361550.00 31857128.00 L 30183126.00 31857128.00 L 30183126.00 30989726.00 L 30361550.00 30989726.00 L 30361550.00 31857128.00  zM 30164699.00 31857128.00 L 29986275.00 31857128.00 L 29986275.00 30989726.00 L 30164699.00 30989726.00 L 30164699.00 31857128.00  zM 30558400.00 31857128.00 L 30379976.00 31857128.00 L 30379976.00 30989726.00 L 30558400.00 30989726.00 L 30558400.00 31857128.00  zM 30952101.00 31857128.00 L 30773677.00 31857128.00 L 30773677.00 30989726.00 L 30952101.00 30989726.00 L 30952101.00 31857128.00  zM 30755250.00 31857128.00 L 30576826.00 31857128.00 L 30576826.00 30989726.00 L 30755250.00 30989726.00 L 30755250.00 31857128.00  zM 31148951.00 31857128.00 L 30970527.00 31857128.00 L 30970527.00 30989726.00 L 31148951.00 30989726.00 L 31148951.00 31857128.00  zM 31345802.00 31857128.00 L 31167378.00 31857128.00 L 31167378.00 30989726.00 L 31345802.00 30989726.00 L 31345802.00 31857128.00  zM 31542652.00 31857128.00 L 31364228.00 31857128.00 L 31364228.00 30989726.00 L 31542652.00 30989726.00 L 31542652.00 31857128.00  zM 11956602.00 37893744.00 L 11914294.00 37830424.30 L 11914294.00 37960933.00 L 11084294.00 37960933.00 L 11084294.00 37479359.00 L 11914294.00 37479359.00 L 11914294.00 37609867.70 L 11956602.00 37546548.00 A 245511.05 245511.05 0 1 1 11956602.00 37893744.00  zM 11956602.00 39893744.00 L 11914294.00 39830424.30 L 11914294.00 39960933.00 L 11084294.00 39960933.00 L 11084294.00 39479359.00 L 11914294.00 39479359.00 L 11914294.00 39609867.70 L 11956602.00 39546548.00 A 245511.05 245511.05 0 1 1 11956602.00 39893744.00  zM 11956602.00 41893744.00 L 11914294.00 41830424.30 L 11914294.00 41960933.00 L 11084294.00 41960933.00 L 11084294.00 41479359.00 L 11914294.00 41479359.00 L 11914294.00 41609867.70 L 11956602.00 41546548.00 A 245511.05 245511.05 0 1 1 11956602.00 41893744.00  zM 11956602.00 43893744.00 L 11914294.00 43830424.30 L 11914294.00 43960933.00 L 11084294.00 43960933.00 L 11084294.00 43479359.00 L 11914294.00 43479359.00 L 11914294.00 43609867.70 L 11956602.00 43546548.00 A 245511.05 245511.05 0 1 1 11956602.00 43893744.00  zM 12303798.00 42546548.00 L 12346106.00 42609867.70 L 12346106.00 42479359.00 L 13176106.00 42479359.00 L 13176106.00 42960933.00 L 12346106.00 42960933.00 L 12346106.00 42830424.30 L 12303798.00 42893744.00 A 245511.05 245511.05 0 1 1 12303798.00 42546548.00  zM 11956602.00 45893744.00 L 11914294.00 45830424.30 L 11914294.00 45960933.00 L 11084294.00 45960933.00 L 11084294.00 45479359.00 L 11914294.00 45479359.00 L 11914294.00 45609867.70 L 11956602.00 45546548.00 A 245511.05 245511.05 0 1 1 11956602.00 45893744.00  zM 12303798.00 38546548.00 L 12346106.00 38609867.70 L 12346106.00 38479359.00 L 13176106.00 38479359.00 L 13176106.00 38960933.00 L 12346106.00 38960933.00 L 12346106.00 38830424.30 L 12303798.00 38893744.00 A 245511.05 245511.05 0 1 1 12303798.00 38546548.00  zM 12303798.00 40546548.00 L 12346106.00 40609867.70 L 12346106.00 40479359.00 L 13176106.00 40479359.00 L 13176106.00 40960933.00 L 12346106.00 40960933.00 L 12346106.00 40830424.30 L 12303798.00 40893744.00 A 245511.05 245511.05 0 1 1 12303798.00 40546548.00  zM 12303798.00 44546548.00 L 12346106.00 44609867.70 L 12346106.00 44479359.00 L 13176106.00 44479359.00 L 13176106.00 44960933.00 L 12346106.00 44960933.00 L 12346106.00 44830424.30 L 12303798.00 44893744.00 A 245511.05 245511.05 0 1 1 12303798.00 44546548.00  zM 20392365.00 35972744.00 L 20021027.00 35972744.00 L 20021027.00 35262824.00 L 20121417.97 35262824.00 L 20078513.00 35234156.00 A 181279.69 181279.69 0 1 1 20334879.00 35234156.00 L 20291974.03 35262824.00 L 20392365.00 35262824.00 L 20392365.00 35972744.00  zM 21392365.00 35972744.00 L 21021027.00 35972744.00 L 21021027.00 35262824.00 L 21121417.97 35262824.00 L 21078513.00 35234156.00 A 181279.69 181279.69 0 1 1 21334879.00 35234156.00 L 21291974.03 35262824.00 L 21392365.00 35262824.00 L 21392365.00 35972744.00  zM 28392365.00 35972744.00 L 28021027.00 35972744.00 L 28021027.00 35262824.00 L 28121417.97 35262824.00 L 28078513.00 35234156.00 A 181279.69 181279.69 0 1 1 28334879.00 35234156.00 L 28291974.03 35262824.00 L 28392365.00 35262824.00 L 28392365.00 35972744.00  zM 11956602.00 47893744.00 L 11914294.00 47830424.30 L 11914294.00 47960933.00 L 11084294.00 47960933.00 L 11084294.00 47479359.00 L 11914294.00 47479359.00 L 11914294.00 47609867.70 L 11956602.00 47546548.00 A 245511.05 245511.05 0 1 1 11956602.00 47893744.00  zM 12303798.00 46546548.00 L 12346106.00 46609867.70 L 12346106.00 46479359.00 L 13176106.00 46479359.00 L 13176106.00 46960933.00 L 12346106.00 46960933.00 L 12346106.00 46830424.30 L 12303798.00 46893744.00 A 245511.05 245511.05 0 1 1 12303798.00 46546548.00  zM 12303798.00 48546548.00 L 12346106.00 48609867.70 L 12346106.00 48479359.00 L 13176106.00 48479359.00 L 13176106.00 48960933.00 L 12346106.00 48960933.00 L 12346106.00 48830424.30 L 12303798.00 48893744.00 A 245511.05 245511.05 0 1 1 12303798.00 48546548.00  zM 11956602.00 49893744.00 L 11914294.00 49830424.30 L 11914294.00 49960933.00 L 11084294.00 49960933.00 L 11084294.00 49479359.00 L 11914294.00 49479359.00 L 11914294.00 49609867.70 L 11956602.00 49546548.00 A 245511.05 245511.05 0 1 1 11956602.00 49893744.00  zM 12303798.00 50546548.00 L 12346106.00 50609867.70 L 12346106.00 50479359.00 L 13176106.00 50479359.00 L 13176106.00 50960933.00 L 12346106.00 50960933.00 L 12346106.00 50830424.30 L 12303798.00 50893744.00 A 245511.05 245511.05 0 1 1 12303798.00 50546548.00  zM 11956602.00 51893744.00 L 11914294.00 51830424.30 L 11914294.00 51960933.00 L 11084294.00 51960933.00 L 11084294.00 51479359.00 L 11914294.00 51479359.00 L 11914294.00 51609867.70 L 11956602.00 51546548.00 A 245511.05 245511.05 0 1 1 11956602.00 51893744.00  zM 11956602.00 53893744.00 L 11914294.00 53830424.30 L 11914294.00 53960933.00 L 11084294.00 53960933.00 L 11084294.00 53479359.00 L 11914294.00 53479359.00 L 11914294.00 53609867.70 L 11956602.00 53546548.00 A 245511.05 245511.05 0 1 1 11956602.00 53893744.00  zM 12303798.00 52546548.00 L 12346106.00 52609867.70 L 12346106.00 52479359.00 L 13176106.00 52479359.00 L 13176106.00 52960933.00 L 12346106.00 52960933.00 L 12346106.00 52830424.30 L 12303798.00 52893744.00 A 245511.05 245511.05 0 1 1 12303798.00 52546548.00  zM 12303798.00 54546548.00 L 12346106.00 54609867.70 L 12346106.00 54479359.00 L 13176106.00 54479359.00 L 13176106.00 54960933.00 L 12346106.00 54960933.00 L 12346106.00 54830424.30 L 12303798.00 54893744.00 A 245511.05 245511.05 0 1 1 12303798.00 54546548.00  zM 11956602.00 55893744.00 L 11914294.00 55830424.30 L 11914294.00 55960933.00 L 11084294.00 55960933.00 L 11084294.00 55479359.00 L 11914294.00 55479359.00 L 11914294.00 55609867.70 L 11956602.00 55546548.00 A 245511.05 245511.05 0 1 1 11956602.00 55893744.00  zM 12303798.00 56546548.00 L 12346106.00 56609867.70 L 12346106.00 56479359.00 L 13176106.00 56479359.00 L 13176106.00 56960933.00 L 12346106.00 56960933.00 L 12346106.00 56830424.30 L 12303798.00 56893744.00 A 245511.05 245511.05 0 1 1 12303798.00 56546548.00  zM 12130196.60 59220161.06 m -633585.94 0 a 633585.94 633585.94 0 1 1 1267171.88 0a 633585.94 633585.94 0 1 1 -1267171.88 0M 13305808.00 59624657.00 L 13305808.00 59034105.00 A 180637.35 180637.35 0 0 1 13667080.00 59034105.00 L 13667080.00 59624657.00 A 180637.35 180637.35 0 0 1 13305808.00 59624657.00  zM 13305808.00 60817570.00 L 13305808.00 60502610.00 A 180637.35 180637.35 0 0 1 13667080.00 60502610.00 L 13667080.00 60817570.00 A 180637.35 180637.35 0 1 1 13305808.00 60817570.00  zM 14017941.00 58943552.32 m -130461.68 0 a 130461.68 130461.68 0 1 1 260923.35 0a 130461.68 130461.68 0 1 1 -260923.35 0M 14017941.00 59475048.32 m -130461.68 0 a 130461.68 130461.68 0 1 1 260923.35 0a 130461.68 130461.68 0 1 1 -260923.35 0M 14352587.00 59475048.32 m -130461.68 0 a 130461.68 130461.68 0 1 1 260923.35 0a 130461.68 130461.68 0 1 1 -260923.35 0M 14352587.00 58943552.32 m -130461.68 0 a 130461.68 130461.68 0 1 1 260923.35 0a 130461.68 130461.68 0 1 1 -260923.35 0M 14687232.00 58943552.32 m -130461.68 0 a 130461.68 130461.68 0 1 1 260923.35 0a 130461.68 130461.68 0 1 1 -260923.35 0M 14687232.00 59475048.32 m -130461.68 0 a 130461.68 130461.68 0 1 1 260923.35 0a 130461.68 130461.68 0 1 1 -260923.35 0M 15021878.00 58943552.32 m -130461.68 0 a 130461.68 130461.68 0 1 1 260923.35 0a 130461.68 130461.68 0 1 1 -260923.35 0M 15021878.00 59475048.32 m -130461.68 0 a 130461.68 130461.68 0 1 1 260923.35 0a 130461.68 130461.68 0 1 1 -260923.35 0M 15356524.00 58943552.32 m -130461.68 0 a 130461.68 130461.68 0 1 1 260923.35 0a 130461.68 130461.68 0 1 1 -260923.35 0M 15356524.00 59475048.32 m -130461.68 0 a 130461.68 130461.68 0 1 1 260923.35 0a 130461.68 130461.68 0 1 1 -260923.35 0M 15691170.00 59475048.32 m -130461.68 0 a 130461.68 130461.68 0 1 1 260923.35 0a 130461.68 130461.68 0 1 1 -260923.35 0M 15691170.00 58943552.32 m -130461.68 0 a 130461.68 130461.68 0 1 1 260923.35 0a 130461.68 130461.68 0 1 1 -260923.35 0M 16025815.00 58943552.32 m -130461.68 0 a 130461.68 130461.68 0 1 1 260923.35 0a 130461.68 130461.68 0 1 1 -260923.35 0M 16025815.00 59475048.32 m -130461.68 0 a 130461.68 130461.68 0 1 1 260923.35 0a 130461.68 130461.68 0 1 1 -260923.35 0M 16360461.00 58943552.32 m -130461.68 0 a 130461.68 130461.68 0 1 1 260923.35 0a 130461.68 130461.68 0 1 1 -260923.35 0M 16711320.00 59624657.00 L 16711320.00 59034105.00 A 180637.35 180637.35 0 0 1 17072592.00 59034105.00 L 17072592.00 59624657.00 A 180637.35 180637.35 0 0 1 16711320.00 59624657.00  zM 18008600.65 59029596.97 m -168236.03 0 a 168236.03 168236.03 0 1 1 336472.07 0a 168236.03 168236.03 0 1 1 -336472.07 0M 16360461.00 59475048.32 m -130461.68 0 a 130461.68 130461.68 0 1 1 260923.35 0a 130461.68 130461.68 0 1 1 -260923.35 0M 16711320.00 60817570.00 L 16711320.00 60502610.00 A 180637.35 180637.35 0 0 1 17072592.00 60502610.00 L 17072592.00 60817570.00 A 180637.35 180637.35 0 1 1 16711320.00 60817570.00  zM 31936353.00 31857128.00 L 31757929.00 31857128.00 L 31757929.00 30989726.00 L 31936353.00 30989726.00 L 31936353.00 31857128.00  zM 31739502.00 31857128.00 L 31561078.00 31857128.00 L 31561078.00 30989726.00 L 31739502.00 30989726.00 L 31739502.00 31857128.00  zM 32133203.00 31857128.00 L 31954779.00 31857128.00 L 31954779.00 30989726.00 L 32133203.00 30989726.00 L 32133203.00 31857128.00  zM 32526904.00 31857128.00 L 32348480.00 31857128.00 L 32348480.00 30989726.00 L 32526904.00 30989726.00 L 32526904.00 31857128.00  zM 32330054.00 31857128.00 L 32151630.00 31857128.00 L 32151630.00 30989726.00 L 32330054.00 30989726.00 L 32330054.00 31857128.00  zM 32723754.00 31857128.00 L 32545330.00 31857128.00 L 32545330.00 30989726.00 L 32723754.00 30989726.00 L 32723754.00 31857128.00  zM 33117455.00 31857128.00 L 32939031.00 31857128.00 L 32939031.00 30989726.00 L 33117455.00 30989726.00 L 33117455.00 31857128.00  zM 32920605.00 31857128.00 L 32742181.00 31857128.00 L 32742181.00 30989726.00 L 32920605.00 30989726.00 L 32920605.00 31857128.00  zM 33314306.00 31857128.00 L 33135882.00 31857128.00 L 33135882.00 30989726.00 L 33314306.00 30989726.00 L 33314306.00 31857128.00  zM 33708006.00 31857128.00 L 33529582.00 31857128.00 L 33529582.00 30989726.00 L 33708006.00 30989726.00 L 33708006.00 31857128.00  zM 33511156.00 31857128.00 L 33332732.00 31857128.00 L 33332732.00 30989726.00 L 33511156.00 30989726.00 L 33511156.00 31857128.00  zM 33904857.00 31857128.00 L 33726433.00 31857128.00 L 33726433.00 30989726.00 L 33904857.00 30989726.00 L 33904857.00 31857128.00  zM 40007219.00 30124844.00 L 39828795.00 30124844.00 L 39828795.00 29257442.00 L 40007219.00 29257442.00 L 40007219.00 30124844.00  zM 40400920.00 30124844.00 L 40222496.00 30124844.00 L 40222496.00 29257442.00 L 40400920.00 29257442.00 L 40400920.00 30124844.00  zM 40794620.00 30124844.00 L 40616196.00 30124844.00 L 40616196.00 29257442.00 L 40794620.00 29257442.00 L 40794620.00 30124844.00  zM 39219817.00 31857128.00 L 39041393.00 31857128.00 L 39041393.00 30989726.00 L 39219817.00 30989726.00 L 39219817.00 31857128.00  zM 40204069.00 31857128.00 L 40025645.00 31857128.00 L 40025645.00 30989726.00 L 40204069.00 30989726.00 L 40204069.00 31857128.00  zM 40400920.00 31857128.00 L 40222496.00 31857128.00 L 40222496.00 30989726.00 L 40400920.00 30989726.00 L 40400920.00 31857128.00  zM 39613518.00 31857128.00 L 39435094.00 31857128.00 L 39435094.00 30989726.00 L 39613518.00 30989726.00 L 39613518.00 31857128.00  zM 39416668.00 31857128.00 L 39238244.00 31857128.00 L 39238244.00 30989726.00 L 39416668.00 30989726.00 L 39416668.00 31857128.00  zM 39810368.00 31857128.00 L 39631944.00 31857128.00 L 39631944.00 30989726.00 L 39810368.00 30989726.00 L 39810368.00 31857128.00  zM 40007219.00 31857128.00 L 39828795.00 31857128.00 L 39828795.00 30989726.00 L 40007219.00 30989726.00 L 40007219.00 31857128.00  zM 40794620.00 31857128.00 L 40616196.00 31857128.00 L 40616196.00 30989726.00 L 40794620.00 30989726.00 L 40794620.00 31857128.00  zM 41188321.00 30124844.00 L 41009897.00 30124844.00 L 41009897.00 29257442.00 L 41188321.00 29257442.00 L 41188321.00 30124844.00  zM 41582022.00 30124844.00 L 41403598.00 30124844.00 L 41403598.00 29257442.00 L 41582022.00 29257442.00 L 41582022.00 30124844.00  zM 41975723.00 30124844.00 L 41797299.00 30124844.00 L 41797299.00 29257442.00 L 41975723.00 29257442.00 L 41975723.00 30124844.00  zM 41188321.00 31857128.00 L 41009897.00 31857128.00 L 41009897.00 30989726.00 L 41188321.00 30989726.00 L 41188321.00 31857128.00  zM 41582022.00 31857128.00 L 41403598.00 31857128.00 L 41403598.00 30989726.00 L 41582022.00 30989726.00 L 41582022.00 31857128.00  zM 40991471.00 31857128.00 L 40813047.00 31857128.00 L 40813047.00 30989726.00 L 40991471.00 30989726.00 L 40991471.00 31857128.00  zM 41778872.00 31857128.00 L 41600448.00 31857128.00 L 41600448.00 30989726.00 L 41778872.00 30989726.00 L 41778872.00 31857128.00  zM 41385172.00 31857128.00 L 41206748.00 31857128.00 L 41206748.00 30989726.00 L 41385172.00 30989726.00 L 41385172.00 31857128.00  zM 41975723.00 31857128.00 L 41797299.00 31857128.00 L 41797299.00 30989726.00 L 41975723.00 30989726.00 L 41975723.00 31857128.00  zM 42172573.00 31857128.00 L 41994149.00 31857128.00 L 41994149.00 30989726.00 L 42172573.00 30989726.00 L 42172573.00 31857128.00  zM 42369424.00 31857128.00 L 42191000.00 31857128.00 L 42191000.00 30989726.00 L 42369424.00 30989726.00 L 42369424.00 31857128.00  zM 42369424.00 30124844.00 L 42191000.00 30124844.00 L 42191000.00 29257442.00 L 42369424.00 29257442.00 L 42369424.00 30124844.00  zM 42763124.00 30124844.00 L 42584700.00 30124844.00 L 42584700.00 29257442.00 L 42763124.00 29257442.00 L 42763124.00 30124844.00  zM 43550526.00 30124844.00 L 43372102.00 30124844.00 L 43372102.00 29257442.00 L 43550526.00 29257442.00 L 43550526.00 30124844.00  zM 43156825.00 30124844.00 L 42978401.00 30124844.00 L 42978401.00 29257442.00 L 43156825.00 29257442.00 L 43156825.00 30124844.00  zM 43550526.00 31857128.00 L 43372102.00 31857128.00 L 43372102.00 30989726.00 L 43550526.00 30989726.00 L 43550526.00 31857128.00  zM 42959975.00 31857128.00 L 42781551.00 31857128.00 L 42781551.00 30989726.00 L 42959975.00 30989726.00 L 42959975.00 31857128.00  zM 42763124.00 31857128.00 L 42584700.00 31857128.00 L 42584700.00 30989726.00 L 42763124.00 30989726.00 L 42763124.00 31857128.00  zM 42566274.00 31857128.00 L 42387850.00 31857128.00 L 42387850.00 30989726.00 L 42566274.00 30989726.00 L 42566274.00 31857128.00  zM 43156825.00 31857128.00 L 42978401.00 31857128.00 L 42978401.00 30989726.00 L 43156825.00 30989726.00 L 43156825.00 31857128.00  zM 43353676.00 31857128.00 L 43175252.00 31857128.00 L 43175252.00 30989726.00 L 43353676.00 30989726.00 L 43353676.00 31857128.00  zM 43747376.00 31857128.00 L 43568952.00 31857128.00 L 43568952.00 30989726.00 L 43747376.00 30989726.00 L 43747376.00 31857128.00  zM 32015521.00 34977790.00 L 32058425.97 34949122.00 L 31958035.00 34949122.00 L 31958035.00 34239202.00 L 32329373.00 34239202.00 L 32329373.00 34949122.00 L 32228982.03 34949122.00 L 32271887.00 34977790.00 A 181279.69 181279.69 0 1 1 32015521.00 34977790.00  zM 33015521.00 34977790.00 L 33058425.97 34949122.00 L 32958035.00 34949122.00 L 32958035.00 34239202.00 L 33329373.00 34239202.00 L 33329373.00 34949122.00 L 33228982.03 34949122.00 L 33271887.00 34977790.00 A 181279.69 181279.69 0 1 1 33015521.00 34977790.00  zM 32829373.00 35972744.00 L 32458035.00 35972744.00 L 32458035.00 35262824.00 L 32558425.97 35262824.00 L 32515521.00 35234156.00 A 181279.69 181279.69 0 1 1 32771887.00 35234156.00 L 32728982.03 35262824.00 L 32829373.00 35262824.00 L 32829373.00 35972744.00  zM 34015521.00 34977790.00 L 34058425.97 34949122.00 L 33958035.00 34949122.00 L 33958035.00 34239202.00 L 34329373.00 34239202.00 L 34329373.00 34949122.00 L 34228982.03 34949122.00 L 34271887.00 34977790.00 A 181279.69 181279.69 0 1 1 34015521.00 34977790.00  zM 33829373.00 35972744.00 L 33458035.00 35972744.00 L 33458035.00 35262824.00 L 33558425.97 35262824.00 L 33515521.00 35234156.00 A 181279.69 181279.69 0 1 1 33771887.00 35234156.00 L 33728982.03 35262824.00 L 33829373.00 35262824.00 L 33829373.00 35972744.00  zM 34829373.00 35972744.00 L 34458035.00 35972744.00 L 34458035.00 35262824.00 L 34558425.97 35262824.00 L 34515521.00 35234156.00 A 181279.69 181279.69 0 1 1 34771887.00 35234156.00 L 34728982.03 35262824.00 L 34829373.00 35262824.00 L 34829373.00 35972744.00  zM 35015521.00 34977790.00 L 35058425.97 34949122.00 L 34958035.00 34949122.00 L 34958035.00 34239202.00 L 35329373.00 34239202.00 L 35329373.00 34949122.00 L 35228982.03 34949122.00 L 35271887.00 34977790.00 A 181279.69 181279.69 0 1 1 35015521.00 34977790.00  zM 36015521.00 34977790.00 L 36058425.97 34949122.00 L 35958035.00 34949122.00 L 35958035.00 34239202.00 L 36329373.00 34239202.00 L 36329373.00 34949122.00 L 36228982.03 34949122.00 L 36271887.00 34977790.00 A 181279.69 181279.69 0 1 1 36015521.00 34977790.00  zM 35829373.00 35972744.00 L 35458035.00 35972744.00 L 35458035.00 35262824.00 L 35558425.97 35262824.00 L 35515521.00 35234156.00 A 181279.69 181279.69 0 1 1 35771887.00 35234156.00 L 35728982.03 35262824.00 L 35829373.00 35262824.00 L 35829373.00 35972744.00  zM 37015521.00 34977790.00 L 37058425.97 34949122.00 L 36958035.00 34949122.00 L 36958035.00 34239202.00 L 37329373.00 34239202.00 L 37329373.00 34949122.00 L 37228982.03 34949122.00 L 37271887.00 34977790.00 A 181279.69 181279.69 0 1 1 37015521.00 34977790.00  zM 36829373.00 35972744.00 L 36458035.00 35972744.00 L 36458035.00 35262824.00 L 36558425.97 35262824.00 L 36515521.00 35234156.00 A 181279.69 181279.69 0 1 1 36771887.00 35234156.00 L 36728982.03 35262824.00 L 36829373.00 35262824.00 L 36829373.00 35972744.00  zM 38015521.00 34977790.00 L 38058425.97 34949122.00 L 37958035.00 34949122.00 L 37958035.00 34239202.00 L 38329373.00 34239202.00 L 38329373.00 34949122.00 L 38228982.03 34949122.00 L 38271887.00 34977790.00 A 181279.69 181279.69 0 1 1 38015521.00 34977790.00  zM 37829373.00 35972744.00 L 37458035.00 35972744.00 L 37458035.00 35262824.00 L 37558425.97 35262824.00 L 37515521.00 35234156.00 A 181279.69 181279.69 0 1 1 37771887.00 35234156.00 L 37728982.03 35262824.00 L 37829373.00 35262824.00 L 37829373.00 35972744.00  zM 38829373.00 35972744.00 L 38458035.00 35972744.00 L 38458035.00 35262824.00 L 38558425.97 35262824.00 L 38515521.00 35234156.00 A 181279.69 181279.69 0 1 1 38771887.00 35234156.00 L 38728982.03 35262824.00 L 38829373.00 35262824.00 L 38829373.00 35972744.00  zM 39015521.00 34977790.00 L 39058425.97 34949122.00 L 38958035.00 34949122.00 L 38958035.00 34239202.00 L 39329373.00 34239202.00 L 39329373.00 34949122.00 L 39228982.03 34949122.00 L 39271887.00 34977790.00 A 181279.69 181279.69 0 1 1 39015521.00 34977790.00  zM 40015521.00 34977790.00 L 40058425.97 34949122.00 L 39958035.00 34949122.00 L 39958035.00 34239202.00 L 40329373.00 34239202.00 L 40329373.00 34949122.00 L 40228982.03 34949122.00 L 40271887.00 34977790.00 A 181279.69 181279.69 0 1 1 40015521.00 34977790.00  zM 39829373.00 35972744.00 L 39458035.00 35972744.00 L 39458035.00 35262824.00 L 39558425.97 35262824.00 L 39515521.00 35234156.00 A 181279.69 181279.69 0 1 1 39771887.00 35234156.00 L 39728982.03 35262824.00 L 39829373.00 35262824.00 L 39829373.00 35972744.00  zM 40597770.00 31857128.00 L 40419346.00 31857128.00 L 40419346.00 30989726.00 L 40597770.00 30989726.00 L 40597770.00 31857128.00  zM 41015521.00 34977790.00 L 41058425.97 34949122.00 L 40958035.00 34949122.00 L 40958035.00 34239202.00 L 41329373.00 34239202.00 L 41329373.00 34949122.00 L 41228982.03 34949122.00 L 41271887.00 34977790.00 A 181279.69 181279.69 0 1 1 41015521.00 34977790.00  zM 40829373.00 35972744.00 L 40458035.00 35972744.00 L 40458035.00 35262824.00 L 40558425.97 35262824.00 L 40515521.00 35234156.00 A 181279.69 181279.69 0 1 1 40771887.00 35234156.00 L 40728982.03 35262824.00 L 40829373.00 35262824.00 L 40829373.00 35972744.00  zM 43944227.00 31857128.00 L 43765803.00 31857128.00 L 43765803.00 30989726.00 L 43944227.00 30989726.00 L 43944227.00 31857128.00  zM 48220196.60 35220161.06 m -633585.94 0 a 633585.94 633585.94 0 1 1 1267171.88 0a 633585.94 633585.94 0 1 1 -1267171.88 0M 41829373.00 35972744.00 L 41458035.00 35972744.00 L 41458035.00 35262824.00 L 41558425.97 35262824.00 L 41515521.00 35234156.00 A 181279.69 181279.69 0 1 1 41771887.00 35234156.00 L 41728982.03 35262824.00 L 41829373.00 35262824.00 L 41829373.00 35972744.00  zM 48046602.00 37893744.00 L 48004294.00 37830424.30 L 48004294.00 37960933.00 L 47174294.00 37960933.00 L 47174294.00 37479359.00 L 48004294.00 37479359.00 L 48004294.00 37609867.70 L 48046602.00 37546548.00 A 245511.05 245511.05 0 1 1 48046602.00 37893744.00  zM 48046602.00 41893744.00 L 48004294.00 41830424.30 L 48004294.00 41960933.00 L 47174294.00 41960933.00 L 47174294.00 41479359.00 L 48004294.00 41479359.00 L 48004294.00 41609867.70 L 48046602.00 41546548.00 A 245511.05 245511.05 0 1 1 48046602.00 41893744.00  zM 48046602.00 39893744.00 L 48004294.00 39830424.30 L 48004294.00 39960933.00 L 47174294.00 39960933.00 L 47174294.00 39479359.00 L 48004294.00 39479359.00 L 48004294.00 39609867.70 L 48046602.00 39546548.00 A 245511.05 245511.05 0 1 1 48046602.00 39893744.00  zM 48393798.00 38546548.00 L 48436106.00 38609867.70 L 48436106.00 38479359.00 L 49266106.00 38479359.00 L 49266106.00 38960933.00 L 48436106.00 38960933.00 L 48436106.00 38830424.30 L 48393798.00 38893744.00 A 245511.05 245511.05 0 1 1 48393798.00 38546548.00  zM 48393798.00 40546548.00 L 48436106.00 40609867.70 L 48436106.00 40479359.00 L 49266106.00 40479359.00 L 49266106.00 40960933.00 L 48436106.00 40960933.00 L 48436106.00 40830424.30 L 48393798.00 40893744.00 A 245511.05 245511.05 0 1 1 48393798.00 40546548.00  zM 48046602.00 43893744.00 L 48004294.00 43830424.30 L 48004294.00 43960933.00 L 47174294.00 43960933.00 L 47174294.00 43479359.00 L 48004294.00 43479359.00 L 48004294.00 43609867.70 L 48046602.00 43546548.00 A 245511.05 245511.05 0 1 1 48046602.00 43893744.00  zM 48393798.00 42546548.00 L 48436106.00 42609867.70 L 48436106.00 42479359.00 L 49266106.00 42479359.00 L 49266106.00 42960933.00 L 48436106.00 42960933.00 L 48436106.00 42830424.30 L 48393798.00 42893744.00 A 245511.05 245511.05 0 1 1 48393798.00 42546548.00  zM 48393798.00 44546548.00 L 48436106.00 44609867.70 L 48436106.00 44479359.00 L 49266106.00 44479359.00 L 49266106.00 44960933.00 L 48436106.00 44960933.00 L 48436106.00 44830424.30 L 48393798.00 44893744.00 A 245511.05 245511.05 0 1 1 48393798.00 44546548.00  zM 48046602.00 45893744.00 L 48004294.00 45830424.30 L 48004294.00 45960933.00 L 47174294.00 45960933.00 L 47174294.00 45479359.00 L 48004294.00 45479359.00 L 48004294.00 45609867.70 L 48046602.00 45546548.00 A 245511.05 245511.05 0 1 1 48046602.00 45893744.00  zM 48393798.00 46546548.00 L 48436106.00 46609867.70 L 48436106.00 46479359.00 L 49266106.00 46479359.00 L 49266106.00 46960933.00 L 48436106.00 46960933.00 L 48436106.00 46830424.30 L 48393798.00 46893744.00 A 245511.05 245511.05 0 1 1 48393798.00 46546548.00  zM 48046602.00 47893744.00 L 48004294.00 47830424.30 L 48004294.00 47960933.00 L 47174294.00 47960933.00 L 47174294.00 47479359.00 L 48004294.00 47479359.00 L 48004294.00 47609867.70 L 48046602.00 47546548.00 A 245511.05 245511.05 0 1 1 48046602.00 47893744.00  zM 48393798.00 48546548.00 L 48436106.00 48609867.70 L 48436106.00 48479359.00 L 49266106.00 48479359.00 L 49266106.00 48960933.00 L 48436106.00 48960933.00 L 48436106.00 48830424.30 L 48393798.00 48893744.00 A 245511.05 245511.05 0 1 1 48393798.00 48546548.00  zM 48046602.00 49893744.00 L 48004294.00 49830424.30 L 48004294.00 49960933.00 L 47174294.00 49960933.00 L 47174294.00 49479359.00 L 48004294.00 49479359.00 L 48004294.00 49609867.70 L 48046602.00 49546548.00 A 245511.05 245511.05 0 1 1 48046602.00 49893744.00  zM 48046602.00 51893744.00 L 48004294.00 51830424.30 L 48004294.00 51960933.00 L 47174294.00 51960933.00 L 47174294.00 51479359.00 L 48004294.00 51479359.00 L 48004294.00 51609867.70 L 48046602.00 51546548.00 A 245511.05 245511.05 0 1 1 48046602.00 51893744.00  zM 48393798.00 50546548.00 L 48436106.00 50609867.70 L 48436106.00 50479359.00 L 49266106.00 50479359.00 L 49266106.00 50960933.00 L 48436106.00 50960933.00 L 48436106.00 50830424.30 L 48393798.00 50893744.00 A 245511.05 245511.05 0 1 1 48393798.00 50546548.00  zM 48393798.00 52546548.00 L 48436106.00 52609867.70 L 48436106.00 52479359.00 L 49266106.00 52479359.00 L 49266106.00 52960933.00 L 48436106.00 52960933.00 L 48436106.00 52830424.30 L 48393798.00 52893744.00 A 245511.05 245511.05 0 1 1 48393798.00 52546548.00  zM 48046602.00 53893744.00 L 48004294.00 53830424.30 L 48004294.00 53960933.00 L 47174294.00 53960933.00 L 47174294.00 53479359.00 L 48004294.00 53479359.00 L 48004294.00 53609867.70 L 48046602.00 53546548.00 A 245511.05 245511.05 0 1 1 48046602.00 53893744.00  zM 48393798.00 54546548.00 L 48436106.00 54609867.70 L 48436106.00 54479359.00 L 49266106.00 54479359.00 L 49266106.00 54960933.00 L 48436106.00 54960933.00 L 48436106.00 54830424.30 L 48393798.00 54893744.00 A 245511.05 245511.05 0 1 1 48393798.00 54546548.00  zM 48046602.00 55893744.00 L 48004294.00 55830424.30 L 48004294.00 55960933.00 L 47174294.00 55960933.00 L 47174294.00 55479359.00 L 48004294.00 55479359.00 L 48004294.00 55609867.70 L 48046602.00 55546548.00 A 245511.05 245511.05 0 1 1 48046602.00 55893744.00  zM 48393798.00 56546548.00 L 48436106.00 56609867.70 L 48436106.00 56479359.00 L 49266106.00 56479359.00 L 49266106.00 56960933.00 L 48436106.00 56960933.00 L 48436106.00 56830424.30 L 48393798.00 56893744.00 A 245511.05 245511.05 0 1 1 48393798.00 56546548.00  zM 48220196.60 59220161.06 m -633585.94 0 a 633585.94 633585.94 0 1 1 1267171.88 0a 633585.94 633585.94 0 1 1 -1267171.88 0"/>
</g>
</svg>
