<svg width="99.00000012mm" height="119.08716594mm" viewBox="0 0 38976378 46884711"  version="1.1" xmlns="http://www.w3.org/2000/svg" xmlns:xlink="http://www.w3.org/1999/xlink">
<desc>
Origin 0 0 Bound 10687011 14338257 38976378 46884711
</desc>
<g fill-rule="evenodd" fill="rgb(128, 0, 128)" stroke="black" stroke-width="1" transform="translate(0, 46884711) scale(1, -1) translate(-10687011, -14338257)">
<path id="N" d="M 20529530.00 60335658.00 L 20529531.00 59354371.00 A 989040.26 989040.26 0 0 0 19642219.00 58467060.00 L 16986224.00 58467059.00 L 16889750.00 58462319.00 A 984244.34 984244.34 0 0 1 16001972.00 57482808.00 L 16001973.00 36976052.00 L 16006712.00 36879578.00 A 984244.34 984244.34 0 0 1 16986224.00 35991800.00 L 43364176.00 35991801.00 L 43460649.00 35996540.00 A 984244.34 984244.34 0 0 1 44348428.00 36976052.00 L 44348428.00 59332834.00 A 989014.36 989014.36 0 0 0 45235739.00 60220146.00 L 48776077.00 60220146.00 A 989040.26 989040.26 0 0 0 49663389.00 59332834.00 L 49663388.00 34933107.00 A 989002.09 989002.09 0 0 0 49443654.00 34402624.00 L 47401446.00 32360414.00 L 47336581.00 32288846.00 A 984241.09 984241.09 0 0 1 47113167.00 31664444.00 L 47113167.00 14338257.00 L 13237233.00 14338257.00 L 13237233.00 31664445.00 L 13232493.00 31760918.00 A 984241.79 984241.79 0 0 1 12948952.00 32360416.00 L 10906744.00 34402623.00 A 989019.94 989019.94 0 0 0 10687011.00 34933107.00 L 10687011.00 59332834.00 A 989014.36 989014.36 0 0 0 11574322.00 60220146.00 L 11671263.00 60220146.00 L 13442917.00 61222968.00 L 19642219.00 61222968.00 A 989027.50 989027.50 0 0 0 20529530.00 60335658.00  zM 13792200.65 16408396.97 m -168236.03 0 a 168236.03 168236.03 0 1 1 336472.07 0a 168236.03 168236.03 0 1 1 -336472.07 0M 14786071.65 17453067.97 m -168236.03 0 a 168236.03 168236.03 0 1 1 336472.07 0a 168236.03 168236.03 0 1 1 -336472.07 0M 13716000.65 18389596.97 m -168236.03 0 a 168236.03 168236.03 0 1 1 336472.07 0a 168236.03 168236.03 0 1 1 -336472.07 0M 14859000.65 19253196.97 m -168236.03 0 a 168236.03 168236.03 0 1 1 336472.07 0a 168236.03 168236.03 0 1 1 -336472.07 0M 17462496.36 17017381.49 m -278589.51 0 a 278589.51 278589.51 0 1 1 557179.03 0a 278589.51 278589.51 0 1 1 -557179.03 0M 18526121.00 17293588.00 L 17973681.00 17293588.00 L 17973681.00 16741148.00 L 18526121.00 16741148.00 L 18526121.00 17293588.00  zM 24269696.36 17042781.49 m -278589.51 0 a 278589.51 278589.51 0 1 1 557179.03 0a 278589.51 278589.51 0 1 1 -557179.03 0M 25333321.00 17318988.00 L 24780881.00 17318988.00 L 24780881.00 16766548.00 L 25333321.00 16766548.00 L 25333321.00 17318988.00  zM 17145002.00 24145993.05 m -338174.95 0 a 338174.95 338174.95 0 1 1 676349.89 0a 338174.95 338174.95 0 1 1 -676349.89 0M 17480275.00 25481275.00 L 16809725.00 25481275.00 L 16809725.00 24810725.00 L 17480275.00 24810725.00 L 17480275.00 25481275.00  zM 14773402.00 33553393.05 m -338174.95 0 a 338174.95 338174.95 0 1 1 676349.89 0a 338174.95 338174.95 0 1 1 -676349.89 0M 16108675.00 33888675.00 L 15438125.00 33888675.00 L 15438125.00 33218125.00 L 16108675.00 33218125.00 L 16108675.00 33888675.00  zM 18718508.50 35105971.31 m -181279.69 0 a 181279.69 181279.69 0 1 1 362559.37 0a 181279.69 181279.69 0 1 1 -362559.37 0M 20718508.50 35105971.31 m -181279.69 0 a 181279.69 181279.69 0 1 1 362559.37 0a 181279.69 181279.69 0 1 1 -362559.37 0M 25218508.50 35105971.31 m -181279.69 0 a 181279.69 181279.69 0 1 1 362559.37 0a 181279.69 181279.69 0 1 1 -362559.37 0M 12130196.60 35220161.06 m -633585.94 0 a 633585.94 633585.94 0 1 1 1267171.88 0a 633585.94 633585.94 0 1 1 -1267171.88 0M 12130202.01 37720138.95 m -245511.05 0 a 245511.05 245511.05 0 1 1 491022.11 0a 245511.05 245511.05 0 1 1 -491022.11 0M 12130202.01 38720138.95 m -245511.05 0 a 245511.05 245511.05 0 1 1 491022.11 0a 245511.05 245511.05 0 1 1 -491022.11 0M 12130202.01 39720138.95 m -245511.05 0 a 245511.05 245511.05 0 1 1 491022.11 0a 245511.05 245511.05 0 1 1 -491022.11 0M 19218508.50 35105971.31 m -181279.69 0 a 181279.69 181279.69 0 1 1 362559.37 0a 181279.69 181279.69 0 1 1 -362559.37 0M 19718508.50 35105971.31 m -181279.69 0 a 181279.69 181279.69 0 1 1 362559.37 0a 181279.69 181279.69 0 1 1 -362559.37 0M 20218508.50 35105971.31 m -181279.69 0 a 181279.69 181279.69 0 1 1 362559.37 0a 181279.69 181279.69 0 1 1 -362559.37 0M 21218508.50 35105971.31 m -181279.69 0 a 181279.69 181279.69 0 1 1 362559.37 0a 181279.69 181279.69 0 1 1 -362559.37 0M 21718508.50 35105971.31 m -181279.69 0 a 181279.69 181279.69 0 1 1 362559.37 0a 181279.69 181279.69 0 1 1 -362559.37 0M 22218508.50 35105971.31 m -181279.69 0 a 181279.69 181279.69 0 1 1 362559.37 0a 181279.69 181279.69 0 1 1 -362559.37 0M 22718508.50 35105971.31 m -181279.69 0 a 181279.69 181279.69 0 1 1 362559.37 0a 181279.69 181279.69 0 1 1 -362559.37 0M 23218508.50 35105971.31 m -181279.69 0 a 181279.69 181279.69 0 1 1 362559.37 0a 181279.69 181279.69 0 1 1 -362559.37 0M 23718508.50 35105971.31 m -181279.69 0 a 181279.69 181279.69 0 1 1 362559.37 0a 181279.69 181279.69 0 1 1 -362559.37 0M 24218508.50 35105971.31 m -181279.69 0 a 181279.69 181279.69 0 1 1 362559.37 0a 181279.69 181279.69 0 1 1 -362559.37 0M 24718508.50 35105971.31 m -181279.69 0 a 181279.69 181279.69 0 1 1 362559.37 0a 181279.69 181279.69 0 1 1 -362559.37 0M 25718508.50 35105971.31 m -181279.69 0 a 181279.69 181279.69 0 1 1 362559.37 0a 181279.69 181279.69 0 1 1 -362559.37 0M 26218508.50 35105971.31 m -181279.69 0 a 181279.69 181279.69 0 1 1 362559.37 0a 181279.69 181279.69 0 1 1 -362559.37 0M 26718508.50 35105971.31 m -181279.69 0 a 181279.69 181279.69 0 1 1 362559.37 0a 181279.69 181279.69 0 1 1 -362559.37 0M 27218508.50 35105971.31 m -181279.69 0 a 181279.69 181279.69 0 1 1 362559.37 0a 181279.69 181279.69 0 1 1 -362559.37 0M 27718508.50 35105971.31 m -181279.69 0 a 181279.69 181279.69 0 1 1 362559.37 0a 181279.69 181279.69 0 1 1 -362559.37 0M 28218508.50 35105971.31 m -181279.69 0 a 181279.69 181279.69 0 1 1 362559.37 0a 181279.69 181279.69 0 1 1 -362559.37 0M 32155516.50 35105971.31 m -181279.69 0 a 181279.69 181279.69 0 1 1 362559.37 0a 181279.69 181279.69 0 1 1 -362559.37 0M 32655516.50 35105971.31 m -181279.69 0 a 181279.69 181279.69 0 1 1 362559.37 0a 181279.69 181279.69 0 1 1 -362559.37 0M 33155516.50 35105971.31 m -181279.69 0 a 181279.69 181279.69 0 1 1 362559.37 0a 181279.69 181279.69 0 1 1 -362559.37 0M 33655516.50 35105971.31 m -181279.69 0 a 181279.69 181279.69 0 1 1 362559.37 0a 181279.69 181279.69 0 1 1 -362559.37 0M 34155516.50 35105971.31 m -181279.69 0 a 181279.69 181279.69 0 1 1 362559.37 0a 181279.69 181279.69 0 1 1 -362559.37 0M 34655516.50 35105971.31 m -181279.69 0 a 181279.69 181279.69 0 1 1 362559.37 0a 181279.69 181279.69 0 1 1 -362559.37 0M 35155516.50 35105971.31 m -181279.69 0 a 181279.69 181279.69 0 1 1 362559.37 0a 181279.69 181279.69 0 1 1 -362559.37 0M 35655516.50 35105971.31 m -181279.69 0 a 181279.69 181279.69 0 1 1 362559.37 0a 181279.69 181279.69 0 1 1 -362559.37 0M 36155516.50 35105971.31 m -181279.69 0 a 181279.69 181279.69 0 1 1 362559.37 0a 181279.69 181279.69 0 1 1 -362559.37 0M 36655516.50 35105971.31 m -181279.69 0 a 181279.69 181279.69 0 1 1 362559.37 0a 181279.69 181279.69 0 1 1 -362559.37 0M 37155516.50 35105971.31 m -181279.69 0 a 181279.69 181279.69 0 1 1 362559.37 0a 181279.69 181279.69 0 1 1 -362559.37 0M 37655516.50 35105971.31 m -181279.69 0 a 181279.69 181279.69 0 1 1 362559.37 0a 181279.69 181279.69 0 1 1 -362559.37 0M 38155516.50 35105971.31 m -181279.69 0 a 181279.69 181279.69 0 1 1 362559.37 0a 181279.69 181279.69 0 1 1 -362559.37 0M 38655516.50 35105971.31 m -181279.69 0 a 181279.69 181279.69 0 1 1 362559.37 0a 181279.69 181279.69 0 1 1 -362559.37 0M 39155516.50 35105971.31 m -181279.69 0 a 181279.69 181279.69 0 1 1 362559.37 0a 181279.69 181279.69 0 1 1 -362559.37 0M 39655516.50 35105971.31 m -181279.69 0 a 181279.69 181279.69 0 1 1 362559.37 0a 181279.69 181279.69 0 1 1 -362559.37 0M 40155516.50 35105971.31 m -181279.69 0 a 181279.69 181279.69 0 1 1 362559.37 0a 181279.69 181279.69 0 1 1 -362559.37 0M 40655516.50 35105971.31 m -181279.69 0 a 181279.69 181279.69 0 1 1 362559.37 0a 181279.69 181279.69 0 1 1 -362559.37 0M 41155516.50 35105971.31 m -181279.69 0 a 181279.69 181279.69 0 1 1 362559.37 0a 181279.69 181279.69 0 1 1 -362559.37 0M 41655516.50 35105971.31 m -181279.69 0 a 181279.69 181279.69 0 1 1 362559.37 0a 181279.69 181279.69 0 1 1 -362559.37 0M 48220196.60 35220161.06 m -633585.94 0 a 633585.94 633585.94 0 1 1 1267171.88 0a 633585.94 633585.94 0 1 1 -1267171.88 0M 48220202.01 37720138.95 m -245511.05 0 a 245511.05 245511.05 0 1 1 491022.11 0a 245511.05 245511.05 0 1 1 -491022.11 0M 48220202.01 38720138.95 m -245511.05 0 a 245511.05 245511.05 0 1 1 491022.11 0a 245511.05 245511.05 0 1 1 -491022.11 0M 48220202.01 39720138.95 m -245511.05 0 a 245511.05 245511.05 0 1 1 491022.11 0a 245511.05 245511.05 0 1 1 -491022.11 0M 12130202.01 40720138.95 m -245511.05 0 a 245511.05 245511.05 0 1 1 491022.11 0a 245511.05 245511.05 0 1 1 -491022.11 0M 12130202.01 41720138.95 m -245511.05 0 a 245511.05 245511.05 0 1 1 491022.11 0a 245511.05 245511.05 0 1 1 -491022.11 0M 12130202.01 42720138.95 m -245511.05 0 a 245511.05 245511.05 0 1 1 491022.11 0a 245511.05 245511.05 0 1 1 -491022.11 0M 12130202.01 43720138.95 m -245511.05 0 a 245511.05 245511.05 0 1 1 491022.11 0a 245511.05 245511.05 0 1 1 -491022.11 0M 12130202.01 44720138.95 m -245511.05 0 a 245511.05 245511.05 0 1 1 491022.11 0a 245511.05 245511.05 0 1 1 -491022.11 0M 12130202.01 45720138.95 m -245511.05 0 a 245511.05 245511.05 0 1 1 491022.11 0a 245511.05 245511.05 0 1 1 -491022.11 0M 12130202.01 46720138.95 m -245511.05 0 a 245511.05 245511.05 0 1 1 491022.11 0a 245511.05 245511.05 0 1 1 -491022.11 0M 12130202.01 47720138.95 m -245511.05 0 a 245511.05 245511.05 0 1 1 491022.11 0a 245511.05 245511.05 0 1 1 -491022.11 0M 12130202.01 48720138.95 m -245511.05 0 a 245511.05 245511.05 0 1 1 491022.11 0a 245511.05 245511.05 0 1 1 -491022.11 0M 12130202.01 49720138.95 m -245511.05 0 a 245511.05 245511.05 0 1 1 491022.11 0a 245511.05 245511.05 0 1 1 -491022.11 0M 12130202.01 50720138.95 m -245511.05 0 a 245511.05 245511.05 0 1 1 491022.11 0a 245511.05 245511.05 0 1 1 -491022.11 0M 12130202.01 51720138.95 m -245511.05 0 a 245511.05 245511.05 0 1 1 491022.11 0a 245511.05 245511.05 0 1 1 -491022.11 0M 12130202.01 52720138.95 m -245511.05 0 a 245511.05 245511.05 0 1 1 491022.11 0a 245511.05 245511.05 0 1 1 -491022.11 0M 12130202.01 53720138.95 m -245511.05 0 a 245511.05 245511.05 0 1 1 491022.11 0a 245511.05 245511.05 0 1 1 -491022.11 0M 12130202.01 54720138.95 m -245511.05 0 a 245511.05 245511.05 0 1 1 491022.11 0a 245511.05 245511.05 0 1 1 -491022.11 0M 12130202.01 55720138.95 m -245511.05 0 a 245511.05 245511.05 0 1 1 491022.11 0a 245511.05 245511.05 0 1 1 -491022.11 0M 12130202.01 56720138.95 m -245511.05 0 a 245511.05 245511.05 0 1 1 491022.11 0a 245511.05 245511.05 0 1 1 -491022.11 0M 14782801.00 58828302.32 m -130461.68 0 a 130461.68 130461.68 0 1 1 260923.35 0a 130461.68 130461.68 0 1 1 -260923.35 0M 15117447.00 58828302.32 m -130461.68 0 a 130461.68 130461.68 0 1 1 260923.35 0a 130461.68 130461.68 0 1 1 -260923.35 0M 14113510.00 58828302.32 m -130461.68 0 a 130461.68 130461.68 0 1 1 260923.35 0a 130461.68 130461.68 0 1 1 -260923.35 0M 13401377.00 59509407.00 L 13401377.00 58918855.00 A 180637.35 180637.35 0 0 1 13762649.00 58918855.00 L 13762649.00 59509407.00 A 180637.35 180637.35 0 0 1 13401377.00 59509407.00  zM 14448156.00 58828302.32 m -130461.68 0 a 130461.68 130461.68 0 1 1 260923.35 0a 130461.68 130461.68 0 1 1 -260923.35 0M 15452093.00 58828302.32 m -130461.68 0 a 130461.68 130461.68 0 1 1 260923.35 0a 130461.68 130461.68 0 1 1 -260923.35 0M 12130196.60 59220161.06 m -633585.94 0 a 633585.94 633585.94 0 1 1 1267171.88 0a 633585.94 633585.94 0 1 1 -1267171.88 0M 13401377.00 60702320.00 L 13401377.00 60387360.00 A 180637.35 180637.35 0 0 1 13762649.00 60387360.00 L 13762649.00 60702320.00 A 180637.35 180637.35 0 0 1 13401377.00 60702320.00  zM 14113510.00 59359798.32 m -130461.68 0 a 130461.68 130461.68 0 1 1 260923.35 0a 130461.68 130461.68 0 1 1 -260923.35 0M 14448156.00 59359798.32 m -130461.68 0 a 130461.68 130461.68 0 1 1 260923.35 0a 130461.68 130461.68 0 1 1 -260923.35 0M 14782801.00 59359798.32 m -130461.68 0 a 130461.68 130461.68 0 1 1 260923.35 0a 130461.68 130461.68 0 1 1 -260923.35 0M 15117447.00 59359798.32 m -130461.68 0 a 130461.68 130461.68 0 1 1 260923.35 0a 130461.68 130461.68 0 1 1 -260923.35 0M 15452093.00 59359798.32 m -130461.68 0 a 130461.68 130461.68 0 1 1 260923.35 0a 130461.68 130461.68 0 1 1 -260923.35 0M 15786739.00 58828302.32 m -130461.68 0 a 130461.68 130461.68 0 1 1 260923.35 0a 130461.68 130461.68 0 1 1 -260923.35 0M 16121384.00 58828302.32 m -130461.68 0 a 130461.68 130461.68 0 1 1 260923.35 0a 130461.68 130461.68 0 1 1 -260923.35 0M 16456030.00 58828302.32 m -130461.68 0 a 130461.68 130461.68 0 1 1 260923.35 0a 130461.68 130461.68 0 1 1 -260923.35 0M 16806889.00 59509407.00 L 16806889.00 58918855.00 A 180637.35 180637.35 0 0 1 17168161.00 58918855.00 L 17168161.00 59509407.00 A 180637.35 180637.35 0 0 1 16806889.00 59509407.00  zM 15786739.00 59359798.32 m -130461.68 0 a 130461.68 130461.68 0 1 1 260923.35 0a 130461.68 130461.68 0 1 1 -260923.35 0M 16456030.00 59359798.32 m -130461.68 0 a 130461.68 130461.68 0 1 1 260923.35 0a 130461.68 130461.68 0 1 1 -260923.35 0M 16121384.00 59359798.32 m -130461.68 0 a 130461.68 130461.68 0 1 1 260923.35 0a 130461.68 130461.68 0 1 1 -260923.35 0M 16806889.00 60702320.00 L 16806889.00 60387360.00 A 180637.35 180637.35 0 0 1 17168161.00 60387360.00 L 17168161.00 60702320.00 A 180637.35 180637.35 0 0 1 16806889.00 60702320.00  zM 18260690.00 59843348.00 L 17727934.00 59843348.00 L 17727934.00 59231852.00 L 18260690.00 59231852.00 L 18260690.00 59843348.00  zM 18949666.00 59843348.00 L 18416910.00 59843348.00 L 18416910.00 59231852.00 L 18949666.00 59231852.00 L 18949666.00 59843348.00  zM 18235290.00 60656148.00 L 17702534.00 60656148.00 L 17702534.00 60044652.00 L 18235290.00 60044652.00 L 18235290.00 60656148.00  zM 18924266.00 60656148.00 L 18391510.00 60656148.00 L 18391510.00 60044652.00 L 18924266.00 60044652.00 L 18924266.00 60656148.00  zM 48220202.01 43720138.95 m -245511.05 0 a 245511.05 245511.05 0 1 1 491022.11 0a 245511.05 245511.05 0 1 1 -491022.11 0M 48220202.01 47720138.95 m -245511.05 0 a 245511.05 245511.05 0 1 1 491022.11 0a 245511.05 245511.05 0 1 1 -491022.11 0M 48220196.60 59220161.06 m -633585.94 0 a 633585.94 633585.94 0 1 1 1267171.88 0a 633585.94 633585.94 0 1 1 -1267171.88 0M 48220202.01 40720138.95 m -245511.05 0 a 245511.05 245511.05 0 1 1 491022.11 0a 245511.05 245511.05 0 1 1 -491022.11 0M 48220202.01 41720138.95 m -245511.05 0 a 245511.05 245511.05 0 1 1 491022.11 0a 245511.05 245511.05 0 1 1 -491022.11 0M 48220202.01 42720138.95 m -245511.05 0 a 245511.05 245511.05 0 1 1 491022.11 0a 245511.05 245511.05 0 1 1 -491022.11 0M 48220202.01 44720138.95 m -245511.05 0 a 245511.05 245511.05 0 1 1 491022.11 0a 245511.05 245511.05 0 1 1 -491022.11 0M 48220202.01 45720138.95 m -245511.05 0 a 245511.05 245511.05 0 1 1 491022.11 0a 245511.05 245511.05 0 1 1 -491022.11 0M 48220202.01 46720138.95 m -245511.05 0 a 245511.05 245511.05 0 1 1 491022.11 0a 245511.05 245511.05 0 1 1 -491022.11 0M 48220202.01 48720138.95 m -245511.05 0 a 245511.05 245511.05 0 1 1 491022.11 0a 245511.05 245511.05 0 1 1 -491022.11 0M 48220202.01 49720138.95 m -245511.05 0 a 245511.05 245511.05 0 1 1 491022.11 0a 245511.05 245511.05 0 1 1 -491022.11 0M 48220202.01 50720138.95 m -245511.05 0 a 245511.05 245511.05 0 1 1 491022.11 0a 245511.05 245511.05 0 1 1 -491022.11 0M 48220202.01 51720138.95 m -245511.05 0 a 245511.05 245511.05 0 1 1 491022.11 0a 245511.05 245511.05 0 1 1 -491022.11 0M 48220202.01 52720138.95 m -245511.05 0 a 245511.05 245511.05 0 1 1 491022.11 0a 245511.05 245511.05 0 1 1 -491022.11 0M 48220202.01 53720138.95 m -245511.05 0 a 245511.05 245511.05 0 1 1 491022.11 0a 245511.05 245511.05 0 1 1 -491022.11 0M 48220202.01 54720138.95 m -245511.05 0 a 245511.05 245511.05 0 1 1 491022.11 0a 245511.05 245511.05 0 1 1 -491022.11 0M 48220202.01 55720138.95 m -245511.05 0 a 245511.05 245511.05 0 1 1 491022.11 0a 245511.05 245511.05 0 1 1 -491022.11 0M 48220202.01 56720138.95 m -245511.05 0 a 245511.05 245511.05 0 1 1 491022.11 0a 245511.05 245511.05 0 1 1 -491022.11 0"/>
</g>
</svg>
