<svg width="99.00000012mm" height="119.08716594mm" viewBox="0 0 38976378 46884711"  version="1.1" xmlns="http://www.w3.org/2000/svg" xmlns:xlink="http://www.w3.org/1999/xlink">
<desc>
Origin 0 0 Bound 10687011 14338257 38976378 46884711
</desc>
<g fill-rule="evenodd" fill="rgb(255, 0, 0)" stroke="black" stroke-width="1" transform="translate(0, 46884711) scale(1, -1) translate(-10687011, -14338257)">
<path id="N" d="M 18195290.00 60084652.00 L 17742534.00 60084652.00 L 17742534.00 60285456.00 L 17186902.95 60285456.00 L 16794447.00 59893001.00 L 16748525.00 59873979.00 L 16165929.96 59873979.00 L 15812565.26 59520615.10 L 15821629.00 59475050.00 A 130461.68 130461.68 0 1 0 15691169.00 59605510.00 L 15710021.71 59601759.85 L 16093107.00 59984846.00 L 16139029.00 60003867.00 L 16721624.95 60003867.00 L 17114079.00 60396322.00 L 17160002.00 60415344.00 L 17742534.00 60415344.00 L 17742534.00 60616148.00 L 18195290.00 60616148.00 L 18195290.00 60084652.00  zM 15691168.76 59475048.92 m -80284.08 0 a 80284.08 80284.08 0 1 1 160568.17 0a 80284.08 80284.08 0 1 1 -160568.17 0"/>
<path id="N" d="M 15691169.38 58943554.38 m -130459.26 0 a 130459.26 130459.26 0 1 1 260918.51 0a 130459.26 130459.26 0 1 1 -260918.51 0M 15691168.76 58943552.92 m -80284.08 0 a 80284.08 80284.08 0 1 1 160568.17 0a 80284.08 80284.08 0 1 1 -160568.17 0"/>
<path id="N" d="M 14687231.38 59475050.38 m -130459.26 0 a 130459.26 130459.26 0 1 1 260918.51 0a 130459.26 130459.26 0 1 1 -260918.51 0M 14687230.76 59475048.92 m -80284.08 0 a 80284.08 80284.08 0 1 1 160568.17 0a 80284.08 80284.08 0 1 1 -160568.17 0"/>
<path id="N" d="M 15021877.00 58813094.00 L 15003024.13 58816844.18 L 13975268.00 57789088.98 L 13975268.00 30769776.00 L 14166974.98 30578069.02 L 14176688.00 30585522.00 A 297823.01 297823.01 0 1 0 14067678.00 30476512.00 L 14075130.98 30486225.02 L 13864402.00 30696954.00 L 13845380.00 30742876.00 L 13845380.00 57815989.00 L 13864402.00 57861911.00 L 14900480.44 58897990.37 L 14891417.00 58943554.00 A 130461.68 130461.68 0 1 0 15021877.00 58813094.00  zM 14325600.44 30327598.65 m -180637.35 0 a 180637.35 180637.35 0 1 1 361274.69 0a 180637.35 180637.35 0 1 1 -361274.69 0M 15021876.76 58943552.92 m -80284.08 0 a 80284.08 80284.08 0 1 1 160568.17 0a 80284.08 80284.08 0 1 1 -160568.17 0"/>
<path id="N" d="M 15356523.38 59475050.38 m -130459.26 0 a 130459.26 130459.26 0 1 1 260918.51 0a 130459.26 130459.26 0 1 1 -260918.51 0M 15356522.76 59475048.92 m -80284.08 0 a 80284.08 80284.08 0 1 1 160568.17 0a 80284.08 80284.08 0 1 1 -160568.17 0"/>
<path id="N" d="M 16146343.00 59425125.00 L 16143067.00 59420222.12 L 16143067.00 58998381.88 L 16146343.00 58993479.00 A 130456.67 130456.67 0 1 0 15905285.00 58993479.00 L 15908561.00 58998381.88 L 15908561.00 59420222.12 L 15905285.00 59425125.00 A 130456.67 130456.67 0 1 0 16146343.00 59425125.00  zM 16025813.76 58943552.92 m -80284.08 0 a 80284.08 80284.08 0 1 1 160568.17 0a 80284.08 80284.08 0 1 1 -160568.17 0M 16025813.76 59475048.92 m -80284.08 0 a 80284.08 80284.08 0 1 1 160568.17 0a 80284.08 80284.08 0 1 1 -160568.17 0"/>
<path id="N" d="M 14473115.00 59425125.00 L 14469839.00 59420222.12 L 14469839.00 58998381.88 L 14473115.00 58993479.00 A 130456.67 130456.67 0 1 0 14232057.00 58993479.00 L 14235333.00 58998381.88 L 14235333.00 59420222.12 L 14232057.00 59425125.00 A 130456.67 130456.67 0 1 0 14473115.00 59425125.00  zM 14352585.76 58943552.92 m -80284.08 0 a 80284.08 80284.08 0 1 1 160568.17 0a 80284.08 80284.08 0 1 1 -160568.17 0M 14352585.76 59475048.92 m -80284.08 0 a 80284.08 80284.08 0 1 1 160568.17 0a 80284.08 80284.08 0 1 1 -160568.17 0"/>
<path id="N" d="M 14687231.38 58943554.38 m -130459.26 0 a 130459.26 130459.26 0 1 1 260918.51 0a 130459.26 130459.26 0 1 1 -260918.51 0M 14687230.76 58943552.92 m -80284.08 0 a 80284.08 80284.08 0 1 1 160568.17 0a 80284.08 80284.08 0 1 1 -160568.17 0"/>
<path id="N" d="M 18220690.00 59271852.00 L 18073544.00 59271852.00 L 18073544.00 59136542.56 L 18098720.00 59119720.00 A 127441.40 127441.40 0 1 0 17918480.00 59119720.00 L 17943656.00 59136542.56 L 17943656.00 59271852.00 L 17767934.00 59271852.00 L 17767934.00 59803348.00 L 18220690.00 59803348.00 L 18220690.00 59271852.00  z"/>
<path id="N" d="M 23254920.00 20587920.00 L 23278975.14 20551920.00 L 23825200.00 20551920.00 A 54118.70 54118.70 0 0 0 23825200.00 20443680.00 L 23278975.14 20443680.00 L 23254920.00 20407680.00 A 127441.40 127441.40 0 1 0 23254920.00 20587920.00  z"/>
<path id="N" d="M 15142406.00 59425125.00 L 15136047.79 59415609.27 L 15351727.18 59073060.02 L 15356523.00 59074014.00 A 130461.68 130461.68 0 0 0 15448772.00 58851305.00 L 15421467.00 58833060.38 L 15421467.00 32358523.00 L 15402445.00 32312600.00 L 14620875.00 31531030.76 L 14620875.00 31032325.00 L 14030325.00 31032325.00 L 14030325.00 31622875.00 L 14529030.76 31622875.00 L 15291579.00 32385423.98 L 15291579.00 58833060.38 L 15264274.00 58851305.00 A 130461.68 130461.68 0 0 0 15235994.00 58993479.00 L 15242352.21 59002994.73 L 15026672.82 59345543.98 L 15021877.00 59344590.00 A 130461.68 130461.68 0 1 0 15142406.00 59425125.00  zM 14325600.44 31327598.65 m -180637.35 0 a 180637.35 180637.35 0 1 1 361274.69 0a 180637.35 180637.35 0 1 1 -361274.69 0M 15356522.76 58943552.92 m -80284.08 0 a 80284.08 80284.08 0 1 1 160568.17 0a 80284.08 80284.08 0 1 1 -160568.17 0M 15021876.76 59475048.92 m -80284.08 0 a 80284.08 80284.08 0 1 1 160568.17 0a 80284.08 80284.08 0 1 1 -160568.17 0"/>
<path id="N" d="M 25069800.00 27139900.00 L 24079200.00 27139900.00 L 24079200.00 29197300.00 L 25069800.00 29197300.00 L 25069800.00 27139900.00  zM 24302545.38 27967000.00 L 24200848.34 27967000.00 L 24210252.00 27931905.00 A 353016.46 353016.46 0 0 1 24401305.00 27740852.00 L 24436400.00 27731448.34 L 24436400.00 27833145.38 L 24356160.00 27886760.00 L 24302545.38 27967000.00  zM 24436400.00 28402551.66 L 24401305.00 28393148.00 A 353016.46 353016.46 0 0 1 24210252.00 28202095.00 L 24200848.34 28167000.00 L 24302545.38 28167000.00 L 24356160.00 28247240.00 L 24436400.00 28300854.62 L 24436400.00 28402551.66  zM 24871951.66 27967000.00 L 24770254.62 27967000.00 L 24716640.00 27886760.00 L 24636400.00 27833145.38 L 24636400.00 27731448.34 L 24671495.00 27740852.00 A 353016.46 353016.46 0 0 1 24862548.00 27931905.00 L 24871951.66 27967000.00  zM 24636400.00 28402551.66 L 24636400.00 28300854.62 L 24716640.00 28247240.00 L 24770254.62 28167000.00 L 24871951.66 28167000.00 L 24862548.00 28202095.00 A 353016.46 353016.46 0 0 1 24671495.00 28393148.00 L 24636400.00 28402551.66  z"/>
<path id="N" d="M 25679399.88 27584399.88 m -254898.03 0 a 254898.03 254898.03 0 1 1 509796.06 0a 254898.03 254898.03 0 1 1 -509796.06 0"/>
<path id="N" d="M 25679399.88 28727399.88 m -254898.03 0 a 254898.03 254898.03 0 1 1 509796.06 0a 254898.03 254898.03 0 1 1 -509796.06 0"/>
<path id="N" d="M 38531799.88 32613599.88 m -254898.03 0 a 254898.03 254898.03 0 1 1 509796.06 0a 254898.03 254898.03 0 1 1 -509796.06 0"/>
<path id="N" d="M 21788070.00 25413920.00 L 21812125.14 25377920.00 L 23492143.00 25377921.00 L 23530412.00 25362069.00 L 23692019.00 25200462.00 L 23707870.00 25162190.59 L 23707870.00 24421975.14 L 23743870.00 24397920.00 A 127441.40 127441.40 0 1 0 23563630.00 24397920.00 L 23599630.00 24421975.14 L 23599630.00 25139775.90 L 23469725.10 25269680.00 L 21812125.14 25269680.00 L 21788070.00 25233680.00 A 127441.40 127441.40 0 1 0 21788070.00 25413920.00  z"/>
<path id="N" d="M 22825075.00 15808325.00 L 22234525.00 15808325.00 L 22234525.00 16398875.00 L 22825075.00 16398875.00 L 22825075.00 15808325.00  zM 22529800.44 16103598.65 m -180637.35 0 a 180637.35 180637.35 0 1 1 361274.69 0a 180637.35 180637.35 0 1 1 -361274.69 0"/>
<path id="N" d="M 19337020.00 17399718.00 L 20421600.00 17399718.00 L 20499636.00 17384196.00 L 20565792.00 17339992.00 L 21507320.47 16398463.53 L 21529800.00 16401423.00 A 297823.01 297823.01 0 1 0 21242125.00 16026518.00 L 21232971.73 16096044.27 L 20337134.00 16991882.00 L 19337020.00 16991882.00 L 19337020.00 16959580.00 L 19152964.00 16959580.00 L 18635392.00 16442008.00 L 18569236.00 16397804.00 L 18491200.00 16382282.00 L 16433802.00 16382281.00 L 16355766.00 16397804.00 L 16289610.00 16442008.00 L 15772038.00 16959580.00 L 15587982.00 16959580.00 L 15587982.00 17432020.00 L 16060422.00 17432020.00 L 16060422.00 17247964.00 L 16518268.00 16790118.00 L 18406734.00 16790118.00 L 18864580.00 17247964.00 L 18864580.00 17432020.00 L 19337020.00 17432020.00 L 19337020.00 17399718.00  zM 15824204.38 17195794.09 m -140500.91 0 a 140500.91 140500.91 0 1 1 281001.82 0a 140500.91 140500.91 0 1 1 -281001.82 0M 19100802.38 17195794.09 m -140500.91 0 a 140500.91 140500.91 0 1 1 281001.82 0a 140500.91 140500.91 0 1 1 -281001.82 0M 21529800.44 16103598.65 m -180637.35 0 a 180637.35 180637.35 0 1 1 361274.69 0a 180637.35 180637.35 0 1 1 -361274.69 0"/>
<path id="N" d="M 13667080.00 60817570.00 L 13667080.00 60502610.00 A 180637.35 180637.35 0 0 0 13305808.00 60502610.00 L 13305808.00 60817570.00 A 180637.35 180637.35 0 1 0 13667080.00 60817570.00  zM 13366020.00 60817570.00 L 13366020.00 60502610.00 A 120431.73 120431.73 0 1 1 13606868.00 60502610.00 L 13606868.00 60817570.00 A 120431.73 120431.73 0 1 1 13366020.00 60817570.00  z"/>
<path id="N" d="M 17072592.00 59624657.00 L 17072592.00 59034105.00 A 180637.35 180637.35 0 0 0 16711320.00 59034105.00 L 16711320.00 59624657.00 A 180637.35 180637.35 0 0 0 17072592.00 59624657.00  zM 16771532.00 59624657.00 L 16771532.00 59034105.00 A 120431.73 120431.73 0 1 1 17012380.00 59034105.00 L 17012380.00 59624657.00 A 120431.73 120431.73 0 1 1 16771532.00 59624657.00  z"/>
<path id="N" d="M 17072592.00 60817570.00 L 17072592.00 60502610.00 A 180637.35 180637.35 0 0 0 16711320.00 60502610.00 L 16711320.00 60817570.00 A 180637.35 180637.35 0 1 0 17072592.00 60817570.00  zM 16771532.00 60817570.00 L 16771532.00 60502610.00 A 120431.73 120431.73 0 1 1 17012380.00 60502610.00 L 17012380.00 60817570.00 A 120431.73 120431.73 0 1 1 16771532.00 60817570.00  z"/>
<path id="N" d="M 13667080.00 59624657.00 L 13667080.00 59034105.00 A 180637.35 180637.35 0 0 0 13305808.00 59034105.00 L 13305808.00 59624657.00 A 180637.35 180637.35 0 0 0 13667080.00 59624657.00  zM 13366020.00 59624657.00 L 13366020.00 59034105.00 A 120431.73 120431.73 0 1 1 13606868.00 59034105.00 L 13606868.00 59624657.00 A 120431.73 120431.73 0 1 1 13366020.00 59624657.00  z"/>
<path id="N" d="M 18313389.06 17195791.06 m -240860.29 0 a 240860.29 240860.29 0 1 1 481720.58 0a 240860.29 240860.29 0 1 1 -481720.58 0M 18313400.38 17195794.09 m -140500.91 0 a 140500.91 140500.91 0 1 1 281001.82 0a 140500.91 140500.91 0 1 1 -281001.82 0"/>
<path id="N" d="M 16360460.38 59475050.38 m -130459.26 0 a 130459.26 130459.26 0 1 1 260918.51 0a 130459.26 130459.26 0 1 1 -260918.51 0M 16360459.76 59475048.92 m -80284.08 0 a 80284.08 80284.08 0 1 1 160568.17 0a 80284.08 80284.08 0 1 1 -160568.17 0"/>
<path id="N" d="M 14017940.38 59475050.38 m -130459.26 0 a 130459.26 130459.26 0 1 1 260918.51 0a 130459.26 130459.26 0 1 1 -260918.51 0M 14017939.76 59475048.92 m -80284.08 0 a 80284.08 80284.08 0 1 1 160568.17 0a 80284.08 80284.08 0 1 1 -160568.17 0"/>
<path id="N" d="M 16360460.38 58943554.38 m -130459.26 0 a 130459.26 130459.26 0 1 1 260918.51 0a 130459.26 130459.26 0 1 1 -260918.51 0M 16360459.76 58943552.92 m -80284.08 0 a 80284.08 80284.08 0 1 1 160568.17 0a 80284.08 80284.08 0 1 1 -160568.17 0"/>
<path id="N" d="M 15036791.06 17195791.06 m -240860.29 0 a 240860.29 240860.29 0 1 1 481720.58 0a 240860.29 240860.29 0 1 1 -481720.58 0M 15036802.38 17195794.09 m -140500.91 0 a 140500.91 140500.91 0 1 1 281001.82 0a 140500.91 140500.91 0 1 1 -281001.82 0"/>
<path id="N" d="M 14017940.38 58943554.38 m -130459.26 0 a 130459.26 130459.26 0 1 1 260918.51 0a 130459.26 130459.26 0 1 1 -260918.51 0M 14017939.76 58943552.92 m -80284.08 0 a 80284.08 80284.08 0 1 1 160568.17 0a 80284.08 80284.08 0 1 1 -160568.17 0"/>
<path id="N" d="M 21513793.87 27939993.87 m -127457.60 0 a 127457.60 127457.60 0 1 1 254915.19 0a 127457.60 127457.60 0 1 1 -254915.19 0"/>
<path id="N" d="M 43230793.87 30556193.87 m -127457.60 0 a 127457.60 127457.60 0 1 1 254915.19 0a 127457.60 127457.60 0 1 1 -254915.19 0"/>
<path id="N" d="M 21545543.87 27304993.87 m -127457.60 0 a 127457.60 127457.60 0 1 1 254915.19 0a 127457.60 127457.60 0 1 1 -254915.19 0"/>
<path id="N" d="M 29692593.87 30556193.87 m -127457.60 0 a 127457.60 127457.60 0 1 1 254915.19 0a 127457.60 127457.60 0 1 1 -254915.19 0"/>
<path id="N" d="M 31394393.87 30556193.87 m -127457.60 0 a 127457.60 127457.60 0 1 1 254915.19 0a 127457.60 127457.60 0 1 1 -254915.19 0"/>
<path id="N" d="M 21189943.87 24485593.87 m -127457.60 0 a 127457.60 127457.60 0 1 1 254915.19 0a 127457.60 127457.60 0 1 1 -254915.19 0"/>
<path id="N" d="M 21545543.87 26009593.87 m -127457.60 0 a 127457.60 127457.60 0 1 1 254915.19 0a 127457.60 127457.60 0 1 1 -254915.19 0"/>
<path id="N" d="M 21691593.87 24815793.87 m -127457.60 0 a 127457.60 127457.60 0 1 1 254915.19 0a 127457.60 127457.60 0 1 1 -254915.19 0"/>
<path id="N" d="M 22713943.87 24612593.87 m -127457.60 0 a 127457.60 127457.60 0 1 1 254915.19 0a 127457.60 127457.60 0 1 1 -254915.19 0"/>
<path id="N" d="M 22815543.87 22809193.87 m -127457.60 0 a 127457.60 127457.60 0 1 1 254915.19 0a 127457.60 127457.60 0 1 1 -254915.19 0"/>
<path id="N" d="M 19735793.87 22199593.87 m -127457.60 0 a 127457.60 127457.60 0 1 1 254915.19 0a 127457.60 127457.60 0 1 1 -254915.19 0"/>
<path id="N" d="M 24314143.87 24434793.87 m -127457.60 0 a 127457.60 127457.60 0 1 1 254915.19 0a 127457.60 127457.60 0 1 1 -254915.19 0"/>
<path id="N" d="M 18897593.87 21437593.87 m -127457.60 0 a 127457.60 127457.60 0 1 1 254915.19 0a 127457.60 127457.60 0 1 1 -254915.19 0"/>
<path id="N" d="M 21026150.87 21248400.87 m -127457.60 0 a 127457.60 127457.60 0 1 1 254915.19 0a 127457.60 127457.60 0 1 1 -254915.19 0"/>
<path id="N" d="M 43205393.87 16357593.87 m -127457.60 0 a 127457.60 127457.60 0 1 1 254915.19 0a 127457.60 127457.60 0 1 1 -254915.19 0"/>
<path id="N" d="M 21539193.87 26669993.87 m -127457.60 0 a 127457.60 127457.60 0 1 1 254915.19 0a 127457.60 127457.60 0 1 1 -254915.19 0"/>
<path id="N" d="M 22188998.87 18863738.87 m -127457.60 0 a 127457.60 127457.60 0 1 1 254915.19 0a 127457.60 127457.60 0 1 1 -254915.19 0"/>
<path id="N" d="M 19913593.87 18110193.87 m -127457.60 0 a 127457.60 127457.60 0 1 1 254915.19 0a 127457.60 127457.60 0 1 1 -254915.19 0"/>
<path id="N" d="M 32969193.87 30581593.87 m -127457.60 0 a 127457.60 127457.60 0 1 1 254915.19 0a 127457.60 127457.60 0 1 1 -254915.19 0"/>
<path id="N" d="M 39725593.87 30556193.87 m -127457.60 0 a 127457.60 127457.60 0 1 1 254915.19 0a 127457.60 127457.60 0 1 1 -254915.19 0"/>
<path id="N" d="M 41503593.87 30556193.87 m -127457.60 0 a 127457.60 127457.60 0 1 1 254915.19 0a 127457.60 127457.60 0 1 1 -254915.19 0"/>
<path id="N" d="M 39700193.87 16357593.87 m -127457.60 0 a 127457.60 127457.60 0 1 1 254915.19 0a 127457.60 127457.60 0 1 1 -254915.19 0"/>
<path id="N" d="M 33019993.87 16357593.87 m -127457.60 0 a 127457.60 127457.60 0 1 1 254915.19 0a 127457.60 127457.60 0 1 1 -254915.19 0"/>
<path id="N" d="M 34493193.87 16382993.87 m -127457.60 0 a 127457.60 127457.60 0 1 1 254915.19 0a 127457.60 127457.60 0 1 1 -254915.19 0"/>
<path id="N" d="M 22129743.87 20675593.87 m -127457.60 0 a 127457.60 127457.60 0 1 1 254915.19 0a 127457.60 127457.60 0 1 1 -254915.19 0"/>
<path id="N" d="M 20243793.87 18973793.87 m -127457.60 0 a 127457.60 127457.60 0 1 1 254915.19 0a 127457.60 127457.60 0 1 1 -254915.19 0"/>
<path id="N" d="M 41478193.87 16382993.87 m -127457.60 0 a 127457.60 127457.60 0 1 1 254915.19 0a 127457.60 127457.60 0 1 1 -254915.19 0"/>
<path id="N" d="M 18884266.00 60084652.00 L 18431510.00 60084652.00 L 18431510.00 60616148.00 L 18884266.00 60616148.00 L 18884266.00 60084652.00  z"/>
<path id="N" d="M 18909666.00 59271852.00 L 18456910.00 59271852.00 L 18456910.00 59803348.00 L 18909666.00 59803348.00 L 18909666.00 59271852.00  z"/>
</g>
</svg>
