<svg width="99.00000012mm" height="119.08717102mm" viewBox="0 0 38976378 46884713"  version="1.1" xmlns="http://www.w3.org/2000/svg" xmlns:xlink="http://www.w3.org/1999/xlink">
<desc>
Origin 0 0 Bound 10687012 14338256 38976378 46884713
</desc>
<g fill-rule="evenodd" fill="rgb(255, 0, 0)" stroke="black" stroke-width="1" transform="translate(0, 46884713) scale(1, -1) translate(-10687012, -14338256)">
<path id="N" d="M 18195290.00 60084652.00 L 17742534.00 60084652.00 L 17742534.00 60285456.00 L 17186902.95 60285456.00 L 16794447.00 59893001.00 L 16748525.00 59873979.00 L 16165929.96 59873979.00 L 15812565.26 59520615.10 L 15821629.00 59475050.00 A 130461.68 130461.68 0 1 0 15691169.00 59605510.00 L 15710021.71 59601759.85 L 16093107.00 59984846.00 L 16139029.00 60003867.00 L 16721624.95 60003867.00 L 17114079.00 60396322.00 L 17160002.00 60415344.00 L 17742534.00 60415344.00 L 17742534.00 60616148.00 L 18195290.00 60616148.00 L 18195290.00 60084652.00  zM 15691168.76 59475048.92 m -80284.08 0 a 80284.08 80284.08 0 1 1 160568.17 0a 80284.08 80284.08 0 1 1 -160568.17 0"/>
<path id="N" d="M 31564202.72 23630335.28 L 31569218.00 23625320.00 L 37166624.86 23625320.00 L 37190680.00 23661320.00 A 127441.40 127441.40 0 1 0 37190680.00 23481080.00 L 37166624.86 23517080.00 L 31546800.00 23517080.00 L 31508531.00 23532931.00 L 31487664.72 23553797.28 L 31445200.00 23545351.00 A 127441.40 127441.40 0 1 0 31564202.72 23630335.28  z"/>
<path id="N" d="M 15087993.87 35738663.87 m -127457.60 0 a 127457.60 127457.60 0 1 1 254915.19 0a 127457.60 127457.60 0 1 1 -254915.19 0"/>
<path id="N" d="M 31826193.87 33756593.87 m -127457.60 0 a 127457.60 127457.60 0 1 1 254915.19 0a 127457.60 127457.60 0 1 1 -254915.19 0"/>
<path id="N" d="M 30251393.87 17957793.87 m -127457.60 0 a 127457.60 127457.60 0 1 1 254915.19 0a 127457.60 127457.60 0 1 1 -254915.19 0"/>
<path id="N" d="M 28473393.87 28854393.87 m -127457.60 0 a 127457.60 127457.60 0 1 1 254915.19 0a 127457.60 127457.60 0 1 1 -254915.19 0"/>
<path id="N" d="M 38658793.87 17957793.87 m -127457.60 0 a 127457.60 127457.60 0 1 1 254915.19 0a 127457.60 127457.60 0 1 1 -254915.19 0"/>
<path id="N" d="M 38607993.87 29692593.87 m -127457.60 0 a 127457.60 127457.60 0 1 1 254915.19 0a 127457.60 127457.60 0 1 1 -254915.19 0"/>
<path id="N" d="M 37947599.88 31546799.88 m -254898.03 0 a 254898.03 254898.03 0 1 1 509796.06 0a 254898.03 254898.03 0 1 1 -509796.06 0"/>
<path id="N" d="M 24206199.88 27863799.88 m -254898.03 0 a 254898.03 254898.03 0 1 1 509796.06 0a 254898.03 254898.03 0 1 1 -509796.06 0"/>
<path id="N" d="M 12761099.87 38165887.87 m -127457.60 0 a 127457.60 127457.60 0 1 1 254915.19 0a 127457.60 127457.60 0 1 1 -254915.19 0"/>
<path id="N" d="M 28524193.87 32130993.87 m -127457.60 0 a 127457.60 127457.60 0 1 1 254915.19 0a 127457.60 127457.60 0 1 1 -254915.19 0"/>
<path id="N" d="M 40052136.00 35503608.86 L 40052137.00 35341317.00 L 40036283.29 35303047.29 L 39950028.00 35216791.16 L 39950028.00 33761109.94 L 40205217.06 33505920.00 L 40525824.86 33505920.00 L 40549880.00 33541920.00 A 127441.40 127441.40 0 1 0 40549880.00 33361680.00 L 40525824.86 33397680.00 L 40182800.00 33397679.00 L 40144530.29 33413532.71 L 39857639.00 33700423.00 L 39841788.00 33738694.41 L 39841787.00 35239209.00 L 39857639.00 35277478.00 L 39943896.00 35363734.16 L 39943896.00 35503608.86 L 39907896.00 35527664.00 A 127441.40 127441.40 0 1 0 40052136.00 35503608.86  z"/>
<path id="N" d="M 13086226.00 39178280.00 L 13078926.00 39173402.15 L 13078926.00 39016812.00 L 20326166.64 31769570.36 L 20343373.00 31766148.00 A 127457.60 127457.60 0 1 0 20204345.01 31738317.98 L 12986537.00 38956125.00 L 12970686.00 38994396.41 L 12970686.00 39146007.06 L 12947333.00 39150652.00 A 127457.60 127457.60 0 1 0 13086226.00 39178280.00  z"/>
<path id="N" d="M 32257993.87 32791393.87 m -127457.60 0 a 127457.60 127457.60 0 1 1 254915.19 0a 127457.60 127457.60 0 1 1 -254915.19 0"/>
<path id="N" d="M 19642220.00 61222968.00 A 989002.09 989002.09 0 0 0 20529531.00 60335657.00 L 20529531.00 59354370.00 A 989027.99 989027.99 0 0 0 19642220.00 58467059.00 L 16986224.00 58467059.00 L 16889750.00 58462319.00 A 984241.79 984241.79 0 0 1 16001972.00 57482807.00 L 16001972.00 36976051.00 L 16006711.00 36879577.00 A 984241.79 984241.79 0 0 1 16986224.00 35991799.00 L 44474741.00 35991799.00 L 44571214.00 35996538.00 A 984241.79 984241.79 0 0 1 45458993.00 36976051.00 L 45458993.00 59332834.00 A 989014.36 989014.36 0 0 0 46346304.00 60220146.00 L 48776078.00 60220146.00 A 989040.26 989040.26 0 0 0 49663390.00 59332834.00 L 49663389.00 34933106.00 A 988992.78 988992.78 0 0 0 49443653.00 34402625.00 L 47401449.00 32360416.00 L 47336582.00 32288848.00 A 984283.34 984283.34 0 0 1 47113165.00 31664445.00 L 47113165.00 14338256.00 L 13237232.00 14338256.00 L 13237231.00 31664445.00 L 13232492.00 31760918.00 A 984215.89 984215.89 0 0 1 12948953.00 32360417.00 L 10906744.00 34402626.00 A 989038.66 989038.66 0 0 0 10687012.00 34933107.00 L 10687012.00 59332834.00 A 989014.36 989014.36 0 0 0 11574323.00 60220146.00 L 11671264.00 60220146.00 L 13442917.00 61222969.00 L 19642220.00 61222968.00  zM 14819517.64 17095799.98 L 14715514.51 17095799.97 L 14723493.00 17066024.00 A 339117.53 339117.53 0 0 1 14907024.00 16882493.00 L 14936800.03 16874514.49 L 14936800.02 16978517.61 L 14866495.00 17025495.00 L 14819517.64 17095799.98  zM 15036802.38 17195794.09 m -140500.91 0 a 140500.91 140500.91 0 1 1 281001.82 0a 140500.91 140500.91 0 1 1 -281001.82 0M 14936799.97 17517085.49 L 14907024.00 17509107.00 A 339117.53 339117.53 0 0 1 14723493.00 17325576.00 L 14715514.49 17295799.97 L 14819517.61 17295799.98 L 14866495.00 17366105.00 L 14936799.98 17413082.36 L 14936799.97 17517085.49  zM 15136799.97 17517085.51 L 15136799.98 17413082.39 L 15207105.00 17366105.00 L 15254082.36 17295800.02 L 15358085.49 17295800.03 L 15350107.00 17325576.00 A 339117.53 339117.53 0 0 1 15166576.00 17509107.00 L 15136799.97 17517085.51  zM 15358085.51 17095800.03 L 15254082.39 17095800.02 L 15207105.00 17025495.00 L 15136800.02 16978517.64 L 15136800.03 16874514.51 L 15166576.00 16882493.00 A 339117.53 339117.53 0 0 1 15350107.00 17066024.00 L 15358085.51 17095800.03  zM 18213397.97 17517085.49 L 18183622.00 17509107.00 A 339117.53 339117.53 0 0 1 18000091.00 17325576.00 L 17992112.49 17295799.97 L 18096115.61 17295799.98 L 18143093.00 17366105.00 L 18213397.98 17413082.36 L 18213397.97 17517085.49  zM 18313400.38 17195794.09 m -140500.91 0 a 140500.91 140500.91 0 1 1 281001.82 0a 140500.91 140500.91 0 1 1 -281001.82 0M 18413397.97 17517085.51 L 18413397.98 17413082.39 L 18483703.00 17366105.00 A 240838.32 240838.32 0 1 0 18143093.00 17025495.00 L 18096115.64 17095799.98 L 17992112.51 17095799.97 L 18000091.00 17066024.00 L 18044355.00 16989356.00 L 18106954.00 16926757.00 L 18155993.33 16898444.32 L 18142595.86 16848444.00 L 16542427.13 16848444.00 L 16120422.00 17270449.82 L 16120422.00 17492020.00 L 15527982.00 17492020.00 L 15527982.00 16899580.00 L 15749552.18 16899580.00 L 16248367.00 16400765.00 A 262261.10 262261.10 0 0 1 16433809.60 16323956.00 L 18491200.00 16323955.00 A 262264.12 262264.12 0 0 1 18676635.00 16400765.00 L 19175449.18 16899580.00 L 19397020.00 16899580.00 L 19397020.00 16933556.00 L 20312974.07 16933556.00 L 21174525.00 16072005.86 L 21174525.00 16056827.00 A 358333.85 358333.85 0 1 1 21576573.00 16458875.00 L 21529394.16 16458875.00 L 20607035.00 17381235.00 A 262250.72 262250.72 0 0 1 20421592.41 17458044.00 L 19397020.00 17458044.00 L 19397020.00 17492020.00 L 18804580.00 17492020.00 L 18804580.00 17270449.18 L 18699618.43 17165487.78 L 18649618.00 17186198.66 L 18649618.00 17240064.00 A 339127.07 339127.07 0 0 1 18443174.00 17509107.00 L 18413397.97 17517085.51  zM 19813600.00 18010200.00 L 19711483.08 18010200.00 L 19722854.00 17982748.00 L 19786148.00 17919454.00 L 19813600.00 17908083.08 L 19813600.00 18010200.00  zM 19813600.00 18312316.92 L 19786148.00 18300946.00 L 19722854.00 18237652.00 L 19711483.08 18210200.00 L 19813600.00 18210200.00 L 19813600.00 18312316.92  zM 20115716.92 18010200.00 L 20013600.00 18010200.00 L 20013600.00 17908083.08 L 20041052.00 17919454.00 L 20104346.00 17982748.00 L 20115716.92 18010200.00  zM 20013600.00 18312316.92 L 20013600.00 18210200.00 L 20115716.92 18210200.00 L 20104346.00 18237652.00 L 20041052.00 18300946.00 L 20013600.00 18312316.92  zM 20143800.00 18873800.00 L 20041683.08 18873800.00 L 20053054.00 18846348.00 L 20116348.00 18783054.00 L 20143800.00 18771683.08 L 20143800.00 18873800.00  zM 20143800.00 19175916.92 L 20116348.00 19164546.00 L 20053054.00 19101252.00 L 20041683.08 19073800.00 L 20143800.00 19073800.00 L 20143800.00 19175916.92  zM 20445916.92 18873800.00 L 20343800.00 18873800.00 L 20343800.00 18771683.08 L 20371252.00 18783054.00 L 20434546.00 18846348.00 L 20445916.92 18873800.00  zM 20343800.00 19175916.92 L 20343800.00 19073800.00 L 20445916.92 19073800.00 L 20434546.00 19101252.00 L 20371252.00 19164546.00 L 20343800.00 19175916.92  zM 22089005.00 18763745.00 L 21986888.08 18763745.00 L 21998259.00 18736293.00 L 22061553.00 18672999.00 L 22089005.00 18661628.08 L 22089005.00 18763745.00  zM 22089005.00 19065861.92 L 22061553.00 19054491.00 L 21998259.00 18991197.00 L 21986888.08 18963745.00 L 22089005.00 18963745.00 L 22089005.00 19065861.92  zM 22029750.00 20575600.00 L 21927633.08 20575600.00 L 21939004.00 20548148.00 L 22002298.00 20484854.00 L 22029750.00 20473483.08 L 22029750.00 20575600.00  zM 22029750.00 20877716.92 L 22002298.00 20866346.00 L 21939004.00 20803052.00 L 21927633.08 20775600.00 L 22029750.00 20775600.00 L 22029750.00 20877716.92  zM 22331866.92 20575600.00 L 22229750.00 20575600.00 L 22229750.00 20473483.08 L 22257202.00 20484854.00 L 22320496.00 20548148.00 L 22331866.92 20575600.00  zM 22885075.00 16458875.00 L 22174525.00 16458875.00 L 22174525.00 15748325.00 L 22885075.00 15748325.00 L 22885075.00 16458875.00  zM 22391121.92 18763745.00 L 22289005.00 18763745.00 L 22289005.00 18661628.08 L 22316457.00 18672999.00 L 22379751.00 18736293.00 L 22391121.92 18763745.00  zM 22289005.00 19065861.92 L 22289005.00 18963745.00 L 22391121.92 18963745.00 L 22379751.00 18991197.00 L 22316457.00 19054491.00 L 22289005.00 19065861.92  zM 22229750.00 20877716.92 L 22229750.00 20775600.00 L 22331866.92 20775600.00 L 22320496.00 20803052.00 L 22257202.00 20866346.00 L 22229750.00 20877716.92  zM 23269594.00 20340965.00 L 23314274.00 20385645.00 L 23825200.00 20385644.00 L 23868120.00 20394182.00 L 23893357.62 20411045.00 L 25275971.63 20411045.00 L 25293965.00 20367606.00 A 188626.87 188626.87 0 1 1 25346649.97 20629501.75 L 25317215.97 20635355.00 L 23850600.00 20635356.00 L 23807680.00 20626818.00 L 23782442.38 20609955.00 L 23314274.00 20609955.00 L 23269594.00 20654635.00 A 188621.50 188621.50 0 1 1 23269594.00 20340965.00  zM 30251400.00 17957802.96 m -188621.50 0 a 188621.50 188621.50 0 1 1 377243.00 0a 188621.50 188621.50 0 1 1 -377243.00 0M 30292023.00 16876180.30 m -171566.11 0 a 171566.11 171566.11 0 1 1 343132.23 0a 171566.11 171566.11 0 1 1 -343132.23 0M 18797600.00 21337600.00 L 18695483.08 21337600.00 L 18706854.00 21310148.00 L 18770148.00 21246854.00 L 18797600.00 21235483.08 L 18797600.00 21337600.00  zM 18797600.00 21639716.92 L 18770148.00 21628346.00 L 18706854.00 21565052.00 L 18695483.08 21537600.00 L 18797600.00 21537600.00 L 18797600.00 21639716.92  zM 19099716.92 21337600.00 L 18997600.00 21337600.00 L 18997600.00 21235483.08 L 19025052.00 21246854.00 L 19088346.00 21310148.00 L 19099716.92 21337600.00  zM 18997600.00 21639716.92 L 18997600.00 21537600.00 L 19099716.92 21537600.00 L 19088346.00 21565052.00 L 19025052.00 21628346.00 L 18997600.00 21639716.92  zM 19635800.00 22099600.00 L 19533683.08 22099600.00 L 19545054.00 22072148.00 L 19608348.00 22008854.00 L 19635800.00 21997483.08 L 19635800.00 22099600.00  zM 19937916.92 22099600.00 L 19835800.00 22099600.00 L 19835800.00 21997483.08 L 19863252.00 22008854.00 L 19926546.00 22072148.00 L 19937916.92 22099600.00  zM 19835800.00 22401716.92 L 19835800.00 22299600.00 L 19937916.92 22299600.00 L 19926546.00 22327052.00 L 19863252.00 22390346.00 L 19835800.00 22401716.92  zM 19635800.00 22401716.92 L 19608348.00 22390346.00 L 19545054.00 22327052.00 L 19533683.08 22299600.00 L 19635800.00 22299600.00 L 19635800.00 22401716.92  zM 14325600.00 30327594.96 m -358345.67 0 a 358345.67 358345.67 0 1 1 716691.35 0a 358345.67 358345.67 0 1 1 -716691.35 0M 14680875.00 31682875.00 L 13970325.00 31682875.00 L 13970325.00 30972325.00 L 14680875.00 30972325.00 L 14680875.00 31682875.00  zM 13004800.00 33909002.96 m -188621.50 0 a 188621.50 188621.50 0 1 1 377243.00 0a 188621.50 188621.50 0 1 1 -377243.00 0M 13258800.00 34544002.96 m -188621.50 0 a 188621.50 188621.50 0 1 1 377243.00 0a 188621.50 188621.50 0 1 1 -377243.00 0M 14357725.00 34175225.73 m -732822.99 0 a 732822.99 732822.99 0 1 1 1465645.99 0a 732822.99 732822.99 0 1 1 -1465645.99 0M 21563516.92 34215400.00 L 21461400.00 34215400.00 L 21461400.00 34113283.08 L 21488852.00 34124654.00 L 21552146.00 34187948.00 L 21563516.92 34215400.00  zM 24237950.00 21056602.96 m -188621.50 0 a 188621.50 188621.50 0 1 1 377243.00 0a 188621.50 188621.50 0 1 1 -377243.00 0M 24081115.00 23091758.96 m -188621.50 0 a 188621.50 188621.50 0 1 1 377243.00 0a 188621.50 188621.50 0 1 1 -377243.00 0M 21802744.00 25166965.00 L 21847424.00 25211645.00 L 23445686.11 25211645.00 L 23687645.00 24969686.89 L 23687645.00 24533474.00 L 23642965.00 24488794.00 A 188621.50 188621.50 0 1 1 23956635.00 24488794.00 L 23911955.00 24533474.00 L 23911956.00 25016143.00 L 23903418.00 25059063.00 L 23879102.99 25095451.01 L 23571449.00 25403106.00 L 23535063.00 25427418.00 L 23492137.97 25435955.00 L 21847424.00 25435955.00 L 21802744.00 25480635.00 A 188621.50 188621.50 0 1 1 21802744.00 25166965.00  zM 24206200.00 27863797.00 m -312677.92 0 a 312677.92 312677.92 0 1 1 625355.84 0a 312677.92 312677.92 0 1 1 -625355.84 0M 28473400.00 28854402.96 m -188621.50 0 a 188621.50 188621.50 0 1 1 377243.00 0a 188621.50 188621.50 0 1 1 -377243.00 0M 29592600.00 30456200.00 L 29490483.08 30456200.00 L 29501854.00 30428748.00 L 29565148.00 30365454.00 L 29592600.00 30354083.08 L 29592600.00 30456200.00  zM 29894716.92 30456200.00 L 29792600.00 30456200.00 L 29792600.00 30354083.08 L 29820052.00 30365454.00 L 29883346.00 30428748.00 L 29894716.92 30456200.00  zM 22963200.00 34494800.00 L 22861083.08 34494800.00 L 22872454.00 34467348.00 L 22935748.00 34404054.00 L 22963200.00 34392683.08 L 22963200.00 34494800.00  zM 23265316.92 34494800.00 L 23163200.00 34494800.00 L 23163200.00 34392683.08 L 23190652.00 34404054.00 L 23253946.00 34467348.00 L 23265316.92 34494800.00  zM 29592600.00 30758316.92 L 29565148.00 30746946.00 L 29501854.00 30683652.00 L 29490483.08 30656200.00 L 29592600.00 30656200.00 L 29592600.00 30758316.92  zM 29700200.00 32265602.96 m -188621.50 0 a 188621.50 188621.50 0 1 1 377243.00 0a 188621.50 188621.50 0 1 1 -377243.00 0M 29792600.00 30758316.92 L 29792600.00 30656200.00 L 29894716.92 30656200.00 L 29883346.00 30683652.00 L 29820052.00 30746946.00 L 29792600.00 30758316.92  zM 30022800.00 32613602.96 m -188621.50 0 a 188621.50 188621.50 0 1 1 377243.00 0a 188621.50 188621.50 0 1 1 -377243.00 0M 30593203.41 32980995.92 L 30554923.93 32952707.37 L 30508594.00 32999035.00 A 188621.50 188621.50 0 1 1 30560637.29 32946992.86 L 30598917.07 32975281.63 L 30645247.00 32928954.00 A 188621.50 188621.50 0 1 1 30593203.41 32980995.92  zM 32920000.00 16257600.00 L 32817883.08 16257600.00 L 32829254.00 16230148.00 L 32892548.00 16166854.00 L 32920000.00 16155483.08 L 32920000.00 16257600.00  zM 32920000.00 16559716.92 L 32892548.00 16548346.00 L 32829254.00 16485052.00 L 32817883.08 16457600.00 L 32920000.00 16457600.00 L 32920000.00 16559716.92  zM 33222116.92 16257600.00 L 33120000.00 16257600.00 L 33120000.00 16155483.08 L 33147452.00 16166854.00 L 33210746.00 16230148.00 L 33222116.92 16257600.00  zM 34393200.00 16283000.00 L 34291083.08 16283000.00 L 34302454.00 16255548.00 L 34365748.00 16192254.00 L 34393200.00 16180883.08 L 34393200.00 16283000.00  zM 34695316.92 16283000.00 L 34593200.00 16283000.00 L 34593200.00 16180883.08 L 34620652.00 16192254.00 L 34683946.00 16255548.00 L 34695316.92 16283000.00  zM 39600200.00 16257600.00 L 39498083.08 16257600.00 L 39509454.00 16230148.00 L 39572748.00 16166854.00 L 39600200.00 16155483.08 L 39600200.00 16257600.00  zM 39600200.00 16559716.92 L 39572748.00 16548346.00 L 39509454.00 16485052.00 L 39498083.08 16457600.00 L 39600200.00 16457600.00 L 39600200.00 16559716.92  zM 39902316.92 16257600.00 L 39800200.00 16257600.00 L 39800200.00 16155483.08 L 39827652.00 16166854.00 L 39890946.00 16230148.00 L 39902316.92 16257600.00  zM 39800200.00 16559716.92 L 39800200.00 16457600.00 L 39902316.92 16457600.00 L 39890946.00 16485052.00 L 39827652.00 16548346.00 L 39800200.00 16559716.92  zM 41378200.00 16283000.00 L 41276083.08 16283000.00 L 41287454.00 16255548.00 L 41350748.00 16192254.00 L 41378200.00 16180883.08 L 41378200.00 16283000.00  zM 41680316.92 16283000.00 L 41578200.00 16283000.00 L 41578200.00 16180883.08 L 41605652.00 16192254.00 L 41668946.00 16255548.00 L 41680316.92 16283000.00  zM 43105400.00 16257600.00 L 43003283.08 16257600.00 L 43014654.00 16230148.00 L 43077948.00 16166854.00 L 43105400.00 16155483.08 L 43105400.00 16257600.00  zM 43407516.92 16257600.00 L 43305400.00 16257600.00 L 43305400.00 16155483.08 L 43332852.00 16166854.00 L 43396146.00 16230148.00 L 43407516.92 16257600.00  zM 43105400.00 16559716.92 L 43077948.00 16548346.00 L 43014654.00 16485052.00 L 43003283.08 16457600.00 L 43105400.00 16457600.00 L 43105400.00 16559716.92  zM 31294400.00 30456200.00 L 31192283.08 30456200.00 L 31203654.00 30428748.00 L 31266948.00 30365454.00 L 31294400.00 30354083.08 L 31294400.00 30456200.00  zM 21643994.00 35479365.00 L 21688674.00 35524045.00 L 21762537.22 35524045.00 L 21846745.00 35439837.78 L 21846745.00 35310976.78 L 21796744.49 35282765.16 L 21746040.00 35303768.00 A 201667.62 201667.62 0 1 1 21746040.00 34908178.00 L 21796744.49 34929180.84 L 21846745.00 34900969.22 L 21846745.00 32624803.67 L 21800550.60 32605669.33 L 21219555.00 33186665.00 L 21219555.00 34076495.61 L 21261400.00 34104455.61 L 21261400.00 34240066.03 L 21243652.00 34266627.00 A 127456.70 127456.70 0 0 0 21410173.00 34433148.00 L 21436733.97 34415400.00 L 21563516.92 34415400.00 L 21552146.00 34442852.00 L 21488852.00 34506146.00 L 21406155.00 34540400.00 L 21338594.36 34540400.00 L 21310825.48 34550980.98 L 21292400.00 34584477.53 L 21292400.00 34631599.00 A 188626.87 188626.87 0 1 1 20950565.00 34490006.00 L 20995245.00 34445326.00 L 20995245.00 33250029.70 L 20949050.60 33230895.36 L 20571055.00 33608891.00 L 20571055.00 34896561.17 L 20621055.52 34927354.95 L 20667352.00 34908178.00 A 201667.62 201667.62 0 1 1 20746040.00 35303768.00 L 20703669.11 35303768.00 L 20661686.21 35343442.60 L 20660755.00 35486726.00 L 20705435.00 35531406.00 A 188621.50 188621.50 0 1 1 20391765.00 35531406.00 L 20436445.00 35486726.00 L 20436445.00 35390778.00 L 20379594.00 35333927.00 L 20359400.11 35303704.27 L 20348096.56 35295351.18 L 20301010.87 35280997.94 L 20246040.00 35303768.00 A 201667.62 201667.62 0 1 1 20246040.00 34908178.00 L 20296744.49 34929180.84 L 20346745.00 34900969.22 L 20346745.00 33672255.73 L 20300550.60 33653121.39 L 20178155.00 33775517.00 L 20178155.00 34445326.00 L 20222835.00 34490006.00 A 188621.50 188621.50 0 1 1 19909165.00 34490006.00 L 19953845.00 34445326.00 L 19953845.00 33838881.71 L 19907650.60 33819747.37 L 19571055.00 34156343.00 L 19571055.00 34896561.17 L 19621055.52 34927354.95 L 19667352.00 34908178.00 A 201667.62 201667.62 0 1 1 19746040.00 35303768.00 L 19714243.17 35303768.00 L 19669634.00 35335805.03 L 19669634.00 35460805.00 L 19714835.00 35506006.00 A 188621.50 188621.50 0 1 1 19401165.00 35506006.00 L 19445324.00 35461847.00 L 19445324.00 35382256.33 L 19379594.00 35316527.00 L 19366369.52 35296734.88 L 19331677.24 35279925.19 L 19304208.74 35279673.32 L 19246040.00 35303768.00 A 201667.62 201667.62 0 1 1 19246040.00 34908178.00 L 19296744.49 34929180.84 L 19346745.00 34900969.22 L 19346745.00 34219707.73 L 19300550.60 34200573.39 L 19162155.00 34338969.00 L 19162155.00 34419926.00 L 19206835.00 34464606.00 A 188621.50 188621.50 0 1 1 18893165.00 34464606.00 L 18937845.00 34419926.00 L 18937844.00 34292512.00 L 18946382.00 34249592.00 L 18970694.00 34213206.00 L 29463406.00 23720494.00 L 29499792.00 23696182.00 L 29542717.03 23687645.00 L 30281564.00 23687645.00 L 30326244.00 23642965.00 A 188621.50 188621.50 0 0 1 30587873.00 23904594.00 L 30575422.43 23917044.57 L 30596133.28 23967045.00 L 32213504.72 23967045.00 L 32234215.57 23917044.57 L 32228165.00 23910994.00 L 32200000.00 23842999.00 L 32200000.00 23769401.00 L 32214930.82 23733355.52 L 32181521.78 23683355.00 L 31630200.00 23683355.00 L 31630200.00 23709599.00 A 188626.87 188626.87 0 1 1 31288365.00 23568006.00 L 31326215.58 23530155.42 L 31306147.71 23480155.00 L 30832674.00 23480155.00 L 30787994.00 23524835.00 A 188621.50 188621.50 0 1 1 30787994.00 23211165.00 L 30832674.00 23255845.00 L 30899104.72 23255845.00 L 30919815.57 23205844.57 L 30907365.00 23193394.00 A 188621.50 188621.50 0 0 1 31213674.00 22976445.00 L 37366326.00 22976445.00 L 37411006.00 22931765.00 A 188621.50 188621.50 0 0 1 37672635.00 23193394.00 L 37660184.43 23205844.57 L 37680895.28 23255845.00 L 44983400.00 23255844.00 L 45026320.00 23264382.00 L 45062706.00 23288694.00 L 45392906.00 23618894.00 L 45417218.00 23655280.00 L 45425755.00 23698200.00 L 45425756.00 24104600.00 L 45417218.00 24147520.00 L 45392902.99 24183908.01 L 45047232.00 24529580.00 L 45010846.00 24553892.00 L 44967920.97 24562429.00 L 44355400.00 24562429.00 L 44310720.00 24607109.00 A 188621.50 188621.50 0 1 1 44310720.00 24293439.00 L 44355400.00 24338119.00 L 44921469.10 24338119.00 L 45201445.00 24058143.90 L 45201445.00 23785734.94 L 45193000.49 23780237.66 L 45143000.00 23807349.75 L 45143000.00 23811199.00 A 188626.87 188626.87 0 0 1 44853206.00 23931235.00 L 44833926.00 23911955.00 L 42659295.28 23911955.00 L 42638584.43 23961955.43 L 42651035.00 23974406.00 A 188621.50 188621.50 0 0 1 42651035.00 24183994.00 L 42644984.43 24190044.57 L 42665695.28 24240045.00 L 43595726.00 24240045.00 L 43634006.00 24201765.00 A 188621.50 188621.50 0 1 1 43582926.00 24464355.00 L 38328878.22 24464355.00 L 38295469.18 24514355.52 L 38310400.00 24550401.00 L 38310400.00 24623999.00 L 38290249.99 24672644.49 L 38316912.76 24722645.00 L 43336210.00 24722644.00 L 43379130.00 24731182.00 L 43415516.00 24755494.00 L 43452061.15 24792039.43 L 43473401.00 24783200.00 A 188621.50 188621.50 0 1 1 43325200.00 25004999.00 L 43325200.00 24982401.49 L 43289753.25 24946955.00 L 36296878.22 24946955.00 L 36263469.18 24996955.52 L 36278400.00 25033001.00 L 36278400.00 25106598.15 L 36291661.14 25126445.00 L 39817234.00 25126444.00 L 39860154.00 25134982.00 L 39896540.00 25159294.00 L 39974291.00 25237045.00 L 42700326.00 25237045.00 L 42745006.00 25192365.00 A 188621.50 188621.50 0 1 1 42745006.00 25506035.00 L 42700326.00 25461355.00 L 39927834.00 25461356.00 L 39884914.00 25452818.00 L 39848528.00 25428506.00 L 39770777.00 25350755.00 L 37236678.22 25350755.00 L 37203269.18 25400755.52 L 37218200.00 25436801.00 L 37218200.00 25510399.00 L 37203269.18 25546444.48 L 37236678.22 25596445.00 L 42146210.00 25596444.00 L 42189130.00 25604982.00 L 42193564.23 25607944.81 L 42222401.00 25596000.00 A 188621.50 188621.50 0 1 1 42075424.44 25820755.00 L 40538224.28 25820755.00 L 40511498.44 25870755.48 L 40514601.80 25875400.00 L 40549799.00 25875400.00 A 188626.87 188626.87 0 1 1 40328000.00 26097199.00 L 40328000.00 26048190.48 L 40260564.17 25980755.00 L 37864533.66 25980755.00 L 37857399.72 26027800.30 A 188625.87 188625.87 0 0 1 37977435.00 26317594.00 L 37945984.43 26349044.57 L 37966695.28 26399045.00 L 41741526.00 26399045.00 L 41779806.00 26360765.00 A 188621.50 188621.50 0 1 1 41728726.00 26623355.00 L 30124678.22 26623355.00 L 30091269.18 26673355.52 L 30106200.00 26709401.00 A 188621.50 188621.50 0 0 1 30025994.00 26903035.00 L 29998931.79 26914244.75 L 30008877.64 26964245.00 L 30065909.00 26964245.00 L 30141060.00 26889094.00 L 30177446.00 26864782.00 L 30220371.03 26856245.00 L 42909926.00 26856245.00 L 42948206.00 26817965.00 A 188621.50 188621.50 0 1 1 42897126.00 27080555.00 L 35661878.22 27080555.00 L 35628469.18 27130555.52 L 35643400.00 27166601.00 L 35643400.00 27240199.00 L 35615235.00 27308194.00 L 35577384.42 27346044.58 L 35597452.29 27396045.00 L 40007926.00 27396045.00 L 40052606.00 27351365.00 A 188621.50 188621.50 0 1 1 40052606.00 27665035.00 L 40007926.00 27620355.00 L 36944295.28 27620355.00 L 36923584.43 27670355.43 L 36936035.00 27682806.00 A 188621.50 188621.50 0 0 1 36629726.00 27899755.00 L 33220274.00 27899755.00 L 33175594.00 27944435.00 A 188621.50 188621.50 0 0 1 32913965.00 27682806.00 L 32926415.57 27670355.43 L 32905704.72 27620355.00 L 29501152.07 27620355.00 L 29112555.00 28008952.93 L 29112555.00 31987140.00 L 29104018.00 32030060.00 L 29079702.99 32066448.01 L 28839555.00 32306596.88 L 28839555.00 35461326.00 L 28884235.00 35506006.00 A 188621.50 188621.50 0 1 1 28570565.00 35506006.00 L 28615245.00 35461326.00 L 28615245.00 32338529.74 L 28573670.90 32310751.02 L 28560999.00 32316000.00 A 188621.50 188621.50 0 1 1 28681035.00 32026206.00 L 28695965.70 32062251.19 L 28754945.54 32073982.85 L 28888245.00 31940683.88 L 28888245.00 31187063.28 L 28838244.57 31166352.43 L 28812536.00 31192061.00 A 171566.11 171566.11 0 1 1 28812536.00 30906761.00 L 28838244.57 30932469.57 L 28888245.00 30911758.72 L 28888245.00 28072317.75 L 28842050.60 28053183.40 L 28204555.00 28690679.00 L 28204555.00 34445326.00 L 28249235.00 34490006.00 A 188621.50 188621.50 0 1 1 27935565.00 34490006.00 L 27980245.00 34445326.00 L 27980245.00 28754043.55 L 27934050.60 28734909.20 L 27571055.00 29097904.98 L 27571055.00 34896561.17 L 27621055.52 34927354.95 L 27667352.00 34908178.00 A 201667.62 201667.62 0 1 1 27746040.00 35303768.00 L 27709122.73 35303768.00 L 27682834.00 35335800.67 L 27682834.00 35451330.55 L 27689194.00 35453965.00 A 188626.87 188626.87 0 1 1 27427565.00 35506006.00 L 27458524.00 35475047.00 L 27458524.00 35382256.29 L 27379594.00 35303327.00 L 27371656.66 35291447.76 L 27322217.67 35274825.48 L 27307359.49 35278368.21 L 27246040.00 35303768.00 A 201667.62 201667.62 0 1 1 27246040.00 34908178.00 L 27296744.49 34929180.84 L 27346745.00 34900969.22 L 27346745.00 29161269.75 L 27300550.60 29142135.40 L 27163155.00 29279531.00 L 27163155.00 34445326.00 L 27207835.00 34490006.00 A 188621.50 188621.50 0 1 1 26894165.00 34490006.00 L 26938845.00 34445326.00 L 26938845.00 29342895.63 L 26892650.60 29323761.29 L 26571055.00 29645356.99 L 26571055.00 34896561.17 L 26621055.52 34927354.95 L 26667352.00 34908178.00 A 201667.62 201667.62 0 0 1 26746040.00 35303768.00 L 26678277.92 35303768.00 L 26663743.49 35307468.40 L 26629755.00 35342314.83 L 26629755.00 35461326.00 L 26674435.00 35506006.00 A 188621.50 188621.50 0 1 1 26360765.00 35506006.00 L 26405445.00 35461326.00 L 26405445.00 35362577.56 L 26379594.00 35336727.00 L 26358278.59 35304825.79 L 26350449.48 35298654.07 L 26300496.27 35281211.10 L 26246040.00 35303768.00 A 201667.62 201667.62 0 1 1 26246040.00 34908178.00 L 26296744.49 34929180.84 L 26346745.00 34900969.22 L 26346745.00 29708721.69 L 26300550.60 29689587.35 L 26147155.00 29842982.99 L 26147155.00 34445326.00 L 26191835.00 34490006.00 A 188621.50 188621.50 0 1 1 25878165.00 34490006.00 L 25922845.00 34445326.00 L 25922845.00 29906347.67 L 25876650.60 29887213.32 L 25571055.00 30192808.99 L 25571055.00 34896561.17 L 25621055.52 34927354.95 L 25667352.00 34908178.00 A 201667.62 201667.62 0 1 1 25746040.00 35303768.00 L 25736691.39 35303768.00 L 25705071.00 35342921.00 L 25705071.00 35452109.92 L 25726410.00 35460949.00 A 188626.87 188626.87 0 1 1 25464781.00 35512990.00 L 25480761.00 35497010.00 L 25480761.00 35389377.25 L 25377711.23 35285393.20 L 25318737.22 35273655.32 A 201666.54 201666.54 0 1 1 25246040.00 34908178.00 L 25296744.49 34929180.84 L 25346745.00 34900969.22 L 25346745.00 30256173.71 L 25300550.60 30237039.37 L 25181955.00 30355634.99 L 25181955.00 34419926.00 L 25226635.00 34464606.00 A 188621.50 188621.50 0 1 1 24912965.00 34464606.00 L 24957645.00 34419926.00 L 24957645.00 30418999.67 L 24911450.60 30399865.33 L 24571055.00 30740260.99 L 24571055.00 34896561.17 L 24621055.52 34927354.95 L 24667352.00 34908178.00 A 201667.62 201667.62 0 0 1 24746040.00 35303768.00 L 24720549.33 35303768.00 L 24696055.00 35333618.03 L 24696055.00 35419725.92 L 24717394.00 35428565.00 A 188626.87 188626.87 0 1 1 24455765.00 35480606.00 L 24471745.00 35464626.00 L 24471745.00 35380069.26 L 24377828.19 35285276.24 L 24318737.22 35273655.33 L 24246040.00 35303768.00 L 24167352.00 35303768.00 L 24116647.51 35282765.16 L 24066647.00 35310976.78 L 24066648.00 35379908.00 L 24058110.00 35422828.00 L 24033794.99 35459216.01 L 23908600.00 35584411.54 L 23908600.00 35647599.00 A 188626.87 188626.87 0 1 1 23686801.00 35425800.00 L 23749988.46 35425800.00 L 23817592.69 35358196.06 L 23814514.68 35327741.73 L 23762959.87 35296759.44 L 23746040.00 35303768.00 A 201667.62 201667.62 0 1 1 23746040.00 34908178.00 L 23792336.48 34927354.95 L 23842337.00 34896561.17 L 23842337.00 34848888.39 L 23790294.00 34796846.00 L 23765982.00 34760460.00 L 23757445.00 34717534.97 L 23757445.00 30940377.52 L 23711250.60 30921243.18 L 22071055.00 32561439.00 L 22071055.00 34896561.17 L 22121055.52 34927354.95 L 22167352.00 34908178.00 A 201667.62 201667.62 0 1 1 22167352.00 35303768.00 L 22121055.52 35284591.05 L 22071055.00 35315384.83 L 22071056.00 35486294.00 L 22062518.00 35529214.00 L 22038202.99 35565602.01 L 21888300.00 35715506.00 L 21851914.00 35739818.00 L 21808988.97 35748355.00 L 21688674.00 35748355.00 L 21643994.00 35793035.00 A 188621.50 188621.50 0 1 1 21643994.00 35479365.00  zM 33120000.00 16559716.92 L 33120000.00 16457600.00 L 33222116.92 16457600.00 L 33210746.00 16485052.00 L 33147452.00 16548346.00 L 33120000.00 16559716.92  zM 34393200.00 16585116.92 L 34365748.00 16573746.00 L 34302454.00 16510452.00 L 34291083.08 16483000.00 L 34393200.00 16483000.00 L 34393200.00 16585116.92  zM 34593200.00 16585116.92 L 34593200.00 16483000.00 L 34695316.92 16483000.00 L 34683946.00 16510452.00 L 34620652.00 16573746.00 L 34593200.00 16585116.92  zM 35764463.00 16876180.30 m -171566.11 0 a 171566.11 171566.11 0 1 1 343132.23 0a 171566.11 171566.11 0 1 1 -343132.23 0M 38608000.00 29692602.96 m -188621.50 0 a 188621.50 188621.50 0 1 1 377243.00 0a 188621.50 188621.50 0 1 1 -377243.00 0M 38756590.00 16876180.30 m -171566.11 0 a 171566.11 171566.11 0 1 1 343132.23 0a 171566.11 171566.11 0 1 1 -343132.23 0M 41378200.00 16585116.92 L 41350748.00 16573746.00 L 41287454.00 16510452.00 L 41276083.08 16483000.00 L 41378200.00 16483000.00 L 41378200.00 16585116.92  zM 41578200.00 16585116.92 L 41578200.00 16483000.00 L 41680316.92 16483000.00 L 41668946.00 16510452.00 L 41605652.00 16573746.00 L 41578200.00 16585116.92  zM 43305400.00 16559716.92 L 43305400.00 16457600.00 L 43407516.92 16457600.00 L 43396146.00 16485052.00 L 43332852.00 16548346.00 L 43305400.00 16559716.92  zM 38658800.00 17957802.96 m -188621.50 0 a 188621.50 188621.50 0 1 1 377243.00 0a 188621.50 188621.50 0 1 1 -377243.00 0M 44229030.00 16876180.30 m -171566.11 0 a 171566.11 171566.11 0 1 1 343132.23 0a 171566.11 171566.11 0 1 1 -343132.23 0M 43432916.92 30456200.00 L 43330800.00 30456200.00 L 43330800.00 30354083.08 L 43358252.00 30365454.00 L 43421546.00 30428748.00 L 43432916.92 30456200.00  zM 31294400.00 30758316.92 L 31266948.00 30746946.00 L 31203654.00 30683652.00 L 31192283.08 30656200.00 L 31294400.00 30656200.00 L 31294400.00 30758316.92  zM 31494400.00 30758316.92 L 31494400.00 30656200.00 L 31596516.92 30656200.00 L 31585146.00 30683652.00 L 31521852.00 30746946.00 L 31494400.00 30758316.92  zM 31596516.92 30456200.00 L 31494400.00 30456200.00 L 31494400.00 30354083.08 L 31521852.00 30365454.00 L 31585146.00 30428748.00 L 31596516.92 30456200.00  zM 32869200.00 30783716.92 L 32841748.00 30772346.00 L 32778454.00 30709052.00 L 32767083.08 30681600.00 L 32869200.00 30681600.00 L 32869200.00 30783716.92  zM 32869200.00 30481600.00 L 32767083.08 30481600.00 L 32778454.00 30454148.00 L 32841748.00 30390854.00 L 32869200.00 30379483.08 L 32869200.00 30481600.00  zM 33171316.92 30481600.00 L 33069200.00 30481600.00 L 33069200.00 30379483.08 L 33096652.00 30390854.00 L 33159946.00 30454148.00 L 33171316.92 30481600.00  zM 33069200.00 30783716.92 L 33069200.00 30681600.00 L 33171316.92 30681600.00 L 33159946.00 30709052.00 L 33096652.00 30772346.00 L 33069200.00 30783716.92  zM 31237565.00 33474006.00 L 31253370.57 33458200.43 L 31232659.72 33408200.00 L 31179801.00 33408200.00 A 188626.87 188626.87 0 1 1 31373435.00 33327994.00 L 31357629.43 33343799.57 L 31378340.28 33393800.00 L 31431199.00 33393800.00 A 188626.87 188626.87 0 1 1 31237565.00 33474006.00  zM 32258000.00 32791402.96 m -188621.50 0 a 188621.50 188621.50 0 1 1 377243.00 0a 188621.50 188621.50 0 1 1 -377243.00 0M 31165800.00 34118602.96 m -188621.50 0 a 188621.50 188621.50 0 1 1 377243.00 0a 188621.50 188621.50 0 1 1 -377243.00 0M 31826200.00 33756602.96 m -188621.50 0 a 188621.50 188621.50 0 1 1 377243.00 0a 188621.50 188621.50 0 1 1 -377243.00 0M 32410400.00 32334202.96 m -188621.50 0 a 188621.50 188621.50 0 1 1 377243.00 0a 188621.50 188621.50 0 1 1 -377243.00 0M 32842200.00 32359602.96 m -188621.50 0 a 188621.50 188621.50 0 1 1 377243.00 0a 188621.50 188621.50 0 1 1 -377243.00 0M 32969200.00 33807402.96 m -188621.50 0 a 188621.50 188621.50 0 1 1 377243.00 0a 188621.50 188621.50 0 1 1 -377243.00 0M 34189660.00 31049408.30 m -171566.11 0 a 171566.11 171566.11 0 1 1 343132.23 0a 171566.11 171566.11 0 1 1 -343132.23 0M 40937600.00 35672999.00 L 40937600.00 35609811.47 L 40816602.00 35488814.00 L 40792290.00 35452428.00 L 40783753.00 35409502.97 L 40783753.00 35310976.78 L 40733752.49 35282765.16 L 40683048.00 35303768.00 A 201667.62 201667.62 0 1 1 40683048.00 34908178.00 L 40733752.49 34929180.84 L 40783753.00 34900969.22 L 40783753.00 33635004.66 L 40733752.50 33613208.63 L 40693303.75 33629963.38 L 40675005.51 33666798.78 L 40673809.24 33686800.47 L 40698000.00 33745201.00 L 40698000.00 33818799.00 L 40669835.00 33886794.00 L 40625155.00 33931474.00 L 40625155.00 34419926.00 L 40669835.00 34464606.00 A 188621.50 188621.50 0 1 1 40356165.00 34464606.00 L 40400845.00 34419926.00 L 40400845.00 33931474.00 L 40356165.00 33886794.00 A 188621.50 188621.50 0 0 1 40408206.00 33625165.00 L 40435268.21 33613955.25 L 40425322.36 33563955.00 L 40229256.11 33563955.00 L 40008063.00 33785148.89 L 40008063.00 34896561.17 L 40058063.52 34927354.95 L 40104360.00 34908178.00 A 201667.62 201667.62 0 0 1 40183048.00 35303768.00 L 40153682.69 35303768.00 L 40110171.00 35341322.03 L 40110171.00 35468310.00 L 40154851.00 35512990.00 A 188621.50 188621.50 0 1 1 39841181.00 35512990.00 L 39885861.00 35468310.00 L 39885861.00 35387773.32 L 39816602.00 35318515.00 L 39802581.24 35297531.15 L 39770449.05 35281150.93 L 39740851.38 35279824.66 L 39683048.00 35303768.00 A 201667.62 201667.62 0 1 1 39683048.00 34908178.00 L 39733752.49 34929180.84 L 39783753.00 34900969.22 L 39783753.00 33798444.01 L 39733752.57 33777733.17 L 39608517.00 33902968.95 L 39608517.00 34444688.00 L 39653197.00 34489368.00 A 188621.50 188621.50 0 1 1 39339527.00 34489368.00 L 39384207.00 34444688.00 L 39384206.00 33856512.00 L 39392744.00 33813592.00 L 39417056.00 33777206.00 L 39861008.89 33333253.81 L 39858763.78 33319651.25 L 39838996.47 33284555.00 L 36979474.00 33284555.00 L 36934794.00 33329235.00 A 188621.50 188621.50 0 1 1 36934794.00 33015565.00 L 36979474.00 33060245.00 L 39235687.32 33060245.00 L 39258601.04 33010244.50 L 39235800.00 32955199.00 A 188621.50 188621.50 0 0 1 39384001.00 32733400.00 L 39440738.20 32733400.00 L 39455464.47 32707028.22 L 39459971.36 32684382.43 L 39392294.00 32616706.00 L 39367982.00 32580320.00 L 39359445.00 32537394.97 L 39359445.00 28902274.00 L 39314765.00 28857594.00 A 188621.50 188621.50 0 1 1 39628435.00 28857594.00 L 39583755.00 28902274.00 L 39583755.00 30317295.61 L 39625600.00 30345255.61 L 39625600.00 30480866.03 L 39607852.00 30507427.00 L 39598151.00 30556200.00 L 39607852.00 30604973.00 L 39625600.00 30631533.97 L 39625600.00 30767144.39 L 39583755.00 30795104.39 L 39583755.00 32490943.45 L 39590956.45 32498145.00 L 39681026.00 32498145.00 L 39697006.00 32482165.00 L 39765001.00 32454000.00 L 39838599.00 32454000.00 L 39874644.48 32468930.82 L 39924645.00 32435521.78 L 39924645.00 30746064.28 L 39874644.57 30725353.43 L 39853052.00 30746946.00 L 39825600.00 30758316.92 L 39825600.00 30631533.97 L 39843348.00 30604973.00 L 39853049.00 30556200.00 L 39843348.00 30507427.00 L 39825600.00 30480866.03 L 39825600.00 30354083.08 L 39853052.00 30365454.00 L 39874644.57 30387046.57 L 39924645.00 30366335.72 L 39924645.00 28937800.00 L 39892001.00 28937800.00 A 188626.87 188626.87 0 1 1 40113800.00 28716001.00 L 40113800.00 28779188.00 L 40140418.00 28817880.00 L 40148955.00 28860805.03 L 40148955.00 32652476.70 L 40195149.40 32671611.06 L 40654845.00 32211915.96 L 40654844.00 28473400.00 L 40663382.00 28430480.00 L 40687694.00 28394094.00 L 41012340.00 28069448.00 L 41039417.98 28051355.33 L 41031101.07 28001355.00 L 37714656.01 28001355.00 L 35519755.00 30196256.99 L 35519755.00 33541492.86 L 35537794.00 33548965.00 A 188626.87 188626.87 0 1 1 35328206.00 33862635.00 L 35295409.10 33829838.10 L 35241815.04 33846955.39 L 35238813.44 33864750.44 L 35279869.00 33905806.00 A 188621.50 188621.50 0 1 1 34966199.00 33905806.00 L 35000227.00 33871778.00 L 34999746.50 28433155.00 L 32015907.14 28433155.00 L 32008435.00 28451194.00 A 188626.87 188626.87 0 0 1 31666600.00 28309601.00 L 31681530.82 28273555.52 L 31648121.78 28223555.00 L 29696074.00 28223555.00 L 29651394.00 28268235.00 A 188621.50 188621.50 0 1 1 29651394.00 27954565.00 L 29696074.00 27999245.00 L 32885404.00 27999244.00 L 32928324.00 28007782.00 L 32964710.00 28032094.00 L 32981461.00 28048845.00 L 36281726.00 28048845.00 L 36318806.00 28011765.00 A 188621.50 188621.50 0 1 1 36266666.00 28273155.00 L 35224047.66 28273155.00 L 35221917.47 28275440.51 L 35201899.28 28323155.47 L 35216000.00 28344259.00 L 35224537.00 28387179.00 L 35224537.00 33559399.37 L 35274537.45 33581888.44 L 35295445.00 33563348.18 L 35295444.00 30149800.00 L 35303982.00 30106880.00 L 35328294.00 30070494.00 L 37588894.00 27809894.00 L 37625280.00 27785582.00 L 37668200.00 27777045.00 L 41478200.00 27777044.00 L 41521120.00 27785582.00 L 41557506.00 27809894.00 L 41735306.00 27987694.00 L 41759618.00 28024080.00 L 41768155.00 28067000.00 L 41768155.00 28425526.00 L 41812835.00 28470206.00 A 188621.50 188621.50 0 1 1 41499165.00 28470206.00 L 41543845.00 28425526.00 L 41543845.00 28113456.18 L 41498089.72 28067701.17 L 41455701.72 28096024.23 L 41460000.00 28106401.00 A 188621.50 188621.50 0 0 1 41170206.00 28300035.00 L 41134591.06 28264420.06 L 40879155.00 28519856.90 L 40879155.00 28581304.72 L 40929155.43 28602015.57 L 40935206.00 28595965.00 A 188621.50 188621.50 0 0 1 41196835.00 28857594.00 L 41173115.00 28881314.00 L 41173116.00 32522840.00 L 41164578.00 32565760.00 L 41140262.99 32602148.01 L 41012555.00 32729856.80 L 41012556.00 32863340.00 L 41008063.00 32885926.03 L 41008063.00 34896561.17 L 41058063.52 34927354.95 L 41104360.00 34908178.00 A 201667.62 201667.62 0 1 1 41104360.00 35303768.00 L 41058063.52 35284591.05 L 41008063.00 35315384.83 L 41008063.00 35363051.14 L 41096211.47 35451200.00 L 41159399.00 35451200.00 A 188626.87 188626.87 0 1 1 40937600.00 35672999.00  zM 37947600.00 31546797.00 m -312677.92 0 a 312677.92 312677.92 0 1 1 625355.84 0a 312677.92 312677.92 0 1 1 -625355.84 0M 38756590.00 31049408.30 m -171566.11 0 a 171566.11 171566.11 0 1 1 343132.23 0a 171566.11 171566.11 0 1 1 -343132.23 0M 41403600.00 30456200.00 L 41301483.08 30456200.00 L 41312854.00 30428748.00 L 41376148.00 30365454.00 L 41403600.00 30354083.08 L 41403600.00 30456200.00  zM 41403600.00 30758316.92 L 41376148.00 30746946.00 L 41312854.00 30683652.00 L 41301483.08 30656200.00 L 41403600.00 30656200.00 L 41403600.00 30758316.92  zM 41603600.00 30758316.92 L 41603600.00 30656200.00 L 41705716.92 30656200.00 L 41694346.00 30683652.00 L 41631052.00 30746946.00 L 41603600.00 30758316.92  zM 41705716.92 30456200.00 L 41603600.00 30456200.00 L 41603600.00 30354083.08 L 41631052.00 30365454.00 L 41694346.00 30428748.00 L 41705716.92 30456200.00  zM 43130800.00 30456200.00 L 43028683.08 30456200.00 L 43040054.00 30428748.00 L 43103348.00 30365454.00 L 43130800.00 30354083.08 L 43130800.00 30456200.00  zM 43130800.00 30758316.92 L 43103348.00 30746946.00 L 43040054.00 30683652.00 L 43028683.08 30656200.00 L 43130800.00 30656200.00 L 43130800.00 30758316.92  zM 43330800.00 30758316.92 L 43330800.00 30656200.00 L 43432916.92 30656200.00 L 43421546.00 30683652.00 L 43358252.00 30746946.00 L 43330800.00 30758316.92  zM 44229030.00 31049408.30 m -171566.11 0 a 171566.11 171566.11 0 1 1 343132.23 0a 171566.11 171566.11 0 1 1 -343132.23 0M 46157726.00 34025225.73 m -732822.99 0 a 732822.99 732822.99 0 1 1 1465645.99 0a 732822.99 732822.99 0 1 1 -1465645.99 0M 12130200.00 35220136.99 m -653707.74 0 a 653707.74 653707.74 0 1 1 1307415.48 0a 653707.74 653707.74 0 1 1 -1307415.48 0M 12130200.00 37720142.86 m -263040.40 0 a 263040.40 263040.40 0 1 1 526080.80 0a 263040.40 263040.40 0 1 1 -526080.80 0M 11399294.00 38145494.00 L 11297177.08 38145494.00 L 11308548.00 38118042.00 L 11371842.00 38054748.00 L 11399294.00 38043377.08 L 11399294.00 38145494.00  zM 11701410.92 38145494.00 L 11599294.00 38145494.00 L 11599294.00 38043377.08 L 11626746.00 38054748.00 L 11690040.00 38118042.00 L 11701410.92 38145494.00  zM 11399294.00 38447610.92 L 11371842.00 38436240.00 L 11308548.00 38372946.00 L 11297177.08 38345494.00 L 11399294.00 38345494.00 L 11399294.00 38447610.92  zM 11599294.00 38447610.92 L 11599294.00 38345494.00 L 11701410.92 38345494.00 L 11690040.00 38372946.00 L 11626746.00 38436240.00 L 11599294.00 38447610.92  zM 12130200.00 38720142.86 m -263040.40 0 a 263040.40 263040.40 0 1 1 526080.80 0a 263040.40 263040.40 0 1 1 -526080.80 0M 13614400.00 35077402.96 m -188621.50 0 a 188621.50 188621.50 0 1 1 377243.00 0a 188621.50 188621.50 0 1 1 -377243.00 0M 14198600.00 35458402.96 m -188621.50 0 a 188621.50 188621.50 0 1 1 377243.00 0a 188621.50 188621.50 0 1 1 -377243.00 0M 14097000.00 36017202.96 m -188621.50 0 a 188621.50 188621.50 0 1 1 377243.00 0a 188621.50 188621.50 0 1 1 -377243.00 0M 12761106.00 38165896.96 m -188621.50 0 a 188621.50 188621.50 0 1 1 377243.00 0a 188621.50 188621.50 0 1 1 -377243.00 0M 14935200.00 35179002.96 m -188621.50 0 a 188621.50 188621.50 0 1 1 377243.00 0a 188621.50 188621.50 0 1 1 -377243.00 0M 12604271.00 40042300.00 L 12648951.00 39997620.00 L 12648950.00 38750095.00 L 12657488.00 38707175.00 L 12681800.00 38670789.00 L 14690633.84 36661955.43 L 14669922.99 36611955.00 L 12112874.00 36611955.00 L 12068194.00 36656635.00 A 188621.50 188621.50 0 1 1 12068194.00 36342965.00 L 12112874.00 36387645.00 L 12433304.72 36387645.00 L 12454015.57 36337644.57 L 12441565.00 36325194.00 A 188621.50 188621.50 0 1 1 12755235.00 36325194.00 L 12742784.43 36337644.57 L 12763495.28 36387645.00 L 14445287.32 36387645.00 L 14468201.04 36337644.50 L 14445400.00 36282599.00 A 188621.50 188621.50 0 0 1 14787235.00 36141006.00 L 14802165.61 36177050.97 L 14861145.42 36188782.58 L 15076257.57 35973670.43 L 15055546.72 35923670.00 L 15051201.00 35923670.00 A 188626.87 188626.87 0 1 1 15273000.00 35701871.00 L 15273000.00 35706216.72 L 15323000.43 35726927.57 L 19326773.84 31723154.16 L 19321130.00 31709529.00 A 188621.50 188621.50 0 0 1 19662965.00 31567936.00 L 19677896.18 31603982.35 L 19736875.99 31615713.95 L 20139095.00 31213494.00 L 20175481.00 31189182.00 L 20218406.03 31180645.00 L 20805526.00 31180645.00 L 20850206.00 31135965.00 A 188621.50 188621.50 0 1 1 20850206.00 31449635.00 L 20805526.00 31404955.00 L 20305936.50 31404955.00 L 20300439.13 31413399.51 L 20327550.97 31463400.00 L 20331399.00 31463400.00 A 188626.87 188626.87 0 0 1 20399394.00 31805235.00 L 20353612.18 31824198.82 L 13136961.00 39040851.00 L 13136961.00 39147626.00 L 13152941.00 39163606.00 A 188621.50 188621.50 0 0 1 12959307.00 39453400.00 L 12923261.52 39438469.18 L 12873261.00 39471878.22 L 12873261.00 39997620.00 L 12917941.00 40042300.00 A 188621.50 188621.50 0 1 1 12604271.00 40042300.00  zM 18706696.00 35105975.48 m -201667.62 0 a 201667.62 201667.62 0 1 1 403335.25 0a 201667.62 201667.62 0 1 1 -403335.25 0M 12130200.00 39720142.86 m -263040.40 0 a 263040.40 263040.40 0 1 1 526080.80 0a 263040.40 263040.40 0 1 1 -526080.80 0M 12130200.00 40720142.86 m -263040.40 0 a 263040.40 263040.40 0 1 1 526080.80 0a 263040.40 263040.40 0 1 1 -526080.80 0M 12130200.00 41720142.86 m -263040.40 0 a 263040.40 263040.40 0 1 1 526080.80 0a 263040.40 263040.40 0 1 1 -526080.80 0M 12130200.00 42720142.86 m -263040.40 0 a 263040.40 263040.40 0 1 1 526080.80 0a 263040.40 263040.40 0 1 1 -526080.80 0M 12130200.00 43720142.86 m -263040.40 0 a 263040.40 263040.40 0 1 1 526080.80 0a 263040.40 263040.40 0 1 1 -526080.80 0M 12130200.00 44720142.86 m -263040.40 0 a 263040.40 263040.40 0 1 1 526080.80 0a 263040.40 263040.40 0 1 1 -526080.80 0M 12130200.00 45720142.86 m -263040.40 0 a 263040.40 263040.40 0 1 1 526080.80 0a 263040.40 263040.40 0 1 1 -526080.80 0M 12130200.00 46720142.86 m -263040.40 0 a 263040.40 263040.40 0 1 1 526080.80 0a 263040.40 263040.40 0 1 1 -526080.80 0M 12130200.00 47720142.86 m -263040.40 0 a 263040.40 263040.40 0 1 1 526080.80 0a 263040.40 263040.40 0 1 1 -526080.80 0M 12130200.00 48720142.86 m -263040.40 0 a 263040.40 263040.40 0 1 1 526080.80 0a 263040.40 263040.40 0 1 1 -526080.80 0M 12130200.00 49720142.86 m -263040.40 0 a 263040.40 263040.40 0 1 1 526080.80 0a 263040.40 263040.40 0 1 1 -526080.80 0M 12130200.00 50720142.86 m -263040.40 0 a 263040.40 263040.40 0 1 1 526080.80 0a 263040.40 263040.40 0 1 1 -526080.80 0M 12130200.00 51720142.86 m -263040.40 0 a 263040.40 263040.40 0 1 1 526080.80 0a 263040.40 263040.40 0 1 1 -526080.80 0M 12130200.00 52720142.86 m -263040.40 0 a 263040.40 263040.40 0 1 1 526080.80 0a 263040.40 263040.40 0 1 1 -526080.80 0M 12130200.00 53720142.86 m -263040.40 0 a 263040.40 263040.40 0 1 1 526080.80 0a 263040.40 263040.40 0 1 1 -526080.80 0M 12130200.00 54720142.86 m -263040.40 0 a 263040.40 263040.40 0 1 1 526080.80 0a 263040.40 263040.40 0 1 1 -526080.80 0M 12130200.00 55720142.86 m -263040.40 0 a 263040.40 263040.40 0 1 1 526080.80 0a 263040.40 263040.40 0 1 1 -526080.80 0M 12130200.00 56720142.86 m -263040.40 0 a 263040.40 263040.40 0 1 1 526080.80 0a 263040.40 263040.40 0 1 1 -526080.80 0M 13305808.00 59229381.00 L 13206887.00 59229381.00 L 13206887.00 59034105.00 A 279561.33 279561.33 0 0 1 13346666.00 58792002.00 L 13386444.00 58775525.13 L 13386444.00 58887848.20 L 13358715.00 58906376.00 L 13319558.00 58964979.00 L 13305808.00 59034105.00 L 13305808.00 59229381.00  zM 14017939.76 58943552.92 m -80284.08 0 a 80284.08 80284.08 0 1 1 160568.17 0a 80284.08 80284.08 0 1 1 -160568.17 0M 16360459.76 58943552.92 m -80284.08 0 a 80284.08 80284.08 0 1 1 160568.17 0a 80284.08 80284.08 0 1 1 -160568.17 0M 12130200.00 59220136.99 m -653707.74 0 a 653707.74 653707.74 0 1 1 1307415.48 0a 653707.74 653707.74 0 1 1 -1307415.48 0M 13366020.00 59624657.00 L 13366020.00 59034105.00 A 120431.73 120431.73 0 1 1 13606868.00 59034105.00 L 13606868.00 59624657.00 A 120431.73 120431.73 0 1 1 13366020.00 59624657.00  zM 18255290.00 60676148.00 L 17682534.00 60676148.00 L 17682534.00 60472751.00 L 17197699.09 60472751.00 L 17171513.00 60502610.63 L 17171513.00 60560090.00 L 17072592.00 60560090.00 L 17072592.00 60502610.00 A 180637.35 180637.35 0 0 0 16711320.00 60502610.00 L 16711320.00 60560090.00 L 16612399.00 60560090.00 L 16612399.00 60502610.00 A 279553.99 279553.99 0 0 1 16752178.00 60260507.00 L 16804637.71 60238777.10 L 16822956.59 60186384.59 L 16697846.00 60061274.00 L 16139029.00 60061274.00 L 16092207.00 60051961.00 L 16052514.00 60025438.00 L 15690079.00 59663003.00 L 15653783.00 59663003.00 L 15584702.00 59634389.00 L 15556510.40 59606197.40 L 15523846.00 59586365.34 L 15491181.60 59606197.40 L 15462990.00 59634389.00 A 191636.82 191636.82 0 0 1 15250056.00 59634389.00 L 15221864.40 59606197.40 L 15189200.00 59586365.34 L 15156535.60 59606197.40 L 15128344.00 59634389.00 A 191636.82 191636.82 0 0 1 14915410.00 59634389.00 L 14887218.40 59606197.40 L 14854554.00 59586365.34 L 14821889.60 59606197.40 L 14793698.00 59634389.00 A 191636.82 191636.82 0 0 1 14580764.00 59634389.00 L 14552572.90 59606197.90 L 14519908.50 59586365.20 L 14487244.10 59606197.90 L 14459053.00 59634389.00 A 191636.82 191636.82 0 0 1 14246119.88 59634389.37 L 14178191.28 59637172.72 L 14147065.00 59668299.00 L 14117940.00 59680363.09 L 14117940.00 59555698.81 L 14138469.00 59524975.00 A 130456.67 130456.67 0 1 0 13897411.00 59524975.00 L 13917940.00 59555698.81 L 13917940.00 59680363.09 L 13888815.00 59668299.00 L 13824691.00 59604175.00 L 13816001.25 59583196.30 L 13766001.00 59593142.06 L 13766001.00 59624657.00 A 279561.33 279561.33 0 0 1 13626222.00 59866760.00 L 13586444.00 59883236.87 L 13586444.00 59770913.80 L 13614173.00 59752386.00 L 13653330.00 59693783.00 L 13667080.00 59624657.00 L 13667080.00 59034105.00 L 13653330.00 58964979.00 L 13614173.00 58906376.00 L 13586444.00 58887848.20 L 13586444.00 58775525.13 L 13626222.00 58792002.00 L 13684121.00 58836428.00 L 13728547.00 58894326.00 L 13739986.75 58921943.94 L 13789987.00 58911998.25 L 13789987.00 58898211.00 L 13824691.00 58814429.00 L 13888815.00 58750305.00 L 13917940.00 58738240.91 L 13917940.00 58862905.19 L 13897411.00 58893629.00 A 130456.67 130456.67 0 1 0 14138469.00 58893629.00 L 14117940.00 58862905.19 L 14117940.00 58738240.91 L 14147065.00 58750305.00 L 14178191.28 58781431.28 L 14246119.88 58784214.63 A 191635.60 191635.60 0 0 1 14459053.00 58784215.00 L 14487244.10 58812406.10 L 14519908.50 58832238.80 L 14552572.90 58812406.10 L 14580764.00 58784215.00 A 191636.82 191636.82 0 0 1 14793698.00 58784215.00 L 14821889.60 58812406.60 L 14845826.81 58826939.98 L 14889049.00 58801159.95 L 14889049.00 58356078.00 L 14854565.00 58321594.00 A 188621.50 188621.50 0 1 1 15168546.81 58112758.77 L 15227526.63 58124490.37 L 15251729.00 58100288.00 A 188621.50 188621.50 0 0 1 15513358.00 58152329.00 L 15522110.67 58173459.41 L 15576230.90 58173459.41 L 15591165.00 58137406.00 A 188626.87 188626.87 0 0 1 15904835.00 58137406.00 L 15911406.46 58153270.59 L 16147026.00 58388890.00 L 16185704.00 58446777.00 L 16199286.00 58515058.00 L 16199286.00 58717025.26 L 16249286.51 58742869.16 L 16260460.00 58738240.91 L 16260460.00 58862905.19 L 16239931.00 58893629.00 A 130456.67 130456.67 0 1 0 16480989.00 58893629.00 L 16460460.00 58862905.19 L 16460460.00 58738240.91 L 16489585.00 58750305.00 L 16553709.00 58814429.00 L 16588413.00 58898211.00 L 16588413.00 58911998.25 L 16638413.25 58921943.94 L 16649853.00 58894326.00 L 16694279.00 58836428.00 L 16752178.00 58792002.00 L 16791956.00 58775525.13 L 16791956.00 58887848.20 L 16764227.00 58906376.00 L 16725070.00 58964979.00 L 16711320.00 59034105.00 L 16711320.00 59624657.00 A 180637.35 180637.35 0 0 0 17072592.00 59624657.00 L 17072592.00 59429381.00 L 17171513.00 59429381.00 L 17171513.00 59624657.00 A 279561.33 279561.33 0 0 1 16964311.00 59894688.00 L 16949925.31 59896581.97 L 16932005.21 59949373.21 L 17210681.00 60228049.00 L 17682534.00 60228049.00 L 17682534.00 60024652.00 L 18255290.00 60024652.00 L 18255290.00 60676148.00  zM 16771532.00 59624657.00 L 16771532.00 59034105.00 A 120431.73 120431.73 0 1 1 17012380.00 59034105.00 L 17012380.00 59624657.00 A 120431.73 120431.73 0 1 1 16771532.00 59624657.00  zM 17171513.00 59229381.00 L 17072592.00 59229381.00 L 17072592.00 59034105.00 L 17058842.00 58964979.00 L 17019685.00 58906376.00 L 16991956.00 58887848.20 L 16991956.00 58775525.13 L 17031734.00 58792002.00 A 279531.20 279531.20 0 0 1 17171513.00 59034105.00 L 17171513.00 59229381.00  zM 18280690.00 59863348.00 L 17707934.00 59863348.00 L 17707934.00 59211852.00 L 17869286.09 59211852.00 L 17879222.60 59161851.60 L 17851765.00 59134394.00 A 188621.50 188621.50 0 1 1 18165435.00 59134394.00 L 18137977.40 59161851.60 L 18147913.91 59211852.00 L 18280690.00 59211852.00 L 18280690.00 59863348.00  zM 18456910.00 59437599.99 L 18356910.00 59437599.99 L 18356910.00 59171852.00 L 18583288.02 59171852.00 L 18583288.01 59271852.00 L 18456910.00 59271852.00 L 18456910.00 59437599.99  zM 13386444.00 59883236.87 L 13346666.00 59866760.00 A 279531.20 279531.20 0 0 1 13206887.00 59624657.00 L 13206887.00 59429381.00 L 13305808.00 59429381.00 L 13305808.00 59624657.00 L 13319558.00 59693783.00 L 13358715.00 59752386.00 L 13386444.00 59770913.80 L 13386444.00 59883236.87  zM 14017939.76 59475048.92 m -80284.08 0 a 80284.08 80284.08 0 1 1 160568.17 0a 80284.08 80284.08 0 1 1 -160568.17 0M 13305808.00 60560090.00 L 13206887.00 60560090.00 L 13206887.00 60502610.00 A 279553.99 279553.99 0 0 1 13346666.00 60260507.00 L 13386444.00 60244030.13 L 13386444.00 60356353.20 L 13358715.00 60374881.00 L 13319558.00 60433484.00 L 13305808.00 60502610.00 L 13305808.00 60560090.00  zM 13766001.00 60560090.00 L 13667080.00 60560090.00 L 13667080.00 60502610.00 L 13653330.00 60433484.00 L 13614173.00 60374881.00 L 13586444.00 60356353.20 L 13586444.00 60244030.13 L 13626222.00 60260507.00 A 279523.86 279523.86 0 0 1 13766001.00 60502610.00 L 13766001.00 60560090.00  zM 13366020.00 60817570.00 L 13366020.00 60502610.00 A 120431.73 120431.73 0 1 1 13606868.00 60502610.00 L 13606868.00 60817570.00 A 120431.73 120431.73 0 1 1 13366020.00 60817570.00  zM 13386444.00 61076149.87 L 13346666.00 61059673.00 A 279523.86 279523.86 0 0 1 13206887.00 60817570.00 L 13206887.00 60760090.00 L 13305808.00 60760090.00 L 13305808.00 60817570.00 L 13319558.00 60886696.00 L 13358715.00 60945299.00 L 13386444.00 60963826.80 L 13386444.00 61076149.87  zM 13586444.00 61076149.87 L 13586444.00 60963826.80 L 13614173.00 60945299.00 L 13653330.00 60886696.00 L 13667080.00 60817570.00 L 13667080.00 60760090.00 L 13766001.00 60760090.00 L 13766001.00 60817570.00 A 279553.99 279553.99 0 0 1 13626222.00 61059673.00 L 13586444.00 61076149.87  zM 16771532.00 60817570.00 L 16771532.00 60502610.00 A 120431.73 120431.73 0 1 1 17012380.00 60502610.00 L 17012380.00 60817570.00 A 120431.73 120431.73 0 1 1 16771532.00 60817570.00  zM 16791956.00 61076149.87 L 16752178.00 61059673.00 A 279523.86 279523.86 0 0 1 16612399.00 60817570.00 L 16612399.00 60760090.00 L 16711320.00 60760090.00 L 16711320.00 60817570.00 L 16725070.00 60886696.00 L 16764227.00 60945299.00 L 16791956.00 60963826.80 L 16791956.00 61076149.87  zM 16991956.00 61076149.87 L 16991956.00 60963826.80 L 17019685.00 60945299.00 L 17058842.00 60886696.00 L 17072592.00 60817570.00 L 17072592.00 60760090.00 L 17171513.00 60760090.00 L 17171513.00 60817570.00 A 279553.99 279553.99 0 0 1 17031734.00 61059673.00 L 16991956.00 61076149.87  zM 18583287.98 59903348.00 L 18356910.00 59903348.00 L 18356910.00 59637599.99 L 18456910.00 59637599.99 L 18456910.00 59803348.00 L 18583287.99 59803348.00 L 18583287.98 59903348.00  zM 18431510.00 60250399.99 L 18331510.00 60250399.99 L 18331510.00 59984652.00 L 18557888.02 59984652.00 L 18557888.01 60084652.00 L 18431510.00 60084652.00 L 18431510.00 60250399.99  zM 18557887.98 60716148.00 L 18331510.00 60716148.00 L 18331510.00 60450399.99 L 18431510.00 60450399.99 L 18431510.00 60616148.00 L 18557887.99 60616148.00 L 18557887.98 60716148.00  zM 21206696.00 35105975.48 m -201667.62 0 a 201667.62 201667.62 0 1 1 403335.25 0a 201667.62 201667.62 0 1 1 -403335.25 0M 22706696.00 35105975.48 m -201667.62 0 a 201667.62 201667.62 0 1 1 403335.25 0a 201667.62 201667.62 0 1 1 -403335.25 0M 22963200.00 34796916.92 L 22935748.00 34785546.00 L 22872454.00 34722252.00 L 22861083.08 34694800.00 L 22963200.00 34694800.00 L 22963200.00 34796916.92  zM 23206696.00 35105975.48 m -201667.62 0 a 201667.62 201667.62 0 1 1 403335.25 0a 201667.62 201667.62 0 1 1 -403335.25 0M 23163200.00 34796916.92 L 23163200.00 34694800.00 L 23265316.92 34694800.00 L 23253946.00 34722252.00 L 23190652.00 34785546.00 L 23163200.00 34796916.92  zM 28206696.00 35105975.48 m -201667.62 0 a 201667.62 201667.62 0 1 1 403335.25 0a 201667.62 201667.62 0 1 1 -403335.25 0M 30757725.00 35075225.73 m -732822.99 0 a 732822.99 732822.99 0 1 1 1465645.99 0a 732822.99 732822.99 0 1 1 -1465645.99 0M 32143704.00 35105975.48 m -201667.62 0 a 201667.62 201667.62 0 1 1 403335.25 0a 201667.62 201667.62 0 1 1 -403335.25 0M 32643704.00 35105975.48 m -201667.62 0 a 201667.62 201667.62 0 1 1 403335.25 0a 201667.62 201667.62 0 1 1 -403335.25 0M 32766000.00 34594802.96 m -188621.50 0 a 188621.50 188621.50 0 1 1 377243.00 0a 188621.50 188621.50 0 1 1 -377243.00 0M 33143704.00 35105975.48 m -201667.62 0 a 201667.62 201667.62 0 1 1 403335.25 0a 201667.62 201667.62 0 1 1 -403335.25 0M 33643704.00 35105975.48 m -201667.62 0 a 201667.62 201667.62 0 1 1 403335.25 0a 201667.62 201667.62 0 1 1 -403335.25 0M 35143704.00 35105975.48 m -201667.62 0 a 201667.62 201667.62 0 1 1 403335.25 0a 201667.62 201667.62 0 1 1 -403335.25 0M 36143704.00 35105975.48 m -201667.62 0 a 201667.62 201667.62 0 1 1 403335.25 0a 201667.62 201667.62 0 1 1 -403335.25 0M 22455200.00 35536200.00 L 22353083.08 35536200.00 L 22364454.00 35508748.00 L 22427748.00 35445454.00 L 22455200.00 35434083.08 L 22455200.00 35536200.00  zM 22757316.92 35536200.00 L 22655200.00 35536200.00 L 22655200.00 35434083.08 L 22682652.00 35445454.00 L 22745946.00 35508748.00 L 22757316.92 35536200.00  zM 34143704.00 35105975.48 m -201667.62 0 a 201667.62 201667.62 0 1 1 403335.25 0a 201667.62 201667.62 0 1 1 -403335.25 0M 34643704.00 35105975.48 m -201667.62 0 a 201667.62 201667.62 0 1 1 403335.25 0a 201667.62 201667.62 0 1 1 -403335.25 0M 35643704.00 35105975.48 m -201667.62 0 a 201667.62 201667.62 0 1 1 403335.25 0a 201667.62 201667.62 0 1 1 -403335.25 0M 36643704.00 35105975.48 m -201667.62 0 a 201667.62 201667.62 0 1 1 403335.25 0a 201667.62 201667.62 0 1 1 -403335.25 0M 37143704.00 35105975.48 m -201667.62 0 a 201667.62 201667.62 0 1 1 403335.25 0a 201667.62 201667.62 0 1 1 -403335.25 0M 22655200.00 35838316.92 L 22655200.00 35736200.00 L 22757316.92 35736200.00 L 22745946.00 35763652.00 L 22682652.00 35826946.00 L 22655200.00 35838316.92  zM 33274000.00 35610802.96 m -188621.50 0 a 188621.50 188621.50 0 1 1 377243.00 0a 188621.50 188621.50 0 1 1 -377243.00 0M 22455200.00 35838316.92 L 22427748.00 35826946.00 L 22364454.00 35763652.00 L 22353083.08 35736200.00 L 22455200.00 35736200.00 L 22455200.00 35838316.92  zM 19009666.00 59437600.01 L 18909666.00 59437600.01 L 18909666.00 59271852.00 L 18783288.01 59271852.00 L 18783288.02 59171852.00 L 19009666.00 59171852.00 L 19009666.00 59437600.01  zM 19009666.00 59903348.00 L 18783287.98 59903348.00 L 18783287.99 59803348.00 L 18909666.00 59803348.00 L 18909666.00 59637600.01 L 19009666.00 59637600.01 L 19009666.00 59903348.00  zM 18984266.00 60250400.01 L 18884266.00 60250400.01 L 18884266.00 60084652.00 L 18757888.01 60084652.00 L 18757888.02 59984652.00 L 18984266.00 59984652.00 L 18984266.00 60250400.01  zM 18984266.00 60716148.00 L 18757887.98 60716148.00 L 18757887.99 60616148.00 L 18884266.00 60616148.00 L 18884266.00 60450400.01 L 18984266.00 60450400.01 L 18984266.00 60716148.00  zM 37643704.00 35105975.48 m -201667.62 0 a 201667.62 201667.62 0 1 1 403335.25 0a 201667.62 201667.62 0 1 1 -403335.25 0M 38143704.00 35105975.48 m -201667.62 0 a 201667.62 201667.62 0 1 1 403335.25 0a 201667.62 201667.62 0 1 1 -403335.25 0M 38643704.00 35105975.48 m -201667.62 0 a 201667.62 201667.62 0 1 1 403335.25 0a 201667.62 201667.62 0 1 1 -403335.25 0M 39143704.00 35105975.48 m -201667.62 0 a 201667.62 201667.62 0 1 1 403335.25 0a 201667.62 201667.62 0 1 1 -403335.25 0M 41643704.00 35105975.48 m -201667.62 0 a 201667.62 201667.62 0 1 1 403335.25 0a 201667.62 201667.62 0 1 1 -403335.25 0M 48220200.00 39720142.86 m -263040.40 0 a 263040.40 263040.40 0 1 1 526080.80 0a 263040.40 263040.40 0 1 1 -526080.80 0M 48220200.00 40720142.86 m -263040.40 0 a 263040.40 263040.40 0 1 1 526080.80 0a 263040.40 263040.40 0 1 1 -526080.80 0M 48220200.00 35220136.99 m -653707.74 0 a 653707.74 653707.74 0 1 1 1307415.48 0a 653707.74 653707.74 0 1 1 -1307415.48 0M 48220200.00 37720142.86 m -263040.40 0 a 263040.40 263040.40 0 1 1 526080.80 0a 263040.40 263040.40 0 1 1 -526080.80 0M 48220200.00 38720142.86 m -263040.40 0 a 263040.40 263040.40 0 1 1 526080.80 0a 263040.40 263040.40 0 1 1 -526080.80 0M 48220200.00 41720142.86 m -263040.40 0 a 263040.40 263040.40 0 1 1 526080.80 0a 263040.40 263040.40 0 1 1 -526080.80 0M 48220200.00 42720142.86 m -263040.40 0 a 263040.40 263040.40 0 1 1 526080.80 0a 263040.40 263040.40 0 1 1 -526080.80 0M 48220200.00 43720142.86 m -263040.40 0 a 263040.40 263040.40 0 1 1 526080.80 0a 263040.40 263040.40 0 1 1 -526080.80 0M 48220200.00 44720142.86 m -263040.40 0 a 263040.40 263040.40 0 1 1 526080.80 0a 263040.40 263040.40 0 1 1 -526080.80 0M 48220200.00 45720142.86 m -263040.40 0 a 263040.40 263040.40 0 1 1 526080.80 0a 263040.40 263040.40 0 1 1 -526080.80 0M 48220200.00 46720142.86 m -263040.40 0 a 263040.40 263040.40 0 1 1 526080.80 0a 263040.40 263040.40 0 1 1 -526080.80 0M 48220200.00 47720142.86 m -263040.40 0 a 263040.40 263040.40 0 1 1 526080.80 0a 263040.40 263040.40 0 1 1 -526080.80 0M 48220200.00 48720142.86 m -263040.40 0 a 263040.40 263040.40 0 1 1 526080.80 0a 263040.40 263040.40 0 1 1 -526080.80 0M 48220200.00 49720142.86 m -263040.40 0 a 263040.40 263040.40 0 1 1 526080.80 0a 263040.40 263040.40 0 1 1 -526080.80 0M 48220200.00 50720142.86 m -263040.40 0 a 263040.40 263040.40 0 1 1 526080.80 0a 263040.40 263040.40 0 1 1 -526080.80 0M 48220200.00 51720142.86 m -263040.40 0 a 263040.40 263040.40 0 1 1 526080.80 0a 263040.40 263040.40 0 1 1 -526080.80 0M 48220200.00 52720142.86 m -263040.40 0 a 263040.40 263040.40 0 1 1 526080.80 0a 263040.40 263040.40 0 1 1 -526080.80 0M 48220200.00 53720142.86 m -263040.40 0 a 263040.40 263040.40 0 1 1 526080.80 0a 263040.40 263040.40 0 1 1 -526080.80 0M 48220200.00 54720142.86 m -263040.40 0 a 263040.40 263040.40 0 1 1 526080.80 0a 263040.40 263040.40 0 1 1 -526080.80 0M 48220200.00 55720142.86 m -263040.40 0 a 263040.40 263040.40 0 1 1 526080.80 0a 263040.40 263040.40 0 1 1 -526080.80 0M 48220200.00 56720142.86 m -263040.40 0 a 263040.40 263040.40 0 1 1 526080.80 0a 263040.40 263040.40 0 1 1 -526080.80 0M 48220200.00 59220136.99 m -653707.74 0 a 653707.74 653707.74 0 1 1 1307415.48 0a 653707.74 653707.74 0 1 1 -1307415.48 0"/>
<path id="N" d="M 16360460.38 59475050.38 m -130459.26 0 a 130459.26 130459.26 0 1 1 260918.51 0a 130459.26 130459.26 0 1 1 -260918.51 0M 16360459.76 59475048.92 m -80284.08 0 a 80284.08 80284.08 0 1 1 160568.17 0a 80284.08 80284.08 0 1 1 -160568.17 0"/>
<path id="N" d="M 40783753.00 33268595.34 L 40783752.00 32867832.00 L 40788245.00 32845245.97 L 40788244.00 32683400.00 L 40796782.00 32640480.00 L 40821094.00 32604094.00 L 40948805.00 32476383.80 L 40948805.00 28949263.57 L 40929155.49 28936252.83 L 40879155.00 28963113.35 L 40879156.00 32258372.00 L 40870618.00 32301292.00 L 40846302.99 32337680.01 L 40143888.87 33040094.90 L 40148645.48 33066089.92 L 40164738.35 33089956.64 L 40183068.20 33088302.80 L 40230406.00 33040965.00 A 188621.50 188621.50 0 0 1 40520200.00 33234599.00 L 40513098.02 33251744.35 L 40552237.59 33287910.15 L 40603201.00 33266800.00 L 40676799.00 33266800.00 L 40733752.50 33290391.37 L 40783753.00 33268595.34  z"/>
<path id="N" d="M 24167352.00 34908178.00 L 24246040.00 34908178.00 L 24296744.49 34929180.84 L 24346745.00 34900969.22 L 24346745.00 30803625.73 L 24300550.60 30784491.38 L 24216755.00 30868286.99 L 24216755.00 34470726.00 L 24261435.00 34515406.00 A 188621.50 188621.50 0 0 1 24066647.00 34805971.64 L 24066647.00 34900969.22 L 24116647.51 34929180.84 L 24167352.00 34908178.00  z"/>
<path id="N" d="M 44801165.00 23669606.00 L 44853206.00 23617565.00 L 44921201.00 23589400.00 L 44975477.05 23589400.00 L 44997170.22 23540381.94 L 44936943.10 23480155.00 L 37488329.74 23480155.00 L 37460551.02 23521729.10 L 37465800.00 23534401.00 L 37465800.00 23607999.00 L 37453520.20 23637644.48 L 37486929.24 23687645.00 L 44793692.86 23687645.00 L 44801165.00 23669606.00  z"/>
<path id="N" d="M 37695215.57 26349044.57 L 37663765.00 26317594.00 L 37635600.00 26249599.00 L 37635600.00 26186411.57 L 37589943.18 26140755.00 L 32410678.22 26140755.00 L 32377269.18 26190755.52 L 32392200.00 26226801.00 L 32392200.00 26300399.00 L 32372049.99 26349044.49 L 32398712.76 26399045.00 L 37674504.72 26399045.00 L 37695215.57 26349044.57  z"/>
<path id="N" d="M 31452930.82 25546444.48 L 31438000.00 25510399.00 L 31438000.00 25436801.00 L 31452930.82 25400755.52 L 31419521.78 25350755.00 L 30378678.22 25350755.00 L 30345269.18 25400755.52 L 30360200.00 25436801.00 L 30360200.00 25510399.00 L 30345269.18 25546444.48 L 30378678.22 25596445.00 L 31419521.78 25596445.00 L 31452930.82 25546444.48  z"/>
<path id="N" d="M 12923261.30 38948371.04 L 12945500.00 38915088.00 L 20128869.71 31731719.28 L 20109600.00 31685199.00 L 20109600.00 31630923.30 L 20060581.72 31609230.31 L 12873261.00 38796552.00 L 12873261.00 38922008.72 L 12919595.74 38948903.67 L 12923261.30 38948371.04  z"/>
<path id="N" d="M 35334493.96 27352318.48 L 35304619.95 27315555.00 L 30258096.76 27315555.00 L 30247572.00 27326080.00 L 30217692.31 27346044.68 L 30218083.14 27371632.49 L 30226009.39 27396045.00 L 35316187.86 27396045.00 L 35334493.96 27352318.48  z"/>
<path id="N" d="M 37072809.48 23250755.47 L 37047641.41 23200755.00 L 31260596.43 23200755.00 L 31257195.73 23205844.52 L 31283921.54 23255845.00 L 37069034.82 23255845.00 L 37072809.48 23250755.47  z"/>
<path id="N" d="M 42301204.27 23961955.48 L 42274478.46 23911955.00 L 37440789.88 23911955.00 L 37435043.42 23917044.60 L 37454002.38 23967045.00 L 42297803.57 23967045.00 L 42301204.27 23961955.48  z"/>
<path id="N" d="M 14630393.87 36245793.87 m -127457.60 0 a 127457.60 127457.60 0 1 1 254915.19 0a 127457.60 127457.60 0 1 1 -254915.19 0"/>
<path id="N" d="M 31394393.87 33578793.87 m -127457.60 0 a 127457.60 127457.60 0 1 1 254915.19 0a 127457.60 127457.60 0 1 1 -254915.19 0"/>
<path id="N" d="M 16146343.00 59425125.00 L 16143067.00 59420222.12 L 16143067.00 58998381.88 L 16146343.00 58993479.00 L 16156274.00 58943554.00 L 16146343.00 58893629.00 L 16138111.00 58881308.94 L 16138111.00 58515058.00 L 16129186.00 58470187.00 L 16103768.00 58432147.00 L 15865748.00 58193427.00 A 127457.60 127457.60 0 1 0 15700101.89 58360122.02 L 15903605.00 58563625.87 L 15903605.00 58902074.68 L 15895354.00 58943554.00 L 15905285.00 58993479.00 L 15908561.00 58998381.88 L 15908561.00 59420222.12 L 15905285.00 59425125.00 A 130456.67 130456.67 0 1 0 16146343.00 59425125.00  zM 16025813.76 58943552.92 m -80284.08 0 a 80284.08 80284.08 0 1 1 160568.17 0a 80284.08 80284.08 0 1 1 -160568.17 0M 16025813.76 59475048.92 m -80284.08 0 a 80284.08 80284.08 0 1 1 160568.17 0a 80284.08 80284.08 0 1 1 -160568.17 0"/>
<path id="N" d="M 14473115.00 59425125.00 L 14469839.00 59420222.12 L 14469839.00 58998381.88 L 14473115.00 58993479.00 A 130456.67 130456.67 0 1 0 14232057.00 58993479.00 L 14235333.00 58998381.88 L 14235333.00 59420222.12 L 14232057.00 59425125.00 A 130456.67 130456.67 0 1 0 14473115.00 59425125.00  zM 14352585.76 58943552.92 m -80284.08 0 a 80284.08 80284.08 0 1 1 160568.17 0a 80284.08 80284.08 0 1 1 -160568.17 0M 14352585.76 59475048.92 m -80284.08 0 a 80284.08 80284.08 0 1 1 160568.17 0a 80284.08 80284.08 0 1 1 -160568.17 0"/>
<path id="N" d="M 20602720.00 35522024.86 L 20602721.00 35344321.00 L 20586869.00 35306052.00 L 20513020.00 35232203.00 L 20513020.00 33584852.00 L 29456551.00 24641320.00 L 38011224.86 24641320.00 L 38035280.00 24677320.00 A 127441.40 127441.40 0 1 0 38035280.00 24497080.00 L 38011224.86 24533080.00 L 29434134.00 24533079.00 L 29395864.29 24548932.71 L 20420631.00 33524165.00 L 20404780.00 33562436.41 L 20404779.00 35254621.00 L 20420631.00 35292890.00 L 20494480.00 35366739.00 L 20494480.00 35522024.86 L 20458480.00 35546080.00 A 127441.40 127441.40 0 1 0 20602720.00 35522024.86  z"/>
<path id="N" d="M 30403793.87 32842193.87 m -127457.60 0 a 127457.60 127457.60 0 1 1 254915.19 0a 127457.60 127457.60 0 1 1 -254915.19 0"/>
<path id="N" d="M 13614393.87 35077393.87 m -127457.60 0 a 127457.60 127457.60 0 1 1 254915.19 0a 127457.60 127457.60 0 1 1 -254915.19 0"/>
<path id="N" d="M 28781520.00 35496624.86 L 28781520.00 32282557.94 L 29038669.00 32025409.00 L 29054520.00 31987140.00 L 29054520.00 27984913.97 L 29477113.03 27562320.00 L 40043224.86 27562320.00 L 40067280.00 27598320.00 A 127441.40 127441.40 0 1 0 40067280.00 27418080.00 L 40043224.86 27454080.00 L 29454696.00 27454079.00 L 29416426.29 27469932.71 L 28962131.00 27924227.00 L 28946280.00 27962498.41 L 28946280.00 31964722.94 L 28689131.00 32221871.00 L 28673280.00 32260142.41 L 28673280.00 35496624.86 L 28637280.00 35520680.00 A 127441.40 127441.40 0 1 0 28781520.00 35496624.86  z"/>
<path id="N" d="M 24158720.00 34506024.86 L 24158720.00 30844248.00 L 29475247.00 25527720.00 L 30061024.86 25527720.00 L 30085080.00 25563720.00 A 127441.40 127441.40 0 1 0 30085080.00 25383480.00 L 30061024.86 25419480.00 L 29452830.00 25419480.00 L 29414560.29 25435332.71 L 24066331.00 30783561.00 L 24050480.00 30821832.41 L 24050480.00 34506024.86 L 24014480.00 34530080.00 A 127441.40 127441.40 0 1 0 24158720.00 34506024.86  z"/>
<path id="N" d="M 40567120.00 34455224.86 L 40567120.00 33896175.14 L 40603120.00 33872120.00 A 127441.40 127441.40 0 1 0 40422880.00 33872120.00 L 40458880.00 33896175.14 L 40458880.00 34455224.86 L 40422880.00 34479280.00 A 127441.40 127441.40 0 1 0 40567120.00 34455224.86  z"/>
<path id="N" d="M 30750034.87 33085782.87 m -127457.60 0 a 127457.60 127457.60 0 1 1 254915.19 0a 127457.60 127457.60 0 1 1 -254915.19 0"/>
<path id="N" d="M 14198593.87 35458393.87 m -127457.60 0 a 127457.60 127457.60 0 1 1 254915.19 0a 127457.60 127457.60 0 1 1 -254915.19 0"/>
<path id="N" d="M 24661373.00 35467652.00 L 24638020.00 35463007.06 L 24638021.00 35333613.00 L 24622167.29 35295343.29 L 24513020.00 35186195.13 L 24513020.00 30716222.00 L 29466522.00 25762720.00 L 42123792.00 25762720.00 L 42133463.28 25772391.28 L 42131751.00 25781000.00 A 127441.40 127441.40 0 1 0 42210427.00 25663252.00 L 42190629.00 25676481.00 L 42184479.00 25670331.00 L 42146207.59 25654480.00 L 29444104.00 25654480.00 L 29405835.00 25670331.00 L 24420631.00 30655535.00 L 24404780.00 30693806.41 L 24404779.00 35208613.00 L 24420631.00 35246882.00 L 24529780.00 35356030.13 L 24529780.00 35490402.15 L 24522480.00 35495280.00 A 127441.40 127441.40 0 1 0 24661373.00 35467652.00  z"/>
<path id="N" d="M 21629320.00 35726320.00 L 21653375.14 35690320.00 L 21808994.00 35690321.00 L 21847263.00 35674469.00 L 21997169.00 35524563.00 L 22013020.00 35486294.00 L 22013020.00 32537400.00 L 29426499.00 25123920.00 L 35979224.86 25123920.00 L 36003280.00 25159920.00 A 127441.40 127441.40 0 1 0 36003280.00 24979680.00 L 35979224.86 25015680.00 L 29404082.00 25015680.00 L 29365812.29 25031532.71 L 21920631.00 32476713.00 L 21904780.00 32514984.41 L 21904780.00 35463876.00 L 21786576.00 35582080.00 L 21653375.14 35582080.00 L 21629320.00 35546080.00 A 127441.40 127441.40 0 1 0 21629320.00 35726320.00  z"/>
<path id="N" d="M 23842602.66 35568334.99 L 23992761.00 35418177.00 L 24008612.00 35379905.59 L 24008612.00 34802432.00 L 23992759.29 34764162.29 L 23923720.00 34695122.19 L 23923720.00 30852974.00 L 29483974.00 25292720.00 L 32770630.00 25292720.00 L 32820979.00 25343069.00 L 32859250.41 25358920.00 L 36190740.00 25358921.00 L 36229009.00 25343069.00 L 36279358.00 25292720.00 L 39794816.00 25292720.00 L 39889565.00 25387469.00 L 39927836.41 25403320.00 L 42735624.86 25403320.00 L 42759680.00 25439320.00 A 127441.40 127441.40 0 1 0 42759680.00 25259080.00 L 42735624.86 25295080.00 L 39950252.00 25295080.00 L 39855503.00 25200331.00 L 39817231.59 25184480.00 L 36256940.00 25184479.00 L 36218671.00 25200331.00 L 36168322.00 25250680.00 L 32881666.00 25250680.00 L 32831317.00 25200331.00 L 32793045.59 25184480.00 L 29461556.00 25184479.00 L 29423287.00 25200331.00 L 23831331.00 30792287.00 L 23815480.00 30830558.41 L 23815479.00 34717540.00 L 23831331.00 34755809.00 L 23900372.00 34824849.19 L 23900372.00 35357490.93 L 23766065.01 35491797.34 L 23723600.00 35483351.00 A 127441.40 127441.40 0 1 0 23842602.66 35568334.99  z"/>
<path id="N" d="M 21788070.00 25413920.00 L 21812125.14 25377920.00 L 23492143.00 25377921.00 L 23530412.00 25362069.00 L 23838069.00 25054412.00 L 23853920.00 25016140.59 L 23853920.00 24498175.14 L 23889920.00 24474120.00 A 127441.40 127441.40 0 1 0 23709680.00 24474120.00 L 23745680.00 24498175.14 L 23745680.00 24993725.95 L 23469725.05 25269680.00 L 21812125.14 25269680.00 L 21788070.00 25233680.00 A 127441.40 127441.40 0 1 0 21788070.00 25413920.00  z"/>
<path id="N" d="M 22825075.00 15808325.00 L 22234525.00 15808325.00 L 22234525.00 16398875.00 L 22825075.00 16398875.00 L 22825075.00 15808325.00  zM 22529800.44 16103598.65 m -180637.35 0 a 180637.35 180637.35 0 1 1 361274.69 0a 180637.35 180637.35 0 1 1 -361274.69 0"/>
<path id="N" d="M 32765993.87 34594793.87 m -127457.60 0 a 127457.60 127457.60 0 1 1 254915.19 0a 127457.60 127457.60 0 1 1 -254915.19 0"/>
<path id="N" d="M 24237943.87 21056593.87 m -127457.60 0 a 127457.60 127457.60 0 1 1 254915.19 0a 127457.60 127457.60 0 1 1 -254915.19 0"/>
<path id="N" d="M 33273993.87 35610793.87 m -127457.60 0 a 127457.60 127457.60 0 1 1 254915.19 0a 127457.60 127457.60 0 1 1 -254915.19 0"/>
<path id="N" d="M 24081108.87 23091749.87 m -127457.60 0 a 127457.60 127457.60 0 1 1 254915.19 0a 127457.60 127457.60 0 1 1 -254915.19 0"/>
<path id="N" d="M 36333480.00 28078480.00 L 36314503.16 28106880.00 L 32957422.00 28106880.00 L 32923673.00 28073131.00 L 32885401.59 28057280.00 L 29660775.14 28057280.00 L 29636720.00 28021280.00 A 127441.40 127441.40 0 1 0 29636720.00 28201520.00 L 29660775.14 28165520.00 L 32862986.00 28165520.00 L 32896735.00 28199269.00 L 32935006.41 28215120.00 L 36305403.88 28215120.00 A 124870.89 124870.89 0 1 0 36333480.00 28078480.00  z"/>
<path id="N" d="M 14687231.38 59475050.38 m -130459.26 0 a 130459.26 130459.26 0 1 1 260918.51 0a 130459.26 130459.26 0 1 1 -260918.51 0M 14687230.76 59475048.92 m -80284.08 0 a 80284.08 80284.08 0 1 1 160568.17 0a 80284.08 80284.08 0 1 1 -160568.17 0"/>
<path id="N" d="M 15691169.38 58943554.38 m -130459.26 0 a 130459.26 130459.26 0 1 1 260918.51 0a 130459.26 130459.26 0 1 1 -260918.51 0M 15691168.76 58943552.92 m -80284.08 0 a 80284.08 80284.08 0 1 1 160568.17 0a 80284.08 80284.08 0 1 1 -160568.17 0"/>
<path id="N" d="M 27633173.00 35493052.00 L 27624799.00 35491386.40 L 27624799.00 35335800.00 L 27608946.29 35297530.29 L 27513020.00 35201603.14 L 27513020.00 29073865.99 L 29456365.01 27130520.00 L 30112366.00 27130521.00 L 30150635.00 27114669.00 L 30242784.00 27022520.00 L 42935042.56 27022520.00 A 126162.96 126162.96 0 1 0 42962880.00 26884680.00 L 42943101.33 26914280.00 L 30220366.00 26914280.00 L 30182097.00 26930131.00 L 30089948.00 27022280.00 L 29433948.00 27022279.00 L 29395678.29 27038132.71 L 27420631.00 29013179.00 L 27404780.00 29051450.41 L 27404779.00 35224021.00 L 27420631.00 35262290.00 L 27516559.00 35358217.14 L 27516559.00 35505793.21 L 27494280.00 35520680.00 A 127441.40 127441.40 0 1 0 27633173.00 35493052.00  z"/>
<path id="N" d="M 35481773.00 33588052.00 L 35461720.00 33584063.44 L 35461720.00 30172217.99 L 37690617.01 27943320.00 L 41455782.09 27943320.00 L 41601880.00 28089417.09 L 41601880.00 28460824.86 L 41565880.00 28484880.00 A 127441.40 127441.40 0 1 0 41746120.00 28484880.00 L 41710120.00 28460824.86 L 41710120.00 28067000.00 L 41694267.29 28028730.29 L 41516469.00 27850931.00 L 41478197.59 27835080.00 L 37668200.00 27835080.00 L 37629930.29 27850932.71 L 35369331.00 30111531.00 L 35353480.00 30149802.41 L 35353480.00 33608597.10 L 35342880.00 33615680.00 A 127441.40 127441.40 0 1 0 35481773.00 33588052.00  z"/>
<path id="N" d="M 19337020.00 17399718.00 L 20421600.00 17399718.00 L 20499636.00 17384196.00 L 20565792.00 17339992.00 L 21507320.47 16398463.53 L 21529800.00 16401423.00 A 297823.01 297823.01 0 1 0 21242125.00 16026518.00 L 21232971.73 16096044.27 L 20337134.00 16991882.00 L 19337020.00 16991882.00 L 19337020.00 16959580.00 L 19152964.00 16959580.00 L 18635392.00 16442008.00 L 18569236.00 16397804.00 L 18491200.00 16382282.00 L 16433802.00 16382281.00 L 16355766.00 16397804.00 L 16289610.00 16442008.00 L 15772038.00 16959580.00 L 15587982.00 16959580.00 L 15587982.00 17432020.00 L 16060422.00 17432020.00 L 16060422.00 17247964.00 L 16518268.00 16790118.00 L 18406734.00 16790118.00 L 18864580.00 17247964.00 L 18864580.00 17432020.00 L 19337020.00 17432020.00 L 19337020.00 17399718.00  zM 15824204.38 17195794.09 m -140500.91 0 a 140500.91 140500.91 0 1 1 281001.82 0a 140500.91 140500.91 0 1 1 -281001.82 0M 19100802.38 17195794.09 m -140500.91 0 a 140500.91 140500.91 0 1 1 281001.82 0a 140500.91 140500.91 0 1 1 -281001.82 0M 21529800.44 16103598.65 m -180637.35 0 a 180637.35 180637.35 0 1 1 361274.69 0a 180637.35 180637.35 0 1 1 -361274.69 0"/>
<path id="N" d="M 39711680.00 32548880.00 L 39706802.15 32556180.00 L 39566917.22 32556180.00 L 39525720.00 32514982.22 L 39525720.00 28866975.14 L 39561720.00 28842920.00 A 127441.40 127441.40 0 1 0 39381480.00 28842920.00 L 39417480.00 28866975.14 L 39417479.00 32537400.00 L 39433331.00 32575669.00 L 39506231.00 32648569.00 L 39544500.00 32664420.00 L 39679407.06 32664420.00 L 39684052.00 32687773.00 A 127457.60 127457.60 0 1 0 39711680.00 32548880.00  z"/>
<path id="N" d="M 31216593.87 33223193.87 m -127457.60 0 a 127457.60 127457.60 0 1 1 254915.19 0a 127457.60 127457.60 0 1 1 -254915.19 0"/>
<path id="N" d="M 14935193.87 35178993.87 m -127457.60 0 a 127457.60 127457.60 0 1 1 254915.19 0a 127457.60 127457.60 0 1 1 -254915.19 0"/>
<path id="N" d="M 19611599.00 35496276.73 L 19611600.00 35335800.00 L 19595746.29 35297530.29 L 19513020.00 35214803.16 L 19513020.00 34132304.00 L 29512003.00 24133320.00 L 42380024.86 24133320.00 L 42404080.00 24169320.00 A 127441.40 127441.40 0 1 0 42404080.00 23989080.00 L 42380024.86 24025080.00 L 29489586.00 24025080.00 L 29451316.29 24040932.71 L 19420631.00 34071617.00 L 19404780.00 34109888.41 L 19404779.00 35237221.00 L 19420631.00 35275490.00 L 19503359.00 35358217.16 L 19503359.00 35496972.99 L 19467880.00 35520680.00 A 127441.40 127441.40 0 1 0 19611599.00 35496276.73  z"/>
<path id="N" d="M 28146520.00 34480624.86 L 28146520.00 28666640.00 L 29512266.00 27300894.00 L 30168266.00 27300895.00 L 30206535.00 27285043.00 L 30234058.00 27257520.00 L 35344224.86 27257520.00 L 35368280.00 27293520.00 A 127441.40 127441.40 0 1 0 35368280.00 27113280.00 L 35344224.86 27149280.00 L 30211640.00 27149280.00 L 30173371.00 27165131.00 L 30145848.00 27192654.00 L 29489848.00 27192653.00 L 29451579.00 27208505.00 L 28054131.00 28605953.00 L 28038280.00 28644224.41 L 28038280.00 34480624.86 L 28002280.00 34504680.00 A 127441.40 127441.40 0 1 0 28146520.00 34480624.86  z"/>
<path id="N" d="M 30022793.87 32613593.87 m -127457.60 0 a 127457.60 127457.60 0 1 1 254915.19 0a 127457.60 127457.60 0 1 1 -254915.19 0"/>
<path id="N" d="M 13258793.87 34543993.87 m -127457.60 0 a 127457.60 127457.60 0 1 1 254915.19 0a 127457.60 127457.60 0 1 1 -254915.19 0"/>
<path id="N" d="M 12598393.87 36220393.87 m -127457.60 0 a 127457.60 127457.60 0 1 1 254915.19 0a 127457.60 127457.60 0 1 1 -254915.19 0"/>
<path id="N" d="M 32969193.87 33807393.87 m -127457.60 0 a 127457.60 127457.60 0 1 1 254915.19 0a 127457.60 127457.60 0 1 1 -254915.19 0"/>
<path id="N" d="M 44296046.00 24540394.00 L 44320101.14 24504394.00 L 44967926.00 24504395.00 L 45006195.00 24488543.00 L 45351869.00 24142869.00 L 45367720.00 24104597.59 L 45367720.00 23698200.00 L 45351867.29 23659930.29 L 45021669.00 23329731.00 L 44983397.59 23313880.00 L 37438758.00 23313880.00 L 37422809.00 23297931.00 L 37384537.59 23282080.00 L 37189860.00 23282079.00 L 37151591.00 23297931.00 L 37135642.00 23313880.00 L 30797375.14 23313880.00 L 30773320.00 23277880.00 A 127441.40 127441.40 0 1 0 30773320.00 23458120.00 L 30797375.14 23422120.00 L 37158060.00 23422121.00 L 37196329.00 23406269.00 L 37212278.00 23390320.00 L 37362122.00 23390320.00 L 37378071.00 23406269.00 L 37416342.41 23422120.00 L 44960982.05 23422120.00 L 45259480.00 23720617.05 L 45259480.00 24082182.00 L 44945508.00 24396154.00 L 44320101.14 24396154.00 L 44296046.00 24360154.00 A 127441.40 127441.40 0 1 0 44296046.00 24540394.00  z"/>
<path id="N" d="M 39550482.00 34479986.86 L 39550482.00 33878929.97 L 40148791.03 33280620.00 L 40240202.15 33280620.00 L 40245080.00 33287920.00 A 127441.40 127441.40 0 1 0 40217452.00 33149027.00 L 40212807.06 33172380.00 L 40126374.00 33172379.00 L 40088104.29 33188232.71 L 39458093.00 33818243.00 L 39442242.00 33856514.41 L 39442242.00 34479986.86 L 39406242.00 34504042.00 A 127441.40 127441.40 0 1 0 39550482.00 34479986.86  z"/>
<path id="N" d="M 29700193.87 32265593.87 m -127457.60 0 a 127457.60 127457.60 0 1 1 254915.19 0a 127457.60 127457.60 0 1 1 -254915.19 0"/>
<path id="N" d="M 13004793.87 33908993.87 m -127457.60 0 a 127457.60 127457.60 0 1 1 254915.19 0a 127457.60 127457.60 0 1 1 -254915.19 0"/>
<path id="N" d="M 32502957.44 23853920.00 L 37174407.07 23853920.00 L 37189862.41 23860320.00 L 37384540.00 23860321.00 L 37399992.93 23853920.00 L 44860797.10 23853920.00 L 44867880.00 23864520.00 A 127441.40 127441.40 0 1 0 44840252.00 23725627.00 L 44836263.44 23745680.00 L 37390940.00 23745679.00 L 37375487.07 23752080.00 L 37198912.93 23752080.00 L 37183457.59 23745680.00 L 32494898.67 23745680.00 L 32475120.00 23716080.00 A 127441.40 127441.40 0 1 0 32502957.44 23853920.00  z"/>
<path id="N" d="M 27105120.00 34480624.86 L 27105120.00 29255492.00 L 29560292.00 26800320.00 L 29807024.86 26800320.00 L 29831080.00 26836320.00 A 127441.40 127441.40 0 1 0 29831080.00 26656080.00 L 29807024.86 26692080.00 L 29537874.00 26692079.00 L 29499605.00 26707931.00 L 27012731.00 29194805.00 L 26996880.00 29233076.41 L 26996880.00 34480624.86 L 26960880.00 34504680.00 A 127441.40 127441.40 0 1 0 27105120.00 34480624.86  z"/>
<path id="N" d="M 25123920.00 34455224.86 L 25123920.00 30331596.00 L 29532795.00 25922720.00 L 40284603.00 25922720.00 L 40391644.94 26029761.94 L 40385551.00 26060400.00 A 127441.40 127441.40 0 1 0 40464227.00 25942652.00 L 40460261.04 25945302.04 L 40345290.00 25830331.00 L 40307018.59 25814480.00 L 29510378.00 25814479.00 L 29472108.29 25830332.71 L 25031531.00 30270909.00 L 25015680.00 30309180.41 L 25015680.00 34455224.86 L 24979680.00 34479280.00 A 127441.40 127441.40 0 1 0 25123920.00 34455224.86  z"/>
<path id="N" d="M 12053520.00 36589920.00 L 12077575.14 36553920.00 L 14708740.00 36553921.00 L 14747009.00 36538069.00 L 19488421.28 31796656.72 L 19506130.00 31800179.00 A 127441.40 127441.40 0 1 0 19388382.00 31721503.00 L 19397240.98 31734761.02 L 14686322.00 36445680.00 L 12077575.14 36445680.00 L 12053520.00 36409680.00 A 127441.40 127441.40 0 1 0 12053520.00 36589920.00  z"/>
<path id="N" d="M 32842193.87 32359593.87 m -127457.60 0 a 127457.60 127457.60 0 1 1 254915.19 0a 127457.60 127457.60 0 1 1 -254915.19 0"/>
<path id="N" d="M 15076344.00 58826059.87 L 15076344.00 58323742.56 L 15101520.00 58306920.00 A 127441.40 127441.40 0 1 0 14921280.00 58306920.00 L 14946456.00 58323742.56 L 14946456.00 58840060.89 L 14929628.00 58851305.00 A 130461.68 130461.68 0 1 0 15076344.00 58826059.87  zM 15021876.76 58943552.92 m -80284.08 0 a 80284.08 80284.08 0 1 1 160568.17 0a 80284.08 80284.08 0 1 1 -160568.17 0"/>
<path id="N" d="M 14325597.35 30327593.57 m -297829.90 0 a 297829.90 297829.90 0 1 1 595659.80 0a 297829.90 297829.90 0 1 1 -595659.80 0M 14325600.44 30327598.65 m -180637.35 0 a 180637.35 180637.35 0 1 1 361274.69 0a 180637.35 180637.35 0 1 1 -361274.69 0"/>
<path id="N" d="M 15356523.38 59475050.38 m -130459.26 0 a 130459.26 130459.26 0 1 1 260918.51 0a 130459.26 130459.26 0 1 1 -260918.51 0M 15356522.76 59475048.92 m -80284.08 0 a 80284.08 80284.08 0 1 1 160568.17 0a 80284.08 80284.08 0 1 1 -160568.17 0"/>
<path id="N" d="M 36920120.00 33262520.00 L 36944175.14 33226520.00 L 39852972.00 33226521.00 L 39891241.00 33210669.00 L 40805269.00 32296641.00 L 40821120.00 32258369.59 L 40821120.00 28495817.95 L 41114063.05 28202874.00 L 41164536.03 28202874.00 L 41184880.00 28233320.00 A 127441.40 127441.40 0 1 0 41157210.83 28094634.00 L 41091646.00 28094633.00 L 41053376.29 28110486.71 L 40728731.00 28435131.00 L 40712880.00 28473402.41 L 40712880.00 32235954.98 L 39830554.02 33118280.00 L 36944175.14 33118280.00 L 36920120.00 33082280.00 A 127441.40 127441.40 0 1 0 36920120.00 33262520.00  z"/>
<path id="N" d="M 21161520.00 34480624.86 L 21161520.00 33162626.00 L 29435225.00 24888920.00 L 43313792.00 24888920.00 L 43384463.28 24959591.28 L 43382751.00 24968200.00 A 127441.40 127441.40 0 1 0 43461427.00 24850452.00 L 43441629.00 24863681.00 L 43374479.00 24796531.00 L 43336207.59 24780680.00 L 29412808.00 24780679.00 L 29374538.29 24796532.71 L 21069131.00 33101939.00 L 21053280.00 33140210.41 L 21053280.00 34480624.86 L 21017280.00 34504680.00 A 127441.40 127441.40 0 1 0 21161520.00 34480624.86  z"/>
<path id="N" d="M 14687231.38 58943554.38 m -130459.26 0 a 130459.26 130459.26 0 1 1 260918.51 0a 130459.26 130459.26 0 1 1 -260918.51 0M 14687230.76 58943552.92 m -80284.08 0 a 80284.08 80284.08 0 1 1 160568.17 0a 80284.08 80284.08 0 1 1 -160568.17 0"/>
<path id="N" d="M 18220690.00 59271852.00 L 18073544.00 59271852.00 L 18073544.00 59136542.56 L 18098720.00 59119720.00 A 127441.40 127441.40 0 1 0 17918480.00 59119720.00 L 17943656.00 59136542.56 L 17943656.00 59271852.00 L 17767934.00 59271852.00 L 17767934.00 59803348.00 L 18220690.00 59803348.00 L 18220690.00 59271852.00  z"/>
<path id="N" d="M 20120120.00 34480624.86 L 20120120.00 33751478.00 L 29465277.00 24406320.00 L 43620842.56 24406320.00 A 126162.96 126162.96 0 1 0 43648680.00 24268480.00 L 43628901.33 24298080.00 L 29442860.00 24298079.00 L 29404590.29 24313932.71 L 20027731.00 33690791.00 L 20011880.00 33729062.41 L 20011880.00 34480624.86 L 19975880.00 34504680.00 A 127441.40 127441.40 0 1 0 20120120.00 34480624.86  z"/>
<path id="N" d="M 39510920.00 33008520.00 L 39534975.14 32972520.00 L 39873904.00 32972521.00 L 39912173.00 32956669.00 L 40075069.00 32793773.00 L 40090920.00 32755501.59 L 40090920.00 28860800.00 L 40075069.00 28822531.00 L 40047802.72 28795264.72 L 40056249.00 28752800.00 A 127441.40 127441.40 0 1 0 39928800.00 28880249.00 L 39971264.72 28871802.72 L 39982680.00 28883218.00 L 39982680.00 32733086.90 L 39851486.10 32864280.00 L 39534975.14 32864280.00 L 39510920.00 32828280.00 A 127441.40 127441.40 0 1 0 39510920.00 33008520.00  z"/>
<path id="N" d="M 41080135.28 35517197.28 L 40950028.00 35387090.00 L 40950028.00 32874186.46 L 40954520.00 32863337.59 L 40954520.00 32705818.00 L 41099229.00 32561109.00 L 41115080.00 32522840.00 L 41115080.00 28852969.70 L 41130120.00 28842920.00 A 127441.40 127441.40 0 1 0 40991227.00 28870548.00 L 41006840.00 28873653.44 L 41006840.00 32500422.00 L 40862131.00 32645131.00 L 40846280.00 32683402.41 L 40846280.00 32856985.25 L 40841788.00 32867834.41 L 40841787.00 35409508.00 L 40857639.00 35447777.00 L 41003597.28 35593735.28 L 40995151.00 35636200.00 A 127441.40 127441.40 0 1 0 41080135.28 35517197.28  z"/>
<path id="N" d="M 12815226.00 40032918.86 L 12815226.00 38772513.00 L 20240818.00 31346920.00 L 20840824.86 31346920.00 L 20864880.00 31382920.00 A 127441.40 127441.40 0 1 0 20864880.00 31202680.00 L 20840824.86 31238680.00 L 20218401.00 31238679.00 L 20180131.29 31254532.71 L 12722837.00 38711826.00 L 12706986.00 38750097.41 L 12706986.00 40032918.86 L 12670986.00 40056974.00 A 127441.40 127441.40 0 1 0 12815226.00 40032918.86  z"/>
<path id="N" d="M 32410393.87 32334193.87 m -127457.60 0 a 127457.60 127457.60 0 1 1 254915.19 0a 127457.60 127457.60 0 1 1 -254915.19 0"/>
<path id="N" d="M 37401624.86 23034480.00 L 31178375.14 23034480.00 L 31154320.00 22998480.00 A 127441.40 127441.40 0 1 0 31154320.00 23178720.00 L 31178375.14 23142720.00 L 37401624.86 23142720.00 L 37425680.00 23178720.00 A 127441.40 127441.40 0 1 0 37401624.86 23034480.00  z"/>
<path id="N" d="M 36915452.00 25424827.00 L 36911204.87 25446180.00 L 31744995.13 25446180.00 L 31740748.00 25424827.00 A 127457.60 127457.60 0 1 0 31713120.00 25563720.00 L 31719334.25 25554420.00 L 36936865.75 25554420.00 L 36943080.00 25563720.00 A 127441.40 127441.40 0 1 0 36915452.00 25424827.00  z"/>
<path id="N" d="M 15142406.00 59425125.00 L 15136047.79 59415609.27 L 15351727.18 59073060.02 L 15356523.00 59074014.00 A 130461.68 130461.68 0 0 0 15448772.00 58851305.00 L 15421467.00 58833060.38 L 15421467.00 58364065.56 L 15446643.00 58347243.00 A 127441.40 127441.40 0 1 0 15266403.00 58347243.00 L 15291579.00 58364065.56 L 15291579.00 58833060.38 L 15264274.00 58851305.00 A 130461.68 130461.68 0 0 0 15235994.00 58993479.00 L 15242352.21 59002994.73 L 15026672.82 59345543.98 L 15021877.00 59344590.00 A 130461.68 130461.68 0 1 0 15142406.00 59425125.00  zM 15356522.76 58943552.92 m -80284.08 0 a 80284.08 80284.08 0 1 1 160568.17 0a 80284.08 80284.08 0 1 1 -160568.17 0M 15021876.76 59475048.92 m -80284.08 0 a 80284.08 80284.08 0 1 1 160568.17 0a 80284.08 80284.08 0 1 1 -160568.17 0"/>
<path id="N" d="M 14620875.00 31032325.00 L 14030325.00 31032325.00 L 14030325.00 31622875.00 L 14620875.00 31622875.00 L 14620875.00 31032325.00  zM 14325600.44 31327598.65 m -180637.35 0 a 180637.35 180637.35 0 1 1 361274.69 0a 180637.35 180637.35 0 1 1 -361274.69 0"/>
<path id="N" d="M 25670389.00 35500036.00 L 25647036.00 35495391.06 L 25647036.00 35342921.00 L 25631183.29 35304651.29 L 25513020.00 35186487.12 L 25513020.00 30168770.00 L 29599069.00 26082720.00 L 37613982.00 26082720.00 L 37701597.28 26170335.28 L 37693151.00 26212800.00 A 127441.40 127441.40 0 1 0 37820600.00 26085351.00 L 37778135.28 26093797.28 L 37674669.00 25990331.00 L 37636397.59 25974480.00 L 29576652.00 25974479.00 L 29538382.29 25990332.71 L 25420631.00 30108083.00 L 25404780.00 30146354.41 L 25404779.00 35208905.00 L 25420631.00 35247174.00 L 25538796.00 35365338.12 L 25538796.00 35522786.15 L 25531496.00 35527664.00 A 127441.40 127441.40 0 1 0 25670389.00 35500036.00  z"/>
<path id="N" d="M 36665024.86 27733480.00 L 33184975.14 27733480.00 L 33160920.00 27697480.00 A 127441.40 127441.40 0 1 0 33160920.00 27877720.00 L 33184975.14 27841720.00 L 36665024.86 27841720.00 L 36689080.00 27877720.00 A 127441.40 127441.40 0 1 0 36665024.86 27733480.00  z"/>
<path id="N" d="M 31165793.87 34118593.87 m -127457.60 0 a 127457.60 127457.60 0 1 1 254915.19 0a 127457.60 127457.60 0 1 1 -254915.19 0"/>
<path id="N" d="M 14096993.87 36017193.87 m -127457.60 0 a 127457.60 127457.60 0 1 1 254915.19 0a 127457.60 127457.60 0 1 1 -254915.19 0"/>
<path id="N" d="M 19104120.00 34455224.86 L 19104120.00 34314930.00 L 29565129.00 23853920.00 L 30316862.86 23853920.00 L 30340918.00 23889920.00 A 127441.40 127441.40 0 1 0 30340918.00 23709680.00 L 30316862.86 23745680.00 L 29542712.00 23745679.00 L 29504442.29 23761532.71 L 19011731.00 34254243.00 L 18995880.00 34292514.41 L 18995880.00 34455224.86 L 18959880.00 34479280.00 A 127441.40 127441.40 0 1 0 19104120.00 34455224.86  z"/>
<path id="N" d="M 26571720.00 35496624.86 L 26571720.00 35316121.00 L 26555867.29 35277851.29 L 26513020.00 35235003.27 L 26513020.00 29621317.99 L 29569017.01 26565320.00 L 41766642.56 26565320.00 A 126162.96 126162.96 0 1 0 41794480.00 26427480.00 L 41774701.33 26457080.00 L 29546600.00 26457080.00 L 29508330.29 26472932.71 L 26420631.00 29560631.00 L 26404780.00 29598902.41 L 26404779.00 35257421.00 L 26420631.00 35295690.00 L 26463480.00 35338538.27 L 26463480.00 35496624.86 L 26427480.00 35520680.00 A 127441.40 127441.40 0 1 0 26571720.00 35496624.86  z"/>
<path id="N" d="M 35171807.00 33892852.00 L 35166502.00 33891796.83 L 35166502.00 28387179.00 L 35150649.29 28348909.29 L 35084472.00 28282731.00 L 35046200.59 28266880.00 L 31948802.90 28266880.00 L 31941720.00 28256280.00 A 127441.40 127441.40 0 1 0 31969348.00 28395173.00 L 31973336.56 28375120.00 L 35023785.24 28375120.00 L 35058262.00 28409596.24 L 35058262.00 33903542.51 L 35032914.00 33920480.00 A 127441.40 127441.40 0 1 0 35171807.00 33892852.00  z"/>
<path id="N" d="M 26089120.00 34480624.86 L 26089120.00 29818944.00 L 29590344.00 26317720.00 L 32093024.86 26317720.00 L 32117080.00 26353720.00 A 127441.40 127441.40 0 1 0 32117080.00 26173480.00 L 32093024.86 26209480.00 L 29567926.00 26209479.00 L 29529657.00 26225331.00 L 25996731.00 29758257.00 L 25980880.00 29796528.41 L 25980880.00 34480624.86 L 25944880.00 34504680.00 A 127441.40 127441.40 0 1 0 26089120.00 34480624.86  z"/>
<path id="N" d="M 23254920.00 20587920.00 L 23278975.14 20551920.00 L 23802782.00 20551920.00 L 23812331.00 20561469.00 L 23850602.41 20577320.00 L 25317221.00 20577321.00 L 25355490.00 20561469.00 L 25358180.16 20558778.84 L 25360680.00 20562520.00 A 127441.40 127441.40 0 1 0 25333052.00 20423627.00 L 25327427.20 20451906.41 L 25301052.00 20462831.00 L 25294803.00 20469080.00 L 23873018.00 20469080.00 L 23863469.00 20459531.00 L 23825197.59 20443680.00 L 23278975.14 20443680.00 L 23254920.00 20407680.00 A 127441.40 127441.40 0 1 0 23254920.00 20587920.00  z"/>
</g>
</svg>
