<svg width="99.00000012mm" height="119.08716594mm" viewBox="0 0 38976378 46884711"  version="1.1" xmlns="http://www.w3.org/2000/svg" xmlns:xlink="http://www.w3.org/1999/xlink">
<desc>
Origin 0 0 Bound 10687011 14338257 38976378 46884711
</desc>
<g fill-rule="evenodd" fill="rgb(255, 0, 255)" stroke="black" stroke-width="1" transform="translate(0, 46884711) scale(1, -1) translate(-10687011, -14338257)">
<path id="N" d="M 20529530.00 60335658.00 L 20529531.00 59354371.00 A 989040.26 989040.26 0 0 0 19642219.00 58467060.00 L 16986224.00 58467059.00 L 16889750.00 58462319.00 A 984244.34 984244.34 0 0 1 16001972.00 57482808.00 L 16001973.00 36976052.00 L 16006712.00 36879578.00 A 984244.34 984244.34 0 0 1 16986224.00 35991800.00 L 43364176.00 35991801.00 L 43460649.00 35996540.00 A 984244.34 984244.34 0 0 1 44348428.00 36976052.00 L 44348428.00 59332834.00 A 989014.36 989014.36 0 0 0 45235739.00 60220146.00 L 48776077.00 60220146.00 A 989040.26 989040.26 0 0 0 49663389.00 59332834.00 L 49663388.00 34933107.00 A 989002.09 989002.09 0 0 0 49443654.00 34402624.00 L 47401446.00 32360414.00 L 47336581.00 32288846.00 A 984241.09 984241.09 0 0 1 47113167.00 31664444.00 L 47113167.00 14338257.00 L 13237233.00 14338257.00 L 13237233.00 31664445.00 L 13232493.00 31760918.00 A 984241.79 984241.79 0 0 1 12948952.00 32360416.00 L 10906744.00 34402623.00 A 989019.94 989019.94 0 0 0 10687011.00 34933107.00 L 10687011.00 59332834.00 A 989014.36 989014.36 0 0 0 11574322.00 60220146.00 L 11671263.00 60220146.00 L 13442917.00 61222968.00 L 19642219.00 61222968.00 A 989027.50 989027.50 0 0 0 20529530.00 60335658.00  zM 13792200.65 16408396.97 m -168236.03 0 a 168236.03 168236.03 0 1 1 336472.07 0a 168236.03 168236.03 0 1 1 -336472.07 0M 14786071.65 17453067.97 m -168236.03 0 a 168236.03 168236.03 0 1 1 336472.07 0a 168236.03 168236.03 0 1 1 -336472.07 0M 13716000.65 18389596.97 m -168236.03 0 a 168236.03 168236.03 0 1 1 336472.07 0a 168236.03 168236.03 0 1 1 -336472.07 0M 14859000.65 19253196.97 m -168236.03 0 a 168236.03 168236.03 0 1 1 336472.07 0a 168236.03 168236.03 0 1 1 -336472.07 0M 17462496.36 17017381.49 m -278589.51 0 a 278589.51 278589.51 0 1 1 557179.03 0a 278589.51 278589.51 0 1 1 -557179.03 0M 18526121.00 17293588.00 L 17973681.00 17293588.00 L 17973681.00 16741148.00 L 18526121.00 16741148.00 L 18526121.00 17293588.00  zM 19939948.00 18997290.00 L 19328452.00 18997290.00 L 19328452.00 18464534.00 L 19939948.00 18464534.00 L 19939948.00 18997290.00  zM 20754017.00 18677250.00 L 20319687.00 18677250.00 L 20319687.00 18203550.00 L 20754017.00 18203550.00 L 20754017.00 18677250.00  zM 21218700.00 19536600.00 L 20843700.00 19536600.00 L 20843700.00 19296600.00 L 21218700.00 19296600.00 L 21218700.00 19536600.00  zM 19939948.00 19686266.00 L 19328452.00 19686266.00 L 19328452.00 19153510.00 L 19939948.00 19153510.00 L 19939948.00 19686266.00  zM 20041548.00 21156290.00 L 19430052.00 21156290.00 L 19430052.00 20623534.00 L 20041548.00 20623534.00 L 20041548.00 21156290.00  zM 20041548.00 21845266.00 L 19430052.00 21845266.00 L 19430052.00 21312510.00 L 20041548.00 21312510.00 L 20041548.00 21845266.00  zM 21285513.00 18677250.00 L 20851183.00 18677250.00 L 20851183.00 18203550.00 L 21285513.00 18203550.00 L 21285513.00 18677250.00  zM 21218700.00 19906600.00 L 20843700.00 19906600.00 L 20843700.00 19666600.00 L 21218700.00 19666600.00 L 21218700.00 19906600.00  zM 22303700.00 19906600.00 L 21928700.00 19906600.00 L 21928700.00 19666600.00 L 22303700.00 19666600.00 L 22303700.00 19906600.00  zM 22303700.00 19536600.00 L 21928700.00 19536600.00 L 21928700.00 19296600.00 L 22303700.00 19296600.00 L 22303700.00 19536600.00  zM 22995250.00 19585617.00 L 22521550.00 19585617.00 L 22521550.00 19151287.00 L 22995250.00 19151287.00 L 22995250.00 19585617.00  zM 23604850.00 19585617.00 L 23131150.00 19585617.00 L 23131150.00 19151287.00 L 23604850.00 19151287.00 L 23604850.00 19585617.00  zM 21218700.00 20276600.00 L 20843700.00 20276600.00 L 20843700.00 20036600.00 L 21218700.00 20036600.00 L 21218700.00 20276600.00  zM 22303700.00 20276600.00 L 21928700.00 20276600.00 L 21928700.00 20036600.00 L 22303700.00 20036600.00 L 22303700.00 20276600.00  zM 22995250.00 20117113.00 L 22521550.00 20117113.00 L 22521550.00 19682783.00 L 22995250.00 19682783.00 L 22995250.00 20117113.00  zM 23474998.00 22843491.00 L 23089172.00 22843491.00 L 23089172.00 21504909.00 L 23474998.00 21504909.00 L 23474998.00 22843491.00  zM 22541928.00 22843491.00 L 22156102.00 22843491.00 L 22156102.00 21504909.00 L 22541928.00 21504909.00 L 22541928.00 22843491.00  zM 17145002.00 24145993.05 m -338174.95 0 a 338174.95 338174.95 0 1 1 676349.89 0a 338174.95 338174.95 0 1 1 -676349.89 0M 17480275.00 25481275.00 L 16809725.00 25481275.00 L 16809725.00 24810725.00 L 17480275.00 24810725.00 L 17480275.00 25481275.00  zM 22435181.00 24163206.00 L 20859119.00 24163206.00 L 20859119.00 23283994.00 L 22435181.00 23283994.00 L 22435181.00 24163206.00  zM 22191657.00 26256293.00 L 21855751.00 26256293.00 L 21855751.00 25762907.00 L 22191657.00 25762907.00 L 22191657.00 26256293.00  zM 22191657.00 26916693.00 L 21855751.00 26916693.00 L 21855751.00 26423307.00 L 22191657.00 26423307.00 L 22191657.00 26916693.00  zM 22191657.00 27577093.00 L 21855751.00 27577093.00 L 21855751.00 27083707.00 L 22191657.00 27083707.00 L 22191657.00 27577093.00  zM 22426916.00 24770710.00 L 21953216.00 24770710.00 L 21953216.00 24454490.00 L 22426916.00 24454490.00 L 22426916.00 24770710.00  zM 22426916.00 25144726.00 L 21953216.00 25144726.00 L 21953216.00 24828506.00 L 22426916.00 24828506.00 L 22426916.00 25144726.00  zM 22426916.00 25518741.00 L 21953216.00 25518741.00 L 21953216.00 25202521.00 L 22426916.00 25202521.00 L 22426916.00 25518741.00  zM 22860948.00 26256293.00 L 22525042.00 26256293.00 L 22525042.00 25762907.00 L 22860948.00 25762907.00 L 22860948.00 26256293.00  zM 22860948.00 27577093.00 L 22525042.00 27577093.00 L 22525042.00 27083707.00 L 22860948.00 27083707.00 L 22860948.00 27577093.00  zM 22191657.00 28237493.00 L 21855751.00 28237493.00 L 21855751.00 27744107.00 L 22191657.00 27744107.00 L 22191657.00 28237493.00  zM 22970167.00 23655650.00 L 22535837.00 23655650.00 L 22535837.00 23181950.00 L 22970167.00 23181950.00 L 22970167.00 23655650.00  zM 23501663.00 23655650.00 L 23067333.00 23655650.00 L 23067333.00 23181950.00 L 23501663.00 23181950.00 L 23501663.00 23655650.00  zM 23501663.00 24239850.00 L 23067333.00 24239850.00 L 23067333.00 23766150.00 L 23501663.00 23766150.00 L 23501663.00 24239850.00  zM 22970167.00 24239850.00 L 22535837.00 24239850.00 L 22535837.00 23766150.00 L 22970167.00 23766150.00 L 22970167.00 24239850.00  zM 23509593.00 24770710.00 L 23035893.00 24770710.00 L 23035893.00 24454490.00 L 23509593.00 24454490.00 L 23509593.00 24770710.00  zM 23509593.00 25144726.00 L 23035893.00 25144726.00 L 23035893.00 24828506.00 L 23509593.00 24828506.00 L 23509593.00 25144726.00  zM 23509593.00 25518741.00 L 23035893.00 25518741.00 L 23035893.00 25202521.00 L 23509593.00 25202521.00 L 23509593.00 25518741.00  zM 23478168.00 26236608.00 L 23063522.00 26236608.00 L 23063522.00 25782592.00 L 23478168.00 25782592.00 L 23478168.00 26236608.00  zM 23360058.00 26916693.00 L 23024152.00 26916693.00 L 23024152.00 26423307.00 L 23360058.00 26423307.00 L 23360058.00 26916693.00  zM 22860948.00 26916693.00 L 22525042.00 26916693.00 L 22525042.00 26423307.00 L 22860948.00 26423307.00 L 22860948.00 26916693.00  zM 22860948.00 28237493.00 L 22525042.00 28237493.00 L 22525042.00 27744107.00 L 22860948.00 27744107.00 L 22860948.00 28237493.00  zM 24269696.36 17042781.49 m -278589.51 0 a 278589.51 278589.51 0 1 1 557179.03 0a 278589.51 278589.51 0 1 1 -557179.03 0M 25333321.00 17318988.00 L 24780881.00 17318988.00 L 24780881.00 16766548.00 L 25333321.00 16766548.00 L 25333321.00 17318988.00  zM 31034650.00 17247016.00 L 30856226.00 17247016.00 L 30856226.00 16379614.00 L 31034650.00 16379614.00 L 31034650.00 17247016.00  zM 31231501.00 17247016.00 L 31053077.00 17247016.00 L 31053077.00 16379614.00 L 31231501.00 16379614.00 L 31231501.00 17247016.00  zM 31231501.00 18979300.00 L 31053077.00 18979300.00 L 31053077.00 18111898.00 L 31231501.00 18111898.00 L 31231501.00 18979300.00  zM 31034650.00 18979300.00 L 30856226.00 18979300.00 L 30856226.00 18111898.00 L 31034650.00 18111898.00 L 31034650.00 18979300.00  zM 31822052.00 17247016.00 L 31643628.00 17247016.00 L 31643628.00 16379614.00 L 31822052.00 16379614.00 L 31822052.00 17247016.00  zM 31625201.00 17247016.00 L 31446777.00 17247016.00 L 31446777.00 16379614.00 L 31625201.00 16379614.00 L 31625201.00 17247016.00  zM 32018902.00 17247016.00 L 31840478.00 17247016.00 L 31840478.00 16379614.00 L 32018902.00 16379614.00 L 32018902.00 17247016.00  zM 31428351.00 17247016.00 L 31249927.00 17247016.00 L 31249927.00 16379614.00 L 31428351.00 16379614.00 L 31428351.00 17247016.00  zM 31428351.00 18979300.00 L 31249927.00 18979300.00 L 31249927.00 18111898.00 L 31428351.00 18111898.00 L 31428351.00 18979300.00  zM 31822052.00 18979300.00 L 31643628.00 18979300.00 L 31643628.00 18111898.00 L 31822052.00 18111898.00 L 31822052.00 18979300.00  zM 32412603.00 17247016.00 L 32234179.00 17247016.00 L 32234179.00 16379614.00 L 32412603.00 16379614.00 L 32412603.00 17247016.00  zM 32215753.00 17247016.00 L 32037329.00 17247016.00 L 32037329.00 16379614.00 L 32215753.00 16379614.00 L 32215753.00 17247016.00  zM 32609453.00 17247016.00 L 32431029.00 17247016.00 L 32431029.00 16379614.00 L 32609453.00 16379614.00 L 32609453.00 17247016.00  zM 33003154.00 17247016.00 L 32824730.00 17247016.00 L 32824730.00 16379614.00 L 33003154.00 16379614.00 L 33003154.00 17247016.00  zM 32806304.00 17247016.00 L 32627880.00 17247016.00 L 32627880.00 16379614.00 L 32806304.00 16379614.00 L 32806304.00 17247016.00  zM 33200005.00 17247016.00 L 33021581.00 17247016.00 L 33021581.00 16379614.00 L 33200005.00 16379614.00 L 33200005.00 17247016.00  zM 33396855.00 17247016.00 L 33218431.00 17247016.00 L 33218431.00 16379614.00 L 33396855.00 16379614.00 L 33396855.00 17247016.00  zM 33396855.00 18979300.00 L 33218431.00 18979300.00 L 33218431.00 18111898.00 L 33396855.00 18111898.00 L 33396855.00 18979300.00  zM 32412603.00 18979300.00 L 32234179.00 18979300.00 L 32234179.00 18111898.00 L 32412603.00 18111898.00 L 32412603.00 18979300.00  zM 32806304.00 18979300.00 L 32627880.00 18979300.00 L 32627880.00 18111898.00 L 32806304.00 18111898.00 L 32806304.00 18979300.00  zM 32215753.00 18979300.00 L 32037329.00 18979300.00 L 32037329.00 18111898.00 L 32215753.00 18111898.00 L 32215753.00 18979300.00  zM 23604850.00 20117113.00 L 23131150.00 20117113.00 L 23131150.00 19682783.00 L 23604850.00 19682783.00 L 23604850.00 20117113.00  zM 24677556.00 22962231.00 L 23798344.00 22962231.00 L 23798344.00 21386169.00 L 24677556.00 21386169.00 L 24677556.00 22962231.00  zM 24083958.00 25097417.00 L 23629942.00 25097417.00 L 23629942.00 24682771.00 L 24083958.00 24682771.00 L 24083958.00 25097417.00  zM 24083958.00 25609228.00 L 23629942.00 25609228.00 L 23629942.00 25194582.00 L 24083958.00 25194582.00 L 24083958.00 25609228.00  zM 25058556.00 26365831.00 L 24179344.00 26365831.00 L 24179344.00 24789769.00 L 25058556.00 24789769.00 L 25058556.00 26365831.00  zM 23989979.00 26236608.00 L 23575333.00 26236608.00 L 23575333.00 25782592.00 L 23989979.00 25782592.00 L 23989979.00 26236608.00  zM 31625201.00 18979300.00 L 31446777.00 18979300.00 L 31446777.00 18111898.00 L 31625201.00 18111898.00 L 31625201.00 18979300.00  zM 32018902.00 18979300.00 L 31840478.00 18979300.00 L 31840478.00 18111898.00 L 32018902.00 18111898.00 L 32018902.00 18979300.00  zM 32609453.00 18979300.00 L 32431029.00 18979300.00 L 32431029.00 18111898.00 L 32609453.00 18111898.00 L 32609453.00 18979300.00  zM 33003154.00 18979300.00 L 32824730.00 18979300.00 L 32824730.00 18111898.00 L 33003154.00 18111898.00 L 33003154.00 18979300.00  zM 33200005.00 18979300.00 L 33021581.00 18979300.00 L 33021581.00 18111898.00 L 33200005.00 18111898.00 L 33200005.00 18979300.00  zM 24029349.00 26916693.00 L 23693443.00 26916693.00 L 23693443.00 26423307.00 L 24029349.00 26423307.00 L 24029349.00 26916693.00  zM 23915556.00 28677231.00 L 23036344.00 28677231.00 L 23036344.00 27101169.00 L 23915556.00 27101169.00 L 23915556.00 28677231.00  zM 31822052.00 31420244.00 L 31643628.00 31420244.00 L 31643628.00 30552842.00 L 31822052.00 30552842.00 L 31822052.00 31420244.00  zM 32215753.00 31420244.00 L 32037329.00 31420244.00 L 32037329.00 30552842.00 L 32215753.00 30552842.00 L 32215753.00 31420244.00  zM 32018902.00 31420244.00 L 31840478.00 31420244.00 L 31840478.00 30552842.00 L 32018902.00 30552842.00 L 32018902.00 31420244.00  zM 32412603.00 31420244.00 L 32234179.00 31420244.00 L 32234179.00 30552842.00 L 32412603.00 30552842.00 L 32412603.00 31420244.00  zM 32609454.00 31420244.00 L 32431030.00 31420244.00 L 32431030.00 30552842.00 L 32609454.00 30552842.00 L 32609454.00 31420244.00  zM 32806304.00 31420244.00 L 32627880.00 31420244.00 L 32627880.00 30552842.00 L 32806304.00 30552842.00 L 32806304.00 31420244.00  zM 33003154.00 31420244.00 L 32824730.00 31420244.00 L 32824730.00 30552842.00 L 33003154.00 30552842.00 L 33003154.00 31420244.00  zM 33200005.00 31420244.00 L 33021581.00 31420244.00 L 33021581.00 30552842.00 L 33200005.00 30552842.00 L 33200005.00 31420244.00  zM 33396855.00 31420244.00 L 33218431.00 31420244.00 L 33218431.00 30552842.00 L 33396855.00 30552842.00 L 33396855.00 31420244.00  zM 34184257.00 17247016.00 L 34005833.00 17247016.00 L 34005833.00 16379614.00 L 34184257.00 16379614.00 L 34184257.00 17247016.00  zM 33790556.00 17247016.00 L 33612132.00 17247016.00 L 33612132.00 16379614.00 L 33790556.00 16379614.00 L 33790556.00 17247016.00  zM 34381107.00 17247016.00 L 34202683.00 17247016.00 L 34202683.00 16379614.00 L 34381107.00 16379614.00 L 34381107.00 17247016.00  zM 34774808.00 17247016.00 L 34596384.00 17247016.00 L 34596384.00 16379614.00 L 34774808.00 16379614.00 L 34774808.00 17247016.00  zM 34577957.00 17247016.00 L 34399533.00 17247016.00 L 34399533.00 16379614.00 L 34577957.00 16379614.00 L 34577957.00 17247016.00  zM 35168509.00 17247016.00 L 34990085.00 17247016.00 L 34990085.00 16379614.00 L 35168509.00 16379614.00 L 35168509.00 17247016.00  zM 33593705.00 17247016.00 L 33415281.00 17247016.00 L 33415281.00 16379614.00 L 33593705.00 16379614.00 L 33593705.00 17247016.00  zM 33987406.00 17247016.00 L 33808982.00 17247016.00 L 33808982.00 16379614.00 L 33987406.00 16379614.00 L 33987406.00 17247016.00  zM 35365359.00 17247016.00 L 35186935.00 17247016.00 L 35186935.00 16379614.00 L 35365359.00 16379614.00 L 35365359.00 17247016.00  zM 34971658.00 17247016.00 L 34793234.00 17247016.00 L 34793234.00 16379614.00 L 34971658.00 16379614.00 L 34971658.00 17247016.00  zM 35168509.00 18979300.00 L 34990085.00 18979300.00 L 34990085.00 18111898.00 L 35168509.00 18111898.00 L 35168509.00 18979300.00  zM 35365359.00 18979300.00 L 35186935.00 18979300.00 L 35186935.00 18111898.00 L 35365359.00 18111898.00 L 35365359.00 18979300.00  zM 35759060.00 17247016.00 L 35580636.00 17247016.00 L 35580636.00 16379614.00 L 35759060.00 16379614.00 L 35759060.00 17247016.00  zM 35562209.00 17247016.00 L 35383785.00 17247016.00 L 35383785.00 16379614.00 L 35562209.00 16379614.00 L 35562209.00 17247016.00  zM 35562209.00 18979300.00 L 35383785.00 18979300.00 L 35383785.00 18111898.00 L 35562209.00 18111898.00 L 35562209.00 18979300.00  zM 35759060.00 18979300.00 L 35580636.00 18979300.00 L 35580636.00 18111898.00 L 35759060.00 18111898.00 L 35759060.00 18979300.00  zM 39499217.00 17247016.00 L 39320793.00 17247016.00 L 39320793.00 16379614.00 L 39499217.00 16379614.00 L 39499217.00 17247016.00  zM 39696068.00 17247016.00 L 39517644.00 17247016.00 L 39517644.00 16379614.00 L 39696068.00 16379614.00 L 39696068.00 17247016.00  zM 40089768.00 17247016.00 L 39911344.00 17247016.00 L 39911344.00 16379614.00 L 40089768.00 16379614.00 L 40089768.00 17247016.00  zM 39892918.00 17247016.00 L 39714494.00 17247016.00 L 39714494.00 16379614.00 L 39892918.00 16379614.00 L 39892918.00 17247016.00  zM 40286619.00 17247016.00 L 40108195.00 17247016.00 L 40108195.00 16379614.00 L 40286619.00 16379614.00 L 40286619.00 17247016.00  zM 40680320.00 17247016.00 L 40501896.00 17247016.00 L 40501896.00 16379614.00 L 40680320.00 16379614.00 L 40680320.00 17247016.00  zM 40483469.00 17247016.00 L 40305045.00 17247016.00 L 40305045.00 16379614.00 L 40483469.00 16379614.00 L 40483469.00 17247016.00  zM 33790556.00 18979300.00 L 33612132.00 18979300.00 L 33612132.00 18111898.00 L 33790556.00 18111898.00 L 33790556.00 18979300.00  zM 33593705.00 18979300.00 L 33415281.00 18979300.00 L 33415281.00 18111898.00 L 33593705.00 18111898.00 L 33593705.00 18979300.00  zM 33987406.00 18979300.00 L 33808982.00 18979300.00 L 33808982.00 18111898.00 L 33987406.00 18111898.00 L 33987406.00 18979300.00  zM 34381107.00 18979300.00 L 34202683.00 18979300.00 L 34202683.00 18111898.00 L 34381107.00 18111898.00 L 34381107.00 18979300.00  zM 34184257.00 18979300.00 L 34005833.00 18979300.00 L 34005833.00 18111898.00 L 34184257.00 18111898.00 L 34184257.00 18979300.00  zM 34577957.00 18979300.00 L 34399533.00 18979300.00 L 34399533.00 18111898.00 L 34577957.00 18111898.00 L 34577957.00 18979300.00  zM 39696068.00 18979300.00 L 39517644.00 18979300.00 L 39517644.00 18111898.00 L 39696068.00 18111898.00 L 39696068.00 18979300.00  zM 39499217.00 18979300.00 L 39320793.00 18979300.00 L 39320793.00 18111898.00 L 39499217.00 18111898.00 L 39499217.00 18979300.00  zM 39892918.00 18979300.00 L 39714494.00 18979300.00 L 39714494.00 18111898.00 L 39892918.00 18111898.00 L 39892918.00 18979300.00  zM 40483469.00 18979300.00 L 40305045.00 18979300.00 L 40305045.00 18111898.00 L 40483469.00 18111898.00 L 40483469.00 18979300.00  zM 40680320.00 18979300.00 L 40501896.00 18979300.00 L 40501896.00 18111898.00 L 40680320.00 18111898.00 L 40680320.00 18979300.00  zM 34774808.00 18979300.00 L 34596384.00 18979300.00 L 34596384.00 18111898.00 L 34774808.00 18111898.00 L 34774808.00 18979300.00  zM 34971658.00 18979300.00 L 34793234.00 18979300.00 L 34793234.00 18111898.00 L 34971658.00 18111898.00 L 34971658.00 18979300.00  zM 40286619.00 18979300.00 L 40108195.00 18979300.00 L 40108195.00 18111898.00 L 40286619.00 18111898.00 L 40286619.00 18979300.00  zM 40089768.00 18979300.00 L 39911344.00 18979300.00 L 39911344.00 18111898.00 L 40089768.00 18111898.00 L 40089768.00 18979300.00  zM 33987406.00 31420244.00 L 33808982.00 31420244.00 L 33808982.00 30552842.00 L 33987406.00 30552842.00 L 33987406.00 31420244.00  zM 40089768.00 31420244.00 L 39911344.00 31420244.00 L 39911344.00 30552842.00 L 40089768.00 30552842.00 L 40089768.00 31420244.00  zM 33593706.00 31420244.00 L 33415282.00 31420244.00 L 33415282.00 30552842.00 L 33593706.00 30552842.00 L 33593706.00 31420244.00  zM 33790556.00 31420244.00 L 33612132.00 31420244.00 L 33612132.00 30552842.00 L 33790556.00 30552842.00 L 33790556.00 31420244.00  zM 39499217.00 31420244.00 L 39320793.00 31420244.00 L 39320793.00 30552842.00 L 39499217.00 30552842.00 L 39499217.00 31420244.00  zM 39696068.00 31420244.00 L 39517644.00 31420244.00 L 39517644.00 30552842.00 L 39696068.00 30552842.00 L 39696068.00 31420244.00  zM 40483469.00 31420244.00 L 40305045.00 31420244.00 L 40305045.00 30552842.00 L 40483469.00 30552842.00 L 40483469.00 31420244.00  zM 41074020.00 17247016.00 L 40895596.00 17247016.00 L 40895596.00 16379614.00 L 41074020.00 16379614.00 L 41074020.00 17247016.00  zM 40877170.00 17247016.00 L 40698746.00 17247016.00 L 40698746.00 16379614.00 L 40877170.00 16379614.00 L 40877170.00 17247016.00  zM 41270871.00 17247016.00 L 41092447.00 17247016.00 L 41092447.00 16379614.00 L 41270871.00 16379614.00 L 41270871.00 17247016.00  zM 42058272.00 17247016.00 L 41879848.00 17247016.00 L 41879848.00 16379614.00 L 42058272.00 16379614.00 L 42058272.00 17247016.00  zM 41861422.00 17247016.00 L 41682998.00 17247016.00 L 41682998.00 16379614.00 L 41861422.00 16379614.00 L 41861422.00 17247016.00  zM 42255123.00 17247016.00 L 42076699.00 17247016.00 L 42076699.00 16379614.00 L 42255123.00 16379614.00 L 42255123.00 17247016.00  zM 41467721.00 17247016.00 L 41289297.00 17247016.00 L 41289297.00 16379614.00 L 41467721.00 16379614.00 L 41467721.00 17247016.00  zM 41664572.00 17247016.00 L 41486148.00 17247016.00 L 41486148.00 16379614.00 L 41664572.00 16379614.00 L 41664572.00 17247016.00  zM 42451973.00 17247016.00 L 42273549.00 17247016.00 L 42273549.00 16379614.00 L 42451973.00 16379614.00 L 42451973.00 17247016.00  zM 41074020.00 18979300.00 L 40895596.00 18979300.00 L 40895596.00 18111898.00 L 41074020.00 18111898.00 L 41074020.00 18979300.00  zM 42255123.00 18979300.00 L 42076699.00 18979300.00 L 42076699.00 18111898.00 L 42255123.00 18111898.00 L 42255123.00 18979300.00  zM 42451973.00 18979300.00 L 42273549.00 18979300.00 L 42273549.00 18111898.00 L 42451973.00 18111898.00 L 42451973.00 18979300.00  zM 42845674.00 17247016.00 L 42667250.00 17247016.00 L 42667250.00 16379614.00 L 42845674.00 16379614.00 L 42845674.00 17247016.00  zM 42648824.00 17247016.00 L 42470400.00 17247016.00 L 42470400.00 16379614.00 L 42648824.00 16379614.00 L 42648824.00 17247016.00  zM 43042524.00 17247016.00 L 42864100.00 17247016.00 L 42864100.00 16379614.00 L 43042524.00 16379614.00 L 43042524.00 17247016.00  zM 43436225.00 17247016.00 L 43257801.00 17247016.00 L 43257801.00 16379614.00 L 43436225.00 16379614.00 L 43436225.00 17247016.00  zM 43633076.00 17247016.00 L 43454652.00 17247016.00 L 43454652.00 16379614.00 L 43633076.00 16379614.00 L 43633076.00 17247016.00  zM 44223627.00 17247016.00 L 44045203.00 17247016.00 L 44045203.00 16379614.00 L 44223627.00 16379614.00 L 44223627.00 17247016.00  zM 43239375.00 17247016.00 L 43060951.00 17247016.00 L 43060951.00 16379614.00 L 43239375.00 16379614.00 L 43239375.00 17247016.00  zM 43829926.00 17247016.00 L 43651502.00 17247016.00 L 43651502.00 16379614.00 L 43829926.00 16379614.00 L 43829926.00 17247016.00  zM 44026776.00 17247016.00 L 43848352.00 17247016.00 L 43848352.00 16379614.00 L 44026776.00 16379614.00 L 44026776.00 17247016.00  zM 43436225.00 18979300.00 L 43257801.00 18979300.00 L 43257801.00 18111898.00 L 43436225.00 18111898.00 L 43436225.00 18979300.00  zM 42845674.00 18979300.00 L 42667250.00 18979300.00 L 42667250.00 18111898.00 L 42845674.00 18111898.00 L 42845674.00 18979300.00  zM 41270871.00 18979300.00 L 41092447.00 18979300.00 L 41092447.00 18111898.00 L 41270871.00 18111898.00 L 41270871.00 18979300.00  zM 40877170.00 18979300.00 L 40698746.00 18979300.00 L 40698746.00 18111898.00 L 40877170.00 18111898.00 L 40877170.00 18979300.00  zM 41467721.00 18979300.00 L 41289297.00 18979300.00 L 41289297.00 18111898.00 L 41467721.00 18111898.00 L 41467721.00 18979300.00  zM 41664572.00 18979300.00 L 41486148.00 18979300.00 L 41486148.00 18111898.00 L 41664572.00 18111898.00 L 41664572.00 18979300.00  zM 42058272.00 18979300.00 L 41879848.00 18979300.00 L 41879848.00 18111898.00 L 42058272.00 18111898.00 L 42058272.00 18979300.00  zM 42648824.00 18979300.00 L 42470400.00 18979300.00 L 42470400.00 18111898.00 L 42648824.00 18111898.00 L 42648824.00 18979300.00  zM 43042524.00 18979300.00 L 42864100.00 18979300.00 L 42864100.00 18111898.00 L 43042524.00 18111898.00 L 43042524.00 18979300.00  zM 43239375.00 18979300.00 L 43060951.00 18979300.00 L 43060951.00 18111898.00 L 43239375.00 18111898.00 L 43239375.00 18979300.00  zM 43829926.00 18979300.00 L 43651502.00 18979300.00 L 43651502.00 18111898.00 L 43829926.00 18111898.00 L 43829926.00 18979300.00  zM 44026776.00 18979300.00 L 43848352.00 18979300.00 L 43848352.00 18111898.00 L 44026776.00 18111898.00 L 44026776.00 18979300.00  zM 44223627.00 18979300.00 L 44045203.00 18979300.00 L 44045203.00 18111898.00 L 44223627.00 18111898.00 L 44223627.00 18979300.00  zM 41861422.00 18979300.00 L 41682998.00 18979300.00 L 41682998.00 18111898.00 L 41861422.00 18111898.00 L 41861422.00 18979300.00  zM 43633076.00 18979300.00 L 43454652.00 18979300.00 L 43454652.00 18111898.00 L 43633076.00 18111898.00 L 43633076.00 18979300.00  zM 42451973.00 31420244.00 L 42273549.00 31420244.00 L 42273549.00 30552842.00 L 42451973.00 30552842.00 L 42451973.00 31420244.00  zM 41270871.00 31420244.00 L 41092447.00 31420244.00 L 41092447.00 30552842.00 L 41270871.00 30552842.00 L 41270871.00 31420244.00  zM 42058272.00 31420244.00 L 41879848.00 31420244.00 L 41879848.00 30552842.00 L 42058272.00 30552842.00 L 42058272.00 31420244.00  zM 42845674.00 31420244.00 L 42667250.00 31420244.00 L 42667250.00 30552842.00 L 42845674.00 30552842.00 L 42845674.00 31420244.00  zM 40877170.00 31420244.00 L 40698746.00 31420244.00 L 40698746.00 30552842.00 L 40877170.00 30552842.00 L 40877170.00 31420244.00  zM 41664572.00 31420244.00 L 41486148.00 31420244.00 L 41486148.00 30552842.00 L 41664572.00 30552842.00 L 41664572.00 31420244.00  zM 43239375.00 31420244.00 L 43060951.00 31420244.00 L 43060951.00 30552842.00 L 43239375.00 30552842.00 L 43239375.00 31420244.00  zM 43633076.00 31420244.00 L 43454652.00 31420244.00 L 43454652.00 30552842.00 L 43633076.00 30552842.00 L 43633076.00 31420244.00  zM 44223627.00 31420244.00 L 44045203.00 31420244.00 L 44045203.00 30552842.00 L 44223627.00 30552842.00 L 44223627.00 31420244.00  zM 12130196.60 35220161.06 m -633585.94 0 a 633585.94 633585.94 0 1 1 1267171.88 0a 633585.94 633585.94 0 1 1 -1267171.88 0M 14773402.00 33553393.05 m -338174.95 0 a 338174.95 338174.95 0 1 1 676349.89 0a 338174.95 338174.95 0 1 1 -676349.89 0M 16108675.00 33888675.00 L 15438125.00 33888675.00 L 15438125.00 33218125.00 L 16108675.00 33218125.00 L 16108675.00 33888675.00  zM 18590325.00 34977790.00 L 18633229.97 34949122.00 L 18532839.00 34949122.00 L 18532839.00 34239202.00 L 18904177.00 34239202.00 L 18904177.00 34949122.00 L 18803786.03 34949122.00 L 18846691.00 34977790.00 A 181279.69 181279.69 0 1 1 18590325.00 34977790.00  zM 19590325.00 34977790.00 L 19633229.97 34949122.00 L 19532839.00 34949122.00 L 19532839.00 34239202.00 L 19904177.00 34239202.00 L 19904177.00 34949122.00 L 19803786.03 34949122.00 L 19846691.00 34977790.00 A 181279.69 181279.69 0 1 1 19590325.00 34977790.00  zM 19404177.00 35972744.00 L 19032839.00 35972744.00 L 19032839.00 35262824.00 L 19133229.97 35262824.00 L 19090325.00 35234156.00 A 181279.69 181279.69 0 1 1 19346691.00 35234156.00 L 19303786.03 35262824.00 L 19404177.00 35262824.00 L 19404177.00 35972744.00  zM 20590325.00 34977790.00 L 20633229.97 34949122.00 L 20532839.00 34949122.00 L 20532839.00 34239202.00 L 20904177.00 34239202.00 L 20904177.00 34949122.00 L 20803786.03 34949122.00 L 20846691.00 34977790.00 A 181279.69 181279.69 0 1 1 20590325.00 34977790.00  zM 21590325.00 34977790.00 L 21633229.97 34949122.00 L 21532839.00 34949122.00 L 21532839.00 34239202.00 L 21904177.00 34239202.00 L 21904177.00 34949122.00 L 21803786.03 34949122.00 L 21846691.00 34977790.00 A 181279.69 181279.69 0 1 1 21590325.00 34977790.00  zM 22404177.00 35972744.00 L 22032839.00 35972744.00 L 22032839.00 35262824.00 L 22133229.97 35262824.00 L 22090325.00 35234156.00 A 181279.69 181279.69 0 1 1 22346691.00 35234156.00 L 22303786.03 35262824.00 L 22404177.00 35262824.00 L 22404177.00 35972744.00  zM 22590325.00 34977790.00 L 22633229.97 34949122.00 L 22532839.00 34949122.00 L 22532839.00 34239202.00 L 22904177.00 34239202.00 L 22904177.00 34949122.00 L 22803786.03 34949122.00 L 22846691.00 34977790.00 A 181279.69 181279.69 0 1 1 22590325.00 34977790.00  zM 23590325.00 34977790.00 L 23633229.97 34949122.00 L 23532839.00 34949122.00 L 23532839.00 34239202.00 L 23904177.00 34239202.00 L 23904177.00 34949122.00 L 23803786.03 34949122.00 L 23846691.00 34977790.00 A 181279.69 181279.69 0 1 1 23590325.00 34977790.00  zM 23404177.00 35972744.00 L 23032839.00 35972744.00 L 23032839.00 35262824.00 L 23133229.97 35262824.00 L 23090325.00 35234156.00 A 181279.69 181279.69 0 1 1 23346691.00 35234156.00 L 23303786.03 35262824.00 L 23404177.00 35262824.00 L 23404177.00 35972744.00  zM 29656698.00 31420244.00 L 29478274.00 31420244.00 L 29478274.00 30552842.00 L 29656698.00 30552842.00 L 29656698.00 31420244.00  zM 29459847.00 31420244.00 L 29281423.00 31420244.00 L 29281423.00 30552842.00 L 29459847.00 30552842.00 L 29459847.00 31420244.00  zM 29459847.00 33152528.00 L 29281423.00 33152528.00 L 29281423.00 32285126.00 L 29459847.00 32285126.00 L 29459847.00 33152528.00  zM 25590325.00 34977790.00 L 25633229.97 34949122.00 L 25532839.00 34949122.00 L 25532839.00 34239202.00 L 25904177.00 34239202.00 L 25904177.00 34949122.00 L 25803786.03 34949122.00 L 25846691.00 34977790.00 A 181279.69 181279.69 0 1 1 25590325.00 34977790.00  zM 27590325.00 34977790.00 L 27633229.97 34949122.00 L 27532839.00 34949122.00 L 27532839.00 34239202.00 L 27904177.00 34239202.00 L 27904177.00 34949122.00 L 27803786.03 34949122.00 L 27846691.00 34977790.00 A 181279.69 181279.69 0 1 1 27590325.00 34977790.00  zM 29656698.00 33152528.00 L 29478274.00 33152528.00 L 29478274.00 32285126.00 L 29656698.00 32285126.00 L 29656698.00 33152528.00  zM 24590325.00 34977790.00 L 24633229.97 34949122.00 L 24532839.00 34949122.00 L 24532839.00 34239202.00 L 24904177.00 34239202.00 L 24904177.00 34949122.00 L 24803786.03 34949122.00 L 24846691.00 34977790.00 A 181279.69 181279.69 0 1 1 24590325.00 34977790.00  zM 26404177.00 35972744.00 L 26032839.00 35972744.00 L 26032839.00 35262824.00 L 26133229.97 35262824.00 L 26090325.00 35234156.00 A 181279.69 181279.69 0 1 1 26346691.00 35234156.00 L 26303786.03 35262824.00 L 26404177.00 35262824.00 L 26404177.00 35972744.00  zM 26590325.00 34977790.00 L 26633229.97 34949122.00 L 26532839.00 34949122.00 L 26532839.00 34239202.00 L 26904177.00 34239202.00 L 26904177.00 34949122.00 L 26803786.03 34949122.00 L 26846691.00 34977790.00 A 181279.69 181279.69 0 1 1 26590325.00 34977790.00  zM 27404177.00 35972744.00 L 27032839.00 35972744.00 L 27032839.00 35262824.00 L 27133229.97 35262824.00 L 27090325.00 35234156.00 A 181279.69 181279.69 0 1 1 27346691.00 35234156.00 L 27303786.03 35262824.00 L 27404177.00 35262824.00 L 27404177.00 35972744.00  zM 28404177.00 35972744.00 L 28032839.00 35972744.00 L 28032839.00 35262824.00 L 28133229.97 35262824.00 L 28090325.00 35234156.00 A 181279.69 181279.69 0 1 1 28346691.00 35234156.00 L 28303786.03 35262824.00 L 28404177.00 35262824.00 L 28404177.00 35972744.00  zM 29853548.00 31420244.00 L 29675124.00 31420244.00 L 29675124.00 30552842.00 L 29853548.00 30552842.00 L 29853548.00 31420244.00  zM 30247249.00 31420244.00 L 30068825.00 31420244.00 L 30068825.00 30552842.00 L 30247249.00 30552842.00 L 30247249.00 31420244.00  zM 30837800.00 31420244.00 L 30659376.00 31420244.00 L 30659376.00 30552842.00 L 30837800.00 30552842.00 L 30837800.00 31420244.00  zM 31428351.00 31420244.00 L 31249927.00 31420244.00 L 31249927.00 30552842.00 L 31428351.00 30552842.00 L 31428351.00 31420244.00  zM 31034650.00 31420244.00 L 30856226.00 31420244.00 L 30856226.00 30552842.00 L 31034650.00 30552842.00 L 31034650.00 31420244.00  zM 31625202.00 31420244.00 L 31446778.00 31420244.00 L 31446778.00 30552842.00 L 31625202.00 30552842.00 L 31625202.00 31420244.00  zM 30050398.00 31420244.00 L 29871974.00 31420244.00 L 29871974.00 30552842.00 L 30050398.00 30552842.00 L 30050398.00 31420244.00  zM 30640950.00 31420244.00 L 30462526.00 31420244.00 L 30462526.00 30552842.00 L 30640950.00 30552842.00 L 30640950.00 31420244.00  zM 31231501.00 31420244.00 L 31053077.00 31420244.00 L 31053077.00 30552842.00 L 31231501.00 30552842.00 L 31231501.00 31420244.00  zM 30444099.00 31420244.00 L 30265675.00 31420244.00 L 30265675.00 30552842.00 L 30444099.00 30552842.00 L 30444099.00 31420244.00  zM 31428351.00 33152528.00 L 31249927.00 33152528.00 L 31249927.00 32285126.00 L 31428351.00 32285126.00 L 31428351.00 33152528.00  zM 32018902.00 33152528.00 L 31840478.00 33152528.00 L 31840478.00 32285126.00 L 32018902.00 32285126.00 L 32018902.00 33152528.00  zM 30050398.00 33152528.00 L 29871974.00 33152528.00 L 29871974.00 32285126.00 L 30050398.00 32285126.00 L 30050398.00 33152528.00  zM 29853548.00 33152528.00 L 29675124.00 33152528.00 L 29675124.00 32285126.00 L 29853548.00 32285126.00 L 29853548.00 33152528.00  zM 30247249.00 33152528.00 L 30068825.00 33152528.00 L 30068825.00 32285126.00 L 30247249.00 32285126.00 L 30247249.00 33152528.00  zM 30640950.00 33152528.00 L 30462526.00 33152528.00 L 30462526.00 32285126.00 L 30640950.00 32285126.00 L 30640950.00 33152528.00  zM 30444099.00 33152528.00 L 30265675.00 33152528.00 L 30265675.00 32285126.00 L 30444099.00 32285126.00 L 30444099.00 33152528.00  zM 30837800.00 33152528.00 L 30659376.00 33152528.00 L 30659376.00 32285126.00 L 30837800.00 32285126.00 L 30837800.00 33152528.00  zM 31231501.00 33152528.00 L 31053077.00 33152528.00 L 31053077.00 32285126.00 L 31231501.00 32285126.00 L 31231501.00 33152528.00  zM 31034650.00 33152528.00 L 30856226.00 33152528.00 L 30856226.00 32285126.00 L 31034650.00 32285126.00 L 31034650.00 33152528.00  zM 31625202.00 33152528.00 L 31446778.00 33152528.00 L 31446778.00 32285126.00 L 31625202.00 32285126.00 L 31625202.00 33152528.00  zM 31822052.00 33152528.00 L 31643628.00 33152528.00 L 31643628.00 32285126.00 L 31822052.00 32285126.00 L 31822052.00 33152528.00  zM 32215753.00 33152528.00 L 32037329.00 33152528.00 L 32037329.00 32285126.00 L 32215753.00 32285126.00 L 32215753.00 33152528.00  zM 11956602.00 37893744.00 L 11914294.00 37830424.30 L 11914294.00 37960933.00 L 11084294.00 37960933.00 L 11084294.00 37479359.00 L 11914294.00 37479359.00 L 11914294.00 37609867.70 L 11956602.00 37546548.00 A 245511.05 245511.05 0 1 1 11956602.00 37893744.00  zM 12303798.00 38546548.00 L 12346106.00 38609867.70 L 12346106.00 38479359.00 L 13176106.00 38479359.00 L 13176106.00 38960933.00 L 12346106.00 38960933.00 L 12346106.00 38830424.30 L 12303798.00 38893744.00 A 245511.05 245511.05 0 1 1 12303798.00 38546548.00  zM 11956602.00 39893744.00 L 11914294.00 39830424.30 L 11914294.00 39960933.00 L 11084294.00 39960933.00 L 11084294.00 39479359.00 L 11914294.00 39479359.00 L 11914294.00 39609867.70 L 11956602.00 39546548.00 A 245511.05 245511.05 0 1 1 11956602.00 39893744.00  zM 11956602.00 41893744.00 L 11914294.00 41830424.30 L 11914294.00 41960933.00 L 11084294.00 41960933.00 L 11084294.00 41479359.00 L 11914294.00 41479359.00 L 11914294.00 41609867.70 L 11956602.00 41546548.00 A 245511.05 245511.05 0 1 1 11956602.00 41893744.00  zM 12303798.00 40546548.00 L 12346106.00 40609867.70 L 12346106.00 40479359.00 L 13176106.00 40479359.00 L 13176106.00 40960933.00 L 12346106.00 40960933.00 L 12346106.00 40830424.30 L 12303798.00 40893744.00 A 245511.05 245511.05 0 1 1 12303798.00 40546548.00  zM 11956602.00 43893744.00 L 11914294.00 43830424.30 L 11914294.00 43960933.00 L 11084294.00 43960933.00 L 11084294.00 43479359.00 L 11914294.00 43479359.00 L 11914294.00 43609867.70 L 11956602.00 43546548.00 A 245511.05 245511.05 0 1 1 11956602.00 43893744.00  zM 12303798.00 42546548.00 L 12346106.00 42609867.70 L 12346106.00 42479359.00 L 13176106.00 42479359.00 L 13176106.00 42960933.00 L 12346106.00 42960933.00 L 12346106.00 42830424.30 L 12303798.00 42893744.00 A 245511.05 245511.05 0 1 1 12303798.00 42546548.00  zM 20404177.00 35972744.00 L 20032839.00 35972744.00 L 20032839.00 35262824.00 L 20133229.97 35262824.00 L 20090325.00 35234156.00 A 181279.69 181279.69 0 1 1 20346691.00 35234156.00 L 20303786.03 35262824.00 L 20404177.00 35262824.00 L 20404177.00 35972744.00  zM 12303798.00 44546548.00 L 12346106.00 44609867.70 L 12346106.00 44479359.00 L 13176106.00 44479359.00 L 13176106.00 44960933.00 L 12346106.00 44960933.00 L 12346106.00 44830424.30 L 12303798.00 44893744.00 A 245511.05 245511.05 0 1 1 12303798.00 44546548.00  zM 21404177.00 35972744.00 L 21032839.00 35972744.00 L 21032839.00 35262824.00 L 21133229.97 35262824.00 L 21090325.00 35234156.00 A 181279.69 181279.69 0 1 1 21346691.00 35234156.00 L 21303786.03 35262824.00 L 21404177.00 35262824.00 L 21404177.00 35972744.00  zM 24404177.00 35972744.00 L 24032839.00 35972744.00 L 24032839.00 35262824.00 L 24133229.97 35262824.00 L 24090325.00 35234156.00 A 181279.69 181279.69 0 1 1 24346691.00 35234156.00 L 24303786.03 35262824.00 L 24404177.00 35262824.00 L 24404177.00 35972744.00  zM 25404177.00 35972744.00 L 25032839.00 35972744.00 L 25032839.00 35262824.00 L 25133229.97 35262824.00 L 25090325.00 35234156.00 A 181279.69 181279.69 0 1 1 25346691.00 35234156.00 L 25303786.03 35262824.00 L 25404177.00 35262824.00 L 25404177.00 35972744.00  zM 11956602.00 45893744.00 L 11914294.00 45830424.30 L 11914294.00 45960933.00 L 11084294.00 45960933.00 L 11084294.00 45479359.00 L 11914294.00 45479359.00 L 11914294.00 45609867.70 L 11956602.00 45546548.00 A 245511.05 245511.05 0 1 1 11956602.00 45893744.00  zM 12303798.00 46546548.00 L 12346106.00 46609867.70 L 12346106.00 46479359.00 L 13176106.00 46479359.00 L 13176106.00 46960933.00 L 12346106.00 46960933.00 L 12346106.00 46830424.30 L 12303798.00 46893744.00 A 245511.05 245511.05 0 1 1 12303798.00 46546548.00  zM 11956602.00 47893744.00 L 11914294.00 47830424.30 L 11914294.00 47960933.00 L 11084294.00 47960933.00 L 11084294.00 47479359.00 L 11914294.00 47479359.00 L 11914294.00 47609867.70 L 11956602.00 47546548.00 A 245511.05 245511.05 0 1 1 11956602.00 47893744.00  zM 11956602.00 49893744.00 L 11914294.00 49830424.30 L 11914294.00 49960933.00 L 11084294.00 49960933.00 L 11084294.00 49479359.00 L 11914294.00 49479359.00 L 11914294.00 49609867.70 L 11956602.00 49546548.00 A 245511.05 245511.05 0 1 1 11956602.00 49893744.00  zM 12303798.00 48546548.00 L 12346106.00 48609867.70 L 12346106.00 48479359.00 L 13176106.00 48479359.00 L 13176106.00 48960933.00 L 12346106.00 48960933.00 L 12346106.00 48830424.30 L 12303798.00 48893744.00 A 245511.05 245511.05 0 1 1 12303798.00 48546548.00  zM 12303798.00 50546548.00 L 12346106.00 50609867.70 L 12346106.00 50479359.00 L 13176106.00 50479359.00 L 13176106.00 50960933.00 L 12346106.00 50960933.00 L 12346106.00 50830424.30 L 12303798.00 50893744.00 A 245511.05 245511.05 0 1 1 12303798.00 50546548.00  zM 11956602.00 51893744.00 L 11914294.00 51830424.30 L 11914294.00 51960933.00 L 11084294.00 51960933.00 L 11084294.00 51479359.00 L 11914294.00 51479359.00 L 11914294.00 51609867.70 L 11956602.00 51546548.00 A 245511.05 245511.05 0 1 1 11956602.00 51893744.00  zM 12303798.00 52546548.00 L 12346106.00 52609867.70 L 12346106.00 52479359.00 L 13176106.00 52479359.00 L 13176106.00 52960933.00 L 12346106.00 52960933.00 L 12346106.00 52830424.30 L 12303798.00 52893744.00 A 245511.05 245511.05 0 1 1 12303798.00 52546548.00  zM 11956602.00 53893744.00 L 11914294.00 53830424.30 L 11914294.00 53960933.00 L 11084294.00 53960933.00 L 11084294.00 53479359.00 L 11914294.00 53479359.00 L 11914294.00 53609867.70 L 11956602.00 53546548.00 A 245511.05 245511.05 0 1 1 11956602.00 53893744.00  zM 11956602.00 55893744.00 L 11914294.00 55830424.30 L 11914294.00 55960933.00 L 11084294.00 55960933.00 L 11084294.00 55479359.00 L 11914294.00 55479359.00 L 11914294.00 55609867.70 L 11956602.00 55546548.00 A 245511.05 245511.05 0 1 1 11956602.00 55893744.00  zM 12303798.00 54546548.00 L 12346106.00 54609867.70 L 12346106.00 54479359.00 L 13176106.00 54479359.00 L 13176106.00 54960933.00 L 12346106.00 54960933.00 L 12346106.00 54830424.30 L 12303798.00 54893744.00 A 245511.05 245511.05 0 1 1 12303798.00 54546548.00  zM 12303798.00 56546548.00 L 12346106.00 56609867.70 L 12346106.00 56479359.00 L 13176106.00 56479359.00 L 13176106.00 56960933.00 L 12346106.00 56960933.00 L 12346106.00 56830424.30 L 12303798.00 56893744.00 A 245511.05 245511.05 0 1 1 12303798.00 56546548.00  zM 14113510.00 58828302.32 m -130461.68 0 a 130461.68 130461.68 0 1 1 260923.35 0a 130461.68 130461.68 0 1 1 -260923.35 0M 13401377.00 59509407.00 L 13401377.00 58918855.00 A 180637.35 180637.35 0 0 1 13762649.00 58918855.00 L 13762649.00 59509407.00 A 180637.35 180637.35 0 0 1 13401377.00 59509407.00  zM 14448156.00 58828302.32 m -130461.68 0 a 130461.68 130461.68 0 1 1 260923.35 0a 130461.68 130461.68 0 1 1 -260923.35 0M 14782801.00 58828302.32 m -130461.68 0 a 130461.68 130461.68 0 1 1 260923.35 0a 130461.68 130461.68 0 1 1 -260923.35 0M 15117447.00 58828302.32 m -130461.68 0 a 130461.68 130461.68 0 1 1 260923.35 0a 130461.68 130461.68 0 1 1 -260923.35 0M 12130196.60 59220161.06 m -633585.94 0 a 633585.94 633585.94 0 1 1 1267171.88 0a 633585.94 633585.94 0 1 1 -1267171.88 0M 13401377.00 60702320.00 L 13401377.00 60387360.00 A 180637.35 180637.35 0 0 1 13762649.00 60387360.00 L 13762649.00 60702320.00 A 180637.35 180637.35 0 0 1 13401377.00 60702320.00  zM 14113510.00 59359798.32 m -130461.68 0 a 130461.68 130461.68 0 1 1 260923.35 0a 130461.68 130461.68 0 1 1 -260923.35 0M 14448156.00 59359798.32 m -130461.68 0 a 130461.68 130461.68 0 1 1 260923.35 0a 130461.68 130461.68 0 1 1 -260923.35 0M 14782801.00 59359798.32 m -130461.68 0 a 130461.68 130461.68 0 1 1 260923.35 0a 130461.68 130461.68 0 1 1 -260923.35 0M 15452093.00 58828302.32 m -130461.68 0 a 130461.68 130461.68 0 1 1 260923.35 0a 130461.68 130461.68 0 1 1 -260923.35 0M 15117447.00 59359798.32 m -130461.68 0 a 130461.68 130461.68 0 1 1 260923.35 0a 130461.68 130461.68 0 1 1 -260923.35 0M 15786739.00 58828302.32 m -130461.68 0 a 130461.68 130461.68 0 1 1 260923.35 0a 130461.68 130461.68 0 1 1 -260923.35 0M 16121384.00 58828302.32 m -130461.68 0 a 130461.68 130461.68 0 1 1 260923.35 0a 130461.68 130461.68 0 1 1 -260923.35 0M 16456030.00 58828302.32 m -130461.68 0 a 130461.68 130461.68 0 1 1 260923.35 0a 130461.68 130461.68 0 1 1 -260923.35 0M 16806889.00 59509407.00 L 16806889.00 58918855.00 A 180637.35 180637.35 0 0 1 17168161.00 58918855.00 L 17168161.00 59509407.00 A 180637.35 180637.35 0 0 1 16806889.00 59509407.00  zM 15452093.00 59359798.32 m -130461.68 0 a 130461.68 130461.68 0 1 1 260923.35 0a 130461.68 130461.68 0 1 1 -260923.35 0M 15786739.00 59359798.32 m -130461.68 0 a 130461.68 130461.68 0 1 1 260923.35 0a 130461.68 130461.68 0 1 1 -260923.35 0M 16121384.00 59359798.32 m -130461.68 0 a 130461.68 130461.68 0 1 1 260923.35 0a 130461.68 130461.68 0 1 1 -260923.35 0M 16456030.00 59359798.32 m -130461.68 0 a 130461.68 130461.68 0 1 1 260923.35 0a 130461.68 130461.68 0 1 1 -260923.35 0M 16806889.00 60702320.00 L 16806889.00 60387360.00 A 180637.35 180637.35 0 0 1 17168161.00 60387360.00 L 17168161.00 60702320.00 A 180637.35 180637.35 0 0 1 16806889.00 60702320.00  zM 32609454.00 33152528.00 L 32431030.00 33152528.00 L 32431030.00 32285126.00 L 32609454.00 32285126.00 L 32609454.00 33152528.00  zM 32412603.00 33152528.00 L 32234179.00 33152528.00 L 32234179.00 32285126.00 L 32412603.00 32285126.00 L 32412603.00 33152528.00  zM 32806304.00 33152528.00 L 32627880.00 33152528.00 L 32627880.00 32285126.00 L 32806304.00 32285126.00 L 32806304.00 33152528.00  zM 33790556.00 33152528.00 L 33612132.00 33152528.00 L 33612132.00 32285126.00 L 33790556.00 32285126.00 L 33790556.00 33152528.00  zM 33200005.00 33152528.00 L 33021581.00 33152528.00 L 33021581.00 32285126.00 L 33200005.00 32285126.00 L 33200005.00 33152528.00  zM 33396855.00 33152528.00 L 33218431.00 33152528.00 L 33218431.00 32285126.00 L 33396855.00 32285126.00 L 33396855.00 33152528.00  zM 33593706.00 33152528.00 L 33415282.00 33152528.00 L 33415282.00 32285126.00 L 33593706.00 32285126.00 L 33593706.00 33152528.00  zM 33003154.00 33152528.00 L 32824730.00 33152528.00 L 32824730.00 32285126.00 L 33003154.00 32285126.00 L 33003154.00 33152528.00  zM 33027333.00 34977790.00 L 33070237.97 34949122.00 L 32969847.00 34949122.00 L 32969847.00 34239202.00 L 33341185.00 34239202.00 L 33341185.00 34949122.00 L 33240794.03 34949122.00 L 33283699.00 34977790.00 A 181279.69 181279.69 0 1 1 33027333.00 34977790.00  zM 32027333.00 34977790.00 L 32070237.97 34949122.00 L 31969847.00 34949122.00 L 31969847.00 34239202.00 L 32341185.00 34239202.00 L 32341185.00 34949122.00 L 32240794.03 34949122.00 L 32283699.00 34977790.00 A 181279.69 181279.69 0 1 1 32027333.00 34977790.00  zM 32841185.00 35972744.00 L 32469847.00 35972744.00 L 32469847.00 35262824.00 L 32570237.97 35262824.00 L 32527333.00 35234156.00 A 181279.69 181279.69 0 1 1 32783699.00 35234156.00 L 32740794.03 35262824.00 L 32841185.00 35262824.00 L 32841185.00 35972744.00  zM 33841185.00 35972744.00 L 33469847.00 35972744.00 L 33469847.00 35262824.00 L 33570237.97 35262824.00 L 33527333.00 35234156.00 A 181279.69 181279.69 0 1 1 33783699.00 35234156.00 L 33740794.03 35262824.00 L 33841185.00 35262824.00 L 33841185.00 35972744.00  zM 34184257.00 31420244.00 L 34005833.00 31420244.00 L 34005833.00 30552842.00 L 34184257.00 30552842.00 L 34184257.00 31420244.00  zM 34184257.00 33152528.00 L 34005833.00 33152528.00 L 34005833.00 32285126.00 L 34184257.00 32285126.00 L 34184257.00 33152528.00  zM 33987406.00 33152528.00 L 33808982.00 33152528.00 L 33808982.00 32285126.00 L 33987406.00 32285126.00 L 33987406.00 33152528.00  zM 34027333.00 34977790.00 L 34070237.97 34949122.00 L 33969847.00 34949122.00 L 33969847.00 34239202.00 L 34341185.00 34239202.00 L 34341185.00 34949122.00 L 34240794.03 34949122.00 L 34283699.00 34977790.00 A 181279.69 181279.69 0 1 1 34027333.00 34977790.00  zM 35027333.00 34977790.00 L 35070237.97 34949122.00 L 34969847.00 34949122.00 L 34969847.00 34239202.00 L 35341185.00 34239202.00 L 35341185.00 34949122.00 L 35240794.03 34949122.00 L 35283699.00 34977790.00 A 181279.69 181279.69 0 1 1 35027333.00 34977790.00  zM 37027333.00 34977790.00 L 37070237.97 34949122.00 L 36969847.00 34949122.00 L 36969847.00 34239202.00 L 37341185.00 34239202.00 L 37341185.00 34949122.00 L 37240794.03 34949122.00 L 37283699.00 34977790.00 A 181279.69 181279.69 0 1 1 37027333.00 34977790.00  zM 34841185.00 35972744.00 L 34469847.00 35972744.00 L 34469847.00 35262824.00 L 34570237.97 35262824.00 L 34527333.00 35234156.00 A 181279.69 181279.69 0 1 1 34783699.00 35234156.00 L 34740794.03 35262824.00 L 34841185.00 35262824.00 L 34841185.00 35972744.00  zM 35841185.00 35972744.00 L 35469847.00 35972744.00 L 35469847.00 35262824.00 L 35570237.97 35262824.00 L 35527333.00 35234156.00 A 181279.69 181279.69 0 1 1 35783699.00 35234156.00 L 35740794.03 35262824.00 L 35841185.00 35262824.00 L 35841185.00 35972744.00  zM 36027333.00 34977790.00 L 36070237.97 34949122.00 L 35969847.00 34949122.00 L 35969847.00 34239202.00 L 36341185.00 34239202.00 L 36341185.00 34949122.00 L 36240794.03 34949122.00 L 36283699.00 34977790.00 A 181279.69 181279.69 0 1 1 36027333.00 34977790.00  zM 36841185.00 35972744.00 L 36469847.00 35972744.00 L 36469847.00 35262824.00 L 36570237.97 35262824.00 L 36527333.00 35234156.00 A 181279.69 181279.69 0 1 1 36783699.00 35234156.00 L 36740794.03 35262824.00 L 36841185.00 35262824.00 L 36841185.00 35972744.00  zM 37841185.00 35972744.00 L 37469847.00 35972744.00 L 37469847.00 35262824.00 L 37570237.97 35262824.00 L 37527333.00 35234156.00 A 181279.69 181279.69 0 1 1 37783699.00 35234156.00 L 37740794.03 35262824.00 L 37841185.00 35262824.00 L 37841185.00 35972744.00  zM 40286619.00 31420244.00 L 40108195.00 31420244.00 L 40108195.00 30552842.00 L 40286619.00 30552842.00 L 40286619.00 31420244.00  zM 40680320.00 31420244.00 L 40501896.00 31420244.00 L 40501896.00 30552842.00 L 40680320.00 30552842.00 L 40680320.00 31420244.00  zM 41467721.00 31420244.00 L 41289297.00 31420244.00 L 41289297.00 30552842.00 L 41467721.00 30552842.00 L 41467721.00 31420244.00  zM 39892918.00 31420244.00 L 39714494.00 31420244.00 L 39714494.00 30552842.00 L 39892918.00 30552842.00 L 39892918.00 31420244.00  zM 41074020.00 31420244.00 L 40895596.00 31420244.00 L 40895596.00 30552842.00 L 41074020.00 30552842.00 L 41074020.00 31420244.00  zM 40483469.00 33152528.00 L 40305045.00 33152528.00 L 40305045.00 32285126.00 L 40483469.00 32285126.00 L 40483469.00 33152528.00  zM 39499217.00 33152528.00 L 39320793.00 33152528.00 L 39320793.00 32285126.00 L 39499217.00 32285126.00 L 39499217.00 33152528.00  zM 39892918.00 33152528.00 L 39714494.00 33152528.00 L 39714494.00 32285126.00 L 39892918.00 32285126.00 L 39892918.00 33152528.00  zM 40286619.00 33152528.00 L 40108195.00 33152528.00 L 40108195.00 32285126.00 L 40286619.00 32285126.00 L 40286619.00 33152528.00  zM 40680320.00 33152528.00 L 40501896.00 33152528.00 L 40501896.00 32285126.00 L 40680320.00 32285126.00 L 40680320.00 33152528.00  zM 40877170.00 33152528.00 L 40698746.00 33152528.00 L 40698746.00 32285126.00 L 40877170.00 32285126.00 L 40877170.00 33152528.00  zM 39696068.00 33152528.00 L 39517644.00 33152528.00 L 39517644.00 32285126.00 L 39696068.00 32285126.00 L 39696068.00 33152528.00  zM 39027333.00 34977790.00 L 39070237.97 34949122.00 L 38969847.00 34949122.00 L 38969847.00 34239202.00 L 39341185.00 34239202.00 L 39341185.00 34949122.00 L 39240794.03 34949122.00 L 39283699.00 34977790.00 A 181279.69 181279.69 0 1 1 39027333.00 34977790.00  zM 38027333.00 34977790.00 L 38070237.97 34949122.00 L 37969847.00 34949122.00 L 37969847.00 34239202.00 L 38341185.00 34239202.00 L 38341185.00 34949122.00 L 38240794.03 34949122.00 L 38283699.00 34977790.00 A 181279.69 181279.69 0 1 1 38027333.00 34977790.00  zM 40089768.00 33152528.00 L 39911344.00 33152528.00 L 39911344.00 32285126.00 L 40089768.00 32285126.00 L 40089768.00 33152528.00  zM 41074020.00 33152528.00 L 40895596.00 33152528.00 L 40895596.00 32285126.00 L 41074020.00 32285126.00 L 41074020.00 33152528.00  zM 41270871.00 33152528.00 L 41092447.00 33152528.00 L 41092447.00 32285126.00 L 41270871.00 32285126.00 L 41270871.00 33152528.00  zM 38841185.00 35972744.00 L 38469847.00 35972744.00 L 38469847.00 35262824.00 L 38570237.97 35262824.00 L 38527333.00 35234156.00 A 181279.69 181279.69 0 1 1 38783699.00 35234156.00 L 38740794.03 35262824.00 L 38841185.00 35262824.00 L 38841185.00 35972744.00  zM 39841185.00 35972744.00 L 39469847.00 35972744.00 L 39469847.00 35262824.00 L 39570237.97 35262824.00 L 39527333.00 35234156.00 A 181279.69 181279.69 0 1 1 39783699.00 35234156.00 L 39740794.03 35262824.00 L 39841185.00 35262824.00 L 39841185.00 35972744.00  zM 40027333.00 34977790.00 L 40070237.97 34949122.00 L 39969847.00 34949122.00 L 39969847.00 34239202.00 L 40341185.00 34239202.00 L 40341185.00 34949122.00 L 40240794.03 34949122.00 L 40283699.00 34977790.00 A 181279.69 181279.69 0 1 1 40027333.00 34977790.00  zM 41027333.00 34977790.00 L 41070237.97 34949122.00 L 40969847.00 34949122.00 L 40969847.00 34239202.00 L 41341185.00 34239202.00 L 41341185.00 34949122.00 L 41240794.03 34949122.00 L 41283699.00 34977790.00 A 181279.69 181279.69 0 1 1 41027333.00 34977790.00  zM 40841185.00 35972744.00 L 40469847.00 35972744.00 L 40469847.00 35262824.00 L 40570237.97 35262824.00 L 40527333.00 35234156.00 A 181279.69 181279.69 0 1 1 40783699.00 35234156.00 L 40740794.03 35262824.00 L 40841185.00 35262824.00 L 40841185.00 35972744.00  zM 41861422.00 31420244.00 L 41682998.00 31420244.00 L 41682998.00 30552842.00 L 41861422.00 30552842.00 L 41861422.00 31420244.00  zM 42255123.00 31420244.00 L 42076699.00 31420244.00 L 42076699.00 30552842.00 L 42255123.00 30552842.00 L 42255123.00 31420244.00  zM 42648824.00 31420244.00 L 42470400.00 31420244.00 L 42470400.00 30552842.00 L 42648824.00 30552842.00 L 42648824.00 31420244.00  zM 42451973.00 33152528.00 L 42273549.00 33152528.00 L 42273549.00 32285126.00 L 42451973.00 32285126.00 L 42451973.00 33152528.00  zM 41861422.00 33152528.00 L 41682998.00 33152528.00 L 41682998.00 32285126.00 L 41861422.00 32285126.00 L 41861422.00 33152528.00  zM 42255123.00 33152528.00 L 42076699.00 33152528.00 L 42076699.00 32285126.00 L 42255123.00 32285126.00 L 42255123.00 33152528.00  zM 41664572.00 33152528.00 L 41486148.00 33152528.00 L 41486148.00 32285126.00 L 41664572.00 32285126.00 L 41664572.00 33152528.00  zM 41467721.00 33152528.00 L 41289297.00 33152528.00 L 41289297.00 32285126.00 L 41467721.00 32285126.00 L 41467721.00 33152528.00  zM 42058272.00 33152528.00 L 41879848.00 33152528.00 L 41879848.00 32285126.00 L 42058272.00 32285126.00 L 42058272.00 33152528.00  zM 42845674.00 33152528.00 L 42667250.00 33152528.00 L 42667250.00 32285126.00 L 42845674.00 32285126.00 L 42845674.00 33152528.00  zM 42648824.00 33152528.00 L 42470400.00 33152528.00 L 42470400.00 32285126.00 L 42648824.00 32285126.00 L 42648824.00 33152528.00  zM 43042524.00 33152528.00 L 42864100.00 33152528.00 L 42864100.00 32285126.00 L 43042524.00 32285126.00 L 43042524.00 33152528.00  zM 43042524.00 31420244.00 L 42864100.00 31420244.00 L 42864100.00 30552842.00 L 43042524.00 30552842.00 L 43042524.00 31420244.00  zM 43436225.00 31420244.00 L 43257801.00 31420244.00 L 43257801.00 30552842.00 L 43436225.00 30552842.00 L 43436225.00 31420244.00  zM 43436225.00 33152528.00 L 43257801.00 33152528.00 L 43257801.00 32285126.00 L 43436225.00 32285126.00 L 43436225.00 33152528.00  zM 43239375.00 33152528.00 L 43060951.00 33152528.00 L 43060951.00 32285126.00 L 43239375.00 32285126.00 L 43239375.00 33152528.00  zM 43633076.00 33152528.00 L 43454652.00 33152528.00 L 43454652.00 32285126.00 L 43633076.00 32285126.00 L 43633076.00 33152528.00  zM 43829926.00 33152528.00 L 43651502.00 33152528.00 L 43651502.00 32285126.00 L 43829926.00 32285126.00 L 43829926.00 33152528.00  zM 44026776.00 31420244.00 L 43848352.00 31420244.00 L 43848352.00 30552842.00 L 44026776.00 30552842.00 L 44026776.00 31420244.00  zM 43829926.00 31420244.00 L 43651502.00 31420244.00 L 43651502.00 30552842.00 L 43829926.00 30552842.00 L 43829926.00 31420244.00  zM 44223627.00 33152528.00 L 44045203.00 33152528.00 L 44045203.00 32285126.00 L 44223627.00 32285126.00 L 44223627.00 33152528.00  zM 44026776.00 33152528.00 L 43848352.00 33152528.00 L 43848352.00 32285126.00 L 44026776.00 32285126.00 L 44026776.00 33152528.00  zM 48220196.60 35220161.06 m -633585.94 0 a 633585.94 633585.94 0 1 1 1267171.88 0a 633585.94 633585.94 0 1 1 -1267171.88 0M 41841185.00 35972744.00 L 41469847.00 35972744.00 L 41469847.00 35262824.00 L 41570237.97 35262824.00 L 41527333.00 35234156.00 A 181279.69 181279.69 0 1 1 41783699.00 35234156.00 L 41740794.03 35262824.00 L 41841185.00 35262824.00 L 41841185.00 35972744.00  zM 48046602.00 37893744.00 L 48004294.00 37830424.30 L 48004294.00 37960933.00 L 47174294.00 37960933.00 L 47174294.00 37479359.00 L 48004294.00 37479359.00 L 48004294.00 37609867.70 L 48046602.00 37546548.00 A 245511.05 245511.05 0 1 1 48046602.00 37893744.00  zM 48046602.00 41893744.00 L 48004294.00 41830424.30 L 48004294.00 41960933.00 L 47174294.00 41960933.00 L 47174294.00 41479359.00 L 48004294.00 41479359.00 L 48004294.00 41609867.70 L 48046602.00 41546548.00 A 245511.05 245511.05 0 1 1 48046602.00 41893744.00  zM 48046602.00 39893744.00 L 48004294.00 39830424.30 L 48004294.00 39960933.00 L 47174294.00 39960933.00 L 47174294.00 39479359.00 L 48004294.00 39479359.00 L 48004294.00 39609867.70 L 48046602.00 39546548.00 A 245511.05 245511.05 0 1 1 48046602.00 39893744.00  zM 48393798.00 38546548.00 L 48436106.00 38609867.70 L 48436106.00 38479359.00 L 49266106.00 38479359.00 L 49266106.00 38960933.00 L 48436106.00 38960933.00 L 48436106.00 38830424.30 L 48393798.00 38893744.00 A 245511.05 245511.05 0 1 1 48393798.00 38546548.00  zM 48393798.00 40546548.00 L 48436106.00 40609867.70 L 48436106.00 40479359.00 L 49266106.00 40479359.00 L 49266106.00 40960933.00 L 48436106.00 40960933.00 L 48436106.00 40830424.30 L 48393798.00 40893744.00 A 245511.05 245511.05 0 1 1 48393798.00 40546548.00  zM 48046602.00 43893744.00 L 48004294.00 43830424.30 L 48004294.00 43960933.00 L 47174294.00 43960933.00 L 47174294.00 43479359.00 L 48004294.00 43479359.00 L 48004294.00 43609867.70 L 48046602.00 43546548.00 A 245511.05 245511.05 0 1 1 48046602.00 43893744.00  zM 48393798.00 42546548.00 L 48436106.00 42609867.70 L 48436106.00 42479359.00 L 49266106.00 42479359.00 L 49266106.00 42960933.00 L 48436106.00 42960933.00 L 48436106.00 42830424.30 L 48393798.00 42893744.00 A 245511.05 245511.05 0 1 1 48393798.00 42546548.00  zM 48393798.00 44546548.00 L 48436106.00 44609867.70 L 48436106.00 44479359.00 L 49266106.00 44479359.00 L 49266106.00 44960933.00 L 48436106.00 44960933.00 L 48436106.00 44830424.30 L 48393798.00 44893744.00 A 245511.05 245511.05 0 1 1 48393798.00 44546548.00  zM 48046602.00 45893744.00 L 48004294.00 45830424.30 L 48004294.00 45960933.00 L 47174294.00 45960933.00 L 47174294.00 45479359.00 L 48004294.00 45479359.00 L 48004294.00 45609867.70 L 48046602.00 45546548.00 A 245511.05 245511.05 0 1 1 48046602.00 45893744.00  zM 48393798.00 46546548.00 L 48436106.00 46609867.70 L 48436106.00 46479359.00 L 49266106.00 46479359.00 L 49266106.00 46960933.00 L 48436106.00 46960933.00 L 48436106.00 46830424.30 L 48393798.00 46893744.00 A 245511.05 245511.05 0 1 1 48393798.00 46546548.00  zM 48046602.00 47893744.00 L 48004294.00 47830424.30 L 48004294.00 47960933.00 L 47174294.00 47960933.00 L 47174294.00 47479359.00 L 48004294.00 47479359.00 L 48004294.00 47609867.70 L 48046602.00 47546548.00 A 245511.05 245511.05 0 1 1 48046602.00 47893744.00  zM 48393798.00 48546548.00 L 48436106.00 48609867.70 L 48436106.00 48479359.00 L 49266106.00 48479359.00 L 49266106.00 48960933.00 L 48436106.00 48960933.00 L 48436106.00 48830424.30 L 48393798.00 48893744.00 A 245511.05 245511.05 0 1 1 48393798.00 48546548.00  zM 48046602.00 49893744.00 L 48004294.00 49830424.30 L 48004294.00 49960933.00 L 47174294.00 49960933.00 L 47174294.00 49479359.00 L 48004294.00 49479359.00 L 48004294.00 49609867.70 L 48046602.00 49546548.00 A 245511.05 245511.05 0 1 1 48046602.00 49893744.00  zM 48046602.00 51893744.00 L 48004294.00 51830424.30 L 48004294.00 51960933.00 L 47174294.00 51960933.00 L 47174294.00 51479359.00 L 48004294.00 51479359.00 L 48004294.00 51609867.70 L 48046602.00 51546548.00 A 245511.05 245511.05 0 1 1 48046602.00 51893744.00  zM 48393798.00 50546548.00 L 48436106.00 50609867.70 L 48436106.00 50479359.00 L 49266106.00 50479359.00 L 49266106.00 50960933.00 L 48436106.00 50960933.00 L 48436106.00 50830424.30 L 48393798.00 50893744.00 A 245511.05 245511.05 0 1 1 48393798.00 50546548.00  zM 48393798.00 52546548.00 L 48436106.00 52609867.70 L 48436106.00 52479359.00 L 49266106.00 52479359.00 L 49266106.00 52960933.00 L 48436106.00 52960933.00 L 48436106.00 52830424.30 L 48393798.00 52893744.00 A 245511.05 245511.05 0 1 1 48393798.00 52546548.00  zM 48046602.00 53893744.00 L 48004294.00 53830424.30 L 48004294.00 53960933.00 L 47174294.00 53960933.00 L 47174294.00 53479359.00 L 48004294.00 53479359.00 L 48004294.00 53609867.70 L 48046602.00 53546548.00 A 245511.05 245511.05 0 1 1 48046602.00 53893744.00  zM 48393798.00 54546548.00 L 48436106.00 54609867.70 L 48436106.00 54479359.00 L 49266106.00 54479359.00 L 49266106.00 54960933.00 L 48436106.00 54960933.00 L 48436106.00 54830424.30 L 48393798.00 54893744.00 A 245511.05 245511.05 0 1 1 48393798.00 54546548.00  zM 48046602.00 55893744.00 L 48004294.00 55830424.30 L 48004294.00 55960933.00 L 47174294.00 55960933.00 L 47174294.00 55479359.00 L 48004294.00 55479359.00 L 48004294.00 55609867.70 L 48046602.00 55546548.00 A 245511.05 245511.05 0 1 1 48046602.00 55893744.00  zM 48393798.00 56546548.00 L 48436106.00 56609867.70 L 48436106.00 56479359.00 L 49266106.00 56479359.00 L 49266106.00 56960933.00 L 48436106.00 56960933.00 L 48436106.00 56830424.30 L 48393798.00 56893744.00 A 245511.05 245511.05 0 1 1 48393798.00 56546548.00  zM 48220196.60 59220161.06 m -633585.94 0 a 633585.94 633585.94 0 1 1 1267171.88 0a 633585.94 633585.94 0 1 1 -1267171.88 0"/>
</g>
</svg>
