<svg width="99.00000012mm" height="121.0871594mm" viewBox="0 0 38976378 47672110"  version="1.1" xmlns="http://www.w3.org/2000/svg" xmlns:xlink="http://www.w3.org/1999/xlink">
<desc>
Origin 0 0 Bound 10687011 14338257 38976378 47672110
</desc>
<g fill-rule="evenodd" fill="rgb(0, 0, 255)" stroke="black" stroke-width="1" transform="translate(0, 47672110) scale(1, -1) translate(-10687011, -14338257)">
<path id="N" d="M 16962755.38 60198000.38 m -130459.26 0 a 130459.26 130459.26 0 1 1 260918.51 0a 130459.26 130459.26 0 1 1 -260918.51 0M 16962754.76 60197998.92 m -80284.08 0 a 80284.08 80284.08 0 1 1 160568.17 0a 80284.08 80284.08 0 1 1 -160568.17 0"/>
<path id="N" d="M 19885287.00 32913610.00 L 20526753.00 32272144.00 L 24351949.00 32272144.00 A 64945.17 64945.17 0 0 0 24351949.00 32142256.00 L 20499853.00 32142256.00 L 20453931.00 32161278.00 L 19812465.00 32802744.00 L 14909391.00 32802744.00 A 64945.17 64945.17 0 0 0 14909391.00 32932632.00 L 19839365.00 32932632.00 L 19885287.00 32913610.00  z"/>
<path id="N" d="M 30635366.00 34775322.00 L 32172463.00 33238226.00 L 32191485.00 33192303.00 L 32191485.00 32718827.00 L 32175753.00 32680847.56 L 32175753.00 32325126.00 L 32077329.00 32325126.00 L 32077329.00 32680847.56 L 32061597.00 32718827.00 L 32061597.00 33165402.01 L 30543522.00 34683478.00 A 64942.34 64942.34 0 0 0 30635366.00 34775322.00  z"/>
<path id="N" d="M 13136106.00 56519359.00 L 12386106.00 56519359.00 L 12386106.00 56920933.00 L 13136106.00 56920933.00 L 13136106.00 56519359.00  z"/>
<path id="N" d="M 31585202.00 30999506.96 L 31590897.00 30985753.59 L 31590897.00 23591229.00 A 54118.70 54118.70 0 0 0 31482657.00 23591229.00 L 31481869.00 30986543.00 L 31486778.00 30998394.03 L 31486778.00 31380244.00 L 31585202.00 31380244.00 L 31585202.00 30999506.96  z"/>
<path id="N" d="M 25364177.00 35302824.00 L 25072839.00 35302824.00 L 25072839.00 35932744.00 L 25364177.00 35932744.00 L 25364177.00 35302824.00  z"/>
<path id="N" d="M 25076150.00 28982298.00 L 25679400.00 28982298.00 A 254898.66 254898.66 0 0 0 25679400.00 28472502.00 L 25149982.00 28472502.00 L 25076150.00 28398670.00 L 25076150.00 27989330.00 L 25226182.00 27839298.00 L 25679400.00 27839298.00 A 254898.66 254898.66 0 0 0 25679400.00 27329502.00 L 25120600.00 27329502.00 L 25076150.00 27338343.61 L 25076150.00 27127200.00 L 23975556.00 27127200.00 L 23975556.00 27789200.01 L 23875556.00 27789200.00 L 23875556.00 27141169.00 L 23076344.00 27141169.00 L 23076344.00 27789200.00 L 22976344.00 27789199.99 L 22976344.00 27041169.00 L 23358428.91 27041169.00 L 23383898.71 26991168.53 L 23373376.91 26976693.00 L 23292103.99 26976693.00 L 23292103.99 26876693.00 L 23320058.00 26876693.00 L 23320058.00 26463307.00 L 23292104.01 26463307.00 L 23292104.01 26363306.76 L 23386260.95 26363306.69 L 23417874.09 26313306.15 L 23409947.64 26296608.00 L 23370843.99 26296608.00 L 23370843.99 26196608.00 L 23438168.00 26196608.00 L 23438168.00 25822592.00 L 23103522.00 25822592.00 L 23103522.00 25909600.99 L 23003522.00 25909600.99 L 23003522.00 25806400.00 L 22920948.00 25806400.00 L 22920948.00 25909601.00 L 22820948.00 25909601.00 L 22820948.00 25802907.00 L 22810248.00 25802907.00 L 22810248.00 25270443.15 L 22973712.85 25106979.00 L 23269633.00 25106979.00 L 23280960.10 25104726.00 L 23469593.00 25104726.00 L 23469593.00 24868506.00 L 23075893.00 24868506.00 L 23075893.00 24872473.00 L 22925145.00 24872473.00 L 22880274.00 24881398.00 L 22842235.00 24906815.00 L 22610085.00 25138966.00 L 22584667.00 25177005.00 L 22575742.00 25221876.00 L 22575742.00 25802907.00 L 22565042.00 25802907.00 L 22565042.00 26216293.00 L 22820948.00 26216293.00 L 22820948.00 26109601.00 L 22920948.00 26109601.00 L 22920948.71 26346899.39 L 22970948.92 26363306.99 L 23092104.01 26363306.91 L 23092104.01 26463307.00 L 23064152.00 26463307.00 L 23064152.00 26876693.00 L 23092103.99 26876693.00 L 23092103.99 26976693.00 L 22928157.50 26976693.71 L 22920948.00 27026693.92 L 22920948.00 27230401.00 L 22820948.00 27230401.00 L 22820948.00 27123707.00 L 22565042.00 27123707.00 L 22565042.00 27537093.00 L 22820948.00 27537093.00 L 22820948.00 27430401.00 L 22920948.00 27430401.00 L 22920948.00 27890801.00 L 22820948.00 27890801.00 L 22820948.00 27784107.00 L 22565042.00 27784107.00 L 22565042.00 28197493.00 L 22820948.00 28197493.00 L 22820948.00 28090801.00 L 22920948.00 28090801.00 L 22920948.00 28297493.00 L 22730371.75 28297493.00 L 22711237.40 28343687.40 L 22930149.60 28562599.60 L 22976344.00 28543465.25 L 22976344.00 27989199.99 L 23076344.00 27989200.00 L 23076344.00 28637231.00 L 23375949.99 28637231.00 L 23375949.99 28737231.00 L 23170109.75 28737231.00 L 23150975.40 28783425.40 L 23552150.00 29184600.00 L 25076150.00 29184600.00 L 25076150.00 28982298.00  zM 23170843.99 26296608.00 L 23003522.00 26296608.00 L 23003522.00 26109600.99 L 23103522.00 26109600.99 L 23103522.00 26196608.00 L 23170843.99 26196608.00 L 23170843.99 26296608.00  zM 24302545.38 27967000.00 L 24200848.34 27967000.00 L 24210252.00 27931905.00 A 353016.46 353016.46 0 0 1 24401305.00 27740852.00 L 24436400.00 27731448.34 L 24436400.00 27833145.38 L 24356160.00 27886760.00 L 24302545.38 27967000.00  zM 24320105.31 28345680.31 L 24256330.00 28281905.00 L 24210252.00 28202095.00 L 24200848.34 28167000.00 L 24281502.00 28167000.00 L 24281502.00 28219400.00 L 24300905.00 28316945.00 L 24320105.31 28345680.31  zM 23975556.00 28737231.00 L 23575949.99 28737231.00 L 23575949.99 28637231.00 L 23875556.00 28637231.00 L 23875556.00 27989200.00 L 23975556.00 27989200.01 L 23975556.00 28737231.00  z"/>
<path id="N" d="M 39459217.00 18557448.36 L 39464125.00 18545599.00 L 39464125.00 16813315.00 L 39459217.00 16801465.64 L 39459217.00 16481462.36 L 39464125.00 16469613.00 L 39464125.00 15980952.32 L 39474920.00 15954890.00 L 39474920.00 15509532.81 L 39518345.00 15500895.00 A 254898.03 254898.03 0 1 0 39323255.00 15500895.00 L 39366680.00 15509532.81 L 39366680.00 15939621.91 L 39355885.00 15965687.41 L 39355885.00 16469613.00 L 39360793.00 16481462.36 L 39360793.00 16801465.64 L 39355885.00 16813315.00 L 39355885.00 18545599.00 L 39360793.00 18557448.36 L 39360793.00 18939300.00 L 39459217.00 18939300.00 L 39459217.00 18557448.36  z"/>
<path id="N" d="M 39046695.00 33811455.00 L 39022096.81 33774641.19 L 39448274.00 33348464.00 L 39464125.00 33310195.00 L 39464125.00 33062529.00 L 39459217.00 33050679.64 L 39459217.00 32730676.36 L 39464125.00 32718827.00 L 39464125.00 30986543.00 L 39459217.00 30974693.64 L 39459217.00 30592842.00 L 39360793.00 30592842.00 L 39360793.00 30974693.64 L 39355885.00 30986543.00 L 39355885.00 32718827.00 L 39360793.00 32730676.36 L 39360793.00 33050679.64 L 39355885.00 33062529.00 L 39355885.00 33287777.00 L 38945558.81 33698103.19 L 38908745.00 33673505.00 A 254896.24 254896.24 0 1 0 39046695.00 33811455.00  z"/>
<path id="N" d="M 29419847.00 32730676.36 L 29424755.00 32718827.00 L 29424755.00 30643628.00 L 29419847.00 30631778.64 L 29419847.00 30592842.00 L 29396386.04 30592842.00 L 29086656.00 30283111.05 L 29086656.00 30210770.95 L 29136240.00 30177640.00 A 254898.66 254898.66 0 1 0 28956000.00 30252298.00 L 28978416.00 30247839.16 L 28978415.00 30305529.00 L 28994267.00 30343798.00 L 29316515.00 30666045.05 L 29316515.00 32718827.00 L 29321423.00 32730676.36 L 29321423.00 33112528.00 L 29419847.00 33112528.00 L 29419847.00 32730676.36  z"/>
<path id="N" d="M 30994650.00 18557448.36 L 30999558.00 18545599.00 L 30999558.00 15939007.00 L 30991320.00 15919118.03 L 30991320.00 15458732.81 L 31034745.00 15450095.00 A 254898.03 254898.03 0 1 0 30839655.00 15450095.00 L 30883080.00 15458732.81 L 30883079.00 15930769.00 L 30891318.00 15950659.13 L 30891318.00 18545599.00 L 30896226.00 18557448.36 L 30896226.00 18939300.00 L 30994650.00 18939300.00 L 30994650.00 18557448.36  z"/>
<path id="N" d="M 22820948.00 26463307.00 L 22565042.00 26463307.00 L 22565042.00 26876693.00 L 22820948.00 26876693.00 L 22820948.00 26463307.00  z"/>
<path id="N" d="M 38301185.00 34279202.00 L 38009847.00 34279202.00 L 38009847.00 34909122.00 L 38301185.00 34909122.00 L 38301185.00 34279202.00  z"/>
<path id="N" d="M 37801185.00 35302824.00 L 37509847.00 35302824.00 L 37509847.00 35932744.00 L 37801185.00 35932744.00 L 37801185.00 35302824.00  z"/>
<path id="N" d="M 13136106.00 38519359.00 L 12386106.00 38519359.00 L 12386106.00 38920933.00 L 13136106.00 38920933.00 L 13136106.00 38519359.00  z"/>
<path id="N" d="M 32410849.00 33455600.00 L 32409664.44 33449644.47 L 32558511.00 33300798.00 L 32574362.00 33262526.59 L 32574362.00 32718827.00 L 32569454.00 32706977.64 L 32569454.00 32325126.00 L 32471030.00 32325126.00 L 32471030.00 32706977.64 L 32466122.00 32718827.00 L 32466122.00 33240111.90 L 32353877.98 33352355.24 L 32332173.00 33337852.00 A 127456.70 127456.70 0 1 0 32410849.00 33455600.00  z"/>
<path id="N" d="M 13846320.00 16294224.86 L 13846321.00 16012309.00 L 13830469.00 15974040.00 L 13685848.00 15829419.00 A 54119.43 54119.43 0 0 0 13609310.00 15905957.00 L 13738080.00 16034727.00 L 13738080.00 16294224.86 L 13702080.00 16318280.00 A 127441.40 127441.40 0 1 0 13846320.00 16294224.86  z"/>
<path id="N" d="M 11874294.00 39519359.00 L 11124294.00 39519359.00 L 11124294.00 39920933.00 L 11874294.00 39920933.00 L 11874294.00 39519359.00  z"/>
<path id="N" d="M 33160005.00 30998392.36 L 33164913.00 30986543.00 L 33164913.00 24075342.00 A 54118.70 54118.70 0 0 0 33056673.00 24075342.00 L 33056673.00 30986543.00 L 33061581.00 30998392.36 L 33061581.00 31380244.00 L 33160005.00 31380244.00 L 33160005.00 30998392.36  z"/>
<path id="N" d="M 22364177.00 35302824.00 L 22072839.00 35302824.00 L 22072839.00 35932744.00 L 22364177.00 35932744.00 L 22364177.00 35302824.00  z"/>
<path id="N" d="M 22386916.00 25089194.11 L 22422457.00 25082124.00 L 22458843.00 25057812.00 L 22760343.53 24756310.55 L 22772477.00 24753897.00 L 22822094.00 24720744.00 L 22861146.00 24681692.00 L 22894299.00 24632075.00 L 22905941.00 24573548.00 L 22905941.00 24199850.00 L 22930167.00 24199850.00 L 22930167.00 23806150.00 L 22905941.00 23806150.00 L 22905941.00 23615650.00 L 22930167.00 23615650.00 L 22930167.00 23221950.00 L 22575837.00 23221950.00 L 22575837.00 23615650.00 L 22600063.00 23615650.00 L 22600063.00 23806150.00 L 22575837.00 23806150.00 L 22575837.00 24199850.00 L 22600063.00 24199850.00 L 22600063.00 24513051.01 L 22572653.00 24554073.00 L 22561011.00 24612600.00 L 22565295.03 24634136.78 L 22333080.10 24866351.00 L 22198176.00 24866351.00 L 22190068.04 24867963.71 L 22181950.97 24866351.00 L 21908881.00 24866351.00 L 21808927.11 24766397.11 A 126486.88 126486.88 0 1 0 21642827.00 24933548.00 L 21662833.27 24937527.27 L 21783118.00 25057812.00 L 21819504.00 25082124.00 L 21862429.03 25090661.00 L 21993216.00 25090661.00 L 21993216.00 25104726.00 L 22386916.00 25104726.00 L 22386916.00 25089194.11  z"/>
<path id="N" d="M 14938666.00 60347607.00 L 14938666.00 59757055.00 A 180637.35 180637.35 0 0 0 14577394.00 59757055.00 L 14577394.00 60347607.00 A 180637.35 180637.35 0 0 0 14938666.00 60347607.00  zM 14637606.00 60347607.00 L 14637606.00 59757055.00 A 120431.73 120431.73 0 0 1 14878454.00 59757055.00 L 14878454.00 60347607.00 A 120431.73 120431.73 0 0 1 14637606.00 60347607.00  z"/>
<path id="N" d="M 18344178.00 61540520.00 L 18344178.00 61225560.00 A 180637.35 180637.35 0 0 0 17982906.00 61225560.00 L 17982906.00 61540520.00 A 180637.35 180637.35 0 0 0 18344178.00 61540520.00  zM 18043118.00 61540520.00 L 18043118.00 61225560.00 A 120431.73 120431.73 0 0 1 18283966.00 61225560.00 L 18283966.00 61540520.00 A 120431.73 120431.73 0 0 1 18043118.00 61540520.00  z"/>
<path id="N" d="M 14938666.00 61540520.00 L 14938666.00 61225560.00 A 180637.35 180637.35 0 0 0 14577394.00 61225560.00 L 14577394.00 61540520.00 A 180637.35 180637.35 0 0 0 14938666.00 61540520.00  zM 14637606.00 61540520.00 L 14637606.00 61225560.00 A 120431.73 120431.73 0 0 1 14878454.00 61225560.00 L 14878454.00 61540520.00 A 120431.73 120431.73 0 0 1 14637606.00 61540520.00  z"/>
<path id="N" d="M 18344178.00 60347607.00 L 18344178.00 59757055.00 A 180637.35 180637.35 0 0 0 17982906.00 59757055.00 L 17982906.00 60347607.00 A 180637.35 180637.35 0 0 0 18344178.00 60347607.00  zM 18043118.00 60347607.00 L 18043118.00 59757055.00 A 120431.73 120431.73 0 0 1 18283966.00 59757055.00 L 18283966.00 60347607.00 A 120431.73 120431.73 0 0 1 18043118.00 60347607.00  z"/>
<path id="N" d="M 17462490.06 17017359.06 m -240860.29 0 a 240860.29 240860.29 0 1 1 481720.58 0a 240860.29 240860.29 0 1 1 -481720.58 0M 17462501.38 17017362.09 m -140500.91 0 a 140500.91 140500.91 0 1 1 281001.82 0a 140500.91 140500.91 0 1 1 -281001.82 0"/>
<path id="N" d="M 24269690.06 17042759.06 m -240860.29 0 a 240860.29 240860.29 0 1 1 481720.58 0a 240860.29 240860.29 0 1 1 -481720.58 0M 24269701.38 17042762.09 m -140500.91 0 a 140500.91 140500.91 0 1 1 281001.82 0a 140500.91 140500.91 0 1 1 -281001.82 0"/>
<path id="N" d="M 15289526.38 59666504.38 m -130459.26 0 a 130459.26 130459.26 0 1 1 260918.51 0a 130459.26 130459.26 0 1 1 -260918.51 0M 15289525.76 59666502.92 m -80284.08 0 a 80284.08 80284.08 0 1 1 160568.17 0a 80284.08 80284.08 0 1 1 -160568.17 0"/>
<path id="N" d="M 17632046.38 60198000.38 m -130459.26 0 a 130459.26 130459.26 0 1 1 260918.51 0a 130459.26 130459.26 0 1 1 -260918.51 0M 17632045.76 60197998.92 m -80284.08 0 a 80284.08 80284.08 0 1 1 160568.17 0a 80284.08 80284.08 0 1 1 -160568.17 0"/>
<path id="N" d="M 17632046.38 59666504.38 m -130459.26 0 a 130459.26 130459.26 0 1 1 260918.51 0a 130459.26 130459.26 0 1 1 -260918.51 0M 17632045.76 59666502.92 m -80284.08 0 a 80284.08 80284.08 0 1 1 160568.17 0a 80284.08 80284.08 0 1 1 -160568.17 0"/>
<path id="N" d="M 15289526.38 60198000.38 m -130459.26 0 a 130459.26 130459.26 0 1 1 260918.51 0a 130459.26 130459.26 0 1 1 -260918.51 0M 15289525.76 60197998.92 m -80284.08 0 a 80284.08 80284.08 0 1 1 160568.17 0a 80284.08 80284.08 0 1 1 -160568.17 0"/>
<path id="N" d="M 29971993.87 31851593.87 m -127457.60 0 a 127457.60 127457.60 0 1 1 254915.19 0a 127457.60 127457.60 0 1 1 -254915.19 0"/>
<path id="N" d="M 31673793.87 31851593.87 m -127457.60 0 a 127457.60 127457.60 0 1 1 254915.19 0a 127457.60 127457.60 0 1 1 -254915.19 0"/>
<path id="N" d="M 21513793.87 27939993.87 m -127457.60 0 a 127457.60 127457.60 0 1 1 254915.19 0a 127457.60 127457.60 0 1 1 -254915.19 0"/>
<path id="N" d="M 34772593.87 17678393.87 m -127457.60 0 a 127457.60 127457.60 0 1 1 254915.19 0a 127457.60 127457.60 0 1 1 -254915.19 0"/>
<path id="N" d="M 19735793.87 22199593.87 m -127457.60 0 a 127457.60 127457.60 0 1 1 254915.19 0a 127457.60 127457.60 0 1 1 -254915.19 0"/>
<path id="N" d="M 41782993.87 31851593.87 m -127457.60 0 a 127457.60 127457.60 0 1 1 254915.19 0a 127457.60 127457.60 0 1 1 -254915.19 0"/>
<path id="N" d="M 21539193.87 26669993.87 m -127457.60 0 a 127457.60 127457.60 0 1 1 254915.19 0a 127457.60 127457.60 0 1 1 -254915.19 0"/>
<path id="N" d="M 22815543.87 22809193.87 m -127457.60 0 a 127457.60 127457.60 0 1 1 254915.19 0a 127457.60 127457.60 0 1 1 -254915.19 0"/>
<path id="N" d="M 21189943.87 24485593.87 m -127457.60 0 a 127457.60 127457.60 0 1 1 254915.19 0a 127457.60 127457.60 0 1 1 -254915.19 0"/>
<path id="N" d="M 24314143.87 24434793.87 m -127457.60 0 a 127457.60 127457.60 0 1 1 254915.19 0a 127457.60 127457.60 0 1 1 -254915.19 0"/>
<path id="N" d="M 21545543.87 26009593.87 m -127457.60 0 a 127457.60 127457.60 0 1 1 254915.19 0a 127457.60 127457.60 0 1 1 -254915.19 0"/>
<path id="N" d="M 40004993.87 31851593.87 m -127457.60 0 a 127457.60 127457.60 0 1 1 254915.19 0a 127457.60 127457.60 0 1 1 -254915.19 0"/>
<path id="N" d="M 21545543.87 27304993.87 m -127457.60 0 a 127457.60 127457.60 0 1 1 254915.19 0a 127457.60 127457.60 0 1 1 -254915.19 0"/>
<path id="N" d="M 41757593.87 17678393.87 m -127457.60 0 a 127457.60 127457.60 0 1 1 254915.19 0a 127457.60 127457.60 0 1 1 -254915.19 0"/>
<path id="N" d="M 20243793.87 18973793.87 m -127457.60 0 a 127457.60 127457.60 0 1 1 254915.19 0a 127457.60 127457.60 0 1 1 -254915.19 0"/>
<path id="N" d="M 22188998.87 18863738.87 m -127457.60 0 a 127457.60 127457.60 0 1 1 254915.19 0a 127457.60 127457.60 0 1 1 -254915.19 0"/>
<path id="N" d="M 22129743.87 20675593.87 m -127457.60 0 a 127457.60 127457.60 0 1 1 254915.19 0a 127457.60 127457.60 0 1 1 -254915.19 0"/>
<path id="N" d="M 43510193.87 31851593.87 m -127457.60 0 a 127457.60 127457.60 0 1 1 254915.19 0a 127457.60 127457.60 0 1 1 -254915.19 0"/>
<path id="N" d="M 33248593.87 31876993.87 m -127457.60 0 a 127457.60 127457.60 0 1 1 254915.19 0a 127457.60 127457.60 0 1 1 -254915.19 0"/>
<path id="N" d="M 34569393.87 33426393.87 m -127457.60 0 a 127457.60 127457.60 0 1 1 254915.19 0a 127457.60 127457.60 0 1 1 -254915.19 0"/>
<path id="N" d="M 18897593.87 21437593.87 m -127457.60 0 a 127457.60 127457.60 0 1 1 254915.19 0a 127457.60 127457.60 0 1 1 -254915.19 0"/>
<path id="N" d="M 19913593.87 18110193.87 m -127457.60 0 a 127457.60 127457.60 0 1 1 254915.19 0a 127457.60 127457.60 0 1 1 -254915.19 0"/>
<path id="N" d="M 33299393.87 17652993.87 m -127457.60 0 a 127457.60 127457.60 0 1 1 254915.19 0a 127457.60 127457.60 0 1 1 -254915.19 0"/>
<path id="N" d="M 39979593.87 17652993.87 m -127457.60 0 a 127457.60 127457.60 0 1 1 254915.19 0a 127457.60 127457.60 0 1 1 -254915.19 0"/>
<path id="N" d="M 43484793.87 17652993.87 m -127457.60 0 a 127457.60 127457.60 0 1 1 254915.19 0a 127457.60 127457.60 0 1 1 -254915.19 0"/>
<path id="N" d="M 21026150.87 21248400.87 m -127457.60 0 a 127457.60 127457.60 0 1 1 254915.19 0a 127457.60 127457.60 0 1 1 -254915.19 0"/>
<path id="N" d="M 23564850.00 19722783.00 L 23171150.00 19722783.00 L 23171150.00 20077113.00 L 23564850.00 20077113.00 L 23564850.00 19722783.00  z"/>
<path id="N" d="M 20714017.00 18243550.00 L 20359687.00 18243550.00 L 20359687.00 18637250.00 L 20714017.00 18637250.00 L 20714017.00 18243550.00  z"/>
<path id="N" d="M 24043958.00 24722771.00 L 23669942.00 24722771.00 L 23669942.00 25057417.00 L 24043958.00 25057417.00 L 24043958.00 24722771.00  z"/>
<path id="N" d="M 22955250.00 19722783.00 L 22561550.00 19722783.00 L 22561550.00 20077113.00 L 22955250.00 20077113.00 L 22955250.00 19722783.00  z"/>
<path id="N" d="M 34301185.00 34279202.00 L 34009847.00 34279202.00 L 34009847.00 34909122.00 L 34301185.00 34909122.00 L 34301185.00 34279202.00  z"/>
<path id="N" d="M 18864177.00 34279202.00 L 18572839.00 34279202.00 L 18572839.00 34909122.00 L 18864177.00 34909122.00 L 18864177.00 34279202.00  z"/>
<path id="N" d="M 19899948.00 18504534.00 L 19368452.00 18504534.00 L 19368452.00 18957290.00 L 19899948.00 18957290.00 L 19899948.00 18504534.00  z"/>
<path id="N" d="M 34801185.00 35302824.00 L 34509847.00 35302824.00 L 34509847.00 35932744.00 L 34801185.00 35932744.00 L 34801185.00 35302824.00  z"/>
<path id="N" d="M 35301185.00 34279202.00 L 35009847.00 34279202.00 L 35009847.00 34909122.00 L 35301185.00 34909122.00 L 35301185.00 34279202.00  z"/>
<path id="N" d="M 41230871.00 32325126.00 L 41132447.00 32325126.00 L 41132447.00 33112528.00 L 41230871.00 33112528.00 L 41230871.00 32325126.00  z"/>
<path id="N" d="M 32372603.00 32325126.00 L 32274179.00 32325126.00 L 32274179.00 33112528.00 L 32372603.00 33112528.00 L 32372603.00 32325126.00  z"/>
<path id="N" d="M 40049768.00 32325126.00 L 39951344.00 32325126.00 L 39951344.00 33112528.00 L 40049768.00 33112528.00 L 40049768.00 32325126.00  z"/>
<path id="N" d="M 43593076.00 30592842.00 L 43494652.00 30592842.00 L 43494652.00 31380244.00 L 43593076.00 31380244.00 L 43593076.00 30592842.00  z"/>
<path id="N" d="M 22303700.00 19666600.00 L 21928700.00 19666600.00 L 21928700.00 19906600.00 L 22303700.00 19906600.00 L 22303700.00 19666600.00  z"/>
<path id="N" d="M 22151657.00 27784107.00 L 21895751.00 27784107.00 L 21895751.00 28197493.00 L 22151657.00 28197493.00 L 22151657.00 27784107.00  z"/>
<path id="N" d="M 22151657.00 27123707.00 L 21895751.00 27123707.00 L 21895751.00 27537093.00 L 22151657.00 27537093.00 L 22151657.00 27123707.00  z"/>
<path id="N" d="M 22151657.00 26463307.00 L 21895751.00 26463307.00 L 21895751.00 26876693.00 L 22151657.00 26876693.00 L 22151657.00 26463307.00  z"/>
<path id="N" d="M 22151657.00 25802907.00 L 21895751.00 25802907.00 L 21895751.00 26216293.00 L 22151657.00 26216293.00 L 22151657.00 25802907.00  z"/>
<path id="N" d="M 20001548.00 21352510.00 L 19470052.00 21352510.00 L 19470052.00 21805266.00 L 20001548.00 21805266.00 L 20001548.00 21352510.00  z"/>
<path id="N" d="M 11874294.00 37519359.00 L 11124294.00 37519359.00 L 11124294.00 37920933.00 L 11874294.00 37920933.00 L 11874294.00 37519359.00  z"/>
<path id="N" d="M 33947406.00 16419614.00 L 33848982.00 16419614.00 L 33848982.00 17207016.00 L 33947406.00 17207016.00 L 33947406.00 16419614.00  z"/>
<path id="N" d="M 43593076.00 32325126.00 L 43494652.00 32325126.00 L 43494652.00 33112528.00 L 43593076.00 33112528.00 L 43593076.00 32325126.00  z"/>
<path id="N" d="M 40049768.00 16419614.00 L 39951344.00 16419614.00 L 39951344.00 17207016.00 L 40049768.00 17207016.00 L 40049768.00 16419614.00  z"/>
<path id="N" d="M 41230871.00 16419614.00 L 41132447.00 16419614.00 L 41132447.00 17207016.00 L 41230871.00 17207016.00 L 41230871.00 16419614.00  z"/>
<path id="N" d="M 33947406.00 18151898.00 L 33848982.00 18151898.00 L 33848982.00 18939300.00 L 33947406.00 18939300.00 L 33947406.00 18151898.00  z"/>
<path id="N" d="M 42411973.00 18151898.00 L 42313549.00 18151898.00 L 42313549.00 18939300.00 L 42411973.00 18939300.00 L 42411973.00 18151898.00  z"/>
<path id="N" d="M 31585201.00 18151898.00 L 31486777.00 18151898.00 L 31486777.00 18939300.00 L 31585201.00 18939300.00 L 31585201.00 18151898.00  z"/>
<path id="N" d="M 32766304.00 16419614.00 L 32667880.00 16419614.00 L 32667880.00 17207016.00 L 32766304.00 17207016.00 L 32766304.00 16419614.00  z"/>
<path id="N" d="M 42411973.00 16419614.00 L 42313549.00 16419614.00 L 42313549.00 17207016.00 L 42411973.00 17207016.00 L 42411973.00 16419614.00  z"/>
<path id="N" d="M 35128509.00 16419614.00 L 35030085.00 16419614.00 L 35030085.00 17207016.00 L 35128509.00 17207016.00 L 35128509.00 16419614.00  z"/>
<path id="N" d="M 41230871.00 30592842.00 L 41132447.00 30592842.00 L 41132447.00 31380244.00 L 41230871.00 31380244.00 L 41230871.00 30592842.00  z"/>
<path id="N" d="M 32372603.00 30592842.00 L 32274179.00 30592842.00 L 32274179.00 31380244.00 L 32372603.00 31380244.00 L 32372603.00 30592842.00  z"/>
<path id="N" d="M 30010398.00 30592842.00 L 29911974.00 30592842.00 L 29911974.00 31380244.00 L 30010398.00 31380244.00 L 30010398.00 30592842.00  z"/>
<path id="N" d="M 40049768.00 30592842.00 L 39951344.00 30592842.00 L 39951344.00 31380244.00 L 40049768.00 31380244.00 L 40049768.00 30592842.00  z"/>
<path id="N" d="M 33553706.00 30592842.00 L 33455282.00 30592842.00 L 33455282.00 31380244.00 L 33553706.00 31380244.00 L 33553706.00 30592842.00  z"/>
<path id="N" d="M 31585201.00 16419614.00 L 31486777.00 16419614.00 L 31486777.00 17207016.00 L 31585201.00 17207016.00 L 31585201.00 16419614.00  z"/>
<path id="N" d="M 30010398.00 32325126.00 L 29911974.00 32325126.00 L 29911974.00 33112528.00 L 30010398.00 33112528.00 L 30010398.00 32325126.00  z"/>
<path id="N" d="M 42411973.00 32325126.00 L 42313549.00 32325126.00 L 42313549.00 33112528.00 L 42411973.00 33112528.00 L 42411973.00 32325126.00  z"/>
<path id="N" d="M 31191501.00 32325126.00 L 31093077.00 32325126.00 L 31093077.00 33112528.00 L 31191501.00 33112528.00 L 31191501.00 32325126.00  z"/>
<path id="N" d="M 43593076.00 16419614.00 L 43494652.00 16419614.00 L 43494652.00 17207016.00 L 43593076.00 17207016.00 L 43593076.00 16419614.00  z"/>
<path id="N" d="M 35128509.00 18151898.00 L 35030085.00 18151898.00 L 35030085.00 18939300.00 L 35128509.00 18939300.00 L 35128509.00 18151898.00  z"/>
<path id="N" d="M 43593076.00 18151898.00 L 43494652.00 18151898.00 L 43494652.00 18939300.00 L 43593076.00 18939300.00 L 43593076.00 18151898.00  z"/>
<path id="N" d="M 41230871.00 18151898.00 L 41132447.00 18151898.00 L 41132447.00 18939300.00 L 41230871.00 18939300.00 L 41230871.00 18151898.00  z"/>
<path id="N" d="M 40049768.00 18151898.00 L 39951344.00 18151898.00 L 39951344.00 18939300.00 L 40049768.00 18939300.00 L 40049768.00 18151898.00  z"/>
<path id="N" d="M 31191501.00 30592842.00 L 31093077.00 30592842.00 L 31093077.00 31380244.00 L 31191501.00 31380244.00 L 31191501.00 30592842.00  z"/>
<path id="N" d="M 33553706.00 32325126.00 L 33455282.00 32325126.00 L 33455282.00 33112528.00 L 33553706.00 33112528.00 L 33553706.00 32325126.00  z"/>
<path id="N" d="M 32766304.00 18151898.00 L 32667880.00 18151898.00 L 32667880.00 18939300.00 L 32766304.00 18939300.00 L 32766304.00 18151898.00  z"/>
<path id="N" d="M 42411973.00 30592842.00 L 42313549.00 30592842.00 L 42313549.00 31380244.00 L 42411973.00 31380244.00 L 42411973.00 30592842.00  z"/>
<path id="N" d="M 44615270.00 33566269.00 L 45619869.00 32561670.00 L 45635720.00 32523398.59 L 45635720.00 14998368.00 A 54118.70 54118.70 0 0 0 45527480.00 14998368.00 L 45527480.00 32500983.98 L 44554583.02 33473880.00 L 39976617.11 33473880.00 L 39857826.00 33355088.11 L 39857826.00 32718827.00 L 39852918.00 32706977.64 L 39852918.00 32325126.00 L 39754494.00 32325126.00 L 39754494.00 32706977.64 L 39749586.00 32718827.00 L 39749585.00 33377506.00 L 39765437.00 33415775.00 L 39915931.00 33566269.00 L 39954202.41 33582120.00 L 44577001.00 33582121.00 L 44615270.00 33566269.00  z"/>
<path id="N" d="M 32801185.00 35302824.00 L 32509847.00 35302824.00 L 32509847.00 35932744.00 L 32801185.00 35932744.00 L 32801185.00 35302824.00  z"/>
<path id="N" d="M 14676321.00 32430922.00 L 15174611.96 31932632.00 L 24266995.00 31932632.00 A 64945.17 64945.17 0 1 0 24266995.00 31802744.00 L 15147711.00 31802744.00 L 15101789.00 31821765.00 L 14603498.96 32320056.00 L 14061787.00 32320056.00 L 13973121.85 32231390.85 L 13965122.00 32212078.00 L 13904325.00 32151281.00 L 13904325.00 32008476.00 L 13885303.00 31962553.00 L 13744515.00 31821766.00 A 129065.67 129065.67 0 0 0 13601657.00 31821766.00 A 64942.34 64942.34 0 0 0 13647579.00 31932632.00 L 13671692.86 31932632.00 L 13774437.00 32035376.86 L 13774437.00 32178181.00 L 13793459.00 32224103.00 L 13865278.15 32295922.15 L 13873278.00 32315235.00 L 13988965.00 32430922.00 L 14034887.00 32449944.00 L 14630399.00 32449944.00 L 14676321.00 32430922.00  z"/>
<path id="N" d="M 30560808.00 34595322.00 L 31975612.00 33180518.00 L 31994634.00 33134596.00 L 31994634.00 32718827.00 L 31978902.00 32680847.56 L 31978902.00 32325126.00 L 31880478.00 32325126.00 L 31880478.00 32680847.56 L 31864746.00 32718827.00 L 31864746.00 33107696.00 L 30468964.00 34503478.00 A 64942.34 64942.34 0 0 0 30560808.00 34595322.00  z"/>
<path id="N" d="M 11874294.00 55519359.00 L 11124294.00 55519359.00 L 11124294.00 55920933.00 L 11874294.00 55920933.00 L 11874294.00 55519359.00  z"/>
<path id="N" d="M 20657095.00 29899855.00 L 20625518.00 29852596.65 L 20625518.00 21428700.00 L 20619197.26 21396922.85 L 21536611.00 20479510.00 L 21562028.00 20441471.00 L 21570953.00 20396600.00 L 21570953.00 19942680.07 L 21974780.93 19538853.00 L 22178700.00 19538853.00 L 22190027.10 19536600.00 L 22303700.00 19536600.00 L 22303700.00 19485705.00 L 22561550.00 19485705.00 L 22561550.00 19545617.00 L 22955250.00 19545617.00 L 22955250.00 19485705.00 L 23171150.00 19485705.00 L 23171150.00 19545617.00 L 23564850.00 19545617.00 L 23564850.00 19191287.00 L 23171150.00 19191287.00 L 23171150.00 19251199.00 L 22955250.00 19251199.00 L 22955250.00 19191287.00 L 22561550.00 19191287.00 L 22561550.00 19251199.00 L 22231848.00 19251199.00 L 22186977.00 19260124.00 L 22148938.00 19285541.00 L 22137879.21 19296600.00 L 21928700.00 19296600.00 L 21928700.00 19304347.00 L 21881342.00 19313272.00 L 21843302.00 19338690.00 L 21370790.00 19811203.00 L 21345372.00 19849242.00 L 21336447.00 19894113.00 L 21336447.00 20348032.03 L 20453377.15 21231102.74 L 20421600.00 21224782.00 A 203916.30 203916.30 0 0 0 20217682.00 21428700.00 L 20217682.00 29852596.65 L 20186105.00 29899855.00 A 254896.24 254896.24 0 1 0 20657095.00 29899855.00  z"/>
<path id="N" d="M 15624172.38 60198000.38 m -130459.26 0 a 130459.26 130459.26 0 1 1 260918.51 0a 130459.26 130459.26 0 1 1 -260918.51 0M 15624171.76 60197998.92 m -80284.08 0 a 80284.08 80284.08 0 1 1 160568.17 0a 80284.08 80284.08 0 1 1 -160568.17 0"/>
<path id="N" d="M 17297400.38 60198000.38 m -130459.26 0 a 130459.26 130459.26 0 1 1 260918.51 0a 130459.26 130459.26 0 1 1 -260918.51 0M 17297399.76 60197998.92 m -80284.08 0 a 80284.08 80284.08 0 1 1 160568.17 0a 80284.08 80284.08 0 1 1 -160568.17 0"/>
<path id="N" d="M 15624172.38 59666504.38 m -130459.26 0 a 130459.26 130459.26 0 1 1 260918.51 0a 130459.26 130459.26 0 1 1 -260918.51 0M 15624171.76 59666502.92 m -80284.08 0 a 80284.08 80284.08 0 1 1 160568.17 0a 80284.08 80284.08 0 1 1 -160568.17 0"/>
<path id="N" d="M 17297400.38 59666504.38 m -130459.26 0 a 130459.26 130459.26 0 1 1 260918.51 0a 130459.26 130459.26 0 1 1 -260918.51 0M 17297399.76 59666502.92 m -80284.08 0 a 80284.08 80284.08 0 1 1 160568.17 0a 80284.08 80284.08 0 1 1 -160568.17 0"/>
<path id="N" d="M 30099701.00 33875322.00 L 30794510.00 33180514.00 L 30813532.00 33134591.00 L 30813532.00 32718827.00 L 30797800.00 32680847.56 L 30797800.00 32325126.00 L 30699376.00 32325126.00 L 30699376.00 32680847.56 L 30683644.00 32718827.00 L 30683644.00 33107690.03 L 30026878.97 33764456.00 L 27273839.99 33764456.00 L 24582861.00 31073478.00 L 24536939.00 31054456.00 L 20148100.99 31054456.00 L 17343322.00 28249678.00 L 17297400.00 28230656.00 L 14102391.86 28230656.00 L 14007696.00 28135960.86 L 14007696.00 28008476.00 L 13988674.00 27962553.00 L 13847886.00 27821766.00 L 13801964.00 27802744.00 L 13647579.00 27802744.00 A 64945.17 64945.17 0 0 0 13647579.00 27932632.00 L 13775063.86 27932632.00 L 13877808.00 28035376.86 L 13877808.00 28162861.00 L 13896830.00 28208783.00 L 14029568.00 28341522.00 L 14075491.00 28360544.00 L 17270499.99 28360544.00 L 20075277.00 31165322.00 L 20121200.00 31184344.00 L 24510038.99 31184344.00 L 27201017.00 33875323.00 L 27246939.00 33894344.00 L 30053779.00 33894344.00 L 30099701.00 33875322.00  z"/>
<path id="N" d="M 11874294.00 51519359.00 L 11124294.00 51519359.00 L 11124294.00 51920933.00 L 11874294.00 51920933.00 L 11874294.00 51519359.00  z"/>
<path id="N" d="M 40443469.00 30998392.36 L 40448377.00 30986543.00 L 40448377.00 29536987.00 L 40433720.00 29501600.67 L 40433720.00 28460575.14 L 40469720.00 28436520.00 A 127441.40 127441.40 0 1 0 40289480.00 28436520.00 L 40325480.00 28460575.14 L 40325479.00 29522330.00 L 40340137.00 29557716.51 L 40340137.00 30986543.00 L 40345045.00 30998392.36 L 40345045.00 31380244.00 L 40443469.00 31380244.00 L 40443469.00 30998392.36  z"/>
<path id="N" d="M 41801185.00 35302824.00 L 41509847.00 35302824.00 L 41509847.00 35932744.00 L 41801185.00 35932744.00 L 41801185.00 35302824.00  z"/>
<path id="N" d="M 43789926.00 30999506.96 L 43795621.00 30985753.59 L 43795621.00 30575916.99 L 44945469.00 29426069.00 L 44961320.00 29387800.00 L 44961320.00 15323968.00 A 54118.70 54118.70 0 0 0 44853080.00 15323968.00 L 44853080.00 29365382.99 L 43703232.00 30515230.00 L 43687381.00 30553501.41 L 43686593.00 30986543.00 L 43691502.00 30998394.03 L 43691502.00 31380244.00 L 43789926.00 31380244.00 L 43789926.00 30999506.96  z"/>
<path id="N" d="M 33801185.00 35302824.00 L 33509847.00 35302824.00 L 33509847.00 35932744.00 L 33801185.00 35932744.00 L 33801185.00 35302824.00  z"/>
<path id="N" d="M 30404099.00 30654692.78 L 30409008.00 30642841.00 L 30409008.00 24347234.96 L 30762317.13 23993925.05 A 126293.84 126293.84 0 1 0 30682751.00 23876000.00 L 30690119.88 23913047.96 L 30316618.00 24286549.00 L 30300768.00 24324822.83 L 30300768.00 30642841.00 L 30305675.00 30654687.95 L 30305675.00 31380244.00 L 30404099.00 31380244.00 L 30404099.00 30654692.78  z"/>
<path id="N" d="M 38801185.00 35302824.00 L 38509847.00 35302824.00 L 38509847.00 35932744.00 L 38801185.00 35932744.00 L 38801185.00 35302824.00  z"/>
<path id="N" d="M 29616698.00 30998392.36 L 29621606.00 30986543.00 L 29621607.00 24438826.00 L 29605753.29 24400556.29 L 26042243.00 20837045.00 L 26042243.00 19079323.00 A 54118.70 54118.70 0 0 0 25934003.00 19079323.00 L 25934002.00 20859463.00 L 25949854.00 20897732.00 L 29513366.00 24461243.00 L 29513366.00 30986543.00 L 29518274.00 30998392.36 L 29518274.00 31380244.00 L 29616698.00 31380244.00 L 29616698.00 30998392.36  z"/>
<path id="N" d="M 26864177.00 34279202.00 L 26572839.00 34279202.00 L 26572839.00 34909122.00 L 26864177.00 34909122.00 L 26864177.00 34279202.00  z"/>
<path id="N" d="M 30174259.00 34055322.00 L 30991360.00 33238221.00 L 31010382.00 33192299.00 L 31010382.00 32718827.00 L 30994650.00 32680847.56 L 30994650.00 32325126.00 L 30896226.00 32325126.00 L 30896226.00 32680847.56 L 30880494.00 32718827.00 L 30880494.00 33165399.00 L 30101436.97 33944456.00 L 27199281.99 33944456.00 L 24508303.00 31253478.00 L 24462381.00 31234456.00 L 20073542.99 31234456.00 L 18409564.00 29570478.00 L 18363642.00 29551456.00 L 15685003.97 29551456.00 L 14955313.00 28821766.00 A 64942.34 64942.34 0 0 0 14863469.00 28913610.00 L 15612181.00 29662323.00 L 15658103.00 29681344.00 L 18336741.99 29681344.00 L 20000719.00 31345322.00 L 20046642.00 31364344.00 L 24435480.99 31364344.00 L 27126459.00 34055323.00 L 27172381.00 34074344.00 L 30128337.00 34074344.00 L 30174259.00 34055322.00  z"/>
<path id="N" d="M 13136106.00 52519359.00 L 12386106.00 52519359.00 L 12386106.00 52920933.00 L 13136106.00 52920933.00 L 13136106.00 52519359.00  z"/>
<path id="N" d="M 42608824.00 30998392.36 L 42613732.00 30986543.00 L 42613733.00 23599743.00 L 42597879.29 23561473.29 L 37347030.00 18310623.00 A 54119.43 54119.43 0 0 0 37270492.00 18387161.00 L 42505492.00 23622160.00 L 42505492.00 30986543.00 L 42510400.00 30998392.36 L 42510400.00 31380244.00 L 42608824.00 31380244.00 L 42608824.00 30998392.36  z"/>
<path id="N" d="M 37301185.00 34279202.00 L 37009847.00 34279202.00 L 37009847.00 34909122.00 L 37301185.00 34909122.00 L 37301185.00 34279202.00  z"/>
<path id="N" d="M 24644350.00 23571200.00 L 24644350.00 23022231.00 L 24337949.99 23022231.00 L 24337949.99 22922231.00 L 24637556.00 22922231.00 L 24637556.00 21426169.00 L 24492848.00 21426169.00 L 24492848.00 19394229.00 L 24473445.00 19296684.00 L 24418190.00 19213989.00 L 22325200.00 17120999.00 A 254898.66 254898.66 0 0 0 21964720.00 17481479.00 L 23983052.00 19499811.00 L 23983052.00 21426169.00 L 23838344.00 21426169.00 L 23838344.00 21853090.00 L 23738344.00 21753090.00 L 23738344.00 21412200.00 L 23574998.00 21412200.00 L 23574998.00 21591400.45 L 23497295.00 21539481.00 L 23474998.00 21535045.83 L 23474998.00 21504909.00 L 23089172.00 21504909.00 L 23089172.00 22843491.00 L 23182085.00 22843491.00 L 23182085.00 22943491.00 L 23094950.00 22943491.00 L 23094950.00 23121950.00 L 23184498.01 23121950.00 L 23184498.01 23221950.00 L 23107333.00 23221950.00 L 23107333.00 23615650.00 L 23461663.00 23615650.00 L 23461663.00 23518800.01 L 23561663.00 23518800.01 L 23561663.00 24102405.43 L 23608995.00 24082800.00 A 229408.51 229408.51 0 0 1 23878750.00 24263045.00 L 23878750.00 24336800.00 L 24644350.00 23571200.00  zM 23561663.00 23318800.01 L 23461663.00 23318800.01 L 23461663.00 23221950.00 L 23384498.01 23221950.00 L 23384498.01 23121950.00 L 23561663.00 23121950.00 L 23561663.00 23318800.01  zM 23574998.00 22943491.00 L 23382085.00 22943491.00 L 23382085.00 22843491.00 L 23474998.00 22843491.00 L 23474998.00 22274200.00 L 23538494.00 22274200.00 L 23574998.00 22310704.00 L 23574998.00 22943491.00  zM 24137949.99 23022231.00 L 23738344.00 23022231.00 L 23738344.00 22417037.89 L 23798974.00 22429098.00 L 23838344.00 22421266.78 L 23838344.00 22922231.00 L 24137949.99 22922231.00 L 24137949.99 23022231.00  z"/>
<path id="N" d="M 23469593.00 24494490.00 L 23372744.00 24494490.00 L 23372744.00 24394490.00 L 23446119.93 24394490.00 L 23428750.00 24352555.00 L 23428750.00 24299850.00 L 23384497.99 24299850.00 L 23384497.99 24199850.00 L 23461663.00 24199850.00 L 23461663.00 23806150.00 L 23107333.00 23806150.00 L 23107333.00 24199850.00 L 23184497.99 24199850.00 L 23184497.99 24299850.00 L 23094950.00 24299850.00 L 23094950.00 24394490.00 L 23172744.00 24394490.00 L 23172744.00 24494490.00 L 23075893.00 24494490.00 L 23075893.00 24730710.00 L 23469593.00 24730710.00 L 23469593.00 24494490.00  z"/>
<path id="N" d="M 17440275.00 24850725.00 L 16849725.00 24850725.00 L 16849725.00 25441275.00 L 17440275.00 25441275.00 L 17440275.00 24850725.00  zM 17145000.44 25145998.65 m -180637.35 0 a 180637.35 180637.35 0 1 1 361274.69 0a 180637.35 180637.35 0 1 1 -361274.69 0"/>
<path id="N" d="M 22386916.00 25242521.00 L 22183033.14 25242521.00 L 22171651.00 25240257.00 L 21792464.74 25240257.00 L 21788070.00 25233680.00 A 127441.40 127441.40 0 1 0 21697950.00 25451249.00 L 21733515.43 25444175.00 L 21993216.00 25444175.00 L 21993216.00 25478741.00 L 22386916.00 25478741.00 L 22386916.00 25242521.00  z"/>
<path id="N" d="M 23653743.87 24307793.87 m -127457.60 0 a 127457.60 127457.60 0 1 1 254915.19 0a 127457.60 127457.60 0 1 1 -254915.19 0"/>
<path id="N" d="M 23682750.00 24532800.00 L 23608995.00 24532800.00 L 23569593.00 24516479.26 L 23569593.00 24645957.00 L 23682750.00 24532800.00  z"/>
<path id="N" d="M 20364177.00 35302824.00 L 20072839.00 35302824.00 L 20072839.00 35932744.00 L 20364177.00 35932744.00 L 20364177.00 35302824.00  z"/>
<path id="N" d="M 19864177.00 34279202.00 L 19572839.00 34279202.00 L 19572839.00 34909122.00 L 19864177.00 34909122.00 L 19864177.00 34279202.00  z"/>
<path id="N" d="M 43199375.00 30998392.36 L 43204283.00 30986543.00 L 43204283.00 23349085.00 L 43188430.29 23310815.29 L 38347030.00 18469414.00 A 54119.43 54119.43 0 0 0 38270492.00 18545952.00 L 43096043.00 23371502.00 L 43096043.00 30986543.00 L 43100951.00 30998392.36 L 43100951.00 31380244.00 L 43199375.00 31380244.00 L 43199375.00 30998392.36  z"/>
<path id="N" d="M 36301185.00 34279202.00 L 36009847.00 34279202.00 L 36009847.00 34909122.00 L 36301185.00 34909122.00 L 36301185.00 34279202.00  z"/>
<path id="N" d="M 29813548.00 30998392.36 L 29818456.00 30986543.00 L 29818456.00 24303336.00 L 29802603.29 24265066.29 L 29608402.67 24070864.97 L 29616849.00 24028400.00 A 127441.40 127441.40 0 1 0 29489400.00 24155849.00 L 29531864.97 24147402.67 L 29710216.00 24325753.06 L 29710216.00 30986543.00 L 29715124.00 30998392.36 L 29715124.00 31380244.00 L 29813548.00 31380244.00 L 29813548.00 30998392.36  z"/>
<path id="N" d="M 21864177.00 34279202.00 L 21572839.00 34279202.00 L 21572839.00 34909122.00 L 21864177.00 34909122.00 L 21864177.00 34279202.00  z"/>
<path id="N" d="M 16962755.38 59666504.38 m -130459.26 0 a 130459.26 130459.26 0 1 1 260918.51 0a 130459.26 130459.26 0 1 1 -260918.51 0M 16962754.76 59666502.92 m -80284.08 0 a 80284.08 80284.08 0 1 1 160568.17 0a 80284.08 80284.08 0 1 1 -160568.17 0"/>
<path id="N" d="M 15958817.38 60198000.38 m -130459.26 0 a 130459.26 130459.26 0 1 1 260918.51 0a 130459.26 130459.26 0 1 1 -260918.51 0M 15958816.76 60197998.92 m -80284.08 0 a 80284.08 80284.08 0 1 1 160568.17 0a 80284.08 80284.08 0 1 1 -160568.17 0"/>
<path id="N" d="M 29813548.00 32325126.00 L 29715124.00 32325126.00 L 29715124.00 33112528.00 L 29813548.00 33112528.00 L 29813548.00 32325126.00  z"/>
<path id="N" d="M 43396225.00 30592842.00 L 43297801.00 30592842.00 L 43297801.00 31380244.00 L 43396225.00 31380244.00 L 43396225.00 30592842.00  z"/>
<path id="N" d="M 44183627.00 30592842.00 L 44085203.00 30592842.00 L 44085203.00 31380244.00 L 44183627.00 31380244.00 L 44183627.00 30592842.00  z"/>
<path id="N" d="M 43002524.00 30592842.00 L 42904100.00 30592842.00 L 42904100.00 31380244.00 L 43002524.00 31380244.00 L 43002524.00 30592842.00  z"/>
<path id="N" d="M 30600950.00 32325126.00 L 30502526.00 32325126.00 L 30502526.00 33112528.00 L 30600950.00 33112528.00 L 30600950.00 32325126.00  z"/>
<path id="N" d="M 31782052.00 32325126.00 L 31683628.00 32325126.00 L 31683628.00 33112528.00 L 31782052.00 33112528.00 L 31782052.00 32325126.00  z"/>
<path id="N" d="M 41624572.00 32325126.00 L 41526148.00 32325126.00 L 41526148.00 33112528.00 L 41624572.00 33112528.00 L 41624572.00 32325126.00  z"/>
<path id="N" d="M 42805674.00 18151898.00 L 42707250.00 18151898.00 L 42707250.00 18939300.00 L 42805674.00 18939300.00 L 42805674.00 18151898.00  z"/>
<path id="N" d="M 41427721.00 32325126.00 L 41329297.00 32325126.00 L 41329297.00 33112528.00 L 41427721.00 33112528.00 L 41427721.00 32325126.00  z"/>
<path id="N" d="M 43396225.00 18151898.00 L 43297801.00 18151898.00 L 43297801.00 18939300.00 L 43396225.00 18939300.00 L 43396225.00 18151898.00  z"/>
<path id="N" d="M 43789926.00 18151898.00 L 43691502.00 18151898.00 L 43691502.00 18939300.00 L 43789926.00 18939300.00 L 43789926.00 18151898.00  z"/>
<path id="N" d="M 43199375.00 18151898.00 L 43100951.00 18151898.00 L 43100951.00 18939300.00 L 43199375.00 18939300.00 L 43199375.00 18151898.00  z"/>
<path id="N" d="M 49226106.00 48519359.00 L 48476106.00 48519359.00 L 48476106.00 48920933.00 L 49226106.00 48920933.00 L 49226106.00 48519359.00  z"/>
<path id="N" d="M 13136106.00 48519359.00 L 12386106.00 48519359.00 L 12386106.00 48920933.00 L 13136106.00 48920933.00 L 13136106.00 48519359.00  z"/>
<path id="N" d="M 20864177.00 34279202.00 L 20572839.00 34279202.00 L 20572839.00 34909122.00 L 20864177.00 34909122.00 L 20864177.00 34279202.00  z"/>
<path id="N" d="M 11874294.00 47519359.00 L 11124294.00 47519359.00 L 11124294.00 47920933.00 L 11874294.00 47920933.00 L 11874294.00 47519359.00  z"/>
<path id="N" d="M 49226106.00 46519359.00 L 48476106.00 46519359.00 L 48476106.00 46920933.00 L 49226106.00 46920933.00 L 49226106.00 46519359.00  z"/>
<path id="N" d="M 47964294.00 49519359.00 L 47214294.00 49519359.00 L 47214294.00 49920933.00 L 47964294.00 49920933.00 L 47964294.00 49519359.00  z"/>
<path id="N" d="M 40640320.00 30592842.00 L 40541896.00 30592842.00 L 40541896.00 31380244.00 L 40640320.00 31380244.00 L 40640320.00 30592842.00  z"/>
<path id="N" d="M 34144257.00 30592842.00 L 34045833.00 30592842.00 L 34045833.00 31380244.00 L 34144257.00 31380244.00 L 34144257.00 30592842.00  z"/>
<path id="N" d="M 39656068.00 30592842.00 L 39557644.00 30592842.00 L 39557644.00 31380244.00 L 39656068.00 31380244.00 L 39656068.00 30592842.00  z"/>
<path id="N" d="M 19364177.00 35302824.00 L 19072839.00 35302824.00 L 19072839.00 35932744.00 L 19364177.00 35932744.00 L 19364177.00 35302824.00  z"/>
<path id="N" d="M 41034020.00 30592842.00 L 40935596.00 30592842.00 L 40935596.00 31380244.00 L 41034020.00 31380244.00 L 41034020.00 30592842.00  z"/>
<path id="N" d="M 41821422.00 30592842.00 L 41722998.00 30592842.00 L 41722998.00 31380244.00 L 41821422.00 31380244.00 L 41821422.00 30592842.00  z"/>
<path id="N" d="M 41821422.00 32325126.00 L 41722998.00 32325126.00 L 41722998.00 33112528.00 L 41821422.00 33112528.00 L 41821422.00 32325126.00  z"/>
<path id="N" d="M 34144257.00 32325126.00 L 34045833.00 32325126.00 L 34045833.00 33112528.00 L 34144257.00 33112528.00 L 34144257.00 32325126.00  z"/>
<path id="N" d="M 42018272.00 32325126.00 L 41919848.00 32325126.00 L 41919848.00 33112528.00 L 42018272.00 33112528.00 L 42018272.00 32325126.00  z"/>
<path id="N" d="M 42608824.00 32325126.00 L 42510400.00 32325126.00 L 42510400.00 33112528.00 L 42608824.00 33112528.00 L 42608824.00 32325126.00  z"/>
<path id="N" d="M 42805674.00 32325126.00 L 42707250.00 32325126.00 L 42707250.00 33112528.00 L 42805674.00 33112528.00 L 42805674.00 32325126.00  z"/>
<path id="N" d="M 42215123.00 32325126.00 L 42116699.00 32325126.00 L 42116699.00 33112528.00 L 42215123.00 33112528.00 L 42215123.00 32325126.00  z"/>
<path id="N" d="M 43789926.00 32325126.00 L 43691502.00 32325126.00 L 43691502.00 33112528.00 L 43789926.00 33112528.00 L 43789926.00 32325126.00  z"/>
<path id="N" d="M 43199375.00 32325126.00 L 43100951.00 32325126.00 L 43100951.00 33112528.00 L 43199375.00 33112528.00 L 43199375.00 32325126.00  z"/>
<path id="N" d="M 43396225.00 32325126.00 L 43297801.00 32325126.00 L 43297801.00 33112528.00 L 43396225.00 33112528.00 L 43396225.00 32325126.00  z"/>
<path id="N" d="M 43002524.00 32325126.00 L 42904100.00 32325126.00 L 42904100.00 33112528.00 L 43002524.00 33112528.00 L 43002524.00 32325126.00  z"/>
<path id="N" d="M 43986776.00 32325126.00 L 43888352.00 32325126.00 L 43888352.00 33112528.00 L 43986776.00 33112528.00 L 43986776.00 32325126.00  z"/>
<path id="N" d="M 44183627.00 32325126.00 L 44085203.00 32325126.00 L 44085203.00 33112528.00 L 44183627.00 33112528.00 L 44183627.00 32325126.00  z"/>
<path id="N" d="M 32963154.00 30592842.00 L 32864730.00 30592842.00 L 32864730.00 31380244.00 L 32963154.00 31380244.00 L 32963154.00 30592842.00  z"/>
<path id="N" d="M 33750556.00 32325126.00 L 33652132.00 32325126.00 L 33652132.00 33112528.00 L 33750556.00 33112528.00 L 33750556.00 32325126.00  z"/>
<path id="N" d="M 33947406.00 30592842.00 L 33848982.00 30592842.00 L 33848982.00 31380244.00 L 33947406.00 31380244.00 L 33947406.00 30592842.00  z"/>
<path id="N" d="M 43002524.00 18151898.00 L 42904100.00 18151898.00 L 42904100.00 18939300.00 L 43002524.00 18939300.00 L 43002524.00 18151898.00  z"/>
<path id="N" d="M 43986776.00 18151898.00 L 43888352.00 18151898.00 L 43888352.00 18939300.00 L 43986776.00 18939300.00 L 43986776.00 18151898.00  z"/>
<path id="N" d="M 40443469.00 32325126.00 L 40345045.00 32325126.00 L 40345045.00 33112528.00 L 40443469.00 33112528.00 L 40443469.00 32325126.00  z"/>
<path id="N" d="M 33947406.00 32325126.00 L 33848982.00 32325126.00 L 33848982.00 33112528.00 L 33947406.00 33112528.00 L 33947406.00 32325126.00  z"/>
<path id="N" d="M 30600950.00 30592842.00 L 30502526.00 30592842.00 L 30502526.00 31380244.00 L 30600950.00 31380244.00 L 30600950.00 30592842.00  z"/>
<path id="N" d="M 40246619.00 32325126.00 L 40148195.00 32325126.00 L 40148195.00 33112528.00 L 40246619.00 33112528.00 L 40246619.00 32325126.00  z"/>
<path id="N" d="M 31782052.00 30592842.00 L 31683628.00 30592842.00 L 31683628.00 31380244.00 L 31782052.00 31380244.00 L 31782052.00 30592842.00  z"/>
<path id="N" d="M 32963154.00 32325126.00 L 32864730.00 32325126.00 L 32864730.00 33112528.00 L 32963154.00 33112528.00 L 32963154.00 32325126.00  z"/>
<path id="N" d="M 44183627.00 18151898.00 L 44085203.00 18151898.00 L 44085203.00 18939300.00 L 44183627.00 18939300.00 L 44183627.00 18151898.00  z"/>
<path id="N" d="M 49226106.00 40519359.00 L 48476106.00 40519359.00 L 48476106.00 40920933.00 L 49226106.00 40920933.00 L 49226106.00 40519359.00  z"/>
<path id="N" d="M 47964294.00 53519359.00 L 47214294.00 53519359.00 L 47214294.00 53920933.00 L 47964294.00 53920933.00 L 47964294.00 53519359.00  z"/>
<path id="N" d="M 49226106.00 52519359.00 L 48476106.00 52519359.00 L 48476106.00 52920933.00 L 49226106.00 52920933.00 L 49226106.00 52519359.00  z"/>
<path id="N" d="M 47964294.00 37519359.00 L 47214294.00 37519359.00 L 47214294.00 37920933.00 L 47964294.00 37920933.00 L 47964294.00 37519359.00  z"/>
<path id="N" d="M 49226106.00 42519359.00 L 48476106.00 42519359.00 L 48476106.00 42920933.00 L 49226106.00 42920933.00 L 49226106.00 42519359.00  z"/>
<path id="N" d="M 47964294.00 41519359.00 L 47214294.00 41519359.00 L 47214294.00 41920933.00 L 47964294.00 41920933.00 L 47964294.00 41519359.00  z"/>
<path id="N" d="M 49226106.00 54519359.00 L 48476106.00 54519359.00 L 48476106.00 54920933.00 L 49226106.00 54920933.00 L 49226106.00 54519359.00  z"/>
<path id="N" d="M 49226106.00 50519359.00 L 48476106.00 50519359.00 L 48476106.00 50920933.00 L 49226106.00 50920933.00 L 49226106.00 50519359.00  z"/>
<path id="N" d="M 47964294.00 47519359.00 L 47214294.00 47519359.00 L 47214294.00 47920933.00 L 47964294.00 47920933.00 L 47964294.00 47519359.00  z"/>
<path id="N" d="M 47964294.00 51519359.00 L 47214294.00 51519359.00 L 47214294.00 51920933.00 L 47964294.00 51920933.00 L 47964294.00 51519359.00  z"/>
<path id="N" d="M 49226106.00 56519359.00 L 48476106.00 56519359.00 L 48476106.00 56920933.00 L 49226106.00 56920933.00 L 49226106.00 56519359.00  z"/>
<path id="N" d="M 47964294.00 55519359.00 L 47214294.00 55519359.00 L 47214294.00 55920933.00 L 47964294.00 55920933.00 L 47964294.00 55519359.00  z"/>
<path id="N" d="M 49226106.00 44519359.00 L 48476106.00 44519359.00 L 48476106.00 44920933.00 L 49226106.00 44920933.00 L 49226106.00 44519359.00  z"/>
<path id="N" d="M 13136106.00 44519359.00 L 12386106.00 44519359.00 L 12386106.00 44920933.00 L 13136106.00 44920933.00 L 13136106.00 44519359.00  z"/>
<path id="N" d="M 47964294.00 43519359.00 L 47214294.00 43519359.00 L 47214294.00 43920933.00 L 47964294.00 43920933.00 L 47964294.00 43519359.00  z"/>
<path id="N" d="M 11874294.00 43519359.00 L 11124294.00 43519359.00 L 11124294.00 43920933.00 L 11874294.00 43920933.00 L 11874294.00 43519359.00  z"/>
<path id="N" d="M 47964294.00 39519359.00 L 47214294.00 39519359.00 L 47214294.00 39920933.00 L 47964294.00 39920933.00 L 47964294.00 39519359.00  z"/>
<path id="N" d="M 49226106.00 38519359.00 L 48476106.00 38519359.00 L 48476106.00 38920933.00 L 49226106.00 38920933.00 L 49226106.00 38519359.00  z"/>
<path id="N" d="M 13136106.00 46519359.00 L 12386106.00 46519359.00 L 12386106.00 46920933.00 L 13136106.00 46920933.00 L 13136106.00 46519359.00  z"/>
<path id="N" d="M 47964294.00 45519359.00 L 47214294.00 45519359.00 L 47214294.00 45920933.00 L 47964294.00 45920933.00 L 47964294.00 45519359.00  z"/>
<path id="N" d="M 11874294.00 45519359.00 L 11124294.00 45519359.00 L 11124294.00 45920933.00 L 11874294.00 45920933.00 L 11874294.00 45519359.00  z"/>
<path id="N" d="M 41034020.00 32325126.00 L 40935596.00 32325126.00 L 40935596.00 33112528.00 L 41034020.00 33112528.00 L 41034020.00 32325126.00  z"/>
<path id="N" d="M 32963154.00 18151898.00 L 32864730.00 18151898.00 L 32864730.00 18939300.00 L 32963154.00 18939300.00 L 32963154.00 18151898.00  z"/>
<path id="N" d="M 33160005.00 18151898.00 L 33061581.00 18151898.00 L 33061581.00 18939300.00 L 33160005.00 18939300.00 L 33160005.00 18151898.00  z"/>
<path id="N" d="M 32372603.00 18151898.00 L 32274179.00 18151898.00 L 32274179.00 18939300.00 L 32372603.00 18939300.00 L 32372603.00 18151898.00  z"/>
<path id="N" d="M 32963154.00 16419614.00 L 32864730.00 16419614.00 L 32864730.00 17207016.00 L 32963154.00 17207016.00 L 32963154.00 16419614.00  z"/>
<path id="N" d="M 33160005.00 16419614.00 L 33061581.00 16419614.00 L 33061581.00 17207016.00 L 33160005.00 17207016.00 L 33160005.00 16419614.00  z"/>
<path id="N" d="M 31388351.00 16419614.00 L 31289927.00 16419614.00 L 31289927.00 17207016.00 L 31388351.00 17207016.00 L 31388351.00 16419614.00  z"/>
<path id="N" d="M 32175753.00 16419614.00 L 32077329.00 16419614.00 L 32077329.00 17207016.00 L 32175753.00 17207016.00 L 32175753.00 16419614.00  z"/>
<path id="N" d="M 32372603.00 16419614.00 L 32274179.00 16419614.00 L 32274179.00 17207016.00 L 32372603.00 17207016.00 L 32372603.00 16419614.00  z"/>
<path id="N" d="M 42018272.00 16419614.00 L 41919848.00 16419614.00 L 41919848.00 17207016.00 L 42018272.00 17207016.00 L 42018272.00 16419614.00  z"/>
<path id="N" d="M 41427721.00 16419614.00 L 41329297.00 16419614.00 L 41329297.00 17207016.00 L 41427721.00 17207016.00 L 41427721.00 16419614.00  z"/>
<path id="N" d="M 32569453.00 16419614.00 L 32471029.00 16419614.00 L 32471029.00 17207016.00 L 32569453.00 17207016.00 L 32569453.00 16419614.00  z"/>
<path id="N" d="M 41821422.00 16419614.00 L 41722998.00 16419614.00 L 41722998.00 17207016.00 L 41821422.00 17207016.00 L 41821422.00 16419614.00  z"/>
<path id="N" d="M 34931658.00 16419614.00 L 34833234.00 16419614.00 L 34833234.00 17207016.00 L 34931658.00 17207016.00 L 34931658.00 16419614.00  z"/>
<path id="N" d="M 35325359.00 16419614.00 L 35226935.00 16419614.00 L 35226935.00 17207016.00 L 35325359.00 17207016.00 L 35325359.00 16419614.00  z"/>
<path id="N" d="M 33553705.00 16419614.00 L 33455281.00 16419614.00 L 33455281.00 17207016.00 L 33553705.00 17207016.00 L 33553705.00 16419614.00  z"/>
<path id="N" d="M 34341107.00 16419614.00 L 34242683.00 16419614.00 L 34242683.00 17207016.00 L 34341107.00 17207016.00 L 34341107.00 16419614.00  z"/>
<path id="N" d="M 34537957.00 16419614.00 L 34439533.00 16419614.00 L 34439533.00 17207016.00 L 34537957.00 17207016.00 L 34537957.00 16419614.00  z"/>
<path id="N" d="M 31978902.00 16419614.00 L 31880478.00 16419614.00 L 31880478.00 17207016.00 L 31978902.00 17207016.00 L 31978902.00 16419614.00  z"/>
<path id="N" d="M 31191501.00 16419614.00 L 31093077.00 16419614.00 L 31093077.00 17207016.00 L 31191501.00 17207016.00 L 31191501.00 16419614.00  z"/>
<path id="N" d="M 34734808.00 16419614.00 L 34636384.00 16419614.00 L 34636384.00 17207016.00 L 34734808.00 17207016.00 L 34734808.00 16419614.00  z"/>
<path id="N" d="M 31782052.00 16419614.00 L 31683628.00 16419614.00 L 31683628.00 17207016.00 L 31782052.00 17207016.00 L 31782052.00 16419614.00  z"/>
<path id="N" d="M 40837170.00 16419614.00 L 40738746.00 16419614.00 L 40738746.00 17207016.00 L 40837170.00 17207016.00 L 40837170.00 16419614.00  z"/>
<path id="N" d="M 41034020.00 16419614.00 L 40935596.00 16419614.00 L 40935596.00 17207016.00 L 41034020.00 17207016.00 L 41034020.00 16419614.00  z"/>
<path id="N" d="M 35719060.00 16419614.00 L 35620636.00 16419614.00 L 35620636.00 17207016.00 L 35719060.00 17207016.00 L 35719060.00 16419614.00  z"/>
<path id="N" d="M 40246619.00 16419614.00 L 40148195.00 16419614.00 L 40148195.00 17207016.00 L 40246619.00 17207016.00 L 40246619.00 16419614.00  z"/>
<path id="N" d="M 40443469.00 16419614.00 L 40345045.00 16419614.00 L 40345045.00 17207016.00 L 40443469.00 17207016.00 L 40443469.00 16419614.00  z"/>
<path id="N" d="M 40837170.00 32325126.00 L 40738746.00 32325126.00 L 40738746.00 33112528.00 L 40837170.00 33112528.00 L 40837170.00 32325126.00  z"/>
<path id="N" d="M 40640320.00 32325126.00 L 40541896.00 32325126.00 L 40541896.00 33112528.00 L 40640320.00 33112528.00 L 40640320.00 32325126.00  z"/>
<path id="N" d="M 40640320.00 16419614.00 L 40541896.00 16419614.00 L 40541896.00 17207016.00 L 40640320.00 17207016.00 L 40640320.00 16419614.00  z"/>
<path id="N" d="M 42608824.00 18151898.00 L 42510400.00 18151898.00 L 42510400.00 18939300.00 L 42608824.00 18939300.00 L 42608824.00 18151898.00  z"/>
<path id="N" d="M 43002524.00 16419614.00 L 42904100.00 16419614.00 L 42904100.00 17207016.00 L 43002524.00 17207016.00 L 43002524.00 16419614.00  z"/>
<path id="N" d="M 43199375.00 16419614.00 L 43100951.00 16419614.00 L 43100951.00 17207016.00 L 43199375.00 17207016.00 L 43199375.00 16419614.00  z"/>
<path id="N" d="M 41624572.00 16419614.00 L 41526148.00 16419614.00 L 41526148.00 17207016.00 L 41624572.00 17207016.00 L 41624572.00 16419614.00  z"/>
<path id="N" d="M 42215123.00 16419614.00 L 42116699.00 16419614.00 L 42116699.00 17207016.00 L 42215123.00 17207016.00 L 42215123.00 16419614.00  z"/>
<path id="N" d="M 42608824.00 16419614.00 L 42510400.00 16419614.00 L 42510400.00 17207016.00 L 42608824.00 17207016.00 L 42608824.00 16419614.00  z"/>
<path id="N" d="M 39852918.00 16419614.00 L 39754494.00 16419614.00 L 39754494.00 17207016.00 L 39852918.00 17207016.00 L 39852918.00 16419614.00  z"/>
<path id="N" d="M 35522209.00 16419614.00 L 35423785.00 16419614.00 L 35423785.00 17207016.00 L 35522209.00 17207016.00 L 35522209.00 16419614.00  z"/>
<path id="N" d="M 42805674.00 16419614.00 L 42707250.00 16419614.00 L 42707250.00 17207016.00 L 42805674.00 17207016.00 L 42805674.00 16419614.00  z"/>
<path id="N" d="M 39656068.00 16419614.00 L 39557644.00 16419614.00 L 39557644.00 17207016.00 L 39656068.00 17207016.00 L 39656068.00 16419614.00  z"/>
<path id="N" d="M 31978902.00 18151898.00 L 31880478.00 18151898.00 L 31880478.00 18939300.00 L 31978902.00 18939300.00 L 31978902.00 18151898.00  z"/>
<path id="N" d="M 32175753.00 18151898.00 L 32077329.00 18151898.00 L 32077329.00 18939300.00 L 32175753.00 18939300.00 L 32175753.00 18151898.00  z"/>
<path id="N" d="M 43789926.00 16419614.00 L 43691502.00 16419614.00 L 43691502.00 17207016.00 L 43789926.00 17207016.00 L 43789926.00 16419614.00  z"/>
<path id="N" d="M 31191501.00 18151898.00 L 31093077.00 18151898.00 L 31093077.00 18939300.00 L 31191501.00 18939300.00 L 31191501.00 18151898.00  z"/>
<path id="N" d="M 31388351.00 18151898.00 L 31289927.00 18151898.00 L 31289927.00 18939300.00 L 31388351.00 18939300.00 L 31388351.00 18151898.00  z"/>
<path id="N" d="M 41034020.00 18151898.00 L 40935596.00 18151898.00 L 40935596.00 18939300.00 L 41034020.00 18939300.00 L 41034020.00 18151898.00  z"/>
<path id="N" d="M 40443469.00 18151898.00 L 40345045.00 18151898.00 L 40345045.00 18939300.00 L 40443469.00 18939300.00 L 40443469.00 18151898.00  z"/>
<path id="N" d="M 31782052.00 18151898.00 L 31683628.00 18151898.00 L 31683628.00 18939300.00 L 31782052.00 18939300.00 L 31782052.00 18151898.00  z"/>
<path id="N" d="M 40837170.00 18151898.00 L 40738746.00 18151898.00 L 40738746.00 18939300.00 L 40837170.00 18939300.00 L 40837170.00 18151898.00  z"/>
<path id="N" d="M 34144257.00 18151898.00 L 34045833.00 18151898.00 L 34045833.00 18939300.00 L 34144257.00 18939300.00 L 34144257.00 18151898.00  z"/>
<path id="N" d="M 34341107.00 18151898.00 L 34242683.00 18151898.00 L 34242683.00 18939300.00 L 34341107.00 18939300.00 L 34341107.00 18151898.00  z"/>
<path id="N" d="M 32569453.00 18151898.00 L 32471029.00 18151898.00 L 32471029.00 18939300.00 L 32569453.00 18939300.00 L 32569453.00 18151898.00  z"/>
<path id="N" d="M 33356855.00 18151898.00 L 33258431.00 18151898.00 L 33258431.00 18939300.00 L 33356855.00 18939300.00 L 33356855.00 18151898.00  z"/>
<path id="N" d="M 33553705.00 18151898.00 L 33455281.00 18151898.00 L 33455281.00 18939300.00 L 33553705.00 18939300.00 L 33553705.00 18151898.00  z"/>
<path id="N" d="M 44183627.00 16419614.00 L 44085203.00 16419614.00 L 44085203.00 17207016.00 L 44183627.00 17207016.00 L 44183627.00 16419614.00  z"/>
<path id="N" d="M 43396225.00 16419614.00 L 43297801.00 16419614.00 L 43297801.00 17207016.00 L 43396225.00 17207016.00 L 43396225.00 16419614.00  z"/>
<path id="N" d="M 33750556.00 18151898.00 L 33652132.00 18151898.00 L 33652132.00 18939300.00 L 33750556.00 18939300.00 L 33750556.00 18151898.00  z"/>
<path id="N" d="M 43986776.00 16419614.00 L 43888352.00 16419614.00 L 43888352.00 17207016.00 L 43986776.00 17207016.00 L 43986776.00 16419614.00  z"/>
<path id="N" d="M 39852918.00 18151898.00 L 39754494.00 18151898.00 L 39754494.00 18939300.00 L 39852918.00 18939300.00 L 39852918.00 18151898.00  z"/>
<path id="N" d="M 40246619.00 18151898.00 L 40148195.00 18151898.00 L 40148195.00 18939300.00 L 40246619.00 18939300.00 L 40246619.00 18151898.00  z"/>
<path id="N" d="M 34734808.00 18151898.00 L 34636384.00 18151898.00 L 34636384.00 18939300.00 L 34734808.00 18939300.00 L 34734808.00 18151898.00  z"/>
<path id="N" d="M 35522209.00 18151898.00 L 35423785.00 18151898.00 L 35423785.00 18939300.00 L 35522209.00 18939300.00 L 35522209.00 18151898.00  z"/>
<path id="N" d="M 35719060.00 18151898.00 L 35620636.00 18151898.00 L 35620636.00 18939300.00 L 35719060.00 18939300.00 L 35719060.00 18151898.00  z"/>
<path id="N" d="M 34144257.00 16419614.00 L 34045833.00 16419614.00 L 34045833.00 17207016.00 L 34144257.00 17207016.00 L 34144257.00 16419614.00  z"/>
<path id="N" d="M 33356855.00 16419614.00 L 33258431.00 16419614.00 L 33258431.00 17207016.00 L 33356855.00 17207016.00 L 33356855.00 16419614.00  z"/>
<path id="N" d="M 39656068.00 18151898.00 L 39557644.00 18151898.00 L 39557644.00 18939300.00 L 39656068.00 18939300.00 L 39656068.00 18151898.00  z"/>
<path id="N" d="M 33750556.00 16419614.00 L 33652132.00 16419614.00 L 33652132.00 17207016.00 L 33750556.00 17207016.00 L 33750556.00 16419614.00  z"/>
<path id="N" d="M 42018272.00 18151898.00 L 41919848.00 18151898.00 L 41919848.00 18939300.00 L 42018272.00 18939300.00 L 42018272.00 18151898.00  z"/>
<path id="N" d="M 42215123.00 18151898.00 L 42116699.00 18151898.00 L 42116699.00 18939300.00 L 42215123.00 18939300.00 L 42215123.00 18151898.00  z"/>
<path id="N" d="M 40640320.00 18151898.00 L 40541896.00 18151898.00 L 40541896.00 18939300.00 L 40640320.00 18939300.00 L 40640320.00 18151898.00  z"/>
<path id="N" d="M 41427721.00 18151898.00 L 41329297.00 18151898.00 L 41329297.00 18939300.00 L 41427721.00 18939300.00 L 41427721.00 18151898.00  z"/>
<path id="N" d="M 41624572.00 18151898.00 L 41526148.00 18151898.00 L 41526148.00 18939300.00 L 41624572.00 18939300.00 L 41624572.00 18151898.00  z"/>
<path id="N" d="M 35325359.00 18151898.00 L 35226935.00 18151898.00 L 35226935.00 18939300.00 L 35325359.00 18939300.00 L 35325359.00 18151898.00  z"/>
<path id="N" d="M 34537957.00 18151898.00 L 34439533.00 18151898.00 L 34439533.00 18939300.00 L 34537957.00 18939300.00 L 34537957.00 18151898.00  z"/>
<path id="N" d="M 41821422.00 18151898.00 L 41722998.00 18151898.00 L 41722998.00 18939300.00 L 41821422.00 18939300.00 L 41821422.00 18151898.00  z"/>
<path id="N" d="M 34931658.00 18151898.00 L 34833234.00 18151898.00 L 34833234.00 18939300.00 L 34931658.00 18939300.00 L 34931658.00 18151898.00  z"/>
<path id="N" d="M 22248593.00 24753897.00 L 22283294.82 24730710.00 L 22386916.00 24730710.00 L 22386916.00 24494490.00 L 22343005.00 24494490.00 L 22343005.00 24123206.00 L 22395181.00 24123206.00 L 22395181.00 23323994.00 L 21747150.00 23323994.00 L 21747150.00 23223994.00 L 22383750.00 23223994.00 L 22383750.00 23088600.00 L 22482664.60 22989685.40 L 22463530.25 22943491.00 L 22449015.00 22943491.00 L 22449015.00 22843491.00 L 22541928.00 22843491.00 L 22541928.00 21504909.00 L 22156102.00 21504909.00 L 22156102.00 22074200.00 L 22056102.00 22074200.00 L 22056102.00 21652776.75 L 22009907.60 21633642.40 L 20885150.00 22758400.00 L 20885150.00 23223994.00 L 21547150.00 23223994.00 L 21547150.00 23323994.00 L 20899119.00 23323994.00 L 20899119.00 24123206.00 L 22037127.00 24123206.00 L 22037127.00 24494490.00 L 21993216.00 24494490.00 L 21993216.00 24730710.00 L 22096837.18 24730710.00 L 22131539.00 24753897.00 L 22190066.00 24765539.00 L 22248593.00 24753897.00  zM 22249015.00 22943491.00 L 22056102.00 22943491.00 L 22056102.00 22274200.00 L 22156102.00 22274200.00 L 22156102.00 22843491.00 L 22249015.00 22843491.00 L 22249015.00 22943491.00  z"/>
<path id="N" d="M 42018272.00 30998392.36 L 42023180.00 30986543.00 L 42023181.00 28852450.00 L 42007327.29 28814180.29 L 41963718.76 28770571.37 L 41976948.00 28750773.00 A 127456.70 127456.70 0 1 0 41859200.00 28829449.00 L 41867809.07 28827736.65 L 41914940.00 28874867.14 L 41914940.00 30986543.00 L 41919848.00 30998392.36 L 41919848.00 31380244.00 L 42018272.00 31380244.00 L 42018272.00 30998392.36  z"/>
<path id="N" d="M 21364177.00 35302824.00 L 21072839.00 35302824.00 L 21072839.00 35932744.00 L 21364177.00 35932744.00 L 21364177.00 35302824.00  z"/>
<path id="N" d="M 17144997.35 24145993.57 m -297829.90 0 a 297829.90 297829.90 0 1 1 595659.80 0a 297829.90 297829.90 0 1 1 -595659.80 0M 17145000.44 24145998.65 m -180637.35 0 a 180637.35 180637.35 0 1 1 361274.69 0a 180637.35 180637.35 0 1 1 -361274.69 0"/>
<path id="N" d="M 18486121.00 16781148.00 L 18013681.00 16781148.00 L 18013681.00 17253588.00 L 18486121.00 17253588.00 L 18486121.00 16781148.00  zM 18249903.38 17017362.09 m -140500.91 0 a 140500.91 140500.91 0 1 1 281001.82 0a 140500.91 140500.91 0 1 1 -281001.82 0"/>
<path id="N" d="M 25293321.00 16806548.00 L 24820881.00 16806548.00 L 24820881.00 17278988.00 L 25293321.00 17278988.00 L 25293321.00 16806548.00  zM 25057103.38 17042762.09 m -140500.91 0 a 140500.91 140500.91 0 1 1 281001.82 0a 140500.91 140500.91 0 1 1 -281001.82 0"/>
<path id="N" d="M 21083123.03 19536600.00 L 21218700.00 19536600.00 L 21218700.00 19399605.44 L 21221287.00 19386600.00 L 21221287.00 18637250.00 L 21245513.00 18637250.00 L 21245513.00 18243550.00 L 20891183.00 18243550.00 L 20891183.00 18637250.00 L 20915409.00 18637250.00 L 20915409.00 19296600.00 L 20843700.00 19296600.00 L 20843700.00 19536600.00 L 21053572.97 19536600.00 L 21068348.00 19539539.00 L 21083123.03 19536600.00  z"/>
<path id="N" d="M 39852918.00 30998392.36 L 39857826.00 30986543.00 L 39857826.00 29932501.56 L 39891920.00 29909720.00 A 127441.40 127441.40 0 1 0 39749586.00 29935048.73 L 39749586.00 30986543.00 L 39754494.00 30998392.36 L 39754494.00 31380244.00 L 39852918.00 31380244.00 L 39852918.00 30998392.36  z"/>
<path id="N" d="M 27864177.00 34279202.00 L 27572839.00 34279202.00 L 27572839.00 34909122.00 L 27864177.00 34909122.00 L 27864177.00 34279202.00  z"/>
<path id="N" d="M 24313265.00 31594456.00 L 15633500.96 31594456.00 L 15190325.00 31151280.96 L 15190325.00 31008476.00 L 15171304.00 30962554.00 L 14988408.00 30779659.00 L 14942486.00 30760637.00 L 14772781.00 30760637.00 A 64945.17 64945.17 0 1 0 14772781.00 30890525.00 L 14915585.90 30890525.00 L 15060437.00 31035376.90 L 15060437.00 31178181.00 L 15079459.00 31224103.00 L 15560677.00 31705322.00 L 15606600.00 31724344.00 L 24313265.00 31724344.00 A 64942.34 64942.34 0 0 0 24313265.00 31594456.00  z"/>
<path id="N" d="M 30404815.00 34415322.00 L 31581913.00 33238225.00 L 31600934.00 33192303.00 L 31600934.00 32718827.00 L 31585202.00 32680847.56 L 31585202.00 32325126.00 L 31486778.00 32325126.00 L 31486778.00 32680847.56 L 31471046.00 32718827.00 L 31471046.00 33165402.02 L 30312971.00 34323478.00 A 64942.34 64942.34 0 0 0 30404815.00 34415322.00  z"/>
<path id="N" d="M 13136106.00 54519359.00 L 12386106.00 54519359.00 L 12386106.00 54920933.00 L 13136106.00 54920933.00 L 13136106.00 54519359.00  z"/>
<path id="N" d="M 42805674.00 30998392.36 L 42810582.00 30986543.00 L 42810583.00 23332384.00 L 42794731.00 23294115.00 L 37847030.00 18346414.00 A 54119.43 54119.43 0 1 0 37770492.00 18422952.00 L 42702342.00 23354802.00 L 42702342.00 30986543.00 L 42707250.00 30998392.36 L 42707250.00 31380244.00 L 42805674.00 31380244.00 L 42805674.00 30998392.36  z"/>
<path id="N" d="M 36801185.00 35302824.00 L 36509847.00 35302824.00 L 36509847.00 35932744.00 L 36801185.00 35932744.00 L 36801185.00 35302824.00  z"/>
<path id="N" d="M 21218700.00 19666600.00 L 20843700.00 19666600.00 L 20843700.00 19669347.00 L 20088849.00 19669347.00 L 19899948.00 19480446.00 L 19899948.00 19193510.00 L 19368452.00 19193510.00 L 19368452.00 19646266.00 L 19734128.00 19646266.00 L 19957372.00 19869510.00 L 19995411.00 19894928.00 L 20040282.00 19903853.00 L 20843700.00 19903853.00 L 20843700.00 19906600.00 L 21218700.00 19906600.00 L 21218700.00 19666600.00  z"/>
<path id="N" d="M 33750556.00 30998392.36 L 33755464.00 30986543.00 L 33755464.00 21540674.00 L 36460400.00 18835738.00 A 54119.43 54119.43 0 0 0 36383862.00 18759200.00 L 33663075.00 21479987.00 L 33647224.00 21518258.41 L 33647224.00 30986543.00 L 33652132.00 30998392.36 L 33652132.00 31380244.00 L 33750556.00 31380244.00 L 33750556.00 30998392.36  z"/>
<path id="N" d="M 39301185.00 34279202.00 L 39009847.00 34279202.00 L 39009847.00 34909122.00 L 39301185.00 34909122.00 L 39301185.00 34279202.00  z"/>
<path id="N" d="M 20001548.00 20819572.05 L 20547267.94 20273853.00 L 20843700.00 20273853.00 L 20843700.00 20276600.00 L 21218700.00 20276600.00 L 21218700.00 20036600.00 L 20843700.00 20036600.00 L 20843700.00 20039347.00 L 20498700.00 20039347.00 L 20453829.00 20048272.00 L 20415790.00 20073689.00 L 19825945.96 20663534.00 L 19470052.00 20663534.00 L 19470052.00 21116290.00 L 20001548.00 21116290.00 L 20001548.00 20819572.05  z"/>
<path id="N" d="M 29943707.00 33695322.00 L 30400809.00 33238220.00 L 30419831.00 33192298.00 L 30419831.00 32718827.00 L 30404099.00 32680847.56 L 30404099.00 32325126.00 L 30305675.00 32325126.00 L 30305675.00 32680847.56 L 30289943.00 32718827.00 L 30289943.00 33165398.00 L 29870885.00 33584456.00 L 27348397.99 33584456.00 L 24657419.00 30893478.00 L 24611497.00 30874456.00 L 20374501.00 30874456.00 L 16321810.00 26821766.00 L 16275888.00 26802744.00 L 14909391.00 26802744.00 A 64945.17 64945.17 0 0 0 14909391.00 26932632.00 L 16248988.00 26932632.00 L 20301677.00 30985322.00 L 20347600.00 31004344.00 L 24584596.99 31004344.00 L 27275575.00 33695323.00 L 27321497.00 33714344.00 L 29897785.00 33714344.00 L 29943707.00 33695322.00  z"/>
<path id="N" d="M 13136106.00 50519359.00 L 12386106.00 50519359.00 L 12386106.00 50920933.00 L 13136106.00 50920933.00 L 13136106.00 50519359.00  z"/>
<path id="N" d="M 43986776.00 30999506.96 L 43992471.00 30985753.59 L 43992471.00 30605341.00 L 45459869.00 29137943.00 L 45475720.00 29099671.59 L 45475720.00 15338368.00 A 54118.70 54118.70 0 0 0 45367480.00 15338368.00 L 45367480.00 29077256.00 L 43900082.00 30544654.00 L 43884231.00 30582925.41 L 43883443.00 30986543.00 L 43888352.00 30998394.03 L 43888352.00 31380244.00 L 43986776.00 31380244.00 L 43986776.00 30999506.96  z"/>
<path id="N" d="M 33301185.00 34279202.00 L 33009847.00 34279202.00 L 33009847.00 34909122.00 L 33301185.00 34909122.00 L 33301185.00 34279202.00  z"/>
<path id="N" d="M 33587135.28 33586797.28 L 33361763.00 33361425.00 L 33361763.00 32718827.00 L 33356855.00 32706977.64 L 33356855.00 32325126.00 L 33258431.00 32325126.00 L 33258431.00 32706977.64 L 33253523.00 32718827.00 L 33253522.00 33383843.00 L 33269374.00 33422112.00 L 33510597.28 33663335.28 L 33502151.00 33705800.00 A 127441.40 127441.40 0 1 0 33587135.28 33586797.28  z"/>
<path id="N" d="M 14913120.00 19139024.86 L 14913120.00 18940496.69 L 14947660.00 18905956.00 A 54118.22 54118.22 0 1 0 14871123.00 18829419.00 L 14820731.00 18879810.00 L 14804880.00 18918081.41 L 14804880.00 19139024.86 L 14768880.00 19163080.00 A 127441.40 127441.40 0 1 0 14913120.00 19139024.86  z"/>
<path id="N" d="M 13136106.00 42519359.00 L 12386106.00 42519359.00 L 12386106.00 42920933.00 L 13136106.00 42920933.00 L 13136106.00 42519359.00  z"/>
<path id="N" d="M 30994650.00 30998392.36 L 30999558.00 30986543.00 L 30999558.00 27690518.88 L 31115269.00 27574808.00 L 31131120.00 27536536.59 L 31131120.00 23584000.00 A 54118.70 54118.70 0 1 0 31022880.00 23584000.00 L 31022880.00 27514121.88 L 30907169.00 27629832.00 L 30891318.00 27668103.41 L 30891318.00 30986543.00 L 30896226.00 30998392.36 L 30896226.00 31380244.00 L 30994650.00 31380244.00 L 30994650.00 30998392.36  z"/>
<path id="N" d="M 26364177.00 35302824.00 L 26072839.00 35302824.00 L 26072839.00 35932744.00 L 26364177.00 35932744.00 L 26364177.00 35302824.00  z"/>
<path id="N" d="M 44409744.00 33998069.00 L 46012269.00 32395544.00 L 46028120.00 32357272.59 L 46028120.00 14890768.00 A 54118.70 54118.70 0 1 0 45919880.00 14890768.00 L 45919880.00 32334857.99 L 44349057.01 33905680.00 L 40052817.04 33905680.00 L 39660976.00 33513838.04 L 39660976.00 32718827.00 L 39656068.00 32706977.64 L 39656068.00 32325126.00 L 39557644.00 32325126.00 L 39557644.00 32706977.64 L 39552736.00 32718827.00 L 39552735.00 33536256.00 L 39568587.00 33574525.00 L 39992131.00 33998069.00 L 40030402.41 34013920.00 L 44371475.00 34013921.00 L 44409744.00 33998069.00  z"/>
<path id="N" d="M 32301185.00 34279202.00 L 32009847.00 34279202.00 L 32009847.00 34909122.00 L 32301185.00 34909122.00 L 32301185.00 34279202.00  z"/>
<path id="N" d="M 29869149.00 33515322.00 L 30203959.00 33180512.00 L 30222981.00 33134590.00 L 30222981.00 32718827.00 L 30207249.00 32680847.56 L 30207249.00 32325126.00 L 30108825.00 32325126.00 L 30108825.00 32680847.56 L 30093093.00 32718827.00 L 30093093.00 33107690.00 L 29796327.00 33404456.00 L 27425700.99 33404456.00 L 24734722.00 30713478.00 L 24688800.00 30694456.00 L 20550101.00 30694456.00 L 16149522.00 26293878.00 L 16103600.00 26274856.00 L 13920700.00 26274856.00 L 13797125.00 26151281.00 L 13797125.00 25952290.00 L 13778103.00 25906367.00 L 13693501.00 25821766.00 A 64942.34 64942.34 0 0 0 13601657.00 25913610.00 L 13667237.00 25979190.78 L 13667237.00 26178181.00 L 13686259.00 26224103.00 L 13847878.00 26385722.00 L 13893800.00 26404744.00 L 16076700.00 26404744.00 L 20477277.00 30805322.00 L 20523200.00 30824344.00 L 24661899.99 30824344.00 L 27352878.00 33515323.00 L 27398800.00 33534344.00 L 29823227.00 33534344.00 L 29869149.00 33515322.00  z"/>
<path id="N" d="M 11874294.00 49519359.00 L 11124294.00 49519359.00 L 11124294.00 49920933.00 L 11874294.00 49920933.00 L 11874294.00 49519359.00  z"/>
<path id="N" d="M 32766304.00 30998394.03 L 32771213.00 30986543.00 L 32770426.00 28540681.00 L 32765715.14 28529308.60 L 32785255.00 28500066.00 A 127456.70 127456.70 0 1 0 32618734.00 28569041.00 L 32662185.00 28577683.45 L 32662184.00 30985756.00 L 32667880.00 30999506.96 L 32667880.00 31380244.00 L 32766304.00 31380244.00 L 32766304.00 30998394.03  z"/>
<path id="N" d="M 27364177.00 35302824.00 L 27072839.00 35302824.00 L 27072839.00 35932744.00 L 27364177.00 35932744.00 L 27364177.00 35302824.00  z"/>
<path id="N" d="M 30207249.00 30999506.96 L 30212944.00 30985753.59 L 30212944.00 23335541.68 L 30223973.00 23333348.00 A 127457.60 127457.60 0 1 0 30085080.00 23305720.00 L 30104704.00 23318832.73 L 30103916.00 30986543.00 L 30108825.00 30998394.03 L 30108825.00 31380244.00 L 30207249.00 31380244.00 L 30207249.00 30999506.96  z"/>
<path id="N" d="M 40801185.00 35302824.00 L 40509847.00 35302824.00 L 40509847.00 35932744.00 L 40801185.00 35932744.00 L 40801185.00 35302824.00  z"/>
<path id="N" d="M 40837170.00 30998392.36 L 40842078.00 30986543.00 L 40842078.00 27772948.00 L 40826225.29 27734678.29 L 40719118.85 27627571.23 L 40732348.00 27607773.00 A 127456.70 127456.70 0 1 0 40614600.00 27686449.00 L 40623208.94 27684736.67 L 40733838.00 27795365.09 L 40733838.00 30986543.00 L 40738746.00 30998392.36 L 40738746.00 31380244.00 L 40837170.00 31380244.00 L 40837170.00 30998392.36  z"/>
<path id="N" d="M 39801185.00 35302824.00 L 39509847.00 35302824.00 L 39509847.00 35932744.00 L 39801185.00 35932744.00 L 39801185.00 35302824.00  z"/>
<path id="N" d="M 33260343.00 33657852.00 L 33236990.00 33653207.06 L 33236990.00 33522675.00 L 33221137.29 33484405.29 L 33164913.00 33428180.22 L 33164913.00 32718827.00 L 33160005.00 32706977.64 L 33160005.00 32325126.00 L 33061581.00 32325126.00 L 33061581.00 32706977.64 L 33056673.00 32718827.00 L 33056672.00 33450598.00 L 33072524.00 33488867.00 L 33128750.00 33545092.22 L 33128750.00 33680602.15 L 33121450.00 33685480.00 A 127441.40 127441.40 0 1 0 33260343.00 33657852.00  z"/>
<path id="N" d="M 13770120.00 18275424.86 L 13770121.00 17936109.00 L 13754269.00 17897840.00 L 13685848.00 17829419.00 A 54119.43 54119.43 0 0 0 13609310.00 17905957.00 L 13661880.00 17958527.00 L 13661880.00 18275424.86 L 13625880.00 18299480.00 A 127441.40 127441.40 0 1 0 13770120.00 18275424.86  z"/>
<path id="N" d="M 11874294.00 41519359.00 L 11124294.00 41519359.00 L 11124294.00 41920933.00 L 11874294.00 41920933.00 L 11874294.00 41519359.00  z"/>
<path id="N" d="M 14773397.35 33553393.57 m -297829.90 0 a 297829.90 297829.90 0 1 1 595659.80 0a 297829.90 297829.90 0 1 1 -595659.80 0M 14773400.44 33553398.65 m -180637.35 0 a 180637.35 180637.35 0 1 1 361274.69 0a 180637.35 180637.35 0 1 1 -361274.69 0"/>
<path id="N" d="M 16628109.38 60198000.38 m -130459.26 0 a 130459.26 130459.26 0 1 1 260918.51 0a 130459.26 130459.26 0 1 1 -260918.51 0M 16628108.76 60197998.92 m -80284.08 0 a 80284.08 80284.08 0 1 1 160568.17 0a 80284.08 80284.08 0 1 1 -160568.17 0"/>
<path id="N" d="M 16293463.38 59666504.38 m -130459.26 0 a 130459.26 130459.26 0 1 1 260918.51 0a 130459.26 130459.26 0 1 1 -260918.51 0M 16293462.76 59666502.92 m -80284.08 0 a 80284.08 80284.08 0 1 1 160568.17 0a 80284.08 80284.08 0 1 1 -160568.17 0"/>
<path id="N" d="M 41624572.00 30998392.36 L 41629480.00 30986543.00 L 41629480.00 30363182.00 L 41649869.00 30342793.00 L 41665720.00 30304524.00 L 41665720.00 29573898.67 L 41695320.00 29554120.00 A 127441.40 127441.40 0 1 0 41557480.00 29581957.44 L 41557480.00 30282106.00 L 41537091.00 30302495.00 L 41521240.00 30340766.41 L 41521240.00 30986543.00 L 41526148.00 30998392.36 L 41526148.00 31380244.00 L 41624572.00 31380244.00 L 41624572.00 30998392.36  z"/>
<path id="N" d="M 23364177.00 35302824.00 L 23072839.00 35302824.00 L 23072839.00 35932744.00 L 23364177.00 35932744.00 L 23364177.00 35302824.00  z"/>
<path id="N" d="M 15958817.38 59666504.38 m -130459.26 0 a 130459.26 130459.26 0 1 1 260918.51 0a 130459.26 130459.26 0 1 1 -260918.51 0M 15958816.76 59666502.92 m -80284.08 0 a 80284.08 80284.08 0 1 1 160568.17 0a 80284.08 80284.08 0 1 1 -160568.17 0"/>
<path id="N" d="M 40246619.00 30998392.36 L 40251527.00 30986543.00 L 40251527.00 29265197.00 L 40236214.15 29228227.24 L 40249748.00 29207973.00 A 127456.70 127456.70 0 1 0 40132000.00 29286649.00 L 40140609.32 29284936.60 L 40143287.00 29287614.24 L 40143287.00 30986543.00 L 40148195.00 30998392.36 L 40148195.00 31380244.00 L 40246619.00 31380244.00 L 40246619.00 30998392.36  z"/>
<path id="N" d="M 22864177.00 34279202.00 L 22572839.00 34279202.00 L 22572839.00 34909122.00 L 22864177.00 34909122.00 L 22864177.00 34279202.00  z"/>
<path id="N" d="M 41427721.00 30998392.36 L 41432629.00 30986543.00 L 41432630.00 30406913.00 L 41430720.00 30402302.11 L 41430720.00 30213175.14 L 41466720.00 30189120.00 A 127441.40 127441.40 0 1 0 41286480.00 30189120.00 L 41322480.00 30213175.14 L 41322479.00 30405004.00 L 41324389.00 30409615.01 L 41324389.00 30986543.00 L 41329297.00 30998392.36 L 41329297.00 31380244.00 L 41427721.00 31380244.00 L 41427721.00 30998392.36  z"/>
<path id="N" d="M 28364177.00 35302824.00 L 28072839.00 35302824.00 L 28072839.00 35932744.00 L 28364177.00 35932744.00 L 28364177.00 35302824.00  z"/>
<path id="N" d="M 14840191.00 17338895.86 L 14840191.00 17013425.87 L 14947660.00 16905956.00 A 54118.22 54118.22 0 1 0 14871123.00 16829419.00 L 14747802.00 16952739.00 L 14731951.00 16991010.41 L 14731951.00 17338895.86 L 14695951.00 17362951.00 A 127441.40 127441.40 0 1 0 14840191.00 17338895.86  z"/>
<path id="N" d="M 32805320.00 33525480.00 L 32770425.00 33502163.22 L 32771213.00 32718827.00 L 32766304.00 32706975.97 L 32766304.00 32325126.00 L 32667880.00 32325126.00 L 32667880.00 32705863.04 L 32662185.00 32719616.41 L 32662185.00 33500686.50 L 32625080.00 33525480.00 A 127441.40 127441.40 0 1 0 32805320.00 33525480.00  z"/>
<path id="N" d="M 13136106.00 40519359.00 L 12386106.00 40519359.00 L 12386106.00 40920933.00 L 13136106.00 40920933.00 L 13136106.00 40519359.00  z"/>
<path id="N" d="M 31388351.00 30998392.36 L 31393259.00 30986543.00 L 31393259.00 23619865.00 A 54118.70 54118.70 0 0 0 31285019.00 23619865.00 L 31285019.00 30986543.00 L 31289927.00 30998392.36 L 31289927.00 31380244.00 L 31388351.00 31380244.00 L 31388351.00 30998392.36  z"/>
<path id="N" d="M 25864177.00 34279202.00 L 25572839.00 34279202.00 L 25572839.00 34909122.00 L 25864177.00 34909122.00 L 25864177.00 34279202.00  z"/>
<path id="N" d="M 31978902.00 30998392.36 L 31983810.00 30986543.00 L 31983810.00 23573061.00 A 54118.70 54118.70 0 1 0 31875570.00 23573061.00 L 31875570.00 30986543.00 L 31880478.00 30998392.36 L 31880478.00 31380244.00 L 31978902.00 31380244.00 L 31978902.00 30998392.36  z"/>
<path id="N" d="M 24864177.00 34279202.00 L 24572839.00 34279202.00 L 24572839.00 34909122.00 L 24864177.00 34909122.00 L 24864177.00 34279202.00  z"/>
<path id="N" d="M 23989349.00 26463307.00 L 23886970.00 26463307.00 L 23886970.00 26196608.00 L 23949979.00 26196608.00 L 23949979.00 25822592.00 L 23847600.00 25822592.00 L 23847600.00 25569228.00 L 24043958.00 25569228.00 L 24043958.00 25466849.00 L 24219344.00 25466849.00 L 24219344.00 26325831.00 L 25018556.00 26325831.00 L 25018556.00 24829769.00 L 24219344.00 24829769.00 L 24219344.00 25336961.00 L 24043958.00 25336961.00 L 24043958.00 25234582.00 L 23669942.00 25234582.00 L 23669942.00 25316324.00 L 23469593.00 25316324.00 L 23469593.00 25242521.00 L 23075893.00 25242521.00 L 23075893.00 25478741.00 L 23469593.00 25478741.00 L 23469593.00 25446212.00 L 23669942.00 25446212.00 L 23669942.00 25569228.00 L 23717712.00 25569228.00 L 23717712.00 25822592.00 L 23615333.00 25822592.00 L 23615333.00 26196608.00 L 23757082.00 26196608.00 L 23757082.00 26463307.00 L 23733443.00 26463307.00 L 23733443.00 26876693.00 L 23989349.00 26876693.00 L 23989349.00 26463307.00  z"/>
<path id="N" d="M 16293463.38 60198000.38 m -130459.26 0 a 130459.26 130459.26 0 1 1 260918.51 0a 130459.26 130459.26 0 1 1 -260918.51 0M 16293462.76 60197998.92 m -80284.08 0 a 80284.08 80284.08 0 1 1 160568.17 0a 80284.08 80284.08 0 1 1 -160568.17 0"/>
<path id="N" d="M 16628109.38 59666504.38 m -130459.26 0 a 130459.26 130459.26 0 1 1 260918.51 0a 130459.26 130459.26 0 1 1 -260918.51 0M 16628108.76 59666502.92 m -80284.08 0 a 80284.08 80284.08 0 1 1 160568.17 0a 80284.08 80284.08 0 1 1 -160568.17 0"/>
<path id="N" d="M 16068675.00 33258125.00 L 15478125.00 33258125.00 L 15478125.00 33848675.00 L 16068675.00 33848675.00 L 16068675.00 33258125.00  zM 15773400.44 33553398.65 m -180637.35 0 a 180637.35 180637.35 0 1 1 361274.69 0a 180637.35 180637.35 0 1 1 -361274.69 0"/>
<path id="N" d="M 33356855.00 30998392.36 L 33361763.00 30986543.00 L 33361763.00 21708101.00 L 36300400.00 18769464.00 A 54119.43 54119.43 0 0 0 36223862.00 18692926.00 L 33269374.00 21647414.00 L 33253523.00 21685685.41 L 33253523.00 30986543.00 L 33258431.00 30998392.36 L 33258431.00 31380244.00 L 33356855.00 31380244.00 L 33356855.00 30998392.36  z"/>
<path id="N" d="M 41301185.00 34279202.00 L 41009847.00 34279202.00 L 41009847.00 34909122.00 L 41301185.00 34909122.00 L 41301185.00 34279202.00  z"/>
<path id="N" d="M 27143746.00 34143478.00 L 24433745.00 31433478.00 L 24387823.00 31414456.00 L 16240900.00 31414456.00 L 15838992.00 31012548.00 L 15838992.00 30986852.00 L 15819970.00 30940930.00 L 15186118.00 30307078.00 L 15140196.00 30288056.00 L 14022300.89 30288056.00 L 13885525.00 30151280.89 L 13885525.00 30008476.00 L 13866503.00 29962553.00 L 13725715.00 29821766.00 L 13679793.00 29802744.00 L 13647579.00 29802744.00 A 64945.17 64945.17 0 1 0 13652892.86 29932632.00 L 13755637.00 30035376.86 L 13755637.00 30178181.00 L 13774659.00 30224103.00 L 13949477.00 30398922.00 L 13995400.00 30417944.00 L 15113296.00 30417944.00 L 15709104.00 31013752.00 L 15709104.00 31039448.00 L 15728126.00 31085370.00 L 16168078.00 31525322.00 L 16214000.00 31544344.00 L 24360922.99 31544344.00 L 27051901.00 34235323.00 A 64945.97 64945.97 0 0 0 27143746.00 34143478.00  z"/>
<path id="N" d="M 30330257.00 34235322.00 L 31385061.00 33180518.00 L 31404083.00 33134596.00 L 31404083.00 32718827.00 L 31388351.00 32680847.56 L 31388351.00 32325126.00 L 31289927.00 32325126.00 L 31289927.00 32680847.56 L 31274195.00 32718827.00 L 31274195.00 33107696.00 L 30238413.00 34143478.00 A 64942.34 64942.34 0 0 0 30330257.00 34235322.00  z"/>
<path id="N" d="M 11874294.00 53519359.00 L 11124294.00 53519359.00 L 11124294.00 53920933.00 L 11874294.00 53920933.00 L 11874294.00 53519359.00  z"/>
<path id="N" d="M 30797800.00 30998392.36 L 30802708.00 30986543.00 L 30802708.00 24483219.82 L 30826990.90 24458936.64 L 30835600.00 24460649.00 A 127441.40 127441.40 0 1 0 30717852.00 24381973.00 L 30731081.09 24401771.15 L 30710319.00 24422533.00 L 30694468.00 24460804.41 L 30694468.00 30986543.00 L 30699376.00 30998392.36 L 30699376.00 31380244.00 L 30797800.00 31380244.00 L 30797800.00 30998392.36  z"/>
<path id="N" d="M 35801185.00 35302824.00 L 35509847.00 35302824.00 L 35509847.00 35932744.00 L 35801185.00 35932744.00 L 35801185.00 35302824.00  z"/>
<path id="N" d="M 42215123.00 30998392.36 L 42220031.00 30986543.00 L 42220032.00 28109501.00 L 42204178.29 28071231.29 L 42166918.75 28033971.39 L 42180148.00 28014173.00 A 127456.70 127456.70 0 1 0 42062400.00 28092849.00 L 42071009.10 28091136.64 L 42111791.00 28131918.15 L 42111791.00 30986543.00 L 42116699.00 30998392.36 L 42116699.00 31380244.00 L 42215123.00 31380244.00 L 42215123.00 30998392.36  z"/>
<path id="N" d="M 40301185.00 34279202.00 L 40009847.00 34279202.00 L 40009847.00 34909122.00 L 40301185.00 34909122.00 L 40301185.00 34279202.00  z"/>
<path id="N" d="M 32569454.00 30998392.36 L 32574362.00 30986543.00 L 32574362.00 28786070.00 L 32558509.29 28747800.29 L 32411776.00 28601066.10 L 32411776.00 23548479.00 A 54118.70 54118.70 0 0 0 32303536.00 23548479.00 L 32303535.00 28623484.00 L 32319387.00 28661753.00 L 32466122.00 28808487.10 L 32466122.00 30986543.00 L 32471030.00 30998392.36 L 32471030.00 31380244.00 L 32569454.00 31380244.00 L 32569454.00 30998392.36  z"/>
<path id="N" d="M 23864177.00 34279202.00 L 23572839.00 34279202.00 L 23572839.00 34909122.00 L 23864177.00 34909122.00 L 23864177.00 34279202.00  z"/>
<path id="N" d="M 32175753.00 30998392.36 L 32180661.00 30986543.00 L 32180661.00 23543638.00 A 54118.70 54118.70 0 0 0 32072421.00 23543638.00 L 32072421.00 30986543.00 L 32077329.00 30998392.36 L 32077329.00 31380244.00 L 32175753.00 31380244.00 L 32175753.00 30998392.36  z"/>
<path id="N" d="M 24364177.00 35302824.00 L 24072839.00 35302824.00 L 24072839.00 35932744.00 L 24364177.00 35932744.00 L 24364177.00 35302824.00  z"/>
<path id="N" d="M 29527670.00 33337669.00 L 29604968.00 33260371.00 L 29620819.00 33222099.59 L 29621607.00 32718827.00 L 29616698.00 32706975.97 L 29616698.00 32325126.00 L 29518274.00 32325126.00 L 29518274.00 32705863.04 L 29512579.00 32719616.41 L 29512579.00 33199684.00 L 29466983.00 33245280.00 L 28699017.07 33245280.00 L 28502120.00 33048382.07 L 28502120.00 32905575.14 L 28538120.00 32881520.00 A 127441.40 127441.40 0 1 0 28357880.00 32881520.00 L 28393880.00 32905575.14 L 28393879.00 33070800.00 L 28409731.00 33109069.00 L 28638331.00 33337669.00 L 28676600.00 33353520.00 L 29489401.00 33353521.00 L 29527670.00 33337669.00  z"/>
<path id="N" d="M 23047052.00 20449027.00 L 23045504.75 20456806.00 L 22862215.04 20456806.00 L 22523741.00 20118331.00 L 22485469.59 20102480.00 L 22303700.00 20102480.00 L 22303700.00 20036600.00 L 21928700.00 20036600.00 L 21928700.00 20276600.00 L 22303700.00 20276600.00 L 22303700.00 20210720.00 L 22463054.04 20210720.00 L 22801529.00 20549195.00 L 22839800.41 20565046.00 L 23059395.63 20565046.00 L 23074680.00 20587920.00 A 127441.40 127441.40 0 1 0 23047052.00 20449027.00  z"/>
</g>
</svg>
