<svg width="99.00000012mm" height="119.08716594mm" viewBox="0 0 38976378 46884711"  version="1.1" xmlns="http://www.w3.org/2000/svg" xmlns:xlink="http://www.w3.org/1999/xlink">
<desc>
Origin 0 0 Bound 10687011 14338257 38976378 46884711
</desc>
<g fill-rule="evenodd" fill="rgb(0, 0, 255)" stroke="black" stroke-width="1" transform="translate(0, 46884711) scale(1, -1) translate(-10687011, -14338257)">
<path id="N" d="M 15691169.38 59475050.38 m -130459.26 0 a 130459.26 130459.26 0 1 1 260918.51 0a 130459.26 130459.26 0 1 1 -260918.51 0M 15691168.76 59475048.92 m -80284.08 0 a 80284.08 80284.08 0 1 1 160568.17 0a 80284.08 80284.08 0 1 1 -160568.17 0"/>
<path id="N" d="M 31305802.00 29704106.96 L 31311498.00 29690356.00 L 31305802.00 29676605.04 L 31305802.00 29297442.00 L 31207378.00 29297442.00 L 31207378.00 29679291.97 L 31202469.00 29691143.00 L 31207378.00 29702994.03 L 31207378.00 30084844.00 L 31305802.00 30084844.00 L 31305802.00 29704106.96  z"/>
<path id="N" d="M 37789373.00 35302824.00 L 37498035.00 35302824.00 L 37498035.00 35932744.00 L 37789373.00 35932744.00 L 37789373.00 35302824.00  z"/>
<path id="N" d="M 31896353.00 31029726.00 L 31797929.00 31029726.00 L 31797929.00 31817128.00 L 31896353.00 31817128.00 L 31896353.00 31029726.00  z"/>
<path id="N" d="M 13136106.00 56519359.00 L 12386106.00 56519359.00 L 12386106.00 56920933.00 L 13136106.00 56920933.00 L 13136106.00 56519359.00  z"/>
<path id="N" d="M 25076150.00 28982298.00 L 25679400.00 28982298.00 A 254898.66 254898.66 0 0 0 25679400.00 28472502.00 L 25149982.00 28472502.00 L 25076150.00 28398670.00 L 25076150.00 27989330.00 L 25226182.00 27839298.00 L 25679400.00 27839298.00 A 254898.66 254898.66 0 0 0 25679400.00 27329502.00 L 25120600.00 27329502.00 L 25076150.00 27338343.61 L 25076150.00 27127200.00 L 23975556.00 27127200.00 L 23975556.00 27789200.01 L 23875556.00 27789200.00 L 23875556.00 27141169.00 L 23076344.00 27141169.00 L 23076344.00 27789200.00 L 22976344.00 27789199.99 L 22976344.00 27041169.00 L 23358428.91 27041169.00 L 23383898.71 26991168.53 L 23373376.91 26976693.00 L 23292103.99 26976693.00 L 23292103.99 26876693.00 L 23320058.00 26876693.00 L 23320058.00 26463307.00 L 23292104.01 26463307.00 L 23292104.01 26363306.76 L 23386260.95 26363306.69 L 23417874.09 26313306.15 L 23409947.64 26296608.00 L 23370843.99 26296608.00 L 23370843.99 26196608.00 L 23438168.00 26196608.00 L 23438168.00 25822592.00 L 23103522.00 25822592.00 L 23103522.00 25909600.99 L 23003522.00 25909600.99 L 23003522.00 25806400.00 L 22920948.00 25806400.00 L 22920948.00 25909601.00 L 22820948.00 25909601.00 L 22820948.00 25802907.00 L 22810248.00 25802907.00 L 22810248.00 25270443.15 L 22973712.85 25106979.00 L 23269633.00 25106979.00 L 23280960.10 25104726.00 L 23469593.00 25104726.00 L 23469593.00 24868506.00 L 23075893.00 24868506.00 L 23075893.00 24872473.00 L 22925145.00 24872473.00 L 22880274.00 24881398.00 L 22842235.00 24906815.00 L 22610085.00 25138966.00 L 22584667.00 25177005.00 L 22575742.00 25221876.00 L 22575742.00 25802907.00 L 22565042.00 25802907.00 L 22565042.00 26216293.00 L 22820948.00 26216293.00 L 22820948.00 26109601.00 L 22920948.00 26109601.00 L 22920948.71 26346899.39 L 22970948.92 26363306.99 L 23092104.01 26363306.91 L 23092104.01 26463307.00 L 23064152.00 26463307.00 L 23064152.00 26876693.00 L 23092103.99 26876693.00 L 23092103.99 26976693.00 L 22928157.50 26976693.71 L 22920948.00 27026693.92 L 22920948.00 27230401.00 L 22820948.00 27230401.00 L 22820948.00 27123707.00 L 22565042.00 27123707.00 L 22565042.00 27537093.00 L 22820948.00 27537093.00 L 22820948.00 27430401.00 L 22920948.00 27430401.00 L 22920948.00 27890801.00 L 22820948.00 27890801.00 L 22820948.00 27784107.00 L 22565042.00 27784107.00 L 22565042.00 28197493.00 L 22820948.00 28197493.00 L 22820948.00 28090801.00 L 22920948.00 28090801.00 L 22920948.00 28297493.00 L 22730371.75 28297493.00 L 22711237.40 28343687.40 L 22930149.60 28562599.60 L 22976344.00 28543465.25 L 22976344.00 27989199.99 L 23076344.00 27989200.00 L 23076344.00 28637231.00 L 23375949.99 28637231.00 L 23375949.99 28737231.00 L 23170109.75 28737231.00 L 23150975.40 28783425.40 L 23552150.00 29184600.00 L 25076150.00 29184600.00 L 25076150.00 28982298.00  zM 23170843.99 26296608.00 L 23003522.00 26296608.00 L 23003522.00 26109600.99 L 23103522.00 26109600.99 L 23103522.00 26196608.00 L 23170843.99 26196608.00 L 23170843.99 26296608.00  zM 24302545.38 27967000.00 L 24200848.34 27967000.00 L 24210252.00 27931905.00 A 353016.46 353016.46 0 0 1 24401305.00 27740852.00 L 24436400.00 27731448.34 L 24436400.00 27833145.38 L 24356160.00 27886760.00 L 24302545.38 27967000.00  zM 24320105.31 28345680.31 L 24256330.00 28281905.00 L 24210252.00 28202095.00 L 24200848.34 28167000.00 L 24281502.00 28167000.00 L 24281502.00 28219400.00 L 24300905.00 28316945.00 L 24320105.31 28345680.31  zM 23975556.00 28737231.00 L 23575949.99 28737231.00 L 23575949.99 28637231.00 L 23875556.00 28637231.00 L 23875556.00 27989200.00 L 23975556.00 27989200.01 L 23975556.00 28737231.00  z"/>
<path id="N" d="M 38767295.00 32516055.00 L 38742696.81 32479241.19 L 39168874.00 32053064.00 L 39184725.00 32014795.00 L 39184725.00 31767129.00 L 39179817.00 31755279.64 L 39179817.00 31435276.36 L 39184725.00 31423427.00 L 39184725.00 29691143.00 L 39179817.00 29679293.64 L 39179817.00 29297442.00 L 39081393.00 29297442.00 L 39081393.00 29679293.64 L 39076485.00 29691143.00 L 39076485.00 31423427.00 L 39081393.00 31435276.36 L 39081393.00 31755279.64 L 39076485.00 31767129.00 L 39076485.00 31992377.00 L 38666158.81 32402703.19 L 38629345.00 32378105.00 A 254896.24 254896.24 0 1 0 38767295.00 32516055.00  z"/>
<path id="N" d="M 29140447.00 31435276.36 L 29145355.00 31423427.00 L 29145355.00 29348228.00 L 29140447.00 29336378.64 L 29140447.00 29297442.00 L 29099284.26 29297442.00 L 29091235.00 29294108.00 L 29083185.74 29297442.00 L 29042023.00 29297442.00 L 29042023.00 29336378.64 L 29037115.00 29348228.00 L 29037115.00 31423427.00 L 29042023.00 31435276.36 L 29042023.00 31817128.00 L 29140447.00 31817128.00 L 29140447.00 31435276.36  z"/>
<path id="N" d="M 30715250.00 17262048.36 L 30720158.00 17250199.00 L 30720158.00 15517915.00 L 30715250.00 15506065.64 L 30715250.00 15124214.00 L 30616826.00 15124214.00 L 30616826.00 15506065.64 L 30611918.00 15517915.00 L 30611918.00 17250199.00 L 30616826.00 17262048.36 L 30616826.00 17643900.00 L 30715250.00 17643900.00 L 30715250.00 17262048.36  z"/>
<path id="N" d="M 39179817.00 17262048.36 L 39184725.00 17250199.00 L 39184725.00 15517915.00 L 39179817.00 15506065.64 L 39179817.00 15124214.00 L 39081393.00 15124214.00 L 39081393.00 15506065.64 L 39076485.00 15517915.00 L 39076485.00 17250199.00 L 39081393.00 17262048.36 L 39081393.00 17643900.00 L 39179817.00 17643900.00 L 39179817.00 17262048.36  z"/>
<path id="N" d="M 22820948.00 26463307.00 L 22565042.00 26463307.00 L 22565042.00 26876693.00 L 22820948.00 26876693.00 L 22820948.00 26463307.00  z"/>
<path id="N" d="M 13136106.00 38519359.00 L 12386106.00 38519359.00 L 12386106.00 38920933.00 L 13136106.00 38920933.00 L 13136106.00 38519359.00  z"/>
<path id="N" d="M 32880605.00 29297442.00 L 32782181.00 29297442.00 L 32782181.00 30084844.00 L 32880605.00 30084844.00 L 32880605.00 29297442.00  z"/>
<path id="N" d="M 39789373.00 35302824.00 L 39498035.00 35302824.00 L 39498035.00 35932744.00 L 39789373.00 35932744.00 L 39789373.00 35302824.00  z"/>
<path id="N" d="M 32290054.00 31029726.00 L 32191630.00 31029726.00 L 32191630.00 31817128.00 L 32290054.00 31817128.00 L 32290054.00 31029726.00  z"/>
<path id="N" d="M 11874294.00 39519359.00 L 11124294.00 39519359.00 L 11124294.00 39920933.00 L 11874294.00 39920933.00 L 11874294.00 39519359.00  z"/>
<path id="N" d="M 22386916.00 25089194.11 L 22422457.00 25082124.00 L 22458843.00 25057812.00 L 22760343.53 24756310.55 L 22772477.00 24753897.00 L 22822094.00 24720744.00 L 22861146.00 24681692.00 L 22894299.00 24632075.00 L 22905941.00 24573548.00 L 22905941.00 24199850.00 L 22930167.00 24199850.00 L 22930167.00 23806150.00 L 22905941.00 23806150.00 L 22905941.00 23615650.00 L 22930167.00 23615650.00 L 22930167.00 23221950.00 L 22575837.00 23221950.00 L 22575837.00 23615650.00 L 22600063.00 23615650.00 L 22600063.00 23806150.00 L 22575837.00 23806150.00 L 22575837.00 24199850.00 L 22600063.00 24199850.00 L 22600063.00 24513051.01 L 22572653.00 24554073.00 L 22561011.00 24612600.00 L 22565295.03 24634136.78 L 22333080.10 24866351.00 L 22198176.00 24866351.00 L 22190068.04 24867963.71 L 22181950.97 24866351.00 L 21908881.00 24866351.00 L 21808927.11 24766397.11 A 126486.88 126486.88 0 1 0 21642827.00 24933548.00 L 21662833.27 24937527.27 L 21783118.00 25057812.00 L 21819504.00 25082124.00 L 21862429.03 25090661.00 L 21993216.00 25090661.00 L 21993216.00 25104726.00 L 22386916.00 25104726.00 L 22386916.00 25089194.11  z"/>
<path id="N" d="M 17072592.00 60817570.00 L 17072592.00 60502610.00 A 180637.35 180637.35 0 0 0 16711320.00 60502610.00 L 16711320.00 60817570.00 A 180637.35 180637.35 0 1 0 17072592.00 60817570.00  zM 16771532.00 60817570.00 L 16771532.00 60502610.00 A 120431.73 120431.73 0 1 1 17012380.00 60502610.00 L 17012380.00 60817570.00 A 120431.73 120431.73 0 1 1 16771532.00 60817570.00  z"/>
<path id="N" d="M 13667080.00 60817570.00 L 13667080.00 60502610.00 A 180637.35 180637.35 0 0 0 13305808.00 60502610.00 L 13305808.00 60817570.00 A 180637.35 180637.35 0 1 0 13667080.00 60817570.00  zM 13366020.00 60817570.00 L 13366020.00 60502610.00 A 120431.73 120431.73 0 1 1 13606868.00 60502610.00 L 13606868.00 60817570.00 A 120431.73 120431.73 0 1 1 13366020.00 60817570.00  z"/>
<path id="N" d="M 13667080.00 59624657.00 L 13667080.00 59034105.00 A 180637.35 180637.35 0 0 0 13305808.00 59034105.00 L 13305808.00 59624657.00 A 180637.35 180637.35 0 0 0 13667080.00 59624657.00  zM 13366020.00 59624657.00 L 13366020.00 59034105.00 A 120431.73 120431.73 0 1 1 13606868.00 59034105.00 L 13606868.00 59624657.00 A 120431.73 120431.73 0 1 1 13366020.00 59624657.00  z"/>
<path id="N" d="M 17072592.00 59624657.00 L 17072592.00 59034105.00 A 180637.35 180637.35 0 0 0 16711320.00 59034105.00 L 16711320.00 59624657.00 A 180637.35 180637.35 0 0 0 17072592.00 59624657.00  zM 16771532.00 59624657.00 L 16771532.00 59034105.00 A 120431.73 120431.73 0 1 1 17012380.00 59034105.00 L 17012380.00 59624657.00 A 120431.73 120431.73 0 1 1 16771532.00 59624657.00  z"/>
<path id="N" d="M 14017940.38 58943554.38 m -130459.26 0 a 130459.26 130459.26 0 1 1 260918.51 0a 130459.26 130459.26 0 1 1 -260918.51 0M 14017939.76 58943552.92 m -80284.08 0 a 80284.08 80284.08 0 1 1 160568.17 0a 80284.08 80284.08 0 1 1 -160568.17 0"/>
<path id="N" d="M 16360460.38 59475050.38 m -130459.26 0 a 130459.26 130459.26 0 1 1 260918.51 0a 130459.26 130459.26 0 1 1 -260918.51 0M 16360459.76 59475048.92 m -80284.08 0 a 80284.08 80284.08 0 1 1 160568.17 0a 80284.08 80284.08 0 1 1 -160568.17 0"/>
<path id="N" d="M 14017940.38 59475050.38 m -130459.26 0 a 130459.26 130459.26 0 1 1 260918.51 0a 130459.26 130459.26 0 1 1 -260918.51 0M 14017939.76 59475048.92 m -80284.08 0 a 80284.08 80284.08 0 1 1 160568.17 0a 80284.08 80284.08 0 1 1 -160568.17 0"/>
<path id="N" d="M 16360460.38 58943554.38 m -130459.26 0 a 130459.26 130459.26 0 1 1 260918.51 0a 130459.26 130459.26 0 1 1 -260918.51 0M 16360459.76 58943552.92 m -80284.08 0 a 80284.08 80284.08 0 1 1 160568.17 0a 80284.08 80284.08 0 1 1 -160568.17 0"/>
<path id="N" d="M 18313389.06 17195791.06 m -240860.29 0 a 240860.29 240860.29 0 1 1 481720.58 0a 240860.29 240860.29 0 1 1 -481720.58 0M 18313400.38 17195794.09 m -140500.91 0 a 140500.91 140500.91 0 1 1 281001.82 0a 140500.91 140500.91 0 1 1 -281001.82 0"/>
<path id="N" d="M 15036791.06 17195791.06 m -240860.29 0 a 240860.29 240860.29 0 1 1 481720.58 0a 240860.29 240860.29 0 1 1 -481720.58 0M 15036802.38 17195794.09 m -140500.91 0 a 140500.91 140500.91 0 1 1 281001.82 0a 140500.91 140500.91 0 1 1 -281001.82 0"/>
<path id="N" d="M 20243793.87 18973793.87 m -127457.60 0 a 127457.60 127457.60 0 1 1 254915.19 0a 127457.60 127457.60 0 1 1 -254915.19 0"/>
<path id="N" d="M 22188998.87 18863738.87 m -127457.60 0 a 127457.60 127457.60 0 1 1 254915.19 0a 127457.60 127457.60 0 1 1 -254915.19 0"/>
<path id="N" d="M 32969193.87 30581593.87 m -127457.60 0 a 127457.60 127457.60 0 1 1 254915.19 0a 127457.60 127457.60 0 1 1 -254915.19 0"/>
<path id="N" d="M 43230793.87 30556193.87 m -127457.60 0 a 127457.60 127457.60 0 1 1 254915.19 0a 127457.60 127457.60 0 1 1 -254915.19 0"/>
<path id="N" d="M 41503593.87 30556193.87 m -127457.60 0 a 127457.60 127457.60 0 1 1 254915.19 0a 127457.60 127457.60 0 1 1 -254915.19 0"/>
<path id="N" d="M 39725593.87 30556193.87 m -127457.60 0 a 127457.60 127457.60 0 1 1 254915.19 0a 127457.60 127457.60 0 1 1 -254915.19 0"/>
<path id="N" d="M 31394393.87 30556193.87 m -127457.60 0 a 127457.60 127457.60 0 1 1 254915.19 0a 127457.60 127457.60 0 1 1 -254915.19 0"/>
<path id="N" d="M 29692593.87 30556193.87 m -127457.60 0 a 127457.60 127457.60 0 1 1 254915.19 0a 127457.60 127457.60 0 1 1 -254915.19 0"/>
<path id="N" d="M 21513793.87 27939993.87 m -127457.60 0 a 127457.60 127457.60 0 1 1 254915.19 0a 127457.60 127457.60 0 1 1 -254915.19 0"/>
<path id="N" d="M 21545543.87 27304993.87 m -127457.60 0 a 127457.60 127457.60 0 1 1 254915.19 0a 127457.60 127457.60 0 1 1 -254915.19 0"/>
<path id="N" d="M 21539193.87 26669993.87 m -127457.60 0 a 127457.60 127457.60 0 1 1 254915.19 0a 127457.60 127457.60 0 1 1 -254915.19 0"/>
<path id="N" d="M 21545543.87 26009593.87 m -127457.60 0 a 127457.60 127457.60 0 1 1 254915.19 0a 127457.60 127457.60 0 1 1 -254915.19 0"/>
<path id="N" d="M 21189943.87 24485593.87 m -127457.60 0 a 127457.60 127457.60 0 1 1 254915.19 0a 127457.60 127457.60 0 1 1 -254915.19 0"/>
<path id="N" d="M 24314143.87 24434793.87 m -127457.60 0 a 127457.60 127457.60 0 1 1 254915.19 0a 127457.60 127457.60 0 1 1 -254915.19 0"/>
<path id="N" d="M 22815543.87 22809193.87 m -127457.60 0 a 127457.60 127457.60 0 1 1 254915.19 0a 127457.60 127457.60 0 1 1 -254915.19 0"/>
<path id="N" d="M 19913593.87 18110193.87 m -127457.60 0 a 127457.60 127457.60 0 1 1 254915.19 0a 127457.60 127457.60 0 1 1 -254915.19 0"/>
<path id="N" d="M 39700193.87 16357593.87 m -127457.60 0 a 127457.60 127457.60 0 1 1 254915.19 0a 127457.60 127457.60 0 1 1 -254915.19 0"/>
<path id="N" d="M 33019993.87 16357593.87 m -127457.60 0 a 127457.60 127457.60 0 1 1 254915.19 0a 127457.60 127457.60 0 1 1 -254915.19 0"/>
<path id="N" d="M 22129743.87 20675593.87 m -127457.60 0 a 127457.60 127457.60 0 1 1 254915.19 0a 127457.60 127457.60 0 1 1 -254915.19 0"/>
<path id="N" d="M 18897593.87 21437593.87 m -127457.60 0 a 127457.60 127457.60 0 1 1 254915.19 0a 127457.60 127457.60 0 1 1 -254915.19 0"/>
<path id="N" d="M 21026150.87 21248400.87 m -127457.60 0 a 127457.60 127457.60 0 1 1 254915.19 0a 127457.60 127457.60 0 1 1 -254915.19 0"/>
<path id="N" d="M 34493193.87 16382993.87 m -127457.60 0 a 127457.60 127457.60 0 1 1 254915.19 0a 127457.60 127457.60 0 1 1 -254915.19 0"/>
<path id="N" d="M 19735793.87 22199593.87 m -127457.60 0 a 127457.60 127457.60 0 1 1 254915.19 0a 127457.60 127457.60 0 1 1 -254915.19 0"/>
<path id="N" d="M 41478193.87 16382993.87 m -127457.60 0 a 127457.60 127457.60 0 1 1 254915.19 0a 127457.60 127457.60 0 1 1 -254915.19 0"/>
<path id="N" d="M 43205393.87 16357593.87 m -127457.60 0 a 127457.60 127457.60 0 1 1 254915.19 0a 127457.60 127457.60 0 1 1 -254915.19 0"/>
<path id="N" d="M 22955250.00 19722783.00 L 22561550.00 19722783.00 L 22561550.00 20077113.00 L 22955250.00 20077113.00 L 22955250.00 19722783.00  z"/>
<path id="N" d="M 23564850.00 19722783.00 L 23171150.00 19722783.00 L 23171150.00 20077113.00 L 23564850.00 20077113.00 L 23564850.00 19722783.00  z"/>
<path id="N" d="M 24043958.00 24722771.00 L 23669942.00 24722771.00 L 23669942.00 25057417.00 L 24043958.00 25057417.00 L 24043958.00 24722771.00  z"/>
<path id="N" d="M 20714017.00 18243550.00 L 20359687.00 18243550.00 L 20359687.00 18637250.00 L 20714017.00 18637250.00 L 20714017.00 18243550.00  z"/>
<path id="N" d="M 22352365.00 35302824.00 L 22061027.00 35302824.00 L 22061027.00 35932744.00 L 22352365.00 35932744.00 L 22352365.00 35302824.00  z"/>
<path id="N" d="M 32289373.00 34279202.00 L 31998035.00 34279202.00 L 31998035.00 34909122.00 L 32289373.00 34909122.00 L 32289373.00 34279202.00  z"/>
<path id="N" d="M 20001548.00 21352510.00 L 19470052.00 21352510.00 L 19470052.00 21805266.00 L 20001548.00 21805266.00 L 20001548.00 21352510.00  z"/>
<path id="N" d="M 21852365.00 34279202.00 L 21561027.00 34279202.00 L 21561027.00 34909122.00 L 21852365.00 34909122.00 L 21852365.00 34279202.00  z"/>
<path id="N" d="M 22852365.00 34279202.00 L 22561027.00 34279202.00 L 22561027.00 34909122.00 L 22852365.00 34909122.00 L 22852365.00 34279202.00  z"/>
<path id="N" d="M 30912101.00 31029726.00 L 30813677.00 31029726.00 L 30813677.00 31817128.00 L 30912101.00 31817128.00 L 30912101.00 31029726.00  z"/>
<path id="N" d="M 39770368.00 31029726.00 L 39671944.00 31029726.00 L 39671944.00 31817128.00 L 39770368.00 31817128.00 L 39770368.00 31029726.00  z"/>
<path id="N" d="M 43313676.00 29297442.00 L 43215252.00 29297442.00 L 43215252.00 30084844.00 L 43313676.00 30084844.00 L 43313676.00 29297442.00  z"/>
<path id="N" d="M 33274306.00 31029726.00 L 33175882.00 31029726.00 L 33175882.00 31817128.00 L 33274306.00 31817128.00 L 33274306.00 31029726.00  z"/>
<path id="N" d="M 22303700.00 19666600.00 L 21928700.00 19666600.00 L 21928700.00 19906600.00 L 22303700.00 19906600.00 L 22303700.00 19666600.00  z"/>
<path id="N" d="M 22151657.00 27784107.00 L 21895751.00 27784107.00 L 21895751.00 28197493.00 L 22151657.00 28197493.00 L 22151657.00 27784107.00  z"/>
<path id="N" d="M 22151657.00 27123707.00 L 21895751.00 27123707.00 L 21895751.00 27537093.00 L 22151657.00 27537093.00 L 22151657.00 27123707.00  z"/>
<path id="N" d="M 22151657.00 26463307.00 L 21895751.00 26463307.00 L 21895751.00 26876693.00 L 22151657.00 26876693.00 L 22151657.00 26463307.00  z"/>
<path id="N" d="M 22151657.00 25802907.00 L 21895751.00 25802907.00 L 21895751.00 26216293.00 L 22151657.00 26216293.00 L 22151657.00 25802907.00  z"/>
<path id="N" d="M 19899948.00 18504534.00 L 19368452.00 18504534.00 L 19368452.00 18957290.00 L 19899948.00 18957290.00 L 19899948.00 18504534.00  z"/>
<path id="N" d="M 11874294.00 37519359.00 L 11124294.00 37519359.00 L 11124294.00 37920933.00 L 11874294.00 37920933.00 L 11874294.00 37519359.00  z"/>
<path id="N" d="M 31305801.00 15124214.00 L 31207377.00 15124214.00 L 31207377.00 15911616.00 L 31305801.00 15911616.00 L 31305801.00 15124214.00  z"/>
<path id="N" d="M 42132573.00 15124214.00 L 42034149.00 15124214.00 L 42034149.00 15911616.00 L 42132573.00 15911616.00 L 42132573.00 15124214.00  z"/>
<path id="N" d="M 40951471.00 15124214.00 L 40853047.00 15124214.00 L 40853047.00 15911616.00 L 40951471.00 15911616.00 L 40951471.00 15124214.00  z"/>
<path id="N" d="M 39770368.00 15124214.00 L 39671944.00 15124214.00 L 39671944.00 15911616.00 L 39770368.00 15911616.00 L 39770368.00 15124214.00  z"/>
<path id="N" d="M 34849109.00 15124214.00 L 34750685.00 15124214.00 L 34750685.00 15911616.00 L 34849109.00 15911616.00 L 34849109.00 15124214.00  z"/>
<path id="N" d="M 43313676.00 31029726.00 L 43215252.00 31029726.00 L 43215252.00 31817128.00 L 43313676.00 31817128.00 L 43313676.00 31029726.00  z"/>
<path id="N" d="M 32486904.00 15124214.00 L 32388480.00 15124214.00 L 32388480.00 15911616.00 L 32486904.00 15911616.00 L 32486904.00 15124214.00  z"/>
<path id="N" d="M 31305801.00 16856498.00 L 31207377.00 16856498.00 L 31207377.00 17643900.00 L 31305801.00 17643900.00 L 31305801.00 16856498.00  z"/>
<path id="N" d="M 42132573.00 31029726.00 L 42034149.00 31029726.00 L 42034149.00 31817128.00 L 42132573.00 31817128.00 L 42132573.00 31029726.00  z"/>
<path id="N" d="M 33668006.00 15124214.00 L 33569582.00 15124214.00 L 33569582.00 15911616.00 L 33668006.00 15911616.00 L 33668006.00 15124214.00  z"/>
<path id="N" d="M 33274306.00 29297442.00 L 33175882.00 29297442.00 L 33175882.00 30084844.00 L 33274306.00 30084844.00 L 33274306.00 29297442.00  z"/>
<path id="N" d="M 39770368.00 29297442.00 L 39671944.00 29297442.00 L 39671944.00 30084844.00 L 39770368.00 30084844.00 L 39770368.00 29297442.00  z"/>
<path id="N" d="M 42132573.00 29297442.00 L 42034149.00 29297442.00 L 42034149.00 30084844.00 L 42132573.00 30084844.00 L 42132573.00 29297442.00  z"/>
<path id="N" d="M 32093203.00 31029726.00 L 31994779.00 31029726.00 L 31994779.00 31817128.00 L 32093203.00 31817128.00 L 32093203.00 31029726.00  z"/>
<path id="N" d="M 30912101.00 29297442.00 L 30813677.00 29297442.00 L 30813677.00 30084844.00 L 30912101.00 30084844.00 L 30912101.00 29297442.00  z"/>
<path id="N" d="M 40951471.00 31029726.00 L 40853047.00 31029726.00 L 40853047.00 31817128.00 L 40951471.00 31817128.00 L 40951471.00 31029726.00  z"/>
<path id="N" d="M 39770368.00 16856498.00 L 39671944.00 16856498.00 L 39671944.00 17643900.00 L 39770368.00 17643900.00 L 39770368.00 16856498.00  z"/>
<path id="N" d="M 32093203.00 29297442.00 L 31994779.00 29297442.00 L 31994779.00 30084844.00 L 32093203.00 30084844.00 L 32093203.00 29297442.00  z"/>
<path id="N" d="M 29730998.00 31029726.00 L 29632574.00 31029726.00 L 29632574.00 31817128.00 L 29730998.00 31817128.00 L 29730998.00 31029726.00  z"/>
<path id="N" d="M 32486904.00 16856498.00 L 32388480.00 16856498.00 L 32388480.00 17643900.00 L 32486904.00 17643900.00 L 32486904.00 16856498.00  z"/>
<path id="N" d="M 40951471.00 16856498.00 L 40853047.00 16856498.00 L 40853047.00 17643900.00 L 40951471.00 17643900.00 L 40951471.00 16856498.00  z"/>
<path id="N" d="M 34849109.00 16856498.00 L 34750685.00 16856498.00 L 34750685.00 17643900.00 L 34849109.00 17643900.00 L 34849109.00 16856498.00  z"/>
<path id="N" d="M 33668006.00 16856498.00 L 33569582.00 16856498.00 L 33569582.00 17643900.00 L 33668006.00 17643900.00 L 33668006.00 16856498.00  z"/>
<path id="N" d="M 43313676.00 15124214.00 L 43215252.00 15124214.00 L 43215252.00 15911616.00 L 43313676.00 15911616.00 L 43313676.00 15124214.00  z"/>
<path id="N" d="M 40951471.00 29297442.00 L 40853047.00 29297442.00 L 40853047.00 30084844.00 L 40951471.00 30084844.00 L 40951471.00 29297442.00  z"/>
<path id="N" d="M 29730998.00 29297442.00 L 29632574.00 29297442.00 L 29632574.00 30084844.00 L 29730998.00 30084844.00 L 29730998.00 29297442.00  z"/>
<path id="N" d="M 43313676.00 16856498.00 L 43215252.00 16856498.00 L 43215252.00 17643900.00 L 43313676.00 17643900.00 L 43313676.00 16856498.00  z"/>
<path id="N" d="M 42132573.00 16856498.00 L 42034149.00 16856498.00 L 42034149.00 17643900.00 L 42132573.00 17643900.00 L 42132573.00 16856498.00  z"/>
<path id="N" d="M 31699502.00 31029726.00 L 31601078.00 31029726.00 L 31601078.00 31817128.00 L 31699502.00 31817128.00 L 31699502.00 31029726.00  z"/>
<path id="N" d="M 11874294.00 55519359.00 L 11124294.00 55519359.00 L 11124294.00 55920933.00 L 11874294.00 55920933.00 L 11874294.00 55519359.00  z"/>
<path id="N" d="M 15973993.00 60382510.00 L 16108724.00 60247780.00 L 16134142.00 60209740.00 L 16143067.00 60164869.00 L 16143067.00 59529877.88 L 16146343.00 59524975.00 L 16156274.00 59475050.00 L 16146343.00 59425125.00 L 16143067.00 59420222.12 L 16143067.00 58998381.88 L 16146343.00 58993479.00 A 130456.67 130456.67 0 1 0 15905285.00 58993479.00 L 15908561.00 58998381.88 L 15908561.00 59420222.12 L 15905285.00 59425125.00 L 15895354.00 59475050.00 L 15905285.00 59524975.00 L 15908561.00 59529877.88 L 15908561.00 60116301.25 L 15842515.75 60182347.00 L 14535884.75 60182347.00 L 14469839.00 60116301.75 L 14469839.00 59529877.88 L 14473115.00 59524975.00 L 14483046.00 59475050.00 L 14473115.00 59425125.00 L 14469839.00 59420222.12 L 14469839.00 58998381.88 L 14473115.00 58993479.00 L 14483046.00 58943554.00 L 14474795.00 58902074.68 L 14474795.00 58893370.04 L 15338912.96 58029253.00 L 15460869.00 58029253.00 L 15505740.00 58020328.00 L 15543779.00 57994910.00 L 15678510.00 57860180.00 L 15703928.00 57822140.00 L 15712853.00 57777269.00 L 15712853.00 23645167.00 L 16634767.00 22723253.00 L 20345400.00 22723253.00 L 20357194.03 22720907.13 L 20421600.00 22733718.00 A 203916.30 203916.30 0 0 0 20625518.00 22529800.00 L 20625518.00 21428700.00 L 20619197.26 21396922.85 L 21536611.00 20479510.00 L 21562028.00 20441471.00 L 21570953.00 20396600.00 L 21570953.00 19942680.07 L 21974780.93 19538853.00 L 22178700.00 19538853.00 L 22190027.10 19536600.00 L 22303700.00 19536600.00 L 22303700.00 19485705.00 L 22561550.00 19485705.00 L 22561550.00 19545617.00 L 22955250.00 19545617.00 L 22955250.00 19485705.00 L 23171150.00 19485705.00 L 23171150.00 19545617.00 L 23564850.00 19545617.00 L 23564850.00 19191287.00 L 23171150.00 19191287.00 L 23171150.00 19251199.00 L 22955250.00 19251199.00 L 22955250.00 19191287.00 L 22561550.00 19191287.00 L 22561550.00 19251199.00 L 22231848.00 19251199.00 L 22186977.00 19260124.00 L 22148938.00 19285541.00 L 22137879.21 19296600.00 L 21928700.00 19296600.00 L 21928700.00 19304347.00 L 21881342.00 19313272.00 L 21843302.00 19338690.00 L 21370790.00 19811203.00 L 21345372.00 19849242.00 L 21336447.00 19894113.00 L 21336447.00 20348032.03 L 20453377.15 21231102.74 L 20421600.00 21224782.00 A 203916.30 203916.30 0 0 0 20217682.00 21428700.00 L 20217682.00 22488747.00 L 16586200.00 22488747.00 L 16541329.00 22497672.00 L 16503290.00 22523090.00 L 15512690.00 23513690.00 L 15487272.00 23551729.00 L 15478347.00 23596600.00 L 15478347.00 57728701.25 L 15412301.75 57794747.00 L 15290345.00 57794747.00 L 15245474.00 57803672.00 L 15207435.00 57829089.00 L 14274632.00 58761893.00 L 14249214.00 58799932.00 L 14240289.00 58844803.00 L 14240289.00 58881308.94 L 14232057.00 58893629.00 L 14222126.00 58943554.00 L 14232057.00 58993479.00 L 14235333.00 58998381.88 L 14235333.00 59420222.12 L 14232057.00 59425125.00 L 14222126.00 59475050.00 L 14232057.00 59524975.00 L 14235333.00 59529877.88 L 14235333.00 60164869.00 L 14244258.00 60209740.00 L 14269676.00 60247779.00 L 14404406.00 60382510.00 L 14442446.00 60407928.00 L 14487317.00 60416853.00 L 15891083.00 60416853.00 L 15935954.00 60407928.00 L 15973993.00 60382510.00  zM 14352585.76 58943552.92 m -80284.08 0 a 80284.08 80284.08 0 1 1 160568.17 0a 80284.08 80284.08 0 1 1 -160568.17 0M 14352585.76 59475048.92 m -80284.08 0 a 80284.08 80284.08 0 1 1 160568.17 0a 80284.08 80284.08 0 1 1 -160568.17 0M 16025813.76 58943552.92 m -80284.08 0 a 80284.08 80284.08 0 1 1 160568.17 0a 80284.08 80284.08 0 1 1 -160568.17 0M 16025813.76 59475048.92 m -80284.08 0 a 80284.08 80284.08 0 1 1 160568.17 0a 80284.08 80284.08 0 1 1 -160568.17 0"/>
<path id="N" d="M 44335870.00 32270869.00 L 45340469.00 31266269.00 A 54118.22 54118.22 0 0 0 45263932.00 31189732.00 L 44275183.02 32178480.00 L 39697217.11 32178480.00 L 39578426.00 32059688.11 L 39578426.00 31423427.00 L 39573518.00 31411577.64 L 39573518.00 31029726.00 L 39475094.00 31029726.00 L 39475094.00 31411577.64 L 39470186.00 31423427.00 L 39470185.00 32082106.00 L 39486037.00 32120375.00 L 39636531.00 32270869.00 L 39674802.41 32286720.00 L 44297601.00 32286721.00 L 44335870.00 32270869.00  z"/>
<path id="N" d="M 20352365.00 35302824.00 L 20061027.00 35302824.00 L 20061027.00 35932744.00 L 20352365.00 35932744.00 L 20352365.00 35302824.00  z"/>
<path id="N" d="M 30518400.00 31029726.00 L 30419976.00 31029726.00 L 30419976.00 31817128.00 L 30518400.00 31817128.00 L 30518400.00 31029726.00  z"/>
<path id="N" d="M 11874294.00 51519359.00 L 11124294.00 51519359.00 L 11124294.00 51920933.00 L 11874294.00 51920933.00 L 11874294.00 51519359.00  z"/>
<path id="N" d="M 40164069.00 29297442.00 L 40065645.00 29297442.00 L 40065645.00 30084844.00 L 40164069.00 30084844.00 L 40164069.00 29297442.00  z"/>
<path id="N" d="M 28352365.00 35302824.00 L 28061027.00 35302824.00 L 28061027.00 35932744.00 L 28352365.00 35932744.00 L 28352365.00 35302824.00  z"/>
<path id="N" d="M 30124699.00 29297442.00 L 30026275.00 29297442.00 L 30026275.00 30084844.00 L 30124699.00 30084844.00 L 30124699.00 29297442.00  z"/>
<path id="N" d="M 23852365.00 34279202.00 L 23561027.00 34279202.00 L 23561027.00 34909122.00 L 23852365.00 34909122.00 L 23852365.00 34279202.00  z"/>
<path id="N" d="M 26042243.00 20859463.00 L 26042243.00 19079323.00 A 54118.70 54118.70 0 0 0 25934003.00 19079323.00 L 25934003.00 20859463.00 A 54118.70 54118.70 0 0 0 26042243.00 20859463.00  z"/>
<path id="N" d="M 29337298.00 29297442.00 L 29238874.00 29297442.00 L 29238874.00 30084844.00 L 29337298.00 30084844.00 L 29337298.00 29297442.00  z"/>
<path id="N" d="M 40289373.00 34279202.00 L 39998035.00 34279202.00 L 39998035.00 34909122.00 L 40289373.00 34909122.00 L 40289373.00 34279202.00  z"/>
<path id="N" d="M 30715250.00 31029726.00 L 30616826.00 31029726.00 L 30616826.00 31817128.00 L 30715250.00 31817128.00 L 30715250.00 31029726.00  z"/>
<path id="N" d="M 13136106.00 52519359.00 L 12386106.00 52519359.00 L 12386106.00 52920933.00 L 13136106.00 52920933.00 L 13136106.00 52519359.00  z"/>
<path id="N" d="M 21352365.00 35302824.00 L 21061027.00 35302824.00 L 21061027.00 35932744.00 L 21352365.00 35932744.00 L 21352365.00 35302824.00  z"/>
<path id="N" d="M 33471156.00 31029726.00 L 33372732.00 31029726.00 L 33372732.00 31817128.00 L 33471156.00 31817128.00 L 33471156.00 31029726.00  z"/>
<path id="N" d="M 42329424.00 29297442.00 L 42231000.00 29297442.00 L 42231000.00 30084844.00 L 42329424.00 30084844.00 L 42329424.00 29297442.00  z"/>
<path id="N" d="M 24352365.00 35302824.00 L 24061027.00 35302824.00 L 24061027.00 35932744.00 L 24352365.00 35932744.00 L 24352365.00 35302824.00  z"/>
<path id="N" d="M 24644350.00 23571200.00 L 24644350.00 23022231.00 L 24337949.99 23022231.00 L 24337949.99 22922231.00 L 24637556.00 22922231.00 L 24637556.00 21426169.00 L 24492848.00 21426169.00 L 24492848.00 17811750.00 L 24473445.00 17714205.00 L 24418190.00 17631510.00 L 22825075.00 16038395.00 L 22825075.00 15808325.00 L 22234525.00 15808325.00 L 22234525.00 16398875.00 L 22464595.00 16398875.00 L 23983052.00 17917332.00 L 23983052.00 21426169.00 L 23838344.00 21426169.00 L 23838344.00 21853090.00 L 23738344.00 21753090.00 L 23738344.00 21412200.00 L 23574998.00 21412200.00 L 23574998.00 21591400.45 L 23497295.00 21539481.00 L 23474998.00 21535045.83 L 23474998.00 21504909.00 L 23089172.00 21504909.00 L 23089172.00 22843491.00 L 23182085.00 22843491.00 L 23182085.00 22943491.00 L 23094950.00 22943491.00 L 23094950.00 23121950.00 L 23184498.01 23121950.00 L 23184498.01 23221950.00 L 23107333.00 23221950.00 L 23107333.00 23615650.00 L 23461663.00 23615650.00 L 23461663.00 23518800.01 L 23561663.00 23518800.01 L 23561663.00 24102405.43 L 23608995.00 24082800.00 A 229408.51 229408.51 0 0 1 23878750.00 24263045.00 L 23878750.00 24336800.00 L 24644350.00 23571200.00  zM 22529800.44 16103598.65 m -180637.35 0 a 180637.35 180637.35 0 1 1 361274.69 0a 180637.35 180637.35 0 1 1 -361274.69 0M 23574998.00 22943491.00 L 23382085.00 22943491.00 L 23382085.00 22843491.00 L 23474998.00 22843491.00 L 23474998.00 22274200.00 L 23538494.00 22274200.00 L 23574998.00 22310704.00 L 23574998.00 22943491.00  zM 24137949.99 23022231.00 L 23738344.00 23022231.00 L 23738344.00 22417037.89 L 23798974.00 22429098.00 L 23838344.00 22421266.78 L 23838344.00 22922231.00 L 24137949.99 22922231.00 L 24137949.99 23022231.00  zM 23561663.00 23318800.01 L 23461663.00 23318800.01 L 23461663.00 23221950.00 L 23384498.01 23221950.00 L 23384498.01 23121950.00 L 23561663.00 23121950.00 L 23561663.00 23318800.01  z"/>
<path id="N" d="M 23469593.00 24494490.00 L 23372744.00 24494490.00 L 23372744.00 24394490.00 L 23446119.93 24394490.00 L 23428750.00 24352555.00 L 23428750.00 24299850.00 L 23384497.99 24299850.00 L 23384497.99 24199850.00 L 23461663.00 24199850.00 L 23461663.00 23806150.00 L 23107333.00 23806150.00 L 23107333.00 24199850.00 L 23184497.99 24199850.00 L 23184497.99 24299850.00 L 23094950.00 24299850.00 L 23094950.00 24394490.00 L 23172744.00 24394490.00 L 23172744.00 24494490.00 L 23075893.00 24494490.00 L 23075893.00 24730710.00 L 23469593.00 24730710.00 L 23469593.00 24494490.00  z"/>
<path id="N" d="M 22386916.00 25242521.00 L 22183033.14 25242521.00 L 22171651.00 25240257.00 L 21792464.74 25240257.00 L 21788070.00 25233680.00 A 127441.40 127441.40 0 1 0 21697950.00 25451249.00 L 21733515.43 25444175.00 L 21993216.00 25444175.00 L 21993216.00 25478741.00 L 22386916.00 25478741.00 L 22386916.00 25242521.00  z"/>
<path id="N" d="M 23653743.87 24307793.87 m -127457.60 0 a 127457.60 127457.60 0 1 1 254915.19 0a 127457.60 127457.60 0 1 1 -254915.19 0"/>
<path id="N" d="M 33289373.00 34279202.00 L 32998035.00 34279202.00 L 32998035.00 34909122.00 L 33289373.00 34909122.00 L 33289373.00 34279202.00  z"/>
<path id="N" d="M 23682750.00 24532800.00 L 23608995.00 24532800.00 L 23569593.00 24516479.26 L 23569593.00 24645957.00 L 23682750.00 24532800.00  z"/>
<path id="N" d="M 33789373.00 35302824.00 L 33498035.00 35302824.00 L 33498035.00 35932744.00 L 33789373.00 35932744.00 L 33789373.00 35302824.00  z"/>
<path id="N" d="M 42919975.00 29297442.00 L 42821551.00 29297442.00 L 42821551.00 30084844.00 L 42919975.00 30084844.00 L 42919975.00 29297442.00  z"/>
<path id="N" d="M 23352365.00 35302824.00 L 23061027.00 35302824.00 L 23061027.00 35932744.00 L 23352365.00 35932744.00 L 23352365.00 35302824.00  z"/>
<path id="N" d="M 29534148.00 29297442.00 L 29435724.00 29297442.00 L 29435724.00 30084844.00 L 29534148.00 30084844.00 L 29534148.00 29297442.00  z"/>
<path id="N" d="M 35789373.00 35302824.00 L 35498035.00 35302824.00 L 35498035.00 35932744.00 L 35789373.00 35932744.00 L 35789373.00 35302824.00  z"/>
<path id="N" d="M 15691169.38 58943554.38 m -130459.26 0 a 130459.26 130459.26 0 1 1 260918.51 0a 130459.26 130459.26 0 1 1 -260918.51 0M 15691168.76 58943552.92 m -80284.08 0 a 80284.08 80284.08 0 1 1 160568.17 0a 80284.08 80284.08 0 1 1 -160568.17 0"/>
<path id="N" d="M 14687231.38 59475050.38 m -130459.26 0 a 130459.26 130459.26 0 1 1 260918.51 0a 130459.26 130459.26 0 1 1 -260918.51 0M 14687230.76 59475048.92 m -80284.08 0 a 80284.08 80284.08 0 1 1 160568.17 0a 80284.08 80284.08 0 1 1 -160568.17 0"/>
<path id="N" d="M 29534148.00 31029726.00 L 29435724.00 31029726.00 L 29435724.00 31817128.00 L 29534148.00 31817128.00 L 29534148.00 31029726.00  z"/>
<path id="N" d="M 30321550.00 31029726.00 L 30223126.00 31029726.00 L 30223126.00 31817128.00 L 30321550.00 31817128.00 L 30321550.00 31029726.00  z"/>
<path id="N" d="M 43904227.00 29297442.00 L 43805803.00 29297442.00 L 43805803.00 30084844.00 L 43904227.00 30084844.00 L 43904227.00 29297442.00  z"/>
<path id="N" d="M 39376668.00 29297442.00 L 39278244.00 29297442.00 L 39278244.00 30084844.00 L 39376668.00 30084844.00 L 39376668.00 29297442.00  z"/>
<path id="N" d="M 40754620.00 29297442.00 L 40656196.00 29297442.00 L 40656196.00 30084844.00 L 40754620.00 30084844.00 L 40754620.00 29297442.00  z"/>
<path id="N" d="M 33864857.00 29297442.00 L 33766433.00 29297442.00 L 33766433.00 30084844.00 L 33864857.00 30084844.00 L 33864857.00 29297442.00  z"/>
<path id="N" d="M 33668006.00 29297442.00 L 33569582.00 29297442.00 L 33569582.00 30084844.00 L 33668006.00 30084844.00 L 33668006.00 29297442.00  z"/>
<path id="N" d="M 42723124.00 16856498.00 L 42624700.00 16856498.00 L 42624700.00 17643900.00 L 42723124.00 17643900.00 L 42723124.00 16856498.00  z"/>
<path id="N" d="M 43116825.00 16856498.00 L 43018401.00 16856498.00 L 43018401.00 17643900.00 L 43116825.00 17643900.00 L 43116825.00 16856498.00  z"/>
<path id="N" d="M 42526274.00 16856498.00 L 42427850.00 16856498.00 L 42427850.00 17643900.00 L 42526274.00 17643900.00 L 42526274.00 16856498.00  z"/>
<path id="N" d="M 42329424.00 16856498.00 L 42231000.00 16856498.00 L 42231000.00 17643900.00 L 42329424.00 17643900.00 L 42329424.00 16856498.00  z"/>
<path id="N" d="M 42723124.00 29297442.00 L 42624700.00 29297442.00 L 42624700.00 30084844.00 L 42723124.00 30084844.00 L 42723124.00 29297442.00  z"/>
<path id="N" d="M 41542022.00 29297442.00 L 41443598.00 29297442.00 L 41443598.00 30084844.00 L 41542022.00 30084844.00 L 41542022.00 29297442.00  z"/>
<path id="N" d="M 42919975.00 16856498.00 L 42821551.00 16856498.00 L 42821551.00 17643900.00 L 42919975.00 17643900.00 L 42919975.00 16856498.00  z"/>
<path id="N" d="M 32683754.00 29297442.00 L 32585330.00 29297442.00 L 32585330.00 30084844.00 L 32683754.00 30084844.00 L 32683754.00 29297442.00  z"/>
<path id="N" d="M 40360920.00 29297442.00 L 40262496.00 29297442.00 L 40262496.00 30084844.00 L 40360920.00 30084844.00 L 40360920.00 29297442.00  z"/>
<path id="N" d="M 47964294.00 55519359.00 L 47214294.00 55519359.00 L 47214294.00 55920933.00 L 47964294.00 55920933.00 L 47964294.00 55519359.00  z"/>
<path id="N" d="M 49226106.00 56519359.00 L 48476106.00 56519359.00 L 48476106.00 56920933.00 L 49226106.00 56920933.00 L 49226106.00 56519359.00  z"/>
<path id="N" d="M 49226106.00 50519359.00 L 48476106.00 50519359.00 L 48476106.00 50920933.00 L 49226106.00 50920933.00 L 49226106.00 50519359.00  z"/>
<path id="N" d="M 49226106.00 54519359.00 L 48476106.00 54519359.00 L 48476106.00 54920933.00 L 49226106.00 54920933.00 L 49226106.00 54519359.00  z"/>
<path id="N" d="M 47964294.00 53519359.00 L 47214294.00 53519359.00 L 47214294.00 53920933.00 L 47964294.00 53920933.00 L 47964294.00 53519359.00  z"/>
<path id="N" d="M 49226106.00 40519359.00 L 48476106.00 40519359.00 L 48476106.00 40920933.00 L 49226106.00 40920933.00 L 49226106.00 40519359.00  z"/>
<path id="N" d="M 47964294.00 51519359.00 L 47214294.00 51519359.00 L 47214294.00 51920933.00 L 47964294.00 51920933.00 L 47964294.00 51519359.00  z"/>
<path id="N" d="M 49226106.00 52519359.00 L 48476106.00 52519359.00 L 48476106.00 52920933.00 L 49226106.00 52920933.00 L 49226106.00 52519359.00  z"/>
<path id="N" d="M 13136106.00 48519359.00 L 12386106.00 48519359.00 L 12386106.00 48920933.00 L 13136106.00 48920933.00 L 13136106.00 48519359.00  z"/>
<path id="N" d="M 49226106.00 48519359.00 L 48476106.00 48519359.00 L 48476106.00 48920933.00 L 49226106.00 48920933.00 L 49226106.00 48519359.00  z"/>
<path id="N" d="M 32789373.00 35302824.00 L 32498035.00 35302824.00 L 32498035.00 35932744.00 L 32789373.00 35932744.00 L 32789373.00 35302824.00  z"/>
<path id="N" d="M 34289373.00 34279202.00 L 33998035.00 34279202.00 L 33998035.00 34909122.00 L 34289373.00 34909122.00 L 34289373.00 34279202.00  z"/>
<path id="N" d="M 11874294.00 47519359.00 L 11124294.00 47519359.00 L 11124294.00 47920933.00 L 11874294.00 47920933.00 L 11874294.00 47519359.00  z"/>
<path id="N" d="M 47964294.00 47519359.00 L 47214294.00 47519359.00 L 47214294.00 47920933.00 L 47964294.00 47920933.00 L 47964294.00 47519359.00  z"/>
<path id="N" d="M 47964294.00 49519359.00 L 47214294.00 49519359.00 L 47214294.00 49920933.00 L 47964294.00 49920933.00 L 47964294.00 49519359.00  z"/>
<path id="N" d="M 49226106.00 46519359.00 L 48476106.00 46519359.00 L 48476106.00 46920933.00 L 49226106.00 46920933.00 L 49226106.00 46519359.00  z"/>
<path id="N" d="M 33668006.00 31029726.00 L 33569582.00 31029726.00 L 33569582.00 31817128.00 L 33668006.00 31817128.00 L 33668006.00 31029726.00  z"/>
<path id="N" d="M 32683754.00 31029726.00 L 32585330.00 31029726.00 L 32585330.00 31817128.00 L 32683754.00 31817128.00 L 32683754.00 31029726.00  z"/>
<path id="N" d="M 41345172.00 31029726.00 L 41246748.00 31029726.00 L 41246748.00 31817128.00 L 41345172.00 31817128.00 L 41345172.00 31029726.00  z"/>
<path id="N" d="M 41148321.00 31029726.00 L 41049897.00 31029726.00 L 41049897.00 31817128.00 L 41148321.00 31817128.00 L 41148321.00 31029726.00  z"/>
<path id="N" d="M 39967219.00 31029726.00 L 39868795.00 31029726.00 L 39868795.00 31817128.00 L 39967219.00 31817128.00 L 39967219.00 31029726.00  z"/>
<path id="N" d="M 41542022.00 31029726.00 L 41443598.00 31029726.00 L 41443598.00 31817128.00 L 41542022.00 31817128.00 L 41542022.00 31029726.00  z"/>
<path id="N" d="M 33864857.00 31029726.00 L 33766433.00 31029726.00 L 33766433.00 31817128.00 L 33864857.00 31817128.00 L 33864857.00 31029726.00  z"/>
<path id="N" d="M 40164069.00 31029726.00 L 40065645.00 31029726.00 L 40065645.00 31817128.00 L 40164069.00 31817128.00 L 40164069.00 31029726.00  z"/>
<path id="N" d="M 39967219.00 15124214.00 L 39868795.00 15124214.00 L 39868795.00 15911616.00 L 39967219.00 15911616.00 L 39967219.00 15124214.00  z"/>
<path id="N" d="M 40164069.00 15124214.00 L 40065645.00 15124214.00 L 40065645.00 15911616.00 L 40164069.00 15911616.00 L 40164069.00 15124214.00  z"/>
<path id="N" d="M 40360920.00 15124214.00 L 40262496.00 15124214.00 L 40262496.00 15911616.00 L 40360920.00 15911616.00 L 40360920.00 15124214.00  z"/>
<path id="N" d="M 40557770.00 15124214.00 L 40459346.00 15124214.00 L 40459346.00 15911616.00 L 40557770.00 15911616.00 L 40557770.00 15124214.00  z"/>
<path id="N" d="M 40360920.00 31029726.00 L 40262496.00 31029726.00 L 40262496.00 31817128.00 L 40360920.00 31817128.00 L 40360920.00 31029726.00  z"/>
<path id="N" d="M 40754620.00 31029726.00 L 40656196.00 31029726.00 L 40656196.00 31817128.00 L 40754620.00 31817128.00 L 40754620.00 31029726.00  z"/>
<path id="N" d="M 41935723.00 16856498.00 L 41837299.00 16856498.00 L 41837299.00 17643900.00 L 41935723.00 17643900.00 L 41935723.00 16856498.00  z"/>
<path id="N" d="M 40557770.00 31029726.00 L 40459346.00 31029726.00 L 40459346.00 31817128.00 L 40557770.00 31817128.00 L 40557770.00 31029726.00  z"/>
<path id="N" d="M 31502652.00 31029726.00 L 31404228.00 31029726.00 L 31404228.00 31817128.00 L 31502652.00 31817128.00 L 31502652.00 31029726.00  z"/>
<path id="N" d="M 43707376.00 16856498.00 L 43608952.00 16856498.00 L 43608952.00 17643900.00 L 43707376.00 17643900.00 L 43707376.00 16856498.00  z"/>
<path id="N" d="M 42723124.00 31029726.00 L 42624700.00 31029726.00 L 42624700.00 31817128.00 L 42723124.00 31817128.00 L 42723124.00 31029726.00  z"/>
<path id="N" d="M 42526274.00 31029726.00 L 42427850.00 31029726.00 L 42427850.00 31817128.00 L 42526274.00 31817128.00 L 42526274.00 31029726.00  z"/>
<path id="N" d="M 31502652.00 29297442.00 L 31404228.00 29297442.00 L 31404228.00 30084844.00 L 31502652.00 30084844.00 L 31502652.00 29297442.00  z"/>
<path id="N" d="M 30321550.00 29297442.00 L 30223126.00 29297442.00 L 30223126.00 30084844.00 L 30321550.00 30084844.00 L 30321550.00 29297442.00  z"/>
<path id="N" d="M 43510526.00 16856498.00 L 43412102.00 16856498.00 L 43412102.00 17643900.00 L 43510526.00 17643900.00 L 43510526.00 16856498.00  z"/>
<path id="N" d="M 43904227.00 16856498.00 L 43805803.00 16856498.00 L 43805803.00 17643900.00 L 43904227.00 17643900.00 L 43904227.00 16856498.00  z"/>
<path id="N" d="M 43510526.00 31029726.00 L 43412102.00 31029726.00 L 43412102.00 31817128.00 L 43510526.00 31817128.00 L 43510526.00 31029726.00  z"/>
<path id="N" d="M 43904227.00 31029726.00 L 43805803.00 31029726.00 L 43805803.00 31817128.00 L 43904227.00 31817128.00 L 43904227.00 31029726.00  z"/>
<path id="N" d="M 43116825.00 31029726.00 L 43018401.00 31029726.00 L 43018401.00 31817128.00 L 43116825.00 31817128.00 L 43116825.00 31029726.00  z"/>
<path id="N" d="M 42919975.00 31029726.00 L 42821551.00 31029726.00 L 42821551.00 31817128.00 L 42919975.00 31817128.00 L 42919975.00 31029726.00  z"/>
<path id="N" d="M 41738872.00 31029726.00 L 41640448.00 31029726.00 L 41640448.00 31817128.00 L 41738872.00 31817128.00 L 41738872.00 31029726.00  z"/>
<path id="N" d="M 42329424.00 31029726.00 L 42231000.00 31029726.00 L 42231000.00 31817128.00 L 42329424.00 31817128.00 L 42329424.00 31029726.00  z"/>
<path id="N" d="M 43707376.00 31029726.00 L 43608952.00 31029726.00 L 43608952.00 31817128.00 L 43707376.00 31817128.00 L 43707376.00 31029726.00  z"/>
<path id="N" d="M 41935723.00 31029726.00 L 41837299.00 31029726.00 L 41837299.00 31817128.00 L 41935723.00 31817128.00 L 41935723.00 31029726.00  z"/>
<path id="N" d="M 11874294.00 45519359.00 L 11124294.00 45519359.00 L 11124294.00 45920933.00 L 11874294.00 45920933.00 L 11874294.00 45519359.00  z"/>
<path id="N" d="M 47964294.00 45519359.00 L 47214294.00 45519359.00 L 47214294.00 45920933.00 L 47964294.00 45920933.00 L 47964294.00 45519359.00  z"/>
<path id="N" d="M 13136106.00 46519359.00 L 12386106.00 46519359.00 L 12386106.00 46920933.00 L 13136106.00 46920933.00 L 13136106.00 46519359.00  z"/>
<path id="N" d="M 47964294.00 43519359.00 L 47214294.00 43519359.00 L 47214294.00 43920933.00 L 47964294.00 43920933.00 L 47964294.00 43519359.00  z"/>
<path id="N" d="M 47964294.00 41519359.00 L 47214294.00 41519359.00 L 47214294.00 41920933.00 L 47964294.00 41920933.00 L 47964294.00 41519359.00  z"/>
<path id="N" d="M 49226106.00 42519359.00 L 48476106.00 42519359.00 L 48476106.00 42920933.00 L 49226106.00 42920933.00 L 49226106.00 42519359.00  z"/>
<path id="N" d="M 47964294.00 39519359.00 L 47214294.00 39519359.00 L 47214294.00 39920933.00 L 47964294.00 39920933.00 L 47964294.00 39519359.00  z"/>
<path id="N" d="M 11874294.00 43519359.00 L 11124294.00 43519359.00 L 11124294.00 43920933.00 L 11874294.00 43920933.00 L 11874294.00 43519359.00  z"/>
<path id="N" d="M 47964294.00 37519359.00 L 47214294.00 37519359.00 L 47214294.00 37920933.00 L 47964294.00 37920933.00 L 47964294.00 37519359.00  z"/>
<path id="N" d="M 49226106.00 38519359.00 L 48476106.00 38519359.00 L 48476106.00 38920933.00 L 49226106.00 38920933.00 L 49226106.00 38519359.00  z"/>
<path id="N" d="M 13136106.00 44519359.00 L 12386106.00 44519359.00 L 12386106.00 44920933.00 L 13136106.00 44920933.00 L 13136106.00 44519359.00  z"/>
<path id="N" d="M 49226106.00 44519359.00 L 48476106.00 44519359.00 L 48476106.00 44920933.00 L 49226106.00 44920933.00 L 49226106.00 44519359.00  z"/>
<path id="N" d="M 35439660.00 15124214.00 L 35341236.00 15124214.00 L 35341236.00 15911616.00 L 35439660.00 15911616.00 L 35439660.00 15124214.00  z"/>
<path id="N" d="M 34652258.00 15124214.00 L 34553834.00 15124214.00 L 34553834.00 15911616.00 L 34652258.00 15911616.00 L 34652258.00 15124214.00  z"/>
<path id="N" d="M 34061707.00 15124214.00 L 33963283.00 15124214.00 L 33963283.00 15911616.00 L 34061707.00 15911616.00 L 34061707.00 15124214.00  z"/>
<path id="N" d="M 33274305.00 15124214.00 L 33175881.00 15124214.00 L 33175881.00 15911616.00 L 33274305.00 15911616.00 L 33274305.00 15124214.00  z"/>
<path id="N" d="M 34455408.00 15124214.00 L 34356984.00 15124214.00 L 34356984.00 15911616.00 L 34455408.00 15911616.00 L 34455408.00 15124214.00  z"/>
<path id="N" d="M 34258557.00 15124214.00 L 34160133.00 15124214.00 L 34160133.00 15911616.00 L 34258557.00 15911616.00 L 34258557.00 15124214.00  z"/>
<path id="N" d="M 31699502.00 15124214.00 L 31601078.00 15124214.00 L 31601078.00 15911616.00 L 31699502.00 15911616.00 L 31699502.00 15124214.00  z"/>
<path id="N" d="M 30912101.00 15124214.00 L 30813677.00 15124214.00 L 30813677.00 15911616.00 L 30912101.00 15911616.00 L 30912101.00 15124214.00  z"/>
<path id="N" d="M 32880605.00 15124214.00 L 32782181.00 15124214.00 L 32782181.00 15911616.00 L 32880605.00 15911616.00 L 32880605.00 15124214.00  z"/>
<path id="N" d="M 31502652.00 15124214.00 L 31404228.00 15124214.00 L 31404228.00 15911616.00 L 31502652.00 15911616.00 L 31502652.00 15124214.00  z"/>
<path id="N" d="M 39573518.00 16856498.00 L 39475094.00 16856498.00 L 39475094.00 17643900.00 L 39573518.00 17643900.00 L 39573518.00 16856498.00  z"/>
<path id="N" d="M 35242809.00 16856498.00 L 35144385.00 16856498.00 L 35144385.00 17643900.00 L 35242809.00 17643900.00 L 35242809.00 16856498.00  z"/>
<path id="N" d="M 34455408.00 16856498.00 L 34356984.00 16856498.00 L 34356984.00 17643900.00 L 34455408.00 17643900.00 L 34455408.00 16856498.00  z"/>
<path id="N" d="M 39376668.00 16856498.00 L 39278244.00 16856498.00 L 39278244.00 17643900.00 L 39376668.00 17643900.00 L 39376668.00 16856498.00  z"/>
<path id="N" d="M 35439660.00 16856498.00 L 35341236.00 16856498.00 L 35341236.00 17643900.00 L 35439660.00 17643900.00 L 35439660.00 16856498.00  z"/>
<path id="N" d="M 33864857.00 15124214.00 L 33766433.00 15124214.00 L 33766433.00 15911616.00 L 33864857.00 15911616.00 L 33864857.00 15124214.00  z"/>
<path id="N" d="M 33077455.00 15124214.00 L 32979031.00 15124214.00 L 32979031.00 15911616.00 L 33077455.00 15911616.00 L 33077455.00 15124214.00  z"/>
<path id="N" d="M 42919975.00 15124214.00 L 42821551.00 15124214.00 L 42821551.00 15911616.00 L 42919975.00 15911616.00 L 42919975.00 15124214.00  z"/>
<path id="N" d="M 33471156.00 15124214.00 L 33372732.00 15124214.00 L 33372732.00 15911616.00 L 33471156.00 15911616.00 L 33471156.00 15124214.00  z"/>
<path id="N" d="M 42723124.00 15124214.00 L 42624700.00 15124214.00 L 42624700.00 15911616.00 L 42723124.00 15911616.00 L 42723124.00 15124214.00  z"/>
<path id="N" d="M 41935723.00 15124214.00 L 41837299.00 15124214.00 L 41837299.00 15911616.00 L 41935723.00 15911616.00 L 41935723.00 15124214.00  z"/>
<path id="N" d="M 41345172.00 15124214.00 L 41246748.00 15124214.00 L 41246748.00 15911616.00 L 41345172.00 15911616.00 L 41345172.00 15124214.00  z"/>
<path id="N" d="M 42526274.00 15124214.00 L 42427850.00 15124214.00 L 42427850.00 15911616.00 L 42526274.00 15911616.00 L 42526274.00 15124214.00  z"/>
<path id="N" d="M 42329424.00 15124214.00 L 42231000.00 15124214.00 L 42231000.00 15911616.00 L 42329424.00 15911616.00 L 42329424.00 15124214.00  z"/>
<path id="N" d="M 39573518.00 15124214.00 L 39475094.00 15124214.00 L 39475094.00 15911616.00 L 39573518.00 15911616.00 L 39573518.00 15124214.00  z"/>
<path id="N" d="M 35242809.00 15124214.00 L 35144385.00 15124214.00 L 35144385.00 15911616.00 L 35242809.00 15911616.00 L 35242809.00 15124214.00  z"/>
<path id="N" d="M 40754620.00 15124214.00 L 40656196.00 15124214.00 L 40656196.00 15911616.00 L 40754620.00 15911616.00 L 40754620.00 15124214.00  z"/>
<path id="N" d="M 39376668.00 15124214.00 L 39278244.00 15124214.00 L 39278244.00 15911616.00 L 39376668.00 15911616.00 L 39376668.00 15124214.00  z"/>
<path id="N" d="M 32683754.00 15124214.00 L 32585330.00 15124214.00 L 32585330.00 15911616.00 L 32683754.00 15911616.00 L 32683754.00 15124214.00  z"/>
<path id="N" d="M 31896353.00 15124214.00 L 31797929.00 15124214.00 L 31797929.00 15911616.00 L 31896353.00 15911616.00 L 31896353.00 15124214.00  z"/>
<path id="N" d="M 31108951.00 15124214.00 L 31010527.00 15124214.00 L 31010527.00 15911616.00 L 31108951.00 15911616.00 L 31108951.00 15124214.00  z"/>
<path id="N" d="M 32290053.00 15124214.00 L 32191629.00 15124214.00 L 32191629.00 15911616.00 L 32290053.00 15911616.00 L 32290053.00 15124214.00  z"/>
<path id="N" d="M 32093203.00 15124214.00 L 31994779.00 15124214.00 L 31994779.00 15911616.00 L 32093203.00 15911616.00 L 32093203.00 15124214.00  z"/>
<path id="N" d="M 41738872.00 15124214.00 L 41640448.00 15124214.00 L 41640448.00 15911616.00 L 41738872.00 15911616.00 L 41738872.00 15124214.00  z"/>
<path id="N" d="M 41148321.00 15124214.00 L 41049897.00 15124214.00 L 41049897.00 15911616.00 L 41148321.00 15911616.00 L 41148321.00 15124214.00  z"/>
<path id="N" d="M 35045959.00 15124214.00 L 34947535.00 15124214.00 L 34947535.00 15911616.00 L 35045959.00 15911616.00 L 35045959.00 15124214.00  z"/>
<path id="N" d="M 41542022.00 15124214.00 L 41443598.00 15124214.00 L 41443598.00 15911616.00 L 41542022.00 15911616.00 L 41542022.00 15124214.00  z"/>
<path id="N" d="M 34258557.00 16856498.00 L 34160133.00 16856498.00 L 34160133.00 17643900.00 L 34258557.00 17643900.00 L 34258557.00 16856498.00  z"/>
<path id="N" d="M 33471156.00 16856498.00 L 33372732.00 16856498.00 L 33372732.00 17643900.00 L 33471156.00 17643900.00 L 33471156.00 16856498.00  z"/>
<path id="N" d="M 33864857.00 16856498.00 L 33766433.00 16856498.00 L 33766433.00 17643900.00 L 33864857.00 17643900.00 L 33864857.00 16856498.00  z"/>
<path id="N" d="M 32093203.00 16856498.00 L 31994779.00 16856498.00 L 31994779.00 17643900.00 L 32093203.00 17643900.00 L 32093203.00 16856498.00  z"/>
<path id="N" d="M 32290053.00 16856498.00 L 32191629.00 16856498.00 L 32191629.00 17643900.00 L 32290053.00 17643900.00 L 32290053.00 16856498.00  z"/>
<path id="N" d="M 33077455.00 16856498.00 L 32979031.00 16856498.00 L 32979031.00 17643900.00 L 33077455.00 17643900.00 L 33077455.00 16856498.00  z"/>
<path id="N" d="M 43707376.00 15124214.00 L 43608952.00 15124214.00 L 43608952.00 15911616.00 L 43707376.00 15911616.00 L 43707376.00 15124214.00  z"/>
<path id="N" d="M 43904227.00 15124214.00 L 43805803.00 15124214.00 L 43805803.00 15911616.00 L 43904227.00 15911616.00 L 43904227.00 15124214.00  z"/>
<path id="N" d="M 33274305.00 16856498.00 L 33175881.00 16856498.00 L 33175881.00 17643900.00 L 33274305.00 17643900.00 L 33274305.00 16856498.00  z"/>
<path id="N" d="M 31896353.00 16856498.00 L 31797929.00 16856498.00 L 31797929.00 17643900.00 L 31896353.00 17643900.00 L 31896353.00 16856498.00  z"/>
<path id="N" d="M 32683754.00 16856498.00 L 32585330.00 16856498.00 L 32585330.00 17643900.00 L 32683754.00 17643900.00 L 32683754.00 16856498.00  z"/>
<path id="N" d="M 32880605.00 16856498.00 L 32782181.00 16856498.00 L 32782181.00 17643900.00 L 32880605.00 17643900.00 L 32880605.00 16856498.00  z"/>
<path id="N" d="M 41542022.00 16856498.00 L 41443598.00 16856498.00 L 41443598.00 17643900.00 L 41542022.00 17643900.00 L 41542022.00 16856498.00  z"/>
<path id="N" d="M 41738872.00 16856498.00 L 41640448.00 16856498.00 L 41640448.00 17643900.00 L 41738872.00 17643900.00 L 41738872.00 16856498.00  z"/>
<path id="N" d="M 40164069.00 16856498.00 L 40065645.00 16856498.00 L 40065645.00 17643900.00 L 40164069.00 17643900.00 L 40164069.00 16856498.00  z"/>
<path id="N" d="M 40360920.00 16856498.00 L 40262496.00 16856498.00 L 40262496.00 17643900.00 L 40360920.00 17643900.00 L 40360920.00 16856498.00  z"/>
<path id="N" d="M 41148321.00 16856498.00 L 41049897.00 16856498.00 L 41049897.00 17643900.00 L 41148321.00 17643900.00 L 41148321.00 16856498.00  z"/>
<path id="N" d="M 34652258.00 16856498.00 L 34553834.00 16856498.00 L 34553834.00 17643900.00 L 34652258.00 17643900.00 L 34652258.00 16856498.00  z"/>
<path id="N" d="M 35045959.00 16856498.00 L 34947535.00 16856498.00 L 34947535.00 17643900.00 L 35045959.00 17643900.00 L 35045959.00 16856498.00  z"/>
<path id="N" d="M 41345172.00 16856498.00 L 41246748.00 16856498.00 L 41246748.00 17643900.00 L 41345172.00 17643900.00 L 41345172.00 16856498.00  z"/>
<path id="N" d="M 39967219.00 16856498.00 L 39868795.00 16856498.00 L 39868795.00 17643900.00 L 39967219.00 17643900.00 L 39967219.00 16856498.00  z"/>
<path id="N" d="M 31502652.00 16856498.00 L 31404228.00 16856498.00 L 31404228.00 17643900.00 L 31502652.00 17643900.00 L 31502652.00 16856498.00  z"/>
<path id="N" d="M 31699502.00 16856498.00 L 31601078.00 16856498.00 L 31601078.00 17643900.00 L 31699502.00 17643900.00 L 31699502.00 16856498.00  z"/>
<path id="N" d="M 43116825.00 15124214.00 L 43018401.00 15124214.00 L 43018401.00 15911616.00 L 43116825.00 15911616.00 L 43116825.00 15124214.00  z"/>
<path id="N" d="M 43510526.00 15124214.00 L 43412102.00 15124214.00 L 43412102.00 15911616.00 L 43510526.00 15911616.00 L 43510526.00 15124214.00  z"/>
<path id="N" d="M 30912101.00 16856498.00 L 30813677.00 16856498.00 L 30813677.00 17643900.00 L 30912101.00 17643900.00 L 30912101.00 16856498.00  z"/>
<path id="N" d="M 40557770.00 16856498.00 L 40459346.00 16856498.00 L 40459346.00 17643900.00 L 40557770.00 17643900.00 L 40557770.00 16856498.00  z"/>
<path id="N" d="M 40754620.00 16856498.00 L 40656196.00 16856498.00 L 40656196.00 17643900.00 L 40754620.00 17643900.00 L 40754620.00 16856498.00  z"/>
<path id="N" d="M 31108951.00 16856498.00 L 31010527.00 16856498.00 L 31010527.00 17643900.00 L 31108951.00 17643900.00 L 31108951.00 16856498.00  z"/>
<path id="N" d="M 34061707.00 16856498.00 L 33963283.00 16856498.00 L 33963283.00 17643900.00 L 34061707.00 17643900.00 L 34061707.00 16856498.00  z"/>
<path id="N" d="M 43116825.00 29297442.00 L 43018401.00 29297442.00 L 43018401.00 30084844.00 L 43116825.00 30084844.00 L 43116825.00 29297442.00  z"/>
<path id="N" d="M 27352365.00 35302824.00 L 27061027.00 35302824.00 L 27061027.00 35932744.00 L 27352365.00 35932744.00 L 27352365.00 35302824.00  z"/>
<path id="N" d="M 22248593.00 24753897.00 L 22283294.82 24730710.00 L 22386916.00 24730710.00 L 22386916.00 24494490.00 L 22343005.00 24494490.00 L 22343005.00 24123206.00 L 22395181.00 24123206.00 L 22395181.00 23323994.00 L 21747150.00 23323994.00 L 21747150.00 23223994.00 L 22383750.00 23223994.00 L 22383750.00 23088600.00 L 22482664.60 22989685.40 L 22463530.25 22943491.00 L 22449015.00 22943491.00 L 22449015.00 22843491.00 L 22541928.00 22843491.00 L 22541928.00 21504909.00 L 22156102.00 21504909.00 L 22156102.00 22074200.00 L 22056102.00 22074200.00 L 22056102.00 21652776.75 L 22009907.60 21633642.40 L 20885150.00 22758400.00 L 20885150.00 23223994.00 L 21547150.00 23223994.00 L 21547150.00 23323994.00 L 20899119.00 23323994.00 L 20899119.00 24123206.00 L 22037127.00 24123206.00 L 22037127.00 24494490.00 L 21993216.00 24494490.00 L 21993216.00 24730710.00 L 22096837.18 24730710.00 L 22131539.00 24753897.00 L 22190066.00 24765539.00 L 22248593.00 24753897.00  zM 22249015.00 22943491.00 L 22056102.00 22943491.00 L 22056102.00 22274200.00 L 22156102.00 22274200.00 L 22156102.00 22843491.00 L 22249015.00 22843491.00 L 22249015.00 22943491.00  z"/>
<path id="N" d="M 41738872.00 29297442.00 L 41640448.00 29297442.00 L 41640448.00 30084844.00 L 41738872.00 30084844.00 L 41738872.00 29297442.00  z"/>
<path id="N" d="M 34789373.00 35302824.00 L 34498035.00 35302824.00 L 34498035.00 35932744.00 L 34789373.00 35932744.00 L 34789373.00 35302824.00  z"/>
<path id="N" d="M 21083123.03 19536600.00 L 21218700.00 19536600.00 L 21218700.00 19399605.44 L 21221287.00 19386600.00 L 21221287.00 18637250.00 L 21245513.00 18637250.00 L 21245513.00 18243550.00 L 21194121.00 18243550.00 L 21194121.00 17815382.00 L 21182479.00 17756855.00 L 21149326.00 17707238.00 L 20673936.00 17231848.00 L 21507320.47 16398463.53 L 21529800.00 16401423.00 A 297823.01 297823.01 0 1 0 21242125.00 16026518.00 L 21232971.73 16096044.27 L 20337134.00 16991882.00 L 19337020.00 16991882.00 L 19337020.00 16959580.00 L 19152964.00 16959580.00 L 18635392.00 16442008.00 L 18569236.00 16397804.00 L 18491200.00 16382282.00 L 16433802.00 16382281.00 L 16355766.00 16397804.00 L 16289610.00 16442008.00 L 15772038.00 16959580.00 L 15587982.00 16959580.00 L 15587982.00 17432020.00 L 16060422.00 17432020.00 L 16060422.00 17247964.00 L 16518268.00 16790118.00 L 18406734.00 16790118.00 L 18864580.00 17247964.00 L 18864580.00 17432020.00 L 19337020.00 17432020.00 L 19337020.00 17399718.00 L 20409230.00 17399718.00 L 20888243.00 17878731.00 L 20888243.00 18413234.00 L 20891183.00 18428014.05 L 20891183.00 18637250.00 L 20915409.00 18637250.00 L 20915409.00 19296600.00 L 20843700.00 19296600.00 L 20843700.00 19536600.00 L 21053572.97 19536600.00 L 21068348.00 19539539.00 L 21083123.03 19536600.00  zM 15824204.38 17195794.09 m -140500.91 0 a 140500.91 140500.91 0 1 1 281001.82 0a 140500.91 140500.91 0 1 1 -281001.82 0M 19100802.38 17195794.09 m -140500.91 0 a 140500.91 140500.91 0 1 1 281001.82 0a 140500.91 140500.91 0 1 1 -281001.82 0M 21529800.44 16103598.65 m -180637.35 0 a 180637.35 180637.35 0 1 1 361274.69 0a 180637.35 180637.35 0 1 1 -361274.69 0"/>
<path id="N" d="M 31305802.00 31029726.00 L 31207378.00 31029726.00 L 31207378.00 31817128.00 L 31305802.00 31817128.00 L 31305802.00 31029726.00  z"/>
<path id="N" d="M 13136106.00 54519359.00 L 12386106.00 54519359.00 L 12386106.00 54920933.00 L 13136106.00 54920933.00 L 13136106.00 54519359.00  z"/>
<path id="N" d="M 41289373.00 34279202.00 L 40998035.00 34279202.00 L 40998035.00 34909122.00 L 41289373.00 34909122.00 L 41289373.00 34279202.00  z"/>
<path id="N" d="M 39573518.00 29297442.00 L 39475094.00 29297442.00 L 39475094.00 30084844.00 L 39573518.00 30084844.00 L 39573518.00 29297442.00  z"/>
<path id="N" d="M 19352365.00 35302824.00 L 19061027.00 35302824.00 L 19061027.00 35932744.00 L 19352365.00 35932744.00 L 19352365.00 35302824.00  z"/>
<path id="N" d="M 42526274.00 29297442.00 L 42427850.00 29297442.00 L 42427850.00 30084844.00 L 42526274.00 30084844.00 L 42526274.00 29297442.00  z"/>
<path id="N" d="M 21218700.00 19666600.00 L 20843700.00 19666600.00 L 20843700.00 19669347.00 L 20088849.00 19669347.00 L 19899948.00 19480446.00 L 19899948.00 19193510.00 L 19368452.00 19193510.00 L 19368452.00 19646266.00 L 19734128.00 19646266.00 L 19957372.00 19869510.00 L 19995411.00 19894928.00 L 20040282.00 19903853.00 L 20843700.00 19903853.00 L 20843700.00 19906600.00 L 21218700.00 19906600.00 L 21218700.00 19666600.00  z"/>
<path id="N" d="M 33471156.00 29297442.00 L 33372732.00 29297442.00 L 33372732.00 30084844.00 L 33471156.00 30084844.00 L 33471156.00 29297442.00  z"/>
<path id="N" d="M 27852365.00 34279202.00 L 27561027.00 34279202.00 L 27561027.00 34909122.00 L 27852365.00 34909122.00 L 27852365.00 34279202.00  z"/>
<path id="N" d="M 20001548.00 20819572.05 L 20547267.94 20273853.00 L 20843700.00 20273853.00 L 20843700.00 20276600.00 L 21218700.00 20276600.00 L 21218700.00 20036600.00 L 20843700.00 20036600.00 L 20843700.00 20039347.00 L 20498700.00 20039347.00 L 20453829.00 20048272.00 L 20415790.00 20073689.00 L 19825945.96 20663534.00 L 19470052.00 20663534.00 L 19470052.00 21116290.00 L 20001548.00 21116290.00 L 20001548.00 20819572.05  z"/>
<path id="N" d="M 13136106.00 50519359.00 L 12386106.00 50519359.00 L 12386106.00 50920933.00 L 13136106.00 50920933.00 L 13136106.00 50519359.00  z"/>
<path id="N" d="M 30124699.00 31029726.00 L 30026275.00 31029726.00 L 30026275.00 31817128.00 L 30124699.00 31817128.00 L 30124699.00 31029726.00  z"/>
<path id="N" d="M 33077455.00 31029726.00 L 32979031.00 31029726.00 L 32979031.00 31817128.00 L 33077455.00 31817128.00 L 33077455.00 31029726.00  z"/>
<path id="N" d="M 13136106.00 42519359.00 L 12386106.00 42519359.00 L 12386106.00 42920933.00 L 13136106.00 42920933.00 L 13136106.00 42519359.00  z"/>
<path id="N" d="M 30715250.00 29297442.00 L 30616826.00 29297442.00 L 30616826.00 30084844.00 L 30715250.00 30084844.00 L 30715250.00 29297442.00  z"/>
<path id="N" d="M 39289373.00 34279202.00 L 38998035.00 34279202.00 L 38998035.00 34909122.00 L 39289373.00 34909122.00 L 39289373.00 34279202.00  z"/>
<path id="N" d="M 11874294.00 49519359.00 L 11124294.00 49519359.00 L 11124294.00 49920933.00 L 11874294.00 49920933.00 L 11874294.00 49519359.00  z"/>
<path id="N" d="M 29927849.00 31029726.00 L 29829425.00 31029726.00 L 29829425.00 31817128.00 L 29927849.00 31817128.00 L 29927849.00 31029726.00  z"/>
<path id="N" d="M 32486904.00 29702994.03 L 32491813.00 29691143.00 L 32486904.00 29679291.97 L 32486904.00 29297442.00 L 32388480.00 29297442.00 L 32388480.00 29676605.04 L 32382784.00 29690356.00 L 32388480.00 29704106.96 L 32388480.00 30084844.00 L 32486904.00 30084844.00 L 32486904.00 29702994.03  z"/>
<path id="N" d="M 41789373.00 35302824.00 L 41498035.00 35302824.00 L 41498035.00 35932744.00 L 41789373.00 35932744.00 L 41789373.00 35302824.00  z"/>
<path id="N" d="M 29927849.00 29704106.96 L 29933545.00 29690356.00 L 29927849.00 29676605.04 L 29927849.00 29297442.00 L 29829425.00 29297442.00 L 29829425.00 29679291.97 L 29824516.00 29691143.00 L 29829425.00 29702994.03 L 29829425.00 30084844.00 L 29927849.00 30084844.00 L 29927849.00 29704106.96  z"/>
<path id="N" d="M 26852365.00 34279202.00 L 26561027.00 34279202.00 L 26561027.00 34909122.00 L 26852365.00 34909122.00 L 26852365.00 34279202.00  z"/>
<path id="N" d="M 24852365.00 34279202.00 L 24561027.00 34279202.00 L 24561027.00 34909122.00 L 24852365.00 34909122.00 L 24852365.00 34279202.00  z"/>
<path id="N" d="M 40557770.00 29297442.00 L 40459346.00 29297442.00 L 40459346.00 30084844.00 L 40557770.00 30084844.00 L 40557770.00 29297442.00  z"/>
<path id="N" d="M 11874294.00 41519359.00 L 11124294.00 41519359.00 L 11124294.00 41920933.00 L 11874294.00 41920933.00 L 11874294.00 41519359.00  z"/>
<path id="N" d="M 32880605.00 31029726.00 L 32782181.00 31029726.00 L 32782181.00 31817128.00 L 32880605.00 31817128.00 L 32880605.00 31029726.00  z"/>
<path id="N" d="M 15356523.00 59344590.00 L 15351727.18 59345543.98 L 15136047.79 59002994.73 L 15142406.00 58993479.00 A 130456.67 130456.67 0 1 0 15021877.00 59074014.00 L 15026672.82 59073060.02 L 15242352.21 59415609.27 L 15235994.00 59425125.00 A 130456.67 130456.67 0 1 0 15356523.00 59344590.00  zM 15021876.76 58943552.92 m -80284.08 0 a 80284.08 80284.08 0 1 1 160568.17 0a 80284.08 80284.08 0 1 1 -160568.17 0M 15356522.76 59475048.92 m -80284.08 0 a 80284.08 80284.08 0 1 1 160568.17 0a 80284.08 80284.08 0 1 1 -160568.17 0"/>
<path id="N" d="M 14325597.35 30327593.57 m -297829.90 0 a 297829.90 297829.90 0 1 1 595659.80 0a 297829.90 297829.90 0 1 1 -595659.80 0M 14325600.44 30327598.65 m -180637.35 0 a 180637.35 180637.35 0 1 1 361274.69 0a 180637.35 180637.35 0 1 1 -361274.69 0"/>
<path id="N" d="M 43510526.00 29704106.96 L 43516221.00 29690353.59 L 43516221.00 29258099.00 A 54118.70 54118.70 0 0 0 43407981.00 29258099.00 L 43407193.00 29691143.00 L 43412102.00 29702994.03 L 43412102.00 30084844.00 L 43510526.00 30084844.00 L 43510526.00 29704106.96  z"/>
<path id="N" d="M 20852365.00 34279202.00 L 20561027.00 34279202.00 L 20561027.00 34909122.00 L 20852365.00 34909122.00 L 20852365.00 34279202.00  z"/>
<path id="N" d="M 36789373.00 35302824.00 L 36498035.00 35302824.00 L 36498035.00 35932744.00 L 36789373.00 35932744.00 L 36789373.00 35302824.00  z"/>
<path id="N" d="M 41345172.00 29297442.00 L 41246748.00 29297442.00 L 41246748.00 30084844.00 L 41345172.00 30084844.00 L 41345172.00 29297442.00  z"/>
<path id="N" d="M 18008600.00 58902151.00 L 17978901.97 58908057.97 L 17720523.00 58649679.00 L 17674601.00 58630657.00 L 14919172.00 58630657.00 L 14873250.00 58649679.00 L 14706084.66 58816844.34 L 14687231.00 58813094.00 A 130461.68 130461.68 0 1 0 14808627.40 58897989.60 L 14946072.00 58760545.00 L 17647701.00 58760545.00 L 17887057.97 58999901.97 L 17881151.00 59029600.00 A 127441.40 127441.40 0 1 0 18008600.00 58902151.00  zM 14687230.76 58943552.92 m -80284.08 0 a 80284.08 80284.08 0 1 1 160568.17 0a 80284.08 80284.08 0 1 1 -160568.17 0"/>
<path id="N" d="M 43707376.00 29704106.96 L 43713071.00 29690353.59 L 43713071.00 29287523.00 A 54118.70 54118.70 0 0 0 43604831.00 29287523.00 L 43604043.00 29691143.00 L 43608952.00 29702994.03 L 43608952.00 30084844.00 L 43707376.00 30084844.00 L 43707376.00 29704106.96  z"/>
<path id="N" d="M 19852365.00 34279202.00 L 19561027.00 34279202.00 L 19561027.00 34909122.00 L 19852365.00 34909122.00 L 19852365.00 34279202.00  z"/>
<path id="N" d="M 38789373.00 35302824.00 L 38498035.00 35302824.00 L 38498035.00 35932744.00 L 38789373.00 35932744.00 L 38789373.00 35302824.00  z"/>
<path id="N" d="M 39967219.00 29297442.00 L 39868795.00 29297442.00 L 39868795.00 30084844.00 L 39967219.00 30084844.00 L 39967219.00 29297442.00  z"/>
<path id="N" d="M 38289373.00 34279202.00 L 37998035.00 34279202.00 L 37998035.00 34909122.00 L 38289373.00 34909122.00 L 38289373.00 34279202.00  z"/>
<path id="N" d="M 31108951.00 29297442.00 L 31010527.00 29297442.00 L 31010527.00 30084844.00 L 31108951.00 30084844.00 L 31108951.00 29297442.00  z"/>
<path id="N" d="M 32486904.00 31435278.03 L 32491813.00 31423427.00 L 32486904.00 31411575.97 L 32486904.00 31029726.00 L 32388480.00 31029726.00 L 32388480.00 31410463.04 L 32382784.00 31424214.00 L 32388480.00 31437964.96 L 32388480.00 31817128.00 L 32486904.00 31817128.00 L 32486904.00 31435278.03  z"/>
<path id="N" d="M 13136106.00 40519359.00 L 12386106.00 40519359.00 L 12386106.00 40920933.00 L 13136106.00 40920933.00 L 13136106.00 40519359.00  z"/>
<path id="N" d="M 40789373.00 35302824.00 L 40498035.00 35302824.00 L 40498035.00 35932744.00 L 40789373.00 35932744.00 L 40789373.00 35302824.00  z"/>
<path id="N" d="M 41148321.00 29297442.00 L 41049897.00 29297442.00 L 41049897.00 30084844.00 L 41148321.00 30084844.00 L 41148321.00 29297442.00  z"/>
<path id="N" d="M 31699502.00 29297442.00 L 31601078.00 29297442.00 L 31601078.00 30084844.00 L 31699502.00 30084844.00 L 31699502.00 29297442.00  z"/>
<path id="N" d="M 37289373.00 34279202.00 L 36998035.00 34279202.00 L 36998035.00 34909122.00 L 37289373.00 34909122.00 L 37289373.00 34279202.00  z"/>
<path id="N" d="M 15021877.38 59475050.38 m -130459.26 0 a 130459.26 130459.26 0 1 1 260918.51 0a 130459.26 130459.26 0 1 1 -260918.51 0M 15021876.76 59475048.92 m -80284.08 0 a 80284.08 80284.08 0 1 1 160568.17 0a 80284.08 80284.08 0 1 1 -160568.17 0"/>
<path id="N" d="M 15356523.38 58943554.38 m -130459.26 0 a 130459.26 130459.26 0 1 1 260918.51 0a 130459.26 130459.26 0 1 1 -260918.51 0M 15356522.76 58943552.92 m -80284.08 0 a 80284.08 80284.08 0 1 1 160568.17 0a 80284.08 80284.08 0 1 1 -160568.17 0"/>
<path id="N" d="M 14620875.00 31032325.00 L 14030325.00 31032325.00 L 14030325.00 31622875.00 L 14620875.00 31622875.00 L 14620875.00 31032325.00  zM 14325600.44 31327598.65 m -180637.35 0 a 180637.35 180637.35 0 1 1 361274.69 0a 180637.35 180637.35 0 1 1 -361274.69 0"/>
<path id="N" d="M 23989349.00 26463307.00 L 23886970.00 26463307.00 L 23886970.00 26196608.00 L 23949979.00 26196608.00 L 23949979.00 25822592.00 L 23847600.00 25822592.00 L 23847600.00 25569228.00 L 24043958.00 25569228.00 L 24043958.00 25466849.00 L 24416155.00 25466849.00 L 24573028.00 25623722.00 A 64944.76 64944.76 0 1 0 24664872.00 25531878.00 L 24488977.00 25355983.00 L 24443055.00 25336961.00 L 24043958.00 25336961.00 L 24043958.00 25234582.00 L 23669942.00 25234582.00 L 23669942.00 25316324.00 L 23469593.00 25316324.00 L 23469593.00 25242521.00 L 23075893.00 25242521.00 L 23075893.00 25478741.00 L 23469593.00 25478741.00 L 23469593.00 25446212.00 L 23669942.00 25446212.00 L 23669942.00 25569228.00 L 23717712.00 25569228.00 L 23717712.00 25822592.00 L 23615333.00 25822592.00 L 23615333.00 26196608.00 L 23757082.00 26196608.00 L 23757082.00 26463307.00 L 23733443.00 26463307.00 L 23733443.00 26876693.00 L 23989349.00 26876693.00 L 23989349.00 26463307.00  z"/>
<path id="N" d="M 44130344.00 32702669.00 L 45732869.00 31100143.00 A 54118.22 54118.22 0 1 0 45656332.00 31023606.00 L 44069657.01 32610280.00 L 39773417.04 32610280.00 L 39381576.00 32218438.04 L 39381576.00 31423427.00 L 39376668.00 31411577.64 L 39376668.00 31029726.00 L 39278244.00 31029726.00 L 39278244.00 31411577.64 L 39273336.00 31423427.00 L 39273335.00 32240856.00 L 39289187.00 32279125.00 L 39712731.00 32702669.00 L 39751002.41 32718520.00 L 44092075.00 32718521.00 L 44130344.00 32702669.00  z"/>
<path id="N" d="M 25352365.00 35302824.00 L 25061027.00 35302824.00 L 25061027.00 35932744.00 L 25352365.00 35932744.00 L 25352365.00 35302824.00  z"/>
<path id="N" d="M 36289373.00 34279202.00 L 35998035.00 34279202.00 L 35998035.00 34909122.00 L 36289373.00 34909122.00 L 36289373.00 34279202.00  z"/>
<path id="N" d="M 33077455.00 29297442.00 L 32979031.00 29297442.00 L 32979031.00 30084844.00 L 33077455.00 30084844.00 L 33077455.00 29297442.00  z"/>
<path id="N" d="M 11874294.00 53519359.00 L 11124294.00 53519359.00 L 11124294.00 53920933.00 L 11874294.00 53920933.00 L 11874294.00 53519359.00  z"/>
<path id="N" d="M 31108951.00 31029726.00 L 31010527.00 31029726.00 L 31010527.00 31817128.00 L 31108951.00 31817128.00 L 31108951.00 31029726.00  z"/>
<path id="N" d="M 18852365.00 34279202.00 L 18561027.00 34279202.00 L 18561027.00 34909122.00 L 18852365.00 34909122.00 L 18852365.00 34279202.00  z"/>
<path id="N" d="M 30518400.00 29297442.00 L 30419976.00 29297442.00 L 30419976.00 30084844.00 L 30518400.00 30084844.00 L 30518400.00 29297442.00  z"/>
<path id="N" d="M 26352365.00 35302824.00 L 26061027.00 35302824.00 L 26061027.00 35932744.00 L 26352365.00 35932744.00 L 26352365.00 35302824.00  z"/>
<path id="N" d="M 41935723.00 29297442.00 L 41837299.00 29297442.00 L 41837299.00 30084844.00 L 41935723.00 30084844.00 L 41935723.00 29297442.00  z"/>
<path id="N" d="M 35289373.00 34279202.00 L 34998035.00 34279202.00 L 34998035.00 34909122.00 L 35289373.00 34909122.00 L 35289373.00 34279202.00  z"/>
<path id="N" d="M 31896353.00 29297442.00 L 31797929.00 29297442.00 L 31797929.00 30084844.00 L 31896353.00 30084844.00 L 31896353.00 29297442.00  z"/>
<path id="N" d="M 25852365.00 34279202.00 L 25561027.00 34279202.00 L 25561027.00 34909122.00 L 25852365.00 34909122.00 L 25852365.00 34279202.00  z"/>
<path id="N" d="M 32290054.00 29297442.00 L 32191630.00 29297442.00 L 32191630.00 30084844.00 L 32290054.00 30084844.00 L 32290054.00 29297442.00  z"/>
<path id="N" d="M 23047052.00 20449027.00 L 23045504.75 20456806.00 L 22862215.04 20456806.00 L 22523741.00 20118331.00 L 22485469.59 20102480.00 L 22303700.00 20102480.00 L 22303700.00 20036600.00 L 21928700.00 20036600.00 L 21928700.00 20276600.00 L 22303700.00 20276600.00 L 22303700.00 20210720.00 L 22463054.04 20210720.00 L 22801529.00 20549195.00 L 22839800.41 20565046.00 L 23059395.63 20565046.00 L 23074680.00 20587920.00 A 127441.40 127441.40 0 1 0 23047052.00 20449027.00  z"/>
<path id="N" d="M 29337298.00 31435278.03 L 29342207.00 31423427.00 L 29337298.00 31411575.97 L 29337298.00 31029726.00 L 29238874.00 31029726.00 L 29238874.00 31410463.04 L 29233178.00 31424214.00 L 29238874.00 31437964.96 L 29238874.00 31817128.00 L 29337298.00 31817128.00 L 29337298.00 31435278.03  z"/>
</g>
</svg>
