<svg width="99.00000012mm" height="119.08716594mm" viewBox="0 0 38976378 46884711"  version="1.1" xmlns="http://www.w3.org/2000/svg" xmlns:xlink="http://www.w3.org/1999/xlink">
<desc>
Origin 0 0 Bound 10687011 14338257 38976378 46884711
</desc>
<g fill-rule="evenodd" fill="rgb(188, 142, 0)" stroke="black" stroke-width="1" transform="translate(0, 46884711) scale(1, -1) translate(-10687011, -14338257)">
<path id="N" d="M 15691169.38 59475050.38 m -130459.26 0 a 130459.26 130459.26 0 1 1 260918.51 0a 130459.26 130459.26 0 1 1 -260918.51 0M 15691168.76 59475048.92 m -80284.08 0 a 80284.08 80284.08 0 1 1 160568.17 0a 80284.08 80284.08 0 1 1 -160568.17 0"/>
<path id="N" d="M 15205748.00 35689897.00 L 15198254.89 35678683.11 L 17142018.00 33734919.00 L 30825789.12 33734919.00 L 30942939.00 33852069.00 L 30981210.41 33867920.00 L 31491740.00 33867921.00 L 31530009.00 33852069.00 L 31571358.00 33810720.00 L 31712024.86 33810720.00 L 31736080.00 33846720.00 A 127441.40 127441.40 0 1 0 31736080.00 33666480.00 L 31712024.86 33702480.00 L 31548940.00 33702479.00 L 31510671.00 33718331.00 L 31469322.00 33759680.00 L 31003625.12 33759680.00 L 30886476.00 33642530.00 L 30848204.59 33626679.00 L 17119600.00 33626679.00 L 17081331.00 33642530.00 L 15108552.99 35615309.01 L 15088000.00 35611221.00 A 127441.40 127441.40 0 1 0 15205748.00 35689897.00  z"/>
<path id="N" d="M 37280793.87 23571193.87 m -127457.60 0 a 127457.60 127457.60 0 1 1 254915.19 0a 127457.60 127457.60 0 1 1 -254915.19 0"/>
<path id="N" d="M 31445193.87 23672793.87 m -127457.60 0 a 127457.60 127457.60 0 1 1 254915.19 0a 127457.60 127457.60 0 1 1 -254915.19 0"/>
<path id="N" d="M 20529530.00 60335658.00 L 20529531.00 59354371.00 A 989040.26 989040.26 0 0 0 19642219.00 58467060.00 L 16986224.00 58467059.00 L 16889750.00 58462319.00 A 984244.34 984244.34 0 0 1 16001972.00 57482808.00 L 16001973.00 36976052.00 L 16006712.00 36879578.00 A 984244.34 984244.34 0 0 1 16986224.00 35991800.00 L 43364176.00 35991801.00 L 43460649.00 35996540.00 A 984244.34 984244.34 0 0 1 44348428.00 36976052.00 L 44348428.00 59332834.00 A 989014.36 989014.36 0 0 0 45235739.00 60220146.00 L 48776077.00 60220146.00 A 989040.26 989040.26 0 0 0 49663389.00 59332834.00 L 49663388.00 34933107.00 A 989002.09 989002.09 0 0 0 49443654.00 34402624.00 L 47401446.00 32360414.00 L 47336581.00 32288846.00 A 984241.09 984241.09 0 0 1 47113167.00 31664444.00 L 47113167.00 14338257.00 L 13237233.00 14338257.00 L 13237233.00 31664445.00 L 13232493.00 31760918.00 A 984241.79 984241.79 0 0 1 12948952.00 32360416.00 L 10906744.00 34402623.00 A 989019.94 989019.94 0 0 0 10687011.00 34933107.00 L 10687011.00 59332834.00 A 989014.36 989014.36 0 0 0 11574322.00 60220146.00 L 11671263.00 60220146.00 L 13442917.00 61222968.00 L 19642219.00 61222968.00 A 989027.50 989027.50 0 0 0 20529530.00 60335658.00  zM 16120422.00 17492020.00 L 15527982.00 17492020.00 L 15527982.00 16899580.00 L 16120422.00 16899580.00 L 16120422.00 17492020.00  zM 18313398.00 17195799.15 m -298776.90 0 a 298776.90 298776.90 0 1 1 597553.80 0a 298776.90 298776.90 0 1 1 -597553.80 0M 15036800.00 17195799.15 m -298776.90 0 a 298776.90 298776.90 0 1 1 597553.80 0a 298776.90 298776.90 0 1 1 -597553.80 0M 18897600.00 21437602.96 m -188621.50 0 a 188621.50 188621.50 0 1 1 377243.00 0a 188621.50 188621.50 0 1 1 -377243.00 0M 19397020.00 17492020.00 L 18804580.00 17492020.00 L 18804580.00 16899580.00 L 19397020.00 16899580.00 L 19397020.00 17492020.00  zM 19913600.00 18110202.96 m -188621.50 0 a 188621.50 188621.50 0 1 1 377243.00 0a 188621.50 188621.50 0 1 1 -377243.00 0M 20243800.00 18973802.96 m -188621.50 0 a 188621.50 188621.50 0 1 1 377243.00 0a 188621.50 188621.50 0 1 1 -377243.00 0M 19735800.00 22199602.96 m -188621.50 0 a 188621.50 188621.50 0 1 1 377243.00 0a 188621.50 188621.50 0 1 1 -377243.00 0M 21529800.00 16103594.96 m -358345.67 0 a 358345.67 358345.67 0 1 1 716691.35 0a 358345.67 358345.67 0 1 1 -716691.35 0M 22885075.00 16458875.00 L 22174525.00 16458875.00 L 22174525.00 15748325.00 L 22885075.00 15748325.00 L 22885075.00 16458875.00  zM 22189005.00 18863747.96 m -188621.50 0 a 188621.50 188621.50 0 1 1 377243.00 0a 188621.50 188621.50 0 1 1 -377243.00 0M 23164800.00 20497802.96 m -188621.50 0 a 188621.50 188621.50 0 1 1 377243.00 0a 188621.50 188621.50 0 1 1 -377243.00 0M 21026157.00 21248409.96 m -188621.50 0 a 188621.50 188621.50 0 1 1 377243.00 0a 188621.50 188621.50 0 1 1 -377243.00 0M 22129750.00 20675602.96 m -188621.50 0 a 188621.50 188621.50 0 1 1 377243.00 0a 188621.50 188621.50 0 1 1 -377243.00 0M 22815550.00 22809202.96 m -188621.50 0 a 188621.50 188621.50 0 1 1 377243.00 0a 188621.50 188621.50 0 1 1 -377243.00 0M 23799800.00 24384002.96 m -188621.50 0 a 188621.50 188621.50 0 1 1 377243.00 0a 188621.50 188621.50 0 1 1 -377243.00 0M 21189950.00 24485602.96 m -188621.50 0 a 188621.50 188621.50 0 1 1 377243.00 0a 188621.50 188621.50 0 1 1 -377243.00 0M 21545550.00 26009602.96 m -188621.50 0 a 188621.50 188621.50 0 1 1 377243.00 0a 188621.50 188621.50 0 1 1 -377243.00 0M 21539200.00 26670002.96 m -188621.50 0 a 188621.50 188621.50 0 1 1 377243.00 0a 188621.50 188621.50 0 1 1 -377243.00 0M 21545550.00 27305002.96 m -188621.50 0 a 188621.50 188621.50 0 1 1 377243.00 0a 188621.50 188621.50 0 1 1 -377243.00 0M 14325600.00 30327594.96 m -358345.67 0 a 358345.67 358345.67 0 1 1 716691.35 0a 358345.67 358345.67 0 1 1 -716691.35 0M 14680875.00 31682875.00 L 13970325.00 31682875.00 L 13970325.00 30972325.00 L 14680875.00 30972325.00 L 14680875.00 31682875.00  zM 21513800.00 27940002.96 m -188621.50 0 a 188621.50 188621.50 0 1 1 377243.00 0a 188621.50 188621.50 0 1 1 -377243.00 0M 19050000.00 34569402.96 m -188621.50 0 a 188621.50 188621.50 0 1 1 377243.00 0a 188621.50 188621.50 0 1 1 -377243.00 0M 21691600.00 24815802.96 m -188621.50 0 a 188621.50 188621.50 0 1 1 377243.00 0a 188621.50 188621.50 0 1 1 -377243.00 0M 21697950.00 25323802.96 m -188621.50 0 a 188621.50 188621.50 0 1 1 377243.00 0a 188621.50 188621.50 0 1 1 -377243.00 0M 22713950.00 24612602.96 m -188621.50 0 a 188621.50 188621.50 0 1 1 377243.00 0a 188621.50 188621.50 0 1 1 -377243.00 0M 14833594.97 36752955.00 L 13882400.00 36752955.00 L 13839480.00 36744418.00 L 13803091.99 36720102.99 L 13415543.08 36332555.00 L 12747874.00 36332555.00 L 12703194.00 36377235.00 A 188621.50 188621.50 0 1 1 12703194.00 36063565.00 L 12747874.00 36108245.00 L 13462000.00 36108244.00 L 13504920.00 36116782.00 L 13541306.00 36141094.00 L 13928856.08 36528645.00 L 14028904.25 36528645.00 L 14048038.60 36482450.60 L 14017694.00 36452106.00 L 13993382.00 36415720.00 L 13984845.00 36372794.97 L 13984845.00 36166674.00 L 13940165.00 36121994.00 A 188621.50 188621.50 0 1 1 14253835.00 36121994.00 L 14209155.00 36166674.00 L 14209155.00 36326343.00 L 14251457.00 36368645.00 L 14426921.78 36368645.00 L 14460330.82 36318644.48 L 14445400.00 36282599.00 L 14445400.00 36209001.00 L 14473565.00 36141006.00 L 14518245.00 36096326.00 L 14518244.00 35890200.00 L 14526782.00 35847280.00 L 14551094.00 35810894.00 L 14745856.74 35616131.26 L 14749382.00 35598410.00 L 14773694.00 35562024.00 L 14911354.00 35424364.00 L 14926864.53 35414000.35 L 14911697.27 35364000.00 L 14898401.00 35364000.00 A 188626.87 188626.87 0 0 1 14750200.00 35142201.00 L 14754498.05 35131824.79 L 14712110.01 35103501.80 L 14383600.00 35432011.96 L 14383600.00 35495199.00 A 188626.87 188626.87 0 1 1 14161801.00 35273400.00 L 14224988.04 35273400.00 L 14571029.33 34927358.86 L 14546398.77 34881278.26 L 14429554.00 34904520.00 A 732822.99 732822.99 0 0 1 13791247.00 34640125.00 L 13740588.35 34564309.03 L 13690588.00 34579476.48 L 13690588.00 34908715.78 L 13719194.00 34920565.00 A 188626.87 188626.87 0 1 1 13457565.00 34972606.00 L 13469607.55 34960563.45 L 13466278.00 34943815.97 L 13466278.00 34657188.14 L 13416277.75 34647242.29 A 186609.18 186609.18 0 1 1 13146645.00 34394526.00 L 13146645.00 34094112.68 L 13096644.50 34071198.96 L 13041599.00 34094000.00 A 188621.50 188621.50 0 1 1 12968001.00 33724000.00 L 13031188.07 33724000.00 L 14380894.00 32374294.00 L 14417280.00 32349982.00 L 14460200.00 32341445.00 L 28345735.72 32341445.00 L 28366446.57 32291444.57 L 28333454.00 32258452.00 L 28322083.08 32231000.00 L 28448866.03 32231000.00 L 28475427.00 32248748.00 L 28524200.00 32258449.00 L 28572973.00 32248748.00 L 28599533.97 32231000.00 L 28726316.92 32231000.00 L 28714946.00 32258452.00 L 28681953.43 32291444.57 L 28702664.28 32341445.00 L 29489109.92 32341445.00 L 29515200.00 32302398.15 A 188620.42 188620.42 0 1 1 29804994.60 32422434.40 L 29798401.32 32455180.34 L 29833775.40 32501445.00 L 29873326.00 32501445.00 L 29918006.00 32456765.00 A 188621.50 188621.50 0 0 1 30207800.00 32650399.00 L 30202235.10 32663833.60 L 30232445.50 32712197.00 L 30269154.99 32715216.01 L 30299006.00 32685365.00 A 188621.50 188621.50 0 0 1 30588800.00 32878999.00 L 30584557.17 32889241.90 L 30614239.39 32948239.63 L 30623610.20 32950590.80 L 30645247.00 32928954.00 A 188621.50 188621.50 0 0 1 30935041.00 33048990.00 L 30935041.00 33099068.03 L 30973183.19 33137673.97 L 30981235.36 33140858.92 L 30986845.03 33139745.00 L 31050925.92 33139745.00 L 31059765.00 33118406.00 A 188626.87 188626.87 0 1 1 31373435.00 33327994.00 L 31357629.43 33343799.57 L 31378340.28 33393800.00 L 31431199.00 33393800.00 A 188626.87 188626.87 0 0 1 31579400.00 33615598.15 L 31598674.70 33644445.00 L 31676726.00 33644445.00 L 31721406.00 33599765.00 A 188621.50 188621.50 0 1 1 31721406.00 33913435.00 L 31676726.00 33868755.00 L 31595397.00 33868755.00 L 31571046.00 33893106.00 L 31534660.00 33917418.00 L 31491734.97 33925955.00 L 31304852.29 33925955.00 L 31284784.42 33975955.42 L 31322635.00 34013806.00 L 31350800.00 34081801.00 L 31350800.00 34155399.00 L 31335869.18 34191444.48 L 31369278.22 34241445.00 L 31766943.06 34241445.00 L 32280294.00 33728094.00 L 32316680.00 33703782.00 L 32359600.00 33695245.00 L 32819726.00 33695245.00 L 32864406.00 33650565.00 A 188621.50 188621.50 0 1 1 32864406.00 33964235.00 L 32819726.00 33919555.00 L 32406056.06 33919555.00 L 31892706.00 34432906.00 L 31856320.00 34457218.00 L 31813394.97 34465755.00 L 31239530.80 34465755.00 L 31229625.40 34515755.40 L 31324203.00 34610333.00 A 732802.94 732802.94 0 1 1 30829554.00 34345938.00 L 30835752.59 34347170.97 L 30859322.58 34303074.58 L 30669202.00 34112954.00 L 21485911.92 34112954.00 L 21473115.91 34142554.58 L 21470583.39 34162954.39 L 21518235.00 34210606.00 A 188621.50 188621.50 0 0 1 21322258.76 34499429.80 L 21283990.21 34537698.35 L 21292400.00 34558001.00 A 188621.50 188621.50 0 1 1 21146541.24 34410770.20 L 21184809.79 34372501.65 L 21176400.00 34352199.00 L 21176400.00 34278601.00 L 21204565.00 34210606.00 L 21252216.61 34162954.39 L 21249684.09 34142554.58 L 21236888.08 34112954.00 L 17520057.01 34112954.00 L 14912906.00 36720106.00 L 14876520.00 36744418.00 L 14833594.97 36752955.00  zM 24314150.00 24434802.96 m -188621.50 0 a 188621.50 188621.50 0 1 1 377243.00 0a 188621.50 188621.50 0 1 1 -377243.00 0M 23972345.38 27763800.00 L 23870648.34 27763800.00 L 23880052.00 27728705.00 A 353016.46 353016.46 0 0 1 24071105.00 27537652.00 L 24106200.00 27528248.34 L 24106200.00 27629945.38 L 24025960.00 27683560.00 L 23972345.38 27763800.00  zM 24106200.00 28199351.66 L 24071105.00 28189948.00 A 353016.46 353016.46 0 0 1 23880052.00 27998895.00 L 23870648.34 27963800.00 L 23972345.38 27963800.00 L 24025960.00 28044040.00 L 24106200.00 28097654.62 L 24106200.00 28199351.66  zM 25450800.00 20472402.96 m -188621.50 0 a 188621.50 188621.50 0 1 1 377243.00 0a 188621.50 188621.50 0 1 1 -377243.00 0M 30151400.00 17857800.00 L 30049283.08 17857800.00 L 30060654.00 17830348.00 L 30123948.00 17767054.00 L 30151400.00 17755683.08 L 30151400.00 17857800.00  zM 30292023.00 16876180.30 m -171566.11 0 a 171566.11 171566.11 0 1 1 343132.23 0a 171566.11 171566.11 0 1 1 -343132.23 0M 30151400.00 18159916.92 L 30123948.00 18148546.00 L 30060654.00 18085252.00 L 30049283.08 18057800.00 L 30151400.00 18057800.00 L 30151400.00 18159916.92  zM 30453516.92 17857800.00 L 30351400.00 17857800.00 L 30351400.00 17755683.08 L 30378852.00 17767054.00 L 30442146.00 17830348.00 L 30453516.92 17857800.00  zM 33020000.00 16357602.96 m -188621.50 0 a 188621.50 188621.50 0 1 1 377243.00 0a 188621.50 188621.50 0 1 1 -377243.00 0M 30351400.00 18159916.92 L 30351400.00 18057800.00 L 30453516.92 18057800.00 L 30442146.00 18085252.00 L 30378852.00 18148546.00 L 30351400.00 18159916.92  zM 31064200.00 23088602.96 m -188621.50 0 a 188621.50 188621.50 0 1 1 377243.00 0a 188621.50 188621.50 0 1 1 -377243.00 0M 30683200.00 23368002.96 m -188621.50 0 a 188621.50 188621.50 0 1 1 377243.00 0a 188621.50 188621.50 0 1 1 -377243.00 0M 30431038.00 23799802.96 m -188621.50 0 a 188621.50 188621.50 0 1 1 377243.00 0a 188621.50 188621.50 0 1 1 -377243.00 0M 31445200.00 23672802.96 m -188621.50 0 a 188621.50 188621.50 0 1 1 377243.00 0a 188621.50 188621.50 0 1 1 -377243.00 0M 32385000.00 23806202.96 m -188621.50 0 a 188621.50 188621.50 0 1 1 377243.00 0a 188621.50 188621.50 0 1 1 -377243.00 0M 30175200.00 25473602.96 m -188621.50 0 a 188621.50 188621.50 0 1 1 377243.00 0a 188621.50 188621.50 0 1 1 -377243.00 0M 31623000.00 25473602.96 m -188621.50 0 a 188621.50 188621.50 0 1 1 377243.00 0a 188621.50 188621.50 0 1 1 -377243.00 0M 32207200.00 26263602.96 m -188621.50 0 a 188621.50 188621.50 0 1 1 377243.00 0a 188621.50 188621.50 0 1 1 -377243.00 0M 24541751.66 27763800.00 L 24440054.62 27763800.00 L 24386440.00 27683560.00 L 24306200.00 27629945.38 L 24306200.00 27528248.34 L 24341295.00 27537652.00 A 353016.46 353016.46 0 0 1 24532348.00 27728705.00 L 24541751.66 27763800.00  zM 24306200.00 28199351.66 L 24306200.00 28097654.62 L 24386440.00 28044040.00 L 24440054.62 27963800.00 L 24541751.66 27963800.00 L 24532348.00 27998895.00 A 353016.46 353016.46 0 0 1 24341295.00 28189948.00 L 24306200.00 28199351.66  zM 25069800.00 34569402.96 m -188621.50 0 a 188621.50 188621.50 0 1 1 377243.00 0a 188621.50 188621.50 0 1 1 -377243.00 0M 32073000.00 32828199.00 L 32073000.00 32765011.49 L 31962794.00 32654806.00 L 31938482.00 32618420.00 L 31929945.00 32575494.97 L 31929945.00 31910756.15 L 31779743.15 31760555.00 L 20444074.00 31760555.00 L 20399394.00 31805235.00 A 188621.50 188621.50 0 1 1 20399394.00 31491565.00 L 20444074.00 31536245.00 L 31826200.00 31536244.00 L 31869120.00 31544782.00 L 31905506.00 31569094.00 L 32121406.00 31784994.00 L 32145718.00 31821380.00 L 32154255.00 31864305.03 L 32154255.00 32529043.15 L 32231611.49 32606400.00 L 32294799.00 32606400.00 A 188626.87 188626.87 0 1 1 32073000.00 32828199.00  zM 32685365.00 32254806.00 L 32730045.00 32210126.00 L 32730044.00 31546800.00 L 32738582.00 31503880.00 L 32762894.00 31467494.00 L 33288845.00 30941543.94 L 33288845.00 30414355.00 L 33134295.28 30414355.00 L 33113584.43 30464355.43 L 33126035.00 30476806.00 A 188621.50 188621.50 0 1 1 32812365.00 30476806.00 L 32824815.57 30464355.43 L 32804104.72 30414355.00 L 31579512.68 30414355.00 L 31556598.96 30464355.50 L 31579400.00 30519401.00 A 188621.50 188621.50 0 1 1 31209400.00 30519401.00 L 31232201.04 30464355.50 L 31209287.32 30414355.00 L 29877712.68 30414355.00 L 29854798.96 30464355.50 L 29877600.00 30519401.00 A 188621.50 188621.50 0 1 1 29507600.00 30519401.00 L 29530401.04 30464355.50 L 29507487.32 30414355.00 L 20923116.02 30414355.00 L 19691130.00 31646341.92 L 19691130.00 31709529.00 A 188626.87 188626.87 0 1 1 19469331.00 31487730.00 L 19532518.08 31487730.00 L 20797354.00 30222894.00 L 20833740.00 30198582.00 L 20876665.03 30190045.00 L 33342421.00 30190044.00 L 33385341.00 30198582.00 L 33421727.00 30222894.00 L 33480306.00 30281473.00 L 33504618.00 30317859.00 L 33513155.00 30360779.00 L 33513156.00 30988000.00 L 33504618.00 31030920.00 L 33480302.99 31067308.01 L 32954355.00 31593256.94 L 32954355.00 32210126.00 L 32999035.00 32254806.00 A 188621.50 188621.50 0 1 1 32685365.00 32254806.00  zM 32305606.00 32177365.00 L 32325537.00 32169109.15 L 32325537.00 31696749.00 L 32033743.00 31404955.00 L 21104474.00 31404955.00 L 21059794.00 31449635.00 A 188621.50 188621.50 0 1 1 21059794.00 31135965.00 L 21104474.00 31180645.00 L 28545159.22 31180645.00 L 28568736.94 31130644.49 L 28548953.00 31082881.00 A 171566.11 171566.11 0 1 1 28885487.00 31082881.00 L 28865703.06 31130644.49 L 28889280.78 31180645.00 L 32080200.00 31180644.00 L 32123120.00 31189182.00 L 32159506.00 31213494.00 L 32516998.00 31570986.00 L 32541310.00 31607372.00 L 32549847.00 31650297.03 L 32549847.00 32212018.00 L 32567235.00 32229406.00 A 188621.50 188621.50 0 1 1 32305606.00 32177365.00  zM 28373400.00 28754400.00 L 28271283.08 28754400.00 L 28282654.00 28726948.00 L 28345948.00 28663654.00 L 28373400.00 28652283.08 L 28373400.00 28754400.00  zM 28373400.00 29056516.92 L 28345948.00 29045146.00 L 28282654.00 28981852.00 L 28271283.08 28954400.00 L 28373400.00 28954400.00 L 28373400.00 29056516.92  zM 28675516.92 28754400.00 L 28573400.00 28754400.00 L 28573400.00 28652283.08 L 28600852.00 28663654.00 L 28664146.00 28726948.00 L 28675516.92 28754400.00  zM 29546600.00 28111402.96 m -188621.50 0 a 188621.50 188621.50 0 1 1 377243.00 0a 188621.50 188621.50 0 1 1 -377243.00 0M 29921200.00 26746202.96 m -188621.50 0 a 188621.50 188621.50 0 1 1 377243.00 0a 188621.50 188621.50 0 1 1 -377243.00 0M 31851600.00 28346402.96 m -188621.50 0 a 188621.50 188621.50 0 1 1 377243.00 0a 188621.50 188621.50 0 1 1 -377243.00 0M 28573400.00 29056516.92 L 28573400.00 28954400.00 L 28675516.92 28954400.00 L 28664146.00 28981852.00 L 28600852.00 29045146.00 L 28573400.00 29056516.92  zM 28726316.92 32031000.00 L 28624200.00 32031000.00 L 28624200.00 31928883.08 L 28651652.00 31940254.00 L 28714946.00 32003548.00 L 28726316.92 32031000.00  zM 28424200.00 32031000.00 L 28322083.08 32031000.00 L 28333454.00 32003548.00 L 28396748.00 31940254.00 L 28424200.00 31928883.08 L 28424200.00 32031000.00  zM 34493200.00 16383002.96 m -188621.50 0 a 188621.50 188621.50 0 1 1 377243.00 0a 188621.50 188621.50 0 1 1 -377243.00 0M 35764463.00 16876180.30 m -171566.11 0 a 171566.11 171566.11 0 1 1 343132.23 0a 171566.11 171566.11 0 1 1 -343132.23 0M 38756590.00 16876180.30 m -171566.11 0 a 171566.11 171566.11 0 1 1 343132.23 0a 171566.11 171566.11 0 1 1 -343132.23 0M 38558800.00 17857800.00 L 38456683.08 17857800.00 L 38468054.00 17830348.00 L 38531348.00 17767054.00 L 38558800.00 17755683.08 L 38558800.00 17857800.00  zM 38558800.00 18159916.92 L 38531348.00 18148546.00 L 38468054.00 18085252.00 L 38456683.08 18057800.00 L 38558800.00 18057800.00 L 38558800.00 18159916.92  zM 38758800.00 18159916.92 L 38758800.00 18057800.00 L 38860916.92 18057800.00 L 38849546.00 18085252.00 L 38786252.00 18148546.00 L 38758800.00 18159916.92  zM 37515800.00 23088602.96 m -188621.50 0 a 188621.50 188621.50 0 1 1 377243.00 0a 188621.50 188621.50 0 1 1 -377243.00 0M 37280800.00 23571202.96 m -188621.50 0 a 188621.50 188621.50 0 1 1 377243.00 0a 188621.50 188621.50 0 1 1 -377243.00 0M 39700200.00 16357602.96 m -188621.50 0 a 188621.50 188621.50 0 1 1 377243.00 0a 188621.50 188621.50 0 1 1 -377243.00 0M 41478200.00 16383002.96 m -188621.50 0 a 188621.50 188621.50 0 1 1 377243.00 0a 188621.50 188621.50 0 1 1 -377243.00 0M 43205400.00 16357602.96 m -188621.50 0 a 188621.50 188621.50 0 1 1 377243.00 0a 188621.50 188621.50 0 1 1 -377243.00 0M 44229030.00 16876180.30 m -171566.11 0 a 171566.11 171566.11 0 1 1 343132.23 0a 171566.11 171566.11 0 1 1 -343132.23 0M 38860916.92 17857800.00 L 38758800.00 17857800.00 L 38758800.00 17755683.08 L 38786252.00 17767054.00 L 38849546.00 17830348.00 L 38860916.92 17857800.00  zM 44958000.00 23774402.96 m -188621.50 0 a 188621.50 188621.50 0 1 1 377243.00 0a 188621.50 188621.50 0 1 1 -377243.00 0M 42494200.00 24079202.96 m -188621.50 0 a 188621.50 188621.50 0 1 1 377243.00 0a 188621.50 188621.50 0 1 1 -377243.00 0M 36093400.00 25069802.96 m -188621.50 0 a 188621.50 188621.50 0 1 1 377243.00 0a 188621.50 188621.50 0 1 1 -377243.00 0M 37033200.00 25473602.96 m -188621.50 0 a 188621.50 188621.50 0 1 1 377243.00 0a 188621.50 188621.50 0 1 1 -377243.00 0M 35458400.00 27203402.96 m -188621.50 0 a 188621.50 188621.50 0 1 1 377243.00 0a 188621.50 188621.50 0 1 1 -377243.00 0M 36779200.00 27787602.96 m -188621.50 0 a 188621.50 188621.50 0 1 1 377243.00 0a 188621.50 188621.50 0 1 1 -377243.00 0M 38125400.00 24587202.96 m -188621.50 0 a 188621.50 188621.50 0 1 1 377243.00 0a 188621.50 188621.50 0 1 1 -377243.00 0M 40513000.00 26060402.96 m -188621.50 0 a 188621.50 188621.50 0 1 1 377243.00 0a 188621.50 188621.50 0 1 1 -377243.00 0M 37820600.00 26212802.96 m -188621.50 0 a 188621.50 188621.50 0 1 1 377243.00 0a 188621.50 188621.50 0 1 1 -377243.00 0M 40157400.00 27508202.96 m -188621.50 0 a 188621.50 188621.50 0 1 1 377243.00 0a 188621.50 188621.50 0 1 1 -377243.00 0M 42849800.00 25349202.96 m -188621.50 0 a 188621.50 188621.50 0 1 1 377243.00 0a 188621.50 188621.50 0 1 1 -377243.00 0M 43510200.00 24968202.96 m -188621.50 0 a 188621.50 188621.50 0 1 1 377243.00 0a 188621.50 188621.50 0 1 1 -377243.00 0M 43738800.00 24358602.96 m -188621.50 0 a 188621.50 188621.50 0 1 1 377243.00 0a 188621.50 188621.50 0 1 1 -377243.00 0M 44205926.00 24450276.96 m -188621.50 0 a 188621.50 188621.50 0 1 1 377243.00 0a 188621.50 188621.50 0 1 1 -377243.00 0M 42259200.00 25781002.96 m -188621.50 0 a 188621.50 188621.50 0 1 1 377243.00 0a 188621.50 188621.50 0 1 1 -377243.00 0M 41884600.00 26517602.96 m -188621.50 0 a 188621.50 188621.50 0 1 1 377243.00 0a 188621.50 188621.50 0 1 1 -377243.00 0M 43053000.00 26974802.96 m -188621.50 0 a 188621.50 188621.50 0 1 1 377243.00 0a 188621.50 188621.50 0 1 1 -377243.00 0M 33070800.00 27787602.96 m -188621.50 0 a 188621.50 188621.50 0 1 1 377243.00 0a 188621.50 188621.50 0 1 1 -377243.00 0M 34189660.00 31049408.30 m -171566.11 0 a 171566.11 171566.11 0 1 1 343132.23 0a 171566.11 171566.11 0 1 1 -343132.23 0M 36423600.00 28168602.96 m -188621.50 0 a 188621.50 188621.50 0 1 1 377243.00 0a 188621.50 188621.50 0 1 1 -377243.00 0M 38508000.00 29894716.92 L 38480548.00 29883346.00 L 38417254.00 29820052.00 L 38405883.08 29792600.00 L 38508000.00 29792600.00 L 38508000.00 29894716.92  zM 38508000.00 29592600.00 L 38405883.08 29592600.00 L 38417254.00 29565148.00 L 38480548.00 29501854.00 L 38508000.00 29490483.08 L 38508000.00 29592600.00  zM 38810116.92 29592600.00 L 38708000.00 29592600.00 L 38708000.00 29490483.08 L 38735452.00 29501854.00 L 38798746.00 29565148.00 L 38810116.92 29592600.00  zM 38708000.00 29894716.92 L 38708000.00 29792600.00 L 38810116.92 29792600.00 L 38798746.00 29820052.00 L 38735452.00 29883346.00 L 38708000.00 29894716.92  zM 38756590.00 31049408.30 m -171566.11 0 a 171566.11 171566.11 0 1 1 343132.23 0a 171566.11 171566.11 0 1 1 -343132.23 0M 37713745.38 31446800.00 L 37612048.34 31446800.00 L 37621452.00 31411705.00 A 353016.46 353016.46 0 0 1 37812505.00 31220652.00 L 37847600.00 31211248.34 L 37847600.00 31312945.38 L 37767360.00 31366560.00 L 37713745.38 31446800.00  zM 36830000.00 33172402.96 m -188621.50 0 a 188621.50 188621.50 0 1 1 377243.00 0a 188621.50 188621.50 0 1 1 -377243.00 0M 35123034.00 34010602.96 m -188621.50 0 a 188621.50 188621.50 0 1 1 377243.00 0a 188621.50 188621.50 0 1 1 -377243.00 0M 35433000.00 33705802.96 m -188621.50 0 a 188621.50 188621.50 0 1 1 377243.00 0a 188621.50 188621.50 0 1 1 -377243.00 0M 37847600.00 31882351.66 L 37812505.00 31872948.00 A 353016.46 353016.46 0 0 1 37621452.00 31681895.00 L 37612048.34 31646800.00 L 37713745.38 31646800.00 L 37767360.00 31727040.00 L 37847600.00 31780654.62 L 37847600.00 31882351.66  zM 38047600.00 31882351.66 L 38047600.00 31780654.62 L 38127840.00 31727040.00 L 38181454.62 31646800.00 L 38283151.66 31646800.00 L 38273748.00 31681895.00 A 353016.46 353016.46 0 0 1 38082695.00 31872948.00 L 38047600.00 31882351.66  zM 38283151.66 31446800.00 L 38181454.62 31446800.00 L 38127840.00 31366560.00 L 38047600.00 31312945.38 L 38047600.00 31211248.34 L 38082695.00 31220652.00 A 353016.46 353016.46 0 0 1 38273748.00 31411705.00 L 38283151.66 31446800.00  zM 39471600.00 28752802.96 m -188621.50 0 a 188621.50 188621.50 0 1 1 377243.00 0a 188621.50 188621.50 0 1 1 -377243.00 0M 39928800.00 28752802.96 m -188621.50 0 a 188621.50 188621.50 0 1 1 377243.00 0a 188621.50 188621.50 0 1 1 -377243.00 0M 39725600.00 30556202.96 m -188621.50 0 a 188621.50 188621.50 0 1 1 377243.00 0a 188621.50 188621.50 0 1 1 -377243.00 0M 39801800.00 32639002.96 m -188621.50 0 a 188621.50 188621.50 0 1 1 377243.00 0a 188621.50 188621.50 0 1 1 -377243.00 0M 39420800.00 32918402.96 m -188621.50 0 a 188621.50 188621.50 0 1 1 377243.00 0a 188621.50 188621.50 0 1 1 -377243.00 0M 40408206.00 33625165.00 L 40459696.25 33603836.62 L 40477994.49 33567001.22 L 40479190.76 33546999.53 L 40455000.00 33488599.00 L 40455000.00 33415001.00 L 40462101.98 33397855.65 L 40422962.41 33361689.85 L 40371999.00 33382800.00 A 188621.50 188621.50 0 1 1 40520200.00 33234599.00 L 40513098.02 33251744.35 L 40552237.59 33287910.15 L 40603201.00 33266800.00 A 188621.50 188621.50 0 0 1 40744794.00 33608635.00 L 40693303.75 33629963.38 L 40675005.51 33666798.78 L 40673809.24 33686800.47 L 40698000.00 33745201.00 A 188621.50 188621.50 0 1 1 40408206.00 33625165.00  zM 39496362.00 34594164.96 m -188621.50 0 a 188621.50 188621.50 0 1 1 377243.00 0a 188621.50 188621.50 0 1 1 -377243.00 0M 40513000.00 34569402.96 m -188621.50 0 a 188621.50 188621.50 0 1 1 377243.00 0a 188621.50 188621.50 0 1 1 -377243.00 0M 41275000.00 28143202.96 m -188621.50 0 a 188621.50 188621.50 0 1 1 377243.00 0a 188621.50 188621.50 0 1 1 -377243.00 0M 41656000.00 28575002.96 m -188621.50 0 a 188621.50 188621.50 0 1 1 377243.00 0a 188621.50 188621.50 0 1 1 -377243.00 0M 41040000.00 28752802.96 m -188621.50 0 a 188621.50 188621.50 0 1 1 377243.00 0a 188621.50 188621.50 0 1 1 -377243.00 0M 43230800.00 30556202.96 m -188621.50 0 a 188621.50 188621.50 0 1 1 377243.00 0a 188621.50 188621.50 0 1 1 -377243.00 0M 41503600.00 30556202.96 m -188621.50 0 a 188621.50 188621.50 0 1 1 377243.00 0a 188621.50 188621.50 0 1 1 -377243.00 0M 44229030.00 31049408.30 m -171566.11 0 a 171566.11 171566.11 0 1 1 343132.23 0a 171566.11 171566.11 0 1 1 -343132.23 0M 46157726.00 34025225.73 m -732822.99 0 a 732822.99 732822.99 0 1 1 1465645.99 0a 732822.99 732822.99 0 1 1 -1465645.99 0M 12130200.00 35220136.99 m -653707.74 0 a 653707.74 653707.74 0 1 1 1307415.48 0a 653707.74 653707.74 0 1 1 -1307415.48 0M 11963400.00 36499802.96 m -188621.50 0 a 188621.50 188621.50 0 1 1 377243.00 0a 188621.50 188621.50 0 1 1 -377243.00 0M 12130200.00 37720142.86 m -263040.40 0 a 263040.40 263040.40 0 1 1 526080.80 0a 263040.40 263040.40 0 1 1 -526080.80 0M 12963222.92 38065894.00 L 12861106.00 38065894.00 L 12861106.00 37963777.08 L 12888558.00 37975148.00 L 12951852.00 38038442.00 L 12963222.92 38065894.00  zM 11499294.00 38245496.96 m -188621.50 0 a 188621.50 188621.50 0 1 1 377243.00 0a 188621.50 188621.50 0 1 1 -377243.00 0M 12661106.00 38065894.00 L 12558989.08 38065894.00 L 12570360.00 38038442.00 L 12633654.00 37975148.00 L 12661106.00 37963777.08 L 12661106.00 38065894.00  zM 12661106.00 38368010.92 L 12633654.00 38356640.00 L 12570360.00 38293346.00 L 12558989.08 38265894.00 L 12661106.00 38265894.00 L 12661106.00 38368010.92  zM 12861106.00 38368010.92 L 12861106.00 38265894.00 L 12963222.92 38265894.00 L 12951852.00 38293346.00 L 12888558.00 38356640.00 L 12861106.00 38368010.92  zM 18706696.00 35105975.48 m -201667.62 0 a 201667.62 201667.62 0 1 1 403335.25 0a 201667.62 201667.62 0 1 1 -403335.25 0M 19206696.00 35105975.48 m -201667.62 0 a 201667.62 201667.62 0 1 1 403335.25 0a 201667.62 201667.62 0 1 1 -403335.25 0M 19706696.00 35105975.48 m -201667.62 0 a 201667.62 201667.62 0 1 1 403335.25 0a 201667.62 201667.62 0 1 1 -403335.25 0M 19558000.00 35610802.96 m -188621.50 0 a 188621.50 188621.50 0 1 1 377243.00 0a 188621.50 188621.50 0 1 1 -377243.00 0M 20066000.00 34594802.96 m -188621.50 0 a 188621.50 188621.50 0 1 1 377243.00 0a 188621.50 188621.50 0 1 1 -377243.00 0M 20206696.00 35105975.48 m -201667.62 0 a 201667.62 201667.62 0 1 1 403335.25 0a 201667.62 201667.62 0 1 1 -403335.25 0M 20548600.00 35636202.96 m -188621.50 0 a 188621.50 188621.50 0 1 1 377243.00 0a 188621.50 188621.50 0 1 1 -377243.00 0M 20706696.00 35105975.48 m -201667.62 0 a 201667.62 201667.62 0 1 1 403335.25 0a 201667.62 201667.62 0 1 1 -403335.25 0M 21206696.00 35105975.48 m -201667.62 0 a 201667.62 201667.62 0 1 1 403335.25 0a 201667.62 201667.62 0 1 1 -403335.25 0M 21706696.00 35105975.48 m -201667.62 0 a 201667.62 201667.62 0 1 1 403335.25 0a 201667.62 201667.62 0 1 1 -403335.25 0M 21539200.00 35636202.96 m -188621.50 0 a 188621.50 188621.50 0 1 1 377243.00 0a 188621.50 188621.50 0 1 1 -377243.00 0M 22206696.00 35105975.48 m -201667.62 0 a 201667.62 201667.62 0 1 1 403335.25 0a 201667.62 201667.62 0 1 1 -403335.25 0M 23063200.00 34594802.96 m -188621.50 0 a 188621.50 188621.50 0 1 1 377243.00 0a 188621.50 188621.50 0 1 1 -377243.00 0M 22706696.00 35105975.48 m -201667.62 0 a 201667.62 201667.62 0 1 1 403335.25 0a 201667.62 201667.62 0 1 1 -403335.25 0M 22555200.00 35636202.96 m -188621.50 0 a 188621.50 188621.50 0 1 1 377243.00 0a 188621.50 188621.50 0 1 1 -377243.00 0M 24104600.00 34620202.96 m -188621.50 0 a 188621.50 188621.50 0 1 1 377243.00 0a 188621.50 188621.50 0 1 1 -377243.00 0M 23706696.00 35105975.48 m -201667.62 0 a 201667.62 201667.62 0 1 1 403335.25 0a 201667.62 201667.62 0 1 1 -403335.25 0M 23206696.00 35105975.48 m -201667.62 0 a 201667.62 201667.62 0 1 1 403335.25 0a 201667.62 201667.62 0 1 1 -403335.25 0M 23723600.00 35610802.96 m -188621.50 0 a 188621.50 188621.50 0 1 1 377243.00 0a 188621.50 188621.50 0 1 1 -377243.00 0M 24206696.00 35105975.48 m -201667.62 0 a 201667.62 201667.62 0 1 1 403335.25 0a 201667.62 201667.62 0 1 1 -403335.25 0M 24612600.00 35585402.96 m -188621.50 0 a 188621.50 188621.50 0 1 1 377243.00 0a 188621.50 188621.50 0 1 1 -377243.00 0M 24706696.00 35105975.48 m -201667.62 0 a 201667.62 201667.62 0 1 1 403335.25 0a 201667.62 201667.62 0 1 1 -403335.25 0M 12130200.00 38720142.86 m -263040.40 0 a 263040.40 263040.40 0 1 1 526080.80 0a 263040.40 263040.40 0 1 1 -526080.80 0M 12996106.00 39268402.96 m -188621.50 0 a 188621.50 188621.50 0 1 1 377243.00 0a 188621.50 188621.50 0 1 1 -377243.00 0M 12130200.00 39720142.86 m -263040.40 0 a 263040.40 263040.40 0 1 1 526080.80 0a 263040.40 263040.40 0 1 1 -526080.80 0M 12761106.00 40147096.96 m -188621.50 0 a 188621.50 188621.50 0 1 1 377243.00 0a 188621.50 188621.50 0 1 1 -377243.00 0M 12130200.00 40720142.86 m -263040.40 0 a 263040.40 263040.40 0 1 1 526080.80 0a 263040.40 263040.40 0 1 1 -526080.80 0M 12130200.00 41720142.86 m -263040.40 0 a 263040.40 263040.40 0 1 1 526080.80 0a 263040.40 263040.40 0 1 1 -526080.80 0M 12130200.00 42720142.86 m -263040.40 0 a 263040.40 263040.40 0 1 1 526080.80 0a 263040.40 263040.40 0 1 1 -526080.80 0M 12130200.00 43720142.86 m -263040.40 0 a 263040.40 263040.40 0 1 1 526080.80 0a 263040.40 263040.40 0 1 1 -526080.80 0M 12130200.00 44720142.86 m -263040.40 0 a 263040.40 263040.40 0 1 1 526080.80 0a 263040.40 263040.40 0 1 1 -526080.80 0M 12130200.00 45720142.86 m -263040.40 0 a 263040.40 263040.40 0 1 1 526080.80 0a 263040.40 263040.40 0 1 1 -526080.80 0M 12130200.00 46720142.86 m -263040.40 0 a 263040.40 263040.40 0 1 1 526080.80 0a 263040.40 263040.40 0 1 1 -526080.80 0M 12130200.00 47720142.86 m -263040.40 0 a 263040.40 263040.40 0 1 1 526080.80 0a 263040.40 263040.40 0 1 1 -526080.80 0M 12130200.00 48720142.86 m -263040.40 0 a 263040.40 263040.40 0 1 1 526080.80 0a 263040.40 263040.40 0 1 1 -526080.80 0M 12130200.00 49720142.86 m -263040.40 0 a 263040.40 263040.40 0 1 1 526080.80 0a 263040.40 263040.40 0 1 1 -526080.80 0M 12130200.00 50720142.86 m -263040.40 0 a 263040.40 263040.40 0 1 1 526080.80 0a 263040.40 263040.40 0 1 1 -526080.80 0M 12130200.00 51720142.86 m -263040.40 0 a 263040.40 263040.40 0 1 1 526080.80 0a 263040.40 263040.40 0 1 1 -526080.80 0M 12130200.00 52720142.86 m -263040.40 0 a 263040.40 263040.40 0 1 1 526080.80 0a 263040.40 263040.40 0 1 1 -526080.80 0M 12130200.00 53720142.86 m -263040.40 0 a 263040.40 263040.40 0 1 1 526080.80 0a 263040.40 263040.40 0 1 1 -526080.80 0M 12130200.00 54720142.86 m -263040.40 0 a 263040.40 263040.40 0 1 1 526080.80 0a 263040.40 263040.40 0 1 1 -526080.80 0M 12130200.00 55720142.86 m -263040.40 0 a 263040.40 263040.40 0 1 1 526080.80 0a 263040.40 263040.40 0 1 1 -526080.80 0M 12130200.00 56720142.86 m -263040.40 0 a 263040.40 263040.40 0 1 1 526080.80 0a 263040.40 263040.40 0 1 1 -526080.80 0M 16253993.00 59102893.00 L 16225801.40 59074701.40 L 16193137.00 59054869.34 L 16160472.60 59074701.40 L 16132281.00 59102893.00 A 191636.82 191636.82 0 0 1 15919347.00 59102893.00 L 15891155.90 59074701.90 L 15858491.50 59054869.20 L 15825827.10 59074701.90 L 15797636.00 59102893.00 A 191636.82 191636.82 0 0 1 15584702.00 59102893.00 L 15556510.40 59074701.40 L 15523846.00 59054869.34 L 15491181.60 59074701.40 L 15462990.00 59102893.00 A 191636.82 191636.82 0 0 1 15250056.00 59102893.00 L 15221864.40 59074701.40 L 15189200.00 59054869.34 L 15156535.60 59074701.40 L 15128344.00 59102893.00 A 191636.82 191636.82 0 0 1 14915410.00 59102893.00 L 14887218.40 59074701.40 L 14854554.00 59054869.34 L 14821889.60 59074701.40 L 14793698.00 59102893.00 A 191636.82 191636.82 0 0 1 14580764.00 59102893.00 L 14552572.90 59074701.90 L 14519908.50 59054869.20 L 14487244.10 59074701.90 L 14459053.00 59102893.00 A 191636.82 191636.82 0 0 1 14246119.00 59102893.00 L 14217927.40 59074701.40 L 14185263.00 59054869.34 L 14152598.60 59074701.40 L 14124407.00 59102893.00 A 191636.82 191636.82 0 1 1 14124407.00 58784215.00 L 14152598.60 58812406.60 L 14185263.00 58832238.66 L 14217927.40 58812406.60 L 14246119.00 58784215.00 A 191636.82 191636.82 0 0 1 14459053.00 58784215.00 L 14487244.10 58812406.10 L 14519908.50 58832238.80 L 14552572.90 58812406.10 L 14580764.00 58784215.00 A 191636.82 191636.82 0 0 1 14793698.00 58784215.00 L 14821889.60 58812406.60 L 14854554.00 58832238.66 L 14887218.40 58812406.60 L 14915410.00 58784215.00 A 191636.82 191636.82 0 0 1 15128344.00 58784215.00 L 15156535.60 58812406.60 L 15189200.00 58832238.66 L 15221864.40 58812406.60 L 15250056.00 58784215.00 A 191636.82 191636.82 0 0 1 15462990.00 58784215.00 L 15491181.60 58812406.60 L 15523846.00 58832238.66 L 15556510.40 58812406.60 L 15584702.00 58784215.00 A 191636.82 191636.82 0 0 1 15797636.00 58784215.00 L 15825827.10 58812406.10 L 15858491.50 58832238.80 L 15891155.90 58812406.10 L 15919347.00 58784215.00 A 191636.82 191636.82 0 0 1 16132281.00 58784215.00 L 16160472.60 58812406.60 L 16193137.00 58832238.66 L 16225801.40 58812406.60 L 16253993.00 58784215.00 A 191636.82 191636.82 0 1 1 16253993.00 59102893.00  zM 15199376.19 58361164.23 L 15140396.37 58349432.63 L 15116194.00 58373635.00 A 188621.50 188621.50 0 1 1 15168546.81 58112758.77 L 15227526.63 58124490.37 L 15251729.00 58100288.00 A 188621.50 188621.50 0 0 1 15513358.00 58152329.00 L 15522110.67 58173459.41 L 15576230.90 58173459.41 L 15591165.00 58137406.00 A 188626.87 188626.87 0 1 1 15591165.00 58346994.00 L 15582412.33 58325863.59 L 15528292.10 58325863.59 L 15513358.00 58361917.00 A 188626.87 188626.87 0 0 1 15199376.19 58361164.23  zM 12130200.00 59220136.99 m -653707.74 0 a 653707.74 653707.74 0 1 1 1307415.48 0a 653707.74 653707.74 0 1 1 -1307415.48 0M 13244633.00 59624657.00 L 13244633.00 59034105.00 A 241812.08 241812.08 0 0 1 13728255.00 59034105.00 L 13728255.00 59624657.00 A 241812.08 241812.08 0 0 1 13244633.00 59624657.00  zM 13244633.00 60817570.00 L 13244633.00 60502610.00 A 241812.08 241812.08 0 0 1 13728255.00 60502610.00 L 13728255.00 60817570.00 A 241812.08 241812.08 0 0 1 13244633.00 60817570.00  zM 16253993.00 59634389.00 L 16225801.40 59606197.40 L 16193137.00 59586365.34 L 16160472.60 59606197.40 L 16132281.00 59634389.00 A 191636.82 191636.82 0 0 1 15919347.00 59634389.00 L 15891155.90 59606197.90 L 15858491.50 59586365.20 L 15825827.10 59606197.90 L 15797636.00 59634389.00 A 191636.82 191636.82 0 0 1 15584702.00 59634389.00 L 15556510.40 59606197.40 L 15523846.00 59586365.34 L 15491181.60 59606197.40 L 15462990.00 59634389.00 A 191636.82 191636.82 0 0 1 15250056.00 59634389.00 L 15221864.40 59606197.40 L 15189200.00 59586365.34 L 15156535.60 59606197.40 L 15128344.00 59634389.00 A 191636.82 191636.82 0 0 1 14915410.00 59634389.00 L 14887218.40 59606197.40 L 14854554.00 59586365.34 L 14821889.60 59606197.40 L 14793698.00 59634389.00 A 191636.82 191636.82 0 0 1 14580764.00 59634389.00 L 14552572.90 59606197.90 L 14519908.50 59586365.20 L 14487244.10 59606197.90 L 14459053.00 59634389.00 A 191636.82 191636.82 0 0 1 14246119.00 59634389.00 L 14217927.40 59606197.40 L 14185263.00 59586365.34 L 14152598.60 59606197.40 L 14124407.00 59634389.00 A 191636.82 191636.82 0 1 1 14124407.00 59315711.00 L 14152598.60 59343902.60 L 14185263.00 59363734.66 L 14217927.40 59343902.60 L 14246119.00 59315711.00 A 191636.82 191636.82 0 0 1 14459053.00 59315711.00 L 14487244.10 59343902.10 L 14519908.50 59363734.80 L 14552572.90 59343902.10 L 14580764.00 59315711.00 A 191636.82 191636.82 0 0 1 14793698.00 59315711.00 L 14821889.60 59343902.60 L 14854554.00 59363734.66 L 14887218.40 59343902.60 L 14915410.00 59315711.00 A 191636.82 191636.82 0 0 1 15128344.00 59315711.00 L 15156535.60 59343902.60 L 15189200.00 59363734.66 L 15221864.40 59343902.60 L 15250056.00 59315711.00 A 191636.82 191636.82 0 0 1 15462990.00 59315711.00 L 15491181.60 59343902.60 L 15523846.00 59363734.66 L 15556510.40 59343902.60 L 15584702.00 59315711.00 A 191636.82 191636.82 0 0 1 15797636.00 59315711.00 L 15825827.10 59343902.10 L 15858491.50 59363734.80 L 15891155.90 59343902.10 L 15919347.00 59315711.00 A 191636.82 191636.82 0 0 1 16132281.00 59315711.00 L 16160472.60 59343902.60 L 16193137.00 59363734.66 L 16225801.40 59343902.60 L 16253993.00 59315711.00 A 191636.82 191636.82 0 1 1 16253993.00 59634389.00  zM 16650145.00 59624657.00 L 16650145.00 59034105.00 A 241812.08 241812.08 0 0 1 17133767.00 59034105.00 L 17133767.00 59624657.00 A 241812.08 241812.08 0 0 1 16650145.00 59624657.00  zM 18008600.00 59029602.96 m -188621.50 0 a 188621.50 188621.50 0 1 1 377243.00 0a 188621.50 188621.50 0 1 1 -377243.00 0M 16650145.00 60817570.00 L 16650145.00 60502610.00 A 241812.08 241812.08 0 0 1 17133767.00 60502610.00 L 17133767.00 60817570.00 A 241812.08 241812.08 0 0 1 16650145.00 60817570.00  zM 25206696.00 35105975.48 m -201667.62 0 a 201667.62 201667.62 0 1 1 403335.25 0a 201667.62 201667.62 0 1 1 -403335.25 0M 26035000.00 34594802.96 m -188621.50 0 a 188621.50 188621.50 0 1 1 377243.00 0a 188621.50 188621.50 0 1 1 -377243.00 0M 25706696.00 35105975.48 m -201667.62 0 a 201667.62 201667.62 0 1 1 403335.25 0a 201667.62 201667.62 0 1 1 -403335.25 0M 25621616.00 35617786.96 m -188621.50 0 a 188621.50 188621.50 0 1 1 377243.00 0a 188621.50 188621.50 0 1 1 -377243.00 0M 26206696.00 35105975.48 m -201667.62 0 a 201667.62 201667.62 0 1 1 403335.25 0a 201667.62 201667.62 0 1 1 -403335.25 0M 27051000.00 34594802.96 m -188621.50 0 a 188621.50 188621.50 0 1 1 377243.00 0a 188621.50 188621.50 0 1 1 -377243.00 0M 26706696.00 35105975.48 m -201667.62 0 a 201667.62 201667.62 0 1 1 403335.25 0a 201667.62 201667.62 0 1 1 -403335.25 0M 26517600.00 35610802.96 m -188621.50 0 a 188621.50 188621.50 0 1 1 377243.00 0a 188621.50 188621.50 0 1 1 -377243.00 0M 27206696.00 35105975.48 m -201667.62 0 a 201667.62 201667.62 0 1 1 403335.25 0a 201667.62 201667.62 0 1 1 -403335.25 0M 28092400.00 34594802.96 m -188621.50 0 a 188621.50 188621.50 0 1 1 377243.00 0a 188621.50 188621.50 0 1 1 -377243.00 0M 27706696.00 35105975.48 m -201667.62 0 a 201667.62 201667.62 0 1 1 403335.25 0a 201667.62 201667.62 0 1 1 -403335.25 0M 27584400.00 35610802.96 m -188621.50 0 a 188621.50 188621.50 0 1 1 377243.00 0a 188621.50 188621.50 0 1 1 -377243.00 0M 28206696.00 35105975.48 m -201667.62 0 a 201667.62 201667.62 0 1 1 403335.25 0a 201667.62 201667.62 0 1 1 -403335.25 0M 28727400.00 35610802.96 m -188621.50 0 a 188621.50 188621.50 0 1 1 377243.00 0a 188621.50 188621.50 0 1 1 -377243.00 0M 32143704.00 35105975.48 m -201667.62 0 a 201667.62 201667.62 0 1 1 403335.25 0a 201667.62 201667.62 0 1 1 -403335.25 0M 32766000.00 34594802.96 m -188621.50 0 a 188621.50 188621.50 0 1 1 377243.00 0a 188621.50 188621.50 0 1 1 -377243.00 0M 33143704.00 35105975.48 m -201667.62 0 a 201667.62 201667.62 0 1 1 403335.25 0a 201667.62 201667.62 0 1 1 -403335.25 0M 32643704.00 35105975.48 m -201667.62 0 a 201667.62 201667.62 0 1 1 403335.25 0a 201667.62 201667.62 0 1 1 -403335.25 0M 33274000.00 35610802.96 m -188621.50 0 a 188621.50 188621.50 0 1 1 377243.00 0a 188621.50 188621.50 0 1 1 -377243.00 0M 33643704.00 35105975.48 m -201667.62 0 a 201667.62 201667.62 0 1 1 403335.25 0a 201667.62 201667.62 0 1 1 -403335.25 0M 34143704.00 35105975.48 m -201667.62 0 a 201667.62 201667.62 0 1 1 403335.25 0a 201667.62 201667.62 0 1 1 -403335.25 0M 34643704.00 35105975.48 m -201667.62 0 a 201667.62 201667.62 0 1 1 403335.25 0a 201667.62 201667.62 0 1 1 -403335.25 0M 35143704.00 35105975.48 m -201667.62 0 a 201667.62 201667.62 0 1 1 403335.25 0a 201667.62 201667.62 0 1 1 -403335.25 0M 35643704.00 35105975.48 m -201667.62 0 a 201667.62 201667.62 0 1 1 403335.25 0a 201667.62 201667.62 0 1 1 -403335.25 0M 36143704.00 35105975.48 m -201667.62 0 a 201667.62 201667.62 0 1 1 403335.25 0a 201667.62 201667.62 0 1 1 -403335.25 0M 36643704.00 35105975.48 m -201667.62 0 a 201667.62 201667.62 0 1 1 403335.25 0a 201667.62 201667.62 0 1 1 -403335.25 0M 37143704.00 35105975.48 m -201667.62 0 a 201667.62 201667.62 0 1 1 403335.25 0a 201667.62 201667.62 0 1 1 -403335.25 0M 37643704.00 35105975.48 m -201667.62 0 a 201667.62 201667.62 0 1 1 403335.25 0a 201667.62 201667.62 0 1 1 -403335.25 0M 38143704.00 35105975.48 m -201667.62 0 a 201667.62 201667.62 0 1 1 403335.25 0a 201667.62 201667.62 0 1 1 -403335.25 0M 38643704.00 35105975.48 m -201667.62 0 a 201667.62 201667.62 0 1 1 403335.25 0a 201667.62 201667.62 0 1 1 -403335.25 0M 39143704.00 35105975.48 m -201667.62 0 a 201667.62 201667.62 0 1 1 403335.25 0a 201667.62 201667.62 0 1 1 -403335.25 0M 39643704.00 35105975.48 m -201667.62 0 a 201667.62 201667.62 0 1 1 403335.25 0a 201667.62 201667.62 0 1 1 -403335.25 0M 40143704.00 35105975.48 m -201667.62 0 a 201667.62 201667.62 0 1 1 403335.25 0a 201667.62 201667.62 0 1 1 -403335.25 0M 39998016.00 35617786.96 m -188621.50 0 a 188621.50 188621.50 0 1 1 377243.00 0a 188621.50 188621.50 0 1 1 -377243.00 0M 40643704.00 35105975.48 m -201667.62 0 a 201667.62 201667.62 0 1 1 403335.25 0a 201667.62 201667.62 0 1 1 -403335.25 0M 41122600.00 35636202.96 m -188621.50 0 a 188621.50 188621.50 0 1 1 377243.00 0a 188621.50 188621.50 0 1 1 -377243.00 0M 41143704.00 35105975.48 m -201667.62 0 a 201667.62 201667.62 0 1 1 403335.25 0a 201667.62 201667.62 0 1 1 -403335.25 0M 41643704.00 35105975.48 m -201667.62 0 a 201667.62 201667.62 0 1 1 403335.25 0a 201667.62 201667.62 0 1 1 -403335.25 0M 48220200.00 35220136.99 m -653707.74 0 a 653707.74 653707.74 0 1 1 1307415.48 0a 653707.74 653707.74 0 1 1 -1307415.48 0M 48220200.00 37720142.86 m -263040.40 0 a 263040.40 263040.40 0 1 1 526080.80 0a 263040.40 263040.40 0 1 1 -526080.80 0M 48220200.00 38720142.86 m -263040.40 0 a 263040.40 263040.40 0 1 1 526080.80 0a 263040.40 263040.40 0 1 1 -526080.80 0M 48220200.00 39720142.86 m -263040.40 0 a 263040.40 263040.40 0 1 1 526080.80 0a 263040.40 263040.40 0 1 1 -526080.80 0M 48220200.00 40720142.86 m -263040.40 0 a 263040.40 263040.40 0 1 1 526080.80 0a 263040.40 263040.40 0 1 1 -526080.80 0M 48220200.00 41720142.86 m -263040.40 0 a 263040.40 263040.40 0 1 1 526080.80 0a 263040.40 263040.40 0 1 1 -526080.80 0M 48220200.00 42720142.86 m -263040.40 0 a 263040.40 263040.40 0 1 1 526080.80 0a 263040.40 263040.40 0 1 1 -526080.80 0M 48220200.00 43720142.86 m -263040.40 0 a 263040.40 263040.40 0 1 1 526080.80 0a 263040.40 263040.40 0 1 1 -526080.80 0M 48220200.00 44720142.86 m -263040.40 0 a 263040.40 263040.40 0 1 1 526080.80 0a 263040.40 263040.40 0 1 1 -526080.80 0M 48220200.00 45720142.86 m -263040.40 0 a 263040.40 263040.40 0 1 1 526080.80 0a 263040.40 263040.40 0 1 1 -526080.80 0M 48220200.00 46720142.86 m -263040.40 0 a 263040.40 263040.40 0 1 1 526080.80 0a 263040.40 263040.40 0 1 1 -526080.80 0M 48220200.00 47720142.86 m -263040.40 0 a 263040.40 263040.40 0 1 1 526080.80 0a 263040.40 263040.40 0 1 1 -526080.80 0M 48220200.00 48720142.86 m -263040.40 0 a 263040.40 263040.40 0 1 1 526080.80 0a 263040.40 263040.40 0 1 1 -526080.80 0M 48220200.00 49720142.86 m -263040.40 0 a 263040.40 263040.40 0 1 1 526080.80 0a 263040.40 263040.40 0 1 1 -526080.80 0M 48220200.00 50720142.86 m -263040.40 0 a 263040.40 263040.40 0 1 1 526080.80 0a 263040.40 263040.40 0 1 1 -526080.80 0M 48220200.00 51720142.86 m -263040.40 0 a 263040.40 263040.40 0 1 1 526080.80 0a 263040.40 263040.40 0 1 1 -526080.80 0M 48220200.00 52720142.86 m -263040.40 0 a 263040.40 263040.40 0 1 1 526080.80 0a 263040.40 263040.40 0 1 1 -526080.80 0M 48220200.00 53720142.86 m -263040.40 0 a 263040.40 263040.40 0 1 1 526080.80 0a 263040.40 263040.40 0 1 1 -526080.80 0M 48220200.00 54720142.86 m -263040.40 0 a 263040.40 263040.40 0 1 1 526080.80 0a 263040.40 263040.40 0 1 1 -526080.80 0M 48220200.00 55720142.86 m -263040.40 0 a 263040.40 263040.40 0 1 1 526080.80 0a 263040.40 263040.40 0 1 1 -526080.80 0M 48220200.00 56720142.86 m -263040.40 0 a 263040.40 263040.40 0 1 1 526080.80 0a 263040.40 263040.40 0 1 1 -526080.80 0M 48220200.00 59220136.99 m -653707.74 0 a 653707.74 653707.74 0 1 1 1307415.48 0a 653707.74 653707.74 0 1 1 -1307415.48 0"/>
<path id="N" d="M 16481494.00 33016894.00 L 16490681.28 33010755.35 L 16475514.02 32960755.00 L 14564205.00 32960755.00 L 14076914.67 33448045.33 L 14105237.46 33490433.57 L 14144999.00 33473964.00 A 732822.99 732822.99 0 0 1 15087016.00 34247058.00 L 15063774.21 34363903.04 L 15109854.81 34388533.61 L 16481494.00 33016894.00  z"/>
<path id="N" d="M 32215534.75 32672397.38 L 32096220.00 32553082.07 L 32096221.00 31864300.00 L 32080367.29 31826030.29 L 31864469.00 31610131.00 L 31826197.59 31594280.00 L 20408775.14 31594280.00 L 20384720.00 31558280.00 A 127441.40 127441.40 0 1 0 20384720.00 31738520.00 L 20408775.14 31702520.00 L 31803782.07 31702520.00 L 31987980.00 31886717.07 L 31987979.00 32575500.00 L 32003831.00 32613769.00 L 32138997.38 32748934.75 L 32130551.00 32791400.00 A 127441.40 127441.40 0 1 0 32215534.75 32672397.38  z"/>
<path id="N" d="M 12996099.87 39268393.87 m -127457.60 0 a 127457.60 127457.60 0 1 1 254915.19 0a 127457.60 127457.60 0 1 1 -254915.19 0"/>
<path id="N" d="M 39998009.87 35617777.87 m -127457.60 0 a 127457.60 127457.60 0 1 1 254915.19 0a 127457.60 127457.60 0 1 1 -254915.19 0"/>
<path id="N" d="M 40639993.87 33451793.87 m -127457.60 0 a 127457.60 127457.60 0 1 1 254915.19 0a 127457.60 127457.60 0 1 1 -254915.19 0"/>
<path id="N" d="M 17072592.00 59624657.00 L 17072592.00 59034105.00 A 180637.35 180637.35 0 0 0 16711320.00 59034105.00 L 16711320.00 59624657.00 A 180637.35 180637.35 0 0 0 17072592.00 59624657.00  zM 16771532.00 59624657.00 L 16771532.00 59034105.00 A 120431.73 120431.73 0 1 1 17012380.00 59034105.00 L 17012380.00 59624657.00 A 120431.73 120431.73 0 1 1 16771532.00 59624657.00  z"/>
<path id="N" d="M 13667080.00 59624657.00 L 13667080.00 59034105.00 A 180637.35 180637.35 0 0 0 13305808.00 59034105.00 L 13305808.00 59624657.00 A 180637.35 180637.35 0 0 0 13667080.00 59624657.00  zM 13366020.00 59624657.00 L 13366020.00 59034105.00 A 120431.73 120431.73 0 1 1 13606868.00 59034105.00 L 13606868.00 59624657.00 A 120431.73 120431.73 0 1 1 13366020.00 59624657.00  z"/>
<path id="N" d="M 13667080.00 60817570.00 L 13667080.00 60502610.00 A 180637.35 180637.35 0 0 0 13305808.00 60502610.00 L 13305808.00 60817570.00 A 180637.35 180637.35 0 1 0 13667080.00 60817570.00  zM 13366020.00 60817570.00 L 13366020.00 60502610.00 A 120431.73 120431.73 0 1 1 13606868.00 60502610.00 L 13606868.00 60817570.00 A 120431.73 120431.73 0 1 1 13366020.00 60817570.00  z"/>
<path id="N" d="M 17072592.00 60817570.00 L 17072592.00 60502610.00 A 180637.35 180637.35 0 0 0 16711320.00 60502610.00 L 16711320.00 60817570.00 A 180637.35 180637.35 0 1 0 17072592.00 60817570.00  zM 16771532.00 60817570.00 L 16771532.00 60502610.00 A 120431.73 120431.73 0 1 1 17012380.00 60502610.00 L 17012380.00 60817570.00 A 120431.73 120431.73 0 1 1 16771532.00 60817570.00  z"/>
<path id="N" d="M 15036791.06 17195791.06 m -240860.29 0 a 240860.29 240860.29 0 1 1 481720.58 0a 240860.29 240860.29 0 1 1 -481720.58 0M 15036802.38 17195794.09 m -140500.91 0 a 140500.91 140500.91 0 1 1 281001.82 0a 140500.91 140500.91 0 1 1 -281001.82 0"/>
<path id="N" d="M 18313389.06 17195791.06 m -240860.29 0 a 240860.29 240860.29 0 1 1 481720.58 0a 240860.29 240860.29 0 1 1 -481720.58 0M 18313400.38 17195794.09 m -140500.91 0 a 140500.91 140500.91 0 1 1 281001.82 0a 140500.91 140500.91 0 1 1 -281001.82 0"/>
<path id="N" d="M 16360460.38 59475050.38 m -130459.26 0 a 130459.26 130459.26 0 1 1 260918.51 0a 130459.26 130459.26 0 1 1 -260918.51 0M 16360459.76 59475048.92 m -80284.08 0 a 80284.08 80284.08 0 1 1 160568.17 0a 80284.08 80284.08 0 1 1 -160568.17 0"/>
<path id="N" d="M 14017940.38 58943554.38 m -130459.26 0 a 130459.26 130459.26 0 1 1 260918.51 0a 130459.26 130459.26 0 1 1 -260918.51 0M 14017939.76 58943552.92 m -80284.08 0 a 80284.08 80284.08 0 1 1 160568.17 0a 80284.08 80284.08 0 1 1 -160568.17 0"/>
<path id="N" d="M 14017940.38 59475050.38 m -130459.26 0 a 130459.26 130459.26 0 1 1 260918.51 0a 130459.26 130459.26 0 1 1 -260918.51 0M 14017939.76 59475048.92 m -80284.08 0 a 80284.08 80284.08 0 1 1 160568.17 0a 80284.08 80284.08 0 1 1 -160568.17 0"/>
<path id="N" d="M 16360460.38 58943554.38 m -130459.26 0 a 130459.26 130459.26 0 1 1 260918.51 0a 130459.26 130459.26 0 1 1 -260918.51 0M 16360459.76 58943552.92 m -80284.08 0 a 80284.08 80284.08 0 1 1 160568.17 0a 80284.08 80284.08 0 1 1 -160568.17 0"/>
<path id="N" d="M 22815543.87 22809193.87 m -127457.60 0 a 127457.60 127457.60 0 1 1 254915.19 0a 127457.60 127457.60 0 1 1 -254915.19 0"/>
<path id="N" d="M 18897593.87 21437593.87 m -127457.60 0 a 127457.60 127457.60 0 1 1 254915.19 0a 127457.60 127457.60 0 1 1 -254915.19 0"/>
<path id="N" d="M 24314143.87 24434793.87 m -127457.60 0 a 127457.60 127457.60 0 1 1 254915.19 0a 127457.60 127457.60 0 1 1 -254915.19 0"/>
<path id="N" d="M 21189943.87 24485593.87 m -127457.60 0 a 127457.60 127457.60 0 1 1 254915.19 0a 127457.60 127457.60 0 1 1 -254915.19 0"/>
<path id="N" d="M 21545543.87 26009593.87 m -127457.60 0 a 127457.60 127457.60 0 1 1 254915.19 0a 127457.60 127457.60 0 1 1 -254915.19 0"/>
<path id="N" d="M 19735793.87 22199593.87 m -127457.60 0 a 127457.60 127457.60 0 1 1 254915.19 0a 127457.60 127457.60 0 1 1 -254915.19 0"/>
<path id="N" d="M 21539193.87 26669993.87 m -127457.60 0 a 127457.60 127457.60 0 1 1 254915.19 0a 127457.60 127457.60 0 1 1 -254915.19 0"/>
<path id="N" d="M 20243793.87 18973793.87 m -127457.60 0 a 127457.60 127457.60 0 1 1 254915.19 0a 127457.60 127457.60 0 1 1 -254915.19 0"/>
<path id="N" d="M 19913593.87 18110193.87 m -127457.60 0 a 127457.60 127457.60 0 1 1 254915.19 0a 127457.60 127457.60 0 1 1 -254915.19 0"/>
<path id="N" d="M 22129743.87 20675593.87 m -127457.60 0 a 127457.60 127457.60 0 1 1 254915.19 0a 127457.60 127457.60 0 1 1 -254915.19 0"/>
<path id="N" d="M 41478193.87 16382993.87 m -127457.60 0 a 127457.60 127457.60 0 1 1 254915.19 0a 127457.60 127457.60 0 1 1 -254915.19 0"/>
<path id="N" d="M 22188998.87 18863738.87 m -127457.60 0 a 127457.60 127457.60 0 1 1 254915.19 0a 127457.60 127457.60 0 1 1 -254915.19 0"/>
<path id="N" d="M 21513793.87 27939993.87 m -127457.60 0 a 127457.60 127457.60 0 1 1 254915.19 0a 127457.60 127457.60 0 1 1 -254915.19 0"/>
<path id="N" d="M 29692593.87 30556193.87 m -127457.60 0 a 127457.60 127457.60 0 1 1 254915.19 0a 127457.60 127457.60 0 1 1 -254915.19 0"/>
<path id="N" d="M 43230793.87 30556193.87 m -127457.60 0 a 127457.60 127457.60 0 1 1 254915.19 0a 127457.60 127457.60 0 1 1 -254915.19 0"/>
<path id="N" d="M 39725593.87 30556193.87 m -127457.60 0 a 127457.60 127457.60 0 1 1 254915.19 0a 127457.60 127457.60 0 1 1 -254915.19 0"/>
<path id="N" d="M 41503593.87 30556193.87 m -127457.60 0 a 127457.60 127457.60 0 1 1 254915.19 0a 127457.60 127457.60 0 1 1 -254915.19 0"/>
<path id="N" d="M 31394393.87 30556193.87 m -127457.60 0 a 127457.60 127457.60 0 1 1 254915.19 0a 127457.60 127457.60 0 1 1 -254915.19 0"/>
<path id="N" d="M 22555193.87 35636193.87 m -127457.60 0 a 127457.60 127457.60 0 1 1 254915.19 0a 127457.60 127457.60 0 1 1 -254915.19 0"/>
<path id="N" d="M 21361393.87 34315393.87 m -127457.60 0 a 127457.60 127457.60 0 1 1 254915.19 0a 127457.60 127457.60 0 1 1 -254915.19 0"/>
<path id="N" d="M 21545543.87 27304993.87 m -127457.60 0 a 127457.60 127457.60 0 1 1 254915.19 0a 127457.60 127457.60 0 1 1 -254915.19 0"/>
<path id="N" d="M 11499287.87 38245487.87 m -127457.60 0 a 127457.60 127457.60 0 1 1 254915.19 0a 127457.60 127457.60 0 1 1 -254915.19 0"/>
<path id="N" d="M 23063193.87 34594793.87 m -127457.60 0 a 127457.60 127457.60 0 1 1 254915.19 0a 127457.60 127457.60 0 1 1 -254915.19 0"/>
<path id="N" d="M 32969193.87 30581593.87 m -127457.60 0 a 127457.60 127457.60 0 1 1 254915.19 0a 127457.60 127457.60 0 1 1 -254915.19 0"/>
<path id="N" d="M 43205393.87 16357593.87 m -127457.60 0 a 127457.60 127457.60 0 1 1 254915.19 0a 127457.60 127457.60 0 1 1 -254915.19 0"/>
<path id="N" d="M 21026150.87 21248400.87 m -127457.60 0 a 127457.60 127457.60 0 1 1 254915.19 0a 127457.60 127457.60 0 1 1 -254915.19 0"/>
<path id="N" d="M 21691593.87 24815793.87 m -127457.60 0 a 127457.60 127457.60 0 1 1 254915.19 0a 127457.60 127457.60 0 1 1 -254915.19 0"/>
<path id="N" d="M 22713943.87 24612593.87 m -127457.60 0 a 127457.60 127457.60 0 1 1 254915.19 0a 127457.60 127457.60 0 1 1 -254915.19 0"/>
<path id="N" d="M 39700193.87 16357593.87 m -127457.60 0 a 127457.60 127457.60 0 1 1 254915.19 0a 127457.60 127457.60 0 1 1 -254915.19 0"/>
<path id="N" d="M 33019993.87 16357593.87 m -127457.60 0 a 127457.60 127457.60 0 1 1 254915.19 0a 127457.60 127457.60 0 1 1 -254915.19 0"/>
<path id="N" d="M 34493193.87 16382993.87 m -127457.60 0 a 127457.60 127457.60 0 1 1 254915.19 0a 127457.60 127457.60 0 1 1 -254915.19 0"/>
<path id="N" d="M 14684520.00 36131624.86 L 14684520.00 35912618.00 L 14891269.00 35705869.00 L 14907120.00 35667597.59 L 14907120.00 35663747.88 L 15013077.12 35557790.00 L 15016930.00 35557791.00 L 15055199.00 35541939.00 L 17051354.01 33545783.00 L 30862927.18 33545783.00 L 30934213.00 33617069.00 L 30972482.00 33632920.00 L 31280224.86 33632920.00 L 31304280.00 33668920.00 A 127441.40 127441.40 0 1 0 31304280.00 33488680.00 L 31280224.86 33524680.00 L 30994899.18 33524680.00 L 30923614.00 33453394.00 L 30885342.59 33437543.00 L 17028937.00 33437542.00 L 16990667.29 33453395.71 L 14994512.01 35449550.00 L 14990660.00 35449549.00 L 14952390.29 35465402.71 L 14814731.00 35603061.00 L 14798880.00 35641332.41 L 14798880.00 35645182.00 L 14592131.00 35851931.00 L 14576280.00 35890202.41 L 14576280.00 36131624.86 L 14540280.00 36155680.00 A 127441.40 127441.40 0 1 0 14684520.00 36131624.86  z"/>
<path id="N" d="M 16025814.38 58943554.38 m -130459.26 0 a 130459.26 130459.26 0 1 1 260918.51 0a 130459.26 130459.26 0 1 1 -260918.51 0M 16025813.76 58943552.92 m -80284.08 0 a 80284.08 80284.08 0 1 1 160568.17 0a 80284.08 80284.08 0 1 1 -160568.17 0"/>
<path id="N" d="M 16025814.38 59475050.38 m -130459.26 0 a 130459.26 130459.26 0 1 1 260918.51 0a 130459.26 130459.26 0 1 1 -260918.51 0M 16025813.76 59475048.92 m -80284.08 0 a 80284.08 80284.08 0 1 1 160568.17 0a 80284.08 80284.08 0 1 1 -160568.17 0"/>
<path id="N" d="M 14352586.38 59475050.38 m -130459.26 0 a 130459.26 130459.26 0 1 1 260918.51 0a 130459.26 130459.26 0 1 1 -260918.51 0M 14352585.76 59475048.92 m -80284.08 0 a 80284.08 80284.08 0 1 1 160568.17 0a 80284.08 80284.08 0 1 1 -160568.17 0"/>
<path id="N" d="M 14352586.38 58943554.38 m -130459.26 0 a 130459.26 130459.26 0 1 1 260918.51 0a 130459.26 130459.26 0 1 1 -260918.51 0M 14352585.76 58943552.92 m -80284.08 0 a 80284.08 80284.08 0 1 1 160568.17 0a 80284.08 80284.08 0 1 1 -160568.17 0"/>
<path id="N" d="M 15747993.87 58242193.87 m -127457.60 0 a 127457.60 127457.60 0 1 1 254915.19 0a 127457.60 127457.60 0 1 1 -254915.19 0"/>
<path id="N" d="M 20548593.87 35636193.87 m -127457.60 0 a 127457.60 127457.60 0 1 1 254915.19 0a 127457.60 127457.60 0 1 1 -254915.19 0"/>
<path id="N" d="M 38125393.87 24587193.87 m -127457.60 0 a 127457.60 127457.60 0 1 1 254915.19 0a 127457.60 127457.60 0 1 1 -254915.19 0"/>
<path id="N" d="M 13663173.00 34959652.00 L 13639820.00 34955007.06 L 13639820.00 34951088.00 L 13632553.00 34933543.31 L 13632553.00 33810333.00 L 14540166.00 32902720.00 L 30293901.33 32902720.00 L 30313680.00 32932320.00 A 127441.40 127441.40 0 1 0 30285842.56 32794480.00 L 14517748.00 32794479.00 L 14479479.00 32810331.00 L 13540164.00 33749646.00 L 13524313.00 33787917.41 L 13524312.00 34943821.00 L 13531580.00 34961366.99 L 13531580.00 34982402.15 L 13524280.00 34987280.00 A 127441.40 127441.40 0 1 0 13663173.00 34959652.00  z"/>
<path id="N" d="M 40157393.87 27508193.87 m -127457.60 0 a 127457.60 127457.60 0 1 1 254915.19 0a 127457.60 127457.60 0 1 1 -254915.19 0"/>
<path id="N" d="M 28727393.87 35610793.87 m -127457.60 0 a 127457.60 127457.60 0 1 1 254915.19 0a 127457.60 127457.60 0 1 1 -254915.19 0"/>
<path id="N" d="M 30175193.87 25473593.87 m -127457.60 0 a 127457.60 127457.60 0 1 1 254915.19 0a 127457.60 127457.60 0 1 1 -254915.19 0"/>
<path id="N" d="M 24104593.87 34620193.87 m -127457.60 0 a 127457.60 127457.60 0 1 1 254915.19 0a 127457.60 127457.60 0 1 1 -254915.19 0"/>
<path id="N" d="M 40512993.87 34569393.87 m -127457.60 0 a 127457.60 127457.60 0 1 1 254915.19 0a 127457.60 127457.60 0 1 1 -254915.19 0"/>
<path id="N" d="M 40512993.87 33781993.87 m -127457.60 0 a 127457.60 127457.60 0 1 1 254915.19 0a 127457.60 127457.60 0 1 1 -254915.19 0"/>
<path id="N" d="M 14317602.72 35415935.25 L 16583217.01 33150320.00 L 30642822.47 33150320.00 L 30659921.00 33175909.00 A 127441.40 127441.40 0 1 0 30632293.00 33037016.00 L 30631285.77 33042080.00 L 16560800.00 33042080.00 L 16522530.29 33057932.71 L 14241064.75 35339397.28 L 14198600.00 35330951.00 A 127441.40 127441.40 0 1 0 14317602.72 35415935.25  z"/>
<path id="N" d="M 42259193.87 25780993.87 m -127457.60 0 a 127457.60 127457.60 0 1 1 254915.19 0a 127457.60 127457.60 0 1 1 -254915.19 0"/>
<path id="N" d="M 24612593.87 35585393.87 m -127457.60 0 a 127457.60 127457.60 0 1 1 254915.19 0a 127457.60 127457.60 0 1 1 -254915.19 0"/>
<path id="N" d="M 36093393.87 25069793.87 m -127457.60 0 a 127457.60 127457.60 0 1 1 254915.19 0a 127457.60 127457.60 0 1 1 -254915.19 0"/>
<path id="N" d="M 21539193.87 35636193.87 m -127457.60 0 a 127457.60 127457.60 0 1 1 254915.19 0a 127457.60 127457.60 0 1 1 -254915.19 0"/>
<path id="N" d="M 22825075.00 15808325.00 L 22234525.00 15808325.00 L 22234525.00 16398875.00 L 22825075.00 16398875.00 L 22825075.00 15808325.00  zM 22529800.44 16103598.65 m -180637.35 0 a 180637.35 180637.35 0 1 1 361274.69 0a 180637.35 180637.35 0 1 1 -361274.69 0"/>
<path id="N" d="M 23799793.87 24383993.87 m -127457.60 0 a 127457.60 127457.60 0 1 1 254915.19 0a 127457.60 127457.60 0 1 1 -254915.19 0"/>
<path id="N" d="M 33273993.87 35610793.87 m -127457.60 0 a 127457.60 127457.60 0 1 1 254915.19 0a 127457.60 127457.60 0 1 1 -254915.19 0"/>
<path id="N" d="M 32765993.87 34594793.87 m -127457.60 0 a 127457.60 127457.60 0 1 1 254915.19 0a 127457.60 127457.60 0 1 1 -254915.19 0"/>
<path id="N" d="M 21697943.87 25323793.87 m -127457.60 0 a 127457.60 127457.60 0 1 1 254915.19 0a 127457.60 127457.60 0 1 1 -254915.19 0"/>
<path id="N" d="M 42849793.87 25349193.87 m -127457.60 0 a 127457.60 127457.60 0 1 1 254915.19 0a 127457.60 127457.60 0 1 1 -254915.19 0"/>
<path id="N" d="M 23723593.87 35610793.87 m -127457.60 0 a 127457.60 127457.60 0 1 1 254915.19 0a 127457.60 127457.60 0 1 1 -254915.19 0"/>
<path id="N" d="M 36423593.87 28168593.87 m -127457.60 0 a 127457.60 127457.60 0 1 1 254915.19 0a 127457.60 127457.60 0 1 1 -254915.19 0"/>
<path id="N" d="M 29546593.87 28111393.87 m -127457.60 0 a 127457.60 127457.60 0 1 1 254915.19 0a 127457.60 127457.60 0 1 1 -254915.19 0"/>
<path id="N" d="M 15691169.38 58943554.38 m -130459.26 0 a 130459.26 130459.26 0 1 1 260918.51 0a 130459.26 130459.26 0 1 1 -260918.51 0M 15691168.76 58943552.92 m -80284.08 0 a 80284.08 80284.08 0 1 1 160568.17 0a 80284.08 80284.08 0 1 1 -160568.17 0"/>
<path id="N" d="M 14687231.38 59475050.38 m -130459.26 0 a 130459.26 130459.26 0 1 1 260918.51 0a 130459.26 130459.26 0 1 1 -260918.51 0M 14687230.76 59475048.92 m -80284.08 0 a 80284.08 80284.08 0 1 1 160568.17 0a 80284.08 80284.08 0 1 1 -160568.17 0"/>
<path id="N" d="M 27584393.87 35610793.87 m -127457.60 0 a 127457.60 127457.60 0 1 1 254915.19 0a 127457.60 127457.60 0 1 1 -254915.19 0"/>
<path id="N" d="M 43052993.87 26974793.87 m -127457.60 0 a 127457.60 127457.60 0 1 1 254915.19 0a 127457.60 127457.60 0 1 1 -254915.19 0"/>
<path id="N" d="M 41655993.87 28574993.87 m -127457.60 0 a 127457.60 127457.60 0 1 1 254915.19 0a 127457.60 127457.60 0 1 1 -254915.19 0"/>
<path id="N" d="M 35432993.87 33705793.87 m -127457.60 0 a 127457.60 127457.60 0 1 1 254915.19 0a 127457.60 127457.60 0 1 1 -254915.19 0"/>
<path id="N" d="M 21529797.35 16103593.57 m -297829.90 0 a 297829.90 297829.90 0 1 1 595659.80 0a 297829.90 297829.90 0 1 1 -595659.80 0M 21529800.44 16103598.65 m -180637.35 0 a 180637.35 180637.35 0 1 1 361274.69 0a 180637.35 180637.35 0 1 1 -361274.69 0"/>
<path id="N" d="M 19337020.00 16959580.00 L 18864580.00 16959580.00 L 18864580.00 17432020.00 L 19337020.00 17432020.00 L 19337020.00 16959580.00  zM 19100802.38 17195794.09 m -140500.91 0 a 140500.91 140500.91 0 1 1 281001.82 0a 140500.91 140500.91 0 1 1 -281001.82 0"/>
<path id="N" d="M 16060422.00 16959580.00 L 15587982.00 16959580.00 L 15587982.00 17432020.00 L 16060422.00 17432020.00 L 16060422.00 16959580.00  zM 15824204.38 17195794.09 m -140500.91 0 a 140500.91 140500.91 0 1 1 281001.82 0a 140500.91 140500.91 0 1 1 -281001.82 0"/>
<path id="N" d="M 15054202.72 35136535.28 L 16822914.00 33367824.00 L 17940382.00 33367824.00 L 17980296.00 33385320.00 L 30907540.00 33385321.00 L 30945809.00 33369469.00 L 31009258.00 33306020.00 L 31121602.15 33306020.00 L 31126480.00 33313320.00 A 127441.40 127441.40 0 1 0 31098852.00 33174427.00 L 31094207.06 33197780.00 L 30986840.00 33197780.00 L 30948571.00 33213631.00 L 30885122.00 33277080.00 L 18002714.00 33277080.00 L 17962797.59 33259584.00 L 16800496.00 33259583.00 L 16762227.00 33275435.00 L 14977664.72 35059997.28 L 14935200.00 35051551.00 A 127441.40 127441.40 0 1 0 15054202.72 35136535.28  z"/>
<path id="N" d="M 39471593.87 28752793.87 m -127457.60 0 a 127457.60 127457.60 0 1 1 254915.19 0a 127457.60 127457.60 0 1 1 -254915.19 0"/>
<path id="N" d="M 39801793.87 32638993.87 m -127457.60 0 a 127457.60 127457.60 0 1 1 254915.19 0a 127457.60 127457.60 0 1 1 -254915.19 0"/>
<path id="N" d="M 19557993.87 35610793.87 m -127457.60 0 a 127457.60 127457.60 0 1 1 254915.19 0a 127457.60 127457.60 0 1 1 -254915.19 0"/>
<path id="N" d="M 42494193.87 24079193.87 m -127457.60 0 a 127457.60 127457.60 0 1 1 254915.19 0a 127457.60 127457.60 0 1 1 -254915.19 0"/>
<path id="N" d="M 35458393.87 27203393.87 m -127457.60 0 a 127457.60 127457.60 0 1 1 254915.19 0a 127457.60 127457.60 0 1 1 -254915.19 0"/>
<path id="N" d="M 28092393.87 34594793.87 m -127457.60 0 a 127457.60 127457.60 0 1 1 254915.19 0a 127457.60 127457.60 0 1 1 -254915.19 0"/>
<path id="N" d="M 13312920.00 34429824.86 L 13312920.00 33903691.99 L 14548891.01 32667720.00 L 29908624.86 32667720.00 L 29932680.00 32703720.00 A 127441.40 127441.40 0 1 0 29932680.00 32523480.00 L 29908624.86 32559480.00 L 14526474.00 32559479.00 L 14488204.29 32575332.71 L 13220531.00 33843005.00 L 13204680.00 33881276.41 L 13204680.00 34429824.86 L 13168680.00 34453880.00 A 127441.40 127441.40 0 1 0 13312920.00 34429824.86  z"/>
<path id="N" d="M 14871869.00 36679069.00 L 17496018.01 34054919.00 L 30693241.00 34054919.00 L 31030191.00 34391869.00 L 31068462.41 34407720.00 L 31813400.00 34407721.00 L 31851669.00 34391869.00 L 32382017.03 33861520.00 L 32855024.86 33861520.00 L 32879080.00 33897520.00 A 127441.40 127441.40 0 1 0 32879080.00 33717280.00 L 32855024.86 33753280.00 L 32359600.00 33753280.00 L 32321330.29 33769132.71 L 31790982.03 34299480.00 L 31090878.00 34299480.00 L 30753928.00 33962530.00 L 30715656.59 33946679.00 L 17473601.00 33946679.00 L 17435331.29 33962531.71 L 14811182.01 36586680.00 L 13904817.04 36586680.00 L 13500269.00 36182131.00 L 13461997.59 36166280.00 L 12712575.14 36166280.00 L 12688520.00 36130280.00 A 127441.40 127441.40 0 1 0 12688520.00 36310520.00 L 12712575.14 36274520.00 L 13439582.04 36274520.00 L 13844131.00 36679069.00 L 13882400.00 36694920.00 L 14833600.00 36694921.00 L 14871869.00 36679069.00  z"/>
<path id="N" d="M 40335193.87 33197793.87 m -127457.60 0 a 127457.60 127457.60 0 1 1 254915.19 0a 127457.60 127457.60 0 1 1 -254915.19 0"/>
<path id="N" d="M 39496355.87 34594155.87 m -127457.60 0 a 127457.60 127457.60 0 1 1 254915.19 0a 127457.60 127457.60 0 1 1 -254915.19 0"/>
<path id="N" d="M 44205919.87 24450267.87 m -127457.60 0 a 127457.60 127457.60 0 1 1 254915.19 0a 127457.60 127457.60 0 1 1 -254915.19 0"/>
<path id="N" d="M 30683193.87 23367993.87 m -127457.60 0 a 127457.60 127457.60 0 1 1 254915.19 0a 127457.60 127457.60 0 1 1 -254915.19 0"/>
<path id="N" d="M 13123802.71 33866535.23 L 14482617.01 32507720.00 L 29641621.00 32507721.00 A 107232.20 107232.20 0 0 0 29725620.00 32387992.94 L 29748973.00 32383348.00 A 127457.60 127457.60 0 1 0 29610080.00 32355720.00 L 29617380.00 32360597.85 L 29617380.00 32399480.00 L 14460200.00 32399480.00 L 14421930.29 32415332.71 L 13047264.77 33789997.29 L 13004800.00 33781551.00 A 127441.40 127441.40 0 1 0 13123802.71 33866535.23  z"/>
<path id="N" d="M 44957993.87 23774393.87 m -127457.60 0 a 127457.60 127457.60 0 1 1 254915.19 0a 127457.60 127457.60 0 1 1 -254915.19 0"/>
<path id="N" d="M 32384993.87 23806193.87 m -127457.60 0 a 127457.60 127457.60 0 1 1 254915.19 0a 127457.60 127457.60 0 1 1 -254915.19 0"/>
<path id="N" d="M 29921193.87 26746193.87 m -127457.60 0 a 127457.60 127457.60 0 1 1 254915.19 0a 127457.60 127457.60 0 1 1 -254915.19 0"/>
<path id="N" d="M 27050993.87 34594793.87 m -127457.60 0 a 127457.60 127457.60 0 1 1 254915.19 0a 127457.60 127457.60 0 1 1 -254915.19 0"/>
<path id="N" d="M 25069793.87 34569393.87 m -127457.60 0 a 127457.60 127457.60 0 1 1 254915.19 0a 127457.60 127457.60 0 1 1 -254915.19 0"/>
<path id="N" d="M 40512993.87 26060393.87 m -127457.60 0 a 127457.60 127457.60 0 1 1 254915.19 0a 127457.60 127457.60 0 1 1 -254915.19 0"/>
<path id="N" d="M 32896320.00 32245424.86 L 32896320.00 31569217.97 L 33439269.00 31026269.00 L 33455120.00 30987997.59 L 33455120.00 30360779.00 L 33439267.29 30322509.29 L 33380690.00 30263931.00 L 33342418.59 30248080.00 L 20876660.00 30248080.00 L 20838391.00 30263931.00 L 19548594.72 31553727.28 L 19506130.00 31545281.00 A 127441.40 127441.40 0 1 0 19633579.00 31672730.00 L 19625132.72 31630265.28 L 20899078.00 30356320.00 L 33320003.27 30356320.00 L 33346880.00 30383196.27 L 33346880.00 30965582.97 L 32803931.00 31508531.00 L 32788080.00 31546802.41 L 32788080.00 32245424.86 L 32752080.00 32269480.00 A 127441.40 127441.40 0 1 0 32896320.00 32245424.86  z"/>
<path id="N" d="M 11963393.87 36499793.87 m -127457.60 0 a 127457.60 127457.60 0 1 1 254915.19 0a 127457.60 127457.60 0 1 1 -254915.19 0"/>
<path id="N" d="M 14325597.35 30327593.57 m -297829.90 0 a 297829.90 297829.90 0 1 1 595659.80 0a 297829.90 297829.90 0 1 1 -595659.80 0M 14325600.44 30327598.65 m -180637.35 0 a 180637.35 180637.35 0 1 1 361274.69 0a 180637.35 180637.35 0 1 1 -361274.69 0"/>
<path id="N" d="M 15021877.38 58943554.38 m -130459.26 0 a 130459.26 130459.26 0 1 1 260918.51 0a 130459.26 130459.26 0 1 1 -260918.51 0M 15021876.76 58943552.92 m -80284.08 0 a 80284.08 80284.08 0 1 1 160568.17 0a 80284.08 80284.08 0 1 1 -160568.17 0"/>
<path id="N" d="M 15356523.38 59475050.38 m -130459.26 0 a 130459.26 130459.26 0 1 1 260918.51 0a 130459.26 130459.26 0 1 1 -260918.51 0M 15356522.76 59475048.92 m -80284.08 0 a 80284.08 80284.08 0 1 1 160568.17 0a 80284.08 80284.08 0 1 1 -160568.17 0"/>
<path id="N" d="M 15011393.87 58216793.87 m -127457.60 0 a 127457.60 127457.60 0 1 1 254915.19 0a 127457.60 127457.60 0 1 1 -254915.19 0"/>
<path id="N" d="M 36829993.87 33172393.87 m -127457.60 0 a 127457.60 127457.60 0 1 1 254915.19 0a 127457.60 127457.60 0 1 1 -254915.19 0"/>
<path id="N" d="M 41274993.87 28143193.87 m -127457.60 0 a 127457.60 127457.60 0 1 1 254915.19 0a 127457.60 127457.60 0 1 1 -254915.19 0"/>
<path id="N" d="M 43510193.87 24968193.87 m -127457.60 0 a 127457.60 127457.60 0 1 1 254915.19 0a 127457.60 127457.60 0 1 1 -254915.19 0"/>
<path id="N" d="M 21107393.87 34594793.87 m -127457.60 0 a 127457.60 127457.60 0 1 1 254915.19 0a 127457.60 127457.60 0 1 1 -254915.19 0"/>
<path id="N" d="M 14687231.38 58943554.38 m -130459.26 0 a 130459.26 130459.26 0 1 1 260918.51 0a 130459.26 130459.26 0 1 1 -260918.51 0M 14687230.76 58943552.92 m -80284.08 0 a 80284.08 80284.08 0 1 1 160568.17 0a 80284.08 80284.08 0 1 1 -160568.17 0"/>
<path id="N" d="M 18008593.87 59029593.87 m -127457.60 0 a 127457.60 127457.60 0 1 1 254915.19 0a 127457.60 127457.60 0 1 1 -254915.19 0"/>
<path id="N" d="M 43738793.87 24358593.87 m -127457.60 0 a 127457.60 127457.60 0 1 1 254915.19 0a 127457.60 127457.60 0 1 1 -254915.19 0"/>
<path id="N" d="M 20065993.87 34594793.87 m -127457.60 0 a 127457.60 127457.60 0 1 1 254915.19 0a 127457.60 127457.60 0 1 1 -254915.19 0"/>
<path id="N" d="M 39928793.87 28752793.87 m -127457.60 0 a 127457.60 127457.60 0 1 1 254915.19 0a 127457.60 127457.60 0 1 1 -254915.19 0"/>
<path id="N" d="M 39420793.87 32918393.87 m -127457.60 0 a 127457.60 127457.60 0 1 1 254915.19 0a 127457.60 127457.60 0 1 1 -254915.19 0"/>
<path id="N" d="M 31064193.87 23088593.87 m -127457.60 0 a 127457.60 127457.60 0 1 1 254915.19 0a 127457.60 127457.60 0 1 1 -254915.19 0"/>
<path id="N" d="M 37515793.87 23088593.87 m -127457.60 0 a 127457.60 127457.60 0 1 1 254915.19 0a 127457.60 127457.60 0 1 1 -254915.19 0"/>
<path id="N" d="M 32500520.00 32244080.00 L 32491812.00 32238261.33 L 32491813.00 31650292.00 L 32475961.00 31612023.00 L 32118469.00 31254531.00 L 32080197.59 31238680.00 L 21069175.14 31238680.00 L 21045120.00 31202680.00 A 127441.40 127441.40 0 1 0 21045120.00 31382920.00 L 21069175.14 31346920.00 L 32057782.00 31346920.00 L 32383572.00 31672710.00 L 32383572.00 32212087.12 L 32361627.00 32216452.00 A 127457.60 127457.60 0 1 0 32500520.00 32244080.00  z"/>
<path id="N" d="M 12761099.87 40147087.87 m -127457.60 0 a 127457.60 127457.60 0 1 1 254915.19 0a 127457.60 127457.60 0 1 1 -254915.19 0"/>
<path id="N" d="M 41039993.87 28752793.87 m -127457.60 0 a 127457.60 127457.60 0 1 1 254915.19 0a 127457.60 127457.60 0 1 1 -254915.19 0"/>
<path id="N" d="M 41122593.87 35636193.87 m -127457.60 0 a 127457.60 127457.60 0 1 1 254915.19 0a 127457.60 127457.60 0 1 1 -254915.19 0"/>
<path id="N" d="M 31622993.87 25473593.87 m -127457.60 0 a 127457.60 127457.60 0 1 1 254915.19 0a 127457.60 127457.60 0 1 1 -254915.19 0"/>
<path id="N" d="M 37033193.87 25473593.87 m -127457.60 0 a 127457.60 127457.60 0 1 1 254915.19 0a 127457.60 127457.60 0 1 1 -254915.19 0"/>
<path id="N" d="M 15356523.38 58943554.38 m -130459.26 0 a 130459.26 130459.26 0 1 1 260918.51 0a 130459.26 130459.26 0 1 1 -260918.51 0M 15356522.76 58943552.92 m -80284.08 0 a 80284.08 80284.08 0 1 1 160568.17 0a 80284.08 80284.08 0 1 1 -160568.17 0"/>
<path id="N" d="M 15021877.38 59475050.38 m -130459.26 0 a 130459.26 130459.26 0 1 1 260918.51 0a 130459.26 130459.26 0 1 1 -260918.51 0M 15021876.76 59475048.92 m -80284.08 0 a 80284.08 80284.08 0 1 1 160568.17 0a 80284.08 80284.08 0 1 1 -160568.17 0"/>
<path id="N" d="M 14620875.00 31032325.00 L 14030325.00 31032325.00 L 14030325.00 31622875.00 L 14620875.00 31622875.00 L 14620875.00 31032325.00  zM 14325600.44 31327598.65 m -180637.35 0 a 180637.35 180637.35 0 1 1 361274.69 0a 180637.35 180637.35 0 1 1 -361274.69 0"/>
<path id="N" d="M 15356516.87 58257116.87 m -127457.60 0 a 127457.60 127457.60 0 1 1 254915.19 0a 127457.60 127457.60 0 1 1 -254915.19 0"/>
<path id="N" d="M 25621609.87 35617777.87 m -127457.60 0 a 127457.60 127457.60 0 1 1 254915.19 0a 127457.60 127457.60 0 1 1 -254915.19 0"/>
<path id="N" d="M 37820593.87 26212793.87 m -127457.60 0 a 127457.60 127457.60 0 1 1 254915.19 0a 127457.60 127457.60 0 1 1 -254915.19 0"/>
<path id="N" d="M 33070793.87 27787593.87 m -127457.60 0 a 127457.60 127457.60 0 1 1 254915.19 0a 127457.60 127457.60 0 1 1 -254915.19 0"/>
<path id="N" d="M 36779193.87 27787593.87 m -127457.60 0 a 127457.60 127457.60 0 1 1 254915.19 0a 127457.60 127457.60 0 1 1 -254915.19 0"/>
<path id="N" d="M 14766009.00 36519069.00 L 17390158.01 33894919.00 L 30759515.12 33894919.00 L 30876665.00 34012069.00 L 30914936.41 34027920.00 L 30957992.00 34027920.00 L 31040063.28 34109991.28 L 31038351.00 34118600.00 A 127441.40 127441.40 0 1 0 31117027.00 34000852.00 L 31097229.00 34014081.00 L 31018679.00 33935531.00 L 30980407.59 33919680.00 L 30937351.12 33919680.00 L 30820202.00 33802530.00 L 30781930.59 33786679.00 L 17367741.00 33786679.00 L 17329471.29 33802531.71 L 14705322.01 36426680.00 L 14227418.00 36426680.00 L 14151120.00 36350382.00 L 14151120.00 36131375.14 L 14187120.00 36107320.00 A 127441.40 127441.40 0 1 0 14006880.00 36107320.00 L 14042880.00 36131375.14 L 14042879.00 36372800.00 L 14058731.00 36411069.00 L 14166731.00 36519069.00 L 14205000.00 36534920.00 L 14727740.00 36534921.00 L 14766009.00 36519069.00  z"/>
<path id="N" d="M 30431031.87 23799793.87 m -127457.60 0 a 127457.60 127457.60 0 1 1 254915.19 0a 127457.60 127457.60 0 1 1 -254915.19 0"/>
<path id="N" d="M 19049993.87 34569393.87 m -127457.60 0 a 127457.60 127457.60 0 1 1 254915.19 0a 127457.60 127457.60 0 1 1 -254915.19 0"/>
<path id="N" d="M 32207193.87 26263593.87 m -127457.60 0 a 127457.60 127457.60 0 1 1 254915.19 0a 127457.60 127457.60 0 1 1 -254915.19 0"/>
<path id="N" d="M 26034993.87 34594793.87 m -127457.60 0 a 127457.60 127457.60 0 1 1 254915.19 0a 127457.60 127457.60 0 1 1 -254915.19 0"/>
<path id="N" d="M 26517593.87 35610793.87 m -127457.60 0 a 127457.60 127457.60 0 1 1 254915.19 0a 127457.60 127457.60 0 1 1 -254915.19 0"/>
<path id="N" d="M 41884593.87 26517593.87 m -127457.60 0 a 127457.60 127457.60 0 1 1 254915.19 0a 127457.60 127457.60 0 1 1 -254915.19 0"/>
<path id="N" d="M 31851593.87 28346393.87 m -127457.60 0 a 127457.60 127457.60 0 1 1 254915.19 0a 127457.60 127457.60 0 1 1 -254915.19 0"/>
<path id="N" d="M 35123027.87 34010593.87 m -127457.60 0 a 127457.60 127457.60 0 1 1 254915.19 0a 127457.60 127457.60 0 1 1 -254915.19 0"/>
<path id="N" d="M 25450793.87 20472393.87 m -127457.60 0 a 127457.60 127457.60 0 1 1 254915.19 0a 127457.60 127457.60 0 1 1 -254915.19 0"/>
<path id="N" d="M 23164793.87 20497793.87 m -127457.60 0 a 127457.60 127457.60 0 1 1 254915.19 0a 127457.60 127457.60 0 1 1 -254915.19 0"/>
</g>
</svg>
