<svg width="99.00000012mm" height="119.08717102mm" viewBox="0 0 38976378 46884713"  version="1.1" xmlns="http://www.w3.org/2000/svg" xmlns:xlink="http://www.w3.org/1999/xlink">
<desc>
Origin 0 0 Bound 10687012 14338256 38976378 46884713
</desc>
<g fill-rule="evenodd" fill="rgb(112, 219, 250)" stroke="black" stroke-width="1" transform="translate(0, 46884713) scale(1, -1) translate(-10687012, -14338256)">
<path id="N" d="M 15691169.38 59475050.38 m -130459.26 0 a 130459.26 130459.26 0 1 1 260918.51 0a 130459.26 130459.26 0 1 1 -260918.51 0M 15691168.76 59475048.92 m -80284.08 0 a 80284.08 80284.08 0 1 1 160568.17 0a 80284.08 80284.08 0 1 1 -160568.17 0"/>
<path id="N" d="M 15087993.87 35738663.87 m -127457.60 0 a 127457.60 127457.60 0 1 1 254915.19 0a 127457.60 127457.60 0 1 1 -254915.19 0"/>
<path id="N" d="M 31826193.87 33756593.87 m -127457.60 0 a 127457.60 127457.60 0 1 1 254915.19 0a 127457.60 127457.60 0 1 1 -254915.19 0"/>
<path id="N" d="M 31445193.87 23672793.87 m -127457.60 0 a 127457.60 127457.60 0 1 1 254915.19 0a 127457.60 127457.60 0 1 1 -254915.19 0"/>
<path id="N" d="M 37280793.87 23571193.87 m -127457.60 0 a 127457.60 127457.60 0 1 1 254915.19 0a 127457.60 127457.60 0 1 1 -254915.19 0"/>
<path id="N" d="M 30251393.87 17957793.87 m -127457.60 0 a 127457.60 127457.60 0 1 1 254915.19 0a 127457.60 127457.60 0 1 1 -254915.19 0"/>
<path id="N" d="M 38658793.87 17957793.87 m -127457.60 0 a 127457.60 127457.60 0 1 1 254915.19 0a 127457.60 127457.60 0 1 1 -254915.19 0"/>
<path id="N" d="M 28524193.87 32130993.87 m -127457.60 0 a 127457.60 127457.60 0 1 1 254915.19 0a 127457.60 127457.60 0 1 1 -254915.19 0"/>
<path id="N" d="M 38607993.87 29692593.87 m -127457.60 0 a 127457.60 127457.60 0 1 1 254915.19 0a 127457.60 127457.60 0 1 1 -254915.19 0"/>
<path id="N" d="M 28473393.87 28854393.87 m -127457.60 0 a 127457.60 127457.60 0 1 1 254915.19 0a 127457.60 127457.60 0 1 1 -254915.19 0"/>
<path id="N" d="M 37947599.88 31546799.88 m -254898.03 0 a 254898.03 254898.03 0 1 1 509796.06 0a 254898.03 254898.03 0 1 1 -509796.06 0"/>
<path id="N" d="M 12761099.87 38165887.87 m -127457.60 0 a 127457.60 127457.60 0 1 1 254915.19 0a 127457.60 127457.60 0 1 1 -254915.19 0"/>
<path id="N" d="M 24206199.88 27863799.88 m -254898.03 0 a 254898.03 254898.03 0 1 1 509796.06 0a 254898.03 254898.03 0 1 1 -509796.06 0"/>
<path id="N" d="M 40639993.87 33451793.87 m -127457.60 0 a 127457.60 127457.60 0 1 1 254915.19 0a 127457.60 127457.60 0 1 1 -254915.19 0"/>
<path id="N" d="M 39998009.87 35617777.87 m -127457.60 0 a 127457.60 127457.60 0 1 1 254915.19 0a 127457.60 127457.60 0 1 1 -254915.19 0"/>
<path id="N" d="M 12996099.87 39268393.87 m -127457.60 0 a 127457.60 127457.60 0 1 1 254915.19 0a 127457.60 127457.60 0 1 1 -254915.19 0"/>
<path id="N" d="M 32257993.87 32791393.87 m -127457.60 0 a 127457.60 127457.60 0 1 1 254915.19 0a 127457.60 127457.60 0 1 1 -254915.19 0"/>
<path id="N" d="M 20294593.87 31648393.87 m -127457.60 0 a 127457.60 127457.60 0 1 1 254915.19 0a 127457.60 127457.60 0 1 1 -254915.19 0"/>
<path id="N" d="M 17072592.00 59624657.00 L 17072592.00 59034105.00 A 180637.35 180637.35 0 0 0 16711320.00 59034105.00 L 16711320.00 59624657.00 A 180637.35 180637.35 0 0 0 17072592.00 59624657.00  zM 16771532.00 59624657.00 L 16771532.00 59034105.00 A 120431.73 120431.73 0 1 1 17012380.00 59034105.00 L 17012380.00 59624657.00 A 120431.73 120431.73 0 1 1 16771532.00 59624657.00  z"/>
<path id="N" d="M 13667080.00 60817570.00 L 13667080.00 60502610.00 A 180637.35 180637.35 0 0 0 13305808.00 60502610.00 L 13305808.00 60817570.00 A 180637.35 180637.35 0 1 0 13667080.00 60817570.00  zM 13366020.00 60817570.00 L 13366020.00 60502610.00 A 120431.73 120431.73 0 1 1 13606868.00 60502610.00 L 13606868.00 60817570.00 A 120431.73 120431.73 0 1 1 13366020.00 60817570.00  z"/>
<path id="N" d="M 17072592.00 60817570.00 L 17072592.00 60502610.00 A 180637.35 180637.35 0 0 0 16711320.00 60502610.00 L 16711320.00 60817570.00 A 180637.35 180637.35 0 1 0 17072592.00 60817570.00  zM 16771532.00 60817570.00 L 16771532.00 60502610.00 A 120431.73 120431.73 0 1 1 17012380.00 60502610.00 L 17012380.00 60817570.00 A 120431.73 120431.73 0 1 1 16771532.00 60817570.00  z"/>
<path id="N" d="M 13667080.00 59624657.00 L 13667080.00 59034105.00 A 180637.35 180637.35 0 0 0 13305808.00 59034105.00 L 13305808.00 59624657.00 A 180637.35 180637.35 0 0 0 13667080.00 59624657.00  zM 13366020.00 59624657.00 L 13366020.00 59034105.00 A 120431.73 120431.73 0 1 1 13606868.00 59034105.00 L 13606868.00 59624657.00 A 120431.73 120431.73 0 1 1 13366020.00 59624657.00  z"/>
<path id="N" d="M 14017940.38 59475050.38 m -130459.26 0 a 130459.26 130459.26 0 1 1 260918.51 0a 130459.26 130459.26 0 1 1 -260918.51 0M 14017939.76 59475048.92 m -80284.08 0 a 80284.08 80284.08 0 1 1 160568.17 0a 80284.08 80284.08 0 1 1 -160568.17 0"/>
<path id="N" d="M 16360460.38 58943554.38 m -130459.26 0 a 130459.26 130459.26 0 1 1 260918.51 0a 130459.26 130459.26 0 1 1 -260918.51 0M 16360459.76 58943552.92 m -80284.08 0 a 80284.08 80284.08 0 1 1 160568.17 0a 80284.08 80284.08 0 1 1 -160568.17 0"/>
<path id="N" d="M 16360460.38 59475050.38 m -130459.26 0 a 130459.26 130459.26 0 1 1 260918.51 0a 130459.26 130459.26 0 1 1 -260918.51 0M 16360459.76 59475048.92 m -80284.08 0 a 80284.08 80284.08 0 1 1 160568.17 0a 80284.08 80284.08 0 1 1 -160568.17 0"/>
<path id="N" d="M 15036791.06 17195791.06 m -240860.29 0 a 240860.29 240860.29 0 1 1 481720.58 0a 240860.29 240860.29 0 1 1 -481720.58 0M 15036802.38 17195794.09 m -140500.91 0 a 140500.91 140500.91 0 1 1 281001.82 0a 140500.91 140500.91 0 1 1 -281001.82 0"/>
<path id="N" d="M 18313389.06 17195791.06 m -240860.29 0 a 240860.29 240860.29 0 1 1 481720.58 0a 240860.29 240860.29 0 1 1 -481720.58 0M 18313400.38 17195794.09 m -140500.91 0 a 140500.91 140500.91 0 1 1 281001.82 0a 140500.91 140500.91 0 1 1 -281001.82 0"/>
<path id="N" d="M 14017940.38 58943554.38 m -130459.26 0 a 130459.26 130459.26 0 1 1 260918.51 0a 130459.26 130459.26 0 1 1 -260918.51 0M 14017939.76 58943552.92 m -80284.08 0 a 80284.08 80284.08 0 1 1 160568.17 0a 80284.08 80284.08 0 1 1 -160568.17 0"/>
<path id="N" d="M 21691593.87 24815793.87 m -127457.60 0 a 127457.60 127457.60 0 1 1 254915.19 0a 127457.60 127457.60 0 1 1 -254915.19 0"/>
<path id="N" d="M 22758393.87 24612593.87 m -127457.60 0 a 127457.60 127457.60 0 1 1 254915.19 0a 127457.60 127457.60 0 1 1 -254915.19 0"/>
<path id="N" d="M 43205393.87 16357593.87 m -127457.60 0 a 127457.60 127457.60 0 1 1 254915.19 0a 127457.60 127457.60 0 1 1 -254915.19 0"/>
<path id="N" d="M 18897593.87 21437593.87 m -127457.60 0 a 127457.60 127457.60 0 1 1 254915.19 0a 127457.60 127457.60 0 1 1 -254915.19 0"/>
<path id="N" d="M 21539193.87 26669993.87 m -127457.60 0 a 127457.60 127457.60 0 1 1 254915.19 0a 127457.60 127457.60 0 1 1 -254915.19 0"/>
<path id="N" d="M 19735793.87 22199593.87 m -127457.60 0 a 127457.60 127457.60 0 1 1 254915.19 0a 127457.60 127457.60 0 1 1 -254915.19 0"/>
<path id="N" d="M 21234393.87 21462993.87 m -127457.60 0 a 127457.60 127457.60 0 1 1 254915.19 0a 127457.60 127457.60 0 1 1 -254915.19 0"/>
<path id="N" d="M 21545543.87 26009593.87 m -127457.60 0 a 127457.60 127457.60 0 1 1 254915.19 0a 127457.60 127457.60 0 1 1 -254915.19 0"/>
<path id="N" d="M 21189943.87 24485593.87 m -127457.60 0 a 127457.60 127457.60 0 1 1 254915.19 0a 127457.60 127457.60 0 1 1 -254915.19 0"/>
<path id="N" d="M 19913593.87 18110193.87 m -127457.60 0 a 127457.60 127457.60 0 1 1 254915.19 0a 127457.60 127457.60 0 1 1 -254915.19 0"/>
<path id="N" d="M 22129743.87 20675593.87 m -127457.60 0 a 127457.60 127457.60 0 1 1 254915.19 0a 127457.60 127457.60 0 1 1 -254915.19 0"/>
<path id="N" d="M 21545543.87 27304993.87 m -127457.60 0 a 127457.60 127457.60 0 1 1 254915.19 0a 127457.60 127457.60 0 1 1 -254915.19 0"/>
<path id="N" d="M 22188998.87 18863738.87 m -127457.60 0 a 127457.60 127457.60 0 1 1 254915.19 0a 127457.60 127457.60 0 1 1 -254915.19 0"/>
<path id="N" d="M 20243793.87 18973793.87 m -127457.60 0 a 127457.60 127457.60 0 1 1 254915.19 0a 127457.60 127457.60 0 1 1 -254915.19 0"/>
<path id="N" d="M 33019993.87 16357593.87 m -127457.60 0 a 127457.60 127457.60 0 1 1 254915.19 0a 127457.60 127457.60 0 1 1 -254915.19 0"/>
<path id="N" d="M 34493193.87 16382993.87 m -127457.60 0 a 127457.60 127457.60 0 1 1 254915.19 0a 127457.60 127457.60 0 1 1 -254915.19 0"/>
<path id="N" d="M 41478193.87 16382993.87 m -127457.60 0 a 127457.60 127457.60 0 1 1 254915.19 0a 127457.60 127457.60 0 1 1 -254915.19 0"/>
<path id="N" d="M 39700193.87 16357593.87 m -127457.60 0 a 127457.60 127457.60 0 1 1 254915.19 0a 127457.60 127457.60 0 1 1 -254915.19 0"/>
<path id="N" d="M 24314143.87 24434793.87 m -127457.60 0 a 127457.60 127457.60 0 1 1 254915.19 0a 127457.60 127457.60 0 1 1 -254915.19 0"/>
<path id="N" d="M 22815543.87 22809193.87 m -127457.60 0 a 127457.60 127457.60 0 1 1 254915.19 0a 127457.60 127457.60 0 1 1 -254915.19 0"/>
<path id="N" d="M 29692593.87 30556193.87 m -127457.60 0 a 127457.60 127457.60 0 1 1 254915.19 0a 127457.60 127457.60 0 1 1 -254915.19 0"/>
<path id="N" d="M 43230793.87 30556193.87 m -127457.60 0 a 127457.60 127457.60 0 1 1 254915.19 0a 127457.60 127457.60 0 1 1 -254915.19 0"/>
<path id="N" d="M 31394393.87 30556193.87 m -127457.60 0 a 127457.60 127457.60 0 1 1 254915.19 0a 127457.60 127457.60 0 1 1 -254915.19 0"/>
<path id="N" d="M 21513793.87 27939993.87 m -127457.60 0 a 127457.60 127457.60 0 1 1 254915.19 0a 127457.60 127457.60 0 1 1 -254915.19 0"/>
<path id="N" d="M 22555193.87 35636193.87 m -127457.60 0 a 127457.60 127457.60 0 1 1 254915.19 0a 127457.60 127457.60 0 1 1 -254915.19 0"/>
<path id="N" d="M 32969193.87 30581593.87 m -127457.60 0 a 127457.60 127457.60 0 1 1 254915.19 0a 127457.60 127457.60 0 1 1 -254915.19 0"/>
<path id="N" d="M 21361393.87 34315393.87 m -127457.60 0 a 127457.60 127457.60 0 1 1 254915.19 0a 127457.60 127457.60 0 1 1 -254915.19 0"/>
<path id="N" d="M 11499287.87 38245487.87 m -127457.60 0 a 127457.60 127457.60 0 1 1 254915.19 0a 127457.60 127457.60 0 1 1 -254915.19 0"/>
<path id="N" d="M 23063193.87 34594793.87 m -127457.60 0 a 127457.60 127457.60 0 1 1 254915.19 0a 127457.60 127457.60 0 1 1 -254915.19 0"/>
<path id="N" d="M 39725593.87 30556193.87 m -127457.60 0 a 127457.60 127457.60 0 1 1 254915.19 0a 127457.60 127457.60 0 1 1 -254915.19 0"/>
<path id="N" d="M 41503593.87 30556193.87 m -127457.60 0 a 127457.60 127457.60 0 1 1 254915.19 0a 127457.60 127457.60 0 1 1 -254915.19 0"/>
<path id="N" d="M 14630393.87 36245793.87 m -127457.60 0 a 127457.60 127457.60 0 1 1 254915.19 0a 127457.60 127457.60 0 1 1 -254915.19 0"/>
<path id="N" d="M 31394393.87 33578793.87 m -127457.60 0 a 127457.60 127457.60 0 1 1 254915.19 0a 127457.60 127457.60 0 1 1 -254915.19 0"/>
<path id="N" d="M 14352586.38 59475050.38 m -130459.26 0 a 130459.26 130459.26 0 1 1 260918.51 0a 130459.26 130459.26 0 1 1 -260918.51 0M 14352585.76 59475048.92 m -80284.08 0 a 80284.08 80284.08 0 1 1 160568.17 0a 80284.08 80284.08 0 1 1 -160568.17 0"/>
<path id="N" d="M 16025814.38 59475050.38 m -130459.26 0 a 130459.26 130459.26 0 1 1 260918.51 0a 130459.26 130459.26 0 1 1 -260918.51 0M 16025813.76 59475048.92 m -80284.08 0 a 80284.08 80284.08 0 1 1 160568.17 0a 80284.08 80284.08 0 1 1 -160568.17 0"/>
<path id="N" d="M 14352586.38 58943554.38 m -130459.26 0 a 130459.26 130459.26 0 1 1 260918.51 0a 130459.26 130459.26 0 1 1 -260918.51 0M 14352585.76 58943552.92 m -80284.08 0 a 80284.08 80284.08 0 1 1 160568.17 0a 80284.08 80284.08 0 1 1 -160568.17 0"/>
<path id="N" d="M 16025814.38 58943554.38 m -130459.26 0 a 130459.26 130459.26 0 1 1 260918.51 0a 130459.26 130459.26 0 1 1 -260918.51 0M 16025813.76 58943552.92 m -80284.08 0 a 80284.08 80284.08 0 1 1 160568.17 0a 80284.08 80284.08 0 1 1 -160568.17 0"/>
<path id="N" d="M 15747993.87 58242193.87 m -127457.60 0 a 127457.60 127457.60 0 1 1 254915.19 0a 127457.60 127457.60 0 1 1 -254915.19 0"/>
<path id="N" d="M 20548593.87 35636193.87 m -127457.60 0 a 127457.60 127457.60 0 1 1 254915.19 0a 127457.60 127457.60 0 1 1 -254915.19 0"/>
<path id="N" d="M 38125393.87 24587193.87 m -127457.60 0 a 127457.60 127457.60 0 1 1 254915.19 0a 127457.60 127457.60 0 1 1 -254915.19 0"/>
<path id="N" d="M 13614393.87 35077393.87 m -127457.60 0 a 127457.60 127457.60 0 1 1 254915.19 0a 127457.60 127457.60 0 1 1 -254915.19 0"/>
<path id="N" d="M 30403793.87 32842193.87 m -127457.60 0 a 127457.60 127457.60 0 1 1 254915.19 0a 127457.60 127457.60 0 1 1 -254915.19 0"/>
<path id="N" d="M 28727393.87 35610793.87 m -127457.60 0 a 127457.60 127457.60 0 1 1 254915.19 0a 127457.60 127457.60 0 1 1 -254915.19 0"/>
<path id="N" d="M 40157393.87 27508193.87 m -127457.60 0 a 127457.60 127457.60 0 1 1 254915.19 0a 127457.60 127457.60 0 1 1 -254915.19 0"/>
<path id="N" d="M 30175193.87 25473593.87 m -127457.60 0 a 127457.60 127457.60 0 1 1 254915.19 0a 127457.60 127457.60 0 1 1 -254915.19 0"/>
<path id="N" d="M 24104593.87 34620193.87 m -127457.60 0 a 127457.60 127457.60 0 1 1 254915.19 0a 127457.60 127457.60 0 1 1 -254915.19 0"/>
<path id="N" d="M 40512993.87 34569393.87 m -127457.60 0 a 127457.60 127457.60 0 1 1 254915.19 0a 127457.60 127457.60 0 1 1 -254915.19 0"/>
<path id="N" d="M 40512993.87 33781993.87 m -127457.60 0 a 127457.60 127457.60 0 1 1 254915.19 0a 127457.60 127457.60 0 1 1 -254915.19 0"/>
<path id="N" d="M 14198593.87 35458393.87 m -127457.60 0 a 127457.60 127457.60 0 1 1 254915.19 0a 127457.60 127457.60 0 1 1 -254915.19 0"/>
<path id="N" d="M 30750034.87 33085782.87 m -127457.60 0 a 127457.60 127457.60 0 1 1 254915.19 0a 127457.60 127457.60 0 1 1 -254915.19 0"/>
<path id="N" d="M 24612593.87 35585393.87 m -127457.60 0 a 127457.60 127457.60 0 1 1 254915.19 0a 127457.60 127457.60 0 1 1 -254915.19 0"/>
<path id="N" d="M 42259193.87 25780993.87 m -127457.60 0 a 127457.60 127457.60 0 1 1 254915.19 0a 127457.60 127457.60 0 1 1 -254915.19 0"/>
<path id="N" d="M 21539193.87 35636193.87 m -127457.60 0 a 127457.60 127457.60 0 1 1 254915.19 0a 127457.60 127457.60 0 1 1 -254915.19 0"/>
<path id="N" d="M 36093393.87 25069793.87 m -127457.60 0 a 127457.60 127457.60 0 1 1 254915.19 0a 127457.60 127457.60 0 1 1 -254915.19 0"/>
<path id="N" d="M 19642220.00 61222968.00 A 989002.09 989002.09 0 0 0 20529531.00 60335657.00 L 20529531.00 59354370.00 A 989027.99 989027.99 0 0 0 19642220.00 58467059.00 L 16986224.00 58467059.00 L 16889750.00 58462319.00 A 984241.79 984241.79 0 0 1 16001972.00 57482807.00 L 16001972.00 36976051.00 L 16006711.00 36879577.00 A 984241.79 984241.79 0 0 1 16986224.00 35991799.00 L 44474741.00 35991799.00 L 44571214.00 35996538.00 A 984241.79 984241.79 0 0 1 45458993.00 36976051.00 L 45458993.00 59332834.00 A 989014.36 989014.36 0 0 0 46346304.00 60220146.00 L 48776078.00 60220146.00 A 989040.26 989040.26 0 0 0 49663390.00 59332834.00 L 49663389.00 34933106.00 A 988992.78 988992.78 0 0 0 49443653.00 34402625.00 L 47401449.00 32360416.00 L 47336582.00 32288848.00 A 984283.34 984283.34 0 0 1 47113165.00 31664445.00 L 47113165.00 14338256.00 L 13237232.00 14338256.00 L 13237231.00 31664445.00 L 13232492.00 31760918.00 A 984215.89 984215.89 0 0 1 12948953.00 32360417.00 L 10906744.00 34402626.00 A 989038.66 989038.66 0 0 0 10687012.00 34933107.00 L 10687012.00 59332834.00 A 989014.36 989014.36 0 0 0 11574323.00 60220146.00 L 11671264.00 60220146.00 L 13442917.00 61222969.00 L 19642220.00 61222968.00  zM 15036800.00 17195799.15 m -298776.90 0 a 298776.90 298776.90 0 1 1 597553.80 0a 298776.90 298776.90 0 1 1 -597553.80 0M 16120422.00 17492020.00 L 15527982.00 17492020.00 L 15527982.00 16899580.00 L 16120422.00 16899580.00 L 16120422.00 17492020.00  zM 18313398.00 17195799.15 m -298776.90 0 a 298776.90 298776.90 0 1 1 597553.80 0a 298776.90 298776.90 0 1 1 -597553.80 0M 19397020.00 17492020.00 L 18804580.00 17492020.00 L 18804580.00 16899580.00 L 19397020.00 16899580.00 L 19397020.00 17492020.00  zM 21529800.00 16103594.96 m -358345.67 0 a 358345.67 358345.67 0 1 1 716691.35 0a 358345.67 358345.67 0 1 1 -716691.35 0M 22429799.97 16498875.00 L 22134525.00 16498875.00 L 22134525.00 16203599.97 L 22234525.00 16203599.97 L 22234525.00 16398875.00 L 22429799.97 16398875.00 L 22429799.97 16498875.00  zM 22234525.00 16003599.97 L 22134525.00 16003599.97 L 22134525.00 15708325.00 L 22429800.03 15708325.00 L 22429800.03 15808325.00 L 22234525.00 15808325.00 L 22234525.00 16003599.97  zM 22529800.44 16103598.65 m -180637.35 0 a 180637.35 180637.35 0 1 1 361274.69 0a 180637.35 180637.35 0 1 1 -361274.69 0M 19913600.00 18110202.96 m -188621.50 0 a 188621.50 188621.50 0 1 1 377243.00 0a 188621.50 188621.50 0 1 1 -377243.00 0M 22189005.00 18863747.96 m -188621.50 0 a 188621.50 188621.50 0 1 1 377243.00 0a 188621.50 188621.50 0 1 1 -377243.00 0M 20243800.00 18973802.96 m -188621.50 0 a 188621.50 188621.50 0 1 1 377243.00 0a 188621.50 188621.50 0 1 1 -377243.00 0M 22129750.00 20675602.96 m -188621.50 0 a 188621.50 188621.50 0 1 1 377243.00 0a 188621.50 188621.50 0 1 1 -377243.00 0M 18897600.00 21437602.96 m -188621.50 0 a 188621.50 188621.50 0 1 1 377243.00 0a 188621.50 188621.50 0 1 1 -377243.00 0M 21234400.00 21463002.96 m -188621.50 0 a 188621.50 188621.50 0 1 1 377243.00 0a 188621.50 188621.50 0 1 1 -377243.00 0M 19735800.00 22199602.96 m -188621.50 0 a 188621.50 188621.50 0 1 1 377243.00 0a 188621.50 188621.50 0 1 1 -377243.00 0M 21189950.00 24485602.96 m -188621.50 0 a 188621.50 188621.50 0 1 1 377243.00 0a 188621.50 188621.50 0 1 1 -377243.00 0M 22925075.00 16003600.03 L 22825075.00 16003600.03 L 22825075.00 15808325.00 L 22629800.03 15808325.00 L 22629800.03 15708325.00 L 22925075.00 15708325.00 L 22925075.00 16003600.03  zM 22925075.00 16498875.00 L 22629799.97 16498875.00 L 22629799.97 16398875.00 L 22825075.00 16398875.00 L 22825075.00 16203600.03 L 22925075.00 16203600.03 L 22925075.00 16498875.00  zM 23164800.00 20497802.96 m -188621.50 0 a 188621.50 188621.50 0 1 1 377243.00 0a 188621.50 188621.50 0 1 1 -377243.00 0M 24137950.00 20956600.00 L 24035833.08 20956600.00 L 24047204.00 20929148.00 L 24110498.00 20865854.00 L 24137950.00 20854483.08 L 24137950.00 20956600.00  zM 24137950.00 21258716.92 L 24110498.00 21247346.00 L 24047204.00 21184052.00 L 24035833.08 21156600.00 L 24137950.00 21156600.00 L 24137950.00 21258716.92  zM 24337950.00 21258716.92 L 24337950.00 21156600.00 L 24440066.92 21156600.00 L 24428696.00 21184052.00 L 24365402.00 21247346.00 L 24337950.00 21258716.92  zM 22815550.00 22809202.96 m -188621.50 0 a 188621.50 188621.50 0 1 1 377243.00 0a 188621.50 188621.50 0 1 1 -377243.00 0M 24314150.00 24434802.96 m -188621.50 0 a 188621.50 188621.50 0 1 1 377243.00 0a 188621.50 188621.50 0 1 1 -377243.00 0M 24440066.92 20956600.00 L 24337950.00 20956600.00 L 24337950.00 20854483.08 L 24365402.00 20865854.00 L 24428696.00 20929148.00 L 24440066.92 20956600.00  zM 25450800.00 20472402.96 m -188621.50 0 a 188621.50 188621.50 0 1 1 377243.00 0a 188621.50 188621.50 0 1 1 -377243.00 0M 30292023.00 16876180.30 m -171566.11 0 a 171566.11 171566.11 0 1 1 343132.23 0a 171566.11 171566.11 0 1 1 -343132.23 0M 30251400.00 17957802.96 m -188621.50 0 a 188621.50 188621.50 0 1 1 377243.00 0a 188621.50 188621.50 0 1 1 -377243.00 0M 30683200.00 23368002.96 m -188621.50 0 a 188621.50 188621.50 0 1 1 377243.00 0a 188621.50 188621.50 0 1 1 -377243.00 0M 30431038.00 23799802.96 m -188621.50 0 a 188621.50 188621.50 0 1 1 377243.00 0a 188621.50 188621.50 0 1 1 -377243.00 0M 31064200.00 23088602.96 m -188621.50 0 a 188621.50 188621.50 0 1 1 377243.00 0a 188621.50 188621.50 0 1 1 -377243.00 0M 31445200.00 23672802.96 m -188621.50 0 a 188621.50 188621.50 0 1 1 377243.00 0a 188621.50 188621.50 0 1 1 -377243.00 0M 14325600.00 30327594.96 m -358345.67 0 a 358345.67 358345.67 0 1 1 716691.35 0a 358345.67 358345.67 0 1 1 -716691.35 0M 14680875.00 31682875.00 L 13970325.00 31682875.00 L 13970325.00 30972325.00 L 14680875.00 30972325.00 L 14680875.00 31682875.00  zM 21513800.00 27940002.96 m -188621.50 0 a 188621.50 188621.50 0 1 1 377243.00 0a 188621.50 188621.50 0 1 1 -377243.00 0M 20955000.00 31292802.96 m -188621.50 0 a 188621.50 188621.50 0 1 1 377243.00 0a 188621.50 188621.50 0 1 1 -377243.00 0M 21691600.00 24815802.96 m -188621.50 0 a 188621.50 188621.50 0 1 1 377243.00 0a 188621.50 188621.50 0 1 1 -377243.00 0M 21545550.00 26009602.96 m -188621.50 0 a 188621.50 188621.50 0 1 1 377243.00 0a 188621.50 188621.50 0 1 1 -377243.00 0M 21539200.00 26670002.96 m -188621.50 0 a 188621.50 188621.50 0 1 1 377243.00 0a 188621.50 188621.50 0 1 1 -377243.00 0M 21545550.00 27305002.96 m -188621.50 0 a 188621.50 188621.50 0 1 1 377243.00 0a 188621.50 188621.50 0 1 1 -377243.00 0M 13004800.00 33909002.96 m -188621.50 0 a 188621.50 188621.50 0 1 1 377243.00 0a 188621.50 188621.50 0 1 1 -377243.00 0M 13258800.00 34544002.96 m -188621.50 0 a 188621.50 188621.50 0 1 1 377243.00 0a 188621.50 188621.50 0 1 1 -377243.00 0M 14357725.00 34175225.73 m -732822.99 0 a 732822.99 732822.99 0 1 1 1465645.99 0a 732822.99 732822.99 0 1 1 -1465645.99 0M 19050000.00 34569402.96 m -188621.50 0 a 188621.50 188621.50 0 1 1 377243.00 0a 188621.50 188621.50 0 1 1 -377243.00 0M 19506130.00 31672732.96 m -188621.50 0 a 188621.50 188621.50 0 1 1 377243.00 0a 188621.50 188621.50 0 1 1 -377243.00 0M 20294600.00 31648402.96 m -188621.50 0 a 188621.50 188621.50 0 1 1 377243.00 0a 188621.50 188621.50 0 1 1 -377243.00 0M 20066000.00 34594802.96 m -188621.50 0 a 188621.50 188621.50 0 1 1 377243.00 0a 188621.50 188621.50 0 1 1 -377243.00 0M 21146541.24 34410770.20 L 21184809.79 34372501.65 L 21176400.00 34352199.00 A 188621.50 188621.50 0 1 1 21322258.76 34499429.80 L 21283990.21 34537698.35 L 21292400.00 34558001.00 A 188621.50 188621.50 0 1 1 21146541.24 34410770.20  zM 22758400.00 24612602.96 m -188621.50 0 a 188621.50 188621.50 0 1 1 377243.00 0a 188621.50 188621.50 0 1 1 -377243.00 0M 24206200.00 27863797.00 m -312677.92 0 a 312677.92 312677.92 0 1 1 625355.84 0a 312677.92 312677.92 0 1 1 -625355.84 0M 28473400.00 28854402.96 m -188621.50 0 a 188621.50 188621.50 0 1 1 377243.00 0a 188621.50 188621.50 0 1 1 -377243.00 0M 29546600.00 28111402.96 m -188621.50 0 a 188621.50 188621.50 0 1 1 377243.00 0a 188621.50 188621.50 0 1 1 -377243.00 0M 30175200.00 25473602.96 m -188621.50 0 a 188621.50 188621.50 0 1 1 377243.00 0a 188621.50 188621.50 0 1 1 -377243.00 0M 29921200.00 26746202.96 m -188621.50 0 a 188621.50 188621.50 0 1 1 377243.00 0a 188621.50 188621.50 0 1 1 -377243.00 0M 29692600.00 30556202.96 m -188621.50 0 a 188621.50 188621.50 0 1 1 377243.00 0a 188621.50 188621.50 0 1 1 -377243.00 0M 31394400.00 30556202.96 m -188621.50 0 a 188621.50 188621.50 0 1 1 377243.00 0a 188621.50 188621.50 0 1 1 -377243.00 0M 25069800.00 34569402.96 m -188621.50 0 a 188621.50 188621.50 0 1 1 377243.00 0a 188621.50 188621.50 0 1 1 -377243.00 0M 28524200.00 32131002.96 m -188621.50 0 a 188621.50 188621.50 0 1 1 377243.00 0a 188621.50 188621.50 0 1 1 -377243.00 0M 28717220.00 31049408.30 m -171566.11 0 a 171566.11 171566.11 0 1 1 343132.23 0a 171566.11 171566.11 0 1 1 -343132.23 0M 29700200.00 32265602.96 m -188621.50 0 a 188621.50 188621.50 0 1 1 377243.00 0a 188621.50 188621.50 0 1 1 -377243.00 0M 30022800.00 32613602.96 m -188621.50 0 a 188621.50 188621.50 0 1 1 377243.00 0a 188621.50 188621.50 0 1 1 -377243.00 0M 30593203.41 32980995.92 L 30554923.93 32952707.37 L 30508594.00 32999035.00 A 188621.50 188621.50 0 1 1 30560637.29 32946992.86 L 30598917.07 32975281.63 L 30645247.00 32928954.00 A 188621.50 188621.50 0 1 1 30593203.41 32980995.92  zM 31237565.00 33474006.00 L 31253370.57 33458200.43 L 31232659.72 33408200.00 L 31179801.00 33408200.00 A 188626.87 188626.87 0 1 1 31373435.00 33327994.00 L 31357629.43 33343799.57 L 31378340.28 33393800.00 L 31431199.00 33393800.00 A 188626.87 188626.87 0 1 1 31237565.00 33474006.00  zM 31165800.00 34118602.96 m -188621.50 0 a 188621.50 188621.50 0 1 1 377243.00 0a 188621.50 188621.50 0 1 1 -377243.00 0M 33020000.00 16357602.96 m -188621.50 0 a 188621.50 188621.50 0 1 1 377243.00 0a 188621.50 188621.50 0 1 1 -377243.00 0M 34493200.00 16383002.96 m -188621.50 0 a 188621.50 188621.50 0 1 1 377243.00 0a 188621.50 188621.50 0 1 1 -377243.00 0M 35764463.00 16876180.30 m -171566.11 0 a 171566.11 171566.11 0 1 1 343132.23 0a 171566.11 171566.11 0 1 1 -343132.23 0M 38658800.00 17957802.96 m -188621.50 0 a 188621.50 188621.50 0 1 1 377243.00 0a 188621.50 188621.50 0 1 1 -377243.00 0M 32385000.00 23806202.96 m -188621.50 0 a 188621.50 188621.50 0 1 1 377243.00 0a 188621.50 188621.50 0 1 1 -377243.00 0M 37280800.00 23571202.96 m -188621.50 0 a 188621.50 188621.50 0 1 1 377243.00 0a 188621.50 188621.50 0 1 1 -377243.00 0M 37515800.00 23088602.96 m -188621.50 0 a 188621.50 188621.50 0 1 1 377243.00 0a 188621.50 188621.50 0 1 1 -377243.00 0M 38125400.00 24587202.96 m -188621.50 0 a 188621.50 188621.50 0 1 1 377243.00 0a 188621.50 188621.50 0 1 1 -377243.00 0M 31623000.00 25473602.96 m -188621.50 0 a 188621.50 188621.50 0 1 1 377243.00 0a 188621.50 188621.50 0 1 1 -377243.00 0M 32207200.00 26263602.96 m -188621.50 0 a 188621.50 188621.50 0 1 1 377243.00 0a 188621.50 188621.50 0 1 1 -377243.00 0M 33070800.00 27787602.96 m -188621.50 0 a 188621.50 188621.50 0 1 1 377243.00 0a 188621.50 188621.50 0 1 1 -377243.00 0M 35458400.00 27203402.96 m -188621.50 0 a 188621.50 188621.50 0 1 1 377243.00 0a 188621.50 188621.50 0 1 1 -377243.00 0M 36093400.00 25069802.96 m -188621.50 0 a 188621.50 188621.50 0 1 1 377243.00 0a 188621.50 188621.50 0 1 1 -377243.00 0M 37033200.00 25473602.96 m -188621.50 0 a 188621.50 188621.50 0 1 1 377243.00 0a 188621.50 188621.50 0 1 1 -377243.00 0M 37820600.00 26212802.96 m -188621.50 0 a 188621.50 188621.50 0 1 1 377243.00 0a 188621.50 188621.50 0 1 1 -377243.00 0M 36779200.00 27787602.96 m -188621.50 0 a 188621.50 188621.50 0 1 1 377243.00 0a 188621.50 188621.50 0 1 1 -377243.00 0M 39700200.00 16357602.96 m -188621.50 0 a 188621.50 188621.50 0 1 1 377243.00 0a 188621.50 188621.50 0 1 1 -377243.00 0M 41478200.00 16383002.96 m -188621.50 0 a 188621.50 188621.50 0 1 1 377243.00 0a 188621.50 188621.50 0 1 1 -377243.00 0M 43205400.00 16357602.96 m -188621.50 0 a 188621.50 188621.50 0 1 1 377243.00 0a 188621.50 188621.50 0 1 1 -377243.00 0M 44229030.00 16876180.30 m -171566.11 0 a 171566.11 171566.11 0 1 1 343132.23 0a 171566.11 171566.11 0 1 1 -343132.23 0M 38756590.00 16876180.30 m -171566.11 0 a 171566.11 171566.11 0 1 1 343132.23 0a 171566.11 171566.11 0 1 1 -343132.23 0M 44958000.00 23774402.96 m -188621.50 0 a 188621.50 188621.50 0 1 1 377243.00 0a 188621.50 188621.50 0 1 1 -377243.00 0M 42494200.00 24079202.96 m -188621.50 0 a 188621.50 188621.50 0 1 1 377243.00 0a 188621.50 188621.50 0 1 1 -377243.00 0M 43738800.00 24358602.96 m -188621.50 0 a 188621.50 188621.50 0 1 1 377243.00 0a 188621.50 188621.50 0 1 1 -377243.00 0M 40513000.00 26060402.96 m -188621.50 0 a 188621.50 188621.50 0 1 1 377243.00 0a 188621.50 188621.50 0 1 1 -377243.00 0M 40157400.00 27508202.96 m -188621.50 0 a 188621.50 188621.50 0 1 1 377243.00 0a 188621.50 188621.50 0 1 1 -377243.00 0M 42259200.00 25781002.96 m -188621.50 0 a 188621.50 188621.50 0 1 1 377243.00 0a 188621.50 188621.50 0 1 1 -377243.00 0M 41884600.00 26517602.96 m -188621.50 0 a 188621.50 188621.50 0 1 1 377243.00 0a 188621.50 188621.50 0 1 1 -377243.00 0M 43510200.00 24968202.96 m -188621.50 0 a 188621.50 188621.50 0 1 1 377243.00 0a 188621.50 188621.50 0 1 1 -377243.00 0M 44205926.00 24450276.96 m -188621.50 0 a 188621.50 188621.50 0 1 1 377243.00 0a 188621.50 188621.50 0 1 1 -377243.00 0M 42849800.00 25349202.96 m -188621.50 0 a 188621.50 188621.50 0 1 1 377243.00 0a 188621.50 188621.50 0 1 1 -377243.00 0M 43053000.00 26974802.96 m -188621.50 0 a 188621.50 188621.50 0 1 1 377243.00 0a 188621.50 188621.50 0 1 1 -377243.00 0M 31851600.00 28346402.96 m -188621.50 0 a 188621.50 188621.50 0 1 1 377243.00 0a 188621.50 188621.50 0 1 1 -377243.00 0M 32969200.00 30581602.96 m -188621.50 0 a 188621.50 188621.50 0 1 1 377243.00 0a 188621.50 188621.50 0 1 1 -377243.00 0M 32410400.00 32334202.96 m -188621.50 0 a 188621.50 188621.50 0 1 1 377243.00 0a 188621.50 188621.50 0 1 1 -377243.00 0M 32842200.00 32359602.96 m -188621.50 0 a 188621.50 188621.50 0 1 1 377243.00 0a 188621.50 188621.50 0 1 1 -377243.00 0M 32258000.00 32791402.96 m -188621.50 0 a 188621.50 188621.50 0 1 1 377243.00 0a 188621.50 188621.50 0 1 1 -377243.00 0M 31826200.00 33756602.96 m -188621.50 0 a 188621.50 188621.50 0 1 1 377243.00 0a 188621.50 188621.50 0 1 1 -377243.00 0M 32666000.00 34494800.00 L 32563883.08 34494800.00 L 32575254.00 34467348.00 L 32638548.00 34404054.00 L 32666000.00 34392683.08 L 32666000.00 34494800.00  zM 32968116.92 34494800.00 L 32866000.00 34494800.00 L 32866000.00 34392683.08 L 32893452.00 34404054.00 L 32956746.00 34467348.00 L 32968116.92 34494800.00  zM 36423600.00 28168602.96 m -188621.50 0 a 188621.50 188621.50 0 1 1 377243.00 0a 188621.50 188621.50 0 1 1 -377243.00 0M 34189660.00 31049408.30 m -171566.11 0 a 171566.11 171566.11 0 1 1 343132.23 0a 171566.11 171566.11 0 1 1 -343132.23 0M 38608000.00 29692602.96 m -188621.50 0 a 188621.50 188621.50 0 1 1 377243.00 0a 188621.50 188621.50 0 1 1 -377243.00 0M 37947600.00 31546797.00 m -312677.92 0 a 312677.92 312677.92 0 1 1 625355.84 0a 312677.92 312677.92 0 1 1 -625355.84 0M 32969200.00 33807402.96 m -188621.50 0 a 188621.50 188621.50 0 1 1 377243.00 0a 188621.50 188621.50 0 1 1 -377243.00 0M 35123034.00 34010602.96 m -188621.50 0 a 188621.50 188621.50 0 1 1 377243.00 0a 188621.50 188621.50 0 1 1 -377243.00 0M 35433000.00 33705802.96 m -188621.50 0 a 188621.50 188621.50 0 1 1 377243.00 0a 188621.50 188621.50 0 1 1 -377243.00 0M 36830000.00 33172402.96 m -188621.50 0 a 188621.50 188621.50 0 1 1 377243.00 0a 188621.50 188621.50 0 1 1 -377243.00 0M 39471600.00 28752802.96 m -188621.50 0 a 188621.50 188621.50 0 1 1 377243.00 0a 188621.50 188621.50 0 1 1 -377243.00 0M 39928800.00 28752802.96 m -188621.50 0 a 188621.50 188621.50 0 1 1 377243.00 0a 188621.50 188621.50 0 1 1 -377243.00 0M 38756590.00 31049408.30 m -171566.11 0 a 171566.11 171566.11 0 1 1 343132.23 0a 171566.11 171566.11 0 1 1 -343132.23 0M 39725600.00 30556202.96 m -188621.50 0 a 188621.50 188621.50 0 1 1 377243.00 0a 188621.50 188621.50 0 1 1 -377243.00 0M 39420800.00 32918402.96 m -188621.50 0 a 188621.50 188621.50 0 1 1 377243.00 0a 188621.50 188621.50 0 1 1 -377243.00 0M 39801800.00 32639002.96 m -188621.50 0 a 188621.50 188621.50 0 1 1 377243.00 0a 188621.50 188621.50 0 1 1 -377243.00 0M 40408206.00 33625165.00 L 40459696.25 33603836.62 L 40477994.49 33567001.22 L 40479190.76 33546999.53 L 40455000.00 33488599.00 L 40455000.00 33415001.00 L 40462101.98 33397855.65 L 40422962.41 33361689.85 L 40371999.00 33382800.00 A 188621.50 188621.50 0 1 1 40520200.00 33234599.00 L 40513098.02 33251744.35 L 40552237.59 33287910.15 L 40603201.00 33266800.00 A 188621.50 188621.50 0 0 1 40744794.00 33608635.00 L 40693303.75 33629963.38 L 40675005.51 33666798.78 L 40673809.24 33686800.47 L 40698000.00 33745201.00 A 188621.50 188621.50 0 1 1 40408206.00 33625165.00  zM 39496362.00 34594164.96 m -188621.50 0 a 188621.50 188621.50 0 1 1 377243.00 0a 188621.50 188621.50 0 1 1 -377243.00 0M 41275000.00 28143202.96 m -188621.50 0 a 188621.50 188621.50 0 1 1 377243.00 0a 188621.50 188621.50 0 1 1 -377243.00 0M 41656000.00 28575002.96 m -188621.50 0 a 188621.50 188621.50 0 1 1 377243.00 0a 188621.50 188621.50 0 1 1 -377243.00 0M 41040000.00 28752802.96 m -188621.50 0 a 188621.50 188621.50 0 1 1 377243.00 0a 188621.50 188621.50 0 1 1 -377243.00 0M 41503600.00 30556202.96 m -188621.50 0 a 188621.50 188621.50 0 1 1 377243.00 0a 188621.50 188621.50 0 1 1 -377243.00 0M 43230800.00 30556202.96 m -188621.50 0 a 188621.50 188621.50 0 1 1 377243.00 0a 188621.50 188621.50 0 1 1 -377243.00 0M 40513000.00 34569402.96 m -188621.50 0 a 188621.50 188621.50 0 1 1 377243.00 0a 188621.50 188621.50 0 1 1 -377243.00 0M 44229030.00 31049408.30 m -171566.11 0 a 171566.11 171566.11 0 1 1 343132.23 0a 171566.11 171566.11 0 1 1 -343132.23 0M 46157726.00 34025225.73 m -732822.99 0 a 732822.99 732822.99 0 1 1 1465645.99 0a 732822.99 732822.99 0 1 1 -1465645.99 0M 12130200.00 35220136.99 m -653707.74 0 a 653707.74 653707.74 0 1 1 1307415.48 0a 653707.74 653707.74 0 1 1 -1307415.48 0M 13614400.00 35077402.96 m -188621.50 0 a 188621.50 188621.50 0 1 1 377243.00 0a 188621.50 188621.50 0 1 1 -377243.00 0M 14198600.00 35458402.96 m -188621.50 0 a 188621.50 188621.50 0 1 1 377243.00 0a 188621.50 188621.50 0 1 1 -377243.00 0M 14097000.00 36017202.96 m -188621.50 0 a 188621.50 188621.50 0 1 1 377243.00 0a 188621.50 188621.50 0 1 1 -377243.00 0M 11963400.00 36499802.96 m -188621.50 0 a 188621.50 188621.50 0 1 1 377243.00 0a 188621.50 188621.50 0 1 1 -377243.00 0M 12130200.00 37720142.86 m -263040.40 0 a 263040.40 263040.40 0 1 1 526080.80 0a 263040.40 263040.40 0 1 1 -526080.80 0M 12598400.00 36220402.96 m -188621.50 0 a 188621.50 188621.50 0 1 1 377243.00 0a 188621.50 188621.50 0 1 1 -377243.00 0M 14630400.00 36245802.96 m -188621.50 0 a 188621.50 188621.50 0 1 1 377243.00 0a 188621.50 188621.50 0 1 1 -377243.00 0M 14935200.00 35179002.96 m -188621.50 0 a 188621.50 188621.50 0 1 1 377243.00 0a 188621.50 188621.50 0 1 1 -377243.00 0M 15088000.00 35738672.96 m -188621.50 0 a 188621.50 188621.50 0 1 1 377243.00 0a 188621.50 188621.50 0 1 1 -377243.00 0M 18706696.00 35105975.48 m -201667.62 0 a 201667.62 201667.62 0 1 1 403335.25 0a 201667.62 201667.62 0 1 1 -403335.25 0M 19206696.00 35105975.48 m -201667.62 0 a 201667.62 201667.62 0 1 1 403335.25 0a 201667.62 201667.62 0 1 1 -403335.25 0M 19706696.00 35105975.48 m -201667.62 0 a 201667.62 201667.62 0 1 1 403335.25 0a 201667.62 201667.62 0 1 1 -403335.25 0M 19558000.00 35610802.96 m -188621.50 0 a 188621.50 188621.50 0 1 1 377243.00 0a 188621.50 188621.50 0 1 1 -377243.00 0M 20206696.00 35105975.48 m -201667.62 0 a 201667.62 201667.62 0 1 1 403335.25 0a 201667.62 201667.62 0 1 1 -403335.25 0M 20548600.00 35636202.96 m -188621.50 0 a 188621.50 188621.50 0 1 1 377243.00 0a 188621.50 188621.50 0 1 1 -377243.00 0M 20706696.00 35105975.48 m -201667.62 0 a 201667.62 201667.62 0 1 1 403335.25 0a 201667.62 201667.62 0 1 1 -403335.25 0M 21206696.00 35105975.48 m -201667.62 0 a 201667.62 201667.62 0 1 1 403335.25 0a 201667.62 201667.62 0 1 1 -403335.25 0M 21706696.00 35105975.48 m -201667.62 0 a 201667.62 201667.62 0 1 1 403335.25 0a 201667.62 201667.62 0 1 1 -403335.25 0M 21539200.00 35636202.96 m -188621.50 0 a 188621.50 188621.50 0 1 1 377243.00 0a 188621.50 188621.50 0 1 1 -377243.00 0M 22206696.00 35105975.48 m -201667.62 0 a 201667.62 201667.62 0 1 1 403335.25 0a 201667.62 201667.62 0 1 1 -403335.25 0M 23063200.00 34594802.96 m -188621.50 0 a 188621.50 188621.50 0 1 1 377243.00 0a 188621.50 188621.50 0 1 1 -377243.00 0M 22706696.00 35105975.48 m -201667.62 0 a 201667.62 201667.62 0 1 1 403335.25 0a 201667.62 201667.62 0 1 1 -403335.25 0M 22555200.00 35636202.96 m -188621.50 0 a 188621.50 188621.50 0 1 1 377243.00 0a 188621.50 188621.50 0 1 1 -377243.00 0M 24104600.00 34620202.96 m -188621.50 0 a 188621.50 188621.50 0 1 1 377243.00 0a 188621.50 188621.50 0 1 1 -377243.00 0M 23706696.00 35105975.48 m -201667.62 0 a 201667.62 201667.62 0 1 1 403335.25 0a 201667.62 201667.62 0 1 1 -403335.25 0M 23206696.00 35105975.48 m -201667.62 0 a 201667.62 201667.62 0 1 1 403335.25 0a 201667.62 201667.62 0 1 1 -403335.25 0M 23723600.00 35610802.96 m -188621.50 0 a 188621.50 188621.50 0 1 1 377243.00 0a 188621.50 188621.50 0 1 1 -377243.00 0M 24206696.00 35105975.48 m -201667.62 0 a 201667.62 201667.62 0 1 1 403335.25 0a 201667.62 201667.62 0 1 1 -403335.25 0M 24612600.00 35585402.96 m -188621.50 0 a 188621.50 188621.50 0 1 1 377243.00 0a 188621.50 188621.50 0 1 1 -377243.00 0M 24706696.00 35105975.48 m -201667.62 0 a 201667.62 201667.62 0 1 1 403335.25 0a 201667.62 201667.62 0 1 1 -403335.25 0M 25206696.00 35105975.48 m -201667.62 0 a 201667.62 201667.62 0 1 1 403335.25 0a 201667.62 201667.62 0 1 1 -403335.25 0M 11499294.00 38245496.96 m -188621.50 0 a 188621.50 188621.50 0 1 1 377243.00 0a 188621.50 188621.50 0 1 1 -377243.00 0M 12130200.00 38720142.86 m -263040.40 0 a 263040.40 263040.40 0 1 1 526080.80 0a 263040.40 263040.40 0 1 1 -526080.80 0M 12761106.00 38165896.96 m -188621.50 0 a 188621.50 188621.50 0 1 1 377243.00 0a 188621.50 188621.50 0 1 1 -377243.00 0M 12996106.00 39268402.96 m -188621.50 0 a 188621.50 188621.50 0 1 1 377243.00 0a 188621.50 188621.50 0 1 1 -377243.00 0M 12130200.00 39720142.86 m -263040.40 0 a 263040.40 263040.40 0 1 1 526080.80 0a 263040.40 263040.40 0 1 1 -526080.80 0M 12761106.00 40147096.96 m -188621.50 0 a 188621.50 188621.50 0 1 1 377243.00 0a 188621.50 188621.50 0 1 1 -377243.00 0M 12130200.00 40720142.86 m -263040.40 0 a 263040.40 263040.40 0 1 1 526080.80 0a 263040.40 263040.40 0 1 1 -526080.80 0M 12130200.00 41720142.86 m -263040.40 0 a 263040.40 263040.40 0 1 1 526080.80 0a 263040.40 263040.40 0 1 1 -526080.80 0M 12130200.00 42720142.86 m -263040.40 0 a 263040.40 263040.40 0 1 1 526080.80 0a 263040.40 263040.40 0 1 1 -526080.80 0M 12130200.00 43720142.86 m -263040.40 0 a 263040.40 263040.40 0 1 1 526080.80 0a 263040.40 263040.40 0 1 1 -526080.80 0M 12130200.00 44720142.86 m -263040.40 0 a 263040.40 263040.40 0 1 1 526080.80 0a 263040.40 263040.40 0 1 1 -526080.80 0M 12130200.00 45720142.86 m -263040.40 0 a 263040.40 263040.40 0 1 1 526080.80 0a 263040.40 263040.40 0 1 1 -526080.80 0M 12130200.00 46720142.86 m -263040.40 0 a 263040.40 263040.40 0 1 1 526080.80 0a 263040.40 263040.40 0 1 1 -526080.80 0M 12130200.00 47720142.86 m -263040.40 0 a 263040.40 263040.40 0 1 1 526080.80 0a 263040.40 263040.40 0 1 1 -526080.80 0M 12130200.00 48720142.86 m -263040.40 0 a 263040.40 263040.40 0 1 1 526080.80 0a 263040.40 263040.40 0 1 1 -526080.80 0M 12130200.00 49720142.86 m -263040.40 0 a 263040.40 263040.40 0 1 1 526080.80 0a 263040.40 263040.40 0 1 1 -526080.80 0M 12130200.00 50720142.86 m -263040.40 0 a 263040.40 263040.40 0 1 1 526080.80 0a 263040.40 263040.40 0 1 1 -526080.80 0M 12130200.00 51720142.86 m -263040.40 0 a 263040.40 263040.40 0 1 1 526080.80 0a 263040.40 263040.40 0 1 1 -526080.80 0M 12130200.00 52720142.86 m -263040.40 0 a 263040.40 263040.40 0 1 1 526080.80 0a 263040.40 263040.40 0 1 1 -526080.80 0M 12130200.00 53720142.86 m -263040.40 0 a 263040.40 263040.40 0 1 1 526080.80 0a 263040.40 263040.40 0 1 1 -526080.80 0M 12130200.00 55720142.86 m -263040.40 0 a 263040.40 263040.40 0 1 1 526080.80 0a 263040.40 263040.40 0 1 1 -526080.80 0M 12130200.00 56720142.86 m -263040.40 0 a 263040.40 263040.40 0 1 1 526080.80 0a 263040.40 263040.40 0 1 1 -526080.80 0M 12130200.00 54720142.86 m -263040.40 0 a 263040.40 263040.40 0 1 1 526080.80 0a 263040.40 263040.40 0 1 1 -526080.80 0M 15199376.19 58361164.23 L 15140396.37 58349432.63 L 15116194.00 58373635.00 A 188621.50 188621.50 0 1 1 15168546.81 58112758.77 L 15227526.63 58124490.37 L 15251729.00 58100288.00 A 188621.50 188621.50 0 0 1 15513358.00 58152329.00 L 15522110.67 58173459.41 L 15576230.90 58173459.41 L 15591165.00 58137406.00 A 188626.87 188626.87 0 1 1 15591165.00 58346994.00 L 15582412.33 58325863.59 L 15528292.10 58325863.59 L 15513358.00 58361917.00 A 188626.87 188626.87 0 0 1 15199376.19 58361164.23  zM 12130200.00 59220136.99 m -653707.74 0 a 653707.74 653707.74 0 1 1 1307415.48 0a 653707.74 653707.74 0 1 1 -1307415.48 0M 13244633.00 59624657.00 L 13244633.00 59034105.00 A 241812.08 241812.08 0 0 1 13728255.00 59034105.00 L 13728255.00 59624657.00 A 241812.08 241812.08 0 0 1 13244633.00 59624657.00  zM 13244633.00 60817570.00 L 13244633.00 60502610.00 A 241812.08 241812.08 0 0 1 13728255.00 60502610.00 L 13728255.00 60817570.00 A 241812.08 241812.08 0 0 1 13244633.00 60817570.00  zM 16253993.00 59634389.00 L 16225801.40 59606197.40 L 16193137.00 59586365.34 L 16160472.60 59606197.40 L 16132281.00 59634389.00 A 191636.82 191636.82 0 0 1 15919347.00 59634389.00 L 15891155.90 59606197.90 L 15858491.50 59586365.20 L 15825827.10 59606197.90 L 15797636.00 59634389.00 A 191636.82 191636.82 0 0 1 15584702.00 59634389.00 L 15556510.40 59606197.40 L 15523846.00 59586365.34 L 15491181.60 59606197.40 L 15462990.00 59634389.00 A 191636.82 191636.82 0 0 1 15250056.00 59634389.00 L 15221864.40 59606197.40 L 15189200.00 59586365.34 L 15156535.60 59606197.40 L 15128344.00 59634389.00 A 191636.82 191636.82 0 0 1 14915410.00 59634389.00 L 14887218.40 59606197.40 L 14854554.00 59586365.34 L 14821889.60 59606197.40 L 14793698.00 59634389.00 A 191636.82 191636.82 0 0 1 14580764.00 59634389.00 L 14552572.90 59606197.90 L 14519908.50 59586365.20 L 14487244.10 59606197.90 L 14459053.00 59634389.00 A 191636.82 191636.82 0 0 1 14246119.00 59634389.00 L 14217927.40 59606197.40 L 14185263.00 59586365.34 L 14152598.60 59606197.40 L 14124407.00 59634389.00 A 191636.82 191636.82 0 1 1 14124407.00 59315711.00 L 14152598.60 59343902.60 L 14185263.00 59363734.66 L 14217927.40 59343902.60 L 14246119.00 59315711.00 A 191636.82 191636.82 0 0 1 14459053.00 59315711.00 L 14487244.10 59343902.10 L 14519908.50 59363734.80 L 14552572.90 59343902.10 L 14580764.00 59315711.00 A 191636.82 191636.82 0 0 1 14793698.00 59315711.00 L 14821889.60 59343902.60 L 14854554.00 59363734.66 L 14887218.40 59343902.60 L 14915410.00 59315711.00 A 191636.82 191636.82 0 0 1 15128344.00 59315711.00 L 15156535.60 59343902.60 L 15189200.00 59363734.66 L 15221864.40 59343902.60 L 15250056.00 59315711.00 A 191636.82 191636.82 0 0 1 15462990.00 59315711.00 L 15491181.60 59343902.60 L 15523846.00 59363734.66 L 15556510.40 59343902.60 L 15584702.00 59315711.00 A 191636.82 191636.82 0 0 1 15797636.00 59315711.00 L 15825827.10 59343902.10 L 15858491.50 59363734.80 L 15891155.90 59343902.10 L 15919347.00 59315711.00 A 191636.82 191636.82 0 0 1 16132281.00 59315711.00 L 16160472.60 59343902.60 L 16193137.00 59363734.66 L 16225801.40 59343902.60 L 16253993.00 59315711.00 A 191636.82 191636.82 0 1 1 16253993.00 59634389.00  zM 16253993.00 59102893.00 L 16225801.40 59074701.40 L 16193137.00 59054869.34 L 16160472.60 59074701.40 L 16132281.00 59102893.00 A 191636.82 191636.82 0 0 1 15919347.00 59102893.00 L 15891155.90 59074701.90 L 15858491.50 59054869.20 L 15825827.10 59074701.90 L 15797636.00 59102893.00 A 191636.82 191636.82 0 0 1 15584702.00 59102893.00 L 15556510.40 59074701.40 L 15523846.00 59054869.34 L 15491181.60 59074701.40 L 15462990.00 59102893.00 A 191636.82 191636.82 0 0 1 15250056.00 59102893.00 L 15221864.40 59074701.40 L 15189200.00 59054869.34 L 15156535.60 59074701.40 L 15128344.00 59102893.00 A 191636.82 191636.82 0 0 1 14915410.00 59102893.00 L 14887218.40 59074701.40 L 14854554.00 59054869.34 L 14821889.60 59074701.40 L 14793698.00 59102893.00 A 191636.82 191636.82 0 0 1 14580764.00 59102893.00 L 14552572.90 59074701.90 L 14519908.50 59054869.20 L 14487244.10 59074701.90 L 14459053.00 59102893.00 A 191636.82 191636.82 0 0 1 14246119.00 59102893.00 L 14217927.40 59074701.40 L 14185263.00 59054869.34 L 14152598.60 59074701.40 L 14124407.00 59102893.00 A 191636.82 191636.82 0 1 1 14124407.00 58784215.00 L 14152598.60 58812406.60 L 14185263.00 58832238.66 L 14217927.40 58812406.60 L 14246119.00 58784215.00 A 191636.82 191636.82 0 0 1 14459053.00 58784215.00 L 14487244.10 58812406.10 L 14519908.50 58832238.80 L 14552572.90 58812406.10 L 14580764.00 58784215.00 A 191636.82 191636.82 0 0 1 14793698.00 58784215.00 L 14821889.60 58812406.60 L 14854554.00 58832238.66 L 14887218.40 58812406.60 L 14915410.00 58784215.00 A 191636.82 191636.82 0 0 1 15128344.00 58784215.00 L 15156535.60 58812406.60 L 15189200.00 58832238.66 L 15221864.40 58812406.60 L 15250056.00 58784215.00 A 191636.82 191636.82 0 0 1 15462990.00 58784215.00 L 15491181.60 58812406.60 L 15523846.00 58832238.66 L 15556510.40 58812406.60 L 15584702.00 58784215.00 A 191636.82 191636.82 0 0 1 15797636.00 58784215.00 L 15825827.10 58812406.10 L 15858491.50 58832238.80 L 15891155.90 58812406.10 L 15919347.00 58784215.00 A 191636.82 191636.82 0 0 1 16132281.00 58784215.00 L 16160472.60 58812406.60 L 16193137.00 58832238.66 L 16225801.40 58812406.60 L 16253993.00 58784215.00 A 191636.82 191636.82 0 1 1 16253993.00 59102893.00  zM 16650145.00 59624657.00 L 16650145.00 59034105.00 A 241812.08 241812.08 0 0 1 17133767.00 59034105.00 L 17133767.00 59624657.00 A 241812.08 241812.08 0 0 1 16650145.00 59624657.00  zM 18008600.00 59029602.96 m -188621.50 0 a 188621.50 188621.50 0 1 1 377243.00 0a 188621.50 188621.50 0 1 1 -377243.00 0M 16650145.00 60817570.00 L 16650145.00 60502610.00 A 241812.08 241812.08 0 0 1 17133767.00 60502610.00 L 17133767.00 60817570.00 A 241812.08 241812.08 0 0 1 16650145.00 60817570.00  zM 26035000.00 34594802.96 m -188621.50 0 a 188621.50 188621.50 0 1 1 377243.00 0a 188621.50 188621.50 0 1 1 -377243.00 0M 25706696.00 35105975.48 m -201667.62 0 a 201667.62 201667.62 0 1 1 403335.25 0a 201667.62 201667.62 0 1 1 -403335.25 0M 26206696.00 35105975.48 m -201667.62 0 a 201667.62 201667.62 0 1 1 403335.25 0a 201667.62 201667.62 0 1 1 -403335.25 0M 26706696.00 35105975.48 m -201667.62 0 a 201667.62 201667.62 0 1 1 403335.25 0a 201667.62 201667.62 0 1 1 -403335.25 0M 27051000.00 34594802.96 m -188621.50 0 a 188621.50 188621.50 0 1 1 377243.00 0a 188621.50 188621.50 0 1 1 -377243.00 0M 27206696.00 35105975.48 m -201667.62 0 a 201667.62 201667.62 0 1 1 403335.25 0a 201667.62 201667.62 0 1 1 -403335.25 0M 28092400.00 34594802.96 m -188621.50 0 a 188621.50 188621.50 0 1 1 377243.00 0a 188621.50 188621.50 0 1 1 -377243.00 0M 27706696.00 35105975.48 m -201667.62 0 a 201667.62 201667.62 0 1 1 403335.25 0a 201667.62 201667.62 0 1 1 -403335.25 0M 28206696.00 35105975.48 m -201667.62 0 a 201667.62 201667.62 0 1 1 403335.25 0a 201667.62 201667.62 0 1 1 -403335.25 0M 30757725.00 35075225.73 m -732822.99 0 a 732822.99 732822.99 0 1 1 1465645.99 0a 732822.99 732822.99 0 1 1 -1465645.99 0M 32143704.00 35105975.48 m -201667.62 0 a 201667.62 201667.62 0 1 1 403335.25 0a 201667.62 201667.62 0 1 1 -403335.25 0M 32666000.00 34796916.92 L 32638548.00 34785546.00 L 32575254.00 34722252.00 L 32563883.08 34694800.00 L 32666000.00 34694800.00 L 32666000.00 34796916.92  zM 32866000.00 34796916.92 L 32866000.00 34694800.00 L 32968116.92 34694800.00 L 32956746.00 34722252.00 L 32893452.00 34785546.00 L 32866000.00 34796916.92  zM 32643704.00 35105975.48 m -201667.62 0 a 201667.62 201667.62 0 1 1 403335.25 0a 201667.62 201667.62 0 1 1 -403335.25 0M 33143704.00 35105975.48 m -201667.62 0 a 201667.62 201667.62 0 1 1 403335.25 0a 201667.62 201667.62 0 1 1 -403335.25 0M 33643704.00 35105975.48 m -201667.62 0 a 201667.62 201667.62 0 1 1 403335.25 0a 201667.62 201667.62 0 1 1 -403335.25 0M 34143704.00 35105975.48 m -201667.62 0 a 201667.62 201667.62 0 1 1 403335.25 0a 201667.62 201667.62 0 1 1 -403335.25 0M 34643704.00 35105975.48 m -201667.62 0 a 201667.62 201667.62 0 1 1 403335.25 0a 201667.62 201667.62 0 1 1 -403335.25 0M 35143704.00 35105975.48 m -201667.62 0 a 201667.62 201667.62 0 1 1 403335.25 0a 201667.62 201667.62 0 1 1 -403335.25 0M 35643704.00 35105975.48 m -201667.62 0 a 201667.62 201667.62 0 1 1 403335.25 0a 201667.62 201667.62 0 1 1 -403335.25 0M 36143704.00 35105975.48 m -201667.62 0 a 201667.62 201667.62 0 1 1 403335.25 0a 201667.62 201667.62 0 1 1 -403335.25 0M 36643704.00 35105975.48 m -201667.62 0 a 201667.62 201667.62 0 1 1 403335.25 0a 201667.62 201667.62 0 1 1 -403335.25 0M 37143704.00 35105975.48 m -201667.62 0 a 201667.62 201667.62 0 1 1 403335.25 0a 201667.62 201667.62 0 1 1 -403335.25 0M 37643704.00 35105975.48 m -201667.62 0 a 201667.62 201667.62 0 1 1 403335.25 0a 201667.62 201667.62 0 1 1 -403335.25 0M 38143704.00 35105975.48 m -201667.62 0 a 201667.62 201667.62 0 1 1 403335.25 0a 201667.62 201667.62 0 1 1 -403335.25 0M 38643704.00 35105975.48 m -201667.62 0 a 201667.62 201667.62 0 1 1 403335.25 0a 201667.62 201667.62 0 1 1 -403335.25 0M 39143704.00 35105975.48 m -201667.62 0 a 201667.62 201667.62 0 1 1 403335.25 0a 201667.62 201667.62 0 1 1 -403335.25 0M 39643704.00 35105975.48 m -201667.62 0 a 201667.62 201667.62 0 1 1 403335.25 0a 201667.62 201667.62 0 1 1 -403335.25 0M 40143704.00 35105975.48 m -201667.62 0 a 201667.62 201667.62 0 1 1 403335.25 0a 201667.62 201667.62 0 1 1 -403335.25 0M 40643704.00 35105975.48 m -201667.62 0 a 201667.62 201667.62 0 1 1 403335.25 0a 201667.62 201667.62 0 1 1 -403335.25 0M 41143704.00 35105975.48 m -201667.62 0 a 201667.62 201667.62 0 1 1 403335.25 0a 201667.62 201667.62 0 1 1 -403335.25 0M 41643704.00 35105975.48 m -201667.62 0 a 201667.62 201667.62 0 1 1 403335.25 0a 201667.62 201667.62 0 1 1 -403335.25 0M 25621616.00 35617786.96 m -188621.50 0 a 188621.50 188621.50 0 1 1 377243.00 0a 188621.50 188621.50 0 1 1 -377243.00 0M 26517600.00 35610802.96 m -188621.50 0 a 188621.50 188621.50 0 1 1 377243.00 0a 188621.50 188621.50 0 1 1 -377243.00 0M 27584400.00 35610802.96 m -188621.50 0 a 188621.50 188621.50 0 1 1 377243.00 0a 188621.50 188621.50 0 1 1 -377243.00 0M 28727400.00 35610802.96 m -188621.50 0 a 188621.50 188621.50 0 1 1 377243.00 0a 188621.50 188621.50 0 1 1 -377243.00 0M 33174000.00 35510800.00 L 33071883.08 35510800.00 L 33083254.00 35483348.00 L 33146548.00 35420054.00 L 33174000.00 35408683.08 L 33174000.00 35510800.00  zM 33174000.00 35812916.92 L 33146548.00 35801546.00 L 33083254.00 35738252.00 L 33071883.08 35710800.00 L 33174000.00 35710800.00 L 33174000.00 35812916.92  zM 33476116.92 35510800.00 L 33374000.00 35510800.00 L 33374000.00 35408683.08 L 33401452.00 35420054.00 L 33464746.00 35483348.00 L 33476116.92 35510800.00  zM 33374000.00 35812916.92 L 33374000.00 35710800.00 L 33476116.92 35710800.00 L 33464746.00 35738252.00 L 33401452.00 35801546.00 L 33374000.00 35812916.92  zM 39998016.00 35617786.96 m -188621.50 0 a 188621.50 188621.50 0 1 1 377243.00 0a 188621.50 188621.50 0 1 1 -377243.00 0M 41122600.00 35636202.96 m -188621.50 0 a 188621.50 188621.50 0 1 1 377243.00 0a 188621.50 188621.50 0 1 1 -377243.00 0M 48220200.00 35220136.99 m -653707.74 0 a 653707.74 653707.74 0 1 1 1307415.48 0a 653707.74 653707.74 0 1 1 -1307415.48 0M 48220200.00 39720142.86 m -263040.40 0 a 263040.40 263040.40 0 1 1 526080.80 0a 263040.40 263040.40 0 1 1 -526080.80 0M 48220200.00 37720142.86 m -263040.40 0 a 263040.40 263040.40 0 1 1 526080.80 0a 263040.40 263040.40 0 1 1 -526080.80 0M 48220200.00 38720142.86 m -263040.40 0 a 263040.40 263040.40 0 1 1 526080.80 0a 263040.40 263040.40 0 1 1 -526080.80 0M 48220200.00 40720142.86 m -263040.40 0 a 263040.40 263040.40 0 1 1 526080.80 0a 263040.40 263040.40 0 1 1 -526080.80 0M 48220200.00 41720142.86 m -263040.40 0 a 263040.40 263040.40 0 1 1 526080.80 0a 263040.40 263040.40 0 1 1 -526080.80 0M 48220200.00 42720142.86 m -263040.40 0 a 263040.40 263040.40 0 1 1 526080.80 0a 263040.40 263040.40 0 1 1 -526080.80 0M 48220200.00 43720142.86 m -263040.40 0 a 263040.40 263040.40 0 1 1 526080.80 0a 263040.40 263040.40 0 1 1 -526080.80 0M 48220200.00 44720142.86 m -263040.40 0 a 263040.40 263040.40 0 1 1 526080.80 0a 263040.40 263040.40 0 1 1 -526080.80 0M 48220200.00 45720142.86 m -263040.40 0 a 263040.40 263040.40 0 1 1 526080.80 0a 263040.40 263040.40 0 1 1 -526080.80 0M 48220200.00 46720142.86 m -263040.40 0 a 263040.40 263040.40 0 1 1 526080.80 0a 263040.40 263040.40 0 1 1 -526080.80 0M 48220200.00 47720142.86 m -263040.40 0 a 263040.40 263040.40 0 1 1 526080.80 0a 263040.40 263040.40 0 1 1 -526080.80 0M 48220200.00 48720142.86 m -263040.40 0 a 263040.40 263040.40 0 1 1 526080.80 0a 263040.40 263040.40 0 1 1 -526080.80 0M 48220200.00 49720142.86 m -263040.40 0 a 263040.40 263040.40 0 1 1 526080.80 0a 263040.40 263040.40 0 1 1 -526080.80 0M 48220200.00 50720142.86 m -263040.40 0 a 263040.40 263040.40 0 1 1 526080.80 0a 263040.40 263040.40 0 1 1 -526080.80 0M 48220200.00 51720142.86 m -263040.40 0 a 263040.40 263040.40 0 1 1 526080.80 0a 263040.40 263040.40 0 1 1 -526080.80 0M 48220200.00 52720142.86 m -263040.40 0 a 263040.40 263040.40 0 1 1 526080.80 0a 263040.40 263040.40 0 1 1 -526080.80 0M 48220200.00 53720142.86 m -263040.40 0 a 263040.40 263040.40 0 1 1 526080.80 0a 263040.40 263040.40 0 1 1 -526080.80 0M 48220200.00 54720142.86 m -263040.40 0 a 263040.40 263040.40 0 1 1 526080.80 0a 263040.40 263040.40 0 1 1 -526080.80 0M 48220200.00 55720142.86 m -263040.40 0 a 263040.40 263040.40 0 1 1 526080.80 0a 263040.40 263040.40 0 1 1 -526080.80 0M 48220200.00 56720142.86 m -263040.40 0 a 263040.40 263040.40 0 1 1 526080.80 0a 263040.40 263040.40 0 1 1 -526080.80 0M 48220200.00 59220136.99 m -653707.74 0 a 653707.74 653707.74 0 1 1 1307415.48 0a 653707.74 653707.74 0 1 1 -1307415.48 0"/>
<path id="N" d="M 23723593.87 35610793.87 m -127457.60 0 a 127457.60 127457.60 0 1 1 254915.19 0a 127457.60 127457.60 0 1 1 -254915.19 0"/>
<path id="N" d="M 42849793.87 25349193.87 m -127457.60 0 a 127457.60 127457.60 0 1 1 254915.19 0a 127457.60 127457.60 0 1 1 -254915.19 0"/>
<path id="N" d="M 36423593.87 28168593.87 m -127457.60 0 a 127457.60 127457.60 0 1 1 254915.19 0a 127457.60 127457.60 0 1 1 -254915.19 0"/>
<path id="N" d="M 29546593.87 28111393.87 m -127457.60 0 a 127457.60 127457.60 0 1 1 254915.19 0a 127457.60 127457.60 0 1 1 -254915.19 0"/>
<path id="N" d="M 14687231.38 59475050.38 m -130459.26 0 a 130459.26 130459.26 0 1 1 260918.51 0a 130459.26 130459.26 0 1 1 -260918.51 0M 14687230.76 59475048.92 m -80284.08 0 a 80284.08 80284.08 0 1 1 160568.17 0a 80284.08 80284.08 0 1 1 -160568.17 0"/>
<path id="N" d="M 15691169.38 58943554.38 m -130459.26 0 a 130459.26 130459.26 0 1 1 260918.51 0a 130459.26 130459.26 0 1 1 -260918.51 0M 15691168.76 58943552.92 m -80284.08 0 a 80284.08 80284.08 0 1 1 160568.17 0a 80284.08 80284.08 0 1 1 -160568.17 0"/>
<path id="N" d="M 43052993.87 26974793.87 m -127457.60 0 a 127457.60 127457.60 0 1 1 254915.19 0a 127457.60 127457.60 0 1 1 -254915.19 0"/>
<path id="N" d="M 27584393.87 35610793.87 m -127457.60 0 a 127457.60 127457.60 0 1 1 254915.19 0a 127457.60 127457.60 0 1 1 -254915.19 0"/>
<path id="N" d="M 35432993.87 33705793.87 m -127457.60 0 a 127457.60 127457.60 0 1 1 254915.19 0a 127457.60 127457.60 0 1 1 -254915.19 0"/>
<path id="N" d="M 41655993.87 28574993.87 m -127457.60 0 a 127457.60 127457.60 0 1 1 254915.19 0a 127457.60 127457.60 0 1 1 -254915.19 0"/>
<path id="N" d="M 21529797.35 16103593.57 m -297829.90 0 a 297829.90 297829.90 0 1 1 595659.80 0a 297829.90 297829.90 0 1 1 -595659.80 0M 21529800.44 16103598.65 m -180637.35 0 a 180637.35 180637.35 0 1 1 361274.69 0a 180637.35 180637.35 0 1 1 -361274.69 0"/>
<path id="N" d="M 16060422.00 16959580.00 L 15587982.00 16959580.00 L 15587982.00 17432020.00 L 16060422.00 17432020.00 L 16060422.00 16959580.00  zM 15824204.38 17195794.09 m -140500.91 0 a 140500.91 140500.91 0 1 1 281001.82 0a 140500.91 140500.91 0 1 1 -281001.82 0"/>
<path id="N" d="M 19337020.00 16959580.00 L 18864580.00 16959580.00 L 18864580.00 17432020.00 L 19337020.00 17432020.00 L 19337020.00 16959580.00  zM 19100802.38 17195794.09 m -140500.91 0 a 140500.91 140500.91 0 1 1 281001.82 0a 140500.91 140500.91 0 1 1 -281001.82 0"/>
<path id="N" d="M 39471593.87 28752793.87 m -127457.60 0 a 127457.60 127457.60 0 1 1 254915.19 0a 127457.60 127457.60 0 1 1 -254915.19 0"/>
<path id="N" d="M 39801793.87 32638993.87 m -127457.60 0 a 127457.60 127457.60 0 1 1 254915.19 0a 127457.60 127457.60 0 1 1 -254915.19 0"/>
<path id="N" d="M 14935193.87 35178993.87 m -127457.60 0 a 127457.60 127457.60 0 1 1 254915.19 0a 127457.60 127457.60 0 1 1 -254915.19 0"/>
<path id="N" d="M 31216593.87 33223193.87 m -127457.60 0 a 127457.60 127457.60 0 1 1 254915.19 0a 127457.60 127457.60 0 1 1 -254915.19 0"/>
<path id="N" d="M 19557993.87 35610793.87 m -127457.60 0 a 127457.60 127457.60 0 1 1 254915.19 0a 127457.60 127457.60 0 1 1 -254915.19 0"/>
<path id="N" d="M 42494193.87 24079193.87 m -127457.60 0 a 127457.60 127457.60 0 1 1 254915.19 0a 127457.60 127457.60 0 1 1 -254915.19 0"/>
<path id="N" d="M 35458393.87 27203393.87 m -127457.60 0 a 127457.60 127457.60 0 1 1 254915.19 0a 127457.60 127457.60 0 1 1 -254915.19 0"/>
<path id="N" d="M 28092393.87 34594793.87 m -127457.60 0 a 127457.60 127457.60 0 1 1 254915.19 0a 127457.60 127457.60 0 1 1 -254915.19 0"/>
<path id="N" d="M 30022793.87 32613593.87 m -127457.60 0 a 127457.60 127457.60 0 1 1 254915.19 0a 127457.60 127457.60 0 1 1 -254915.19 0"/>
<path id="N" d="M 13258793.87 34543993.87 m -127457.60 0 a 127457.60 127457.60 0 1 1 254915.19 0a 127457.60 127457.60 0 1 1 -254915.19 0"/>
<path id="N" d="M 32969193.87 33807393.87 m -127457.60 0 a 127457.60 127457.60 0 1 1 254915.19 0a 127457.60 127457.60 0 1 1 -254915.19 0"/>
<path id="N" d="M 12598393.87 36220393.87 m -127457.60 0 a 127457.60 127457.60 0 1 1 254915.19 0a 127457.60 127457.60 0 1 1 -254915.19 0"/>
<path id="N" d="M 40335193.87 33197793.87 m -127457.60 0 a 127457.60 127457.60 0 1 1 254915.19 0a 127457.60 127457.60 0 1 1 -254915.19 0"/>
<path id="N" d="M 39496355.87 34594155.87 m -127457.60 0 a 127457.60 127457.60 0 1 1 254915.19 0a 127457.60 127457.60 0 1 1 -254915.19 0"/>
<path id="N" d="M 30683193.87 23367993.87 m -127457.60 0 a 127457.60 127457.60 0 1 1 254915.19 0a 127457.60 127457.60 0 1 1 -254915.19 0"/>
<path id="N" d="M 44205919.87 24450267.87 m -127457.60 0 a 127457.60 127457.60 0 1 1 254915.19 0a 127457.60 127457.60 0 1 1 -254915.19 0"/>
<path id="N" d="M 29700193.87 32265593.87 m -127457.60 0 a 127457.60 127457.60 0 1 1 254915.19 0a 127457.60 127457.60 0 1 1 -254915.19 0"/>
<path id="N" d="M 13004793.87 33908993.87 m -127457.60 0 a 127457.60 127457.60 0 1 1 254915.19 0a 127457.60 127457.60 0 1 1 -254915.19 0"/>
<path id="N" d="M 32384993.87 23806193.87 m -127457.60 0 a 127457.60 127457.60 0 1 1 254915.19 0a 127457.60 127457.60 0 1 1 -254915.19 0"/>
<path id="N" d="M 44957993.87 23774393.87 m -127457.60 0 a 127457.60 127457.60 0 1 1 254915.19 0a 127457.60 127457.60 0 1 1 -254915.19 0"/>
<path id="N" d="M 27050993.87 34594793.87 m -127457.60 0 a 127457.60 127457.60 0 1 1 254915.19 0a 127457.60 127457.60 0 1 1 -254915.19 0"/>
<path id="N" d="M 29921193.87 26746193.87 m -127457.60 0 a 127457.60 127457.60 0 1 1 254915.19 0a 127457.60 127457.60 0 1 1 -254915.19 0"/>
<path id="N" d="M 25069793.87 34569393.87 m -127457.60 0 a 127457.60 127457.60 0 1 1 254915.19 0a 127457.60 127457.60 0 1 1 -254915.19 0"/>
<path id="N" d="M 40512993.87 26060393.87 m -127457.60 0 a 127457.60 127457.60 0 1 1 254915.19 0a 127457.60 127457.60 0 1 1 -254915.19 0"/>
<path id="N" d="M 19506123.87 31672723.87 m -127457.60 0 a 127457.60 127457.60 0 1 1 254915.19 0a 127457.60 127457.60 0 1 1 -254915.19 0"/>
<path id="N" d="M 11963393.87 36499793.87 m -127457.60 0 a 127457.60 127457.60 0 1 1 254915.19 0a 127457.60 127457.60 0 1 1 -254915.19 0"/>
<path id="N" d="M 32842193.87 32359593.87 m -127457.60 0 a 127457.60 127457.60 0 1 1 254915.19 0a 127457.60 127457.60 0 1 1 -254915.19 0"/>
<path id="N" d="M 14325597.35 30327593.57 m -297829.90 0 a 297829.90 297829.90 0 1 1 595659.80 0a 297829.90 297829.90 0 1 1 -595659.80 0M 14325600.44 30327598.65 m -180637.35 0 a 180637.35 180637.35 0 1 1 361274.69 0a 180637.35 180637.35 0 1 1 -361274.69 0"/>
<path id="N" d="M 15356523.38 59475050.38 m -130459.26 0 a 130459.26 130459.26 0 1 1 260918.51 0a 130459.26 130459.26 0 1 1 -260918.51 0M 15356522.76 59475048.92 m -80284.08 0 a 80284.08 80284.08 0 1 1 160568.17 0a 80284.08 80284.08 0 1 1 -160568.17 0"/>
<path id="N" d="M 15021877.38 58943554.38 m -130459.26 0 a 130459.26 130459.26 0 1 1 260918.51 0a 130459.26 130459.26 0 1 1 -260918.51 0M 15021876.76 58943552.92 m -80284.08 0 a 80284.08 80284.08 0 1 1 160568.17 0a 80284.08 80284.08 0 1 1 -160568.17 0"/>
<path id="N" d="M 15011393.87 58216793.87 m -127457.60 0 a 127457.60 127457.60 0 1 1 254915.19 0a 127457.60 127457.60 0 1 1 -254915.19 0"/>
<path id="N" d="M 41274993.87 28143193.87 m -127457.60 0 a 127457.60 127457.60 0 1 1 254915.19 0a 127457.60 127457.60 0 1 1 -254915.19 0"/>
<path id="N" d="M 36829993.87 33172393.87 m -127457.60 0 a 127457.60 127457.60 0 1 1 254915.19 0a 127457.60 127457.60 0 1 1 -254915.19 0"/>
<path id="N" d="M 21107393.87 34594793.87 m -127457.60 0 a 127457.60 127457.60 0 1 1 254915.19 0a 127457.60 127457.60 0 1 1 -254915.19 0"/>
<path id="N" d="M 43510193.87 24968193.87 m -127457.60 0 a 127457.60 127457.60 0 1 1 254915.19 0a 127457.60 127457.60 0 1 1 -254915.19 0"/>
<path id="N" d="M 14687231.38 58943554.38 m -130459.26 0 a 130459.26 130459.26 0 1 1 260918.51 0a 130459.26 130459.26 0 1 1 -260918.51 0M 14687230.76 58943552.92 m -80284.08 0 a 80284.08 80284.08 0 1 1 160568.17 0a 80284.08 80284.08 0 1 1 -160568.17 0"/>
<path id="N" d="M 18008593.87 59029593.87 m -127457.60 0 a 127457.60 127457.60 0 1 1 254915.19 0a 127457.60 127457.60 0 1 1 -254915.19 0"/>
<path id="N" d="M 43738793.87 24358593.87 m -127457.60 0 a 127457.60 127457.60 0 1 1 254915.19 0a 127457.60 127457.60 0 1 1 -254915.19 0"/>
<path id="N" d="M 20065993.87 34594793.87 m -127457.60 0 a 127457.60 127457.60 0 1 1 254915.19 0a 127457.60 127457.60 0 1 1 -254915.19 0"/>
<path id="N" d="M 39420793.87 32918393.87 m -127457.60 0 a 127457.60 127457.60 0 1 1 254915.19 0a 127457.60 127457.60 0 1 1 -254915.19 0"/>
<path id="N" d="M 39928793.87 28752793.87 m -127457.60 0 a 127457.60 127457.60 0 1 1 254915.19 0a 127457.60 127457.60 0 1 1 -254915.19 0"/>
<path id="N" d="M 37515793.87 23088593.87 m -127457.60 0 a 127457.60 127457.60 0 1 1 254915.19 0a 127457.60 127457.60 0 1 1 -254915.19 0"/>
<path id="N" d="M 31064193.87 23088593.87 m -127457.60 0 a 127457.60 127457.60 0 1 1 254915.19 0a 127457.60 127457.60 0 1 1 -254915.19 0"/>
<path id="N" d="M 41122593.87 35636193.87 m -127457.60 0 a 127457.60 127457.60 0 1 1 254915.19 0a 127457.60 127457.60 0 1 1 -254915.19 0"/>
<path id="N" d="M 41039993.87 28752793.87 m -127457.60 0 a 127457.60 127457.60 0 1 1 254915.19 0a 127457.60 127457.60 0 1 1 -254915.19 0"/>
<path id="N" d="M 20954993.87 31292793.87 m -127457.60 0 a 127457.60 127457.60 0 1 1 254915.19 0a 127457.60 127457.60 0 1 1 -254915.19 0"/>
<path id="N" d="M 12761099.87 40147087.87 m -127457.60 0 a 127457.60 127457.60 0 1 1 254915.19 0a 127457.60 127457.60 0 1 1 -254915.19 0"/>
<path id="N" d="M 32410393.87 32334193.87 m -127457.60 0 a 127457.60 127457.60 0 1 1 254915.19 0a 127457.60 127457.60 0 1 1 -254915.19 0"/>
<path id="N" d="M 31622993.87 25473593.87 m -127457.60 0 a 127457.60 127457.60 0 1 1 254915.19 0a 127457.60 127457.60 0 1 1 -254915.19 0"/>
<path id="N" d="M 37033193.87 25473593.87 m -127457.60 0 a 127457.60 127457.60 0 1 1 254915.19 0a 127457.60 127457.60 0 1 1 -254915.19 0"/>
<path id="N" d="M 15021877.38 59475050.38 m -130459.26 0 a 130459.26 130459.26 0 1 1 260918.51 0a 130459.26 130459.26 0 1 1 -260918.51 0M 15021876.76 59475048.92 m -80284.08 0 a 80284.08 80284.08 0 1 1 160568.17 0a 80284.08 80284.08 0 1 1 -160568.17 0"/>
<path id="N" d="M 15356523.38 58943554.38 m -130459.26 0 a 130459.26 130459.26 0 1 1 260918.51 0a 130459.26 130459.26 0 1 1 -260918.51 0M 15356522.76 58943552.92 m -80284.08 0 a 80284.08 80284.08 0 1 1 160568.17 0a 80284.08 80284.08 0 1 1 -160568.17 0"/>
<path id="N" d="M 14620875.00 31032325.00 L 14030325.00 31032325.00 L 14030325.00 31622875.00 L 14620875.00 31622875.00 L 14620875.00 31032325.00  zM 14325600.44 31327598.65 m -180637.35 0 a 180637.35 180637.35 0 1 1 361274.69 0a 180637.35 180637.35 0 1 1 -361274.69 0"/>
<path id="N" d="M 15356516.87 58257116.87 m -127457.60 0 a 127457.60 127457.60 0 1 1 254915.19 0a 127457.60 127457.60 0 1 1 -254915.19 0"/>
<path id="N" d="M 25621609.87 35617777.87 m -127457.60 0 a 127457.60 127457.60 0 1 1 254915.19 0a 127457.60 127457.60 0 1 1 -254915.19 0"/>
<path id="N" d="M 37820593.87 26212793.87 m -127457.60 0 a 127457.60 127457.60 0 1 1 254915.19 0a 127457.60 127457.60 0 1 1 -254915.19 0"/>
<path id="N" d="M 33070793.87 27787593.87 m -127457.60 0 a 127457.60 127457.60 0 1 1 254915.19 0a 127457.60 127457.60 0 1 1 -254915.19 0"/>
<path id="N" d="M 36779193.87 27787593.87 m -127457.60 0 a 127457.60 127457.60 0 1 1 254915.19 0a 127457.60 127457.60 0 1 1 -254915.19 0"/>
<path id="N" d="M 14096993.87 36017193.87 m -127457.60 0 a 127457.60 127457.60 0 1 1 254915.19 0a 127457.60 127457.60 0 1 1 -254915.19 0"/>
<path id="N" d="M 31165793.87 34118593.87 m -127457.60 0 a 127457.60 127457.60 0 1 1 254915.19 0a 127457.60 127457.60 0 1 1 -254915.19 0"/>
<path id="N" d="M 19049993.87 34569393.87 m -127457.60 0 a 127457.60 127457.60 0 1 1 254915.19 0a 127457.60 127457.60 0 1 1 -254915.19 0"/>
<path id="N" d="M 30431031.87 23799793.87 m -127457.60 0 a 127457.60 127457.60 0 1 1 254915.19 0a 127457.60 127457.60 0 1 1 -254915.19 0"/>
<path id="N" d="M 41884593.87 26517593.87 m -127457.60 0 a 127457.60 127457.60 0 1 1 254915.19 0a 127457.60 127457.60 0 1 1 -254915.19 0"/>
<path id="N" d="M 26517593.87 35610793.87 m -127457.60 0 a 127457.60 127457.60 0 1 1 254915.19 0a 127457.60 127457.60 0 1 1 -254915.19 0"/>
<path id="N" d="M 35123027.87 34010593.87 m -127457.60 0 a 127457.60 127457.60 0 1 1 254915.19 0a 127457.60 127457.60 0 1 1 -254915.19 0"/>
<path id="N" d="M 31851593.87 28346393.87 m -127457.60 0 a 127457.60 127457.60 0 1 1 254915.19 0a 127457.60 127457.60 0 1 1 -254915.19 0"/>
<path id="N" d="M 32207193.87 26263593.87 m -127457.60 0 a 127457.60 127457.60 0 1 1 254915.19 0a 127457.60 127457.60 0 1 1 -254915.19 0"/>
<path id="N" d="M 26034993.87 34594793.87 m -127457.60 0 a 127457.60 127457.60 0 1 1 254915.19 0a 127457.60 127457.60 0 1 1 -254915.19 0"/>
<path id="N" d="M 23164793.87 20497793.87 m -127457.60 0 a 127457.60 127457.60 0 1 1 254915.19 0a 127457.60 127457.60 0 1 1 -254915.19 0"/>
<path id="N" d="M 25450793.87 20472393.87 m -127457.60 0 a 127457.60 127457.60 0 1 1 254915.19 0a 127457.60 127457.60 0 1 1 -254915.19 0"/>
</g>
</svg>
