<svg width="99.00000012mm" height="121.0871594mm" viewBox="0 0 38976378 47672110"  version="1.1" xmlns="http://www.w3.org/2000/svg" xmlns:xlink="http://www.w3.org/1999/xlink">
<desc>
Origin 0 0 Bound 10687011 14338257 38976378 47672110
</desc>
<g fill-rule="evenodd" fill="rgb(255, 0, 0)" stroke="black" stroke-width="1" transform="translate(0, 47672110) scale(1, -1) translate(-10687011, -14338257)">
<path id="N" d="M 16962755.38 60198000.38 m -130459.26 0 a 130459.26 130459.26 0 1 1 260918.51 0a 130459.26 130459.26 0 1 1 -260918.51 0M 16962754.76 60197998.92 m -80284.08 0 a 80284.08 80284.08 0 1 1 160568.17 0a 80284.08 80284.08 0 1 1 -160568.17 0"/>
<path id="N" d="M 19287490.00 60999052.00 L 18834734.00 60999052.00 L 18834734.00 61530548.00 L 19287490.00 61530548.00 L 19287490.00 60999052.00  z"/>
<path id="N" d="M 33363069.00 34048869.00 L 33587134.66 33824802.60 L 33629600.00 33833249.00 A 127441.40 127441.40 0 1 0 33502151.00 33705800.00 L 33510597.40 33748265.34 L 33302382.05 33956480.00 L 25651018.00 33956480.00 L 18443720.00 26749182.00 L 18443720.00 22978803.00 L 18427867.29 22940533.29 L 14913120.00 19425785.00 L 14913120.00 19367375.14 L 14949120.00 19343320.00 A 127441.40 127441.40 0 1 0 14768880.00 19343320.00 L 14804880.00 19367375.14 L 14804879.00 19448203.00 L 14820731.00 19486472.00 L 18335480.00 23001220.00 L 18335479.00 26771600.00 L 18351331.00 26809869.00 L 25590331.00 34048869.00 L 25628602.41 34064720.00 L 33324800.00 34064721.00 L 33363069.00 34048869.00  z"/>
<path id="N" d="M 25069800.00 27139900.00 L 24079200.00 27139900.00 L 24079200.00 29197300.00 L 25069800.00 29197300.00 L 25069800.00 27139900.00  zM 24302545.38 27967000.00 L 24200848.34 27967000.00 L 24210252.00 27931905.00 A 353016.46 353016.46 0 0 1 24401305.00 27740852.00 L 24436400.00 27731448.34 L 24436400.00 27833145.38 L 24356160.00 27886760.00 L 24302545.38 27967000.00  zM 24436400.00 28402551.66 L 24401305.00 28393148.00 A 353016.46 353016.46 0 0 1 24210252.00 28202095.00 L 24200848.34 28167000.00 L 24302545.38 28167000.00 L 24356160.00 28247240.00 L 24436400.00 28300854.62 L 24436400.00 28402551.66  zM 24871951.66 27967000.00 L 24770254.62 27967000.00 L 24716640.00 27886760.00 L 24636400.00 27833145.38 L 24636400.00 27731448.34 L 24671495.00 27740852.00 A 353016.46 353016.46 0 0 1 24862548.00 27931905.00 L 24871951.66 27967000.00  zM 24636400.00 28402551.66 L 24636400.00 28300854.62 L 24716640.00 28247240.00 L 24770254.62 28167000.00 L 24871951.66 28167000.00 L 24862548.00 28202095.00 A 353016.46 353016.46 0 0 1 24671495.00 28393148.00 L 24636400.00 28402551.66  z"/>
<path id="N" d="M 30937199.88 15214599.88 m -254898.03 0 a 254898.03 254898.03 0 1 1 509796.06 0a 254898.03 254898.03 0 1 1 -509796.06 0"/>
<path id="N" d="M 39420799.88 15265399.88 m -254898.03 0 a 254898.03 254898.03 0 1 1 509796.06 0a 254898.03 254898.03 0 1 1 -509796.06 0"/>
<path id="N" d="M 25679399.88 27584399.88 m -254898.03 0 a 254898.03 254898.03 0 1 1 509796.06 0a 254898.03 254898.03 0 1 1 -509796.06 0"/>
<path id="N" d="M 28955999.88 29997399.88 m -254898.03 0 a 254898.03 254898.03 0 1 1 509796.06 0a 254898.03 254898.03 0 1 1 -509796.06 0"/>
<path id="N" d="M 25679399.88 28727399.88 m -254898.03 0 a 254898.03 254898.03 0 1 1 509796.06 0a 254898.03 254898.03 0 1 1 -509796.06 0"/>
<path id="N" d="M 38811199.88 33908999.88 m -254898.03 0 a 254898.03 254898.03 0 1 1 509796.06 0a 254898.03 254898.03 0 1 1 -509796.06 0"/>
<path id="N" d="M 32169224.86 33401480.00 L 29316910.00 33401480.00 L 29278641.00 33417331.00 L 29222092.00 33473880.00 L 26341027.00 33473880.00 L 21313870.00 28446722.00 L 21313870.00 28313171.00 L 21298017.29 28274901.29 L 19256520.00 26233403.01 L 19256521.00 20396200.00 L 19240669.00 20357931.00 L 15252869.00 16370131.00 L 15214597.59 16354280.00 L 13906375.14 16354280.00 L 13882320.00 16318280.00 A 127441.40 127441.40 0 1 0 13882320.00 16498520.00 L 13906375.14 16462520.00 L 15192182.00 16462520.00 L 19148280.00 20418618.00 L 19148279.00 26255821.00 L 19164131.00 26294090.00 L 21205630.00 28335588.01 L 21205629.00 28469140.00 L 21221481.00 28507409.00 L 26280341.00 33566269.00 L 26318610.00 33582120.00 L 29244510.00 33582121.00 L 29282779.00 33566269.00 L 29339328.00 33509720.00 L 32169224.86 33509720.00 L 32193280.00 33545720.00 A 127441.40 127441.40 0 1 0 32169224.86 33401480.00  z"/>
<path id="N" d="M 14938666.00 60347607.00 L 14938666.00 59757055.00 A 180637.35 180637.35 0 0 0 14577394.00 59757055.00 L 14577394.00 60347607.00 A 180637.35 180637.35 0 0 0 14938666.00 60347607.00  zM 14637606.00 60347607.00 L 14637606.00 59757055.00 A 120431.73 120431.73 0 0 1 14878454.00 59757055.00 L 14878454.00 60347607.00 A 120431.73 120431.73 0 0 1 14637606.00 60347607.00  z"/>
<path id="N" d="M 18344178.00 61540520.00 L 18344178.00 61225560.00 A 180637.35 180637.35 0 0 0 17982906.00 61225560.00 L 17982906.00 61540520.00 A 180637.35 180637.35 0 0 0 18344178.00 61540520.00  zM 18043118.00 61540520.00 L 18043118.00 61225560.00 A 120431.73 120431.73 0 0 1 18283966.00 61225560.00 L 18283966.00 61540520.00 A 120431.73 120431.73 0 0 1 18043118.00 61540520.00  z"/>
<path id="N" d="M 14938666.00 61540520.00 L 14938666.00 61225560.00 A 180637.35 180637.35 0 0 0 14577394.00 61225560.00 L 14577394.00 61540520.00 A 180637.35 180637.35 0 0 0 14938666.00 61540520.00  zM 14637606.00 61540520.00 L 14637606.00 61225560.00 A 120431.73 120431.73 0 0 1 14878454.00 61225560.00 L 14878454.00 61540520.00 A 120431.73 120431.73 0 0 1 14637606.00 61540520.00  z"/>
<path id="N" d="M 18344178.00 60347607.00 L 18344178.00 59757055.00 A 180637.35 180637.35 0 0 0 17982906.00 59757055.00 L 17982906.00 60347607.00 A 180637.35 180637.35 0 0 0 18344178.00 60347607.00  zM 18043118.00 60347607.00 L 18043118.00 59757055.00 A 120431.73 120431.73 0 0 1 18283966.00 59757055.00 L 18283966.00 60347607.00 A 120431.73 120431.73 0 0 1 18043118.00 60347607.00  z"/>
<path id="N" d="M 17632046.38 60198000.38 m -130459.26 0 a 130459.26 130459.26 0 1 1 260918.51 0a 130459.26 130459.26 0 1 1 -260918.51 0M 17632045.76 60197998.92 m -80284.08 0 a 80284.08 80284.08 0 1 1 160568.17 0a 80284.08 80284.08 0 1 1 -160568.17 0"/>
<path id="N" d="M 17632046.38 59666504.38 m -130459.26 0 a 130459.26 130459.26 0 1 1 260918.51 0a 130459.26 130459.26 0 1 1 -260918.51 0M 17632045.76 59666502.92 m -80284.08 0 a 80284.08 80284.08 0 1 1 160568.17 0a 80284.08 80284.08 0 1 1 -160568.17 0"/>
<path id="N" d="M 15289526.38 59666504.38 m -130459.26 0 a 130459.26 130459.26 0 1 1 260918.51 0a 130459.26 130459.26 0 1 1 -260918.51 0M 15289525.76 59666502.92 m -80284.08 0 a 80284.08 80284.08 0 1 1 160568.17 0a 80284.08 80284.08 0 1 1 -160568.17 0"/>
<path id="N" d="M 24269690.06 17042759.06 m -240860.29 0 a 240860.29 240860.29 0 1 1 481720.58 0a 240860.29 240860.29 0 1 1 -481720.58 0M 24269701.38 17042762.09 m -140500.91 0 a 140500.91 140500.91 0 1 1 281001.82 0a 140500.91 140500.91 0 1 1 -281001.82 0"/>
<path id="N" d="M 17462490.06 17017359.06 m -240860.29 0 a 240860.29 240860.29 0 1 1 481720.58 0a 240860.29 240860.29 0 1 1 -481720.58 0M 17462501.38 17017362.09 m -140500.91 0 a 140500.91 140500.91 0 1 1 281001.82 0a 140500.91 140500.91 0 1 1 -281001.82 0"/>
<path id="N" d="M 15289526.38 60198000.38 m -130459.26 0 a 130459.26 130459.26 0 1 1 260918.51 0a 130459.26 130459.26 0 1 1 -260918.51 0M 15289525.76 60197998.92 m -80284.08 0 a 80284.08 80284.08 0 1 1 160568.17 0a 80284.08 80284.08 0 1 1 -160568.17 0"/>
<path id="N" d="M 18897593.87 21437593.87 m -127457.60 0 a 127457.60 127457.60 0 1 1 254915.19 0a 127457.60 127457.60 0 1 1 -254915.19 0"/>
<path id="N" d="M 24314143.87 24434793.87 m -127457.60 0 a 127457.60 127457.60 0 1 1 254915.19 0a 127457.60 127457.60 0 1 1 -254915.19 0"/>
<path id="N" d="M 19735793.87 22199593.87 m -127457.60 0 a 127457.60 127457.60 0 1 1 254915.19 0a 127457.60 127457.60 0 1 1 -254915.19 0"/>
<path id="N" d="M 21189943.87 24485593.87 m -127457.60 0 a 127457.60 127457.60 0 1 1 254915.19 0a 127457.60 127457.60 0 1 1 -254915.19 0"/>
<path id="N" d="M 22815543.87 22809193.87 m -127457.60 0 a 127457.60 127457.60 0 1 1 254915.19 0a 127457.60 127457.60 0 1 1 -254915.19 0"/>
<path id="N" d="M 22188998.87 18863738.87 m -127457.60 0 a 127457.60 127457.60 0 1 1 254915.19 0a 127457.60 127457.60 0 1 1 -254915.19 0"/>
<path id="N" d="M 43510193.87 31851593.87 m -127457.60 0 a 127457.60 127457.60 0 1 1 254915.19 0a 127457.60 127457.60 0 1 1 -254915.19 0"/>
<path id="N" d="M 41782993.87 31851593.87 m -127457.60 0 a 127457.60 127457.60 0 1 1 254915.19 0a 127457.60 127457.60 0 1 1 -254915.19 0"/>
<path id="N" d="M 20243793.87 18973793.87 m -127457.60 0 a 127457.60 127457.60 0 1 1 254915.19 0a 127457.60 127457.60 0 1 1 -254915.19 0"/>
<path id="N" d="M 22129743.87 20675593.87 m -127457.60 0 a 127457.60 127457.60 0 1 1 254915.19 0a 127457.60 127457.60 0 1 1 -254915.19 0"/>
<path id="N" d="M 19913593.87 18110193.87 m -127457.60 0 a 127457.60 127457.60 0 1 1 254915.19 0a 127457.60 127457.60 0 1 1 -254915.19 0"/>
<path id="N" d="M 29971993.87 31851593.87 m -127457.60 0 a 127457.60 127457.60 0 1 1 254915.19 0a 127457.60 127457.60 0 1 1 -254915.19 0"/>
<path id="N" d="M 40004993.87 31851593.87 m -127457.60 0 a 127457.60 127457.60 0 1 1 254915.19 0a 127457.60 127457.60 0 1 1 -254915.19 0"/>
<path id="N" d="M 33248593.87 31876993.87 m -127457.60 0 a 127457.60 127457.60 0 1 1 254915.19 0a 127457.60 127457.60 0 1 1 -254915.19 0"/>
<path id="N" d="M 34569393.87 33426393.87 m -127457.60 0 a 127457.60 127457.60 0 1 1 254915.19 0a 127457.60 127457.60 0 1 1 -254915.19 0"/>
<path id="N" d="M 31673793.87 31851593.87 m -127457.60 0 a 127457.60 127457.60 0 1 1 254915.19 0a 127457.60 127457.60 0 1 1 -254915.19 0"/>
<path id="N" d="M 21545543.87 27304993.87 m -127457.60 0 a 127457.60 127457.60 0 1 1 254915.19 0a 127457.60 127457.60 0 1 1 -254915.19 0"/>
<path id="N" d="M 21513793.87 27939993.87 m -127457.60 0 a 127457.60 127457.60 0 1 1 254915.19 0a 127457.60 127457.60 0 1 1 -254915.19 0"/>
<path id="N" d="M 21691593.87 24815793.87 m -127457.60 0 a 127457.60 127457.60 0 1 1 254915.19 0a 127457.60 127457.60 0 1 1 -254915.19 0"/>
<path id="N" d="M 21026150.87 21248400.87 m -127457.60 0 a 127457.60 127457.60 0 1 1 254915.19 0a 127457.60 127457.60 0 1 1 -254915.19 0"/>
<path id="N" d="M 43484793.87 17652993.87 m -127457.60 0 a 127457.60 127457.60 0 1 1 254915.19 0a 127457.60 127457.60 0 1 1 -254915.19 0"/>
<path id="N" d="M 21545543.87 26009593.87 m -127457.60 0 a 127457.60 127457.60 0 1 1 254915.19 0a 127457.60 127457.60 0 1 1 -254915.19 0"/>
<path id="N" d="M 21539193.87 26669993.87 m -127457.60 0 a 127457.60 127457.60 0 1 1 254915.19 0a 127457.60 127457.60 0 1 1 -254915.19 0"/>
<path id="N" d="M 22713943.87 24612593.87 m -127457.60 0 a 127457.60 127457.60 0 1 1 254915.19 0a 127457.60 127457.60 0 1 1 -254915.19 0"/>
<path id="N" d="M 33299393.87 17652993.87 m -127457.60 0 a 127457.60 127457.60 0 1 1 254915.19 0a 127457.60 127457.60 0 1 1 -254915.19 0"/>
<path id="N" d="M 39979593.87 17652993.87 m -127457.60 0 a 127457.60 127457.60 0 1 1 254915.19 0a 127457.60 127457.60 0 1 1 -254915.19 0"/>
<path id="N" d="M 41757593.87 17678393.87 m -127457.60 0 a 127457.60 127457.60 0 1 1 254915.19 0a 127457.60 127457.60 0 1 1 -254915.19 0"/>
<path id="N" d="M 34772593.87 17678393.87 m -127457.60 0 a 127457.60 127457.60 0 1 1 254915.19 0a 127457.60 127457.60 0 1 1 -254915.19 0"/>
<path id="N" d="M 19976466.00 60186252.00 L 19523710.00 60186252.00 L 19523710.00 60717748.00 L 19976466.00 60717748.00 L 19976466.00 60186252.00  z"/>
<path id="N" d="M 19976466.00 60999052.00 L 19523710.00 60999052.00 L 19523710.00 61530548.00 L 19976466.00 61530548.00 L 19976466.00 60999052.00  z"/>
<path id="N" d="M 32625041.45 28332290.44 L 21947030.00 17654278.00 A 54119.43 54119.43 0 0 0 21870492.00 17730816.00 L 32548504.44 28408827.45 L 32540058.00 28451293.00 A 127441.40 127441.40 0 1 0 32625041.45 28332290.44  z"/>
<path id="N" d="M 30294202.68 23173135.08 L 30534983.05 22932354.00 L 31415566.00 22932355.00 L 31453835.00 22916503.00 L 33847030.00 20523307.00 A 54118.22 54118.22 0 1 0 33770493.00 20446770.00 L 31393148.01 22824114.00 L 30512566.00 22824113.00 L 30474296.29 22839966.71 L 30217664.92 23096597.32 L 30175200.00 23088151.00 A 127441.40 127441.40 0 1 0 30294202.68 23173135.08  z"/>
<path id="N" d="M 40500424.86 27504880.00 L 33573677.01 27504880.00 L 30527720.00 24458922.01 L 30527720.00 23801077.97 L 31076443.03 23252354.00 L 31548114.00 23252355.00 L 31586383.00 23236503.00 L 35045869.00 19777017.00 A 54119.43 54119.43 0 0 0 34969331.00 19700479.00 L 31525696.00 23144114.00 L 31054026.00 23144114.00 L 31015756.29 23159966.71 L 30435331.00 23740391.00 L 30419480.00 23778662.41 L 30419479.00 24481340.00 L 30435331.00 24519609.00 L 33512991.00 27597269.00 L 33551262.41 27613120.00 L 40500424.86 27613120.00 L 40524480.00 27649120.00 A 127441.40 127441.40 0 1 0 40500424.86 27504880.00  z"/>
<path id="N" d="M 32924837.00 33888869.00 L 32958987.32 33854718.00 L 33114098.48 33854718.00 L 33121450.00 33865720.00 A 127441.40 127441.40 0 1 0 33093822.00 33726827.00 L 33089913.40 33746478.00 L 32936570.00 33746477.00 L 32898300.29 33762330.71 L 32864150.32 33796480.00 L 25821218.00 33796480.00 L 18672320.00 26647582.00 L 18672321.00 22207403.00 L 18656467.29 22169133.29 L 14838666.00 18351331.00 L 14800394.59 18335480.00 L 13830175.14 18335480.00 L 13806120.00 18299480.00 A 127441.40 127441.40 0 1 0 13806120.00 18479720.00 L 13830175.14 18443720.00 L 14777979.00 18443720.00 L 18564080.00 22229820.00 L 18564079.00 26670000.00 L 18579931.00 26708269.00 L 25760531.00 33888869.00 L 25798802.41 33904720.00 L 32886568.00 33904721.00 L 32924837.00 33888869.00  z"/>
<path id="N" d="M 14773397.35 33553393.57 m -297829.90 0 a 297829.90 297829.90 0 1 1 595659.80 0a 297829.90 297829.90 0 1 1 -595659.80 0M 14773400.44 33553398.65 m -180637.35 0 a 180637.35 180637.35 0 1 1 361274.69 0a 180637.35 180637.35 0 1 1 -361274.69 0"/>
<path id="N" d="M 16628109.38 60198000.38 m -130459.26 0 a 130459.26 130459.26 0 1 1 260918.51 0a 130459.26 130459.26 0 1 1 -260918.51 0M 16628108.76 60197998.92 m -80284.08 0 a 80284.08 80284.08 0 1 1 160568.17 0a 80284.08 80284.08 0 1 1 -160568.17 0"/>
<path id="N" d="M 16293463.38 59666504.38 m -130459.26 0 a 130459.26 130459.26 0 1 1 260918.51 0a 130459.26 130459.26 0 1 1 -260918.51 0M 16293462.76 59666502.92 m -80284.08 0 a 80284.08 80284.08 0 1 1 160568.17 0a 80284.08 80284.08 0 1 1 -160568.17 0"/>
<path id="N" d="M 41491024.86 29409880.00 L 34034972.00 29409880.00 L 25947030.00 21321938.00 A 54119.43 54119.43 0 1 0 25870492.00 21398476.00 L 33974285.00 29502269.00 L 34012556.41 29518120.00 L 41491024.86 29518120.00 L 41515080.00 29554120.00 A 127441.40 127441.40 0 1 0 41491024.86 29409880.00  z"/>
<path id="N" d="M 15624172.38 60198000.38 m -130459.26 0 a 130459.26 130459.26 0 1 1 260918.51 0a 130459.26 130459.26 0 1 1 -260918.51 0M 15624171.76 60197998.92 m -80284.08 0 a 80284.08 80284.08 0 1 1 160568.17 0a 80284.08 80284.08 0 1 1 -160568.17 0"/>
<path id="N" d="M 17297400.38 59666504.38 m -130459.26 0 a 130459.26 130459.26 0 1 1 260918.51 0a 130459.26 130459.26 0 1 1 -260918.51 0M 17297399.76 59666502.92 m -80284.08 0 a 80284.08 80284.08 0 1 1 160568.17 0a 80284.08 80284.08 0 1 1 -160568.17 0"/>
<path id="N" d="M 17297400.38 60198000.38 m -130459.26 0 a 130459.26 130459.26 0 1 1 260918.51 0a 130459.26 130459.26 0 1 1 -260918.51 0M 17297399.76 60197998.92 m -80284.08 0 a 80284.08 80284.08 0 1 1 160568.17 0a 80284.08 80284.08 0 1 1 -160568.17 0"/>
<path id="N" d="M 15624172.38 59666504.38 m -130459.26 0 a 130459.26 130459.26 0 1 1 260918.51 0a 130459.26 130459.26 0 1 1 -260918.51 0M 15624171.76 59666502.92 m -80284.08 0 a 80284.08 80284.08 0 1 1 160568.17 0a 80284.08 80284.08 0 1 1 -160568.17 0"/>
<path id="N" d="M 20625518.00 32791400.00 L 20625518.00 30142203.35 L 20657095.00 30094945.00 A 254896.24 254896.24 0 1 0 20186105.00 30094945.00 L 20217682.00 30142203.35 L 20217682.00 32791400.00 A 203916.30 203916.30 0 0 0 20625518.00 32791400.00  z"/>
<path id="N" d="M 15958817.38 59666504.38 m -130459.26 0 a 130459.26 130459.26 0 1 1 260918.51 0a 130459.26 130459.26 0 1 1 -260918.51 0M 15958816.76 59666502.92 m -80284.08 0 a 80284.08 80284.08 0 1 1 160568.17 0a 80284.08 80284.08 0 1 1 -160568.17 0"/>
<path id="N" d="M 19287490.00 60186252.00 L 18834734.00 60186252.00 L 18834734.00 60717748.00 L 19287490.00 60717748.00 L 19287490.00 60186252.00  z"/>
<path id="N" d="M 40265424.86 28292280.00 L 33853077.00 28292280.00 L 29957520.00 24396722.00 L 29957520.00 22874819.00 L 32847030.00 19985309.00 A 54119.43 54119.43 0 1 0 32770492.00 19908771.00 L 29865131.00 22814132.00 L 29849280.00 22852403.41 L 29849279.00 24419140.00 L 29865131.00 24457409.00 L 33792391.00 28384669.00 L 33830660.00 28400520.00 L 40265424.86 28400520.00 L 40289480.00 28436520.00 A 127441.40 127441.40 0 1 0 40265424.86 28292280.00  z"/>
<path id="N" d="M 30900320.00 23966120.00 L 30924375.14 23930120.00 L 31165800.00 23930121.00 L 31204069.00 23914269.00 L 35847029.00 19271308.00 A 54118.22 54118.22 0 0 0 35770492.00 19194771.00 L 31143382.00 23821880.00 L 30924375.14 23821880.00 L 30900320.00 23785880.00 A 127441.40 127441.40 0 1 0 30900320.00 23966120.00  z"/>
<path id="N" d="M 40017824.86 29105080.00 L 33956445.00 29105080.00 L 26447030.00 21595664.00 A 54119.43 54119.43 0 0 0 26370492.00 21672202.00 L 33895759.00 29197469.00 L 33934030.41 29213320.00 L 40017824.86 29213320.00 L 40041880.00 29249320.00 A 127441.40 127441.40 0 1 0 40017824.86 29105080.00  z"/>
<path id="N" d="M 41262424.86 30044880.00 L 33779018.00 30044880.00 L 20947030.00 17212892.00 A 54119.43 54119.43 0 0 0 20870492.00 17289430.00 L 33718331.00 30137269.00 L 33756600.00 30153120.00 L 41262424.86 30153120.00 L 41286480.00 30189120.00 A 127441.40 127441.40 0 1 0 41262424.86 30044880.00  z"/>
<path id="N" d="M 32419009.00 33728869.00 L 32462618.00 33685260.00 L 32611408.66 33685260.00 L 32625080.00 33705720.00 A 127441.40 127441.40 0 1 0 32597452.00 33566827.00 L 32595424.60 33577020.00 L 32440200.00 33577020.00 L 32401931.00 33592871.00 L 32358322.00 33636480.00 L 26143818.00 33636480.00 L 19002520.00 26495182.00 L 19002520.00 21964457.00 L 18986669.00 21926188.00 L 14840191.00 17779710.00 L 14840191.00 17567246.14 L 14876191.00 17543191.00 A 127441.40 127441.40 0 1 0 14695951.00 17543191.00 L 14731951.00 17567246.14 L 14731950.00 17802128.00 L 14747802.00 17840397.00 L 18894280.00 21986875.00 L 18894279.00 26517600.00 L 18910131.00 26555869.00 L 26083131.00 33728869.00 L 26121402.41 33744720.00 L 32380740.00 33744721.00 L 32419009.00 33728869.00  z"/>
<path id="N" d="M 21788070.00 25413920.00 L 21812125.14 25377920.00 L 23492143.00 25377921.00 L 23530412.00 25362069.00 L 23692019.00 25200462.00 L 23707870.00 25162190.59 L 23707870.00 24421975.14 L 23743870.00 24397920.00 A 127441.40 127441.40 0 1 0 23563630.00 24397920.00 L 23599630.00 24421975.14 L 23599630.00 25139775.90 L 23469725.10 25269680.00 L 21812125.14 25269680.00 L 21788070.00 25233680.00 A 127441.40 127441.40 0 1 0 21788070.00 25413920.00  z"/>
<path id="N" d="M 17440275.00 24850725.00 L 16849725.00 24850725.00 L 16849725.00 25441275.00 L 17440275.00 25441275.00 L 17440275.00 24850725.00  zM 17145000.44 25145998.65 m -180637.35 0 a 180637.35 180637.35 0 1 1 361274.69 0a 180637.35 180637.35 0 1 1 -361274.69 0"/>
<path id="N" d="M 16628109.38 59666504.38 m -130459.26 0 a 130459.26 130459.26 0 1 1 260918.51 0a 130459.26 130459.26 0 1 1 -260918.51 0M 16628108.76 59666502.92 m -80284.08 0 a 80284.08 80284.08 0 1 1 160568.17 0a 80284.08 80284.08 0 1 1 -160568.17 0"/>
<path id="N" d="M 16293463.38 60198000.38 m -130459.26 0 a 130459.26 130459.26 0 1 1 260918.51 0a 130459.26 130459.26 0 1 1 -260918.51 0M 16293462.76 60197998.92 m -80284.08 0 a 80284.08 80284.08 0 1 1 160568.17 0a 80284.08 80284.08 0 1 1 -160568.17 0"/>
<path id="N" d="M 16068675.00 33258125.00 L 15478125.00 33258125.00 L 15478125.00 33848675.00 L 16068675.00 33848675.00 L 16068675.00 33258125.00  zM 15773400.44 33553398.65 m -180637.35 0 a 180637.35 180637.35 0 1 1 361274.69 0a 180637.35 180637.35 0 1 1 -361274.69 0"/>
<path id="N" d="M 29446935.28 23909397.28 L 27447030.00 21909492.00 A 54119.43 54119.43 0 0 0 27370492.00 21986030.00 L 29370397.28 23985935.28 L 29361951.00 24028400.00 A 127441.40 127441.40 0 1 0 29446935.28 23909397.28  z"/>
<path id="N" d="M 15958817.38 60198000.38 m -130459.26 0 a 130459.26 130459.26 0 1 1 260918.51 0a 130459.26 130459.26 0 1 1 -260918.51 0M 15958816.76 60197998.92 m -80284.08 0 a 80284.08 80284.08 0 1 1 160568.17 0a 80284.08 80284.08 0 1 1 -160568.17 0"/>
<path id="N" d="M 16962755.38 59666504.38 m -130459.26 0 a 130459.26 130459.26 0 1 1 260918.51 0a 130459.26 130459.26 0 1 1 -260918.51 0M 16962754.76 59666502.92 m -80284.08 0 a 80284.08 80284.08 0 1 1 160568.17 0a 80284.08 80284.08 0 1 1 -160568.17 0"/>
<path id="N" d="M 30925720.00 24423320.00 L 30930597.85 24416020.00 L 31082472.00 24416020.00 L 31088721.00 24422269.00 L 31126990.00 24438120.00 L 31267400.00 24438121.00 L 31305669.00 24422269.00 L 38847030.00 16880908.00 A 54119.43 54119.43 0 0 0 38770492.00 16804370.00 L 31244982.00 24329880.00 L 31149408.00 24329880.00 L 31143159.00 24323631.00 L 31104887.59 24307780.00 L 30957992.94 24307780.00 L 30953348.00 24284427.00 A 127457.60 127457.60 0 1 0 30925720.00 24423320.00  z"/>
<path id="N" d="M 41948224.86 27911280.00 L 33753803.00 27911280.00 L 30367720.00 24525196.00 L 30367720.00 23734804.00 L 31010170.00 23092354.00 L 31481840.00 23092355.00 L 31520109.00 23076503.00 L 34347030.00 20249582.00 A 54119.43 54119.43 0 1 0 34270492.00 20173044.00 L 31459422.00 22984114.00 L 30987752.00 22984113.00 L 30949483.00 22999965.00 L 30275331.00 23674117.00 L 30259480.00 23712388.41 L 30259479.00 24547614.00 L 30275331.00 24585883.00 L 33693117.00 28003669.00 L 33731386.00 28019520.00 L 41948224.86 28019520.00 L 41972280.00 28055520.00 A 127441.40 127441.40 0 1 0 41948224.86 27911280.00  z"/>
<path id="N" d="M 28538120.00 32701280.00 L 28508948.00 32681787.32 L 28508949.00 25127428.00 L 28493095.29 25089158.29 L 23863469.00 20459531.00 L 23825197.59 20443680.00 L 23278975.14 20443680.00 L 23254920.00 20407680.00 A 127441.40 127441.40 0 1 0 23254920.00 20587920.00 L 23278975.14 20551920.00 L 23802782.00 20551920.00 L 28400708.00 25149845.00 L 28400708.00 32673357.43 A 125680.92 125680.92 0 1 0 28538120.00 32701280.00  z"/>
<path id="N" d="M 41769080.00 28611880.00 L 41761997.10 28622480.00 L 33700119.00 28622480.00 L 29797520.00 24719880.00 L 29797520.00 23569818.00 L 29781667.29 23531548.29 L 27947030.00 21696910.00 A 54119.43 54119.43 0 0 0 27870492.00 21773448.00 L 29689280.00 23592235.01 L 29689279.00 24742298.00 L 29705131.00 24780567.00 L 33639433.00 28714869.00 L 33677702.00 28730720.00 L 41737463.44 28730720.00 L 41741452.00 28750773.00 A 127457.60 127457.60 0 1 0 41769080.00 28611880.00  z"/>
<path id="N" d="M 17144997.35 24145993.57 m -297829.90 0 a 297829.90 297829.90 0 1 1 595659.80 0a 297829.90 297829.90 0 1 1 -595659.80 0M 17145000.44 24145998.65 m -180637.35 0 a 180637.35 180637.35 0 1 1 361274.69 0a 180637.35 180637.35 0 1 1 -361274.69 0"/>
<path id="N" d="M 18486121.00 16781148.00 L 18013681.00 16781148.00 L 18013681.00 17253588.00 L 18486121.00 17253588.00 L 18486121.00 16781148.00  zM 18249903.38 17017362.09 m -140500.91 0 a 140500.91 140500.91 0 1 1 281001.82 0a 140500.91 140500.91 0 1 1 -281001.82 0"/>
<path id="N" d="M 25293321.00 16806548.00 L 24820881.00 16806548.00 L 24820881.00 17278988.00 L 25293321.00 17278988.00 L 25293321.00 16806548.00  zM 25057103.38 17042762.09 m -140500.91 0 a 140500.91 140500.91 0 1 1 281001.82 0a 140500.91 140500.91 0 1 1 -281001.82 0"/>
<path id="N" d="M 39687624.86 29765480.00 L 33725892.00 29765480.00 L 21447030.00 17486618.00 A 54119.43 54119.43 0 1 0 21370492.00 17563156.00 L 33665205.00 29857869.00 L 33703476.41 29873720.00 L 39687624.86 29873720.00 L 39711680.00 29909720.00 A 127441.40 127441.40 0 1 0 39687624.86 29765480.00  z"/>
</g>
</svg>
