<svg width="99.00000012mm" height="119.08716594mm" viewBox="0 0 38976378 46884711"  version="1.1" xmlns="http://www.w3.org/2000/svg" xmlns:xlink="http://www.w3.org/1999/xlink">
<desc>
Origin 0 0 Bound 10687011 14338257 38976378 46884711
</desc>
<g fill-rule="evenodd" fill="rgb(188, 142, 0)" stroke="black" stroke-width="1" transform="translate(0, 46884711) scale(1, -1) translate(-10687011, -14338257)">
<path id="N" d="M 15786738.38 59359800.38 m -130459.26 0 a 130459.26 130459.26 0 1 1 260918.51 0a 130459.26 130459.26 0 1 1 -260918.51 0M 15786737.76 59359798.92 m -80284.08 0 a 80284.08 80284.08 0 1 1 160568.17 0a 80284.08 80284.08 0 1 1 -160568.17 0"/>
<path id="N" d="M 14858993.87 19253193.87 m -127457.60 0 a 127457.60 127457.60 0 1 1 254915.19 0a 127457.60 127457.60 0 1 1 -254915.19 0"/>
<path id="N" d="M 33629593.87 33705793.87 m -127457.60 0 a 127457.60 127457.60 0 1 1 254915.19 0a 127457.60 127457.60 0 1 1 -254915.19 0"/>
<path id="N" d="M 30937199.88 15214599.88 m -254898.03 0 a 254898.03 254898.03 0 1 1 509796.06 0a 254898.03 254898.03 0 1 1 -509796.06 0"/>
<path id="N" d="M 25679399.88 28727399.88 m -254898.03 0 a 254898.03 254898.03 0 1 1 509796.06 0a 254898.03 254898.03 0 1 1 -509796.06 0"/>
<path id="N" d="M 24536399.88 28066999.88 m -254898.03 0 a 254898.03 254898.03 0 1 1 509796.06 0a 254898.03 254898.03 0 1 1 -509796.06 0"/>
<path id="N" d="M 28955999.88 29997399.88 m -254898.03 0 a 254898.03 254898.03 0 1 1 509796.06 0a 254898.03 254898.03 0 1 1 -509796.06 0"/>
<path id="N" d="M 38811199.88 33908999.88 m -254898.03 0 a 254898.03 254898.03 0 1 1 509796.06 0a 254898.03 254898.03 0 1 1 -509796.06 0"/>
<path id="N" d="M 39420799.88 15265399.88 m -254898.03 0 a 254898.03 254898.03 0 1 1 509796.06 0a 254898.03 254898.03 0 1 1 -509796.06 0"/>
<path id="N" d="M 25679399.88 27584399.88 m -254898.03 0 a 254898.03 254898.03 0 1 1 509796.06 0a 254898.03 254898.03 0 1 1 -509796.06 0"/>
<path id="N" d="M 32283393.87 33455593.87 m -127457.60 0 a 127457.60 127457.60 0 1 1 254915.19 0a 127457.60 127457.60 0 1 1 -254915.19 0"/>
<path id="N" d="M 13792193.87 16408393.87 m -127457.60 0 a 127457.60 127457.60 0 1 1 254915.19 0a 127457.60 127457.60 0 1 1 -254915.19 0"/>
<path id="N" d="M 13762649.00 60702320.00 L 13762649.00 60387360.00 A 180637.35 180637.35 0 0 0 13401377.00 60387360.00 L 13401377.00 60702320.00 A 180637.35 180637.35 0 0 0 13762649.00 60702320.00  zM 13461589.00 60702320.00 L 13461589.00 60387360.00 A 120431.73 120431.73 0 1 1 13702437.00 60387360.00 L 13702437.00 60702320.00 A 120431.73 120431.73 0 0 1 13461589.00 60702320.00  z"/>
<path id="N" d="M 17168161.00 60702320.00 L 17168161.00 60387360.00 A 180637.35 180637.35 0 0 0 16806889.00 60387360.00 L 16806889.00 60702320.00 A 180637.35 180637.35 0 0 0 17168161.00 60702320.00  zM 16867101.00 60702320.00 L 16867101.00 60387360.00 A 120431.73 120431.73 0 1 1 17107949.00 60387360.00 L 17107949.00 60702320.00 A 120431.73 120431.73 0 0 1 16867101.00 60702320.00  z"/>
<path id="N" d="M 17168161.00 59509407.00 L 17168161.00 58918855.00 A 180637.35 180637.35 0 0 0 16806889.00 58918855.00 L 16806889.00 59509407.00 A 180637.35 180637.35 0 0 0 17168161.00 59509407.00  zM 16867101.00 59509407.00 L 16867101.00 58918855.00 A 120431.73 120431.73 0 1 1 17107949.00 58918855.00 L 17107949.00 59509407.00 A 120431.73 120431.73 0 0 1 16867101.00 59509407.00  z"/>
<path id="N" d="M 13762649.00 59509407.00 L 13762649.00 58918855.00 A 180637.35 180637.35 0 0 0 13401377.00 58918855.00 L 13401377.00 59509407.00 A 180637.35 180637.35 0 0 0 13762649.00 59509407.00  zM 13461589.00 59509407.00 L 13461589.00 58918855.00 A 120431.73 120431.73 0 1 1 13702437.00 58918855.00 L 13702437.00 59509407.00 A 120431.73 120431.73 0 0 1 13461589.00 59509407.00  z"/>
<path id="N" d="M 24269690.06 17042759.06 m -240860.29 0 a 240860.29 240860.29 0 1 1 481720.58 0a 240860.29 240860.29 0 1 1 -481720.58 0M 24269701.38 17042762.09 m -140500.91 0 a 140500.91 140500.91 0 1 1 281001.82 0a 140500.91 140500.91 0 1 1 -281001.82 0"/>
<path id="N" d="M 16456029.38 59359800.38 m -130459.26 0 a 130459.26 130459.26 0 1 1 260918.51 0a 130459.26 130459.26 0 1 1 -260918.51 0M 16456028.76 59359798.92 m -80284.08 0 a 80284.08 80284.08 0 1 1 160568.17 0a 80284.08 80284.08 0 1 1 -160568.17 0"/>
<path id="N" d="M 14113509.38 59359800.38 m -130459.26 0 a 130459.26 130459.26 0 1 1 260918.51 0a 130459.26 130459.26 0 1 1 -260918.51 0M 14113508.76 59359798.92 m -80284.08 0 a 80284.08 80284.08 0 1 1 160568.17 0a 80284.08 80284.08 0 1 1 -160568.17 0"/>
<path id="N" d="M 16456029.38 58828304.38 m -130459.26 0 a 130459.26 130459.26 0 1 1 260918.51 0a 130459.26 130459.26 0 1 1 -260918.51 0M 16456028.76 58828302.92 m -80284.08 0 a 80284.08 80284.08 0 1 1 160568.17 0a 80284.08 80284.08 0 1 1 -160568.17 0"/>
<path id="N" d="M 17462490.06 17017359.06 m -240860.29 0 a 240860.29 240860.29 0 1 1 481720.58 0a 240860.29 240860.29 0 1 1 -481720.58 0M 17462501.38 17017362.09 m -140500.91 0 a 140500.91 140500.91 0 1 1 281001.82 0a 140500.91 140500.91 0 1 1 -281001.82 0"/>
<path id="N" d="M 14113509.38 58828304.38 m -130459.26 0 a 130459.26 130459.26 0 1 1 260918.51 0a 130459.26 130459.26 0 1 1 -260918.51 0M 14113508.76 58828302.92 m -80284.08 0 a 80284.08 80284.08 0 1 1 160568.17 0a 80284.08 80284.08 0 1 1 -160568.17 0"/>
<path id="N" d="M 34569393.87 33426393.87 m -127457.60 0 a 127457.60 127457.60 0 1 1 254915.19 0a 127457.60 127457.60 0 1 1 -254915.19 0"/>
<path id="N" d="M 33248593.87 31876993.87 m -127457.60 0 a 127457.60 127457.60 0 1 1 254915.19 0a 127457.60 127457.60 0 1 1 -254915.19 0"/>
<path id="N" d="M 40004993.87 31851593.87 m -127457.60 0 a 127457.60 127457.60 0 1 1 254915.19 0a 127457.60 127457.60 0 1 1 -254915.19 0"/>
<path id="N" d="M 43510193.87 31851593.87 m -127457.60 0 a 127457.60 127457.60 0 1 1 254915.19 0a 127457.60 127457.60 0 1 1 -254915.19 0"/>
<path id="N" d="M 21513793.87 27939993.87 m -127457.60 0 a 127457.60 127457.60 0 1 1 254915.19 0a 127457.60 127457.60 0 1 1 -254915.19 0"/>
<path id="N" d="M 31673793.87 31851593.87 m -127457.60 0 a 127457.60 127457.60 0 1 1 254915.19 0a 127457.60 127457.60 0 1 1 -254915.19 0"/>
<path id="N" d="M 21545543.87 27304993.87 m -127457.60 0 a 127457.60 127457.60 0 1 1 254915.19 0a 127457.60 127457.60 0 1 1 -254915.19 0"/>
<path id="N" d="M 21539193.87 26669993.87 m -127457.60 0 a 127457.60 127457.60 0 1 1 254915.19 0a 127457.60 127457.60 0 1 1 -254915.19 0"/>
<path id="N" d="M 41757593.87 17678393.87 m -127457.60 0 a 127457.60 127457.60 0 1 1 254915.19 0a 127457.60 127457.60 0 1 1 -254915.19 0"/>
<path id="N" d="M 20243793.87 18973793.87 m -127457.60 0 a 127457.60 127457.60 0 1 1 254915.19 0a 127457.60 127457.60 0 1 1 -254915.19 0"/>
<path id="N" d="M 33299393.87 17652993.87 m -127457.60 0 a 127457.60 127457.60 0 1 1 254915.19 0a 127457.60 127457.60 0 1 1 -254915.19 0"/>
<path id="N" d="M 39979593.87 17652993.87 m -127457.60 0 a 127457.60 127457.60 0 1 1 254915.19 0a 127457.60 127457.60 0 1 1 -254915.19 0"/>
<path id="N" d="M 22188998.87 18863738.87 m -127457.60 0 a 127457.60 127457.60 0 1 1 254915.19 0a 127457.60 127457.60 0 1 1 -254915.19 0"/>
<path id="N" d="M 41782993.87 31851593.87 m -127457.60 0 a 127457.60 127457.60 0 1 1 254915.19 0a 127457.60 127457.60 0 1 1 -254915.19 0"/>
<path id="N" d="M 22129743.87 20675593.87 m -127457.60 0 a 127457.60 127457.60 0 1 1 254915.19 0a 127457.60 127457.60 0 1 1 -254915.19 0"/>
<path id="N" d="M 19913593.87 18110193.87 m -127457.60 0 a 127457.60 127457.60 0 1 1 254915.19 0a 127457.60 127457.60 0 1 1 -254915.19 0"/>
<path id="N" d="M 29971993.87 31851593.87 m -127457.60 0 a 127457.60 127457.60 0 1 1 254915.19 0a 127457.60 127457.60 0 1 1 -254915.19 0"/>
<path id="N" d="M 21026150.87 21248400.87 m -127457.60 0 a 127457.60 127457.60 0 1 1 254915.19 0a 127457.60 127457.60 0 1 1 -254915.19 0"/>
<path id="N" d="M 22815543.87 22809193.87 m -127457.60 0 a 127457.60 127457.60 0 1 1 254915.19 0a 127457.60 127457.60 0 1 1 -254915.19 0"/>
<path id="N" d="M 19735793.87 22199593.87 m -127457.60 0 a 127457.60 127457.60 0 1 1 254915.19 0a 127457.60 127457.60 0 1 1 -254915.19 0"/>
<path id="N" d="M 22713943.87 24612593.87 m -127457.60 0 a 127457.60 127457.60 0 1 1 254915.19 0a 127457.60 127457.60 0 1 1 -254915.19 0"/>
<path id="N" d="M 21189943.87 24485593.87 m -127457.60 0 a 127457.60 127457.60 0 1 1 254915.19 0a 127457.60 127457.60 0 1 1 -254915.19 0"/>
<path id="N" d="M 34772593.87 17678393.87 m -127457.60 0 a 127457.60 127457.60 0 1 1 254915.19 0a 127457.60 127457.60 0 1 1 -254915.19 0"/>
<path id="N" d="M 43484793.87 17652993.87 m -127457.60 0 a 127457.60 127457.60 0 1 1 254915.19 0a 127457.60 127457.60 0 1 1 -254915.19 0"/>
<path id="N" d="M 24314143.87 24434793.87 m -127457.60 0 a 127457.60 127457.60 0 1 1 254915.19 0a 127457.60 127457.60 0 1 1 -254915.19 0"/>
<path id="N" d="M 18897593.87 21437593.87 m -127457.60 0 a 127457.60 127457.60 0 1 1 254915.19 0a 127457.60 127457.60 0 1 1 -254915.19 0"/>
<path id="N" d="M 21545543.87 26009593.87 m -127457.60 0 a 127457.60 127457.60 0 1 1 254915.19 0a 127457.60 127457.60 0 1 1 -254915.19 0"/>
<path id="N" d="M 21691593.87 24815793.87 m -127457.60 0 a 127457.60 127457.60 0 1 1 254915.19 0a 127457.60 127457.60 0 1 1 -254915.19 0"/>
<path id="N" d="M 32667500.87 28451286.87 m -127457.60 0 a 127457.60 127457.60 0 1 1 254915.19 0a 127457.60 127457.60 0 1 1 -254915.19 0"/>
<path id="N" d="M 30175193.87 23215593.87 m -127457.60 0 a 127457.60 127457.60 0 1 1 254915.19 0a 127457.60 127457.60 0 1 1 -254915.19 0"/>
<path id="N" d="M 40614593.87 27558993.87 m -127457.60 0 a 127457.60 127457.60 0 1 1 254915.19 0a 127457.60 127457.60 0 1 1 -254915.19 0"/>
<path id="N" d="M 33211563.87 33775593.87 m -127457.60 0 a 127457.60 127457.60 0 1 1 254915.19 0a 127457.60 127457.60 0 1 1 -254915.19 0"/>
<path id="N" d="M 13715993.87 18389593.87 m -127457.60 0 a 127457.60 127457.60 0 1 1 254915.19 0a 127457.60 127457.60 0 1 1 -254915.19 0"/>
<path id="N" d="M 14773397.35 33553393.57 m -297829.90 0 a 297829.90 297829.90 0 1 1 595659.80 0a 297829.90 297829.90 0 1 1 -595659.80 0M 14773400.44 33553398.65 m -180637.35 0 a 180637.35 180637.35 0 1 1 361274.69 0a 180637.35 180637.35 0 1 1 -361274.69 0"/>
<path id="N" d="M 15117446.38 58828304.38 m -130459.26 0 a 130459.26 130459.26 0 1 1 260918.51 0a 130459.26 130459.26 0 1 1 -260918.51 0M 15117445.76 58828302.92 m -80284.08 0 a 80284.08 80284.08 0 1 1 160568.17 0a 80284.08 80284.08 0 1 1 -160568.17 0"/>
<path id="N" d="M 15452092.38 59359800.38 m -130459.26 0 a 130459.26 130459.26 0 1 1 260918.51 0a 130459.26 130459.26 0 1 1 -260918.51 0M 15452091.76 59359798.92 m -80284.08 0 a 80284.08 80284.08 0 1 1 160568.17 0a 80284.08 80284.08 0 1 1 -160568.17 0"/>
<path id="N" d="M 41605193.87 29463993.87 m -127457.60 0 a 127457.60 127457.60 0 1 1 254915.19 0a 127457.60 127457.60 0 1 1 -254915.19 0"/>
<path id="N" d="M 16121383.38 58828304.38 m -130459.26 0 a 130459.26 130459.26 0 1 1 260918.51 0a 130459.26 130459.26 0 1 1 -260918.51 0M 16121382.76 58828302.92 m -80284.08 0 a 80284.08 80284.08 0 1 1 160568.17 0a 80284.08 80284.08 0 1 1 -160568.17 0"/>
<path id="N" d="M 14448155.38 58828304.38 m -130459.26 0 a 130459.26 130459.26 0 1 1 260918.51 0a 130459.26 130459.26 0 1 1 -260918.51 0M 14448154.76 58828302.92 m -80284.08 0 a 80284.08 80284.08 0 1 1 160568.17 0a 80284.08 80284.08 0 1 1 -160568.17 0"/>
<path id="N" d="M 14448155.38 59359800.38 m -130459.26 0 a 130459.26 130459.26 0 1 1 260918.51 0a 130459.26 130459.26 0 1 1 -260918.51 0M 14448154.76 59359798.92 m -80284.08 0 a 80284.08 80284.08 0 1 1 160568.17 0a 80284.08 80284.08 0 1 1 -160568.17 0"/>
<path id="N" d="M 16121383.38 59359800.38 m -130459.26 0 a 130459.26 130459.26 0 1 1 260918.51 0a 130459.26 130459.26 0 1 1 -260918.51 0M 16121382.76 59359798.92 m -80284.08 0 a 80284.08 80284.08 0 1 1 160568.17 0a 80284.08 80284.08 0 1 1 -160568.17 0"/>
<path id="N" d="M 20421599.88 29997399.88 m -254898.03 0 a 254898.03 254898.03 0 1 1 509796.06 0a 254898.03 254898.03 0 1 1 -509796.06 0"/>
<path id="N" d="M 14782800.38 58828304.38 m -130459.26 0 a 130459.26 130459.26 0 1 1 260918.51 0a 130459.26 130459.26 0 1 1 -260918.51 0M 14782799.76 58828302.92 m -80284.08 0 a 80284.08 80284.08 0 1 1 160568.17 0a 80284.08 80284.08 0 1 1 -160568.17 0"/>
<path id="N" d="M 40379593.87 28346393.87 m -127457.60 0 a 127457.60 127457.60 0 1 1 254915.19 0a 127457.60 127457.60 0 1 1 -254915.19 0"/>
<path id="N" d="M 30810193.87 23875993.87 m -127457.60 0 a 127457.60 127457.60 0 1 1 254915.19 0a 127457.60 127457.60 0 1 1 -254915.19 0"/>
<path id="N" d="M 40131993.87 29159193.87 m -127457.60 0 a 127457.60 127457.60 0 1 1 254915.19 0a 127457.60 127457.60 0 1 1 -254915.19 0"/>
<path id="N" d="M 41376593.87 30098993.87 m -127457.60 0 a 127457.60 127457.60 0 1 1 254915.19 0a 127457.60 127457.60 0 1 1 -254915.19 0"/>
<path id="N" d="M 14786064.87 17453064.87 m -127457.60 0 a 127457.60 127457.60 0 1 1 254915.19 0a 127457.60 127457.60 0 1 1 -254915.19 0"/>
<path id="N" d="M 32715193.87 33615593.87 m -127457.60 0 a 127457.60 127457.60 0 1 1 254915.19 0a 127457.60 127457.60 0 1 1 -254915.19 0"/>
<path id="N" d="M 15452092.38 58828304.38 m -130459.26 0 a 130459.26 130459.26 0 1 1 260918.51 0a 130459.26 130459.26 0 1 1 -260918.51 0M 15452091.76 58828302.92 m -80284.08 0 a 80284.08 80284.08 0 1 1 160568.17 0a 80284.08 80284.08 0 1 1 -160568.17 0"/>
<path id="N" d="M 15117446.38 59359800.38 m -130459.26 0 a 130459.26 130459.26 0 1 1 260918.51 0a 130459.26 130459.26 0 1 1 -260918.51 0M 15117445.76 59359798.92 m -80284.08 0 a 80284.08 80284.08 0 1 1 160568.17 0a 80284.08 80284.08 0 1 1 -160568.17 0"/>
<path id="N" d="M 16068675.00 33258125.00 L 15478125.00 33258125.00 L 15478125.00 33848675.00 L 16068675.00 33848675.00 L 16068675.00 33258125.00  zM 15773400.44 33553398.65 m -180637.35 0 a 180637.35 180637.35 0 1 1 361274.69 0a 180637.35 180637.35 0 1 1 -361274.69 0"/>
<path id="N" d="M 17440275.00 24850725.00 L 16849725.00 24850725.00 L 16849725.00 25441275.00 L 17440275.00 25441275.00 L 17440275.00 24850725.00  zM 17145000.44 25145998.65 m -180637.35 0 a 180637.35 180637.35 0 1 1 361274.69 0a 180637.35 180637.35 0 1 1 -361274.69 0"/>
<path id="N" d="M 21697943.87 25323793.87 m -127457.60 0 a 127457.60 127457.60 0 1 1 254915.19 0a 127457.60 127457.60 0 1 1 -254915.19 0"/>
<path id="N" d="M 23653743.87 24307793.87 m -127457.60 0 a 127457.60 127457.60 0 1 1 254915.19 0a 127457.60 127457.60 0 1 1 -254915.19 0"/>
<path id="N" d="M 29489393.87 24028393.87 m -127457.60 0 a 127457.60 127457.60 0 1 1 254915.19 0a 127457.60 127457.60 0 1 1 -254915.19 0"/>
<path id="N" d="M 14782800.38 59359800.38 m -130459.26 0 a 130459.26 130459.26 0 1 1 260918.51 0a 130459.26 130459.26 0 1 1 -260918.51 0M 14782799.76 59359798.92 m -80284.08 0 a 80284.08 80284.08 0 1 1 160568.17 0a 80284.08 80284.08 0 1 1 -160568.17 0"/>
<path id="N" d="M 15786738.38 58828304.38 m -130459.26 0 a 130459.26 130459.26 0 1 1 260918.51 0a 130459.26 130459.26 0 1 1 -260918.51 0M 15786737.76 58828302.92 m -80284.08 0 a 80284.08 80284.08 0 1 1 160568.17 0a 80284.08 80284.08 0 1 1 -160568.17 0"/>
<path id="N" d="M 30835593.87 24333193.87 m -127457.60 0 a 127457.60 127457.60 0 1 1 254915.19 0a 127457.60 127457.60 0 1 1 -254915.19 0"/>
<path id="N" d="M 42062393.87 27965393.87 m -127457.60 0 a 127457.60 127457.60 0 1 1 254915.19 0a 127457.60 127457.60 0 1 1 -254915.19 0"/>
<path id="N" d="M 23164793.87 20497793.87 m -127457.60 0 a 127457.60 127457.60 0 1 1 254915.19 0a 127457.60 127457.60 0 1 1 -254915.19 0"/>
<path id="N" d="M 28447993.87 32791393.87 m -127457.60 0 a 127457.60 127457.60 0 1 1 254915.19 0a 127457.60 127457.60 0 1 1 -254915.19 0"/>
<path id="N" d="M 41859193.87 28701993.87 m -127457.60 0 a 127457.60 127457.60 0 1 1 254915.19 0a 127457.60 127457.60 0 1 1 -254915.19 0"/>
<path id="N" d="M 17144997.35 24145993.57 m -297829.90 0 a 297829.90 297829.90 0 1 1 595659.80 0a 297829.90 297829.90 0 1 1 -595659.80 0M 17145000.44 24145998.65 m -180637.35 0 a 180637.35 180637.35 0 1 1 361274.69 0a 180637.35 180637.35 0 1 1 -361274.69 0"/>
<path id="N" d="M 18486121.00 16781148.00 L 18013681.00 16781148.00 L 18013681.00 17253588.00 L 18486121.00 17253588.00 L 18486121.00 16781148.00  zM 18249903.38 17017362.09 m -140500.91 0 a 140500.91 140500.91 0 1 1 281001.82 0a 140500.91 140500.91 0 1 1 -281001.82 0"/>
<path id="N" d="M 25293321.00 16806548.00 L 24820881.00 16806548.00 L 24820881.00 17278988.00 L 25293321.00 17278988.00 L 25293321.00 16806548.00  zM 25057103.38 17042762.09 m -140500.91 0 a 140500.91 140500.91 0 1 1 281001.82 0a 140500.91 140500.91 0 1 1 -281001.82 0"/>
<path id="N" d="M 39801793.87 29819593.87 m -127457.60 0 a 127457.60 127457.60 0 1 1 254915.19 0a 127457.60 127457.60 0 1 1 -254915.19 0"/>
</g>
</svg>
