G04*
G04 #@! TF.GenerationSoftware,Altium Limited,Altium Designer,22.7.1 (60)*
G04*
G04 Layer_Color=65535*
%FSLAX44Y44*%
%MOMM*%
G71*
G04*
G04 #@! TF.SameCoordinates,592D77DD-D8C5-47A4-952F-68E34D40BC98*
G04*
G04*
G04 #@! TF.FilePolarity,Positive*
G04*
G01*
G75*
%ADD10C,0.2500*%
%ADD11C,0.2540*%
%ADD12C,0.2000*%
%ADD13C,0.1524*%
%ADD14C,0.1500*%
%ADD15C,0.0762*%
%ADD16R,0.6750X0.5500*%
%ADD17R,0.5500X0.6750*%
D10*
X939556Y707594D02*
G03*
X939556Y707594I-1250J0D01*
G01*
X887740Y707848D02*
G03*
X887740Y707848I-1250J0D01*
G01*
X835670Y707594D02*
G03*
X835670Y707594I-1250J0D01*
G01*
X1188750Y823498D02*
G03*
X1188750Y823498I-1250J0D01*
G01*
X1187734Y773460D02*
G03*
X1187734Y773460I-1250J0D01*
G01*
Y722406D02*
G03*
X1187734Y722406I-1250J0D01*
G01*
X1187226Y670844D02*
G03*
X1187226Y670844I-1250J0D01*
G01*
X840018Y618508D02*
G03*
X840018Y618508I-1250J0D01*
G01*
D11*
X1026183Y558138D02*
G03*
X1169393Y558138I71605J26062D01*
G01*
Y610262D02*
G03*
X1026183Y610262I-71605J-26062D01*
G01*
X951993Y814576D02*
X949454Y817115D01*
X944375D01*
X941836Y814576D01*
Y804420D01*
X944375Y801880D01*
X949454D01*
X951993Y804420D01*
X967228Y801880D02*
X957071D01*
X967228Y812037D01*
Y814576D01*
X964689Y817115D01*
X959610D01*
X957071Y814576D01*
X905510Y813560D02*
X902971Y816099D01*
X897893D01*
X895353Y813560D01*
Y803404D01*
X897893Y800864D01*
X902971D01*
X905510Y803404D01*
X910588Y800864D02*
X915667D01*
X913128D01*
Y816099D01*
X910588Y813560D01*
X847853Y814576D02*
X845314Y817115D01*
X840235D01*
X837696Y814576D01*
Y804420D01*
X840235Y801880D01*
X845314D01*
X847853Y804420D01*
X852931Y814576D02*
X855470Y817115D01*
X860549D01*
X863088Y814576D01*
Y812037D01*
X860549Y809498D01*
X858009D01*
X860549D01*
X863088Y806959D01*
Y804420D01*
X860549Y801880D01*
X855470D01*
X852931Y804420D01*
X985015Y868169D02*
Y855474D01*
X987554Y852934D01*
X992633D01*
X995172Y855474D01*
Y868169D01*
X1000250Y852934D02*
X1005329D01*
X1002790D01*
Y868169D01*
X1000250Y865630D01*
X1192278Y839725D02*
X1189738Y837186D01*
Y832107D01*
X1192278Y829568D01*
X1202434D01*
X1204974Y832107D01*
Y837186D01*
X1202434Y839725D01*
Y844803D02*
X1204974Y847342D01*
Y852421D01*
X1202434Y854960D01*
X1192278D01*
X1189738Y852421D01*
Y847342D01*
X1192278Y844803D01*
X1194817D01*
X1197356Y847342D01*
Y854960D01*
X1191008Y789687D02*
X1188468Y787148D01*
Y782069D01*
X1191008Y779530D01*
X1201164D01*
X1203704Y782069D01*
Y787148D01*
X1201164Y789687D01*
X1191008Y794765D02*
X1188468Y797304D01*
Y802383D01*
X1191008Y804922D01*
X1193547D01*
X1196086Y802383D01*
X1198625Y804922D01*
X1201164D01*
X1203704Y802383D01*
Y797304D01*
X1201164Y794765D01*
X1198625D01*
X1196086Y797304D01*
X1193547Y794765D01*
X1191008D01*
X1196086Y797304D02*
Y802383D01*
X1193294Y738887D02*
X1190754Y736348D01*
Y731269D01*
X1193294Y728730D01*
X1203450D01*
X1205990Y731269D01*
Y736348D01*
X1203450Y738887D01*
X1190754Y743965D02*
Y754122D01*
X1193294D01*
X1203450Y743965D01*
X1205990D01*
X1193294Y688341D02*
X1190754Y685802D01*
Y680723D01*
X1193294Y678184D01*
X1203450D01*
X1205990Y680723D01*
Y685802D01*
X1203450Y688341D01*
X1190754Y703576D02*
X1193294Y698497D01*
X1198372Y693419D01*
X1203450D01*
X1205990Y695958D01*
Y701037D01*
X1203450Y703576D01*
X1200911D01*
X1198372Y701037D01*
Y693419D01*
X1079756Y677924D02*
X1077217Y680463D01*
X1072139D01*
X1069599Y677924D01*
Y667768D01*
X1072139Y665229D01*
X1077217D01*
X1079756Y667768D01*
X1084834Y665229D02*
X1089913D01*
X1087374D01*
Y680463D01*
X1084834Y677924D01*
X1097530Y665229D02*
X1102609D01*
X1100070D01*
Y680463D01*
X1097530Y677924D01*
X950471Y703070D02*
X947932Y705610D01*
X942853D01*
X940314Y703070D01*
Y692914D01*
X942853Y690375D01*
X947932D01*
X950471Y692914D01*
X955549Y690375D02*
X960628D01*
X958088D01*
Y705610D01*
X955549Y703070D01*
X968245D02*
X970784Y705610D01*
X975863D01*
X978402Y703070D01*
Y692914D01*
X975863Y690375D01*
X970784D01*
X968245Y692914D01*
Y703070D01*
X1010667Y636776D02*
X1008128Y639315D01*
X1003049D01*
X1000510Y636776D01*
Y626620D01*
X1003049Y624081D01*
X1008128D01*
X1010667Y626620D01*
X1025902Y639315D02*
X1015745D01*
Y631698D01*
X1020824Y634237D01*
X1023363D01*
X1025902Y631698D01*
Y626620D01*
X1023363Y624081D01*
X1018284D01*
X1015745Y626620D01*
X989582Y667515D02*
X974346D01*
Y675133D01*
X976886Y677672D01*
X981964D01*
X984503Y675133D01*
Y667515D01*
Y672594D02*
X989582Y677672D01*
Y682750D02*
Y687829D01*
Y685290D01*
X974346D01*
X976886Y682750D01*
X950469Y681226D02*
X947930Y683765D01*
X942851D01*
X940312Y681226D01*
Y671070D01*
X942851Y668531D01*
X947930D01*
X950469Y671070D01*
X963165Y668531D02*
Y683765D01*
X955547Y676148D01*
X965704D01*
X866143Y654556D02*
Y639320D01*
X873761D01*
X876300Y641860D01*
Y652016D01*
X873761Y654556D01*
X866143D01*
X881378Y639320D02*
X886457D01*
X883918D01*
Y654556D01*
X881378Y652016D01*
X1179574Y653539D02*
X1164339D01*
Y643382D01*
Y638304D02*
Y633225D01*
Y635764D01*
X1179574D01*
X1177034Y638304D01*
D12*
X933056Y714094D02*
Y790094D01*
X979056Y714094D02*
Y790094D01*
X933056Y714094D02*
X939806D01*
X933056Y790094D02*
X939806D01*
X972306Y714094D02*
X979056D01*
X972306Y790094D02*
X979056D01*
X972306Y714094D02*
Y719594D01*
X979056D01*
X933056D02*
X939806D01*
Y714094D02*
Y719594D01*
X881240Y714348D02*
Y790348D01*
X927240Y714348D02*
Y790348D01*
X881240Y714348D02*
X887990D01*
X881240Y790348D02*
X887990D01*
X920490Y714348D02*
X927240D01*
X920490Y790348D02*
X927240D01*
X920490Y714348D02*
Y719848D01*
X927240D01*
X881240D02*
X887990D01*
Y714348D02*
Y719848D01*
X829170Y714094D02*
Y790094D01*
X875170Y714094D02*
Y790094D01*
X829170Y714094D02*
X835920D01*
X829170Y790094D02*
X835920D01*
X868420Y714094D02*
X875170D01*
X868420Y790094D02*
X875170D01*
X868420Y714094D02*
Y719594D01*
X875170D01*
X829170D02*
X835920D01*
Y714094D02*
Y719594D01*
X1105000Y818248D02*
X1181000D01*
X1105000Y864248D02*
X1181000D01*
Y818248D02*
Y824998D01*
X1105000Y818248D02*
Y824998D01*
X1181000Y857498D02*
Y864248D01*
X1105000Y857498D02*
Y864248D01*
X1175500Y857498D02*
X1181000D01*
X1175500D02*
Y864248D01*
Y818248D02*
Y824998D01*
X1181000D01*
X1103984Y768210D02*
X1179984D01*
X1103984Y814210D02*
X1179984D01*
Y768210D02*
Y774960D01*
X1103984Y768210D02*
Y774960D01*
X1179984Y807460D02*
Y814210D01*
X1103984Y807460D02*
Y814210D01*
X1174484Y807460D02*
X1179984D01*
X1174484D02*
Y814210D01*
Y768210D02*
Y774960D01*
X1179984D01*
X1103984Y717156D02*
X1179984D01*
X1103984Y763156D02*
X1179984D01*
Y717156D02*
Y723906D01*
X1103984Y717156D02*
Y723906D01*
X1179984Y756406D02*
Y763156D01*
X1103984Y756406D02*
Y763156D01*
X1174484Y756406D02*
X1179984D01*
X1174484D02*
Y763156D01*
Y717156D02*
Y723906D01*
X1179984D01*
X1103476Y665594D02*
X1179476D01*
X1103476Y711594D02*
X1179476D01*
Y665594D02*
Y672344D01*
X1103476Y665594D02*
Y672344D01*
X1179476Y704844D02*
Y711594D01*
X1103476Y704844D02*
Y711594D01*
X1173976Y704844D02*
X1179476D01*
X1173976D02*
Y711594D01*
Y665594D02*
Y672344D01*
X1179476D01*
X864768Y524858D02*
X887268D01*
X864768D02*
Y631858D01*
X887268D01*
D13*
X1079754Y715264D02*
Y724154D01*
X1067054Y715264D02*
Y724154D01*
X1054354Y715264D02*
Y724154D01*
X1041654Y715264D02*
Y724154D01*
X1028954Y715264D02*
Y724154D01*
X1016254Y715264D02*
Y724154D01*
X1003554Y715264D02*
Y724154D01*
X1071626Y715264D02*
Y724154D01*
X1058926Y715264D02*
Y724154D01*
X1046226Y715264D02*
Y724154D01*
X1033526Y715264D02*
Y724154D01*
X1020826Y715264D02*
Y724154D01*
X1008126Y715264D02*
Y724154D01*
X995426Y715264D02*
Y724154D01*
D14*
X1050290Y662830D02*
Y680830D01*
X1067290Y676830D02*
Y680830D01*
X1033290D02*
X1067290D01*
X1033290Y676830D02*
Y680830D01*
Y662830D02*
Y666830D01*
Y662830D02*
X1067290D01*
Y666830D01*
X1016000Y662830D02*
Y680830D01*
X999000Y662830D02*
Y666830D01*
Y662830D02*
X1033000D01*
Y666830D01*
Y676830D02*
Y680830D01*
X999000D02*
X1033000D01*
X999000Y676830D02*
Y680830D01*
X1009396Y642764D02*
Y660764D01*
X1026396Y656764D02*
Y660764D01*
X992396D02*
X1026396D01*
X992396Y656764D02*
Y660764D01*
Y642764D02*
Y646764D01*
Y642764D02*
X1026396D01*
Y646764D01*
X975218Y648208D02*
X989218D01*
X987298Y660908D02*
X989218D01*
Y635508D02*
Y660908D01*
X987298Y635508D02*
X989218D01*
X975218D02*
X977138D01*
X975218D02*
Y660908D01*
X977138D01*
X956310Y644034D02*
Y662034D01*
X939310Y644034D02*
Y648034D01*
Y644034D02*
X973310D01*
Y648034D01*
Y658034D02*
Y662034D01*
X939310D02*
X973310D01*
X939310Y658034D02*
Y662034D01*
D15*
X983615Y702476D02*
X992079Y694012D01*
X983615D02*
X992079Y702476D01*
X983615Y698244D02*
X992079D01*
X987847Y694012D02*
Y702476D01*
D16*
X975681Y716844D02*
D03*
X936431Y716844D02*
D03*
X923865Y717098D02*
D03*
X884615D02*
D03*
X871795Y716844D02*
D03*
X832545Y716844D02*
D03*
D17*
X1178250Y860873D02*
D03*
Y821623D02*
D03*
X1177234Y810835D02*
D03*
Y771585D02*
D03*
Y759781D02*
D03*
Y720531D02*
D03*
X1176726Y708219D02*
D03*
Y668969D02*
D03*
M02*
