M48
;Layer_Color=9474304
;FILE_FORMAT=4:4
METRIC,LZ
;TYPE=PLATED
T1F00S00C0.3048
%
T01
X011938Y00508
X012065Y005334
X011938Y005588
X012065Y005842
Y00635
Y006858
Y007366
Y007874
X01130046Y00791718
X01112012Y00774954
X01110996Y00757682
X011176Y00762
X01143
X01130046Y00740918
X01111504Y00723392
X011176Y007112
X01143
X01130046Y00696722
X01129792Y00687578
Y00678434
X011176Y006604
X01143
X011303Y00635
X01112266Y0063246
X01102868Y00642366
X01093216Y00650748
X010922Y006604
X0108458Y00659384
X0107696Y0066675
X01072134Y00674624
X01092708Y00678688
X01092454Y0068707
Y00695198
X010922Y007112
X01094232Y00731012
Y0073914
X01094486Y00747776
X01074166Y00748538
Y00718566
X01062482
X01052068
X01037336Y00715772
Y00722884
X0102489Y00723138
Y00716788
X01038352Y00747776
X01057656Y00764794
X01073404Y0078359
X01093978Y00781812
Y0078994
X0103759Y00783336
X01017524Y00765048
X00998728Y0078359
X009779Y007874
X009652Y00762
X009398
X009144
X00889
X008636
X008382
X008128
X008255Y007874
X008763
X009271
Y006858
X009525
X009779
X00947674Y00664972
X00936244Y00653034
X00948182Y00640334
X009144Y006604
X00889
X008636
X008382
X008128
X008255Y006858
X008509
X008763
X009017
X008763Y00635
X008509
X008255
Y005842
X00821182Y0056769
X00810768Y00567436
X00810514Y00557276
Y00547878
Y00537718
X00821436Y00537972
X008509Y005334
X008763
X00889Y00508
X009144
X009398
X009652
X009906
X01016
X010414
X010668
X010922
X011176
X01143
X011684
X011811Y005334
X011557
X011303
X011049
X010795
X010541
X010287
X010033
X01016Y005588
X010414
X010668
X010922
X011176
X01143
X011684
X011049Y005842
X010795
X010541
X010668Y006096
X01073404Y00617982
X01065276Y00626618
X0105664Y00634492
X01048004Y0064262
X01043432Y00651256
Y00659892
X01032256Y00656082
Y00648208
X010287Y00635
X010414Y006096
X0103759Y00681736
X00997204Y00747522
X008255Y007366
X008128Y007112
X008509Y005842
X008763
X008636Y005588
Y00508
X008382
X008128
Y008128
X008382
X00842772Y00799846
X00851916Y00799592
X00860806Y00799846
X008636Y008128
X00889
X00895096Y00799592
X0090424
X00912876Y00799338
X009144Y008128
X009398
X00946658Y00799084
X00956056
X00964692
X009652Y008128
X00997458Y00817118
X01017016Y00802132
X01037844Y00817626
X01074166Y00818134
X01059688Y008001
X01093724Y00798068
X01111758Y00807974
X011176Y008128
X0111125Y0082423
X0109474Y0083312
X01094486Y0084201
X01094232Y0084963
X010922Y008636
X01112012Y00858266
X011176Y008636
X01143
X011684
X01130046Y00840232
X01143Y008128
X010668Y008636
X010414
X01016
X009906
X009652
X009398
X009144
X00889
X008636
X008382
X008128
X008255Y008382
X008509
X008763
X009017
X009271
X009525
X009779
X012065
X011938Y008636
M30
