G04*
G04 #@! TF.GenerationSoftware,Altium Limited,Altium Designer,22.7.1 (60)*
G04*
G04 Layer_Physical_Order=1*
G04 Layer_Color=255*
%FSLAX44Y44*%
%MOMM*%
G71*
G04*
G04 #@! TF.SameCoordinates,592D77DD-D8C5-47A4-952F-68E34D40BC98*
G04*
G04*
G04 #@! TF.FilePolarity,Positive*
G04*
G01*
G75*
%ADD18R,2.4500X2.5500*%
%ADD19R,10.4140X10.4648*%
%ADD20R,0.8636X2.6924*%
%ADD21R,2.5500X2.4500*%
%ADD22R,1.3000X1.4000*%
%ADD23R,0.9500X0.8500*%
%ADD24R,9.3000X10.7500*%
%ADD25R,4.1500X1.8500*%
%ADD26R,2.9200X2.7900*%
%ADD37C,0.7620*%
%ADD38C,0.5588*%
G36*
X1223518Y498348D02*
X802132D01*
Y895096D01*
X1223518D01*
Y498348D01*
D02*
G37*
%LPC*%
G36*
X839724Y737412D02*
X838733Y737215D01*
X838612Y737134D01*
X837380D01*
Y735886D01*
X837331Y735813D01*
X837134Y734822D01*
Y709168D01*
X837331Y708177D01*
X837380Y708104D01*
Y706554D01*
X866960D01*
Y706578D01*
X941266D01*
Y706554D01*
X970846D01*
Y706578D01*
X987806D01*
X988797Y706775D01*
X989637Y707337D01*
X991409Y709108D01*
X992582Y708622D01*
Y688397D01*
X975561Y671375D01*
X974999Y670535D01*
X974802Y669544D01*
Y654187D01*
X973532Y653509D01*
X973350Y653630D01*
Y662574D01*
X955270D01*
Y643494D01*
X964194D01*
X970118Y637570D01*
X972218Y636166D01*
X973467Y635918D01*
X973342Y634648D01*
X888728D01*
Y632112D01*
X888696Y631952D01*
Y524764D01*
X888728Y524604D01*
Y522068D01*
X986808D01*
Y523660D01*
X1008179Y545031D01*
X1008741Y545871D01*
X1008938Y546862D01*
Y567640D01*
X1035558D01*
X1035909Y567710D01*
X1038078D01*
Y569879D01*
X1038148Y570230D01*
Y604266D01*
X1037951Y605257D01*
X1037389Y606097D01*
X1002533Y640954D01*
X1003058Y642224D01*
X1026436D01*
X1026436Y642224D01*
Y642224D01*
X1027294Y641379D01*
X1027377Y641297D01*
X1028217Y640735D01*
X1029208Y640538D01*
X1036574D01*
X1037565Y640735D01*
X1038405Y641297D01*
X1038967Y642137D01*
X1039164Y643128D01*
Y657859D01*
X1038967Y658850D01*
X1038967Y658850D01*
X1038656Y659600D01*
Y660654D01*
X1038459Y661645D01*
X1037897Y662485D01*
X1037057Y663047D01*
X1036066Y663244D01*
X1029462D01*
X1028471Y663047D01*
X1027631Y662485D01*
X1027286Y662140D01*
X1026436Y661304D01*
Y661304D01*
X1026436Y661304D01*
X1017726D01*
X1017040Y662290D01*
Y664843D01*
X1017066Y664972D01*
Y681679D01*
X1017630Y682244D01*
X1031748D01*
Y707394D01*
X1031798Y707644D01*
Y727202D01*
X1031601Y728193D01*
X1031039Y729033D01*
X1030199Y729595D01*
X1029208Y729792D01*
X1020572D01*
X1019581Y729595D01*
X1018741Y729033D01*
X1018179Y728193D01*
X1017982Y727202D01*
Y724700D01*
X1016809Y724214D01*
X1011481Y729541D01*
X1010641Y730103D01*
X1009650Y730300D01*
X983799D01*
X977445Y736653D01*
X976605Y737215D01*
X975614Y737412D01*
X839724Y737412D01*
D02*
G37*
G36*
X1188540Y856038D02*
X1157960D01*
Y856030D01*
X1151382D01*
X1150391Y855833D01*
X1149551Y855271D01*
X1148989Y854431D01*
X1148792Y853440D01*
Y621849D01*
X1140911Y613968D01*
X1123228D01*
X1067358Y669208D01*
Y681171D01*
X1068430Y682244D01*
X1082548D01*
Y714248D01*
X1067558D01*
X1067308Y714298D01*
X1058672D01*
X1058422Y714248D01*
X1043432D01*
Y683260D01*
D01*
Y682244D01*
X1048342D01*
X1049250Y681370D01*
Y678055D01*
X1049224Y677926D01*
Y664972D01*
Y651002D01*
X1049421Y650011D01*
X1049983Y649171D01*
X1130501Y568653D01*
X1131341Y568091D01*
X1132332Y567894D01*
X1157498D01*
Y567710D01*
X1191778D01*
Y600690D01*
X1191310D01*
Y853186D01*
X1191113Y854177D01*
X1190551Y855017D01*
X1190297Y855271D01*
X1189457Y855833D01*
X1188540Y856015D01*
Y856038D01*
D02*
G37*
G36*
X862058Y615548D02*
X815478D01*
Y591968D01*
X862058D01*
Y615548D01*
D02*
G37*
%LPD*%
G36*
X1029208Y707644D02*
X1020572D01*
Y727202D01*
X1029208D01*
Y707644D01*
D02*
G37*
G36*
X975614Y734822D02*
X982726Y727710D01*
X1009650D01*
X1016236Y721124D01*
X1016000Y720244D01*
Y717904D01*
X1016508Y716008D01*
Y711708D01*
Y684784D01*
X1014476Y682752D01*
Y664972D01*
X1001522D01*
Y678688D01*
X1005078Y682244D01*
X1006348D01*
Y683514D01*
X1007872Y685038D01*
Y712724D01*
X1006348Y714248D01*
X1004058D01*
X1003808Y714298D01*
X995172D01*
X994922Y714248D01*
X992632D01*
Y713994D01*
X987806Y709168D01*
X839724D01*
Y734822D01*
X975614Y734822D01*
D02*
G37*
G36*
X1036066Y659085D02*
X1036574Y657859D01*
Y643128D01*
X1029208D01*
X1027430Y644906D01*
X1010920Y644906D01*
Y658622D01*
X1027430D01*
X1029462Y660654D01*
X1036066D01*
Y659085D01*
D02*
G37*
G36*
X1003808Y684784D02*
X1000394Y681370D01*
X998960D01*
Y678828D01*
X998932Y678688D01*
Y664972D01*
X998960Y664832D01*
Y662290D01*
X999490D01*
Y640334D01*
X1035558Y604266D01*
Y570230D01*
X1006348D01*
Y546862D01*
X984250Y524764D01*
X891286D01*
Y631952D01*
X989330D01*
Y634918D01*
X989508D01*
Y648498D01*
X989330D01*
Y650494D01*
X977392D01*
Y669544D01*
X995172Y687324D01*
Y711708D01*
X1003808D01*
Y684784D01*
D02*
G37*
G36*
X1188720Y853186D02*
Y598170D01*
X1188974D01*
Y570589D01*
X1188720Y570484D01*
X1132332D01*
X1051814Y651002D01*
Y664972D01*
Y677926D01*
X1056132Y682244D01*
X1057148D01*
Y683260D01*
X1058672Y684784D01*
Y711708D01*
X1067308D01*
Y684784D01*
X1064768Y682244D01*
Y668127D01*
X1122164Y611378D01*
X1141984D01*
X1151382Y620776D01*
Y853440D01*
X1188466D01*
X1188720Y853186D01*
D02*
G37*
D18*
X956056Y721844D02*
D03*
Y782344D02*
D03*
X904240Y722098D02*
D03*
Y782598D02*
D03*
X852170Y721844D02*
D03*
Y782344D02*
D03*
D19*
X1037590Y782574D02*
D03*
D20*
X1075690Y698246D02*
D03*
X1062990D02*
D03*
X1050290D02*
D03*
X1037590D02*
D03*
X1024890D02*
D03*
X1012190D02*
D03*
X999490D02*
D03*
D21*
X1173250Y841248D02*
D03*
X1112750D02*
D03*
X1172234Y791210D02*
D03*
X1111734D02*
D03*
X1172234Y740156D02*
D03*
X1111734D02*
D03*
X1171726Y688594D02*
D03*
X1111226D02*
D03*
D22*
X1042290Y671830D02*
D03*
X1058290D02*
D03*
X1024000D02*
D03*
X1008000D02*
D03*
X1001396Y651764D02*
D03*
X1017396D02*
D03*
X964310Y653034D02*
D03*
X948310D02*
D03*
D23*
X982218Y654708D02*
D03*
Y641708D02*
D03*
D24*
X937768Y578358D02*
D03*
D25*
X838768Y552958D02*
D03*
Y603758D02*
D03*
D26*
X1174638Y584200D02*
D03*
X1020938D02*
D03*
D37*
X964310Y652534D02*
X974696Y642148D01*
X981778D01*
X964310Y652534D02*
Y653034D01*
X981778Y642148D02*
X982218Y641708D01*
D38*
X1193800Y863600D02*
D03*
X1206500Y838200D02*
D03*
Y787400D02*
D03*
Y736600D02*
D03*
Y685800D02*
D03*
Y635000D02*
D03*
Y584200D02*
D03*
X1193800Y558800D02*
D03*
X1206500Y533400D02*
D03*
X1193800Y508000D02*
D03*
X1168400Y863600D02*
D03*
Y558800D02*
D03*
X1181100Y533400D02*
D03*
X1168400Y508000D02*
D03*
X1143000Y863600D02*
D03*
Y812800D02*
D03*
Y762000D02*
D03*
Y711200D02*
D03*
Y660400D02*
D03*
Y558800D02*
D03*
X1155700Y533400D02*
D03*
X1143000Y508000D02*
D03*
X1117600Y863600D02*
D03*
Y812800D02*
D03*
Y762000D02*
D03*
Y711200D02*
D03*
Y660400D02*
D03*
X1130300Y635000D02*
D03*
X1117600Y558800D02*
D03*
X1130300Y533400D02*
D03*
X1117600Y508000D02*
D03*
X1092200Y863600D02*
D03*
Y711200D02*
D03*
Y660400D02*
D03*
X1104900Y584200D02*
D03*
X1092200Y558800D02*
D03*
X1104900Y533400D02*
D03*
X1092200Y508000D02*
D03*
X1066800Y863600D02*
D03*
Y609600D02*
D03*
X1079500Y584200D02*
D03*
X1066800Y558800D02*
D03*
X1079500Y533400D02*
D03*
X1066800Y508000D02*
D03*
X1041400Y863600D02*
D03*
Y609600D02*
D03*
X1054100Y584200D02*
D03*
X1041400Y558800D02*
D03*
X1054100Y533400D02*
D03*
X1041400Y508000D02*
D03*
X1016000Y863600D02*
D03*
X1028700Y635000D02*
D03*
X1016000Y558800D02*
D03*
X1028700Y533400D02*
D03*
X1016000Y508000D02*
D03*
X990600Y863600D02*
D03*
X1003300Y533400D02*
D03*
X990600Y508000D02*
D03*
X965200Y863600D02*
D03*
X977900Y838200D02*
D03*
X965200Y812800D02*
D03*
X977900Y787400D02*
D03*
X965200Y762000D02*
D03*
X977900Y685800D02*
D03*
X965200Y508000D02*
D03*
X939800Y863600D02*
D03*
X952500Y838200D02*
D03*
X939800Y812800D02*
D03*
Y762000D02*
D03*
X952500Y685800D02*
D03*
X939800Y508000D02*
D03*
X914400Y863600D02*
D03*
X927100Y838200D02*
D03*
X914400Y812800D02*
D03*
X927100Y787400D02*
D03*
X914400Y762000D02*
D03*
X927100Y685800D02*
D03*
X914400Y660400D02*
D03*
Y508000D02*
D03*
X889000Y863600D02*
D03*
X901700Y838200D02*
D03*
X889000Y812800D02*
D03*
Y762000D02*
D03*
X901700Y685800D02*
D03*
X889000Y660400D02*
D03*
Y508000D02*
D03*
X863600Y863600D02*
D03*
X876300Y838200D02*
D03*
X863600Y812800D02*
D03*
X876300Y787400D02*
D03*
X863600Y762000D02*
D03*
X876300Y685800D02*
D03*
X863600Y660400D02*
D03*
X876300Y635000D02*
D03*
Y584200D02*
D03*
X863600Y558800D02*
D03*
X876300Y533400D02*
D03*
X863600Y508000D02*
D03*
X838200Y863600D02*
D03*
X850900Y838200D02*
D03*
X838200Y812800D02*
D03*
Y762000D02*
D03*
X850900Y685800D02*
D03*
X838200Y660400D02*
D03*
X850900Y635000D02*
D03*
Y584200D02*
D03*
Y533400D02*
D03*
X838200Y508000D02*
D03*
X812800Y863600D02*
D03*
X825500Y838200D02*
D03*
X812800Y812800D02*
D03*
X825500Y787400D02*
D03*
X812800Y762000D02*
D03*
X825500Y736600D02*
D03*
X812800Y711200D02*
D03*
X825500Y685800D02*
D03*
X812800Y660400D02*
D03*
X825500Y635000D02*
D03*
Y584200D02*
D03*
X812800Y508000D02*
D03*
X1112012Y858266D02*
D03*
X1130046Y840232D02*
D03*
X1111250Y824230D02*
D03*
X1111758Y807974D02*
D03*
X1130046Y791718D02*
D03*
X1112012Y774954D02*
D03*
X1110996Y757682D02*
D03*
X1130046Y740918D02*
D03*
X1111504Y723392D02*
D03*
X1130046Y696722D02*
D03*
X1129792Y687578D02*
D03*
Y678434D02*
D03*
X1073404Y617982D02*
D03*
X1065276Y626618D02*
D03*
X1056640Y634492D02*
D03*
X1048004Y642620D02*
D03*
X1112266Y632460D02*
D03*
X1102868Y642366D02*
D03*
X1093216Y650748D02*
D03*
X1084580Y659384D02*
D03*
X1076960Y666750D02*
D03*
X1072134Y674624D02*
D03*
X1074166Y718566D02*
D03*
X1062482D02*
D03*
X1052068D02*
D03*
X1043432Y651256D02*
D03*
Y659892D02*
D03*
X948182Y640334D02*
D03*
X936244Y653034D02*
D03*
X947674Y664972D02*
D03*
X964692Y799084D02*
D03*
X956056D02*
D03*
X946658D02*
D03*
X912876Y799338D02*
D03*
X904240Y799592D02*
D03*
X895096D02*
D03*
X860806Y799846D02*
D03*
X851916Y799592D02*
D03*
X842772Y799846D02*
D03*
X1059688Y800100D02*
D03*
X1017016Y802132D02*
D03*
X1057656Y764794D02*
D03*
X1017524Y765048D02*
D03*
X1074166Y748538D02*
D03*
X1038352Y747776D02*
D03*
X997204Y747522D02*
D03*
X1073404Y783590D02*
D03*
X1037590Y783336D02*
D03*
X998728Y783590D02*
D03*
X1074166Y818134D02*
D03*
X1037844Y817626D02*
D03*
X997458Y817118D02*
D03*
X1094232Y849630D02*
D03*
X1094486Y842010D02*
D03*
X1094740Y833120D02*
D03*
X1093724Y798068D02*
D03*
X1093978Y789940D02*
D03*
Y781812D02*
D03*
X1094486Y747776D02*
D03*
X1094232Y739140D02*
D03*
Y731012D02*
D03*
X1092454Y695198D02*
D03*
Y687070D02*
D03*
X1092708Y678688D02*
D03*
X1037336Y722884D02*
D03*
Y715772D02*
D03*
X1037590Y681736D02*
D03*
X810768Y567436D02*
D03*
X821182Y567690D02*
D03*
X821436Y537972D02*
D03*
X810514Y537718D02*
D03*
Y547878D02*
D03*
Y557276D02*
D03*
X1024890Y716788D02*
D03*
Y723138D02*
D03*
X1032256Y648208D02*
D03*
Y656082D02*
D03*
M02*
