G04*
G04 #@! TF.GenerationSoftware,Altium Limited,Altium Designer,22.7.1 (60)*
G04*
G04 Layer_Color=2752767*
%FSLAX44Y44*%
%MOMM*%
G71*
G04*
G04 #@! TF.SameCoordinates,592D77DD-D8C5-47A4-952F-68E34D40BC98*
G04*
G04*
G04 #@! TF.FilePolarity,Positive*
G04*
G01*
G75*
%ADD40C,0.0677*%
D40*
X1195832Y863600D02*
G03*
X1195832Y863600I-2032J0D01*
G01*
X1208532Y838200D02*
G03*
X1208532Y838200I-2032J0D01*
G01*
Y787400D02*
G03*
X1208532Y787400I-2032J0D01*
G01*
Y736600D02*
G03*
X1208532Y736600I-2032J0D01*
G01*
Y685800D02*
G03*
X1208532Y685800I-2032J0D01*
G01*
Y635000D02*
G03*
X1208532Y635000I-2032J0D01*
G01*
Y584200D02*
G03*
X1208532Y584200I-2032J0D01*
G01*
X1195832Y558800D02*
G03*
X1195832Y558800I-2032J0D01*
G01*
X1208532Y533400D02*
G03*
X1208532Y533400I-2032J0D01*
G01*
X1195832Y508000D02*
G03*
X1195832Y508000I-2032J0D01*
G01*
X1170432Y863600D02*
G03*
X1170432Y863600I-2032J0D01*
G01*
Y558800D02*
G03*
X1170432Y558800I-2032J0D01*
G01*
X1183132Y533400D02*
G03*
X1183132Y533400I-2032J0D01*
G01*
X1170432Y508000D02*
G03*
X1170432Y508000I-2032J0D01*
G01*
X1145032Y863600D02*
G03*
X1145032Y863600I-2032J0D01*
G01*
Y812800D02*
G03*
X1145032Y812800I-2032J0D01*
G01*
Y762000D02*
G03*
X1145032Y762000I-2032J0D01*
G01*
Y711200D02*
G03*
X1145032Y711200I-2032J0D01*
G01*
Y660400D02*
G03*
X1145032Y660400I-2032J0D01*
G01*
Y558800D02*
G03*
X1145032Y558800I-2032J0D01*
G01*
X1157732Y533400D02*
G03*
X1157732Y533400I-2032J0D01*
G01*
X1145032Y508000D02*
G03*
X1145032Y508000I-2032J0D01*
G01*
X1119632Y863600D02*
G03*
X1119632Y863600I-2032J0D01*
G01*
Y812800D02*
G03*
X1119632Y812800I-2032J0D01*
G01*
Y762000D02*
G03*
X1119632Y762000I-2032J0D01*
G01*
Y711200D02*
G03*
X1119632Y711200I-2032J0D01*
G01*
Y660400D02*
G03*
X1119632Y660400I-2032J0D01*
G01*
X1132332Y635000D02*
G03*
X1132332Y635000I-2032J0D01*
G01*
X1119632Y558800D02*
G03*
X1119632Y558800I-2032J0D01*
G01*
X1132332Y533400D02*
G03*
X1132332Y533400I-2032J0D01*
G01*
X1119632Y508000D02*
G03*
X1119632Y508000I-2032J0D01*
G01*
X1094232Y863600D02*
G03*
X1094232Y863600I-2032J0D01*
G01*
Y711200D02*
G03*
X1094232Y711200I-2032J0D01*
G01*
Y660400D02*
G03*
X1094232Y660400I-2032J0D01*
G01*
X1106932Y584200D02*
G03*
X1106932Y584200I-2032J0D01*
G01*
X1094232Y558800D02*
G03*
X1094232Y558800I-2032J0D01*
G01*
X1106932Y533400D02*
G03*
X1106932Y533400I-2032J0D01*
G01*
X1094232Y508000D02*
G03*
X1094232Y508000I-2032J0D01*
G01*
X1068832Y863600D02*
G03*
X1068832Y863600I-2032J0D01*
G01*
Y609600D02*
G03*
X1068832Y609600I-2032J0D01*
G01*
X1081532Y584200D02*
G03*
X1081532Y584200I-2032J0D01*
G01*
X1068832Y558800D02*
G03*
X1068832Y558800I-2032J0D01*
G01*
X1081532Y533400D02*
G03*
X1081532Y533400I-2032J0D01*
G01*
X1068832Y508000D02*
G03*
X1068832Y508000I-2032J0D01*
G01*
X1043432Y863600D02*
G03*
X1043432Y863600I-2032J0D01*
G01*
Y609600D02*
G03*
X1043432Y609600I-2032J0D01*
G01*
X1056132Y584200D02*
G03*
X1056132Y584200I-2032J0D01*
G01*
X1043432Y558800D02*
G03*
X1043432Y558800I-2032J0D01*
G01*
X1056132Y533400D02*
G03*
X1056132Y533400I-2032J0D01*
G01*
X1043432Y508000D02*
G03*
X1043432Y508000I-2032J0D01*
G01*
X1018032Y863600D02*
G03*
X1018032Y863600I-2032J0D01*
G01*
X1030732Y635000D02*
G03*
X1030732Y635000I-2032J0D01*
G01*
X1018032Y558800D02*
G03*
X1018032Y558800I-2032J0D01*
G01*
X1030732Y533400D02*
G03*
X1030732Y533400I-2032J0D01*
G01*
X1018032Y508000D02*
G03*
X1018032Y508000I-2032J0D01*
G01*
X992632Y863600D02*
G03*
X992632Y863600I-2032J0D01*
G01*
X1005332Y533400D02*
G03*
X1005332Y533400I-2032J0D01*
G01*
X992632Y508000D02*
G03*
X992632Y508000I-2032J0D01*
G01*
X967232Y863600D02*
G03*
X967232Y863600I-2032J0D01*
G01*
X979932Y838200D02*
G03*
X979932Y838200I-2032J0D01*
G01*
X967232Y812800D02*
G03*
X967232Y812800I-2032J0D01*
G01*
X979932Y787400D02*
G03*
X979932Y787400I-2032J0D01*
G01*
X967232Y762000D02*
G03*
X967232Y762000I-2032J0D01*
G01*
X979932Y685800D02*
G03*
X979932Y685800I-2032J0D01*
G01*
X967232Y508000D02*
G03*
X967232Y508000I-2032J0D01*
G01*
X941832Y863600D02*
G03*
X941832Y863600I-2032J0D01*
G01*
X954532Y838200D02*
G03*
X954532Y838200I-2032J0D01*
G01*
X941832Y812800D02*
G03*
X941832Y812800I-2032J0D01*
G01*
Y762000D02*
G03*
X941832Y762000I-2032J0D01*
G01*
X954532Y685800D02*
G03*
X954532Y685800I-2032J0D01*
G01*
X941832Y508000D02*
G03*
X941832Y508000I-2032J0D01*
G01*
X916432Y863600D02*
G03*
X916432Y863600I-2032J0D01*
G01*
X929132Y838200D02*
G03*
X929132Y838200I-2032J0D01*
G01*
X916432Y812800D02*
G03*
X916432Y812800I-2032J0D01*
G01*
X929132Y787400D02*
G03*
X929132Y787400I-2032J0D01*
G01*
X916432Y762000D02*
G03*
X916432Y762000I-2032J0D01*
G01*
X929132Y685800D02*
G03*
X929132Y685800I-2032J0D01*
G01*
X916432Y660400D02*
G03*
X916432Y660400I-2032J0D01*
G01*
Y508000D02*
G03*
X916432Y508000I-2032J0D01*
G01*
X891032Y863600D02*
G03*
X891032Y863600I-2032J0D01*
G01*
X903732Y838200D02*
G03*
X903732Y838200I-2032J0D01*
G01*
X891032Y812800D02*
G03*
X891032Y812800I-2032J0D01*
G01*
Y762000D02*
G03*
X891032Y762000I-2032J0D01*
G01*
X903732Y685800D02*
G03*
X903732Y685800I-2032J0D01*
G01*
X891032Y660400D02*
G03*
X891032Y660400I-2032J0D01*
G01*
Y508000D02*
G03*
X891032Y508000I-2032J0D01*
G01*
X865632Y863600D02*
G03*
X865632Y863600I-2032J0D01*
G01*
X878332Y838200D02*
G03*
X878332Y838200I-2032J0D01*
G01*
X865632Y812800D02*
G03*
X865632Y812800I-2032J0D01*
G01*
X878332Y787400D02*
G03*
X878332Y787400I-2032J0D01*
G01*
X865632Y762000D02*
G03*
X865632Y762000I-2032J0D01*
G01*
X878332Y685800D02*
G03*
X878332Y685800I-2032J0D01*
G01*
X865632Y660400D02*
G03*
X865632Y660400I-2032J0D01*
G01*
X878332Y635000D02*
G03*
X878332Y635000I-2032J0D01*
G01*
Y584200D02*
G03*
X878332Y584200I-2032J0D01*
G01*
X865632Y558800D02*
G03*
X865632Y558800I-2032J0D01*
G01*
X878332Y533400D02*
G03*
X878332Y533400I-2032J0D01*
G01*
X865632Y508000D02*
G03*
X865632Y508000I-2032J0D01*
G01*
X840232Y863600D02*
G03*
X840232Y863600I-2032J0D01*
G01*
X852932Y838200D02*
G03*
X852932Y838200I-2032J0D01*
G01*
X840232Y812800D02*
G03*
X840232Y812800I-2032J0D01*
G01*
Y762000D02*
G03*
X840232Y762000I-2032J0D01*
G01*
X852932Y685800D02*
G03*
X852932Y685800I-2032J0D01*
G01*
X840232Y660400D02*
G03*
X840232Y660400I-2032J0D01*
G01*
X852932Y635000D02*
G03*
X852932Y635000I-2032J0D01*
G01*
Y584200D02*
G03*
X852932Y584200I-2032J0D01*
G01*
Y533400D02*
G03*
X852932Y533400I-2032J0D01*
G01*
X840232Y508000D02*
G03*
X840232Y508000I-2032J0D01*
G01*
X814832Y863600D02*
G03*
X814832Y863600I-2032J0D01*
G01*
X827532Y838200D02*
G03*
X827532Y838200I-2032J0D01*
G01*
X814832Y812800D02*
G03*
X814832Y812800I-2032J0D01*
G01*
X827532Y787400D02*
G03*
X827532Y787400I-2032J0D01*
G01*
X814832Y762000D02*
G03*
X814832Y762000I-2032J0D01*
G01*
X827532Y736600D02*
G03*
X827532Y736600I-2032J0D01*
G01*
X814832Y711200D02*
G03*
X814832Y711200I-2032J0D01*
G01*
X827532Y685800D02*
G03*
X827532Y685800I-2032J0D01*
G01*
X814832Y660400D02*
G03*
X814832Y660400I-2032J0D01*
G01*
X827532Y635000D02*
G03*
X827532Y635000I-2032J0D01*
G01*
Y584200D02*
G03*
X827532Y584200I-2032J0D01*
G01*
X814832Y508000D02*
G03*
X814832Y508000I-2032J0D01*
G01*
X1114044Y858266D02*
G03*
X1114044Y858266I-2032J0D01*
G01*
X1132078Y840232D02*
G03*
X1132078Y840232I-2032J0D01*
G01*
X1113282Y824230D02*
G03*
X1113282Y824230I-2032J0D01*
G01*
X1113790Y807974D02*
G03*
X1113790Y807974I-2032J0D01*
G01*
X1132078Y791718D02*
G03*
X1132078Y791718I-2032J0D01*
G01*
X1114044Y774954D02*
G03*
X1114044Y774954I-2032J0D01*
G01*
X1113028Y757682D02*
G03*
X1113028Y757682I-2032J0D01*
G01*
X1132078Y740918D02*
G03*
X1132078Y740918I-2032J0D01*
G01*
X1113536Y723392D02*
G03*
X1113536Y723392I-2032J0D01*
G01*
X1132078Y696722D02*
G03*
X1132078Y696722I-2032J0D01*
G01*
X1131824Y687578D02*
G03*
X1131824Y687578I-2032J0D01*
G01*
Y678434D02*
G03*
X1131824Y678434I-2032J0D01*
G01*
X1075436Y617982D02*
G03*
X1075436Y617982I-2032J0D01*
G01*
X1067308Y626618D02*
G03*
X1067308Y626618I-2032J0D01*
G01*
X1058672Y634492D02*
G03*
X1058672Y634492I-2032J0D01*
G01*
X1050036Y642620D02*
G03*
X1050036Y642620I-2032J0D01*
G01*
X1114298Y632460D02*
G03*
X1114298Y632460I-2032J0D01*
G01*
X1104900Y642366D02*
G03*
X1104900Y642366I-2032J0D01*
G01*
X1095248Y650748D02*
G03*
X1095248Y650748I-2032J0D01*
G01*
X1086612Y659384D02*
G03*
X1086612Y659384I-2032J0D01*
G01*
X1078992Y666750D02*
G03*
X1078992Y666750I-2032J0D01*
G01*
X1074166Y674624D02*
G03*
X1074166Y674624I-2032J0D01*
G01*
X1076198Y718566D02*
G03*
X1076198Y718566I-2032J0D01*
G01*
X1064514D02*
G03*
X1064514Y718566I-2032J0D01*
G01*
X1054100D02*
G03*
X1054100Y718566I-2032J0D01*
G01*
X1045464Y651256D02*
G03*
X1045464Y651256I-2032J0D01*
G01*
Y659892D02*
G03*
X1045464Y659892I-2032J0D01*
G01*
X950214Y640334D02*
G03*
X950214Y640334I-2032J0D01*
G01*
X938276Y653034D02*
G03*
X938276Y653034I-2032J0D01*
G01*
X949706Y664972D02*
G03*
X949706Y664972I-2032J0D01*
G01*
X966724Y799084D02*
G03*
X966724Y799084I-2032J0D01*
G01*
X958088D02*
G03*
X958088Y799084I-2032J0D01*
G01*
X948690D02*
G03*
X948690Y799084I-2032J0D01*
G01*
X914908Y799338D02*
G03*
X914908Y799338I-2032J0D01*
G01*
X906272Y799592D02*
G03*
X906272Y799592I-2032J0D01*
G01*
X897128D02*
G03*
X897128Y799592I-2032J0D01*
G01*
X862838Y799846D02*
G03*
X862838Y799846I-2032J0D01*
G01*
X853948Y799592D02*
G03*
X853948Y799592I-2032J0D01*
G01*
X844804Y799846D02*
G03*
X844804Y799846I-2032J0D01*
G01*
X1061720Y800100D02*
G03*
X1061720Y800100I-2032J0D01*
G01*
X1019048Y802132D02*
G03*
X1019048Y802132I-2032J0D01*
G01*
X1059688Y764794D02*
G03*
X1059688Y764794I-2032J0D01*
G01*
X1019556Y765048D02*
G03*
X1019556Y765048I-2032J0D01*
G01*
X1076198Y748538D02*
G03*
X1076198Y748538I-2032J0D01*
G01*
X1040384Y747776D02*
G03*
X1040384Y747776I-2032J0D01*
G01*
X999236Y747522D02*
G03*
X999236Y747522I-2032J0D01*
G01*
X1075436Y783590D02*
G03*
X1075436Y783590I-2032J0D01*
G01*
X1039622Y783336D02*
G03*
X1039622Y783336I-2032J0D01*
G01*
X1000760Y783590D02*
G03*
X1000760Y783590I-2032J0D01*
G01*
X1076198Y818134D02*
G03*
X1076198Y818134I-2032J0D01*
G01*
X1039876Y817626D02*
G03*
X1039876Y817626I-2032J0D01*
G01*
X999490Y817118D02*
G03*
X999490Y817118I-2032J0D01*
G01*
X1096264Y849630D02*
G03*
X1096264Y849630I-2032J0D01*
G01*
X1096518Y842010D02*
G03*
X1096518Y842010I-2032J0D01*
G01*
X1096772Y833120D02*
G03*
X1096772Y833120I-2032J0D01*
G01*
X1095756Y798068D02*
G03*
X1095756Y798068I-2032J0D01*
G01*
X1096010Y789940D02*
G03*
X1096010Y789940I-2032J0D01*
G01*
Y781812D02*
G03*
X1096010Y781812I-2032J0D01*
G01*
X1096518Y747776D02*
G03*
X1096518Y747776I-2032J0D01*
G01*
X1096264Y739140D02*
G03*
X1096264Y739140I-2032J0D01*
G01*
Y731012D02*
G03*
X1096264Y731012I-2032J0D01*
G01*
X1094486Y695198D02*
G03*
X1094486Y695198I-2032J0D01*
G01*
Y687070D02*
G03*
X1094486Y687070I-2032J0D01*
G01*
X1094740Y678688D02*
G03*
X1094740Y678688I-2032J0D01*
G01*
X1039368Y722884D02*
G03*
X1039368Y722884I-2032J0D01*
G01*
Y715772D02*
G03*
X1039368Y715772I-2032J0D01*
G01*
X1039622Y681736D02*
G03*
X1039622Y681736I-2032J0D01*
G01*
X812800Y567436D02*
G03*
X812800Y567436I-2032J0D01*
G01*
X823214Y567690D02*
G03*
X823214Y567690I-2032J0D01*
G01*
X823468Y537972D02*
G03*
X823468Y537972I-2032J0D01*
G01*
X812546Y537718D02*
G03*
X812546Y537718I-2032J0D01*
G01*
Y547878D02*
G03*
X812546Y547878I-2032J0D01*
G01*
Y557276D02*
G03*
X812546Y557276I-2032J0D01*
G01*
X1026922Y716788D02*
G03*
X1026922Y716788I-2032J0D01*
G01*
Y723138D02*
G03*
X1026922Y723138I-2032J0D01*
G01*
X1034288Y648208D02*
G03*
X1034288Y648208I-2032J0D01*
G01*
Y656082D02*
G03*
X1034288Y656082I-2032J0D01*
G01*
M02*
