G04*
G04 #@! TF.GenerationSoftware,Altium Limited,Altium Designer,22.7.1 (60)*
G04*
G04 Layer_Color=8421504*
%FSLAX44Y44*%
%MOMM*%
G71*
G04*
G04 #@! TF.SameCoordinates,592D77DD-D8C5-47A4-952F-68E34D40BC98*
G04*
G04*
G04 #@! TF.FilePolarity,Positive*
G04*
G01*
G75*
%ADD18R,2.4500X2.5500*%
%ADD19R,10.4140X10.4648*%
%ADD20R,0.8636X2.6924*%
%ADD21R,2.5500X2.4500*%
%ADD22R,1.3000X1.4000*%
%ADD23R,0.9500X0.8500*%
%ADD24R,9.3000X10.7500*%
%ADD25R,4.1500X1.8500*%
%ADD26R,2.9200X2.7900*%
D18*
X956056Y721844D02*
D03*
Y782344D02*
D03*
X904240Y722098D02*
D03*
Y782598D02*
D03*
X852170Y721844D02*
D03*
Y782344D02*
D03*
D19*
X1037590Y782574D02*
D03*
D20*
X1075690Y698246D02*
D03*
X1062990D02*
D03*
X1050290D02*
D03*
X1037590D02*
D03*
X1024890D02*
D03*
X1012190D02*
D03*
X999490D02*
D03*
D21*
X1173250Y841248D02*
D03*
X1112750D02*
D03*
X1172234Y791210D02*
D03*
X1111734D02*
D03*
X1172234Y740156D02*
D03*
X1111734D02*
D03*
X1171726Y688594D02*
D03*
X1111226D02*
D03*
D22*
X1042290Y671830D02*
D03*
X1058290D02*
D03*
X1024000D02*
D03*
X1008000D02*
D03*
X1001396Y651764D02*
D03*
X1017396D02*
D03*
X964310Y653034D02*
D03*
X948310D02*
D03*
D23*
X982218Y654708D02*
D03*
Y641708D02*
D03*
D24*
X937768Y578358D02*
D03*
D25*
X838768Y552958D02*
D03*
Y603758D02*
D03*
D26*
X1174638Y584200D02*
D03*
X1020938D02*
D03*
M02*
