G04*
G04 #@! TF.GenerationSoftware,Altium Limited,Altium Designer,22.7.1 (60)*
G04*
G04 Layer_Physical_Order=2*
G04 Layer_Color=36540*
%FSLAX44Y44*%
%MOMM*%
G71*
G04*
G04 #@! TF.SameCoordinates,F0A3B908-A9A0-482C-9906-E7527CCB9396*
G04*
G04*
G04 #@! TF.FilePolarity,Positive*
G04*
G01*
G75*
%ADD14C,0.0254*%
%ADD34C,1.0000*%
%ADD37C,1.5000*%
%ADD41C,1.2700*%
G36*
X966303Y674803D02*
Y126197D01*
X941840Y101734D01*
Y101734D01*
X941793Y101780D01*
X938558Y97992D01*
X935955Y93744D01*
X934048Y89142D01*
X932885Y84297D01*
X932494Y79331D01*
X932560D01*
X932560Y57183D01*
X35926D01*
X35926Y79331D01*
X35992D01*
X35601Y84297D01*
X34438Y89142D01*
X32531Y93744D01*
X29928Y97992D01*
X26693Y101780D01*
X26646Y101734D01*
X2183Y126197D01*
Y674803D01*
X71197Y743817D01*
X897289D01*
X966303Y674803D01*
D02*
G37*
%LPC*%
G36*
X283210Y741202D02*
X280860Y740734D01*
X278867Y739403D01*
X277536Y737410D01*
X277068Y735060D01*
Y727060D01*
X277536Y724710D01*
X278867Y722717D01*
X280860Y721386D01*
X283210Y720918D01*
X285560Y721386D01*
X287553Y722717D01*
X288885Y724710D01*
X289352Y727060D01*
Y735060D01*
X288885Y737410D01*
X287553Y739403D01*
X285560Y740734D01*
X283210Y741202D01*
D02*
G37*
G36*
X196710D02*
X194360Y740734D01*
X192367Y739403D01*
X191036Y737410D01*
X190568Y735060D01*
Y727060D01*
X191036Y724710D01*
X192367Y722717D01*
X194360Y721386D01*
X196710Y720918D01*
X199060Y721386D01*
X201053Y722717D01*
X202384Y724710D01*
X202852Y727060D01*
Y735060D01*
X202384Y737410D01*
X201053Y739403D01*
X199060Y740734D01*
X196710Y741202D01*
D02*
G37*
G36*
X317063Y722117D02*
X315194D01*
X313467Y721402D01*
X312145Y720080D01*
X311429Y718353D01*
Y716483D01*
X312145Y714756D01*
X313467Y713434D01*
X315194Y712719D01*
X317063D01*
X318790Y713434D01*
X320112Y714756D01*
X320827Y716483D01*
Y718353D01*
X320112Y720080D01*
X318790Y721402D01*
X317063Y722117D01*
D02*
G37*
G36*
X270660Y705734D02*
X268760D01*
X267006Y705007D01*
X265663Y703664D01*
X265460Y703175D01*
X265257Y703664D01*
X263914Y705007D01*
X262160Y705734D01*
X260260D01*
X258506Y705007D01*
X257163Y703664D01*
X256960Y703175D01*
X256757Y703664D01*
X255414Y705007D01*
X253660Y705734D01*
X251761D01*
X250006Y705007D01*
X248663Y703664D01*
X248460Y703175D01*
X248257Y703664D01*
X246914Y705007D01*
X245160Y705734D01*
X243260D01*
X241506Y705007D01*
X240163Y703664D01*
X239960Y703175D01*
X239757Y703664D01*
X238414Y705007D01*
X236660Y705734D01*
X234760D01*
X233006Y705007D01*
X231663Y703664D01*
X231460Y703175D01*
X231257Y703664D01*
X229914Y705007D01*
X228160Y705734D01*
X226260D01*
X224506Y705007D01*
X223163Y703664D01*
X222960Y703175D01*
X222757Y703664D01*
X221414Y705007D01*
X219660Y705734D01*
X217760D01*
X216006Y705007D01*
X214663Y703664D01*
X214460Y703175D01*
X214257Y703664D01*
X212914Y705007D01*
X211160Y705734D01*
X209260D01*
X207506Y705007D01*
X206163Y703664D01*
X205436Y701910D01*
Y700010D01*
X206163Y698256D01*
X207506Y696913D01*
X209260Y696186D01*
X211160D01*
X212914Y696913D01*
X214257Y698256D01*
X214460Y698745D01*
X214663Y698256D01*
X216006Y696913D01*
X217760Y696186D01*
X219660D01*
X221414Y696913D01*
X222757Y698256D01*
X222960Y698745D01*
X223163Y698256D01*
X224506Y696913D01*
X226260Y696186D01*
X228160D01*
X229914Y696913D01*
X231257Y698256D01*
X231460Y698745D01*
X231663Y698256D01*
X233006Y696913D01*
X234760Y696186D01*
X236660D01*
X238414Y696913D01*
X239757Y698256D01*
X239960Y698745D01*
X240163Y698256D01*
X241506Y696913D01*
X243260Y696186D01*
X245160D01*
X246914Y696913D01*
X248257Y698256D01*
X248460Y698745D01*
X248663Y698256D01*
X250006Y696913D01*
X251761Y696186D01*
X253660D01*
X255414Y696913D01*
X256757Y698256D01*
X256960Y698745D01*
X257163Y698256D01*
X258506Y696913D01*
X260260Y696186D01*
X262160D01*
X263914Y696913D01*
X265257Y698256D01*
X265460Y698745D01*
X265663Y698256D01*
X267006Y696913D01*
X268760Y696186D01*
X270660D01*
X272414Y696913D01*
X273757Y698256D01*
X274484Y700010D01*
Y701910D01*
X273757Y703664D01*
X272414Y705007D01*
X270660Y705734D01*
D02*
G37*
G36*
Y692234D02*
X268760D01*
X267006Y691507D01*
X265663Y690164D01*
X265460Y689675D01*
X265257Y690164D01*
X263914Y691507D01*
X262160Y692234D01*
X260260D01*
X258506Y691507D01*
X257163Y690164D01*
X256960Y689675D01*
X256757Y690164D01*
X255414Y691507D01*
X253660Y692234D01*
X251761D01*
X250006Y691507D01*
X248663Y690164D01*
X248460Y689675D01*
X248257Y690164D01*
X246914Y691507D01*
X245160Y692234D01*
X243260D01*
X241506Y691507D01*
X240163Y690164D01*
X239960Y689675D01*
X239757Y690164D01*
X238414Y691507D01*
X236660Y692234D01*
X234760D01*
X233006Y691507D01*
X231663Y690164D01*
X231460Y689675D01*
X231257Y690164D01*
X229914Y691507D01*
X228160Y692234D01*
X226260D01*
X224506Y691507D01*
X223163Y690164D01*
X222960Y689675D01*
X222757Y690164D01*
X221414Y691507D01*
X219660Y692234D01*
X217760D01*
X216006Y691507D01*
X214663Y690164D01*
X214460Y689675D01*
X214257Y690164D01*
X212914Y691507D01*
X211160Y692234D01*
X209260D01*
X207506Y691507D01*
X206163Y690164D01*
X205436Y688410D01*
Y686510D01*
X206163Y684756D01*
X207506Y683413D01*
X209260Y682686D01*
X211160D01*
X212914Y683413D01*
X214257Y684756D01*
X214460Y685245D01*
X214663Y684756D01*
X216006Y683413D01*
X217760Y682686D01*
X219660D01*
X221414Y683413D01*
X222757Y684756D01*
X222960Y685245D01*
X223163Y684756D01*
X224506Y683413D01*
X226260Y682686D01*
X228160D01*
X229914Y683413D01*
X231257Y684756D01*
X231460Y685245D01*
X231663Y684756D01*
X233006Y683413D01*
X234760Y682686D01*
X236660D01*
X238414Y683413D01*
X239757Y684756D01*
X239960Y685245D01*
X240163Y684756D01*
X241506Y683413D01*
X243260Y682686D01*
X245160D01*
X246914Y683413D01*
X248257Y684756D01*
X248460Y685245D01*
X248663Y684756D01*
X250006Y683413D01*
X251761Y682686D01*
X253660D01*
X255414Y683413D01*
X256757Y684756D01*
X256960Y685245D01*
X257163Y684756D01*
X258506Y683413D01*
X260260Y682686D01*
X262160D01*
X263914Y683413D01*
X265257Y684756D01*
X265460Y685245D01*
X265663Y684756D01*
X267006Y683413D01*
X268760Y682686D01*
X270660D01*
X272414Y683413D01*
X273757Y684756D01*
X274484Y686510D01*
Y688410D01*
X273757Y690164D01*
X272414Y691507D01*
X270660Y692234D01*
D02*
G37*
G36*
X869613Y722024D02*
X866358D01*
X863166Y721389D01*
X860159Y720143D01*
X857453Y718335D01*
X855151Y716033D01*
X853343Y713327D01*
X852097Y710320D01*
X851462Y707128D01*
Y703873D01*
X852097Y700680D01*
X853343Y697673D01*
X855151Y694967D01*
X857453Y692665D01*
X860159Y690857D01*
X863166Y689611D01*
X866358Y688976D01*
X869613D01*
X872806Y689611D01*
X875813Y690857D01*
X878519Y692665D01*
X880821Y694967D01*
X882629Y697673D01*
X883875Y700680D01*
X884510Y703873D01*
Y707128D01*
X883875Y710320D01*
X882629Y713327D01*
X880821Y716033D01*
X878519Y718335D01*
X875813Y720143D01*
X872806Y721389D01*
X869613Y722024D01*
D02*
G37*
G36*
X102128D02*
X98872D01*
X95680Y721389D01*
X92673Y720143D01*
X89967Y718335D01*
X87665Y716033D01*
X85857Y713327D01*
X84611Y710320D01*
X83976Y707128D01*
Y703873D01*
X84611Y700680D01*
X85857Y697673D01*
X87665Y694967D01*
X89967Y692665D01*
X92673Y690857D01*
X95680Y689611D01*
X98872Y688976D01*
X102128D01*
X105320Y689611D01*
X108327Y690857D01*
X111033Y692665D01*
X113335Y694967D01*
X115143Y697673D01*
X116389Y700680D01*
X117024Y703873D01*
Y707128D01*
X116389Y710320D01*
X115143Y713327D01*
X113335Y716033D01*
X111033Y718335D01*
X108327Y720143D01*
X105320Y721389D01*
X102128Y722024D01*
D02*
G37*
G36*
X283210Y710902D02*
X280860Y710434D01*
X278867Y709103D01*
X277536Y707110D01*
X277068Y704760D01*
Y689760D01*
X277536Y687410D01*
X278867Y685417D01*
X280860Y684085D01*
X283210Y683618D01*
X285560Y684085D01*
X287553Y685417D01*
X288885Y687410D01*
X289352Y689760D01*
Y704760D01*
X288885Y707110D01*
X287553Y709103D01*
X285560Y710434D01*
X283210Y710902D01*
D02*
G37*
G36*
X196710D02*
X194360Y710434D01*
X192367Y709103D01*
X191036Y707110D01*
X190568Y704760D01*
Y689760D01*
X191036Y687410D01*
X192367Y685417D01*
X194360Y684085D01*
X196710Y683618D01*
X199060Y684085D01*
X201053Y685417D01*
X202384Y687410D01*
X202852Y689760D01*
Y704760D01*
X202384Y707110D01*
X201053Y709103D01*
X199060Y710434D01*
X196710Y710902D01*
D02*
G37*
G36*
X510611Y678246D02*
X508742D01*
X507015Y677531D01*
X505693Y676209D01*
X504977Y674482D01*
Y672612D01*
X505693Y670885D01*
X507015Y669563D01*
X508742Y668848D01*
X510611D01*
X512338Y669563D01*
X513660Y670885D01*
X514375Y672612D01*
Y674482D01*
X513660Y676209D01*
X512338Y677531D01*
X510611Y678246D01*
D02*
G37*
G36*
X651571Y671102D02*
Y665119D01*
X657554D01*
X657315Y666011D01*
X656145Y668038D01*
X654490Y669693D01*
X652462Y670863D01*
X651571Y671102D01*
D02*
G37*
G36*
X646491D02*
X645600Y670863D01*
X643572Y669693D01*
X641917Y668038D01*
X640747Y666011D01*
X640508Y665119D01*
X646491D01*
Y671102D01*
D02*
G37*
G36*
X503514Y671149D02*
X501645D01*
X499918Y670434D01*
X498596Y669112D01*
X497881Y667385D01*
Y665516D01*
X498596Y663789D01*
X499918Y662467D01*
X501645Y661751D01*
X503514D01*
X505241Y662467D01*
X506563Y663789D01*
X507279Y665516D01*
Y667385D01*
X506563Y669112D01*
X505241Y670434D01*
X503514Y671149D01*
D02*
G37*
G36*
X495127Y664698D02*
X493258D01*
X491531Y663982D01*
X490209Y662660D01*
X489494Y660933D01*
Y659064D01*
X490209Y657337D01*
X491531Y656015D01*
X493258Y655300D01*
X495127D01*
X496854Y656015D01*
X498176Y657337D01*
X498892Y659064D01*
Y660933D01*
X498176Y662660D01*
X496854Y663982D01*
X495127Y664698D01*
D02*
G37*
G36*
X657554Y660039D02*
X651571D01*
Y654056D01*
X652462Y654295D01*
X654490Y655465D01*
X656145Y657121D01*
X657315Y659148D01*
X657554Y660039D01*
D02*
G37*
G36*
X646491D02*
X640508D01*
X640747Y659148D01*
X641917Y657121D01*
X643572Y655465D01*
X645600Y654295D01*
X646491Y654056D01*
Y660039D01*
D02*
G37*
G36*
X484160Y657601D02*
X482290D01*
X480563Y656886D01*
X479241Y655564D01*
X478526Y653837D01*
Y651967D01*
X479241Y650240D01*
X480563Y648918D01*
X482290Y648203D01*
X484160D01*
X485887Y648918D01*
X487208Y650240D01*
X487924Y651967D01*
Y653837D01*
X487208Y655564D01*
X485887Y656886D01*
X484160Y657601D01*
D02*
G37*
G36*
X542224Y655020D02*
X540354D01*
X538628Y654305D01*
X537306Y652983D01*
X536590Y651256D01*
Y649387D01*
X537306Y647660D01*
X538628Y646338D01*
X540354Y645622D01*
X542224D01*
X543951Y646338D01*
X545273Y647660D01*
X545988Y649387D01*
Y651256D01*
X545273Y652983D01*
X543951Y654305D01*
X542224Y655020D01*
D02*
G37*
G36*
X386740Y638891D02*
X384871D01*
X383144Y638176D01*
X381822Y636854D01*
X381107Y635127D01*
Y633258D01*
X381822Y631530D01*
X383144Y630209D01*
X384871Y629493D01*
X386740D01*
X388467Y630209D01*
X389789Y631530D01*
X390505Y633258D01*
Y635127D01*
X389789Y636854D01*
X388467Y638176D01*
X386740Y638891D01*
D02*
G37*
G36*
X943774Y645154D02*
X941398D01*
X939103Y644539D01*
X937045Y643351D01*
X935365Y641671D01*
X934177Y639613D01*
X933562Y637318D01*
Y634942D01*
X934177Y632647D01*
X935365Y630589D01*
X937045Y628909D01*
X939103Y627721D01*
X941398Y627106D01*
X943774D01*
X946069Y627721D01*
X948127Y628909D01*
X949807Y630589D01*
X950995Y632647D01*
X951610Y634942D01*
Y637318D01*
X950995Y639613D01*
X949807Y641671D01*
X948127Y643351D01*
X946069Y644539D01*
X943774Y645154D01*
D02*
G37*
G36*
X27088D02*
X24712D01*
X22417Y644539D01*
X20359Y643351D01*
X18679Y641671D01*
X17491Y639613D01*
X16876Y637318D01*
Y634942D01*
X17491Y632647D01*
X18679Y630589D01*
X20359Y628909D01*
X22417Y627721D01*
X24712Y627106D01*
X27088D01*
X29383Y627721D01*
X31441Y628909D01*
X33121Y630589D01*
X34309Y632647D01*
X34924Y634942D01*
Y637318D01*
X34309Y639613D01*
X33121Y641671D01*
X31441Y643351D01*
X29383Y644539D01*
X27088Y645154D01*
D02*
G37*
G36*
X260230Y641926D02*
X242182D01*
Y623878D01*
X260230D01*
Y641926D01*
D02*
G37*
G36*
X226994D02*
X224618D01*
X222323Y641311D01*
X220265Y640123D01*
X218585Y638443D01*
X217397Y636385D01*
X216782Y634090D01*
Y631714D01*
X217397Y629419D01*
X218585Y627361D01*
X220265Y625681D01*
X222323Y624493D01*
X224618Y623878D01*
X226994D01*
X229289Y624493D01*
X231347Y625681D01*
X233027Y627361D01*
X234215Y629419D01*
X234830Y631714D01*
Y634090D01*
X234215Y636385D01*
X233027Y638443D01*
X231347Y640123D01*
X229289Y641311D01*
X226994Y641926D01*
D02*
G37*
G36*
X794591Y627123D02*
X792890D01*
X791320Y626472D01*
X790117Y625270D01*
X789467Y623699D01*
Y621999D01*
X790117Y620428D01*
X791320Y619226D01*
X792890Y618575D01*
X794591D01*
X796162Y619226D01*
X797364Y620428D01*
X798015Y621999D01*
Y623699D01*
X797364Y625270D01*
X796162Y626472D01*
X794591Y627123D01*
D02*
G37*
G36*
X655591D02*
X653891D01*
X652320Y626472D01*
X651117Y625270D01*
X650467Y623699D01*
Y621999D01*
X651117Y620428D01*
X652320Y619226D01*
X653891Y618575D01*
X655591D01*
X657162Y619226D01*
X658364Y620428D01*
X659015Y621999D01*
Y623699D01*
X658364Y625270D01*
X657162Y626472D01*
X655591Y627123D01*
D02*
G37*
G36*
X539591D02*
X537891D01*
X536320Y626472D01*
X535117Y625270D01*
X534467Y623699D01*
Y621999D01*
X535117Y620428D01*
X536320Y619226D01*
X537891Y618575D01*
X539591D01*
X541162Y619226D01*
X542364Y620428D01*
X543015Y621999D01*
Y623699D01*
X542364Y625270D01*
X541162Y626472D01*
X539591Y627123D01*
D02*
G37*
G36*
X400591D02*
X398890D01*
X397320Y626472D01*
X396117Y625270D01*
X395467Y623699D01*
Y621999D01*
X396117Y620428D01*
X397320Y619226D01*
X398890Y618575D01*
X400591D01*
X402162Y619226D01*
X403364Y620428D01*
X404015Y621999D01*
Y623699D01*
X403364Y625270D01*
X402162Y626472D01*
X400591Y627123D01*
D02*
G37*
G36*
X508676Y615666D02*
X506806D01*
X505079Y614950D01*
X503757Y613628D01*
X503042Y611901D01*
Y610032D01*
X503757Y608305D01*
X505079Y606983D01*
X506806Y606268D01*
X508676D01*
X510403Y606983D01*
X511725Y608305D01*
X512440Y610032D01*
Y611901D01*
X511725Y613628D01*
X510403Y614950D01*
X508676Y615666D01*
D02*
G37*
G36*
X769320Y615020D02*
X767451D01*
X765724Y614305D01*
X764402Y612983D01*
X763687Y611256D01*
Y609387D01*
X764402Y607660D01*
X765724Y606338D01*
X767451Y605622D01*
X769320D01*
X771047Y606338D01*
X772369Y607660D01*
X773085Y609387D01*
Y611256D01*
X772369Y612983D01*
X771047Y614305D01*
X769320Y615020D01*
D02*
G37*
G36*
X725449D02*
X723580D01*
X721853Y614305D01*
X720531Y612983D01*
X719816Y611256D01*
Y609387D01*
X720531Y607660D01*
X721853Y606338D01*
X723580Y605622D01*
X725449D01*
X727176Y606338D01*
X728498Y607660D01*
X729214Y609387D01*
Y611256D01*
X728498Y612983D01*
X727176Y614305D01*
X725449Y615020D01*
D02*
G37*
G36*
X680288D02*
X678419D01*
X676692Y614305D01*
X675370Y612983D01*
X674654Y611256D01*
Y609387D01*
X675370Y607660D01*
X676692Y606338D01*
X678419Y605622D01*
X680288D01*
X682015Y606338D01*
X683337Y607660D01*
X684053Y609387D01*
Y611256D01*
X683337Y612983D01*
X682015Y614305D01*
X680288Y615020D01*
D02*
G37*
G36*
X468676D02*
X466806D01*
X465079Y614305D01*
X463757Y612983D01*
X463042Y611256D01*
Y609387D01*
X463757Y607660D01*
X465079Y606338D01*
X466806Y605622D01*
X468676D01*
X470403Y606338D01*
X471725Y607660D01*
X472440Y609387D01*
Y611256D01*
X471725Y612983D01*
X470403Y614305D01*
X468676Y615020D01*
D02*
G37*
G36*
X425450D02*
X423581D01*
X421853Y614305D01*
X420532Y612983D01*
X419816Y611256D01*
Y609387D01*
X420532Y607660D01*
X421853Y606338D01*
X423581Y605622D01*
X425450D01*
X427177Y606338D01*
X428499Y607660D01*
X429214Y609387D01*
Y611256D01*
X428499Y612983D01*
X427177Y614305D01*
X425450Y615020D01*
D02*
G37*
G36*
X27088Y619754D02*
X24712D01*
X22417Y619139D01*
X20359Y617951D01*
X18679Y616271D01*
X17491Y614213D01*
X16876Y611918D01*
Y609542D01*
X17491Y607247D01*
X18679Y605189D01*
X20359Y603509D01*
X22417Y602321D01*
X24712Y601706D01*
X27088D01*
X29383Y602321D01*
X31441Y603509D01*
X33121Y605189D01*
X34309Y607247D01*
X34924Y609542D01*
Y611918D01*
X34309Y614213D01*
X33121Y616271D01*
X31441Y617951D01*
X29383Y619139D01*
X27088Y619754D01*
D02*
G37*
G36*
Y594354D02*
X24712D01*
X22417Y593739D01*
X20359Y592551D01*
X18679Y590871D01*
X17491Y588813D01*
X16876Y586518D01*
Y584142D01*
X17491Y581847D01*
X18679Y579789D01*
X20359Y578109D01*
X22417Y576921D01*
X24712Y576306D01*
X27088D01*
X29383Y576921D01*
X31441Y578109D01*
X33121Y579789D01*
X34309Y581847D01*
X34924Y584142D01*
Y586518D01*
X34309Y588813D01*
X33121Y590871D01*
X31441Y592551D01*
X29383Y593739D01*
X27088Y594354D01*
D02*
G37*
G36*
X401249Y571748D02*
Y565765D01*
X407232D01*
X406993Y566656D01*
X405823Y568683D01*
X404168Y570339D01*
X402140Y571509D01*
X401249Y571748D01*
D02*
G37*
G36*
X396169D02*
X395277Y571509D01*
X393250Y570339D01*
X391595Y568683D01*
X390425Y566656D01*
X390186Y565765D01*
X396169D01*
Y571748D01*
D02*
G37*
G36*
X715127Y570504D02*
X713257D01*
X711530Y569789D01*
X710209Y568467D01*
X709493Y566740D01*
Y564871D01*
X710209Y563144D01*
X711530Y561822D01*
X713257Y561106D01*
X715127D01*
X716854Y561822D01*
X718176Y563144D01*
X718891Y564871D01*
Y566740D01*
X718176Y568467D01*
X716854Y569789D01*
X715127Y570504D01*
D02*
G37*
G36*
X59507Y576005D02*
X57333D01*
X55234Y575442D01*
X53351Y574356D01*
X51814Y572819D01*
X50728Y570936D01*
X50165Y568837D01*
Y566663D01*
X50728Y564564D01*
X51814Y562681D01*
X53351Y561144D01*
X55234Y560057D01*
X57333Y559495D01*
X59507D01*
X61606Y560057D01*
X63488Y561144D01*
X65026Y562681D01*
X66112Y564564D01*
X66675Y566663D01*
Y568837D01*
X66112Y570936D01*
X65026Y572819D01*
X63488Y574356D01*
X61606Y575442D01*
X59507Y576005D01*
D02*
G37*
G36*
X110307Y576005D02*
X108133D01*
X106034Y575442D01*
X104151Y574356D01*
X102614Y572818D01*
X101528Y570936D01*
X100965Y568837D01*
Y566663D01*
X101528Y564563D01*
X102614Y562681D01*
X104151Y561144D01*
X106034Y560057D01*
X108133Y559495D01*
X110307D01*
X112406Y560057D01*
X114289Y561144D01*
X115826Y562681D01*
X116912Y564563D01*
X117475Y566663D01*
Y568837D01*
X116912Y570936D01*
X115826Y572818D01*
X114289Y574356D01*
X112406Y575442D01*
X110307Y576005D01*
D02*
G37*
G36*
X182972Y571099D02*
X180898D01*
X178896Y570562D01*
X177100Y569525D01*
X175634Y568059D01*
X174598Y566264D01*
X174061Y564261D01*
Y562188D01*
X174598Y560185D01*
X175634Y558390D01*
X177100Y556924D01*
X178896Y555887D01*
X180898Y555351D01*
X182972D01*
X184974Y555887D01*
X186770Y556924D01*
X188236Y558390D01*
X189272Y560185D01*
X189809Y562188D01*
Y564261D01*
X189272Y566264D01*
X188236Y568059D01*
X186770Y569525D01*
X184974Y570562D01*
X182972Y571099D01*
D02*
G37*
G36*
X407232Y560685D02*
X401249D01*
Y554702D01*
X402140Y554940D01*
X404168Y556111D01*
X405823Y557766D01*
X406993Y559793D01*
X407232Y560685D01*
D02*
G37*
G36*
X396169D02*
X390186D01*
X390425Y559793D01*
X391595Y557766D01*
X393250Y556111D01*
X395277Y554940D01*
X396169Y554702D01*
Y560685D01*
D02*
G37*
G36*
X675127Y563408D02*
X673258D01*
X671530Y562692D01*
X670209Y561370D01*
X669493Y559643D01*
Y557774D01*
X670209Y556047D01*
X671530Y554725D01*
X673258Y554010D01*
X675127D01*
X676854Y554725D01*
X678176Y556047D01*
X678891Y557774D01*
Y559643D01*
X678176Y561370D01*
X676854Y562692D01*
X675127Y563408D01*
D02*
G37*
G36*
X27088Y568954D02*
X24712D01*
X22417Y568339D01*
X20359Y567151D01*
X18679Y565471D01*
X17491Y563413D01*
X16876Y561118D01*
Y558742D01*
X17491Y556447D01*
X18679Y554389D01*
X20359Y552709D01*
X22417Y551521D01*
X24712Y550906D01*
X27088D01*
X29383Y551521D01*
X31441Y552709D01*
X33121Y554389D01*
X34309Y556447D01*
X34924Y558742D01*
Y561118D01*
X34309Y563413D01*
X33121Y565471D01*
X31441Y567151D01*
X29383Y568339D01*
X27088Y568954D01*
D02*
G37*
G36*
X720933Y554375D02*
X719064D01*
X717337Y553660D01*
X716015Y552338D01*
X715300Y550611D01*
Y548742D01*
X716015Y547015D01*
X717337Y545693D01*
X719064Y544977D01*
X720933D01*
X722660Y545693D01*
X723982Y547015D01*
X724698Y548742D01*
Y550611D01*
X723982Y552338D01*
X722660Y553660D01*
X720933Y554375D01*
D02*
G37*
G36*
X683514Y546633D02*
X681645D01*
X679918Y545918D01*
X678596Y544596D01*
X677880Y542869D01*
Y541000D01*
X678596Y539273D01*
X679918Y537951D01*
X681645Y537235D01*
X683514D01*
X685241Y537951D01*
X686563Y539273D01*
X687278Y541000D01*
Y542869D01*
X686563Y544596D01*
X685241Y545918D01*
X683514Y546633D01*
D02*
G37*
G36*
X84907Y550605D02*
X82733D01*
X80633Y550042D01*
X78751Y548955D01*
X77214Y547419D01*
X76127Y545536D01*
X75565Y543437D01*
Y541263D01*
X76127Y539164D01*
X77214Y537281D01*
X78751Y535744D01*
X80633Y534658D01*
X82733Y534095D01*
X84907D01*
X87006Y534658D01*
X88889Y535744D01*
X90425Y537281D01*
X91512Y539164D01*
X92075Y541263D01*
Y543437D01*
X91512Y545536D01*
X90425Y547419D01*
X88889Y548955D01*
X87006Y550042D01*
X84907Y550605D01*
D02*
G37*
G36*
X727385Y535020D02*
X725516D01*
X723788Y534305D01*
X722467Y532983D01*
X721751Y531256D01*
Y529387D01*
X722467Y527660D01*
X723788Y526338D01*
X725516Y525622D01*
X727385D01*
X729112Y526338D01*
X730434Y527660D01*
X731149Y529387D01*
Y531256D01*
X730434Y532983D01*
X729112Y534305D01*
X727385Y535020D01*
D02*
G37*
G36*
X27088Y543554D02*
X24712D01*
X22417Y542939D01*
X20359Y541751D01*
X18679Y540071D01*
X17491Y538013D01*
X16876Y535718D01*
Y533342D01*
X17491Y531047D01*
X18679Y528989D01*
X20359Y527309D01*
X22417Y526121D01*
X24712Y525506D01*
X27088D01*
X29383Y526121D01*
X31441Y527309D01*
X33121Y528989D01*
X34309Y531047D01*
X34924Y533342D01*
Y535718D01*
X34309Y538013D01*
X33121Y540071D01*
X31441Y541751D01*
X29383Y542939D01*
X27088Y543554D01*
D02*
G37*
G36*
X493916Y528653D02*
X492047D01*
X490319Y527937D01*
X488997Y526615D01*
X488282Y524888D01*
Y523019D01*
X488997Y521292D01*
X490319Y519970D01*
X492047Y519255D01*
X493916D01*
X495643Y519970D01*
X496965Y521292D01*
X497680Y523019D01*
Y524888D01*
X496965Y526615D01*
X495643Y527937D01*
X493916Y528653D01*
D02*
G37*
G36*
X689803Y525988D02*
X687934D01*
X686207Y525273D01*
X684885Y523951D01*
X684169Y522224D01*
Y520355D01*
X684885Y518628D01*
X686207Y517306D01*
X687934Y516590D01*
X689803D01*
X691530Y517306D01*
X692852Y518628D01*
X693567Y520355D01*
Y522224D01*
X692852Y523951D01*
X691530Y525273D01*
X689803Y525988D01*
D02*
G37*
G36*
X732546Y516311D02*
X730677D01*
X728950Y515596D01*
X727628Y514274D01*
X726912Y512547D01*
Y510677D01*
X727628Y508950D01*
X728950Y507628D01*
X730677Y506913D01*
X732546D01*
X734273Y507628D01*
X735595Y508950D01*
X736310Y510677D01*
Y512547D01*
X735595Y514274D01*
X734273Y515596D01*
X732546Y516311D01*
D02*
G37*
G36*
X210612Y515666D02*
X208742D01*
X207015Y514950D01*
X205693Y513629D01*
X204978Y511901D01*
Y510032D01*
X205693Y508305D01*
X207015Y506983D01*
X208742Y506268D01*
X210612D01*
X212339Y506983D01*
X213661Y508305D01*
X214376Y510032D01*
Y511901D01*
X213661Y513629D01*
X212339Y514950D01*
X210612Y515666D01*
D02*
G37*
G36*
X27088Y518154D02*
X24712D01*
X22417Y517539D01*
X20359Y516351D01*
X18679Y514671D01*
X17491Y512613D01*
X16876Y510318D01*
Y507942D01*
X17491Y505647D01*
X18679Y503589D01*
X20359Y501909D01*
X22417Y500721D01*
X24712Y500106D01*
X27088D01*
X29383Y500721D01*
X31441Y501909D01*
X33121Y503589D01*
X34309Y505647D01*
X34924Y507942D01*
Y510318D01*
X34309Y512613D01*
X33121Y514671D01*
X31441Y516351D01*
X29383Y517539D01*
X27088Y518154D01*
D02*
G37*
G36*
X695772Y505988D02*
X693903D01*
X692176Y505273D01*
X690854Y503951D01*
X690138Y502224D01*
Y500355D01*
X690854Y498628D01*
X692176Y497306D01*
X693903Y496590D01*
X695772D01*
X697499Y497306D01*
X698821Y498628D01*
X699536Y500355D01*
Y502224D01*
X698821Y503951D01*
X697499Y505273D01*
X695772Y505988D01*
D02*
G37*
G36*
X211418Y499537D02*
X209549D01*
X207822Y498821D01*
X206500Y497500D01*
X205784Y495772D01*
Y493903D01*
X206500Y492176D01*
X207822Y490854D01*
X209549Y490139D01*
X211418D01*
X213145Y490854D01*
X214467Y492176D01*
X215182Y493903D01*
Y495772D01*
X214467Y497500D01*
X213145Y498821D01*
X211418Y499537D01*
D02*
G37*
G36*
X27088Y492754D02*
X24712D01*
X22417Y492139D01*
X20359Y490951D01*
X18679Y489271D01*
X17491Y487213D01*
X16876Y484918D01*
Y482542D01*
X17491Y480247D01*
X18679Y478189D01*
X20359Y476509D01*
X22417Y475321D01*
X24712Y474706D01*
X27088D01*
X29383Y475321D01*
X31441Y476509D01*
X33121Y478189D01*
X34309Y480247D01*
X34924Y482542D01*
Y484918D01*
X34309Y487213D01*
X33121Y489271D01*
X31441Y490951D01*
X29383Y492139D01*
X27088Y492754D01*
D02*
G37*
G36*
X211257Y483408D02*
X209387D01*
X207660Y482692D01*
X206339Y481371D01*
X205623Y479643D01*
Y477774D01*
X206339Y476047D01*
X207660Y474725D01*
X209387Y474010D01*
X211257D01*
X212984Y474725D01*
X214306Y476047D01*
X215021Y477774D01*
Y479643D01*
X214306Y481371D01*
X212984Y482692D01*
X211257Y483408D01*
D02*
G37*
G36*
X211418Y466634D02*
X209549D01*
X207822Y465918D01*
X206500Y464596D01*
X205784Y462869D01*
Y461000D01*
X206500Y459273D01*
X207822Y457951D01*
X209549Y457236D01*
X211418D01*
X213145Y457951D01*
X214467Y459273D01*
X215182Y461000D01*
Y462869D01*
X214467Y464596D01*
X213145Y465918D01*
X211418Y466634D01*
D02*
G37*
G36*
X27088Y467354D02*
X24712D01*
X22417Y466739D01*
X20359Y465551D01*
X18679Y463871D01*
X17491Y461813D01*
X16876Y459518D01*
Y457142D01*
X17491Y454847D01*
X18679Y452789D01*
X20359Y451109D01*
X22417Y449921D01*
X24712Y449306D01*
X27088D01*
X29383Y449921D01*
X31441Y451109D01*
X33121Y452789D01*
X34309Y454847D01*
X34924Y457142D01*
Y459518D01*
X34309Y461813D01*
X33121Y463871D01*
X31441Y465551D01*
X29383Y466739D01*
X27088Y467354D01*
D02*
G37*
G36*
X215289Y449214D02*
X213420D01*
X211693Y448499D01*
X210371Y447177D01*
X209655Y445450D01*
Y443581D01*
X210371Y441853D01*
X211693Y440532D01*
X213420Y439816D01*
X215289D01*
X217016Y440532D01*
X218338Y441853D01*
X219053Y443581D01*
Y445450D01*
X218338Y447177D01*
X217016Y448499D01*
X215289Y449214D01*
D02*
G37*
G36*
X215128Y436311D02*
X213258D01*
X211531Y435596D01*
X210210Y434274D01*
X209494Y432547D01*
Y430677D01*
X210210Y428950D01*
X211531Y427628D01*
X213258Y426913D01*
X215128D01*
X216855Y427628D01*
X218177Y428950D01*
X218892Y430677D01*
Y432547D01*
X218177Y434274D01*
X216855Y435596D01*
X215128Y436311D01*
D02*
G37*
G36*
X27088Y441954D02*
X24712D01*
X22417Y441339D01*
X20359Y440151D01*
X18679Y438471D01*
X17491Y436413D01*
X16876Y434118D01*
Y431742D01*
X17491Y429447D01*
X18679Y427389D01*
X20359Y425709D01*
X22417Y424521D01*
X24712Y423906D01*
X27088D01*
X29383Y424521D01*
X31441Y425709D01*
X33121Y427389D01*
X34309Y429447D01*
X34924Y431742D01*
Y434118D01*
X34309Y436413D01*
X33121Y438471D01*
X31441Y440151D01*
X29383Y441339D01*
X27088Y441954D01*
D02*
G37*
G36*
X241096Y431150D02*
X239226D01*
X237499Y430434D01*
X236177Y429113D01*
X235462Y427385D01*
Y425516D01*
X236177Y423789D01*
X237499Y422467D01*
X239226Y421752D01*
X241096D01*
X242823Y422467D01*
X244144Y423789D01*
X244860Y425516D01*
Y427385D01*
X244144Y429113D01*
X242823Y430434D01*
X241096Y431150D01*
D02*
G37*
G36*
X202386Y427924D02*
X200516D01*
X198789Y427209D01*
X197468Y425887D01*
X196752Y424160D01*
Y422290D01*
X197468Y420563D01*
X198789Y419241D01*
X200516Y418526D01*
X202386D01*
X204113Y419241D01*
X205435Y420563D01*
X206150Y422290D01*
Y424160D01*
X205435Y425887D01*
X204113Y427209D01*
X202386Y427924D01*
D02*
G37*
G36*
X281741Y426634D02*
X279871D01*
X278144Y425918D01*
X276822Y424596D01*
X276107Y422869D01*
Y421000D01*
X276822Y419273D01*
X278144Y417951D01*
X279871Y417236D01*
X281741D01*
X283468Y417951D01*
X284790Y419273D01*
X285505Y421000D01*
Y422869D01*
X284790Y424596D01*
X283468Y425918D01*
X281741Y426634D01*
D02*
G37*
G36*
X447385Y424053D02*
X445516D01*
X443789Y423338D01*
X442467Y422016D01*
X441752Y420289D01*
Y418419D01*
X442467Y416692D01*
X443789Y415370D01*
X445516Y414655D01*
X447385D01*
X449113Y415370D01*
X450434Y416692D01*
X451150Y418419D01*
Y420289D01*
X450434Y422016D01*
X449113Y423338D01*
X447385Y424053D01*
D02*
G37*
G36*
X264966Y423408D02*
X263097D01*
X261370Y422692D01*
X260048Y421371D01*
X259333Y419644D01*
Y417774D01*
X260048Y416047D01*
X261370Y414725D01*
X263097Y414010D01*
X264966D01*
X266693Y414725D01*
X268015Y416047D01*
X268731Y417774D01*
Y419644D01*
X268015Y421371D01*
X266693Y422692D01*
X264966Y423408D01*
D02*
G37*
G36*
X413192Y416311D02*
X411323D01*
X409595Y415596D01*
X408274Y414274D01*
X407558Y412547D01*
Y410677D01*
X408274Y408950D01*
X409595Y407629D01*
X411323Y406913D01*
X413192D01*
X414919Y407629D01*
X416241Y408950D01*
X416956Y410677D01*
Y412547D01*
X416241Y414274D01*
X414919Y415596D01*
X413192Y416311D01*
D02*
G37*
G36*
X446740Y412440D02*
X444871D01*
X443144Y411725D01*
X441822Y410403D01*
X441107Y408676D01*
Y406806D01*
X441822Y405079D01*
X443144Y403758D01*
X444871Y403042D01*
X446740D01*
X448467Y403758D01*
X449789Y405079D01*
X450505Y406806D01*
Y408676D01*
X449789Y410403D01*
X448467Y411725D01*
X446740Y412440D01*
D02*
G37*
G36*
X58236Y415985D02*
X56063D01*
X53963Y415422D01*
X52081Y414336D01*
X50544Y412799D01*
X49457Y410916D01*
X48895Y408817D01*
Y406643D01*
X49457Y404544D01*
X50544Y402661D01*
X52081Y401124D01*
X53963Y400037D01*
X56063Y399475D01*
X58236D01*
X60336Y400037D01*
X62218Y401124D01*
X63755Y402661D01*
X64842Y404544D01*
X65405Y406643D01*
Y408817D01*
X64842Y410916D01*
X63755Y412799D01*
X62218Y414336D01*
X60336Y415422D01*
X58236Y415985D01*
D02*
G37*
G36*
X109036Y415985D02*
X106863D01*
X104763Y415422D01*
X102881Y414336D01*
X101344Y412799D01*
X100257Y410916D01*
X99695Y408817D01*
Y406643D01*
X100257Y404543D01*
X101344Y402661D01*
X102881Y401124D01*
X104763Y400037D01*
X106863Y399475D01*
X109036D01*
X111136Y400037D01*
X113018Y401124D01*
X114555Y402661D01*
X115642Y404543D01*
X116205Y406643D01*
Y408817D01*
X115642Y410916D01*
X114555Y412799D01*
X113018Y414336D01*
X111136Y415422D01*
X109036Y415985D01*
D02*
G37*
G36*
X27088Y416554D02*
X24712D01*
X22417Y415939D01*
X20359Y414751D01*
X18679Y413071D01*
X17491Y411013D01*
X16876Y408718D01*
Y406342D01*
X17491Y404047D01*
X18679Y401989D01*
X20359Y400309D01*
X22417Y399121D01*
X24712Y398506D01*
X27088D01*
X29383Y399121D01*
X31441Y400309D01*
X33121Y401989D01*
X34309Y404047D01*
X34924Y406342D01*
Y408718D01*
X34309Y411013D01*
X33121Y413071D01*
X31441Y414751D01*
X29383Y415939D01*
X27088Y416554D01*
D02*
G37*
G36*
X430611Y395666D02*
X428742D01*
X427015Y394951D01*
X425693Y393629D01*
X424978Y391902D01*
Y390032D01*
X425693Y388305D01*
X427015Y386983D01*
X428742Y386268D01*
X430611D01*
X432338Y386983D01*
X433660Y388305D01*
X434376Y390032D01*
Y391902D01*
X433660Y393629D01*
X432338Y394951D01*
X430611Y395666D01*
D02*
G37*
G36*
X243676Y385343D02*
X241807D01*
X240080Y384628D01*
X238758Y383306D01*
X238042Y381579D01*
Y379710D01*
X238758Y377983D01*
X240080Y376661D01*
X241807Y375945D01*
X243676D01*
X245403Y376661D01*
X246725Y377983D01*
X247440Y379710D01*
Y381579D01*
X246725Y383306D01*
X245403Y384628D01*
X243676Y385343D01*
D02*
G37*
G36*
X83636Y390585D02*
X81463D01*
X79363Y390022D01*
X77481Y388936D01*
X75944Y387399D01*
X74857Y385516D01*
X74295Y383417D01*
Y381243D01*
X74857Y379144D01*
X75944Y377261D01*
X77481Y375724D01*
X79363Y374637D01*
X81463Y374075D01*
X83636D01*
X85736Y374637D01*
X87618Y375724D01*
X89155Y377261D01*
X90242Y379144D01*
X90805Y381243D01*
Y383417D01*
X90242Y385516D01*
X89155Y387399D01*
X87618Y388936D01*
X85736Y390022D01*
X83636Y390585D01*
D02*
G37*
G36*
X27088Y391154D02*
X24712D01*
X22417Y390539D01*
X20359Y389351D01*
X18679Y387671D01*
X17491Y385613D01*
X16876Y383318D01*
Y380942D01*
X17491Y378647D01*
X18679Y376589D01*
X20359Y374909D01*
X22417Y373721D01*
X24712Y373106D01*
X27088D01*
X29383Y373721D01*
X31441Y374909D01*
X33121Y376589D01*
X34309Y378647D01*
X34924Y380942D01*
Y383318D01*
X34309Y385613D01*
X33121Y387671D01*
X31441Y389351D01*
X29383Y390539D01*
X27088Y391154D01*
D02*
G37*
G36*
X165450Y369860D02*
X163581D01*
X161854Y369144D01*
X160532Y367822D01*
X159817Y366095D01*
Y364226D01*
X160532Y362499D01*
X161854Y361177D01*
X163581Y360462D01*
X165450D01*
X167178Y361177D01*
X168499Y362499D01*
X169215Y364226D01*
Y366095D01*
X168499Y367822D01*
X167178Y369144D01*
X165450Y369860D01*
D02*
G37*
G36*
X27088Y365754D02*
X24712D01*
X22417Y365139D01*
X20359Y363951D01*
X18679Y362271D01*
X17491Y360213D01*
X16876Y357918D01*
Y355542D01*
X17491Y353247D01*
X18679Y351189D01*
X20359Y349509D01*
X22417Y348321D01*
X24712Y347706D01*
X27088D01*
X29383Y348321D01*
X31441Y349509D01*
X33121Y351189D01*
X34309Y353247D01*
X34924Y355542D01*
Y357918D01*
X34309Y360213D01*
X33121Y362271D01*
X31441Y363951D01*
X29383Y365139D01*
X27088Y365754D01*
D02*
G37*
G36*
X144160Y350505D02*
X142291D01*
X140564Y349789D01*
X139242Y348467D01*
X138526Y346740D01*
Y344871D01*
X139242Y343144D01*
X140564Y341822D01*
X142291Y341107D01*
X144160D01*
X145887Y341822D01*
X147209Y343144D01*
X147924Y344871D01*
Y346740D01*
X147209Y348467D01*
X145887Y349789D01*
X144160Y350505D01*
D02*
G37*
G36*
X198226Y345699D02*
X196356D01*
X194629Y344984D01*
X193307Y343662D01*
X192592Y341935D01*
Y340066D01*
X193307Y338339D01*
X194629Y337017D01*
X196356Y336301D01*
X198226D01*
X199953Y337017D01*
X201275Y338339D01*
X201990Y340066D01*
Y341935D01*
X201275Y343662D01*
X199953Y344984D01*
X198226Y345699D01*
D02*
G37*
G36*
X27088Y340354D02*
X24712D01*
X22417Y339739D01*
X20359Y338551D01*
X18679Y336871D01*
X17491Y334813D01*
X16876Y332518D01*
Y330142D01*
X17491Y327847D01*
X18679Y325789D01*
X20359Y324109D01*
X22417Y322921D01*
X24712Y322306D01*
X27088D01*
X29383Y322921D01*
X31441Y324109D01*
X33121Y325789D01*
X34309Y327847D01*
X34924Y330142D01*
Y332518D01*
X34309Y334813D01*
X33121Y336871D01*
X31441Y338551D01*
X29383Y339739D01*
X27088Y340354D01*
D02*
G37*
G36*
X226257Y331150D02*
X224387D01*
X222660Y330435D01*
X221339Y329113D01*
X220623Y327386D01*
Y325516D01*
X221339Y323789D01*
X222660Y322467D01*
X224387Y321752D01*
X226257D01*
X227984Y322467D01*
X229306Y323789D01*
X230021Y325516D01*
Y327386D01*
X229306Y329113D01*
X227984Y330435D01*
X226257Y331150D01*
D02*
G37*
G36*
X252547Y326634D02*
X250678D01*
X248951Y325918D01*
X247629Y324597D01*
X246913Y322869D01*
Y321000D01*
X247629Y319273D01*
X248951Y317951D01*
X250678Y317236D01*
X252547D01*
X254274Y317951D01*
X255596Y319273D01*
X256311Y321000D01*
Y322869D01*
X255596Y324597D01*
X254274Y325918D01*
X252547Y326634D01*
D02*
G37*
G36*
X917746Y304190D02*
Y304122D01*
X867746D01*
Y304190D01*
X866972Y304088D01*
X866761D01*
X866663Y304047D01*
X866555Y304033D01*
X866439Y304056D01*
X865868Y303943D01*
X864704Y303790D01*
X861870Y302616D01*
X860938Y301901D01*
X860455Y301577D01*
X860389Y301479D01*
X860303Y301413D01*
X860205Y301372D01*
X860056Y301224D01*
X859436Y300748D01*
X858961Y300128D01*
X858812Y299979D01*
X858771Y299881D01*
X858705Y299795D01*
X858607Y299729D01*
X858284Y299246D01*
X857569Y298314D01*
X856395Y295480D01*
X856242Y294316D01*
X856128Y293745D01*
X856151Y293629D01*
X856137Y293521D01*
X856096Y293423D01*
Y293213D01*
X855994Y292438D01*
X856062D01*
Y200438D01*
X855994D01*
X856096Y199664D01*
Y199453D01*
X856137Y199355D01*
X856151Y199248D01*
X856128Y199132D01*
X856242Y198561D01*
X856395Y197397D01*
X857569Y194563D01*
X858283Y193631D01*
X858607Y193147D01*
X858705Y193081D01*
X858771Y192995D01*
X858812Y192897D01*
X858961Y192748D01*
X859436Y192129D01*
X860056Y191653D01*
X860205Y191504D01*
X860303Y191464D01*
X860389Y191398D01*
X860455Y191299D01*
X860939Y190976D01*
X861870Y190261D01*
X864704Y189087D01*
X865868Y188934D01*
X866439Y188820D01*
X866555Y188844D01*
X866663Y188829D01*
X866761Y188789D01*
X866972D01*
X867746Y188687D01*
Y188755D01*
X917746D01*
X917746Y188687D01*
X918520Y188789D01*
X918731D01*
X918829Y188829D01*
X918936Y188844D01*
X919052Y188820D01*
X919623Y188934D01*
X920787Y189087D01*
X923622Y190261D01*
X924553Y190976D01*
X925037Y191299D01*
X925102Y191398D01*
X925189Y191464D01*
X925287Y191504D01*
X925436Y191653D01*
X926055Y192129D01*
X926531Y192749D01*
X926680Y192897D01*
X926720Y192995D01*
X926786Y193081D01*
X926885Y193147D01*
X927208Y193631D01*
X927923Y194563D01*
X929097Y197397D01*
X929250Y198561D01*
X929364Y199132D01*
X929341Y199248D01*
X929355Y199355D01*
X929395Y199454D01*
Y199664D01*
X929497Y200438D01*
Y200438D01*
X929429Y200438D01*
Y200438D01*
X929429Y292438D01*
X929497D01*
X929395Y293213D01*
Y293423D01*
X929355Y293521D01*
X929341Y293629D01*
X929364Y293745D01*
X929250Y294316D01*
X929097Y295480D01*
X927923Y298314D01*
X927208Y299246D01*
X926885Y299729D01*
X926786Y299795D01*
X926720Y299881D01*
X926680Y299979D01*
X926531Y300128D01*
X926055Y300748D01*
X925435Y301224D01*
X925287Y301372D01*
X925189Y301413D01*
X925102Y301479D01*
X925037Y301577D01*
X924553Y301900D01*
X923622Y302616D01*
X920787Y303790D01*
X919623Y303943D01*
X919053Y304056D01*
X918936Y304033D01*
X918829Y304047D01*
X918731Y304088D01*
X918520D01*
X917746Y304190D01*
D02*
G37*
G36*
X27088Y314954D02*
X24712D01*
X22417Y314339D01*
X20359Y313151D01*
X18679Y311471D01*
X17491Y309413D01*
X16876Y307118D01*
Y304742D01*
X17491Y302447D01*
X18679Y300389D01*
X20359Y298709D01*
X22417Y297521D01*
X24712Y296906D01*
X27088D01*
X29383Y297521D01*
X31441Y298709D01*
X33121Y300389D01*
X34309Y302447D01*
X34924Y304742D01*
Y307118D01*
X34309Y309413D01*
X33121Y311471D01*
X31441Y313151D01*
X29383Y314339D01*
X27088Y314954D01*
D02*
G37*
G36*
X178354Y287924D02*
X176484D01*
X174757Y287209D01*
X173435Y285887D01*
X172720Y284160D01*
Y282290D01*
X173435Y280564D01*
X174757Y279242D01*
X176484Y278526D01*
X178354D01*
X180081Y279242D01*
X181403Y280564D01*
X182118Y282290D01*
Y284160D01*
X181403Y285887D01*
X180081Y287209D01*
X178354Y287924D01*
D02*
G37*
G36*
X227762Y285129D02*
X225893D01*
X224165Y284414D01*
X222844Y283092D01*
X222128Y281364D01*
Y279495D01*
X222844Y277768D01*
X224165Y276446D01*
X225893Y275731D01*
X227762D01*
X229489Y276446D01*
X230811Y277768D01*
X231526Y279495D01*
Y281364D01*
X230811Y283092D01*
X229489Y284414D01*
X227762Y285129D01*
D02*
G37*
G36*
X27088Y289554D02*
X24712D01*
X22417Y288939D01*
X20359Y287751D01*
X18679Y286071D01*
X17491Y284013D01*
X16876Y281718D01*
Y279342D01*
X17491Y277047D01*
X18679Y274989D01*
X20359Y273309D01*
X22417Y272121D01*
X24712Y271506D01*
X27088D01*
X29383Y272121D01*
X31441Y273309D01*
X33121Y274989D01*
X34309Y277047D01*
X34924Y279342D01*
Y281718D01*
X34309Y284013D01*
X33121Y286071D01*
X31441Y287751D01*
X29383Y288939D01*
X27088Y289554D01*
D02*
G37*
G36*
X794591Y267123D02*
X792890D01*
X791320Y266472D01*
X790117Y265270D01*
X789467Y263699D01*
Y261999D01*
X790117Y260428D01*
X791320Y259226D01*
X792890Y258575D01*
X794591D01*
X796162Y259226D01*
X797364Y260428D01*
X798015Y261999D01*
Y263699D01*
X797364Y265270D01*
X796162Y266472D01*
X794591Y267123D01*
D02*
G37*
G36*
X655591D02*
X653891D01*
X652320Y266472D01*
X651117Y265270D01*
X650467Y263699D01*
Y261999D01*
X651117Y260428D01*
X652320Y259226D01*
X653891Y258575D01*
X655591D01*
X657162Y259226D01*
X658364Y260428D01*
X659015Y261999D01*
Y263699D01*
X658364Y265270D01*
X657162Y266472D01*
X655591Y267123D01*
D02*
G37*
G36*
X579591D02*
X577891D01*
X576320Y266472D01*
X575117Y265270D01*
X574467Y263699D01*
Y261999D01*
X575117Y260428D01*
X576320Y259226D01*
X577891Y258575D01*
X579591D01*
X581162Y259226D01*
X582364Y260428D01*
X583015Y261999D01*
Y263699D01*
X582364Y265270D01*
X581162Y266472D01*
X579591Y267123D01*
D02*
G37*
G36*
X440591D02*
X438890D01*
X437320Y266472D01*
X436117Y265270D01*
X435467Y263699D01*
Y261999D01*
X436117Y260428D01*
X437320Y259226D01*
X438890Y258575D01*
X440591D01*
X442162Y259226D01*
X443364Y260428D01*
X444015Y261999D01*
Y263699D01*
X443364Y265270D01*
X442162Y266472D01*
X440591Y267123D01*
D02*
G37*
G36*
X169967Y265989D02*
X168097D01*
X166370Y265273D01*
X165048Y263952D01*
X164333Y262225D01*
Y260355D01*
X165048Y258628D01*
X166370Y257306D01*
X168097Y256591D01*
X169967D01*
X171694Y257306D01*
X173015Y258628D01*
X173731Y260355D01*
Y262225D01*
X173015Y263952D01*
X171694Y265273D01*
X169967Y265989D01*
D02*
G37*
G36*
X27088Y264154D02*
X24712D01*
X22417Y263539D01*
X20359Y262351D01*
X18679Y260671D01*
X17491Y258613D01*
X16876Y256318D01*
Y253942D01*
X17491Y251647D01*
X18679Y249589D01*
X20359Y247909D01*
X22417Y246721D01*
X24712Y246106D01*
X27088D01*
X29383Y246721D01*
X31441Y247909D01*
X33121Y249589D01*
X34309Y251647D01*
X34924Y253942D01*
Y256318D01*
X34309Y258613D01*
X33121Y260671D01*
X31441Y262351D01*
X29383Y263539D01*
X27088Y264154D01*
D02*
G37*
G36*
X724804Y255021D02*
X722935D01*
X721208Y254306D01*
X719886Y252984D01*
X719171Y251257D01*
Y249387D01*
X719886Y247660D01*
X721208Y246339D01*
X722935Y245623D01*
X724804D01*
X726531Y246339D01*
X727853Y247660D01*
X728568Y249387D01*
Y251257D01*
X727853Y252984D01*
X726531Y254306D01*
X724804Y255021D01*
D02*
G37*
G36*
X547385D02*
X545516D01*
X543789Y254306D01*
X542467Y252984D01*
X541752Y251257D01*
Y249387D01*
X542467Y247660D01*
X543789Y246339D01*
X545516Y245623D01*
X547385D01*
X549112Y246339D01*
X550434Y247660D01*
X551149Y249387D01*
Y251257D01*
X550434Y252984D01*
X549112Y254306D01*
X547385Y255021D01*
D02*
G37*
G36*
X768675Y254376D02*
X766806D01*
X765079Y253661D01*
X763757Y252339D01*
X763041Y250612D01*
Y248742D01*
X763757Y247015D01*
X765079Y245693D01*
X766806Y244978D01*
X768675D01*
X770402Y245693D01*
X771724Y247015D01*
X772439Y248742D01*
Y250612D01*
X771724Y252339D01*
X770402Y253661D01*
X768675Y254376D01*
D02*
G37*
G36*
X679643D02*
X677774D01*
X676047Y253661D01*
X674725Y252339D01*
X674009Y250612D01*
Y248742D01*
X674725Y247015D01*
X676047Y245693D01*
X677774Y244978D01*
X679643D01*
X681370Y245693D01*
X682692Y247015D01*
X683407Y248742D01*
Y250612D01*
X682692Y252339D01*
X681370Y253661D01*
X679643Y254376D01*
D02*
G37*
G36*
X509966D02*
X508097D01*
X506370Y253661D01*
X505048Y252339D01*
X504332Y250612D01*
Y248742D01*
X505048Y247015D01*
X506370Y245693D01*
X508097Y244978D01*
X509966D01*
X511693Y245693D01*
X513015Y247015D01*
X513730Y248742D01*
Y250612D01*
X513015Y252339D01*
X511693Y253661D01*
X509966Y254376D01*
D02*
G37*
G36*
X58236Y253425D02*
X56062D01*
X53963Y252862D01*
X52081Y251776D01*
X50544Y250239D01*
X49457Y248356D01*
X48894Y246257D01*
Y244083D01*
X49457Y241984D01*
X50544Y240101D01*
X52081Y238564D01*
X53963Y237477D01*
X56062Y236915D01*
X58236D01*
X60336Y237477D01*
X62218Y238564D01*
X63755Y240101D01*
X64842Y241984D01*
X65404Y244083D01*
Y246257D01*
X64842Y248356D01*
X63755Y250239D01*
X62218Y251776D01*
X60336Y252862D01*
X58236Y253425D01*
D02*
G37*
G36*
X109036Y253425D02*
X106862D01*
X104763Y252862D01*
X102881Y251775D01*
X101344Y250238D01*
X100257Y248356D01*
X99694Y246257D01*
Y244083D01*
X100257Y241984D01*
X101344Y240101D01*
X102881Y238564D01*
X104763Y237477D01*
X106862Y236915D01*
X109036D01*
X111136Y237477D01*
X113018Y238564D01*
X114555Y240101D01*
X115642Y241984D01*
X116204Y244083D01*
Y246257D01*
X115642Y248356D01*
X114555Y250238D01*
X113018Y251775D01*
X111136Y252862D01*
X109036Y253425D01*
D02*
G37*
G36*
X27088Y238754D02*
X24712D01*
X22417Y238139D01*
X20359Y236951D01*
X18679Y235271D01*
X17491Y233213D01*
X16876Y230918D01*
Y228542D01*
X17491Y226247D01*
X18679Y224189D01*
X20359Y222509D01*
X22417Y221321D01*
X24712Y220706D01*
X27088D01*
X29383Y221321D01*
X31441Y222509D01*
X33121Y224189D01*
X34309Y226247D01*
X34924Y228542D01*
Y230918D01*
X34309Y233213D01*
X33121Y235271D01*
X31441Y236951D01*
X29383Y238139D01*
X27088Y238754D01*
D02*
G37*
G36*
X83636Y228025D02*
X81462D01*
X79363Y227462D01*
X77481Y226376D01*
X75944Y224839D01*
X74857Y222956D01*
X74294Y220857D01*
Y218683D01*
X74857Y216584D01*
X75944Y214701D01*
X77481Y213164D01*
X79363Y212078D01*
X81462Y211515D01*
X83636D01*
X85736Y212078D01*
X87618Y213164D01*
X89155Y214701D01*
X90242Y216584D01*
X90804Y218683D01*
Y220857D01*
X90242Y222956D01*
X89155Y224839D01*
X87618Y226376D01*
X85736Y227462D01*
X83636Y228025D01*
D02*
G37*
G36*
X27088Y213354D02*
X24712D01*
X22417Y212739D01*
X20359Y211551D01*
X18679Y209871D01*
X17491Y207813D01*
X16876Y205518D01*
Y203142D01*
X17491Y200847D01*
X18679Y198789D01*
X20359Y197109D01*
X22417Y195921D01*
X24712Y195306D01*
X27088D01*
X29383Y195921D01*
X31441Y197109D01*
X33121Y198789D01*
X34309Y200847D01*
X34924Y203142D01*
Y205518D01*
X34309Y207813D01*
X33121Y209871D01*
X31441Y211551D01*
X29383Y212739D01*
X27088Y213354D01*
D02*
G37*
G36*
X667055Y197555D02*
Y191572D01*
X673038D01*
X672799Y192463D01*
X671629Y194491D01*
X669973Y196146D01*
X667946Y197316D01*
X667055Y197555D01*
D02*
G37*
G36*
X661975D02*
X661083Y197316D01*
X659056Y196146D01*
X657401Y194491D01*
X656231Y192463D01*
X655992Y191572D01*
X661975D01*
Y197555D01*
D02*
G37*
G36*
X451571Y196265D02*
Y190282D01*
X457554D01*
X457315Y191173D01*
X456145Y193200D01*
X454490Y194855D01*
X452463Y196026D01*
X451571Y196265D01*
D02*
G37*
G36*
X446491D02*
X445600Y196026D01*
X443573Y194855D01*
X441918Y193200D01*
X440747Y191173D01*
X440508Y190282D01*
X446491D01*
Y196265D01*
D02*
G37*
G36*
X28440Y188644D02*
Y181470D01*
X35614D01*
X35256Y182805D01*
X33934Y185095D01*
X32065Y186964D01*
X29775Y188286D01*
X28440Y188644D01*
D02*
G37*
G36*
X23360D02*
X22025Y188286D01*
X19735Y186964D01*
X17866Y185095D01*
X16544Y182805D01*
X16186Y181470D01*
X23360D01*
Y188644D01*
D02*
G37*
G36*
X673038Y186492D02*
X667055D01*
Y180509D01*
X667946Y180748D01*
X669973Y181918D01*
X671629Y183573D01*
X672799Y185600D01*
X673038Y186492D01*
D02*
G37*
G36*
X661975D02*
X655992D01*
X656231Y185600D01*
X657401Y183573D01*
X659056Y181918D01*
X661083Y180748D01*
X661975Y180509D01*
Y186492D01*
D02*
G37*
G36*
X457554Y185202D02*
X451571D01*
Y179219D01*
X452463Y179457D01*
X454490Y180628D01*
X456145Y182283D01*
X457315Y184310D01*
X457554Y185202D01*
D02*
G37*
G36*
X446491D02*
X440508D01*
X440747Y184310D01*
X441918Y182283D01*
X443573Y180628D01*
X445600Y179457D01*
X446491Y179219D01*
Y185202D01*
D02*
G37*
G36*
X35614Y176390D02*
X28440D01*
Y169216D01*
X29775Y169574D01*
X32065Y170896D01*
X33934Y172765D01*
X35256Y175055D01*
X35614Y176390D01*
D02*
G37*
G36*
X23360D02*
X16186D01*
X16544Y175055D01*
X17866Y172765D01*
X19735Y170896D01*
X22025Y169574D01*
X23360Y169216D01*
Y176390D01*
D02*
G37*
G36*
X943774Y162554D02*
X941398D01*
X939103Y161939D01*
X937045Y160751D01*
X935365Y159071D01*
X934177Y157013D01*
X933562Y154718D01*
Y152342D01*
X934177Y150047D01*
X935365Y147989D01*
X937045Y146309D01*
X939103Y145121D01*
X941398Y144506D01*
X943774D01*
X946069Y145121D01*
X948127Y146309D01*
X949807Y147989D01*
X950995Y150047D01*
X951610Y152342D01*
Y154718D01*
X950995Y157013D01*
X949807Y159071D01*
X948127Y160751D01*
X946069Y161939D01*
X943774Y162554D01*
D02*
G37*
G36*
X34924D02*
X16876D01*
Y144506D01*
X34924D01*
Y162554D01*
D02*
G37*
G36*
X886877Y139782D02*
X871829D01*
Y124734D01*
X886877D01*
Y139782D01*
D02*
G37*
G36*
X860344D02*
X858363D01*
X856449Y139269D01*
X854733Y138279D01*
X853332Y136878D01*
X852342Y135162D01*
X851829Y133248D01*
Y131267D01*
X852342Y129354D01*
X853332Y127638D01*
X854733Y126237D01*
X856449Y125247D01*
X858363Y124734D01*
X860344D01*
X862257Y125247D01*
X863973Y126237D01*
X865374Y127638D01*
X866364Y129354D01*
X866877Y131267D01*
Y133248D01*
X866364Y135162D01*
X865374Y136878D01*
X863973Y138279D01*
X862257Y139269D01*
X860344Y139782D01*
D02*
G37*
G36*
X117524Y138475D02*
X102476D01*
Y123427D01*
X117524D01*
Y138475D01*
D02*
G37*
G36*
X90990D02*
X89009D01*
X87096Y137963D01*
X85380Y136972D01*
X83979Y135571D01*
X82989Y133856D01*
X82476Y131942D01*
Y129961D01*
X82989Y128047D01*
X83979Y126332D01*
X85380Y124931D01*
X87096Y123940D01*
X89009Y123427D01*
X90990D01*
X92904Y123940D01*
X94620Y124931D01*
X96020Y126332D01*
X97011Y128047D01*
X97524Y129961D01*
Y131942D01*
X97011Y133856D01*
X96020Y135571D01*
X94620Y136972D01*
X92904Y137963D01*
X90990Y138475D01*
D02*
G37*
G36*
X582929Y93545D02*
X582559Y93445D01*
X580839Y92453D01*
X579436Y91049D01*
X578532Y89485D01*
X577990Y90425D01*
X576775Y91640D01*
X575287Y92499D01*
X573628Y92943D01*
X571910D01*
X570251Y92499D01*
X568763Y91640D01*
X567548Y90425D01*
X566690Y88937D01*
X566419Y87927D01*
X566148Y88937D01*
X565289Y90425D01*
X564075Y91640D01*
X562587Y92499D01*
X560928Y92943D01*
X559210D01*
X557551Y92499D01*
X556063Y91640D01*
X554849Y90425D01*
X553990Y88937D01*
X553719Y87927D01*
X553448Y88937D01*
X552589Y90425D01*
X551375Y91640D01*
X549887Y92499D01*
X548228Y92943D01*
X546510D01*
X544851Y92499D01*
X543363Y91640D01*
X542149Y90425D01*
X541290Y88937D01*
X541019Y87927D01*
X540748Y88937D01*
X539889Y90425D01*
X538675Y91640D01*
X537187Y92499D01*
X535528Y92943D01*
X533810D01*
X532151Y92499D01*
X530663Y91640D01*
X529449Y90425D01*
X528590Y88937D01*
X528319Y87927D01*
X528048Y88937D01*
X527189Y90425D01*
X525975Y91640D01*
X524487Y92499D01*
X522828Y92943D01*
X521110D01*
X519451Y92499D01*
X517963Y91640D01*
X516749Y90425D01*
X515890Y88937D01*
X515619Y87927D01*
X515348Y88937D01*
X514490Y90425D01*
X513275Y91640D01*
X511787Y92499D01*
X510128Y92943D01*
X508410D01*
X506751Y92499D01*
X505263Y91640D01*
X504049Y90425D01*
X503190Y88937D01*
X502919Y87927D01*
X502648Y88937D01*
X501790Y90425D01*
X500575Y91640D01*
X499087Y92499D01*
X497428Y92943D01*
X495710D01*
X494051Y92499D01*
X492563Y91640D01*
X491348Y90425D01*
X490490Y88937D01*
X490045Y87278D01*
Y85560D01*
X490490Y83901D01*
X491348Y82413D01*
X492563Y81199D01*
X494051Y80340D01*
X495710Y79895D01*
X497428D01*
X499087Y80340D01*
X500575Y81199D01*
X501790Y82413D01*
X502648Y83901D01*
X502919Y84911D01*
X503190Y83901D01*
X504049Y82413D01*
X505263Y81199D01*
X506751Y80340D01*
X508410Y79895D01*
X510128D01*
X511787Y80340D01*
X513275Y81199D01*
X514490Y82413D01*
X515348Y83901D01*
X515619Y84911D01*
X515890Y83901D01*
X516749Y82413D01*
X517963Y81199D01*
X519451Y80340D01*
X521110Y79895D01*
X522828D01*
X524487Y80340D01*
X525975Y81199D01*
X527189Y82413D01*
X528048Y83901D01*
X528319Y84911D01*
X528590Y83901D01*
X529449Y82413D01*
X530663Y81199D01*
X532151Y80340D01*
X533810Y79895D01*
X535528D01*
X537187Y80340D01*
X538675Y81199D01*
X539889Y82413D01*
X540748Y83901D01*
X541019Y84911D01*
X541290Y83901D01*
X542149Y82413D01*
X543363Y81199D01*
X544851Y80340D01*
X546510Y79895D01*
X548228D01*
X549887Y80340D01*
X551375Y81199D01*
X552589Y82413D01*
X553448Y83901D01*
X553719Y84911D01*
X553990Y83901D01*
X554849Y82413D01*
X556063Y81199D01*
X557551Y80340D01*
X559210Y79895D01*
X560928D01*
X562587Y80340D01*
X564075Y81199D01*
X565289Y82413D01*
X566148Y83901D01*
X566419Y84911D01*
X566690Y83901D01*
X567548Y82413D01*
X568763Y81199D01*
X570251Y80340D01*
X571910Y79895D01*
X573628D01*
X575287Y80340D01*
X576775Y81199D01*
X577990Y82413D01*
X578532Y83354D01*
X579436Y81790D01*
X580839Y80386D01*
X582559Y79393D01*
X582929Y79294D01*
Y86419D01*
Y93545D01*
D02*
G37*
G36*
X436468Y92944D02*
X434750D01*
X433091Y92499D01*
X431603Y91640D01*
X430388Y90426D01*
X429530Y88938D01*
X429259Y87928D01*
X428988Y88938D01*
X428130Y90426D01*
X426915Y91640D01*
X425427Y92499D01*
X423768Y92944D01*
X422050D01*
X420391Y92499D01*
X418903Y91640D01*
X417688Y90426D01*
X416830Y88938D01*
X416559Y87928D01*
X416288Y88938D01*
X415429Y90426D01*
X414215Y91640D01*
X412727Y92499D01*
X411068Y92944D01*
X409350D01*
X407691Y92499D01*
X406203Y91640D01*
X404989Y90426D01*
X404130Y88938D01*
X403859Y87928D01*
X403588Y88938D01*
X402729Y90426D01*
X401515Y91640D01*
X400027Y92499D01*
X398368Y92944D01*
X396650D01*
X394991Y92499D01*
X393503Y91640D01*
X392289Y90426D01*
X391430Y88938D01*
X391159Y87928D01*
X390888Y88938D01*
X390029Y90426D01*
X388815Y91640D01*
X387327Y92499D01*
X385668Y92944D01*
X383950D01*
X382291Y92499D01*
X380803Y91640D01*
X379589Y90426D01*
X378730Y88938D01*
X378459Y87928D01*
X378188Y88938D01*
X377329Y90426D01*
X376115Y91640D01*
X374627Y92499D01*
X372968Y92944D01*
X371250D01*
X369591Y92499D01*
X368103Y91640D01*
X366889Y90426D01*
X366030Y88938D01*
X365759Y87928D01*
X365488Y88938D01*
X364630Y90426D01*
X363415Y91640D01*
X361927Y92499D01*
X360268Y92944D01*
X358550D01*
X356891Y92499D01*
X355403Y91640D01*
X354188Y90426D01*
X353330Y88938D01*
X353059Y87928D01*
X352788Y88938D01*
X351930Y90426D01*
X350715Y91640D01*
X349227Y92499D01*
X347568Y92944D01*
X345850D01*
X344191Y92499D01*
X342703Y91640D01*
X341488Y90426D01*
X340630Y88938D01*
X340359Y87928D01*
X340088Y88938D01*
X339230Y90426D01*
X338015Y91640D01*
X336527Y92499D01*
X334868Y92944D01*
X333150D01*
X331491Y92499D01*
X330003Y91640D01*
X328788Y90426D01*
X327930Y88938D01*
X327659Y87928D01*
X327388Y88938D01*
X326530Y90426D01*
X325315Y91640D01*
X323827Y92499D01*
X322168Y92944D01*
X320450D01*
X318791Y92499D01*
X317303Y91640D01*
X316089Y90426D01*
X315230Y88938D01*
X314959Y87928D01*
X314688Y88938D01*
X313829Y90426D01*
X312615Y91640D01*
X311127Y92499D01*
X309468Y92944D01*
X307750D01*
X306091Y92499D01*
X304603Y91640D01*
X303389Y90426D01*
X302530Y88938D01*
X302259Y87928D01*
X301988Y88938D01*
X301129Y90426D01*
X299915Y91640D01*
X298427Y92499D01*
X296768Y92944D01*
X295050D01*
X293391Y92499D01*
X291903Y91640D01*
X290688Y90426D01*
X289830Y88938D01*
X289559Y87928D01*
X289288Y88938D01*
X288430Y90426D01*
X287215Y91640D01*
X285727Y92499D01*
X284068Y92944D01*
X282350D01*
X280691Y92499D01*
X279203Y91640D01*
X277988Y90426D01*
X277130Y88938D01*
X276859Y87928D01*
X276588Y88938D01*
X275730Y90426D01*
X274515Y91640D01*
X273027Y92499D01*
X271368Y92944D01*
X269650D01*
X267991Y92499D01*
X266503Y91640D01*
X265289Y90426D01*
X264430Y88938D01*
X264159Y87928D01*
X263888Y88938D01*
X263029Y90426D01*
X261815Y91640D01*
X260327Y92499D01*
X258668Y92944D01*
X256950D01*
X255291Y92499D01*
X253803Y91640D01*
X252589Y90426D01*
X251730Y88938D01*
X251459Y87928D01*
X251188Y88938D01*
X250329Y90426D01*
X249115Y91640D01*
X247627Y92499D01*
X245968Y92944D01*
X244250D01*
X242591Y92499D01*
X241103Y91640D01*
X239888Y90426D01*
X239030Y88938D01*
X238759Y87928D01*
X238488Y88938D01*
X237630Y90426D01*
X236415Y91640D01*
X234927Y92499D01*
X233268Y92944D01*
X231550D01*
X229891Y92499D01*
X228403Y91640D01*
X227188Y90426D01*
X226330Y88938D01*
X226059Y87928D01*
X225788Y88938D01*
X224930Y90426D01*
X223715Y91640D01*
X222227Y92499D01*
X220568Y92944D01*
X218850D01*
X217191Y92499D01*
X215703Y91640D01*
X214489Y90426D01*
X213630Y88938D01*
X213359Y87928D01*
X213088Y88938D01*
X212229Y90426D01*
X211015Y91640D01*
X209527Y92499D01*
X207868Y92944D01*
X206150D01*
X204491Y92499D01*
X203003Y91640D01*
X201789Y90426D01*
X200930Y88938D01*
X200659Y87928D01*
X200388Y88938D01*
X199529Y90426D01*
X198315Y91640D01*
X196827Y92499D01*
X195168Y92944D01*
X193450D01*
X191791Y92499D01*
X190303Y91640D01*
X189088Y90426D01*
X188230Y88938D01*
X187785Y87279D01*
Y85561D01*
X188230Y83902D01*
X189088Y82414D01*
X190303Y81199D01*
X191791Y80340D01*
X193450Y79896D01*
X195168D01*
X196827Y80340D01*
X198315Y81199D01*
X199529Y82414D01*
X200388Y83902D01*
X200659Y84911D01*
X200930Y83902D01*
X201789Y82414D01*
X203003Y81199D01*
X204491Y80340D01*
X206150Y79896D01*
X207868D01*
X209527Y80340D01*
X211015Y81199D01*
X212229Y82414D01*
X213088Y83902D01*
X213359Y84911D01*
X213630Y83902D01*
X214489Y82414D01*
X215703Y81199D01*
X217191Y80340D01*
X218850Y79896D01*
X220568D01*
X222227Y80340D01*
X223715Y81199D01*
X224930Y82414D01*
X225788Y83902D01*
X226059Y84911D01*
X226330Y83902D01*
X227188Y82414D01*
X228403Y81199D01*
X229891Y80340D01*
X231550Y79896D01*
X233268D01*
X234927Y80340D01*
X236415Y81199D01*
X237630Y82414D01*
X238488Y83902D01*
X238759Y84911D01*
X239030Y83902D01*
X239888Y82414D01*
X241103Y81199D01*
X242591Y80340D01*
X244250Y79896D01*
X245968D01*
X247627Y80340D01*
X249115Y81199D01*
X250329Y82414D01*
X251188Y83902D01*
X251459Y84911D01*
X251730Y83902D01*
X252589Y82414D01*
X253803Y81199D01*
X255291Y80340D01*
X256950Y79896D01*
X258668D01*
X260327Y80340D01*
X261815Y81199D01*
X263029Y82414D01*
X263888Y83902D01*
X264159Y84911D01*
X264430Y83902D01*
X265289Y82414D01*
X266503Y81199D01*
X267991Y80340D01*
X269650Y79896D01*
X271368D01*
X273027Y80340D01*
X274515Y81199D01*
X275730Y82414D01*
X276588Y83902D01*
X276859Y84911D01*
X277130Y83902D01*
X277988Y82414D01*
X279203Y81199D01*
X280691Y80340D01*
X282350Y79896D01*
X284068D01*
X285727Y80340D01*
X287215Y81199D01*
X288430Y82414D01*
X289288Y83902D01*
X289559Y84911D01*
X289830Y83902D01*
X290688Y82414D01*
X291903Y81199D01*
X293391Y80340D01*
X295050Y79896D01*
X296768D01*
X298427Y80340D01*
X299915Y81199D01*
X301129Y82414D01*
X301988Y83902D01*
X302259Y84911D01*
X302530Y83902D01*
X303389Y82414D01*
X304603Y81199D01*
X306091Y80340D01*
X307750Y79896D01*
X309468D01*
X311127Y80340D01*
X312615Y81199D01*
X313829Y82414D01*
X314688Y83902D01*
X314959Y84911D01*
X315230Y83902D01*
X316089Y82414D01*
X317303Y81199D01*
X318791Y80340D01*
X320450Y79896D01*
X322168D01*
X323827Y80340D01*
X325315Y81199D01*
X326530Y82414D01*
X327388Y83902D01*
X327659Y84911D01*
X327930Y83902D01*
X328788Y82414D01*
X330003Y81199D01*
X331491Y80340D01*
X333150Y79896D01*
X334868D01*
X336527Y80340D01*
X338015Y81199D01*
X339230Y82414D01*
X340088Y83902D01*
X340359Y84911D01*
X340630Y83902D01*
X341488Y82414D01*
X342703Y81199D01*
X344191Y80340D01*
X345850Y79896D01*
X347568D01*
X349227Y80340D01*
X350715Y81199D01*
X351930Y82414D01*
X352788Y83902D01*
X353059Y84911D01*
X353330Y83902D01*
X354188Y82414D01*
X355403Y81199D01*
X356891Y80340D01*
X358550Y79896D01*
X360268D01*
X361927Y80340D01*
X363415Y81199D01*
X364630Y82414D01*
X365488Y83902D01*
X365759Y84911D01*
X366030Y83902D01*
X366889Y82414D01*
X368103Y81199D01*
X369591Y80340D01*
X371250Y79896D01*
X372968D01*
X374627Y80340D01*
X376115Y81199D01*
X377329Y82414D01*
X378188Y83902D01*
X378459Y84911D01*
X378730Y83902D01*
X379589Y82414D01*
X380803Y81199D01*
X382291Y80340D01*
X383950Y79896D01*
X385668D01*
X387327Y80340D01*
X388815Y81199D01*
X390029Y82414D01*
X390888Y83902D01*
X391159Y84911D01*
X391430Y83902D01*
X392289Y82414D01*
X393503Y81199D01*
X394991Y80340D01*
X396650Y79896D01*
X398368D01*
X400027Y80340D01*
X401515Y81199D01*
X402729Y82414D01*
X403588Y83902D01*
X403859Y84911D01*
X404130Y83902D01*
X404989Y82414D01*
X406203Y81199D01*
X407691Y80340D01*
X409350Y79896D01*
X411068D01*
X412727Y80340D01*
X414215Y81199D01*
X415429Y82414D01*
X416288Y83902D01*
X416559Y84911D01*
X416830Y83902D01*
X417688Y82414D01*
X418903Y81199D01*
X420391Y80340D01*
X422050Y79896D01*
X423768D01*
X425427Y80340D01*
X426915Y81199D01*
X428130Y82414D01*
X428988Y83902D01*
X429259Y84911D01*
X429530Y83902D01*
X430388Y82414D01*
X431603Y81199D01*
X433091Y80340D01*
X434750Y79896D01*
X436468D01*
X438127Y80340D01*
X439615Y81199D01*
X440830Y82414D01*
X441688Y83902D01*
X442133Y85561D01*
Y87279D01*
X441688Y88938D01*
X440830Y90426D01*
X439615Y91640D01*
X438127Y92499D01*
X436468Y92944D01*
D02*
G37*
G36*
X600709Y93545D02*
Y86419D01*
Y79294D01*
X601079Y79393D01*
X602799Y80386D01*
X604202Y81790D01*
X605106Y83354D01*
X605648Y82413D01*
X606863Y81199D01*
X608351Y80340D01*
X610010Y79895D01*
X611728D01*
X613387Y80340D01*
X614875Y81199D01*
X616090Y82413D01*
X616948Y83901D01*
X617219Y84911D01*
X617490Y83901D01*
X618349Y82413D01*
X619563Y81199D01*
X621051Y80340D01*
X622710Y79895D01*
X624428D01*
X626087Y80340D01*
X627575Y81199D01*
X628789Y82413D01*
X629648Y83901D01*
X629919Y84911D01*
X630190Y83901D01*
X631049Y82413D01*
X632263Y81199D01*
X633751Y80340D01*
X635410Y79895D01*
X637128D01*
X638787Y80340D01*
X640275Y81199D01*
X641489Y82413D01*
X642348Y83901D01*
X642619Y84911D01*
X642890Y83901D01*
X643748Y82413D01*
X644963Y81199D01*
X646451Y80340D01*
X648110Y79895D01*
X649828D01*
X651487Y80340D01*
X652975Y81199D01*
X654190Y82413D01*
X655048Y83901D01*
X655319Y84911D01*
X655590Y83901D01*
X656449Y82413D01*
X657663Y81199D01*
X659151Y80340D01*
X660810Y79895D01*
X662528D01*
X664187Y80340D01*
X665675Y81199D01*
X666889Y82413D01*
X667748Y83901D01*
X668019Y84911D01*
X668290Y83901D01*
X669148Y82413D01*
X670363Y81199D01*
X671851Y80340D01*
X673510Y79895D01*
X675228D01*
X676887Y80340D01*
X678375Y81199D01*
X679589Y82413D01*
X680448Y83901D01*
X680719Y84911D01*
X680990Y83901D01*
X681849Y82413D01*
X683063Y81199D01*
X684551Y80340D01*
X686210Y79895D01*
X687928D01*
X689587Y80340D01*
X691075Y81199D01*
X692290Y82413D01*
X693148Y83901D01*
X693419Y84911D01*
X693690Y83901D01*
X694548Y82413D01*
X695763Y81199D01*
X697251Y80340D01*
X698910Y79895D01*
X700628D01*
X702287Y80340D01*
X703775Y81199D01*
X704989Y82413D01*
X705848Y83901D01*
X706119Y84911D01*
X706390Y83901D01*
X707249Y82413D01*
X708463Y81199D01*
X709951Y80340D01*
X711610Y79895D01*
X713328D01*
X714987Y80340D01*
X716475Y81199D01*
X717690Y82413D01*
X718548Y83901D01*
X718819Y84911D01*
X719090Y83901D01*
X719949Y82413D01*
X721163Y81199D01*
X722651Y80340D01*
X724310Y79895D01*
X726028D01*
X727687Y80340D01*
X729175Y81199D01*
X730389Y82413D01*
X731248Y83901D01*
X731519Y84911D01*
X731790Y83901D01*
X732648Y82413D01*
X733863Y81199D01*
X735351Y80340D01*
X737010Y79895D01*
X738728D01*
X740387Y80340D01*
X741875Y81199D01*
X743090Y82413D01*
X743948Y83901D01*
X744393Y85560D01*
Y87278D01*
X743948Y88937D01*
X743090Y90425D01*
X741875Y91640D01*
X740387Y92499D01*
X738728Y92943D01*
X737010D01*
X735351Y92499D01*
X733863Y91640D01*
X732648Y90425D01*
X731790Y88937D01*
X731519Y87927D01*
X731248Y88937D01*
X730389Y90425D01*
X729175Y91640D01*
X727687Y92499D01*
X726028Y92943D01*
X724310D01*
X722651Y92499D01*
X721163Y91640D01*
X719949Y90425D01*
X719090Y88937D01*
X718819Y87927D01*
X718548Y88937D01*
X717690Y90425D01*
X716475Y91640D01*
X714987Y92499D01*
X713328Y92943D01*
X711610D01*
X709951Y92499D01*
X708463Y91640D01*
X707249Y90425D01*
X706390Y88937D01*
X706119Y87927D01*
X705848Y88937D01*
X704989Y90425D01*
X703775Y91640D01*
X702287Y92499D01*
X700628Y92943D01*
X698910D01*
X697251Y92499D01*
X695763Y91640D01*
X694548Y90425D01*
X693690Y88937D01*
X693419Y87927D01*
X693148Y88937D01*
X692290Y90425D01*
X691075Y91640D01*
X689587Y92499D01*
X687928Y92943D01*
X686210D01*
X684551Y92499D01*
X683063Y91640D01*
X681849Y90425D01*
X680990Y88937D01*
X680719Y87927D01*
X680448Y88937D01*
X679589Y90425D01*
X678375Y91640D01*
X676887Y92499D01*
X675228Y92943D01*
X673510D01*
X671851Y92499D01*
X670363Y91640D01*
X669148Y90425D01*
X668290Y88937D01*
X668019Y87927D01*
X667748Y88937D01*
X666889Y90425D01*
X665675Y91640D01*
X664187Y92499D01*
X662528Y92943D01*
X660810D01*
X659151Y92499D01*
X657663Y91640D01*
X656449Y90425D01*
X655590Y88937D01*
X655319Y87927D01*
X655048Y88937D01*
X654190Y90425D01*
X652975Y91640D01*
X651487Y92499D01*
X649828Y92943D01*
X648110D01*
X646451Y92499D01*
X644963Y91640D01*
X643748Y90425D01*
X642890Y88937D01*
X642619Y87927D01*
X642348Y88937D01*
X641489Y90425D01*
X640275Y91640D01*
X638787Y92499D01*
X637128Y92943D01*
X635410D01*
X633751Y92499D01*
X632263Y91640D01*
X631049Y90425D01*
X630190Y88937D01*
X629919Y87927D01*
X629648Y88937D01*
X628789Y90425D01*
X627575Y91640D01*
X626087Y92499D01*
X624428Y92943D01*
X622710D01*
X621051Y92499D01*
X619563Y91640D01*
X618349Y90425D01*
X617490Y88937D01*
X617219Y87927D01*
X616948Y88937D01*
X616090Y90425D01*
X614875Y91640D01*
X613387Y92499D01*
X611728Y92943D01*
X610010D01*
X608351Y92499D01*
X606863Y91640D01*
X605648Y90425D01*
X605106Y89485D01*
X604202Y91049D01*
X602799Y92453D01*
X601079Y93445D01*
X600709Y93545D01*
D02*
G37*
G36*
X588009D02*
Y86419D01*
Y79294D01*
X588379Y79393D01*
X590099Y80386D01*
X591502Y81790D01*
X591819Y82338D01*
X592136Y81790D01*
X593539Y80386D01*
X595259Y79393D01*
X595629Y79294D01*
Y86419D01*
Y93545D01*
X595259Y93445D01*
X593539Y92453D01*
X592136Y91049D01*
X591819Y90501D01*
X591502Y91049D01*
X590099Y92453D01*
X588379Y93445D01*
X588009Y93545D01*
D02*
G37*
%LPD*%
D14*
X857746Y200438D02*
G03*
X867746Y190438I10000J0D01*
G01*
X917746Y190438D02*
G03*
X927746Y200438I0J10000D01*
G01*
X927746Y292438D02*
G03*
X917746Y302438I-10000J0D01*
G01*
X867746D02*
G03*
X857746Y292438I0J-10000D01*
G01*
X943030Y100544D02*
G03*
X934243Y79331I21213J-21213D01*
G01*
X34243D02*
G03*
X25456Y100544I-30000J0D01*
G01*
X867746Y190438D02*
X917746D01*
X927746Y200438D02*
X927746Y292438D01*
X867746Y302438D02*
X917746D01*
X857746Y200438D02*
Y292438D01*
X34243Y79331D02*
X34243Y55500D01*
X934243D01*
X934243Y79331D01*
X943030Y100544D02*
X967986Y125500D01*
Y675500D01*
X897986Y745500D02*
X967986Y675500D01*
X70500Y745500D02*
X897986D01*
X500Y675500D02*
X70500Y745500D01*
X500Y125500D02*
Y675500D01*
Y125500D02*
X25456Y100544D01*
X857746Y200438D02*
G03*
X867746Y190438I10000J0D01*
G01*
X917746Y190438D02*
G03*
X927746Y200438I0J10000D01*
G01*
X927746Y292438D02*
G03*
X917746Y302438I-10000J0D01*
G01*
X867746D02*
G03*
X857746Y292438I0J-10000D01*
G01*
X943030Y100544D02*
G03*
X934243Y79331I21213J-21213D01*
G01*
X34243D02*
G03*
X25456Y100544I-30000J0D01*
G01*
X867746Y190438D02*
X917746D01*
X927746Y200438D02*
X927746Y292438D01*
X867746Y302438D02*
X917746D01*
X857746Y200438D02*
Y292438D01*
X34243Y79331D02*
X34243Y55500D01*
X934243D01*
X934243Y79331D01*
X943030Y100544D02*
X967986Y125500D01*
Y675500D01*
X897986Y745500D02*
X967986Y675500D01*
X70500Y745500D02*
X897986D01*
X500Y675500D02*
X70500Y745500D01*
X500Y125500D02*
Y675500D01*
Y125500D02*
X25456Y100544D01*
D34*
X598169Y86419D02*
D03*
X585469D02*
D03*
D37*
X25900Y178930D02*
D03*
D41*
X398709Y563225D02*
D03*
X315483Y501935D02*
D03*
Y530967D02*
D03*
X286451Y514193D02*
D03*
X449031Y187742D02*
D03*
X664515Y189032D02*
D03*
X649031Y662579D02*
D03*
M02*
