G04*
G04 #@! TF.GenerationSoftware,Altium Limited,Altium Designer,22.7.1 (60)*
G04*
G04 Layer_Color=128*
%FSLAX44Y44*%
%MOMM*%
G71*
G04*
G04 #@! TF.SameCoordinates,F0A3B908-A9A0-482C-9906-E7527CCB9396*
G04*
G04*
G04 #@! TF.FilePolarity,Positive*
G04*
G01*
G75*
%ADD14C,0.0254*%
%ADD74C,0.0508*%
D14*
X857746Y200438D02*
G03*
X867746Y190438I10000J0D01*
G01*
X917746Y190438D02*
G03*
X927746Y200438I0J10000D01*
G01*
X927746Y292438D02*
G03*
X917746Y302438I-10000J0D01*
G01*
X867746D02*
G03*
X857746Y292438I0J-10000D01*
G01*
X943030Y100544D02*
G03*
X934243Y79331I21213J-21213D01*
G01*
X34243D02*
G03*
X25456Y100544I-30000J0D01*
G01*
X867746Y190438D02*
X917746D01*
X927746Y200438D02*
X927746Y292438D01*
X867746Y302438D02*
X917746D01*
X857746Y200438D02*
Y292438D01*
X34243Y79331D02*
X34243Y55500D01*
X934243D01*
X934243Y79331D01*
X943030Y100544D02*
X967986Y125500D01*
Y675500D01*
X897986Y745500D02*
X967986Y675500D01*
X70500Y745500D02*
X897986D01*
X500Y675500D02*
X70500Y745500D01*
X500Y125500D02*
Y675500D01*
Y125500D02*
X25456Y100544D01*
D74*
X396991Y622849D02*
X402491D01*
X399741Y620099D02*
Y625599D01*
X535991Y622849D02*
X541491D01*
X538741Y620099D02*
Y625599D01*
X790991Y622849D02*
X796491D01*
X793741Y620099D02*
Y625599D01*
X651991Y622849D02*
X657491D01*
X654741Y620099D02*
Y625599D01*
X436991Y262849D02*
X442491D01*
X439741Y260099D02*
Y265599D01*
X575991Y262849D02*
X581491D01*
X578741Y260099D02*
Y265599D01*
X790991Y262849D02*
X796491D01*
X793741Y260099D02*
Y265599D01*
X651991Y262849D02*
X657491D01*
X654741Y260099D02*
Y265599D01*
X85500Y705500D02*
X115500D01*
X100500Y690500D02*
Y720500D01*
X852986Y705500D02*
X882986D01*
X867986Y690500D02*
Y720500D01*
X52958Y245170D02*
X61340D01*
X57149Y240979D02*
Y249361D01*
X78358Y219770D02*
X86740D01*
X82549Y215579D02*
Y223961D01*
X103758Y245170D02*
X112140D01*
X107949Y240979D02*
Y249361D01*
X54229Y567750D02*
X62611D01*
X58420Y563559D02*
Y571941D01*
X79629Y542350D02*
X88011D01*
X83820Y538159D02*
Y546541D01*
X105029Y567750D02*
X113411D01*
X109220Y563559D02*
Y571941D01*
X52959Y407730D02*
X61341D01*
X57150Y403539D02*
Y411921D01*
X78358Y382330D02*
X86741D01*
X82549Y378139D02*
Y386521D01*
X103759Y407730D02*
X112141D01*
X107950Y403539D02*
Y411921D01*
X432609Y86420D02*
X438609D01*
X435609Y83420D02*
Y89420D01*
X419909Y86420D02*
X425909D01*
X422909Y83420D02*
Y89420D01*
X407209Y86420D02*
X413209D01*
X410209Y83420D02*
Y89420D01*
X394509Y86420D02*
X400509D01*
X397509Y83420D02*
Y89420D01*
X381809Y86420D02*
X387809D01*
X384809Y83420D02*
Y89420D01*
X369109Y86420D02*
X375109D01*
X372109Y83420D02*
Y89420D01*
X356409Y86420D02*
X362409D01*
X359409Y83420D02*
Y89420D01*
X343709Y86420D02*
X349709D01*
X346709Y83420D02*
Y89420D01*
X331009Y86420D02*
X337009D01*
X334009Y83420D02*
Y89420D01*
X318309Y86420D02*
X324309D01*
X321309Y83420D02*
Y89420D01*
X305609Y86420D02*
X311609D01*
X308609Y83420D02*
Y89420D01*
X292909Y86420D02*
X298909D01*
X295909Y83420D02*
Y89420D01*
X280209Y86420D02*
X286209D01*
X283209Y83420D02*
Y89420D01*
X267509Y86420D02*
X273509D01*
X270509Y83420D02*
Y89420D01*
X254809Y86420D02*
X260809D01*
X257809Y83420D02*
Y89420D01*
X242109Y86420D02*
X248109D01*
X245109Y83420D02*
Y89420D01*
X229409Y86420D02*
X235409D01*
X232409Y83420D02*
Y89420D01*
X216709Y86420D02*
X222709D01*
X219709Y83420D02*
Y89420D01*
X204009Y86420D02*
X210009D01*
X207009Y83420D02*
Y89420D01*
X191309Y86420D02*
X197309D01*
X194309Y83420D02*
Y89420D01*
X734869Y86419D02*
X740869D01*
X737869Y83419D02*
Y89419D01*
X722169Y86419D02*
X728169D01*
X725169Y83419D02*
Y89419D01*
X709469Y86419D02*
X715469D01*
X712469Y83419D02*
Y89419D01*
X696769Y86419D02*
X702769D01*
X699769Y83419D02*
Y89419D01*
X684069Y86419D02*
X690069D01*
X687069Y83419D02*
Y89419D01*
X671369Y86419D02*
X677369D01*
X674369Y83419D02*
Y89419D01*
X658669Y86419D02*
X664669D01*
X661669Y83419D02*
Y89419D01*
X645969Y86419D02*
X651969D01*
X648969Y83419D02*
Y89419D01*
X633269Y86419D02*
X639269D01*
X636269Y83419D02*
Y89419D01*
X620569Y86419D02*
X626569D01*
X623569Y83419D02*
Y89419D01*
X607869Y86419D02*
X613869D01*
X610869Y83419D02*
Y89419D01*
X595169Y86419D02*
X601169D01*
X598169Y83419D02*
Y89419D01*
X582469Y86419D02*
X588469D01*
X585469Y83419D02*
Y89419D01*
X569769Y86419D02*
X575769D01*
X572769Y83419D02*
Y89419D01*
X557069Y86419D02*
X563069D01*
X560069Y83419D02*
Y89419D01*
X544369Y86419D02*
X550369D01*
X547369Y83419D02*
Y89419D01*
X531669Y86419D02*
X537669D01*
X534669Y83419D02*
Y89419D01*
X518969Y86419D02*
X524969D01*
X521969Y83419D02*
Y89419D01*
X506269Y86419D02*
X512269D01*
X509269Y83419D02*
Y89419D01*
X493569Y86419D02*
X499569D01*
X496569Y83419D02*
Y89419D01*
X86500Y130951D02*
X93500D01*
X90000Y127451D02*
Y134451D01*
X106500Y130951D02*
X113500D01*
X110000Y127451D02*
Y134451D01*
X875853Y132258D02*
X882853D01*
X879353Y128758D02*
Y135758D01*
X855853Y132258D02*
X862853D01*
X859353Y128758D02*
Y135758D01*
X208210Y700960D02*
X212210D01*
X210210Y698960D02*
Y702960D01*
X216710Y700960D02*
X220710D01*
X218710Y698960D02*
Y702960D01*
X225210Y700960D02*
X229210D01*
X227210Y698960D02*
Y702960D01*
X233710Y700960D02*
X237710D01*
X235710Y698960D02*
Y702960D01*
X242210Y700960D02*
X246210D01*
X244210Y698960D02*
Y702960D01*
X250710Y700960D02*
X254710D01*
X252710Y698960D02*
Y702960D01*
X259210Y700960D02*
X263210D01*
X261210Y698960D02*
Y702960D01*
X267710Y700960D02*
X271710D01*
X269710Y698960D02*
Y702960D01*
X267710Y687460D02*
X271710D01*
X269710Y685460D02*
Y689460D01*
X259210Y687460D02*
X263210D01*
X261210Y685460D02*
Y689460D01*
X250710Y687460D02*
X254710D01*
X252710Y685460D02*
Y689460D01*
X242210Y687460D02*
X246210D01*
X244210Y685460D02*
Y689460D01*
X233710Y687460D02*
X237710D01*
X235710Y685460D02*
Y689460D01*
X225210Y687460D02*
X229210D01*
X227210Y685460D02*
Y689460D01*
X216710Y687460D02*
X220710D01*
X218710Y685460D02*
Y689460D01*
X208210Y687460D02*
X212210D01*
X210210Y685460D02*
Y689460D01*
X272710Y697260D02*
X293710D01*
X283210Y686760D02*
Y707760D01*
X186210Y697260D02*
X207210D01*
X196710Y686760D02*
Y707760D01*
X276210Y731060D02*
X290210D01*
X283210Y724060D02*
Y738060D01*
X189710Y731060D02*
X203710D01*
X196710Y724060D02*
Y738060D01*
X21400Y636130D02*
X30400D01*
X25900Y631630D02*
Y640630D01*
X21400Y610730D02*
X30400D01*
X25900Y606230D02*
Y615230D01*
X21400Y585330D02*
X30400D01*
X25900Y580830D02*
Y589830D01*
X21400Y559930D02*
X30400D01*
X25900Y555430D02*
Y564430D01*
X21400Y534530D02*
X30400D01*
X25900Y530030D02*
Y539030D01*
X21400Y509130D02*
X30400D01*
X25900Y504630D02*
Y513630D01*
X21400Y483730D02*
X30400D01*
X25900Y479230D02*
Y488230D01*
X21400Y458330D02*
X30400D01*
X25900Y453830D02*
Y462830D01*
X21400Y432930D02*
X30400D01*
X25900Y428430D02*
Y437430D01*
X21400Y407530D02*
X30400D01*
X25900Y403030D02*
Y412030D01*
X21400Y382130D02*
X30400D01*
X25900Y377630D02*
Y386630D01*
X21400Y356730D02*
X30400D01*
X25900Y352230D02*
Y361230D01*
X21400Y331330D02*
X30400D01*
X25900Y326830D02*
Y335830D01*
X21400Y305930D02*
X30400D01*
X25900Y301430D02*
Y310430D01*
X21400Y280530D02*
X30400D01*
X25900Y276030D02*
Y285030D01*
X21400Y255130D02*
X30400D01*
X25900Y250630D02*
Y259630D01*
X21400Y229730D02*
X30400D01*
X25900Y225230D02*
Y234230D01*
X21400Y204330D02*
X30400D01*
X25900Y199830D02*
Y208830D01*
X21400Y178930D02*
X30400D01*
X25900Y174430D02*
Y183430D01*
X21400Y153530D02*
X30400D01*
X25900Y149030D02*
Y158030D01*
X938086Y153530D02*
X947086D01*
X942586Y149030D02*
Y158030D01*
X938086Y636130D02*
X947086D01*
X942586Y631630D02*
Y640630D01*
X246706Y632902D02*
X255706D01*
X251206Y628402D02*
Y637402D01*
X221306Y632902D02*
X230306D01*
X225806Y628402D02*
Y637402D01*
X395153Y563225D02*
X402265D01*
X398709Y559669D02*
Y566781D01*
X199546Y423225D02*
X203356D01*
X201451Y421320D02*
Y425130D01*
X240836Y380644D02*
X244646D01*
X242741Y378739D02*
Y382549D01*
X212288Y431612D02*
X216098D01*
X214193Y429707D02*
Y433517D01*
X311927Y501935D02*
X319039D01*
X315483Y498378D02*
Y505490D01*
X311927Y530967D02*
X319039D01*
X315483Y527411D02*
Y534523D01*
X282895Y514193D02*
X290007D01*
X286451Y510636D02*
Y517748D01*
X445475Y187742D02*
X452587D01*
X449031Y184186D02*
Y191298D01*
X660959Y189032D02*
X668071D01*
X664515Y185476D02*
Y192588D01*
X645475Y662579D02*
X652587D01*
X649031Y659023D02*
Y666135D01*
X208417Y478709D02*
X212227D01*
X210322Y476804D02*
Y480614D01*
X141320Y345806D02*
X145131D01*
X143225Y343901D02*
Y347711D01*
X162611Y365161D02*
X166421D01*
X164516Y363256D02*
Y367066D01*
X167127Y261290D02*
X170937D01*
X169032Y259385D02*
Y263195D01*
X422610Y610321D02*
X426420D01*
X424515Y608416D02*
Y612226D01*
X505836Y610966D02*
X509646D01*
X507741Y609062D02*
Y612872D01*
X507126Y249677D02*
X510936D01*
X509031Y247772D02*
Y251582D01*
X765835Y249677D02*
X769645D01*
X767740Y247772D02*
Y251582D01*
X249707Y321935D02*
X253517D01*
X251612Y320030D02*
Y323840D01*
X383901Y634192D02*
X387711D01*
X385806Y632287D02*
Y636097D01*
X195386Y341000D02*
X199196D01*
X197291Y339095D02*
Y342905D01*
X676803Y249677D02*
X680613D01*
X678708Y247772D02*
Y251582D01*
X686963Y521289D02*
X690773D01*
X688868Y519384D02*
Y523194D01*
X718094Y549676D02*
X721904D01*
X719999Y547771D02*
Y551581D01*
X672287Y558709D02*
X676097D01*
X674192Y556804D02*
Y560614D01*
X444546Y419354D02*
X448356D01*
X446451Y417449D02*
Y421259D01*
X443901Y407741D02*
X447711D01*
X445806Y405836D02*
Y409646D01*
X427772Y390967D02*
X431582D01*
X429677Y389062D02*
Y392872D01*
X692932Y501289D02*
X696742D01*
X694837Y499384D02*
Y503194D01*
X410352Y411612D02*
X414162D01*
X412257Y409707D02*
Y413517D01*
X544546Y250322D02*
X548355D01*
X546451Y248417D02*
Y252227D01*
X729706Y511612D02*
X733516D01*
X731611Y509707D02*
Y513517D01*
X721964Y250322D02*
X725775D01*
X723869Y248417D02*
Y252227D01*
X491076Y523954D02*
X494886D01*
X492981Y522049D02*
Y525859D01*
X724545Y530322D02*
X728355D01*
X726450Y528416D02*
Y532226D01*
X224922Y280430D02*
X228732D01*
X226827Y278525D02*
Y282335D01*
X680674Y541934D02*
X684484D01*
X682579Y540029D02*
Y543839D01*
X712287Y565805D02*
X716097D01*
X714192Y563900D02*
Y567710D01*
X481320Y652902D02*
X485130D01*
X483225Y650997D02*
Y654807D01*
X492288Y659999D02*
X496098D01*
X494193Y658094D02*
Y661904D01*
X500675Y666450D02*
X504485D01*
X502580Y664545D02*
Y668355D01*
X507771Y673547D02*
X511581D01*
X509676Y671642D02*
Y675452D01*
X178125Y563225D02*
X185745D01*
X181935Y559415D02*
Y567035D01*
X465836Y610321D02*
X469646D01*
X467741Y608416D02*
Y612226D01*
X223417Y326451D02*
X227227D01*
X225322Y324546D02*
Y328356D01*
X175514Y283225D02*
X179324D01*
X177419Y281320D02*
Y285130D01*
X207772Y510967D02*
X211582D01*
X209677Y509062D02*
Y512872D01*
X208578Y461935D02*
X212388D01*
X210483Y460030D02*
Y463840D01*
X208578Y494838D02*
X212388D01*
X210483Y492933D02*
Y496743D01*
X212449Y444515D02*
X216259D01*
X214354Y442610D02*
Y446420D01*
X238256Y426451D02*
X242066D01*
X240161Y424546D02*
Y428356D01*
X262127Y418709D02*
X265937D01*
X264032Y416804D02*
Y420614D01*
X278901Y421935D02*
X282711D01*
X280806Y420030D02*
Y423840D01*
X722610Y610321D02*
X726420D01*
X724515Y608416D02*
Y612226D01*
X766481Y610321D02*
X770291D01*
X768386Y608416D02*
Y612226D01*
X539384Y650321D02*
X543194D01*
X541289Y648416D02*
Y652226D01*
X677449Y610321D02*
X681258D01*
X679353Y608416D02*
Y612226D01*
X314223Y717418D02*
X318033D01*
X316128Y715513D02*
Y719323D01*
M02*
