G04*
G04 #@! TF.GenerationSoftware,Altium Limited,Altium Designer,24.1.2 (44)*
G04*
G04 Layer_Physical_Order=4*
G04 Layer_Color=16711680*
%FSLAX44Y44*%
%MOMM*%
G71*
G04*
G04 #@! TF.SameCoordinates,8F2A281D-5683-44EC-B143-A45D5901FF86*
G04*
G04*
G04 #@! TF.FilePolarity,Positive*
G04*
G01*
G75*
%ADD12C,0.2540*%
%ADD16C,0.6500*%
G04:AMPARAMS|DCode=17|XSize=0.9mm|YSize=2.4mm|CornerRadius=0.45mm|HoleSize=0mm|Usage=FLASHONLY|Rotation=0.000|XOffset=0mm|YOffset=0mm|HoleType=Round|Shape=RoundedRectangle|*
%AMROUNDEDRECTD17*
21,1,0.9000,1.5000,0,0,0.0*
21,1,0.0000,2.4000,0,0,0.0*
1,1,0.9000,0.0000,-0.7500*
1,1,0.9000,0.0000,-0.7500*
1,1,0.9000,0.0000,0.7500*
1,1,0.9000,0.0000,0.7500*
%
%ADD17ROUNDEDRECTD17*%
G04:AMPARAMS|DCode=18|XSize=0.9mm|YSize=1.7mm|CornerRadius=0.45mm|HoleSize=0mm|Usage=FLASHONLY|Rotation=0.000|XOffset=0mm|YOffset=0mm|HoleType=Round|Shape=RoundedRectangle|*
%AMROUNDEDRECTD18*
21,1,0.9000,0.8000,0,0,0.0*
21,1,0.0000,1.7000,0,0,0.0*
1,1,0.9000,0.0000,-0.4000*
1,1,0.9000,0.0000,-0.4000*
1,1,0.9000,0.0000,0.4000*
1,1,0.9000,0.0000,0.4000*
%
%ADD18ROUNDEDRECTD18*%
%ADD27C,0.3048*%
%ADD28C,0.5842*%
%ADD29C,1.0160*%
%ADD30C,1.5240*%
%ADD31C,1.0200*%
%ADD32C,0.7000*%
%ADD33R,1.5000X1.5000*%
%ADD34C,1.5000*%
%ADD35C,3.0000*%
%ADD36C,1.2000*%
%ADD37R,1.2000X1.2000*%
%ADD38R,1.5000X1.5000*%
%ADD39C,0.6350*%
%ADD40C,1.2700*%
%ADD41R,1.9050X1.0200*%
%ADD42R,1.0000X0.6000*%
%ADD43R,0.9525X0.6096*%
%ADD44R,0.2500X2.0000*%
%ADD45R,0.7400X1.6000*%
%ADD46R,0.6500X1.0500*%
%ADD47R,0.9800X3.4000*%
%ADD48R,0.9500X0.8500*%
%ADD49R,0.9000X1.0000*%
%ADD50R,1.3500X1.1500*%
%ADD51R,1.0000X0.9000*%
%ADD52R,0.8500X0.9500*%
%ADD53R,2.0300X3.8000*%
%ADD54R,3.8000X2.0300*%
%ADD55C,1.2700*%
%ADD56C,0.5588*%
%ADD57C,0.7620*%
%ADD58C,0.5080*%
G36*
X1052526Y895168D02*
X1052526D01*
X1053226Y893898D01*
X1052726Y892691D01*
Y890692D01*
X1053491Y888846D01*
X1054904Y887433D01*
X1056751Y886668D01*
X1058749D01*
X1060596Y887433D01*
X1062009Y888846D01*
X1062774Y890692D01*
Y891397D01*
X1064044Y891923D01*
X1093786Y862181D01*
X1093260Y860911D01*
X1039340D01*
X1038955Y862181D01*
X1039432Y862500D01*
X1044634Y867703D01*
X1044634Y867703D01*
X1045252Y868627D01*
X1045359Y869168D01*
X1050274D01*
Y888216D01*
X1050274D01*
X1049574Y889486D01*
X1050074Y890692D01*
Y892691D01*
X1049309Y894538D01*
X1047896Y895951D01*
X1046049Y896716D01*
X1044051D01*
X1042204Y895951D01*
X1040791Y894538D01*
X1040026Y892691D01*
Y890692D01*
X1040526Y889486D01*
X1039826Y888216D01*
X1039826D01*
Y875393D01*
X1039771Y875118D01*
X1039771Y875117D01*
Y870897D01*
X1036237Y867363D01*
X1010869D01*
X1009778Y867146D01*
X1008854Y866529D01*
X1008854Y866529D01*
X1007366Y865041D01*
X1006749Y864117D01*
X1006532Y863027D01*
X1006532Y863026D01*
Y839066D01*
X1005320Y838800D01*
X1005262Y838799D01*
X1003950Y840111D01*
X1002223Y840826D01*
X1000618D01*
X990605Y850840D01*
Y869168D01*
X999474D01*
Y874120D01*
X1000744Y874626D01*
X1002273Y873993D01*
X1004142D01*
X1005869Y874708D01*
X1007191Y876030D01*
X1007907Y877757D01*
Y879626D01*
X1007191Y881354D01*
X1005869Y882675D01*
X1004142Y883391D01*
X1002273D01*
X1000744Y882757D01*
X999474Y883263D01*
Y888216D01*
X999474D01*
X998774Y889486D01*
X999274Y890692D01*
Y892691D01*
X998509Y894538D01*
X997096Y895951D01*
X995249Y896716D01*
X993251D01*
X991404Y895951D01*
X989903Y896246D01*
X989858Y896313D01*
X989858Y896313D01*
X986774Y899398D01*
Y914192D01*
X1001726D01*
Y895168D01*
X1001726D01*
X1002426Y893898D01*
X1001926Y892691D01*
Y890692D01*
X1002691Y888846D01*
X1004104Y887433D01*
X1005951Y886668D01*
X1007949D01*
X1009796Y887433D01*
X1011209Y888846D01*
X1011974Y890692D01*
Y892691D01*
X1011474Y893898D01*
X1012174Y895168D01*
X1012174D01*
Y900163D01*
X1013444Y900643D01*
X1015015Y899993D01*
X1016884D01*
X1018611Y900708D01*
X1019933Y902030D01*
X1020649Y903757D01*
Y905626D01*
X1019933Y907354D01*
X1018611Y908675D01*
X1016884Y909391D01*
X1015015D01*
X1013444Y908740D01*
X1012174Y909221D01*
Y914192D01*
X1027126D01*
Y895168D01*
X1027126D01*
X1027826Y893898D01*
X1027326Y892691D01*
Y890692D01*
X1028091Y888846D01*
X1029504Y887433D01*
X1031351Y886668D01*
X1033349D01*
X1035196Y887433D01*
X1036609Y888846D01*
X1037374Y890692D01*
Y892691D01*
X1036874Y893898D01*
X1037574Y895168D01*
X1037574D01*
Y902311D01*
X1040717D01*
X1041852Y901176D01*
X1043579Y900461D01*
X1045449D01*
X1047176Y901176D01*
X1048498Y902498D01*
X1049213Y904225D01*
Y906094D01*
X1048498Y907821D01*
X1047176Y909143D01*
X1045449Y909858D01*
X1043579D01*
X1041852Y909143D01*
X1040717Y908008D01*
X1037574D01*
Y914192D01*
X1052526D01*
Y895168D01*
D02*
G37*
G36*
X976326D02*
X976326D01*
X977026Y893898D01*
X976526Y892691D01*
Y890692D01*
X977291Y888846D01*
X978704Y887433D01*
X980551Y886668D01*
X982549D01*
X983637Y887118D01*
X984907Y886285D01*
Y849660D01*
X984907Y849660D01*
X985124Y848569D01*
X985742Y847645D01*
X996589Y836798D01*
Y835193D01*
X997305Y833466D01*
X998627Y832144D01*
X1000354Y831428D01*
X1002223D01*
X1003950Y832144D01*
X1005262Y833456D01*
X1005320Y833455D01*
X1006532Y833189D01*
Y831647D01*
X1006532Y831647D01*
X1006672Y830943D01*
X1006267Y829965D01*
Y828096D01*
X1006982Y826369D01*
X1008304Y825047D01*
X1010031Y824332D01*
X1011900D01*
X1013627Y825047D01*
X1014949Y826369D01*
X1015665Y828096D01*
Y829965D01*
X1014949Y831692D01*
X1013627Y833014D01*
X1012229Y833593D01*
Y861666D01*
X1024328D01*
X1024910Y860396D01*
X1024331Y858997D01*
Y857128D01*
X1025047Y855401D01*
X1026368Y854079D01*
X1027676Y853538D01*
X1028141Y852602D01*
X1028171Y852094D01*
X1027557Y850610D01*
Y848741D01*
X1027737Y848306D01*
X1026743Y847387D01*
X1025449Y847923D01*
X1023579D01*
X1021852Y847208D01*
X1020530Y845886D01*
X1019815Y844159D01*
Y842289D01*
X1020530Y840562D01*
X1021852Y839240D01*
X1023579Y838525D01*
X1025449D01*
X1027176Y839240D01*
X1028311Y840375D01*
X1096748D01*
X1125988Y811135D01*
Y793591D01*
X1124718Y792742D01*
X1124268Y792929D01*
X1122567D01*
X1120996Y792278D01*
X1119794Y791076D01*
X1119143Y789505D01*
Y787805D01*
X1119794Y786234D01*
X1120996Y785032D01*
X1122567Y784381D01*
X1124268D01*
X1124718Y784568D01*
X1125988Y783719D01*
Y626184D01*
X1124718Y625341D01*
X1123765Y625736D01*
X1121896D01*
X1120169Y625021D01*
X1118847Y623699D01*
X1118131Y621972D01*
Y620102D01*
X1118847Y618375D01*
X1120169Y617053D01*
X1121896Y616338D01*
X1123765D01*
X1124269Y616547D01*
X1124989Y615470D01*
X1090944Y581425D01*
X957279D01*
X957279Y581425D01*
X957279Y581425D01*
X956181D01*
X956065Y581621D01*
X955791Y582695D01*
X956885Y583789D01*
X957600Y585516D01*
Y587385D01*
X956885Y589112D01*
X955750Y590247D01*
Y662273D01*
X957020Y662783D01*
X957981Y661822D01*
X959708Y661106D01*
X961578D01*
X963305Y661822D01*
X964266Y662783D01*
X965536Y662273D01*
Y628312D01*
X964402Y627177D01*
X963686Y625450D01*
Y623580D01*
X964402Y621853D01*
X965723Y620531D01*
X967450Y619816D01*
X969320D01*
X971047Y620531D01*
X972369Y621853D01*
X973084Y623580D01*
Y625450D01*
X972369Y627177D01*
X971234Y628312D01*
Y776198D01*
X995758D01*
X995758Y776198D01*
X996848Y776415D01*
X997772Y777033D01*
X1005912Y785172D01*
X1005912Y785172D01*
X1006208Y785615D01*
X1006377D01*
Y785868D01*
X1006530Y786096D01*
X1006636Y786630D01*
X1006692D01*
Y786911D01*
X1006747Y787186D01*
Y798055D01*
X1006767Y798155D01*
X1006692Y798531D01*
Y809680D01*
X1006377D01*
Y810695D01*
X1005127D01*
Y809679D01*
X994173D01*
X993897Y809734D01*
X972215D01*
X972215Y809734D01*
X971124Y809517D01*
X970200Y808899D01*
X970200Y808899D01*
X968797Y807496D01*
X968704Y807589D01*
X966908Y808626D01*
X964906Y809163D01*
X962832D01*
X960830Y808626D01*
X959034Y807589D01*
X957568Y806124D01*
X957020Y805174D01*
X955750Y805514D01*
Y812367D01*
X970864Y827481D01*
X970864Y827481D01*
X971482Y828405D01*
X971699Y829495D01*
Y869168D01*
X974074D01*
Y888216D01*
X974074D01*
X973374Y889486D01*
X973874Y890692D01*
Y892691D01*
X973109Y894538D01*
X971696Y895951D01*
X969849Y896716D01*
X967851D01*
X966004Y895951D01*
X964503Y896246D01*
X964458Y896313D01*
X964458Y896313D01*
X961374Y899398D01*
Y914192D01*
X976326D01*
Y895168D01*
D02*
G37*
G36*
X950926D02*
X950926D01*
X951626Y893898D01*
X951126Y892691D01*
Y890692D01*
X951891Y888846D01*
X953304Y887433D01*
X955151Y886668D01*
X955487D01*
X955973Y885494D01*
X949847Y879369D01*
X948674Y879855D01*
Y888216D01*
X948674D01*
X947974Y889486D01*
X948474Y890692D01*
Y892691D01*
X947709Y894538D01*
X946296Y895951D01*
X944449Y896716D01*
X942451D01*
X940604Y895951D01*
X939103Y896246D01*
X939059Y896313D01*
X939058Y896313D01*
X935974Y899398D01*
Y914192D01*
X950926D01*
Y895168D01*
D02*
G37*
G36*
X925526D02*
X925526D01*
X926226Y893898D01*
X925726Y892691D01*
Y890692D01*
X926491Y888846D01*
X927904Y887433D01*
X929751Y886668D01*
X931397D01*
X931842Y886562D01*
X932633Y885659D01*
Y846376D01*
X931498Y845241D01*
X930783Y843514D01*
Y841644D01*
X931498Y839917D01*
X932820Y838595D01*
X934547Y837880D01*
X936417D01*
X938144Y838595D01*
X939331Y839783D01*
X939961Y839689D01*
X940601Y839394D01*
Y816770D01*
X938629Y814798D01*
X938011Y813874D01*
X937794Y812783D01*
X937794Y812783D01*
Y782736D01*
X936525Y782350D01*
X936206Y782827D01*
X920899Y798134D01*
Y869168D01*
X923274D01*
Y888216D01*
X923274D01*
X922574Y889486D01*
X923074Y890692D01*
Y892691D01*
X922309Y894538D01*
X920896Y895951D01*
X919049Y896716D01*
X917051D01*
X915204Y895951D01*
X913703Y896246D01*
X913659Y896313D01*
X913658Y896313D01*
X910574Y899398D01*
Y914192D01*
X925526D01*
Y895168D01*
D02*
G37*
G36*
X496450Y1555063D02*
X498912D01*
X503742Y1554103D01*
X508292Y1552218D01*
X512387Y1549482D01*
X515869Y1546000D01*
X518605Y1541905D01*
X520489Y1537356D01*
X521450Y1532526D01*
Y1530063D01*
Y1510063D01*
Y1507601D01*
X520489Y1502771D01*
X518605Y1498221D01*
X515869Y1494127D01*
X512387Y1490645D01*
X508292Y1487909D01*
X503742Y1486024D01*
X498912Y1485063D01*
X431450D01*
X429000Y1484943D01*
X424193Y1483987D01*
X419665Y1482111D01*
X415590Y1479389D01*
X412125Y1475923D01*
X409402Y1471848D01*
X407527Y1467320D01*
X406571Y1462514D01*
X406450Y1460063D01*
Y939192D01*
X406571Y936741D01*
X407527Y931935D01*
X409402Y927407D01*
X412125Y923332D01*
X415590Y919866D01*
X419665Y917144D01*
X424193Y915268D01*
X429000Y914312D01*
X431450Y914192D01*
X482626D01*
Y895168D01*
X482626D01*
X483326Y893898D01*
X482826Y892691D01*
Y890692D01*
X483591Y888846D01*
X485004Y887433D01*
X486851Y886668D01*
X488849D01*
X490696Y887433D01*
X492109Y888846D01*
X492874Y890692D01*
Y892691D01*
X492374Y893898D01*
X493074Y895168D01*
X493074D01*
Y899909D01*
X494344Y900434D01*
X495839Y899815D01*
X497708D01*
X499435Y900531D01*
X500757Y901853D01*
X501472Y903580D01*
Y905449D01*
X500757Y907176D01*
X499435Y908498D01*
X497708Y909213D01*
X495839D01*
X494344Y908594D01*
X493074Y909120D01*
Y914192D01*
X508026D01*
Y895168D01*
X508026D01*
X508726Y893898D01*
X508226Y892691D01*
Y890692D01*
X508991Y888846D01*
X510404Y887433D01*
X512251Y886668D01*
X514249D01*
X516096Y887433D01*
X517509Y888846D01*
X518274Y890692D01*
Y892691D01*
X517774Y893898D01*
X518474Y895168D01*
X518474D01*
Y900315D01*
X519744Y900981D01*
X521000Y900461D01*
X522869D01*
X524596Y901176D01*
X525918Y902498D01*
X526633Y904225D01*
Y906094D01*
X525918Y907821D01*
X524596Y909143D01*
X522869Y909858D01*
X521000D01*
X519744Y909338D01*
X518474Y910004D01*
Y914192D01*
X533426D01*
Y895168D01*
X533426D01*
X534126Y893898D01*
X533626Y892691D01*
Y890692D01*
X534391Y888846D01*
X535804Y887433D01*
X537651Y886668D01*
X539649D01*
X541496Y887433D01*
X542909Y888846D01*
X543674Y890692D01*
Y892691D01*
X543174Y893898D01*
X543874Y895168D01*
X543874D01*
Y900076D01*
X545144Y900882D01*
X546161Y900461D01*
X548030D01*
X549757Y901176D01*
X551079Y902498D01*
X551795Y904225D01*
Y906094D01*
X551079Y907821D01*
X549757Y909143D01*
X548030Y909858D01*
X546161D01*
X545144Y909437D01*
X543874Y910243D01*
Y914192D01*
X557810D01*
Y907232D01*
X564050D01*
Y902152D01*
X557810D01*
Y894152D01*
X558488D01*
X559194Y893096D01*
X559026Y892691D01*
Y890692D01*
X559791Y888846D01*
X561204Y887433D01*
X563051Y886668D01*
X565049D01*
X566896Y887433D01*
X568309Y888846D01*
X569074Y890692D01*
Y892691D01*
X568906Y893096D01*
X569612Y894152D01*
X570290D01*
Y898913D01*
X570362Y898961D01*
Y905160D01*
Y911358D01*
X570290Y911406D01*
Y914192D01*
X584226D01*
Y895168D01*
X584226D01*
X584926Y893898D01*
X584426Y892691D01*
Y890692D01*
X585191Y888846D01*
X586604Y887433D01*
X588451Y886668D01*
X590449D01*
X592296Y887433D01*
X593709Y888846D01*
X594474Y890692D01*
Y892691D01*
X593974Y893898D01*
X594674Y895168D01*
X594674D01*
Y901666D01*
X598783D01*
X599918Y900531D01*
X601645Y899815D01*
X603514D01*
X605241Y900531D01*
X606563Y901853D01*
X607278Y903580D01*
Y905449D01*
X606563Y907176D01*
X605241Y908498D01*
X603514Y909213D01*
X601645D01*
X599918Y908498D01*
X598783Y907363D01*
X594674D01*
Y914192D01*
X609626D01*
Y895168D01*
X609626D01*
X610326Y893898D01*
X609826Y892691D01*
Y890692D01*
X610591Y888846D01*
X612004Y887433D01*
X613851Y886668D01*
X615849D01*
X617696Y887433D01*
X619109Y888846D01*
X619874Y890692D01*
Y892691D01*
X619374Y893898D01*
X620074Y895168D01*
X620074D01*
Y901020D01*
X621363D01*
X622498Y899886D01*
X624225Y899170D01*
X626095D01*
X627822Y899886D01*
X629144Y901207D01*
X629859Y902934D01*
Y904804D01*
X629144Y906531D01*
X627822Y907853D01*
X626095Y908568D01*
X624225D01*
X622498Y907853D01*
X621363Y906718D01*
X620074D01*
Y914192D01*
X635026D01*
Y895168D01*
X635026D01*
X635726Y893898D01*
X635226Y892691D01*
Y890692D01*
X635991Y888846D01*
X637404Y887433D01*
X639251Y886668D01*
X641249D01*
X643096Y887433D01*
X644509Y888846D01*
X645274Y890692D01*
Y892691D01*
X644774Y893898D01*
X645474Y895168D01*
X645474D01*
Y901843D01*
X646992D01*
X648127Y900708D01*
X649854Y899993D01*
X651724D01*
X653451Y900708D01*
X654773Y902030D01*
X655488Y903757D01*
Y905626D01*
X654773Y907354D01*
X653451Y908675D01*
X651724Y909391D01*
X649854D01*
X648127Y908675D01*
X646992Y907541D01*
X645474D01*
Y914192D01*
X660426D01*
Y895168D01*
X660426D01*
X661126Y893898D01*
X660626Y892691D01*
Y890692D01*
X661391Y888846D01*
X662804Y887433D01*
X664651Y886668D01*
X666649D01*
X668496Y887433D01*
X669909Y888846D01*
X670674Y890692D01*
Y892691D01*
X670174Y893898D01*
X670874Y895168D01*
X670874D01*
Y899161D01*
X672144Y900009D01*
X672612Y899815D01*
X674482D01*
X676209Y900531D01*
X677531Y901853D01*
X678246Y903580D01*
Y905449D01*
X677531Y907176D01*
X676209Y908498D01*
X674482Y909213D01*
X672612D01*
X672144Y909019D01*
X670874Y909868D01*
Y914192D01*
X685826D01*
Y895168D01*
X685826D01*
X686526Y893898D01*
X686026Y892691D01*
Y890692D01*
X686791Y888846D01*
X688204Y887433D01*
X690051Y886668D01*
X692049D01*
X693896Y887433D01*
X695309Y888846D01*
X696074Y890692D01*
Y892691D01*
X695574Y893898D01*
X696274Y895168D01*
X696274D01*
Y900443D01*
X697544Y900969D01*
X697982Y900531D01*
X699709Y899815D01*
X701579D01*
X703306Y900531D01*
X704627Y901853D01*
X705343Y903580D01*
Y905449D01*
X704627Y907176D01*
X703306Y908498D01*
X701579Y909213D01*
X699709D01*
X697982Y908498D01*
X697544Y908060D01*
X696274Y908586D01*
Y914192D01*
X711226D01*
Y895168D01*
X711226D01*
X711926Y893898D01*
X711426Y892691D01*
Y890692D01*
X712191Y888846D01*
X713604Y887433D01*
X715451Y886668D01*
X717449D01*
X719296Y887433D01*
X720709Y888846D01*
X721474Y890692D01*
Y892691D01*
X720974Y893898D01*
X721674Y895168D01*
X721674D01*
Y901666D01*
X725879D01*
X727014Y900531D01*
X728741Y899815D01*
X730611D01*
X732338Y900531D01*
X733660Y901853D01*
X734375Y903580D01*
Y905449D01*
X733660Y907176D01*
X732338Y908498D01*
X730611Y909213D01*
X728741D01*
X727014Y908498D01*
X725879Y907363D01*
X721674D01*
Y914192D01*
X823926D01*
Y895168D01*
X823926D01*
X824626Y893898D01*
X824126Y892691D01*
Y890692D01*
X824891Y888846D01*
X826304Y887433D01*
X828151Y886668D01*
X830149D01*
X831996Y887433D01*
X833409Y888846D01*
X834174Y890692D01*
Y892691D01*
X833674Y893898D01*
X834374Y895168D01*
X834374D01*
Y914192D01*
X849326D01*
Y911175D01*
X845160D01*
X843436Y910948D01*
X841829Y910283D01*
X840450Y909224D01*
X839391Y907845D01*
X838726Y906238D01*
X838499Y904514D01*
X838726Y902790D01*
X839391Y901184D01*
X840450Y899804D01*
X841829Y898746D01*
X843436Y898080D01*
X845160Y897853D01*
X845790Y896583D01*
X845511Y896118D01*
X844696Y895951D01*
X842849Y896716D01*
X840851D01*
X839004Y895951D01*
X837591Y894538D01*
X836826Y892691D01*
Y890692D01*
X837326Y889486D01*
X836626Y888216D01*
X836626D01*
Y885369D01*
X832256D01*
X830532Y885142D01*
X828926Y884476D01*
X827546Y883418D01*
X826488Y882038D01*
X825822Y880432D01*
X825595Y878708D01*
X825822Y876984D01*
X826488Y875377D01*
X827546Y873998D01*
X828926Y872939D01*
X830532Y872274D01*
X832256Y872047D01*
X836626D01*
Y869168D01*
X847074D01*
Y874651D01*
X847619Y875361D01*
X848284Y876968D01*
X848511Y878692D01*
X848284Y880416D01*
X847619Y882022D01*
X847074Y882732D01*
Y883986D01*
X850214Y887126D01*
X850214Y887126D01*
X851704Y887433D01*
X853551Y886668D01*
X855549D01*
X857396Y887433D01*
X858809Y888846D01*
X859574Y890692D01*
Y892691D01*
X859074Y893898D01*
X859774Y895168D01*
X859774D01*
Y900651D01*
X860319Y901361D01*
X860984Y902968D01*
X861211Y904692D01*
X860984Y906416D01*
X860319Y908022D01*
X859774Y908732D01*
Y914192D01*
X874726D01*
Y895168D01*
X874726D01*
X875426Y893898D01*
X874926Y892691D01*
Y890692D01*
X875691Y888846D01*
X877104Y887433D01*
X878951Y886668D01*
X880949D01*
X882037Y887118D01*
X883307Y886285D01*
Y860292D01*
X883307Y860292D01*
X883524Y859202D01*
X884142Y858278D01*
X888306Y854113D01*
X889231Y853495D01*
X890321Y853279D01*
X890321Y853279D01*
X896202D01*
X897336Y852144D01*
X899063Y851428D01*
X900933D01*
X902660Y852144D01*
X903982Y853466D01*
X904697Y855193D01*
Y857062D01*
X903982Y858789D01*
X902660Y860111D01*
X900933Y860826D01*
X899063D01*
X897336Y860111D01*
X896789Y859564D01*
X896350Y859653D01*
X895934Y861033D01*
X896109Y861208D01*
X896824Y862934D01*
Y864804D01*
X896109Y866531D01*
X895236Y867403D01*
Y869168D01*
X897874D01*
Y888216D01*
X897874D01*
X897174Y889486D01*
X897674Y890692D01*
Y892691D01*
X896909Y894538D01*
X895496Y895951D01*
X893649Y896716D01*
X891651D01*
X889804Y895951D01*
X888303Y896246D01*
X888259Y896313D01*
X888258Y896313D01*
X885174Y899398D01*
Y914192D01*
X900126D01*
Y895168D01*
X900126D01*
X900826Y893898D01*
X900326Y892691D01*
Y890692D01*
X901091Y888846D01*
X902504Y887433D01*
X904351Y886668D01*
X906349D01*
X907437Y887118D01*
X908707Y886285D01*
Y797701D01*
X908707Y797701D01*
X908924Y796611D01*
X909542Y795686D01*
X922311Y782917D01*
Y719279D01*
X921176Y718144D01*
X920891Y717457D01*
X919621Y717710D01*
Y763224D01*
X919621Y763224D01*
X919404Y764314D01*
X918787Y765239D01*
X918787Y765239D01*
X898900Y785125D01*
X897976Y785743D01*
X896886Y785960D01*
X896886Y785960D01*
X873302D01*
X872453Y787230D01*
X872691Y787805D01*
Y789505D01*
X872041Y791076D01*
X870838Y792278D01*
X869268Y792929D01*
X867567D01*
X865996Y792278D01*
X864794Y791076D01*
X864143Y789505D01*
Y787805D01*
X864282Y787470D01*
X863604Y786348D01*
X862794Y786228D01*
X861691Y787123D01*
Y809679D01*
X847707D01*
Y810695D01*
X841766D01*
Y813834D01*
X842175Y814243D01*
X842175Y814243D01*
X842793Y815167D01*
X843010Y816257D01*
X843010Y816258D01*
Y854934D01*
X843010Y854934D01*
X842793Y856024D01*
X842175Y856948D01*
X841892Y857231D01*
X842117Y857773D01*
Y859643D01*
X841401Y861370D01*
X840079Y862692D01*
X838352Y863407D01*
X836483D01*
X834756Y862692D01*
X833434Y861370D01*
X832719Y859643D01*
Y857773D01*
X833434Y856046D01*
X834756Y854724D01*
X836483Y854009D01*
X837057D01*
X837312Y853754D01*
Y827102D01*
X836042Y826254D01*
X835127Y826633D01*
X833257D01*
X831530Y825917D01*
X830208Y824596D01*
X829493Y822868D01*
Y820999D01*
X830208Y819272D01*
X831343Y818137D01*
Y814559D01*
X831285Y814472D01*
X831069Y813382D01*
X831069Y813382D01*
Y809679D01*
X826746D01*
Y818165D01*
X827208Y818627D01*
X827923Y820354D01*
Y822223D01*
X827208Y823950D01*
X825886Y825272D01*
X824159Y825988D01*
X822290D01*
X821374Y825608D01*
X820104Y826457D01*
Y828203D01*
X820288D01*
X822015Y828918D01*
X823337Y830240D01*
X824052Y831967D01*
Y833836D01*
X823337Y835563D01*
X822015Y836885D01*
X820288Y837601D01*
X818419D01*
X816691Y836885D01*
X815370Y835563D01*
X814654Y833836D01*
Y831967D01*
X814925Y831314D01*
X814623Y830863D01*
X814406Y829772D01*
X814406Y829772D01*
Y816144D01*
X814406Y816144D01*
X814623Y815054D01*
X815241Y814130D01*
X816069Y813302D01*
Y810695D01*
X811746D01*
Y854133D01*
X812369Y854756D01*
X813084Y856483D01*
Y858352D01*
X812369Y860079D01*
X811047Y861401D01*
X809320Y862117D01*
X807451D01*
X805724Y861401D01*
X804402Y860079D01*
X803687Y858352D01*
Y856483D01*
X804402Y854756D01*
X805724Y853434D01*
X806049Y853299D01*
Y850095D01*
X804779Y849569D01*
X802117Y852231D01*
Y853836D01*
X801401Y855563D01*
X800079Y856885D01*
X798353Y857600D01*
X796483D01*
X794756Y856885D01*
X793434Y855563D01*
X792719Y853836D01*
Y851967D01*
X793434Y850240D01*
X793836Y849838D01*
X793310Y848568D01*
X791967D01*
X791051Y848189D01*
X789781Y849038D01*
Y860233D01*
X791462Y861913D01*
X792546D01*
X794273Y862629D01*
X795595Y863951D01*
X796310Y865678D01*
Y867547D01*
X795595Y869274D01*
X794273Y870596D01*
X792546Y871311D01*
X790677D01*
X788950Y870596D01*
X787628Y869274D01*
X786912Y867547D01*
Y865678D01*
X786987Y865496D01*
X784918Y863427D01*
X784301Y862503D01*
X784084Y861413D01*
X784084Y861413D01*
Y845584D01*
X782814Y844735D01*
X781986Y845078D01*
X780116D01*
X778389Y844363D01*
X777067Y843041D01*
X776352Y841314D01*
Y839444D01*
X776083Y838871D01*
X775977Y838740D01*
X774918Y838176D01*
X773191Y838891D01*
X771322D01*
X769595Y838176D01*
X768273Y836854D01*
X767558Y835127D01*
Y833257D01*
X768273Y831530D01*
X769595Y830208D01*
X771069Y829598D01*
Y809679D01*
X766746D01*
Y826036D01*
X766746Y826036D01*
X766729Y826124D01*
X767278Y827451D01*
Y829320D01*
X766563Y831047D01*
X765241Y832369D01*
X763514Y833084D01*
X761644D01*
X759917Y832369D01*
X758596Y831047D01*
X757880Y829320D01*
Y827451D01*
X758596Y825724D01*
X759917Y824402D01*
X761049Y823933D01*
Y819079D01*
X759845Y818546D01*
X759084Y819146D01*
Y820481D01*
X758369Y822208D01*
X757047Y823530D01*
X755320Y824245D01*
X753450D01*
X751723Y823530D01*
X750402Y822208D01*
X749686Y820481D01*
Y818612D01*
X750402Y816885D01*
X751723Y815563D01*
X753450Y814847D01*
X755055D01*
X756049Y813854D01*
Y810695D01*
X750127D01*
Y809679D01*
X741766D01*
Y811402D01*
X741549Y812492D01*
X740932Y813417D01*
X740932Y813417D01*
X736207Y818142D01*
X735282Y818759D01*
X734192Y818976D01*
X734192Y818976D01*
X728311D01*
X727176Y820111D01*
X725449Y820826D01*
X723580D01*
X721853Y820111D01*
X720531Y818789D01*
X719816Y817062D01*
Y815193D01*
X720531Y813466D01*
X721853Y812144D01*
X723580Y811428D01*
X725449D01*
X727176Y812144D01*
X728311Y813279D01*
X733012D01*
X736069Y810222D01*
Y798155D01*
X736143Y797779D01*
Y786631D01*
X741069D01*
Y782517D01*
X676694Y718142D01*
X676076Y717218D01*
X675860Y716128D01*
X675860Y716127D01*
Y553437D01*
X647121Y524698D01*
X645516D01*
X643789Y523983D01*
X642467Y522661D01*
X641751Y520934D01*
Y519064D01*
X642467Y517337D01*
X643789Y516015D01*
X645516Y515300D01*
X647385D01*
X649112Y516015D01*
X650434Y517337D01*
X651149Y519064D01*
Y520669D01*
X680723Y550243D01*
X680723Y550243D01*
X681340Y551167D01*
X681557Y552257D01*
Y714948D01*
X745932Y779322D01*
X745932Y779322D01*
X746549Y780247D01*
X746766Y781337D01*
X746766Y781337D01*
Y786631D01*
X750127D01*
Y785615D01*
X751377D01*
Y786630D01*
X751692D01*
Y798155D01*
X756052D01*
X756143Y797699D01*
Y786630D01*
X756457D01*
Y785615D01*
X757707D01*
Y786631D01*
X780127D01*
Y785615D01*
X781377D01*
Y786630D01*
X781692D01*
Y797779D01*
X781767Y798155D01*
X786068D01*
X786143Y797779D01*
Y786630D01*
X786457D01*
Y785615D01*
X787707D01*
Y786631D01*
X810127D01*
Y785615D01*
X811377D01*
Y786630D01*
X811692D01*
Y797779D01*
X811767Y798155D01*
X816068D01*
X816143Y797779D01*
Y786630D01*
X816457D01*
Y785615D01*
X817707D01*
Y786631D01*
X840127D01*
Y785615D01*
X841377D01*
Y786630D01*
X841692D01*
Y797779D01*
X841767Y798155D01*
X846068D01*
X846088Y798055D01*
Y787934D01*
X846143Y787658D01*
Y786630D01*
X846447D01*
X846457Y786615D01*
Y785615D01*
X847227D01*
X851746Y781097D01*
X851746Y781097D01*
X852670Y780479D01*
X853760Y780262D01*
X853760Y780262D01*
X895706D01*
X913924Y762044D01*
Y640570D01*
X912789Y639435D01*
X912073Y637708D01*
Y635838D01*
X912789Y634111D01*
X914111Y632789D01*
X915838Y632074D01*
X917707D01*
X919434Y632789D01*
X920756Y634111D01*
X921471Y635838D01*
Y637708D01*
X920756Y639435D01*
X919621Y640570D01*
Y713255D01*
X920891Y713508D01*
X921176Y712821D01*
X922498Y711499D01*
X924225Y710783D01*
X926094D01*
X927821Y711499D01*
X929143Y712821D01*
X929858Y714548D01*
Y716417D01*
X929143Y718144D01*
X928008Y719279D01*
Y781308D01*
X929182Y781794D01*
X931343Y779633D01*
Y709602D01*
X930208Y708467D01*
X929493Y706740D01*
Y704870D01*
X930208Y703143D01*
X931530Y701821D01*
X933257Y701106D01*
X935126D01*
X936525Y701685D01*
X937794Y701103D01*
Y650826D01*
X936660Y649691D01*
X935944Y647964D01*
Y646095D01*
X936660Y644368D01*
X937981Y643046D01*
X939709Y642330D01*
X941578D01*
X942976Y642910D01*
X944246Y642328D01*
Y602668D01*
X942949Y601370D01*
X942233Y599643D01*
Y597774D01*
X942949Y596047D01*
X944271Y594725D01*
X945998Y594010D01*
X947867D01*
X948783Y594389D01*
X950053Y593540D01*
Y590247D01*
X948918Y589112D01*
X948202Y587385D01*
Y585516D01*
X948918Y583789D01*
X950011Y582695D01*
X949738Y581621D01*
X949622Y581425D01*
X846472D01*
X836766Y591131D01*
Y700732D01*
X838036Y701532D01*
X839064Y701106D01*
X840933D01*
X842660Y701821D01*
X843982Y703143D01*
X844697Y704870D01*
Y706740D01*
X843982Y708467D01*
X842660Y709789D01*
X841766Y710159D01*
Y741615D01*
X846069D01*
Y723422D01*
X846069Y723422D01*
X846285Y722332D01*
X846903Y721408D01*
X848391Y719920D01*
X848391Y719920D01*
X849315Y719302D01*
X850405Y719085D01*
X891721D01*
X897388Y713419D01*
Y694356D01*
X896660Y693628D01*
X895944Y691901D01*
Y690032D01*
X896660Y688305D01*
X897982Y686983D01*
X899709Y686267D01*
X901578D01*
X903305Y686983D01*
X904627Y688305D01*
X905342Y690032D01*
Y691901D01*
X904627Y693628D01*
X903305Y694950D01*
X903085Y695041D01*
Y714599D01*
X902868Y715689D01*
X902251Y716613D01*
X902251Y716613D01*
X894916Y723948D01*
X893992Y724566D01*
X892901Y724783D01*
X892901Y724783D01*
X851766D01*
Y742631D01*
X861691D01*
Y765679D01*
X847707D01*
Y766695D01*
X846457D01*
Y765679D01*
X846143D01*
Y754531D01*
X846068Y754155D01*
X841767D01*
X841692Y754531D01*
Y765679D01*
X841377D01*
Y766695D01*
X840127D01*
Y765679D01*
X817707D01*
Y766695D01*
X816457D01*
Y765679D01*
X816143D01*
Y754531D01*
X816068Y754155D01*
X811767D01*
X811692Y754531D01*
Y765679D01*
X811377D01*
Y766695D01*
X810127D01*
Y765679D01*
X787707D01*
Y766695D01*
X786457D01*
Y765679D01*
X786143D01*
Y754531D01*
X786068Y754155D01*
X781783D01*
X781692Y754611D01*
Y765679D01*
X781377D01*
Y766695D01*
X780127D01*
Y765679D01*
X757707D01*
Y766695D01*
X756457D01*
Y765679D01*
X756143D01*
Y754531D01*
X756068Y754155D01*
X751767D01*
X751692Y754531D01*
Y765679D01*
X751377D01*
Y766695D01*
X750127D01*
Y765679D01*
X736143D01*
Y754531D01*
X736069Y754155D01*
Y741388D01*
X730431Y735751D01*
X727021D01*
X725886Y736885D01*
X724159Y737601D01*
X722290D01*
X720563Y736885D01*
X719241Y735564D01*
X718525Y733837D01*
Y731967D01*
X719241Y730240D01*
X720563Y728918D01*
X722290Y728203D01*
X724159D01*
X725886Y728918D01*
X727021Y730053D01*
X731611D01*
X731611Y730053D01*
X732702Y730270D01*
X733626Y730887D01*
X739799Y737060D01*
X741069Y736534D01*
Y601886D01*
X741069Y601886D01*
X741285Y600796D01*
X741903Y599872D01*
X769277Y572498D01*
X769277Y572498D01*
X770201Y571880D01*
X771291Y571664D01*
X771291Y571664D01*
X1093866D01*
X1093866Y571664D01*
X1094956Y571880D01*
X1095881Y572498D01*
X1137911Y614529D01*
X1139084Y614043D01*
Y607666D01*
X1137950Y606531D01*
X1137234Y604804D01*
Y602935D01*
X1137950Y601208D01*
X1139271Y599886D01*
X1140999Y599171D01*
X1142868D01*
X1144595Y599886D01*
X1145917Y601208D01*
X1146632Y602935D01*
Y604804D01*
X1145917Y606531D01*
X1144782Y607666D01*
Y818063D01*
X1144782Y818063D01*
X1144565Y819153D01*
X1143948Y820077D01*
X1143948Y820077D01*
X1064049Y899976D01*
X1063124Y900594D01*
X1062974Y900623D01*
Y914192D01*
X1129658D01*
X1132109Y914312D01*
X1136916Y915268D01*
X1141443Y917144D01*
X1145518Y919866D01*
X1148984Y923332D01*
X1151706Y927407D01*
X1153582Y931935D01*
X1154538Y936741D01*
X1154658Y939192D01*
Y1504592D01*
Y1507054D01*
X1155619Y1511884D01*
X1157504Y1516434D01*
X1160240Y1520528D01*
X1163722Y1524010D01*
X1167816Y1526746D01*
X1172366Y1528631D01*
X1177196Y1529592D01*
X1238912D01*
X1243742Y1528631D01*
X1248292Y1526746D01*
X1252387Y1524010D01*
X1255869Y1520528D01*
X1258605Y1516434D01*
X1260489Y1511884D01*
X1261450Y1507054D01*
Y1504592D01*
X1261450Y889763D01*
Y887301D01*
X1260489Y882471D01*
X1258605Y877921D01*
X1255869Y873827D01*
X1254128Y872086D01*
X1254128Y872086D01*
Y872086D01*
X1203997Y821955D01*
X1202349Y820137D01*
X1199626Y816062D01*
X1197751Y811534D01*
X1196795Y806727D01*
X1196674Y804277D01*
Y364192D01*
X336226D01*
X336226Y804277D01*
X336105Y806727D01*
X335149Y811534D01*
X333274Y816062D01*
X330551Y820137D01*
X328903Y821955D01*
X328903Y821955D01*
X278772Y872086D01*
X277031Y873827D01*
X274295Y877921D01*
X272411Y882471D01*
X271450Y887301D01*
Y889763D01*
Y1504592D01*
Y1507054D01*
X272411Y1511884D01*
X274295Y1516434D01*
X277031Y1520528D01*
X280513Y1524010D01*
X284608Y1526746D01*
X289158Y1528631D01*
X293988Y1529592D01*
X296450D01*
X341450Y1555063D01*
X496450Y1555063D01*
D02*
G37*
G36*
X963626Y883431D02*
Y869168D01*
X966001D01*
Y830676D01*
X953966Y818640D01*
X952793Y819126D01*
Y874257D01*
X962453Y883917D01*
X963626Y883431D01*
D02*
G37*
G36*
X991143Y787123D02*
X990040Y786228D01*
X989230Y786348D01*
X988553Y787470D01*
X988691Y787805D01*
Y789505D01*
X988041Y791076D01*
X986838Y792278D01*
X985267Y792929D01*
X983567D01*
X981996Y792278D01*
X980794Y791076D01*
X980143Y789505D01*
Y787805D01*
X980382Y787230D01*
X979533Y785960D01*
X962466D01*
X962466Y785960D01*
X961375Y785743D01*
X960451Y785125D01*
X958629Y783303D01*
X958011Y782379D01*
X957794Y781289D01*
X957794Y781289D01*
Y669711D01*
X956861Y668952D01*
X955750Y669417D01*
Y797063D01*
X957020Y797403D01*
X957568Y796454D01*
X959034Y794988D01*
X960830Y793951D01*
X962832Y793415D01*
X964906D01*
X966908Y793951D01*
X968704Y794988D01*
X970170Y796454D01*
X971206Y798250D01*
X971743Y800252D01*
Y802325D01*
X971730Y802372D01*
X973395Y804036D01*
X991143D01*
Y787123D01*
D02*
G37*
G36*
X771069Y736331D02*
X770752Y735858D01*
X770536Y734767D01*
X770536Y734767D01*
Y696698D01*
X769266Y696573D01*
X769082Y697496D01*
X768465Y698420D01*
X768464Y698420D01*
X766766Y700119D01*
Y742631D01*
X771069D01*
Y736331D01*
D02*
G37*
G36*
X965982Y778992D02*
X965753Y778649D01*
X965536Y777559D01*
X965536Y777559D01*
Y669417D01*
X964426Y668952D01*
X963492Y669711D01*
Y780109D01*
X963645Y780262D01*
X965304D01*
X965982Y778992D01*
D02*
G37*
G36*
X831069Y589951D02*
X831069Y589951D01*
X831285Y588861D01*
X831903Y587936D01*
X841305Y578535D01*
X840819Y577361D01*
X772471D01*
X746766Y603066D01*
Y709442D01*
X748036Y709957D01*
X749549Y709331D01*
X751418D01*
X753145Y710046D01*
X754467Y711368D01*
X754799Y712168D01*
X756069Y711915D01*
Y682069D01*
X756015Y682015D01*
X755300Y680288D01*
Y678419D01*
X756015Y676692D01*
X757337Y675370D01*
X759064Y674654D01*
X760933D01*
X762331Y675234D01*
X763601Y674652D01*
Y650826D01*
X762467Y649691D01*
X761751Y647964D01*
Y646095D01*
X762467Y644368D01*
X763788Y643046D01*
X765515Y642330D01*
X767385D01*
X768830Y642929D01*
X770100Y642374D01*
Y608312D01*
X768965Y607177D01*
X768249Y605450D01*
Y603580D01*
X768965Y601853D01*
X770287Y600531D01*
X772014Y599816D01*
X773883D01*
X774819Y600203D01*
X776089Y599355D01*
Y596928D01*
X775370Y596209D01*
X774654Y594482D01*
Y592612D01*
X775370Y590885D01*
X776692Y589564D01*
X778419Y588848D01*
X780288D01*
X782015Y589564D01*
X783337Y590885D01*
X784052Y592612D01*
Y594482D01*
X783337Y596209D01*
X782015Y597531D01*
X781786Y597626D01*
Y741615D01*
X786069D01*
Y666885D01*
X786069Y666884D01*
X786182Y666315D01*
Y590247D01*
X785047Y589112D01*
X784332Y587385D01*
Y585516D01*
X785047Y583789D01*
X786369Y582467D01*
X788096Y581751D01*
X789965D01*
X791692Y582467D01*
X793014Y583789D01*
X793730Y585516D01*
Y587385D01*
X793014Y589112D01*
X791879Y590247D01*
Y602590D01*
X793149Y603116D01*
X794019Y602247D01*
X794009Y602224D01*
Y600354D01*
X794725Y598627D01*
X796046Y597305D01*
X797773Y596590D01*
X799643D01*
X801370Y597305D01*
X802692Y598627D01*
X803407Y600354D01*
Y602224D01*
X802692Y603951D01*
X801370Y605273D01*
X799643Y605988D01*
X798335D01*
X796766Y607557D01*
Y742631D01*
X801069D01*
Y733093D01*
X801047Y733072D01*
X800430Y732148D01*
X800213Y731058D01*
X800213Y731058D01*
Y690683D01*
X800213Y690683D01*
X800376Y689866D01*
Y650826D01*
X799241Y649691D01*
X798525Y647964D01*
Y646095D01*
X799241Y644368D01*
X800562Y643046D01*
X802290Y642330D01*
X804159D01*
X805886Y643046D01*
X807208Y644368D01*
X807923Y646095D01*
Y647964D01*
X807208Y649691D01*
X806073Y650826D01*
Y690520D01*
X806073Y690520D01*
X805910Y691338D01*
Y714830D01*
X807180Y715679D01*
X808096Y715300D01*
X809965D01*
X811692Y716015D01*
X813014Y717337D01*
X813730Y719064D01*
Y720933D01*
X813014Y722660D01*
X811766Y723908D01*
Y741615D01*
X816069D01*
Y737368D01*
X815886Y737185D01*
X815268Y736261D01*
X815052Y735171D01*
X815052Y735170D01*
Y702094D01*
X815052Y702094D01*
X815214Y701277D01*
Y670892D01*
X814079Y669757D01*
X813364Y668030D01*
Y666161D01*
X814079Y664434D01*
X815401Y663112D01*
X817128Y662396D01*
X818998D01*
X819913Y662776D01*
X821183Y661927D01*
Y609185D01*
X819917Y608661D01*
X818595Y607339D01*
X817880Y605612D01*
Y603743D01*
X818595Y602016D01*
X819917Y600694D01*
X821644Y599978D01*
X823514D01*
X825241Y600694D01*
X826563Y602016D01*
X827278Y603743D01*
Y605612D01*
X826823Y606710D01*
X826881Y606999D01*
X826881Y606999D01*
Y704977D01*
X826766Y705552D01*
Y742631D01*
X831069D01*
Y589951D01*
D02*
G37*
%LPC*%
G36*
X1020649Y896716D02*
X1018651D01*
X1016804Y895951D01*
X1015391Y894538D01*
X1014626Y892691D01*
Y890692D01*
X1015126Y889486D01*
X1014426Y888216D01*
X1014426D01*
Y869168D01*
X1024874D01*
Y873777D01*
X1026144Y874304D01*
X1026368Y874079D01*
X1028095Y873364D01*
X1029965D01*
X1031692Y874079D01*
X1033014Y875401D01*
X1033729Y877128D01*
Y878997D01*
X1033014Y880724D01*
X1031692Y882046D01*
X1029965Y882762D01*
X1028095D01*
X1026368Y882046D01*
X1026144Y881822D01*
X1024874Y882220D01*
Y888216D01*
X1024874D01*
X1024174Y889486D01*
X1024674Y890692D01*
Y892691D01*
X1023909Y894538D01*
X1022496Y895951D01*
X1020649Y896716D01*
D02*
G37*
G36*
X1096377Y810695D02*
X1095127D01*
Y809679D01*
X1072707D01*
Y810695D01*
X1071457D01*
Y809680D01*
X1071143D01*
Y798155D01*
Y786630D01*
X1071457D01*
Y785615D01*
X1072707D01*
Y786631D01*
X1095127D01*
Y785615D01*
X1096377D01*
Y786630D01*
X1096692D01*
Y798155D01*
Y809680D01*
X1096377D01*
Y810695D01*
D02*
G37*
G36*
X1066377D02*
X1065127D01*
Y809679D01*
X1042707D01*
Y810695D01*
X1041457D01*
Y809680D01*
X1041143D01*
Y798155D01*
Y786630D01*
X1041457D01*
Y785615D01*
X1042707D01*
Y786631D01*
X1065127D01*
Y785615D01*
X1066377D01*
Y786630D01*
X1066692D01*
Y798155D01*
Y809680D01*
X1066377D01*
Y810695D01*
D02*
G37*
G36*
X1036377D02*
X1035127D01*
Y809679D01*
X1012707D01*
Y810695D01*
X1011457D01*
Y809680D01*
X1011143D01*
Y798155D01*
Y786630D01*
X1011457D01*
Y785615D01*
X1012707D01*
Y786631D01*
X1035127D01*
Y785615D01*
X1036377D01*
Y786630D01*
X1036692D01*
Y798155D01*
Y809680D01*
X1036377D01*
Y810695D01*
D02*
G37*
G36*
X1102707D02*
X1101457D01*
Y809680D01*
X1101143D01*
Y798155D01*
Y786630D01*
X1101457D01*
Y785615D01*
X1102707D01*
Y786631D01*
X1116691D01*
Y809679D01*
X1102707D01*
Y810695D01*
D02*
G37*
G36*
X1100602Y781261D02*
Y778668D01*
X1103196D01*
X1102907Y779365D01*
X1101300Y780972D01*
X1100602Y781261D01*
D02*
G37*
G36*
X1095522D02*
X1094825Y780972D01*
X1093217Y779365D01*
X1092928Y778668D01*
X1095522D01*
Y781261D01*
D02*
G37*
G36*
X1056731D02*
Y778668D01*
X1059325D01*
X1059036Y779365D01*
X1057429Y780972D01*
X1056731Y781261D01*
D02*
G37*
G36*
X1051651D02*
X1050954Y780972D01*
X1049346Y779365D01*
X1049058Y778668D01*
X1051651D01*
Y781261D01*
D02*
G37*
G36*
X1011570D02*
Y778668D01*
X1014164D01*
X1013875Y779365D01*
X1012268Y780972D01*
X1011570Y781261D01*
D02*
G37*
G36*
X1006490D02*
X1005793Y780972D01*
X1004185Y779365D01*
X1003896Y778668D01*
X1006490D01*
Y781261D01*
D02*
G37*
G36*
X1103196Y773587D02*
X1100602D01*
Y770994D01*
X1101300Y771283D01*
X1102907Y772890D01*
X1103196Y773587D01*
D02*
G37*
G36*
X1095522D02*
X1092928D01*
X1093217Y772890D01*
X1094825Y771283D01*
X1095522Y770994D01*
Y773587D01*
D02*
G37*
G36*
X1059325D02*
X1056731D01*
Y770994D01*
X1057429Y771283D01*
X1059036Y772890D01*
X1059325Y773587D01*
D02*
G37*
G36*
X1051651D02*
X1049058D01*
X1049346Y772890D01*
X1050954Y771283D01*
X1051651Y770994D01*
Y773587D01*
D02*
G37*
G36*
X1014164D02*
X1011570D01*
Y770994D01*
X1012268Y771283D01*
X1013875Y772890D01*
X1014164Y773587D01*
D02*
G37*
G36*
X1006490D02*
X1003896D01*
X1004185Y772890D01*
X1005793Y771283D01*
X1006490Y770994D01*
Y773587D01*
D02*
G37*
G36*
X1102707Y766695D02*
X1101457D01*
Y765679D01*
X1101143D01*
Y754531D01*
X1101068Y754155D01*
X1096767D01*
X1096692Y754531D01*
Y765679D01*
X1096377D01*
Y766695D01*
X1095127D01*
Y765679D01*
X1072707D01*
Y766695D01*
X1071457D01*
Y765679D01*
X1071143D01*
Y754531D01*
X1071068Y754155D01*
X1066767D01*
X1066692Y754531D01*
Y765679D01*
X1066377D01*
Y766695D01*
X1065127D01*
Y765679D01*
X1042707D01*
Y766695D01*
X1041457D01*
Y765679D01*
X1041143D01*
Y754531D01*
X1041068Y754155D01*
X1036692D01*
Y765679D01*
X1036377D01*
Y766695D01*
X1035127D01*
Y765679D01*
X1012707D01*
Y766695D01*
X1011457D01*
Y765679D01*
X1011143D01*
Y754531D01*
X1011068Y754155D01*
X1006767D01*
X1006692Y754531D01*
Y765679D01*
X1006377D01*
Y766695D01*
X1005127D01*
Y765679D01*
X991143D01*
Y757041D01*
X984440D01*
X983305Y758176D01*
X981578Y758891D01*
X979708D01*
X977981Y758176D01*
X976660Y756854D01*
X975944Y755127D01*
Y753257D01*
X976660Y751530D01*
X977981Y750208D01*
X979708Y749493D01*
X981578D01*
X983305Y750208D01*
X984440Y751343D01*
X991143D01*
Y742631D01*
X1001069D01*
Y734782D01*
X999917Y734305D01*
X998595Y732983D01*
X997880Y731256D01*
Y729386D01*
X998595Y727659D01*
X999917Y726338D01*
X1001644Y725622D01*
X1003513D01*
X1005240Y726338D01*
X1006562Y727659D01*
X1007278Y729386D01*
Y731256D01*
X1006739Y732556D01*
X1006766Y732691D01*
X1006766Y732691D01*
Y741615D01*
X1011069D01*
Y733844D01*
X1010208Y732983D01*
X1009492Y731256D01*
Y729386D01*
X1010208Y727659D01*
X1011530Y726338D01*
X1013257Y725622D01*
X1015126D01*
X1016042Y726001D01*
X1017312Y725153D01*
Y702667D01*
X1016014Y701370D01*
X1015299Y699643D01*
Y697774D01*
X1016014Y696047D01*
X1017336Y694725D01*
X1019063Y694009D01*
X1020933D01*
X1022660Y694725D01*
X1023982Y696047D01*
X1024697Y697774D01*
Y699643D01*
X1023982Y701370D01*
X1023009Y702342D01*
Y732793D01*
X1023009Y732794D01*
X1022792Y733884D01*
X1022175Y734808D01*
X1022175Y734808D01*
X1021766Y735217D01*
Y742631D01*
X1026069D01*
Y704626D01*
X1026069Y704626D01*
X1026181Y704059D01*
Y665731D01*
X1025047Y664596D01*
X1024331Y662869D01*
Y661000D01*
X1025047Y659272D01*
X1026368Y657951D01*
X1028095Y657235D01*
X1029965D01*
X1031692Y657951D01*
X1033014Y659272D01*
X1033729Y661000D01*
Y662869D01*
X1033014Y664596D01*
X1031879Y665731D01*
Y704513D01*
X1031879Y704513D01*
X1031766Y705080D01*
Y742631D01*
X1035127D01*
Y741615D01*
X1041069D01*
Y734863D01*
X1041056Y734844D01*
X1039754Y734305D01*
X1038432Y732983D01*
X1037717Y731256D01*
Y729386D01*
X1038432Y727659D01*
X1039754Y726338D01*
X1041481Y725622D01*
X1043351D01*
X1044779Y726214D01*
X1046049Y725649D01*
Y718956D01*
X1045723Y718821D01*
X1044401Y717499D01*
X1043686Y715772D01*
Y713903D01*
X1044401Y712176D01*
X1045723Y710854D01*
X1047450Y710138D01*
X1049320D01*
X1051047Y710854D01*
X1052369Y712176D01*
X1053084Y713903D01*
Y715772D01*
X1052369Y717499D01*
X1051746Y718121D01*
Y742631D01*
X1056069D01*
Y730065D01*
X1055401Y729789D01*
X1054079Y728467D01*
X1053363Y726740D01*
Y724870D01*
X1054079Y723143D01*
X1055401Y721821D01*
X1057128Y721106D01*
X1058997D01*
X1059913Y721485D01*
X1061183Y720637D01*
Y705555D01*
X1061020Y704738D01*
X1061020Y704738D01*
Y677344D01*
X1059885Y676209D01*
X1059170Y674482D01*
Y672612D01*
X1059885Y670885D01*
X1061207Y669563D01*
X1062934Y668848D01*
X1064803D01*
X1066531Y669563D01*
X1067852Y670885D01*
X1068568Y672612D01*
Y674482D01*
X1067852Y676209D01*
X1066718Y677344D01*
Y704083D01*
X1066880Y704901D01*
X1066880Y704901D01*
Y734332D01*
X1066766Y734905D01*
Y741615D01*
X1071069D01*
Y702157D01*
X1070914Y701926D01*
X1070697Y700836D01*
X1070697Y700835D01*
Y658797D01*
X1069400Y657499D01*
X1068685Y655772D01*
Y653903D01*
X1069400Y652176D01*
X1070722Y650854D01*
X1072449Y650138D01*
X1074318D01*
X1075234Y650518D01*
X1076504Y649669D01*
Y615408D01*
X1075369Y614273D01*
X1074654Y612546D01*
Y610677D01*
X1075369Y608950D01*
X1076691Y607628D01*
X1078418Y606913D01*
X1080287D01*
X1082014Y607628D01*
X1083336Y608950D01*
X1084052Y610677D01*
Y612546D01*
X1083336Y614273D01*
X1082201Y615408D01*
Y679191D01*
X1082201Y679191D01*
X1081985Y680281D01*
X1081766Y680608D01*
Y742631D01*
X1086069D01*
Y715916D01*
X1085563Y715411D01*
X1084945Y714486D01*
X1084728Y713396D01*
X1084728Y713396D01*
Y646859D01*
X1084401Y646531D01*
X1083686Y644804D01*
Y642935D01*
X1084401Y641208D01*
X1085723Y639886D01*
X1087450Y639171D01*
X1089320D01*
X1091047Y639886D01*
X1092368Y641208D01*
X1093084Y642935D01*
Y644804D01*
X1092368Y646531D01*
X1091047Y647853D01*
X1090426Y648110D01*
Y679992D01*
X1091696Y680840D01*
X1092611Y680461D01*
X1094481D01*
X1096208Y681176D01*
X1097530Y682498D01*
X1098245Y684225D01*
Y686095D01*
X1097530Y687822D01*
X1096766Y688585D01*
Y741615D01*
X1101069D01*
Y636596D01*
X1100460Y635127D01*
Y633258D01*
X1101176Y631530D01*
X1102497Y630209D01*
X1104224Y629493D01*
X1106094D01*
X1107009Y629873D01*
X1108279Y629024D01*
Y622668D01*
X1106982Y621370D01*
X1106266Y619643D01*
Y617774D01*
X1106982Y616047D01*
X1108304Y614725D01*
X1110031Y614009D01*
X1111900D01*
X1113627Y614725D01*
X1114949Y616047D01*
X1115665Y617774D01*
Y619643D01*
X1114949Y621370D01*
X1113977Y622342D01*
Y681851D01*
X1113760Y682942D01*
X1113142Y683866D01*
X1113142Y683866D01*
X1111766Y685242D01*
Y742631D01*
X1116691D01*
Y765679D01*
X1102707D01*
Y766695D01*
D02*
G37*
G36*
X431596Y1551334D02*
Y1543306D01*
X436156D01*
Y1544766D01*
X435914Y1546604D01*
X435205Y1548317D01*
X434077Y1549787D01*
X432606Y1550916D01*
X431596Y1551334D01*
D02*
G37*
G36*
X426516D02*
X425505Y1550916D01*
X424035Y1549787D01*
X422906Y1548317D01*
X422197Y1546604D01*
X421955Y1544766D01*
Y1543306D01*
X426516D01*
Y1551334D01*
D02*
G37*
G36*
X345096D02*
Y1543306D01*
X349656D01*
Y1544766D01*
X349414Y1546604D01*
X348705Y1548317D01*
X347577Y1549787D01*
X346106Y1550916D01*
X345096Y1551334D01*
D02*
G37*
G36*
X340016D02*
X339005Y1550916D01*
X337535Y1549787D01*
X336406Y1548317D01*
X335697Y1546604D01*
X335455Y1544766D01*
Y1543306D01*
X340016D01*
Y1551334D01*
D02*
G37*
G36*
X436156Y1538226D02*
X431596D01*
Y1530198D01*
X432606Y1530617D01*
X434077Y1531745D01*
X435205Y1533216D01*
X435914Y1534928D01*
X436156Y1536766D01*
Y1538226D01*
D02*
G37*
G36*
X426516D02*
X421955D01*
Y1536766D01*
X422197Y1534928D01*
X422906Y1533216D01*
X424035Y1531745D01*
X425505Y1530617D01*
X426516Y1530198D01*
Y1538226D01*
D02*
G37*
G36*
X349656D02*
X345096D01*
Y1530198D01*
X346106Y1530617D01*
X347577Y1531745D01*
X348705Y1533216D01*
X349414Y1534928D01*
X349656Y1536766D01*
Y1538226D01*
D02*
G37*
G36*
X340016D02*
X335455D01*
Y1536766D01*
X335697Y1534928D01*
X336406Y1533216D01*
X337535Y1531745D01*
X339005Y1530617D01*
X340016Y1530198D01*
Y1538226D01*
D02*
G37*
G36*
X403633Y1536142D02*
X367978D01*
X366244Y1535797D01*
X364773Y1534814D01*
X364773Y1534814D01*
X361351Y1531392D01*
X360369Y1529922D01*
X360024Y1528188D01*
Y1516546D01*
X358754Y1515816D01*
X358596Y1515881D01*
Y1510666D01*
X353516D01*
Y1515881D01*
X352776Y1515575D01*
X351147Y1513946D01*
X350926Y1513413D01*
X349656Y1513666D01*
Y1514466D01*
X349414Y1516304D01*
X348705Y1518017D01*
X347577Y1519487D01*
X346106Y1520616D01*
X345096Y1521034D01*
Y1506966D01*
Y1492898D01*
X346106Y1493317D01*
X347577Y1494445D01*
X348705Y1495916D01*
X348996Y1496617D01*
X350266Y1496365D01*
Y1496015D01*
X351147Y1493887D01*
X352776Y1492258D01*
X353516Y1491951D01*
Y1497166D01*
X358596D01*
Y1491951D01*
X359336Y1492258D01*
X359415Y1492337D01*
X361016Y1492143D01*
X361477Y1491453D01*
X362947Y1490471D01*
X364682Y1490126D01*
X366416Y1490471D01*
X367886Y1491453D01*
X368821Y1492853D01*
X369022Y1493044D01*
X370100Y1493371D01*
X370351Y1493119D01*
X372106Y1492392D01*
X373028D01*
X376749Y1488671D01*
X377758Y1487997D01*
X378947Y1487761D01*
X448935D01*
X450124Y1487997D01*
X451132Y1488671D01*
X457114Y1494653D01*
X458353D01*
X460080Y1495368D01*
X461402Y1496690D01*
X462117Y1498417D01*
Y1500287D01*
X461402Y1502014D01*
X460080Y1503335D01*
X458353Y1504051D01*
X456484D01*
X454757Y1503335D01*
X453435Y1502014D01*
X452719Y1500287D01*
Y1499048D01*
X447648Y1493976D01*
X435317D01*
X434691Y1495246D01*
X435205Y1495916D01*
X435914Y1497628D01*
X436156Y1499466D01*
Y1504426D01*
X429056D01*
Y1506966D01*
X426516D01*
Y1521034D01*
X425505Y1520616D01*
X424035Y1519487D01*
X422906Y1518017D01*
X422197Y1516304D01*
X421955Y1514466D01*
Y1513666D01*
X420685Y1513413D01*
X420464Y1513946D01*
X418835Y1515575D01*
X418096Y1515881D01*
Y1510666D01*
X413016D01*
Y1515881D01*
X412858Y1515816D01*
X411588Y1516546D01*
Y1528188D01*
X411243Y1529922D01*
X410260Y1531392D01*
X410260Y1531392D01*
X406838Y1534814D01*
X405368Y1535797D01*
X403633Y1536142D01*
D02*
G37*
G36*
X431596Y1521034D02*
Y1509506D01*
X436156D01*
Y1514466D01*
X435914Y1516304D01*
X435205Y1518017D01*
X434077Y1519487D01*
X432606Y1520616D01*
X431596Y1521034D01*
D02*
G37*
G36*
X340016D02*
X339005Y1520616D01*
X337535Y1519487D01*
X336406Y1518017D01*
X335697Y1516304D01*
X335455Y1514466D01*
Y1509506D01*
X340016D01*
Y1521034D01*
D02*
G37*
G36*
Y1504426D02*
X335455D01*
Y1499466D01*
X335697Y1497628D01*
X336406Y1495916D01*
X337535Y1494445D01*
X339005Y1493317D01*
X340016Y1492898D01*
Y1504426D01*
D02*
G37*
G36*
X1226421Y1520716D02*
X1223166D01*
X1219973Y1520081D01*
X1216966Y1518835D01*
X1214260Y1517027D01*
X1211958Y1514725D01*
X1210150Y1512019D01*
X1208904Y1509012D01*
X1208269Y1505819D01*
Y1502564D01*
X1208904Y1499372D01*
X1210150Y1496365D01*
X1211958Y1493658D01*
X1214260Y1491357D01*
X1216966Y1489548D01*
X1219973Y1488303D01*
X1223166Y1487668D01*
X1226421D01*
X1229613Y1488303D01*
X1232620Y1489548D01*
X1235327Y1491357D01*
X1237628Y1493658D01*
X1239436Y1496365D01*
X1240682Y1499372D01*
X1241317Y1502564D01*
Y1505819D01*
X1240682Y1509012D01*
X1239436Y1512019D01*
X1237628Y1514725D01*
X1235327Y1517027D01*
X1232620Y1518835D01*
X1229613Y1520081D01*
X1226421Y1520716D01*
D02*
G37*
G36*
X309735D02*
X306480D01*
X303287Y1520081D01*
X300280Y1518835D01*
X297574Y1517027D01*
X295272Y1514725D01*
X293464Y1512019D01*
X292218Y1509012D01*
X291583Y1505819D01*
Y1502564D01*
X292218Y1499372D01*
X293464Y1496365D01*
X295272Y1493658D01*
X297574Y1491357D01*
X300280Y1489548D01*
X303287Y1488303D01*
X306480Y1487668D01*
X309735D01*
X312927Y1488303D01*
X315934Y1489548D01*
X318640Y1491357D01*
X320942Y1493658D01*
X322751Y1496365D01*
X323996Y1499372D01*
X324631Y1502564D01*
Y1505819D01*
X323996Y1509012D01*
X322751Y1512019D01*
X320942Y1514725D01*
X318640Y1517027D01*
X315934Y1518835D01*
X312927Y1520081D01*
X309735Y1520716D01*
D02*
G37*
G36*
X390990Y1484430D02*
X389121D01*
X387394Y1483714D01*
X386072Y1482393D01*
X386064Y1482374D01*
X384566Y1482076D01*
X383951Y1482690D01*
X382224Y1483406D01*
X380355D01*
X378628Y1482690D01*
X377306Y1481369D01*
X376591Y1479641D01*
Y1477772D01*
X377306Y1476045D01*
X378628Y1474723D01*
X378814Y1474646D01*
Y1470978D01*
X379050Y1469789D01*
X379724Y1468781D01*
X386351Y1462154D01*
Y1429221D01*
X385763Y1428880D01*
X385080Y1428752D01*
X383434Y1430399D01*
X382510Y1431016D01*
X381420Y1431233D01*
X381419Y1431233D01*
X327240D01*
Y1434068D01*
X335181D01*
Y1447316D01*
X313083D01*
Y1446735D01*
X311813Y1446201D01*
X310664Y1446864D01*
X308979Y1447316D01*
X307235D01*
X305550Y1446864D01*
X304040Y1445992D01*
X302807Y1444759D01*
X301935Y1443248D01*
X301483Y1441564D01*
Y1439820D01*
X301935Y1438135D01*
X302807Y1436624D01*
X304040Y1435391D01*
X305550Y1434519D01*
X307235Y1434068D01*
X308979D01*
X310664Y1434519D01*
X311813Y1435183D01*
X313083Y1434648D01*
Y1434068D01*
X321024D01*
Y1428768D01*
X321261Y1427578D01*
X321935Y1426570D01*
X322943Y1425896D01*
X323323Y1425821D01*
X323425Y1425752D01*
X324515Y1425535D01*
X324516Y1425535D01*
X380240D01*
X380387Y1425389D01*
Y1407294D01*
X379117Y1406873D01*
X378446Y1407321D01*
X377356Y1407538D01*
X377355Y1407538D01*
X309668D01*
X309501Y1408808D01*
X310664Y1409119D01*
X312174Y1409991D01*
X313408Y1411225D01*
X314280Y1412735D01*
X314731Y1414420D01*
Y1416164D01*
X314280Y1417849D01*
X313408Y1419359D01*
X312174Y1420592D01*
X310664Y1421464D01*
X308979Y1421916D01*
X307235D01*
X305550Y1421464D01*
X304401Y1420801D01*
X303131Y1421335D01*
Y1421916D01*
X281033D01*
Y1408668D01*
X288974D01*
Y1404689D01*
X289211Y1403499D01*
X289885Y1402491D01*
X290893Y1401818D01*
X292082Y1401581D01*
X293271Y1401818D01*
X293305Y1401840D01*
X375995D01*
Y1392212D01*
X374822Y1391726D01*
X374641Y1391906D01*
X373717Y1392524D01*
X372627Y1392740D01*
X372627Y1392740D01*
X335181D01*
Y1396516D01*
X313083D01*
Y1395935D01*
X311813Y1395401D01*
X310664Y1396064D01*
X308979Y1396516D01*
X307235D01*
X305550Y1396064D01*
X304040Y1395192D01*
X302807Y1393959D01*
X301935Y1392448D01*
X301483Y1390764D01*
Y1389020D01*
X301935Y1387335D01*
X302807Y1385824D01*
X304040Y1384591D01*
X305550Y1383719D01*
X307235Y1383268D01*
X308979D01*
X310664Y1383719D01*
X311813Y1384383D01*
X313083Y1383848D01*
Y1383268D01*
X335181D01*
Y1387043D01*
X371447D01*
X371931Y1386559D01*
Y1348986D01*
X370757Y1348500D01*
X366923Y1352334D01*
X365999Y1352952D01*
X364909Y1353169D01*
X364909Y1353169D01*
X297308D01*
X294931Y1355546D01*
Y1357868D01*
X303131D01*
Y1358448D01*
X304401Y1358983D01*
X305550Y1358319D01*
X307235Y1357868D01*
X308979D01*
X310664Y1358319D01*
X312174Y1359191D01*
X313408Y1360424D01*
X314280Y1361935D01*
X314731Y1363620D01*
Y1365364D01*
X314280Y1367048D01*
X313408Y1368559D01*
X312174Y1369792D01*
X310664Y1370664D01*
X308979Y1371116D01*
X307235D01*
X305550Y1370664D01*
X304401Y1370001D01*
X303131Y1370535D01*
Y1371116D01*
X281033D01*
Y1357868D01*
X289233D01*
Y1354366D01*
X289233Y1354366D01*
X289450Y1353276D01*
X290068Y1352352D01*
X294114Y1348306D01*
X294114Y1348306D01*
X295038Y1347688D01*
X296128Y1347471D01*
X296129Y1347471D01*
X363729D01*
X367867Y1343333D01*
Y1335438D01*
X366693Y1334952D01*
X360539Y1341106D01*
X359615Y1341724D01*
X358525Y1341940D01*
X358525Y1341940D01*
X335181D01*
Y1345716D01*
X313083D01*
Y1345135D01*
X311813Y1344601D01*
X310664Y1345264D01*
X308979Y1345716D01*
X307235D01*
X305550Y1345264D01*
X304040Y1344392D01*
X302807Y1343159D01*
X301935Y1341649D01*
X301483Y1339964D01*
Y1338220D01*
X301935Y1336535D01*
X302807Y1335025D01*
X304040Y1333791D01*
X305550Y1332919D01*
X307235Y1332468D01*
X308979D01*
X310664Y1332919D01*
X311813Y1333583D01*
X313083Y1333048D01*
Y1332468D01*
X335181D01*
Y1336243D01*
X357345D01*
X363803Y1329785D01*
Y1298019D01*
X362630Y1297533D01*
X358150Y1302012D01*
X357226Y1302629D01*
X356136Y1302846D01*
X356136Y1302846D01*
X297308D01*
X294931Y1305224D01*
Y1307068D01*
X303131D01*
Y1307648D01*
X304401Y1308183D01*
X305550Y1307519D01*
X307235Y1307068D01*
X308979D01*
X310664Y1307519D01*
X312174Y1308391D01*
X313408Y1309624D01*
X314280Y1311135D01*
X314731Y1312820D01*
Y1314564D01*
X314280Y1316248D01*
X313408Y1317759D01*
X312174Y1318992D01*
X310664Y1319864D01*
X308979Y1320316D01*
X307235D01*
X305550Y1319864D01*
X304401Y1319201D01*
X303131Y1319735D01*
Y1320316D01*
X281033D01*
Y1307068D01*
X289233D01*
Y1304044D01*
X289233Y1304044D01*
X289450Y1302954D01*
X290068Y1302029D01*
X294114Y1297983D01*
X294114Y1297983D01*
X295038Y1297366D01*
X296128Y1297149D01*
X296129Y1297149D01*
X354956D01*
X359739Y1292366D01*
Y1286406D01*
X358565Y1285920D01*
X354179Y1290306D01*
X353255Y1290924D01*
X352165Y1291140D01*
X352165Y1291140D01*
X335181D01*
Y1294916D01*
X313083D01*
Y1294335D01*
X311813Y1293801D01*
X310664Y1294464D01*
X308979Y1294916D01*
X307235D01*
X305550Y1294464D01*
X304040Y1293592D01*
X302807Y1292359D01*
X301935Y1290849D01*
X301483Y1289164D01*
Y1287420D01*
X301935Y1285735D01*
X302807Y1284225D01*
X304040Y1282991D01*
X305550Y1282119D01*
X307235Y1281668D01*
X308979D01*
X310664Y1282119D01*
X311813Y1282783D01*
X313083Y1282248D01*
Y1281668D01*
X335181D01*
Y1285443D01*
X350985D01*
X355675Y1280753D01*
Y1253236D01*
X354501Y1252750D01*
X353627Y1253625D01*
X352702Y1254242D01*
X351612Y1254459D01*
X351612Y1254459D01*
X294931D01*
Y1256268D01*
X303131D01*
Y1256848D01*
X304401Y1257383D01*
X305550Y1256719D01*
X307235Y1256268D01*
X308979D01*
X310664Y1256719D01*
X312174Y1257591D01*
X313408Y1258824D01*
X314280Y1260335D01*
X314731Y1262020D01*
Y1263764D01*
X314280Y1265449D01*
X313408Y1266959D01*
X312174Y1268192D01*
X310664Y1269064D01*
X308979Y1269516D01*
X307235D01*
X305550Y1269064D01*
X304401Y1268401D01*
X303131Y1268935D01*
Y1269516D01*
X281033D01*
Y1256268D01*
X289233D01*
Y1253098D01*
X289233Y1253098D01*
X289450Y1252008D01*
X290068Y1251084D01*
X291556Y1249596D01*
X291556Y1249596D01*
X292480Y1248979D01*
X293570Y1248762D01*
X350432D01*
X351611Y1247583D01*
Y1081890D01*
X350438Y1081404D01*
X344735Y1087106D01*
X343811Y1087724D01*
X342721Y1087941D01*
X342721Y1087940D01*
X335181D01*
Y1091716D01*
X313083D01*
Y1091135D01*
X311813Y1090601D01*
X310664Y1091264D01*
X308979Y1091716D01*
X307235D01*
X305550Y1091264D01*
X304040Y1090392D01*
X302807Y1089159D01*
X301935Y1087648D01*
X301483Y1085964D01*
Y1084220D01*
X301935Y1082535D01*
X302807Y1081024D01*
X304040Y1079791D01*
X305550Y1078919D01*
X307235Y1078468D01*
X308979D01*
X310664Y1078919D01*
X311813Y1079583D01*
X313083Y1079048D01*
Y1078468D01*
X335181D01*
Y1082243D01*
X341541D01*
X347547Y1076237D01*
Y1035141D01*
X346373Y1034655D01*
X333855Y1047174D01*
X332931Y1047791D01*
X331841Y1048008D01*
X331841Y1048008D01*
X298599D01*
X294931Y1051676D01*
Y1053068D01*
X303131D01*
Y1053648D01*
X304401Y1054183D01*
X305550Y1053519D01*
X307235Y1053068D01*
X308979D01*
X310664Y1053519D01*
X312174Y1054391D01*
X313408Y1055624D01*
X314280Y1057135D01*
X314731Y1058820D01*
Y1060564D01*
X314280Y1062249D01*
X313408Y1063759D01*
X312174Y1064992D01*
X310664Y1065864D01*
X308979Y1066316D01*
X307235D01*
X305550Y1065864D01*
X304401Y1065201D01*
X303131Y1065735D01*
Y1066316D01*
X281033D01*
Y1053068D01*
X289233D01*
Y1050496D01*
X289233Y1050496D01*
X289450Y1049406D01*
X290068Y1048482D01*
X295404Y1043145D01*
X295404Y1043145D01*
X296329Y1042527D01*
X297419Y1042310D01*
X297419Y1042310D01*
X329599D01*
X329683Y1042186D01*
X329004Y1040916D01*
X313083D01*
Y1040335D01*
X311813Y1039801D01*
X310664Y1040464D01*
X308979Y1040916D01*
X307235D01*
X305550Y1040464D01*
X304040Y1039592D01*
X302807Y1038359D01*
X301935Y1036849D01*
X301483Y1035164D01*
Y1033420D01*
X301935Y1031735D01*
X302807Y1030225D01*
X304040Y1028991D01*
X305550Y1028119D01*
X307235Y1027668D01*
X308979D01*
X310664Y1028119D01*
X311813Y1028783D01*
X313083Y1028248D01*
Y1027668D01*
X321283D01*
Y1023533D01*
X320149Y1022398D01*
X319433Y1020671D01*
Y1018801D01*
X320149Y1017074D01*
X321470Y1015753D01*
X323197Y1015037D01*
X325067D01*
X326794Y1015753D01*
X328116Y1017074D01*
X328831Y1018801D01*
Y1020671D01*
X328116Y1022398D01*
X326981Y1023533D01*
Y1027668D01*
X335181D01*
Y1036131D01*
X336354Y1036617D01*
X343483Y1029489D01*
Y955897D01*
X317529Y929944D01*
X307667D01*
X306532Y931078D01*
X304805Y931794D01*
X302936D01*
X301209Y931078D01*
X299887Y929757D01*
X299171Y928030D01*
Y926160D01*
X299887Y924433D01*
X301209Y923111D01*
X302936Y922396D01*
X304805D01*
X306532Y923111D01*
X307667Y924246D01*
X315806D01*
X316332Y922976D01*
X316016Y922660D01*
X315300Y920933D01*
Y919063D01*
X316016Y917336D01*
X317338Y916015D01*
X319065Y915299D01*
X320934D01*
X322661Y916015D01*
X323983Y917336D01*
X324698Y919063D01*
Y920668D01*
X326203Y922173D01*
X327473Y921647D01*
Y865085D01*
X326338Y863950D01*
X325623Y862223D01*
Y860354D01*
X326338Y858627D01*
X327660Y857305D01*
X329387Y856590D01*
X331257D01*
X332984Y857305D01*
X334305Y858627D01*
X335021Y860354D01*
Y862223D01*
X334305Y863950D01*
X333171Y865085D01*
Y872716D01*
X334441Y873298D01*
X335839Y872719D01*
X337708D01*
X339435Y873434D01*
X340757Y874756D01*
X341473Y876483D01*
Y878352D01*
X340757Y880079D01*
X339622Y881214D01*
Y922044D01*
X342429Y924851D01*
X343602Y924364D01*
Y895139D01*
X343144Y894950D01*
X341822Y893628D01*
X341107Y891901D01*
Y890031D01*
X341822Y888304D01*
X343144Y886982D01*
X344871Y886267D01*
X346740D01*
X348467Y886982D01*
X349789Y888304D01*
X350505Y890031D01*
Y891901D01*
X349789Y893628D01*
X349300Y894117D01*
Y906163D01*
X350570Y906689D01*
X355945Y901314D01*
Y899709D01*
X356661Y897982D01*
X357983Y896660D01*
X359710Y895944D01*
X361579D01*
X363306Y896660D01*
X364628Y897982D01*
X365343Y899709D01*
Y901578D01*
X365234Y901842D01*
X366311Y902561D01*
X374655Y894217D01*
Y892612D01*
X375370Y890885D01*
X376692Y889563D01*
X378419Y888848D01*
X380289D01*
X382016Y889563D01*
X383338Y890885D01*
X384053Y892612D01*
Y894481D01*
X383338Y896208D01*
X382016Y897530D01*
X380289Y898246D01*
X378684D01*
X367364Y909565D01*
Y916450D01*
X368634Y916976D01*
X368950Y916660D01*
X370677Y915944D01*
X372547D01*
X374274Y916660D01*
X375596Y917982D01*
X376311Y919709D01*
Y921047D01*
X379213Y923949D01*
X380387Y923463D01*
Y911559D01*
X379252Y910424D01*
X378536Y908697D01*
Y906827D01*
X379252Y905100D01*
X380573Y903779D01*
X382300Y903063D01*
X384170D01*
X385080Y903440D01*
X386351Y902592D01*
Y836124D01*
X381109Y830882D01*
X365195D01*
X364006Y830646D01*
X362998Y829972D01*
X348973Y815947D01*
X348299Y814939D01*
X348063Y813750D01*
Y783021D01*
X348299Y781832D01*
X348973Y780824D01*
X355656Y774141D01*
X355461Y773804D01*
X354846Y771509D01*
Y769133D01*
X355461Y766838D01*
X356649Y764780D01*
X358329Y763100D01*
X360387Y761912D01*
X362682Y761297D01*
X365058D01*
X367353Y761912D01*
X369411Y763100D01*
X371091Y764780D01*
X372279Y766838D01*
X372894Y769133D01*
Y771509D01*
X372279Y773804D01*
X371091Y775862D01*
X369411Y777542D01*
X367353Y778730D01*
X365058Y779345D01*
X362682D01*
X360387Y778730D01*
X360051Y778536D01*
X354278Y784308D01*
Y785662D01*
X354846Y786697D01*
X372894D01*
Y800350D01*
X394294Y821750D01*
X395467Y821264D01*
Y580644D01*
X395812Y578910D01*
X396795Y577439D01*
X403246Y570988D01*
X403246Y570988D01*
X404716Y570005D01*
X406451Y569660D01*
X497269D01*
X497728Y568390D01*
X496444Y567107D01*
X496156Y566410D01*
X506423D01*
X506134Y567107D01*
X504851Y568390D01*
X505310Y569660D01*
X512048D01*
Y547096D01*
X512275Y545372D01*
X512940Y543765D01*
X513999Y542386D01*
X515378Y541327D01*
X516985Y540662D01*
X518709Y540435D01*
X518931Y540464D01*
X543440Y515955D01*
Y502262D01*
X543785Y500528D01*
X544767Y499058D01*
X553721Y490104D01*
X553721Y490104D01*
X555191Y489122D01*
X555465Y489067D01*
Y488610D01*
X561700D01*
X562955Y487772D01*
X564689Y487427D01*
X564689Y487427D01*
X571539D01*
Y485935D01*
X584587D01*
Y487427D01*
X587023D01*
Y485935D01*
X600071D01*
X600071Y497805D01*
X601087Y498419D01*
X601087Y498596D01*
X601087Y498596D01*
Y502919D01*
X593547D01*
Y505459D01*
X591007D01*
Y512499D01*
X586873D01*
X586007Y512499D01*
X584737Y512499D01*
X577340D01*
X576854Y513672D01*
X581311Y518129D01*
X584342D01*
X584402Y517982D01*
X585724Y516660D01*
X587451Y515945D01*
X589321D01*
X591048Y516660D01*
X592369Y517982D01*
X593085Y519709D01*
Y521579D01*
X592369Y523306D01*
X591048Y524628D01*
X589321Y525343D01*
X587451D01*
X585724Y524628D01*
X584923Y523826D01*
X580131D01*
X580131Y523826D01*
X579041Y523609D01*
X578116Y522992D01*
X578116Y522992D01*
X569951Y514826D01*
X568038D01*
Y516550D01*
X555465D01*
Y508168D01*
X554449D01*
Y504153D01*
X553269Y503638D01*
X552504Y504256D01*
Y517832D01*
X552159Y519567D01*
X551177Y521037D01*
X551177Y521037D01*
X525340Y546873D01*
X525370Y547096D01*
Y572257D01*
X525143Y573981D01*
X524477Y575587D01*
X523419Y576967D01*
X522039Y578026D01*
X520433Y578691D01*
X518709Y578918D01*
X516985Y578691D01*
X516971Y578685D01*
X516773Y578725D01*
X408328D01*
X404531Y582521D01*
Y1478014D01*
X404698Y1478417D01*
Y1480287D01*
X403983Y1482014D01*
X402661Y1483336D01*
X400934Y1484051D01*
X399064D01*
X397337Y1483336D01*
X396016Y1482014D01*
X395793Y1481477D01*
X394419D01*
X394039Y1482393D01*
X392718Y1483714D01*
X390990Y1484430D01*
D02*
G37*
G36*
X1251867Y1447316D02*
X1229769D01*
Y1446735D01*
X1228499Y1446201D01*
X1227350Y1446864D01*
X1225665Y1447316D01*
X1223921D01*
X1222236Y1446864D01*
X1220726Y1445992D01*
X1219493Y1444759D01*
X1218621Y1443248D01*
X1218169Y1441564D01*
Y1439820D01*
X1218621Y1438135D01*
X1219493Y1436624D01*
X1220726Y1435391D01*
X1222236Y1434519D01*
X1223921Y1434068D01*
X1225665D01*
X1227350Y1434519D01*
X1228499Y1435183D01*
X1229769Y1434648D01*
Y1434068D01*
X1251867D01*
Y1447316D01*
D02*
G37*
G36*
X1225665Y1421916D02*
X1223921D01*
X1222236Y1421464D01*
X1221087Y1420801D01*
X1219817Y1421335D01*
Y1421916D01*
X1197719D01*
Y1408668D01*
X1219817D01*
Y1409248D01*
X1221087Y1409783D01*
X1222236Y1409119D01*
X1223921Y1408668D01*
X1225665D01*
X1227350Y1409119D01*
X1228860Y1409991D01*
X1230094Y1411225D01*
X1230966Y1412735D01*
X1231417Y1414420D01*
Y1416164D01*
X1230966Y1417849D01*
X1230094Y1419359D01*
X1228860Y1420592D01*
X1227350Y1421464D01*
X1225665Y1421916D01*
D02*
G37*
G36*
X1251867Y1396516D02*
X1229769D01*
Y1395935D01*
X1228499Y1395401D01*
X1227350Y1396064D01*
X1225665Y1396516D01*
X1223921D01*
X1222236Y1396064D01*
X1220726Y1395192D01*
X1219493Y1393959D01*
X1218621Y1392448D01*
X1218169Y1390764D01*
Y1389020D01*
X1218621Y1387335D01*
X1219493Y1385824D01*
X1220726Y1384591D01*
X1222236Y1383719D01*
X1223921Y1383268D01*
X1225665D01*
X1227350Y1383719D01*
X1228499Y1384383D01*
X1229769Y1383848D01*
Y1383268D01*
X1251867D01*
Y1396516D01*
D02*
G37*
G36*
X1225665Y1371116D02*
X1223921D01*
X1222236Y1370664D01*
X1221087Y1370001D01*
X1219817Y1370535D01*
Y1371116D01*
X1197719D01*
Y1357868D01*
X1219817D01*
Y1358448D01*
X1221087Y1358983D01*
X1222236Y1358319D01*
X1223921Y1357868D01*
X1225665D01*
X1227350Y1358319D01*
X1228860Y1359191D01*
X1230094Y1360424D01*
X1230966Y1361935D01*
X1231417Y1363620D01*
Y1365364D01*
X1230966Y1367048D01*
X1230094Y1368559D01*
X1228860Y1369792D01*
X1227350Y1370664D01*
X1225665Y1371116D01*
D02*
G37*
G36*
X1251867Y1345716D02*
X1229769D01*
Y1345135D01*
X1228499Y1344601D01*
X1227350Y1345264D01*
X1225665Y1345716D01*
X1223921D01*
X1222236Y1345264D01*
X1220726Y1344392D01*
X1219493Y1343159D01*
X1218621Y1341649D01*
X1218169Y1339964D01*
Y1338220D01*
X1218621Y1336535D01*
X1219493Y1335025D01*
X1220726Y1333791D01*
X1222236Y1332919D01*
X1223921Y1332468D01*
X1225665D01*
X1227350Y1332919D01*
X1228499Y1333583D01*
X1229769Y1333048D01*
Y1332468D01*
X1251867D01*
Y1345716D01*
D02*
G37*
G36*
X1225665Y1320316D02*
X1223921D01*
X1222236Y1319864D01*
X1221087Y1319201D01*
X1219817Y1319735D01*
Y1320316D01*
X1197719D01*
Y1307068D01*
X1219817D01*
Y1307648D01*
X1221087Y1308183D01*
X1222236Y1307519D01*
X1223921Y1307068D01*
X1225665D01*
X1227350Y1307519D01*
X1228860Y1308391D01*
X1230094Y1309624D01*
X1230966Y1311135D01*
X1231417Y1312820D01*
Y1314564D01*
X1230966Y1316248D01*
X1230094Y1317759D01*
X1228860Y1318992D01*
X1227350Y1319864D01*
X1225665Y1320316D01*
D02*
G37*
G36*
X1251867Y1294916D02*
X1229769D01*
Y1294335D01*
X1228499Y1293801D01*
X1227350Y1294464D01*
X1225665Y1294916D01*
X1223921D01*
X1222236Y1294464D01*
X1220726Y1293592D01*
X1219493Y1292359D01*
X1218621Y1290849D01*
X1218169Y1289164D01*
Y1287420D01*
X1218621Y1285735D01*
X1219493Y1284225D01*
X1220726Y1282991D01*
X1222236Y1282119D01*
X1223921Y1281668D01*
X1225665D01*
X1227350Y1282119D01*
X1228499Y1282783D01*
X1229769Y1282248D01*
Y1281668D01*
X1251867D01*
Y1294916D01*
D02*
G37*
G36*
X1225665Y1269516D02*
X1223921D01*
X1222236Y1269064D01*
X1221087Y1268401D01*
X1219817Y1268935D01*
Y1269516D01*
X1197719D01*
Y1256268D01*
X1219817D01*
Y1256848D01*
X1221087Y1257383D01*
X1222236Y1256719D01*
X1223921Y1256268D01*
X1225665D01*
X1227350Y1256719D01*
X1228860Y1257591D01*
X1230094Y1258824D01*
X1230966Y1260335D01*
X1231417Y1262020D01*
Y1263764D01*
X1230966Y1265449D01*
X1230094Y1266959D01*
X1228860Y1268192D01*
X1227350Y1269064D01*
X1225665Y1269516D01*
D02*
G37*
G36*
X1251867Y1244116D02*
X1229769D01*
Y1243535D01*
X1228499Y1243001D01*
X1227350Y1243664D01*
X1225665Y1244116D01*
X1223921D01*
X1222236Y1243664D01*
X1220726Y1242792D01*
X1219493Y1241559D01*
X1218621Y1240049D01*
X1218169Y1238364D01*
Y1236620D01*
X1218621Y1234935D01*
X1219493Y1233425D01*
X1220726Y1232191D01*
X1222236Y1231319D01*
X1223921Y1230868D01*
X1225665D01*
X1227350Y1231319D01*
X1228499Y1231983D01*
X1229769Y1231448D01*
Y1230868D01*
X1251867D01*
Y1244116D01*
D02*
G37*
G36*
X335181D02*
X313083D01*
Y1243535D01*
X311813Y1243001D01*
X310664Y1243664D01*
X308979Y1244116D01*
X307235D01*
X305550Y1243664D01*
X304040Y1242792D01*
X302807Y1241559D01*
X301935Y1240049D01*
X301483Y1238364D01*
Y1236620D01*
X301935Y1234935D01*
X302807Y1233425D01*
X304040Y1232191D01*
X305550Y1231319D01*
X307235Y1230868D01*
X308979D01*
X310664Y1231319D01*
X311813Y1231983D01*
X313083Y1231448D01*
Y1230868D01*
X335181D01*
Y1244116D01*
D02*
G37*
G36*
X1225665Y1218716D02*
X1223921D01*
X1222236Y1218264D01*
X1221087Y1217601D01*
X1219817Y1218135D01*
Y1218716D01*
X1197719D01*
Y1205468D01*
X1219817D01*
Y1206048D01*
X1221087Y1206583D01*
X1222236Y1205919D01*
X1223921Y1205468D01*
X1225665D01*
X1227350Y1205919D01*
X1228860Y1206791D01*
X1230094Y1208025D01*
X1230966Y1209535D01*
X1231417Y1211220D01*
Y1212964D01*
X1230966Y1214649D01*
X1230094Y1216159D01*
X1228860Y1217392D01*
X1227350Y1218264D01*
X1225665Y1218716D01*
D02*
G37*
G36*
X308979D02*
X307235D01*
X305550Y1218264D01*
X304401Y1217601D01*
X303131Y1218135D01*
Y1218716D01*
X281033D01*
Y1205468D01*
X303131D01*
Y1206048D01*
X304401Y1206583D01*
X305550Y1205919D01*
X307235Y1205468D01*
X308979D01*
X310664Y1205919D01*
X312174Y1206791D01*
X313408Y1208025D01*
X314280Y1209535D01*
X314731Y1211220D01*
Y1212964D01*
X314280Y1214649D01*
X313408Y1216159D01*
X312174Y1217392D01*
X310664Y1218264D01*
X308979Y1218716D01*
D02*
G37*
G36*
X1251867Y1193316D02*
X1229769D01*
Y1192735D01*
X1228499Y1192201D01*
X1227350Y1192864D01*
X1225665Y1193316D01*
X1223921D01*
X1222236Y1192864D01*
X1220726Y1191992D01*
X1219493Y1190759D01*
X1218621Y1189249D01*
X1218169Y1187564D01*
Y1185820D01*
X1218621Y1184135D01*
X1219493Y1182625D01*
X1220726Y1181391D01*
X1222236Y1180519D01*
X1223921Y1180068D01*
X1225665D01*
X1227350Y1180519D01*
X1228499Y1181183D01*
X1229769Y1180648D01*
Y1180068D01*
X1251867D01*
Y1193316D01*
D02*
G37*
G36*
X335181D02*
X313083D01*
Y1192735D01*
X311813Y1192201D01*
X310664Y1192864D01*
X308979Y1193316D01*
X307235D01*
X305550Y1192864D01*
X304040Y1191992D01*
X302807Y1190759D01*
X301935Y1189249D01*
X301483Y1187564D01*
Y1185820D01*
X301935Y1184135D01*
X302807Y1182625D01*
X304040Y1181391D01*
X305550Y1180519D01*
X307235Y1180068D01*
X308979D01*
X310664Y1180519D01*
X311813Y1181183D01*
X313083Y1180648D01*
Y1180068D01*
X335181D01*
Y1193316D01*
D02*
G37*
G36*
X1225665Y1167916D02*
X1223921D01*
X1222236Y1167464D01*
X1221087Y1166801D01*
X1219817Y1167335D01*
Y1167916D01*
X1197719D01*
Y1154668D01*
X1219817D01*
Y1155248D01*
X1221087Y1155783D01*
X1222236Y1155119D01*
X1223921Y1154668D01*
X1225665D01*
X1227350Y1155119D01*
X1228860Y1155991D01*
X1230094Y1157225D01*
X1230966Y1158735D01*
X1231417Y1160420D01*
Y1162164D01*
X1230966Y1163848D01*
X1230094Y1165359D01*
X1228860Y1166592D01*
X1227350Y1167464D01*
X1225665Y1167916D01*
D02*
G37*
G36*
X308979D02*
X307235D01*
X305550Y1167464D01*
X304401Y1166801D01*
X303131Y1167335D01*
Y1167916D01*
X281033D01*
Y1154668D01*
X303131D01*
Y1155248D01*
X304401Y1155783D01*
X305550Y1155119D01*
X307235Y1154668D01*
X308979D01*
X310664Y1155119D01*
X312174Y1155991D01*
X313408Y1157225D01*
X314280Y1158735D01*
X314731Y1160420D01*
Y1162164D01*
X314280Y1163848D01*
X313408Y1165359D01*
X312174Y1166592D01*
X310664Y1167464D01*
X308979Y1167916D01*
D02*
G37*
G36*
X1251867Y1142516D02*
X1229769D01*
Y1141935D01*
X1228499Y1141401D01*
X1227350Y1142064D01*
X1225665Y1142516D01*
X1223921D01*
X1222236Y1142064D01*
X1220726Y1141192D01*
X1219493Y1139959D01*
X1218621Y1138448D01*
X1218169Y1136764D01*
Y1135020D01*
X1218621Y1133335D01*
X1219493Y1131824D01*
X1220726Y1130591D01*
X1222236Y1129719D01*
X1223921Y1129268D01*
X1225665D01*
X1227350Y1129719D01*
X1228499Y1130383D01*
X1229769Y1129848D01*
Y1129268D01*
X1251867D01*
Y1142516D01*
D02*
G37*
G36*
X335181D02*
X313083D01*
Y1141935D01*
X311813Y1141401D01*
X310664Y1142064D01*
X308979Y1142516D01*
X307235D01*
X305550Y1142064D01*
X304040Y1141192D01*
X302807Y1139959D01*
X301935Y1138448D01*
X301483Y1136764D01*
Y1135020D01*
X301935Y1133335D01*
X302807Y1131824D01*
X304040Y1130591D01*
X305550Y1129719D01*
X307235Y1129268D01*
X308979D01*
X310664Y1129719D01*
X311813Y1130383D01*
X313083Y1129848D01*
Y1129268D01*
X335181D01*
Y1142516D01*
D02*
G37*
G36*
X1225665Y1117116D02*
X1223921D01*
X1222236Y1116664D01*
X1221087Y1116001D01*
X1219817Y1116535D01*
Y1117116D01*
X1197719D01*
Y1103868D01*
X1219817D01*
Y1104448D01*
X1221087Y1104983D01*
X1222236Y1104319D01*
X1223921Y1103868D01*
X1225665D01*
X1227350Y1104319D01*
X1228860Y1105191D01*
X1230094Y1106424D01*
X1230966Y1107935D01*
X1231417Y1109620D01*
Y1111364D01*
X1230966Y1113048D01*
X1230094Y1114559D01*
X1228860Y1115792D01*
X1227350Y1116664D01*
X1225665Y1117116D01*
D02*
G37*
G36*
X308979D02*
X307235D01*
X305550Y1116664D01*
X304401Y1116001D01*
X303131Y1116535D01*
Y1117116D01*
X281033D01*
Y1103868D01*
X303131D01*
Y1104448D01*
X304401Y1104983D01*
X305550Y1104319D01*
X307235Y1103868D01*
X308979D01*
X310664Y1104319D01*
X312174Y1105191D01*
X313408Y1106424D01*
X314280Y1107935D01*
X314731Y1109620D01*
Y1111364D01*
X314280Y1113048D01*
X313408Y1114559D01*
X312174Y1115792D01*
X310664Y1116664D01*
X308979Y1117116D01*
D02*
G37*
G36*
X1251867Y1091716D02*
X1229769D01*
Y1091135D01*
X1228499Y1090601D01*
X1227350Y1091264D01*
X1225665Y1091716D01*
X1223921D01*
X1222236Y1091264D01*
X1220726Y1090392D01*
X1219493Y1089159D01*
X1218621Y1087648D01*
X1218169Y1085964D01*
Y1084220D01*
X1218621Y1082535D01*
X1219493Y1081024D01*
X1220726Y1079791D01*
X1222236Y1078919D01*
X1223921Y1078468D01*
X1225665D01*
X1227350Y1078919D01*
X1228499Y1079583D01*
X1229769Y1079048D01*
Y1078468D01*
X1251867D01*
Y1091716D01*
D02*
G37*
G36*
X1225665Y1066316D02*
X1223921D01*
X1222236Y1065864D01*
X1221087Y1065201D01*
X1219817Y1065735D01*
Y1066316D01*
X1197719D01*
Y1053068D01*
X1219817D01*
Y1053648D01*
X1221087Y1054183D01*
X1222236Y1053519D01*
X1223921Y1053068D01*
X1225665D01*
X1227350Y1053519D01*
X1228860Y1054391D01*
X1230094Y1055624D01*
X1230966Y1057135D01*
X1231417Y1058820D01*
Y1060564D01*
X1230966Y1062249D01*
X1230094Y1063759D01*
X1228860Y1064992D01*
X1227350Y1065864D01*
X1225665Y1066316D01*
D02*
G37*
G36*
X1251867Y1040916D02*
X1229769D01*
Y1040335D01*
X1228499Y1039801D01*
X1227350Y1040464D01*
X1225665Y1040916D01*
X1223921D01*
X1222236Y1040464D01*
X1220726Y1039592D01*
X1219493Y1038359D01*
X1218621Y1036849D01*
X1218169Y1035164D01*
Y1033420D01*
X1218621Y1031735D01*
X1219493Y1030225D01*
X1220726Y1028991D01*
X1222236Y1028119D01*
X1223921Y1027668D01*
X1225665D01*
X1227350Y1028119D01*
X1228499Y1028783D01*
X1229769Y1028248D01*
Y1027668D01*
X1251867D01*
Y1040916D01*
D02*
G37*
G36*
X1225665Y1015516D02*
X1223921D01*
X1222236Y1015064D01*
X1221087Y1014401D01*
X1219817Y1014935D01*
Y1015516D01*
X1197719D01*
Y1002268D01*
X1219817D01*
Y1002848D01*
X1221087Y1003383D01*
X1222236Y1002719D01*
X1223921Y1002268D01*
X1225665D01*
X1227350Y1002719D01*
X1228860Y1003591D01*
X1230094Y1004825D01*
X1230966Y1006335D01*
X1231417Y1008020D01*
Y1009764D01*
X1230966Y1011449D01*
X1230094Y1012959D01*
X1228860Y1014192D01*
X1227350Y1015064D01*
X1225665Y1015516D01*
D02*
G37*
G36*
X308979D02*
X307235D01*
X305550Y1015064D01*
X304401Y1014401D01*
X303131Y1014935D01*
Y1015516D01*
X281033D01*
Y1002268D01*
X299102D01*
X305967Y995403D01*
X305967Y995403D01*
X306891Y994786D01*
X307981Y994569D01*
X326305D01*
X327439Y993434D01*
X329166Y992718D01*
X331036D01*
X332763Y993434D01*
X334085Y994756D01*
X334800Y996483D01*
Y998352D01*
X334085Y1000079D01*
X332763Y1001401D01*
X331036Y1002116D01*
X329166D01*
X327439Y1001401D01*
X326305Y1000266D01*
X309357D01*
X308684Y1001110D01*
X308719Y1001246D01*
X309121Y1002306D01*
X310664Y1002719D01*
X312174Y1003591D01*
X313408Y1004825D01*
X314280Y1006335D01*
X314731Y1008020D01*
Y1009764D01*
X314280Y1011449D01*
X313408Y1012959D01*
X312174Y1014192D01*
X310664Y1015064D01*
X308979Y1015516D01*
D02*
G37*
G36*
X1251867Y990116D02*
X1229769D01*
Y989535D01*
X1228499Y989001D01*
X1227350Y989664D01*
X1225665Y990116D01*
X1223921D01*
X1222236Y989664D01*
X1220726Y988792D01*
X1219493Y987559D01*
X1218621Y986049D01*
X1218169Y984364D01*
Y982620D01*
X1218621Y980935D01*
X1219493Y979425D01*
X1220726Y978191D01*
X1222236Y977319D01*
X1223921Y976868D01*
X1225665D01*
X1227350Y977319D01*
X1228499Y977983D01*
X1229769Y977448D01*
Y976868D01*
X1251867D01*
Y990116D01*
D02*
G37*
G36*
X335181D02*
X313083D01*
Y989535D01*
X311813Y989001D01*
X310664Y989664D01*
X308979Y990116D01*
X307235D01*
X305550Y989664D01*
X304040Y988792D01*
X302807Y987559D01*
X301935Y986049D01*
X301483Y984364D01*
Y982620D01*
X301935Y980935D01*
X302807Y979425D01*
X304040Y978191D01*
X305550Y977319D01*
X307235Y976868D01*
X308979D01*
X310664Y977319D01*
X311813Y977983D01*
X313083Y977448D01*
Y976868D01*
X321283D01*
Y973210D01*
X320149Y972076D01*
X319433Y970348D01*
Y968479D01*
X320149Y966752D01*
X321470Y965430D01*
X323197Y964715D01*
X325067D01*
X326794Y965430D01*
X328116Y966752D01*
X328831Y968479D01*
Y970348D01*
X328116Y972076D01*
X326981Y973210D01*
Y976868D01*
X335181D01*
Y990116D01*
D02*
G37*
G36*
X294622Y976569D02*
Y973976D01*
X297216D01*
X296927Y974673D01*
X295319Y976281D01*
X294622Y976569D01*
D02*
G37*
G36*
X289542D02*
X288845Y976281D01*
X287237Y974673D01*
X286948Y973976D01*
X289542D01*
Y976569D01*
D02*
G37*
G36*
X1225665Y964716D02*
X1223921D01*
X1222236Y964264D01*
X1221087Y963601D01*
X1219817Y964135D01*
Y964716D01*
X1197719D01*
Y951468D01*
X1219817D01*
Y952048D01*
X1221087Y952583D01*
X1222236Y951919D01*
X1223921Y951468D01*
X1225665D01*
X1227350Y951919D01*
X1228860Y952791D01*
X1230094Y954025D01*
X1230966Y955535D01*
X1231417Y957220D01*
Y958964D01*
X1230966Y960648D01*
X1230094Y962159D01*
X1228860Y963392D01*
X1227350Y964264D01*
X1225665Y964716D01*
D02*
G37*
G36*
X297216Y968895D02*
X286948D01*
X287237Y968198D01*
X288434Y967002D01*
X287908Y965732D01*
X280017D01*
Y960632D01*
X292082D01*
Y958092D01*
X294622D01*
Y950452D01*
X304147D01*
Y951459D01*
X305247Y952094D01*
X305550Y951919D01*
X307235Y951468D01*
X308979D01*
X310664Y951919D01*
X312174Y952791D01*
X313408Y954025D01*
X314280Y955535D01*
X314731Y957220D01*
Y958964D01*
X314280Y960648D01*
X313408Y962159D01*
X312174Y963392D01*
X310664Y964264D01*
X308979Y964716D01*
X307235D01*
X305550Y964264D01*
X305247Y964089D01*
X304147Y964724D01*
Y965732D01*
X296257D01*
X295730Y967002D01*
X296927Y968198D01*
X297216Y968895D01*
D02*
G37*
G36*
X289542Y955552D02*
X280017D01*
Y950452D01*
X289542D01*
Y955552D01*
D02*
G37*
G36*
X575442Y910293D02*
Y907700D01*
X578036D01*
X577747Y908397D01*
X576139Y910004D01*
X575442Y910293D01*
D02*
G37*
G36*
X578036Y902619D02*
X575442D01*
Y900026D01*
X576139Y900314D01*
X577747Y901922D01*
X578036Y902619D01*
D02*
G37*
G36*
X868249Y896716D02*
X866251D01*
X864404Y895951D01*
X862991Y894538D01*
X862226Y892691D01*
Y890692D01*
X862726Y889486D01*
X862026Y888216D01*
X862026D01*
Y869168D01*
X872474D01*
Y888216D01*
X872474D01*
X871774Y889486D01*
X872274Y890692D01*
Y892691D01*
X871509Y894538D01*
X870096Y895951D01*
X868249Y896716D01*
D02*
G37*
G36*
X704749D02*
X702751D01*
X700904Y895951D01*
X699491Y894538D01*
X698726Y892691D01*
Y890692D01*
X699226Y889486D01*
X698526Y888216D01*
X698526D01*
Y869168D01*
X708974D01*
Y874839D01*
X710244Y875365D01*
X710885Y874724D01*
X712612Y874009D01*
X714482D01*
X716209Y874724D01*
X717531Y876046D01*
X718246Y877773D01*
Y879643D01*
X717531Y881370D01*
X716209Y882691D01*
X714482Y883407D01*
X712612D01*
X710885Y882691D01*
X710244Y882050D01*
X708974Y882577D01*
Y888216D01*
X708974D01*
X708274Y889486D01*
X708774Y890692D01*
Y892691D01*
X708009Y894538D01*
X706596Y895951D01*
X704749Y896716D01*
D02*
G37*
G36*
X679349D02*
X677351D01*
X675504Y895951D01*
X674091Y894538D01*
X673326Y892691D01*
Y890692D01*
X673826Y889486D01*
X673126Y888216D01*
X673126D01*
Y869168D01*
X683574D01*
Y873924D01*
X684844Y874554D01*
X686161Y874009D01*
X688030D01*
X689757Y874724D01*
X691079Y876046D01*
X691794Y877773D01*
Y879643D01*
X691079Y881370D01*
X689757Y882691D01*
X688030Y883407D01*
X686161D01*
X684844Y882862D01*
X683574Y883491D01*
Y888216D01*
X683574D01*
X682874Y889486D01*
X683374Y890692D01*
Y892691D01*
X682609Y894538D01*
X681196Y895951D01*
X679349Y896716D01*
D02*
G37*
G36*
X653949D02*
X651951D01*
X650104Y895951D01*
X648691Y894538D01*
X647926Y892691D01*
Y890692D01*
X648426Y889486D01*
X647726Y888216D01*
X647726D01*
Y869168D01*
X658174D01*
Y873537D01*
X659444Y874386D01*
X660354Y874009D01*
X662224D01*
X663951Y874724D01*
X665273Y876046D01*
X665988Y877773D01*
Y879643D01*
X665273Y881370D01*
X663951Y882691D01*
X662224Y883407D01*
X660354D01*
X659444Y883030D01*
X658174Y883878D01*
Y888216D01*
X658174D01*
X657474Y889486D01*
X657974Y890692D01*
Y892691D01*
X657209Y894538D01*
X655796Y895951D01*
X653949Y896716D01*
D02*
G37*
G36*
X628549D02*
X626551D01*
X624704Y895951D01*
X623291Y894538D01*
X622526Y892691D01*
Y890692D01*
X623026Y889486D01*
X622326Y888216D01*
X622326D01*
Y869168D01*
X632774D01*
Y873620D01*
X634044Y874146D01*
X634111Y874079D01*
X635838Y873364D01*
X637708D01*
X639435Y874079D01*
X640757Y875401D01*
X641472Y877128D01*
Y878997D01*
X640757Y880724D01*
X639435Y882046D01*
X637708Y882762D01*
X635838D01*
X634111Y882046D01*
X634044Y881979D01*
X632774Y882505D01*
Y888216D01*
X632774D01*
X632074Y889486D01*
X632574Y890692D01*
Y892691D01*
X631809Y894538D01*
X630396Y895951D01*
X628549Y896716D01*
D02*
G37*
G36*
X603149D02*
X601151D01*
X599304Y895951D01*
X597891Y894538D01*
X597126Y892691D01*
Y890692D01*
X597626Y889486D01*
X596926Y888216D01*
X596926D01*
Y869168D01*
X607374D01*
Y876060D01*
X608644Y876320D01*
X609595Y875369D01*
X611322Y874654D01*
X613191D01*
X614919Y875369D01*
X616240Y876691D01*
X616956Y878418D01*
Y880288D01*
X616240Y882015D01*
X614919Y883337D01*
X613191Y884052D01*
X611322D01*
X609595Y883337D01*
X608644Y882386D01*
X607374Y882646D01*
Y888216D01*
X607374D01*
X606674Y889486D01*
X607174Y890692D01*
Y892691D01*
X606409Y894538D01*
X604996Y895951D01*
X603149Y896716D01*
D02*
G37*
G36*
X552349D02*
X550351D01*
X548504Y895951D01*
X547091Y894538D01*
X546326Y892691D01*
Y890692D01*
X546494Y890288D01*
X545788Y889232D01*
X545110D01*
Y877892D01*
X544054Y877186D01*
X543716Y877326D01*
X542000D01*
X541295Y877595D01*
X540827Y878446D01*
Y879643D01*
X540112Y881370D01*
X538790Y882691D01*
X537063Y883407D01*
X535193D01*
X533466Y882691D01*
X532444Y881669D01*
X531174Y881829D01*
Y888216D01*
X531174D01*
X530474Y889486D01*
X530974Y890692D01*
Y892691D01*
X530209Y894538D01*
X528796Y895951D01*
X526949Y896716D01*
X524951D01*
X523104Y895951D01*
X521691Y894538D01*
X520926Y892691D01*
Y890692D01*
X521426Y889486D01*
X520726Y888216D01*
X520726D01*
Y869168D01*
X531174D01*
Y875587D01*
X532444Y875746D01*
X533466Y874724D01*
X535193Y874009D01*
X536012D01*
X536865Y872748D01*
Y870474D01*
X537735Y868374D01*
X539342Y866766D01*
X540040Y866477D01*
Y871611D01*
X545120D01*
Y866477D01*
X545817Y866766D01*
X547202Y868152D01*
X548810D01*
Y878692D01*
X551350D01*
Y881232D01*
X557590D01*
Y889232D01*
X556912D01*
X556206Y890288D01*
X556374Y890692D01*
Y892691D01*
X555609Y894538D01*
X554196Y895951D01*
X552349Y896716D01*
D02*
G37*
G36*
X501549D02*
X499551D01*
X497704Y895951D01*
X496291Y894538D01*
X495526Y892691D01*
Y890692D01*
X496026Y889486D01*
X495326Y888216D01*
X495326D01*
Y869168D01*
X505774D01*
Y874169D01*
X507015Y874724D01*
X508742Y874009D01*
X510611D01*
X512338Y874724D01*
X513660Y876046D01*
X514375Y877773D01*
Y879643D01*
X513660Y881370D01*
X512338Y882691D01*
X510611Y883407D01*
X508742D01*
X507015Y882691D01*
X505774Y883247D01*
Y888216D01*
X505774D01*
X505074Y889486D01*
X505574Y890692D01*
Y892691D01*
X504809Y894538D01*
X503396Y895951D01*
X501549Y896716D01*
D02*
G37*
G36*
X476149D02*
X474151D01*
X472304Y895951D01*
X470891Y894538D01*
X470126Y892691D01*
Y890692D01*
X470626Y889486D01*
X469926Y888216D01*
X469926D01*
Y869168D01*
X480374D01*
Y873254D01*
X481644Y873899D01*
X482935Y873364D01*
X484805D01*
X486532Y874079D01*
X487854Y875401D01*
X488569Y877128D01*
Y878997D01*
X487854Y880724D01*
X486532Y882046D01*
X484805Y882762D01*
X482935D01*
X481644Y882227D01*
X480374Y882872D01*
Y888216D01*
X480374D01*
X479674Y889486D01*
X480174Y890692D01*
Y892691D01*
X479409Y894538D01*
X477996Y895951D01*
X476149Y896716D01*
D02*
G37*
G36*
X588345Y883842D02*
Y881248D01*
X590939D01*
X590650Y881945D01*
X589043Y883553D01*
X588345Y883842D01*
D02*
G37*
G36*
X817449Y896716D02*
X815451D01*
X813604Y895951D01*
X812191Y894538D01*
X811426Y892691D01*
Y890692D01*
X811594Y890288D01*
X810888Y889232D01*
X810210D01*
Y881232D01*
X822690D01*
Y889232D01*
X822012D01*
X821306Y890288D01*
X821474Y890692D01*
Y892691D01*
X820709Y894538D01*
X819296Y895951D01*
X817449Y896716D01*
D02*
G37*
G36*
X1226421Y911116D02*
X1223166D01*
X1219973Y910481D01*
X1216966Y909235D01*
X1214260Y907427D01*
X1211958Y905125D01*
X1210150Y902419D01*
X1208904Y899412D01*
X1208269Y896219D01*
Y892964D01*
X1208904Y889772D01*
X1210150Y886765D01*
X1211958Y884058D01*
X1214260Y881757D01*
X1216966Y879948D01*
X1219973Y878703D01*
X1223166Y878068D01*
X1226421D01*
X1229613Y878703D01*
X1232620Y879948D01*
X1235327Y881757D01*
X1237628Y884058D01*
X1239436Y886765D01*
X1240682Y889772D01*
X1241317Y892964D01*
Y896219D01*
X1240682Y899412D01*
X1239436Y902419D01*
X1237628Y905125D01*
X1235327Y907427D01*
X1232620Y909235D01*
X1229613Y910481D01*
X1226421Y911116D01*
D02*
G37*
G36*
X309735D02*
X306480D01*
X303287Y910481D01*
X300280Y909235D01*
X297574Y907427D01*
X295272Y905125D01*
X293464Y902419D01*
X292218Y899412D01*
X291583Y896219D01*
Y892964D01*
X292218Y889772D01*
X293464Y886765D01*
X295272Y884058D01*
X297574Y881757D01*
X300280Y879948D01*
X303287Y878703D01*
X306480Y878068D01*
X309735D01*
X312927Y878703D01*
X315934Y879948D01*
X318640Y881757D01*
X320942Y884058D01*
X322751Y886765D01*
X323996Y889772D01*
X324631Y892964D01*
Y896219D01*
X323996Y899412D01*
X322751Y902419D01*
X320942Y905125D01*
X318640Y907427D01*
X315934Y909235D01*
X312927Y910481D01*
X309735Y911116D01*
D02*
G37*
G36*
X590939Y876168D02*
X588345D01*
Y873574D01*
X589043Y873863D01*
X590650Y875471D01*
X590939Y876168D01*
D02*
G37*
G36*
X783071Y909435D02*
X779422D01*
X775843Y908723D01*
X772472Y907327D01*
X769438Y905299D01*
X766858Y902719D01*
X764830Y899685D01*
X763434Y896314D01*
X762722Y892735D01*
Y889086D01*
X763434Y885508D01*
X764830Y882136D01*
X766858Y879102D01*
X769438Y876522D01*
X772472Y874495D01*
X775843Y873099D01*
X779422Y872387D01*
X783071D01*
X786649Y873099D01*
X790021Y874495D01*
X793055Y876522D01*
X795635Y879102D01*
X797662Y882136D01*
X799058Y885508D01*
X799770Y889086D01*
Y892735D01*
X799058Y896314D01*
X797662Y899685D01*
X795635Y902719D01*
X793055Y905299D01*
X790021Y907327D01*
X786649Y908723D01*
X783071Y909435D01*
D02*
G37*
G36*
X822690Y876152D02*
X818990D01*
Y868152D01*
X822690D01*
Y876152D01*
D02*
G37*
G36*
X813910D02*
X810210D01*
Y868152D01*
X813910D01*
Y876152D01*
D02*
G37*
G36*
X577749Y896716D02*
X575751D01*
X573904Y895951D01*
X572491Y894538D01*
X571726Y892691D01*
Y890692D01*
X571894Y890288D01*
X571188Y889232D01*
X570510D01*
Y881232D01*
X576750D01*
Y878692D01*
X579290D01*
Y868152D01*
X582990D01*
Y872545D01*
X583265Y872729D01*
Y878708D01*
Y884687D01*
X582990Y884871D01*
Y889232D01*
X582312D01*
X581606Y890288D01*
X581774Y890692D01*
Y892691D01*
X581009Y894538D01*
X579596Y895951D01*
X577749Y896716D01*
D02*
G37*
G36*
X574210Y876152D02*
X570510D01*
Y868152D01*
X574210D01*
Y876152D01*
D02*
G37*
G36*
X557590D02*
X553890D01*
Y868152D01*
X557590D01*
Y876152D01*
D02*
G37*
G36*
X366511Y886575D02*
X362862D01*
X359283Y885863D01*
X355912Y884467D01*
X352878Y882439D01*
X350298Y879859D01*
X348270Y876825D01*
X346874Y873454D01*
X346162Y869875D01*
Y866226D01*
X346874Y862648D01*
X348270Y859276D01*
X350298Y856243D01*
X352878Y853662D01*
X355912Y851635D01*
X359283Y850239D01*
X362862Y849527D01*
X366511D01*
X370089Y850239D01*
X373461Y851635D01*
X376495Y853662D01*
X379075Y856243D01*
X381102Y859276D01*
X382498Y862648D01*
X383210Y866226D01*
Y869875D01*
X382498Y873454D01*
X381102Y876825D01*
X379075Y879859D01*
X376495Y882439D01*
X373461Y884467D01*
X370089Y885863D01*
X366511Y886575D01*
D02*
G37*
G36*
X1174231Y882765D02*
X1170582D01*
X1167003Y882053D01*
X1163632Y880657D01*
X1160598Y878629D01*
X1158018Y876049D01*
X1155991Y873015D01*
X1154594Y869644D01*
X1153882Y866065D01*
Y862416D01*
X1154594Y858838D01*
X1155991Y855466D01*
X1158018Y852432D01*
X1160598Y849852D01*
X1163632Y847825D01*
X1167003Y846429D01*
X1170582Y845717D01*
X1174231D01*
X1177810Y846429D01*
X1181181Y847825D01*
X1184215Y849852D01*
X1186795Y852432D01*
X1188822Y855466D01*
X1190218Y858838D01*
X1190930Y862416D01*
Y866065D01*
X1190218Y869644D01*
X1188822Y873015D01*
X1186795Y876049D01*
X1184215Y878629D01*
X1181181Y880657D01*
X1177810Y882053D01*
X1174231Y882765D01*
D02*
G37*
G36*
X496390Y809186D02*
X494521D01*
X492794Y808471D01*
X491472Y807149D01*
X490757Y805422D01*
Y803553D01*
X491472Y801826D01*
X492794Y800504D01*
X494521Y799788D01*
X496390D01*
X498117Y800504D01*
X499439Y801826D01*
X500155Y803553D01*
Y805422D01*
X499439Y807149D01*
X498117Y808471D01*
X496390Y809186D01*
D02*
G37*
G36*
X516418Y808568D02*
X514548D01*
X512821Y807853D01*
X511499Y806531D01*
X510784Y804804D01*
Y802935D01*
X511499Y801208D01*
X512821Y799886D01*
X514548Y799170D01*
X516418D01*
X518145Y799886D01*
X519466Y801208D01*
X520182Y802935D01*
Y804804D01*
X519466Y806531D01*
X518145Y807853D01*
X516418Y808568D01*
D02*
G37*
G36*
X533192Y799536D02*
X531322D01*
X529595Y798821D01*
X528273Y797499D01*
X527558Y795772D01*
Y793902D01*
X528273Y792175D01*
X529595Y790854D01*
X531322Y790138D01*
X533192D01*
X534919Y790854D01*
X536241Y792175D01*
X536956Y793902D01*
Y795772D01*
X536241Y797499D01*
X534919Y798821D01*
X533192Y799536D01*
D02*
G37*
G36*
X730267Y792929D02*
X728567D01*
X726996Y792278D01*
X725794Y791076D01*
X725143Y789505D01*
Y787805D01*
X725794Y786234D01*
X726996Y785032D01*
X728567Y784381D01*
X730267D01*
X731838Y785032D01*
X733041Y786234D01*
X733691Y787805D01*
Y789505D01*
X733041Y791076D01*
X731838Y792278D01*
X730267Y792929D01*
D02*
G37*
G36*
X839958Y781906D02*
Y779313D01*
X842551D01*
X842263Y780010D01*
X840655Y781618D01*
X839958Y781906D01*
D02*
G37*
G36*
X834878D02*
X834180Y781618D01*
X832573Y780010D01*
X832284Y779313D01*
X834878D01*
Y781906D01*
D02*
G37*
G36*
X799958Y781261D02*
Y778668D01*
X802551D01*
X802263Y779365D01*
X800655Y780972D01*
X799958Y781261D01*
D02*
G37*
G36*
X794878D02*
X794181Y780972D01*
X792573Y779365D01*
X792284Y778668D01*
X794878D01*
Y781261D01*
D02*
G37*
G36*
X756732D02*
Y778668D01*
X759326D01*
X759037Y779365D01*
X757429Y780972D01*
X756732Y781261D01*
D02*
G37*
G36*
X751652D02*
X750955Y780972D01*
X749347Y779365D01*
X749058Y778668D01*
X751652D01*
Y781261D01*
D02*
G37*
G36*
X842551Y774233D02*
X839958D01*
Y771639D01*
X840655Y771928D01*
X842263Y773535D01*
X842551Y774233D01*
D02*
G37*
G36*
X834878D02*
X832284D01*
X832573Y773535D01*
X834180Y771928D01*
X834878Y771639D01*
Y774233D01*
D02*
G37*
G36*
X802551Y773587D02*
X799958D01*
Y770994D01*
X800655Y771283D01*
X802263Y772890D01*
X802551Y773587D01*
D02*
G37*
G36*
X794878D02*
X792284D01*
X792573Y772890D01*
X794181Y771283D01*
X794878Y770994D01*
Y773587D01*
D02*
G37*
G36*
X759326D02*
X756732D01*
Y770994D01*
X757429Y771283D01*
X759037Y772890D01*
X759326Y773587D01*
D02*
G37*
G36*
X751652D02*
X749058D01*
X749347Y772890D01*
X750955Y771283D01*
X751652Y770994D01*
Y773587D01*
D02*
G37*
G36*
X570152Y648684D02*
X557104D01*
Y647836D01*
X552274D01*
X552063Y647924D01*
X550193D01*
X548466Y647208D01*
X547144Y645886D01*
X546429Y644159D01*
Y642290D01*
X547144Y640563D01*
X548466Y639241D01*
X550193Y638526D01*
X552063D01*
X553790Y639241D01*
X554097Y639549D01*
X563160D01*
X563599Y639636D01*
X570152D01*
Y648684D01*
D02*
G37*
G36*
X586139Y729085D02*
X584855D01*
X583689Y728602D01*
X572827Y717740D01*
X571628D01*
Y704192D01*
X571870D01*
Y700966D01*
X571628D01*
Y687418D01*
X571870D01*
Y684192D01*
X571628D01*
Y670644D01*
X571870D01*
Y667418D01*
X571628D01*
Y653870D01*
X571870D01*
Y640636D01*
X572215Y638901D01*
X573197Y637431D01*
X579094Y631534D01*
X579094Y631534D01*
X580564Y630552D01*
X582299Y630207D01*
X582299Y630207D01*
X583550D01*
X584604Y629684D01*
X584604Y628866D01*
Y620636D01*
X584801D01*
Y615483D01*
X585284Y614316D01*
X585402Y614198D01*
Y603152D01*
X585446D01*
Y601362D01*
X585402D01*
Y588313D01*
X585446D01*
Y581749D01*
X584941D01*
Y580337D01*
X584801Y579999D01*
Y563961D01*
X584704Y563225D01*
X584801Y562489D01*
Y544515D01*
X585284Y543349D01*
X586450Y542865D01*
X603970D01*
Y542701D01*
X608983D01*
Y539091D01*
X608766Y538809D01*
X607973Y536893D01*
X607702Y534838D01*
Y455708D01*
X570049Y418055D01*
X563233D01*
Y400008D01*
X581281D01*
Y406824D01*
X621260Y446803D01*
X622522Y448447D01*
X623315Y450363D01*
X623451Y451391D01*
X623586Y452418D01*
X623586Y452419D01*
Y534838D01*
X623315Y536893D01*
X622522Y538809D01*
X622305Y539091D01*
Y542701D01*
X627318D01*
Y583749D01*
X618321D01*
Y586530D01*
X618321Y586531D01*
X618094Y588255D01*
X617429Y589861D01*
X616370Y591241D01*
X616370Y591241D01*
X613709Y593902D01*
X612329Y594961D01*
X610723Y595626D01*
X610036Y595717D01*
Y612257D01*
Y622579D01*
X609912Y622878D01*
X609913Y623202D01*
X609680Y623438D01*
X609552Y623746D01*
X609253Y623870D01*
X609026Y624100D01*
X597652Y628889D01*
X597652Y629684D01*
X597652Y630954D01*
Y638366D01*
X597652Y639184D01*
X597652Y640678D01*
X598423Y641449D01*
X599692Y641269D01*
Y639434D01*
X612240D01*
Y650982D01*
X607187D01*
Y654370D01*
X609854D01*
Y666918D01*
X608187D01*
Y670644D01*
X610854D01*
Y684192D01*
X601306D01*
Y670644D01*
X601972D01*
Y666918D01*
X598306D01*
Y654370D01*
X600972D01*
Y650982D01*
X599692D01*
Y647792D01*
X597652D01*
Y648684D01*
X584604D01*
Y640639D01*
X583334Y640113D01*
X580934Y642513D01*
Y653870D01*
X581176D01*
Y654478D01*
X585305D01*
Y654370D01*
X596853D01*
Y666918D01*
X595412D01*
X593907Y668424D01*
Y687862D01*
X607963D01*
Y699799D01*
X614837D01*
X615354Y699866D01*
X615874D01*
X616377Y700001D01*
X616893Y700069D01*
X617374Y700268D01*
X617877Y700403D01*
X618328Y700663D01*
X618809Y700863D01*
X619221Y701180D01*
X619672Y701440D01*
X620040Y701808D01*
X620453Y702125D01*
X620770Y702538D01*
X621138Y702906D01*
X621399Y703357D01*
X621715Y703770D01*
X621915Y704250D01*
X622175Y704701D01*
X622310Y705204D01*
X622509Y705685D01*
X622577Y706201D01*
X622711Y706704D01*
Y707224D01*
X622779Y707740D01*
X622711Y708257D01*
Y708777D01*
X622577Y709280D01*
X622509Y709796D01*
X622310Y710277D01*
X622175Y710780D01*
X621915Y711231D01*
X621715Y711712D01*
X621399Y712124D01*
X621138Y712575D01*
X620770Y712943D01*
X620453Y713356D01*
X620040Y713673D01*
X619672Y714041D01*
X619221Y714302D01*
X618809Y714618D01*
X618328Y714818D01*
X617877Y715078D01*
X617374Y715213D01*
X616893Y715412D01*
X616377Y715480D01*
X615874Y715614D01*
X615354D01*
X614837Y715683D01*
X607963D01*
Y728910D01*
X586563D01*
X586139Y729085D01*
D02*
G37*
G36*
X506423Y561330D02*
X503829D01*
Y558736D01*
X504527Y559025D01*
X506134Y560633D01*
X506423Y561330D01*
D02*
G37*
G36*
X498749D02*
X496156D01*
X496444Y560633D01*
X498052Y559025D01*
X498749Y558736D01*
Y561330D01*
D02*
G37*
G36*
X510579Y556394D02*
X503829D01*
Y550644D01*
X510579D01*
Y556394D01*
D02*
G37*
G36*
X498749D02*
X491999D01*
Y550644D01*
X498749D01*
Y556394D01*
D02*
G37*
G36*
X482539Y549649D02*
Y547055D01*
X485133D01*
X484844Y547752D01*
X483236Y549360D01*
X482539Y549649D01*
D02*
G37*
G36*
X477459D02*
X476762Y549360D01*
X475154Y547752D01*
X474865Y547055D01*
X477459D01*
Y549649D01*
D02*
G37*
G36*
X570152Y629684D02*
X557104D01*
Y628469D01*
X542888Y614253D01*
X529314D01*
Y590905D01*
X541575D01*
Y565805D01*
X542058Y564639D01*
X561241Y545456D01*
Y544701D01*
X574089D01*
Y581749D01*
X572840D01*
X570537Y584051D01*
Y612729D01*
X570526Y612757D01*
X570536Y612785D01*
X570152Y624293D01*
Y629684D01*
D02*
G37*
G36*
X510579Y545564D02*
X503829D01*
Y539814D01*
X510579D01*
Y545564D01*
D02*
G37*
G36*
X498749D02*
X491999D01*
Y539814D01*
X498749D01*
Y545564D01*
D02*
G37*
G36*
X485133Y541975D02*
X482539D01*
Y539381D01*
X483236Y539670D01*
X484844Y541278D01*
X485133Y541975D01*
D02*
G37*
G36*
X477459D02*
X474865D01*
X475154Y541278D01*
X476762Y539670D01*
X477459Y539381D01*
Y541975D01*
D02*
G37*
G36*
X564636Y530294D02*
Y527700D01*
X567229D01*
X566941Y528397D01*
X565333Y530005D01*
X564636Y530294D01*
D02*
G37*
G36*
X559556D02*
X558858Y530005D01*
X557251Y528397D01*
X556962Y527700D01*
X559556D01*
Y530294D01*
D02*
G37*
G36*
X567229Y522620D02*
X564636D01*
Y520027D01*
X565333Y520315D01*
X566941Y521923D01*
X567229Y522620D01*
D02*
G37*
G36*
X559556D02*
X556962D01*
X557251Y521923D01*
X558858Y520315D01*
X559556Y520027D01*
Y522620D01*
D02*
G37*
G36*
X596087Y512499D02*
Y507999D01*
X601087D01*
Y512499D01*
X596087D01*
D02*
G37*
G36*
X516732Y487068D02*
Y484474D01*
X519326D01*
X519038Y485172D01*
X517430Y486780D01*
X516732Y487068D01*
D02*
G37*
G36*
X566141Y484273D02*
Y481679D01*
X568735D01*
X568446Y482376D01*
X566838Y483984D01*
X566141Y484273D01*
D02*
G37*
G36*
X561061D02*
X560363Y483984D01*
X558756Y482376D01*
X558467Y481679D01*
X561061D01*
Y484273D01*
D02*
G37*
G36*
X496169Y484055D02*
X489419D01*
Y478305D01*
X496169D01*
Y484055D01*
D02*
G37*
G36*
X568735Y476599D02*
X566141D01*
Y474005D01*
X566838Y474294D01*
X568446Y475902D01*
X568735Y476599D01*
D02*
G37*
G36*
X561061D02*
X558467D01*
X558756Y475902D01*
X560363Y474294D01*
X561061Y474005D01*
Y476599D01*
D02*
G37*
G36*
X511652Y487068D02*
X510955Y486780D01*
X509348Y485172D01*
X509077Y484518D01*
X507999Y484055D01*
X507510Y484055D01*
X501249D01*
Y478305D01*
X507999D01*
Y478635D01*
X509269Y478888D01*
X509348Y478697D01*
X510955Y477090D01*
X513056Y476219D01*
X513448D01*
X514596Y475926D01*
X514596Y474949D01*
Y470926D01*
X519096D01*
Y475926D01*
X517926D01*
X517595Y476702D01*
X517536Y477196D01*
X519038Y478697D01*
X519326Y479394D01*
X514193D01*
Y481935D01*
X511652D01*
Y487068D01*
D02*
G37*
G36*
X507999Y473225D02*
X501249D01*
Y467475D01*
X507999D01*
Y473225D01*
D02*
G37*
G36*
X496169D02*
X489419D01*
Y467475D01*
X496169D01*
Y473225D01*
D02*
G37*
G36*
X508345Y465133D02*
Y462539D01*
X510939D01*
X510650Y463236D01*
X509043Y464844D01*
X508345Y465133D01*
D02*
G37*
G36*
X503265D02*
X502568Y464844D01*
X500961Y463236D01*
X500672Y462539D01*
X503265D01*
Y465133D01*
D02*
G37*
G36*
X519096Y465846D02*
X514596D01*
Y460846D01*
X519096D01*
Y465846D01*
D02*
G37*
G36*
X510939Y457459D02*
X508345D01*
Y454865D01*
X509043Y455154D01*
X510650Y456762D01*
X510939Y457459D01*
D02*
G37*
G36*
X503265D02*
X500672D01*
X500961Y456762D01*
X502568Y455154D01*
X503265Y454865D01*
Y457459D01*
D02*
G37*
G36*
X1096377Y450695D02*
X1095127D01*
Y449679D01*
X1072707D01*
Y450695D01*
X1071457D01*
Y449680D01*
X1071143D01*
Y438155D01*
Y426631D01*
X1071457D01*
Y425615D01*
X1072707D01*
Y426631D01*
X1095127D01*
Y425615D01*
X1096377D01*
Y426631D01*
X1096692D01*
Y438155D01*
Y449680D01*
X1096377D01*
Y450695D01*
D02*
G37*
G36*
X1066377D02*
X1065127D01*
Y449679D01*
X1042707D01*
Y450695D01*
X1041457D01*
Y449680D01*
X1041143D01*
Y438155D01*
Y426631D01*
X1041457D01*
Y425615D01*
X1042707D01*
Y426631D01*
X1065127D01*
Y425615D01*
X1066377D01*
Y426631D01*
X1066692D01*
Y438155D01*
Y449680D01*
X1066377D01*
Y450695D01*
D02*
G37*
G36*
X1036377D02*
X1035127D01*
Y449679D01*
X1012707D01*
Y450695D01*
X1011457D01*
Y449680D01*
X1011143D01*
Y438155D01*
Y426631D01*
X1011457D01*
Y425615D01*
X1012707D01*
Y426631D01*
X1035127D01*
Y425615D01*
X1036377D01*
Y426631D01*
X1036692D01*
Y438155D01*
Y449680D01*
X1036377D01*
Y450695D01*
D02*
G37*
G36*
X881377D02*
X880127D01*
Y449679D01*
X857707D01*
Y450695D01*
X856457D01*
Y449680D01*
X856143D01*
Y438155D01*
Y426631D01*
X856457D01*
Y425615D01*
X857707D01*
Y426631D01*
X880127D01*
Y425615D01*
X881377D01*
Y426631D01*
X881692D01*
Y438155D01*
Y449680D01*
X881377D01*
Y450695D01*
D02*
G37*
G36*
X851377D02*
X850127D01*
Y449679D01*
X827707D01*
Y450695D01*
X826457D01*
Y449680D01*
X826143D01*
Y438155D01*
Y426631D01*
X826457D01*
Y425615D01*
X827707D01*
Y426631D01*
X850127D01*
Y425615D01*
X851377D01*
Y426631D01*
X851692D01*
Y438155D01*
Y449680D01*
X851377D01*
Y450695D01*
D02*
G37*
G36*
X821377D02*
X820127D01*
Y449679D01*
X797707D01*
Y450695D01*
X796457D01*
Y449680D01*
X796143D01*
Y438155D01*
Y426631D01*
X796457D01*
Y425615D01*
X797707D01*
Y426631D01*
X820127D01*
Y425615D01*
X821377D01*
Y426631D01*
X821692D01*
Y438155D01*
Y449680D01*
X821377D01*
Y450695D01*
D02*
G37*
G36*
X509563Y537878D02*
X493015D01*
Y523330D01*
X502906D01*
X517462Y508773D01*
X517462Y508773D01*
X517327Y507336D01*
X517144Y507112D01*
X509023D01*
X507289Y506767D01*
X505818Y505784D01*
X500573Y500539D01*
X490435D01*
Y485991D01*
X506983D01*
Y494130D01*
X510900Y498048D01*
X526758D01*
X527906Y497754D01*
X527906Y496738D01*
Y488610D01*
X529697D01*
Y476526D01*
X528676Y475926D01*
X528499Y475926D01*
X524176D01*
Y468386D01*
Y460846D01*
X528676D01*
X529007Y459714D01*
Y454763D01*
X517678Y443434D01*
X492684D01*
Y444297D01*
X477636D01*
Y438669D01*
X474970Y436003D01*
X473700Y436530D01*
Y437898D01*
X473118Y440070D01*
X471994Y442017D01*
X470404Y443607D01*
X468457Y444731D01*
X467700Y444934D01*
Y436773D01*
X465160D01*
Y434233D01*
X457000D01*
X457202Y433477D01*
X458327Y431530D01*
X459917Y429940D01*
X461162Y429221D01*
X460822Y427951D01*
X420178D01*
X409459Y438669D01*
Y444297D01*
X394411D01*
Y429249D01*
X400039D01*
X412708Y416580D01*
X412709Y416579D01*
X414088Y415521D01*
X415695Y414855D01*
X417419Y414628D01*
X417419Y414628D01*
X469676D01*
X469677Y414628D01*
X471400Y414855D01*
X473007Y415521D01*
X474386Y416579D01*
X487056Y429249D01*
X492684D01*
Y430112D01*
X515950D01*
X537833Y408229D01*
Y407843D01*
X538448Y405548D01*
X539636Y403491D01*
X541316Y401810D01*
X543374Y400622D01*
X545669Y400008D01*
X548045D01*
X550340Y400622D01*
X552398Y401810D01*
X554078Y403491D01*
X555266Y405548D01*
X555881Y407843D01*
Y410219D01*
X555266Y412515D01*
X554078Y414572D01*
X552398Y416252D01*
X550340Y417440D01*
X548045Y418055D01*
X546847D01*
X527264Y437638D01*
X538292Y448665D01*
X539470Y450429D01*
X539884Y452511D01*
Y461862D01*
X541160D01*
Y474910D01*
X540574D01*
Y492420D01*
X540479Y492900D01*
X540479Y497754D01*
X540479Y499024D01*
Y506136D01*
X540479Y507152D01*
X540479Y508422D01*
Y516550D01*
X527906D01*
Y516510D01*
X522544D01*
X509563Y529491D01*
Y537878D01*
D02*
G37*
G36*
X384475Y444934D02*
Y439313D01*
X390095D01*
X389893Y440070D01*
X388768Y442017D01*
X387178Y443607D01*
X385231Y444731D01*
X384475Y444934D01*
D02*
G37*
G36*
X462620Y444934D02*
X461864Y444731D01*
X459917Y443607D01*
X458327Y442017D01*
X457202Y440070D01*
X457000Y439313D01*
X462620D01*
Y444934D01*
D02*
G37*
G36*
X379395D02*
X378638Y444731D01*
X376691Y443607D01*
X375101Y442017D01*
X373977Y440070D01*
X373774Y439313D01*
X379395D01*
Y444934D01*
D02*
G37*
G36*
X390095Y434233D02*
X384475D01*
Y428613D01*
X385231Y428815D01*
X387178Y429940D01*
X388768Y431530D01*
X389893Y433477D01*
X390095Y434233D01*
D02*
G37*
G36*
X379395D02*
X373774D01*
X373977Y433477D01*
X375101Y431530D01*
X376691Y429940D01*
X378638Y428815D01*
X379395Y428613D01*
Y434233D01*
D02*
G37*
G36*
X1102707Y450695D02*
X1101457D01*
Y449680D01*
X1101143D01*
Y438155D01*
Y426631D01*
X1101457D01*
Y425615D01*
X1102707D01*
Y426631D01*
X1116691D01*
Y449679D01*
X1102707D01*
Y450695D01*
D02*
G37*
G36*
X982868Y460827D02*
X980999D01*
X979272Y460112D01*
X977950Y458790D01*
X977234Y457063D01*
Y455193D01*
X977950Y453466D01*
X979272Y452145D01*
X980999Y451429D01*
X982868D01*
X984595Y452145D01*
X985730Y453279D01*
X990431D01*
X991069Y452642D01*
Y438155D01*
Y394155D01*
X991143Y393779D01*
Y382631D01*
X1005127D01*
Y381615D01*
X1006377D01*
Y382631D01*
X1006692D01*
Y394155D01*
Y405680D01*
X1006377D01*
Y406695D01*
X1005127D01*
Y405679D01*
X996766D01*
Y426631D01*
X1005127D01*
Y425615D01*
X1006377D01*
Y426631D01*
X1006692D01*
Y438155D01*
Y449680D01*
X1006377D01*
Y450695D01*
X1005127D01*
Y449679D01*
X996766D01*
Y453821D01*
X996766Y453822D01*
X996549Y454912D01*
X995932Y455836D01*
X995932Y455836D01*
X993625Y458143D01*
X992701Y458760D01*
X991611Y458977D01*
X991611Y458977D01*
X985730D01*
X984595Y460112D01*
X982868Y460827D01*
D02*
G37*
G36*
X887707Y450695D02*
X886457D01*
Y449680D01*
X886143D01*
Y438155D01*
Y426631D01*
X886457D01*
Y425615D01*
X887707D01*
Y426631D01*
X901691D01*
Y449679D01*
X887707D01*
Y450695D01*
D02*
G37*
G36*
X769320Y460827D02*
X767451D01*
X765724Y460112D01*
X764402Y458790D01*
X763687Y457063D01*
Y455193D01*
X764402Y453466D01*
X765724Y452145D01*
X767451Y451429D01*
X769320D01*
X771047Y452145D01*
X772182Y453279D01*
X774948D01*
X776069Y452158D01*
Y438155D01*
Y394155D01*
X776143Y393779D01*
Y382631D01*
X790127D01*
Y381615D01*
X791377D01*
Y382631D01*
X791692D01*
Y394155D01*
Y405680D01*
X791377D01*
Y406695D01*
X790127D01*
Y405679D01*
X781766D01*
Y426631D01*
X790127D01*
Y425615D01*
X791377D01*
Y426631D01*
X791692D01*
Y438155D01*
Y449680D01*
X791377D01*
Y450695D01*
X790127D01*
Y449679D01*
X781766D01*
Y453338D01*
X781549Y454428D01*
X780932Y455353D01*
X780932Y455353D01*
X778142Y458143D01*
X777218Y458760D01*
X776127Y458977D01*
X776127Y458977D01*
X772182D01*
X771047Y460112D01*
X769320Y460827D01*
D02*
G37*
G36*
X1124268Y432929D02*
X1122567D01*
X1120996Y432278D01*
X1119794Y431076D01*
X1119143Y429505D01*
Y427805D01*
X1119794Y426234D01*
X1120996Y425032D01*
X1122567Y424381D01*
X1124268D01*
X1125838Y425032D01*
X1127041Y426234D01*
X1127691Y427805D01*
Y429505D01*
X1127041Y431076D01*
X1125838Y432278D01*
X1124268Y432929D01*
D02*
G37*
G36*
X985267D02*
X983567D01*
X981996Y432278D01*
X980794Y431076D01*
X980143Y429505D01*
Y427805D01*
X980794Y426234D01*
X981996Y425032D01*
X983567Y424381D01*
X985267D01*
X986838Y425032D01*
X988041Y426234D01*
X988691Y427805D01*
Y429505D01*
X988041Y431076D01*
X986838Y432278D01*
X985267Y432929D01*
D02*
G37*
G36*
X909268D02*
X907567D01*
X905996Y432278D01*
X904794Y431076D01*
X904143Y429505D01*
Y427805D01*
X904794Y426234D01*
X905996Y425032D01*
X907567Y424381D01*
X909268D01*
X910838Y425032D01*
X912041Y426234D01*
X912691Y427805D01*
Y429505D01*
X912041Y431076D01*
X910838Y432278D01*
X909268Y432929D01*
D02*
G37*
G36*
X770267D02*
X768567D01*
X766996Y432278D01*
X765794Y431076D01*
X765143Y429505D01*
Y427805D01*
X765794Y426234D01*
X766996Y425032D01*
X768567Y424381D01*
X770267D01*
X771838Y425032D01*
X773041Y426234D01*
X773691Y427805D01*
Y429505D01*
X773041Y431076D01*
X771838Y432278D01*
X770267Y432929D01*
D02*
G37*
G36*
X1056086Y421262D02*
Y418668D01*
X1058680D01*
X1058391Y419366D01*
X1056784Y420973D01*
X1056086Y421262D01*
D02*
G37*
G36*
X1051006D02*
X1050309Y420973D01*
X1048701Y419366D01*
X1048412Y418668D01*
X1051006D01*
Y421262D01*
D02*
G37*
G36*
X878667D02*
Y418668D01*
X881261D01*
X880972Y419366D01*
X879365Y420973D01*
X878667Y421262D01*
D02*
G37*
G36*
X873587D02*
X872890Y420973D01*
X871282Y419366D01*
X870993Y418668D01*
X873587D01*
Y421262D01*
D02*
G37*
G36*
X1099957Y420617D02*
Y418023D01*
X1102551D01*
X1102262Y418720D01*
X1100654Y420328D01*
X1099957Y420617D01*
D02*
G37*
G36*
X1094877D02*
X1094180Y420328D01*
X1092572Y418720D01*
X1092283Y418023D01*
X1094877D01*
Y420617D01*
D02*
G37*
G36*
X1010925D02*
Y418023D01*
X1013519D01*
X1013230Y418720D01*
X1011622Y420328D01*
X1010925Y420617D01*
D02*
G37*
G36*
X1005845D02*
X1005148Y420328D01*
X1003540Y418720D01*
X1003251Y418023D01*
X1005845D01*
Y420617D01*
D02*
G37*
G36*
X841248D02*
Y418023D01*
X843842D01*
X843553Y418720D01*
X841945Y420328D01*
X841248Y420617D01*
D02*
G37*
G36*
X836168D02*
X835471Y420328D01*
X833863Y418720D01*
X833574Y418023D01*
X836168D01*
Y420617D01*
D02*
G37*
G36*
X1058680Y413588D02*
X1056086D01*
Y410994D01*
X1056784Y411283D01*
X1058391Y412891D01*
X1058680Y413588D01*
D02*
G37*
G36*
X1051006D02*
X1048412D01*
X1048701Y412891D01*
X1050309Y411283D01*
X1051006Y410994D01*
Y413588D01*
D02*
G37*
G36*
X881261D02*
X878667D01*
Y410994D01*
X879365Y411283D01*
X880972Y412891D01*
X881261Y413588D01*
D02*
G37*
G36*
X873587D02*
X870993D01*
X871282Y412891D01*
X872890Y411283D01*
X873587Y410994D01*
Y413588D01*
D02*
G37*
G36*
X1102551Y412943D02*
X1099957D01*
Y410349D01*
X1100654Y410638D01*
X1102262Y412246D01*
X1102551Y412943D01*
D02*
G37*
G36*
X1094877D02*
X1092283D01*
X1092572Y412246D01*
X1094180Y410638D01*
X1094877Y410349D01*
Y412943D01*
D02*
G37*
G36*
X1013519D02*
X1010925D01*
Y410349D01*
X1011622Y410638D01*
X1013230Y412246D01*
X1013519Y412943D01*
D02*
G37*
G36*
X1005845D02*
X1003251D01*
X1003540Y412246D01*
X1005148Y410638D01*
X1005845Y410349D01*
Y412943D01*
D02*
G37*
G36*
X843842D02*
X841248D01*
Y410349D01*
X841945Y410638D01*
X843553Y412246D01*
X843842Y412943D01*
D02*
G37*
G36*
X836168D02*
X833574D01*
X833863Y412246D01*
X835471Y410638D01*
X836168Y410349D01*
Y412943D01*
D02*
G37*
G36*
X1096377Y406695D02*
X1095127D01*
Y405679D01*
X1072707D01*
Y406695D01*
X1071457D01*
Y405680D01*
X1071143D01*
Y394155D01*
Y382631D01*
X1071457D01*
Y381615D01*
X1072707D01*
Y382631D01*
X1095127D01*
Y381615D01*
X1096377D01*
Y382631D01*
X1096692D01*
Y394155D01*
Y405680D01*
X1096377D01*
Y406695D01*
D02*
G37*
G36*
X1066377D02*
X1065127D01*
Y405679D01*
X1042707D01*
Y406695D01*
X1041457D01*
Y405680D01*
X1041143D01*
Y394155D01*
Y382631D01*
X1041457D01*
Y381615D01*
X1042707D01*
Y382631D01*
X1065127D01*
Y381615D01*
X1066377D01*
Y382631D01*
X1066692D01*
Y394155D01*
Y405680D01*
X1066377D01*
Y406695D01*
D02*
G37*
G36*
X1036377D02*
X1035127D01*
Y405679D01*
X1012707D01*
Y406695D01*
X1011457D01*
Y405680D01*
X1011143D01*
Y394155D01*
Y382631D01*
X1011457D01*
Y381615D01*
X1012707D01*
Y382631D01*
X1035127D01*
Y381615D01*
X1036377D01*
Y382631D01*
X1036692D01*
Y394155D01*
Y405680D01*
X1036377D01*
Y406695D01*
D02*
G37*
G36*
X881377D02*
X880127D01*
Y405679D01*
X857707D01*
Y406695D01*
X856457D01*
Y405680D01*
X856143D01*
Y394155D01*
Y382631D01*
X856457D01*
Y381615D01*
X857707D01*
Y382631D01*
X880127D01*
Y381615D01*
X881377D01*
Y382631D01*
X881692D01*
Y394155D01*
Y405680D01*
X881377D01*
Y406695D01*
D02*
G37*
G36*
X851377D02*
X850127D01*
Y405679D01*
X827707D01*
Y406695D01*
X826457D01*
Y405680D01*
X826143D01*
Y394155D01*
Y382631D01*
X826457D01*
Y381615D01*
X827707D01*
Y382631D01*
X850127D01*
Y381615D01*
X851377D01*
Y382631D01*
X851692D01*
Y394155D01*
Y405680D01*
X851377D01*
Y406695D01*
D02*
G37*
G36*
X821377D02*
X820127D01*
Y405679D01*
X797707D01*
Y406695D01*
X796457D01*
Y405680D01*
X796143D01*
Y394155D01*
Y382631D01*
X796457D01*
Y381615D01*
X797707D01*
Y382631D01*
X820127D01*
Y381615D01*
X821377D01*
Y382631D01*
X821692D01*
Y394155D01*
Y405680D01*
X821377D01*
Y406695D01*
D02*
G37*
G36*
X1102707D02*
X1101457D01*
Y405680D01*
X1101143D01*
Y394155D01*
Y382631D01*
X1101457D01*
Y381615D01*
X1102707D01*
Y382631D01*
X1116691D01*
Y405679D01*
X1102707D01*
Y406695D01*
D02*
G37*
G36*
X887707D02*
X886457D01*
Y405680D01*
X886143D01*
Y394155D01*
Y382631D01*
X886457D01*
Y381615D01*
X887707D01*
Y382631D01*
X901691D01*
Y405679D01*
X887707D01*
Y406695D01*
D02*
G37*
%LPD*%
G36*
X402524Y1526310D02*
Y1515109D01*
X401350Y1514623D01*
X401260Y1514713D01*
X399505Y1515440D01*
X397606D01*
X395851Y1514713D01*
X395135Y1513997D01*
X394306Y1513494D01*
X393476Y1513997D01*
X392760Y1514713D01*
X391005Y1515440D01*
X389106D01*
X387351Y1514713D01*
X386635Y1513997D01*
X385806Y1513494D01*
X384976Y1513997D01*
X384260Y1514713D01*
X382505Y1515440D01*
X380606D01*
X378851Y1514713D01*
X378135Y1513997D01*
X377306Y1513494D01*
X376476Y1513997D01*
X375760Y1514713D01*
X374005Y1515440D01*
X372106D01*
X370351Y1514713D01*
X370261Y1514623D01*
X369088Y1515109D01*
Y1526310D01*
X369855Y1527078D01*
X401756D01*
X402524Y1526310D01*
D02*
G37*
G36*
X390923Y830247D02*
Y827168D01*
X368499Y804745D01*
X354846D01*
X354278Y805780D01*
Y812463D01*
X366482Y824667D01*
X382396D01*
X383585Y824904D01*
X384593Y825577D01*
X389749Y830733D01*
X390923Y830247D01*
D02*
G37*
G36*
X586139Y695794D02*
X592257Y689676D01*
Y667741D01*
X594837Y665160D01*
Y656128D01*
X573547D01*
Y716128D01*
X584855Y727436D01*
X586139D01*
Y695794D01*
D02*
G37*
G36*
X608386Y622579D02*
Y616773D01*
Y612257D01*
Y544515D01*
X586450D01*
Y579999D01*
X587096Y580644D01*
Y614837D01*
X586450Y615483D01*
Y627741D01*
X596128D01*
X608386Y622579D01*
D02*
G37*
G36*
X568888Y612729D02*
Y583368D01*
X572257Y579999D01*
Y546451D01*
X562579D01*
X543225Y565805D01*
Y612257D01*
X558709Y627741D01*
X568386D01*
X568888Y612729D01*
D02*
G37*
D12*
X381420Y1428384D02*
X383235Y1426569D01*
Y907762D02*
Y1426569D01*
X324515Y1428384D02*
X381420D01*
X364515Y908385D02*
X379354Y893547D01*
X1048385Y714837D02*
X1048897Y715350D01*
Y745425D01*
X1043145Y732942D02*
X1043917Y733714D01*
X1042416Y730321D02*
X1043145Y731050D01*
Y732942D01*
X1043917Y733714D02*
Y754155D01*
X1063869Y704738D02*
X1064031Y704901D01*
X1058062Y725805D02*
Y726836D01*
X1058917Y727691D01*
Y754155D01*
X1063917Y734446D02*
X1064031Y734332D01*
Y704901D02*
Y734332D01*
X1063869Y673547D02*
Y704738D01*
X758917Y681466D02*
Y754155D01*
Y681466D02*
X759998Y680385D01*
Y679353D02*
Y680385D01*
X766450Y647029D02*
Y696406D01*
X803224Y647029D02*
Y690520D01*
X940643Y647029D02*
Y812783D01*
X960643Y781289D02*
X962466Y783111D01*
X994075D01*
X998897Y787934D02*
Y798135D01*
X998917Y798155D01*
X1003897Y787186D02*
Y798135D01*
X995758Y779047D02*
X1003897Y787186D01*
X968385Y624515D02*
Y777559D01*
X994075Y783111D02*
X998897Y787934D01*
X968385Y777559D02*
X969873Y779047D01*
X995758D01*
X1003897Y798135D02*
X1003917Y798155D01*
X960643Y665805D02*
Y781289D01*
X952901Y586450D02*
Y813547D01*
X968850Y829495D01*
X818063Y667095D02*
Y701932D01*
X640250Y904692D02*
X650789D01*
X646450Y519999D02*
X678708Y552257D01*
Y716128D01*
X743917Y781337D01*
Y798155D01*
X754385Y819546D02*
X758897Y815034D01*
Y798175D02*
Y815034D01*
Y798175D02*
X758917Y798155D01*
X762579Y827355D02*
Y828385D01*
X763897Y798175D02*
Y826036D01*
X762579Y827355D02*
X763897Y826036D01*
Y798175D02*
X763917Y798155D01*
X773917D02*
Y831500D01*
X772256Y833161D02*
X773917Y831500D01*
X772256Y833161D02*
Y834192D01*
X781051Y839348D02*
Y840379D01*
X778917Y798155D02*
Y837214D01*
X781051Y839348D01*
X792902Y842838D02*
Y843869D01*
X793917Y798155D02*
Y841823D01*
X792902Y842838D02*
X793917Y841823D01*
X786933Y861413D02*
X791611Y866092D01*
Y866612D01*
X786933Y841397D02*
Y861413D01*
Y841397D02*
X788917Y839412D01*
Y798155D02*
Y839412D01*
X797418Y852902D02*
X803917Y846402D01*
X819353Y831871D02*
Y832902D01*
X817255Y829772D02*
X819353Y831871D01*
X817255Y816144D02*
Y829772D01*
X818917Y798155D02*
Y814482D01*
X817255Y816144D02*
X818917Y814482D01*
X837418Y857677D02*
Y858708D01*
Y857677D02*
X840161Y854934D01*
Y816257D02*
Y854934D01*
X838917Y815014D02*
X840161Y816257D01*
X838917Y798155D02*
Y815014D01*
X823897Y798175D02*
Y820615D01*
X823224Y821289D02*
X823897Y820615D01*
X833917Y813382D02*
X834192Y813657D01*
X833917Y798155D02*
Y813382D01*
X834192Y813657D02*
Y821934D01*
X307981Y997417D02*
X330101D01*
X296507Y1008892D02*
X307981Y997417D01*
X724515Y816127D02*
X734192D01*
X292082Y1008892D02*
X296507D01*
X324132Y1019736D02*
Y1034292D01*
X303870Y927095D02*
X318709D01*
X346331Y954717D01*
Y1030669D01*
X319999Y919998D02*
X350396Y950394D01*
X297419Y1045159D02*
X331841D01*
X346331Y1030669D01*
X292082Y1050496D02*
X297419Y1045159D01*
X292082Y1050496D02*
Y1059692D01*
Y958092D02*
Y971435D01*
X324132Y969414D02*
Y983492D01*
X350396Y950394D02*
Y1077417D01*
X342721Y1085092D02*
X350396Y1077417D01*
X324132Y1085092D02*
X342721D01*
X330322Y861289D02*
Y922579D01*
X354459Y946716D01*
Y1248763D01*
X378843Y927608D02*
Y1403201D01*
X358523Y944974D02*
Y1281933D01*
X366651Y940785D02*
Y1330965D01*
X362588Y943232D02*
Y1293546D01*
X370715Y939101D02*
Y1344513D01*
X374780Y936714D02*
Y1387739D01*
X351612Y1251610D02*
X354459Y1248763D01*
X293570Y1251610D02*
X351612D01*
X292082Y1253098D02*
Y1262892D01*
Y1253098D02*
X293570Y1251610D01*
X336773Y877418D02*
Y923224D01*
X358523Y944974D01*
X346451Y927095D02*
X362588Y943232D01*
X358064Y914837D02*
Y926450D01*
X352095Y909193D02*
Y926228D01*
X358064Y926450D02*
X370715Y939101D01*
X346451Y891611D02*
Y927095D01*
X352095Y926228D02*
X366651Y940785D01*
X345806Y890966D02*
X346451Y891611D01*
X352165Y1288292D02*
X358523Y1281933D01*
X324132Y1288292D02*
X352165D01*
X808385Y857418D02*
X808897Y856906D01*
Y798175D02*
Y856906D01*
X356136Y1299997D02*
X362588Y1293546D01*
X296128Y1299997D02*
X356136D01*
X292082Y1404689D02*
X377356D01*
X371612Y920643D02*
X371879D01*
X324132Y1389892D02*
X372627D01*
X296128Y1350320D02*
X364909D01*
X364515Y908385D02*
Y926450D01*
X374780Y936714D01*
X371879Y920643D02*
X378843Y927608D01*
X324132Y1339092D02*
X358525D01*
X377356Y1404689D02*
X378843Y1403201D01*
X372627Y1389892D02*
X374780Y1387739D01*
X364909Y1350320D02*
X370715Y1344513D01*
X358525Y1339092D02*
X366651Y1330965D01*
X292082Y1304044D02*
X296128Y1299997D01*
X292082Y1304044D02*
Y1313692D01*
X352095Y909193D02*
X360644Y900643D01*
X292082Y1354366D02*
X296128Y1350320D01*
X292082Y1354366D02*
Y1364492D01*
X324132Y1428768D02*
X324515Y1428384D01*
X803917Y798155D02*
Y846402D01*
X808897Y798175D02*
X808917Y798155D01*
X748917Y716627D02*
Y754155D01*
Y716627D02*
X750484Y715061D01*
Y714030D02*
Y715061D01*
X743917Y601886D02*
Y754155D01*
X925159Y715482D02*
Y784097D01*
X911556Y797701D02*
X925159Y784097D01*
X911556Y797701D02*
Y887849D01*
X911644Y887937D02*
Y894299D01*
X911556Y887849D02*
X911644Y887937D01*
X907780Y897962D02*
X907981D01*
X911644Y894299D01*
X905350Y900392D02*
X907780Y897962D01*
X905350Y900392D02*
Y904692D01*
X934192Y705805D02*
Y780813D01*
X918050Y796954D02*
Y878692D01*
Y796954D02*
X934192Y780813D01*
X916772Y636773D02*
Y763224D01*
X900236Y691373D02*
Y714599D01*
X892901Y721934D02*
X900236Y714599D01*
X850405Y721934D02*
X892901D01*
X838917Y707917D02*
Y754155D01*
Y707917D02*
X839998Y706836D01*
Y705805D02*
Y706836D01*
X896886Y783111D02*
X916772Y763224D01*
X803062Y731058D02*
X803917Y731913D01*
Y754155D01*
X803062Y690683D02*
Y731058D01*
Y690683D02*
X803224Y690520D01*
X940643Y812783D02*
X943450Y815590D01*
Y878692D01*
X798708Y601289D02*
Y601586D01*
X793917Y606377D02*
X798708Y601586D01*
X793917Y606377D02*
Y754155D01*
X822579Y604678D02*
Y605546D01*
X946932Y598708D02*
X947578Y598063D01*
X946932Y598708D02*
X947095Y598871D01*
Y813488D01*
X949944Y816337D01*
Y875437D01*
X962444Y887937D01*
X958781Y897962D02*
X962444Y894299D01*
Y887937D02*
Y894299D01*
X956150Y900392D02*
X958580Y897962D01*
X958781D01*
X956150Y900392D02*
Y904692D01*
X788917Y666884D02*
Y754155D01*
Y666884D02*
X789031Y666771D01*
Y586450D02*
Y666771D01*
X772948Y668874D02*
X774192Y670117D01*
X778917Y754155D02*
X778937Y754135D01*
Y593963D02*
X779353Y593547D01*
X778937Y593963D02*
Y754135D01*
X772948Y604515D02*
Y668874D01*
X845292Y578576D02*
X950189D01*
X833917Y589951D02*
Y754155D01*
Y589951D02*
X845292Y578576D01*
X950189D02*
X950189Y578577D01*
X957279D01*
X957279Y578576D01*
X1092124D01*
X1132901Y619354D01*
X771291Y574512D02*
X1093866D01*
X743917Y601886D02*
X771291Y574512D01*
X1093866D02*
X1137417Y618063D01*
X963869Y801289D02*
X966618D01*
X968850Y829495D02*
Y878692D01*
X935482Y886375D02*
X937044Y887937D01*
X935482Y842579D02*
Y886375D01*
X773384Y734767D02*
X773917Y735301D01*
X773384Y670925D02*
Y734767D01*
X773917Y735301D02*
Y754155D01*
X822579Y605546D02*
X824032Y606999D01*
X1122831Y621037D02*
X1123559Y621766D01*
X1128078D01*
X1128837Y622525D01*
Y786234D01*
X1079353Y611612D02*
Y679191D01*
X1128837Y786234D02*
X1128961Y786359D01*
Y790951D01*
X1128837Y791076D02*
X1128961Y790951D01*
X1128837Y791076D02*
Y812316D01*
X1133025Y784675D02*
Y792635D01*
X1132901Y792759D02*
X1133025Y792635D01*
X1132901Y619354D02*
Y784551D01*
X1133025Y784675D01*
X1132901Y792759D02*
Y813999D01*
X1097928Y843224D02*
X1128837Y812316D01*
X1062034Y897962D02*
X1141933Y818063D01*
Y603870D02*
Y818063D01*
X1094643Y858063D02*
X1137417Y815289D01*
Y618063D02*
Y815289D01*
X1024514Y843224D02*
X1097928D01*
X1032256Y849676D02*
X1097224D01*
X1132901Y813999D01*
X1029030Y858063D02*
X1094643D01*
X994250Y878692D02*
X1003208D01*
X937044Y887937D02*
Y894299D01*
X987756Y849660D02*
X1001288Y836127D01*
X933180Y897962D02*
X933381D01*
X930750Y900392D02*
X933180Y897962D01*
X930750Y900392D02*
Y904692D01*
X933381Y897962D02*
X937044Y894299D01*
X1010966Y829031D02*
Y830062D01*
X1009381Y831647D02*
Y863027D01*
Y831647D02*
X1010966Y830062D01*
X987756Y849660D02*
Y887849D01*
X1006950Y904692D02*
X1015950D01*
X738917Y740208D02*
Y754155D01*
X731611Y732902D02*
X738917Y740208D01*
X723224Y732902D02*
X731611D01*
X1010869Y864514D02*
X1037417D01*
X1042620Y869717D01*
X1009381Y863027D02*
X1010869Y864514D01*
X1042620Y869717D02*
Y870474D01*
X1042620Y870474D01*
Y875118D01*
X1045050Y877548D02*
Y878692D01*
X1042620Y875118D02*
X1045050Y877548D01*
X1028401Y878692D02*
X1029030Y878063D01*
X1019650Y878692D02*
X1028401D01*
X823917Y705091D02*
X824032Y704977D01*
Y606999D02*
Y704977D01*
X823917Y705091D02*
Y754155D01*
X808917Y720112D02*
Y754155D01*
Y720112D02*
X809031Y719999D01*
X886156Y860292D02*
Y887849D01*
X892125Y863869D02*
X892388Y864132D01*
Y878429D02*
X892650Y878692D01*
X886156Y860292D02*
X890321Y856127D01*
X892388Y864132D02*
Y878429D01*
X886156Y887849D02*
X886244Y887937D01*
X890321Y856127D02*
X899998D01*
X882581Y897962D02*
X886244Y894299D01*
X1002579Y730321D02*
Y731352D01*
X882380Y897962D02*
X882581D01*
X886244Y887937D02*
Y894299D01*
X1002579Y731352D02*
X1003917Y732691D01*
X966618Y801289D02*
X972215Y806885D01*
X993897D01*
X1057750Y900392D02*
Y904692D01*
Y900392D02*
X1060180Y897962D01*
X1062034D01*
X773384Y670925D02*
X774192Y670117D01*
X475150Y878692D02*
X475779Y878063D01*
X483870D01*
X1073546Y655000D02*
Y700836D01*
X1078917Y679626D02*
Y754155D01*
X1073384Y654837D02*
X1073546Y655000D01*
X1078917Y679626D02*
X1079353Y679191D01*
X488027Y904514D02*
X496773D01*
X487850Y904692D02*
X488027Y904514D01*
X1110965Y618708D02*
X1111128Y618871D01*
Y681851D01*
X1108917Y684062D02*
X1111128Y681851D01*
X1108917Y684062D02*
Y754155D01*
X1105159Y634192D02*
Y635223D01*
X1103917Y754155D02*
X1103937Y754135D01*
X1103917Y636465D02*
X1105159Y635223D01*
X1103917Y636465D02*
Y754155D01*
X500566Y878708D02*
X509676D01*
X500550Y878692D02*
X500566Y878708D01*
X993917Y754155D02*
Y754172D01*
X993897Y754192D02*
X993917Y754172D01*
X980643Y754192D02*
X993897D01*
X513718Y905160D02*
X521934D01*
X513250Y904692D02*
X513718Y905160D01*
X539118D02*
X547096D01*
X525950Y878692D02*
X525966Y878708D01*
X536128D01*
X853760Y783111D02*
X896886D01*
X848937Y787934D02*
X853760Y783111D01*
X848917Y798155D02*
X848937Y798135D01*
Y787934D02*
Y798135D01*
X538650Y904692D02*
X539118Y905160D01*
X640250Y904692D02*
X640427Y904514D01*
X738917Y798155D02*
Y811402D01*
X734192Y816127D02*
X738917Y811402D01*
X1088385Y643870D02*
Y644901D01*
X1087577Y645708D02*
X1088385Y644901D01*
X1087577Y645708D02*
Y713396D01*
X1088917Y714736D01*
Y754155D01*
X589627Y904514D02*
X602579D01*
X589450Y904692D02*
X589627Y904514D01*
X763917Y698939D02*
X766450Y696406D01*
X763917Y698939D02*
Y754155D01*
X602811Y879353D02*
X612257D01*
X602150Y878692D02*
X602811Y879353D01*
X1073917Y701207D02*
Y754155D01*
X1073546Y700836D02*
X1073917Y701207D01*
X615673Y903869D02*
X625160D01*
X614850Y904692D02*
X615673Y903869D01*
X1029030Y661934D02*
Y704513D01*
X1028917Y704626D02*
Y754155D01*
Y704626D02*
X1029030Y704513D01*
X628179Y878063D02*
X636773D01*
X627550Y878692D02*
X628179Y878063D01*
X817900Y702094D02*
X818063Y701932D01*
X817900Y702094D02*
Y735171D01*
X818917Y736188D01*
Y754155D01*
X793917D02*
X793937Y754135D01*
X652950Y878692D02*
X652966Y878708D01*
X661289D01*
X1063917Y734446D02*
Y754155D01*
X665650Y904692D02*
X665827Y904514D01*
X673547D01*
X678366Y878708D02*
X687095D01*
X678350Y878692D02*
X678366Y878708D01*
X1093546Y685160D02*
X1093917Y685531D01*
Y754155D01*
X691050Y904692D02*
X691227Y904514D01*
X700644D01*
X900236Y691373D02*
X900643Y690966D01*
X848917Y723422D02*
X850405Y721934D01*
X848917Y723422D02*
Y754155D01*
X703766Y878708D02*
X713547D01*
X703750Y878692D02*
X703766Y878708D01*
X1019998Y698708D02*
X1020161Y698871D01*
Y732794D01*
X1018917Y734037D02*
X1020161Y732794D01*
X1018917Y734037D02*
Y754155D01*
X716450Y904692D02*
X716628Y904514D01*
X729676D01*
X841850Y882992D02*
X844280Y885422D01*
X844481D01*
X848200Y894243D02*
X851919Y897962D01*
X852120D01*
X854550Y900392D02*
Y904692D01*
X844481Y885422D02*
X848200Y889141D01*
X841850Y878692D02*
Y882992D01*
X848200Y889141D02*
Y894243D01*
X852120Y897962D02*
X854550Y900392D01*
X879950D02*
X882380Y897962D01*
X879950Y900392D02*
Y904692D01*
X1013917Y730595D02*
X1014192Y730321D01*
X1013917Y730595D02*
Y754155D01*
X987844Y887937D02*
Y894299D01*
X987756Y887849D02*
X987844Y887937D01*
X984181Y897962D02*
X987844Y894299D01*
X983980Y897962D02*
X984181D01*
X981550Y900392D02*
Y904692D01*
Y900392D02*
X983980Y897962D01*
X1032818Y905160D02*
X1044514D01*
X1032350Y904692D02*
X1032818Y905160D01*
X1003917Y732691D02*
Y754155D01*
X768386Y456128D02*
X776127D01*
X778917Y453338D01*
Y438155D02*
Y453338D01*
X981934Y456128D02*
X991611D01*
X993917Y438155D02*
Y453822D01*
X991611Y456128D02*
X993917Y453822D01*
X778917Y394155D02*
Y438155D01*
X993917Y394155D02*
Y438155D01*
X571131Y511978D02*
X580131Y520978D01*
X588052D02*
X588386Y520644D01*
X580131Y520978D02*
X588052D01*
X743897Y798175D02*
X743917Y798155D01*
X561752Y511978D02*
X571131D01*
X1108917Y754155D02*
X1108937Y754135D01*
X823897Y798175D02*
X823917Y798155D01*
X551128Y643224D02*
X551596Y643692D01*
X563160D02*
X563628Y644160D01*
D16*
X356056Y1510666D02*
D03*
X364556D02*
D03*
X373056D02*
D03*
X381556D02*
D03*
X390056D02*
D03*
X398556D02*
D03*
X407056D02*
D03*
X415556D02*
D03*
Y1497166D02*
D03*
X407056D02*
D03*
X398556D02*
D03*
X390056D02*
D03*
X381556D02*
D03*
X373056D02*
D03*
X364556D02*
D03*
X356056D02*
D03*
D17*
X429056Y1506966D02*
D03*
X342556D02*
D03*
D18*
X429056Y1540766D02*
D03*
X342556D02*
D03*
D27*
X389458Y834837D02*
Y1463441D01*
X394030Y825881D02*
Y1467094D01*
X292082Y1404689D02*
Y1415292D01*
X381921Y1470978D02*
X389458Y1463441D01*
X381921Y1470978D02*
Y1478075D01*
X381290Y1478707D02*
X381921Y1478075D01*
X382396Y827775D02*
X389458Y834837D01*
X365195Y827775D02*
X382396D01*
X351170Y813750D02*
X365195Y827775D01*
X351170Y783021D02*
Y813750D01*
Y783021D02*
X363870Y770321D01*
Y795721D02*
X394030Y825881D01*
X390687Y1470437D02*
X394030Y1467094D01*
X390687Y1470437D02*
Y1479099D01*
X390056Y1479731D02*
X390687Y1479099D01*
X378947Y1490868D02*
X448935D01*
X457418Y1499352D01*
X373056Y1496760D02*
X378947Y1490868D01*
X324132Y1428768D02*
Y1440692D01*
X381556Y1497166D02*
X390056Y1510666D01*
X373056Y1496760D02*
Y1497166D01*
X591128Y644160D02*
X591652Y644684D01*
X604080Y647095D02*
X605966Y645208D01*
X591652Y644684D02*
X605442D01*
X604080Y647095D02*
Y660644D01*
X605079Y661644D01*
Y676418D01*
X606079Y677418D01*
X605442Y644684D02*
X605966Y645208D01*
D28*
X518709Y547096D02*
X547972Y517832D01*
Y502262D02*
Y517832D01*
Y502262D02*
X556926Y493309D01*
X399999Y580644D02*
Y1479352D01*
X406451Y574192D02*
X516773D01*
X399999Y580644D02*
X406451Y574192D01*
X576402Y677418D02*
X589080D01*
Y694212D02*
Y699886D01*
Y677418D02*
Y694212D01*
X596934Y702066D01*
X589060Y694192D02*
X589080Y694212D01*
Y699886D02*
X596934Y707740D01*
X576402Y694192D02*
X589060D01*
X596934Y702066D02*
Y707740D01*
X596289Y708386D02*
X596934Y707740D01*
X593708Y710966D02*
X596289Y708386D01*
X576402Y710966D02*
X593708D01*
X576402Y660644D02*
X591079D01*
X589080Y663144D02*
X591079Y661144D01*
X589080Y663144D02*
Y677418D01*
X591079Y660644D02*
Y661144D01*
X576402Y694192D02*
Y710966D01*
Y677418D02*
Y694192D01*
Y660644D02*
Y677418D01*
X516773Y574192D02*
X518709Y572257D01*
X364682Y1494658D02*
Y1497040D01*
X364556Y1497166D02*
X364682Y1497040D01*
X364556Y1510666D02*
Y1528188D01*
X367978Y1531610D01*
X403633D01*
X407056Y1510666D02*
Y1528188D01*
X403633Y1531610D02*
X407056Y1528188D01*
X364556Y1497166D02*
Y1510666D01*
X407056Y1497166D02*
Y1510666D01*
X556926Y493309D02*
X563339D01*
X505118Y527526D02*
X520667Y511978D01*
X502289Y530604D02*
X505118Y527775D01*
X520667Y511978D02*
X534193D01*
X505118Y527526D02*
Y527775D01*
X501289Y530604D02*
X502289D01*
X499709Y493265D02*
X509023Y502580D01*
X534193D01*
X498709Y493265D02*
X499709D01*
X564689Y491959D02*
X578063D01*
X563339Y493309D02*
X564689Y491959D01*
X578063D02*
X593547D01*
X593422Y492084D02*
X593547Y491959D01*
X576402Y640636D02*
Y660644D01*
Y640636D02*
X582299Y634739D01*
X591049D01*
X591128Y634660D01*
D29*
X611660Y567208D02*
Y586531D01*
X602096Y589192D02*
X608999D01*
X611660Y586531D01*
Y567208D02*
X615644Y563225D01*
Y534838D02*
Y563225D01*
X518709Y547096D02*
Y572257D01*
X591365Y563225D02*
X615644D01*
X845160Y904514D02*
X854373D01*
X832256Y878708D02*
X841834D01*
X854373Y904514D02*
X854550Y904692D01*
X841834Y878708D02*
X841850Y878692D01*
X546451Y409031D02*
X546857D01*
X518709Y436773D02*
X546451Y409031D01*
X485160Y436773D02*
X518709D01*
X417419Y421289D02*
X469677D01*
X401935Y436773D02*
X417419Y421289D01*
X469677D02*
X485160Y436773D01*
D30*
X364686Y868051D02*
D03*
X781246Y890911D02*
D03*
X1172406Y864241D02*
D03*
D31*
X308107Y958092D02*
D03*
Y983492D02*
D03*
Y1008892D02*
D03*
Y1034292D02*
D03*
Y1059692D02*
D03*
Y1085092D02*
D03*
Y1110492D02*
D03*
Y1135892D02*
D03*
Y1161292D02*
D03*
Y1186692D02*
D03*
Y1212092D02*
D03*
Y1237492D02*
D03*
Y1262892D02*
D03*
Y1288292D02*
D03*
Y1313692D02*
D03*
Y1339092D02*
D03*
Y1364492D02*
D03*
Y1389892D02*
D03*
Y1415292D02*
D03*
Y1440692D02*
D03*
X1224793D02*
D03*
Y1415292D02*
D03*
Y1389892D02*
D03*
Y1364492D02*
D03*
Y1339092D02*
D03*
Y1313692D02*
D03*
Y1288292D02*
D03*
Y1262892D02*
D03*
Y1237492D02*
D03*
Y1212092D02*
D03*
Y1186692D02*
D03*
Y1161292D02*
D03*
Y1135892D02*
D03*
Y1110492D02*
D03*
Y1085092D02*
D03*
Y1059692D02*
D03*
Y1034292D02*
D03*
Y1008892D02*
D03*
Y983492D02*
D03*
Y958092D02*
D03*
D32*
X816450Y891692D02*
D03*
X829150D02*
D03*
X816450D02*
D03*
X829150D02*
D03*
X841850D02*
D03*
X854550D02*
D03*
X867250D02*
D03*
X879950D02*
D03*
X892650D02*
D03*
X905350D02*
D03*
X918050D02*
D03*
X930750D02*
D03*
X943450D02*
D03*
X956150D02*
D03*
X968850D02*
D03*
X981550D02*
D03*
X994250D02*
D03*
X1006950D02*
D03*
X1019650D02*
D03*
X1032350D02*
D03*
X1045050D02*
D03*
X1057750D02*
D03*
X475150D02*
D03*
X487850D02*
D03*
X475150D02*
D03*
X487850D02*
D03*
X500550D02*
D03*
X513250D02*
D03*
X525950D02*
D03*
X538650D02*
D03*
X551350D02*
D03*
X564050D02*
D03*
X576750D02*
D03*
X589450D02*
D03*
X602150D02*
D03*
X614850D02*
D03*
X627550D02*
D03*
X640250D02*
D03*
X652950D02*
D03*
X665650D02*
D03*
X678350D02*
D03*
X691050D02*
D03*
X703750D02*
D03*
X716450D02*
D03*
D33*
X572257Y409031D02*
D03*
D34*
X546857D02*
D03*
X363870Y770321D02*
D03*
D35*
X308107Y894592D02*
D03*
Y1504192D02*
D03*
X1224793D02*
D03*
Y894592D02*
D03*
D36*
X465160Y436773D02*
D03*
X381935D02*
D03*
D37*
X485160D02*
D03*
X401935D02*
D03*
D38*
X363870Y795721D02*
D03*
D39*
X611660Y586531D02*
D03*
X615644Y534838D02*
D03*
X539354Y545160D02*
D03*
X578063Y625160D02*
D03*
X383235Y907762D02*
D03*
X379354Y893547D02*
D03*
X1042416Y730321D02*
D03*
X1048385Y714837D02*
D03*
X1058062Y725805D02*
D03*
X759998Y679353D02*
D03*
X766450Y647029D02*
D03*
X803224D02*
D03*
X940643D02*
D03*
X960643Y665805D02*
D03*
X818063Y667095D02*
D03*
X650789Y904692D02*
D03*
X646450Y519999D02*
D03*
X781051Y840379D02*
D03*
X797418Y852902D02*
D03*
X834192Y821934D02*
D03*
X819353Y832902D02*
D03*
X823224Y821289D02*
D03*
X532257Y794837D02*
D03*
X495456Y804487D02*
D03*
X330101Y997417D02*
D03*
X515483Y803869D02*
D03*
X542580Y871611D02*
D03*
X837418Y858708D02*
D03*
X762579Y828385D02*
D03*
X772256Y834192D02*
D03*
X724515Y816127D02*
D03*
X754385Y819546D02*
D03*
X324132Y1019736D02*
D03*
X303870Y927095D02*
D03*
X319999Y919998D02*
D03*
X292082Y971435D02*
D03*
X324132Y969414D02*
D03*
X330322Y861289D02*
D03*
X336773Y877418D02*
D03*
X345806Y890966D02*
D03*
X792902Y843869D02*
D03*
X791611Y866612D02*
D03*
X808385Y857418D02*
D03*
X371612Y920643D02*
D03*
X360644Y900643D02*
D03*
X358064Y914837D02*
D03*
X381290Y1478707D02*
D03*
X390056Y1479731D02*
D03*
X399999Y1479352D02*
D03*
X750484Y714030D02*
D03*
X925159Y715482D02*
D03*
X839998Y705805D02*
D03*
X934192D02*
D03*
X798708Y601289D02*
D03*
X822579Y604678D02*
D03*
X946932Y598708D02*
D03*
X779353Y593547D02*
D03*
X772948Y604515D02*
D03*
X789031Y586450D02*
D03*
X952901D02*
D03*
X935482Y842579D02*
D03*
X1122831Y621037D02*
D03*
X1079353Y611612D02*
D03*
X1141933Y603870D02*
D03*
X1024514Y843224D02*
D03*
X1032256Y849676D02*
D03*
X1029030Y858063D02*
D03*
X1003208Y878692D02*
D03*
X1001288Y836127D02*
D03*
X1010966Y829031D02*
D03*
X1015950Y904692D02*
D03*
X723224Y732902D02*
D03*
X1029030Y878063D02*
D03*
X809031Y719999D02*
D03*
X892125Y863869D02*
D03*
X899998Y856127D02*
D03*
X1002579Y730321D02*
D03*
X483870Y878063D02*
D03*
X1073384Y654837D02*
D03*
X496773Y904514D02*
D03*
X1105159Y634192D02*
D03*
X1110965Y618708D02*
D03*
X509676Y878708D02*
D03*
X980643Y754192D02*
D03*
X968385Y624515D02*
D03*
X521934Y905160D02*
D03*
X572902D02*
D03*
X585805Y878708D02*
D03*
X547096Y905160D02*
D03*
X536128Y878708D02*
D03*
X916772Y636773D02*
D03*
X754192Y776127D02*
D03*
X1088385Y643870D02*
D03*
X602579Y904514D02*
D03*
X612257Y879353D02*
D03*
X625160Y903869D02*
D03*
X1029030Y661934D02*
D03*
X636773Y878063D02*
D03*
X661289Y878708D02*
D03*
X1063869Y673547D02*
D03*
X673547Y904514D02*
D03*
X687095Y878708D02*
D03*
X1093546Y685160D02*
D03*
X700644Y904514D02*
D03*
X900643Y690966D02*
D03*
X713547Y878708D02*
D03*
X1019998Y698708D02*
D03*
X729676Y904514D02*
D03*
X604515Y619354D02*
D03*
X845160Y904514D02*
D03*
X832256Y878708D02*
D03*
X1014192Y730321D02*
D03*
X797418Y776127D02*
D03*
X1044514Y905160D02*
D03*
X768386Y456128D02*
D03*
X981934D02*
D03*
X457418Y1499352D02*
D03*
X538225Y621934D02*
D03*
X579515Y579354D02*
D03*
X550967Y630321D02*
D03*
X547096Y677418D02*
D03*
X479999Y544515D02*
D03*
X501289Y563870D02*
D03*
X505805Y459999D02*
D03*
X837418Y776773D02*
D03*
X838708Y415483D02*
D03*
X1097417D02*
D03*
X588386Y520644D02*
D03*
X1008385Y415483D02*
D03*
X876127Y416128D02*
D03*
X1053546D02*
D03*
X563601Y479139D02*
D03*
X562096Y525160D02*
D03*
X514193Y481935D02*
D03*
X546451Y709676D02*
D03*
X547257Y660644D02*
D03*
Y693547D02*
D03*
X551128Y643224D02*
D03*
X617579Y620644D02*
D03*
X1054191Y776127D02*
D03*
X1098062D02*
D03*
X1009030D02*
D03*
D40*
X963869Y801289D02*
D03*
X614837Y707740D02*
D03*
D41*
X292082Y958092D02*
D03*
X324132Y983492D02*
D03*
X292082Y1008892D02*
D03*
X324132Y1034292D02*
D03*
X292082Y1059692D02*
D03*
X324132Y1085092D02*
D03*
X292082Y1110492D02*
D03*
X324132Y1135892D02*
D03*
X292082Y1161292D02*
D03*
X324132Y1186692D02*
D03*
X292082Y1212092D02*
D03*
X324132Y1237492D02*
D03*
X292082Y1262892D02*
D03*
X324132Y1288292D02*
D03*
X292082Y1313692D02*
D03*
X324132Y1339092D02*
D03*
X292082Y1364492D02*
D03*
X324132Y1389892D02*
D03*
X292082Y1415292D02*
D03*
X324132Y1440692D02*
D03*
X1240818D02*
D03*
X1208768Y1415292D02*
D03*
X1240818Y1389892D02*
D03*
X1208768Y1364492D02*
D03*
X1240818Y1339092D02*
D03*
X1208768Y1313692D02*
D03*
X1240818Y1288292D02*
D03*
X1208768Y1262892D02*
D03*
X1240818Y1237492D02*
D03*
X1208768Y1212092D02*
D03*
X1240818Y1186692D02*
D03*
X1208768Y1161292D02*
D03*
X1240818Y1135892D02*
D03*
X1208768Y1110492D02*
D03*
X1240818Y1085092D02*
D03*
X1208768Y1059692D02*
D03*
X1240818Y1034292D02*
D03*
X1208768Y1008892D02*
D03*
X1240818Y983492D02*
D03*
X1208768Y958092D02*
D03*
D42*
X563628Y625160D02*
D03*
Y634660D02*
D03*
Y644160D02*
D03*
X591128D02*
D03*
Y634660D02*
D03*
Y625160D02*
D03*
D43*
X561752Y511978D02*
D03*
Y502580D02*
D03*
Y493182D02*
D03*
X534193D02*
D03*
Y502580D02*
D03*
Y511978D02*
D03*
D44*
X738917Y754155D02*
D03*
X743917D02*
D03*
X763917D02*
D03*
X748917D02*
D03*
X768917D02*
D03*
X758917D02*
D03*
X753917D02*
D03*
X773917D02*
D03*
X778917D02*
D03*
X798917D02*
D03*
X783917D02*
D03*
X803917D02*
D03*
X793917D02*
D03*
X788917D02*
D03*
X808917D02*
D03*
X813917D02*
D03*
X833917D02*
D03*
X818917D02*
D03*
X838917D02*
D03*
X828917D02*
D03*
X823917D02*
D03*
X843917D02*
D03*
X848917D02*
D03*
X853917D02*
D03*
X858917D02*
D03*
X738917Y798155D02*
D03*
X743917D02*
D03*
X763917D02*
D03*
X748917D02*
D03*
X768917D02*
D03*
X758917D02*
D03*
X753917D02*
D03*
X773917D02*
D03*
X778917D02*
D03*
X798917D02*
D03*
X783917D02*
D03*
X803917D02*
D03*
X793917D02*
D03*
X788917D02*
D03*
X808917D02*
D03*
X813917D02*
D03*
X833917D02*
D03*
X818917D02*
D03*
X838917D02*
D03*
X828917D02*
D03*
X823917D02*
D03*
X843917D02*
D03*
X848917D02*
D03*
X853917D02*
D03*
X858917D02*
D03*
X993917Y754155D02*
D03*
X998917D02*
D03*
X1018917D02*
D03*
X1003917D02*
D03*
X1023917D02*
D03*
X1013917D02*
D03*
X1008917D02*
D03*
X1028917D02*
D03*
X1033917D02*
D03*
X1053917D02*
D03*
X1038917D02*
D03*
X1058917D02*
D03*
X1048917D02*
D03*
X1043917D02*
D03*
X1063917D02*
D03*
X1068917D02*
D03*
X1088917D02*
D03*
X1073917D02*
D03*
X1093917D02*
D03*
X1083917D02*
D03*
X1078917D02*
D03*
X1098917D02*
D03*
X1103917D02*
D03*
X1108917D02*
D03*
X1113917D02*
D03*
X993917Y798155D02*
D03*
X998917D02*
D03*
X1018917D02*
D03*
X1003917D02*
D03*
X1023917D02*
D03*
X1013917D02*
D03*
X1008917D02*
D03*
X1028917D02*
D03*
X1033917D02*
D03*
X1053917D02*
D03*
X1038917D02*
D03*
X1058917D02*
D03*
X1048917D02*
D03*
X1043917D02*
D03*
X1063917D02*
D03*
X1068917D02*
D03*
X1088917D02*
D03*
X1073917D02*
D03*
X1093917D02*
D03*
X1083917D02*
D03*
X1078917D02*
D03*
X1098917D02*
D03*
X1103917D02*
D03*
X1108917D02*
D03*
X1113917D02*
D03*
X778917Y394155D02*
D03*
X783917D02*
D03*
X803917D02*
D03*
X788917D02*
D03*
X808917D02*
D03*
X798917D02*
D03*
X793917D02*
D03*
X813917D02*
D03*
X818917D02*
D03*
X838917D02*
D03*
X823917D02*
D03*
X843917D02*
D03*
X833917D02*
D03*
X828917D02*
D03*
X848917D02*
D03*
X853917D02*
D03*
X873917D02*
D03*
X858917D02*
D03*
X878917D02*
D03*
X868917D02*
D03*
X863917D02*
D03*
X883917D02*
D03*
X888917D02*
D03*
X893917D02*
D03*
X898917D02*
D03*
X778917Y438155D02*
D03*
X783917D02*
D03*
X803917D02*
D03*
X788917D02*
D03*
X808917D02*
D03*
X798917D02*
D03*
X793917D02*
D03*
X813917D02*
D03*
X818917D02*
D03*
X838917D02*
D03*
X823917D02*
D03*
X843917D02*
D03*
X833917D02*
D03*
X828917D02*
D03*
X848917D02*
D03*
X853917D02*
D03*
X873917D02*
D03*
X858917D02*
D03*
X878917D02*
D03*
X868917D02*
D03*
X863917D02*
D03*
X883917D02*
D03*
X888917D02*
D03*
X893917D02*
D03*
X898917D02*
D03*
X993917Y394155D02*
D03*
X998917D02*
D03*
X1018917D02*
D03*
X1003917D02*
D03*
X1023917D02*
D03*
X1013917D02*
D03*
X1008917D02*
D03*
X1028917D02*
D03*
X1033917D02*
D03*
X1053917D02*
D03*
X1038917D02*
D03*
X1058917D02*
D03*
X1048917D02*
D03*
X1043917D02*
D03*
X1063917D02*
D03*
X1068917D02*
D03*
X1088917D02*
D03*
X1073917D02*
D03*
X1093917D02*
D03*
X1083917D02*
D03*
X1078917D02*
D03*
X1098917D02*
D03*
X1103917D02*
D03*
X1108917D02*
D03*
X1113917D02*
D03*
X993917Y438155D02*
D03*
X998917D02*
D03*
X1018917D02*
D03*
X1003917D02*
D03*
X1023917D02*
D03*
X1013917D02*
D03*
X1008917D02*
D03*
X1028917D02*
D03*
X1033917D02*
D03*
X1053917D02*
D03*
X1038917D02*
D03*
X1058917D02*
D03*
X1048917D02*
D03*
X1043917D02*
D03*
X1063917D02*
D03*
X1068917D02*
D03*
X1088917D02*
D03*
X1073917D02*
D03*
X1093917D02*
D03*
X1083917D02*
D03*
X1078917D02*
D03*
X1098917D02*
D03*
X1103917D02*
D03*
X1108917D02*
D03*
X1113917D02*
D03*
D45*
X816450Y878692D02*
D03*
X829150Y904692D02*
D03*
X816450Y878692D02*
D03*
X829150Y904692D02*
D03*
X841850Y878692D02*
D03*
X854550Y904692D02*
D03*
X867250Y878692D02*
D03*
X879950Y904692D02*
D03*
X892650Y878692D02*
D03*
X905350Y904692D02*
D03*
X918050Y878692D02*
D03*
X930750Y904692D02*
D03*
X943450Y878692D02*
D03*
X956150Y904692D02*
D03*
X968850Y878692D02*
D03*
X981550Y904692D02*
D03*
X994250Y878692D02*
D03*
X1006950Y904692D02*
D03*
X1019650Y878692D02*
D03*
X1032350Y904692D02*
D03*
X1045050Y878692D02*
D03*
X1057750Y904692D02*
D03*
X475150Y878692D02*
D03*
X487850Y904692D02*
D03*
X475150Y878692D02*
D03*
X487850Y904692D02*
D03*
X500550Y878692D02*
D03*
X513250Y904692D02*
D03*
X525950Y878692D02*
D03*
X538650Y904692D02*
D03*
X551350Y878692D02*
D03*
X564050Y904692D02*
D03*
X576750Y878692D02*
D03*
X589450Y904692D02*
D03*
X602150Y878692D02*
D03*
X614850Y904692D02*
D03*
X627550Y878692D02*
D03*
X640250Y904692D02*
D03*
X652950Y878692D02*
D03*
X665650Y904692D02*
D03*
X678350Y878692D02*
D03*
X691050Y904692D02*
D03*
X703750Y878692D02*
D03*
X716450Y904692D02*
D03*
D46*
X576402Y694192D02*
D03*
X559402D02*
D03*
Y710966D02*
D03*
X576402D02*
D03*
X606079Y677418D02*
D03*
X589080D02*
D03*
X559402D02*
D03*
X576402D02*
D03*
X559402Y660644D02*
D03*
X576402D02*
D03*
D47*
X567665Y563225D02*
D03*
X591365D02*
D03*
D48*
X605966Y632208D02*
D03*
Y645208D02*
D03*
D49*
X535136Y468386D02*
D03*
X521636D02*
D03*
X577926Y594837D02*
D03*
X591426D02*
D03*
X577926Y609676D02*
D03*
X591426D02*
D03*
D50*
X498709Y475765D02*
D03*
Y493265D02*
D03*
X501289Y530604D02*
D03*
Y548104D02*
D03*
D51*
X593547Y505459D02*
D03*
Y491959D02*
D03*
X578063Y505459D02*
D03*
Y491959D02*
D03*
D52*
X591079Y660644D02*
D03*
X604080D02*
D03*
D53*
X596289Y708386D02*
D03*
X615644Y563225D02*
D03*
D54*
X549838Y602579D02*
D03*
D55*
X615644Y452418D02*
Y534838D01*
X596934Y707740D02*
X614837D01*
X572257Y409031D02*
X615644Y452418D01*
D56*
X563834Y634454D02*
X571350D01*
X577918Y625306D02*
X578063Y625160D01*
X571350Y634454D02*
X577918Y627887D01*
Y625306D02*
Y627887D01*
X563628Y634660D02*
X563834Y634454D01*
X550967Y630321D02*
X551173D01*
X555306Y634454D01*
X563422D01*
X563628Y634660D01*
D57*
X577926Y594837D02*
Y609676D01*
Y625023D01*
X578063Y625160D01*
X557288Y602579D02*
X563628Y608919D01*
X549838Y602579D02*
X557288D01*
X578063Y505459D02*
X593547D01*
X545470Y874502D02*
X551240D01*
X542580Y871611D02*
X545470Y874502D01*
X551240D02*
X551350Y874612D01*
X564050Y905050D02*
X564160Y905160D01*
X572902D01*
X564050Y904692D02*
Y905050D01*
X576750Y878692D02*
X576766Y878708D01*
X585805D01*
X551350Y874612D02*
Y878692D01*
X558688Y602579D02*
X565028Y596239D01*
X566575Y564315D02*
X567665Y563225D01*
X557288Y602579D02*
X558688D01*
X546637Y409252D02*
X546857Y409031D01*
X518709Y436773D02*
X534446Y452511D01*
Y467696D02*
X535136Y468386D01*
X534446Y452511D02*
Y467696D01*
X535136Y468386D02*
Y492420D01*
D58*
X591277Y609826D02*
X591426Y609676D01*
X591128Y625160D02*
X591277Y625011D01*
X591426Y609676D02*
Y610176D01*
X604272Y619111D02*
X604515Y619354D01*
X604272Y619597D02*
X604515Y619354D01*
X591128Y625160D02*
X593128D01*
X577563Y505459D02*
X578063D01*
X561752Y502580D02*
X574684D01*
X577563Y505459D01*
X591396Y563255D02*
Y594807D01*
X591365Y563225D02*
X591396Y563255D01*
Y594807D02*
X591426Y594837D01*
X551596Y643692D02*
X563160D01*
M02*
