G04*
G04 #@! TF.GenerationSoftware,Altium Limited,Altium Designer,22.7.1 (60)*
G04*
G04 Layer_Color=32896*
%FSLAX44Y44*%
%MOMM*%
G71*
G04*
G04 #@! TF.SameCoordinates,F0A3B908-A9A0-482C-9906-E7527CCB9396*
G04*
G04*
G04 #@! TF.FilePolarity,Positive*
G04*
G01*
G75*
%ADD12C,0.2000*%
%ADD14C,0.0254*%
G36*
X186306Y282026D02*
X236091D01*
Y325714D01*
X186306D01*
Y282026D01*
D02*
G37*
G36*
X250390Y358094D02*
X249883D01*
X249793Y358254D01*
X249689Y358406D01*
X249571Y358552D01*
X249454Y358677D01*
X249350Y358795D01*
X249301Y358836D01*
X249266Y358878D01*
X249232Y358913D01*
X249204Y358933D01*
X249190Y358947D01*
X249183Y358954D01*
X248996Y359114D01*
X248795Y359252D01*
X248601Y359384D01*
X248420Y359495D01*
X248344Y359537D01*
X248268Y359578D01*
X248199Y359620D01*
X248143Y359648D01*
X248095Y359669D01*
X248060Y359689D01*
X248039Y359696D01*
X248032Y359703D01*
Y360459D01*
X248171Y360404D01*
X248316Y360341D01*
X248455Y360272D01*
X248580Y360209D01*
X248691Y360147D01*
X248739Y360126D01*
X248781Y360098D01*
X248816Y360084D01*
X248836Y360071D01*
X248850Y360057D01*
X248857D01*
X249024Y359953D01*
X249169Y359856D01*
X249301Y359766D01*
X249405Y359682D01*
X249495Y359613D01*
X249558Y359565D01*
X249592Y359530D01*
X249606Y359516D01*
Y364515D01*
X250390D01*
Y358094D01*
D02*
G37*
G36*
X246742Y363760D02*
X243587D01*
Y358115D01*
X242741D01*
Y364515D01*
X246742D01*
Y363760D01*
D02*
G37*
G36*
X247504Y721185D02*
X246998D01*
X246908Y721345D01*
X246804Y721497D01*
X246686Y721643D01*
X246568Y721768D01*
X246464Y721885D01*
X246416Y721927D01*
X246381Y721969D01*
X246346Y722003D01*
X246318Y722024D01*
X246305Y722038D01*
X246298Y722045D01*
X246110Y722204D01*
X245909Y722343D01*
X245715Y722475D01*
X245535Y722586D01*
X245459Y722627D01*
X245382Y722669D01*
X245313Y722711D01*
X245258Y722738D01*
X245209Y722759D01*
X245174Y722780D01*
X245154Y722787D01*
X245147Y722794D01*
Y723550D01*
X245285Y723494D01*
X245431Y723432D01*
X245570Y723362D01*
X245695Y723300D01*
X245805Y723238D01*
X245854Y723217D01*
X245896Y723189D01*
X245930Y723175D01*
X245951Y723161D01*
X245965Y723147D01*
X245972D01*
X246138Y723043D01*
X246284Y722946D01*
X246416Y722856D01*
X246520Y722773D01*
X246610Y722704D01*
X246672Y722655D01*
X246707Y722620D01*
X246721Y722607D01*
Y727606D01*
X247504D01*
Y721185D01*
D02*
G37*
G36*
X241888Y727703D02*
X242075Y727675D01*
X242241Y727641D01*
X242387Y727592D01*
X242449Y727571D01*
X242505Y727551D01*
X242553Y727537D01*
X242588Y727516D01*
X242623Y727502D01*
X242643Y727488D01*
X242657Y727481D01*
X242664D01*
X242810Y727384D01*
X242942Y727280D01*
X243046Y727169D01*
X243129Y727065D01*
X243198Y726968D01*
X243247Y726885D01*
X243260Y726857D01*
X243274Y726836D01*
X243281Y726823D01*
Y726816D01*
X243316Y726725D01*
X243351Y726635D01*
X243399Y726434D01*
X243434Y726226D01*
X243455Y726025D01*
X243469Y725935D01*
X243475Y725845D01*
Y725769D01*
X243482Y725699D01*
Y725644D01*
Y725602D01*
Y725574D01*
Y725567D01*
Y721206D01*
X242637D01*
Y725616D01*
Y725713D01*
X242630Y725810D01*
X242623Y725970D01*
X242609Y726108D01*
X242595Y726219D01*
X242574Y726302D01*
X242560Y726365D01*
X242553Y726400D01*
X242546Y726413D01*
X242505Y726504D01*
X242456Y726580D01*
X242401Y726649D01*
X242352Y726705D01*
X242297Y726746D01*
X242262Y726781D01*
X242234Y726802D01*
X242220Y726809D01*
X242130Y726857D01*
X242040Y726892D01*
X241950Y726920D01*
X241860Y726934D01*
X241784Y726947D01*
X241728Y726954D01*
X241673D01*
X241520Y726940D01*
X241388Y726913D01*
X241270Y726871D01*
X241173Y726823D01*
X241097Y726774D01*
X241042Y726732D01*
X241007Y726705D01*
X240993Y726691D01*
X240951Y726635D01*
X240910Y726573D01*
X240875Y726497D01*
X240847Y726420D01*
X240799Y726254D01*
X240764Y726087D01*
X240743Y725935D01*
X240737Y725866D01*
X240730Y725803D01*
Y725755D01*
X240723Y725720D01*
Y725692D01*
Y725685D01*
X239960Y725796D01*
Y725970D01*
X239974Y726129D01*
X239995Y726282D01*
X240015Y726420D01*
X240050Y726552D01*
X240085Y726670D01*
X240126Y726774D01*
X240161Y726871D01*
X240203Y726954D01*
X240244Y727031D01*
X240279Y727093D01*
X240313Y727141D01*
X240341Y727183D01*
X240362Y727211D01*
X240376Y727225D01*
X240383Y727232D01*
X240473Y727315D01*
X240570Y727391D01*
X240667Y727454D01*
X240778Y727509D01*
X240882Y727558D01*
X240993Y727592D01*
X241097Y727627D01*
X241201Y727648D01*
X241298Y727669D01*
X241388Y727682D01*
X241472Y727696D01*
X241541Y727703D01*
X241596Y727710D01*
X241680D01*
X241888Y727703D01*
D02*
G37*
D12*
X220241Y342015D02*
Y387015D01*
X265242D01*
Y342015D02*
Y387015D01*
X220241Y342015D02*
X265242D01*
X191210Y679360D02*
Y776060D01*
X288710D01*
Y679360D02*
Y776060D01*
X191210Y679360D02*
X288710D01*
D14*
X857746Y200438D02*
G03*
X867746Y190438I10000J0D01*
G01*
X917746Y190438D02*
G03*
X927746Y200438I0J10000D01*
G01*
X927746Y292438D02*
G03*
X917746Y302438I-10000J0D01*
G01*
X867746D02*
G03*
X857746Y292438I0J-10000D01*
G01*
X943030Y100544D02*
G03*
X934243Y79331I21213J-21213D01*
G01*
X34243D02*
G03*
X25456Y100544I-30000J0D01*
G01*
X867746Y190438D02*
X917746D01*
X927746Y200438D02*
X927746Y292438D01*
X867746Y302438D02*
X917746D01*
X857746Y200438D02*
Y292438D01*
X34243Y79331D02*
X34243Y55500D01*
X934243D01*
X934243Y79331D01*
X943030Y100544D02*
X967986Y125500D01*
Y675500D01*
X897986Y745500D02*
X967986Y675500D01*
X70500Y745500D02*
X897986D01*
X500Y675500D02*
X70500Y745500D01*
X500Y125500D02*
Y675500D01*
Y125500D02*
X25456Y100544D01*
M02*
