G04*
G04 #@! TF.GenerationSoftware,Altium Limited,Altium Designer,24.1.2 (44)*
G04*
G04 Layer_Color=16711935*
%FSLAX44Y44*%
%MOMM*%
G71*
G04*
G04 #@! TF.SameCoordinates,8F2A281D-5683-44EC-B143-A45D5901FF86*
G04*
G04*
G04 #@! TF.FilePolarity,Negative*
G04*
G01*
G75*
%ADD15C,1.7272*%
%ADD16C,0.6500*%
G04:AMPARAMS|DCode=17|XSize=0.9mm|YSize=2.4mm|CornerRadius=0.45mm|HoleSize=0mm|Usage=FLASHONLY|Rotation=0.000|XOffset=0mm|YOffset=0mm|HoleType=Round|Shape=RoundedRectangle|*
%AMROUNDEDRECTD17*
21,1,0.9000,1.5000,0,0,0.0*
21,1,0.0000,2.4000,0,0,0.0*
1,1,0.9000,0.0000,-0.7500*
1,1,0.9000,0.0000,-0.7500*
1,1,0.9000,0.0000,0.7500*
1,1,0.9000,0.0000,0.7500*
%
%ADD17ROUNDEDRECTD17*%
G04:AMPARAMS|DCode=18|XSize=0.9mm|YSize=1.7mm|CornerRadius=0.45mm|HoleSize=0mm|Usage=FLASHONLY|Rotation=0.000|XOffset=0mm|YOffset=0mm|HoleType=Round|Shape=RoundedRectangle|*
%AMROUNDEDRECTD18*
21,1,0.9000,0.8000,0,0,0.0*
21,1,0.0000,1.7000,0,0,0.0*
1,1,0.9000,0.0000,-0.4000*
1,1,0.9000,0.0000,-0.4000*
1,1,0.9000,0.0000,0.4000*
1,1,0.9000,0.0000,0.4000*
%
%ADD18ROUNDEDRECTD18*%
%ADD19C,1.2232*%
%ADD20C,0.9032*%
%ADD21R,1.7032X1.7032*%
%ADD22C,1.7032*%
%ADD23C,3.2032*%
%ADD24C,1.4032*%
%ADD25R,1.4032X1.4032*%
%ADD26R,1.7032X1.7032*%
%ADD43R,0.9525X0.6096*%
%ADD47R,0.9800X3.4000*%
%ADD59R,2.1082X1.2232*%
%ADD60R,1.2032X0.8032*%
%ADD61R,0.4532X2.2032*%
%ADD62R,0.9432X1.8032*%
%ADD63R,0.8532X1.2532*%
%ADD64R,1.1532X1.0532*%
%ADD65R,1.1032X1.2032*%
%ADD66R,1.5532X1.3532*%
%ADD67R,1.2032X1.1032*%
%ADD68R,1.0532X1.1532*%
%ADD69R,2.2332X4.0032*%
%ADD70R,4.0032X2.2332*%
D15*
X364686Y868051D02*
D03*
X781246Y890911D02*
D03*
X1172406Y864241D02*
D03*
D16*
X356056Y1510666D02*
D03*
X364556D02*
D03*
X373056D02*
D03*
X381556D02*
D03*
X390056D02*
D03*
X398556D02*
D03*
X407056D02*
D03*
X415556D02*
D03*
Y1497166D02*
D03*
X407056D02*
D03*
X398556D02*
D03*
X390056D02*
D03*
X381556D02*
D03*
X373056D02*
D03*
X364556D02*
D03*
X356056D02*
D03*
D17*
X429056Y1506966D02*
D03*
X342556D02*
D03*
D18*
X429056Y1540766D02*
D03*
X342556D02*
D03*
D19*
X308107Y958092D02*
D03*
Y983492D02*
D03*
Y1008892D02*
D03*
Y1034292D02*
D03*
Y1059692D02*
D03*
Y1085092D02*
D03*
Y1110492D02*
D03*
Y1135892D02*
D03*
Y1161292D02*
D03*
Y1186692D02*
D03*
Y1212092D02*
D03*
Y1237492D02*
D03*
Y1262892D02*
D03*
Y1288292D02*
D03*
Y1313692D02*
D03*
Y1339092D02*
D03*
Y1364492D02*
D03*
Y1389892D02*
D03*
Y1415292D02*
D03*
Y1440692D02*
D03*
X1224793D02*
D03*
Y1415292D02*
D03*
Y1389892D02*
D03*
Y1364492D02*
D03*
Y1339092D02*
D03*
Y1313692D02*
D03*
Y1288292D02*
D03*
Y1262892D02*
D03*
Y1237492D02*
D03*
Y1212092D02*
D03*
Y1186692D02*
D03*
Y1161292D02*
D03*
Y1135892D02*
D03*
Y1110492D02*
D03*
Y1085092D02*
D03*
Y1059692D02*
D03*
Y1034292D02*
D03*
Y1008892D02*
D03*
Y983492D02*
D03*
Y958092D02*
D03*
D20*
X816450Y891692D02*
D03*
X829150D02*
D03*
X816450D02*
D03*
X829150D02*
D03*
X841850D02*
D03*
X854550D02*
D03*
X867250D02*
D03*
X879950D02*
D03*
X892650D02*
D03*
X905350D02*
D03*
X918050D02*
D03*
X930750D02*
D03*
X943450D02*
D03*
X956150D02*
D03*
X968850D02*
D03*
X981550D02*
D03*
X994250D02*
D03*
X1006950D02*
D03*
X1019650D02*
D03*
X1032350D02*
D03*
X1045050D02*
D03*
X1057750D02*
D03*
X475150D02*
D03*
X487850D02*
D03*
X475150D02*
D03*
X487850D02*
D03*
X500550D02*
D03*
X513250D02*
D03*
X525950D02*
D03*
X538650D02*
D03*
X551350D02*
D03*
X564050D02*
D03*
X576750D02*
D03*
X589450D02*
D03*
X602150D02*
D03*
X614850D02*
D03*
X627550D02*
D03*
X640250D02*
D03*
X652950D02*
D03*
X665650D02*
D03*
X678350D02*
D03*
X691050D02*
D03*
X703750D02*
D03*
X716450D02*
D03*
D21*
X572257Y409031D02*
D03*
D22*
X546857D02*
D03*
X363870Y770321D02*
D03*
D23*
X308107Y894592D02*
D03*
Y1504192D02*
D03*
X1224793D02*
D03*
Y894592D02*
D03*
D24*
X465160Y436773D02*
D03*
X381935D02*
D03*
D25*
X485160D02*
D03*
X401935D02*
D03*
D26*
X363870Y795721D02*
D03*
D43*
X561752Y511978D02*
D03*
Y502580D02*
D03*
Y493182D02*
D03*
X534193D02*
D03*
Y502580D02*
D03*
Y511978D02*
D03*
D47*
X567665Y563225D02*
D03*
X591365D02*
D03*
D59*
X292082Y958092D02*
D03*
X324132Y983492D02*
D03*
X292082Y1008892D02*
D03*
X324132Y1034292D02*
D03*
X292082Y1059692D02*
D03*
X324132Y1085092D02*
D03*
X292082Y1110492D02*
D03*
X324132Y1135892D02*
D03*
X292082Y1161292D02*
D03*
X324132Y1186692D02*
D03*
X292082Y1212092D02*
D03*
X324132Y1237492D02*
D03*
X292082Y1262892D02*
D03*
X324132Y1288292D02*
D03*
X292082Y1313692D02*
D03*
X324132Y1339092D02*
D03*
X292082Y1364492D02*
D03*
X324132Y1389892D02*
D03*
X292082Y1415292D02*
D03*
X324132Y1440692D02*
D03*
X1240818D02*
D03*
X1208768Y1415292D02*
D03*
X1240818Y1389892D02*
D03*
X1208768Y1364492D02*
D03*
X1240818Y1339092D02*
D03*
X1208768Y1313692D02*
D03*
X1240818Y1288292D02*
D03*
X1208768Y1262892D02*
D03*
X1240818Y1237492D02*
D03*
X1208768Y1212092D02*
D03*
X1240818Y1186692D02*
D03*
X1208768Y1161292D02*
D03*
X1240818Y1135892D02*
D03*
X1208768Y1110492D02*
D03*
X1240818Y1085092D02*
D03*
X1208768Y1059692D02*
D03*
X1240818Y1034292D02*
D03*
X1208768Y1008892D02*
D03*
X1240818Y983492D02*
D03*
X1208768Y958092D02*
D03*
D60*
X563628Y625160D02*
D03*
Y634660D02*
D03*
Y644160D02*
D03*
X591128D02*
D03*
Y634660D02*
D03*
Y625160D02*
D03*
D61*
X738917Y754155D02*
D03*
X743917D02*
D03*
X763917D02*
D03*
X748917D02*
D03*
X768917D02*
D03*
X758917D02*
D03*
X753917D02*
D03*
X773917D02*
D03*
X778917D02*
D03*
X798917D02*
D03*
X783917D02*
D03*
X803917D02*
D03*
X793917D02*
D03*
X788917D02*
D03*
X808917D02*
D03*
X813917D02*
D03*
X833917D02*
D03*
X818917D02*
D03*
X838917D02*
D03*
X828917D02*
D03*
X823917D02*
D03*
X843917D02*
D03*
X848917D02*
D03*
X853917D02*
D03*
X858917D02*
D03*
X738917Y798155D02*
D03*
X743917D02*
D03*
X763917D02*
D03*
X748917D02*
D03*
X768917D02*
D03*
X758917D02*
D03*
X753917D02*
D03*
X773917D02*
D03*
X778917D02*
D03*
X798917D02*
D03*
X783917D02*
D03*
X803917D02*
D03*
X793917D02*
D03*
X788917D02*
D03*
X808917D02*
D03*
X813917D02*
D03*
X833917D02*
D03*
X818917D02*
D03*
X838917D02*
D03*
X828917D02*
D03*
X823917D02*
D03*
X843917D02*
D03*
X848917D02*
D03*
X853917D02*
D03*
X858917D02*
D03*
X993917Y754155D02*
D03*
X998917D02*
D03*
X1018917D02*
D03*
X1003917D02*
D03*
X1023917D02*
D03*
X1013917D02*
D03*
X1008917D02*
D03*
X1028917D02*
D03*
X1033917D02*
D03*
X1053917D02*
D03*
X1038917D02*
D03*
X1058917D02*
D03*
X1048917D02*
D03*
X1043917D02*
D03*
X1063917D02*
D03*
X1068917D02*
D03*
X1088917D02*
D03*
X1073917D02*
D03*
X1093917D02*
D03*
X1083917D02*
D03*
X1078917D02*
D03*
X1098917D02*
D03*
X1103917D02*
D03*
X1108917D02*
D03*
X1113917D02*
D03*
X993917Y798155D02*
D03*
X998917D02*
D03*
X1018917D02*
D03*
X1003917D02*
D03*
X1023917D02*
D03*
X1013917D02*
D03*
X1008917D02*
D03*
X1028917D02*
D03*
X1033917D02*
D03*
X1053917D02*
D03*
X1038917D02*
D03*
X1058917D02*
D03*
X1048917D02*
D03*
X1043917D02*
D03*
X1063917D02*
D03*
X1068917D02*
D03*
X1088917D02*
D03*
X1073917D02*
D03*
X1093917D02*
D03*
X1083917D02*
D03*
X1078917D02*
D03*
X1098917D02*
D03*
X1103917D02*
D03*
X1108917D02*
D03*
X1113917D02*
D03*
X778917Y394155D02*
D03*
X783917D02*
D03*
X803917D02*
D03*
X788917D02*
D03*
X808917D02*
D03*
X798917D02*
D03*
X793917D02*
D03*
X813917D02*
D03*
X818917D02*
D03*
X838917D02*
D03*
X823917D02*
D03*
X843917D02*
D03*
X833917D02*
D03*
X828917D02*
D03*
X848917D02*
D03*
X853917D02*
D03*
X873917D02*
D03*
X858917D02*
D03*
X878917D02*
D03*
X868917D02*
D03*
X863917D02*
D03*
X883917D02*
D03*
X888917D02*
D03*
X893917D02*
D03*
X898917D02*
D03*
X778917Y438155D02*
D03*
X783917D02*
D03*
X803917D02*
D03*
X788917D02*
D03*
X808917D02*
D03*
X798917D02*
D03*
X793917D02*
D03*
X813917D02*
D03*
X818917D02*
D03*
X838917D02*
D03*
X823917D02*
D03*
X843917D02*
D03*
X833917D02*
D03*
X828917D02*
D03*
X848917D02*
D03*
X853917D02*
D03*
X873917D02*
D03*
X858917D02*
D03*
X878917D02*
D03*
X868917D02*
D03*
X863917D02*
D03*
X883917D02*
D03*
X888917D02*
D03*
X893917D02*
D03*
X898917D02*
D03*
X993917Y394155D02*
D03*
X998917D02*
D03*
X1018917D02*
D03*
X1003917D02*
D03*
X1023917D02*
D03*
X1013917D02*
D03*
X1008917D02*
D03*
X1028917D02*
D03*
X1033917D02*
D03*
X1053917D02*
D03*
X1038917D02*
D03*
X1058917D02*
D03*
X1048917D02*
D03*
X1043917D02*
D03*
X1063917D02*
D03*
X1068917D02*
D03*
X1088917D02*
D03*
X1073917D02*
D03*
X1093917D02*
D03*
X1083917D02*
D03*
X1078917D02*
D03*
X1098917D02*
D03*
X1103917D02*
D03*
X1108917D02*
D03*
X1113917D02*
D03*
X993917Y438155D02*
D03*
X998917D02*
D03*
X1018917D02*
D03*
X1003917D02*
D03*
X1023917D02*
D03*
X1013917D02*
D03*
X1008917D02*
D03*
X1028917D02*
D03*
X1033917D02*
D03*
X1053917D02*
D03*
X1038917D02*
D03*
X1058917D02*
D03*
X1048917D02*
D03*
X1043917D02*
D03*
X1063917D02*
D03*
X1068917D02*
D03*
X1088917D02*
D03*
X1073917D02*
D03*
X1093917D02*
D03*
X1083917D02*
D03*
X1078917D02*
D03*
X1098917D02*
D03*
X1103917D02*
D03*
X1108917D02*
D03*
X1113917D02*
D03*
D62*
X816450Y878692D02*
D03*
X829150Y904692D02*
D03*
X816450Y878692D02*
D03*
X829150Y904692D02*
D03*
X841850Y878692D02*
D03*
X854550Y904692D02*
D03*
X867250Y878692D02*
D03*
X879950Y904692D02*
D03*
X892650Y878692D02*
D03*
X905350Y904692D02*
D03*
X918050Y878692D02*
D03*
X930750Y904692D02*
D03*
X943450Y878692D02*
D03*
X956150Y904692D02*
D03*
X968850Y878692D02*
D03*
X981550Y904692D02*
D03*
X994250Y878692D02*
D03*
X1006950Y904692D02*
D03*
X1019650Y878692D02*
D03*
X1032350Y904692D02*
D03*
X1045050Y878692D02*
D03*
X1057750Y904692D02*
D03*
X475150Y878692D02*
D03*
X487850Y904692D02*
D03*
X475150Y878692D02*
D03*
X487850Y904692D02*
D03*
X500550Y878692D02*
D03*
X513250Y904692D02*
D03*
X525950Y878692D02*
D03*
X538650Y904692D02*
D03*
X551350Y878692D02*
D03*
X564050Y904692D02*
D03*
X576750Y878692D02*
D03*
X589450Y904692D02*
D03*
X602150Y878692D02*
D03*
X614850Y904692D02*
D03*
X627550Y878692D02*
D03*
X640250Y904692D02*
D03*
X652950Y878692D02*
D03*
X665650Y904692D02*
D03*
X678350Y878692D02*
D03*
X691050Y904692D02*
D03*
X703750Y878692D02*
D03*
X716450Y904692D02*
D03*
D63*
X576402Y694192D02*
D03*
X559402D02*
D03*
Y710966D02*
D03*
X576402D02*
D03*
X606079Y677418D02*
D03*
X589080D02*
D03*
X559402D02*
D03*
X576402D02*
D03*
X559402Y660644D02*
D03*
X576402D02*
D03*
D64*
X605966Y632208D02*
D03*
Y645208D02*
D03*
D65*
X535136Y468386D02*
D03*
X521636D02*
D03*
X577926Y594837D02*
D03*
X591426D02*
D03*
X577926Y609676D02*
D03*
X591426D02*
D03*
D66*
X498709Y475765D02*
D03*
Y493265D02*
D03*
X501289Y530604D02*
D03*
Y548104D02*
D03*
D67*
X593547Y505459D02*
D03*
Y491959D02*
D03*
X578063Y505459D02*
D03*
Y491959D02*
D03*
D68*
X591079Y660644D02*
D03*
X604080D02*
D03*
D69*
X596289Y708386D02*
D03*
X615644Y563225D02*
D03*
D70*
X549838Y602579D02*
D03*
M02*
