G04*
G04 #@! TF.GenerationSoftware,Altium Limited,Altium Designer,24.1.2 (44)*
G04*
G04 Layer_Physical_Order=1*
G04 Layer_Color=255*
%FSLAX44Y44*%
%MOMM*%
G71*
G04*
G04 #@! TF.SameCoordinates,8F2A281D-5683-44EC-B143-A45D5901FF86*
G04*
G04*
G04 #@! TF.FilePolarity,Positive*
G04*
G01*
G75*
%ADD12C,0.2540*%
%ADD13R,1.1500X1.3500*%
%ADD16C,0.6500*%
G04:AMPARAMS|DCode=17|XSize=0.9mm|YSize=2.4mm|CornerRadius=0.45mm|HoleSize=0mm|Usage=FLASHONLY|Rotation=0.000|XOffset=0mm|YOffset=0mm|HoleType=Round|Shape=RoundedRectangle|*
%AMROUNDEDRECTD17*
21,1,0.9000,1.5000,0,0,0.0*
21,1,0.0000,2.4000,0,0,0.0*
1,1,0.9000,0.0000,-0.7500*
1,1,0.9000,0.0000,-0.7500*
1,1,0.9000,0.0000,0.7500*
1,1,0.9000,0.0000,0.7500*
%
%ADD17ROUNDEDRECTD17*%
G04:AMPARAMS|DCode=18|XSize=0.9mm|YSize=1.7mm|CornerRadius=0.45mm|HoleSize=0mm|Usage=FLASHONLY|Rotation=0.000|XOffset=0mm|YOffset=0mm|HoleType=Round|Shape=RoundedRectangle|*
%AMROUNDEDRECTD18*
21,1,0.9000,0.8000,0,0,0.0*
21,1,0.0000,1.7000,0,0,0.0*
1,1,0.9000,0.0000,-0.4000*
1,1,0.9000,0.0000,-0.4000*
1,1,0.9000,0.0000,0.4000*
1,1,0.9000,0.0000,0.4000*
%
%ADD18ROUNDEDRECTD18*%
%ADD27C,0.3048*%
%ADD28C,0.5842*%
%ADD29C,1.0160*%
%ADD30C,1.5240*%
%ADD31C,1.0200*%
%ADD32C,0.7000*%
%ADD33R,1.5000X1.5000*%
%ADD34C,1.5000*%
%ADD35C,3.0000*%
%ADD36C,1.2000*%
%ADD37R,1.2000X1.2000*%
%ADD38R,1.5000X1.5000*%
%ADD39C,0.6350*%
%ADD40C,1.2700*%
G36*
X496450Y1555063D02*
X498912D01*
X503742Y1554103D01*
X508292Y1552218D01*
X512387Y1549482D01*
X515869Y1546000D01*
X518605Y1541905D01*
X520489Y1537356D01*
X521450Y1532526D01*
Y1530063D01*
Y1510063D01*
Y1507601D01*
X520489Y1502771D01*
X518605Y1498221D01*
X515869Y1494127D01*
X512387Y1490645D01*
X508292Y1487909D01*
X503742Y1486024D01*
X498912Y1485063D01*
X431450D01*
X429000Y1484943D01*
X424193Y1483987D01*
X419665Y1482111D01*
X415590Y1479389D01*
X412125Y1475923D01*
X409402Y1471848D01*
X407527Y1467320D01*
X406571Y1462514D01*
X406450Y1460063D01*
Y939192D01*
X406571Y936741D01*
X407527Y931935D01*
X409402Y927407D01*
X412125Y923332D01*
X415590Y919866D01*
X419665Y917144D01*
X424193Y915268D01*
X429000Y914312D01*
X431450Y914192D01*
X1129658D01*
X1132109Y914312D01*
X1136916Y915268D01*
X1141443Y917144D01*
X1145518Y919866D01*
X1148984Y923332D01*
X1151706Y927407D01*
X1153582Y931935D01*
X1154538Y936741D01*
X1154658Y939192D01*
Y1504592D01*
Y1507054D01*
X1155619Y1511884D01*
X1157504Y1516434D01*
X1160240Y1520528D01*
X1163722Y1524010D01*
X1167816Y1526746D01*
X1172366Y1528631D01*
X1177196Y1529592D01*
X1238912D01*
X1243742Y1528631D01*
X1248292Y1526746D01*
X1252387Y1524010D01*
X1255869Y1520528D01*
X1258605Y1516434D01*
X1260489Y1511884D01*
X1261450Y1507054D01*
Y1504592D01*
X1261450Y889763D01*
Y887301D01*
X1260489Y882471D01*
X1258605Y877921D01*
X1255869Y873827D01*
X1254128Y872086D01*
X1254128Y872086D01*
Y872086D01*
X1203997Y821955D01*
X1202349Y820137D01*
X1199626Y816062D01*
X1197751Y811534D01*
X1196795Y806727D01*
X1196674Y804277D01*
Y364192D01*
X336226D01*
X336226Y804277D01*
X336105Y806727D01*
X335149Y811534D01*
X333274Y816062D01*
X330551Y820137D01*
X328903Y821955D01*
X328903Y821955D01*
X278772Y872086D01*
X277031Y873827D01*
X274295Y877921D01*
X272411Y882471D01*
X271450Y887301D01*
Y889763D01*
Y1504592D01*
Y1507054D01*
X272411Y1511884D01*
X274295Y1516434D01*
X277031Y1520528D01*
X280513Y1524010D01*
X284608Y1526746D01*
X289158Y1528631D01*
X293988Y1529592D01*
X296450D01*
X341450Y1555063D01*
X496450Y1555063D01*
D02*
G37*
%LPC*%
G36*
X431596Y1551334D02*
Y1543306D01*
X436156D01*
Y1544766D01*
X435914Y1546604D01*
X435205Y1548317D01*
X434077Y1549787D01*
X432606Y1550916D01*
X431596Y1551334D01*
D02*
G37*
G36*
X426516D02*
X425505Y1550916D01*
X424035Y1549787D01*
X422906Y1548317D01*
X422197Y1546604D01*
X421955Y1544766D01*
Y1543306D01*
X426516D01*
Y1551334D01*
D02*
G37*
G36*
X345096D02*
Y1543306D01*
X349656D01*
Y1544766D01*
X349414Y1546604D01*
X348705Y1548317D01*
X347577Y1549787D01*
X346106Y1550916D01*
X345096Y1551334D01*
D02*
G37*
G36*
X340016D02*
X339005Y1550916D01*
X337535Y1549787D01*
X336406Y1548317D01*
X335697Y1546604D01*
X335455Y1544766D01*
Y1543306D01*
X340016D01*
Y1551334D01*
D02*
G37*
G36*
X463684Y1541174D02*
X449136D01*
Y1536008D01*
X436822D01*
X436156Y1536766D01*
Y1538226D01*
X421955D01*
Y1536766D01*
X422197Y1534928D01*
X422906Y1533216D01*
X424035Y1531745D01*
X425505Y1530617D01*
X426838Y1530065D01*
X427303Y1528734D01*
X424125Y1525556D01*
X409931D01*
X408742Y1525320D01*
X407734Y1524646D01*
X398528Y1515440D01*
X397606D01*
X395851Y1514713D01*
X395135Y1513997D01*
X394306Y1513494D01*
X393476Y1513997D01*
X392760Y1514713D01*
X391005Y1515440D01*
X389106D01*
X387351Y1514713D01*
X386635Y1513997D01*
X385806Y1513494D01*
X384976Y1513997D01*
X384260Y1514713D01*
X382505Y1515440D01*
X380606D01*
X378851Y1514713D01*
X378135Y1513997D01*
X377306Y1513494D01*
X376476Y1513997D01*
X375760Y1514713D01*
X374005Y1515440D01*
X372106D01*
X370351Y1514713D01*
X369635Y1513997D01*
X368806Y1513494D01*
X367976Y1513997D01*
X367260Y1514713D01*
X365505Y1515440D01*
X363606D01*
X361851Y1514713D01*
X360126Y1514784D01*
X359336Y1515575D01*
X358596Y1515881D01*
Y1510666D01*
X353516D01*
Y1515881D01*
X352776Y1515575D01*
X351147Y1513946D01*
X350926Y1513413D01*
X349656Y1513666D01*
Y1514466D01*
X349414Y1516304D01*
X348705Y1518017D01*
X347577Y1519487D01*
X346106Y1520616D01*
X345096Y1521034D01*
Y1506966D01*
Y1492898D01*
X346106Y1493317D01*
X347577Y1494445D01*
X348705Y1495916D01*
X348996Y1496617D01*
X350266Y1496365D01*
Y1496015D01*
X351147Y1493887D01*
X352776Y1492258D01*
X353516Y1491951D01*
Y1497166D01*
X358596D01*
Y1491951D01*
X359336Y1492258D01*
X360126Y1493048D01*
X361851Y1493119D01*
X363606Y1492392D01*
X365505D01*
X367260Y1493119D01*
X367976Y1493835D01*
X368806Y1494339D01*
X369635Y1493835D01*
X370351Y1493119D01*
X372106Y1492392D01*
X374005D01*
X375760Y1493119D01*
X376476Y1493835D01*
X377084Y1494204D01*
X378182Y1493549D01*
Y1482244D01*
X377306Y1481369D01*
X376591Y1479641D01*
Y1477772D01*
X377306Y1476045D01*
X378628Y1474723D01*
X380355Y1474008D01*
X382224D01*
X383951Y1474723D01*
X385273Y1476045D01*
X385281Y1476064D01*
X386779Y1476362D01*
X387394Y1475747D01*
X389121Y1475032D01*
X390990D01*
X392718Y1475747D01*
X394039Y1477069D01*
X394262Y1477606D01*
X395636D01*
X396016Y1476690D01*
X397337Y1475368D01*
X399064Y1474653D01*
X400934D01*
X402661Y1475368D01*
X403983Y1476690D01*
X404150Y1477093D01*
X410134Y1483078D01*
X410135Y1483078D01*
X411117Y1484548D01*
X411462Y1486283D01*
Y1491412D01*
X412732Y1492069D01*
X413016Y1491951D01*
Y1497166D01*
X418096D01*
Y1491951D01*
X418835Y1492258D01*
X420464Y1493887D01*
X421346Y1496015D01*
Y1496365D01*
X422616Y1496617D01*
X422906Y1495916D01*
X424035Y1494445D01*
X425505Y1493317D01*
X426516Y1492898D01*
Y1506966D01*
X429056D01*
Y1509506D01*
X436156D01*
Y1514466D01*
X435914Y1516304D01*
X435205Y1518017D01*
X434077Y1519487D01*
X432606Y1520616D01*
X430894Y1521325D01*
X430528Y1521373D01*
X430073Y1522714D01*
X437151Y1529792D01*
X449136D01*
Y1524626D01*
X463684D01*
Y1541174D01*
D02*
G37*
G36*
X482200Y1542190D02*
X476450D01*
Y1535440D01*
X482200D01*
Y1542190D01*
D02*
G37*
G36*
X471370D02*
X465620D01*
Y1535440D01*
X471370D01*
Y1542190D01*
D02*
G37*
G36*
X349656Y1538226D02*
X345096D01*
Y1530198D01*
X346106Y1530617D01*
X347577Y1531745D01*
X348705Y1533216D01*
X349414Y1534928D01*
X349656Y1536766D01*
Y1538226D01*
D02*
G37*
G36*
X340016D02*
X335455D01*
Y1536766D01*
X335697Y1534928D01*
X336406Y1533216D01*
X337535Y1531745D01*
X339005Y1530617D01*
X340016Y1530198D01*
Y1538226D01*
D02*
G37*
G36*
X482200Y1530360D02*
X476450D01*
Y1523610D01*
X482200D01*
Y1530360D01*
D02*
G37*
G36*
X471370D02*
X465620D01*
Y1523610D01*
X471370D01*
Y1530360D01*
D02*
G37*
G36*
X482845Y1521545D02*
X477095D01*
Y1514795D01*
X482845D01*
Y1521545D01*
D02*
G37*
G36*
X472015D02*
X466265D01*
Y1514795D01*
X472015D01*
Y1521545D01*
D02*
G37*
G36*
X340016Y1521034D02*
X339005Y1520616D01*
X337535Y1519487D01*
X336406Y1518017D01*
X335697Y1516304D01*
X335455Y1514466D01*
Y1509506D01*
X340016D01*
Y1521034D01*
D02*
G37*
G36*
X482845Y1509715D02*
X477095D01*
Y1502965D01*
X482845D01*
Y1509715D01*
D02*
G37*
G36*
X472015D02*
X466265D01*
Y1502965D01*
X472015D01*
Y1509715D01*
D02*
G37*
G36*
X464329Y1520529D02*
X449781D01*
Y1503981D01*
X453880D01*
X454132Y1502711D01*
X453435Y1502014D01*
X452719Y1500287D01*
Y1498417D01*
X453435Y1496690D01*
X454757Y1495368D01*
X456484Y1494653D01*
X458353D01*
X460080Y1495368D01*
X461402Y1496690D01*
X462117Y1498417D01*
Y1500287D01*
X461402Y1502014D01*
X460705Y1502711D01*
X460957Y1503981D01*
X464329D01*
Y1520529D01*
D02*
G37*
G36*
X436156Y1504426D02*
X431596D01*
Y1492898D01*
X432606Y1493317D01*
X434077Y1494445D01*
X435205Y1495916D01*
X435914Y1497628D01*
X436156Y1499466D01*
Y1504426D01*
D02*
G37*
G36*
X340016D02*
X335455D01*
Y1499466D01*
X335697Y1497628D01*
X336406Y1495916D01*
X337535Y1494445D01*
X339005Y1493317D01*
X340016Y1492898D01*
Y1504426D01*
D02*
G37*
G36*
X1226421Y1520716D02*
X1223166D01*
X1219973Y1520081D01*
X1216966Y1518835D01*
X1214260Y1517027D01*
X1211958Y1514725D01*
X1210150Y1512019D01*
X1208904Y1509012D01*
X1208269Y1505819D01*
Y1502564D01*
X1208904Y1499372D01*
X1210150Y1496365D01*
X1211958Y1493658D01*
X1214260Y1491357D01*
X1216966Y1489548D01*
X1219973Y1488303D01*
X1223166Y1487668D01*
X1226421D01*
X1229613Y1488303D01*
X1232620Y1489548D01*
X1235327Y1491357D01*
X1237628Y1493658D01*
X1239436Y1496365D01*
X1240682Y1499372D01*
X1241317Y1502564D01*
Y1505819D01*
X1240682Y1509012D01*
X1239436Y1512019D01*
X1237628Y1514725D01*
X1235327Y1517027D01*
X1232620Y1518835D01*
X1229613Y1520081D01*
X1226421Y1520716D01*
D02*
G37*
G36*
X309735D02*
X306480D01*
X303287Y1520081D01*
X300280Y1518835D01*
X297574Y1517027D01*
X295272Y1514725D01*
X293464Y1512019D01*
X292218Y1509012D01*
X291583Y1505819D01*
Y1502564D01*
X292218Y1499372D01*
X293464Y1496365D01*
X295272Y1493658D01*
X297574Y1491357D01*
X300280Y1489548D01*
X303287Y1488303D01*
X306480Y1487668D01*
X309735D01*
X312927Y1488303D01*
X315934Y1489548D01*
X318640Y1491357D01*
X320942Y1493658D01*
X322751Y1496365D01*
X323996Y1499372D01*
X324631Y1502564D01*
Y1505819D01*
X323996Y1509012D01*
X322751Y1512019D01*
X320942Y1514725D01*
X318640Y1517027D01*
X315934Y1518835D01*
X312927Y1520081D01*
X309735Y1520716D01*
D02*
G37*
G36*
X1225665Y1447316D02*
X1223921D01*
X1222236Y1446864D01*
X1220726Y1445992D01*
X1219493Y1444759D01*
X1218621Y1443248D01*
X1218169Y1441564D01*
Y1439820D01*
X1218621Y1438135D01*
X1219493Y1436624D01*
X1220726Y1435391D01*
X1222236Y1434519D01*
X1223921Y1434068D01*
X1225665D01*
X1227350Y1434519D01*
X1228860Y1435391D01*
X1230094Y1436624D01*
X1230966Y1438135D01*
X1231417Y1439820D01*
Y1441564D01*
X1230966Y1443248D01*
X1230094Y1444759D01*
X1228860Y1445992D01*
X1227350Y1446864D01*
X1225665Y1447316D01*
D02*
G37*
G36*
X308979D02*
X307235D01*
X305550Y1446864D01*
X304040Y1445992D01*
X302807Y1444759D01*
X301935Y1443248D01*
X301483Y1441564D01*
Y1439820D01*
X301935Y1438135D01*
X302807Y1436624D01*
X304040Y1435391D01*
X305550Y1434519D01*
X307235Y1434068D01*
X308979D01*
X310664Y1434519D01*
X312174Y1435391D01*
X313408Y1436624D01*
X314280Y1438135D01*
X314731Y1439820D01*
Y1441564D01*
X314280Y1443248D01*
X313408Y1444759D01*
X312174Y1445992D01*
X310664Y1446864D01*
X308979Y1447316D01*
D02*
G37*
G36*
X1225665Y1421916D02*
X1223921D01*
X1222236Y1421464D01*
X1220726Y1420592D01*
X1219493Y1419359D01*
X1218621Y1417849D01*
X1218169Y1416164D01*
Y1414420D01*
X1218621Y1412735D01*
X1219493Y1411225D01*
X1220726Y1409991D01*
X1222236Y1409119D01*
X1223921Y1408668D01*
X1225665D01*
X1227350Y1409119D01*
X1228860Y1409991D01*
X1230094Y1411225D01*
X1230966Y1412735D01*
X1231417Y1414420D01*
Y1416164D01*
X1230966Y1417849D01*
X1230094Y1419359D01*
X1228860Y1420592D01*
X1227350Y1421464D01*
X1225665Y1421916D01*
D02*
G37*
G36*
X308979D02*
X307235D01*
X305550Y1421464D01*
X304040Y1420592D01*
X302807Y1419359D01*
X301935Y1417849D01*
X301483Y1416164D01*
Y1414420D01*
X301935Y1412735D01*
X302807Y1411225D01*
X304040Y1409991D01*
X305550Y1409119D01*
X307235Y1408668D01*
X308979D01*
X310664Y1409119D01*
X312174Y1409991D01*
X313408Y1411225D01*
X314280Y1412735D01*
X314731Y1414420D01*
Y1416164D01*
X314280Y1417849D01*
X313408Y1419359D01*
X312174Y1420592D01*
X310664Y1421464D01*
X308979Y1421916D01*
D02*
G37*
G36*
X1225665Y1396516D02*
X1223921D01*
X1222236Y1396064D01*
X1220726Y1395192D01*
X1219493Y1393959D01*
X1218621Y1392448D01*
X1218169Y1390764D01*
Y1389020D01*
X1218621Y1387335D01*
X1219493Y1385824D01*
X1220726Y1384591D01*
X1222236Y1383719D01*
X1223921Y1383268D01*
X1225665D01*
X1227350Y1383719D01*
X1228860Y1384591D01*
X1230094Y1385824D01*
X1230966Y1387335D01*
X1231417Y1389020D01*
Y1390764D01*
X1230966Y1392448D01*
X1230094Y1393959D01*
X1228860Y1395192D01*
X1227350Y1396064D01*
X1225665Y1396516D01*
D02*
G37*
G36*
X308979D02*
X307235D01*
X305550Y1396064D01*
X304040Y1395192D01*
X302807Y1393959D01*
X301935Y1392448D01*
X301483Y1390764D01*
Y1389020D01*
X301935Y1387335D01*
X302807Y1385824D01*
X304040Y1384591D01*
X305550Y1383719D01*
X307235Y1383268D01*
X308979D01*
X310664Y1383719D01*
X312174Y1384591D01*
X313408Y1385824D01*
X314280Y1387335D01*
X314731Y1389020D01*
Y1390764D01*
X314280Y1392448D01*
X313408Y1393959D01*
X312174Y1395192D01*
X310664Y1396064D01*
X308979Y1396516D01*
D02*
G37*
G36*
X1225665Y1371116D02*
X1223921D01*
X1222236Y1370664D01*
X1220726Y1369792D01*
X1219493Y1368559D01*
X1218621Y1367048D01*
X1218169Y1365364D01*
Y1363620D01*
X1218621Y1361935D01*
X1219493Y1360424D01*
X1220726Y1359191D01*
X1222236Y1358319D01*
X1223921Y1357868D01*
X1225665D01*
X1227350Y1358319D01*
X1228860Y1359191D01*
X1230094Y1360424D01*
X1230966Y1361935D01*
X1231417Y1363620D01*
Y1365364D01*
X1230966Y1367048D01*
X1230094Y1368559D01*
X1228860Y1369792D01*
X1227350Y1370664D01*
X1225665Y1371116D01*
D02*
G37*
G36*
X308979D02*
X307235D01*
X305550Y1370664D01*
X304040Y1369792D01*
X302807Y1368559D01*
X301935Y1367048D01*
X301483Y1365364D01*
Y1363620D01*
X301935Y1361935D01*
X302807Y1360424D01*
X304040Y1359191D01*
X305550Y1358319D01*
X307235Y1357868D01*
X308979D01*
X310664Y1358319D01*
X312174Y1359191D01*
X313408Y1360424D01*
X314280Y1361935D01*
X314731Y1363620D01*
Y1365364D01*
X314280Y1367048D01*
X313408Y1368559D01*
X312174Y1369792D01*
X310664Y1370664D01*
X308979Y1371116D01*
D02*
G37*
G36*
X1225665Y1345716D02*
X1223921D01*
X1222236Y1345264D01*
X1220726Y1344392D01*
X1219493Y1343159D01*
X1218621Y1341649D01*
X1218169Y1339964D01*
Y1338220D01*
X1218621Y1336535D01*
X1219493Y1335025D01*
X1220726Y1333791D01*
X1222236Y1332919D01*
X1223921Y1332468D01*
X1225665D01*
X1227350Y1332919D01*
X1228860Y1333791D01*
X1230094Y1335025D01*
X1230966Y1336535D01*
X1231417Y1338220D01*
Y1339964D01*
X1230966Y1341649D01*
X1230094Y1343159D01*
X1228860Y1344392D01*
X1227350Y1345264D01*
X1225665Y1345716D01*
D02*
G37*
G36*
X308979D02*
X307235D01*
X305550Y1345264D01*
X304040Y1344392D01*
X302807Y1343159D01*
X301935Y1341649D01*
X301483Y1339964D01*
Y1338220D01*
X301935Y1336535D01*
X302807Y1335025D01*
X304040Y1333791D01*
X305550Y1332919D01*
X307235Y1332468D01*
X308979D01*
X310664Y1332919D01*
X312174Y1333791D01*
X313408Y1335025D01*
X314280Y1336535D01*
X314731Y1338220D01*
Y1339964D01*
X314280Y1341649D01*
X313408Y1343159D01*
X312174Y1344392D01*
X310664Y1345264D01*
X308979Y1345716D01*
D02*
G37*
G36*
X1225665Y1320316D02*
X1223921D01*
X1222236Y1319864D01*
X1220726Y1318992D01*
X1219493Y1317759D01*
X1218621Y1316248D01*
X1218169Y1314564D01*
Y1312820D01*
X1218621Y1311135D01*
X1219493Y1309624D01*
X1220726Y1308391D01*
X1222236Y1307519D01*
X1223921Y1307068D01*
X1225665D01*
X1227350Y1307519D01*
X1228860Y1308391D01*
X1230094Y1309624D01*
X1230966Y1311135D01*
X1231417Y1312820D01*
Y1314564D01*
X1230966Y1316248D01*
X1230094Y1317759D01*
X1228860Y1318992D01*
X1227350Y1319864D01*
X1225665Y1320316D01*
D02*
G37*
G36*
X308979D02*
X307235D01*
X305550Y1319864D01*
X304040Y1318992D01*
X302807Y1317759D01*
X301935Y1316248D01*
X301483Y1314564D01*
Y1312820D01*
X301935Y1311135D01*
X302807Y1309624D01*
X304040Y1308391D01*
X305550Y1307519D01*
X307235Y1307068D01*
X308979D01*
X310664Y1307519D01*
X312174Y1308391D01*
X313408Y1309624D01*
X314280Y1311135D01*
X314731Y1312820D01*
Y1314564D01*
X314280Y1316248D01*
X313408Y1317759D01*
X312174Y1318992D01*
X310664Y1319864D01*
X308979Y1320316D01*
D02*
G37*
G36*
X1225665Y1294916D02*
X1223921D01*
X1222236Y1294464D01*
X1220726Y1293592D01*
X1219493Y1292359D01*
X1218621Y1290849D01*
X1218169Y1289164D01*
Y1287420D01*
X1218621Y1285735D01*
X1219493Y1284225D01*
X1220726Y1282991D01*
X1222236Y1282119D01*
X1223921Y1281668D01*
X1225665D01*
X1227350Y1282119D01*
X1228860Y1282991D01*
X1230094Y1284225D01*
X1230966Y1285735D01*
X1231417Y1287420D01*
Y1289164D01*
X1230966Y1290849D01*
X1230094Y1292359D01*
X1228860Y1293592D01*
X1227350Y1294464D01*
X1225665Y1294916D01*
D02*
G37*
G36*
X308979D02*
X307235D01*
X305550Y1294464D01*
X304040Y1293592D01*
X302807Y1292359D01*
X301935Y1290849D01*
X301483Y1289164D01*
Y1287420D01*
X301935Y1285735D01*
X302807Y1284225D01*
X304040Y1282991D01*
X305550Y1282119D01*
X307235Y1281668D01*
X308979D01*
X310664Y1282119D01*
X312174Y1282991D01*
X313408Y1284225D01*
X314280Y1285735D01*
X314731Y1287420D01*
Y1289164D01*
X314280Y1290849D01*
X313408Y1292359D01*
X312174Y1293592D01*
X310664Y1294464D01*
X308979Y1294916D01*
D02*
G37*
G36*
X1225665Y1269516D02*
X1223921D01*
X1222236Y1269064D01*
X1220726Y1268192D01*
X1219493Y1266959D01*
X1218621Y1265449D01*
X1218169Y1263764D01*
Y1262020D01*
X1218621Y1260335D01*
X1219493Y1258824D01*
X1220726Y1257591D01*
X1222236Y1256719D01*
X1223921Y1256268D01*
X1225665D01*
X1227350Y1256719D01*
X1228860Y1257591D01*
X1230094Y1258824D01*
X1230966Y1260335D01*
X1231417Y1262020D01*
Y1263764D01*
X1230966Y1265449D01*
X1230094Y1266959D01*
X1228860Y1268192D01*
X1227350Y1269064D01*
X1225665Y1269516D01*
D02*
G37*
G36*
X308979D02*
X307235D01*
X305550Y1269064D01*
X304040Y1268192D01*
X302807Y1266959D01*
X301935Y1265449D01*
X301483Y1263764D01*
Y1262020D01*
X301935Y1260335D01*
X302807Y1258824D01*
X304040Y1257591D01*
X305550Y1256719D01*
X307235Y1256268D01*
X308979D01*
X310664Y1256719D01*
X312174Y1257591D01*
X313408Y1258824D01*
X314280Y1260335D01*
X314731Y1262020D01*
Y1263764D01*
X314280Y1265449D01*
X313408Y1266959D01*
X312174Y1268192D01*
X310664Y1269064D01*
X308979Y1269516D01*
D02*
G37*
G36*
X1225665Y1244116D02*
X1223921D01*
X1222236Y1243664D01*
X1220726Y1242792D01*
X1219493Y1241559D01*
X1218621Y1240049D01*
X1218169Y1238364D01*
Y1236620D01*
X1218621Y1234935D01*
X1219493Y1233425D01*
X1220726Y1232191D01*
X1222236Y1231319D01*
X1223921Y1230868D01*
X1225665D01*
X1227350Y1231319D01*
X1228860Y1232191D01*
X1230094Y1233425D01*
X1230966Y1234935D01*
X1231417Y1236620D01*
Y1238364D01*
X1230966Y1240049D01*
X1230094Y1241559D01*
X1228860Y1242792D01*
X1227350Y1243664D01*
X1225665Y1244116D01*
D02*
G37*
G36*
X308979D02*
X307235D01*
X305550Y1243664D01*
X304040Y1242792D01*
X302807Y1241559D01*
X301935Y1240049D01*
X301483Y1238364D01*
Y1236620D01*
X301935Y1234935D01*
X302807Y1233425D01*
X304040Y1232191D01*
X305550Y1231319D01*
X307235Y1230868D01*
X308979D01*
X310664Y1231319D01*
X312174Y1232191D01*
X313408Y1233425D01*
X314280Y1234935D01*
X314731Y1236620D01*
Y1238364D01*
X314280Y1240049D01*
X313408Y1241559D01*
X312174Y1242792D01*
X310664Y1243664D01*
X308979Y1244116D01*
D02*
G37*
G36*
X1225665Y1218716D02*
X1223921D01*
X1222236Y1218264D01*
X1220726Y1217392D01*
X1219493Y1216159D01*
X1218621Y1214649D01*
X1218169Y1212964D01*
Y1211220D01*
X1218621Y1209535D01*
X1219493Y1208025D01*
X1220726Y1206791D01*
X1222236Y1205919D01*
X1223921Y1205468D01*
X1225665D01*
X1227350Y1205919D01*
X1228860Y1206791D01*
X1230094Y1208025D01*
X1230966Y1209535D01*
X1231417Y1211220D01*
Y1212964D01*
X1230966Y1214649D01*
X1230094Y1216159D01*
X1228860Y1217392D01*
X1227350Y1218264D01*
X1225665Y1218716D01*
D02*
G37*
G36*
X308979D02*
X307235D01*
X305550Y1218264D01*
X304040Y1217392D01*
X302807Y1216159D01*
X301935Y1214649D01*
X301483Y1212964D01*
Y1211220D01*
X301935Y1209535D01*
X302807Y1208025D01*
X304040Y1206791D01*
X305550Y1205919D01*
X307235Y1205468D01*
X308979D01*
X310664Y1205919D01*
X312174Y1206791D01*
X313408Y1208025D01*
X314280Y1209535D01*
X314731Y1211220D01*
Y1212964D01*
X314280Y1214649D01*
X313408Y1216159D01*
X312174Y1217392D01*
X310664Y1218264D01*
X308979Y1218716D01*
D02*
G37*
G36*
X1225665Y1193316D02*
X1223921D01*
X1222236Y1192864D01*
X1220726Y1191992D01*
X1219493Y1190759D01*
X1218621Y1189249D01*
X1218169Y1187564D01*
Y1185820D01*
X1218621Y1184135D01*
X1219493Y1182625D01*
X1220726Y1181391D01*
X1222236Y1180519D01*
X1223921Y1180068D01*
X1225665D01*
X1227350Y1180519D01*
X1228860Y1181391D01*
X1230094Y1182625D01*
X1230966Y1184135D01*
X1231417Y1185820D01*
Y1187564D01*
X1230966Y1189249D01*
X1230094Y1190759D01*
X1228860Y1191992D01*
X1227350Y1192864D01*
X1225665Y1193316D01*
D02*
G37*
G36*
X308979D02*
X307235D01*
X305550Y1192864D01*
X304040Y1191992D01*
X302807Y1190759D01*
X301935Y1189249D01*
X301483Y1187564D01*
Y1185820D01*
X301935Y1184135D01*
X302807Y1182625D01*
X304040Y1181391D01*
X305550Y1180519D01*
X307235Y1180068D01*
X308979D01*
X310664Y1180519D01*
X312174Y1181391D01*
X313408Y1182625D01*
X314280Y1184135D01*
X314731Y1185820D01*
Y1187564D01*
X314280Y1189249D01*
X313408Y1190759D01*
X312174Y1191992D01*
X310664Y1192864D01*
X308979Y1193316D01*
D02*
G37*
G36*
X1225665Y1167916D02*
X1223921D01*
X1222236Y1167464D01*
X1220726Y1166592D01*
X1219493Y1165359D01*
X1218621Y1163848D01*
X1218169Y1162164D01*
Y1160420D01*
X1218621Y1158735D01*
X1219493Y1157225D01*
X1220726Y1155991D01*
X1222236Y1155119D01*
X1223921Y1154668D01*
X1225665D01*
X1227350Y1155119D01*
X1228860Y1155991D01*
X1230094Y1157225D01*
X1230966Y1158735D01*
X1231417Y1160420D01*
Y1162164D01*
X1230966Y1163848D01*
X1230094Y1165359D01*
X1228860Y1166592D01*
X1227350Y1167464D01*
X1225665Y1167916D01*
D02*
G37*
G36*
X308979D02*
X307235D01*
X305550Y1167464D01*
X304040Y1166592D01*
X302807Y1165359D01*
X301935Y1163848D01*
X301483Y1162164D01*
Y1160420D01*
X301935Y1158735D01*
X302807Y1157225D01*
X304040Y1155991D01*
X305550Y1155119D01*
X307235Y1154668D01*
X308979D01*
X310664Y1155119D01*
X312174Y1155991D01*
X313408Y1157225D01*
X314280Y1158735D01*
X314731Y1160420D01*
Y1162164D01*
X314280Y1163848D01*
X313408Y1165359D01*
X312174Y1166592D01*
X310664Y1167464D01*
X308979Y1167916D01*
D02*
G37*
G36*
X1225665Y1142516D02*
X1223921D01*
X1222236Y1142064D01*
X1220726Y1141192D01*
X1219493Y1139959D01*
X1218621Y1138448D01*
X1218169Y1136764D01*
Y1135020D01*
X1218621Y1133335D01*
X1219493Y1131824D01*
X1220726Y1130591D01*
X1222236Y1129719D01*
X1223921Y1129268D01*
X1225665D01*
X1227350Y1129719D01*
X1228860Y1130591D01*
X1230094Y1131824D01*
X1230966Y1133335D01*
X1231417Y1135020D01*
Y1136764D01*
X1230966Y1138448D01*
X1230094Y1139959D01*
X1228860Y1141192D01*
X1227350Y1142064D01*
X1225665Y1142516D01*
D02*
G37*
G36*
X308979D02*
X307235D01*
X305550Y1142064D01*
X304040Y1141192D01*
X302807Y1139959D01*
X301935Y1138448D01*
X301483Y1136764D01*
Y1135020D01*
X301935Y1133335D01*
X302807Y1131824D01*
X304040Y1130591D01*
X305550Y1129719D01*
X307235Y1129268D01*
X308979D01*
X310664Y1129719D01*
X312174Y1130591D01*
X313408Y1131824D01*
X314280Y1133335D01*
X314731Y1135020D01*
Y1136764D01*
X314280Y1138448D01*
X313408Y1139959D01*
X312174Y1141192D01*
X310664Y1142064D01*
X308979Y1142516D01*
D02*
G37*
G36*
X1225665Y1117116D02*
X1223921D01*
X1222236Y1116664D01*
X1220726Y1115792D01*
X1219493Y1114559D01*
X1218621Y1113048D01*
X1218169Y1111364D01*
Y1109620D01*
X1218621Y1107935D01*
X1219493Y1106424D01*
X1220726Y1105191D01*
X1222236Y1104319D01*
X1223921Y1103868D01*
X1225665D01*
X1227350Y1104319D01*
X1228860Y1105191D01*
X1230094Y1106424D01*
X1230966Y1107935D01*
X1231417Y1109620D01*
Y1111364D01*
X1230966Y1113048D01*
X1230094Y1114559D01*
X1228860Y1115792D01*
X1227350Y1116664D01*
X1225665Y1117116D01*
D02*
G37*
G36*
X308979D02*
X307235D01*
X305550Y1116664D01*
X304040Y1115792D01*
X302807Y1114559D01*
X301935Y1113048D01*
X301483Y1111364D01*
Y1109620D01*
X301935Y1107935D01*
X302807Y1106424D01*
X304040Y1105191D01*
X305550Y1104319D01*
X307235Y1103868D01*
X308979D01*
X310664Y1104319D01*
X312174Y1105191D01*
X313408Y1106424D01*
X314280Y1107935D01*
X314731Y1109620D01*
Y1111364D01*
X314280Y1113048D01*
X313408Y1114559D01*
X312174Y1115792D01*
X310664Y1116664D01*
X308979Y1117116D01*
D02*
G37*
G36*
X1225665Y1091716D02*
X1223921D01*
X1222236Y1091264D01*
X1220726Y1090392D01*
X1219493Y1089159D01*
X1218621Y1087648D01*
X1218169Y1085964D01*
Y1084220D01*
X1218621Y1082535D01*
X1219493Y1081024D01*
X1220726Y1079791D01*
X1222236Y1078919D01*
X1223921Y1078468D01*
X1225665D01*
X1227350Y1078919D01*
X1228860Y1079791D01*
X1230094Y1081024D01*
X1230966Y1082535D01*
X1231417Y1084220D01*
Y1085964D01*
X1230966Y1087648D01*
X1230094Y1089159D01*
X1228860Y1090392D01*
X1227350Y1091264D01*
X1225665Y1091716D01*
D02*
G37*
G36*
X308979D02*
X307235D01*
X305550Y1091264D01*
X304040Y1090392D01*
X302807Y1089159D01*
X301935Y1087648D01*
X301483Y1085964D01*
Y1084220D01*
X301935Y1082535D01*
X302807Y1081024D01*
X304040Y1079791D01*
X305550Y1078919D01*
X307235Y1078468D01*
X308979D01*
X310664Y1078919D01*
X312174Y1079791D01*
X313408Y1081024D01*
X314280Y1082535D01*
X314731Y1084220D01*
Y1085964D01*
X314280Y1087648D01*
X313408Y1089159D01*
X312174Y1090392D01*
X310664Y1091264D01*
X308979Y1091716D01*
D02*
G37*
G36*
X1225665Y1066316D02*
X1223921D01*
X1222236Y1065864D01*
X1220726Y1064992D01*
X1219493Y1063759D01*
X1218621Y1062249D01*
X1218169Y1060564D01*
Y1058820D01*
X1218621Y1057135D01*
X1219493Y1055624D01*
X1220726Y1054391D01*
X1222236Y1053519D01*
X1223921Y1053068D01*
X1225665D01*
X1227350Y1053519D01*
X1228860Y1054391D01*
X1230094Y1055624D01*
X1230966Y1057135D01*
X1231417Y1058820D01*
Y1060564D01*
X1230966Y1062249D01*
X1230094Y1063759D01*
X1228860Y1064992D01*
X1227350Y1065864D01*
X1225665Y1066316D01*
D02*
G37*
G36*
X308979D02*
X307235D01*
X305550Y1065864D01*
X304040Y1064992D01*
X302807Y1063759D01*
X301935Y1062249D01*
X301483Y1060564D01*
Y1058820D01*
X301935Y1057135D01*
X302807Y1055624D01*
X304040Y1054391D01*
X305550Y1053519D01*
X307235Y1053068D01*
X308979D01*
X310664Y1053519D01*
X312174Y1054391D01*
X313408Y1055624D01*
X314280Y1057135D01*
X314731Y1058820D01*
Y1060564D01*
X314280Y1062249D01*
X313408Y1063759D01*
X312174Y1064992D01*
X310664Y1065864D01*
X308979Y1066316D01*
D02*
G37*
G36*
X1225665Y1040916D02*
X1223921D01*
X1222236Y1040464D01*
X1220726Y1039592D01*
X1219493Y1038359D01*
X1218621Y1036849D01*
X1218169Y1035164D01*
Y1033420D01*
X1218621Y1031735D01*
X1219493Y1030225D01*
X1220726Y1028991D01*
X1222236Y1028119D01*
X1223921Y1027668D01*
X1225665D01*
X1227350Y1028119D01*
X1228860Y1028991D01*
X1230094Y1030225D01*
X1230966Y1031735D01*
X1231417Y1033420D01*
Y1035164D01*
X1230966Y1036849D01*
X1230094Y1038359D01*
X1228860Y1039592D01*
X1227350Y1040464D01*
X1225665Y1040916D01*
D02*
G37*
G36*
X308979D02*
X307235D01*
X305550Y1040464D01*
X304040Y1039592D01*
X302807Y1038359D01*
X301935Y1036849D01*
X301483Y1035164D01*
Y1033420D01*
X301935Y1031735D01*
X302807Y1030225D01*
X304040Y1028991D01*
X305550Y1028119D01*
X307235Y1027668D01*
X308979D01*
X310664Y1028119D01*
X312174Y1028991D01*
X313408Y1030225D01*
X314280Y1031735D01*
X314731Y1033420D01*
Y1035164D01*
X314280Y1036849D01*
X313408Y1038359D01*
X312174Y1039592D01*
X310664Y1040464D01*
X308979Y1040916D01*
D02*
G37*
G36*
X1225665Y1015516D02*
X1223921D01*
X1222236Y1015064D01*
X1220726Y1014192D01*
X1219493Y1012959D01*
X1218621Y1011449D01*
X1218169Y1009764D01*
Y1008020D01*
X1218621Y1006335D01*
X1219493Y1004825D01*
X1220726Y1003591D01*
X1222236Y1002719D01*
X1223921Y1002268D01*
X1225665D01*
X1227350Y1002719D01*
X1228860Y1003591D01*
X1230094Y1004825D01*
X1230966Y1006335D01*
X1231417Y1008020D01*
Y1009764D01*
X1230966Y1011449D01*
X1230094Y1012959D01*
X1228860Y1014192D01*
X1227350Y1015064D01*
X1225665Y1015516D01*
D02*
G37*
G36*
X308979D02*
X307235D01*
X305550Y1015064D01*
X304040Y1014192D01*
X302807Y1012959D01*
X301935Y1011449D01*
X301483Y1009764D01*
Y1008020D01*
X301935Y1006335D01*
X302807Y1004825D01*
X304040Y1003591D01*
X305550Y1002719D01*
X307235Y1002268D01*
X308979D01*
X310664Y1002719D01*
X312174Y1003591D01*
X313408Y1004825D01*
X314280Y1006335D01*
X314731Y1008020D01*
Y1009764D01*
X314280Y1011449D01*
X313408Y1012959D01*
X312174Y1014192D01*
X310664Y1015064D01*
X308979Y1015516D01*
D02*
G37*
G36*
X1225665Y990116D02*
X1223921D01*
X1222236Y989664D01*
X1220726Y988792D01*
X1219493Y987559D01*
X1218621Y986049D01*
X1218169Y984364D01*
Y982620D01*
X1218621Y980935D01*
X1219493Y979425D01*
X1220726Y978191D01*
X1222236Y977319D01*
X1223921Y976868D01*
X1225665D01*
X1227350Y977319D01*
X1228860Y978191D01*
X1230094Y979425D01*
X1230966Y980935D01*
X1231417Y982620D01*
Y984364D01*
X1230966Y986049D01*
X1230094Y987559D01*
X1228860Y988792D01*
X1227350Y989664D01*
X1225665Y990116D01*
D02*
G37*
G36*
X308979D02*
X307235D01*
X305550Y989664D01*
X304040Y988792D01*
X302807Y987559D01*
X301935Y986049D01*
X301483Y984364D01*
Y982620D01*
X301935Y980935D01*
X302807Y979425D01*
X304040Y978191D01*
X305550Y977319D01*
X307235Y976868D01*
X308979D01*
X310664Y977319D01*
X312174Y978191D01*
X313408Y979425D01*
X314280Y980935D01*
X314731Y982620D01*
Y984364D01*
X314280Y986049D01*
X313408Y987559D01*
X312174Y988792D01*
X310664Y989664D01*
X308979Y990116D01*
D02*
G37*
G36*
X294622Y976569D02*
Y973976D01*
X297216D01*
X296927Y974673D01*
X295319Y976281D01*
X294622Y976569D01*
D02*
G37*
G36*
X289542D02*
X288845Y976281D01*
X287237Y974673D01*
X286948Y973976D01*
X289542D01*
Y976569D01*
D02*
G37*
G36*
X297216Y968895D02*
X294622D01*
Y966302D01*
X295319Y966591D01*
X296927Y968198D01*
X297216Y968895D01*
D02*
G37*
G36*
X289542D02*
X286948D01*
X287237Y968198D01*
X288845Y966591D01*
X289542Y966302D01*
Y968895D01*
D02*
G37*
G36*
X325067Y974113D02*
X323197D01*
X321470Y973397D01*
X320149Y972076D01*
X319433Y970348D01*
Y968479D01*
X320149Y966752D01*
X321470Y965430D01*
X323197Y964715D01*
X325067D01*
X326794Y965430D01*
X328116Y966752D01*
X328831Y968479D01*
Y970348D01*
X328116Y972076D01*
X326794Y973397D01*
X325067Y974113D01*
D02*
G37*
G36*
X1225665Y964716D02*
X1223921D01*
X1222236Y964264D01*
X1220726Y963392D01*
X1219493Y962159D01*
X1218621Y960648D01*
X1218169Y958964D01*
Y957220D01*
X1218621Y955535D01*
X1219493Y954025D01*
X1220726Y952791D01*
X1222236Y951919D01*
X1223921Y951468D01*
X1225665D01*
X1227350Y951919D01*
X1228860Y952791D01*
X1230094Y954025D01*
X1230966Y955535D01*
X1231417Y957220D01*
Y958964D01*
X1230966Y960648D01*
X1230094Y962159D01*
X1228860Y963392D01*
X1227350Y964264D01*
X1225665Y964716D01*
D02*
G37*
G36*
X308979D02*
X307235D01*
X305550Y964264D01*
X304040Y963392D01*
X302807Y962159D01*
X301935Y960648D01*
X301483Y958964D01*
Y957220D01*
X301935Y955535D01*
X302807Y954025D01*
X304040Y952791D01*
X305550Y951919D01*
X307235Y951468D01*
X308979D01*
X310664Y951919D01*
X312174Y952791D01*
X313408Y954025D01*
X314280Y955535D01*
X314731Y957220D01*
Y958964D01*
X314280Y960648D01*
X313408Y962159D01*
X312174Y963392D01*
X310664Y964264D01*
X308979Y964716D01*
D02*
G37*
G36*
X325067Y1024435D02*
X323197D01*
X321470Y1023720D01*
X320149Y1022398D01*
X319433Y1020671D01*
Y1018801D01*
X320149Y1017074D01*
X321283Y1015939D01*
Y984252D01*
X321283Y984252D01*
X321500Y983162D01*
X322118Y982238D01*
X373142Y931214D01*
X372616Y929944D01*
X307667D01*
X306532Y931078D01*
X304805Y931794D01*
X302936D01*
X301209Y931078D01*
X299887Y929757D01*
X299171Y928030D01*
Y926160D01*
X299887Y924433D01*
X301209Y923111D01*
X302936Y922396D01*
X304805D01*
X306532Y923111D01*
X307667Y924246D01*
X315806D01*
X316332Y922976D01*
X316016Y922660D01*
X315300Y920933D01*
Y919063D01*
X316016Y917336D01*
X317338Y916015D01*
X319065Y915299D01*
X320934D01*
X322661Y916015D01*
X323983Y917336D01*
X324698Y919063D01*
Y920933D01*
X323983Y922660D01*
X323667Y922976D01*
X324193Y924246D01*
X366910D01*
X367492Y922976D01*
X366913Y921578D01*
Y919709D01*
X367629Y917982D01*
X368950Y916660D01*
X370677Y915944D01*
X372547D01*
X374274Y916660D01*
X375596Y917982D01*
X375975Y918897D01*
X377473Y919195D01*
X382937Y913731D01*
X382411Y912461D01*
X382300D01*
X380573Y911746D01*
X379252Y910424D01*
X378536Y908697D01*
Y906827D01*
X379252Y905100D01*
X380573Y903779D01*
X382300Y903063D01*
X384170D01*
X385897Y903779D01*
X387219Y905100D01*
X387934Y906827D01*
Y906938D01*
X389204Y907464D01*
X490900Y805768D01*
X490757Y805422D01*
Y803553D01*
X491472Y801826D01*
X492794Y800504D01*
X494521Y799788D01*
X496390D01*
X498117Y800504D01*
X499439Y801826D01*
X499819Y802741D01*
X501317Y803039D01*
X511533Y792823D01*
X511533Y792823D01*
X512457Y792205D01*
X513547Y791988D01*
X513548Y791988D01*
X528460D01*
X529595Y790854D01*
X531322Y790138D01*
X533192D01*
X534919Y790854D01*
X536241Y792175D01*
X536956Y793902D01*
Y795772D01*
X536241Y797499D01*
X534919Y798821D01*
X533192Y799536D01*
X531322D01*
X529595Y798821D01*
X528460Y797686D01*
X515771D01*
X515631Y797900D01*
X516320Y799170D01*
X516418D01*
X518145Y799886D01*
X519466Y801208D01*
X520182Y802935D01*
Y804804D01*
X519466Y806531D01*
X518145Y807853D01*
X516982Y808335D01*
X333679Y991638D01*
Y994350D01*
X334085Y994756D01*
X334800Y996483D01*
Y998352D01*
X334085Y1000079D01*
X332763Y1001401D01*
X331036Y1002116D01*
X329166D01*
X328251Y1001737D01*
X326981Y1002586D01*
Y1015939D01*
X328116Y1017074D01*
X328831Y1018801D01*
Y1020671D01*
X328116Y1022398D01*
X326794Y1023720D01*
X325067Y1024435D01*
D02*
G37*
G36*
X358998Y919536D02*
X357129D01*
X355402Y918820D01*
X354080Y917499D01*
X353365Y915772D01*
Y913902D01*
X354080Y912175D01*
X355402Y910853D01*
X357129Y910138D01*
X358998D01*
X360726Y910853D01*
X362047Y912175D01*
X362763Y913902D01*
Y915772D01*
X362047Y917499D01*
X360726Y918820D01*
X358998Y919536D01*
D02*
G37*
G36*
X575442Y910293D02*
Y907700D01*
X578036D01*
X577747Y908397D01*
X576139Y910004D01*
X575442Y910293D01*
D02*
G37*
G36*
X570362D02*
X569665Y910004D01*
X568057Y908397D01*
X567768Y907700D01*
X570362D01*
Y910293D01*
D02*
G37*
G36*
X578036Y902619D02*
X575442D01*
Y900026D01*
X576139Y900314D01*
X577747Y901922D01*
X578036Y902619D01*
D02*
G37*
G36*
X570362D02*
X567768D01*
X568057Y901922D01*
X569665Y900314D01*
X570362Y900026D01*
Y902619D01*
D02*
G37*
G36*
X846094Y909213D02*
X844225D01*
X842498Y908498D01*
X841176Y907176D01*
X840461Y905449D01*
Y903580D01*
X841176Y901853D01*
X842498Y900531D01*
X844225Y899815D01*
X846094D01*
X847821Y900531D01*
X849143Y901853D01*
X849859Y903580D01*
Y905449D01*
X849143Y907176D01*
X847821Y908498D01*
X846094Y909213D01*
D02*
G37*
G36*
X1045449Y909858D02*
X1043579D01*
X1041852Y909143D01*
X1040530Y907821D01*
X1039815Y906094D01*
Y904489D01*
X1036742Y901416D01*
X1036124Y900492D01*
X1035907Y899401D01*
X1035907Y899401D01*
Y896899D01*
X1034637Y896182D01*
X1033349Y896716D01*
X1031351D01*
X1029504Y895951D01*
X1028091Y894538D01*
X1027326Y892691D01*
Y890692D01*
X1028091Y888846D01*
X1029504Y887433D01*
X1031351Y886668D01*
X1033349D01*
X1034637Y887201D01*
X1035907Y886485D01*
Y854329D01*
X1034637Y853775D01*
X1033610Y854201D01*
X1033145Y855137D01*
X1033115Y855645D01*
X1033729Y857128D01*
Y858997D01*
X1033014Y860725D01*
X1031879Y861859D01*
Y874266D01*
X1033014Y875401D01*
X1033729Y877128D01*
Y878997D01*
X1033014Y880724D01*
X1031692Y882046D01*
X1029965Y882762D01*
X1028095D01*
X1026368Y882046D01*
X1025047Y880724D01*
X1024331Y878997D01*
Y877128D01*
X1025047Y875401D01*
X1026181Y874266D01*
Y861859D01*
X1025047Y860725D01*
X1024331Y858997D01*
Y857128D01*
X1025047Y855401D01*
X1026368Y854079D01*
X1027056Y853794D01*
X1026803Y852524D01*
X1021823D01*
X1016205Y858143D01*
Y886373D01*
X1017475Y887155D01*
X1018651Y886668D01*
X1020649D01*
X1022496Y887433D01*
X1023909Y888846D01*
X1024674Y890692D01*
Y892691D01*
X1023909Y894538D01*
X1022496Y895951D01*
X1020649Y896716D01*
X1019903D01*
X1018798Y897670D01*
X1018798Y897670D01*
Y900895D01*
X1019933Y902030D01*
X1020649Y903757D01*
Y905626D01*
X1019933Y907354D01*
X1018611Y908675D01*
X1016884Y909391D01*
X1015015D01*
X1013288Y908675D01*
X1011966Y907354D01*
X1011251Y905626D01*
Y903757D01*
X1011966Y902030D01*
X1013101Y900895D01*
Y898849D01*
X1011342Y897090D01*
X1010986Y896557D01*
X1010169Y896141D01*
X1009418Y896108D01*
X1007949Y896716D01*
X1005951D01*
X1004104Y895951D01*
X1002691Y894538D01*
X1001926Y892691D01*
Y890692D01*
X1002691Y888846D01*
X1004104Y887433D01*
X1005951Y886668D01*
X1007949D01*
X1009237Y887201D01*
X1010507Y886485D01*
Y858481D01*
X1009237Y857954D01*
X1006056Y861135D01*
Y874895D01*
X1007191Y876030D01*
X1007907Y877757D01*
Y879626D01*
X1007191Y881354D01*
X1005869Y882675D01*
X1004142Y883391D01*
X1002273D01*
X1000546Y882675D01*
X999224Y881354D01*
X998509Y879626D01*
Y877757D01*
X999224Y876030D01*
X1000359Y874895D01*
Y859956D01*
X1000359Y859955D01*
X1000576Y858865D01*
X1001193Y857941D01*
X1012470Y846665D01*
X1012413Y846319D01*
X1011910Y845428D01*
X939279D01*
X938144Y846563D01*
X936417Y847278D01*
X934547D01*
X932820Y846563D01*
X931498Y845241D01*
X930783Y843514D01*
Y841644D01*
X931498Y839917D01*
X932820Y838595D01*
X934547Y837880D01*
X936417D01*
X938144Y838595D01*
X939279Y839730D01*
X996586D01*
X997169Y838460D01*
X996589Y837062D01*
Y835193D01*
X997305Y833466D01*
X998627Y832144D01*
X1000354Y831428D01*
X1001795D01*
X1002169Y830759D01*
X1002283Y830183D01*
X1000564Y828464D01*
X999947Y827540D01*
X999730Y826450D01*
X999730Y826450D01*
Y734118D01*
X998595Y732983D01*
X997880Y731256D01*
Y729386D01*
X998595Y727659D01*
X999917Y726338D01*
X1001644Y725622D01*
X1003513D01*
X1005240Y726338D01*
X1006562Y727659D01*
X1007278Y729386D01*
Y731256D01*
X1006562Y732983D01*
X1005427Y734118D01*
Y770059D01*
X1006490Y770770D01*
Y776127D01*
Y781486D01*
X1005427Y782196D01*
Y825270D01*
X1005610Y825453D01*
X1007898D01*
X1008304Y825047D01*
X1010031Y824332D01*
X1011900D01*
X1012816Y824711D01*
X1014086Y823862D01*
Y780950D01*
X1012816Y780424D01*
X1012268Y780972D01*
X1011570Y781261D01*
Y776127D01*
Y770994D01*
X1012268Y771283D01*
X1012816Y771831D01*
X1014086Y771305D01*
Y735020D01*
X1013257D01*
X1011530Y734305D01*
X1010208Y732983D01*
X1009492Y731256D01*
Y729386D01*
X1010208Y727659D01*
X1011530Y726338D01*
X1013257Y725622D01*
X1015126D01*
X1016853Y726338D01*
X1018175Y727659D01*
X1018891Y729386D01*
Y730991D01*
X1018949Y731050D01*
X1019567Y731974D01*
X1019783Y733064D01*
X1019783Y733064D01*
Y829373D01*
X1020957Y829859D01*
X1032633Y818183D01*
Y723224D01*
X1032633Y723224D01*
X1032850Y722134D01*
X1033467Y721210D01*
X1041713Y712964D01*
X1041713Y712964D01*
X1042401Y712504D01*
X1042228Y711328D01*
X1042190Y711234D01*
X957952D01*
X902202Y766985D01*
Y851954D01*
X902660Y852144D01*
X903982Y853466D01*
X904697Y855193D01*
Y857062D01*
X903982Y858789D01*
X902660Y860111D01*
X900933Y860826D01*
X899063D01*
X897336Y860111D01*
X896503Y859278D01*
X895142Y859713D01*
X895066Y860165D01*
X896109Y861208D01*
X896824Y862934D01*
Y864804D01*
X896109Y866531D01*
X894787Y867853D01*
X893060Y868568D01*
X891190D01*
X889463Y867853D01*
X888141Y866531D01*
X887426Y864804D01*
Y862934D01*
X888141Y861208D01*
X889006Y860343D01*
Y722214D01*
X888994Y722202D01*
X813204D01*
X813014Y722660D01*
X811692Y723982D01*
X809965Y724698D01*
X808096D01*
X806369Y723982D01*
X805047Y722660D01*
X804332Y720933D01*
Y719064D01*
X804711Y718148D01*
X803862Y716878D01*
X754280D01*
X753145Y718013D01*
X751418Y718729D01*
X749549D01*
X747822Y718013D01*
X746500Y716691D01*
X745785Y714964D01*
Y713095D01*
X746500Y711368D01*
X747822Y710046D01*
X749549Y709331D01*
X751418D01*
X753145Y710046D01*
X754280Y711181D01*
X835289D01*
X835289Y711181D01*
X836379Y711398D01*
X837304Y712015D01*
X837729Y712441D01*
X921556D01*
X922498Y711499D01*
X924225Y710783D01*
X926094D01*
X927821Y711499D01*
X929143Y712821D01*
X929858Y714548D01*
Y716417D01*
X929143Y718144D01*
X927821Y719466D01*
X926094Y720181D01*
X924225D01*
X922498Y719466D01*
X921176Y718144D01*
X921173Y718138D01*
X894691D01*
X894637Y718196D01*
X894128Y719408D01*
X894486Y719944D01*
X894703Y721034D01*
Y852409D01*
X895973Y852980D01*
X896504Y852509D01*
Y765805D01*
X896504Y765805D01*
X896721Y764715D01*
X897339Y763791D01*
X954758Y706371D01*
X954758Y706371D01*
X955682Y705754D01*
X956772Y705537D01*
X1053546D01*
X1053546Y705537D01*
X1054636Y705754D01*
X1055561Y706371D01*
X1060077Y710887D01*
X1060077Y710887D01*
X1060694Y711812D01*
X1060911Y712902D01*
Y722008D01*
X1062046Y723143D01*
X1062761Y724870D01*
Y726740D01*
X1062046Y728467D01*
X1060724Y729789D01*
X1058997Y730504D01*
X1057128D01*
X1055401Y729789D01*
X1054079Y728467D01*
X1053363Y726740D01*
Y724870D01*
X1054079Y723143D01*
X1055214Y722008D01*
Y714082D01*
X1054052Y712920D01*
X1052975Y713639D01*
X1053084Y713903D01*
Y715772D01*
X1052369Y717499D01*
X1051047Y718821D01*
X1049320Y719536D01*
X1047450D01*
X1045723Y718821D01*
X1044819Y717916D01*
X1038331Y724404D01*
Y725965D01*
X1039601Y726491D01*
X1039754Y726338D01*
X1041481Y725622D01*
X1043351D01*
X1045078Y726338D01*
X1046400Y727659D01*
X1047115Y729386D01*
Y731256D01*
X1046400Y732983D01*
X1045797Y733585D01*
Y826080D01*
X1045797Y826080D01*
X1045580Y827170D01*
X1044963Y828094D01*
X1044963Y828095D01*
X1041719Y831338D01*
Y834729D01*
X1041719Y834729D01*
X1041605Y835303D01*
Y886373D01*
X1042875Y887155D01*
X1044051Y886668D01*
X1046049D01*
X1047896Y887433D01*
X1049309Y888846D01*
X1050074Y890692D01*
Y892691D01*
X1049309Y894538D01*
X1047896Y895951D01*
X1046049Y896716D01*
X1044051D01*
X1042875Y896229D01*
X1041605Y897011D01*
Y898222D01*
X1043844Y900461D01*
X1045449D01*
X1047176Y901176D01*
X1048498Y902498D01*
X1049213Y904225D01*
Y906094D01*
X1048498Y907821D01*
X1047176Y909143D01*
X1045449Y909858D01*
D02*
G37*
G36*
X548030D02*
X546161D01*
X544434Y909143D01*
X543112Y907821D01*
X542397Y906094D01*
Y904225D01*
X543112Y902498D01*
X544434Y901176D01*
X546161Y900461D01*
X548030D01*
X549757Y901176D01*
X550892Y902311D01*
X552768D01*
X554907Y900172D01*
Y896899D01*
X553637Y896182D01*
X552349Y896716D01*
X550351D01*
X548504Y895951D01*
X547091Y894538D01*
X546326Y892691D01*
Y890692D01*
X547091Y888846D01*
X548504Y887433D01*
X550351Y886668D01*
X552349D01*
X553637Y887201D01*
X554907Y886485D01*
Y828670D01*
X553734Y828184D01*
X538977Y842941D01*
Y865543D01*
X540040Y866253D01*
Y871611D01*
X542580D01*
Y874151D01*
X547713D01*
X547425Y874848D01*
X545817Y876456D01*
X543716Y877326D01*
X542000D01*
X541295Y877595D01*
X540827Y878446D01*
Y879643D01*
X540112Y881370D01*
X538790Y882691D01*
X537063Y883407D01*
X535193D01*
X533466Y882691D01*
X532144Y881370D01*
X531429Y879643D01*
Y877773D01*
X532144Y876046D01*
X533279Y874911D01*
Y844551D01*
X532106Y844065D01*
X522505Y853666D01*
Y886373D01*
X523775Y887155D01*
X524951Y886668D01*
X526949D01*
X528796Y887433D01*
X530209Y888846D01*
X530974Y890692D01*
Y892691D01*
X530209Y894538D01*
X528796Y895951D01*
X526949Y896716D01*
X525873D01*
X524807Y897723D01*
X524783Y897889D01*
Y901363D01*
X525918Y902498D01*
X526633Y904225D01*
Y906094D01*
X525918Y907821D01*
X524596Y909143D01*
X522869Y909858D01*
X521000D01*
X519273Y909143D01*
X517951Y907821D01*
X517235Y906094D01*
Y904225D01*
X517951Y902498D01*
X519086Y901363D01*
Y898926D01*
X517642Y897482D01*
X517129Y896714D01*
X516842Y896502D01*
X515646Y896137D01*
X514249Y896716D01*
X512251D01*
X510404Y895951D01*
X508991Y894538D01*
X508226Y892691D01*
Y890692D01*
X508991Y888846D01*
X510404Y887433D01*
X512251Y886668D01*
X514249D01*
X515537Y887201D01*
X516807Y886485D01*
Y855275D01*
X515634Y854789D01*
X512525Y857898D01*
Y874911D01*
X513660Y876046D01*
X514375Y877773D01*
Y879643D01*
X513660Y881370D01*
X512338Y882691D01*
X510611Y883407D01*
X508742D01*
X507015Y882691D01*
X505693Y881370D01*
X504977Y879643D01*
Y877773D01*
X505693Y876046D01*
X506828Y874911D01*
Y859508D01*
X505654Y859022D01*
X497105Y867571D01*
Y886373D01*
X498375Y887155D01*
X499551Y886668D01*
X501549D01*
X503396Y887433D01*
X504809Y888846D01*
X505574Y890692D01*
Y892691D01*
X504809Y894538D01*
X503396Y895951D01*
X501549Y896716D01*
X500742D01*
X499609Y897529D01*
X499609Y897529D01*
Y900704D01*
X500757Y901853D01*
X501472Y903580D01*
Y905449D01*
X500757Y907176D01*
X499435Y908498D01*
X497708Y909213D01*
X495839D01*
X494111Y908498D01*
X492790Y907176D01*
X492074Y905449D01*
Y903580D01*
X492790Y901853D01*
X493911Y900731D01*
Y898709D01*
X492242Y897040D01*
X491906Y896537D01*
X491025Y896110D01*
X490327Y896104D01*
X488849Y896716D01*
X486851D01*
X485004Y895951D01*
X483591Y894538D01*
X482826Y892691D01*
Y890692D01*
X483591Y888846D01*
X485004Y887433D01*
X486851Y886668D01*
X488849D01*
X490137Y887201D01*
X491407Y886485D01*
Y869181D01*
X490234Y868695D01*
X486719Y872210D01*
Y874266D01*
X487854Y875401D01*
X488569Y877128D01*
Y878997D01*
X487854Y880724D01*
X486532Y882046D01*
X484805Y882762D01*
X482935D01*
X481208Y882046D01*
X479886Y880724D01*
X479171Y878997D01*
Y877128D01*
X479886Y875401D01*
X481021Y874266D01*
Y871030D01*
X481021Y871030D01*
X481238Y869940D01*
X481856Y869015D01*
X748371Y602501D01*
X748371Y602500D01*
X749295Y601883D01*
X750385Y601666D01*
X750385Y601666D01*
X769152D01*
X770287Y600531D01*
X772014Y599816D01*
X773883D01*
X775610Y600531D01*
X776932Y601853D01*
X777647Y603580D01*
Y605450D01*
X776932Y607177D01*
X776616Y607493D01*
X777142Y608763D01*
X818223D01*
X818749Y607493D01*
X818595Y607339D01*
X817880Y605612D01*
Y603743D01*
X818259Y602827D01*
X817411Y601557D01*
X803407D01*
Y602224D01*
X802692Y603951D01*
X801370Y605273D01*
X799643Y605988D01*
X797773D01*
X796046Y605273D01*
X794725Y603951D01*
X794009Y602224D01*
Y600354D01*
X794725Y598627D01*
X795686Y597666D01*
X795176Y596396D01*
X783150D01*
X782015Y597531D01*
X780288Y598246D01*
X778419D01*
X776692Y597531D01*
X775370Y596209D01*
X774654Y594482D01*
Y592612D01*
X775370Y590885D01*
X776692Y589564D01*
X778419Y588848D01*
X780288D01*
X782015Y589564D01*
X783150Y590699D01*
X784837D01*
X785363Y589428D01*
X785047Y589112D01*
X784332Y587385D01*
Y585516D01*
X785047Y583789D01*
X786369Y582467D01*
X788096Y581751D01*
X789965D01*
X791692Y582467D01*
X792827Y583602D01*
X949105D01*
X950240Y582467D01*
X951967Y581751D01*
X953836D01*
X955563Y582467D01*
X956885Y583789D01*
X957600Y585516D01*
Y587385D01*
X956885Y589112D01*
X956569Y589428D01*
X957095Y590699D01*
X1142578D01*
X1142578Y590698D01*
X1143669Y590915D01*
X1144593Y591533D01*
X1152980Y599920D01*
X1152980Y599920D01*
X1153597Y600844D01*
X1153814Y601934D01*
Y612257D01*
X1153814Y612257D01*
X1153597Y613347D01*
X1152980Y614271D01*
X1152980Y614271D01*
X1144200Y623051D01*
X1143276Y623669D01*
X1142185Y623886D01*
X1142185Y623886D01*
X1126627D01*
X1125492Y625021D01*
X1123765Y625736D01*
X1121896D01*
X1120169Y625021D01*
X1118847Y623699D01*
X1118131Y621972D01*
Y620102D01*
X1118847Y618375D01*
X1120169Y617053D01*
X1121896Y616338D01*
X1123765D01*
X1125492Y617053D01*
X1126627Y618188D01*
X1141005D01*
X1148117Y611077D01*
Y604158D01*
X1147902Y604018D01*
X1146632Y604707D01*
Y604804D01*
X1145917Y606531D01*
X1144595Y607853D01*
X1142868Y608569D01*
X1140999D01*
X1139271Y607853D01*
X1138782Y607364D01*
X1083546D01*
X1083020Y608634D01*
X1083336Y608950D01*
X1084052Y610677D01*
Y612546D01*
X1083336Y614273D01*
X1083183Y614427D01*
X1083709Y615697D01*
X1107331D01*
X1108304Y614725D01*
X1110031Y614009D01*
X1111900D01*
X1113627Y614725D01*
X1114949Y616047D01*
X1115665Y617774D01*
Y619643D01*
X1114949Y621370D01*
X1113627Y622692D01*
X1111900Y623407D01*
X1110031D01*
X1108304Y622692D01*
X1107006Y621395D01*
X973553D01*
X972705Y622665D01*
X973084Y623580D01*
Y625450D01*
X972572Y626685D01*
X973250Y627955D01*
X1100740D01*
X1100740Y627955D01*
X1101830Y628172D01*
X1102754Y628789D01*
X1103682Y629718D01*
X1104224Y629493D01*
X1106094D01*
X1107821Y630209D01*
X1109143Y631530D01*
X1109858Y633258D01*
Y635127D01*
X1109143Y636854D01*
X1107821Y638176D01*
X1106094Y638891D01*
X1104224D01*
X1102497Y638176D01*
X1101176Y636854D01*
X1100460Y635127D01*
Y634553D01*
X1099560Y633653D01*
X921941D01*
X921092Y634923D01*
X921471Y635838D01*
Y637708D01*
X921808Y638212D01*
X1011358D01*
X1011358Y638212D01*
X1012448Y638428D01*
X1013372Y639046D01*
X1015347Y641021D01*
X1084588D01*
X1085723Y639886D01*
X1087450Y639171D01*
X1089320D01*
X1091047Y639886D01*
X1092368Y641208D01*
X1093084Y642935D01*
Y644804D01*
X1092368Y646531D01*
X1091047Y647853D01*
X1089320Y648569D01*
X1087450D01*
X1085723Y647853D01*
X1084588Y646718D01*
X1014167D01*
X1014167Y646718D01*
X1013077Y646502D01*
X1012153Y645884D01*
X1010178Y643909D01*
X945812D01*
X944963Y645179D01*
X945342Y646095D01*
Y647964D01*
X944963Y648880D01*
X945812Y650150D01*
X1070514D01*
X1070514Y650150D01*
X1071604Y650367D01*
X1071717Y650442D01*
X1072449Y650138D01*
X1074318D01*
X1076045Y650854D01*
X1077367Y652176D01*
X1078083Y653903D01*
Y655772D01*
X1077367Y657499D01*
X1076045Y658821D01*
X1074318Y659536D01*
X1072449D01*
X1070722Y658821D01*
X1069400Y657499D01*
X1068716Y655847D01*
X1029671D01*
X1028992Y657117D01*
X1029071Y657235D01*
X1029965D01*
X1031692Y657951D01*
X1033014Y659272D01*
X1033729Y661000D01*
Y662869D01*
X1033014Y664596D01*
X1031692Y665918D01*
X1029965Y666633D01*
X1028095D01*
X1026368Y665918D01*
X1025047Y664596D01*
X1024331Y662869D01*
Y661624D01*
X1022618Y659911D01*
X961759D01*
X961578Y661106D01*
X963305Y661822D01*
X964627Y663143D01*
X965342Y664870D01*
Y666740D01*
X964627Y668467D01*
X963828Y669266D01*
X964354Y670536D01*
X1060235D01*
X1061207Y669563D01*
X1062934Y668848D01*
X1064803D01*
X1066531Y669563D01*
X1067852Y670885D01*
X1068568Y672612D01*
Y674482D01*
X1067852Y676209D01*
X1066531Y677531D01*
X1064803Y678246D01*
X1062934D01*
X1061207Y677531D01*
X1059910Y676233D01*
X765167D01*
X764318Y677503D01*
X764697Y678419D01*
Y680288D01*
X763982Y682015D01*
X762660Y683337D01*
X761973Y683622D01*
X762225Y684892D01*
X763674D01*
X765583Y682983D01*
X766507Y682365D01*
X767597Y682149D01*
X767597Y682149D01*
X1089912D01*
X1090884Y681176D01*
X1092611Y680461D01*
X1094481D01*
X1096208Y681176D01*
X1097530Y682498D01*
X1098245Y684225D01*
Y686095D01*
X1097530Y687822D01*
X1096208Y689144D01*
X1094481Y689859D01*
X1092611D01*
X1090884Y689144D01*
X1089587Y687846D01*
X905812D01*
X904963Y689116D01*
X905342Y690032D01*
Y691901D01*
X904627Y693628D01*
X903666Y694589D01*
X904175Y695860D01*
X1016201D01*
X1017336Y694725D01*
X1019063Y694009D01*
X1020933D01*
X1022660Y694725D01*
X1023982Y696047D01*
X1024697Y697774D01*
Y699643D01*
X1023982Y701370D01*
X1022660Y702692D01*
X1020933Y703407D01*
X1019063D01*
X1017336Y702692D01*
X1016201Y701557D01*
X938385D01*
X937859Y702827D01*
X938175Y703143D01*
X938891Y704870D01*
Y706740D01*
X938175Y708467D01*
X936853Y709789D01*
X935126Y710504D01*
X933257D01*
X931530Y709789D01*
X930395Y708654D01*
X843795D01*
X842660Y709789D01*
X840933Y710504D01*
X839064D01*
X837337Y709789D01*
X836015Y708467D01*
X835299Y706740D01*
Y704870D01*
X836015Y703143D01*
X836331Y702827D01*
X835805Y701557D01*
X749329D01*
X739459Y711427D01*
Y812473D01*
X739242Y813564D01*
X738624Y814488D01*
X738624Y814488D01*
X732525Y820588D01*
Y900718D01*
X733660Y901853D01*
X734375Y903580D01*
Y905449D01*
X733660Y907176D01*
X732338Y908498D01*
X730611Y909213D01*
X728741D01*
X727014Y908498D01*
X725692Y907176D01*
X724977Y905449D01*
Y903580D01*
X725692Y901853D01*
X726827Y900718D01*
Y821399D01*
X725771Y820693D01*
X725449Y820826D01*
X723580D01*
X721853Y820111D01*
X720531Y818789D01*
X719816Y817062D01*
Y815193D01*
X720531Y813466D01*
X721853Y812144D01*
X723580Y811428D01*
X725449D01*
X727176Y812144D01*
X728498Y813466D01*
X728877Y814381D01*
X730376Y814679D01*
X733761Y811293D01*
Y792151D01*
X732491Y791625D01*
X731838Y792278D01*
X730267Y792929D01*
X728567D01*
X726996Y792278D01*
X725794Y791076D01*
X725143Y789505D01*
Y787805D01*
X725794Y786234D01*
X726996Y785032D01*
X728567Y784381D01*
X730267D01*
X731838Y785032D01*
X732491Y785685D01*
X733761Y785159D01*
Y713037D01*
X732588Y712551D01*
X716396Y728743D01*
Y874911D01*
X717531Y876046D01*
X718246Y877773D01*
Y879643D01*
X717531Y881370D01*
X716209Y882691D01*
X714482Y883407D01*
X712612D01*
X710885Y882691D01*
X709563Y881370D01*
X708848Y879643D01*
Y877773D01*
X709563Y876046D01*
X710698Y874911D01*
Y730353D01*
X709525Y729867D01*
X700305Y739087D01*
Y886373D01*
X701575Y887155D01*
X702751Y886668D01*
X704749D01*
X706596Y887433D01*
X708009Y888846D01*
X708774Y890692D01*
Y892691D01*
X708009Y894538D01*
X706596Y895951D01*
X704749Y896716D01*
X703812D01*
X703144Y897529D01*
Y900464D01*
X703306Y900531D01*
X704627Y901853D01*
X705343Y903580D01*
Y905449D01*
X704627Y907176D01*
X703306Y908498D01*
X701579Y909213D01*
X699709D01*
X697982Y908498D01*
X696660Y907176D01*
X695945Y905449D01*
Y903580D01*
X696660Y901853D01*
X697447Y901066D01*
Y898709D01*
X695442Y896704D01*
X695240Y896403D01*
X693984Y895981D01*
X693607Y896070D01*
X692049Y896716D01*
X690051D01*
X688204Y895951D01*
X686791Y894538D01*
X686026Y892691D01*
Y890692D01*
X686791Y888846D01*
X688204Y887433D01*
X690051Y886668D01*
X692049D01*
X693337Y887201D01*
X694607Y886485D01*
Y740696D01*
X693434Y740210D01*
X689944Y743700D01*
Y874911D01*
X691079Y876046D01*
X691794Y877773D01*
Y879643D01*
X691079Y881370D01*
X689757Y882691D01*
X688030Y883407D01*
X686161D01*
X684434Y882691D01*
X683112Y881370D01*
X682396Y879643D01*
Y877773D01*
X683112Y876046D01*
X684247Y874911D01*
Y745310D01*
X683073Y744824D01*
X674905Y752992D01*
Y886373D01*
X676175Y887155D01*
X677351Y886668D01*
X679349D01*
X681196Y887433D01*
X682609Y888846D01*
X683374Y890692D01*
Y892691D01*
X682609Y894538D01*
X681196Y895951D01*
X679349Y896716D01*
X677628D01*
X677259Y896810D01*
X676396Y897695D01*
Y900718D01*
X677531Y901853D01*
X678246Y903580D01*
Y905449D01*
X677531Y907176D01*
X676209Y908498D01*
X674482Y909213D01*
X672612D01*
X670885Y908498D01*
X669563Y907176D01*
X668848Y905449D01*
Y903580D01*
X669563Y901853D01*
X670698Y900718D01*
Y898210D01*
X670042Y897553D01*
X669500Y896743D01*
X669301Y896586D01*
X668033Y896143D01*
X666649Y896716D01*
X664651D01*
X662804Y895951D01*
X661391Y894538D01*
X660626Y892691D01*
Y890692D01*
X661391Y888846D01*
X662804Y887433D01*
X664651Y886668D01*
X666649D01*
X667937Y887201D01*
X669207Y886485D01*
Y754602D01*
X668034Y754116D01*
X664138Y758012D01*
Y874911D01*
X665273Y876046D01*
X665988Y877773D01*
Y879643D01*
X665273Y881370D01*
X663951Y882691D01*
X662224Y883407D01*
X660354D01*
X658627Y882691D01*
X657305Y881370D01*
X656590Y879643D01*
Y877773D01*
X657305Y876046D01*
X658440Y874911D01*
Y759621D01*
X657267Y759135D01*
X649505Y766897D01*
Y886373D01*
X650775Y887155D01*
X651951Y886668D01*
X653949D01*
X655796Y887433D01*
X657209Y888846D01*
X657974Y890692D01*
Y892691D01*
X657209Y894538D01*
X655796Y895951D01*
X653949Y896716D01*
X653712D01*
X652906Y897697D01*
X652909Y897710D01*
Y900484D01*
X653451Y900708D01*
X654773Y902030D01*
X655488Y903757D01*
Y905626D01*
X654773Y907354D01*
X653451Y908675D01*
X651724Y909391D01*
X649854D01*
X648127Y908675D01*
X646805Y907354D01*
X646090Y905626D01*
Y903757D01*
X646805Y902030D01*
X647211Y901624D01*
Y898890D01*
X644642Y896321D01*
X644594Y896249D01*
X643096Y895951D01*
X641249Y896716D01*
X639251D01*
X637404Y895951D01*
X635991Y894538D01*
X635226Y892691D01*
Y890692D01*
X635991Y888846D01*
X637404Y887433D01*
X639251Y886668D01*
X641249D01*
X642537Y887201D01*
X643807Y886485D01*
Y768507D01*
X642634Y768021D01*
X639622Y771033D01*
Y874266D01*
X640757Y875401D01*
X641472Y877128D01*
Y878997D01*
X640757Y880724D01*
X639435Y882046D01*
X637708Y882762D01*
X635838D01*
X634111Y882046D01*
X632789Y880724D01*
X632074Y878997D01*
Y877128D01*
X632789Y875401D01*
X633924Y874266D01*
Y772643D01*
X632751Y772157D01*
X624105Y780803D01*
Y886373D01*
X625375Y887155D01*
X626551Y886668D01*
X628549D01*
X630396Y887433D01*
X631809Y888846D01*
X632574Y890692D01*
Y892691D01*
X631809Y894538D01*
X630396Y895951D01*
X628549Y896716D01*
X627902D01*
X627280Y897474D01*
X627280Y897474D01*
Y899661D01*
X627822Y899886D01*
X629144Y901207D01*
X629859Y902934D01*
Y904804D01*
X629144Y906531D01*
X627822Y907853D01*
X626095Y908568D01*
X624225D01*
X622498Y907853D01*
X621176Y906531D01*
X620461Y904804D01*
Y902934D01*
X621176Y901207D01*
X621582Y900801D01*
Y898654D01*
X619242Y896313D01*
X619197Y896246D01*
X617696Y895951D01*
X615849Y896716D01*
X613851D01*
X612563Y896182D01*
X611293Y896899D01*
Y898650D01*
X611293Y898650D01*
X611076Y899740D01*
X610458Y900664D01*
X610458Y900664D01*
X607278Y903844D01*
Y905449D01*
X606563Y907176D01*
X605241Y908498D01*
X603514Y909213D01*
X601645D01*
X599918Y908498D01*
X598596Y907176D01*
X597880Y905449D01*
Y903580D01*
X598596Y901853D01*
X599918Y900531D01*
X601645Y899815D01*
X603250D01*
X604967Y898098D01*
X604889Y897325D01*
X603579Y896538D01*
X603149Y896716D01*
X601151D01*
X599304Y895951D01*
X597891Y894538D01*
X597126Y892691D01*
Y890692D01*
X597891Y888846D01*
X599304Y887433D01*
X601151Y886668D01*
X603149D01*
X604325Y887155D01*
X605595Y886373D01*
Y885162D01*
X604273Y883840D01*
X603656Y882916D01*
X603439Y881825D01*
X603439Y881825D01*
Y785886D01*
X602266Y785400D01*
X560605Y827061D01*
Y886373D01*
X561875Y887155D01*
X563051Y886668D01*
X565049D01*
X566896Y887433D01*
X568309Y888846D01*
X569074Y890692D01*
Y892691D01*
X568309Y894538D01*
X566896Y895951D01*
X565049Y896716D01*
X563051D01*
X561875Y896229D01*
X560605Y897011D01*
Y901352D01*
X560605Y901352D01*
X560388Y902442D01*
X559770Y903366D01*
X559770Y903366D01*
X555963Y907174D01*
X555039Y907791D01*
X553948Y908008D01*
X553948Y908008D01*
X550892D01*
X549757Y909143D01*
X548030Y909858D01*
D02*
G37*
G36*
X361579Y905342D02*
X359710D01*
X357983Y904627D01*
X356661Y903305D01*
X355945Y901578D01*
Y899709D01*
X356661Y897982D01*
X357983Y896660D01*
X359710Y895944D01*
X361579D01*
X363306Y896660D01*
X364628Y897982D01*
X365343Y899709D01*
Y901578D01*
X364628Y903305D01*
X363306Y904627D01*
X361579Y905342D01*
D02*
G37*
G36*
X380289Y898246D02*
X378419D01*
X376692Y897530D01*
X375370Y896208D01*
X374655Y894481D01*
Y892612D01*
X375370Y890885D01*
X376692Y889563D01*
X378419Y888848D01*
X380289D01*
X382016Y889563D01*
X383338Y890885D01*
X384053Y892612D01*
Y894481D01*
X383338Y896208D01*
X382016Y897530D01*
X380289Y898246D01*
D02*
G37*
G36*
X1058749Y896716D02*
X1056751D01*
X1054904Y895951D01*
X1053491Y894538D01*
X1052726Y892691D01*
Y890692D01*
X1053491Y888846D01*
X1054904Y887433D01*
X1056751Y886668D01*
X1058749D01*
X1060596Y887433D01*
X1062009Y888846D01*
X1062774Y890692D01*
Y892691D01*
X1062009Y894538D01*
X1060596Y895951D01*
X1058749Y896716D01*
D02*
G37*
G36*
X995249D02*
X993251D01*
X991404Y895951D01*
X989991Y894538D01*
X989226Y892691D01*
Y890692D01*
X989991Y888846D01*
X991404Y887433D01*
X993251Y886668D01*
X995249D01*
X997096Y887433D01*
X998509Y888846D01*
X999274Y890692D01*
Y892691D01*
X998509Y894538D01*
X997096Y895951D01*
X995249Y896716D01*
D02*
G37*
G36*
X982549D02*
X980551D01*
X978704Y895951D01*
X977291Y894538D01*
X976526Y892691D01*
Y890692D01*
X977291Y888846D01*
X978704Y887433D01*
X980551Y886668D01*
X982549D01*
X984396Y887433D01*
X985809Y888846D01*
X986574Y890692D01*
Y892691D01*
X985809Y894538D01*
X984396Y895951D01*
X982549Y896716D01*
D02*
G37*
G36*
X969849D02*
X967851D01*
X966004Y895951D01*
X964591Y894538D01*
X963826Y892691D01*
Y890692D01*
X964591Y888846D01*
X966004Y887433D01*
X967851Y886668D01*
X969849D01*
X971696Y887433D01*
X973109Y888846D01*
X973874Y890692D01*
Y892691D01*
X973109Y894538D01*
X971696Y895951D01*
X969849Y896716D01*
D02*
G37*
G36*
X957149D02*
X955151D01*
X953304Y895951D01*
X951891Y894538D01*
X951126Y892691D01*
Y890692D01*
X951891Y888846D01*
X953304Y887433D01*
X955151Y886668D01*
X957149D01*
X958996Y887433D01*
X960409Y888846D01*
X961174Y890692D01*
Y892691D01*
X960409Y894538D01*
X958996Y895951D01*
X957149Y896716D01*
D02*
G37*
G36*
X944449D02*
X942451D01*
X940604Y895951D01*
X939191Y894538D01*
X938426Y892691D01*
Y890692D01*
X939191Y888846D01*
X940604Y887433D01*
X942451Y886668D01*
X944449D01*
X946296Y887433D01*
X947709Y888846D01*
X948474Y890692D01*
Y892691D01*
X947709Y894538D01*
X946296Y895951D01*
X944449Y896716D01*
D02*
G37*
G36*
X931749D02*
X929751D01*
X927904Y895951D01*
X926491Y894538D01*
X925726Y892691D01*
Y890692D01*
X926491Y888846D01*
X927904Y887433D01*
X929751Y886668D01*
X931749D01*
X933596Y887433D01*
X935009Y888846D01*
X935774Y890692D01*
Y892691D01*
X935009Y894538D01*
X933596Y895951D01*
X931749Y896716D01*
D02*
G37*
G36*
X919049D02*
X917051D01*
X915204Y895951D01*
X913791Y894538D01*
X913026Y892691D01*
Y890692D01*
X913791Y888846D01*
X915204Y887433D01*
X917051Y886668D01*
X919049D01*
X920896Y887433D01*
X922309Y888846D01*
X923074Y890692D01*
Y892691D01*
X922309Y894538D01*
X920896Y895951D01*
X919049Y896716D01*
D02*
G37*
G36*
X906349D02*
X904351D01*
X902504Y895951D01*
X901091Y894538D01*
X900326Y892691D01*
Y890692D01*
X901091Y888846D01*
X902504Y887433D01*
X904351Y886668D01*
X906349D01*
X908196Y887433D01*
X909609Y888846D01*
X910374Y890692D01*
Y892691D01*
X909609Y894538D01*
X908196Y895951D01*
X906349Y896716D01*
D02*
G37*
G36*
X893649D02*
X891651D01*
X889804Y895951D01*
X888391Y894538D01*
X887626Y892691D01*
Y890692D01*
X888391Y888846D01*
X889804Y887433D01*
X891651Y886668D01*
X893649D01*
X895496Y887433D01*
X896909Y888846D01*
X897674Y890692D01*
Y892691D01*
X896909Y894538D01*
X895496Y895951D01*
X893649Y896716D01*
D02*
G37*
G36*
X880949D02*
X878951D01*
X877104Y895951D01*
X875691Y894538D01*
X874926Y892691D01*
Y890692D01*
X875691Y888846D01*
X877104Y887433D01*
X878951Y886668D01*
X880949D01*
X882796Y887433D01*
X884209Y888846D01*
X884974Y890692D01*
Y892691D01*
X884209Y894538D01*
X882796Y895951D01*
X880949Y896716D01*
D02*
G37*
G36*
X868249D02*
X866251D01*
X864404Y895951D01*
X862991Y894538D01*
X862226Y892691D01*
Y890692D01*
X862991Y888846D01*
X864404Y887433D01*
X866251Y886668D01*
X868249D01*
X870096Y887433D01*
X871509Y888846D01*
X872274Y890692D01*
Y892691D01*
X871509Y894538D01*
X870096Y895951D01*
X868249Y896716D01*
D02*
G37*
G36*
X855549D02*
X853551D01*
X851704Y895951D01*
X850291Y894538D01*
X849526Y892691D01*
Y890692D01*
X850291Y888846D01*
X851704Y887433D01*
X853551Y886668D01*
X855549D01*
X857396Y887433D01*
X858809Y888846D01*
X859574Y890692D01*
Y892691D01*
X858809Y894538D01*
X857396Y895951D01*
X855549Y896716D01*
D02*
G37*
G36*
X842849D02*
X840851D01*
X839004Y895951D01*
X837591Y894538D01*
X836826Y892691D01*
Y890692D01*
X837591Y888846D01*
X839004Y887433D01*
X840851Y886668D01*
X842849D01*
X844696Y887433D01*
X846109Y888846D01*
X846874Y890692D01*
Y892691D01*
X846109Y894538D01*
X844696Y895951D01*
X842849Y896716D01*
D02*
G37*
G36*
X830149D02*
X828151D01*
X826304Y895951D01*
X824891Y894538D01*
X824126Y892691D01*
Y890692D01*
X824891Y888846D01*
X826304Y887433D01*
X828151Y886668D01*
X830149D01*
X831996Y887433D01*
X833409Y888846D01*
X834174Y890692D01*
Y892691D01*
X833409Y894538D01*
X831996Y895951D01*
X830149Y896716D01*
D02*
G37*
G36*
X817449D02*
X815451D01*
X813604Y895951D01*
X812191Y894538D01*
X811426Y892691D01*
Y890692D01*
X812191Y888846D01*
X813604Y887433D01*
X815451Y886668D01*
X817449D01*
X819296Y887433D01*
X820709Y888846D01*
X821474Y890692D01*
Y892691D01*
X820709Y894538D01*
X819296Y895951D01*
X817449Y896716D01*
D02*
G37*
G36*
X717449D02*
X715451D01*
X713604Y895951D01*
X712191Y894538D01*
X711426Y892691D01*
Y890692D01*
X712191Y888846D01*
X713604Y887433D01*
X715451Y886668D01*
X717449D01*
X719296Y887433D01*
X720709Y888846D01*
X721474Y890692D01*
Y892691D01*
X720709Y894538D01*
X719296Y895951D01*
X717449Y896716D01*
D02*
G37*
G36*
X590449D02*
X588451D01*
X586604Y895951D01*
X585191Y894538D01*
X584426Y892691D01*
Y890692D01*
X585191Y888846D01*
X586604Y887433D01*
X588451Y886668D01*
X590449D01*
X592296Y887433D01*
X593709Y888846D01*
X594474Y890692D01*
Y892691D01*
X593709Y894538D01*
X592296Y895951D01*
X590449Y896716D01*
D02*
G37*
G36*
X577749D02*
X575751D01*
X573904Y895951D01*
X572491Y894538D01*
X571726Y892691D01*
Y890692D01*
X572491Y888846D01*
X573904Y887433D01*
X575751Y886668D01*
X577749D01*
X579596Y887433D01*
X581009Y888846D01*
X581774Y890692D01*
Y892691D01*
X581009Y894538D01*
X579596Y895951D01*
X577749Y896716D01*
D02*
G37*
G36*
X539649D02*
X537651D01*
X535804Y895951D01*
X534391Y894538D01*
X533626Y892691D01*
Y890692D01*
X534391Y888846D01*
X535804Y887433D01*
X537651Y886668D01*
X539649D01*
X541496Y887433D01*
X542909Y888846D01*
X543674Y890692D01*
Y892691D01*
X542909Y894538D01*
X541496Y895951D01*
X539649Y896716D01*
D02*
G37*
G36*
X476149D02*
X474151D01*
X472304Y895951D01*
X470891Y894538D01*
X470126Y892691D01*
Y890692D01*
X470891Y888846D01*
X472304Y887433D01*
X474151Y886668D01*
X476149D01*
X477996Y887433D01*
X479409Y888846D01*
X480174Y890692D01*
Y892691D01*
X479409Y894538D01*
X477996Y895951D01*
X476149Y896716D01*
D02*
G37*
G36*
X346740Y895665D02*
X344871D01*
X343144Y894950D01*
X341822Y893628D01*
X341107Y891901D01*
Y890031D01*
X341822Y888304D01*
X343144Y886982D01*
X344871Y886267D01*
X346740D01*
X348467Y886982D01*
X349789Y888304D01*
X350505Y890031D01*
Y891901D01*
X349789Y893628D01*
X348467Y894950D01*
X346740Y895665D01*
D02*
G37*
G36*
X588345Y883842D02*
Y881248D01*
X590939D01*
X590650Y881945D01*
X589043Y883553D01*
X588345Y883842D01*
D02*
G37*
G36*
X583265D02*
X582568Y883553D01*
X580960Y881945D01*
X580672Y881248D01*
X583265D01*
Y883842D01*
D02*
G37*
G36*
X1226421Y911116D02*
X1223166D01*
X1219973Y910481D01*
X1216966Y909235D01*
X1214260Y907427D01*
X1211958Y905125D01*
X1210150Y902419D01*
X1208904Y899412D01*
X1208269Y896219D01*
Y892964D01*
X1208904Y889772D01*
X1210150Y886765D01*
X1211958Y884058D01*
X1214260Y881757D01*
X1216966Y879948D01*
X1219973Y878703D01*
X1223166Y878068D01*
X1226421D01*
X1229613Y878703D01*
X1232620Y879948D01*
X1235327Y881757D01*
X1237628Y884058D01*
X1239436Y886765D01*
X1240682Y889772D01*
X1241317Y892964D01*
Y896219D01*
X1240682Y899412D01*
X1239436Y902419D01*
X1237628Y905125D01*
X1235327Y907427D01*
X1232620Y909235D01*
X1229613Y910481D01*
X1226421Y911116D01*
D02*
G37*
G36*
X309735D02*
X306480D01*
X303287Y910481D01*
X300280Y909235D01*
X297574Y907427D01*
X295272Y905125D01*
X293464Y902419D01*
X292218Y899412D01*
X291583Y896219D01*
Y892964D01*
X292218Y889772D01*
X293464Y886765D01*
X295272Y884058D01*
X297574Y881757D01*
X300280Y879948D01*
X303287Y878703D01*
X306480Y878068D01*
X309735D01*
X312927Y878703D01*
X315934Y879948D01*
X318640Y881757D01*
X320942Y884058D01*
X322751Y886765D01*
X323996Y889772D01*
X324631Y892964D01*
Y896219D01*
X323996Y899412D01*
X322751Y902419D01*
X320942Y905125D01*
X318640Y907427D01*
X315934Y909235D01*
X312927Y910481D01*
X309735Y911116D01*
D02*
G37*
G36*
X833191Y883407D02*
X831322D01*
X829595Y882691D01*
X828273Y881370D01*
X827557Y879643D01*
Y877773D01*
X828273Y876046D01*
X829595Y874724D01*
X831322Y874009D01*
X833191D01*
X834918Y874724D01*
X836240Y876046D01*
X836955Y877773D01*
Y879643D01*
X836240Y881370D01*
X834918Y882691D01*
X833191Y883407D01*
D02*
G37*
G36*
X590939Y876168D02*
X588345D01*
Y873574D01*
X589043Y873863D01*
X590650Y875471D01*
X590939Y876168D01*
D02*
G37*
G36*
X583265D02*
X580672D01*
X580960Y875471D01*
X582568Y873863D01*
X583265Y873574D01*
Y876168D01*
D02*
G37*
G36*
X337708Y882117D02*
X335839D01*
X334112Y881401D01*
X332790Y880079D01*
X332075Y878352D01*
Y876483D01*
X332790Y874756D01*
X334112Y873434D01*
X335839Y872719D01*
X337708D01*
X339435Y873434D01*
X340757Y874756D01*
X341473Y876483D01*
Y878352D01*
X340757Y880079D01*
X339435Y881401D01*
X337708Y882117D01*
D02*
G37*
G36*
X783071Y909435D02*
X779422D01*
X775843Y908723D01*
X772472Y907327D01*
X769438Y905299D01*
X766858Y902719D01*
X764830Y899685D01*
X763434Y896314D01*
X762722Y892735D01*
Y889086D01*
X763434Y885508D01*
X764830Y882136D01*
X766858Y879102D01*
X769438Y876522D01*
X772472Y874495D01*
X775843Y873099D01*
X779422Y872387D01*
X783071D01*
X786649Y873099D01*
X790021Y874495D01*
X793055Y876522D01*
X795635Y879102D01*
X797662Y882136D01*
X799058Y885508D01*
X799770Y889086D01*
Y892735D01*
X799058Y896314D01*
X797662Y899685D01*
X795635Y902719D01*
X793055Y905299D01*
X790021Y907327D01*
X786649Y908723D01*
X783071Y909435D01*
D02*
G37*
G36*
X547713Y869071D02*
X545120D01*
Y866477D01*
X545817Y866766D01*
X547425Y868374D01*
X547713Y869071D01*
D02*
G37*
G36*
X792546Y871311D02*
X790677D01*
X788950Y870596D01*
X787628Y869274D01*
X786912Y867547D01*
Y865678D01*
X787628Y863951D01*
X788950Y862629D01*
X790677Y861913D01*
X792546D01*
X794273Y862629D01*
X795595Y863951D01*
X796310Y865678D01*
Y867547D01*
X795595Y869274D01*
X794273Y870596D01*
X792546Y871311D01*
D02*
G37*
G36*
X331257Y865988D02*
X329387D01*
X327660Y865272D01*
X326338Y863950D01*
X325623Y862223D01*
Y860354D01*
X326338Y858627D01*
X327660Y857305D01*
X329387Y856590D01*
X331257D01*
X332984Y857305D01*
X334305Y858627D01*
X335021Y860354D01*
Y862223D01*
X334305Y863950D01*
X332984Y865272D01*
X331257Y865988D01*
D02*
G37*
G36*
X838352Y863407D02*
X836483D01*
X834756Y862692D01*
X833434Y861370D01*
X832719Y859643D01*
Y857773D01*
X833434Y856046D01*
X834756Y854724D01*
X836483Y854009D01*
X838352D01*
X840079Y854724D01*
X841401Y856046D01*
X842117Y857773D01*
Y859643D01*
X841401Y861370D01*
X840079Y862692D01*
X838352Y863407D01*
D02*
G37*
G36*
X809320Y862117D02*
X807451D01*
X805724Y861401D01*
X804402Y860079D01*
X803687Y858352D01*
Y856483D01*
X804402Y854756D01*
X805724Y853434D01*
X807451Y852719D01*
X809320D01*
X811047Y853434D01*
X812369Y854756D01*
X813084Y856483D01*
Y858352D01*
X812369Y860079D01*
X811047Y861401D01*
X809320Y862117D01*
D02*
G37*
G36*
X366511Y886575D02*
X362862D01*
X359283Y885863D01*
X355912Y884467D01*
X352878Y882439D01*
X350298Y879859D01*
X348270Y876825D01*
X346874Y873454D01*
X346162Y869875D01*
Y866226D01*
X346874Y862648D01*
X348270Y859276D01*
X350298Y856243D01*
X352878Y853662D01*
X355912Y851635D01*
X359283Y850239D01*
X362862Y849527D01*
X366511D01*
X370089Y850239D01*
X373461Y851635D01*
X376495Y853662D01*
X379075Y856243D01*
X381102Y859276D01*
X382498Y862648D01*
X383210Y866226D01*
Y869875D01*
X382498Y873454D01*
X381102Y876825D01*
X379075Y879859D01*
X376495Y882439D01*
X373461Y884467D01*
X370089Y885863D01*
X366511Y886575D01*
D02*
G37*
G36*
X1174231Y882765D02*
X1170582D01*
X1167003Y882053D01*
X1163632Y880657D01*
X1160598Y878629D01*
X1158018Y876049D01*
X1155991Y873015D01*
X1154594Y869644D01*
X1153882Y866065D01*
Y862416D01*
X1154594Y858838D01*
X1155991Y855466D01*
X1158018Y852432D01*
X1160598Y849852D01*
X1163632Y847825D01*
X1167003Y846429D01*
X1170582Y845717D01*
X1174231D01*
X1177810Y846429D01*
X1181181Y847825D01*
X1184215Y849852D01*
X1186795Y852432D01*
X1188822Y855466D01*
X1190218Y858838D01*
X1190930Y862416D01*
Y866065D01*
X1190218Y869644D01*
X1188822Y873015D01*
X1186795Y876049D01*
X1184215Y878629D01*
X1181181Y880657D01*
X1177810Y882053D01*
X1174231Y882765D01*
D02*
G37*
G36*
X798353Y857600D02*
X796483D01*
X794756Y856885D01*
X793434Y855563D01*
X792719Y853836D01*
Y851967D01*
X793434Y850240D01*
X793836Y849838D01*
X793310Y848568D01*
X791967D01*
X790240Y847853D01*
X788918Y846531D01*
X788203Y844804D01*
Y842935D01*
X788918Y841208D01*
X790240Y839886D01*
X791967Y839170D01*
X793836D01*
X795563Y839886D01*
X796885Y841208D01*
X797601Y842935D01*
Y844804D01*
X796885Y846531D01*
X796484Y846933D01*
X797010Y848203D01*
X798353D01*
X800079Y848918D01*
X801401Y850240D01*
X802117Y851967D01*
Y853836D01*
X801401Y855563D01*
X800079Y856885D01*
X798353Y857600D01*
D02*
G37*
G36*
X781986Y845078D02*
X780116D01*
X778389Y844363D01*
X777067Y843041D01*
X776352Y841314D01*
Y839444D01*
X776681Y838649D01*
X777067Y837717D01*
X776095Y836999D01*
X774918Y838176D01*
X773191Y838891D01*
X771322D01*
X769595Y838176D01*
X768273Y836854D01*
X767558Y835127D01*
Y833257D01*
X768273Y831530D01*
X769595Y830208D01*
X771322Y829493D01*
X773191D01*
X774918Y830208D01*
X776240Y831530D01*
X776955Y833257D01*
Y835127D01*
X776240Y836854D01*
X777213Y837572D01*
X778389Y836395D01*
X780116Y835680D01*
X781986D01*
X783713Y836395D01*
X785035Y837717D01*
X785750Y839444D01*
Y841314D01*
X785035Y843041D01*
X783713Y844363D01*
X781986Y845078D01*
D02*
G37*
G36*
X820288Y837601D02*
X818419D01*
X816691Y836885D01*
X815370Y835563D01*
X814654Y833836D01*
Y831967D01*
X815370Y830240D01*
X816691Y828918D01*
X818419Y828203D01*
X820288D01*
X822015Y828918D01*
X823337Y830240D01*
X824052Y831967D01*
Y833836D01*
X823337Y835563D01*
X822015Y836885D01*
X820288Y837601D01*
D02*
G37*
G36*
X763514Y833084D02*
X761644D01*
X759917Y832369D01*
X758596Y831047D01*
X757880Y829320D01*
Y827451D01*
X758596Y825724D01*
X759917Y824402D01*
X761644Y823686D01*
X763514D01*
X765241Y824402D01*
X766563Y825724D01*
X767278Y827451D01*
Y829320D01*
X766563Y831047D01*
X765241Y832369D01*
X763514Y833084D01*
D02*
G37*
G36*
X835127Y826633D02*
X833257D01*
X831530Y825917D01*
X830208Y824596D01*
X829493Y822868D01*
Y820999D01*
X830208Y819272D01*
X831530Y817950D01*
X833257Y817235D01*
X835127D01*
X836854Y817950D01*
X838176Y819272D01*
X838891Y820999D01*
Y822868D01*
X838176Y824596D01*
X836854Y825917D01*
X835127Y826633D01*
D02*
G37*
G36*
X824159Y825988D02*
X822290D01*
X820562Y825272D01*
X819241Y823950D01*
X818525Y822223D01*
Y820354D01*
X819241Y818627D01*
X820562Y817305D01*
X822290Y816590D01*
X824159D01*
X825886Y817305D01*
X827208Y818627D01*
X827923Y820354D01*
Y822223D01*
X827208Y823950D01*
X825886Y825272D01*
X824159Y825988D01*
D02*
G37*
G36*
X755320Y824245D02*
X753450D01*
X751723Y823530D01*
X750402Y822208D01*
X749686Y820481D01*
Y818612D01*
X750402Y816885D01*
X751723Y815563D01*
X753450Y814847D01*
X755320D01*
X757047Y815563D01*
X758369Y816885D01*
X759084Y818612D01*
Y820481D01*
X758369Y822208D01*
X757047Y823530D01*
X755320Y824245D01*
D02*
G37*
G36*
X964906Y809163D02*
X962832D01*
X960830Y808626D01*
X959034Y807589D01*
X957568Y806124D01*
X956532Y804328D01*
X955995Y802325D01*
Y800252D01*
X956532Y798250D01*
X957568Y796454D01*
X959034Y794988D01*
X960830Y793951D01*
X962832Y793415D01*
X964906D01*
X966908Y793951D01*
X968704Y794988D01*
X970170Y796454D01*
X971206Y798250D01*
X971743Y800252D01*
Y802325D01*
X971206Y804328D01*
X970170Y806124D01*
X968704Y807589D01*
X966908Y808626D01*
X964906Y809163D01*
D02*
G37*
G36*
X372894Y804745D02*
X354846D01*
Y786697D01*
X372894D01*
Y804745D01*
D02*
G37*
G36*
X1124268Y792929D02*
X1122567D01*
X1120996Y792278D01*
X1119794Y791076D01*
X1119143Y789505D01*
Y787805D01*
X1119794Y786234D01*
X1120996Y785032D01*
X1122567Y784381D01*
X1124268D01*
X1125838Y785032D01*
X1127041Y786234D01*
X1127691Y787805D01*
Y789505D01*
X1127041Y791076D01*
X1125838Y792278D01*
X1124268Y792929D01*
D02*
G37*
G36*
X985267D02*
X983567D01*
X981996Y792278D01*
X980794Y791076D01*
X980143Y789505D01*
Y787805D01*
X980794Y786234D01*
X981996Y785032D01*
X983567Y784381D01*
X985267D01*
X986838Y785032D01*
X988041Y786234D01*
X988691Y787805D01*
Y789505D01*
X988041Y791076D01*
X986838Y792278D01*
X985267Y792929D01*
D02*
G37*
G36*
X869268D02*
X867567D01*
X865996Y792278D01*
X864794Y791076D01*
X864143Y789505D01*
Y787805D01*
X864794Y786234D01*
X865996Y785032D01*
X867567Y784381D01*
X869268D01*
X870838Y785032D01*
X872041Y786234D01*
X872691Y787805D01*
Y789505D01*
X872041Y791076D01*
X870838Y792278D01*
X869268Y792929D01*
D02*
G37*
G36*
X839958Y781906D02*
Y779313D01*
X842551D01*
X842263Y780010D01*
X840655Y781618D01*
X839958Y781906D01*
D02*
G37*
G36*
X834878D02*
X834180Y781618D01*
X832573Y780010D01*
X832284Y779313D01*
X834878D01*
Y781906D01*
D02*
G37*
G36*
X1100602Y781261D02*
Y778668D01*
X1103196D01*
X1102907Y779365D01*
X1101300Y780972D01*
X1100602Y781261D01*
D02*
G37*
G36*
X1095522D02*
X1094825Y780972D01*
X1093217Y779365D01*
X1092928Y778668D01*
X1095522D01*
Y781261D01*
D02*
G37*
G36*
X1056731D02*
Y778668D01*
X1059325D01*
X1059036Y779365D01*
X1057429Y780972D01*
X1056731Y781261D01*
D02*
G37*
G36*
X1051651D02*
X1050954Y780972D01*
X1049346Y779365D01*
X1049058Y778668D01*
X1051651D01*
Y781261D01*
D02*
G37*
G36*
X799958D02*
Y778668D01*
X802551D01*
X802263Y779365D01*
X800655Y780972D01*
X799958Y781261D01*
D02*
G37*
G36*
X794878D02*
X794181Y780972D01*
X792573Y779365D01*
X792284Y778668D01*
X794878D01*
Y781261D01*
D02*
G37*
G36*
X756732D02*
Y778668D01*
X759326D01*
X759037Y779365D01*
X757429Y780972D01*
X756732Y781261D01*
D02*
G37*
G36*
X751652D02*
X750955Y780972D01*
X749347Y779365D01*
X749058Y778668D01*
X751652D01*
Y781261D01*
D02*
G37*
G36*
X842551Y774233D02*
X839958D01*
Y771639D01*
X840655Y771928D01*
X842263Y773535D01*
X842551Y774233D01*
D02*
G37*
G36*
X834878D02*
X832284D01*
X832573Y773535D01*
X834180Y771928D01*
X834878Y771639D01*
Y774233D01*
D02*
G37*
G36*
X1103196Y773587D02*
X1100602D01*
Y770994D01*
X1101300Y771283D01*
X1102907Y772890D01*
X1103196Y773587D01*
D02*
G37*
G36*
X1095522D02*
X1092928D01*
X1093217Y772890D01*
X1094825Y771283D01*
X1095522Y770994D01*
Y773587D01*
D02*
G37*
G36*
X1059325D02*
X1056731D01*
Y770994D01*
X1057429Y771283D01*
X1059036Y772890D01*
X1059325Y773587D01*
D02*
G37*
G36*
X1051651D02*
X1049058D01*
X1049346Y772890D01*
X1050954Y771283D01*
X1051651Y770994D01*
Y773587D01*
D02*
G37*
G36*
X802551D02*
X799958D01*
Y770994D01*
X800655Y771283D01*
X802263Y772890D01*
X802551Y773587D01*
D02*
G37*
G36*
X794878D02*
X792284D01*
X792573Y772890D01*
X794181Y771283D01*
X794878Y770994D01*
Y773587D01*
D02*
G37*
G36*
X759326D02*
X756732D01*
Y770994D01*
X757429Y771283D01*
X759037Y772890D01*
X759326Y773587D01*
D02*
G37*
G36*
X751652D02*
X749058D01*
X749347Y772890D01*
X750955Y771283D01*
X751652Y770994D01*
Y773587D01*
D02*
G37*
G36*
X365058Y779345D02*
X362682D01*
X360387Y778730D01*
X358329Y777542D01*
X356649Y775862D01*
X355461Y773804D01*
X354846Y771509D01*
Y769133D01*
X355461Y766838D01*
X356649Y764780D01*
X358329Y763100D01*
X360387Y761912D01*
X362682Y761297D01*
X365058D01*
X367353Y761912D01*
X369411Y763100D01*
X371091Y764780D01*
X372279Y766838D01*
X372894Y769133D01*
Y771509D01*
X372279Y773804D01*
X371091Y775862D01*
X369411Y777542D01*
X367353Y778730D01*
X365058Y779345D01*
D02*
G37*
G36*
X981578Y758891D02*
X979708D01*
X977981Y758176D01*
X976660Y756854D01*
X975944Y755127D01*
Y753257D01*
X976660Y751530D01*
X977981Y750208D01*
X979708Y749493D01*
X981578D01*
X983305Y750208D01*
X984627Y751530D01*
X985342Y753257D01*
Y755127D01*
X984627Y756854D01*
X983305Y758176D01*
X981578Y758891D01*
D02*
G37*
G36*
X724159Y737601D02*
X722290D01*
X720563Y736885D01*
X719241Y735564D01*
X718525Y733837D01*
Y731967D01*
X719241Y730240D01*
X720563Y728918D01*
X722290Y728203D01*
X724159D01*
X725886Y728918D01*
X727208Y730240D01*
X727923Y731967D01*
Y733837D01*
X727208Y735564D01*
X725886Y736885D01*
X724159Y737601D01*
D02*
G37*
G36*
X615874Y715614D02*
X613801D01*
X611798Y715078D01*
X610003Y714041D01*
X608537Y712575D01*
X607500Y710780D01*
X606964Y708777D01*
Y706704D01*
X607500Y704701D01*
X608537Y702906D01*
X610003Y701440D01*
X611798Y700403D01*
X613801Y699866D01*
X615874D01*
X617877Y700403D01*
X619672Y701440D01*
X621138Y702906D01*
X622175Y704701D01*
X622711Y706704D01*
Y708777D01*
X622175Y710780D01*
X621138Y712575D01*
X619672Y714041D01*
X617877Y715078D01*
X615874Y715614D01*
D02*
G37*
G36*
X552063Y647924D02*
X550193D01*
X548466Y647208D01*
X547144Y645886D01*
X546429Y644159D01*
Y642290D01*
X547144Y640563D01*
X548466Y639241D01*
X550193Y638526D01*
X552063D01*
X553790Y639241D01*
X554925Y640376D01*
X595520D01*
X601666Y634230D01*
Y623150D01*
X600531Y622015D01*
X599816Y620288D01*
Y618419D01*
X600531Y616692D01*
X601853Y615370D01*
X603580Y614655D01*
X605450D01*
X607177Y615370D01*
X608498Y616692D01*
X609214Y618419D01*
Y620288D01*
X608498Y622015D01*
X607364Y623150D01*
Y635410D01*
X607364Y635410D01*
X607147Y636500D01*
X606529Y637424D01*
X606529Y637425D01*
X598715Y645239D01*
X597791Y645856D01*
X596700Y646073D01*
X596700Y646073D01*
X554925D01*
X553790Y647208D01*
X552063Y647924D01*
D02*
G37*
G36*
X612595Y591230D02*
X610726D01*
X608999Y590514D01*
X607677Y589192D01*
X606961Y587465D01*
Y585596D01*
X607677Y583869D01*
X608999Y582547D01*
X610726Y581832D01*
X612595D01*
X614322Y582547D01*
X615644Y583869D01*
X616359Y585596D01*
Y587465D01*
X615644Y589192D01*
X614322Y590514D01*
X612595Y591230D01*
D02*
G37*
G36*
X503829Y569004D02*
Y566410D01*
X506423D01*
X506134Y567107D01*
X504527Y568715D01*
X503829Y569004D01*
D02*
G37*
G36*
X498749D02*
X498052Y568715D01*
X496444Y567107D01*
X496156Y566410D01*
X498749D01*
Y569004D01*
D02*
G37*
G36*
X506423Y561330D02*
X503829D01*
Y558736D01*
X504527Y559025D01*
X506134Y560633D01*
X506423Y561330D01*
D02*
G37*
G36*
X498749D02*
X496156D01*
X496444Y560633D01*
X498052Y559025D01*
X498749Y558736D01*
Y561330D01*
D02*
G37*
G36*
X482539Y549649D02*
Y547055D01*
X485133D01*
X484844Y547752D01*
X483236Y549360D01*
X482539Y549649D01*
D02*
G37*
G36*
X477459D02*
X476762Y549360D01*
X475154Y547752D01*
X474865Y547055D01*
X477459D01*
Y549649D01*
D02*
G37*
G36*
X485133Y541975D02*
X482539D01*
Y539381D01*
X483236Y539670D01*
X484844Y541278D01*
X485133Y541975D01*
D02*
G37*
G36*
X477459D02*
X474865D01*
X475154Y541278D01*
X476762Y539670D01*
X477459Y539381D01*
Y541975D01*
D02*
G37*
G36*
X616579Y539537D02*
X614709D01*
X612982Y538821D01*
X611660Y537499D01*
X610945Y535772D01*
Y533903D01*
X611660Y532176D01*
X612982Y530854D01*
X614709Y530139D01*
X616579D01*
X618306Y530854D01*
X619627Y532176D01*
X620343Y533903D01*
Y535772D01*
X619627Y537499D01*
X618306Y538821D01*
X616579Y539537D01*
D02*
G37*
G36*
X564636Y530294D02*
Y527700D01*
X567229D01*
X566941Y528397D01*
X565333Y530005D01*
X564636Y530294D01*
D02*
G37*
G36*
X559556D02*
X558858Y530005D01*
X557251Y528397D01*
X556962Y527700D01*
X559556D01*
Y530294D01*
D02*
G37*
G36*
X567229Y522620D02*
X564636D01*
Y520027D01*
X565333Y520315D01*
X566941Y521923D01*
X567229Y522620D01*
D02*
G37*
G36*
X559556D02*
X556962D01*
X557251Y521923D01*
X558858Y520315D01*
X559556Y520027D01*
Y522620D01*
D02*
G37*
G36*
X589321Y525343D02*
X587451D01*
X585724Y524628D01*
X584402Y523306D01*
X583687Y521579D01*
Y519709D01*
X584402Y517982D01*
X585724Y516660D01*
X587451Y515945D01*
X589321D01*
X591048Y516660D01*
X592183Y517795D01*
X605160D01*
X605160Y517795D01*
X606250Y518012D01*
X606891Y518441D01*
X642010D01*
X642467Y517337D01*
X643789Y516015D01*
X645516Y515300D01*
X647385D01*
X649112Y516015D01*
X650434Y517337D01*
X651149Y519064D01*
Y520934D01*
X650434Y522661D01*
X649112Y523983D01*
X647385Y524698D01*
X645516D01*
X643805Y523989D01*
X643057Y524138D01*
X643057Y524138D01*
X605805D01*
X605805Y524138D01*
X604715Y523921D01*
X604074Y523493D01*
X592183D01*
X591048Y524628D01*
X589321Y525343D01*
D02*
G37*
G36*
X516732Y487068D02*
Y484474D01*
X519326D01*
X519038Y485172D01*
X517430Y486780D01*
X516732Y487068D01*
D02*
G37*
G36*
X511652D02*
X510955Y486780D01*
X509348Y485172D01*
X509059Y484474D01*
X511652D01*
Y487068D01*
D02*
G37*
G36*
X566141Y484273D02*
Y481679D01*
X568735D01*
X568446Y482376D01*
X566838Y483984D01*
X566141Y484273D01*
D02*
G37*
G36*
X561061D02*
X560363Y483984D01*
X558756Y482376D01*
X558467Y481679D01*
X561061D01*
Y484273D01*
D02*
G37*
G36*
X519326Y479394D02*
X516732D01*
Y476801D01*
X517430Y477090D01*
X519038Y478697D01*
X519326Y479394D01*
D02*
G37*
G36*
X511652D02*
X509059D01*
X509348Y478697D01*
X510955Y477090D01*
X511652Y476801D01*
Y479394D01*
D02*
G37*
G36*
X568735Y476599D02*
X566141D01*
Y474005D01*
X566838Y474294D01*
X568446Y475902D01*
X568735Y476599D01*
D02*
G37*
G36*
X561061D02*
X558467D01*
X558756Y475902D01*
X560363Y474294D01*
X561061Y474005D01*
Y476599D01*
D02*
G37*
G36*
X508345Y465133D02*
Y462539D01*
X510939D01*
X510650Y463236D01*
X509043Y464844D01*
X508345Y465133D01*
D02*
G37*
G36*
X503265D02*
X502568Y464844D01*
X500961Y463236D01*
X500672Y462539D01*
X503265D01*
Y465133D01*
D02*
G37*
G36*
X510939Y457459D02*
X508345D01*
Y454865D01*
X509043Y455154D01*
X510650Y456762D01*
X510939Y457459D01*
D02*
G37*
G36*
X503265D02*
X500672D01*
X500961Y456762D01*
X502568Y455154D01*
X503265Y454865D01*
Y457459D01*
D02*
G37*
G36*
X982868Y460827D02*
X980999D01*
X979272Y460112D01*
X977950Y458790D01*
X977234Y457063D01*
Y455193D01*
X977950Y453466D01*
X979272Y452145D01*
X980999Y451429D01*
X982868D01*
X984595Y452145D01*
X985917Y453466D01*
X986633Y455193D01*
Y457063D01*
X985917Y458790D01*
X984595Y460112D01*
X982868Y460827D01*
D02*
G37*
G36*
X769320D02*
X767451D01*
X765724Y460112D01*
X764402Y458790D01*
X763687Y457063D01*
Y455193D01*
X764402Y453466D01*
X765724Y452145D01*
X767451Y451429D01*
X769320D01*
X771047Y452145D01*
X772369Y453466D01*
X773085Y455193D01*
Y457063D01*
X772369Y458790D01*
X771047Y460112D01*
X769320Y460827D01*
D02*
G37*
G36*
X384475Y444934D02*
Y439313D01*
X390095D01*
X389893Y440070D01*
X388768Y442017D01*
X387178Y443607D01*
X385231Y444731D01*
X384475Y444934D01*
D02*
G37*
G36*
X462620Y444934D02*
X461864Y444731D01*
X459917Y443607D01*
X458327Y442017D01*
X457202Y440070D01*
X457000Y439313D01*
X462620D01*
Y444934D01*
D02*
G37*
G36*
X379395D02*
X378638Y444731D01*
X376691Y443607D01*
X375101Y442017D01*
X373977Y440070D01*
X373774Y439313D01*
X379395D01*
Y444934D01*
D02*
G37*
G36*
X390095Y434233D02*
X384475D01*
Y428613D01*
X385231Y428815D01*
X387178Y429940D01*
X388768Y431530D01*
X389893Y433477D01*
X390095Y434233D01*
D02*
G37*
G36*
X379395D02*
X373774D01*
X373977Y433477D01*
X375101Y431530D01*
X376691Y429940D01*
X378638Y428815D01*
X379395Y428613D01*
Y434233D01*
D02*
G37*
G36*
X467700Y444934D02*
Y436773D01*
X465160D01*
Y434233D01*
X457000D01*
X457202Y433477D01*
X458327Y431530D01*
X459917Y429940D01*
X461162Y429221D01*
X460822Y427951D01*
X420178D01*
X409459Y438669D01*
Y444297D01*
X394411D01*
Y429249D01*
X400039D01*
X412708Y416580D01*
X412709Y416579D01*
X414088Y415521D01*
X415695Y414855D01*
X417419Y414628D01*
X417419Y414628D01*
X469676D01*
X469677Y414628D01*
X471400Y414855D01*
X473007Y415521D01*
X474386Y416579D01*
X487056Y429249D01*
X492684D01*
Y430112D01*
X515950D01*
X537833Y408229D01*
Y407843D01*
X538448Y405548D01*
X539636Y403491D01*
X541316Y401810D01*
X543374Y400622D01*
X545669Y400008D01*
X548045D01*
X550340Y400622D01*
X552398Y401810D01*
X554078Y403491D01*
X555266Y405548D01*
X555881Y407843D01*
Y410219D01*
X555266Y412515D01*
X554078Y414572D01*
X552398Y416252D01*
X550340Y417440D01*
X548045Y418055D01*
X546847D01*
X523419Y441483D01*
X522039Y442542D01*
X520433Y443207D01*
X518709Y443434D01*
X518708Y443434D01*
X492684D01*
Y444297D01*
X477636D01*
Y438669D01*
X474970Y436003D01*
X473700Y436530D01*
Y437898D01*
X473118Y440070D01*
X471994Y442017D01*
X470404Y443607D01*
X468457Y444731D01*
X467700Y444934D01*
D02*
G37*
G36*
X1124268Y432929D02*
X1122567D01*
X1120996Y432278D01*
X1119794Y431076D01*
X1119143Y429505D01*
Y427805D01*
X1119794Y426234D01*
X1120996Y425032D01*
X1122567Y424381D01*
X1124268D01*
X1125838Y425032D01*
X1127041Y426234D01*
X1127691Y427805D01*
Y429505D01*
X1127041Y431076D01*
X1125838Y432278D01*
X1124268Y432929D01*
D02*
G37*
G36*
X985267D02*
X983567D01*
X981996Y432278D01*
X980794Y431076D01*
X980143Y429505D01*
Y427805D01*
X980794Y426234D01*
X981996Y425032D01*
X983567Y424381D01*
X985267D01*
X986838Y425032D01*
X988041Y426234D01*
X988691Y427805D01*
Y429505D01*
X988041Y431076D01*
X986838Y432278D01*
X985267Y432929D01*
D02*
G37*
G36*
X909268D02*
X907567D01*
X905996Y432278D01*
X904794Y431076D01*
X904143Y429505D01*
Y427805D01*
X904794Y426234D01*
X905996Y425032D01*
X907567Y424381D01*
X909268D01*
X910838Y425032D01*
X912041Y426234D01*
X912691Y427805D01*
Y429505D01*
X912041Y431076D01*
X910838Y432278D01*
X909268Y432929D01*
D02*
G37*
G36*
X770267D02*
X768567D01*
X766996Y432278D01*
X765794Y431076D01*
X765143Y429505D01*
Y427805D01*
X765794Y426234D01*
X766996Y425032D01*
X768567Y424381D01*
X770267D01*
X771838Y425032D01*
X773041Y426234D01*
X773691Y427805D01*
Y429505D01*
X773041Y431076D01*
X771838Y432278D01*
X770267Y432929D01*
D02*
G37*
G36*
X1056086Y421262D02*
Y418668D01*
X1058680D01*
X1058391Y419366D01*
X1056784Y420973D01*
X1056086Y421262D01*
D02*
G37*
G36*
X1051006D02*
X1050309Y420973D01*
X1048701Y419366D01*
X1048412Y418668D01*
X1051006D01*
Y421262D01*
D02*
G37*
G36*
X878667D02*
Y418668D01*
X881261D01*
X880972Y419366D01*
X879365Y420973D01*
X878667Y421262D01*
D02*
G37*
G36*
X873587D02*
X872890Y420973D01*
X871282Y419366D01*
X870993Y418668D01*
X873587D01*
Y421262D01*
D02*
G37*
G36*
X1099957Y420617D02*
Y418023D01*
X1102551D01*
X1102262Y418720D01*
X1100654Y420328D01*
X1099957Y420617D01*
D02*
G37*
G36*
X1094877D02*
X1094180Y420328D01*
X1092572Y418720D01*
X1092283Y418023D01*
X1094877D01*
Y420617D01*
D02*
G37*
G36*
X1010925D02*
Y418023D01*
X1013519D01*
X1013230Y418720D01*
X1011622Y420328D01*
X1010925Y420617D01*
D02*
G37*
G36*
X1005845D02*
X1005148Y420328D01*
X1003540Y418720D01*
X1003251Y418023D01*
X1005845D01*
Y420617D01*
D02*
G37*
G36*
X841248D02*
Y418023D01*
X843842D01*
X843553Y418720D01*
X841945Y420328D01*
X841248Y420617D01*
D02*
G37*
G36*
X836168D02*
X835471Y420328D01*
X833863Y418720D01*
X833574Y418023D01*
X836168D01*
Y420617D01*
D02*
G37*
G36*
X1058680Y413588D02*
X1056086D01*
Y410994D01*
X1056784Y411283D01*
X1058391Y412891D01*
X1058680Y413588D01*
D02*
G37*
G36*
X1051006D02*
X1048412D01*
X1048701Y412891D01*
X1050309Y411283D01*
X1051006Y410994D01*
Y413588D01*
D02*
G37*
G36*
X881261D02*
X878667D01*
Y410994D01*
X879365Y411283D01*
X880972Y412891D01*
X881261Y413588D01*
D02*
G37*
G36*
X873587D02*
X870993D01*
X871282Y412891D01*
X872890Y411283D01*
X873587Y410994D01*
Y413588D01*
D02*
G37*
G36*
X1102551Y412943D02*
X1099957D01*
Y410349D01*
X1100654Y410638D01*
X1102262Y412246D01*
X1102551Y412943D01*
D02*
G37*
G36*
X1094877D02*
X1092283D01*
X1092572Y412246D01*
X1094180Y410638D01*
X1094877Y410349D01*
Y412943D01*
D02*
G37*
G36*
X1013519D02*
X1010925D01*
Y410349D01*
X1011622Y410638D01*
X1013230Y412246D01*
X1013519Y412943D01*
D02*
G37*
G36*
X1005845D02*
X1003251D01*
X1003540Y412246D01*
X1005148Y410638D01*
X1005845Y410349D01*
Y412943D01*
D02*
G37*
G36*
X843842D02*
X841248D01*
Y410349D01*
X841945Y410638D01*
X843553Y412246D01*
X843842Y412943D01*
D02*
G37*
G36*
X836168D02*
X833574D01*
X833863Y412246D01*
X835471Y410638D01*
X836168Y410349D01*
Y412943D01*
D02*
G37*
G36*
X581281Y418055D02*
X563233D01*
Y400008D01*
X581281D01*
Y418055D01*
D02*
G37*
%LPD*%
G36*
X328251Y989289D02*
X328816Y988443D01*
X511273Y805986D01*
X510784Y804804D01*
Y803425D01*
X509539Y802874D01*
X326981Y985432D01*
Y988619D01*
X328158Y989302D01*
X328251Y989289D01*
D02*
G37*
G36*
X1035907Y845022D02*
Y834843D01*
X1035907Y834843D01*
X1036021Y834269D01*
Y830158D01*
X1036021Y830158D01*
X1036238Y829068D01*
X1036856Y828144D01*
X1040100Y824900D01*
Y735311D01*
X1039601Y734981D01*
X1038331Y735663D01*
Y819362D01*
X1038331Y819363D01*
X1038114Y820453D01*
X1037496Y821377D01*
X1037496Y821377D01*
X1019655Y839218D01*
X1019776Y839879D01*
X1020184Y840485D01*
X1020650Y840443D01*
X1021852Y839240D01*
X1023579Y838525D01*
X1025449D01*
X1027176Y839240D01*
X1028498Y840562D01*
X1029213Y842289D01*
Y844159D01*
X1029033Y844594D01*
X1030027Y845513D01*
X1031321Y844977D01*
X1033191D01*
X1034637Y845576D01*
X1035907Y845022D01*
D02*
G37*
G36*
X613851Y886668D02*
X615849D01*
X617137Y887201D01*
X618407Y886485D01*
Y782412D01*
X617234Y781926D01*
X615106Y784054D01*
Y875556D01*
X616240Y876691D01*
X616956Y878418D01*
Y880288D01*
X616240Y882015D01*
X614919Y883337D01*
X613191Y884052D01*
X611322D01*
X611293Y884072D01*
Y886485D01*
X612563Y887201D01*
X613851Y886668D01*
D02*
G37*
G36*
X897496Y694749D02*
X896737Y693815D01*
X768556D01*
X768288Y694082D01*
X767529Y694589D01*
X767539Y695239D01*
X767741Y695860D01*
X897031D01*
X897496Y694749D01*
D02*
G37*
G36*
X957458Y669266D02*
X956660Y668467D01*
X955944Y666740D01*
Y665135D01*
X954785Y663975D01*
X823231D01*
X822383Y665245D01*
X822762Y666161D01*
Y668030D01*
X822250Y669266D01*
X822927Y670536D01*
X956932D01*
X957458Y669266D01*
D02*
G37*
G36*
X798904Y648880D02*
X798525Y647964D01*
Y646095D01*
X798904Y645179D01*
X798056Y643909D01*
X771618D01*
X770770Y645179D01*
X771149Y646095D01*
Y647964D01*
X770770Y648880D01*
X771618Y650150D01*
X798056D01*
X798904Y648880D01*
D02*
G37*
G36*
X1074451Y608634D02*
X1073772Y607364D01*
X950996D01*
X950850Y607493D01*
X951332Y608763D01*
X1074364D01*
X1074451Y608634D01*
D02*
G37*
G36*
X1137950Y601208D02*
X1139271Y599886D01*
X1140999Y599171D01*
X1142377D01*
X1142928Y597926D01*
X1141398Y596396D01*
X952204D01*
X951498Y597452D01*
X951631Y597774D01*
Y599643D01*
X951319Y600396D01*
X952168Y601666D01*
X1137760D01*
X1137950Y601208D01*
D02*
G37*
G36*
X941649Y590569D02*
X941010Y589299D01*
X794019D01*
X793933Y589428D01*
X794612Y590699D01*
X941553D01*
X941649Y590569D01*
D02*
G37*
D12*
X373602Y927095D02*
X495456Y805241D01*
X950375Y593547D02*
X1142578D01*
X1150965Y601934D02*
Y612257D01*
X1142578Y593547D02*
X1150965Y601934D01*
X1122831Y621037D02*
X1142185D01*
X1150965Y612257D01*
X1042948Y730854D02*
Y826080D01*
X1042416Y730321D02*
X1042948Y730854D01*
X1038870Y830158D02*
X1042948Y826080D01*
X1035482Y723224D02*
Y819363D01*
X1012265Y842579D02*
X1035482Y819363D01*
X1048244Y714978D02*
X1048385Y714837D01*
X1043728Y714978D02*
X1048244D01*
X1035482Y723224D02*
X1043728Y714978D01*
X956772Y708386D02*
X1053546D01*
X1058062Y712902D01*
Y725805D01*
X899353Y765805D02*
X956772Y708386D01*
X749564Y657062D02*
X1023798D01*
X1028670Y661934D01*
X1072353Y654837D02*
X1073384D01*
X1070514Y652998D02*
X1072353Y654837D01*
X747880Y652998D02*
X1070514D01*
X1028670Y661934D02*
X1029030D01*
X748149Y698708D02*
X1019998D01*
X766274Y692068D02*
X767376Y690966D01*
X749042Y692068D02*
X766274D01*
X713547Y727563D02*
X749042Y692068D01*
X767597Y684997D02*
X1093384D01*
X767376Y690966D02*
X900643D01*
X697456Y737907D02*
Y894690D01*
X747622Y687741D02*
X764854D01*
X767597Y684997D01*
X697456Y737907D02*
X747622Y687741D01*
X750262Y679353D02*
X759998D01*
X687095Y742520D02*
X750262Y679353D01*
X750484Y673384D02*
X1063706D01*
X672056Y751812D02*
X750484Y673384D01*
X661289Y756832D02*
X751025Y667095D01*
X818063D01*
X748102Y647029D02*
X766450D01*
X612257Y782875D02*
X748102Y647029D01*
X751247Y661126D02*
X955965D01*
X621256Y779623D02*
X747880Y652998D01*
X636773Y769853D02*
X749564Y657062D01*
X646656Y765717D02*
X751247Y661126D01*
X803224Y647029D02*
X803902Y647708D01*
X748324Y641060D02*
X832943D01*
X606288Y783096D02*
X748324Y641060D01*
X834625Y642742D02*
X919245D01*
X832943Y641060D02*
X834625Y642742D01*
X803902Y647708D02*
X939965D01*
X940643Y647029D01*
X557756Y825881D02*
X746864Y636773D01*
X916772D01*
X920926Y641060D02*
X1011358D01*
X1014167Y643870D02*
X1088385D01*
X1011358Y641060D02*
X1014167Y643870D01*
X919245Y642742D02*
X920926Y641060D01*
X955965Y661126D02*
X960643Y665805D01*
X1063706Y673384D02*
X1063869Y673547D01*
X736610Y710247D02*
Y812473D01*
X713547Y727563D02*
Y878708D01*
X661289Y756832D02*
Y878708D01*
X672056Y751812D02*
Y895538D01*
X650060Y903963D02*
X650789Y904692D01*
X687095Y742520D02*
Y878708D01*
X646656Y894306D02*
X650060Y897710D01*
X736610Y710247D02*
X748149Y698708D01*
X650060Y897710D02*
Y903963D01*
X646656Y765717D02*
Y894306D01*
X645721Y520728D02*
X646450Y519999D01*
X643619Y520728D02*
X645721D01*
X643057Y521289D02*
X643619Y520728D01*
X605805Y521289D02*
X643057D01*
X605160Y520644D02*
X605805Y521289D01*
X588386Y520644D02*
X605160D01*
X513547Y794837D02*
X532257D01*
X324132Y984252D02*
X513547Y794837D01*
X330101Y997417D02*
X330830Y996688D01*
Y990458D02*
Y996688D01*
Y990458D02*
X515483Y805805D01*
X495456Y804487D02*
Y805241D01*
X303870Y927095D02*
X373602D01*
X324132Y984252D02*
Y1019736D01*
X515483Y803869D02*
Y805805D01*
X750484Y714030D02*
X835289D01*
X890174Y719353D02*
X891854Y721034D01*
X836549Y715289D02*
X924966D01*
X835289Y714030D02*
X836549Y715289D01*
X924966D02*
X925159Y715482D01*
X809676Y719353D02*
X890174D01*
X891854Y721034D02*
Y863599D01*
X899353Y765805D02*
Y855482D01*
X839998Y705805D02*
X934192D01*
X798708Y601289D02*
X801289Y598708D01*
X822579Y604678D02*
X822742Y604515D01*
X944460D01*
X801289Y598708D02*
X946932D01*
X949567Y592739D02*
X950375Y593547D01*
X944622Y604678D02*
X949567D01*
X943815Y593547D02*
X944622Y592739D01*
X949567D01*
X949730Y604515D02*
X1141288D01*
X949567Y604678D02*
X949730Y604515D01*
X779353Y593547D02*
X943815D01*
X944460Y604515D02*
X944622Y604678D01*
X750385Y604515D02*
X772948D01*
X789031Y586450D02*
X952901D01*
X935482Y842579D02*
X1012265D01*
X1141288Y604515D02*
X1141933Y603870D01*
X749035Y611612D02*
X1079353D01*
X1023785Y843953D02*
X1024514Y843224D01*
X1019210Y843953D02*
X1023785D01*
X1003208Y859955D02*
X1019210Y843953D01*
X1038756Y834843D02*
Y899401D01*
X1038870Y830158D02*
Y834729D01*
X1038756Y834843D02*
X1038870Y834729D01*
X1020643Y849676D02*
X1032256D01*
X1013356Y856963D02*
X1020643Y849676D01*
X1029030Y858063D02*
Y878063D01*
X1003208Y859955D02*
Y878692D01*
X1013356Y856963D02*
Y895076D01*
X1015950Y897670D01*
Y904692D01*
X1001288Y836127D02*
X1012797D01*
X1016935Y831990D01*
X1002579Y730321D02*
Y826450D01*
X1010237Y828302D02*
X1010966Y829031D01*
X1004430Y828302D02*
X1010237D01*
X1002579Y826450D02*
X1004430Y828302D01*
X809031Y719999D02*
X809676Y719353D01*
X891854Y863599D02*
X892125Y863869D01*
X899353Y855482D02*
X899998Y856127D01*
X483870Y871030D02*
X750385Y604515D01*
X483870Y871030D02*
Y878063D01*
X747849Y618546D02*
X1110158D01*
X494256Y866391D02*
X749035Y611612D01*
X509676Y856718D02*
X747849Y618546D01*
X494256Y866391D02*
Y895025D01*
X496760Y897529D01*
Y904501D01*
X496773Y904514D01*
X1104128Y634192D02*
X1105159D01*
X1100740Y630804D02*
X1104128Y634192D01*
X1110320Y618708D02*
X1110965D01*
X1110158Y618546D02*
X1110320Y618708D01*
X509676Y856718D02*
Y878708D01*
X519656Y852486D02*
X747627Y624515D01*
X968385D01*
X519656Y852486D02*
Y895467D01*
X521934Y897746D02*
Y905160D01*
X519656Y895467D02*
X521934Y897746D01*
X747085Y630804D02*
X1100740D01*
X536128Y841761D02*
X747085Y630804D01*
X536128Y841761D02*
Y878708D01*
X547096Y905160D02*
X553948D01*
X557756Y901352D01*
Y825881D02*
Y901352D01*
X606288Y783096D02*
Y881825D01*
X608444Y883982D01*
Y898650D01*
X602579Y904514D02*
X608444Y898650D01*
X621256Y779623D02*
Y894299D01*
X612257Y782875D02*
Y879353D01*
X621256Y894299D02*
X624431Y897474D01*
Y903140D01*
X625160Y903869D01*
X636773Y769853D02*
Y878063D01*
X672056Y895538D02*
X673547Y897029D01*
Y904514D01*
X1093384Y684997D02*
X1093546Y685160D01*
X700295Y904166D02*
X700644Y904514D01*
X700295Y897529D02*
Y904166D01*
X697456Y894690D02*
X700295Y897529D01*
X729676Y819408D02*
X736610Y812473D01*
X729676Y819408D02*
Y904514D01*
X604515Y619354D02*
Y635410D01*
X596700Y643224D02*
X604515Y635410D01*
X1014192Y730321D02*
X1016935Y733064D01*
Y831990D01*
X1038756Y899401D02*
X1044514Y905160D01*
X551128Y643224D02*
X596700D01*
D13*
X456410Y1532900D02*
D03*
X473910D02*
D03*
X474556Y1512255D02*
D03*
X457056D02*
D03*
D16*
X356056Y1510666D02*
D03*
X364556D02*
D03*
X373056D02*
D03*
X381556D02*
D03*
X390056D02*
D03*
X398556D02*
D03*
X407056D02*
D03*
X415556D02*
D03*
Y1497166D02*
D03*
X407056D02*
D03*
X398556D02*
D03*
X390056D02*
D03*
X381556D02*
D03*
X373056D02*
D03*
X364556D02*
D03*
X356056D02*
D03*
D17*
X429056Y1506966D02*
D03*
X342556D02*
D03*
D18*
X429056Y1540766D02*
D03*
X342556D02*
D03*
D27*
X381290Y1478707D02*
Y1496494D01*
X390056Y1479731D02*
Y1497166D01*
X381290Y1496494D02*
X381556Y1496760D01*
Y1497166D01*
Y1510666D02*
X390056Y1497166D01*
X409931Y1522449D02*
X425412D01*
X435864Y1532900D01*
X398556Y1511073D02*
X409931Y1522449D01*
X435864Y1532900D02*
X456410D01*
X398556Y1510666D02*
Y1511073D01*
X457418Y1499352D02*
Y1511892D01*
X457056Y1512255D02*
X457418Y1511892D01*
D28*
X406930Y1497040D02*
X407056Y1497166D01*
X399999Y1479352D02*
X406930Y1486283D01*
Y1497040D01*
X407056Y1497166D02*
Y1510666D01*
X364556Y1497166D02*
Y1510666D01*
D29*
X518709Y436773D02*
X546451Y409031D01*
X546857D01*
X485160Y436773D02*
X518709D01*
X401935D02*
X417419Y421289D01*
X469677D02*
X485160Y436773D01*
X417419Y421289D02*
X469677D01*
D30*
X364686Y868051D02*
D03*
X781246Y890911D02*
D03*
X1172406Y864241D02*
D03*
D31*
X308107Y958092D02*
D03*
Y983492D02*
D03*
Y1008892D02*
D03*
Y1034292D02*
D03*
Y1059692D02*
D03*
Y1085092D02*
D03*
Y1110492D02*
D03*
Y1135892D02*
D03*
Y1161292D02*
D03*
Y1186692D02*
D03*
Y1212092D02*
D03*
Y1237492D02*
D03*
Y1262892D02*
D03*
Y1288292D02*
D03*
Y1313692D02*
D03*
Y1339092D02*
D03*
Y1364492D02*
D03*
Y1389892D02*
D03*
Y1415292D02*
D03*
Y1440692D02*
D03*
X1224793D02*
D03*
Y1415292D02*
D03*
Y1389892D02*
D03*
Y1364492D02*
D03*
Y1339092D02*
D03*
Y1313692D02*
D03*
Y1288292D02*
D03*
Y1262892D02*
D03*
Y1237492D02*
D03*
Y1212092D02*
D03*
Y1186692D02*
D03*
Y1161292D02*
D03*
Y1135892D02*
D03*
Y1110492D02*
D03*
Y1085092D02*
D03*
Y1059692D02*
D03*
Y1034292D02*
D03*
Y1008892D02*
D03*
Y983492D02*
D03*
Y958092D02*
D03*
D32*
X816450Y891692D02*
D03*
X829150D02*
D03*
X816450D02*
D03*
X829150D02*
D03*
X841850D02*
D03*
X854550D02*
D03*
X867250D02*
D03*
X879950D02*
D03*
X892650D02*
D03*
X905350D02*
D03*
X918050D02*
D03*
X930750D02*
D03*
X943450D02*
D03*
X956150D02*
D03*
X968850D02*
D03*
X981550D02*
D03*
X994250D02*
D03*
X1006950D02*
D03*
X1019650D02*
D03*
X1032350D02*
D03*
X1045050D02*
D03*
X1057750D02*
D03*
X475150D02*
D03*
X487850D02*
D03*
X475150D02*
D03*
X487850D02*
D03*
X500550D02*
D03*
X513250D02*
D03*
X525950D02*
D03*
X538650D02*
D03*
X551350D02*
D03*
X564050D02*
D03*
X576750D02*
D03*
X589450D02*
D03*
X602150D02*
D03*
X614850D02*
D03*
X627550D02*
D03*
X640250D02*
D03*
X652950D02*
D03*
X665650D02*
D03*
X678350D02*
D03*
X691050D02*
D03*
X703750D02*
D03*
X716450D02*
D03*
D33*
X572257Y409031D02*
D03*
D34*
X546857D02*
D03*
X363870Y770321D02*
D03*
D35*
X308107Y894592D02*
D03*
Y1504192D02*
D03*
X1224793D02*
D03*
Y894592D02*
D03*
D36*
X465160Y436773D02*
D03*
X381935D02*
D03*
D37*
X485160D02*
D03*
X401935D02*
D03*
D38*
X363870Y795721D02*
D03*
D39*
X611660Y586531D02*
D03*
X615644Y534838D02*
D03*
X539354Y545160D02*
D03*
X578063Y625160D02*
D03*
X383235Y907762D02*
D03*
X379354Y893547D02*
D03*
X1042416Y730321D02*
D03*
X1048385Y714837D02*
D03*
X1058062Y725805D02*
D03*
X759998Y679353D02*
D03*
X766450Y647029D02*
D03*
X803224D02*
D03*
X940643D02*
D03*
X960643Y665805D02*
D03*
X818063Y667095D02*
D03*
X650789Y904692D02*
D03*
X646450Y519999D02*
D03*
X781051Y840379D02*
D03*
X797418Y852902D02*
D03*
X834192Y821934D02*
D03*
X819353Y832902D02*
D03*
X823224Y821289D02*
D03*
X532257Y794837D02*
D03*
X495456Y804487D02*
D03*
X330101Y997417D02*
D03*
X515483Y803869D02*
D03*
X542580Y871611D02*
D03*
X837418Y858708D02*
D03*
X762579Y828385D02*
D03*
X772256Y834192D02*
D03*
X724515Y816127D02*
D03*
X754385Y819546D02*
D03*
X324132Y1019736D02*
D03*
X303870Y927095D02*
D03*
X319999Y919998D02*
D03*
X292082Y971435D02*
D03*
X324132Y969414D02*
D03*
X330322Y861289D02*
D03*
X336773Y877418D02*
D03*
X345806Y890966D02*
D03*
X792902Y843869D02*
D03*
X791611Y866612D02*
D03*
X808385Y857418D02*
D03*
X371612Y920643D02*
D03*
X360644Y900643D02*
D03*
X358064Y914837D02*
D03*
X381290Y1478707D02*
D03*
X390056Y1479731D02*
D03*
X399999Y1479352D02*
D03*
X750484Y714030D02*
D03*
X925159Y715482D02*
D03*
X839998Y705805D02*
D03*
X934192D02*
D03*
X798708Y601289D02*
D03*
X822579Y604678D02*
D03*
X946932Y598708D02*
D03*
X779353Y593547D02*
D03*
X772948Y604515D02*
D03*
X789031Y586450D02*
D03*
X952901D02*
D03*
X935482Y842579D02*
D03*
X1122831Y621037D02*
D03*
X1079353Y611612D02*
D03*
X1141933Y603870D02*
D03*
X1024514Y843224D02*
D03*
X1032256Y849676D02*
D03*
X1029030Y858063D02*
D03*
X1003208Y878692D02*
D03*
X1001288Y836127D02*
D03*
X1010966Y829031D02*
D03*
X1015950Y904692D02*
D03*
X723224Y732902D02*
D03*
X1029030Y878063D02*
D03*
X809031Y719999D02*
D03*
X892125Y863869D02*
D03*
X899998Y856127D02*
D03*
X1002579Y730321D02*
D03*
X483870Y878063D02*
D03*
X1073384Y654837D02*
D03*
X496773Y904514D02*
D03*
X1105159Y634192D02*
D03*
X1110965Y618708D02*
D03*
X509676Y878708D02*
D03*
X980643Y754192D02*
D03*
X968385Y624515D02*
D03*
X521934Y905160D02*
D03*
X572902D02*
D03*
X585805Y878708D02*
D03*
X547096Y905160D02*
D03*
X536128Y878708D02*
D03*
X916772Y636773D02*
D03*
X754192Y776127D02*
D03*
X1088385Y643870D02*
D03*
X602579Y904514D02*
D03*
X612257Y879353D02*
D03*
X625160Y903869D02*
D03*
X1029030Y661934D02*
D03*
X636773Y878063D02*
D03*
X661289Y878708D02*
D03*
X1063869Y673547D02*
D03*
X673547Y904514D02*
D03*
X687095Y878708D02*
D03*
X1093546Y685160D02*
D03*
X700644Y904514D02*
D03*
X900643Y690966D02*
D03*
X713547Y878708D02*
D03*
X1019998Y698708D02*
D03*
X729676Y904514D02*
D03*
X604515Y619354D02*
D03*
X845160Y904514D02*
D03*
X832256Y878708D02*
D03*
X1014192Y730321D02*
D03*
X797418Y776127D02*
D03*
X1044514Y905160D02*
D03*
X768386Y456128D02*
D03*
X981934D02*
D03*
X457418Y1499352D02*
D03*
X538225Y621934D02*
D03*
X579515Y579354D02*
D03*
X550967Y630321D02*
D03*
X547096Y677418D02*
D03*
X479999Y544515D02*
D03*
X501289Y563870D02*
D03*
X505805Y459999D02*
D03*
X837418Y776773D02*
D03*
X838708Y415483D02*
D03*
X1097417D02*
D03*
X588386Y520644D02*
D03*
X1008385Y415483D02*
D03*
X876127Y416128D02*
D03*
X1053546D02*
D03*
X563601Y479139D02*
D03*
X562096Y525160D02*
D03*
X514193Y481935D02*
D03*
X546451Y709676D02*
D03*
X547257Y660644D02*
D03*
Y693547D02*
D03*
X551128Y643224D02*
D03*
X617579Y620644D02*
D03*
X1054191Y776127D02*
D03*
X1098062D02*
D03*
X1009030D02*
D03*
D40*
X963869Y801289D02*
D03*
X614837Y707740D02*
D03*
M02*
