G04*
G04 #@! TF.GenerationSoftware,Altium Limited,Altium Designer,24.1.2 (44)*
G04*
G04 Layer_Color=2752767*
%FSLAX44Y44*%
%MOMM*%
G71*
G04*
G04 #@! TF.SameCoordinates,8F2A281D-5683-44EC-B143-A45D5901FF86*
G04*
G04*
G04 #@! TF.FilePolarity,Positive*
G04*
G01*
G75*
%ADD79C,0.0677*%
%ADD80C,0.0339*%
%ADD81C,0.0508*%
D79*
X366718Y868051D02*
G03*
X366718Y868051I-2032J0D01*
G01*
X783278Y890911D02*
G03*
X783278Y890911I-2032J0D01*
G01*
X1174438Y864241D02*
G03*
X1174438Y864241I-2032J0D01*
G01*
X358088Y1510666D02*
G03*
X358088Y1510666I-2032J0D01*
G01*
X366588D02*
G03*
X366588Y1510666I-2032J0D01*
G01*
X375088D02*
G03*
X375088Y1510666I-2032J0D01*
G01*
X383588D02*
G03*
X383588Y1510666I-2032J0D01*
G01*
X392088D02*
G03*
X392088Y1510666I-2032J0D01*
G01*
X400588D02*
G03*
X400588Y1510666I-2032J0D01*
G01*
X409088D02*
G03*
X409088Y1510666I-2032J0D01*
G01*
X417588D02*
G03*
X417588Y1510666I-2032J0D01*
G01*
Y1497166D02*
G03*
X417588Y1497166I-2032J0D01*
G01*
X409088D02*
G03*
X409088Y1497166I-2032J0D01*
G01*
X400588D02*
G03*
X400588Y1497166I-2032J0D01*
G01*
X392088D02*
G03*
X392088Y1497166I-2032J0D01*
G01*
X383588D02*
G03*
X383588Y1497166I-2032J0D01*
G01*
X375088D02*
G03*
X375088Y1497166I-2032J0D01*
G01*
X366588D02*
G03*
X366588Y1497166I-2032J0D01*
G01*
X358088D02*
G03*
X358088Y1497166I-2032J0D01*
G01*
D80*
X357072Y1510666D02*
G03*
X357072Y1510666I-1016J0D01*
G01*
X365572D02*
G03*
X365572Y1510666I-1016J0D01*
G01*
X374072D02*
G03*
X374072Y1510666I-1016J0D01*
G01*
X382572D02*
G03*
X382572Y1510666I-1016J0D01*
G01*
X391072D02*
G03*
X391072Y1510666I-1016J0D01*
G01*
X399572D02*
G03*
X399572Y1510666I-1016J0D01*
G01*
X408072D02*
G03*
X408072Y1510666I-1016J0D01*
G01*
X416572D02*
G03*
X416572Y1510666I-1016J0D01*
G01*
Y1497166D02*
G03*
X416572Y1497166I-1016J0D01*
G01*
X408072D02*
G03*
X408072Y1497166I-1016J0D01*
G01*
X399572D02*
G03*
X399572Y1497166I-1016J0D01*
G01*
X391072D02*
G03*
X391072Y1497166I-1016J0D01*
G01*
X382572D02*
G03*
X382572Y1497166I-1016J0D01*
G01*
X374072D02*
G03*
X374072Y1497166I-1016J0D01*
G01*
X365572D02*
G03*
X365572Y1497166I-1016J0D01*
G01*
X357072D02*
G03*
X357072Y1497166I-1016J0D01*
G01*
D81*
X429056Y1504934D02*
X427024Y1508998D01*
X431088D01*
X429056Y1504934D01*
Y1505950D02*
X428040Y1507982D01*
X430072D01*
X429056Y1505950D01*
X342556Y1504934D02*
X340524Y1508998D01*
X344588D01*
X342556Y1504934D01*
Y1505950D02*
X341540Y1507982D01*
X343572D01*
X342556Y1505950D01*
X429056Y1538734D02*
X430072Y1539750D01*
X431088D01*
X430072Y1540766D01*
X431088Y1541782D01*
X430072D01*
X429056Y1542798D01*
X428040Y1541782D01*
X427024D01*
X428040Y1540766D01*
X427024Y1539750D01*
X428040D01*
X429056Y1538734D01*
Y1539750D02*
X429564Y1540258D01*
X430072D01*
X429564Y1540766D01*
X430072Y1541274D01*
X429564D01*
X429056Y1541782D01*
X428548Y1541274D01*
X428040D01*
X428548Y1540766D01*
X428040Y1540258D01*
X428548D01*
X429056Y1539750D01*
X342556Y1538734D02*
X343572Y1539750D01*
X344588D01*
X343572Y1540766D01*
X344588Y1541782D01*
X343572D01*
X342556Y1542798D01*
X341540Y1541782D01*
X340524D01*
X341540Y1540766D01*
X340524Y1539750D01*
X341540D01*
X342556Y1538734D01*
Y1539750D02*
X343064Y1540258D01*
X343572D01*
X343064Y1540766D01*
X343572Y1541274D01*
X343064D01*
X342556Y1541782D01*
X342048Y1541274D01*
X341540D01*
X342048Y1540766D01*
X341540Y1540258D01*
X342048D01*
X342556Y1539750D01*
X306075Y956060D02*
X307091Y958092D01*
X306075Y960124D01*
X308107Y959108D01*
X310139Y960124D01*
X309123Y958092D01*
X310139Y956060D01*
X308107Y957076D01*
X306075Y956060D01*
Y981460D02*
X307091Y983492D01*
X306075Y985524D01*
X308107Y984508D01*
X310139Y985524D01*
X309123Y983492D01*
X310139Y981460D01*
X308107Y982476D01*
X306075Y981460D01*
Y1006860D02*
X307091Y1008892D01*
X306075Y1010924D01*
X308107Y1009908D01*
X310139Y1010924D01*
X309123Y1008892D01*
X310139Y1006860D01*
X308107Y1007876D01*
X306075Y1006860D01*
Y1032260D02*
X307091Y1034292D01*
X306075Y1036324D01*
X308107Y1035308D01*
X310139Y1036324D01*
X309123Y1034292D01*
X310139Y1032260D01*
X308107Y1033276D01*
X306075Y1032260D01*
Y1057660D02*
X307091Y1059692D01*
X306075Y1061724D01*
X308107Y1060708D01*
X310139Y1061724D01*
X309123Y1059692D01*
X310139Y1057660D01*
X308107Y1058676D01*
X306075Y1057660D01*
Y1083060D02*
X307091Y1085092D01*
X306075Y1087124D01*
X308107Y1086108D01*
X310139Y1087124D01*
X309123Y1085092D01*
X310139Y1083060D01*
X308107Y1084076D01*
X306075Y1083060D01*
Y1108460D02*
X307091Y1110492D01*
X306075Y1112524D01*
X308107Y1111508D01*
X310139Y1112524D01*
X309123Y1110492D01*
X310139Y1108460D01*
X308107Y1109476D01*
X306075Y1108460D01*
Y1133860D02*
X307091Y1135892D01*
X306075Y1137924D01*
X308107Y1136908D01*
X310139Y1137924D01*
X309123Y1135892D01*
X310139Y1133860D01*
X308107Y1134876D01*
X306075Y1133860D01*
Y1159260D02*
X307091Y1161292D01*
X306075Y1163324D01*
X308107Y1162308D01*
X310139Y1163324D01*
X309123Y1161292D01*
X310139Y1159260D01*
X308107Y1160276D01*
X306075Y1159260D01*
Y1184660D02*
X307091Y1186692D01*
X306075Y1188724D01*
X308107Y1187708D01*
X310139Y1188724D01*
X309123Y1186692D01*
X310139Y1184660D01*
X308107Y1185676D01*
X306075Y1184660D01*
Y1210060D02*
X307091Y1212092D01*
X306075Y1214124D01*
X308107Y1213108D01*
X310139Y1214124D01*
X309123Y1212092D01*
X310139Y1210060D01*
X308107Y1211076D01*
X306075Y1210060D01*
Y1235460D02*
X307091Y1237492D01*
X306075Y1239524D01*
X308107Y1238508D01*
X310139Y1239524D01*
X309123Y1237492D01*
X310139Y1235460D01*
X308107Y1236476D01*
X306075Y1235460D01*
Y1260860D02*
X307091Y1262892D01*
X306075Y1264924D01*
X308107Y1263908D01*
X310139Y1264924D01*
X309123Y1262892D01*
X310139Y1260860D01*
X308107Y1261876D01*
X306075Y1260860D01*
Y1286260D02*
X307091Y1288292D01*
X306075Y1290324D01*
X308107Y1289308D01*
X310139Y1290324D01*
X309123Y1288292D01*
X310139Y1286260D01*
X308107Y1287276D01*
X306075Y1286260D01*
Y1311660D02*
X307091Y1313692D01*
X306075Y1315724D01*
X308107Y1314708D01*
X310139Y1315724D01*
X309123Y1313692D01*
X310139Y1311660D01*
X308107Y1312676D01*
X306075Y1311660D01*
Y1337060D02*
X307091Y1339092D01*
X306075Y1341124D01*
X308107Y1340108D01*
X310139Y1341124D01*
X309123Y1339092D01*
X310139Y1337060D01*
X308107Y1338076D01*
X306075Y1337060D01*
Y1362460D02*
X307091Y1364492D01*
X306075Y1366524D01*
X308107Y1365508D01*
X310139Y1366524D01*
X309123Y1364492D01*
X310139Y1362460D01*
X308107Y1363476D01*
X306075Y1362460D01*
Y1387860D02*
X307091Y1389892D01*
X306075Y1391924D01*
X308107Y1390908D01*
X310139Y1391924D01*
X309123Y1389892D01*
X310139Y1387860D01*
X308107Y1388876D01*
X306075Y1387860D01*
Y1413260D02*
X307091Y1415292D01*
X306075Y1417324D01*
X308107Y1416308D01*
X310139Y1417324D01*
X309123Y1415292D01*
X310139Y1413260D01*
X308107Y1414276D01*
X306075Y1413260D01*
Y1438660D02*
X307091Y1440692D01*
X306075Y1442724D01*
X308107Y1441708D01*
X310139Y1442724D01*
X309123Y1440692D01*
X310139Y1438660D01*
X308107Y1439676D01*
X306075Y1438660D01*
X1222761D02*
X1223777Y1440692D01*
X1222761Y1442724D01*
X1224793Y1441708D01*
X1226825Y1442724D01*
X1225809Y1440692D01*
X1226825Y1438660D01*
X1224793Y1439676D01*
X1222761Y1438660D01*
Y1413260D02*
X1223777Y1415292D01*
X1222761Y1417324D01*
X1224793Y1416308D01*
X1226825Y1417324D01*
X1225809Y1415292D01*
X1226825Y1413260D01*
X1224793Y1414276D01*
X1222761Y1413260D01*
Y1387860D02*
X1223777Y1389892D01*
X1222761Y1391924D01*
X1224793Y1390908D01*
X1226825Y1391924D01*
X1225809Y1389892D01*
X1226825Y1387860D01*
X1224793Y1388876D01*
X1222761Y1387860D01*
Y1362460D02*
X1223777Y1364492D01*
X1222761Y1366524D01*
X1224793Y1365508D01*
X1226825Y1366524D01*
X1225809Y1364492D01*
X1226825Y1362460D01*
X1224793Y1363476D01*
X1222761Y1362460D01*
Y1337060D02*
X1223777Y1339092D01*
X1222761Y1341124D01*
X1224793Y1340108D01*
X1226825Y1341124D01*
X1225809Y1339092D01*
X1226825Y1337060D01*
X1224793Y1338076D01*
X1222761Y1337060D01*
Y1311660D02*
X1223777Y1313692D01*
X1222761Y1315724D01*
X1224793Y1314708D01*
X1226825Y1315724D01*
X1225809Y1313692D01*
X1226825Y1311660D01*
X1224793Y1312676D01*
X1222761Y1311660D01*
Y1286260D02*
X1223777Y1288292D01*
X1222761Y1290324D01*
X1224793Y1289308D01*
X1226825Y1290324D01*
X1225809Y1288292D01*
X1226825Y1286260D01*
X1224793Y1287276D01*
X1222761Y1286260D01*
Y1260860D02*
X1223777Y1262892D01*
X1222761Y1264924D01*
X1224793Y1263908D01*
X1226825Y1264924D01*
X1225809Y1262892D01*
X1226825Y1260860D01*
X1224793Y1261876D01*
X1222761Y1260860D01*
Y1235460D02*
X1223777Y1237492D01*
X1222761Y1239524D01*
X1224793Y1238508D01*
X1226825Y1239524D01*
X1225809Y1237492D01*
X1226825Y1235460D01*
X1224793Y1236476D01*
X1222761Y1235460D01*
Y1210060D02*
X1223777Y1212092D01*
X1222761Y1214124D01*
X1224793Y1213108D01*
X1226825Y1214124D01*
X1225809Y1212092D01*
X1226825Y1210060D01*
X1224793Y1211076D01*
X1222761Y1210060D01*
Y1184660D02*
X1223777Y1186692D01*
X1222761Y1188724D01*
X1224793Y1187708D01*
X1226825Y1188724D01*
X1225809Y1186692D01*
X1226825Y1184660D01*
X1224793Y1185676D01*
X1222761Y1184660D01*
Y1159260D02*
X1223777Y1161292D01*
X1222761Y1163324D01*
X1224793Y1162308D01*
X1226825Y1163324D01*
X1225809Y1161292D01*
X1226825Y1159260D01*
X1224793Y1160276D01*
X1222761Y1159260D01*
Y1133860D02*
X1223777Y1135892D01*
X1222761Y1137924D01*
X1224793Y1136908D01*
X1226825Y1137924D01*
X1225809Y1135892D01*
X1226825Y1133860D01*
X1224793Y1134876D01*
X1222761Y1133860D01*
Y1108460D02*
X1223777Y1110492D01*
X1222761Y1112524D01*
X1224793Y1111508D01*
X1226825Y1112524D01*
X1225809Y1110492D01*
X1226825Y1108460D01*
X1224793Y1109476D01*
X1222761Y1108460D01*
Y1083060D02*
X1223777Y1085092D01*
X1222761Y1087124D01*
X1224793Y1086108D01*
X1226825Y1087124D01*
X1225809Y1085092D01*
X1226825Y1083060D01*
X1224793Y1084076D01*
X1222761Y1083060D01*
Y1057660D02*
X1223777Y1059692D01*
X1222761Y1061724D01*
X1224793Y1060708D01*
X1226825Y1061724D01*
X1225809Y1059692D01*
X1226825Y1057660D01*
X1224793Y1058676D01*
X1222761Y1057660D01*
Y1032260D02*
X1223777Y1034292D01*
X1222761Y1036324D01*
X1224793Y1035308D01*
X1226825Y1036324D01*
X1225809Y1034292D01*
X1226825Y1032260D01*
X1224793Y1033276D01*
X1222761Y1032260D01*
Y1006860D02*
X1223777Y1008892D01*
X1222761Y1010924D01*
X1224793Y1009908D01*
X1226825Y1010924D01*
X1225809Y1008892D01*
X1226825Y1006860D01*
X1224793Y1007876D01*
X1222761Y1006860D01*
Y981460D02*
X1223777Y983492D01*
X1222761Y985524D01*
X1224793Y984508D01*
X1226825Y985524D01*
X1225809Y983492D01*
X1226825Y981460D01*
X1224793Y982476D01*
X1222761Y981460D01*
Y956060D02*
X1223777Y958092D01*
X1222761Y960124D01*
X1224793Y959108D01*
X1226825Y960124D01*
X1225809Y958092D01*
X1226825Y956060D01*
X1224793Y957076D01*
X1222761Y956060D01*
X727385Y788655D02*
X729417Y790687D01*
X731449Y788655D01*
X729417Y786623D01*
X727385Y788655D01*
X866385D02*
X868417Y790687D01*
X870449Y788655D01*
X868417Y786623D01*
X866385Y788655D01*
X982385D02*
X984417Y790687D01*
X986449Y788655D01*
X984417Y786623D01*
X982385Y788655D01*
X1121385D02*
X1123417Y790687D01*
X1125449Y788655D01*
X1123417Y786623D01*
X1121385Y788655D01*
X767385Y428655D02*
X769417Y430687D01*
X771449Y428655D01*
X769417Y426623D01*
X767385Y428655D01*
X906385D02*
X908417Y430687D01*
X910449Y428655D01*
X908417Y426623D01*
X906385Y428655D01*
X982385D02*
X984417Y430687D01*
X986449Y428655D01*
X984417Y426623D01*
X982385Y428655D01*
X1121385D02*
X1123417Y430687D01*
X1125449Y428655D01*
X1123417Y426623D01*
X1121385Y428655D01*
X814418Y889660D02*
X815434Y891692D01*
X814418Y893724D01*
X816450Y892708D01*
X818482Y893724D01*
X817466Y891692D01*
X818482Y889660D01*
X816450Y890676D01*
X814418Y889660D01*
X815434Y890676D02*
X815942Y891692D01*
X815434Y892708D01*
X816450Y892200D01*
X817466Y892708D01*
X816958Y891692D01*
X817466Y890676D01*
X816450Y891184D01*
X815434Y890676D01*
X827118Y889660D02*
X828134Y891692D01*
X827118Y893724D01*
X829150Y892708D01*
X831182Y893724D01*
X830166Y891692D01*
X831182Y889660D01*
X829150Y890676D01*
X827118Y889660D01*
X828134Y890676D02*
X828642Y891692D01*
X828134Y892708D01*
X829150Y892200D01*
X830166Y892708D01*
X829658Y891692D01*
X830166Y890676D01*
X829150Y891184D01*
X828134Y890676D01*
X839818Y889660D02*
X840834Y891692D01*
X839818Y893724D01*
X841850Y892708D01*
X843882Y893724D01*
X842866Y891692D01*
X843882Y889660D01*
X841850Y890676D01*
X839818Y889660D01*
X840834Y890676D02*
X841342Y891692D01*
X840834Y892708D01*
X841850Y892200D01*
X842866Y892708D01*
X842358Y891692D01*
X842866Y890676D01*
X841850Y891184D01*
X840834Y890676D01*
X852518Y889660D02*
X853534Y891692D01*
X852518Y893724D01*
X854550Y892708D01*
X856582Y893724D01*
X855566Y891692D01*
X856582Y889660D01*
X854550Y890676D01*
X852518Y889660D01*
X853534Y890676D02*
X854042Y891692D01*
X853534Y892708D01*
X854550Y892200D01*
X855566Y892708D01*
X855058Y891692D01*
X855566Y890676D01*
X854550Y891184D01*
X853534Y890676D01*
X865218Y889660D02*
X866234Y891692D01*
X865218Y893724D01*
X867250Y892708D01*
X869282Y893724D01*
X868266Y891692D01*
X869282Y889660D01*
X867250Y890676D01*
X865218Y889660D01*
X866234Y890676D02*
X866742Y891692D01*
X866234Y892708D01*
X867250Y892200D01*
X868266Y892708D01*
X867758Y891692D01*
X868266Y890676D01*
X867250Y891184D01*
X866234Y890676D01*
X877918Y889660D02*
X878934Y891692D01*
X877918Y893724D01*
X879950Y892708D01*
X881982Y893724D01*
X880966Y891692D01*
X881982Y889660D01*
X879950Y890676D01*
X877918Y889660D01*
X878934Y890676D02*
X879442Y891692D01*
X878934Y892708D01*
X879950Y892200D01*
X880966Y892708D01*
X880458Y891692D01*
X880966Y890676D01*
X879950Y891184D01*
X878934Y890676D01*
X890618Y889660D02*
X891634Y891692D01*
X890618Y893724D01*
X892650Y892708D01*
X894682Y893724D01*
X893666Y891692D01*
X894682Y889660D01*
X892650Y890676D01*
X890618Y889660D01*
X891634Y890676D02*
X892142Y891692D01*
X891634Y892708D01*
X892650Y892200D01*
X893666Y892708D01*
X893158Y891692D01*
X893666Y890676D01*
X892650Y891184D01*
X891634Y890676D01*
X903318Y889660D02*
X904334Y891692D01*
X903318Y893724D01*
X905350Y892708D01*
X907382Y893724D01*
X906366Y891692D01*
X907382Y889660D01*
X905350Y890676D01*
X903318Y889660D01*
X904334Y890676D02*
X904842Y891692D01*
X904334Y892708D01*
X905350Y892200D01*
X906366Y892708D01*
X905858Y891692D01*
X906366Y890676D01*
X905350Y891184D01*
X904334Y890676D01*
X916018Y889660D02*
X917034Y891692D01*
X916018Y893724D01*
X918050Y892708D01*
X920082Y893724D01*
X919066Y891692D01*
X920082Y889660D01*
X918050Y890676D01*
X916018Y889660D01*
X917034Y890676D02*
X917542Y891692D01*
X917034Y892708D01*
X918050Y892200D01*
X919066Y892708D01*
X918558Y891692D01*
X919066Y890676D01*
X918050Y891184D01*
X917034Y890676D01*
X928718Y889660D02*
X929734Y891692D01*
X928718Y893724D01*
X930750Y892708D01*
X932782Y893724D01*
X931766Y891692D01*
X932782Y889660D01*
X930750Y890676D01*
X928718Y889660D01*
X929734Y890676D02*
X930242Y891692D01*
X929734Y892708D01*
X930750Y892200D01*
X931766Y892708D01*
X931258Y891692D01*
X931766Y890676D01*
X930750Y891184D01*
X929734Y890676D01*
X941418Y889660D02*
X942434Y891692D01*
X941418Y893724D01*
X943450Y892708D01*
X945482Y893724D01*
X944466Y891692D01*
X945482Y889660D01*
X943450Y890676D01*
X941418Y889660D01*
X942434Y890676D02*
X942942Y891692D01*
X942434Y892708D01*
X943450Y892200D01*
X944466Y892708D01*
X943958Y891692D01*
X944466Y890676D01*
X943450Y891184D01*
X942434Y890676D01*
X954118Y889660D02*
X955134Y891692D01*
X954118Y893724D01*
X956150Y892708D01*
X958182Y893724D01*
X957166Y891692D01*
X958182Y889660D01*
X956150Y890676D01*
X954118Y889660D01*
X955134Y890676D02*
X955642Y891692D01*
X955134Y892708D01*
X956150Y892200D01*
X957166Y892708D01*
X956658Y891692D01*
X957166Y890676D01*
X956150Y891184D01*
X955134Y890676D01*
X966818Y889660D02*
X967834Y891692D01*
X966818Y893724D01*
X968850Y892708D01*
X970882Y893724D01*
X969866Y891692D01*
X970882Y889660D01*
X968850Y890676D01*
X966818Y889660D01*
X967834Y890676D02*
X968342Y891692D01*
X967834Y892708D01*
X968850Y892200D01*
X969866Y892708D01*
X969358Y891692D01*
X969866Y890676D01*
X968850Y891184D01*
X967834Y890676D01*
X979518Y889660D02*
X980534Y891692D01*
X979518Y893724D01*
X981550Y892708D01*
X983582Y893724D01*
X982566Y891692D01*
X983582Y889660D01*
X981550Y890676D01*
X979518Y889660D01*
X980534Y890676D02*
X981042Y891692D01*
X980534Y892708D01*
X981550Y892200D01*
X982566Y892708D01*
X982058Y891692D01*
X982566Y890676D01*
X981550Y891184D01*
X980534Y890676D01*
X992218Y889660D02*
X993234Y891692D01*
X992218Y893724D01*
X994250Y892708D01*
X996282Y893724D01*
X995266Y891692D01*
X996282Y889660D01*
X994250Y890676D01*
X992218Y889660D01*
X993234Y890676D02*
X993742Y891692D01*
X993234Y892708D01*
X994250Y892200D01*
X995266Y892708D01*
X994758Y891692D01*
X995266Y890676D01*
X994250Y891184D01*
X993234Y890676D01*
X1004918Y889660D02*
X1005934Y891692D01*
X1004918Y893724D01*
X1006950Y892708D01*
X1008982Y893724D01*
X1007966Y891692D01*
X1008982Y889660D01*
X1006950Y890676D01*
X1004918Y889660D01*
X1005934Y890676D02*
X1006442Y891692D01*
X1005934Y892708D01*
X1006950Y892200D01*
X1007966Y892708D01*
X1007458Y891692D01*
X1007966Y890676D01*
X1006950Y891184D01*
X1005934Y890676D01*
X1017618Y889660D02*
X1018634Y891692D01*
X1017618Y893724D01*
X1019650Y892708D01*
X1021682Y893724D01*
X1020666Y891692D01*
X1021682Y889660D01*
X1019650Y890676D01*
X1017618Y889660D01*
X1018634Y890676D02*
X1019142Y891692D01*
X1018634Y892708D01*
X1019650Y892200D01*
X1020666Y892708D01*
X1020158Y891692D01*
X1020666Y890676D01*
X1019650Y891184D01*
X1018634Y890676D01*
X1030318Y889660D02*
X1031334Y891692D01*
X1030318Y893724D01*
X1032350Y892708D01*
X1034382Y893724D01*
X1033366Y891692D01*
X1034382Y889660D01*
X1032350Y890676D01*
X1030318Y889660D01*
X1031334Y890676D02*
X1031842Y891692D01*
X1031334Y892708D01*
X1032350Y892200D01*
X1033366Y892708D01*
X1032858Y891692D01*
X1033366Y890676D01*
X1032350Y891184D01*
X1031334Y890676D01*
X1043018Y889660D02*
X1044034Y891692D01*
X1043018Y893724D01*
X1045050Y892708D01*
X1047082Y893724D01*
X1046066Y891692D01*
X1047082Y889660D01*
X1045050Y890676D01*
X1043018Y889660D01*
X1044034Y890676D02*
X1044542Y891692D01*
X1044034Y892708D01*
X1045050Y892200D01*
X1046066Y892708D01*
X1045558Y891692D01*
X1046066Y890676D01*
X1045050Y891184D01*
X1044034Y890676D01*
X1055718Y889660D02*
X1056734Y891692D01*
X1055718Y893724D01*
X1057750Y892708D01*
X1059782Y893724D01*
X1058766Y891692D01*
X1059782Y889660D01*
X1057750Y890676D01*
X1055718Y889660D01*
X1056734Y890676D02*
X1057242Y891692D01*
X1056734Y892708D01*
X1057750Y892200D01*
X1058766Y892708D01*
X1058258Y891692D01*
X1058766Y890676D01*
X1057750Y891184D01*
X1056734Y890676D01*
X473118Y889660D02*
X474134Y891692D01*
X473118Y893724D01*
X475150Y892708D01*
X477182Y893724D01*
X476166Y891692D01*
X477182Y889660D01*
X475150Y890676D01*
X473118Y889660D01*
X474134Y890676D02*
X474642Y891692D01*
X474134Y892708D01*
X475150Y892200D01*
X476166Y892708D01*
X475658Y891692D01*
X476166Y890676D01*
X475150Y891184D01*
X474134Y890676D01*
X485818Y889660D02*
X486834Y891692D01*
X485818Y893724D01*
X487850Y892708D01*
X489882Y893724D01*
X488866Y891692D01*
X489882Y889660D01*
X487850Y890676D01*
X485818Y889660D01*
X486834Y890676D02*
X487342Y891692D01*
X486834Y892708D01*
X487850Y892200D01*
X488866Y892708D01*
X488358Y891692D01*
X488866Y890676D01*
X487850Y891184D01*
X486834Y890676D01*
X498518Y889660D02*
X499534Y891692D01*
X498518Y893724D01*
X500550Y892708D01*
X502582Y893724D01*
X501566Y891692D01*
X502582Y889660D01*
X500550Y890676D01*
X498518Y889660D01*
X499534Y890676D02*
X500042Y891692D01*
X499534Y892708D01*
X500550Y892200D01*
X501566Y892708D01*
X501058Y891692D01*
X501566Y890676D01*
X500550Y891184D01*
X499534Y890676D01*
X511218Y889660D02*
X512234Y891692D01*
X511218Y893724D01*
X513250Y892708D01*
X515282Y893724D01*
X514266Y891692D01*
X515282Y889660D01*
X513250Y890676D01*
X511218Y889660D01*
X512234Y890676D02*
X512742Y891692D01*
X512234Y892708D01*
X513250Y892200D01*
X514266Y892708D01*
X513758Y891692D01*
X514266Y890676D01*
X513250Y891184D01*
X512234Y890676D01*
X523918Y889660D02*
X524934Y891692D01*
X523918Y893724D01*
X525950Y892708D01*
X527982Y893724D01*
X526966Y891692D01*
X527982Y889660D01*
X525950Y890676D01*
X523918Y889660D01*
X524934Y890676D02*
X525442Y891692D01*
X524934Y892708D01*
X525950Y892200D01*
X526966Y892708D01*
X526458Y891692D01*
X526966Y890676D01*
X525950Y891184D01*
X524934Y890676D01*
X536618Y889660D02*
X537634Y891692D01*
X536618Y893724D01*
X538650Y892708D01*
X540682Y893724D01*
X539666Y891692D01*
X540682Y889660D01*
X538650Y890676D01*
X536618Y889660D01*
X537634Y890676D02*
X538142Y891692D01*
X537634Y892708D01*
X538650Y892200D01*
X539666Y892708D01*
X539158Y891692D01*
X539666Y890676D01*
X538650Y891184D01*
X537634Y890676D01*
X549318Y889660D02*
X550334Y891692D01*
X549318Y893724D01*
X551350Y892708D01*
X553382Y893724D01*
X552366Y891692D01*
X553382Y889660D01*
X551350Y890676D01*
X549318Y889660D01*
X550334Y890676D02*
X550842Y891692D01*
X550334Y892708D01*
X551350Y892200D01*
X552366Y892708D01*
X551858Y891692D01*
X552366Y890676D01*
X551350Y891184D01*
X550334Y890676D01*
X562018Y889660D02*
X563034Y891692D01*
X562018Y893724D01*
X564050Y892708D01*
X566082Y893724D01*
X565066Y891692D01*
X566082Y889660D01*
X564050Y890676D01*
X562018Y889660D01*
X563034Y890676D02*
X563542Y891692D01*
X563034Y892708D01*
X564050Y892200D01*
X565066Y892708D01*
X564558Y891692D01*
X565066Y890676D01*
X564050Y891184D01*
X563034Y890676D01*
X574718Y889660D02*
X575734Y891692D01*
X574718Y893724D01*
X576750Y892708D01*
X578782Y893724D01*
X577766Y891692D01*
X578782Y889660D01*
X576750Y890676D01*
X574718Y889660D01*
X575734Y890676D02*
X576242Y891692D01*
X575734Y892708D01*
X576750Y892200D01*
X577766Y892708D01*
X577258Y891692D01*
X577766Y890676D01*
X576750Y891184D01*
X575734Y890676D01*
X587418Y889660D02*
X588434Y891692D01*
X587418Y893724D01*
X589450Y892708D01*
X591482Y893724D01*
X590466Y891692D01*
X591482Y889660D01*
X589450Y890676D01*
X587418Y889660D01*
X588434Y890676D02*
X588942Y891692D01*
X588434Y892708D01*
X589450Y892200D01*
X590466Y892708D01*
X589958Y891692D01*
X590466Y890676D01*
X589450Y891184D01*
X588434Y890676D01*
X600118Y889660D02*
X601134Y891692D01*
X600118Y893724D01*
X602150Y892708D01*
X604182Y893724D01*
X603166Y891692D01*
X604182Y889660D01*
X602150Y890676D01*
X600118Y889660D01*
X601134Y890676D02*
X601642Y891692D01*
X601134Y892708D01*
X602150Y892200D01*
X603166Y892708D01*
X602658Y891692D01*
X603166Y890676D01*
X602150Y891184D01*
X601134Y890676D01*
X612818Y889660D02*
X613834Y891692D01*
X612818Y893724D01*
X614850Y892708D01*
X616882Y893724D01*
X615866Y891692D01*
X616882Y889660D01*
X614850Y890676D01*
X612818Y889660D01*
X613834Y890676D02*
X614342Y891692D01*
X613834Y892708D01*
X614850Y892200D01*
X615866Y892708D01*
X615358Y891692D01*
X615866Y890676D01*
X614850Y891184D01*
X613834Y890676D01*
X625518Y889660D02*
X626534Y891692D01*
X625518Y893724D01*
X627550Y892708D01*
X629582Y893724D01*
X628566Y891692D01*
X629582Y889660D01*
X627550Y890676D01*
X625518Y889660D01*
X626534Y890676D02*
X627042Y891692D01*
X626534Y892708D01*
X627550Y892200D01*
X628566Y892708D01*
X628058Y891692D01*
X628566Y890676D01*
X627550Y891184D01*
X626534Y890676D01*
X638218Y889660D02*
X639234Y891692D01*
X638218Y893724D01*
X640250Y892708D01*
X642282Y893724D01*
X641266Y891692D01*
X642282Y889660D01*
X640250Y890676D01*
X638218Y889660D01*
X639234Y890676D02*
X639742Y891692D01*
X639234Y892708D01*
X640250Y892200D01*
X641266Y892708D01*
X640758Y891692D01*
X641266Y890676D01*
X640250Y891184D01*
X639234Y890676D01*
X650918Y889660D02*
X651934Y891692D01*
X650918Y893724D01*
X652950Y892708D01*
X654982Y893724D01*
X653966Y891692D01*
X654982Y889660D01*
X652950Y890676D01*
X650918Y889660D01*
X651934Y890676D02*
X652442Y891692D01*
X651934Y892708D01*
X652950Y892200D01*
X653966Y892708D01*
X653458Y891692D01*
X653966Y890676D01*
X652950Y891184D01*
X651934Y890676D01*
X663618Y889660D02*
X664634Y891692D01*
X663618Y893724D01*
X665650Y892708D01*
X667682Y893724D01*
X666666Y891692D01*
X667682Y889660D01*
X665650Y890676D01*
X663618Y889660D01*
X664634Y890676D02*
X665142Y891692D01*
X664634Y892708D01*
X665650Y892200D01*
X666666Y892708D01*
X666158Y891692D01*
X666666Y890676D01*
X665650Y891184D01*
X664634Y890676D01*
X676318Y889660D02*
X677334Y891692D01*
X676318Y893724D01*
X678350Y892708D01*
X680382Y893724D01*
X679366Y891692D01*
X680382Y889660D01*
X678350Y890676D01*
X676318Y889660D01*
X677334Y890676D02*
X677842Y891692D01*
X677334Y892708D01*
X678350Y892200D01*
X679366Y892708D01*
X678858Y891692D01*
X679366Y890676D01*
X678350Y891184D01*
X677334Y890676D01*
X689018Y889660D02*
X690034Y891692D01*
X689018Y893724D01*
X691050Y892708D01*
X693082Y893724D01*
X692066Y891692D01*
X693082Y889660D01*
X691050Y890676D01*
X689018Y889660D01*
X690034Y890676D02*
X690542Y891692D01*
X690034Y892708D01*
X691050Y892200D01*
X692066Y892708D01*
X691558Y891692D01*
X692066Y890676D01*
X691050Y891184D01*
X690034Y890676D01*
X701718Y889660D02*
X702734Y891692D01*
X701718Y893724D01*
X703750Y892708D01*
X705782Y893724D01*
X704766Y891692D01*
X705782Y889660D01*
X703750Y890676D01*
X701718Y889660D01*
X702734Y890676D02*
X703242Y891692D01*
X702734Y892708D01*
X703750Y892200D01*
X704766Y892708D01*
X704258Y891692D01*
X704766Y890676D01*
X703750Y891184D01*
X702734Y890676D01*
X714418Y889660D02*
X715434Y891692D01*
X714418Y893724D01*
X716450Y892708D01*
X718482Y893724D01*
X717466Y891692D01*
X718482Y889660D01*
X716450Y890676D01*
X714418Y889660D01*
X715434Y890676D02*
X715942Y891692D01*
X715434Y892708D01*
X716450Y892200D01*
X717466Y892708D01*
X716958Y891692D01*
X717466Y890676D01*
X716450Y891184D01*
X715434Y890676D01*
X570225Y406999D02*
Y411063D01*
X574289D01*
Y406999D01*
X570225D01*
X571241Y408015D02*
Y410047D01*
X573273D01*
Y408015D01*
X571241D01*
X544825Y406999D02*
Y411063D01*
X548889D01*
Y406999D01*
X544825D01*
X545841Y408015D02*
Y410047D01*
X547873D01*
Y408015D01*
X545841D01*
X307091Y893576D02*
Y892560D01*
X309123D01*
Y893576D01*
X310139D01*
Y895608D01*
X309123D01*
Y896624D01*
X307091D01*
Y895608D01*
X306075D01*
Y893576D01*
X307091D01*
Y1503176D02*
Y1502160D01*
X309123D01*
Y1503176D01*
X310139D01*
Y1505208D01*
X309123D01*
Y1506224D01*
X307091D01*
Y1505208D01*
X306075D01*
Y1503176D01*
X307091D01*
X1223777D02*
Y1502160D01*
X1225809D01*
Y1503176D01*
X1226825D01*
Y1505208D01*
X1225809D01*
Y1506224D01*
X1223777D01*
Y1505208D01*
X1222761D01*
Y1503176D01*
X1223777D01*
Y893576D02*
Y892560D01*
X1225809D01*
Y893576D01*
X1226825D01*
Y895608D01*
X1225809D01*
Y896624D01*
X1223777D01*
Y895608D01*
X1222761D01*
Y893576D01*
X1223777D01*
X463128Y434741D02*
X464144Y436773D01*
X463128Y438805D01*
X465160Y437789D01*
X467192Y438805D01*
X466176Y436773D01*
X467192Y434741D01*
X465160Y435757D01*
X463128Y434741D01*
X464144Y435757D02*
X464652Y436773D01*
X464144Y437789D01*
X465160Y437281D01*
X466176Y437789D01*
X465668Y436773D01*
X466176Y435757D01*
X465160Y436265D01*
X464144Y435757D01*
X483128Y434741D02*
X484144Y436773D01*
X483128Y438805D01*
X485160Y437789D01*
X487192Y438805D01*
X486176Y436773D01*
X487192Y434741D01*
X485160Y435757D01*
X483128Y434741D01*
X484144Y435757D02*
X484652Y436773D01*
X484144Y437789D01*
X485160Y437281D01*
X486176Y437789D01*
X485668Y436773D01*
X486176Y435757D01*
X485160Y436265D01*
X484144Y435757D01*
X361838Y768289D02*
Y772353D01*
X365902D01*
Y768289D01*
X361838D01*
X362854Y769305D02*
Y771337D01*
X364886D01*
Y769305D01*
X362854D01*
X361838Y793689D02*
Y797753D01*
X365902D01*
Y793689D01*
X361838D01*
X362854Y794705D02*
Y796737D01*
X364886D01*
Y794705D01*
X362854D01*
X379903Y434741D02*
X380919Y436773D01*
X379903Y438805D01*
X381935Y437789D01*
X383967Y438805D01*
X382951Y436773D01*
X383967Y434741D01*
X381935Y435757D01*
X379903Y434741D01*
X380919Y435757D02*
X381427Y436773D01*
X380919Y437789D01*
X381935Y437281D01*
X382951Y437789D01*
X382443Y436773D01*
X382951Y435757D01*
X381935Y436265D01*
X380919Y435757D01*
X399903Y434741D02*
X400919Y436773D01*
X399903Y438805D01*
X401935Y437789D01*
X403967Y438805D01*
X402951Y436773D01*
X403967Y434741D01*
X401935Y435757D01*
X399903Y434741D01*
X400919Y435757D02*
X401427Y436773D01*
X400919Y437789D01*
X401935Y437281D01*
X402951Y437789D01*
X402443Y436773D01*
X402951Y435757D01*
X401935Y436265D01*
X400919Y435757D01*
X609628Y584499D02*
Y588563D01*
X613692D01*
Y584499D01*
X609628D01*
X613612Y532806D02*
Y536870D01*
X617676D01*
Y532806D01*
X613612D01*
X537322Y543128D02*
Y547192D01*
X541386D01*
Y543128D01*
X537322D01*
X576031Y623128D02*
Y627192D01*
X580095D01*
Y623128D01*
X576031D01*
X381203Y905730D02*
Y909794D01*
X385267D01*
Y905730D01*
X381203D01*
X377322Y891515D02*
Y895579D01*
X381386D01*
Y891515D01*
X377322D01*
X1040384Y728289D02*
Y732353D01*
X1044448D01*
Y728289D01*
X1040384D01*
X1046353Y712805D02*
Y716869D01*
X1050417D01*
Y712805D01*
X1046353D01*
X1056030Y723773D02*
Y727837D01*
X1060094D01*
Y723773D01*
X1056030D01*
X757967Y677321D02*
Y681385D01*
X762030D01*
Y677321D01*
X757967D01*
X764418Y644997D02*
Y649061D01*
X768482D01*
Y644997D01*
X764418D01*
X801192D02*
Y649061D01*
X805256D01*
Y644997D01*
X801192D01*
X938611D02*
Y649061D01*
X942675D01*
Y644997D01*
X938611D01*
X958611Y663773D02*
Y667837D01*
X962675D01*
Y663773D01*
X958611D01*
X816031Y665063D02*
Y669127D01*
X820095D01*
Y665063D01*
X816031D01*
X648757Y902660D02*
Y906724D01*
X652821D01*
Y902660D01*
X648757D01*
X644418Y517967D02*
Y522031D01*
X648482D01*
Y517967D01*
X644418D01*
X779019Y838347D02*
Y842411D01*
X783083D01*
Y838347D01*
X779019D01*
X795386Y850870D02*
Y854933D01*
X799450D01*
Y850870D01*
X795386D01*
X832160Y819902D02*
Y823966D01*
X836224D01*
Y819902D01*
X832160D01*
X817321Y830870D02*
Y834934D01*
X821385D01*
Y830870D01*
X817321D01*
X821192Y819257D02*
Y823321D01*
X825256D01*
Y819257D01*
X821192D01*
X530225Y792805D02*
Y796869D01*
X534289D01*
Y792805D01*
X530225D01*
X493424Y802455D02*
Y806519D01*
X497488D01*
Y802455D01*
X493424D01*
X328069Y995385D02*
Y999449D01*
X332133D01*
Y995385D01*
X328069D01*
X513451Y801837D02*
Y805901D01*
X517515D01*
Y801837D01*
X513451D01*
X540548Y869579D02*
Y873643D01*
X544612D01*
Y869579D01*
X540548D01*
X835386Y856676D02*
Y860740D01*
X839450D01*
Y856676D01*
X835386D01*
X760547Y826353D02*
Y830417D01*
X764611D01*
Y826353D01*
X760547D01*
X770225Y832160D02*
Y836224D01*
X774288D01*
Y832160D01*
X770225D01*
X722483Y814095D02*
Y818159D01*
X726547D01*
Y814095D01*
X722483D01*
X752353Y817514D02*
Y821578D01*
X756417D01*
Y817514D01*
X752353D01*
X322100Y1017704D02*
Y1021768D01*
X326164D01*
Y1017704D01*
X322100D01*
X301838Y925063D02*
Y929127D01*
X305902D01*
Y925063D01*
X301838D01*
X317967Y917966D02*
Y922030D01*
X322031D01*
Y917966D01*
X317967D01*
X290050Y969404D02*
Y973467D01*
X294114D01*
Y969404D01*
X290050D01*
X322100Y967382D02*
Y971446D01*
X326164D01*
Y967382D01*
X322100D01*
X328290Y859257D02*
Y863321D01*
X332354D01*
Y859257D01*
X328290D01*
X334742Y875386D02*
Y879450D01*
X338806D01*
Y875386D01*
X334742D01*
X343774Y888934D02*
Y892998D01*
X347838D01*
Y888934D01*
X343774D01*
X790870Y841837D02*
Y845901D01*
X794934D01*
Y841837D01*
X790870D01*
X789579Y864580D02*
Y868644D01*
X793643D01*
Y864580D01*
X789579D01*
X806354Y855386D02*
Y859450D01*
X810417D01*
Y855386D01*
X806354D01*
X369580Y918611D02*
Y922675D01*
X373644D01*
Y918611D01*
X369580D01*
X358612Y898611D02*
Y902675D01*
X362676D01*
Y898611D01*
X358612D01*
X356032Y912805D02*
Y916869D01*
X360096D01*
Y912805D01*
X356032D01*
X379258Y1476675D02*
Y1480739D01*
X383322D01*
Y1476675D01*
X379258D01*
X388024Y1477699D02*
Y1481763D01*
X392088D01*
Y1477699D01*
X388024D01*
X397967Y1477320D02*
Y1481384D01*
X402031D01*
Y1477320D01*
X397967D01*
X748452Y711998D02*
Y716062D01*
X752516D01*
Y711998D01*
X748452D01*
X923127Y713450D02*
Y717514D01*
X927191D01*
Y713450D01*
X923127D01*
X837966Y703773D02*
Y707837D01*
X842030D01*
Y703773D01*
X837966D01*
X932160D02*
Y707837D01*
X936224D01*
Y703773D01*
X932160D01*
X796676Y599257D02*
Y603321D01*
X800740D01*
Y599257D01*
X796676D01*
X820547Y602645D02*
Y606710D01*
X824611D01*
Y602645D01*
X820547D01*
X944900Y596676D02*
Y600741D01*
X948964D01*
Y596676D01*
X944900D01*
X777321Y591515D02*
Y595579D01*
X781385D01*
Y591515D01*
X777321D01*
X770916Y602483D02*
Y606547D01*
X774980D01*
Y602483D01*
X770916D01*
X786999Y584418D02*
Y588482D01*
X791063D01*
Y584418D01*
X786999D01*
X950869D02*
Y588482D01*
X954933D01*
Y584418D01*
X950869D01*
X963869Y799257D02*
X964885Y800273D01*
X965901D01*
X964885Y801289D01*
X965901Y802305D01*
X964885D01*
X963869Y803321D01*
X962853Y802305D01*
X961837D01*
X962853Y801289D01*
X961837Y800273D01*
X962853D01*
X963869Y799257D01*
X933450Y840547D02*
Y844611D01*
X937514D01*
Y840547D01*
X933450D01*
X1120798Y619005D02*
Y623069D01*
X1124863D01*
Y619005D01*
X1120798D01*
X1077321Y609580D02*
Y613644D01*
X1081385D01*
Y609580D01*
X1077321D01*
X1139901Y601838D02*
Y605902D01*
X1143965D01*
Y601838D01*
X1139901D01*
X1022482Y841192D02*
Y845256D01*
X1026546D01*
Y841192D01*
X1022482D01*
X1030224Y847644D02*
Y851708D01*
X1034288D01*
Y847644D01*
X1030224D01*
X1026998Y856031D02*
Y860095D01*
X1031062D01*
Y856031D01*
X1026998D01*
X1001176Y876660D02*
Y880724D01*
X1005240D01*
Y876660D01*
X1001176D01*
X999256Y834095D02*
Y838159D01*
X1003320D01*
Y834095D01*
X999256D01*
X1008934Y826999D02*
Y831063D01*
X1012998D01*
Y826999D01*
X1008934D01*
X1013918Y902660D02*
Y906724D01*
X1017982D01*
Y902660D01*
X1013918D01*
X721192Y730870D02*
Y734934D01*
X725256D01*
Y730870D01*
X721192D01*
X1026998Y876031D02*
Y880095D01*
X1031062D01*
Y876031D01*
X1026998D01*
X806999Y717967D02*
Y722031D01*
X811063D01*
Y717967D01*
X806999D01*
X890093Y861837D02*
Y865901D01*
X894157D01*
Y861837D01*
X890093D01*
X897966Y854095D02*
Y858159D01*
X902030D01*
Y854095D01*
X897966D01*
X1000547Y728289D02*
Y732353D01*
X1004611D01*
Y728289D01*
X1000547D01*
X481838Y876031D02*
Y880095D01*
X485902D01*
Y876031D01*
X481838D01*
X1071352Y652805D02*
Y656869D01*
X1075416D01*
Y652805D01*
X1071352D01*
X494741Y902482D02*
Y906546D01*
X498805D01*
Y902482D01*
X494741D01*
X1103127Y632160D02*
Y636224D01*
X1107191D01*
Y632160D01*
X1103127D01*
X1108933Y616676D02*
Y620740D01*
X1112998D01*
Y616676D01*
X1108933D01*
X507644Y876676D02*
Y880740D01*
X511708D01*
Y876676D01*
X507644D01*
X978611Y752160D02*
Y756224D01*
X982675D01*
Y752160D01*
X978611D01*
X966353Y622483D02*
Y626547D01*
X970417D01*
Y622483D01*
X966353D01*
X519902Y903128D02*
Y907191D01*
X523966D01*
Y903128D01*
X519902D01*
X570870D02*
Y907191D01*
X574934D01*
Y903128D01*
X570870D01*
X583773Y876676D02*
Y880740D01*
X587837D01*
Y876676D01*
X583773D01*
X545064Y903128D02*
Y907191D01*
X549128D01*
Y903128D01*
X545064D01*
X534096Y876676D02*
Y880740D01*
X538160D01*
Y876676D01*
X534096D01*
X914740Y634741D02*
Y638805D01*
X918804D01*
Y634741D01*
X914740D01*
X752160Y774096D02*
Y778159D01*
X756224D01*
Y774096D01*
X752160D01*
X1086353Y641838D02*
Y645902D01*
X1090417D01*
Y641838D01*
X1086353D01*
X600547Y902482D02*
Y906546D01*
X604611D01*
Y902482D01*
X600547D01*
X610225Y877321D02*
Y881385D01*
X614289D01*
Y877321D01*
X610225D01*
X623128Y901837D02*
Y905901D01*
X627192D01*
Y901837D01*
X623128D01*
X1026998Y659902D02*
Y663966D01*
X1031062D01*
Y659902D01*
X1026998D01*
X634741Y876031D02*
Y880095D01*
X638805D01*
Y876031D01*
X634741D01*
X614837Y705708D02*
X615854Y706724D01*
X616870D01*
X615854Y707740D01*
X616870Y708756D01*
X615854D01*
X614837Y709772D01*
X613821Y708756D01*
X612805D01*
X613821Y707740D01*
X612805Y706724D01*
X613821D01*
X614837Y705708D01*
X659257Y876676D02*
Y880740D01*
X663321D01*
Y876676D01*
X659257D01*
X1061837Y671515D02*
Y675579D01*
X1065901D01*
Y671515D01*
X1061837D01*
X671515Y902482D02*
Y906546D01*
X675579D01*
Y902482D01*
X671515D01*
X685063Y876676D02*
Y880740D01*
X689127D01*
Y876676D01*
X685063D01*
X1091514Y683128D02*
Y687192D01*
X1095578D01*
Y683128D01*
X1091514D01*
X698612Y902482D02*
Y906546D01*
X702676D01*
Y902482D01*
X698612D01*
X898611Y688934D02*
Y692998D01*
X902675D01*
Y688934D01*
X898611D01*
X711515Y876676D02*
Y880740D01*
X715579D01*
Y876676D01*
X711515D01*
X1017966Y696676D02*
Y700740D01*
X1022030D01*
Y696676D01*
X1017966D01*
X727644Y902482D02*
Y906546D01*
X731708D01*
Y902482D01*
X727644D01*
X602483Y617322D02*
Y621386D01*
X606547D01*
Y617322D01*
X602483D01*
X843128Y902482D02*
Y906546D01*
X847192D01*
Y902482D01*
X843128D01*
X830224Y876676D02*
Y880740D01*
X834288D01*
Y876676D01*
X830224D01*
X1012160Y728289D02*
Y732353D01*
X1016224D01*
Y728289D01*
X1012160D01*
X795386Y774096D02*
Y778159D01*
X799450D01*
Y774096D01*
X795386D01*
X1042482Y903128D02*
Y907191D01*
X1046546D01*
Y903128D01*
X1042482D01*
X766354Y454096D02*
Y458160D01*
X770418D01*
Y454096D01*
X766354D01*
X979902D02*
Y458160D01*
X983966D01*
Y454096D01*
X979902D01*
X455386Y1497320D02*
Y1501384D01*
X459450D01*
Y1497320D01*
X455386D01*
X536193Y619902D02*
Y623966D01*
X540257D01*
Y619902D01*
X536193D01*
X577483Y577322D02*
Y581386D01*
X581547D01*
Y577322D01*
X577483D01*
X548935Y628289D02*
Y632353D01*
X552999D01*
Y628289D01*
X548935D01*
X545064Y675386D02*
Y679450D01*
X549128D01*
Y675386D01*
X545064D01*
X477967Y542483D02*
Y546547D01*
X482031D01*
Y542483D01*
X477967D01*
X499257Y561838D02*
Y565902D01*
X503321D01*
Y561838D01*
X499257D01*
X503773Y457967D02*
Y462031D01*
X507837D01*
Y457967D01*
X503773D01*
X835386Y774741D02*
Y778805D01*
X839450D01*
Y774741D01*
X835386D01*
X836676Y413451D02*
Y417515D01*
X840740D01*
Y413451D01*
X836676D01*
X1095385D02*
Y417515D01*
X1099449D01*
Y413451D01*
X1095385D01*
X586354Y518612D02*
Y522676D01*
X590418D01*
Y518612D01*
X586354D01*
X1006353Y413451D02*
Y417515D01*
X1010417D01*
Y413451D01*
X1006353D01*
X874095Y414096D02*
Y418160D01*
X878159D01*
Y414096D01*
X874095D01*
X1051514D02*
Y418160D01*
X1055578D01*
Y414096D01*
X1051514D01*
X561569Y477107D02*
Y481171D01*
X565633D01*
Y477107D01*
X561569D01*
X560064Y523128D02*
Y527192D01*
X564128D01*
Y523128D01*
X560064D01*
X512160Y479902D02*
Y483966D01*
X516225D01*
Y479902D01*
X512160D01*
X544418Y707644D02*
Y711708D01*
X548483D01*
Y707644D01*
X544418D01*
X545225Y658612D02*
Y662676D01*
X549289D01*
Y658612D01*
X545225D01*
Y691515D02*
Y695579D01*
X549289D01*
Y691515D01*
X545225D01*
X549096Y641192D02*
Y645257D01*
X553160D01*
Y641192D01*
X549096D01*
X615547Y618612D02*
Y622676D01*
X619611D01*
Y618612D01*
X615547D01*
X1052159Y774096D02*
Y778159D01*
X1056223D01*
Y774096D01*
X1052159D01*
X1096030D02*
Y778159D01*
X1100094D01*
Y774096D01*
X1096030D01*
X1006998D02*
Y778159D01*
X1011062D01*
Y774096D01*
X1006998D01*
M02*
