G04*
G04 #@! TF.GenerationSoftware,Altium Limited,Altium Designer,22.7.1 (60)*
G04*
G04 Layer_Physical_Order=1*
G04 Layer_Color=255*
%FSLAX44Y44*%
%MOMM*%
G71*
G04*
G04 #@! TF.SameCoordinates,F0A3B908-A9A0-482C-9906-E7527CCB9396*
G04*
G04*
G04 #@! TF.FilePolarity,Positive*
G04*
G01*
G75*
%ADD13C,0.2540*%
%ADD14C,0.0254*%
%ADD15R,1.1500X1.3500*%
%ADD22C,0.6500*%
G04:AMPARAMS|DCode=23|XSize=0.9mm|YSize=2.4mm|CornerRadius=0.45mm|HoleSize=0mm|Usage=FLASHONLY|Rotation=0.000|XOffset=0mm|YOffset=0mm|HoleType=Round|Shape=RoundedRectangle|*
%AMROUNDEDRECTD23*
21,1,0.9000,1.5000,0,0,0.0*
21,1,0.0000,2.4000,0,0,0.0*
1,1,0.9000,0.0000,-0.7500*
1,1,0.9000,0.0000,-0.7500*
1,1,0.9000,0.0000,0.7500*
1,1,0.9000,0.0000,0.7500*
%
%ADD23ROUNDEDRECTD23*%
G04:AMPARAMS|DCode=24|XSize=0.9mm|YSize=1.7mm|CornerRadius=0.45mm|HoleSize=0mm|Usage=FLASHONLY|Rotation=0.000|XOffset=0mm|YOffset=0mm|HoleType=Round|Shape=RoundedRectangle|*
%AMROUNDEDRECTD24*
21,1,0.9000,0.8000,0,0,0.0*
21,1,0.0000,1.7000,0,0,0.0*
1,1,0.9000,0.0000,-0.4000*
1,1,0.9000,0.0000,-0.4000*
1,1,0.9000,0.0000,0.4000*
1,1,0.9000,0.0000,0.4000*
%
%ADD24ROUNDEDRECTD24*%
%ADD29C,1.0160*%
%ADD30C,0.5080*%
%ADD31C,0.3048*%
%ADD32C,3.0000*%
%ADD33C,1.3462*%
%ADD34C,1.0000*%
%ADD35C,1.2000*%
%ADD36R,1.2000X1.2000*%
%ADD37C,1.5000*%
%ADD38R,1.5000X1.5000*%
%ADD39C,1.5000*%
%ADD40R,1.5000X1.5000*%
%ADD41C,1.2700*%
%ADD42C,0.6350*%
G36*
X966303Y674803D02*
Y126197D01*
X941840Y101734D01*
X941840Y101734D01*
X941793Y101780D01*
X938558Y97992D01*
X935955Y93744D01*
X934048Y89142D01*
X932885Y84297D01*
X932494Y79331D01*
X932560D01*
X932560Y57183D01*
X35926D01*
X35926Y79331D01*
X35992D01*
X35601Y84297D01*
X34438Y89142D01*
X32531Y93744D01*
X29928Y97992D01*
X26693Y101780D01*
X26646Y101734D01*
X2183Y126197D01*
Y674803D01*
X71197Y743817D01*
X897289D01*
X966303Y674803D01*
D02*
G37*
%LPC*%
G36*
X285750Y741628D02*
Y733600D01*
X290311D01*
Y735060D01*
X290069Y736898D01*
X289359Y738610D01*
X288231Y740081D01*
X286760Y741209D01*
X285750Y741628D01*
D02*
G37*
G36*
X280670D02*
X279660Y741209D01*
X278189Y740081D01*
X277061Y738610D01*
X276351Y736898D01*
X276109Y735060D01*
Y733600D01*
X280670D01*
Y741628D01*
D02*
G37*
G36*
X199250D02*
Y733600D01*
X203811D01*
Y735060D01*
X203569Y736898D01*
X202859Y738610D01*
X201731Y740081D01*
X200260Y741209D01*
X199250Y741628D01*
D02*
G37*
G36*
X194170D02*
X193160Y741209D01*
X191689Y740081D01*
X190561Y738610D01*
X189851Y736898D01*
X189609Y735060D01*
Y733600D01*
X194170D01*
Y741628D01*
D02*
G37*
G36*
X252903Y724079D02*
X252903Y724079D01*
X226451D01*
X226451Y724079D01*
X224727Y723852D01*
X223121Y723186D01*
X221741Y722128D01*
X221741Y722128D01*
X214272Y714659D01*
X213213Y713279D01*
X212548Y711673D01*
X212321Y709949D01*
X212548Y708224D01*
X212843Y707511D01*
X212750Y707418D01*
Y700960D01*
X207670D01*
Y706175D01*
X206930Y705869D01*
X205301Y704240D01*
X205081Y703707D01*
X203811Y703960D01*
Y704760D01*
X203569Y706598D01*
X202859Y708310D01*
X201731Y709781D01*
X200260Y710909D01*
X199250Y711328D01*
Y697260D01*
Y683192D01*
X200260Y683611D01*
X201731Y684739D01*
X202859Y686210D01*
X203150Y686911D01*
X204420Y686658D01*
Y686308D01*
X205301Y684180D01*
X206930Y682551D01*
X207670Y682245D01*
Y687460D01*
X212750D01*
Y682245D01*
X213296Y682471D01*
X214566Y681969D01*
Y676112D01*
X214000Y675677D01*
X177225Y638902D01*
X176166Y637523D01*
X175501Y635916D01*
X175274Y634192D01*
X175274Y634192D01*
Y567435D01*
X174598Y566264D01*
X174061Y564261D01*
Y562188D01*
X174598Y560185D01*
X175634Y558390D01*
X177100Y556924D01*
X178896Y555887D01*
X180898Y555351D01*
X182972D01*
X184974Y555887D01*
X186770Y556924D01*
X188236Y558390D01*
X189272Y560185D01*
X189809Y562188D01*
Y564261D01*
X189272Y566264D01*
X188596Y567435D01*
Y631433D01*
X223420Y666257D01*
X224479Y667637D01*
X225144Y669243D01*
X225371Y670967D01*
X225144Y672691D01*
X224479Y674298D01*
X223420Y675677D01*
X222854Y676112D01*
Y679188D01*
X224102Y679240D01*
X224339Y678051D01*
X225013Y677042D01*
X230705Y671350D01*
X231714Y670676D01*
X232903Y670439D01*
X308024D01*
X309213Y670676D01*
X310221Y671350D01*
X327370Y688499D01*
X338523D01*
Y705047D01*
X323975D01*
Y693844D01*
X323826Y693744D01*
X306736Y676655D01*
X234190D01*
X230318Y680527D01*
Y683816D01*
X230630Y684129D01*
X231460Y684633D01*
X232290Y684129D01*
X233006Y683413D01*
X234760Y682686D01*
X236660D01*
X238414Y683413D01*
X239130Y684129D01*
X239960Y684633D01*
X240790Y684129D01*
X241506Y683413D01*
X243260Y682686D01*
X245160D01*
X246914Y683413D01*
X247630Y684129D01*
X248460Y684633D01*
X249290Y684129D01*
X250006Y683413D01*
X251761Y682686D01*
X253660D01*
X255414Y683413D01*
X256130Y684129D01*
X256960Y684633D01*
X257790Y684129D01*
X258506Y683413D01*
X260260Y682686D01*
X262160D01*
X263914Y683413D01*
X265640Y683342D01*
X266430Y682551D01*
X267170Y682245D01*
Y687460D01*
X272250D01*
Y682245D01*
X272990Y682551D01*
X274619Y684180D01*
X275500Y686308D01*
Y686658D01*
X276770Y686911D01*
X277061Y686210D01*
X278189Y684739D01*
X279660Y683611D01*
X280670Y683192D01*
Y697260D01*
Y711328D01*
X279660Y710909D01*
X278189Y709781D01*
X277061Y708310D01*
X276351Y706598D01*
X276109Y704760D01*
Y703960D01*
X274839Y703707D01*
X274619Y704240D01*
X272990Y705869D01*
X270862Y706750D01*
X268558D01*
X268332Y706656D01*
X267360Y707628D01*
X267372Y707658D01*
X267599Y709382D01*
X267372Y711106D01*
X266707Y712713D01*
X265648Y714092D01*
X257613Y722128D01*
X256233Y723186D01*
X254627Y723852D01*
X252903Y724079D01*
D02*
G37*
G36*
X338523Y725692D02*
X323975D01*
Y720526D01*
X319666D01*
X318790Y721402D01*
X317063Y722117D01*
X315194D01*
X313467Y721402D01*
X312145Y720080D01*
X311429Y718353D01*
Y716483D01*
X312145Y714756D01*
X313467Y713434D01*
X315194Y712719D01*
X317063D01*
X318790Y713434D01*
X319666Y714310D01*
X323975D01*
Y709144D01*
X338523D01*
Y725692D01*
D02*
G37*
G36*
X290311Y728520D02*
X285750D01*
Y720492D01*
X286760Y720911D01*
X288231Y722039D01*
X289359Y723510D01*
X290069Y725222D01*
X290311Y727060D01*
Y728520D01*
D02*
G37*
G36*
X280670D02*
X276109D01*
Y727060D01*
X276351Y725222D01*
X277061Y723510D01*
X278189Y722039D01*
X279660Y720911D01*
X280670Y720492D01*
Y728520D01*
D02*
G37*
G36*
X203811D02*
X199250D01*
Y720492D01*
X200260Y720911D01*
X201731Y722039D01*
X202859Y723510D01*
X203569Y725222D01*
X203811Y727060D01*
Y728520D01*
D02*
G37*
G36*
X194170D02*
X189609D01*
Y727060D01*
X189851Y725222D01*
X190561Y723510D01*
X191689Y722039D01*
X193160Y720911D01*
X194170Y720492D01*
Y728520D01*
D02*
G37*
G36*
X357039Y726708D02*
X351289D01*
Y719958D01*
X357039D01*
Y726708D01*
D02*
G37*
G36*
X346209D02*
X340459D01*
Y719958D01*
X346209D01*
Y726708D01*
D02*
G37*
G36*
X357039Y714878D02*
X351289D01*
Y708128D01*
X357039D01*
Y714878D01*
D02*
G37*
G36*
X346209D02*
X340459D01*
Y708128D01*
X346209D01*
Y714878D01*
D02*
G37*
G36*
X285750Y711328D02*
Y699800D01*
X290311D01*
Y704760D01*
X290069Y706598D01*
X289359Y708310D01*
X288231Y709781D01*
X286760Y710909D01*
X285750Y711328D01*
D02*
G37*
G36*
X194170D02*
X193160Y710909D01*
X191689Y709781D01*
X190561Y708310D01*
X189851Y706598D01*
X189609Y704760D01*
Y699800D01*
X194170D01*
Y711328D01*
D02*
G37*
G36*
X357039Y706063D02*
X351289D01*
Y699313D01*
X357039D01*
Y706063D01*
D02*
G37*
G36*
X346209D02*
X340459D01*
Y699313D01*
X346209D01*
Y706063D01*
D02*
G37*
G36*
X869613Y722024D02*
X866358D01*
X863166Y721389D01*
X860159Y720143D01*
X857453Y718335D01*
X855151Y716033D01*
X853343Y713327D01*
X852097Y710320D01*
X851462Y707128D01*
Y703873D01*
X852097Y700680D01*
X853343Y697673D01*
X855151Y694967D01*
X857453Y692665D01*
X860159Y690857D01*
X863166Y689611D01*
X866358Y688976D01*
X869613D01*
X872806Y689611D01*
X875813Y690857D01*
X878519Y692665D01*
X880821Y694967D01*
X882629Y697673D01*
X883875Y700680D01*
X884510Y703873D01*
Y707128D01*
X883875Y710320D01*
X882629Y713327D01*
X880821Y716033D01*
X878519Y718335D01*
X875813Y720143D01*
X872806Y721389D01*
X869613Y722024D01*
D02*
G37*
G36*
X102128D02*
X98872D01*
X95680Y721389D01*
X92673Y720143D01*
X89967Y718335D01*
X87665Y716033D01*
X85857Y713327D01*
X84611Y710320D01*
X83976Y707128D01*
Y703873D01*
X84611Y700680D01*
X85857Y697673D01*
X87665Y694967D01*
X89967Y692665D01*
X92673Y690857D01*
X95680Y689611D01*
X98872Y688976D01*
X102128D01*
X105320Y689611D01*
X108327Y690857D01*
X111033Y692665D01*
X113335Y694967D01*
X115143Y697673D01*
X116389Y700680D01*
X117024Y703873D01*
Y707128D01*
X116389Y710320D01*
X115143Y713327D01*
X113335Y716033D01*
X111033Y718335D01*
X108327Y720143D01*
X105320Y721389D01*
X102128Y722024D01*
D02*
G37*
G36*
X357039Y694233D02*
X351289D01*
Y687483D01*
X357039D01*
Y694233D01*
D02*
G37*
G36*
X346209D02*
X340459D01*
Y687483D01*
X346209D01*
Y694233D01*
D02*
G37*
G36*
X290311Y694720D02*
X285750D01*
Y683192D01*
X286760Y683611D01*
X288231Y684739D01*
X289359Y686210D01*
X290069Y687922D01*
X290311Y689760D01*
Y694720D01*
D02*
G37*
G36*
X194170D02*
X189609D01*
Y689760D01*
X189851Y687922D01*
X190561Y686210D01*
X191689Y684739D01*
X193160Y683611D01*
X194170Y683192D01*
Y694720D01*
D02*
G37*
G36*
X510611Y678246D02*
X508742D01*
X507015Y677531D01*
X505880Y676396D01*
X322580D01*
X321490Y676179D01*
X320566Y675561D01*
X320566Y675561D01*
X128308Y483304D01*
X127690Y482379D01*
X127474Y481289D01*
X127474Y481289D01*
Y386132D01*
X29952Y288611D01*
X29383Y288939D01*
X27088Y289554D01*
X24712D01*
X22417Y288939D01*
X20359Y287751D01*
X18679Y286071D01*
X17491Y284013D01*
X16876Y281718D01*
Y279342D01*
X17491Y277047D01*
X18679Y274989D01*
X20359Y273309D01*
X22417Y272121D01*
X24712Y271506D01*
X27088D01*
X29383Y272121D01*
X31441Y273309D01*
X33121Y274989D01*
X34309Y277047D01*
X34924Y279342D01*
Y281718D01*
X34309Y284013D01*
X33981Y284582D01*
X132010Y382611D01*
X133280Y382149D01*
Y366539D01*
X29952Y263211D01*
X29383Y263539D01*
X27088Y264154D01*
X24712D01*
X22417Y263539D01*
X20359Y262351D01*
X18679Y260671D01*
X17491Y258613D01*
X16876Y256318D01*
Y253942D01*
X17491Y251647D01*
X18679Y249589D01*
X20359Y247909D01*
X22417Y246721D01*
X24712Y246106D01*
X25609D01*
X26135Y244836D01*
X24353Y243054D01*
X23736Y242130D01*
X23519Y241040D01*
X23519Y241040D01*
Y238434D01*
X22417Y238139D01*
X20359Y236951D01*
X18679Y235271D01*
X17491Y233213D01*
X16876Y230918D01*
Y228542D01*
X17491Y226247D01*
X18679Y224189D01*
X20359Y222509D01*
X22417Y221321D01*
X24712Y220706D01*
X27088D01*
X29383Y221321D01*
X31441Y222509D01*
X33121Y224189D01*
X34309Y226247D01*
X34924Y228542D01*
Y230918D01*
X34309Y233213D01*
X33121Y235271D01*
X31441Y236951D01*
X29383Y238139D01*
X29217Y238184D01*
Y239860D01*
X146530Y357174D01*
X146530Y357174D01*
X146849Y357650D01*
X148119Y357265D01*
Y320534D01*
X35576Y207992D01*
X35276Y207949D01*
X34050Y208262D01*
X33121Y209871D01*
X31441Y211551D01*
X29383Y212739D01*
X27088Y213354D01*
X24712D01*
X22417Y212739D01*
X20359Y211551D01*
X18679Y209871D01*
X17491Y207813D01*
X16876Y205518D01*
Y203142D01*
X17491Y200847D01*
X18679Y198789D01*
X20359Y197109D01*
X22417Y195921D01*
X24712Y195306D01*
X27088D01*
X29383Y195921D01*
X31441Y197109D01*
X33121Y198789D01*
X34309Y200847D01*
X34420Y201260D01*
X35722D01*
X35722Y201260D01*
X36812Y201477D01*
X37736Y202094D01*
X152982Y317340D01*
X152982Y317340D01*
X153599Y318264D01*
X153816Y319354D01*
Y467009D01*
X205238Y518431D01*
X205238Y518431D01*
X205856Y519355D01*
X206073Y520445D01*
Y523227D01*
X334189Y651344D01*
X405776D01*
X406232Y650888D01*
X407157Y650270D01*
X408247Y650053D01*
X408247Y650053D01*
X479428D01*
X480563Y648918D01*
X482290Y648203D01*
X484160D01*
X485887Y648918D01*
X487208Y650240D01*
X487924Y651967D01*
Y653837D01*
X487208Y655564D01*
X486410Y656363D01*
X486936Y657633D01*
X490087D01*
X490209Y657337D01*
X491531Y656015D01*
X493258Y655300D01*
X495127D01*
X496854Y656015D01*
X498176Y657337D01*
X498892Y659064D01*
Y660933D01*
X498352Y662237D01*
X499428Y662956D01*
X499918Y662467D01*
X501645Y661751D01*
X503514D01*
X505241Y662467D01*
X506563Y663789D01*
X507279Y665516D01*
Y667385D01*
X506931Y668223D01*
X507903Y669195D01*
X508742Y668848D01*
X510611D01*
X512338Y669563D01*
X513660Y670885D01*
X514375Y672612D01*
Y674482D01*
X513660Y676209D01*
X512338Y677531D01*
X510611Y678246D01*
D02*
G37*
G36*
X650068Y670453D02*
X647994D01*
X645992Y669917D01*
X644196Y668880D01*
X642730Y667414D01*
X641694Y665619D01*
X641157Y663616D01*
Y661543D01*
X641694Y659540D01*
X642730Y657745D01*
X644196Y656279D01*
X645992Y655242D01*
X647994Y654705D01*
X650068D01*
X652070Y655242D01*
X653866Y656279D01*
X655332Y657745D01*
X656368Y659540D01*
X656905Y661543D01*
Y663616D01*
X656368Y665619D01*
X655332Y667414D01*
X653866Y668880D01*
X652070Y669917D01*
X650068Y670453D01*
D02*
G37*
G36*
X543829Y655455D02*
Y652861D01*
X546423D01*
X546134Y653559D01*
X544526Y655166D01*
X543829Y655455D01*
D02*
G37*
G36*
X538749D02*
X538052Y655166D01*
X536444Y653559D01*
X536156Y652861D01*
X538749D01*
Y655455D01*
D02*
G37*
G36*
X546423Y647781D02*
X543829D01*
Y645188D01*
X544526Y645476D01*
X546134Y647084D01*
X546423Y647781D01*
D02*
G37*
G36*
X538749D02*
X536156D01*
X536444Y647084D01*
X538052Y645476D01*
X538749Y645188D01*
Y647781D01*
D02*
G37*
G36*
X943774Y645154D02*
X941398D01*
X939103Y644539D01*
X937045Y643351D01*
X935365Y641671D01*
X934177Y639613D01*
X933562Y637318D01*
Y634942D01*
X934177Y632647D01*
X935365Y630589D01*
X937045Y628909D01*
X939103Y627721D01*
X941398Y627106D01*
X943774D01*
X946069Y627721D01*
X948127Y628909D01*
X949807Y630589D01*
X950995Y632647D01*
X951610Y634942D01*
Y637318D01*
X950995Y639613D01*
X949807Y641671D01*
X948127Y643351D01*
X946069Y644539D01*
X943774Y645154D01*
D02*
G37*
G36*
X27088D02*
X24712D01*
X22417Y644539D01*
X20359Y643351D01*
X18679Y641671D01*
X17491Y639613D01*
X16876Y637318D01*
Y634942D01*
X17491Y632647D01*
X18679Y630589D01*
X20359Y628909D01*
X22417Y627721D01*
X24712Y627106D01*
X27088D01*
X29383Y627721D01*
X31441Y628909D01*
X33121Y630589D01*
X34309Y632647D01*
X34924Y634942D01*
Y637318D01*
X34309Y639613D01*
X33121Y641671D01*
X31441Y643351D01*
X29383Y644539D01*
X27088Y645154D01*
D02*
G37*
G36*
X260230Y641926D02*
X242182D01*
Y623878D01*
X260230D01*
Y641926D01*
D02*
G37*
G36*
X226994D02*
X224618D01*
X222323Y641311D01*
X220265Y640123D01*
X218585Y638443D01*
X217397Y636385D01*
X216782Y634090D01*
Y631714D01*
X217397Y629419D01*
X218585Y627361D01*
X220265Y625681D01*
X222323Y624493D01*
X224618Y623878D01*
X226994D01*
X229289Y624493D01*
X231347Y625681D01*
X233027Y627361D01*
X234215Y629419D01*
X234830Y631714D01*
Y634090D01*
X234215Y636385D01*
X233027Y638443D01*
X231347Y640123D01*
X229289Y641311D01*
X226994Y641926D01*
D02*
G37*
G36*
X794591Y627123D02*
X792890D01*
X791320Y626472D01*
X790117Y625270D01*
X789467Y623699D01*
Y621999D01*
X790117Y620428D01*
X791320Y619226D01*
X792890Y618575D01*
X794591D01*
X796162Y619226D01*
X797364Y620428D01*
X798015Y621999D01*
Y623699D01*
X797364Y625270D01*
X796162Y626472D01*
X794591Y627123D01*
D02*
G37*
G36*
X655591D02*
X653891D01*
X652320Y626472D01*
X651117Y625270D01*
X650467Y623699D01*
Y621999D01*
X651117Y620428D01*
X652320Y619226D01*
X653891Y618575D01*
X655591D01*
X657162Y619226D01*
X658364Y620428D01*
X659015Y621999D01*
Y623699D01*
X658364Y625270D01*
X657162Y626472D01*
X655591Y627123D01*
D02*
G37*
G36*
X539591D02*
X537891D01*
X536320Y626472D01*
X535117Y625270D01*
X534467Y623699D01*
Y621999D01*
X535117Y620428D01*
X536320Y619226D01*
X537891Y618575D01*
X539591D01*
X541162Y619226D01*
X542364Y620428D01*
X543015Y621999D01*
Y623699D01*
X542364Y625270D01*
X541162Y626472D01*
X539591Y627123D01*
D02*
G37*
G36*
X400591D02*
X398890D01*
X397320Y626472D01*
X396117Y625270D01*
X395467Y623699D01*
Y621999D01*
X396117Y620428D01*
X397320Y619226D01*
X398890Y618575D01*
X400591D01*
X402162Y619226D01*
X403364Y620428D01*
X404015Y621999D01*
Y623699D01*
X403364Y625270D01*
X402162Y626472D01*
X400591Y627123D01*
D02*
G37*
G36*
X510281Y616100D02*
Y613507D01*
X512875D01*
X512586Y614204D01*
X510978Y615812D01*
X510281Y616100D01*
D02*
G37*
G36*
X505201D02*
X504504Y615812D01*
X502896Y614204D01*
X502607Y613507D01*
X505201D01*
Y616100D01*
D02*
G37*
G36*
X770926Y615455D02*
Y612861D01*
X773519D01*
X773231Y613559D01*
X771623Y615166D01*
X770926Y615455D01*
D02*
G37*
G36*
X765846D02*
X765148Y615166D01*
X763541Y613559D01*
X763252Y612861D01*
X765846D01*
Y615455D01*
D02*
G37*
G36*
X727055D02*
Y612861D01*
X729649D01*
X729360Y613559D01*
X727752Y615166D01*
X727055Y615455D01*
D02*
G37*
G36*
X721975D02*
X721277Y615166D01*
X719670Y613559D01*
X719381Y612861D01*
X721975D01*
Y615455D01*
D02*
G37*
G36*
X681893D02*
Y612861D01*
X684487D01*
X684198Y613559D01*
X682591Y615166D01*
X681893Y615455D01*
D02*
G37*
G36*
X676814D02*
X676116Y615166D01*
X674509Y613559D01*
X674220Y612861D01*
X676814D01*
Y615455D01*
D02*
G37*
G36*
X470281D02*
Y612861D01*
X472875D01*
X472586Y613559D01*
X470978Y615166D01*
X470281Y615455D01*
D02*
G37*
G36*
X465201D02*
X464504Y615166D01*
X462896Y613559D01*
X462607Y612861D01*
X465201D01*
Y615455D01*
D02*
G37*
G36*
X427055D02*
Y612861D01*
X429649D01*
X429360Y613559D01*
X427753Y615166D01*
X427055Y615455D01*
D02*
G37*
G36*
X421975D02*
X421278Y615166D01*
X419670Y613559D01*
X419381Y612861D01*
X421975D01*
Y615455D01*
D02*
G37*
G36*
X512875Y608427D02*
X510281D01*
Y605833D01*
X510978Y606122D01*
X512586Y607729D01*
X512875Y608427D01*
D02*
G37*
G36*
X505201D02*
X502607D01*
X502896Y607729D01*
X504504Y606122D01*
X505201Y605833D01*
Y608427D01*
D02*
G37*
G36*
X773519Y607781D02*
X770926D01*
Y605188D01*
X771623Y605476D01*
X773231Y607084D01*
X773519Y607781D01*
D02*
G37*
G36*
X765846D02*
X763252D01*
X763541Y607084D01*
X765148Y605476D01*
X765846Y605188D01*
Y607781D01*
D02*
G37*
G36*
X729649D02*
X727055D01*
Y605188D01*
X727752Y605476D01*
X729360Y607084D01*
X729649Y607781D01*
D02*
G37*
G36*
X721975D02*
X719381D01*
X719670Y607084D01*
X721277Y605476D01*
X721975Y605188D01*
Y607781D01*
D02*
G37*
G36*
X684487D02*
X681893D01*
Y605188D01*
X682591Y605476D01*
X684198Y607084D01*
X684487Y607781D01*
D02*
G37*
G36*
X676814D02*
X674220D01*
X674509Y607084D01*
X676116Y605476D01*
X676814Y605188D01*
Y607781D01*
D02*
G37*
G36*
X472875D02*
X470281D01*
Y605188D01*
X470978Y605476D01*
X472586Y607084D01*
X472875Y607781D01*
D02*
G37*
G36*
X465201D02*
X462607D01*
X462896Y607084D01*
X464504Y605476D01*
X465201Y605188D01*
Y607781D01*
D02*
G37*
G36*
X429649D02*
X427055D01*
Y605188D01*
X427753Y605476D01*
X429360Y607084D01*
X429649Y607781D01*
D02*
G37*
G36*
X421975D02*
X419381D01*
X419670Y607084D01*
X421278Y605476D01*
X421975Y605188D01*
Y607781D01*
D02*
G37*
G36*
X27088Y619754D02*
X24712D01*
X22417Y619139D01*
X20359Y617951D01*
X18679Y616271D01*
X17491Y614213D01*
X16876Y611918D01*
Y609542D01*
X17491Y607247D01*
X18679Y605189D01*
X20359Y603509D01*
X22417Y602321D01*
X24712Y601706D01*
X27088D01*
X29383Y602321D01*
X31441Y603509D01*
X33121Y605189D01*
X34309Y607247D01*
X34924Y609542D01*
Y611918D01*
X34309Y614213D01*
X33121Y616271D01*
X31441Y617951D01*
X29383Y619139D01*
X27088Y619754D01*
D02*
G37*
G36*
Y594354D02*
X24712D01*
X22417Y593739D01*
X20359Y592551D01*
X18679Y590871D01*
X17491Y588813D01*
X16876Y586518D01*
Y584142D01*
X17491Y581847D01*
X18679Y579789D01*
X20359Y578109D01*
X22417Y576921D01*
X24712Y576306D01*
X27088D01*
X29383Y576921D01*
X31441Y578109D01*
X33121Y579789D01*
X34309Y581847D01*
X34924Y584142D01*
Y586518D01*
X34309Y588813D01*
X33121Y590871D01*
X31441Y592551D01*
X29383Y593739D01*
X27088Y594354D01*
D02*
G37*
G36*
X386740Y638891D02*
X384871D01*
X383144Y638176D01*
X381822Y636854D01*
X381107Y635127D01*
Y633258D01*
X381822Y631530D01*
X383130Y630222D01*
Y440707D01*
X267207Y324784D01*
X255409D01*
X254274Y325918D01*
X252547Y326634D01*
X250678D01*
X248951Y325918D01*
X247629Y324597D01*
X246913Y322869D01*
Y321000D01*
X247629Y319273D01*
X248951Y317951D01*
X250678Y317236D01*
X252547D01*
X254274Y317951D01*
X255409Y319086D01*
X268100D01*
X268535Y318398D01*
X268655Y317845D01*
X192295Y241485D01*
X191677Y240560D01*
X191460Y239470D01*
X191460Y239470D01*
Y92308D01*
X190303Y91640D01*
X189088Y90426D01*
X188230Y88938D01*
X187785Y87279D01*
Y85561D01*
X188230Y83902D01*
X189088Y82414D01*
X190303Y81199D01*
X191791Y80340D01*
X193450Y79896D01*
X195168D01*
X196827Y80340D01*
X198315Y81199D01*
X199529Y82414D01*
X199926Y83100D01*
X201392D01*
X201789Y82414D01*
X203003Y81199D01*
X204491Y80340D01*
X206150Y79896D01*
X207868D01*
X209527Y80340D01*
X211015Y81199D01*
X212229Y82414D01*
X212626Y83100D01*
X214092D01*
X214489Y82414D01*
X215703Y81199D01*
X217191Y80340D01*
X218850Y79896D01*
X220568D01*
X222227Y80340D01*
X223715Y81199D01*
X224930Y82414D01*
X225326Y83100D01*
X226792D01*
X227188Y82414D01*
X228403Y81199D01*
X229891Y80340D01*
X231550Y79896D01*
X233268D01*
X234927Y80340D01*
X236415Y81199D01*
X237630Y82414D01*
X238026Y83100D01*
X239492D01*
X239888Y82414D01*
X241103Y81199D01*
X242591Y80340D01*
X244250Y79896D01*
X245968D01*
X247627Y80340D01*
X249115Y81199D01*
X250329Y82414D01*
X250726Y83100D01*
X252192D01*
X252589Y82414D01*
X253803Y81199D01*
X255291Y80340D01*
X256950Y79896D01*
X258668D01*
X260327Y80340D01*
X261815Y81199D01*
X263029Y82414D01*
X263426Y83100D01*
X264892D01*
X265289Y82414D01*
X266503Y81199D01*
X267991Y80340D01*
X269650Y79896D01*
X271368D01*
X273027Y80340D01*
X274515Y81199D01*
X275730Y82414D01*
X276126Y83100D01*
X277592D01*
X277988Y82414D01*
X279203Y81199D01*
X280691Y80340D01*
X282350Y79896D01*
X284068D01*
X285727Y80340D01*
X287215Y81199D01*
X288430Y82414D01*
X288826Y83100D01*
X290292D01*
X290688Y82414D01*
X291903Y81199D01*
X293391Y80340D01*
X295050Y79896D01*
X296768D01*
X298427Y80340D01*
X299915Y81199D01*
X301129Y82414D01*
X301526Y83100D01*
X302992D01*
X303389Y82414D01*
X304603Y81199D01*
X306091Y80340D01*
X307750Y79896D01*
X309468D01*
X311127Y80340D01*
X312615Y81199D01*
X313829Y82414D01*
X314226Y83100D01*
X315692D01*
X316089Y82414D01*
X317303Y81199D01*
X318791Y80340D01*
X320450Y79896D01*
X322168D01*
X323827Y80340D01*
X325315Y81199D01*
X326530Y82414D01*
X326926Y83100D01*
X328392D01*
X328788Y82414D01*
X330003Y81199D01*
X331491Y80340D01*
X333150Y79896D01*
X334868D01*
X336527Y80340D01*
X338015Y81199D01*
X339230Y82414D01*
X339626Y83100D01*
X341092D01*
X341488Y82414D01*
X342703Y81199D01*
X344191Y80340D01*
X345850Y79896D01*
X347568D01*
X349227Y80340D01*
X350715Y81199D01*
X351930Y82414D01*
X352326Y83100D01*
X353792D01*
X354188Y82414D01*
X355403Y81199D01*
X356891Y80340D01*
X358550Y79896D01*
X360268D01*
X361927Y80340D01*
X363415Y81199D01*
X364630Y82414D01*
X365026Y83100D01*
X366492D01*
X366889Y82414D01*
X368103Y81199D01*
X369591Y80340D01*
X371250Y79896D01*
X372968D01*
X374627Y80340D01*
X376115Y81199D01*
X377329Y82414D01*
X377726Y83100D01*
X379192D01*
X379589Y82414D01*
X380803Y81199D01*
X382291Y80340D01*
X383950Y79896D01*
X385668D01*
X387327Y80340D01*
X388815Y81199D01*
X390029Y82414D01*
X390426Y83100D01*
X391892D01*
X392289Y82414D01*
X393503Y81199D01*
X394991Y80340D01*
X396650Y79896D01*
X398368D01*
X400027Y80340D01*
X401515Y81199D01*
X402729Y82414D01*
X403126Y83100D01*
X404592D01*
X404989Y82414D01*
X406203Y81199D01*
X407691Y80340D01*
X409350Y79896D01*
X411068D01*
X412727Y80340D01*
X414215Y81199D01*
X415429Y82414D01*
X415826Y83100D01*
X417292D01*
X417688Y82414D01*
X418903Y81199D01*
X420391Y80340D01*
X422050Y79896D01*
X423768D01*
X425427Y80340D01*
X426915Y81199D01*
X427888Y82173D01*
X429323Y82228D01*
X429576Y81790D01*
X430979Y80386D01*
X432699Y79394D01*
X433069Y79294D01*
Y86420D01*
Y93545D01*
X432699Y93446D01*
X430979Y92453D01*
X429576Y91049D01*
X429323Y90611D01*
X427888Y90667D01*
X426915Y91640D01*
X425427Y92499D01*
X423768Y92944D01*
X422050D01*
X420391Y92499D01*
X418903Y91640D01*
X417688Y90426D01*
X417292Y89739D01*
X415826D01*
X415429Y90426D01*
X414215Y91640D01*
X412727Y92499D01*
X411068Y92944D01*
X409350D01*
X407691Y92499D01*
X406203Y91640D01*
X404989Y90426D01*
X404592Y89739D01*
X403126D01*
X402729Y90426D01*
X401515Y91640D01*
X400027Y92499D01*
X398368Y92944D01*
X396650D01*
X394991Y92499D01*
X393503Y91640D01*
X392289Y90426D01*
X391892Y89739D01*
X390426D01*
X390029Y90426D01*
X388815Y91640D01*
X387327Y92499D01*
X385668Y92944D01*
X383950D01*
X382291Y92499D01*
X380803Y91640D01*
X379589Y90426D01*
X379192Y89739D01*
X377726D01*
X377329Y90426D01*
X376115Y91640D01*
X374958Y92308D01*
Y352184D01*
X418751Y395977D01*
X419924Y395491D01*
Y381742D01*
X419924Y381742D01*
X420141Y380652D01*
X420759Y379727D01*
X493720Y306765D01*
Y92308D01*
X492563Y91640D01*
X491348Y90425D01*
X490490Y88937D01*
X490045Y87278D01*
Y85560D01*
X490490Y83901D01*
X491348Y82413D01*
X492563Y81199D01*
X494051Y80340D01*
X495710Y79895D01*
X497428D01*
X499087Y80340D01*
X500575Y81199D01*
X501790Y82413D01*
X502186Y83100D01*
X503652D01*
X504049Y82413D01*
X505263Y81199D01*
X506751Y80340D01*
X508410Y79895D01*
X510128D01*
X511787Y80340D01*
X513275Y81199D01*
X514490Y82413D01*
X514886Y83100D01*
X516352D01*
X516749Y82413D01*
X517963Y81199D01*
X519451Y80340D01*
X521110Y79895D01*
X522828D01*
X524487Y80340D01*
X525975Y81199D01*
X527189Y82413D01*
X527586Y83100D01*
X529052D01*
X529449Y82413D01*
X530663Y81199D01*
X532151Y80340D01*
X533810Y79895D01*
X535528D01*
X537187Y80340D01*
X538675Y81199D01*
X539889Y82413D01*
X540286Y83100D01*
X541752D01*
X542149Y82413D01*
X543363Y81199D01*
X544851Y80340D01*
X546510Y79895D01*
X548228D01*
X549887Y80340D01*
X551375Y81199D01*
X552589Y82413D01*
X552986Y83100D01*
X554452D01*
X554849Y82413D01*
X556063Y81199D01*
X557551Y80340D01*
X559210Y79895D01*
X560928D01*
X562587Y80340D01*
X564075Y81199D01*
X565289Y82413D01*
X565686Y83100D01*
X567152D01*
X567548Y82413D01*
X568763Y81199D01*
X570251Y80340D01*
X571910Y79895D01*
X573628D01*
X575287Y80340D01*
X576775Y81199D01*
X577990Y82413D01*
X578386Y83100D01*
X579852D01*
X580248Y82413D01*
X581463Y81199D01*
X582951Y80340D01*
X584610Y79895D01*
X586328D01*
X587987Y80340D01*
X589475Y81199D01*
X590690Y82413D01*
X591086Y83100D01*
X592552D01*
X592948Y82413D01*
X594163Y81199D01*
X595651Y80340D01*
X597310Y79895D01*
X599028D01*
X600687Y80340D01*
X602175Y81199D01*
X603390Y82413D01*
X603786Y83100D01*
X605252D01*
X605648Y82413D01*
X606863Y81199D01*
X608351Y80340D01*
X610010Y79895D01*
X611728D01*
X613387Y80340D01*
X614875Y81199D01*
X616090Y82413D01*
X616486Y83100D01*
X617952D01*
X618349Y82413D01*
X619563Y81199D01*
X621051Y80340D01*
X622710Y79895D01*
X624428D01*
X626087Y80340D01*
X627575Y81199D01*
X628789Y82413D01*
X629186Y83100D01*
X630652D01*
X631049Y82413D01*
X632263Y81199D01*
X633751Y80340D01*
X635410Y79895D01*
X637128D01*
X638787Y80340D01*
X640275Y81199D01*
X641489Y82413D01*
X641886Y83100D01*
X643352D01*
X643748Y82413D01*
X644963Y81199D01*
X646451Y80340D01*
X648110Y79895D01*
X649828D01*
X651487Y80340D01*
X652975Y81199D01*
X653948Y82172D01*
X655383Y82228D01*
X655636Y81790D01*
X657039Y80386D01*
X658759Y79393D01*
X659129Y79294D01*
Y86419D01*
Y93545D01*
X658759Y93445D01*
X657039Y92453D01*
X655636Y91049D01*
X655383Y90611D01*
X653948Y90666D01*
X652975Y91640D01*
X651818Y92308D01*
Y229094D01*
X651818Y229094D01*
X651601Y230184D01*
X650983Y231108D01*
X459433Y422659D01*
X458509Y423276D01*
X457418Y423493D01*
X457418Y423493D01*
X453852D01*
X453852Y423493D01*
X452762Y423276D01*
X452246Y422932D01*
X449518D01*
X449113Y423338D01*
X447385Y424053D01*
X445516D01*
X443789Y423338D01*
X442467Y422016D01*
X441752Y420289D01*
Y418419D01*
X442467Y416692D01*
X443789Y415370D01*
X445516Y414655D01*
X447385D01*
X449113Y415370D01*
X450434Y416692D01*
X450659Y417234D01*
X453291D01*
X453291Y417234D01*
X454381Y417451D01*
X454896Y417796D01*
X456238D01*
X646120Y227914D01*
Y92308D01*
X644963Y91640D01*
X643748Y90425D01*
X643352Y89739D01*
X641886D01*
X641489Y90425D01*
X640275Y91640D01*
X638787Y92499D01*
X637128Y92943D01*
X635410D01*
X633751Y92499D01*
X632263Y91640D01*
X631049Y90425D01*
X630652Y89739D01*
X629186D01*
X628789Y90425D01*
X627575Y91640D01*
X626087Y92499D01*
X624428Y92943D01*
X622710D01*
X621051Y92499D01*
X619563Y91640D01*
X618349Y90425D01*
X617952Y89739D01*
X616486D01*
X616090Y90425D01*
X614875Y91640D01*
X613387Y92499D01*
X611728Y92943D01*
X610010D01*
X608351Y92499D01*
X606863Y91640D01*
X605648Y90425D01*
X605252Y89739D01*
X603786D01*
X603390Y90425D01*
X602175Y91640D01*
X600687Y92499D01*
X599028Y92943D01*
X597310D01*
X595651Y92499D01*
X594163Y91640D01*
X592948Y90425D01*
X592552Y89739D01*
X591086D01*
X590690Y90425D01*
X589475Y91640D01*
X587987Y92499D01*
X586328Y92943D01*
X584610D01*
X582951Y92499D01*
X581463Y91640D01*
X580248Y90425D01*
X579852Y89739D01*
X578386D01*
X577990Y90425D01*
X576775Y91640D01*
X575618Y92308D01*
Y258268D01*
X576888Y258990D01*
X577891Y258575D01*
X579591D01*
X581162Y259226D01*
X582364Y260428D01*
X583015Y261999D01*
Y263699D01*
X582364Y265270D01*
X581162Y266472D01*
X579591Y267123D01*
X577891D01*
X576888Y266708D01*
X575618Y267430D01*
Y289810D01*
X575401Y290900D01*
X574783Y291824D01*
X574783Y291824D01*
X456852Y409756D01*
X455928Y410373D01*
X454838Y410590D01*
X454838Y410590D01*
X449602D01*
X448467Y411725D01*
X446740Y412440D01*
X444871D01*
X443144Y411725D01*
X441822Y410403D01*
X441375Y409323D01*
X440105Y409576D01*
Y421937D01*
X516609Y498441D01*
X691041D01*
X692176Y497306D01*
X693903Y496590D01*
X695772D01*
X697499Y497306D01*
X698821Y498628D01*
X699536Y500355D01*
Y502224D01*
X698821Y503951D01*
X697499Y505273D01*
X695772Y505988D01*
X693903D01*
X692176Y505273D01*
X691041Y504138D01*
X518218D01*
X517732Y505311D01*
X521184Y508763D01*
X727815D01*
X728950Y507628D01*
X730677Y506913D01*
X732546D01*
X734273Y507628D01*
X735595Y508950D01*
X736310Y510677D01*
Y512547D01*
X735595Y514274D01*
X734273Y515596D01*
X732546Y516311D01*
X730677D01*
X728950Y515596D01*
X727815Y514461D01*
X521521D01*
X520995Y515731D01*
X523705Y518441D01*
X685072D01*
X686207Y517306D01*
X687934Y516590D01*
X689803D01*
X691530Y517306D01*
X692852Y518628D01*
X693567Y520355D01*
Y522224D01*
X692852Y523951D01*
X691530Y525273D01*
X690843Y525558D01*
X691095Y526828D01*
X723299D01*
X723788Y526338D01*
X725516Y525622D01*
X727385D01*
X729112Y526338D01*
X730434Y527660D01*
X731149Y529387D01*
Y531256D01*
X730434Y532983D01*
X729112Y534305D01*
X727385Y535020D01*
X725516D01*
X723788Y534305D01*
X722467Y532983D01*
X722277Y532525D01*
X521430D01*
X520943Y533698D01*
X526331Y539086D01*
X678783D01*
X679918Y537951D01*
X681645Y537235D01*
X683514D01*
X685241Y537951D01*
X686563Y539273D01*
X687278Y541000D01*
Y542869D01*
X686563Y544596D01*
X685602Y545558D01*
X686111Y546828D01*
X716202D01*
X717337Y545693D01*
X719064Y544977D01*
X720933D01*
X722660Y545693D01*
X723982Y547015D01*
X724698Y548742D01*
Y550611D01*
X723982Y552338D01*
X722660Y553660D01*
X720933Y554375D01*
X719064D01*
X717337Y553660D01*
X716202Y552525D01*
X527146D01*
X527145Y552525D01*
X526055Y552308D01*
X525131Y551691D01*
X498842Y525402D01*
X497344Y525700D01*
X496965Y526615D01*
X495643Y527937D01*
X494727Y528316D01*
X494429Y529814D01*
X520475Y555860D01*
X670396D01*
X671530Y554725D01*
X673258Y554010D01*
X675127D01*
X676854Y554725D01*
X678176Y556047D01*
X678891Y557774D01*
Y559643D01*
X678176Y561370D01*
X677860Y561687D01*
X678386Y562957D01*
X710396D01*
X711530Y561822D01*
X713257Y561106D01*
X715127D01*
X716854Y561822D01*
X718176Y563144D01*
X718891Y564871D01*
Y566740D01*
X718176Y568467D01*
X716854Y569789D01*
X715127Y570504D01*
X713257D01*
X711530Y569789D01*
X710396Y568654D01*
X520644D01*
X520644Y568654D01*
X519554Y568437D01*
X518630Y567820D01*
X518630Y567820D01*
X390070Y439259D01*
X389516Y439379D01*
X388828Y439814D01*
Y630569D01*
X389789Y631530D01*
X390505Y633258D01*
Y635127D01*
X389789Y636854D01*
X388467Y638176D01*
X386740Y638891D01*
D02*
G37*
G36*
X59507Y576005D02*
X57333D01*
X55234Y575442D01*
X53351Y574356D01*
X51814Y572819D01*
X50728Y570936D01*
X50165Y568837D01*
Y566663D01*
X50728Y564564D01*
X51814Y562681D01*
X53351Y561144D01*
X55234Y560057D01*
X57333Y559495D01*
X59507D01*
X61606Y560057D01*
X63488Y561144D01*
X65026Y562681D01*
X66112Y564564D01*
X66675Y566663D01*
Y568837D01*
X66112Y570936D01*
X65026Y572819D01*
X63488Y574356D01*
X61606Y575442D01*
X59507Y576005D01*
D02*
G37*
G36*
X110307Y576005D02*
X108133D01*
X106034Y575442D01*
X104151Y574356D01*
X102614Y572818D01*
X101528Y570936D01*
X100965Y568837D01*
Y566663D01*
X101528Y564563D01*
X102614Y562681D01*
X104151Y561144D01*
X106034Y560057D01*
X108133Y559495D01*
X110307D01*
X112406Y560057D01*
X114289Y561144D01*
X115826Y562681D01*
X116912Y564563D01*
X117475Y566663D01*
Y568837D01*
X116912Y570936D01*
X115826Y572818D01*
X114289Y574356D01*
X112406Y575442D01*
X110307Y576005D01*
D02*
G37*
G36*
X399745Y571099D02*
X397672D01*
X395670Y570562D01*
X393874Y569525D01*
X392408Y568059D01*
X391371Y566264D01*
X390835Y564261D01*
Y562188D01*
X391371Y560185D01*
X392408Y558390D01*
X393874Y556924D01*
X395670Y555887D01*
X397672Y555351D01*
X399745D01*
X401748Y555887D01*
X403544Y556924D01*
X405010Y558390D01*
X406046Y560185D01*
X406583Y562188D01*
Y564261D01*
X406046Y566264D01*
X405010Y568059D01*
X403544Y569525D01*
X401748Y570562D01*
X399745Y571099D01*
D02*
G37*
G36*
X27088Y568954D02*
X24712D01*
X22417Y568339D01*
X20359Y567151D01*
X18679Y565471D01*
X17491Y563413D01*
X16876Y561118D01*
Y558742D01*
X17491Y556447D01*
X18679Y554389D01*
X20359Y552709D01*
X22417Y551521D01*
X24712Y550906D01*
X27088D01*
X29383Y551521D01*
X31441Y552709D01*
X33121Y554389D01*
X34309Y556447D01*
X34924Y558742D01*
Y561118D01*
X34309Y563413D01*
X33121Y565471D01*
X31441Y567151D01*
X29383Y568339D01*
X27088Y568954D01*
D02*
G37*
G36*
X84907Y550605D02*
X82733D01*
X80633Y550042D01*
X78751Y548955D01*
X77214Y547419D01*
X76127Y545536D01*
X75565Y543437D01*
Y541263D01*
X76127Y539164D01*
X77214Y537281D01*
X78751Y535744D01*
X80633Y534658D01*
X82733Y534095D01*
X84907D01*
X87006Y534658D01*
X88889Y535744D01*
X90425Y537281D01*
X91512Y539164D01*
X92075Y541263D01*
Y543437D01*
X91512Y545536D01*
X90425Y547419D01*
X88889Y548955D01*
X87006Y550042D01*
X84907Y550605D01*
D02*
G37*
G36*
X27088Y543554D02*
X24712D01*
X22417Y542939D01*
X20359Y541751D01*
X18679Y540071D01*
X17491Y538013D01*
X16876Y535718D01*
Y533342D01*
X17491Y531047D01*
X18679Y528989D01*
X20359Y527309D01*
X22417Y526121D01*
X24712Y525506D01*
X27088D01*
X29383Y526121D01*
X31441Y527309D01*
X33121Y528989D01*
X34309Y531047D01*
X34924Y533342D01*
Y535718D01*
X34309Y538013D01*
X33121Y540071D01*
X31441Y541751D01*
X29383Y542939D01*
X27088Y543554D01*
D02*
G37*
G36*
X316520Y538841D02*
X314447D01*
X312444Y538304D01*
X310648Y537267D01*
X309182Y535801D01*
X308146Y534006D01*
X307609Y532003D01*
Y529930D01*
X308146Y527927D01*
X309182Y526132D01*
X310648Y524666D01*
X312444Y523629D01*
X314447Y523093D01*
X316520D01*
X318522Y523629D01*
X320318Y524666D01*
X321784Y526132D01*
X322821Y527927D01*
X323357Y529930D01*
Y532003D01*
X322821Y534006D01*
X321784Y535801D01*
X320318Y537267D01*
X318522Y538304D01*
X316520Y538841D01*
D02*
G37*
G36*
X27088Y518154D02*
X24712D01*
X22417Y517539D01*
X20359Y516351D01*
X18679Y514671D01*
X17491Y512613D01*
X16876Y510318D01*
Y507942D01*
X17491Y505647D01*
X18679Y503589D01*
X20359Y501909D01*
X22417Y500721D01*
X24712Y500106D01*
X27088D01*
X29383Y500721D01*
X31441Y501909D01*
X33121Y503589D01*
X34309Y505647D01*
X34924Y507942D01*
Y510318D01*
X34309Y512613D01*
X33121Y514671D01*
X31441Y516351D01*
X29383Y517539D01*
X27088Y518154D01*
D02*
G37*
G36*
X316520Y509809D02*
X314447D01*
X312444Y509272D01*
X310648Y508235D01*
X309182Y506769D01*
X308146Y504974D01*
X307609Y502971D01*
Y500898D01*
X308146Y498895D01*
X309182Y497100D01*
X310648Y495634D01*
X312444Y494597D01*
X314447Y494061D01*
X316520D01*
X318522Y494597D01*
X320318Y495634D01*
X321784Y497100D01*
X322821Y498895D01*
X323357Y500898D01*
Y502971D01*
X322821Y504974D01*
X321784Y506769D01*
X320318Y508235D01*
X318522Y509272D01*
X316520Y509809D01*
D02*
G37*
G36*
X299671Y544552D02*
X275166D01*
X274863Y544426D01*
X274535Y544426D01*
X274303Y544330D01*
X274071Y544098D01*
X274000Y544069D01*
X273970Y543997D01*
X273743Y543770D01*
X273672Y543740D01*
X273642Y543669D01*
X273410Y543437D01*
X273314Y543205D01*
X273314Y542877D01*
X273189Y542574D01*
Y490972D01*
X273314Y490669D01*
X273314Y490341D01*
X273410Y490109D01*
X273642Y489877D01*
X273672Y489806D01*
X273743Y489776D01*
X273970Y489549D01*
X274000Y489478D01*
X274071Y489448D01*
X274303Y489216D01*
X274535Y489120D01*
X274863Y489120D01*
X275166Y488995D01*
X299671D01*
X299974Y489120D01*
X300303Y489120D01*
X300535Y489216D01*
X300767Y489448D01*
X300838Y489478D01*
X300867Y489549D01*
X301095Y489776D01*
X301166Y489806D01*
X301195Y489877D01*
X301427Y490109D01*
X301523Y490341D01*
X301523Y490669D01*
X301649Y490972D01*
Y542574D01*
X301523Y542877D01*
X301523Y543205D01*
X301427Y543437D01*
X301195Y543669D01*
X301166Y543740D01*
X301095Y543770D01*
X300867Y543997D01*
X300838Y544069D01*
X300767Y544098D01*
X300535Y544330D01*
X300303Y544426D01*
X299974Y544426D01*
X299671Y544552D01*
D02*
G37*
G36*
X27088Y492754D02*
X24712D01*
X22417Y492139D01*
X20359Y490951D01*
X18679Y489271D01*
X17491Y487213D01*
X16876Y484918D01*
Y482542D01*
X17491Y480247D01*
X18679Y478189D01*
X20359Y476509D01*
X22417Y475321D01*
X24712Y474706D01*
X27088D01*
X29383Y475321D01*
X31441Y476509D01*
X33121Y478189D01*
X34309Y480247D01*
X34924Y482542D01*
Y484918D01*
X34309Y487213D01*
X33121Y489271D01*
X31441Y490951D01*
X29383Y492139D01*
X27088Y492754D01*
D02*
G37*
G36*
Y467354D02*
X24712D01*
X22417Y466739D01*
X20359Y465551D01*
X18679Y463871D01*
X17491Y461813D01*
X16876Y459518D01*
Y457142D01*
X17491Y454847D01*
X18679Y452789D01*
X20359Y451109D01*
X22417Y449921D01*
X24712Y449306D01*
X27088D01*
X29383Y449921D01*
X31441Y451109D01*
X33121Y452789D01*
X34309Y454847D01*
X34924Y457142D01*
Y459518D01*
X34309Y461813D01*
X33121Y463871D01*
X31441Y465551D01*
X29383Y466739D01*
X27088Y467354D01*
D02*
G37*
G36*
Y441954D02*
X24712D01*
X22417Y441339D01*
X20359Y440151D01*
X18679Y438471D01*
X17491Y436413D01*
X16876Y434118D01*
Y431742D01*
X17491Y429447D01*
X18679Y427389D01*
X20359Y425709D01*
X22417Y424521D01*
X24712Y423906D01*
X27088D01*
X29383Y424521D01*
X31441Y425709D01*
X33121Y427389D01*
X34309Y429447D01*
X34924Y431742D01*
Y434118D01*
X34309Y436413D01*
X33121Y438471D01*
X31441Y440151D01*
X29383Y441339D01*
X27088Y441954D01*
D02*
G37*
G36*
X215289Y449214D02*
X213420D01*
X211693Y448499D01*
X210371Y447177D01*
X209655Y445450D01*
Y443581D01*
X210371Y441853D01*
X211693Y440532D01*
X213420Y439816D01*
X215289D01*
X217016Y440532D01*
X218151Y441666D01*
X258747D01*
X261183Y439230D01*
Y422505D01*
X260048Y421371D01*
X259333Y419644D01*
Y417774D01*
X260048Y416047D01*
X261370Y414725D01*
X263097Y414010D01*
X264966D01*
X266693Y414725D01*
X268015Y416047D01*
X268731Y417774D01*
Y419644D01*
X268015Y421371D01*
X266880Y422505D01*
Y440410D01*
X266880Y440410D01*
X266664Y441501D01*
X266046Y442425D01*
X266046Y442425D01*
X261941Y446530D01*
X261017Y447147D01*
X259927Y447364D01*
X259927Y447364D01*
X218151D01*
X217016Y448499D01*
X215289Y449214D01*
D02*
G37*
G36*
X58236Y415985D02*
X56063D01*
X53963Y415422D01*
X52081Y414336D01*
X50544Y412799D01*
X49457Y410916D01*
X48895Y408817D01*
Y406643D01*
X49457Y404544D01*
X50544Y402661D01*
X52081Y401124D01*
X53963Y400037D01*
X56063Y399475D01*
X58236D01*
X60336Y400037D01*
X62218Y401124D01*
X63755Y402661D01*
X64842Y404544D01*
X65405Y406643D01*
Y408817D01*
X64842Y410916D01*
X63755Y412799D01*
X62218Y414336D01*
X60336Y415422D01*
X58236Y415985D01*
D02*
G37*
G36*
X109036Y415985D02*
X106863D01*
X104763Y415422D01*
X102881Y414336D01*
X101344Y412799D01*
X100257Y410916D01*
X99695Y408817D01*
Y406643D01*
X100257Y404543D01*
X101344Y402661D01*
X102881Y401124D01*
X104763Y400037D01*
X106863Y399475D01*
X109036D01*
X111136Y400037D01*
X113018Y401124D01*
X114555Y402661D01*
X115642Y404543D01*
X116205Y406643D01*
Y408817D01*
X115642Y410916D01*
X114555Y412799D01*
X113018Y414336D01*
X111136Y415422D01*
X109036Y415985D01*
D02*
G37*
G36*
X27088Y416554D02*
X24712D01*
X22417Y415939D01*
X20359Y414751D01*
X18679Y413071D01*
X17491Y411013D01*
X16876Y408718D01*
Y406342D01*
X17491Y404047D01*
X18679Y401989D01*
X20359Y400309D01*
X22417Y399121D01*
X24712Y398506D01*
X27088D01*
X29383Y399121D01*
X31441Y400309D01*
X33121Y401989D01*
X34309Y404047D01*
X34924Y406342D01*
Y408718D01*
X34309Y411013D01*
X33121Y413071D01*
X31441Y414751D01*
X29383Y415939D01*
X27088Y416554D01*
D02*
G37*
G36*
X83636Y390585D02*
X81463D01*
X79363Y390022D01*
X77481Y388936D01*
X75944Y387399D01*
X74857Y385516D01*
X74295Y383417D01*
Y381243D01*
X74857Y379144D01*
X75944Y377261D01*
X77481Y375724D01*
X79363Y374637D01*
X81463Y374075D01*
X83636D01*
X85736Y374637D01*
X87618Y375724D01*
X89155Y377261D01*
X90242Y379144D01*
X90805Y381243D01*
Y383417D01*
X90242Y385516D01*
X89155Y387399D01*
X87618Y388936D01*
X85736Y390022D01*
X83636Y390585D01*
D02*
G37*
G36*
X27088Y391154D02*
X24712D01*
X22417Y390539D01*
X20359Y389351D01*
X18679Y387671D01*
X17491Y385613D01*
X16876Y383318D01*
Y380942D01*
X17491Y378647D01*
X18679Y376589D01*
X20359Y374909D01*
X22417Y373721D01*
X24712Y373106D01*
X27088D01*
X29383Y373721D01*
X31441Y374909D01*
X33121Y376589D01*
X34309Y378647D01*
X34924Y380942D01*
Y383318D01*
X34309Y385613D01*
X33121Y387671D01*
X31441Y389351D01*
X29383Y390539D01*
X27088Y391154D01*
D02*
G37*
G36*
Y365754D02*
X24712D01*
X22417Y365139D01*
X20359Y363951D01*
X18679Y362271D01*
X17491Y360213D01*
X16876Y357918D01*
Y355542D01*
X17491Y353247D01*
X18679Y351189D01*
X20359Y349509D01*
X22417Y348321D01*
X24712Y347706D01*
X27088D01*
X29383Y348321D01*
X31441Y349509D01*
X33121Y351189D01*
X34309Y353247D01*
X34924Y355542D01*
Y357918D01*
X34309Y360213D01*
X33121Y362271D01*
X31441Y363951D01*
X29383Y365139D01*
X27088Y365754D01*
D02*
G37*
G36*
Y340354D02*
X24712D01*
X22417Y339739D01*
X20359Y338551D01*
X18679Y336871D01*
X17491Y334813D01*
X16876Y332518D01*
Y330142D01*
X17491Y327847D01*
X18679Y325789D01*
X20359Y324109D01*
X22417Y322921D01*
X24712Y322306D01*
X27088D01*
X29383Y322921D01*
X31441Y324109D01*
X33121Y325789D01*
X34309Y327847D01*
X34924Y330142D01*
Y332518D01*
X34309Y334813D01*
X33121Y336871D01*
X31441Y338551D01*
X29383Y339739D01*
X27088Y340354D01*
D02*
G37*
G36*
X917746Y304190D02*
Y304122D01*
X867746D01*
X867746Y304190D01*
X866761Y304088D01*
X866663Y304047D01*
X866555Y304033D01*
X866439Y304056D01*
X865868Y303943D01*
X864704Y303790D01*
X861870Y302616D01*
X860938Y301901D01*
X860455Y301577D01*
X860389Y301479D01*
X860303Y301413D01*
X860205Y301372D01*
X860056Y301224D01*
X859436Y300748D01*
X858961Y300128D01*
X858812Y299979D01*
X858771Y299881D01*
X858705Y299795D01*
X858607Y299729D01*
X858284Y299246D01*
X857569Y298314D01*
X856395Y295480D01*
X856242Y294316D01*
X856128Y293745D01*
X856151Y293629D01*
X856137Y293521D01*
X856096Y293423D01*
X855994Y292438D01*
X856062D01*
Y200438D01*
X855994Y200438D01*
X856096Y199453D01*
X856137Y199356D01*
X856151Y199248D01*
X856128Y199132D01*
X856242Y198561D01*
X856395Y197397D01*
X857569Y194563D01*
X858283Y193631D01*
X858607Y193147D01*
X858705Y193081D01*
X858771Y192995D01*
X858812Y192897D01*
X858961Y192748D01*
X859436Y192129D01*
X860056Y191653D01*
X860205Y191504D01*
X860303Y191464D01*
X860389Y191398D01*
X860455Y191299D01*
X860939Y190976D01*
X861870Y190261D01*
X864704Y189087D01*
X865868Y188934D01*
X866439Y188820D01*
X866555Y188844D01*
X866663Y188829D01*
X866761Y188789D01*
X867746Y188687D01*
Y188755D01*
X917746D01*
X917746Y188687D01*
X918731Y188789D01*
X918829Y188829D01*
X918936Y188844D01*
X919052Y188820D01*
X919623Y188934D01*
X920787Y189087D01*
X923622Y190261D01*
X924553Y190976D01*
X925037Y191299D01*
X925102Y191398D01*
X925189Y191464D01*
X925287Y191504D01*
X925436Y191653D01*
X926055Y192129D01*
X926531Y192749D01*
X926680Y192897D01*
X926720Y192995D01*
X926786Y193081D01*
X926885Y193147D01*
X927208Y193631D01*
X927923Y194563D01*
X929097Y197397D01*
X929250Y198561D01*
X929364Y199132D01*
X929341Y199248D01*
X929355Y199356D01*
X929395Y199454D01*
X929497Y200438D01*
X929429Y201708D01*
X929429Y292438D01*
X929497Y292438D01*
X929395Y293423D01*
X929355Y293521D01*
X929341Y293629D01*
X929364Y293745D01*
X929250Y294316D01*
X929097Y295480D01*
X927923Y298314D01*
X927208Y299246D01*
X926885Y299729D01*
X926786Y299795D01*
X926720Y299881D01*
X926680Y299979D01*
X926531Y300128D01*
X926055Y300748D01*
X925435Y301224D01*
X925287Y301372D01*
X925189Y301413D01*
X925102Y301479D01*
X925037Y301577D01*
X924553Y301900D01*
X923622Y302616D01*
X920787Y303790D01*
X919623Y303943D01*
X919053Y304056D01*
X918936Y304033D01*
X918829Y304047D01*
X918731Y304088D01*
X917746Y304190D01*
D02*
G37*
G36*
X27088Y314954D02*
X24712D01*
X22417Y314339D01*
X20359Y313151D01*
X18679Y311471D01*
X17491Y309413D01*
X16876Y307118D01*
Y304742D01*
X17491Y302447D01*
X18679Y300389D01*
X20359Y298709D01*
X22417Y297521D01*
X24712Y296906D01*
X27088D01*
X29383Y297521D01*
X31441Y298709D01*
X33121Y300389D01*
X34309Y302447D01*
X34924Y304742D01*
Y307118D01*
X34309Y309413D01*
X33121Y311471D01*
X31441Y313151D01*
X29383Y314339D01*
X27088Y314954D01*
D02*
G37*
G36*
X794591Y267123D02*
X792890D01*
X791320Y266472D01*
X790117Y265270D01*
X789467Y263699D01*
Y261999D01*
X790117Y260428D01*
X791320Y259226D01*
X792890Y258575D01*
X794591D01*
X796162Y259226D01*
X797364Y260428D01*
X798015Y261999D01*
Y263699D01*
X797364Y265270D01*
X796162Y266472D01*
X794591Y267123D01*
D02*
G37*
G36*
X655591D02*
X653891D01*
X652320Y266472D01*
X651117Y265270D01*
X650467Y263699D01*
Y261999D01*
X651117Y260428D01*
X652320Y259226D01*
X653891Y258575D01*
X655591D01*
X657162Y259226D01*
X658364Y260428D01*
X659015Y261999D01*
Y263699D01*
X658364Y265270D01*
X657162Y266472D01*
X655591Y267123D01*
D02*
G37*
G36*
X440591D02*
X438890D01*
X437320Y266472D01*
X436117Y265270D01*
X435467Y263699D01*
Y261999D01*
X436117Y260428D01*
X437320Y259226D01*
X438890Y258575D01*
X440591D01*
X442162Y259226D01*
X443364Y260428D01*
X444015Y261999D01*
Y263699D01*
X443364Y265270D01*
X442162Y266472D01*
X440591Y267123D01*
D02*
G37*
G36*
X726410Y255456D02*
Y252862D01*
X729003D01*
X728715Y253559D01*
X727107Y255167D01*
X726410Y255456D01*
D02*
G37*
G36*
X721329D02*
X720632Y255167D01*
X719025Y253559D01*
X718736Y252862D01*
X721329D01*
Y255456D01*
D02*
G37*
G36*
X770280Y254811D02*
Y252217D01*
X772874D01*
X772585Y252914D01*
X770978Y254522D01*
X770280Y254811D01*
D02*
G37*
G36*
X765200D02*
X764503Y254522D01*
X762896Y252914D01*
X762607Y252217D01*
X765200D01*
Y254811D01*
D02*
G37*
G36*
X681248D02*
Y252217D01*
X683842D01*
X683553Y252914D01*
X681946Y254522D01*
X681248Y254811D01*
D02*
G37*
G36*
X676168D02*
X675471Y254522D01*
X673863Y252914D01*
X673575Y252217D01*
X676168D01*
Y254811D01*
D02*
G37*
G36*
X729003Y247782D02*
X726410D01*
Y245188D01*
X727107Y245477D01*
X728715Y247085D01*
X729003Y247782D01*
D02*
G37*
G36*
X721329D02*
X718736D01*
X719025Y247085D01*
X720632Y245477D01*
X721329Y245188D01*
Y247782D01*
D02*
G37*
G36*
X772874Y247137D02*
X770280D01*
Y244543D01*
X770978Y244832D01*
X772585Y246440D01*
X772874Y247137D01*
D02*
G37*
G36*
X765200D02*
X762607D01*
X762896Y246440D01*
X764503Y244832D01*
X765200Y244543D01*
Y247137D01*
D02*
G37*
G36*
X683842D02*
X681248D01*
Y244543D01*
X681946Y244832D01*
X683553Y246440D01*
X683842Y247137D01*
D02*
G37*
G36*
X676168D02*
X673575D01*
X673863Y246440D01*
X675471Y244832D01*
X676168Y244543D01*
Y247137D01*
D02*
G37*
G36*
X58236Y253425D02*
X56062D01*
X53963Y252862D01*
X52081Y251776D01*
X50544Y250239D01*
X49457Y248356D01*
X48894Y246257D01*
Y244083D01*
X49457Y241984D01*
X50544Y240101D01*
X52081Y238564D01*
X53963Y237477D01*
X56062Y236915D01*
X58236D01*
X60336Y237477D01*
X62218Y238564D01*
X63755Y240101D01*
X64842Y241984D01*
X65404Y244083D01*
Y246257D01*
X64842Y248356D01*
X63755Y250239D01*
X62218Y251776D01*
X60336Y252862D01*
X58236Y253425D01*
D02*
G37*
G36*
X109036Y253425D02*
X106862D01*
X104763Y252862D01*
X102881Y251775D01*
X101344Y250238D01*
X100257Y248356D01*
X99694Y246257D01*
Y244083D01*
X100257Y241984D01*
X101344Y240101D01*
X102881Y238564D01*
X104763Y237477D01*
X106862Y236915D01*
X109036D01*
X111136Y237477D01*
X113018Y238564D01*
X114555Y240101D01*
X115642Y241984D01*
X116204Y244083D01*
Y246257D01*
X115642Y248356D01*
X114555Y250238D01*
X113018Y251775D01*
X111136Y252862D01*
X109036Y253425D01*
D02*
G37*
G36*
X83636Y228025D02*
X81462D01*
X79363Y227462D01*
X77481Y226376D01*
X75944Y224839D01*
X74857Y222956D01*
X74294Y220857D01*
Y218683D01*
X74857Y216584D01*
X75944Y214701D01*
X77481Y213164D01*
X79363Y212078D01*
X81462Y211515D01*
X83636D01*
X85736Y212078D01*
X87618Y213164D01*
X89155Y214701D01*
X90242Y216584D01*
X90804Y218683D01*
Y220857D01*
X90242Y222956D01*
X89155Y224839D01*
X87618Y226376D01*
X85736Y227462D01*
X83636Y228025D01*
D02*
G37*
G36*
X665551Y196906D02*
X663478D01*
X661476Y196369D01*
X659680Y195333D01*
X658214Y193867D01*
X657177Y192071D01*
X656641Y190068D01*
Y187995D01*
X657177Y185993D01*
X658214Y184197D01*
X659680Y182731D01*
X661476Y181695D01*
X663478Y181158D01*
X665551D01*
X667554Y181695D01*
X669350Y182731D01*
X670816Y184197D01*
X671852Y185993D01*
X672389Y187995D01*
Y190068D01*
X671852Y192071D01*
X670816Y193867D01*
X669350Y195333D01*
X667554Y196369D01*
X665551Y196906D01*
D02*
G37*
G36*
X450068Y195616D02*
X447995D01*
X445992Y195079D01*
X444197Y194042D01*
X442731Y192576D01*
X441694Y190781D01*
X441157Y188778D01*
Y186705D01*
X441694Y184702D01*
X442731Y182907D01*
X444197Y181441D01*
X445992Y180404D01*
X447995Y179868D01*
X450068D01*
X452071Y180404D01*
X453866Y181441D01*
X455332Y182907D01*
X456369Y184702D01*
X456905Y186705D01*
Y188778D01*
X456369Y190781D01*
X455332Y192576D01*
X453866Y194042D01*
X452071Y195079D01*
X450068Y195616D01*
D02*
G37*
G36*
X27088Y187954D02*
X24712D01*
X22417Y187339D01*
X20359Y186151D01*
X18679Y184471D01*
X17491Y182413D01*
X16876Y180118D01*
Y177742D01*
X17491Y175447D01*
X18679Y173389D01*
X20359Y171709D01*
X22417Y170521D01*
X24712Y169906D01*
X27088D01*
X29383Y170521D01*
X31441Y171709D01*
X33121Y173389D01*
X34309Y175447D01*
X34924Y177742D01*
Y180118D01*
X34309Y182413D01*
X33121Y184471D01*
X31441Y186151D01*
X29383Y187339D01*
X27088Y187954D01*
D02*
G37*
G36*
X35940Y163570D02*
X28440D01*
Y156070D01*
X35940D01*
Y163570D01*
D02*
G37*
G36*
X23360D02*
X15860D01*
Y156070D01*
X23360D01*
Y163570D01*
D02*
G37*
G36*
X943774Y162554D02*
X941398D01*
X939103Y161939D01*
X937045Y160751D01*
X935365Y159071D01*
X934177Y157013D01*
X933562Y154718D01*
Y152342D01*
X934177Y150047D01*
X935365Y147989D01*
X937045Y146309D01*
X939103Y145121D01*
X941398Y144506D01*
X943774D01*
X946069Y145121D01*
X948127Y146309D01*
X949807Y147989D01*
X950995Y150047D01*
X951610Y152342D01*
Y154718D01*
X950995Y157013D01*
X949807Y159071D01*
X948127Y160751D01*
X946069Y161939D01*
X943774Y162554D01*
D02*
G37*
G36*
X35940Y150990D02*
X28440D01*
Y143490D01*
X35940D01*
Y150990D01*
D02*
G37*
G36*
X23360D02*
X15860D01*
Y143490D01*
X23360D01*
Y150990D01*
D02*
G37*
G36*
X861893Y140419D02*
Y134798D01*
X867514D01*
X867311Y135554D01*
X866187Y137501D01*
X864597Y139092D01*
X862649Y140216D01*
X861893Y140419D01*
D02*
G37*
G36*
X856813Y140418D02*
X856057Y140216D01*
X854109Y139092D01*
X852519Y137501D01*
X851395Y135554D01*
X851192Y134798D01*
X856813D01*
Y140418D01*
D02*
G37*
G36*
X886877Y139782D02*
X871829D01*
Y124734D01*
X886877D01*
Y139782D01*
D02*
G37*
G36*
X867514Y129718D02*
X861893D01*
Y124097D01*
X862649Y124300D01*
X864597Y125424D01*
X866187Y127014D01*
X867311Y128961D01*
X867514Y129718D01*
D02*
G37*
G36*
X856813D02*
X851192D01*
X851395Y128961D01*
X852519Y127014D01*
X854109Y125424D01*
X856057Y124300D01*
X856813Y124097D01*
Y129718D01*
D02*
G37*
G36*
X117524Y138475D02*
X102476D01*
Y123427D01*
X117524D01*
Y138475D01*
D02*
G37*
G36*
X90990D02*
X89009D01*
X87096Y137963D01*
X85380Y136972D01*
X83979Y135571D01*
X82989Y133856D01*
X82476Y131942D01*
Y129961D01*
X82989Y128047D01*
X83979Y126332D01*
X85380Y124931D01*
X87096Y123940D01*
X89009Y123427D01*
X90990D01*
X92904Y123940D01*
X94620Y124931D01*
X96020Y126332D01*
X97011Y128047D01*
X97524Y129961D01*
Y131942D01*
X97011Y133856D01*
X96020Y135571D01*
X94620Y136972D01*
X92904Y137963D01*
X90990Y138475D01*
D02*
G37*
G36*
X438149Y93545D02*
Y88960D01*
X442734D01*
X442635Y89330D01*
X441642Y91049D01*
X440239Y92453D01*
X438519Y93446D01*
X438149Y93545D01*
D02*
G37*
G36*
X689609Y93545D02*
Y86419D01*
Y79294D01*
X689979Y79393D01*
X691699Y80386D01*
X693102Y81790D01*
X693355Y82228D01*
X694790Y82172D01*
X695763Y81199D01*
X697251Y80340D01*
X698910Y79895D01*
X700628D01*
X702287Y80340D01*
X703775Y81199D01*
X704989Y82413D01*
X705386Y83100D01*
X706852D01*
X707249Y82413D01*
X708463Y81199D01*
X709951Y80340D01*
X711610Y79895D01*
X713328D01*
X714987Y80340D01*
X716475Y81199D01*
X717690Y82413D01*
X718086Y83100D01*
X719552D01*
X719949Y82413D01*
X721163Y81199D01*
X722651Y80340D01*
X724310Y79895D01*
X726028D01*
X727687Y80340D01*
X729175Y81199D01*
X730389Y82413D01*
X730786Y83100D01*
X732252D01*
X732648Y82413D01*
X733863Y81199D01*
X735351Y80340D01*
X737010Y79895D01*
X738728D01*
X740387Y80340D01*
X741875Y81199D01*
X743090Y82413D01*
X743948Y83901D01*
X744393Y85560D01*
Y87278D01*
X743948Y88937D01*
X743090Y90425D01*
X741875Y91640D01*
X740387Y92499D01*
X738728Y92943D01*
X737010D01*
X735351Y92499D01*
X733863Y91640D01*
X732648Y90425D01*
X732252Y89739D01*
X730786D01*
X730389Y90425D01*
X729175Y91640D01*
X727687Y92499D01*
X726028Y92943D01*
X724310D01*
X722651Y92499D01*
X721163Y91640D01*
X719949Y90425D01*
X719552Y89739D01*
X718086D01*
X717690Y90425D01*
X716475Y91640D01*
X714987Y92499D01*
X713328Y92943D01*
X711610D01*
X709951Y92499D01*
X708463Y91640D01*
X707249Y90425D01*
X706852Y89739D01*
X705386D01*
X704989Y90425D01*
X703775Y91640D01*
X702287Y92499D01*
X700628Y92943D01*
X698910D01*
X697251Y92499D01*
X695763Y91640D01*
X694790Y90666D01*
X693355Y90611D01*
X693102Y91049D01*
X691699Y92453D01*
X689979Y93445D01*
X689609Y93545D01*
D02*
G37*
G36*
X442734Y83880D02*
X438149D01*
Y79294D01*
X438519Y79394D01*
X440239Y80386D01*
X441642Y81790D01*
X442635Y83509D01*
X442734Y83880D01*
D02*
G37*
G36*
X676909Y93545D02*
Y86419D01*
Y79294D01*
X677279Y79393D01*
X678999Y80386D01*
X679874Y81261D01*
X680719Y81645D01*
X681564Y81261D01*
X682439Y80386D01*
X684159Y79393D01*
X684529Y79294D01*
Y86419D01*
Y93545D01*
X684159Y93445D01*
X682439Y92453D01*
X681564Y91577D01*
X680719Y91193D01*
X679874Y91577D01*
X678999Y92453D01*
X677279Y93445D01*
X676909Y93545D01*
D02*
G37*
G36*
X664209D02*
Y86419D01*
Y79294D01*
X664579Y79393D01*
X666299Y80386D01*
X667174Y81261D01*
X668019Y81645D01*
X668864Y81261D01*
X669739Y80386D01*
X671459Y79393D01*
X671829Y79294D01*
Y86419D01*
Y93545D01*
X671459Y93445D01*
X669739Y92453D01*
X668864Y91577D01*
X668019Y91193D01*
X667174Y91577D01*
X666299Y92453D01*
X664579Y93445D01*
X664209Y93545D01*
D02*
G37*
%LPD*%
G36*
X497677Y669428D02*
X497591Y669299D01*
X325444D01*
X324681Y670569D01*
X324691Y670589D01*
X324868Y670698D01*
X496999D01*
X497677Y669428D01*
D02*
G37*
G36*
X200491Y524988D02*
X200375Y524407D01*
X200375Y524407D01*
Y521625D01*
X148953Y470203D01*
X148635Y469726D01*
X147365Y470112D01*
Y473658D01*
X199321Y525614D01*
X200491Y524988D01*
D02*
G37*
G36*
X327859Y662996D02*
X327981Y662331D01*
X142501Y476852D01*
X141884Y475928D01*
X141667Y474838D01*
X141667Y474838D01*
Y360368D01*
X36194Y254895D01*
X34924Y255421D01*
Y256318D01*
X34309Y258613D01*
X33981Y259182D01*
X138143Y363344D01*
X138143Y363344D01*
X138761Y364269D01*
X138977Y365359D01*
X138977Y365359D01*
Y477529D01*
X325050Y663602D01*
X327514D01*
X327859Y662996D01*
D02*
G37*
G36*
X669290Y561687D02*
X669204Y561557D01*
X523472D01*
X522793Y562827D01*
X522879Y562957D01*
X668611D01*
X669290Y561687D01*
D02*
G37*
G36*
X679432Y545717D02*
X678673Y544783D01*
X527940D01*
X527454Y545956D01*
X528325Y546828D01*
X678967D01*
X679432Y545717D01*
D02*
G37*
G36*
X686894Y525558D02*
X686207Y525273D01*
X685072Y524138D01*
X522525D01*
X521435Y523921D01*
X520511Y523304D01*
X520511Y523304D01*
X422731Y425524D01*
X421558Y426010D01*
Y428565D01*
X519820Y526828D01*
X686641D01*
X686894Y525558D01*
D02*
G37*
G36*
X415860Y426956D02*
Y416314D01*
X414590Y415732D01*
X413192Y416311D01*
X411323D01*
X409595Y415596D01*
X408274Y414274D01*
X407558Y412547D01*
Y410942D01*
X357395Y360778D01*
X356777Y359854D01*
X356560Y358764D01*
X356560Y358764D01*
Y92308D01*
X355403Y91640D01*
X354188Y90426D01*
X353792Y89739D01*
X352326D01*
X351930Y90426D01*
X350715Y91640D01*
X349227Y92499D01*
X347568Y92944D01*
X345850D01*
X344191Y92499D01*
X342703Y91640D01*
X341488Y90426D01*
X341092Y89739D01*
X339626D01*
X339230Y90426D01*
X338015Y91640D01*
X336858Y92308D01*
Y349613D01*
X414687Y427442D01*
X415860Y426956D01*
D02*
G37*
G36*
X430343Y423282D02*
Y403586D01*
X430343Y403585D01*
X430560Y402495D01*
X431177Y401571D01*
X446329Y386420D01*
X445843Y385247D01*
X439426D01*
X434376Y390297D01*
Y391902D01*
X433660Y393629D01*
X432338Y394951D01*
X430611Y395666D01*
X428742D01*
X427015Y394951D01*
X426892Y394827D01*
X425622Y395353D01*
Y420357D01*
X429073Y423809D01*
X430343Y423282D01*
D02*
G37*
G36*
X216304Y250833D02*
X216860Y250449D01*
Y92308D01*
X215703Y91640D01*
X214489Y90426D01*
X214092Y89739D01*
X212626D01*
X212229Y90426D01*
X211015Y91640D01*
X209858Y92308D01*
Y245243D01*
X215632Y251017D01*
X216304Y250833D01*
D02*
G37*
G36*
X204160Y243633D02*
Y92308D01*
X203003Y91640D01*
X201789Y90426D01*
X201392Y89739D01*
X199926D01*
X199529Y90426D01*
X198315Y91640D01*
X197158Y92308D01*
Y238290D01*
X202987Y244119D01*
X204160Y243633D01*
D02*
G37*
G36*
X415860Y406910D02*
Y401144D01*
X370095Y355379D01*
X369477Y354454D01*
X369260Y353364D01*
X369260Y353364D01*
Y92308D01*
X368103Y91640D01*
X366889Y90426D01*
X366492Y89739D01*
X365026D01*
X364630Y90426D01*
X363415Y91640D01*
X362258Y92308D01*
Y357584D01*
X411587Y406913D01*
X413192D01*
X414590Y407492D01*
X415860Y406910D01*
D02*
G37*
G36*
X331160Y348003D02*
Y92308D01*
X330003Y91640D01*
X328788Y90426D01*
X328392Y89739D01*
X326926D01*
X326530Y90426D01*
X325315Y91640D01*
X324158Y92308D01*
Y342660D01*
X329987Y348489D01*
X331160Y348003D01*
D02*
G37*
G36*
X317905Y343992D02*
X318460Y343608D01*
Y92308D01*
X317303Y91640D01*
X316089Y90426D01*
X315692Y89739D01*
X314226D01*
X313829Y90426D01*
X312615Y91640D01*
X311127Y92499D01*
X309468Y92944D01*
X307750D01*
X306091Y92499D01*
X304603Y91640D01*
X303389Y90426D01*
X302992Y89739D01*
X301526D01*
X301129Y90426D01*
X299915Y91640D01*
X298427Y92499D01*
X296768Y92944D01*
X295050D01*
X293391Y92499D01*
X291903Y91640D01*
X290688Y90426D01*
X290292Y89739D01*
X288826D01*
X288430Y90426D01*
X287215Y91640D01*
X285727Y92499D01*
X284068Y92944D01*
X282350D01*
X280691Y92499D01*
X279203Y91640D01*
X277988Y90426D01*
X277592Y89739D01*
X276126D01*
X275730Y90426D01*
X274515Y91640D01*
X273027Y92499D01*
X271368Y92944D01*
X269650D01*
X267991Y92499D01*
X266503Y91640D01*
X265289Y90426D01*
X264892Y89739D01*
X263426D01*
X263029Y90426D01*
X261815Y91640D01*
X260327Y92499D01*
X258668Y92944D01*
X256950D01*
X255291Y92499D01*
X253803Y91640D01*
X252589Y90426D01*
X252192Y89739D01*
X250726D01*
X250329Y90426D01*
X249115Y91640D01*
X247627Y92499D01*
X245968Y92944D01*
X244250D01*
X242591Y92499D01*
X241103Y91640D01*
X239888Y90426D01*
X239492Y89739D01*
X238026D01*
X237630Y90426D01*
X236415Y91640D01*
X234927Y92499D01*
X233268Y92944D01*
X231550D01*
X229891Y92499D01*
X228403Y91640D01*
X227188Y90426D01*
X226792Y89739D01*
X225326D01*
X224930Y90426D01*
X223715Y91640D01*
X222558Y92308D01*
Y249501D01*
X317232Y344176D01*
X317905Y343992D01*
D02*
G37*
G36*
X569920Y288630D02*
Y92308D01*
X568763Y91640D01*
X567548Y90425D01*
X567152Y89739D01*
X565686D01*
X565289Y90425D01*
X564075Y91640D01*
X562587Y92499D01*
X560928Y92943D01*
X559210D01*
X557551Y92499D01*
X556063Y91640D01*
X554849Y90425D01*
X554452Y89739D01*
X552986D01*
X552589Y90425D01*
X551375Y91640D01*
X550218Y92308D01*
Y166911D01*
X554434Y171127D01*
X554434Y171127D01*
X555051Y172051D01*
X555268Y173141D01*
X555268Y173142D01*
Y301486D01*
X556538Y302012D01*
X569920Y288630D01*
D02*
G37*
G36*
X549571Y301475D02*
Y256359D01*
X548991Y255971D01*
Y250322D01*
Y244673D01*
X549571Y244286D01*
Y174321D01*
X545355Y170105D01*
X544737Y169181D01*
X544520Y168091D01*
X544520Y168091D01*
Y92308D01*
X543363Y91640D01*
X542149Y90425D01*
X541752Y89739D01*
X540286D01*
X539889Y90425D01*
X538675Y91640D01*
X537518Y92308D01*
Y311869D01*
X538691Y312355D01*
X549571Y301475D01*
D02*
G37*
G36*
X531820Y313478D02*
Y92308D01*
X530663Y91640D01*
X529449Y90425D01*
X529052Y89739D01*
X527586D01*
X527189Y90425D01*
X525975Y91640D01*
X524818Y92308D01*
Y318821D01*
X525991Y319307D01*
X531820Y313478D01*
D02*
G37*
G36*
X427015Y386983D02*
X428742Y386268D01*
X430347D01*
X436231Y380384D01*
X436231Y380383D01*
X437155Y379766D01*
X438246Y379549D01*
X438246Y379549D01*
X460002D01*
X519120Y320431D01*
Y92308D01*
X517963Y91640D01*
X516749Y90425D01*
X516352Y89739D01*
X514886D01*
X514490Y90425D01*
X513275Y91640D01*
X511787Y92499D01*
X510128Y92943D01*
X508410D01*
X506751Y92499D01*
X505263Y91640D01*
X504049Y90425D01*
X503652Y89739D01*
X502186D01*
X501790Y90425D01*
X500575Y91640D01*
X499418Y92308D01*
Y307945D01*
X499418Y307945D01*
X499201Y309036D01*
X498583Y309960D01*
X425622Y382922D01*
Y386581D01*
X426892Y387107D01*
X427015Y386983D01*
D02*
G37*
%LPC*%
G36*
X543910Y255456D02*
X543213Y255167D01*
X541606Y253559D01*
X541317Y252862D01*
X543910D01*
Y255456D01*
D02*
G37*
G36*
Y247782D02*
X541317D01*
X541606Y247085D01*
X543213Y245477D01*
X543910Y245188D01*
Y247782D01*
D02*
G37*
G36*
X511571Y254811D02*
Y252217D01*
X514165D01*
X513876Y252914D01*
X512268Y254522D01*
X511571Y254811D01*
D02*
G37*
G36*
X506491D02*
X505794Y254522D01*
X504186Y252914D01*
X503898Y252217D01*
X506491D01*
Y254811D01*
D02*
G37*
G36*
X514165Y247137D02*
X511571D01*
Y244543D01*
X512268Y244832D01*
X513876Y246440D01*
X514165Y247137D01*
D02*
G37*
G36*
X506491D02*
X503898D01*
X504186Y246440D01*
X505794Y244832D01*
X506491Y244543D01*
Y247137D01*
D02*
G37*
%LPD*%
G36*
X299903Y542806D02*
X299999Y542574D01*
Y490972D01*
X299903Y490740D01*
X299671Y490644D01*
X275166D01*
X274934Y490740D01*
X274838Y490972D01*
Y542574D01*
X274934Y542806D01*
X275166Y542902D01*
X299671D01*
X299903Y542806D01*
D02*
G37*
D13*
X194309Y86420D02*
Y239470D01*
X520644Y565805D01*
X207009Y86420D02*
Y246423D01*
X519295Y558709D01*
X219709Y86420D02*
Y250681D01*
X492981Y523954D01*
X268387Y321935D02*
X385979Y439527D01*
X251612Y321935D02*
X268387D01*
X385979Y439527D02*
Y634019D01*
X385806Y634192D02*
X385979Y634019D01*
X457418Y420644D02*
X648969Y229094D01*
Y86419D02*
Y229094D01*
X453852Y420644D02*
X457418D01*
X522525Y521289D02*
X688868D01*
X527145Y549676D02*
X719999D01*
X321309Y343840D02*
X527145Y549676D01*
X519295Y558709D02*
X674192D01*
X447180Y420083D02*
X453291D01*
X446451Y419354D02*
X447180Y420083D01*
X453291D02*
X453852Y420644D01*
X520004Y511612D02*
X731611D01*
X433192Y424800D02*
X520004Y511612D01*
X437256Y423117D02*
X515429Y501289D01*
X694837D01*
X433192Y403585D02*
Y424800D01*
X437256Y405269D02*
Y423117D01*
X454838Y407741D02*
X572769Y289810D01*
X445806Y407741D02*
X454838D01*
X496569Y86419D02*
Y307945D01*
X422773Y381742D02*
Y421537D01*
Y381742D02*
X496569Y307945D01*
X429677Y390967D02*
X438246Y382398D01*
X461182D01*
X521969Y86419D02*
Y321611D01*
X461182Y382398D02*
X521969Y321611D01*
X462865Y386462D02*
X534669Y314658D01*
X451999Y390526D02*
X464549D01*
X552420Y173141D02*
Y302655D01*
X464549Y390526D02*
X552420Y302655D01*
X437256Y405269D02*
X451999Y390526D01*
X450315Y386462D02*
X462865D01*
X433192Y403585D02*
X450315Y386462D01*
X547369Y86419D02*
Y168091D01*
X534669Y86419D02*
Y314658D01*
X547369Y168091D02*
X552420Y173141D01*
X422773Y421537D02*
X522525Y521289D01*
X321309Y86420D02*
Y343840D01*
X334009Y350793D02*
X525151Y541934D01*
X418709Y429745D02*
X518640Y529676D01*
X418709Y399964D02*
Y429745D01*
X334009Y86420D02*
Y350793D01*
X520644Y565805D02*
X714192D01*
X372109Y353364D02*
X418709Y399964D01*
X359409Y358764D02*
X412257Y411612D01*
X572769Y86419D02*
Y289810D01*
X372109Y86420D02*
Y353364D01*
X518640Y529676D02*
X725805D01*
X525151Y541934D02*
X682579D01*
X359409Y86420D02*
Y358764D01*
X725805Y529676D02*
X726450Y530322D01*
X406956Y654192D02*
X408247Y652902D01*
X333009Y654192D02*
X406956D01*
X408247Y652902D02*
X483225D01*
X330159Y660481D02*
X493710D01*
X494193Y659999D01*
X144516Y474838D02*
X330159Y660481D01*
X323870Y666450D02*
X502580D01*
X136129Y478709D02*
X323870Y666450D01*
X25900Y204330D02*
X26121Y204109D01*
X35722D01*
X150967Y319354D01*
Y468189D01*
X203224Y524407D02*
X333009Y654192D01*
X203224Y520445D02*
Y524407D01*
X150967Y468189D02*
X203224Y520445D01*
X322580Y673547D02*
X509676D01*
X130322Y481289D02*
X322580Y673547D01*
X130322Y384952D02*
Y481289D01*
X136129Y365359D02*
Y478709D01*
X144516Y359188D02*
Y474838D01*
X26368Y241040D02*
X144516Y359188D01*
X26368Y230198D02*
Y241040D01*
X25900Y229730D02*
X26368Y230198D01*
X25900Y255130D02*
X136129Y365359D01*
X25900Y280530D02*
X130322Y384952D01*
X264032Y418709D02*
Y440410D01*
X214354Y444515D02*
X259927D01*
X264032Y440410D01*
D14*
X857746Y200438D02*
G03*
X867746Y190438I10000J0D01*
G01*
X917746Y190438D02*
G03*
X927746Y200438I0J10000D01*
G01*
X927746Y292438D02*
G03*
X917746Y302438I-10000J0D01*
G01*
X867746D02*
G03*
X857746Y292438I0J-10000D01*
G01*
X943030Y100544D02*
G03*
X934243Y79331I21213J-21213D01*
G01*
X34243D02*
G03*
X25456Y100544I-30000J0D01*
G01*
X867746Y190438D02*
X917746D01*
X927746Y200438D02*
X927746Y292438D01*
X867746Y302438D02*
X917746D01*
X857746Y200438D02*
Y292438D01*
X34243Y79331D02*
X34243Y55500D01*
X934243D01*
X934243Y79331D01*
X943030Y100544D02*
X967986Y125500D01*
Y675500D01*
X897986Y745500D02*
X967986Y675500D01*
X70500Y745500D02*
X897986D01*
X500Y675500D02*
X70500Y745500D01*
X500Y125500D02*
Y675500D01*
Y125500D02*
X25456Y100544D01*
X857746Y200438D02*
G03*
X867746Y190438I10000J0D01*
G01*
X917746Y190438D02*
G03*
X927746Y200438I0J10000D01*
G01*
X927746Y292438D02*
G03*
X917746Y302438I-10000J0D01*
G01*
X867746D02*
G03*
X857746Y292438I0J-10000D01*
G01*
X943030Y100544D02*
G03*
X934243Y79331I21213J-21213D01*
G01*
X34243D02*
G03*
X25456Y100544I-30000J0D01*
G01*
X867746Y190438D02*
X917746D01*
X927746Y200438D02*
X927746Y292438D01*
X867746Y302438D02*
X917746D01*
X857746Y200438D02*
Y292438D01*
X34243Y79331D02*
X34243Y55500D01*
X934243D01*
X934243Y79331D01*
X943030Y100544D02*
X967986Y125500D01*
Y675500D01*
X897986Y745500D02*
X967986Y675500D01*
X70500Y745500D02*
X897986D01*
X500Y675500D02*
X70500Y745500D01*
X500Y125500D02*
Y675500D01*
Y125500D02*
X25456Y100544D01*
D15*
X348749Y717418D02*
D03*
X331249D02*
D03*
X348749Y696773D02*
D03*
X331249D02*
D03*
D22*
X210210Y700960D02*
D03*
X218710D02*
D03*
X227210D02*
D03*
X235710D02*
D03*
X244210D02*
D03*
X252710D02*
D03*
X261210D02*
D03*
X269710D02*
D03*
Y687460D02*
D03*
X261210D02*
D03*
X252710D02*
D03*
X244210D02*
D03*
X235710D02*
D03*
X227210D02*
D03*
X218710D02*
D03*
X210210D02*
D03*
D23*
X283210Y697260D02*
D03*
X196710D02*
D03*
D24*
X283210Y731060D02*
D03*
X196710D02*
D03*
D29*
X181935Y563225D02*
Y634192D01*
X218710Y670967D01*
X226451Y717418D02*
X252903D01*
X218982Y709949D02*
X226451Y717418D01*
X252903D02*
X260938Y709382D01*
D30*
X218710Y670967D02*
Y687460D01*
Y700960D01*
X261210Y687460D02*
Y700960D01*
X260938Y701232D02*
Y709382D01*
Y701232D02*
X261210Y700960D01*
X218710D02*
X218982Y701232D01*
Y709949D01*
D31*
X236371Y695706D02*
X244210Y687867D01*
X235710Y700960D02*
X236371Y700300D01*
X244210Y687460D02*
Y687867D01*
X236371Y695706D02*
Y700300D01*
X316128Y717418D02*
X331249D01*
X326023Y691547D02*
X327023D01*
X308024Y673547D02*
X326023Y691547D01*
X232903Y673547D02*
X308024D01*
X331249Y695773D02*
Y696773D01*
X327023Y691547D02*
X331249Y695773D01*
X227210Y679240D02*
Y687460D01*
Y679240D02*
X232903Y673547D01*
D32*
X100500Y705500D02*
D03*
X867986D02*
D03*
D33*
X57149Y245170D02*
D03*
X82549Y219770D02*
D03*
X107949Y245170D02*
D03*
X58420Y567750D02*
D03*
X83820Y542350D02*
D03*
X109220Y567750D02*
D03*
X57150Y407730D02*
D03*
X82549Y382330D02*
D03*
X107950Y407730D02*
D03*
D34*
X435609Y86420D02*
D03*
X422909D02*
D03*
X410209D02*
D03*
X397509D02*
D03*
X384809D02*
D03*
X372109D02*
D03*
X359409D02*
D03*
X346709D02*
D03*
X334009D02*
D03*
X321309D02*
D03*
X308609D02*
D03*
X295909D02*
D03*
X283209D02*
D03*
X270509D02*
D03*
X257809D02*
D03*
X245109D02*
D03*
X232409D02*
D03*
X219709D02*
D03*
X207009D02*
D03*
X194309D02*
D03*
X737869Y86419D02*
D03*
X725169D02*
D03*
X712469D02*
D03*
X699769D02*
D03*
X687069D02*
D03*
X674369D02*
D03*
X661669D02*
D03*
X648969D02*
D03*
X636269D02*
D03*
X623569D02*
D03*
X610869D02*
D03*
X598169D02*
D03*
X585469D02*
D03*
X572769D02*
D03*
X560069D02*
D03*
X547369D02*
D03*
X534669D02*
D03*
X521969D02*
D03*
X509269D02*
D03*
X496569D02*
D03*
D35*
X90000Y130951D02*
D03*
X859353Y132258D02*
D03*
D36*
X110000Y130951D02*
D03*
X879353Y132258D02*
D03*
D37*
X25900Y636130D02*
D03*
Y610730D02*
D03*
Y585330D02*
D03*
Y559930D02*
D03*
Y534530D02*
D03*
Y509130D02*
D03*
Y483730D02*
D03*
Y458330D02*
D03*
Y432930D02*
D03*
Y407530D02*
D03*
Y382130D02*
D03*
Y356730D02*
D03*
Y331330D02*
D03*
Y305930D02*
D03*
Y280530D02*
D03*
Y255130D02*
D03*
Y229730D02*
D03*
Y204330D02*
D03*
Y178930D02*
D03*
X225806Y632902D02*
D03*
D38*
X25900Y153530D02*
D03*
D39*
X942586D02*
D03*
Y636130D02*
D03*
D40*
X251206Y632902D02*
D03*
D41*
X398709Y563225D02*
D03*
X315483Y501935D02*
D03*
Y530967D02*
D03*
X286451Y514193D02*
D03*
X449031Y187742D02*
D03*
X664515Y189032D02*
D03*
X649031Y662579D02*
D03*
X181935Y563225D02*
D03*
D42*
X201451Y423225D02*
D03*
X242741Y380644D02*
D03*
X214193Y431612D02*
D03*
X210322Y478709D02*
D03*
X143225Y345806D02*
D03*
X164516Y365161D02*
D03*
X169032Y261290D02*
D03*
X424515Y610321D02*
D03*
X507741Y610966D02*
D03*
X509031Y249677D02*
D03*
X767740D02*
D03*
X251612Y321935D02*
D03*
X385806Y634192D02*
D03*
X197291Y341000D02*
D03*
X678708Y249677D02*
D03*
X688868Y521289D02*
D03*
X719999Y549676D02*
D03*
X674192Y558709D02*
D03*
X446451Y419354D02*
D03*
X445806Y407741D02*
D03*
X429677Y390967D02*
D03*
X694837Y501289D02*
D03*
X412257Y411612D02*
D03*
X546451Y250322D02*
D03*
X731611Y511612D02*
D03*
X723869Y250322D02*
D03*
X492981Y523954D02*
D03*
X726450Y530322D02*
D03*
X226827Y280430D02*
D03*
X682579Y541934D02*
D03*
X714192Y565805D02*
D03*
X483225Y652902D02*
D03*
X494193Y659999D02*
D03*
X502580Y666450D02*
D03*
X509676Y673547D02*
D03*
X467741Y610321D02*
D03*
X225322Y326451D02*
D03*
X177419Y283225D02*
D03*
X209677Y510967D02*
D03*
X210483Y461935D02*
D03*
Y494838D02*
D03*
X214354Y444515D02*
D03*
X240161Y426451D02*
D03*
X264032Y418709D02*
D03*
X280806Y421935D02*
D03*
X724515Y610321D02*
D03*
X768386D02*
D03*
X541289Y650321D02*
D03*
X679353Y610321D02*
D03*
X316128Y717418D02*
D03*
M02*
