G04*
G04 #@! TF.GenerationSoftware,Altium Limited,Altium Designer,24.1.2 (44)*
G04*
G04 Layer_Color=32896*
%FSLAX44Y44*%
%MOMM*%
G71*
G04*
G04 #@! TF.SameCoordinates,8F2A281D-5683-44EC-B143-A45D5901FF86*
G04*
G04*
G04 #@! TF.FilePolarity,Positive*
G04*
G01*
G75*
%ADD11C,0.2000*%
G36*
X523080Y480736D02*
X572864D01*
Y524424D01*
X523080D01*
Y480736D01*
D02*
G37*
G36*
X393350Y1530891D02*
X392844D01*
X392754Y1531051D01*
X392650Y1531203D01*
X392532Y1531349D01*
X392414Y1531474D01*
X392310Y1531592D01*
X392261Y1531633D01*
X392227Y1531675D01*
X392192Y1531710D01*
X392164Y1531730D01*
X392150Y1531744D01*
X392143Y1531751D01*
X391956Y1531911D01*
X391755Y1532049D01*
X391561Y1532181D01*
X391381Y1532292D01*
X391304Y1532334D01*
X391228Y1532375D01*
X391159Y1532417D01*
X391103Y1532445D01*
X391055Y1532465D01*
X391020Y1532486D01*
X390999Y1532493D01*
X390992Y1532500D01*
Y1533256D01*
X391131Y1533200D01*
X391277Y1533138D01*
X391415Y1533069D01*
X391540Y1533006D01*
X391651Y1532944D01*
X391700Y1532923D01*
X391741Y1532895D01*
X391776Y1532881D01*
X391797Y1532868D01*
X391810Y1532854D01*
X391818D01*
X391984Y1532750D01*
X392130Y1532653D01*
X392261Y1532563D01*
X392365Y1532479D01*
X392455Y1532410D01*
X392518Y1532361D01*
X392552Y1532327D01*
X392566Y1532313D01*
Y1537312D01*
X393350D01*
Y1530891D01*
D02*
G37*
G36*
X387733Y1537410D02*
X387920Y1537382D01*
X388087Y1537347D01*
X388232Y1537298D01*
X388295Y1537278D01*
X388350Y1537257D01*
X388399Y1537243D01*
X388434Y1537222D01*
X388468Y1537208D01*
X388489Y1537195D01*
X388503Y1537188D01*
X388510D01*
X388656Y1537090D01*
X388787Y1536987D01*
X388891Y1536875D01*
X388974Y1536772D01*
X389044Y1536674D01*
X389092Y1536591D01*
X389106Y1536564D01*
X389120Y1536543D01*
X389127Y1536529D01*
Y1536522D01*
X389162Y1536432D01*
X389196Y1536342D01*
X389245Y1536140D01*
X389280Y1535932D01*
X389300Y1535731D01*
X389314Y1535641D01*
X389321Y1535551D01*
Y1535475D01*
X389328Y1535405D01*
Y1535350D01*
Y1535308D01*
Y1535281D01*
Y1535274D01*
Y1530912D01*
X388482D01*
Y1535322D01*
Y1535419D01*
X388475Y1535516D01*
X388468Y1535676D01*
X388454Y1535815D01*
X388441Y1535926D01*
X388420Y1536009D01*
X388406Y1536071D01*
X388399Y1536106D01*
X388392Y1536120D01*
X388350Y1536210D01*
X388302Y1536286D01*
X388246Y1536355D01*
X388198Y1536411D01*
X388142Y1536453D01*
X388108Y1536487D01*
X388080Y1536508D01*
X388066Y1536515D01*
X387976Y1536564D01*
X387886Y1536598D01*
X387796Y1536626D01*
X387705Y1536640D01*
X387629Y1536654D01*
X387574Y1536661D01*
X387518D01*
X387366Y1536647D01*
X387234Y1536619D01*
X387116Y1536577D01*
X387019Y1536529D01*
X386943Y1536480D01*
X386887Y1536439D01*
X386853Y1536411D01*
X386839Y1536397D01*
X386797Y1536342D01*
X386755Y1536279D01*
X386721Y1536203D01*
X386693Y1536127D01*
X386645Y1535960D01*
X386610Y1535794D01*
X386589Y1535641D01*
X386582Y1535572D01*
X386575Y1535509D01*
Y1535461D01*
X386568Y1535426D01*
Y1535399D01*
Y1535392D01*
X385806Y1535503D01*
Y1535676D01*
X385819Y1535835D01*
X385840Y1535988D01*
X385861Y1536127D01*
X385896Y1536258D01*
X385930Y1536376D01*
X385972Y1536480D01*
X386007Y1536577D01*
X386048Y1536661D01*
X386090Y1536737D01*
X386124Y1536799D01*
X386159Y1536848D01*
X386187Y1536889D01*
X386208Y1536917D01*
X386222Y1536931D01*
X386228Y1536938D01*
X386319Y1537021D01*
X386416Y1537097D01*
X386513Y1537160D01*
X386624Y1537215D01*
X386728Y1537264D01*
X386839Y1537298D01*
X386943Y1537333D01*
X387047Y1537354D01*
X387144Y1537375D01*
X387234Y1537389D01*
X387317Y1537402D01*
X387387Y1537410D01*
X387442Y1537416D01*
X387525D01*
X387733Y1537410D01*
D02*
G37*
G36*
X587163Y556804D02*
X586657D01*
X586567Y556963D01*
X586463Y557116D01*
X586345Y557261D01*
X586227Y557386D01*
X586123Y557504D01*
X586075Y557546D01*
X586040Y557587D01*
X586005Y557622D01*
X585978Y557643D01*
X585964Y557657D01*
X585957Y557663D01*
X585770Y557823D01*
X585568Y557962D01*
X585374Y558093D01*
X585194Y558204D01*
X585118Y558246D01*
X585041Y558288D01*
X584972Y558329D01*
X584917Y558357D01*
X584868Y558378D01*
X584833Y558399D01*
X584813Y558405D01*
X584806Y558412D01*
Y559168D01*
X584944Y559113D01*
X585090Y559050D01*
X585229Y558981D01*
X585353Y558919D01*
X585464Y558856D01*
X585513Y558835D01*
X585555Y558808D01*
X585589Y558794D01*
X585610Y558780D01*
X585624Y558766D01*
X585631D01*
X585797Y558662D01*
X585943Y558565D01*
X586075Y558475D01*
X586179Y558392D01*
X586269Y558322D01*
X586331Y558274D01*
X586366Y558239D01*
X586380Y558225D01*
Y563225D01*
X587163D01*
Y556804D01*
D02*
G37*
G36*
X583516Y562469D02*
X580361D01*
Y556824D01*
X579515D01*
Y563225D01*
X583516D01*
Y562469D01*
D02*
G37*
D11*
X337056Y1489066D02*
Y1585766D01*
X434556D01*
Y1489066D02*
Y1585766D01*
X337056Y1489066D02*
X434556D01*
X557015Y540725D02*
X602015D01*
Y585725D01*
X557015D02*
X602015D01*
X557015Y540725D02*
Y585725D01*
M02*
