G04*
G04 #@! TF.GenerationSoftware,Altium Limited,Altium Designer,22.7.1 (60)*
G04*
G04 Layer_Color=128*
%FSLAX44Y44*%
%MOMM*%
G71*
G04*
G04 #@! TF.SameCoordinates,F0A3B908-A9A0-482C-9906-E7527CCB9396*
G04*
G04*
G04 #@! TF.FilePolarity,Positive*
G04*
G01*
G75*
%ADD14C,0.0254*%
%ADD45R,0.9000X1.0000*%
%ADD46R,0.2500X2.0000*%
%ADD47R,1.3500X1.1500*%
%ADD48R,1.0000X0.9000*%
%ADD49R,0.9525X0.6096*%
%ADD50R,0.8500X0.9500*%
%ADD51R,0.9500X0.8500*%
%ADD52R,0.6500X1.0500*%
%ADD53R,2.0300X3.8000*%
%ADD54R,1.0000X0.6000*%
%ADD55R,3.8000X2.0300*%
%ADD56R,0.9800X3.4000*%
D14*
X857746Y200438D02*
G03*
X867746Y190438I10000J0D01*
G01*
X917746Y190438D02*
G03*
X927746Y200438I0J10000D01*
G01*
X927746Y292438D02*
G03*
X917746Y302438I-10000J0D01*
G01*
X867746D02*
G03*
X857746Y292438I0J-10000D01*
G01*
X943030Y100544D02*
G03*
X934243Y79331I21213J-21213D01*
G01*
X34243D02*
G03*
X25456Y100544I-30000J0D01*
G01*
X867746Y190438D02*
X917746D01*
X927746Y200438D02*
X927746Y292438D01*
X867746Y302438D02*
X917746D01*
X857746Y200438D02*
Y292438D01*
X34243Y79331D02*
X34243Y55500D01*
X934243D01*
X934243Y79331D01*
X943030Y100544D02*
X967986Y125500D01*
Y675500D01*
X897986Y745500D02*
X967986Y675500D01*
X70500Y745500D02*
X897986D01*
X500Y675500D02*
X70500Y745500D01*
X500Y125500D02*
Y675500D01*
Y125500D02*
X25456Y100544D01*
D45*
X241153Y396128D02*
D03*
X254653D02*
D03*
X184862Y269677D02*
D03*
X198363D02*
D03*
X241153Y410967D02*
D03*
X254653D02*
D03*
D46*
X409241Y588349D02*
D03*
X414241D02*
D03*
X434241D02*
D03*
X419241D02*
D03*
X439241D02*
D03*
X429241D02*
D03*
X424241D02*
D03*
X444241D02*
D03*
X449241D02*
D03*
X469241D02*
D03*
X454241D02*
D03*
X474241D02*
D03*
X464241D02*
D03*
X459241D02*
D03*
X479241D02*
D03*
X484241D02*
D03*
X504241D02*
D03*
X489241D02*
D03*
X509241D02*
D03*
X499241D02*
D03*
X494241D02*
D03*
X514241D02*
D03*
X519241D02*
D03*
X524241D02*
D03*
X529241D02*
D03*
X409241Y632349D02*
D03*
X414241D02*
D03*
X434241D02*
D03*
X419241D02*
D03*
X439241D02*
D03*
X429241D02*
D03*
X424241D02*
D03*
X444241D02*
D03*
X449241D02*
D03*
X469241D02*
D03*
X454241D02*
D03*
X474241D02*
D03*
X464241D02*
D03*
X459241D02*
D03*
X479241D02*
D03*
X484241D02*
D03*
X504241D02*
D03*
X489241D02*
D03*
X509241D02*
D03*
X499241D02*
D03*
X494241D02*
D03*
X514241D02*
D03*
X519241D02*
D03*
X524241D02*
D03*
X529241D02*
D03*
X784241D02*
D03*
X779241D02*
D03*
X774241D02*
D03*
X769241D02*
D03*
X749241D02*
D03*
X754241D02*
D03*
X764241D02*
D03*
X744241D02*
D03*
X759241D02*
D03*
X739241D02*
D03*
X734241D02*
D03*
X714241D02*
D03*
X719241D02*
D03*
X729241D02*
D03*
X709241D02*
D03*
X724241D02*
D03*
X704241D02*
D03*
X699241D02*
D03*
X679241D02*
D03*
X684241D02*
D03*
X694241D02*
D03*
X674241D02*
D03*
X689241D02*
D03*
X669241D02*
D03*
X664241D02*
D03*
X784241Y588349D02*
D03*
X779241D02*
D03*
X774241D02*
D03*
X769241D02*
D03*
X749241D02*
D03*
X754241D02*
D03*
X764241D02*
D03*
X744241D02*
D03*
X759241D02*
D03*
X739241D02*
D03*
X734241D02*
D03*
X714241D02*
D03*
X719241D02*
D03*
X729241D02*
D03*
X709241D02*
D03*
X724241D02*
D03*
X704241D02*
D03*
X699241D02*
D03*
X679241D02*
D03*
X684241D02*
D03*
X694241D02*
D03*
X674241D02*
D03*
X689241D02*
D03*
X669241D02*
D03*
X664241D02*
D03*
X449241Y228349D02*
D03*
X454241D02*
D03*
X474241D02*
D03*
X459241D02*
D03*
X479241D02*
D03*
X469241D02*
D03*
X464241D02*
D03*
X484241D02*
D03*
X489241D02*
D03*
X509241D02*
D03*
X494241D02*
D03*
X514241D02*
D03*
X504241D02*
D03*
X499241D02*
D03*
X519241D02*
D03*
X524241D02*
D03*
X544241D02*
D03*
X529241D02*
D03*
X549241D02*
D03*
X539241D02*
D03*
X534241D02*
D03*
X554241D02*
D03*
X559241D02*
D03*
X564241D02*
D03*
X569241D02*
D03*
X449241Y272349D02*
D03*
X454241D02*
D03*
X474241D02*
D03*
X459241D02*
D03*
X479241D02*
D03*
X469241D02*
D03*
X464241D02*
D03*
X484241D02*
D03*
X489241D02*
D03*
X509241D02*
D03*
X494241D02*
D03*
X514241D02*
D03*
X504241D02*
D03*
X499241D02*
D03*
X519241D02*
D03*
X524241D02*
D03*
X544241D02*
D03*
X529241D02*
D03*
X549241D02*
D03*
X539241D02*
D03*
X534241D02*
D03*
X554241D02*
D03*
X559241D02*
D03*
X564241D02*
D03*
X569241D02*
D03*
X784241D02*
D03*
X779241D02*
D03*
X774241D02*
D03*
X769241D02*
D03*
X749241D02*
D03*
X754241D02*
D03*
X764241D02*
D03*
X744241D02*
D03*
X759241D02*
D03*
X739241D02*
D03*
X734241D02*
D03*
X714241D02*
D03*
X719241D02*
D03*
X729241D02*
D03*
X709241D02*
D03*
X724241D02*
D03*
X704241D02*
D03*
X699241D02*
D03*
X679241D02*
D03*
X684241D02*
D03*
X694241D02*
D03*
X674241D02*
D03*
X689241D02*
D03*
X669241D02*
D03*
X664241D02*
D03*
X784241Y228349D02*
D03*
X779241D02*
D03*
X774241D02*
D03*
X769241D02*
D03*
X749241D02*
D03*
X754241D02*
D03*
X764241D02*
D03*
X744241D02*
D03*
X759241D02*
D03*
X739241D02*
D03*
X734241D02*
D03*
X714241D02*
D03*
X719241D02*
D03*
X729241D02*
D03*
X709241D02*
D03*
X724241D02*
D03*
X704241D02*
D03*
X699241D02*
D03*
X679241D02*
D03*
X684241D02*
D03*
X694241D02*
D03*
X674241D02*
D03*
X689241D02*
D03*
X669241D02*
D03*
X664241D02*
D03*
D47*
X161935Y294556D02*
D03*
Y277056D02*
D03*
X164516Y331894D02*
D03*
Y349394D02*
D03*
D48*
X256774Y306749D02*
D03*
Y293249D02*
D03*
X241290Y306749D02*
D03*
Y293249D02*
D03*
D49*
X224978Y313268D02*
D03*
Y303870D02*
D03*
Y294472D02*
D03*
X197419D02*
D03*
Y303870D02*
D03*
Y313268D02*
D03*
D50*
X254306Y461935D02*
D03*
X267306D02*
D03*
D51*
X269193Y446499D02*
D03*
Y433499D02*
D03*
D52*
X222629Y495483D02*
D03*
X239629D02*
D03*
X222629Y512257D02*
D03*
X239629D02*
D03*
X269306Y478709D02*
D03*
X252306D02*
D03*
X222629D02*
D03*
X239629D02*
D03*
X222629Y461935D02*
D03*
X239629D02*
D03*
D53*
X259516Y509676D02*
D03*
X288548Y450967D02*
D03*
X278870Y364515D02*
D03*
D54*
X226854Y426451D02*
D03*
Y435951D02*
D03*
Y445451D02*
D03*
X254354D02*
D03*
Y435951D02*
D03*
Y426451D02*
D03*
D55*
X213064Y403870D02*
D03*
D56*
X254591Y364515D02*
D03*
X230891D02*
D03*
M02*
