G04*
G04 #@! TF.GenerationSoftware,Altium Limited,Altium Designer,22.7.1 (60)*
G04*
G04 Layer_Color=8388736*
%FSLAX44Y44*%
%MOMM*%
G71*
G04*
G04 #@! TF.SameCoordinates,F0A3B908-A9A0-482C-9906-E7527CCB9396*
G04*
G04*
G04 #@! TF.FilePolarity,Negative*
G04*
G01*
G75*
%ADD14C,0.0254*%
%ADD16R,1.3532X1.5532*%
%ADD17C,3.2032*%
%ADD18C,1.5494*%
%ADD19C,1.2032*%
%ADD20C,1.4032*%
%ADD21R,1.4032X1.4032*%
%ADD22C,0.6500*%
G04:AMPARAMS|DCode=23|XSize=0.9mm|YSize=2.4mm|CornerRadius=0.45mm|HoleSize=0mm|Usage=FLASHONLY|Rotation=0.000|XOffset=0mm|YOffset=0mm|HoleType=Round|Shape=RoundedRectangle|*
%AMROUNDEDRECTD23*
21,1,0.9000,1.5000,0,0,0.0*
21,1,0.0000,2.4000,0,0,0.0*
1,1,0.9000,0.0000,-0.7500*
1,1,0.9000,0.0000,-0.7500*
1,1,0.9000,0.0000,0.7500*
1,1,0.9000,0.0000,0.7500*
%
%ADD23ROUNDEDRECTD23*%
G04:AMPARAMS|DCode=24|XSize=0.9mm|YSize=1.7mm|CornerRadius=0.45mm|HoleSize=0mm|Usage=FLASHONLY|Rotation=0.000|XOffset=0mm|YOffset=0mm|HoleType=Round|Shape=RoundedRectangle|*
%AMROUNDEDRECTD24*
21,1,0.9000,0.8000,0,0,0.0*
21,1,0.0000,1.7000,0,0,0.0*
1,1,0.9000,0.0000,-0.4000*
1,1,0.9000,0.0000,-0.4000*
1,1,0.9000,0.0000,0.4000*
1,1,0.9000,0.0000,0.4000*
%
%ADD24ROUNDEDRECTD24*%
%ADD25C,1.7032*%
%ADD26R,1.7032X1.7032*%
%ADD27C,1.7032*%
%ADD28R,1.7032X1.7032*%
D14*
X857746Y200438D02*
G03*
X867746Y190438I10000J0D01*
G01*
X917746Y190438D02*
G03*
X927746Y200438I0J10000D01*
G01*
X927746Y292438D02*
G03*
X917746Y302438I-10000J0D01*
G01*
X867746D02*
G03*
X857746Y292438I0J-10000D01*
G01*
X943030Y100544D02*
G03*
X934243Y79331I21213J-21213D01*
G01*
X34243D02*
G03*
X25456Y100544I-30000J0D01*
G01*
X867746Y190438D02*
X917746D01*
X927746Y200438D02*
X927746Y292438D01*
X867746Y302438D02*
X917746D01*
X857746Y200438D02*
Y292438D01*
X34243Y79331D02*
X34243Y55500D01*
X934243D01*
X934243Y79331D01*
X943030Y100544D02*
X967986Y125500D01*
Y675500D01*
X897986Y745500D02*
X967986Y675500D01*
X70500Y745500D02*
X897986D01*
X500Y675500D02*
X70500Y745500D01*
X500Y125500D02*
Y675500D01*
Y125500D02*
X25456Y100544D01*
D16*
X348749Y717418D02*
D03*
X331249D02*
D03*
X348749Y696773D02*
D03*
X331249D02*
D03*
D17*
X100500Y705500D02*
D03*
X867986D02*
D03*
D18*
X57149Y245170D02*
D03*
X82549Y219770D02*
D03*
X107949Y245170D02*
D03*
X58420Y567750D02*
D03*
X83820Y542350D02*
D03*
X109220Y567750D02*
D03*
X57150Y407730D02*
D03*
X82549Y382330D02*
D03*
X107950Y407730D02*
D03*
D19*
X435609Y86420D02*
D03*
X422909D02*
D03*
X410209D02*
D03*
X397509D02*
D03*
X384809D02*
D03*
X372109D02*
D03*
X359409D02*
D03*
X346709D02*
D03*
X334009D02*
D03*
X321309D02*
D03*
X308609D02*
D03*
X295909D02*
D03*
X283209D02*
D03*
X270509D02*
D03*
X257809D02*
D03*
X245109D02*
D03*
X232409D02*
D03*
X219709D02*
D03*
X207009D02*
D03*
X194309D02*
D03*
X737869Y86419D02*
D03*
X725169D02*
D03*
X712469D02*
D03*
X699769D02*
D03*
X687069D02*
D03*
X674369D02*
D03*
X661669D02*
D03*
X648969D02*
D03*
X636269D02*
D03*
X623569D02*
D03*
X610869D02*
D03*
X598169D02*
D03*
X585469D02*
D03*
X572769D02*
D03*
X560069D02*
D03*
X547369D02*
D03*
X534669D02*
D03*
X521969D02*
D03*
X509269D02*
D03*
X496569D02*
D03*
D20*
X90000Y130951D02*
D03*
X859353Y132258D02*
D03*
D21*
X110000Y130951D02*
D03*
X879353Y132258D02*
D03*
D22*
X210210Y700960D02*
D03*
X218710D02*
D03*
X227210D02*
D03*
X235710D02*
D03*
X244210D02*
D03*
X252710D02*
D03*
X261210D02*
D03*
X269710D02*
D03*
Y687460D02*
D03*
X261210D02*
D03*
X252710D02*
D03*
X244210D02*
D03*
X235710D02*
D03*
X227210D02*
D03*
X218710D02*
D03*
X210210D02*
D03*
D23*
X283210Y697260D02*
D03*
X196710D02*
D03*
D24*
X283210Y731060D02*
D03*
X196710D02*
D03*
D25*
X25900Y636130D02*
D03*
Y610730D02*
D03*
Y585330D02*
D03*
Y559930D02*
D03*
Y534530D02*
D03*
Y509130D02*
D03*
Y483730D02*
D03*
Y458330D02*
D03*
Y432930D02*
D03*
Y407530D02*
D03*
Y382130D02*
D03*
Y356730D02*
D03*
Y331330D02*
D03*
Y305930D02*
D03*
Y280530D02*
D03*
Y255130D02*
D03*
Y229730D02*
D03*
Y204330D02*
D03*
Y178930D02*
D03*
X225806Y632902D02*
D03*
D26*
X25900Y153530D02*
D03*
D27*
X942586D02*
D03*
Y636130D02*
D03*
D28*
X251206Y632902D02*
D03*
M02*
