G04*
G04 #@! TF.GenerationSoftware,Altium Limited,Altium Designer,24.1.2 (44)*
G04*
G04 Layer_Color=16711935*
%FSLAX44Y44*%
%MOMM*%
G71*
G04*
G04 #@! TF.SameCoordinates,8F2A281D-5683-44EC-B143-A45D5901FF86*
G04*
G04*
G04 #@! TF.FilePolarity,Positive*
G04*
G01*
G75*
%ADD11C,0.2000*%
%ADD74C,0.0762*%
%ADD75C,0.1000*%
%ADD76C,0.0000*%
%ADD77C,0.0254*%
D11*
X275957Y952992D02*
G03*
X275957Y952992I-1000J0D01*
G01*
X1192643D02*
G03*
X1192643Y952992I-1000J0D01*
G01*
D74*
X556354Y515192D02*
X547890Y506728D01*
X556354D02*
X547890Y515192D01*
X556354Y510960D02*
X547890D01*
X552122Y506728D02*
Y515192D01*
D75*
X454160Y1526150D02*
Y1539650D01*
X476160Y1526150D02*
Y1539650D01*
X454160D02*
X476160D01*
X454160Y1526150D02*
X476160D01*
X295407Y1453392D02*
X320807D01*
X295407Y945392D02*
Y1453392D01*
Y945392D02*
X320807D01*
Y1453392D01*
X1237493Y945392D02*
Y1453392D01*
X1212093Y945392D02*
X1237493D01*
X1212093D02*
Y1453392D01*
X1237493D01*
X568628Y619410D02*
Y649910D01*
X586128Y619410D02*
Y649910D01*
X568628Y619410D02*
X586128D01*
X568628Y649910D02*
X586128D01*
X559402Y698692D02*
X576402D01*
X559402Y689692D02*
X576402D01*
Y698692D01*
X559402Y689692D02*
Y698692D01*
X455660Y434274D02*
X494661D01*
X455660D02*
Y450274D01*
X445661D02*
X455660D01*
X494661Y434274D02*
Y450274D01*
X494663Y450276D01*
X504658D01*
X504661Y374274D02*
Y450276D01*
X445658Y374276D02*
X504658D01*
X445658D02*
Y450276D01*
X601217Y629958D02*
X610717D01*
X601217Y647458D02*
X610717D01*
Y629958D02*
Y647458D01*
X601217Y629958D02*
Y647458D01*
X519636Y473136D02*
X537136D01*
X519636Y463636D02*
X537136D01*
Y473136D01*
X519636Y463636D02*
Y473136D01*
X505459Y473515D02*
Y495515D01*
X491959Y473515D02*
Y495515D01*
Y473515D02*
X505459D01*
X491959Y495515D02*
X505459D01*
X575926Y590088D02*
X593426D01*
X575926Y599588D02*
X593426D01*
X575926Y590088D02*
Y599588D01*
X593426Y590088D02*
Y599588D01*
X588797Y507459D02*
X598297D01*
X588797Y489959D02*
X598297D01*
X588797D02*
Y507459D01*
X598297Y489959D02*
Y507459D01*
X573313D02*
X582813D01*
X573313Y489959D02*
X582813D01*
X573313D02*
Y507459D01*
X582813Y489959D02*
Y507459D01*
X494539Y528354D02*
X508039D01*
X494539Y550354D02*
X508039D01*
Y528354D02*
Y550354D01*
X494539Y528354D02*
Y550354D01*
X372435Y434274D02*
X411435D01*
X372435D02*
Y450274D01*
X362435D02*
X372435D01*
X411435Y434274D02*
Y450274D01*
X411438Y450276D01*
X421433D01*
X421435Y374274D02*
Y450276D01*
X362433Y374276D02*
X421433D01*
X362433D02*
Y450276D01*
X588829Y655894D02*
X606329D01*
X588829Y665394D02*
X606329D01*
X588829Y655894D02*
Y665394D01*
X606329Y655894D02*
Y665394D01*
X575926Y604926D02*
X593426D01*
X575926Y614426D02*
X593426D01*
X575926Y604926D02*
Y614426D01*
X593426Y604926D02*
Y614426D01*
X559402Y706466D02*
Y715466D01*
X576402Y706466D02*
Y715466D01*
X559402Y706466D02*
X576402D01*
X559402Y715466D02*
X576402D01*
X606079Y672918D02*
Y681918D01*
X589080Y672918D02*
Y681918D01*
X606079D01*
X589080Y672918D02*
X606079D01*
X606439Y689336D02*
Y727436D01*
X586139Y689336D02*
X606439D01*
X586139D02*
Y727436D01*
X606439D01*
X559402Y672918D02*
Y681918D01*
X576402Y672918D02*
Y681918D01*
X559402Y672918D02*
X576402D01*
X559402Y681918D02*
X576402D01*
X625794Y544175D02*
Y582275D01*
X605494Y544175D02*
X625794D01*
X605494D02*
Y582275D01*
X625794D01*
X530788Y612729D02*
X568888D01*
Y592429D02*
Y612729D01*
X530788Y592429D02*
X568888D01*
X530788D02*
Y612729D01*
X559402Y656144D02*
Y665144D01*
X576402Y656144D02*
Y665144D01*
X559402Y656144D02*
X576402D01*
X559402Y665144D02*
X576402D01*
X454805Y1505505D02*
X476805D01*
X454805Y1519005D02*
X476805D01*
Y1505505D02*
Y1519005D01*
X454805Y1505505D02*
Y1519005D01*
D76*
X544924Y518074D02*
G03*
X551020Y518074I3048J0D01*
G01*
D77*
X556989Y509184D02*
Y514772D01*
X562958D01*
Y509184D02*
Y514772D01*
X556989Y509184D02*
X562958D01*
X556989Y499786D02*
Y505374D01*
X562958D01*
Y499786D02*
Y505374D01*
X556989Y499786D02*
X562958D01*
X556989Y490388D02*
Y495976D01*
X562958D01*
Y490388D02*
Y495976D01*
X556989Y490388D02*
X562958D01*
X538955D02*
Y495976D01*
X532986Y490388D02*
X538955D01*
X532986D02*
Y495976D01*
X538955D01*
Y499786D02*
Y505374D01*
X532986Y499786D02*
X538955D01*
X532986D02*
Y505374D01*
X538955D01*
Y509184D02*
Y514772D01*
X532986Y509184D02*
X538955D01*
X532986D02*
Y514772D01*
X538955D01*
Y487086D02*
X556989D01*
X538955D02*
Y518074D01*
X556989D01*
Y487086D02*
Y518074D01*
M02*
