G04*
G04 #@! TF.GenerationSoftware,Altium Limited,Altium Designer,24.1.2 (44)*
G04*
G04 Layer_Color=255*
%FSLAX44Y44*%
%MOMM*%
G71*
G04*
G04 #@! TF.SameCoordinates,8F2A281D-5683-44EC-B143-A45D5901FF86*
G04*
G04*
G04 #@! TF.FilePolarity,Positive*
G04*
G01*
G75*
%ADD13R,1.1500X1.3500*%
%ADD16C,0.6500*%
G04:AMPARAMS|DCode=17|XSize=0.9mm|YSize=2.4mm|CornerRadius=0.45mm|HoleSize=0mm|Usage=FLASHONLY|Rotation=0.000|XOffset=0mm|YOffset=0mm|HoleType=Round|Shape=RoundedRectangle|*
%AMROUNDEDRECTD17*
21,1,0.9000,1.5000,0,0,0.0*
21,1,0.0000,2.4000,0,0,0.0*
1,1,0.9000,0.0000,-0.7500*
1,1,0.9000,0.0000,-0.7500*
1,1,0.9000,0.0000,0.7500*
1,1,0.9000,0.0000,0.7500*
%
%ADD17ROUNDEDRECTD17*%
G04:AMPARAMS|DCode=18|XSize=0.9mm|YSize=1.7mm|CornerRadius=0.45mm|HoleSize=0mm|Usage=FLASHONLY|Rotation=0.000|XOffset=0mm|YOffset=0mm|HoleType=Round|Shape=RoundedRectangle|*
%AMROUNDEDRECTD18*
21,1,0.9000,0.8000,0,0,0.0*
21,1,0.0000,1.7000,0,0,0.0*
1,1,0.9000,0.0000,-0.4000*
1,1,0.9000,0.0000,-0.4000*
1,1,0.9000,0.0000,0.4000*
1,1,0.9000,0.0000,0.4000*
%
%ADD18ROUNDEDRECTD18*%
%ADD30C,1.5240*%
%ADD31C,1.0200*%
%ADD32C,0.7000*%
%ADD33R,1.5000X1.5000*%
%ADD34C,1.5000*%
%ADD35C,3.0000*%
%ADD36C,1.2000*%
%ADD37R,1.2000X1.2000*%
%ADD38R,1.5000X1.5000*%
D13*
X456410Y1532900D02*
D03*
X473910D02*
D03*
X474556Y1512255D02*
D03*
X457056D02*
D03*
D16*
X356056Y1510666D02*
D03*
X364556D02*
D03*
X373056D02*
D03*
X381556D02*
D03*
X390056D02*
D03*
X398556D02*
D03*
X407056D02*
D03*
X415556D02*
D03*
Y1497166D02*
D03*
X407056D02*
D03*
X398556D02*
D03*
X390056D02*
D03*
X381556D02*
D03*
X373056D02*
D03*
X364556D02*
D03*
X356056D02*
D03*
D17*
X429056Y1506966D02*
D03*
X342556D02*
D03*
D18*
X429056Y1540766D02*
D03*
X342556D02*
D03*
D30*
X364686Y868051D02*
D03*
X781246Y890911D02*
D03*
X1172406Y864241D02*
D03*
D31*
X308107Y958092D02*
D03*
Y983492D02*
D03*
Y1008892D02*
D03*
Y1034292D02*
D03*
Y1059692D02*
D03*
Y1085092D02*
D03*
Y1110492D02*
D03*
Y1135892D02*
D03*
Y1161292D02*
D03*
Y1186692D02*
D03*
Y1212092D02*
D03*
Y1237492D02*
D03*
Y1262892D02*
D03*
Y1288292D02*
D03*
Y1313692D02*
D03*
Y1339092D02*
D03*
Y1364492D02*
D03*
Y1389892D02*
D03*
Y1415292D02*
D03*
Y1440692D02*
D03*
X1224793D02*
D03*
Y1415292D02*
D03*
Y1389892D02*
D03*
Y1364492D02*
D03*
Y1339092D02*
D03*
Y1313692D02*
D03*
Y1288292D02*
D03*
Y1262892D02*
D03*
Y1237492D02*
D03*
Y1212092D02*
D03*
Y1186692D02*
D03*
Y1161292D02*
D03*
Y1135892D02*
D03*
Y1110492D02*
D03*
Y1085092D02*
D03*
Y1059692D02*
D03*
Y1034292D02*
D03*
Y1008892D02*
D03*
Y983492D02*
D03*
Y958092D02*
D03*
D32*
X816450Y891692D02*
D03*
X829150D02*
D03*
X816450D02*
D03*
X829150D02*
D03*
X841850D02*
D03*
X854550D02*
D03*
X867250D02*
D03*
X879950D02*
D03*
X892650D02*
D03*
X905350D02*
D03*
X918050D02*
D03*
X930750D02*
D03*
X943450D02*
D03*
X956150D02*
D03*
X968850D02*
D03*
X981550D02*
D03*
X994250D02*
D03*
X1006950D02*
D03*
X1019650D02*
D03*
X1032350D02*
D03*
X1045050D02*
D03*
X1057750D02*
D03*
X475150D02*
D03*
X487850D02*
D03*
X475150D02*
D03*
X487850D02*
D03*
X500550D02*
D03*
X513250D02*
D03*
X525950D02*
D03*
X538650D02*
D03*
X551350D02*
D03*
X564050D02*
D03*
X576750D02*
D03*
X589450D02*
D03*
X602150D02*
D03*
X614850D02*
D03*
X627550D02*
D03*
X640250D02*
D03*
X652950D02*
D03*
X665650D02*
D03*
X678350D02*
D03*
X691050D02*
D03*
X703750D02*
D03*
X716450D02*
D03*
D33*
X572257Y409031D02*
D03*
D34*
X546857D02*
D03*
X363870Y770321D02*
D03*
D35*
X308107Y894592D02*
D03*
Y1504192D02*
D03*
X1224793D02*
D03*
Y894592D02*
D03*
D36*
X465160Y436773D02*
D03*
X381935D02*
D03*
D37*
X485160D02*
D03*
X401935D02*
D03*
D38*
X363870Y795721D02*
D03*
M02*
