G04*
G04 #@! TF.GenerationSoftware,Altium Limited,Altium Designer,24.1.2 (44)*
G04*
G04 Layer_Color=128*
%FSLAX44Y44*%
%MOMM*%
G71*
G04*
G04 #@! TF.SameCoordinates,8F2A281D-5683-44EC-B143-A45D5901FF86*
G04*
G04*
G04 #@! TF.FilePolarity,Positive*
G04*
G01*
G75*
%ADD41R,1.9050X1.0200*%
%ADD42R,1.0000X0.6000*%
%ADD43R,0.9525X0.6096*%
%ADD44R,0.2500X2.0000*%
%ADD45R,0.7400X1.6000*%
%ADD46R,0.6500X1.0500*%
%ADD47R,0.9800X3.4000*%
%ADD48R,0.9500X0.8500*%
%ADD49R,0.9000X1.0000*%
%ADD50R,1.3500X1.1500*%
%ADD51R,1.0000X0.9000*%
%ADD52R,0.8500X0.9500*%
%ADD53R,2.0300X3.8000*%
%ADD54R,3.8000X2.0300*%
D41*
X292082Y958092D02*
D03*
X324132Y983492D02*
D03*
X292082Y1008892D02*
D03*
X324132Y1034292D02*
D03*
X292082Y1059692D02*
D03*
X324132Y1085092D02*
D03*
X292082Y1110492D02*
D03*
X324132Y1135892D02*
D03*
X292082Y1161292D02*
D03*
X324132Y1186692D02*
D03*
X292082Y1212092D02*
D03*
X324132Y1237492D02*
D03*
X292082Y1262892D02*
D03*
X324132Y1288292D02*
D03*
X292082Y1313692D02*
D03*
X324132Y1339092D02*
D03*
X292082Y1364492D02*
D03*
X324132Y1389892D02*
D03*
X292082Y1415292D02*
D03*
X324132Y1440692D02*
D03*
X1240818D02*
D03*
X1208768Y1415292D02*
D03*
X1240818Y1389892D02*
D03*
X1208768Y1364492D02*
D03*
X1240818Y1339092D02*
D03*
X1208768Y1313692D02*
D03*
X1240818Y1288292D02*
D03*
X1208768Y1262892D02*
D03*
X1240818Y1237492D02*
D03*
X1208768Y1212092D02*
D03*
X1240818Y1186692D02*
D03*
X1208768Y1161292D02*
D03*
X1240818Y1135892D02*
D03*
X1208768Y1110492D02*
D03*
X1240818Y1085092D02*
D03*
X1208768Y1059692D02*
D03*
X1240818Y1034292D02*
D03*
X1208768Y1008892D02*
D03*
X1240818Y983492D02*
D03*
X1208768Y958092D02*
D03*
D42*
X563628Y625160D02*
D03*
Y634660D02*
D03*
Y644160D02*
D03*
X591128D02*
D03*
Y634660D02*
D03*
Y625160D02*
D03*
D43*
X561752Y511978D02*
D03*
Y502580D02*
D03*
Y493182D02*
D03*
X534193D02*
D03*
Y502580D02*
D03*
Y511978D02*
D03*
D44*
X738917Y754155D02*
D03*
X743917D02*
D03*
X763917D02*
D03*
X748917D02*
D03*
X768917D02*
D03*
X758917D02*
D03*
X753917D02*
D03*
X773917D02*
D03*
X778917D02*
D03*
X798917D02*
D03*
X783917D02*
D03*
X803917D02*
D03*
X793917D02*
D03*
X788917D02*
D03*
X808917D02*
D03*
X813917D02*
D03*
X833917D02*
D03*
X818917D02*
D03*
X838917D02*
D03*
X828917D02*
D03*
X823917D02*
D03*
X843917D02*
D03*
X848917D02*
D03*
X853917D02*
D03*
X858917D02*
D03*
X738917Y798155D02*
D03*
X743917D02*
D03*
X763917D02*
D03*
X748917D02*
D03*
X768917D02*
D03*
X758917D02*
D03*
X753917D02*
D03*
X773917D02*
D03*
X778917D02*
D03*
X798917D02*
D03*
X783917D02*
D03*
X803917D02*
D03*
X793917D02*
D03*
X788917D02*
D03*
X808917D02*
D03*
X813917D02*
D03*
X833917D02*
D03*
X818917D02*
D03*
X838917D02*
D03*
X828917D02*
D03*
X823917D02*
D03*
X843917D02*
D03*
X848917D02*
D03*
X853917D02*
D03*
X858917D02*
D03*
X993917Y754155D02*
D03*
X998917D02*
D03*
X1018917D02*
D03*
X1003917D02*
D03*
X1023917D02*
D03*
X1013917D02*
D03*
X1008917D02*
D03*
X1028917D02*
D03*
X1033917D02*
D03*
X1053917D02*
D03*
X1038917D02*
D03*
X1058917D02*
D03*
X1048917D02*
D03*
X1043917D02*
D03*
X1063917D02*
D03*
X1068917D02*
D03*
X1088917D02*
D03*
X1073917D02*
D03*
X1093917D02*
D03*
X1083917D02*
D03*
X1078917D02*
D03*
X1098917D02*
D03*
X1103917D02*
D03*
X1108917D02*
D03*
X1113917D02*
D03*
X993917Y798155D02*
D03*
X998917D02*
D03*
X1018917D02*
D03*
X1003917D02*
D03*
X1023917D02*
D03*
X1013917D02*
D03*
X1008917D02*
D03*
X1028917D02*
D03*
X1033917D02*
D03*
X1053917D02*
D03*
X1038917D02*
D03*
X1058917D02*
D03*
X1048917D02*
D03*
X1043917D02*
D03*
X1063917D02*
D03*
X1068917D02*
D03*
X1088917D02*
D03*
X1073917D02*
D03*
X1093917D02*
D03*
X1083917D02*
D03*
X1078917D02*
D03*
X1098917D02*
D03*
X1103917D02*
D03*
X1108917D02*
D03*
X1113917D02*
D03*
X778917Y394155D02*
D03*
X783917D02*
D03*
X803917D02*
D03*
X788917D02*
D03*
X808917D02*
D03*
X798917D02*
D03*
X793917D02*
D03*
X813917D02*
D03*
X818917D02*
D03*
X838917D02*
D03*
X823917D02*
D03*
X843917D02*
D03*
X833917D02*
D03*
X828917D02*
D03*
X848917D02*
D03*
X853917D02*
D03*
X873917D02*
D03*
X858917D02*
D03*
X878917D02*
D03*
X868917D02*
D03*
X863917D02*
D03*
X883917D02*
D03*
X888917D02*
D03*
X893917D02*
D03*
X898917D02*
D03*
X778917Y438155D02*
D03*
X783917D02*
D03*
X803917D02*
D03*
X788917D02*
D03*
X808917D02*
D03*
X798917D02*
D03*
X793917D02*
D03*
X813917D02*
D03*
X818917D02*
D03*
X838917D02*
D03*
X823917D02*
D03*
X843917D02*
D03*
X833917D02*
D03*
X828917D02*
D03*
X848917D02*
D03*
X853917D02*
D03*
X873917D02*
D03*
X858917D02*
D03*
X878917D02*
D03*
X868917D02*
D03*
X863917D02*
D03*
X883917D02*
D03*
X888917D02*
D03*
X893917D02*
D03*
X898917D02*
D03*
X993917Y394155D02*
D03*
X998917D02*
D03*
X1018917D02*
D03*
X1003917D02*
D03*
X1023917D02*
D03*
X1013917D02*
D03*
X1008917D02*
D03*
X1028917D02*
D03*
X1033917D02*
D03*
X1053917D02*
D03*
X1038917D02*
D03*
X1058917D02*
D03*
X1048917D02*
D03*
X1043917D02*
D03*
X1063917D02*
D03*
X1068917D02*
D03*
X1088917D02*
D03*
X1073917D02*
D03*
X1093917D02*
D03*
X1083917D02*
D03*
X1078917D02*
D03*
X1098917D02*
D03*
X1103917D02*
D03*
X1108917D02*
D03*
X1113917D02*
D03*
X993917Y438155D02*
D03*
X998917D02*
D03*
X1018917D02*
D03*
X1003917D02*
D03*
X1023917D02*
D03*
X1013917D02*
D03*
X1008917D02*
D03*
X1028917D02*
D03*
X1033917D02*
D03*
X1053917D02*
D03*
X1038917D02*
D03*
X1058917D02*
D03*
X1048917D02*
D03*
X1043917D02*
D03*
X1063917D02*
D03*
X1068917D02*
D03*
X1088917D02*
D03*
X1073917D02*
D03*
X1093917D02*
D03*
X1083917D02*
D03*
X1078917D02*
D03*
X1098917D02*
D03*
X1103917D02*
D03*
X1108917D02*
D03*
X1113917D02*
D03*
D45*
X816450Y878692D02*
D03*
X829150Y904692D02*
D03*
X816450Y878692D02*
D03*
X829150Y904692D02*
D03*
X841850Y878692D02*
D03*
X854550Y904692D02*
D03*
X867250Y878692D02*
D03*
X879950Y904692D02*
D03*
X892650Y878692D02*
D03*
X905350Y904692D02*
D03*
X918050Y878692D02*
D03*
X930750Y904692D02*
D03*
X943450Y878692D02*
D03*
X956150Y904692D02*
D03*
X968850Y878692D02*
D03*
X981550Y904692D02*
D03*
X994250Y878692D02*
D03*
X1006950Y904692D02*
D03*
X1019650Y878692D02*
D03*
X1032350Y904692D02*
D03*
X1045050Y878692D02*
D03*
X1057750Y904692D02*
D03*
X475150Y878692D02*
D03*
X487850Y904692D02*
D03*
X475150Y878692D02*
D03*
X487850Y904692D02*
D03*
X500550Y878692D02*
D03*
X513250Y904692D02*
D03*
X525950Y878692D02*
D03*
X538650Y904692D02*
D03*
X551350Y878692D02*
D03*
X564050Y904692D02*
D03*
X576750Y878692D02*
D03*
X589450Y904692D02*
D03*
X602150Y878692D02*
D03*
X614850Y904692D02*
D03*
X627550Y878692D02*
D03*
X640250Y904692D02*
D03*
X652950Y878692D02*
D03*
X665650Y904692D02*
D03*
X678350Y878692D02*
D03*
X691050Y904692D02*
D03*
X703750Y878692D02*
D03*
X716450Y904692D02*
D03*
D46*
X576402Y694192D02*
D03*
X559402D02*
D03*
Y710966D02*
D03*
X576402D02*
D03*
X606079Y677418D02*
D03*
X589080D02*
D03*
X559402D02*
D03*
X576402D02*
D03*
X559402Y660644D02*
D03*
X576402D02*
D03*
D47*
X567665Y563225D02*
D03*
X591365D02*
D03*
D48*
X605966Y632208D02*
D03*
Y645208D02*
D03*
D49*
X535136Y468386D02*
D03*
X521636D02*
D03*
X577926Y594837D02*
D03*
X591426D02*
D03*
X577926Y609676D02*
D03*
X591426D02*
D03*
D50*
X498709Y475765D02*
D03*
Y493265D02*
D03*
X501289Y530604D02*
D03*
Y548104D02*
D03*
D51*
X593547Y505459D02*
D03*
Y491959D02*
D03*
X578063Y505459D02*
D03*
Y491959D02*
D03*
D52*
X591079Y660644D02*
D03*
X604080D02*
D03*
D53*
X596289Y708386D02*
D03*
X615644Y563225D02*
D03*
D54*
X549838Y602579D02*
D03*
M02*
