G04*
G04 #@! TF.GenerationSoftware,Altium Limited,Altium Designer,24.1.2 (44)*
G04*
G04 Layer_Color=16711935*
%FSLAX44Y44*%
%MOMM*%
G71*
G04*
G04 #@! TF.SameCoordinates,8F2A281D-5683-44EC-B143-A45D5901FF86*
G04*
G04*
G04 #@! TF.FilePolarity,Positive*
G04*
G01*
G75*
%ADD75C,0.1000*%
D75*
X1229111Y1085092D02*
G03*
X1229111Y1085092I-4318J0D01*
G01*
X1239793Y1504192D02*
G03*
X1239793Y1504192I-15000J0D01*
G01*
X312425Y1440692D02*
G03*
X312425Y1440692I-4318J0D01*
G01*
X1229111D02*
G03*
X1229111Y1440692I-4318J0D01*
G01*
Y1415292D02*
G03*
X1229111Y1415292I-4318J0D01*
G01*
Y1389892D02*
G03*
X1229111Y1389892I-4318J0D01*
G01*
Y1364492D02*
G03*
X1229111Y1364492I-4318J0D01*
G01*
Y1339092D02*
G03*
X1229111Y1339092I-4318J0D01*
G01*
Y1313692D02*
G03*
X1229111Y1313692I-4318J0D01*
G01*
Y1288292D02*
G03*
X1229111Y1288292I-4318J0D01*
G01*
Y1262892D02*
G03*
X1229111Y1262892I-4318J0D01*
G01*
Y1237492D02*
G03*
X1229111Y1237492I-4318J0D01*
G01*
X312425Y1415292D02*
G03*
X312425Y1415292I-4318J0D01*
G01*
Y1389892D02*
G03*
X312425Y1389892I-4318J0D01*
G01*
Y1364492D02*
G03*
X312425Y1364492I-4318J0D01*
G01*
Y1339092D02*
G03*
X312425Y1339092I-4318J0D01*
G01*
Y1313692D02*
G03*
X312425Y1313692I-4318J0D01*
G01*
Y1288292D02*
G03*
X312425Y1288292I-4318J0D01*
G01*
Y1262892D02*
G03*
X312425Y1262892I-4318J0D01*
G01*
Y1237492D02*
G03*
X312425Y1237492I-4318J0D01*
G01*
Y1212092D02*
G03*
X312425Y1212092I-4318J0D01*
G01*
Y1186692D02*
G03*
X312425Y1186692I-4318J0D01*
G01*
Y1161292D02*
G03*
X312425Y1161292I-4318J0D01*
G01*
Y1135892D02*
G03*
X312425Y1135892I-4318J0D01*
G01*
Y1110492D02*
G03*
X312425Y1110492I-4318J0D01*
G01*
Y1085092D02*
G03*
X312425Y1085092I-4318J0D01*
G01*
Y1059692D02*
G03*
X312425Y1059692I-4318J0D01*
G01*
Y1034292D02*
G03*
X312425Y1034292I-4318J0D01*
G01*
Y1008892D02*
G03*
X312425Y1008892I-4318J0D01*
G01*
Y983492D02*
G03*
X312425Y983492I-4318J0D01*
G01*
Y958092D02*
G03*
X312425Y958092I-4318J0D01*
G01*
X323107Y894592D02*
G03*
X323107Y894592I-15000J0D01*
G01*
X1239793D02*
G03*
X1239793Y894592I-15000J0D01*
G01*
X1229111Y958092D02*
G03*
X1229111Y958092I-4318J0D01*
G01*
Y983492D02*
G03*
X1229111Y983492I-4318J0D01*
G01*
Y1008892D02*
G03*
X1229111Y1008892I-4318J0D01*
G01*
Y1034292D02*
G03*
X1229111Y1034292I-4318J0D01*
G01*
Y1059692D02*
G03*
X1229111Y1059692I-4318J0D01*
G01*
Y1110492D02*
G03*
X1229111Y1110492I-4318J0D01*
G01*
Y1135892D02*
G03*
X1229111Y1135892I-4318J0D01*
G01*
Y1161292D02*
G03*
X1229111Y1161292I-4318J0D01*
G01*
Y1186692D02*
G03*
X1229111Y1186692I-4318J0D01*
G01*
Y1212092D02*
G03*
X1229111Y1212092I-4318J0D01*
G01*
X1060750Y891692D02*
G03*
X1060750Y891692I-3000J0D01*
G01*
X1048050D02*
G03*
X1048050Y891692I-3000J0D01*
G01*
X1035350D02*
G03*
X1035350Y891692I-3000J0D01*
G01*
X1022650D02*
G03*
X1022650Y891692I-3000J0D01*
G01*
X1009950D02*
G03*
X1009950Y891692I-3000J0D01*
G01*
X997250D02*
G03*
X997250Y891692I-3000J0D01*
G01*
X984550D02*
G03*
X984550Y891692I-3000J0D01*
G01*
X971850D02*
G03*
X971850Y891692I-3000J0D01*
G01*
X959150D02*
G03*
X959150Y891692I-3000J0D01*
G01*
X946450D02*
G03*
X946450Y891692I-3000J0D01*
G01*
X933750D02*
G03*
X933750Y891692I-3000J0D01*
G01*
X921050D02*
G03*
X921050Y891692I-3000J0D01*
G01*
X908350D02*
G03*
X908350Y891692I-3000J0D01*
G01*
X895650D02*
G03*
X895650Y891692I-3000J0D01*
G01*
X882950D02*
G03*
X882950Y891692I-3000J0D01*
G01*
X870250D02*
G03*
X870250Y891692I-3000J0D01*
G01*
X857550D02*
G03*
X857550Y891692I-3000J0D01*
G01*
X844850D02*
G03*
X844850Y891692I-3000J0D01*
G01*
X832150D02*
G03*
X832150Y891692I-3000J0D01*
G01*
X819450D02*
G03*
X819450Y891692I-3000J0D01*
G01*
X719450D02*
G03*
X719450Y891692I-3000J0D01*
G01*
X706750D02*
G03*
X706750Y891692I-3000J0D01*
G01*
X694050D02*
G03*
X694050Y891692I-3000J0D01*
G01*
X681350D02*
G03*
X681350Y891692I-3000J0D01*
G01*
X668650D02*
G03*
X668650Y891692I-3000J0D01*
G01*
X655950D02*
G03*
X655950Y891692I-3000J0D01*
G01*
X643250D02*
G03*
X643250Y891692I-3000J0D01*
G01*
X630550D02*
G03*
X630550Y891692I-3000J0D01*
G01*
X617850D02*
G03*
X617850Y891692I-3000J0D01*
G01*
X605150D02*
G03*
X605150Y891692I-3000J0D01*
G01*
X592450D02*
G03*
X592450Y891692I-3000J0D01*
G01*
X579750D02*
G03*
X579750Y891692I-3000J0D01*
G01*
X567050D02*
G03*
X567050Y891692I-3000J0D01*
G01*
X554350D02*
G03*
X554350Y891692I-3000J0D01*
G01*
X541650D02*
G03*
X541650Y891692I-3000J0D01*
G01*
X528950D02*
G03*
X528950Y891692I-3000J0D01*
G01*
X516250D02*
G03*
X516250Y891692I-3000J0D01*
G01*
X503550D02*
G03*
X503550Y891692I-3000J0D01*
G01*
X490850D02*
G03*
X490850Y891692I-3000J0D01*
G01*
X478150D02*
G03*
X478150Y891692I-3000J0D01*
G01*
X321450Y1511045D02*
G03*
X321450Y1497339I-13343J-6853D01*
G01*
X296450Y1529592D02*
G03*
X271450Y1504592I0J-25000D01*
G01*
Y889763D02*
G03*
X278772Y872086I25000J0D01*
G01*
X336226Y804277D02*
G03*
X328903Y821955I-25000J0D01*
G01*
X1203997D02*
G03*
X1196674Y804277I17678J-17678D01*
G01*
X1254128Y872086D02*
G03*
X1261450Y889763I-17678J17678D01*
G01*
Y1504592D02*
G03*
X1236450Y1529592I-25000J0D01*
G01*
X406450Y939192D02*
G03*
X431450Y914192I25000J0D01*
G01*
Y1485063D02*
G03*
X406450Y1460063I0J-25000D01*
G01*
X496450Y1485063D02*
G03*
X521450Y1510063I0J25000D01*
G01*
Y1530063D02*
G03*
X496450Y1555063I-25000J0D01*
G01*
X296450Y1529592D02*
X341450Y1555063D01*
X723353Y756289D02*
Y796289D01*
X875353D01*
Y756289D02*
Y796289D01*
X723353Y756289D02*
X875353D01*
X978353D02*
Y796289D01*
X1130353D01*
Y756289D02*
Y796289D01*
X978353Y756289D02*
X1130353D01*
X763353Y396289D02*
Y436289D01*
X915353D01*
Y396289D02*
Y436289D01*
X763353Y396289D02*
X915353D01*
X978353D02*
Y436289D01*
X1130353D01*
Y396289D02*
Y436289D01*
X978353Y396289D02*
X1130353D01*
X321450Y1497339D02*
Y1511045D01*
X271450Y889763D02*
Y1504592D01*
X278772Y872086D02*
X328903Y821955D01*
X336226Y364192D02*
Y804277D01*
Y364192D02*
X1196674D01*
Y804277D01*
X1203997Y821955D02*
X1254128Y872086D01*
X1261450Y889763D02*
Y1504592D01*
X431450Y914192D02*
X1101450D01*
X406450Y939192D02*
Y1460063D01*
X431450Y1485063D02*
X496450D01*
X521450Y1510063D02*
Y1530063D01*
X341450Y1555063D02*
X496450D01*
X722708Y796289D02*
X874708D01*
X977708D02*
X1129708D01*
X977708Y756289D02*
Y796289D01*
Y756289D02*
X1129708D01*
X874708D02*
Y796289D01*
X1129708Y756289D02*
Y796289D01*
X722708Y756289D02*
X874708D01*
X722708D02*
Y796289D01*
X762708Y436289D02*
X914708D01*
Y396289D02*
Y436289D01*
X977708Y396289D02*
Y436289D01*
X1129708D01*
Y396289D02*
Y436289D01*
X977708Y396289D02*
X1129708D01*
X762708D02*
Y436289D01*
Y396289D02*
X914708D01*
X874920Y756306D02*
Y796306D01*
X762920Y396306D02*
X914920D01*
X762920Y436306D02*
X914920D01*
X722920Y756306D02*
Y796306D01*
X874920D01*
X722920Y756306D02*
X874920D01*
X762920Y396306D02*
Y436306D01*
X914920Y396306D02*
Y436306D01*
X977920D02*
X1129920D01*
Y396306D02*
Y436306D01*
X977920Y396306D02*
X1129920D01*
X977920D02*
Y436306D01*
Y796306D02*
X1129920D01*
Y756306D02*
Y796306D01*
X977920Y756306D02*
Y796306D01*
Y756306D02*
X1129920D01*
M02*
