M48
;Layer_Color=9474304
;FILE_FORMAT=4:4
METRIC,LZ
;TYPE=PLATED
T01F00S00C0.3810
T02F00S00C0.4000
T04F00S00C0.7000
T05F00S00C0.7112
T06F00S00C0.9000
;TYPE=NON_PLATED
T07F00S00C0.5500
T08F00S00C1.0200
T09F00S00C3.0000
T10F00S00C3.4000
%
T01
X00838708Y00415483
X00876127Y00416128
X01008385Y00415483
X01053546Y00416128
X01097417Y00415483
X00981934Y00456128
X00952901Y0058645
X00946932Y00598708
X00968385Y00624515
X00960643Y00665805
X00940643Y00647029
X00916772Y00636773
X00900643Y00690966
X00934192Y00705805
X00925159Y00715482
X01002579Y00730321
X01014192
X01042416
X01058062Y00725805
X01048385Y00714837
X01019998Y00698708
X0102903Y00661934
X01063869Y00673547
X01073384Y00654837
X01088385Y0064387
X01105159Y00634192
X01110965Y00618708
X01122831Y00621037
X01141933Y0060387
X01079353Y00611612
X01093546Y0068516
X01098062Y00776127
X01054191
X0100903
X00980643Y00754192
X00837418Y00776773
X00797418Y00776127
X00809031Y00719999
X00839998Y00705805
X00818063Y00667095
X00803224Y00647029
X00798708Y00601289
X00822579Y00604678
X00772948Y00604515
X00779353Y00593547
X00789031Y0058645
X0076645Y00647029
X00759998Y00679353
X00750484Y0071403
X00723224Y00732902
X00754192Y00776127
X00546451Y00709676
X00547257Y00693547
X00547096Y00677418
X00547257Y00660644
X00551128Y00643224
X00550967Y00630321
X00538225Y00621934
X00578063Y0062516
X00604515Y00619354
X00617579Y00620644
X0061166Y00586531
X00579515Y00579354
X00588386Y00520644
X00562096Y0052516
X00539354Y0054516
X00501289Y0056387
X00479999Y00544515
X00514193Y00481935
X00505805Y00459999
X00563601Y00479139
X00615644Y00534838
X0064645Y00519999
X00768386Y00456128
X00379354Y00893547
X00383235Y00907762
X00371612Y00920643
X00358064Y00914837
X00360644Y00900643
X00345806Y00890966
X00336773Y00877418
X00330322Y00861289
X00319999Y00919998
X0030387Y00927095
X00292082Y00971435
X00324132Y00969414
X00330101Y00997417
X00324132Y01019736
X00496773Y00904514
X00521934Y0090516
X00547096
X00572902
X00602579Y00904514
X0062516Y00903869
X00650789Y00904692
X00673547Y00904514
X00700644
X00729676
X00713547Y00878708
X00687095
X00661289
X00636773Y00878063
X00612257Y00879353
X00585805Y00878708
X00536128
X0054258Y00871611
X00509676Y00878708
X0048387Y00878063
X00495456Y00804487
X00515483Y00803869
X00532257Y00794837
X00724515Y00816127
X00754385Y00819546
X00762579Y00828385
X00772256Y00834192
X00781051Y00840379
X00792902Y00843869
X00791611Y00866612
X00797418Y00852902
X00808385Y00857418
X00837418Y00858708
X00832256Y00878708
X0084516Y00904514
X00892125Y00863869
X00899998Y00856127
X00935482Y00842579
X01001288Y00836127
X01010966Y00829031
X01024514Y00843224
X01032256Y00849676
X0102903Y00858063
Y00878063
X01003208Y00878692
X0101595Y00904692
X01044514Y0090516
X00834192Y00821934
X00823224Y00821289
X00819353Y00832902
X00457418Y01499352
X00399999Y01479352
X00390056Y01479731
X0038129Y01478707
T02
X00398556Y01497166
X00407056
X00415556
Y01510666
X00407056
X00398556
X00390056
X00381556
X00373056
X00364556
X00356056
Y01497166
X00364556
X00373056
X00381556
X00390056
T04
X00401935Y00436773
X0046516
X0048516
X00381935
X0047515Y00891692
X0048785
X0050055
X0051325
X0052595
X0053865
X0055135
X0056405
X0057675
X0058945
X0060215
X0061485
X0062755
X0064025
X0065295
X0066565
X0067835
X0069105
X0070375
X0071645
X0081645
X0082915
X0084185
X0085455
X0086725
X0087995
X0089265
X0090535
X0091805
X0093075
X0094345
X0095615
X0096885
X0098155
X0099425
X0100695
X0101965
X0103235
X0104505
X0105775
T05
X00614837Y0070774
X00963869Y00801289
T06
X00546857Y00409031
X00572257
X0036387Y00770321
Y00795721
T07
X00908417Y00428655
X00984417
X01123417
Y00788655
X00984417
X00868417
X00729417
X00769417Y00428655
T08
X00308107Y00958092
Y00983492
Y01008892
Y01034292
Y01059692
Y01085092
Y01110492
Y01135892
Y01161292
Y01186692
X01224793
Y01161292
Y01135892
Y01110492
Y01085092
Y01059692
Y01034292
Y01008892
Y00983492
Y00958092
Y01212092
Y01237492
Y01262892
Y01288292
Y01313692
Y01339092
Y01364492
Y01389892
Y01415292
Y01440692
X00308107
Y01415292
Y01389892
Y01364492
Y01339092
Y01313692
Y01288292
Y01262892
Y01237492
Y01212092
T09
X00308107Y00894592
X01224793
Y01504192
X00308107
T10
X00364686Y00868051
X00781246Y00890911
X01172406Y00864241
M30
