G04*
G04 #@! TF.GenerationSoftware,Altium Limited,Altium Designer,24.1.2 (44)*
G04*
G04 Layer_Physical_Order=2*
G04 Layer_Color=36540*
%FSLAX44Y44*%
%MOMM*%
G71*
G04*
G04 #@! TF.SameCoordinates,8F2A281D-5683-44EC-B143-A45D5901FF86*
G04*
G04*
G04 #@! TF.FilePolarity,Positive*
G04*
G01*
G75*
%ADD12C,0.2540*%
%ADD39C,0.6350*%
%ADD40C,1.2700*%
G36*
X496450Y1555063D02*
X498912D01*
X503742Y1554103D01*
X508292Y1552218D01*
X512387Y1549482D01*
X515869Y1546000D01*
X518605Y1541905D01*
X520489Y1537356D01*
X521450Y1532526D01*
Y1530063D01*
Y1510063D01*
Y1507601D01*
X520489Y1502771D01*
X518605Y1498221D01*
X515869Y1494127D01*
X512387Y1490645D01*
X508292Y1487909D01*
X503742Y1486024D01*
X498912Y1485063D01*
X431450D01*
X429000Y1484943D01*
X424193Y1483987D01*
X419665Y1482111D01*
X415590Y1479389D01*
X412125Y1475923D01*
X409402Y1471848D01*
X407527Y1467320D01*
X406571Y1462514D01*
X406450Y1460063D01*
Y939192D01*
X406571Y936741D01*
X407527Y931935D01*
X409402Y927407D01*
X412125Y923332D01*
X415590Y919866D01*
X419665Y917144D01*
X424193Y915268D01*
X429000Y914312D01*
X431450Y914192D01*
X1129658D01*
X1132109Y914312D01*
X1136916Y915268D01*
X1141443Y917144D01*
X1145518Y919866D01*
X1148984Y923332D01*
X1151706Y927407D01*
X1153582Y931935D01*
X1154538Y936741D01*
X1154658Y939192D01*
Y1504592D01*
Y1507054D01*
X1155619Y1511884D01*
X1157504Y1516434D01*
X1160240Y1520528D01*
X1163722Y1524010D01*
X1167816Y1526746D01*
X1172366Y1528631D01*
X1177196Y1529592D01*
X1238912D01*
X1243742Y1528631D01*
X1248292Y1526746D01*
X1252387Y1524010D01*
X1255869Y1520528D01*
X1258605Y1516434D01*
X1260489Y1511884D01*
X1261450Y1507054D01*
Y1504592D01*
X1261450Y889763D01*
Y887301D01*
X1260489Y882471D01*
X1258605Y877921D01*
X1255869Y873827D01*
X1254128Y872086D01*
X1254128Y872086D01*
Y872086D01*
X1203997Y821955D01*
X1202349Y820137D01*
X1199626Y816062D01*
X1197751Y811534D01*
X1196795Y806727D01*
X1196674Y804277D01*
Y364192D01*
X336226D01*
X336226Y804277D01*
X336105Y806727D01*
X335149Y811534D01*
X333274Y816062D01*
X330551Y820137D01*
X328903Y821955D01*
X328903Y821955D01*
X278772Y872086D01*
X277031Y873827D01*
X274295Y877921D01*
X272411Y882471D01*
X271450Y887301D01*
Y889763D01*
Y1504592D01*
Y1507054D01*
X272411Y1511884D01*
X274295Y1516434D01*
X277031Y1520528D01*
X280513Y1524010D01*
X284608Y1526746D01*
X289158Y1528631D01*
X293988Y1529592D01*
X296450D01*
X341450Y1555063D01*
X496450Y1555063D01*
D02*
G37*
%LPC*%
G36*
X429056Y1550908D02*
X426705Y1550441D01*
X424713Y1549109D01*
X423381Y1547117D01*
X422914Y1544766D01*
Y1536766D01*
X423381Y1534416D01*
X424713Y1532423D01*
X426705Y1531092D01*
X429056Y1530624D01*
X431406Y1531092D01*
X433399Y1532423D01*
X434730Y1534416D01*
X435198Y1536766D01*
Y1544766D01*
X434730Y1547117D01*
X433399Y1549109D01*
X431406Y1550441D01*
X429056Y1550908D01*
D02*
G37*
G36*
X342556D02*
X340205Y1550441D01*
X338213Y1549109D01*
X336881Y1547117D01*
X336414Y1544766D01*
Y1536766D01*
X336881Y1534416D01*
X338213Y1532423D01*
X340205Y1531092D01*
X342556Y1530624D01*
X344906Y1531092D01*
X346899Y1532423D01*
X348230Y1534416D01*
X348698Y1536766D01*
Y1544766D01*
X348230Y1547117D01*
X346899Y1549109D01*
X344906Y1550441D01*
X342556Y1550908D01*
D02*
G37*
G36*
X416505Y1515440D02*
X414606D01*
X412851Y1514713D01*
X412135Y1513997D01*
X411306Y1513494D01*
X410476Y1513997D01*
X409760Y1514713D01*
X408005Y1515440D01*
X406106D01*
X404351Y1514713D01*
X403635Y1513997D01*
X402806Y1513494D01*
X401976Y1513997D01*
X401260Y1514713D01*
X399505Y1515440D01*
X397606D01*
X395851Y1514713D01*
X395135Y1513997D01*
X394306Y1513494D01*
X393476Y1513997D01*
X392760Y1514713D01*
X391005Y1515440D01*
X389106D01*
X387351Y1514713D01*
X386635Y1513997D01*
X385806Y1513494D01*
X384976Y1513997D01*
X384260Y1514713D01*
X382505Y1515440D01*
X380606D01*
X378851Y1514713D01*
X378135Y1513997D01*
X377306Y1513494D01*
X376476Y1513997D01*
X375760Y1514713D01*
X374005Y1515440D01*
X372106D01*
X370351Y1514713D01*
X369635Y1513997D01*
X368806Y1513494D01*
X367976Y1513997D01*
X367260Y1514713D01*
X365505Y1515440D01*
X363606D01*
X361851Y1514713D01*
X361135Y1513997D01*
X360306Y1513494D01*
X359476Y1513997D01*
X358760Y1514713D01*
X357005Y1515440D01*
X355106D01*
X353351Y1514713D01*
X352009Y1513371D01*
X351282Y1511616D01*
Y1509717D01*
X352009Y1507962D01*
X353351Y1506619D01*
X355106Y1505892D01*
X357005D01*
X358760Y1506619D01*
X359476Y1507335D01*
X360306Y1507839D01*
X361135Y1507335D01*
X361851Y1506619D01*
X363606Y1505892D01*
X365505D01*
X367260Y1506619D01*
X367976Y1507335D01*
X368806Y1507839D01*
X369635Y1507335D01*
X370351Y1506619D01*
X372106Y1505892D01*
X374005D01*
X375760Y1506619D01*
X376476Y1507335D01*
X377306Y1507839D01*
X378135Y1507335D01*
X378851Y1506619D01*
X380606Y1505892D01*
X382505D01*
X384260Y1506619D01*
X384976Y1507335D01*
X385806Y1507839D01*
X386635Y1507335D01*
X387351Y1506619D01*
X389106Y1505892D01*
X391005D01*
X392760Y1506619D01*
X393476Y1507335D01*
X394306Y1507839D01*
X395135Y1507335D01*
X395851Y1506619D01*
X397606Y1505892D01*
X399505D01*
X401260Y1506619D01*
X401976Y1507335D01*
X402806Y1507839D01*
X403635Y1507335D01*
X404351Y1506619D01*
X406106Y1505892D01*
X408005D01*
X409760Y1506619D01*
X410476Y1507335D01*
X411306Y1507839D01*
X412135Y1507335D01*
X412851Y1506619D01*
X414606Y1505892D01*
X416505D01*
X418260Y1506619D01*
X419603Y1507962D01*
X420330Y1509717D01*
Y1511616D01*
X419603Y1513371D01*
X418260Y1514713D01*
X416505Y1515440D01*
D02*
G37*
G36*
Y1501940D02*
X414606D01*
X412851Y1501214D01*
X412135Y1500497D01*
X411306Y1499994D01*
X410476Y1500497D01*
X409760Y1501214D01*
X408005Y1501940D01*
X406106D01*
X404351Y1501214D01*
X403635Y1500497D01*
X402806Y1499994D01*
X401976Y1500497D01*
X401260Y1501214D01*
X399505Y1501940D01*
X397606D01*
X395851Y1501214D01*
X395135Y1500497D01*
X394306Y1499994D01*
X393476Y1500497D01*
X392760Y1501214D01*
X391005Y1501940D01*
X389106D01*
X387351Y1501214D01*
X386635Y1500497D01*
X385806Y1499994D01*
X384976Y1500497D01*
X384260Y1501214D01*
X382505Y1501940D01*
X380606D01*
X378851Y1501214D01*
X378135Y1500497D01*
X377306Y1499994D01*
X376476Y1500497D01*
X375760Y1501214D01*
X374005Y1501940D01*
X372106D01*
X370351Y1501214D01*
X369635Y1500497D01*
X368806Y1499994D01*
X367976Y1500497D01*
X367260Y1501214D01*
X365505Y1501940D01*
X363606D01*
X361851Y1501214D01*
X361135Y1500497D01*
X360306Y1499994D01*
X359476Y1500497D01*
X358760Y1501214D01*
X357005Y1501940D01*
X355106D01*
X353351Y1501214D01*
X352009Y1499870D01*
X351282Y1498116D01*
Y1496217D01*
X352009Y1494462D01*
X353351Y1493119D01*
X355106Y1492392D01*
X357005D01*
X358760Y1493119D01*
X359476Y1493835D01*
X360306Y1494339D01*
X361135Y1493835D01*
X361851Y1493119D01*
X363606Y1492392D01*
X365505D01*
X367260Y1493119D01*
X367976Y1493835D01*
X368806Y1494339D01*
X369635Y1493835D01*
X370351Y1493119D01*
X372106Y1492392D01*
X374005D01*
X375760Y1493119D01*
X376476Y1493835D01*
X377306Y1494339D01*
X378135Y1493835D01*
X378851Y1493119D01*
X380606Y1492392D01*
X382505D01*
X384260Y1493119D01*
X384976Y1493835D01*
X385806Y1494339D01*
X386635Y1493835D01*
X387351Y1493119D01*
X389106Y1492392D01*
X391005D01*
X392760Y1493119D01*
X393476Y1493835D01*
X394306Y1494339D01*
X395135Y1493835D01*
X395851Y1493119D01*
X397606Y1492392D01*
X399505D01*
X401260Y1493119D01*
X401976Y1493835D01*
X402806Y1494339D01*
X403635Y1493835D01*
X404351Y1493119D01*
X406106Y1492392D01*
X408005D01*
X409760Y1493119D01*
X410476Y1493835D01*
X411306Y1494339D01*
X412135Y1493835D01*
X412851Y1493119D01*
X414606Y1492392D01*
X416505D01*
X418260Y1493119D01*
X419603Y1494462D01*
X420330Y1496217D01*
Y1498116D01*
X419603Y1499870D01*
X418260Y1501214D01*
X416505Y1501940D01*
D02*
G37*
G36*
X458353Y1504051D02*
X456484D01*
X454757Y1503335D01*
X453435Y1502014D01*
X452719Y1500287D01*
Y1498417D01*
X453435Y1496690D01*
X454757Y1495368D01*
X456484Y1494653D01*
X458353D01*
X460080Y1495368D01*
X461402Y1496690D01*
X462117Y1498417D01*
Y1500287D01*
X461402Y1502014D01*
X460080Y1503335D01*
X458353Y1504051D01*
D02*
G37*
G36*
X429056Y1520608D02*
X426705Y1520141D01*
X424713Y1518809D01*
X423381Y1516817D01*
X422914Y1514466D01*
Y1499466D01*
X423381Y1497116D01*
X424713Y1495123D01*
X426705Y1493792D01*
X429056Y1493324D01*
X431406Y1493792D01*
X433399Y1495123D01*
X434730Y1497116D01*
X435198Y1499466D01*
Y1514466D01*
X434730Y1516817D01*
X433399Y1518809D01*
X431406Y1520141D01*
X429056Y1520608D01*
D02*
G37*
G36*
X342556D02*
X340205Y1520141D01*
X338213Y1518809D01*
X336881Y1516817D01*
X336414Y1514466D01*
Y1499466D01*
X336881Y1497116D01*
X338213Y1495123D01*
X340205Y1493792D01*
X342556Y1493324D01*
X344906Y1493792D01*
X346899Y1495123D01*
X348230Y1497116D01*
X348698Y1499466D01*
Y1514466D01*
X348230Y1516817D01*
X346899Y1518809D01*
X344906Y1520141D01*
X342556Y1520608D01*
D02*
G37*
G36*
X1226421Y1520716D02*
X1223166D01*
X1219973Y1520081D01*
X1216966Y1518835D01*
X1214260Y1517027D01*
X1211958Y1514725D01*
X1210150Y1512019D01*
X1208904Y1509012D01*
X1208269Y1505819D01*
Y1502564D01*
X1208904Y1499372D01*
X1210150Y1496365D01*
X1211958Y1493658D01*
X1214260Y1491357D01*
X1216966Y1489548D01*
X1219973Y1488303D01*
X1223166Y1487668D01*
X1226421D01*
X1229613Y1488303D01*
X1232620Y1489548D01*
X1235327Y1491357D01*
X1237628Y1493658D01*
X1239436Y1496365D01*
X1240682Y1499372D01*
X1241317Y1502564D01*
Y1505819D01*
X1240682Y1509012D01*
X1239436Y1512019D01*
X1237628Y1514725D01*
X1235327Y1517027D01*
X1232620Y1518835D01*
X1229613Y1520081D01*
X1226421Y1520716D01*
D02*
G37*
G36*
X309735D02*
X306480D01*
X303287Y1520081D01*
X300280Y1518835D01*
X297574Y1517027D01*
X295272Y1514725D01*
X293464Y1512019D01*
X292218Y1509012D01*
X291583Y1505819D01*
Y1502564D01*
X292218Y1499372D01*
X293464Y1496365D01*
X295272Y1493658D01*
X297574Y1491357D01*
X300280Y1489548D01*
X303287Y1488303D01*
X306480Y1487668D01*
X309735D01*
X312927Y1488303D01*
X315934Y1489548D01*
X318640Y1491357D01*
X320942Y1493658D01*
X322751Y1496365D01*
X323996Y1499372D01*
X324631Y1502564D01*
Y1505819D01*
X323996Y1509012D01*
X322751Y1512019D01*
X320942Y1514725D01*
X318640Y1517027D01*
X315934Y1518835D01*
X312927Y1520081D01*
X309735Y1520716D01*
D02*
G37*
G36*
X390990Y1484430D02*
X389121D01*
X387394Y1483714D01*
X386072Y1482393D01*
X386064Y1482374D01*
X384566Y1482076D01*
X383951Y1482690D01*
X382224Y1483406D01*
X380355D01*
X378628Y1482690D01*
X377306Y1481369D01*
X376591Y1479641D01*
Y1477772D01*
X377306Y1476045D01*
X378628Y1474723D01*
X380355Y1474008D01*
X382224D01*
X383951Y1474723D01*
X385273Y1476045D01*
X385281Y1476064D01*
X386779Y1476362D01*
X387394Y1475747D01*
X389121Y1475032D01*
X390990D01*
X392718Y1475747D01*
X394039Y1477069D01*
X394262Y1477606D01*
X395636D01*
X396016Y1476690D01*
X397337Y1475368D01*
X399064Y1474653D01*
X400934D01*
X402661Y1475368D01*
X403983Y1476690D01*
X404698Y1478417D01*
Y1480287D01*
X403983Y1482014D01*
X402661Y1483336D01*
X400934Y1484051D01*
X399064D01*
X397337Y1483336D01*
X396016Y1482014D01*
X395793Y1481477D01*
X394419D01*
X394039Y1482393D01*
X392718Y1483714D01*
X390990Y1484430D01*
D02*
G37*
G36*
X1225665Y1447316D02*
X1223921D01*
X1222236Y1446864D01*
X1220726Y1445992D01*
X1219493Y1444759D01*
X1218621Y1443248D01*
X1218169Y1441564D01*
Y1439820D01*
X1218621Y1438135D01*
X1219493Y1436624D01*
X1220726Y1435391D01*
X1222236Y1434519D01*
X1223921Y1434068D01*
X1225665D01*
X1227350Y1434519D01*
X1228860Y1435391D01*
X1230094Y1436624D01*
X1230966Y1438135D01*
X1231417Y1439820D01*
Y1441564D01*
X1230966Y1443248D01*
X1230094Y1444759D01*
X1228860Y1445992D01*
X1227350Y1446864D01*
X1225665Y1447316D01*
D02*
G37*
G36*
X308979D02*
X307235D01*
X305550Y1446864D01*
X304040Y1445992D01*
X302807Y1444759D01*
X301935Y1443248D01*
X301483Y1441564D01*
Y1439820D01*
X301935Y1438135D01*
X302807Y1436624D01*
X304040Y1435391D01*
X305550Y1434519D01*
X307235Y1434068D01*
X308979D01*
X310664Y1434519D01*
X312174Y1435391D01*
X313408Y1436624D01*
X314280Y1438135D01*
X314731Y1439820D01*
Y1441564D01*
X314280Y1443248D01*
X313408Y1444759D01*
X312174Y1445992D01*
X310664Y1446864D01*
X308979Y1447316D01*
D02*
G37*
G36*
X1225665Y1421916D02*
X1223921D01*
X1222236Y1421464D01*
X1220726Y1420592D01*
X1219493Y1419359D01*
X1218621Y1417849D01*
X1218169Y1416164D01*
Y1414420D01*
X1218621Y1412735D01*
X1219493Y1411225D01*
X1220726Y1409991D01*
X1222236Y1409119D01*
X1223921Y1408668D01*
X1225665D01*
X1227350Y1409119D01*
X1228860Y1409991D01*
X1230094Y1411225D01*
X1230966Y1412735D01*
X1231417Y1414420D01*
Y1416164D01*
X1230966Y1417849D01*
X1230094Y1419359D01*
X1228860Y1420592D01*
X1227350Y1421464D01*
X1225665Y1421916D01*
D02*
G37*
G36*
X308979D02*
X307235D01*
X305550Y1421464D01*
X304040Y1420592D01*
X302807Y1419359D01*
X301935Y1417849D01*
X301483Y1416164D01*
Y1414420D01*
X301935Y1412735D01*
X302807Y1411225D01*
X304040Y1409991D01*
X305550Y1409119D01*
X307235Y1408668D01*
X308979D01*
X310664Y1409119D01*
X312174Y1409991D01*
X313408Y1411225D01*
X314280Y1412735D01*
X314731Y1414420D01*
Y1416164D01*
X314280Y1417849D01*
X313408Y1419359D01*
X312174Y1420592D01*
X310664Y1421464D01*
X308979Y1421916D01*
D02*
G37*
G36*
X1225665Y1396516D02*
X1223921D01*
X1222236Y1396064D01*
X1220726Y1395192D01*
X1219493Y1393959D01*
X1218621Y1392448D01*
X1218169Y1390764D01*
Y1389020D01*
X1218621Y1387335D01*
X1219493Y1385824D01*
X1220726Y1384591D01*
X1222236Y1383719D01*
X1223921Y1383268D01*
X1225665D01*
X1227350Y1383719D01*
X1228860Y1384591D01*
X1230094Y1385824D01*
X1230966Y1387335D01*
X1231417Y1389020D01*
Y1390764D01*
X1230966Y1392448D01*
X1230094Y1393959D01*
X1228860Y1395192D01*
X1227350Y1396064D01*
X1225665Y1396516D01*
D02*
G37*
G36*
X308979D02*
X307235D01*
X305550Y1396064D01*
X304040Y1395192D01*
X302807Y1393959D01*
X301935Y1392448D01*
X301483Y1390764D01*
Y1389020D01*
X301935Y1387335D01*
X302807Y1385824D01*
X304040Y1384591D01*
X305550Y1383719D01*
X307235Y1383268D01*
X308979D01*
X310664Y1383719D01*
X312174Y1384591D01*
X313408Y1385824D01*
X314280Y1387335D01*
X314731Y1389020D01*
Y1390764D01*
X314280Y1392448D01*
X313408Y1393959D01*
X312174Y1395192D01*
X310664Y1396064D01*
X308979Y1396516D01*
D02*
G37*
G36*
X1225665Y1371116D02*
X1223921D01*
X1222236Y1370664D01*
X1220726Y1369792D01*
X1219493Y1368559D01*
X1218621Y1367048D01*
X1218169Y1365364D01*
Y1363620D01*
X1218621Y1361935D01*
X1219493Y1360424D01*
X1220726Y1359191D01*
X1222236Y1358319D01*
X1223921Y1357868D01*
X1225665D01*
X1227350Y1358319D01*
X1228860Y1359191D01*
X1230094Y1360424D01*
X1230966Y1361935D01*
X1231417Y1363620D01*
Y1365364D01*
X1230966Y1367048D01*
X1230094Y1368559D01*
X1228860Y1369792D01*
X1227350Y1370664D01*
X1225665Y1371116D01*
D02*
G37*
G36*
X308979D02*
X307235D01*
X305550Y1370664D01*
X304040Y1369792D01*
X302807Y1368559D01*
X301935Y1367048D01*
X301483Y1365364D01*
Y1363620D01*
X301935Y1361935D01*
X302807Y1360424D01*
X304040Y1359191D01*
X305550Y1358319D01*
X307235Y1357868D01*
X308979D01*
X310664Y1358319D01*
X312174Y1359191D01*
X313408Y1360424D01*
X314280Y1361935D01*
X314731Y1363620D01*
Y1365364D01*
X314280Y1367048D01*
X313408Y1368559D01*
X312174Y1369792D01*
X310664Y1370664D01*
X308979Y1371116D01*
D02*
G37*
G36*
X1225665Y1345716D02*
X1223921D01*
X1222236Y1345264D01*
X1220726Y1344392D01*
X1219493Y1343159D01*
X1218621Y1341649D01*
X1218169Y1339964D01*
Y1338220D01*
X1218621Y1336535D01*
X1219493Y1335025D01*
X1220726Y1333791D01*
X1222236Y1332919D01*
X1223921Y1332468D01*
X1225665D01*
X1227350Y1332919D01*
X1228860Y1333791D01*
X1230094Y1335025D01*
X1230966Y1336535D01*
X1231417Y1338220D01*
Y1339964D01*
X1230966Y1341649D01*
X1230094Y1343159D01*
X1228860Y1344392D01*
X1227350Y1345264D01*
X1225665Y1345716D01*
D02*
G37*
G36*
X308979D02*
X307235D01*
X305550Y1345264D01*
X304040Y1344392D01*
X302807Y1343159D01*
X301935Y1341649D01*
X301483Y1339964D01*
Y1338220D01*
X301935Y1336535D01*
X302807Y1335025D01*
X304040Y1333791D01*
X305550Y1332919D01*
X307235Y1332468D01*
X308979D01*
X310664Y1332919D01*
X312174Y1333791D01*
X313408Y1335025D01*
X314280Y1336535D01*
X314731Y1338220D01*
Y1339964D01*
X314280Y1341649D01*
X313408Y1343159D01*
X312174Y1344392D01*
X310664Y1345264D01*
X308979Y1345716D01*
D02*
G37*
G36*
X1225665Y1320316D02*
X1223921D01*
X1222236Y1319864D01*
X1220726Y1318992D01*
X1219493Y1317759D01*
X1218621Y1316248D01*
X1218169Y1314564D01*
Y1312820D01*
X1218621Y1311135D01*
X1219493Y1309624D01*
X1220726Y1308391D01*
X1222236Y1307519D01*
X1223921Y1307068D01*
X1225665D01*
X1227350Y1307519D01*
X1228860Y1308391D01*
X1230094Y1309624D01*
X1230966Y1311135D01*
X1231417Y1312820D01*
Y1314564D01*
X1230966Y1316248D01*
X1230094Y1317759D01*
X1228860Y1318992D01*
X1227350Y1319864D01*
X1225665Y1320316D01*
D02*
G37*
G36*
X308979D02*
X307235D01*
X305550Y1319864D01*
X304040Y1318992D01*
X302807Y1317759D01*
X301935Y1316248D01*
X301483Y1314564D01*
Y1312820D01*
X301935Y1311135D01*
X302807Y1309624D01*
X304040Y1308391D01*
X305550Y1307519D01*
X307235Y1307068D01*
X308979D01*
X310664Y1307519D01*
X312174Y1308391D01*
X313408Y1309624D01*
X314280Y1311135D01*
X314731Y1312820D01*
Y1314564D01*
X314280Y1316248D01*
X313408Y1317759D01*
X312174Y1318992D01*
X310664Y1319864D01*
X308979Y1320316D01*
D02*
G37*
G36*
X1225665Y1294916D02*
X1223921D01*
X1222236Y1294464D01*
X1220726Y1293592D01*
X1219493Y1292359D01*
X1218621Y1290849D01*
X1218169Y1289164D01*
Y1287420D01*
X1218621Y1285735D01*
X1219493Y1284225D01*
X1220726Y1282991D01*
X1222236Y1282119D01*
X1223921Y1281668D01*
X1225665D01*
X1227350Y1282119D01*
X1228860Y1282991D01*
X1230094Y1284225D01*
X1230966Y1285735D01*
X1231417Y1287420D01*
Y1289164D01*
X1230966Y1290849D01*
X1230094Y1292359D01*
X1228860Y1293592D01*
X1227350Y1294464D01*
X1225665Y1294916D01*
D02*
G37*
G36*
X308979D02*
X307235D01*
X305550Y1294464D01*
X304040Y1293592D01*
X302807Y1292359D01*
X301935Y1290849D01*
X301483Y1289164D01*
Y1287420D01*
X301935Y1285735D01*
X302807Y1284225D01*
X304040Y1282991D01*
X305550Y1282119D01*
X307235Y1281668D01*
X308979D01*
X310664Y1282119D01*
X312174Y1282991D01*
X313408Y1284225D01*
X314280Y1285735D01*
X314731Y1287420D01*
Y1289164D01*
X314280Y1290849D01*
X313408Y1292359D01*
X312174Y1293592D01*
X310664Y1294464D01*
X308979Y1294916D01*
D02*
G37*
G36*
X1225665Y1269516D02*
X1223921D01*
X1222236Y1269064D01*
X1220726Y1268192D01*
X1219493Y1266959D01*
X1218621Y1265449D01*
X1218169Y1263764D01*
Y1262020D01*
X1218621Y1260335D01*
X1219493Y1258824D01*
X1220726Y1257591D01*
X1222236Y1256719D01*
X1223921Y1256268D01*
X1225665D01*
X1227350Y1256719D01*
X1228860Y1257591D01*
X1230094Y1258824D01*
X1230966Y1260335D01*
X1231417Y1262020D01*
Y1263764D01*
X1230966Y1265449D01*
X1230094Y1266959D01*
X1228860Y1268192D01*
X1227350Y1269064D01*
X1225665Y1269516D01*
D02*
G37*
G36*
X308979D02*
X307235D01*
X305550Y1269064D01*
X304040Y1268192D01*
X302807Y1266959D01*
X301935Y1265449D01*
X301483Y1263764D01*
Y1262020D01*
X301935Y1260335D01*
X302807Y1258824D01*
X304040Y1257591D01*
X305550Y1256719D01*
X307235Y1256268D01*
X308979D01*
X310664Y1256719D01*
X312174Y1257591D01*
X313408Y1258824D01*
X314280Y1260335D01*
X314731Y1262020D01*
Y1263764D01*
X314280Y1265449D01*
X313408Y1266959D01*
X312174Y1268192D01*
X310664Y1269064D01*
X308979Y1269516D01*
D02*
G37*
G36*
X1225665Y1244116D02*
X1223921D01*
X1222236Y1243664D01*
X1220726Y1242792D01*
X1219493Y1241559D01*
X1218621Y1240049D01*
X1218169Y1238364D01*
Y1236620D01*
X1218621Y1234935D01*
X1219493Y1233425D01*
X1220726Y1232191D01*
X1222236Y1231319D01*
X1223921Y1230868D01*
X1225665D01*
X1227350Y1231319D01*
X1228860Y1232191D01*
X1230094Y1233425D01*
X1230966Y1234935D01*
X1231417Y1236620D01*
Y1238364D01*
X1230966Y1240049D01*
X1230094Y1241559D01*
X1228860Y1242792D01*
X1227350Y1243664D01*
X1225665Y1244116D01*
D02*
G37*
G36*
X308979D02*
X307235D01*
X305550Y1243664D01*
X304040Y1242792D01*
X302807Y1241559D01*
X301935Y1240049D01*
X301483Y1238364D01*
Y1236620D01*
X301935Y1234935D01*
X302807Y1233425D01*
X304040Y1232191D01*
X305550Y1231319D01*
X307235Y1230868D01*
X308979D01*
X310664Y1231319D01*
X312174Y1232191D01*
X313408Y1233425D01*
X314280Y1234935D01*
X314731Y1236620D01*
Y1238364D01*
X314280Y1240049D01*
X313408Y1241559D01*
X312174Y1242792D01*
X310664Y1243664D01*
X308979Y1244116D01*
D02*
G37*
G36*
X1225665Y1218716D02*
X1223921D01*
X1222236Y1218264D01*
X1220726Y1217392D01*
X1219493Y1216159D01*
X1218621Y1214649D01*
X1218169Y1212964D01*
Y1211220D01*
X1218621Y1209535D01*
X1219493Y1208025D01*
X1220726Y1206791D01*
X1222236Y1205919D01*
X1223921Y1205468D01*
X1225665D01*
X1227350Y1205919D01*
X1228860Y1206791D01*
X1230094Y1208025D01*
X1230966Y1209535D01*
X1231417Y1211220D01*
Y1212964D01*
X1230966Y1214649D01*
X1230094Y1216159D01*
X1228860Y1217392D01*
X1227350Y1218264D01*
X1225665Y1218716D01*
D02*
G37*
G36*
X308979D02*
X307235D01*
X305550Y1218264D01*
X304040Y1217392D01*
X302807Y1216159D01*
X301935Y1214649D01*
X301483Y1212964D01*
Y1211220D01*
X301935Y1209535D01*
X302807Y1208025D01*
X304040Y1206791D01*
X305550Y1205919D01*
X307235Y1205468D01*
X308979D01*
X310664Y1205919D01*
X312174Y1206791D01*
X313408Y1208025D01*
X314280Y1209535D01*
X314731Y1211220D01*
Y1212964D01*
X314280Y1214649D01*
X313408Y1216159D01*
X312174Y1217392D01*
X310664Y1218264D01*
X308979Y1218716D01*
D02*
G37*
G36*
X1225665Y1193316D02*
X1223921D01*
X1222236Y1192864D01*
X1220726Y1191992D01*
X1219493Y1190759D01*
X1218621Y1189249D01*
X1218169Y1187564D01*
Y1185820D01*
X1218621Y1184135D01*
X1219493Y1182625D01*
X1220726Y1181391D01*
X1222236Y1180519D01*
X1223921Y1180068D01*
X1225665D01*
X1227350Y1180519D01*
X1228860Y1181391D01*
X1230094Y1182625D01*
X1230966Y1184135D01*
X1231417Y1185820D01*
Y1187564D01*
X1230966Y1189249D01*
X1230094Y1190759D01*
X1228860Y1191992D01*
X1227350Y1192864D01*
X1225665Y1193316D01*
D02*
G37*
G36*
X308979D02*
X307235D01*
X305550Y1192864D01*
X304040Y1191992D01*
X302807Y1190759D01*
X301935Y1189249D01*
X301483Y1187564D01*
Y1185820D01*
X301935Y1184135D01*
X302807Y1182625D01*
X304040Y1181391D01*
X305550Y1180519D01*
X307235Y1180068D01*
X308979D01*
X310664Y1180519D01*
X312174Y1181391D01*
X313408Y1182625D01*
X314280Y1184135D01*
X314731Y1185820D01*
Y1187564D01*
X314280Y1189249D01*
X313408Y1190759D01*
X312174Y1191992D01*
X310664Y1192864D01*
X308979Y1193316D01*
D02*
G37*
G36*
X1225665Y1167916D02*
X1223921D01*
X1222236Y1167464D01*
X1220726Y1166592D01*
X1219493Y1165359D01*
X1218621Y1163848D01*
X1218169Y1162164D01*
Y1160420D01*
X1218621Y1158735D01*
X1219493Y1157225D01*
X1220726Y1155991D01*
X1222236Y1155119D01*
X1223921Y1154668D01*
X1225665D01*
X1227350Y1155119D01*
X1228860Y1155991D01*
X1230094Y1157225D01*
X1230966Y1158735D01*
X1231417Y1160420D01*
Y1162164D01*
X1230966Y1163848D01*
X1230094Y1165359D01*
X1228860Y1166592D01*
X1227350Y1167464D01*
X1225665Y1167916D01*
D02*
G37*
G36*
X308979D02*
X307235D01*
X305550Y1167464D01*
X304040Y1166592D01*
X302807Y1165359D01*
X301935Y1163848D01*
X301483Y1162164D01*
Y1160420D01*
X301935Y1158735D01*
X302807Y1157225D01*
X304040Y1155991D01*
X305550Y1155119D01*
X307235Y1154668D01*
X308979D01*
X310664Y1155119D01*
X312174Y1155991D01*
X313408Y1157225D01*
X314280Y1158735D01*
X314731Y1160420D01*
Y1162164D01*
X314280Y1163848D01*
X313408Y1165359D01*
X312174Y1166592D01*
X310664Y1167464D01*
X308979Y1167916D01*
D02*
G37*
G36*
X1225665Y1142516D02*
X1223921D01*
X1222236Y1142064D01*
X1220726Y1141192D01*
X1219493Y1139959D01*
X1218621Y1138448D01*
X1218169Y1136764D01*
Y1135020D01*
X1218621Y1133335D01*
X1219493Y1131824D01*
X1220726Y1130591D01*
X1222236Y1129719D01*
X1223921Y1129268D01*
X1225665D01*
X1227350Y1129719D01*
X1228860Y1130591D01*
X1230094Y1131824D01*
X1230966Y1133335D01*
X1231417Y1135020D01*
Y1136764D01*
X1230966Y1138448D01*
X1230094Y1139959D01*
X1228860Y1141192D01*
X1227350Y1142064D01*
X1225665Y1142516D01*
D02*
G37*
G36*
X308979D02*
X307235D01*
X305550Y1142064D01*
X304040Y1141192D01*
X302807Y1139959D01*
X301935Y1138448D01*
X301483Y1136764D01*
Y1135020D01*
X301935Y1133335D01*
X302807Y1131824D01*
X304040Y1130591D01*
X305550Y1129719D01*
X307235Y1129268D01*
X308979D01*
X310664Y1129719D01*
X312174Y1130591D01*
X313408Y1131824D01*
X314280Y1133335D01*
X314731Y1135020D01*
Y1136764D01*
X314280Y1138448D01*
X313408Y1139959D01*
X312174Y1141192D01*
X310664Y1142064D01*
X308979Y1142516D01*
D02*
G37*
G36*
X1225665Y1117116D02*
X1223921D01*
X1222236Y1116664D01*
X1220726Y1115792D01*
X1219493Y1114559D01*
X1218621Y1113048D01*
X1218169Y1111364D01*
Y1109620D01*
X1218621Y1107935D01*
X1219493Y1106424D01*
X1220726Y1105191D01*
X1222236Y1104319D01*
X1223921Y1103868D01*
X1225665D01*
X1227350Y1104319D01*
X1228860Y1105191D01*
X1230094Y1106424D01*
X1230966Y1107935D01*
X1231417Y1109620D01*
Y1111364D01*
X1230966Y1113048D01*
X1230094Y1114559D01*
X1228860Y1115792D01*
X1227350Y1116664D01*
X1225665Y1117116D01*
D02*
G37*
G36*
X308979D02*
X307235D01*
X305550Y1116664D01*
X304040Y1115792D01*
X302807Y1114559D01*
X301935Y1113048D01*
X301483Y1111364D01*
Y1109620D01*
X301935Y1107935D01*
X302807Y1106424D01*
X304040Y1105191D01*
X305550Y1104319D01*
X307235Y1103868D01*
X308979D01*
X310664Y1104319D01*
X312174Y1105191D01*
X313408Y1106424D01*
X314280Y1107935D01*
X314731Y1109620D01*
Y1111364D01*
X314280Y1113048D01*
X313408Y1114559D01*
X312174Y1115792D01*
X310664Y1116664D01*
X308979Y1117116D01*
D02*
G37*
G36*
X1225665Y1091716D02*
X1223921D01*
X1222236Y1091264D01*
X1220726Y1090392D01*
X1219493Y1089159D01*
X1218621Y1087648D01*
X1218169Y1085964D01*
Y1084220D01*
X1218621Y1082535D01*
X1219493Y1081024D01*
X1220726Y1079791D01*
X1222236Y1078919D01*
X1223921Y1078468D01*
X1225665D01*
X1227350Y1078919D01*
X1228860Y1079791D01*
X1230094Y1081024D01*
X1230966Y1082535D01*
X1231417Y1084220D01*
Y1085964D01*
X1230966Y1087648D01*
X1230094Y1089159D01*
X1228860Y1090392D01*
X1227350Y1091264D01*
X1225665Y1091716D01*
D02*
G37*
G36*
X308979D02*
X307235D01*
X305550Y1091264D01*
X304040Y1090392D01*
X302807Y1089159D01*
X301935Y1087648D01*
X301483Y1085964D01*
Y1084220D01*
X301935Y1082535D01*
X302807Y1081024D01*
X304040Y1079791D01*
X305550Y1078919D01*
X307235Y1078468D01*
X308979D01*
X310664Y1078919D01*
X312174Y1079791D01*
X313408Y1081024D01*
X314280Y1082535D01*
X314731Y1084220D01*
Y1085964D01*
X314280Y1087648D01*
X313408Y1089159D01*
X312174Y1090392D01*
X310664Y1091264D01*
X308979Y1091716D01*
D02*
G37*
G36*
X1225665Y1066316D02*
X1223921D01*
X1222236Y1065864D01*
X1220726Y1064992D01*
X1219493Y1063759D01*
X1218621Y1062249D01*
X1218169Y1060564D01*
Y1058820D01*
X1218621Y1057135D01*
X1219493Y1055624D01*
X1220726Y1054391D01*
X1222236Y1053519D01*
X1223921Y1053068D01*
X1225665D01*
X1227350Y1053519D01*
X1228860Y1054391D01*
X1230094Y1055624D01*
X1230966Y1057135D01*
X1231417Y1058820D01*
Y1060564D01*
X1230966Y1062249D01*
X1230094Y1063759D01*
X1228860Y1064992D01*
X1227350Y1065864D01*
X1225665Y1066316D01*
D02*
G37*
G36*
X308979D02*
X307235D01*
X305550Y1065864D01*
X304040Y1064992D01*
X302807Y1063759D01*
X301935Y1062249D01*
X301483Y1060564D01*
Y1058820D01*
X301935Y1057135D01*
X302807Y1055624D01*
X304040Y1054391D01*
X305550Y1053519D01*
X307235Y1053068D01*
X308979D01*
X310664Y1053519D01*
X312174Y1054391D01*
X313408Y1055624D01*
X314280Y1057135D01*
X314731Y1058820D01*
Y1060564D01*
X314280Y1062249D01*
X313408Y1063759D01*
X312174Y1064992D01*
X310664Y1065864D01*
X308979Y1066316D01*
D02*
G37*
G36*
X1225665Y1040916D02*
X1223921D01*
X1222236Y1040464D01*
X1220726Y1039592D01*
X1219493Y1038359D01*
X1218621Y1036849D01*
X1218169Y1035164D01*
Y1033420D01*
X1218621Y1031735D01*
X1219493Y1030225D01*
X1220726Y1028991D01*
X1222236Y1028119D01*
X1223921Y1027668D01*
X1225665D01*
X1227350Y1028119D01*
X1228860Y1028991D01*
X1230094Y1030225D01*
X1230966Y1031735D01*
X1231417Y1033420D01*
Y1035164D01*
X1230966Y1036849D01*
X1230094Y1038359D01*
X1228860Y1039592D01*
X1227350Y1040464D01*
X1225665Y1040916D01*
D02*
G37*
G36*
X308979D02*
X307235D01*
X305550Y1040464D01*
X304040Y1039592D01*
X302807Y1038359D01*
X301935Y1036849D01*
X301483Y1035164D01*
Y1033420D01*
X301935Y1031735D01*
X302807Y1030225D01*
X304040Y1028991D01*
X305550Y1028119D01*
X307235Y1027668D01*
X308979D01*
X310664Y1028119D01*
X312174Y1028991D01*
X313408Y1030225D01*
X314280Y1031735D01*
X314731Y1033420D01*
Y1035164D01*
X314280Y1036849D01*
X313408Y1038359D01*
X312174Y1039592D01*
X310664Y1040464D01*
X308979Y1040916D01*
D02*
G37*
G36*
X325067Y1024435D02*
X323197D01*
X321470Y1023720D01*
X320149Y1022398D01*
X319433Y1020671D01*
Y1018801D01*
X320149Y1017074D01*
X321470Y1015753D01*
X323197Y1015037D01*
X325067D01*
X326794Y1015753D01*
X328116Y1017074D01*
X328831Y1018801D01*
Y1020671D01*
X328116Y1022398D01*
X326794Y1023720D01*
X325067Y1024435D01*
D02*
G37*
G36*
X1225665Y1015516D02*
X1223921D01*
X1222236Y1015064D01*
X1220726Y1014192D01*
X1219493Y1012959D01*
X1218621Y1011449D01*
X1218169Y1009764D01*
Y1008020D01*
X1218621Y1006335D01*
X1219493Y1004825D01*
X1220726Y1003591D01*
X1222236Y1002719D01*
X1223921Y1002268D01*
X1225665D01*
X1227350Y1002719D01*
X1228860Y1003591D01*
X1230094Y1004825D01*
X1230966Y1006335D01*
X1231417Y1008020D01*
Y1009764D01*
X1230966Y1011449D01*
X1230094Y1012959D01*
X1228860Y1014192D01*
X1227350Y1015064D01*
X1225665Y1015516D01*
D02*
G37*
G36*
X308979D02*
X307235D01*
X305550Y1015064D01*
X304040Y1014192D01*
X302807Y1012959D01*
X301935Y1011449D01*
X301483Y1009764D01*
Y1008020D01*
X301935Y1006335D01*
X302807Y1004825D01*
X304040Y1003591D01*
X305550Y1002719D01*
X307235Y1002268D01*
X308979D01*
X310664Y1002719D01*
X312174Y1003591D01*
X313408Y1004825D01*
X314280Y1006335D01*
X314731Y1008020D01*
Y1009764D01*
X314280Y1011449D01*
X313408Y1012959D01*
X312174Y1014192D01*
X310664Y1015064D01*
X308979Y1015516D01*
D02*
G37*
G36*
X331036Y1002116D02*
X329166D01*
X327439Y1001401D01*
X326118Y1000079D01*
X325402Y998352D01*
Y996483D01*
X326118Y994756D01*
X327439Y993434D01*
X329166Y992718D01*
X331036D01*
X332763Y993434D01*
X334085Y994756D01*
X334800Y996483D01*
Y998352D01*
X334085Y1000079D01*
X332763Y1001401D01*
X331036Y1002116D01*
D02*
G37*
G36*
X1225665Y990116D02*
X1223921D01*
X1222236Y989664D01*
X1220726Y988792D01*
X1219493Y987559D01*
X1218621Y986049D01*
X1218169Y984364D01*
Y982620D01*
X1218621Y980935D01*
X1219493Y979425D01*
X1220726Y978191D01*
X1222236Y977319D01*
X1223921Y976868D01*
X1225665D01*
X1227350Y977319D01*
X1228860Y978191D01*
X1230094Y979425D01*
X1230966Y980935D01*
X1231417Y982620D01*
Y984364D01*
X1230966Y986049D01*
X1230094Y987559D01*
X1228860Y988792D01*
X1227350Y989664D01*
X1225665Y990116D01*
D02*
G37*
G36*
X308979D02*
X307235D01*
X305550Y989664D01*
X304040Y988792D01*
X302807Y987559D01*
X301935Y986049D01*
X301483Y984364D01*
Y982620D01*
X301935Y980935D01*
X302807Y979425D01*
X304040Y978191D01*
X305550Y977319D01*
X307235Y976868D01*
X308979D01*
X310664Y977319D01*
X312174Y978191D01*
X313408Y979425D01*
X314280Y980935D01*
X314731Y982620D01*
Y984364D01*
X314280Y986049D01*
X313408Y987559D01*
X312174Y988792D01*
X310664Y989664D01*
X308979Y990116D01*
D02*
G37*
G36*
X326672Y974548D02*
Y971954D01*
X329266D01*
X328977Y972651D01*
X327369Y974259D01*
X326672Y974548D01*
D02*
G37*
G36*
X321592D02*
X320895Y974259D01*
X319287Y972651D01*
X318998Y971954D01*
X321592D01*
Y974548D01*
D02*
G37*
G36*
X293017Y976134D02*
X291147D01*
X289420Y975419D01*
X288099Y974097D01*
X287383Y972370D01*
Y970501D01*
X288099Y968774D01*
X289420Y967452D01*
X291147Y966737D01*
X293017D01*
X294744Y967452D01*
X296066Y968774D01*
X296781Y970501D01*
Y972370D01*
X296066Y974097D01*
X294744Y975419D01*
X293017Y976134D01*
D02*
G37*
G36*
X329266Y966874D02*
X326672D01*
Y964280D01*
X327369Y964569D01*
X328977Y966176D01*
X329266Y966874D01*
D02*
G37*
G36*
X321592D02*
X318998D01*
X319287Y966176D01*
X320895Y964569D01*
X321592Y964280D01*
Y966874D01*
D02*
G37*
G36*
X1225665Y964716D02*
X1223921D01*
X1222236Y964264D01*
X1220726Y963392D01*
X1219493Y962159D01*
X1218621Y960648D01*
X1218169Y958964D01*
Y957220D01*
X1218621Y955535D01*
X1219493Y954025D01*
X1220726Y952791D01*
X1222236Y951919D01*
X1223921Y951468D01*
X1225665D01*
X1227350Y951919D01*
X1228860Y952791D01*
X1230094Y954025D01*
X1230966Y955535D01*
X1231417Y957220D01*
Y958964D01*
X1230966Y960648D01*
X1230094Y962159D01*
X1228860Y963392D01*
X1227350Y964264D01*
X1225665Y964716D01*
D02*
G37*
G36*
X308979D02*
X307235D01*
X305550Y964264D01*
X304040Y963392D01*
X302807Y962159D01*
X301935Y960648D01*
X301483Y958964D01*
Y957220D01*
X301935Y955535D01*
X302807Y954025D01*
X304040Y952791D01*
X305550Y951919D01*
X307235Y951468D01*
X308979D01*
X310664Y951919D01*
X312174Y952791D01*
X313408Y954025D01*
X314280Y955535D01*
X314731Y957220D01*
Y958964D01*
X314280Y960648D01*
X313408Y962159D01*
X312174Y963392D01*
X310664Y964264D01*
X308979Y964716D01*
D02*
G37*
G36*
X304805Y931794D02*
X302936D01*
X301209Y931078D01*
X299887Y929757D01*
X299171Y928030D01*
Y926160D01*
X299887Y924433D01*
X301209Y923111D01*
X302936Y922396D01*
X304805D01*
X306532Y923111D01*
X307854Y924433D01*
X308569Y926160D01*
Y928030D01*
X307854Y929757D01*
X306532Y931078D01*
X304805Y931794D01*
D02*
G37*
G36*
X1045449Y909858D02*
X1043579D01*
X1041852Y909143D01*
X1040530Y907821D01*
X1039815Y906094D01*
Y904225D01*
X1040530Y902498D01*
X1041852Y901176D01*
X1043579Y900461D01*
X1045449D01*
X1047176Y901176D01*
X1048498Y902498D01*
X1049213Y904225D01*
Y906094D01*
X1048498Y907821D01*
X1047176Y909143D01*
X1045449Y909858D01*
D02*
G37*
G36*
X573837D02*
X571967D01*
X570240Y909143D01*
X568918Y907821D01*
X568203Y906094D01*
Y904225D01*
X568918Y902498D01*
X570240Y901176D01*
X571967Y900461D01*
X573837D01*
X575564Y901176D01*
X576886Y902498D01*
X577601Y904225D01*
Y906094D01*
X576886Y907821D01*
X575564Y909143D01*
X573837Y909858D01*
D02*
G37*
G36*
X548030D02*
X546161D01*
X544434Y909143D01*
X543112Y907821D01*
X542397Y906094D01*
Y904225D01*
X543112Y902498D01*
X544434Y901176D01*
X546161Y900461D01*
X548030D01*
X549757Y901176D01*
X551079Y902498D01*
X551795Y904225D01*
Y906094D01*
X551079Y907821D01*
X549757Y909143D01*
X548030Y909858D01*
D02*
G37*
G36*
X522869D02*
X521000D01*
X519273Y909143D01*
X517951Y907821D01*
X517235Y906094D01*
Y904225D01*
X517951Y902498D01*
X519273Y901176D01*
X521000Y900461D01*
X522869D01*
X524596Y901176D01*
X525918Y902498D01*
X526633Y904225D01*
Y906094D01*
X525918Y907821D01*
X524596Y909143D01*
X522869Y909858D01*
D02*
G37*
G36*
X1016884Y909391D02*
X1015015D01*
X1013288Y908675D01*
X1011966Y907354D01*
X1011251Y905626D01*
Y903757D01*
X1011966Y902030D01*
X1013288Y900708D01*
X1015015Y899993D01*
X1016884D01*
X1018611Y900708D01*
X1019933Y902030D01*
X1020649Y903757D01*
Y905626D01*
X1019933Y907354D01*
X1018611Y908675D01*
X1016884Y909391D01*
D02*
G37*
G36*
X651724D02*
X649854D01*
X648127Y908675D01*
X646805Y907354D01*
X646090Y905626D01*
Y903757D01*
X646805Y902030D01*
X648127Y900708D01*
X649854Y899993D01*
X651724D01*
X653451Y900708D01*
X654773Y902030D01*
X655488Y903757D01*
Y905626D01*
X654773Y907354D01*
X653451Y908675D01*
X651724Y909391D01*
D02*
G37*
G36*
X846094Y909213D02*
X844225D01*
X842498Y908498D01*
X841176Y907176D01*
X840461Y905449D01*
Y903580D01*
X841176Y901853D01*
X842498Y900531D01*
X844225Y899815D01*
X846094D01*
X847821Y900531D01*
X849143Y901853D01*
X849859Y903580D01*
Y905449D01*
X849143Y907176D01*
X847821Y908498D01*
X846094Y909213D01*
D02*
G37*
G36*
X730611D02*
X728741D01*
X727014Y908498D01*
X725692Y907176D01*
X724977Y905449D01*
Y903580D01*
X725692Y901853D01*
X727014Y900531D01*
X728741Y899815D01*
X730611D01*
X732338Y900531D01*
X733660Y901853D01*
X734375Y903580D01*
Y905449D01*
X733660Y907176D01*
X732338Y908498D01*
X730611Y909213D01*
D02*
G37*
G36*
X701579D02*
X699709D01*
X697982Y908498D01*
X696660Y907176D01*
X695945Y905449D01*
Y903580D01*
X696660Y901853D01*
X697982Y900531D01*
X699709Y899815D01*
X701579D01*
X703306Y900531D01*
X704627Y901853D01*
X705343Y903580D01*
Y905449D01*
X704627Y907176D01*
X703306Y908498D01*
X701579Y909213D01*
D02*
G37*
G36*
X674482D02*
X672612D01*
X670885Y908498D01*
X669563Y907176D01*
X668848Y905449D01*
Y903580D01*
X669563Y901853D01*
X670885Y900531D01*
X672612Y899815D01*
X674482D01*
X676209Y900531D01*
X677531Y901853D01*
X678246Y903580D01*
Y905449D01*
X677531Y907176D01*
X676209Y908498D01*
X674482Y909213D01*
D02*
G37*
G36*
X603514D02*
X601645D01*
X599918Y908498D01*
X598596Y907176D01*
X597880Y905449D01*
Y903580D01*
X598596Y901853D01*
X599918Y900531D01*
X601645Y899815D01*
X603514D01*
X605241Y900531D01*
X606563Y901853D01*
X607278Y903580D01*
Y905449D01*
X606563Y907176D01*
X605241Y908498D01*
X603514Y909213D01*
D02*
G37*
G36*
X497708D02*
X495839D01*
X494111Y908498D01*
X492790Y907176D01*
X492074Y905449D01*
Y903580D01*
X492790Y901853D01*
X494111Y900531D01*
X495839Y899815D01*
X497708D01*
X499435Y900531D01*
X500757Y901853D01*
X501472Y903580D01*
Y905449D01*
X500757Y907176D01*
X499435Y908498D01*
X497708Y909213D01*
D02*
G37*
G36*
X626095Y908568D02*
X624225D01*
X622498Y907853D01*
X621176Y906531D01*
X620461Y904804D01*
Y902934D01*
X621176Y901207D01*
X622498Y899886D01*
X624225Y899170D01*
X626095D01*
X627822Y899886D01*
X629144Y901207D01*
X629859Y902934D01*
Y904804D01*
X629144Y906531D01*
X627822Y907853D01*
X626095Y908568D01*
D02*
G37*
G36*
X376773Y933525D02*
X376773Y933525D01*
X352613D01*
X351523Y933308D01*
X350599Y932691D01*
X350598Y932691D01*
X340755Y922847D01*
X323796D01*
X322661Y923982D01*
X320934Y924697D01*
X319065D01*
X317338Y923982D01*
X316016Y922660D01*
X315300Y920933D01*
Y919063D01*
X316016Y917336D01*
X317338Y916015D01*
X319065Y915299D01*
X320934D01*
X322661Y916015D01*
X323796Y917149D01*
X341935D01*
X341935Y917149D01*
X343025Y917366D01*
X343949Y917984D01*
X353793Y927828D01*
X356334D01*
X356820Y926654D01*
X356049Y925883D01*
X355432Y924959D01*
X355215Y923869D01*
X355215Y923869D01*
Y918633D01*
X354080Y917499D01*
X353365Y915772D01*
Y913902D01*
X354080Y912175D01*
X355402Y910853D01*
X357129Y910138D01*
X358998D01*
X360726Y910853D01*
X362047Y912175D01*
X362763Y913902D01*
Y915772D01*
X362047Y917499D01*
X360913Y918633D01*
Y922689D01*
X361987Y923764D01*
X366444D01*
X367292Y922494D01*
X366913Y921578D01*
Y919709D01*
X367629Y917982D01*
X368763Y916847D01*
Y911611D01*
X368763Y911611D01*
X368980Y910521D01*
X369598Y909597D01*
X374545Y904650D01*
X374634Y904200D01*
X375252Y903275D01*
X378748Y899779D01*
X378748Y899779D01*
X379142Y899516D01*
X378757Y898246D01*
X378419D01*
X376692Y897530D01*
X375370Y896208D01*
X374655Y894481D01*
Y892612D01*
X374764Y892348D01*
X373688Y891629D01*
X365343Y899973D01*
Y901578D01*
X364628Y903305D01*
X363306Y904627D01*
X361579Y905342D01*
X359710D01*
X357983Y904627D01*
X356661Y903305D01*
X355945Y901578D01*
Y899709D01*
X356661Y897982D01*
X357983Y896660D01*
X359710Y895944D01*
X361315D01*
X370104Y887155D01*
X369478Y885984D01*
X366511Y886575D01*
X362862D01*
X359283Y885863D01*
X355912Y884467D01*
X352878Y882439D01*
X350298Y879859D01*
X349011Y877933D01*
X347741Y878319D01*
Y886681D01*
X348467Y886982D01*
X349789Y888304D01*
X350505Y890031D01*
Y891901D01*
X349789Y893628D01*
X348467Y894950D01*
X346740Y895665D01*
X344871D01*
X343144Y894950D01*
X341822Y893628D01*
X341107Y891901D01*
Y890031D01*
X341822Y888304D01*
X342128Y887998D01*
X342043Y887573D01*
X342043Y887573D01*
Y880293D01*
X340774Y880040D01*
X340757Y880079D01*
X339435Y881401D01*
X337708Y882117D01*
X335839D01*
X334112Y881401D01*
X332790Y880079D01*
X332075Y878352D01*
Y876483D01*
X332790Y874756D01*
X333925Y873621D01*
Y865991D01*
X332655Y865408D01*
X331257Y865988D01*
X329387D01*
X327660Y865272D01*
X326338Y863950D01*
X325623Y862223D01*
Y860354D01*
X326338Y858627D01*
X327660Y857305D01*
X329387Y856590D01*
X330992D01*
X365275Y822307D01*
X365275Y822307D01*
X366199Y821690D01*
X367289Y821473D01*
X719982D01*
X720508Y820203D01*
X719670Y819365D01*
X719381Y818667D01*
X729649D01*
X729360Y819365D01*
X728522Y820203D01*
X729048Y821473D01*
X749023D01*
X749686Y820481D01*
Y818612D01*
X750402Y816885D01*
X751723Y815563D01*
X753450Y814847D01*
X755320D01*
X757047Y815563D01*
X758369Y816885D01*
X759084Y818612D01*
Y820481D01*
X758369Y822208D01*
X757047Y823530D01*
X756879Y824362D01*
X757778Y825537D01*
X758783D01*
X759917Y824402D01*
X761644Y823686D01*
X763514D01*
X765241Y824402D01*
X766563Y825724D01*
X767278Y827451D01*
Y829320D01*
X767137Y829661D01*
X767904Y830890D01*
X768837Y830966D01*
X769595Y830208D01*
X771322Y829493D01*
X773191D01*
X774918Y830208D01*
X776240Y831530D01*
X776955Y833257D01*
Y835127D01*
X776848Y835387D01*
X777602Y836885D01*
X777840Y836945D01*
X778389Y836395D01*
X780116Y835680D01*
X781986D01*
X783713Y836395D01*
X785035Y837717D01*
X785750Y839444D01*
Y840716D01*
X786719Y841697D01*
X786923Y841778D01*
X787066Y841749D01*
X787066Y841749D01*
X788693D01*
X788918Y841208D01*
X790240Y839886D01*
X791967Y839170D01*
X793836D01*
X795563Y839886D01*
X796885Y841208D01*
X797601Y842935D01*
Y844804D01*
X796885Y846531D01*
X796484Y846933D01*
X797010Y848203D01*
X798353D01*
X800079Y848918D01*
X801401Y850240D01*
X802117Y851967D01*
Y853836D01*
X802606Y854569D01*
X804589D01*
X805724Y853434D01*
X807451Y852719D01*
X809320D01*
X811047Y853434D01*
X812369Y854756D01*
X813084Y856483D01*
Y858352D01*
X812369Y860079D01*
X811047Y861401D01*
X809320Y862117D01*
X807451D01*
X805724Y861401D01*
X804589Y860266D01*
X802523D01*
X801905Y860885D01*
X800980Y861502D01*
X799890Y861719D01*
X799890Y861719D01*
X795143D01*
X794633Y862989D01*
X795595Y863951D01*
X796310Y865678D01*
Y867547D01*
X795931Y868463D01*
X796780Y869733D01*
X806880D01*
X819919Y856694D01*
X819920Y856694D01*
X820844Y856076D01*
X821934Y855859D01*
X833621D01*
X834756Y854724D01*
X836483Y854009D01*
X838352D01*
X840079Y854724D01*
X841401Y856046D01*
X842117Y857773D01*
Y859643D01*
X841401Y861370D01*
X840079Y862692D01*
X838352Y863407D01*
X836483D01*
X834756Y862692D01*
X833621Y861557D01*
X823114D01*
X810075Y874596D01*
X809150Y875213D01*
X808060Y875430D01*
X808060Y875430D01*
X793484D01*
X793232Y876700D01*
X795635Y879102D01*
X797662Y882136D01*
X799058Y885508D01*
X799770Y889086D01*
Y892735D01*
X799058Y896314D01*
X797662Y899685D01*
X795635Y902719D01*
X793055Y905299D01*
X790021Y907327D01*
X786649Y908723D01*
X783071Y909435D01*
X779422D01*
X775843Y908723D01*
X772472Y907327D01*
X769438Y905299D01*
X766858Y902719D01*
X764830Y899685D01*
X763434Y896314D01*
X762722Y892735D01*
Y889086D01*
X763434Y885508D01*
X764830Y882136D01*
X766858Y879102D01*
X769438Y876522D01*
X772472Y874495D01*
X775843Y873099D01*
X779422Y872387D01*
X783071D01*
X783228Y872418D01*
X783827Y871298D01*
X778998Y866469D01*
X545742D01*
X545417Y867221D01*
X545353Y867739D01*
X546563Y868949D01*
X547279Y870676D01*
Y872546D01*
X546563Y874273D01*
X545241Y875595D01*
X543514Y876310D01*
X541645D01*
X541585Y876285D01*
X540613Y877258D01*
X540827Y877773D01*
Y879643D01*
X540112Y881370D01*
X538790Y882691D01*
X537063Y883407D01*
X535193D01*
X533466Y882691D01*
X532144Y881370D01*
X531429Y879643D01*
Y877773D01*
X532144Y876046D01*
X533466Y874724D01*
X535193Y874009D01*
X537063D01*
X537122Y874034D01*
X538094Y873062D01*
X537881Y872546D01*
Y870676D01*
X538596Y868949D01*
X539806Y867739D01*
X539742Y867221D01*
X539417Y866469D01*
X445009D01*
X378788Y932691D01*
X377864Y933308D01*
X376773Y933525D01*
D02*
G37*
G36*
X1058749Y896716D02*
X1056751D01*
X1054904Y895951D01*
X1053491Y894538D01*
X1052726Y892691D01*
Y890692D01*
X1053491Y888846D01*
X1054904Y887433D01*
X1056751Y886668D01*
X1058749D01*
X1060596Y887433D01*
X1062009Y888846D01*
X1062774Y890692D01*
Y892691D01*
X1062009Y894538D01*
X1060596Y895951D01*
X1058749Y896716D01*
D02*
G37*
G36*
X1046049D02*
X1044051D01*
X1042204Y895951D01*
X1040791Y894538D01*
X1040026Y892691D01*
Y890692D01*
X1040791Y888846D01*
X1042204Y887433D01*
X1044051Y886668D01*
X1046049D01*
X1047896Y887433D01*
X1049309Y888846D01*
X1050074Y890692D01*
Y892691D01*
X1049309Y894538D01*
X1047896Y895951D01*
X1046049Y896716D01*
D02*
G37*
G36*
X1033349D02*
X1031351D01*
X1029504Y895951D01*
X1028091Y894538D01*
X1027326Y892691D01*
Y890692D01*
X1028091Y888846D01*
X1029504Y887433D01*
X1031351Y886668D01*
X1033349D01*
X1035196Y887433D01*
X1036609Y888846D01*
X1037374Y890692D01*
Y892691D01*
X1036609Y894538D01*
X1035196Y895951D01*
X1033349Y896716D01*
D02*
G37*
G36*
X1020649D02*
X1018651D01*
X1016804Y895951D01*
X1015391Y894538D01*
X1014626Y892691D01*
Y890692D01*
X1015391Y888846D01*
X1016804Y887433D01*
X1018651Y886668D01*
X1020649D01*
X1022496Y887433D01*
X1023909Y888846D01*
X1024674Y890692D01*
Y892691D01*
X1023909Y894538D01*
X1022496Y895951D01*
X1020649Y896716D01*
D02*
G37*
G36*
X1007949D02*
X1005951D01*
X1004104Y895951D01*
X1002691Y894538D01*
X1001926Y892691D01*
Y890692D01*
X1002691Y888846D01*
X1004104Y887433D01*
X1005951Y886668D01*
X1007949D01*
X1009796Y887433D01*
X1011209Y888846D01*
X1011974Y890692D01*
Y892691D01*
X1011209Y894538D01*
X1009796Y895951D01*
X1007949Y896716D01*
D02*
G37*
G36*
X995249D02*
X993251D01*
X991404Y895951D01*
X989991Y894538D01*
X989226Y892691D01*
Y890692D01*
X989991Y888846D01*
X991404Y887433D01*
X993251Y886668D01*
X995249D01*
X997096Y887433D01*
X998509Y888846D01*
X999274Y890692D01*
Y892691D01*
X998509Y894538D01*
X997096Y895951D01*
X995249Y896716D01*
D02*
G37*
G36*
X982549D02*
X980551D01*
X978704Y895951D01*
X977291Y894538D01*
X976526Y892691D01*
Y890692D01*
X977291Y888846D01*
X978704Y887433D01*
X980551Y886668D01*
X982549D01*
X984396Y887433D01*
X985809Y888846D01*
X986574Y890692D01*
Y892691D01*
X985809Y894538D01*
X984396Y895951D01*
X982549Y896716D01*
D02*
G37*
G36*
X969849D02*
X967851D01*
X966004Y895951D01*
X964591Y894538D01*
X963826Y892691D01*
Y890692D01*
X964591Y888846D01*
X966004Y887433D01*
X967851Y886668D01*
X969849D01*
X971696Y887433D01*
X973109Y888846D01*
X973874Y890692D01*
Y892691D01*
X973109Y894538D01*
X971696Y895951D01*
X969849Y896716D01*
D02*
G37*
G36*
X957149D02*
X955151D01*
X953304Y895951D01*
X951891Y894538D01*
X951126Y892691D01*
Y890692D01*
X951891Y888846D01*
X953304Y887433D01*
X955151Y886668D01*
X957149D01*
X958996Y887433D01*
X960409Y888846D01*
X961174Y890692D01*
Y892691D01*
X960409Y894538D01*
X958996Y895951D01*
X957149Y896716D01*
D02*
G37*
G36*
X944449D02*
X942451D01*
X940604Y895951D01*
X939191Y894538D01*
X938426Y892691D01*
Y890692D01*
X939191Y888846D01*
X940604Y887433D01*
X942451Y886668D01*
X944449D01*
X946296Y887433D01*
X947709Y888846D01*
X948474Y890692D01*
Y892691D01*
X947709Y894538D01*
X946296Y895951D01*
X944449Y896716D01*
D02*
G37*
G36*
X931749D02*
X929751D01*
X927904Y895951D01*
X926491Y894538D01*
X925726Y892691D01*
Y890692D01*
X926491Y888846D01*
X927904Y887433D01*
X929751Y886668D01*
X931749D01*
X933596Y887433D01*
X935009Y888846D01*
X935774Y890692D01*
Y892691D01*
X935009Y894538D01*
X933596Y895951D01*
X931749Y896716D01*
D02*
G37*
G36*
X919049D02*
X917051D01*
X915204Y895951D01*
X913791Y894538D01*
X913026Y892691D01*
Y890692D01*
X913791Y888846D01*
X915204Y887433D01*
X917051Y886668D01*
X919049D01*
X920896Y887433D01*
X922309Y888846D01*
X923074Y890692D01*
Y892691D01*
X922309Y894538D01*
X920896Y895951D01*
X919049Y896716D01*
D02*
G37*
G36*
X906349D02*
X904351D01*
X902504Y895951D01*
X901091Y894538D01*
X900326Y892691D01*
Y890692D01*
X901091Y888846D01*
X902504Y887433D01*
X904351Y886668D01*
X906349D01*
X908196Y887433D01*
X909609Y888846D01*
X910374Y890692D01*
Y892691D01*
X909609Y894538D01*
X908196Y895951D01*
X906349Y896716D01*
D02*
G37*
G36*
X893649D02*
X891651D01*
X889804Y895951D01*
X888391Y894538D01*
X887626Y892691D01*
Y890692D01*
X888391Y888846D01*
X889804Y887433D01*
X891651Y886668D01*
X893649D01*
X895496Y887433D01*
X896909Y888846D01*
X897674Y890692D01*
Y892691D01*
X896909Y894538D01*
X895496Y895951D01*
X893649Y896716D01*
D02*
G37*
G36*
X880949D02*
X878951D01*
X877104Y895951D01*
X875691Y894538D01*
X874926Y892691D01*
Y890692D01*
X875691Y888846D01*
X877104Y887433D01*
X878951Y886668D01*
X880949D01*
X882796Y887433D01*
X884209Y888846D01*
X884974Y890692D01*
Y892691D01*
X884209Y894538D01*
X882796Y895951D01*
X880949Y896716D01*
D02*
G37*
G36*
X868249D02*
X866251D01*
X864404Y895951D01*
X862991Y894538D01*
X862226Y892691D01*
Y890692D01*
X862991Y888846D01*
X864404Y887433D01*
X866251Y886668D01*
X868249D01*
X870096Y887433D01*
X871509Y888846D01*
X872274Y890692D01*
Y892691D01*
X871509Y894538D01*
X870096Y895951D01*
X868249Y896716D01*
D02*
G37*
G36*
X855549D02*
X853551D01*
X851704Y895951D01*
X850291Y894538D01*
X849526Y892691D01*
Y890692D01*
X850291Y888846D01*
X851704Y887433D01*
X853551Y886668D01*
X855549D01*
X857396Y887433D01*
X858809Y888846D01*
X859574Y890692D01*
Y892691D01*
X858809Y894538D01*
X857396Y895951D01*
X855549Y896716D01*
D02*
G37*
G36*
X842849D02*
X840851D01*
X839004Y895951D01*
X837591Y894538D01*
X836826Y892691D01*
Y890692D01*
X837591Y888846D01*
X839004Y887433D01*
X840851Y886668D01*
X842849D01*
X844696Y887433D01*
X846109Y888846D01*
X846874Y890692D01*
Y892691D01*
X846109Y894538D01*
X844696Y895951D01*
X842849Y896716D01*
D02*
G37*
G36*
X830149D02*
X828151D01*
X826304Y895951D01*
X824891Y894538D01*
X824126Y892691D01*
Y890692D01*
X824891Y888846D01*
X826304Y887433D01*
X828151Y886668D01*
X830149D01*
X831996Y887433D01*
X833409Y888846D01*
X834174Y890692D01*
Y892691D01*
X833409Y894538D01*
X831996Y895951D01*
X830149Y896716D01*
D02*
G37*
G36*
X817449D02*
X815451D01*
X813604Y895951D01*
X812191Y894538D01*
X811426Y892691D01*
Y890692D01*
X812191Y888846D01*
X813604Y887433D01*
X815451Y886668D01*
X817449D01*
X819296Y887433D01*
X820709Y888846D01*
X821474Y890692D01*
Y892691D01*
X820709Y894538D01*
X819296Y895951D01*
X817449Y896716D01*
D02*
G37*
G36*
X717449D02*
X715451D01*
X713604Y895951D01*
X712191Y894538D01*
X711426Y892691D01*
Y890692D01*
X712191Y888846D01*
X713604Y887433D01*
X715451Y886668D01*
X717449D01*
X719296Y887433D01*
X720709Y888846D01*
X721474Y890692D01*
Y892691D01*
X720709Y894538D01*
X719296Y895951D01*
X717449Y896716D01*
D02*
G37*
G36*
X704749D02*
X702751D01*
X700904Y895951D01*
X699491Y894538D01*
X698726Y892691D01*
Y890692D01*
X699491Y888846D01*
X700904Y887433D01*
X702751Y886668D01*
X704749D01*
X706596Y887433D01*
X708009Y888846D01*
X708774Y890692D01*
Y892691D01*
X708009Y894538D01*
X706596Y895951D01*
X704749Y896716D01*
D02*
G37*
G36*
X692049D02*
X690051D01*
X688204Y895951D01*
X686791Y894538D01*
X686026Y892691D01*
Y890692D01*
X686791Y888846D01*
X688204Y887433D01*
X690051Y886668D01*
X692049D01*
X693896Y887433D01*
X695309Y888846D01*
X696074Y890692D01*
Y892691D01*
X695309Y894538D01*
X693896Y895951D01*
X692049Y896716D01*
D02*
G37*
G36*
X679349D02*
X677351D01*
X675504Y895951D01*
X674091Y894538D01*
X673326Y892691D01*
Y890692D01*
X674091Y888846D01*
X675504Y887433D01*
X677351Y886668D01*
X679349D01*
X681196Y887433D01*
X682609Y888846D01*
X683374Y890692D01*
Y892691D01*
X682609Y894538D01*
X681196Y895951D01*
X679349Y896716D01*
D02*
G37*
G36*
X666649D02*
X664651D01*
X662804Y895951D01*
X661391Y894538D01*
X660626Y892691D01*
Y890692D01*
X661391Y888846D01*
X662804Y887433D01*
X664651Y886668D01*
X666649D01*
X668496Y887433D01*
X669909Y888846D01*
X670674Y890692D01*
Y892691D01*
X669909Y894538D01*
X668496Y895951D01*
X666649Y896716D01*
D02*
G37*
G36*
X653949D02*
X651951D01*
X650104Y895951D01*
X648691Y894538D01*
X647926Y892691D01*
Y890692D01*
X648691Y888846D01*
X650104Y887433D01*
X651951Y886668D01*
X653949D01*
X655796Y887433D01*
X657209Y888846D01*
X657974Y890692D01*
Y892691D01*
X657209Y894538D01*
X655796Y895951D01*
X653949Y896716D01*
D02*
G37*
G36*
X641249D02*
X639251D01*
X637404Y895951D01*
X635991Y894538D01*
X635226Y892691D01*
Y890692D01*
X635991Y888846D01*
X637404Y887433D01*
X639251Y886668D01*
X641249D01*
X643096Y887433D01*
X644509Y888846D01*
X645274Y890692D01*
Y892691D01*
X644509Y894538D01*
X643096Y895951D01*
X641249Y896716D01*
D02*
G37*
G36*
X628549D02*
X626551D01*
X624704Y895951D01*
X623291Y894538D01*
X622526Y892691D01*
Y890692D01*
X623291Y888846D01*
X624704Y887433D01*
X626551Y886668D01*
X628549D01*
X630396Y887433D01*
X631809Y888846D01*
X632574Y890692D01*
Y892691D01*
X631809Y894538D01*
X630396Y895951D01*
X628549Y896716D01*
D02*
G37*
G36*
X615849D02*
X613851D01*
X612004Y895951D01*
X610591Y894538D01*
X609826Y892691D01*
Y890692D01*
X610591Y888846D01*
X612004Y887433D01*
X613851Y886668D01*
X615849D01*
X617696Y887433D01*
X619109Y888846D01*
X619874Y890692D01*
Y892691D01*
X619109Y894538D01*
X617696Y895951D01*
X615849Y896716D01*
D02*
G37*
G36*
X603149D02*
X601151D01*
X599304Y895951D01*
X597891Y894538D01*
X597126Y892691D01*
Y890692D01*
X597891Y888846D01*
X599304Y887433D01*
X601151Y886668D01*
X603149D01*
X604996Y887433D01*
X606409Y888846D01*
X607174Y890692D01*
Y892691D01*
X606409Y894538D01*
X604996Y895951D01*
X603149Y896716D01*
D02*
G37*
G36*
X590449D02*
X588451D01*
X586604Y895951D01*
X585191Y894538D01*
X584426Y892691D01*
Y890692D01*
X585191Y888846D01*
X586604Y887433D01*
X588451Y886668D01*
X590449D01*
X592296Y887433D01*
X593709Y888846D01*
X594474Y890692D01*
Y892691D01*
X593709Y894538D01*
X592296Y895951D01*
X590449Y896716D01*
D02*
G37*
G36*
X577749D02*
X575751D01*
X573904Y895951D01*
X572491Y894538D01*
X571726Y892691D01*
Y890692D01*
X572491Y888846D01*
X573904Y887433D01*
X575751Y886668D01*
X577749D01*
X579596Y887433D01*
X581009Y888846D01*
X581774Y890692D01*
Y892691D01*
X581009Y894538D01*
X579596Y895951D01*
X577749Y896716D01*
D02*
G37*
G36*
X565049D02*
X563051D01*
X561204Y895951D01*
X559791Y894538D01*
X559026Y892691D01*
Y890692D01*
X559791Y888846D01*
X561204Y887433D01*
X563051Y886668D01*
X565049D01*
X566896Y887433D01*
X568309Y888846D01*
X569074Y890692D01*
Y892691D01*
X568309Y894538D01*
X566896Y895951D01*
X565049Y896716D01*
D02*
G37*
G36*
X552349D02*
X550351D01*
X548504Y895951D01*
X547091Y894538D01*
X546326Y892691D01*
Y890692D01*
X547091Y888846D01*
X548504Y887433D01*
X550351Y886668D01*
X552349D01*
X554196Y887433D01*
X555609Y888846D01*
X556374Y890692D01*
Y892691D01*
X555609Y894538D01*
X554196Y895951D01*
X552349Y896716D01*
D02*
G37*
G36*
X539649D02*
X537651D01*
X535804Y895951D01*
X534391Y894538D01*
X533626Y892691D01*
Y890692D01*
X534391Y888846D01*
X535804Y887433D01*
X537651Y886668D01*
X539649D01*
X541496Y887433D01*
X542909Y888846D01*
X543674Y890692D01*
Y892691D01*
X542909Y894538D01*
X541496Y895951D01*
X539649Y896716D01*
D02*
G37*
G36*
X526949D02*
X524951D01*
X523104Y895951D01*
X521691Y894538D01*
X520926Y892691D01*
Y890692D01*
X521691Y888846D01*
X523104Y887433D01*
X524951Y886668D01*
X526949D01*
X528796Y887433D01*
X530209Y888846D01*
X530974Y890692D01*
Y892691D01*
X530209Y894538D01*
X528796Y895951D01*
X526949Y896716D01*
D02*
G37*
G36*
X514249D02*
X512251D01*
X510404Y895951D01*
X508991Y894538D01*
X508226Y892691D01*
Y890692D01*
X508991Y888846D01*
X510404Y887433D01*
X512251Y886668D01*
X514249D01*
X516096Y887433D01*
X517509Y888846D01*
X518274Y890692D01*
Y892691D01*
X517509Y894538D01*
X516096Y895951D01*
X514249Y896716D01*
D02*
G37*
G36*
X501549D02*
X499551D01*
X497704Y895951D01*
X496291Y894538D01*
X495526Y892691D01*
Y890692D01*
X496291Y888846D01*
X497704Y887433D01*
X499551Y886668D01*
X501549D01*
X503396Y887433D01*
X504809Y888846D01*
X505574Y890692D01*
Y892691D01*
X504809Y894538D01*
X503396Y895951D01*
X501549Y896716D01*
D02*
G37*
G36*
X488849D02*
X486851D01*
X485004Y895951D01*
X483591Y894538D01*
X482826Y892691D01*
Y890692D01*
X483591Y888846D01*
X485004Y887433D01*
X486851Y886668D01*
X488849D01*
X490696Y887433D01*
X492109Y888846D01*
X492874Y890692D01*
Y892691D01*
X492109Y894538D01*
X490696Y895951D01*
X488849Y896716D01*
D02*
G37*
G36*
X476149D02*
X474151D01*
X472304Y895951D01*
X470891Y894538D01*
X470126Y892691D01*
Y890692D01*
X470891Y888846D01*
X472304Y887433D01*
X474151Y886668D01*
X476149D01*
X477996Y887433D01*
X479409Y888846D01*
X480174Y890692D01*
Y892691D01*
X479409Y894538D01*
X477996Y895951D01*
X476149Y896716D01*
D02*
G37*
G36*
X1226421Y911116D02*
X1223166D01*
X1219973Y910481D01*
X1216966Y909235D01*
X1214260Y907427D01*
X1211958Y905125D01*
X1210150Y902419D01*
X1208904Y899412D01*
X1208269Y896219D01*
Y892964D01*
X1208904Y889772D01*
X1210150Y886765D01*
X1211958Y884058D01*
X1214260Y881757D01*
X1216966Y879948D01*
X1219973Y878703D01*
X1223166Y878068D01*
X1226421D01*
X1229613Y878703D01*
X1232620Y879948D01*
X1235327Y881757D01*
X1237628Y884058D01*
X1239436Y886765D01*
X1240682Y889772D01*
X1241317Y892964D01*
Y896219D01*
X1240682Y899412D01*
X1239436Y902419D01*
X1237628Y905125D01*
X1235327Y907427D01*
X1232620Y909235D01*
X1229613Y910481D01*
X1226421Y911116D01*
D02*
G37*
G36*
X309735D02*
X306480D01*
X303287Y910481D01*
X300280Y909235D01*
X297574Y907427D01*
X295272Y905125D01*
X293464Y902419D01*
X292218Y899412D01*
X291583Y896219D01*
Y892964D01*
X292218Y889772D01*
X293464Y886765D01*
X295272Y884058D01*
X297574Y881757D01*
X300280Y879948D01*
X303287Y878703D01*
X306480Y878068D01*
X309735D01*
X312927Y878703D01*
X315934Y879948D01*
X318640Y881757D01*
X320942Y884058D01*
X322751Y886765D01*
X323996Y889772D01*
X324631Y892964D01*
Y896219D01*
X323996Y899412D01*
X322751Y902419D01*
X320942Y905125D01*
X318640Y907427D01*
X315934Y909235D01*
X312927Y910481D01*
X309735Y911116D01*
D02*
G37*
G36*
X613191Y884052D02*
X611322D01*
X609595Y883337D01*
X608273Y882015D01*
X607558Y880288D01*
Y878418D01*
X608273Y876691D01*
X609595Y875369D01*
X611322Y874654D01*
X613191D01*
X614919Y875369D01*
X616240Y876691D01*
X616956Y878418D01*
Y880288D01*
X616240Y882015D01*
X614919Y883337D01*
X613191Y884052D01*
D02*
G37*
G36*
X833191Y883407D02*
X831322D01*
X829595Y882691D01*
X828273Y881370D01*
X827557Y879643D01*
Y877773D01*
X828273Y876046D01*
X829595Y874724D01*
X831322Y874009D01*
X833191D01*
X834918Y874724D01*
X836240Y876046D01*
X836955Y877773D01*
Y879643D01*
X836240Y881370D01*
X834918Y882691D01*
X833191Y883407D01*
D02*
G37*
G36*
X714482D02*
X712612D01*
X710885Y882691D01*
X709563Y881370D01*
X708848Y879643D01*
Y877773D01*
X709563Y876046D01*
X710885Y874724D01*
X712612Y874009D01*
X714482D01*
X716209Y874724D01*
X717531Y876046D01*
X718246Y877773D01*
Y879643D01*
X717531Y881370D01*
X716209Y882691D01*
X714482Y883407D01*
D02*
G37*
G36*
X688030D02*
X686161D01*
X684434Y882691D01*
X683112Y881370D01*
X682396Y879643D01*
Y877773D01*
X683112Y876046D01*
X684434Y874724D01*
X686161Y874009D01*
X688030D01*
X689757Y874724D01*
X691079Y876046D01*
X691794Y877773D01*
Y879643D01*
X691079Y881370D01*
X689757Y882691D01*
X688030Y883407D01*
D02*
G37*
G36*
X662224D02*
X660354D01*
X658627Y882691D01*
X657305Y881370D01*
X656590Y879643D01*
Y877773D01*
X657305Y876046D01*
X658627Y874724D01*
X660354Y874009D01*
X662224D01*
X663951Y874724D01*
X665273Y876046D01*
X665988Y877773D01*
Y879643D01*
X665273Y881370D01*
X663951Y882691D01*
X662224Y883407D01*
D02*
G37*
G36*
X586740D02*
X584871D01*
X583144Y882691D01*
X581822Y881370D01*
X581106Y879643D01*
Y877773D01*
X581822Y876046D01*
X583144Y874724D01*
X584871Y874009D01*
X586740D01*
X588467Y874724D01*
X589789Y876046D01*
X590504Y877773D01*
Y879643D01*
X589789Y881370D01*
X588467Y882691D01*
X586740Y883407D01*
D02*
G37*
G36*
X510611D02*
X508742D01*
X507015Y882691D01*
X505693Y881370D01*
X504977Y879643D01*
Y877773D01*
X505693Y876046D01*
X507015Y874724D01*
X508742Y874009D01*
X510611D01*
X512338Y874724D01*
X513660Y876046D01*
X514375Y877773D01*
Y879643D01*
X513660Y881370D01*
X512338Y882691D01*
X510611Y883407D01*
D02*
G37*
G36*
X1004142Y883391D02*
X1002273D01*
X1000546Y882675D01*
X999224Y881354D01*
X998509Y879626D01*
Y877757D01*
X999224Y876030D01*
X1000546Y874708D01*
X1002273Y873993D01*
X1004142D01*
X1005869Y874708D01*
X1007191Y876030D01*
X1007907Y877757D01*
Y879626D01*
X1007191Y881354D01*
X1005869Y882675D01*
X1004142Y883391D01*
D02*
G37*
G36*
X1029965Y882762D02*
X1028095D01*
X1026368Y882046D01*
X1025047Y880724D01*
X1024331Y878997D01*
Y877128D01*
X1025047Y875401D01*
X1026368Y874079D01*
X1028095Y873364D01*
X1029965D01*
X1031692Y874079D01*
X1033014Y875401D01*
X1033729Y877128D01*
Y878997D01*
X1033014Y880724D01*
X1031692Y882046D01*
X1029965Y882762D01*
D02*
G37*
G36*
X637708D02*
X635838D01*
X634111Y882046D01*
X632789Y880724D01*
X632074Y878997D01*
Y877128D01*
X632789Y875401D01*
X634111Y874079D01*
X635838Y873364D01*
X637708D01*
X639435Y874079D01*
X640757Y875401D01*
X641472Y877128D01*
Y878997D01*
X640757Y880724D01*
X639435Y882046D01*
X637708Y882762D01*
D02*
G37*
G36*
X484805D02*
X482935D01*
X481208Y882046D01*
X479886Y880724D01*
X479171Y878997D01*
Y877128D01*
X479886Y875401D01*
X481208Y874079D01*
X482935Y873364D01*
X484805D01*
X486532Y874079D01*
X487854Y875401D01*
X488569Y877128D01*
Y878997D01*
X487854Y880724D01*
X486532Y882046D01*
X484805Y882762D01*
D02*
G37*
G36*
X893060Y868568D02*
X891190D01*
X889463Y867853D01*
X888141Y866531D01*
X887426Y864804D01*
Y862934D01*
X888141Y861208D01*
X889463Y859886D01*
X891190Y859170D01*
X893060D01*
X894787Y859886D01*
X896109Y861208D01*
X896824Y862934D01*
Y864804D01*
X896109Y866531D01*
X894787Y867853D01*
X893060Y868568D01*
D02*
G37*
G36*
X900933Y860826D02*
X899063D01*
X897336Y860111D01*
X896015Y858789D01*
X895299Y857062D01*
Y855193D01*
X896015Y853466D01*
X897336Y852144D01*
X899063Y851428D01*
X900933D01*
X902660Y852144D01*
X903982Y853466D01*
X904697Y855193D01*
Y857062D01*
X903982Y858789D01*
X902660Y860111D01*
X900933Y860826D01*
D02*
G37*
G36*
X1029965Y862762D02*
X1028095D01*
X1026368Y862046D01*
X1025047Y860725D01*
X1024331Y858997D01*
Y857128D01*
X1025047Y855401D01*
X1026368Y854079D01*
X1027676Y853538D01*
X1028141Y852602D01*
X1028171Y852094D01*
X1027557Y850610D01*
Y848741D01*
X1027737Y848306D01*
X1026743Y847387D01*
X1025449Y847923D01*
X1023579D01*
X1021852Y847208D01*
X1020530Y845886D01*
X1019815Y844159D01*
Y842289D01*
X1020530Y840562D01*
X1021852Y839240D01*
X1023579Y838525D01*
X1025449D01*
X1027176Y839240D01*
X1028498Y840562D01*
X1029213Y842289D01*
Y844159D01*
X1029033Y844594D01*
X1030027Y845513D01*
X1031321Y844977D01*
X1033191D01*
X1034918Y845692D01*
X1036240Y847014D01*
X1036955Y848741D01*
Y850610D01*
X1036240Y852337D01*
X1034918Y853659D01*
X1033610Y854201D01*
X1033145Y855137D01*
X1033115Y855645D01*
X1033729Y857128D01*
Y858997D01*
X1033014Y860725D01*
X1031692Y862046D01*
X1029965Y862762D01*
D02*
G37*
G36*
X1174231Y882765D02*
X1170582D01*
X1167003Y882053D01*
X1163632Y880657D01*
X1160598Y878629D01*
X1158018Y876049D01*
X1155991Y873015D01*
X1154594Y869644D01*
X1153882Y866065D01*
Y862416D01*
X1154594Y858838D01*
X1155991Y855466D01*
X1158018Y852432D01*
X1160598Y849852D01*
X1163632Y847825D01*
X1167003Y846429D01*
X1170582Y845717D01*
X1174231D01*
X1177810Y846429D01*
X1181181Y847825D01*
X1184215Y849852D01*
X1186795Y852432D01*
X1188822Y855466D01*
X1190218Y858838D01*
X1190930Y862416D01*
Y866065D01*
X1190218Y869644D01*
X1188822Y873015D01*
X1186795Y876049D01*
X1184215Y878629D01*
X1181181Y880657D01*
X1177810Y882053D01*
X1174231Y882765D01*
D02*
G37*
G36*
X936417Y847278D02*
X934547D01*
X932820Y846563D01*
X931498Y845241D01*
X930783Y843514D01*
Y841644D01*
X931498Y839917D01*
X932820Y838595D01*
X934547Y837880D01*
X936417D01*
X938144Y838595D01*
X939466Y839917D01*
X940181Y841644D01*
Y843514D01*
X939466Y845241D01*
X938144Y846563D01*
X936417Y847278D01*
D02*
G37*
G36*
X1002223Y840826D02*
X1000354D01*
X998627Y840111D01*
X997305Y838789D01*
X996589Y837062D01*
Y835193D01*
X997305Y833466D01*
X998627Y832144D01*
X1000354Y831428D01*
X1002223D01*
X1003950Y832144D01*
X1005272Y833466D01*
X1005987Y835193D01*
Y837062D01*
X1005272Y838789D01*
X1003950Y840111D01*
X1002223Y840826D01*
D02*
G37*
G36*
X1011900Y833730D02*
X1010031D01*
X1008304Y833014D01*
X1006982Y831692D01*
X1006267Y829965D01*
Y828096D01*
X1006982Y826369D01*
X1008304Y825047D01*
X1010031Y824332D01*
X1011900D01*
X1013627Y825047D01*
X1014949Y826369D01*
X1015665Y828096D01*
Y829965D01*
X1014949Y831692D01*
X1013627Y833014D01*
X1011900Y833730D01*
D02*
G37*
G36*
X729649Y813587D02*
X727055D01*
Y810994D01*
X727752Y811283D01*
X729360Y812890D01*
X729649Y813587D01*
D02*
G37*
G36*
X721975D02*
X719381D01*
X719670Y812890D01*
X721277Y811283D01*
X721975Y810994D01*
Y813587D01*
D02*
G37*
G36*
X820288Y837601D02*
X818419D01*
X816691Y836885D01*
X815370Y835563D01*
X814654Y833836D01*
Y832231D01*
X811855Y829432D01*
X811237Y828508D01*
X811021Y827418D01*
X811021Y827418D01*
Y810533D01*
X807206Y806718D01*
X519280D01*
X518145Y807853D01*
X516418Y808568D01*
X514548D01*
X512821Y807853D01*
X511499Y806531D01*
X510784Y804804D01*
Y802935D01*
X511499Y801208D01*
X512821Y799886D01*
X514548Y799170D01*
X516418D01*
X518145Y799886D01*
X519280Y801021D01*
X808385D01*
X808385Y801021D01*
X809476Y801237D01*
X810400Y801855D01*
X815884Y807339D01*
X815884Y807339D01*
X816501Y808263D01*
X816718Y809353D01*
X816718Y809353D01*
Y826238D01*
X818683Y828203D01*
X820288D01*
X822015Y828918D01*
X823337Y830240D01*
X824052Y831967D01*
Y833836D01*
X823337Y835563D01*
X822015Y836885D01*
X820288Y837601D01*
D02*
G37*
G36*
X966409Y809812D02*
Y803829D01*
X972392D01*
X972153Y804720D01*
X970983Y806747D01*
X969328Y808402D01*
X967300Y809573D01*
X966409Y809812D01*
D02*
G37*
G36*
X961329D02*
X960438Y809573D01*
X958410Y808402D01*
X956755Y806747D01*
X955585Y804720D01*
X955346Y803829D01*
X961329D01*
Y809812D01*
D02*
G37*
G36*
X824159Y825988D02*
X822290D01*
X820562Y825272D01*
X819241Y823950D01*
X818525Y822223D01*
Y820354D01*
X819241Y818627D01*
X820562Y817305D01*
X821069Y817095D01*
Y805097D01*
X813657Y797686D01*
X536054D01*
X534919Y798821D01*
X533192Y799536D01*
X531322D01*
X529595Y798821D01*
X528273Y797499D01*
X527558Y795772D01*
Y793902D01*
X528273Y792175D01*
X529595Y790854D01*
X531322Y790138D01*
X533192D01*
X534919Y790854D01*
X536054Y791988D01*
X725047D01*
X725646Y790718D01*
X725143Y789505D01*
Y787805D01*
X725794Y786234D01*
X726996Y785032D01*
X728567Y784381D01*
X730267D01*
X731838Y785032D01*
X733041Y786234D01*
X733691Y787805D01*
Y789505D01*
X733189Y790718D01*
X733788Y791988D01*
X814837D01*
X814837Y791988D01*
X815927Y792205D01*
X816852Y792823D01*
X825932Y801903D01*
X826549Y802827D01*
X826766Y803917D01*
X826766Y803917D01*
Y818185D01*
X827208Y818627D01*
X827923Y820354D01*
Y822223D01*
X827208Y823950D01*
X825886Y825272D01*
X824159Y825988D01*
D02*
G37*
G36*
X972392Y798749D02*
X966409D01*
Y792766D01*
X967300Y793005D01*
X969328Y794175D01*
X970983Y795830D01*
X972153Y797857D01*
X972392Y798749D01*
D02*
G37*
G36*
X961329D02*
X955346D01*
X955585Y797857D01*
X956755Y795830D01*
X958410Y794175D01*
X960438Y793005D01*
X961329Y792766D01*
Y798749D01*
D02*
G37*
G36*
X372894Y804745D02*
X354846D01*
Y786697D01*
X372894D01*
Y804745D01*
D02*
G37*
G36*
X1124268Y792929D02*
X1122567D01*
X1120996Y792278D01*
X1119794Y791076D01*
X1119143Y789505D01*
Y787805D01*
X1119794Y786234D01*
X1120996Y785032D01*
X1122567Y784381D01*
X1124268D01*
X1125838Y785032D01*
X1127041Y786234D01*
X1127691Y787805D01*
Y789505D01*
X1127041Y791076D01*
X1125838Y792278D01*
X1124268Y792929D01*
D02*
G37*
G36*
X985267D02*
X983567D01*
X981996Y792278D01*
X980794Y791076D01*
X980143Y789505D01*
Y787805D01*
X980794Y786234D01*
X981996Y785032D01*
X983567Y784381D01*
X985267D01*
X986838Y785032D01*
X988041Y786234D01*
X988691Y787805D01*
Y789505D01*
X988041Y791076D01*
X986838Y792278D01*
X985267Y792929D01*
D02*
G37*
G36*
X869268D02*
X867567D01*
X865996Y792278D01*
X864794Y791076D01*
X864143Y789505D01*
Y787805D01*
X864794Y786234D01*
X865996Y785032D01*
X867567Y784381D01*
X869268D01*
X870838Y785032D01*
X872041Y786234D01*
X872691Y787805D01*
Y789505D01*
X872041Y791076D01*
X870838Y792278D01*
X869268Y792929D01*
D02*
G37*
G36*
X835127Y826633D02*
X833257D01*
X831530Y825917D01*
X830208Y824596D01*
X829493Y822868D01*
Y820999D01*
X830208Y819272D01*
X831343Y818137D01*
Y801289D01*
X831343Y801289D01*
X831560Y800199D01*
X832178Y799274D01*
X845537Y785915D01*
Y772525D01*
X841611D01*
X841085Y773795D01*
X841401Y774111D01*
X842117Y775838D01*
Y777707D01*
X841401Y779434D01*
X840079Y780756D01*
X838352Y781472D01*
X836483D01*
X834756Y780756D01*
X833434Y779434D01*
X832719Y777707D01*
Y775838D01*
X833434Y774111D01*
X833750Y773795D01*
X833224Y772525D01*
X802120D01*
X801538Y773795D01*
X802117Y775193D01*
Y777062D01*
X801401Y778789D01*
X800079Y780111D01*
X798353Y780826D01*
X796483D01*
X794756Y780111D01*
X793434Y778789D01*
X792719Y777062D01*
Y775193D01*
X793298Y773795D01*
X792716Y772525D01*
X758894D01*
X758312Y773795D01*
X758891Y775193D01*
Y777062D01*
X758176Y778789D01*
X756854Y780111D01*
X755127Y780826D01*
X753257D01*
X751530Y780111D01*
X750208Y778789D01*
X749493Y777062D01*
Y775193D01*
X750072Y773795D01*
X749490Y772525D01*
X531447D01*
X500155Y803817D01*
Y805422D01*
X499439Y807149D01*
X498117Y808471D01*
X496390Y809186D01*
X494521D01*
X492794Y808471D01*
X491472Y807149D01*
X490757Y805422D01*
Y803553D01*
X491472Y801826D01*
X492794Y800504D01*
X494521Y799788D01*
X496126D01*
X528253Y767662D01*
X528253Y767662D01*
X529177Y767044D01*
X530267Y766827D01*
X530267Y766827D01*
X846897D01*
X846898Y766827D01*
X847988Y767044D01*
X848912Y767662D01*
X850400Y769149D01*
X850400Y769149D01*
X851017Y770074D01*
X851234Y771164D01*
Y787095D01*
X851234Y787095D01*
X851017Y788185D01*
X850400Y789110D01*
X850400Y789110D01*
X837041Y802469D01*
Y818137D01*
X838176Y819272D01*
X838891Y820999D01*
Y822868D01*
X838176Y824596D01*
X836854Y825917D01*
X835127Y826633D01*
D02*
G37*
G36*
X1098997Y780826D02*
X1097128D01*
X1095401Y780111D01*
X1094079Y778789D01*
X1093363Y777062D01*
Y775193D01*
X1094079Y773466D01*
X1095401Y772144D01*
X1097128Y771429D01*
X1098997D01*
X1100724Y772144D01*
X1102046Y773466D01*
X1102761Y775193D01*
Y777062D01*
X1102046Y778789D01*
X1100724Y780111D01*
X1098997Y780826D01*
D02*
G37*
G36*
X1055126D02*
X1053257D01*
X1051530Y780111D01*
X1050208Y778789D01*
X1049492Y777062D01*
Y775193D01*
X1050208Y773466D01*
X1051530Y772144D01*
X1053257Y771429D01*
X1055126D01*
X1056853Y772144D01*
X1058175Y773466D01*
X1058890Y775193D01*
Y777062D01*
X1058175Y778789D01*
X1056853Y780111D01*
X1055126Y780826D01*
D02*
G37*
G36*
X1009965D02*
X1008095D01*
X1006368Y780111D01*
X1005047Y778789D01*
X1004331Y777062D01*
Y775193D01*
X1005047Y773466D01*
X1006368Y772144D01*
X1008095Y771429D01*
X1009965D01*
X1011692Y772144D01*
X1013014Y773466D01*
X1013729Y775193D01*
Y777062D01*
X1013014Y778789D01*
X1011692Y780111D01*
X1009965Y780826D01*
D02*
G37*
G36*
X365058Y779345D02*
X362682D01*
X360387Y778730D01*
X358329Y777542D01*
X356649Y775862D01*
X355461Y773804D01*
X354846Y771509D01*
Y769133D01*
X355461Y766838D01*
X356649Y764780D01*
X358329Y763100D01*
X360387Y761912D01*
X362682Y761297D01*
X365058D01*
X367353Y761912D01*
X369411Y763100D01*
X371091Y764780D01*
X372279Y766838D01*
X372894Y769133D01*
Y771509D01*
X372279Y773804D01*
X371091Y775862D01*
X369411Y777542D01*
X367353Y778730D01*
X365058Y779345D01*
D02*
G37*
G36*
X983183Y759326D02*
Y756732D01*
X985777D01*
X985488Y757429D01*
X983880Y759037D01*
X983183Y759326D01*
D02*
G37*
G36*
X978103D02*
X977406Y759037D01*
X975798Y757429D01*
X975509Y756732D01*
X978103D01*
Y759326D01*
D02*
G37*
G36*
X985777Y751652D02*
X983183D01*
Y749058D01*
X983880Y749347D01*
X985488Y750955D01*
X985777Y751652D01*
D02*
G37*
G36*
X978103D02*
X975509D01*
X975798Y750955D01*
X977406Y749347D01*
X978103Y749058D01*
Y751652D01*
D02*
G37*
G36*
X725764Y738036D02*
Y735442D01*
X728358D01*
X728069Y736139D01*
X726462Y737747D01*
X725764Y738036D01*
D02*
G37*
G36*
X720684D02*
X719987Y737747D01*
X718379Y736139D01*
X718091Y735442D01*
X720684D01*
Y738036D01*
D02*
G37*
G36*
X728358Y730362D02*
X725764D01*
Y727768D01*
X726462Y728057D01*
X728069Y729665D01*
X728358Y730362D01*
D02*
G37*
G36*
X720684D02*
X718091D01*
X718379Y729665D01*
X719987Y728057D01*
X720684Y727768D01*
Y730362D01*
D02*
G37*
G36*
X1043351Y735020D02*
X1041481D01*
X1039754Y734305D01*
X1038432Y732983D01*
X1037717Y731256D01*
Y729386D01*
X1038432Y727659D01*
X1039754Y726338D01*
X1041481Y725622D01*
X1043351D01*
X1045078Y726338D01*
X1046400Y727659D01*
X1047115Y729386D01*
Y731256D01*
X1046400Y732983D01*
X1045078Y734305D01*
X1043351Y735020D01*
D02*
G37*
G36*
X1015126D02*
X1013257D01*
X1011530Y734305D01*
X1010208Y732983D01*
X1009492Y731256D01*
Y729386D01*
X1010208Y727659D01*
X1011530Y726338D01*
X1013257Y725622D01*
X1015126D01*
X1016853Y726338D01*
X1018175Y727659D01*
X1018891Y729386D01*
Y731256D01*
X1018175Y732983D01*
X1016853Y734305D01*
X1015126Y735020D01*
D02*
G37*
G36*
X1003513D02*
X1001644D01*
X999917Y734305D01*
X998595Y732983D01*
X997880Y731256D01*
Y729386D01*
X998595Y727659D01*
X999917Y726338D01*
X1001644Y725622D01*
X1003513D01*
X1005240Y726338D01*
X1006562Y727659D01*
X1007278Y729386D01*
Y731256D01*
X1006562Y732983D01*
X1005240Y734305D01*
X1003513Y735020D01*
D02*
G37*
G36*
X1058997Y730504D02*
X1057128D01*
X1055401Y729789D01*
X1054079Y728467D01*
X1053363Y726740D01*
Y724870D01*
X1054079Y723143D01*
X1055401Y721821D01*
X1057128Y721106D01*
X1058997D01*
X1060724Y721821D01*
X1062046Y723143D01*
X1062761Y724870D01*
Y726740D01*
X1062046Y728467D01*
X1060724Y729789D01*
X1058997Y730504D01*
D02*
G37*
G36*
X809965Y724698D02*
X808096D01*
X806369Y723982D01*
X805047Y722660D01*
X804332Y720933D01*
Y719064D01*
X805047Y717337D01*
X806369Y716015D01*
X808096Y715300D01*
X809965D01*
X811692Y716015D01*
X813014Y717337D01*
X813730Y719064D01*
Y720933D01*
X813014Y722660D01*
X811692Y723982D01*
X809965Y724698D01*
D02*
G37*
G36*
X926094Y720181D02*
X924225D01*
X922498Y719466D01*
X921176Y718144D01*
X920460Y716417D01*
Y714548D01*
X921176Y712821D01*
X922498Y711499D01*
X924225Y710783D01*
X926094D01*
X927821Y711499D01*
X929143Y712821D01*
X929858Y714548D01*
Y716417D01*
X929143Y718144D01*
X927821Y719466D01*
X926094Y720181D01*
D02*
G37*
G36*
X1049320Y719536D02*
X1047450D01*
X1045723Y718821D01*
X1044401Y717499D01*
X1043686Y715772D01*
Y713903D01*
X1044401Y712176D01*
X1045723Y710854D01*
X1047450Y710138D01*
X1049320D01*
X1051047Y710854D01*
X1052369Y712176D01*
X1053084Y713903D01*
Y715772D01*
X1052369Y717499D01*
X1051047Y718821D01*
X1049320Y719536D01*
D02*
G37*
G36*
X751418Y718729D02*
X749549D01*
X747822Y718013D01*
X746500Y716691D01*
X745785Y714964D01*
Y713095D01*
X746500Y711368D01*
X747822Y710046D01*
X749549Y709331D01*
X751418D01*
X753145Y710046D01*
X754467Y711368D01*
X755183Y713095D01*
Y714964D01*
X754467Y716691D01*
X753145Y718013D01*
X751418Y718729D01*
D02*
G37*
G36*
X547385Y714375D02*
X545516D01*
X543789Y713660D01*
X542467Y712338D01*
X541752Y710611D01*
Y708741D01*
X542467Y707014D01*
X543789Y705692D01*
X545516Y704977D01*
X547385D01*
X549112Y705692D01*
X550434Y707014D01*
X551149Y708741D01*
Y710611D01*
X550434Y712338D01*
X549112Y713660D01*
X547385Y714375D01*
D02*
G37*
G36*
X935126Y710504D02*
X933257D01*
X931530Y709789D01*
X930208Y708467D01*
X929493Y706740D01*
Y704870D01*
X930208Y703143D01*
X931530Y701821D01*
X933257Y701106D01*
X935126D01*
X936853Y701821D01*
X938175Y703143D01*
X938891Y704870D01*
Y706740D01*
X938175Y708467D01*
X936853Y709789D01*
X935126Y710504D01*
D02*
G37*
G36*
X840933D02*
X839064D01*
X837337Y709789D01*
X836015Y708467D01*
X835299Y706740D01*
Y704870D01*
X836015Y703143D01*
X837337Y701821D01*
X839064Y701106D01*
X840933D01*
X842660Y701821D01*
X843982Y703143D01*
X844697Y704870D01*
Y706740D01*
X843982Y708467D01*
X842660Y709789D01*
X840933Y710504D01*
D02*
G37*
G36*
X1020933Y703407D02*
X1019063D01*
X1017336Y702692D01*
X1016014Y701370D01*
X1015299Y699643D01*
Y697774D01*
X1016014Y696047D01*
X1017336Y694725D01*
X1019063Y694009D01*
X1020933D01*
X1022660Y694725D01*
X1023982Y696047D01*
X1024697Y697774D01*
Y699643D01*
X1023982Y701370D01*
X1022660Y702692D01*
X1020933Y703407D01*
D02*
G37*
G36*
X548192Y698246D02*
X546322D01*
X544595Y697531D01*
X543273Y696209D01*
X542558Y694482D01*
Y692612D01*
X543273Y690885D01*
X544595Y689563D01*
X546322Y688848D01*
X548192D01*
X549919Y689563D01*
X551241Y690885D01*
X551956Y692612D01*
Y694482D01*
X551241Y696209D01*
X549919Y697531D01*
X548192Y698246D01*
D02*
G37*
G36*
X901578Y695665D02*
X899709D01*
X897982Y694950D01*
X896660Y693628D01*
X895944Y691901D01*
Y690032D01*
X896660Y688305D01*
X897982Y686983D01*
X899709Y686267D01*
X901578D01*
X903305Y686983D01*
X904627Y688305D01*
X905342Y690032D01*
Y691901D01*
X904627Y693628D01*
X903305Y694950D01*
X901578Y695665D01*
D02*
G37*
G36*
X1094481Y689859D02*
X1092611D01*
X1090884Y689144D01*
X1089563Y687822D01*
X1088847Y686095D01*
Y684225D01*
X1089563Y682498D01*
X1090884Y681176D01*
X1092611Y680461D01*
X1094481D01*
X1096208Y681176D01*
X1097530Y682498D01*
X1098245Y684225D01*
Y686095D01*
X1097530Y687822D01*
X1096208Y689144D01*
X1094481Y689859D01*
D02*
G37*
G36*
X760933Y684053D02*
X759064D01*
X757337Y683337D01*
X756015Y682015D01*
X755300Y680288D01*
Y678419D01*
X756015Y676692D01*
X757337Y675370D01*
X759064Y674654D01*
X760933D01*
X762660Y675370D01*
X763982Y676692D01*
X764697Y678419D01*
Y680288D01*
X763982Y682015D01*
X762660Y683337D01*
X760933Y684053D01*
D02*
G37*
G36*
X548030Y682117D02*
X546161D01*
X544434Y681402D01*
X543112Y680080D01*
X542397Y678353D01*
Y676483D01*
X543112Y674756D01*
X544434Y673434D01*
X546161Y672719D01*
X548030D01*
X549757Y673434D01*
X551079Y674756D01*
X551795Y676483D01*
Y678353D01*
X551079Y680080D01*
X549757Y681402D01*
X548030Y682117D01*
D02*
G37*
G36*
X1064803Y678246D02*
X1062934D01*
X1061207Y677531D01*
X1059885Y676209D01*
X1059170Y674482D01*
Y672612D01*
X1059885Y670885D01*
X1061207Y669563D01*
X1062934Y668848D01*
X1064803D01*
X1066531Y669563D01*
X1067852Y670885D01*
X1068568Y672612D01*
Y674482D01*
X1067852Y676209D01*
X1066531Y677531D01*
X1064803Y678246D01*
D02*
G37*
G36*
X818998Y671794D02*
X817128D01*
X815401Y671079D01*
X814079Y669757D01*
X813364Y668030D01*
Y666161D01*
X814079Y664434D01*
X815401Y663112D01*
X817128Y662396D01*
X818998D01*
X820725Y663112D01*
X822047Y664434D01*
X822762Y666161D01*
Y668030D01*
X822047Y669757D01*
X820725Y671079D01*
X818998Y671794D01*
D02*
G37*
G36*
X961578Y670504D02*
X959708D01*
X957981Y669789D01*
X956660Y668467D01*
X955944Y666740D01*
Y664870D01*
X956660Y663143D01*
X957981Y661822D01*
X959708Y661106D01*
X961578D01*
X963305Y661822D01*
X964627Y663143D01*
X965342Y664870D01*
Y666740D01*
X964627Y668467D01*
X963305Y669789D01*
X961578Y670504D01*
D02*
G37*
G36*
X1029965Y666633D02*
X1028095D01*
X1026368Y665918D01*
X1025047Y664596D01*
X1024331Y662869D01*
Y661000D01*
X1025047Y659272D01*
X1026368Y657951D01*
X1028095Y657235D01*
X1029965D01*
X1031692Y657951D01*
X1033014Y659272D01*
X1033729Y661000D01*
Y662869D01*
X1033014Y664596D01*
X1031692Y665918D01*
X1029965Y666633D01*
D02*
G37*
G36*
X548192Y665343D02*
X546322D01*
X544595Y664627D01*
X543273Y663306D01*
X542558Y661579D01*
Y659709D01*
X543273Y657982D01*
X544595Y656660D01*
X546322Y655945D01*
X548192D01*
X549919Y656660D01*
X551241Y657982D01*
X551956Y659709D01*
Y661579D01*
X551241Y663306D01*
X549919Y664627D01*
X548192Y665343D01*
D02*
G37*
G36*
X1074318Y659536D02*
X1072449D01*
X1070722Y658821D01*
X1069400Y657499D01*
X1068685Y655772D01*
Y653903D01*
X1069400Y652176D01*
X1070722Y650854D01*
X1072449Y650138D01*
X1074318D01*
X1076045Y650854D01*
X1077367Y652176D01*
X1078083Y653903D01*
Y655772D01*
X1077367Y657499D01*
X1076045Y658821D01*
X1074318Y659536D01*
D02*
G37*
G36*
X941578Y651728D02*
X939709D01*
X937981Y651013D01*
X936660Y649691D01*
X935944Y647964D01*
Y646095D01*
X936660Y644368D01*
X937981Y643046D01*
X939709Y642330D01*
X941578D01*
X943305Y643046D01*
X944627Y644368D01*
X945342Y646095D01*
Y647964D01*
X944627Y649691D01*
X943305Y651013D01*
X941578Y651728D01*
D02*
G37*
G36*
X804159D02*
X802290D01*
X800562Y651013D01*
X799241Y649691D01*
X798525Y647964D01*
Y646095D01*
X799241Y644368D01*
X800562Y643046D01*
X802290Y642330D01*
X804159D01*
X805886Y643046D01*
X807208Y644368D01*
X807923Y646095D01*
Y647964D01*
X807208Y649691D01*
X805886Y651013D01*
X804159Y651728D01*
D02*
G37*
G36*
X767385D02*
X765515D01*
X763788Y651013D01*
X762467Y649691D01*
X761751Y647964D01*
Y646095D01*
X762467Y644368D01*
X763788Y643046D01*
X765515Y642330D01*
X767385D01*
X769112Y643046D01*
X770434Y644368D01*
X771149Y646095D01*
Y647964D01*
X770434Y649691D01*
X769112Y651013D01*
X767385Y651728D01*
D02*
G37*
G36*
X1089320Y648569D02*
X1087450D01*
X1085723Y647853D01*
X1084401Y646531D01*
X1083686Y644804D01*
Y642935D01*
X1084401Y641208D01*
X1085723Y639886D01*
X1087450Y639171D01*
X1089320D01*
X1091047Y639886D01*
X1092368Y641208D01*
X1093084Y642935D01*
Y644804D01*
X1092368Y646531D01*
X1091047Y647853D01*
X1089320Y648569D01*
D02*
G37*
G36*
X552063Y647924D02*
X550193D01*
X548466Y647208D01*
X547144Y645886D01*
X546429Y644159D01*
Y642290D01*
X547144Y640563D01*
X548466Y639241D01*
X550193Y638526D01*
X552063D01*
X553790Y639241D01*
X555112Y640563D01*
X555827Y642290D01*
Y644159D01*
X555112Y645886D01*
X553790Y647208D01*
X552063Y647924D01*
D02*
G37*
G36*
X917707Y641472D02*
X915838D01*
X914111Y640757D01*
X912789Y639435D01*
X912073Y637708D01*
Y635838D01*
X912789Y634111D01*
X914111Y632789D01*
X915838Y632074D01*
X917707D01*
X919434Y632789D01*
X920756Y634111D01*
X921471Y635838D01*
Y637708D01*
X920756Y639435D01*
X919434Y640757D01*
X917707Y641472D01*
D02*
G37*
G36*
X1106094Y638891D02*
X1104224D01*
X1102497Y638176D01*
X1101176Y636854D01*
X1100460Y635127D01*
Y633258D01*
X1101176Y631530D01*
X1102497Y630209D01*
X1104224Y629493D01*
X1106094D01*
X1107821Y630209D01*
X1109143Y631530D01*
X1109858Y633258D01*
Y635127D01*
X1109143Y636854D01*
X1107821Y638176D01*
X1106094Y638891D01*
D02*
G37*
G36*
X551901Y635020D02*
X550032D01*
X548305Y634305D01*
X546983Y632983D01*
X546268Y631256D01*
Y629387D01*
X546983Y627660D01*
X548305Y626338D01*
X550032Y625622D01*
X551901D01*
X553628Y626338D01*
X554950Y627660D01*
X555666Y629387D01*
Y631256D01*
X554950Y632983D01*
X553628Y634305D01*
X551901Y635020D01*
D02*
G37*
G36*
X578998Y629859D02*
X577129D01*
X575402Y629144D01*
X574080Y627822D01*
X573364Y626095D01*
Y624225D01*
X574080Y622498D01*
X575402Y621176D01*
X577129Y620461D01*
X578998D01*
X580725Y621176D01*
X582047Y622498D01*
X582762Y624225D01*
Y626095D01*
X582047Y627822D01*
X580725Y629144D01*
X578998Y629859D01*
D02*
G37*
G36*
X969320Y629214D02*
X967450D01*
X965723Y628498D01*
X964402Y627177D01*
X963686Y625450D01*
Y623580D01*
X964402Y621853D01*
X965723Y620531D01*
X967450Y619816D01*
X969320D01*
X971047Y620531D01*
X972369Y621853D01*
X973084Y623580D01*
Y625450D01*
X972369Y627177D01*
X971047Y628498D01*
X969320Y629214D01*
D02*
G37*
G36*
X539159Y626633D02*
X537290D01*
X535563Y625918D01*
X534241Y624596D01*
X533526Y622869D01*
Y620999D01*
X534241Y619272D01*
X535563Y617951D01*
X537290Y617235D01*
X539159D01*
X540886Y617951D01*
X542208Y619272D01*
X542924Y620999D01*
Y622869D01*
X542208Y624596D01*
X540886Y625918D01*
X539159Y626633D01*
D02*
G37*
G36*
X1123765Y625736D02*
X1121896D01*
X1120169Y625021D01*
X1118847Y623699D01*
X1118131Y621972D01*
Y620102D01*
X1118847Y618375D01*
X1120169Y617053D01*
X1121896Y616338D01*
X1123765D01*
X1125492Y617053D01*
X1126814Y618375D01*
X1127530Y620102D01*
Y621972D01*
X1126814Y623699D01*
X1125492Y625021D01*
X1123765Y625736D01*
D02*
G37*
G36*
X618514Y625343D02*
X616645D01*
X614918Y624627D01*
X613596Y623306D01*
X612880Y621579D01*
Y619709D01*
X613596Y617982D01*
X614918Y616660D01*
X616645Y615945D01*
X618514D01*
X620241Y616660D01*
X621563Y617982D01*
X622278Y619709D01*
Y621579D01*
X621563Y623306D01*
X620241Y624627D01*
X618514Y625343D01*
D02*
G37*
G36*
X605450Y624053D02*
X603580D01*
X601853Y623337D01*
X600531Y622015D01*
X599816Y620288D01*
Y618419D01*
X600531Y616692D01*
X601853Y615370D01*
X603580Y614655D01*
X605450D01*
X607177Y615370D01*
X608498Y616692D01*
X609214Y618419D01*
Y620288D01*
X608498Y622015D01*
X607177Y623337D01*
X605450Y624053D01*
D02*
G37*
G36*
X1111900Y623407D02*
X1110031D01*
X1108304Y622692D01*
X1106982Y621370D01*
X1106266Y619643D01*
Y617774D01*
X1106982Y616047D01*
X1108304Y614725D01*
X1110031Y614009D01*
X1111900D01*
X1113627Y614725D01*
X1114949Y616047D01*
X1115665Y617774D01*
Y619643D01*
X1114949Y621370D01*
X1113627Y622692D01*
X1111900Y623407D01*
D02*
G37*
G36*
X1080287Y616311D02*
X1078418D01*
X1076691Y615595D01*
X1075369Y614273D01*
X1074654Y612546D01*
Y610677D01*
X1075369Y608950D01*
X1076691Y607628D01*
X1078418Y606913D01*
X1080287D01*
X1082014Y607628D01*
X1083336Y608950D01*
X1084052Y610677D01*
Y612546D01*
X1083336Y614273D01*
X1082014Y615595D01*
X1080287Y616311D01*
D02*
G37*
G36*
X823514Y609376D02*
X821644D01*
X819917Y608661D01*
X818595Y607339D01*
X817880Y605612D01*
Y603743D01*
X818595Y602016D01*
X819917Y600694D01*
X821644Y599978D01*
X823514D01*
X825241Y600694D01*
X826563Y602016D01*
X827278Y603743D01*
Y605612D01*
X826563Y607339D01*
X825241Y608661D01*
X823514Y609376D01*
D02*
G37*
G36*
X773883Y609214D02*
X772014D01*
X770287Y608498D01*
X768965Y607177D01*
X768249Y605450D01*
Y603580D01*
X768965Y601853D01*
X770287Y600531D01*
X772014Y599816D01*
X773883D01*
X775610Y600531D01*
X776932Y601853D01*
X777647Y603580D01*
Y605450D01*
X776932Y607177D01*
X775610Y608498D01*
X773883Y609214D01*
D02*
G37*
G36*
X1142868Y608569D02*
X1140999D01*
X1139271Y607853D01*
X1137950Y606531D01*
X1137234Y604804D01*
Y602935D01*
X1137950Y601208D01*
X1139271Y599886D01*
X1140999Y599171D01*
X1142868D01*
X1144595Y599886D01*
X1145917Y601208D01*
X1146632Y602935D01*
Y604804D01*
X1145917Y606531D01*
X1144595Y607853D01*
X1142868Y608569D01*
D02*
G37*
G36*
X799643Y605988D02*
X797773D01*
X796046Y605273D01*
X794725Y603951D01*
X794009Y602224D01*
Y600354D01*
X794725Y598627D01*
X796046Y597305D01*
X797773Y596590D01*
X799643D01*
X801370Y597305D01*
X802692Y598627D01*
X803407Y600354D01*
Y602224D01*
X802692Y603951D01*
X801370Y605273D01*
X799643Y605988D01*
D02*
G37*
G36*
X947867Y603408D02*
X945998D01*
X944271Y602692D01*
X942949Y601370D01*
X942233Y599643D01*
Y597774D01*
X942949Y596047D01*
X944271Y594725D01*
X945998Y594010D01*
X947867D01*
X949594Y594725D01*
X950916Y596047D01*
X951631Y597774D01*
Y599643D01*
X950916Y601370D01*
X949594Y602692D01*
X947867Y603408D01*
D02*
G37*
G36*
X780288Y598246D02*
X778419D01*
X776692Y597531D01*
X775370Y596209D01*
X774654Y594482D01*
Y592612D01*
X775370Y590885D01*
X776692Y589564D01*
X778419Y588848D01*
X780288D01*
X782015Y589564D01*
X783337Y590885D01*
X784052Y592612D01*
Y594482D01*
X783337Y596209D01*
X782015Y597531D01*
X780288Y598246D01*
D02*
G37*
G36*
X612595Y591230D02*
X610726D01*
X608999Y590514D01*
X607677Y589192D01*
X606961Y587465D01*
Y585596D01*
X607677Y583869D01*
X608999Y582547D01*
X610726Y581832D01*
X612595D01*
X614322Y582547D01*
X615644Y583869D01*
X616359Y585596D01*
Y587465D01*
X615644Y589192D01*
X614322Y590514D01*
X612595Y591230D01*
D02*
G37*
G36*
X953836Y591149D02*
X951967D01*
X950240Y590434D01*
X948918Y589112D01*
X948202Y587385D01*
Y585516D01*
X948918Y583789D01*
X950240Y582467D01*
X951967Y581751D01*
X953836D01*
X955563Y582467D01*
X956885Y583789D01*
X957600Y585516D01*
Y587385D01*
X956885Y589112D01*
X955563Y590434D01*
X953836Y591149D01*
D02*
G37*
G36*
X789965D02*
X788096D01*
X786369Y590434D01*
X785047Y589112D01*
X784332Y587385D01*
Y585516D01*
X785047Y583789D01*
X786369Y582467D01*
X788096Y581751D01*
X789965D01*
X791692Y582467D01*
X793014Y583789D01*
X793730Y585516D01*
Y587385D01*
X793014Y589112D01*
X791692Y590434D01*
X789965Y591149D01*
D02*
G37*
G36*
X580450Y584053D02*
X578580D01*
X576853Y583337D01*
X575531Y582015D01*
X574816Y580288D01*
Y578419D01*
X575531Y576692D01*
X576853Y575370D01*
X578580Y574655D01*
X580450D01*
X582177Y575370D01*
X583499Y576692D01*
X584214Y578419D01*
Y580288D01*
X583499Y582015D01*
X582177Y583337D01*
X580450Y584053D01*
D02*
G37*
G36*
X502224Y568569D02*
X500355D01*
X498628Y567853D01*
X497306Y566532D01*
X496590Y564804D01*
Y562935D01*
X497306Y561208D01*
X498628Y559886D01*
X500355Y559171D01*
X502224D01*
X503951Y559886D01*
X505273Y561208D01*
X505988Y562935D01*
Y564804D01*
X505273Y566532D01*
X503951Y567853D01*
X502224Y568569D01*
D02*
G37*
G36*
X540289Y549859D02*
X538419D01*
X536692Y549144D01*
X535370Y547822D01*
X534655Y546095D01*
Y544226D01*
X535370Y542498D01*
X536692Y541177D01*
X538419Y540461D01*
X540289D01*
X542015Y541177D01*
X543337Y542498D01*
X544053Y544226D01*
Y546095D01*
X543337Y547822D01*
X542015Y549144D01*
X540289Y549859D01*
D02*
G37*
G36*
X480934Y549214D02*
X479064D01*
X477337Y548499D01*
X476015Y547177D01*
X475300Y545450D01*
Y543580D01*
X476015Y541853D01*
X477337Y540531D01*
X479064Y539816D01*
X480934D01*
X482661Y540531D01*
X483983Y541853D01*
X484698Y543580D01*
Y545450D01*
X483983Y547177D01*
X482661Y548499D01*
X480934Y549214D01*
D02*
G37*
G36*
X616579Y539537D02*
X614709D01*
X612982Y538821D01*
X611660Y537499D01*
X610945Y535772D01*
Y533903D01*
X611660Y532176D01*
X612982Y530854D01*
X614709Y530139D01*
X616579D01*
X618306Y530854D01*
X619627Y532176D01*
X620343Y533903D01*
Y535772D01*
X619627Y537499D01*
X618306Y538821D01*
X616579Y539537D01*
D02*
G37*
G36*
X563030Y529859D02*
X561161D01*
X559434Y529144D01*
X558112Y527822D01*
X557397Y526095D01*
Y524226D01*
X558112Y522499D01*
X559434Y521177D01*
X561161Y520461D01*
X563030D01*
X564757Y521177D01*
X566079Y522499D01*
X566795Y524226D01*
Y526095D01*
X566079Y527822D01*
X564757Y529144D01*
X563030Y529859D01*
D02*
G37*
G36*
X589321Y525343D02*
X587451D01*
X585724Y524628D01*
X584402Y523306D01*
X583687Y521579D01*
Y519709D01*
X584402Y517982D01*
X585724Y516660D01*
X587451Y515945D01*
X589321D01*
X591048Y516660D01*
X592369Y517982D01*
X593085Y519709D01*
Y521579D01*
X592369Y523306D01*
X591048Y524628D01*
X589321Y525343D01*
D02*
G37*
G36*
X647385Y524698D02*
X645516D01*
X643789Y523983D01*
X642467Y522661D01*
X641751Y520934D01*
Y519064D01*
X642467Y517337D01*
X643789Y516015D01*
X645516Y515300D01*
X647385D01*
X649112Y516015D01*
X650434Y517337D01*
X651149Y519064D01*
Y520934D01*
X650434Y522661D01*
X649112Y523983D01*
X647385Y524698D01*
D02*
G37*
G36*
X515127Y486633D02*
X513258D01*
X511531Y485918D01*
X510209Y484596D01*
X509493Y482869D01*
Y481000D01*
X510209Y479273D01*
X511531Y477951D01*
X513258Y477235D01*
X515127D01*
X516854Y477951D01*
X518176Y479273D01*
X518891Y481000D01*
Y482869D01*
X518176Y484596D01*
X516854Y485918D01*
X515127Y486633D01*
D02*
G37*
G36*
X564535Y483838D02*
X562666D01*
X560939Y483123D01*
X559617Y481801D01*
X558902Y480074D01*
Y478204D01*
X559617Y476477D01*
X560939Y475155D01*
X562666Y474440D01*
X564535D01*
X566263Y475155D01*
X567584Y476477D01*
X568300Y478204D01*
Y480074D01*
X567584Y481801D01*
X566263Y483123D01*
X564535Y483838D01*
D02*
G37*
G36*
X984473Y461262D02*
Y458668D01*
X987067D01*
X986778Y459365D01*
X985171Y460973D01*
X984473Y461262D01*
D02*
G37*
G36*
X979393D02*
X978696Y460973D01*
X977089Y459365D01*
X976800Y458668D01*
X979393D01*
Y461262D01*
D02*
G37*
G36*
X770926D02*
Y458668D01*
X773519D01*
X773231Y459365D01*
X771623Y460973D01*
X770926Y461262D01*
D02*
G37*
G36*
X765846D02*
X765148Y460973D01*
X763541Y459365D01*
X763252Y458668D01*
X765846D01*
Y461262D01*
D02*
G37*
G36*
X506740Y464698D02*
X504871D01*
X503144Y463983D01*
X501822Y462661D01*
X501106Y460934D01*
Y459064D01*
X501822Y457337D01*
X503144Y456016D01*
X504871Y455300D01*
X506740D01*
X508467Y456016D01*
X509789Y457337D01*
X510504Y459064D01*
Y460934D01*
X509789Y462661D01*
X508467Y463983D01*
X506740Y464698D01*
D02*
G37*
G36*
X987067Y453588D02*
X984473D01*
Y450994D01*
X985171Y451283D01*
X986778Y452891D01*
X987067Y453588D01*
D02*
G37*
G36*
X979393D02*
X976800D01*
X977089Y452891D01*
X978696Y451283D01*
X979393Y450994D01*
Y453588D01*
D02*
G37*
G36*
X773519D02*
X770926D01*
Y450994D01*
X771623Y451283D01*
X773231Y452891D01*
X773519Y453588D01*
D02*
G37*
G36*
X765846D02*
X763252D01*
X763541Y452891D01*
X765148Y451283D01*
X765846Y450994D01*
Y453588D01*
D02*
G37*
G36*
X492684Y444297D02*
X477636D01*
Y429249D01*
X492684D01*
Y444297D01*
D02*
G37*
G36*
X466151D02*
X464170D01*
X462256Y443785D01*
X460541Y442794D01*
X459140Y441393D01*
X458149Y439678D01*
X457636Y437764D01*
Y435783D01*
X458149Y433869D01*
X459140Y432154D01*
X460541Y430753D01*
X462256Y429762D01*
X464170Y429249D01*
X466151D01*
X468064Y429762D01*
X469780Y430753D01*
X471181Y432154D01*
X472172Y433869D01*
X472684Y435783D01*
Y437764D01*
X472172Y439678D01*
X471181Y441393D01*
X469780Y442794D01*
X468064Y443785D01*
X466151Y444297D01*
D02*
G37*
G36*
X409459D02*
X394411D01*
Y429249D01*
X409459D01*
Y444297D01*
D02*
G37*
G36*
X382925D02*
X380944D01*
X379031Y443785D01*
X377315Y442794D01*
X375914Y441393D01*
X374924Y439678D01*
X374411Y437764D01*
Y435783D01*
X374924Y433869D01*
X375914Y432154D01*
X377315Y430753D01*
X379031Y429762D01*
X380944Y429249D01*
X382925D01*
X384839Y429762D01*
X386554Y430753D01*
X387955Y432154D01*
X388946Y433869D01*
X389459Y435783D01*
Y437764D01*
X388946Y439678D01*
X387955Y441393D01*
X386554Y442794D01*
X384839Y443785D01*
X382925Y444297D01*
D02*
G37*
G36*
X1124268Y432929D02*
X1122567D01*
X1120996Y432278D01*
X1119794Y431076D01*
X1119143Y429505D01*
Y427805D01*
X1119794Y426234D01*
X1120996Y425032D01*
X1122567Y424381D01*
X1124268D01*
X1125838Y425032D01*
X1127041Y426234D01*
X1127691Y427805D01*
Y429505D01*
X1127041Y431076D01*
X1125838Y432278D01*
X1124268Y432929D01*
D02*
G37*
G36*
X985267D02*
X983567D01*
X981996Y432278D01*
X980794Y431076D01*
X980143Y429505D01*
Y427805D01*
X980794Y426234D01*
X981996Y425032D01*
X983567Y424381D01*
X985267D01*
X986838Y425032D01*
X988041Y426234D01*
X988691Y427805D01*
Y429505D01*
X988041Y431076D01*
X986838Y432278D01*
X985267Y432929D01*
D02*
G37*
G36*
X909268D02*
X907567D01*
X905996Y432278D01*
X904794Y431076D01*
X904143Y429505D01*
Y427805D01*
X904794Y426234D01*
X905996Y425032D01*
X907567Y424381D01*
X909268D01*
X910838Y425032D01*
X912041Y426234D01*
X912691Y427805D01*
Y429505D01*
X912041Y431076D01*
X910838Y432278D01*
X909268Y432929D01*
D02*
G37*
G36*
X770267D02*
X768567D01*
X766996Y432278D01*
X765794Y431076D01*
X765143Y429505D01*
Y427805D01*
X765794Y426234D01*
X766996Y425032D01*
X768567Y424381D01*
X770267D01*
X771838Y425032D01*
X773041Y426234D01*
X773691Y427805D01*
Y429505D01*
X773041Y431076D01*
X771838Y432278D01*
X770267Y432929D01*
D02*
G37*
G36*
X1054481Y420827D02*
X1052612D01*
X1050884Y420112D01*
X1049563Y418790D01*
X1048847Y417063D01*
Y415193D01*
X1049563Y413466D01*
X1050884Y412145D01*
X1052612Y411429D01*
X1054481D01*
X1056208Y412145D01*
X1057530Y413466D01*
X1058245Y415193D01*
Y417063D01*
X1057530Y418790D01*
X1056208Y420112D01*
X1054481Y420827D01*
D02*
G37*
G36*
X877062D02*
X875193D01*
X873465Y420112D01*
X872144Y418790D01*
X871428Y417063D01*
Y415193D01*
X872144Y413466D01*
X873465Y412145D01*
X875193Y411429D01*
X877062D01*
X878789Y412145D01*
X880111Y413466D01*
X880826Y415193D01*
Y417063D01*
X880111Y418790D01*
X878789Y420112D01*
X877062Y420827D01*
D02*
G37*
G36*
X1098352Y420182D02*
X1096482D01*
X1094755Y419467D01*
X1093434Y418145D01*
X1092718Y416418D01*
Y414548D01*
X1093434Y412821D01*
X1094755Y411499D01*
X1096482Y410784D01*
X1098352D01*
X1100079Y411499D01*
X1101401Y412821D01*
X1102116Y414548D01*
Y416418D01*
X1101401Y418145D01*
X1100079Y419467D01*
X1098352Y420182D01*
D02*
G37*
G36*
X1009320D02*
X1007450D01*
X1005723Y419467D01*
X1004401Y418145D01*
X1003686Y416418D01*
Y414548D01*
X1004401Y412821D01*
X1005723Y411499D01*
X1007450Y410784D01*
X1009320D01*
X1011047Y411499D01*
X1012369Y412821D01*
X1013084Y414548D01*
Y416418D01*
X1012369Y418145D01*
X1011047Y419467D01*
X1009320Y420182D01*
D02*
G37*
G36*
X839643D02*
X837773D01*
X836046Y419467D01*
X834724Y418145D01*
X834009Y416418D01*
Y414548D01*
X834724Y412821D01*
X836046Y411499D01*
X837773Y410784D01*
X839643D01*
X841370Y411499D01*
X842692Y412821D01*
X843407Y414548D01*
Y416418D01*
X842692Y418145D01*
X841370Y419467D01*
X839643Y420182D01*
D02*
G37*
G36*
X581281Y418055D02*
X563233D01*
Y400008D01*
X581281D01*
Y418055D01*
D02*
G37*
G36*
X548045D02*
X545669D01*
X543374Y417440D01*
X541316Y416252D01*
X539636Y414572D01*
X538448Y412515D01*
X537833Y410219D01*
Y407843D01*
X538448Y405548D01*
X539636Y403491D01*
X541316Y401810D01*
X543374Y400622D01*
X545669Y400008D01*
X548045D01*
X550340Y400622D01*
X552398Y401810D01*
X554078Y403491D01*
X555266Y405548D01*
X555881Y407843D01*
Y410219D01*
X555266Y412515D01*
X554078Y414572D01*
X552398Y416252D01*
X550340Y417440D01*
X548045Y418055D01*
D02*
G37*
%LPD*%
G36*
X418630Y838629D02*
X418630Y838629D01*
X418863Y838473D01*
X418478Y837203D01*
X369931D01*
X357554Y849580D01*
X358273Y850657D01*
X359283Y850239D01*
X362862Y849527D01*
X366511D01*
X370089Y850239D01*
X373461Y851635D01*
X376495Y853662D01*
X379075Y856243D01*
X381102Y859276D01*
X382498Y862648D01*
X383210Y866226D01*
Y869875D01*
X382620Y872843D01*
X383790Y873469D01*
X418630Y838629D01*
D02*
G37*
D12*
X789139Y872581D02*
X808060D01*
X821934Y858708D01*
X837418D01*
X383235Y907095D02*
Y907762D01*
X380763Y901793D02*
X381430D01*
X377266Y905290D02*
Y905957D01*
Y905290D02*
X380763Y901793D01*
X371612Y911611D02*
X377266Y905957D01*
X371612Y911611D02*
Y920643D01*
X432535Y850688D02*
X784488D01*
X381430Y901793D02*
X432535Y850688D01*
X360807Y926612D02*
X374085D01*
X441141Y859556D02*
X781861D01*
X374085Y926612D02*
X441141Y859556D01*
X379354Y893547D02*
X426733Y846168D01*
X456255D01*
X360644Y900643D02*
X420644Y840643D01*
X780787D01*
X344892Y858213D02*
X368751Y834354D01*
X772094D01*
X368972Y828385D02*
X762579D01*
X336773Y860584D02*
X368972Y828385D01*
X780787Y840643D02*
X781051Y840379D01*
X786701Y852902D02*
X797418D01*
X834192Y801289D02*
Y821934D01*
Y801289D02*
X848385Y787095D01*
Y771164D02*
Y787095D01*
X530267Y769676D02*
X846898D01*
X848385Y771164D01*
X495456Y804487D02*
X530267Y769676D01*
X813869Y827418D02*
X819353Y832902D01*
X808385Y803869D02*
X813869Y809353D01*
Y827418D01*
X823224Y821289D02*
X823917Y820595D01*
Y803917D02*
Y820595D01*
X515483Y803869D02*
X808385D01*
X532257Y794837D02*
X814837D01*
X823917Y803917D01*
X367289Y824321D02*
X752897D01*
X772094Y834354D02*
X772256Y834192D01*
X456255Y846168D02*
X456699Y846612D01*
X431871Y858459D02*
X434838Y855492D01*
X383235Y907095D02*
X431871Y858459D01*
X434838Y855492D02*
X783544D01*
X431871Y858459D02*
Y858459D01*
X376773Y930676D02*
X443829Y863620D01*
X780178D02*
X789139Y872581D01*
X443829Y863620D02*
X780178D01*
X781861Y859556D02*
X785239Y862934D01*
X783544Y855492D02*
X786923Y858870D01*
X787066Y844598D02*
X792173D01*
X784488Y850688D02*
X786701Y852902D01*
X456699Y846612D02*
X785051D01*
X787066Y844598D01*
X786923Y858870D02*
X799890D01*
X790580Y866612D02*
X791611D01*
X785239Y862934D02*
X786902D01*
X790580Y866612D01*
X753656Y820275D02*
X754385Y819546D01*
X752897Y824321D02*
X753656Y823562D01*
Y820275D02*
Y823562D01*
X799890Y858870D02*
X801343Y857418D01*
X792173Y844598D02*
X792902Y843869D01*
X801343Y857418D02*
X808385D01*
X352613Y930676D02*
X376773D01*
X341935Y919998D02*
X352613Y930676D01*
X319999Y919998D02*
X341935D01*
X330322Y861289D02*
X367289Y824321D01*
X344892Y858213D02*
Y887573D01*
X336773Y860584D02*
Y877418D01*
X344892Y887573D02*
X345077Y887758D01*
Y890237D02*
X345806Y890966D01*
X345077Y887758D02*
Y890237D01*
X358064Y923869D02*
X360807Y926612D01*
X358064Y914837D02*
Y923869D01*
D39*
X383235Y907762D02*
D03*
X379354Y893547D02*
D03*
X781051Y840379D02*
D03*
X797418Y852902D02*
D03*
X834192Y821934D02*
D03*
X819353Y832902D02*
D03*
X823224Y821289D02*
D03*
X532257Y794837D02*
D03*
X495456Y804487D02*
D03*
X515483Y803869D02*
D03*
X837418Y858708D02*
D03*
X762579Y828385D02*
D03*
X772256Y834192D02*
D03*
X724515Y816127D02*
D03*
X754385Y819546D02*
D03*
X319999Y919998D02*
D03*
X324132Y969414D02*
D03*
X330322Y861289D02*
D03*
X336773Y877418D02*
D03*
X345806Y890966D02*
D03*
X792902Y843869D02*
D03*
X791611Y866612D02*
D03*
X808385Y857418D02*
D03*
X371612Y920643D02*
D03*
X360644Y900643D02*
D03*
X358064Y914837D02*
D03*
X723224Y732902D02*
D03*
X980643Y754192D02*
D03*
X768386Y456128D02*
D03*
X981934D02*
D03*
D40*
X963869Y801289D02*
D03*
X614837Y707740D02*
D03*
M02*
