G04*
G04 #@! TF.GenerationSoftware,Altium Limited,Altium Designer,22.7.1 (60)*
G04*
G04 Layer_Color=8388736*
%FSLAX44Y44*%
%MOMM*%
G71*
G04*
G04 #@! TF.SameCoordinates,F0A3B908-A9A0-482C-9906-E7527CCB9396*
G04*
G04*
G04 #@! TF.FilePolarity,Positive*
G04*
G01*
G75*
%ADD14C,0.0254*%
%ADD41C,1.2700*%
%ADD42C,0.6350*%
D14*
X857746Y200438D02*
G03*
X867746Y190438I10000J0D01*
G01*
X917746Y190438D02*
G03*
X927746Y200438I0J10000D01*
G01*
X927746Y292438D02*
G03*
X917746Y302438I-10000J0D01*
G01*
X867746D02*
G03*
X857746Y292438I0J-10000D01*
G01*
X943030Y100544D02*
G03*
X934243Y79331I21213J-21213D01*
G01*
X34243D02*
G03*
X25456Y100544I-30000J0D01*
G01*
X867746Y190438D02*
X917746D01*
X927746Y200438D02*
X927746Y292438D01*
X867746Y302438D02*
X917746D01*
X857746Y200438D02*
Y292438D01*
X34243Y79331D02*
X34243Y55500D01*
X934243D01*
X934243Y79331D01*
X943030Y100544D02*
X967986Y125500D01*
Y675500D01*
X897986Y745500D02*
X967986Y675500D01*
X70500Y745500D02*
X897986D01*
X500Y675500D02*
X70500Y745500D01*
X500Y125500D02*
Y675500D01*
Y125500D02*
X25456Y100544D01*
D41*
X181935Y563225D02*
D03*
X649031Y662579D02*
D03*
X664515Y189032D02*
D03*
X449031Y187742D02*
D03*
X286451Y514193D02*
D03*
X315483Y530967D02*
D03*
Y501935D02*
D03*
X398709Y563225D02*
D03*
D42*
X316128Y717418D02*
D03*
X679353Y610321D02*
D03*
X541289Y650321D02*
D03*
X768386Y610321D02*
D03*
X724515D02*
D03*
X280806Y421935D02*
D03*
X264032Y418709D02*
D03*
X240161Y426451D02*
D03*
X214354Y444515D02*
D03*
X210483Y494838D02*
D03*
Y461935D02*
D03*
X209677Y510967D02*
D03*
X177419Y283225D02*
D03*
X225322Y326451D02*
D03*
X467741Y610321D02*
D03*
X509676Y673547D02*
D03*
X502580Y666450D02*
D03*
X494193Y659999D02*
D03*
X483225Y652902D02*
D03*
X714192Y565805D02*
D03*
X682579Y541934D02*
D03*
X226827Y280430D02*
D03*
X726450Y530322D02*
D03*
X492981Y523954D02*
D03*
X723869Y250322D02*
D03*
X731611Y511612D02*
D03*
X546451Y250322D02*
D03*
X412257Y411612D02*
D03*
X694837Y501289D02*
D03*
X429677Y390967D02*
D03*
X445806Y407741D02*
D03*
X446451Y419354D02*
D03*
X674192Y558709D02*
D03*
X719999Y549676D02*
D03*
X688868Y521289D02*
D03*
X678708Y249677D02*
D03*
X197291Y341000D02*
D03*
X385806Y634192D02*
D03*
X251612Y321935D02*
D03*
X767740Y249677D02*
D03*
X509031D02*
D03*
X507741Y610966D02*
D03*
X424515Y610321D02*
D03*
X169032Y261290D02*
D03*
X164516Y365161D02*
D03*
X143225Y345806D02*
D03*
X210322Y478709D02*
D03*
X214193Y431612D02*
D03*
X242741Y380644D02*
D03*
X201451Y423225D02*
D03*
M02*
