%TF.GenerationSoftware,Altium Limited,Altium Designer,22.7.1 (60)*%
G04 Layer_Color=32896*
%FSLAX45Y45*%
%MOMM*%
%TF.SameCoordinates,3BEA7849-7BF4-4C83-8F54-36563B6BDC8B*%
%TF.FilePolarity,Positive*%
%TF.FileFunction,Legend,Bot*%
%TF.Part,Single*%
G01*
G75*
%TA.AperFunction,NonConductor*%
%ADD40C,0.25000*%
%ADD41C,0.15000*%
%ADD42C,0.20000*%
%ADD43C,0.15240*%
%ADD44C,0.50000*%
%ADD45C,0.25400*%
%ADD46C,0.07620*%
D40*
X1079609Y1001890D02*
G03*
X1079609Y1001890I-12500J0D01*
G01*
X1938947Y1961286D02*
G03*
X1938947Y1961286I-12500J0D01*
G01*
X2060074Y2495640D02*
G03*
X2060074Y2495640I-12500J0D01*
G01*
X2114601Y6752600D02*
G03*
X2114601Y6752600I-12500J0D01*
G01*
X8745329Y1001890D02*
G03*
X8745329Y1001890I-12500J0D01*
G01*
D41*
X2398060Y2355801D02*
Y2385802D01*
X2118060Y2355801D02*
X2398060D01*
X2118060D02*
Y2385802D01*
Y2465802D02*
Y2495802D01*
X2398060D01*
Y2465802D02*
Y2495802D01*
X2258060Y2355801D02*
Y2495802D01*
X1223869Y1046127D02*
Y1076127D01*
X943869Y1046127D02*
X1223869D01*
X943869D02*
Y1076127D01*
Y1156127D02*
Y1186127D01*
X1223869D01*
Y1156127D02*
Y1186127D01*
X1083869Y1046127D02*
Y1186127D01*
X2387092Y2865478D02*
Y3005478D01*
X2514092Y2986278D02*
Y3005478D01*
X2260092D02*
X2514092D01*
X2260092Y2986278D02*
Y3005478D01*
Y2865478D02*
Y2884678D01*
Y2865478D02*
X2514092D01*
Y2884678D01*
X2400963Y2716124D02*
X2540963D01*
X2521763Y2589124D02*
X2540963D01*
Y2843124D01*
X2521763D02*
X2540963D01*
X2400963D02*
X2420163D01*
X2400963Y2589124D02*
Y2843124D01*
Y2589124D02*
X2420163D01*
X950644Y1437739D02*
Y1457739D01*
X610644D02*
X950644D01*
X610644Y1437739D02*
Y1457739D01*
X950644Y1277739D02*
Y1297739D01*
X610644Y1277739D02*
X950644D01*
X610644D02*
Y1297739D01*
X780644Y1277739D02*
Y1457739D01*
X950643Y1611933D02*
Y1631932D01*
X610643D02*
X950643D01*
X610643Y1611933D02*
Y1631932D01*
X950643Y1451932D02*
Y1471932D01*
X610643Y1451932D02*
X950643D01*
X610643D02*
Y1471932D01*
X780643Y1451932D02*
Y1631932D01*
X1529997Y1354836D02*
X1669997D01*
X1529997Y1494836D02*
X1559997D01*
X1529997Y1214836D02*
Y1494836D01*
Y1214836D02*
X1559997D01*
X1639997D02*
X1669997D01*
Y1494836D01*
X1639997D02*
X1669997D01*
X1388061Y1354836D02*
X1528062D01*
X1388061Y1494836D02*
X1418062D01*
X1388061Y1214836D02*
Y1494836D01*
Y1214836D02*
X1418062D01*
X1498062D02*
X1528062D01*
Y1494836D01*
X1498062D02*
X1528062D01*
X2258060Y2207415D02*
Y2347415D01*
X2398060Y2317415D02*
Y2347415D01*
X2118060D02*
X2398060D01*
X2118060Y2317415D02*
Y2347415D01*
Y2207415D02*
Y2237415D01*
Y2207415D02*
X2398060D01*
Y2237415D01*
D42*
X2372092Y3060720D02*
X2402092D01*
X2372092Y3145720D02*
X2402092D01*
X2075318Y2977978D02*
X2105318D01*
X2075318Y2892978D02*
X2105318D01*
X2075318Y3145720D02*
X2105318D01*
X2075318Y3060720D02*
X2105318D01*
X2075318Y3313461D02*
X2105318D01*
X2075318Y3228461D02*
X2105318D01*
X2075318Y3481203D02*
X2105318D01*
X2075318Y3396203D02*
X2105318D01*
X1260514Y199094D02*
Y959095D01*
X1160509D02*
X1260514D01*
X670510Y199094D02*
X1260514D01*
X670486Y199119D02*
Y959119D01*
X670510Y959095D02*
X770509D01*
X1991447Y1746286D02*
X2421447D01*
Y2176286D01*
X1991447D02*
X2421447D01*
X1991447Y1746286D02*
Y2176286D01*
X2235074Y2520640D02*
Y2830640D01*
X2135074Y2520640D02*
Y2830640D01*
X2235074D01*
X2135074Y2520640D02*
X2235074D01*
X1942101Y6803600D02*
Y6815100D01*
Y7130100D02*
Y7188100D01*
X2857100Y6803600D02*
Y6815100D01*
Y7130100D02*
Y7188100D01*
X1942101Y6803600D02*
X2857100D01*
X8336230Y959095D02*
X8436229D01*
X8336206Y199119D02*
Y959119D01*
X8336230Y199094D02*
X8926234D01*
X8826229Y959095D02*
X8926234D01*
Y199094D02*
Y959095D01*
D43*
X1051916Y1211732D02*
X1257656D01*
X1051916Y1547012D02*
X1257656D01*
D44*
X4932406Y2303489D02*
Y2703489D01*
X6452406Y2303489D02*
Y2703489D01*
X7082406Y2303489D02*
Y2703489D01*
X8602406Y2303489D02*
Y2703489D01*
X7082406Y5903489D02*
Y6303489D01*
X8602406Y5903489D02*
Y6303489D01*
X4532406Y5903489D02*
Y6303489D01*
X6052406Y5903489D02*
Y6303489D01*
D45*
X1596680Y2443913D02*
X1495113D01*
X1545896D01*
Y2291562D01*
X1444329D02*
Y2443913D01*
X1368154D01*
X1342762Y2418521D01*
Y2367737D01*
X1368154Y2342345D01*
X1444329D01*
X1190411Y2291562D02*
X1291978D01*
X1190411Y2393129D01*
Y2418521D01*
X1215803Y2443913D01*
X1266586D01*
X1291978Y2418521D01*
X2857644Y2534649D02*
X2883036Y2560041D01*
X2933819D01*
X2959211Y2534649D01*
Y2433083D01*
X2933819Y2407691D01*
X2883036D01*
X2857644Y2433083D01*
X2705293Y2407691D02*
X2806861D01*
X2705293Y2509258D01*
Y2534649D01*
X2730685Y2560041D01*
X2781469D01*
X2806861Y2534649D01*
X675967Y1134652D02*
X701359Y1160044D01*
X752142D01*
X777534Y1134652D01*
Y1033085D01*
X752142Y1007693D01*
X701359D01*
X675967Y1033085D01*
X625183Y1007693D02*
X574400D01*
X599791D01*
Y1160044D01*
X625183Y1134652D01*
X498224D02*
X472832Y1160044D01*
X422049D01*
X396657Y1134652D01*
Y1033085D01*
X422049Y1007693D01*
X472832D01*
X498224Y1033085D01*
Y1134652D01*
X3062851Y2633497D02*
Y2785847D01*
X2986676D01*
X2961284Y2760455D01*
Y2709672D01*
X2986676Y2684280D01*
X3062851D01*
X3012068D02*
X2961284Y2633497D01*
X2910501D02*
X2859717D01*
X2885109D01*
Y2785847D01*
X2910501Y2760455D01*
X2715709Y3173358D02*
X2741101Y3198750D01*
X2791884D01*
X2817276Y3173358D01*
Y3071791D01*
X2791884Y3046399D01*
X2741101D01*
X2715709Y3071791D01*
X2664925Y3173358D02*
X2639533Y3198750D01*
X2588750D01*
X2563358Y3173358D01*
Y3147966D01*
X2588750Y3122574D01*
X2614142D01*
X2588750D01*
X2563358Y3097183D01*
Y3071791D01*
X2588750Y3046399D01*
X2639533D01*
X2664925Y3071791D01*
X1631840Y2915294D02*
X1657232Y2940686D01*
X1708015D01*
X1733407Y2915294D01*
Y2813727D01*
X1708015Y2788335D01*
X1657232D01*
X1631840Y2813727D01*
X1504881Y2788335D02*
Y2940686D01*
X1581057Y2864510D01*
X1479489D01*
X1638292Y3134648D02*
X1663683Y3160040D01*
X1714467D01*
X1739859Y3134648D01*
Y3033081D01*
X1714467Y3007689D01*
X1663683D01*
X1638292Y3033081D01*
X1485941Y3160040D02*
X1536725Y3134648D01*
X1587508Y3083865D01*
Y3033081D01*
X1562116Y3007689D01*
X1511333D01*
X1485941Y3033081D01*
Y3058473D01*
X1511333Y3083865D01*
X1587508D01*
X1638292Y3354003D02*
X1663683Y3379395D01*
X1714467D01*
X1739859Y3354003D01*
Y3252436D01*
X1714467Y3227044D01*
X1663683D01*
X1638292Y3252436D01*
X1587508Y3379395D02*
X1485941D01*
Y3354003D01*
X1587508Y3252436D01*
Y3227044D01*
X2519259Y3869716D02*
X2417691D01*
X2468475D01*
Y3717365D01*
X2366908D02*
Y3869716D01*
X2290733D01*
X2265341Y3844324D01*
Y3793541D01*
X2290733Y3768149D01*
X2366908D01*
X2214557Y3844324D02*
X2189165Y3869716D01*
X2138382D01*
X2112990Y3844324D01*
Y3818933D01*
X2138382Y3793541D01*
X2163774D01*
X2138382D01*
X2112990Y3768149D01*
Y3742757D01*
X2138382Y3717365D01*
X2189165D01*
X2214557Y3742757D01*
X1644743Y3573357D02*
X1670135Y3598749D01*
X1720919D01*
X1746310Y3573357D01*
Y3471790D01*
X1720919Y3446398D01*
X1670135D01*
X1644743Y3471790D01*
X1492392Y3598749D02*
X1593960D01*
Y3522574D01*
X1543176Y3547965D01*
X1517784D01*
X1492392Y3522574D01*
Y3471790D01*
X1517784Y3446398D01*
X1568568D01*
X1593960Y3471790D01*
X3216031Y2998750D02*
X3114464D01*
X3165248D01*
Y2846399D01*
X3063681D02*
Y2998750D01*
X2987505D01*
X2962113Y2973358D01*
Y2922575D01*
X2987505Y2897183D01*
X3063681D01*
X2835155Y2846399D02*
Y2998750D01*
X2911330Y2922575D01*
X2809763D01*
X2791470Y2194788D02*
Y2347139D01*
X2715294D01*
X2689902Y2321747D01*
Y2270963D01*
X2715294Y2245571D01*
X2791470D01*
X2740686D02*
X2689902Y2194788D01*
X2537552D02*
X2639119D01*
X2537552Y2296355D01*
Y2321747D01*
X2562944Y2347139D01*
X2613727D01*
X2639119Y2321747D01*
X3113220Y2127784D02*
X3011653D01*
X3062437D01*
Y1975433D01*
X2960870D02*
Y2127784D01*
X2884694D01*
X2859302Y2102392D01*
Y2051609D01*
X2884694Y2026217D01*
X2960870D01*
X2808519Y1975433D02*
X2757735D01*
X2783127D01*
Y2127784D01*
X2808519Y2102392D01*
X1572117Y665759D02*
Y818109D01*
X1495942D01*
X1470550Y792717D01*
Y741934D01*
X1495942Y716542D01*
X1572117D01*
X1419767Y792717D02*
X1394375Y818109D01*
X1343591D01*
X1318199Y792717D01*
Y767326D01*
X1343591Y741934D01*
X1368983D01*
X1343591D01*
X1318199Y716542D01*
Y691151D01*
X1343591Y665759D01*
X1394375D01*
X1419767Y691151D01*
X494700Y1214145D02*
Y1366495D01*
X418525D01*
X393133Y1341103D01*
Y1290320D01*
X418525Y1264928D01*
X494700D01*
X443917D02*
X393133Y1214145D01*
X240782Y1366495D02*
X291566Y1341103D01*
X342349Y1290320D01*
Y1239537D01*
X316957Y1214145D01*
X266174D01*
X240782Y1239537D01*
Y1264928D01*
X266174Y1290320D01*
X342349D01*
X772119Y1685111D02*
Y1837462D01*
X695943D01*
X670552Y1812070D01*
Y1761287D01*
X695943Y1735895D01*
X772119D01*
X721335D02*
X670552Y1685111D01*
X518201Y1837462D02*
X619768D01*
Y1761287D01*
X568985Y1786679D01*
X543593D01*
X518201Y1761287D01*
Y1710503D01*
X543593Y1685111D01*
X594376D01*
X619768Y1710503D01*
X1275758Y1876172D02*
Y1749213D01*
X1250366Y1723821D01*
X1199583D01*
X1174191Y1749213D01*
Y1876172D01*
X1123407Y1723821D02*
X1072624D01*
X1098016D01*
Y1876172D01*
X1123407Y1850780D01*
X2029493Y7998411D02*
X2080277D01*
X2054885D01*
Y7871452D01*
X2080277Y7846060D01*
X2105668D01*
X2131060Y7871452D01*
X1978709Y7846060D02*
X1927926D01*
X1953317D01*
Y7998411D01*
X1978709Y7973019D01*
X8913677Y1103092D02*
Y1255443D01*
X8837501D01*
X8812109Y1230051D01*
Y1179268D01*
X8837501Y1153876D01*
X8913677D01*
X8659759Y1103092D02*
X8761326D01*
X8659759Y1204660D01*
Y1230051D01*
X8685151Y1255443D01*
X8735934D01*
X8761326Y1230051D01*
X2131060Y2425651D02*
Y2273300D01*
X2029493D01*
X1978709D02*
X1927926D01*
X1953317D01*
Y2425651D01*
X1978709Y2400259D01*
X8501413Y3063191D02*
X8552197D01*
X8526805D01*
Y2936232D01*
X8552197Y2910840D01*
X8577588D01*
X8602980Y2936232D01*
X8349062Y3063191D02*
X8450629D01*
Y2987015D01*
X8399846Y3012407D01*
X8374454D01*
X8349062Y2987015D01*
Y2936232D01*
X8374454Y2910840D01*
X8425237D01*
X8450629Y2936232D01*
X6350033Y3063191D02*
X6400817D01*
X6375425D01*
Y2936232D01*
X6400817Y2910840D01*
X6426208D01*
X6451600Y2936232D01*
X6223074Y2910840D02*
Y3063191D01*
X6299249Y2987015D01*
X6197682D01*
X8501413Y6662371D02*
X8552197D01*
X8526805D01*
Y6535412D01*
X8552197Y6510020D01*
X8577588D01*
X8602980Y6535412D01*
X8450629Y6636979D02*
X8425237Y6662371D01*
X8374454D01*
X8349062Y6636979D01*
Y6611587D01*
X8374454Y6586195D01*
X8399846D01*
X8374454D01*
X8349062Y6560803D01*
Y6535412D01*
X8374454Y6510020D01*
X8425237D01*
X8450629Y6535412D01*
X5951253Y6662371D02*
X6002037D01*
X5976645D01*
Y6535412D01*
X6002037Y6510020D01*
X6027428D01*
X6052820Y6535412D01*
X5798902Y6510020D02*
X5900469D01*
X5798902Y6611587D01*
Y6636979D01*
X5824294Y6662371D01*
X5875077D01*
X5900469Y6636979D01*
X1452439Y1044744D02*
X1427047Y1070136D01*
Y1120920D01*
X1452439Y1146312D01*
X1554006D01*
X1579398Y1120920D01*
Y1070136D01*
X1554006Y1044744D01*
Y993961D02*
X1579398Y968569D01*
Y917786D01*
X1554006Y892394D01*
X1452439D01*
X1427047Y917786D01*
Y968569D01*
X1452439Y993961D01*
X1477831D01*
X1503223Y968569D01*
Y892394D01*
X1794374Y1360873D02*
X1768982Y1386265D01*
Y1437048D01*
X1794374Y1462440D01*
X1895941D01*
X1921333Y1437048D01*
Y1386265D01*
X1895941Y1360873D01*
X1794374Y1310089D02*
X1768982Y1284697D01*
Y1233914D01*
X1794374Y1208522D01*
X1819766D01*
X1845158Y1233914D01*
X1870549Y1208522D01*
X1895941D01*
X1921333Y1233914D01*
Y1284697D01*
X1895941Y1310089D01*
X1870549D01*
X1845158Y1284697D01*
X1819766Y1310089D01*
X1794374D01*
X1845158Y1284697D02*
Y1233914D01*
X2237773Y2557739D02*
X2263165Y2583131D01*
X2313948D01*
X2339340Y2557739D01*
Y2456172D01*
X2313948Y2430780D01*
X2263165D01*
X2237773Y2456172D01*
X2186989Y2430780D02*
X2136206D01*
X2161597D01*
Y2583131D01*
X2186989Y2557739D01*
X1949971Y2394373D02*
X1848404Y2495940D01*
Y2394373D02*
X1949971Y2495940D01*
X1899187Y2394373D02*
Y2495940D01*
X1848404Y2445156D02*
X1949971D01*
D46*
X1349731Y1627412D02*
X1265091Y1542772D01*
X1349731D02*
X1265091Y1627412D01*
X1349731Y1585092D02*
X1265091D01*
X1307411Y1542772D02*
Y1627412D01*
%TF.MD5,9e6b99f182770ee107a2180352e67404*%
M02*
