%TF.GenerationSoftware,Altium Limited,Altium Designer,22.7.1 (60)*%
G04 Layer_Physical_Order=1*
G04 Layer_Color=255*
%FSLAX45Y45*%
%MOMM*%
%TF.SameCoordinates,3BEA7849-7BF4-4C83-8F54-36563B6BDC8B*%
%TF.FilePolarity,Positive*%
%TF.FileFunction,Copper,L1,Top,Signal*%
%TF.Part,Single*%
G01*
G75*
%TA.AperFunction,SMDPad,CuDef*%
%ADD10R,1.15000X1.35000*%
%TA.AperFunction,Conductor*%
%ADD11C,0.25400*%
%ADD12C,1.27000*%
%ADD13C,1.01600*%
%ADD14C,0.50800*%
%ADD15C,0.30480*%
%TA.AperFunction,ComponentPad*%
%ADD16C,1.20000*%
%ADD17R,1.20000X1.20000*%
%ADD18C,0.65000*%
G04:AMPARAMS|DCode=19|XSize=0.9mm|YSize=2.4mm|CornerRadius=0.45mm|HoleSize=0mm|Usage=FLASHONLY|Rotation=0.000|XOffset=0mm|YOffset=0mm|HoleType=Round|Shape=RoundedRectangle|*
%AMROUNDEDRECTD19*
21,1,0.90000,1.50000,0,0,0.0*
21,1,0.00000,2.40000,0,0,0.0*
1,1,0.90000,0.00000,-0.75000*
1,1,0.90000,0.00000,-0.75000*
1,1,0.90000,0.00000,0.75000*
1,1,0.90000,0.00000,0.75000*
%
%ADD19ROUNDEDRECTD19*%
G04:AMPARAMS|DCode=20|XSize=0.9mm|YSize=1.7mm|CornerRadius=0.45mm|HoleSize=0mm|Usage=FLASHONLY|Rotation=0.000|XOffset=0mm|YOffset=0mm|HoleType=Round|Shape=RoundedRectangle|*
%AMROUNDEDRECTD20*
21,1,0.90000,0.80000,0,0,0.0*
21,1,0.00000,1.70000,0,0,0.0*
1,1,0.90000,0.00000,-0.40000*
1,1,0.90000,0.00000,-0.40000*
1,1,0.90000,0.00000,0.40000*
1,1,0.90000,0.00000,0.40000*
%
%ADD20ROUNDEDRECTD20*%
%ADD21C,1.50000*%
%ADD22R,1.50000X1.50000*%
%ADD23R,1.50000X1.50000*%
%TA.AperFunction,ViaPad*%
%ADD24C,1.50000*%
%ADD25C,0.63500*%
%ADD26C,1.27000*%
G36*
X9679860Y6755000D02*
Y1255000D01*
X9342430Y917570D01*
Y5000D01*
X9342430Y5000D01*
X342430D01*
Y793306D01*
X342430Y793306D01*
Y917570D01*
X5000Y1255000D01*
Y6755000D01*
X705000Y7455000D01*
X8979860D01*
X9679860Y6755000D01*
D02*
G37*
%LPC*%
G36*
X2844801Y7419935D02*
Y7323300D01*
X2903108D01*
Y7350600D01*
X2900688Y7368978D01*
X2893595Y7386104D01*
X2882310Y7400810D01*
X2867604Y7412094D01*
X2850479Y7419188D01*
X2844801Y7419935D01*
D02*
G37*
G36*
X2819401D02*
X2813722Y7419188D01*
X2796597Y7412094D01*
X2781891Y7400810D01*
X2770606Y7386104D01*
X2763513Y7368978D01*
X2761093Y7350600D01*
Y7323300D01*
X2819401D01*
Y7419935D01*
D02*
G37*
G36*
X1979800D02*
Y7323300D01*
X2038108D01*
Y7350600D01*
X2035688Y7368978D01*
X2028595Y7386104D01*
X2017310Y7400810D01*
X2002604Y7412094D01*
X1985479Y7419188D01*
X1979800Y7419935D01*
D02*
G37*
G36*
X1954400D02*
X1948722Y7419188D01*
X1931597Y7412094D01*
X1916891Y7400810D01*
X1905606Y7386104D01*
X1898513Y7368978D01*
X1896093Y7350600D01*
Y7323300D01*
X1954400D01*
Y7419935D01*
D02*
G37*
G36*
X2529027Y7240789D02*
X2529025Y7240789D01*
X2264514D01*
X2264512Y7240789D01*
X2247272Y7238519D01*
X2231207Y7231865D01*
X2217411Y7221280D01*
X2217410Y7221279D01*
X2178702Y7182570D01*
X2178701Y7182569D01*
X2142717Y7146586D01*
X2132132Y7132790D01*
X2125477Y7116725D01*
X2123207Y7099485D01*
X2125477Y7082245D01*
X2128433Y7075110D01*
X2118713Y7065389D01*
X2114800Y7067010D01*
Y7009600D01*
X2089400D01*
Y7067010D01*
X2069303Y7058685D01*
X2053015Y7042398D01*
X2050808Y7037069D01*
X2038108Y7039595D01*
Y7047600D01*
X2035688Y7065978D01*
X2028595Y7083104D01*
X2017310Y7097810D01*
X2002604Y7109094D01*
X1985479Y7116188D01*
X1979800Y7116935D01*
Y6972600D01*
Y6828264D01*
X1985479Y6829012D01*
X2002604Y6836106D01*
X2017310Y6847390D01*
X2028595Y6862096D01*
X2031500Y6869111D01*
X2044200Y6866585D01*
Y6863083D01*
X2053015Y6841802D01*
X2069303Y6825515D01*
X2089400Y6817190D01*
Y6874600D01*
X2114800D01*
Y6817190D01*
X2132964Y6824714D01*
X2145664Y6819687D01*
Y6741764D01*
X2140000Y6737418D01*
X1088381Y5685799D01*
X1077796Y5672003D01*
X1071141Y5655938D01*
X1068871Y5638698D01*
X1068872Y5638696D01*
Y3455005D01*
X1062108Y3443289D01*
X1056742Y3423263D01*
Y3402530D01*
X1062108Y3382504D01*
X1072474Y3364549D01*
X1087134Y3349889D01*
X1105089Y3339522D01*
X1123180Y3334675D01*
X1129344Y3322879D01*
X640253Y2833787D01*
X344790D01*
X343090Y2840131D01*
X331210Y2860709D01*
X314409Y2877510D01*
X293831Y2889390D01*
X270880Y2895540D01*
X247120D01*
X224169Y2889390D01*
X203591Y2877510D01*
X186790Y2860709D01*
X174910Y2840131D01*
X168760Y2817180D01*
Y2793420D01*
X174910Y2770469D01*
X186790Y2749891D01*
X203591Y2733090D01*
X224169Y2721210D01*
X247120Y2715060D01*
X270880D01*
X293831Y2721210D01*
X314409Y2733090D01*
X331210Y2749891D01*
X343090Y2770469D01*
X344790Y2776813D01*
X624158D01*
X629018Y2765079D01*
X443726Y2579787D01*
X344790D01*
X343090Y2586131D01*
X331210Y2606709D01*
X314409Y2623510D01*
X293831Y2635390D01*
X270880Y2641540D01*
X247120D01*
X224169Y2635390D01*
X203591Y2623510D01*
X186790Y2606709D01*
X174910Y2586131D01*
X168760Y2563180D01*
Y2539420D01*
X174910Y2516469D01*
X186790Y2495891D01*
X203591Y2479090D01*
X224169Y2467210D01*
X247120Y2461060D01*
X270880D01*
X293831Y2467210D01*
X314409Y2479090D01*
X331210Y2495891D01*
X343090Y2516469D01*
X344790Y2522813D01*
X427632D01*
X432492Y2511079D01*
X299519Y2378106D01*
X293831Y2381390D01*
X270880Y2387540D01*
X247120D01*
X224169Y2381390D01*
X203591Y2369510D01*
X186790Y2352709D01*
X174910Y2332131D01*
X168760Y2309180D01*
Y2285420D01*
X174910Y2262469D01*
X186790Y2241891D01*
X203591Y2225090D01*
X224169Y2213210D01*
X247120Y2207060D01*
X270880D01*
X293831Y2213210D01*
X314409Y2225090D01*
X331210Y2241891D01*
X343090Y2262469D01*
X349240Y2285420D01*
Y2309180D01*
X343090Y2332131D01*
X339807Y2337819D01*
X1215328Y3213341D01*
X1217926Y3213857D01*
X1227168Y3220033D01*
X4681860Y6674725D01*
X5434502D01*
X5441291Y6662025D01*
X5440427Y6660732D01*
X4847946D01*
X4847945Y6660732D01*
X4837043Y6658564D01*
X4827801Y6652389D01*
X4827801Y6652388D01*
X299519Y2124106D01*
X293831Y2127390D01*
X270880Y2133540D01*
X247120D01*
X224169Y2127390D01*
X203591Y2115510D01*
X186790Y2098709D01*
X174910Y2078131D01*
X168760Y2055180D01*
Y2031420D01*
X174910Y2008469D01*
X186790Y1987891D01*
X203591Y1971090D01*
X224169Y1959210D01*
X247120Y1953060D01*
X270880D01*
X293831Y1959210D01*
X314409Y1971090D01*
X331210Y1987891D01*
X343090Y2008469D01*
X349240Y2031420D01*
Y2055180D01*
X343090Y2078131D01*
X339807Y2083819D01*
X1801114Y3545127D01*
X1813814Y3539866D01*
Y3524109D01*
X1822515Y3503104D01*
X1838591Y3487027D01*
X1858264Y3478879D01*
Y3535477D01*
X1870964D01*
Y3548177D01*
X1927562D01*
X1919413Y3567850D01*
X1903337Y3583926D01*
X1882332Y3592627D01*
X1866575D01*
X1861314Y3605327D01*
X4859745Y6603757D01*
X5050304D01*
X5055565Y6591057D01*
X1470176Y3005669D01*
X1464001Y2996427D01*
X1461832Y2985525D01*
X1461832Y2985524D01*
Y1685696D01*
X1455166D01*
X1437896Y1678542D01*
X1424677Y1665324D01*
X1417523Y1648053D01*
Y1629359D01*
X1424677Y1612089D01*
X1437896Y1598870D01*
X1455166Y1591716D01*
X1473860D01*
X1491131Y1598870D01*
X1504349Y1612089D01*
X1511503Y1629359D01*
Y1648053D01*
X1509899Y1651927D01*
X1510463Y1652491D01*
X1510463Y1652492D01*
X1516639Y1661734D01*
X1518807Y1672635D01*
X1518807Y1672637D01*
Y2973725D01*
X1814017Y3268935D01*
X1826717Y3263674D01*
Y3253142D01*
X1835418Y3232137D01*
X1851494Y3216060D01*
X1871167Y3207912D01*
Y3264510D01*
X1883867D01*
Y3277210D01*
X1940465D01*
X1932317Y3296882D01*
X1916240Y3312959D01*
X1895235Y3321660D01*
X1884702D01*
X1879442Y3334360D01*
X5097227Y6552145D01*
X5308934D01*
X5313494Y6547585D01*
X5322736Y6541410D01*
X5333638Y6539241D01*
X5333639Y6539241D01*
X5755570D01*
X5766919Y6527893D01*
X5784190Y6520739D01*
X5802884D01*
X5820154Y6527893D01*
X5833373Y6541111D01*
X5840527Y6558382D01*
Y6577076D01*
X5833373Y6594346D01*
X5820154Y6607565D01*
X5802884Y6614719D01*
X5784190D01*
X5766919Y6607565D01*
X5755570Y6596216D01*
X5537330D01*
X5531510Y6608916D01*
X5537302Y6622898D01*
Y6641592D01*
X5536502Y6643522D01*
X5544988Y6656222D01*
X5551271D01*
X5568542Y6663376D01*
X5581760Y6676595D01*
X5588914Y6693865D01*
Y6712559D01*
X5581760Y6729830D01*
X5578598Y6732993D01*
X5583859Y6745693D01*
X5639442D01*
X5650790Y6734344D01*
X5668061Y6727190D01*
X5686755D01*
X5704026Y6734344D01*
X5717244Y6747562D01*
X5724398Y6764833D01*
Y6783527D01*
X5720011Y6794117D01*
X5729731Y6803837D01*
X5732958Y6802501D01*
X5751652D01*
X5768923Y6809655D01*
X5782141Y6822873D01*
X5789295Y6840144D01*
Y6858838D01*
X5782141Y6876108D01*
X5768923Y6889327D01*
X5751652Y6896481D01*
X5732958D01*
X5715688Y6889327D01*
X5704339Y6877978D01*
X4701393D01*
X4701391Y6877978D01*
X4690490Y6875810D01*
X4681248Y6869634D01*
X4681247Y6869634D01*
X1225955Y3414342D01*
X1214222Y3419202D01*
Y3423263D01*
X1208856Y3443289D01*
X1202092Y3455005D01*
Y5611107D01*
X2234201Y6643217D01*
X2244786Y6657012D01*
X2251441Y6673077D01*
X2253711Y6690317D01*
X2251441Y6707557D01*
X2244786Y6723622D01*
X2234201Y6737418D01*
X2228537Y6741764D01*
Y6791882D01*
X2241023Y6792397D01*
X2243389Y6780505D01*
X2250126Y6770423D01*
X2307053Y6713496D01*
X2317135Y6706759D01*
X2329028Y6704393D01*
X3080236D01*
X3092128Y6706759D01*
X3102210Y6713496D01*
X3273703Y6884988D01*
X3385233D01*
Y7050468D01*
X3239753D01*
Y6938442D01*
X3238258Y6937443D01*
X3067363Y6766548D01*
X2341900D01*
X2303178Y6805270D01*
Y6838162D01*
X2306304Y6841289D01*
X2314600Y6846326D01*
X2322897Y6841289D01*
X2330058Y6834128D01*
X2347604Y6826860D01*
X2366596D01*
X2384143Y6834128D01*
X2391304Y6841289D01*
X2399600Y6846326D01*
X2407897Y6841289D01*
X2415058Y6834128D01*
X2432604Y6826860D01*
X2451597D01*
X2469143Y6834128D01*
X2476304Y6841289D01*
X2484601Y6846326D01*
X2492897Y6841289D01*
X2500058Y6834128D01*
X2517605Y6826860D01*
X2536597D01*
X2554143Y6834128D01*
X2561304Y6841288D01*
X2569601Y6846326D01*
X2577897Y6841288D01*
X2585058Y6834128D01*
X2602604Y6826860D01*
X2621596D01*
X2639143Y6834128D01*
X2656231Y6833587D01*
X2664303Y6825515D01*
X2684401Y6817190D01*
Y6874600D01*
X2709801D01*
Y6817190D01*
X2729898Y6825515D01*
X2746186Y6841802D01*
X2755001Y6863083D01*
Y6866585D01*
X2767701Y6869111D01*
X2770606Y6862096D01*
X2781891Y6847390D01*
X2796597Y6836106D01*
X2813722Y6829012D01*
X2819401Y6828264D01*
Y6972600D01*
Y7116935D01*
X2813722Y7116188D01*
X2796597Y7109094D01*
X2781891Y7097810D01*
X2770606Y7083104D01*
X2763513Y7065978D01*
X2761093Y7047600D01*
Y7039595D01*
X2748393Y7037069D01*
X2746186Y7042398D01*
X2729898Y7058685D01*
X2709801Y7067010D01*
Y7009600D01*
X2684401D01*
Y7067010D01*
X2683319Y7066562D01*
X2673599Y7076282D01*
X2673724Y7076583D01*
X2675994Y7093823D01*
X2673724Y7111063D01*
X2667069Y7127128D01*
X2656484Y7140923D01*
X2614837Y7182570D01*
X2614836Y7182571D01*
X2576128Y7221280D01*
X2562332Y7231865D01*
X2546267Y7238519D01*
X2529027Y7240789D01*
D02*
G37*
G36*
X3385233Y7256919D02*
X3239753D01*
Y7205256D01*
X3196661D01*
X3187902Y7214015D01*
X3170631Y7221169D01*
X3151937D01*
X3134666Y7214015D01*
X3121448Y7200797D01*
X3114294Y7183526D01*
Y7164832D01*
X3121448Y7147562D01*
X3134666Y7134343D01*
X3151937Y7127189D01*
X3170631D01*
X3187902Y7134343D01*
X3196661Y7143102D01*
X3239753D01*
Y7091439D01*
X3385233D01*
Y7256919D01*
D02*
G37*
G36*
X2903108Y7297900D02*
X2844801D01*
Y7201265D01*
X2850479Y7202012D01*
X2867604Y7209106D01*
X2882310Y7220390D01*
X2893595Y7235097D01*
X2900688Y7252222D01*
X2903108Y7270600D01*
Y7297900D01*
D02*
G37*
G36*
X2819401D02*
X2761093D01*
Y7270600D01*
X2763513Y7252222D01*
X2770606Y7235097D01*
X2781891Y7220390D01*
X2796597Y7209106D01*
X2813722Y7202012D01*
X2819401Y7201265D01*
Y7297900D01*
D02*
G37*
G36*
X2038108D02*
X1979800D01*
Y7201265D01*
X1985479Y7202012D01*
X2002604Y7209106D01*
X2017310Y7220390D01*
X2028595Y7235097D01*
X2035688Y7252222D01*
X2038108Y7270600D01*
Y7297900D01*
D02*
G37*
G36*
X1954400D02*
X1896093D01*
Y7270600D01*
X1898513Y7252222D01*
X1905606Y7235097D01*
X1916891Y7220390D01*
X1931597Y7209106D01*
X1948722Y7202012D01*
X1954400Y7201265D01*
Y7297900D01*
D02*
G37*
G36*
X3570393Y7267079D02*
X3500193D01*
Y7186879D01*
X3570393D01*
Y7267079D01*
D02*
G37*
G36*
X3474793D02*
X3404593D01*
Y7186879D01*
X3474793D01*
Y7267079D01*
D02*
G37*
G36*
X3570393Y7161479D02*
X3500193D01*
Y7081279D01*
X3570393D01*
Y7161479D01*
D02*
G37*
G36*
X3474793D02*
X3404593D01*
Y7081279D01*
X3474793D01*
Y7161479D01*
D02*
G37*
G36*
X2844801Y7116935D02*
Y6985300D01*
X2903108D01*
Y7047600D01*
X2900688Y7065978D01*
X2893595Y7083104D01*
X2882310Y7097810D01*
X2867604Y7109094D01*
X2850479Y7116188D01*
X2844801Y7116935D01*
D02*
G37*
G36*
X1954400D02*
X1948722Y7116188D01*
X1931597Y7109094D01*
X1916891Y7097810D01*
X1905606Y7083104D01*
X1898513Y7065978D01*
X1896093Y7047600D01*
Y6985300D01*
X1954400D01*
Y7116935D01*
D02*
G37*
G36*
X3570393Y7060628D02*
X3500193D01*
Y6980428D01*
X3570393D01*
Y7060628D01*
D02*
G37*
G36*
X3474793D02*
X3404593D01*
Y6980428D01*
X3474793D01*
Y7060628D01*
D02*
G37*
G36*
X3570393Y6955028D02*
X3500193D01*
Y6874828D01*
X3570393D01*
Y6955028D01*
D02*
G37*
G36*
X3474793D02*
X3404593D01*
Y6874828D01*
X3474793D01*
Y6955028D01*
D02*
G37*
G36*
X2903108Y6959900D02*
X2844801D01*
Y6828264D01*
X2850479Y6829012D01*
X2867604Y6836106D01*
X2882310Y6847390D01*
X2893595Y6862096D01*
X2900688Y6879222D01*
X2903108Y6897600D01*
Y6959900D01*
D02*
G37*
G36*
X1954400D02*
X1896093D01*
Y6897600D01*
X1898513Y6879222D01*
X1905606Y6862096D01*
X1916891Y6847390D01*
X1931597Y6836106D01*
X1948722Y6829012D01*
X1954400Y6828264D01*
Y6959900D01*
D02*
G37*
G36*
X9437740Y6451540D02*
X9413980D01*
X9391029Y6445390D01*
X9370451Y6433510D01*
X9353650Y6416709D01*
X9341770Y6396131D01*
X9335620Y6373180D01*
Y6349420D01*
X9341770Y6326469D01*
X9353650Y6305891D01*
X9370451Y6289090D01*
X9391029Y6277210D01*
X9413980Y6271060D01*
X9437740D01*
X9460691Y6277210D01*
X9481269Y6289090D01*
X9498070Y6305891D01*
X9509950Y6326469D01*
X9516100Y6349420D01*
Y6373180D01*
X9509950Y6396131D01*
X9498070Y6416709D01*
X9481269Y6433510D01*
X9460691Y6445390D01*
X9437740Y6451540D01*
D02*
G37*
G36*
X270880D02*
X247120D01*
X224169Y6445390D01*
X203591Y6433510D01*
X186790Y6416709D01*
X174910Y6396131D01*
X168760Y6373180D01*
Y6349420D01*
X174910Y6326469D01*
X186790Y6305891D01*
X203591Y6289090D01*
X224169Y6277210D01*
X247120Y6271060D01*
X270880D01*
X293831Y6277210D01*
X314409Y6289090D01*
X331210Y6305891D01*
X343090Y6326469D01*
X349240Y6349420D01*
Y6373180D01*
X343090Y6396131D01*
X331210Y6416709D01*
X314409Y6433510D01*
X293831Y6445390D01*
X270880Y6451540D01*
D02*
G37*
G36*
X8545907Y6271229D02*
X8528905D01*
X8513196Y6264722D01*
X8501173Y6252699D01*
X8494666Y6236991D01*
Y6219988D01*
X8501173Y6204279D01*
X8513196Y6192256D01*
X8528905Y6185749D01*
X8545907D01*
X8561616Y6192256D01*
X8573639Y6204279D01*
X8580146Y6219988D01*
Y6236991D01*
X8573639Y6252699D01*
X8561616Y6264722D01*
X8545907Y6271229D01*
D02*
G37*
G36*
X7155908D02*
X7138905D01*
X7123196Y6264722D01*
X7111173Y6252699D01*
X7104667Y6236991D01*
Y6219988D01*
X7111173Y6204279D01*
X7123196Y6192256D01*
X7138905Y6185749D01*
X7155908D01*
X7171617Y6192256D01*
X7183639Y6204279D01*
X7190146Y6219988D01*
Y6236991D01*
X7183639Y6252699D01*
X7171617Y6264722D01*
X7155908Y6271229D01*
D02*
G37*
G36*
X5995907D02*
X5978905D01*
X5963196Y6264722D01*
X5951173Y6252699D01*
X5944666Y6236991D01*
Y6219988D01*
X5951173Y6204279D01*
X5963196Y6192256D01*
X5978905Y6185749D01*
X5995907D01*
X6011616Y6192256D01*
X6023639Y6204279D01*
X6030146Y6219988D01*
Y6236991D01*
X6023639Y6252699D01*
X6011616Y6264722D01*
X5995907Y6271229D01*
D02*
G37*
G36*
X4605908D02*
X4588905D01*
X4573196Y6264722D01*
X4561173Y6252699D01*
X4554667Y6236991D01*
Y6219988D01*
X4561173Y6204279D01*
X4573196Y6192256D01*
X4588905Y6185749D01*
X4605908D01*
X4621617Y6192256D01*
X4633639Y6204279D01*
X4640146Y6219988D01*
Y6236991D01*
X4633639Y6252699D01*
X4621617Y6264722D01*
X4605908Y6271229D01*
D02*
G37*
G36*
X270880Y6197540D02*
X247120D01*
X224169Y6191390D01*
X203591Y6179510D01*
X186790Y6162709D01*
X174910Y6142131D01*
X168760Y6119180D01*
Y6095420D01*
X174910Y6072469D01*
X186790Y6051891D01*
X203591Y6035090D01*
X224169Y6023210D01*
X247120Y6017060D01*
X270880D01*
X293831Y6023210D01*
X314409Y6035090D01*
X331210Y6051891D01*
X343090Y6072469D01*
X349240Y6095420D01*
Y6119180D01*
X343090Y6142131D01*
X331210Y6162709D01*
X314409Y6179510D01*
X293831Y6191390D01*
X270880Y6197540D01*
D02*
G37*
G36*
Y5943540D02*
X247120D01*
X224169Y5937390D01*
X203591Y5925510D01*
X186790Y5908709D01*
X174910Y5888131D01*
X168760Y5865180D01*
Y5841420D01*
X174910Y5818469D01*
X186790Y5797891D01*
X203591Y5781090D01*
X224169Y5769210D01*
X247120Y5763060D01*
X270880D01*
X293831Y5769210D01*
X314409Y5781090D01*
X331210Y5797891D01*
X343090Y5818469D01*
X349240Y5841420D01*
Y5865180D01*
X343090Y5888131D01*
X331210Y5908709D01*
X314409Y5925510D01*
X293831Y5937390D01*
X270880Y5943540D01*
D02*
G37*
G36*
X2073598Y5859088D02*
X2049838D01*
X2026887Y5852938D01*
X2006309Y5841058D01*
X1989508Y5824257D01*
X1977628Y5803679D01*
X1971478Y5780728D01*
Y5756968D01*
X1977628Y5734017D01*
X1989508Y5713439D01*
X2006309Y5696638D01*
X2026887Y5684758D01*
X2049838Y5678608D01*
X2073598D01*
X2096549Y5684758D01*
X2117127Y5696638D01*
X2133928Y5713439D01*
X2145808Y5734017D01*
X2151958Y5756968D01*
Y5780728D01*
X2145808Y5803679D01*
X2133928Y5824257D01*
X2117127Y5841058D01*
X2096549Y5852938D01*
X2073598Y5859088D01*
D02*
G37*
G36*
X270880Y5689540D02*
X247120D01*
X224169Y5683390D01*
X203591Y5671510D01*
X186790Y5654709D01*
X174910Y5634131D01*
X168760Y5611180D01*
Y5587420D01*
X174910Y5564469D01*
X186790Y5543891D01*
X203591Y5527090D01*
X224169Y5515210D01*
X247120Y5509060D01*
X270880D01*
X293831Y5515210D01*
X314409Y5527090D01*
X331210Y5543891D01*
X343090Y5564469D01*
X349240Y5587420D01*
Y5611180D01*
X343090Y5634131D01*
X331210Y5654709D01*
X314409Y5671510D01*
X293831Y5683390D01*
X270880Y5689540D01*
D02*
G37*
G36*
X2151958Y5605088D02*
X1971478D01*
Y5424608D01*
X2151958D01*
Y5605088D01*
D02*
G37*
G36*
X270880Y5435540D02*
X247120D01*
X224169Y5429390D01*
X203591Y5417510D01*
X186790Y5400709D01*
X174910Y5380131D01*
X168760Y5357180D01*
Y5333420D01*
X174910Y5310469D01*
X186790Y5289891D01*
X203591Y5273090D01*
X224169Y5261210D01*
X247120Y5255060D01*
X270880D01*
X293831Y5261210D01*
X314409Y5273090D01*
X331210Y5289891D01*
X343090Y5310469D01*
X349240Y5333420D01*
Y5357180D01*
X343090Y5380131D01*
X331210Y5400709D01*
X314409Y5417510D01*
X293831Y5429390D01*
X270880Y5435540D01*
D02*
G37*
G36*
Y5181540D02*
X247120D01*
X224169Y5175390D01*
X203591Y5163510D01*
X186790Y5146709D01*
X174910Y5126131D01*
X168760Y5103180D01*
Y5079420D01*
X174910Y5056469D01*
X186790Y5035891D01*
X203591Y5019090D01*
X224169Y5007210D01*
X247120Y5001060D01*
X270880D01*
X293831Y5007210D01*
X314409Y5019090D01*
X331210Y5035891D01*
X343090Y5056469D01*
X349240Y5079420D01*
Y5103180D01*
X343090Y5126131D01*
X331210Y5146709D01*
X314409Y5163510D01*
X293831Y5175390D01*
X270880Y5181540D01*
D02*
G37*
G36*
Y4927540D02*
X247120D01*
X224169Y4921390D01*
X203591Y4909510D01*
X186790Y4892709D01*
X174910Y4872131D01*
X168760Y4849180D01*
Y4825420D01*
X174910Y4802469D01*
X186790Y4781891D01*
X203591Y4765090D01*
X224169Y4753210D01*
X247120Y4747060D01*
X270880D01*
X293831Y4753210D01*
X314409Y4765090D01*
X331210Y4781891D01*
X343090Y4802469D01*
X349240Y4825420D01*
Y4849180D01*
X343090Y4872131D01*
X331210Y4892709D01*
X314409Y4909510D01*
X293831Y4921390D01*
X270880Y4927540D01*
D02*
G37*
G36*
Y4673540D02*
X247120D01*
X224169Y4667390D01*
X203591Y4655510D01*
X186790Y4638709D01*
X174910Y4618131D01*
X168760Y4595180D01*
Y4571420D01*
X174910Y4548469D01*
X186790Y4527891D01*
X203591Y4511090D01*
X224169Y4499210D01*
X247120Y4493060D01*
X270880D01*
X293831Y4499210D01*
X314409Y4511090D01*
X331210Y4527891D01*
X343090Y4548469D01*
X349240Y4571420D01*
Y4595180D01*
X343090Y4618131D01*
X331210Y4638709D01*
X314409Y4655510D01*
X293831Y4667390D01*
X270880Y4673540D01*
D02*
G37*
G36*
Y4419540D02*
X247120D01*
X224169Y4413390D01*
X203591Y4401510D01*
X186790Y4384709D01*
X174910Y4364131D01*
X168760Y4341180D01*
Y4317420D01*
X174910Y4294469D01*
X186790Y4273891D01*
X203591Y4257090D01*
X224169Y4245210D01*
X247120Y4239060D01*
X270880D01*
X293831Y4245210D01*
X314409Y4257090D01*
X331210Y4273891D01*
X343090Y4294469D01*
X349240Y4317420D01*
Y4341180D01*
X343090Y4364131D01*
X331210Y4384709D01*
X314409Y4401510D01*
X293831Y4413390D01*
X270880Y4419540D01*
D02*
G37*
G36*
Y4165540D02*
X247120D01*
X224169Y4159390D01*
X203591Y4147510D01*
X186790Y4130709D01*
X174910Y4110131D01*
X168760Y4087180D01*
Y4063420D01*
X174910Y4040469D01*
X186790Y4019891D01*
X203591Y4003090D01*
X224169Y3991210D01*
X247120Y3985060D01*
X270880D01*
X293831Y3991210D01*
X314409Y4003090D01*
X331210Y4019891D01*
X343090Y4040469D01*
X349240Y4063420D01*
Y4087180D01*
X343090Y4110131D01*
X331210Y4130709D01*
X314409Y4147510D01*
X293831Y4159390D01*
X270880Y4165540D01*
D02*
G37*
G36*
X4554830Y5956827D02*
X4549667Y5956148D01*
X4544463D01*
X4539436Y5954800D01*
X4534275Y5954121D01*
X4529466Y5952129D01*
X4524437Y5950782D01*
X4519928Y5948179D01*
X4515120Y5946187D01*
X4510990Y5943018D01*
X4506482Y5940415D01*
X4502802Y5936735D01*
X4498671Y5933566D01*
X2672869Y4107763D01*
X2660248Y4091315D01*
X2652313Y4072160D01*
X2649607Y4051605D01*
X2649607Y4051603D01*
Y3765027D01*
X2640059Y3756653D01*
X2638704Y3756832D01*
X2621791Y3754605D01*
X2621097Y3755644D01*
X2616378Y3756583D01*
X2611933Y3758424D01*
X2529027D01*
X2517363Y3753592D01*
X2512531Y3741928D01*
Y3219348D01*
X2517363Y3207684D01*
X2529027Y3202853D01*
X2591534D01*
X2594566Y3204108D01*
X2596484D01*
X2598995Y3202182D01*
X2618149Y3194248D01*
X2638704Y3191542D01*
X3947740D01*
X4898670Y2240612D01*
X4898671Y2240611D01*
X4902801Y2237442D01*
X4906481Y2233762D01*
X4910988Y2231160D01*
X4915119Y2227990D01*
X4919928Y2225998D01*
X4924436Y2223396D01*
X4929465Y2222048D01*
X4934274Y2220056D01*
X4939435Y2219377D01*
X4944463Y2218030D01*
X4949667D01*
X4954829Y2217350D01*
X4954831Y2217350D01*
X6959276D01*
Y906162D01*
X6594622Y541508D01*
X6585599Y539090D01*
X6565021Y527210D01*
X6548220Y510408D01*
X6536340Y489831D01*
X6530190Y466880D01*
Y443120D01*
X6536340Y420169D01*
X6548220Y399591D01*
X6565021Y382790D01*
X6585599Y370910D01*
X6590367Y369632D01*
X6588695Y356932D01*
X6398165D01*
X6396493Y369632D01*
X6401261Y370910D01*
X6421839Y382790D01*
X6438640Y399591D01*
X6450520Y420169D01*
X6456670Y443120D01*
Y466880D01*
X6450520Y489831D01*
X6438640Y510408D01*
X6421839Y527210D01*
X6401261Y539090D01*
X6378310Y545240D01*
X6354550D01*
X6331599Y539090D01*
X6311021Y527210D01*
X6294220Y510408D01*
X6282340Y489831D01*
X6276190Y466880D01*
Y443120D01*
X6282340Y420169D01*
X6294220Y399591D01*
X6311021Y382790D01*
X6331599Y370910D01*
X6336367Y369632D01*
X6334695Y356932D01*
X6144165D01*
X6142493Y369632D01*
X6147261Y370910D01*
X6167839Y382790D01*
X6184640Y399591D01*
X6196520Y420169D01*
X6202670Y443120D01*
Y466880D01*
X6196520Y489831D01*
X6184640Y510408D01*
X6167839Y527210D01*
X6147261Y539090D01*
X6124310Y545240D01*
X6100550D01*
X6077599Y539090D01*
X6057021Y527210D01*
X6040220Y510408D01*
X6028340Y489831D01*
X6022190Y466880D01*
Y443120D01*
X6028340Y420169D01*
X6040220Y399591D01*
X6057021Y382790D01*
X6077599Y370910D01*
X6082367Y369632D01*
X6080695Y356932D01*
X5890165D01*
X5888493Y369632D01*
X5893261Y370910D01*
X5913839Y382790D01*
X5930640Y399591D01*
X5942520Y420169D01*
X5948670Y443120D01*
Y466880D01*
X5942520Y489831D01*
X5930640Y510408D01*
X5913839Y527210D01*
X5893261Y539090D01*
X5870310Y545240D01*
X5846550D01*
X5823599Y539090D01*
X5803021Y527210D01*
X5786220Y510408D01*
X5774340Y489831D01*
X5768190Y466880D01*
Y443120D01*
X5774340Y420169D01*
X5786220Y399591D01*
X5803021Y382790D01*
X5823599Y370910D01*
X5828367Y369632D01*
X5826695Y356932D01*
X5636165D01*
X5634493Y369632D01*
X5639261Y370910D01*
X5659839Y382790D01*
X5676640Y399591D01*
X5688520Y420169D01*
X5694670Y443120D01*
Y466880D01*
X5688520Y489831D01*
X5676640Y510408D01*
X5659839Y527210D01*
X5639261Y539090D01*
X5616310Y545240D01*
X5592550D01*
X5569599Y539090D01*
X5549021Y527210D01*
X5532220Y510408D01*
X5520340Y489831D01*
X5514190Y466880D01*
Y443120D01*
X5520340Y420169D01*
X5532220Y399591D01*
X5549021Y382790D01*
X5569599Y370910D01*
X5574367Y369632D01*
X5572695Y356932D01*
X5382165D01*
X5380493Y369632D01*
X5385261Y370910D01*
X5405839Y382790D01*
X5422640Y399591D01*
X5434520Y420169D01*
X5440670Y443120D01*
Y466880D01*
X5434520Y489831D01*
X5422640Y510408D01*
X5405839Y527210D01*
X5385261Y539090D01*
X5362310Y545240D01*
X5338550D01*
X5315599Y539090D01*
X5295021Y527210D01*
X5278220Y510408D01*
X5266340Y489831D01*
X5260190Y466880D01*
Y443120D01*
X5266340Y420169D01*
X5278220Y399591D01*
X5295021Y382790D01*
X5315599Y370910D01*
X5320367Y369632D01*
X5318695Y356932D01*
X5128165D01*
X5126493Y369632D01*
X5131261Y370910D01*
X5151839Y382790D01*
X5168640Y399591D01*
X5180520Y420169D01*
X5186670Y443120D01*
Y466880D01*
X5180520Y489831D01*
X5168640Y510408D01*
X5151839Y527210D01*
X5131261Y539090D01*
X5108310Y545240D01*
X5084550D01*
X5061599Y539090D01*
X5041021Y527210D01*
X5024220Y510408D01*
X5012340Y489831D01*
X5006190Y466880D01*
Y443120D01*
X5012340Y420169D01*
X5024220Y399591D01*
X5041021Y382790D01*
X5061599Y370910D01*
X5066367Y369632D01*
X5064695Y356932D01*
X4874165D01*
X4872493Y369632D01*
X4877261Y370910D01*
X4897839Y382790D01*
X4914640Y399591D01*
X4926520Y420169D01*
X4932670Y443120D01*
Y466880D01*
X4926520Y489831D01*
X4914640Y510408D01*
X4897839Y527210D01*
X4877261Y539090D01*
X4854310Y545240D01*
X4830550D01*
X4807599Y539090D01*
X4787021Y527210D01*
X4770220Y510408D01*
X4758340Y489831D01*
X4752190Y466880D01*
Y443120D01*
X4758340Y420169D01*
X4770220Y399591D01*
X4787021Y382790D01*
X4807599Y370910D01*
X4812367Y369632D01*
X4810695Y356932D01*
X4620165D01*
X4618493Y369632D01*
X4623261Y370910D01*
X4643839Y382790D01*
X4660640Y399591D01*
X4672520Y420169D01*
X4678670Y443120D01*
Y466880D01*
X4672520Y489831D01*
X4660640Y510408D01*
X4643839Y527210D01*
X4623261Y539090D01*
X4600310Y545240D01*
X4576550D01*
X4553599Y539090D01*
X4533021Y527210D01*
X4516220Y510408D01*
X4504340Y489831D01*
X4498190Y466880D01*
Y443120D01*
X4504340Y420169D01*
X4516220Y399591D01*
X4533021Y382790D01*
X4553599Y370910D01*
X4558367Y369632D01*
X4556695Y356932D01*
X4366165D01*
X4364493Y369632D01*
X4369261Y370910D01*
X4389839Y382790D01*
X4406640Y399591D01*
X4418520Y420169D01*
X4424670Y443120D01*
Y466880D01*
X4418520Y489831D01*
X4406640Y510408D01*
X4389839Y527210D01*
X4369261Y539090D01*
X4346310Y545240D01*
X4322550D01*
X4299599Y539090D01*
X4279021Y527210D01*
X4262220Y510408D01*
X4250340Y489831D01*
X4244190Y466880D01*
Y443120D01*
X4250340Y420169D01*
X4262220Y399591D01*
X4279021Y382790D01*
X4299599Y370910D01*
X4304367Y369632D01*
X4302695Y356932D01*
X4112165D01*
X4110493Y369632D01*
X4115261Y370910D01*
X4135839Y382790D01*
X4152640Y399591D01*
X4164520Y420169D01*
X4170670Y443120D01*
Y466880D01*
X4164520Y489831D01*
X4152640Y510408D01*
X4135839Y527210D01*
X4115261Y539090D01*
X4092310Y545240D01*
X4068550D01*
X4045599Y539090D01*
X4025021Y527210D01*
X4008220Y510408D01*
X3996340Y489831D01*
X3990190Y466880D01*
Y443120D01*
X3996340Y420169D01*
X4008220Y399591D01*
X4025021Y382790D01*
X4045599Y370910D01*
X4050367Y369632D01*
X4048695Y356932D01*
X3858165D01*
X3856493Y369632D01*
X3861261Y370910D01*
X3881839Y382790D01*
X3898640Y399591D01*
X3910520Y420169D01*
X3916670Y443120D01*
Y466880D01*
X3910520Y489831D01*
X3898640Y510408D01*
X3881839Y527210D01*
X3861261Y539090D01*
X3838310Y545240D01*
X3814550D01*
X3791599Y539090D01*
X3771021Y527210D01*
X3754220Y510408D01*
X3742340Y489831D01*
X3736190Y466880D01*
Y443120D01*
X3742340Y420169D01*
X3754220Y399591D01*
X3771021Y382790D01*
X3791599Y370910D01*
X3796367Y369632D01*
X3794695Y356932D01*
X3604165D01*
X3602493Y369632D01*
X3607261Y370910D01*
X3627839Y382790D01*
X3644640Y399591D01*
X3656520Y420169D01*
X3662670Y443120D01*
Y466880D01*
X3656520Y489831D01*
X3644640Y510408D01*
X3627839Y527210D01*
X3607261Y539090D01*
X3584310Y545240D01*
X3560550D01*
X3537599Y539090D01*
X3517021Y527210D01*
X3500220Y510408D01*
X3488340Y489831D01*
X3482190Y466880D01*
Y443120D01*
X3488340Y420169D01*
X3500220Y399591D01*
X3517021Y382790D01*
X3537599Y370910D01*
X3542367Y369632D01*
X3540695Y356932D01*
X3350165D01*
X3348493Y369632D01*
X3353261Y370910D01*
X3373839Y382790D01*
X3390640Y399591D01*
X3402520Y420169D01*
X3408670Y443120D01*
Y466880D01*
X3402520Y489831D01*
X3390640Y510408D01*
X3373839Y527210D01*
X3353261Y539090D01*
X3330310Y545240D01*
X3306550D01*
X3283599Y539090D01*
X3263021Y527210D01*
X3246220Y510408D01*
X3234340Y489831D01*
X3228190Y466880D01*
Y443120D01*
X3234340Y420169D01*
X3246220Y399591D01*
X3263021Y382790D01*
X3283599Y370910D01*
X3288367Y369632D01*
X3286695Y356932D01*
X3096165D01*
X3094493Y369632D01*
X3099261Y370910D01*
X3119839Y382790D01*
X3136640Y399591D01*
X3148520Y420169D01*
X3154670Y443120D01*
Y466880D01*
X3148520Y489831D01*
X3136640Y510408D01*
X3119839Y527210D01*
X3099261Y539090D01*
X3076310Y545240D01*
X3052550D01*
X3029599Y539090D01*
X3009021Y527210D01*
X2992220Y510408D01*
X2980340Y489831D01*
X2974190Y466880D01*
Y443120D01*
X2980340Y420169D01*
X2992220Y399591D01*
X3009021Y382790D01*
X3029599Y370910D01*
X3034367Y369632D01*
X3032695Y356932D01*
X2842165D01*
X2840493Y369632D01*
X2845261Y370910D01*
X2865839Y382790D01*
X2882640Y399591D01*
X2894520Y420169D01*
X2900670Y443120D01*
Y466880D01*
X2894520Y489831D01*
X2882640Y510408D01*
X2865839Y527210D01*
X2845261Y539090D01*
X2822310Y545240D01*
X2798550D01*
X2775599Y539090D01*
X2755021Y527210D01*
X2738220Y510408D01*
X2726340Y489831D01*
X2720190Y466880D01*
Y443120D01*
X2726340Y420169D01*
X2738220Y399591D01*
X2755021Y382790D01*
X2775599Y370910D01*
X2780367Y369632D01*
X2778695Y356932D01*
X2588165D01*
X2586493Y369632D01*
X2591261Y370910D01*
X2611839Y382790D01*
X2628640Y399591D01*
X2640520Y420169D01*
X2646670Y443120D01*
Y466880D01*
X2640520Y489831D01*
X2628640Y510408D01*
X2611839Y527210D01*
X2591261Y539090D01*
X2568310Y545240D01*
X2544550D01*
X2521599Y539090D01*
X2501021Y527210D01*
X2484220Y510408D01*
X2472340Y489831D01*
X2466190Y466880D01*
Y443120D01*
X2472340Y420169D01*
X2484220Y399591D01*
X2501021Y382790D01*
X2521599Y370910D01*
X2526367Y369632D01*
X2524695Y356932D01*
X2334165D01*
X2332493Y369632D01*
X2337261Y370910D01*
X2357839Y382790D01*
X2374640Y399591D01*
X2386520Y420169D01*
X2392670Y443120D01*
Y466880D01*
X2386520Y489831D01*
X2374640Y510408D01*
X2357839Y527210D01*
X2337261Y539090D01*
X2314310Y545240D01*
X2290550D01*
X2267599Y539090D01*
X2247021Y527210D01*
X2230220Y510408D01*
X2218340Y489831D01*
X2212190Y466880D01*
Y443120D01*
X2218340Y420169D01*
X2230220Y399591D01*
X2247021Y382790D01*
X2267599Y370910D01*
X2272367Y369632D01*
X2270695Y356932D01*
X2080165D01*
X2078493Y369632D01*
X2083261Y370910D01*
X2103839Y382790D01*
X2120640Y399591D01*
X2132520Y420169D01*
X2138670Y443120D01*
Y466880D01*
X2132520Y489831D01*
X2120640Y510408D01*
X2103839Y527210D01*
X2083261Y539090D01*
X2060310Y545240D01*
X2036550D01*
X2013599Y539090D01*
X1993021Y527210D01*
X1976220Y510408D01*
X1964340Y489831D01*
X1958190Y466880D01*
Y443120D01*
X1964340Y420169D01*
X1976220Y399591D01*
X1993021Y382790D01*
X2013599Y370910D01*
X2018367Y369632D01*
X2016695Y356932D01*
X1894128D01*
X1884670Y364760D01*
X1884670Y369632D01*
Y545240D01*
X1704190D01*
Y369632D01*
X1704190Y364760D01*
X1694732Y356932D01*
X1626868D01*
X1140749Y843052D01*
Y899330D01*
X990269D01*
Y748851D01*
X1046548D01*
X1552176Y243223D01*
X1552177Y243222D01*
X1565972Y232636D01*
X1582037Y225982D01*
X1599277Y223712D01*
X1599279Y223712D01*
X7997458D01*
X7997460Y223712D01*
X8014700Y225982D01*
X8030765Y232636D01*
X8044560Y243222D01*
X8553504Y752165D01*
X8560270Y753978D01*
X8577427Y763884D01*
X8591435Y777892D01*
X8601341Y795049D01*
X8606468Y814185D01*
Y833996D01*
X8601341Y853132D01*
X8591435Y870289D01*
X8577427Y884297D01*
X8560270Y894203D01*
X8541134Y899330D01*
X8521323D01*
X8502187Y894203D01*
X8485030Y884297D01*
X8471022Y870289D01*
X8461116Y853132D01*
X8459303Y846366D01*
X7969869Y356932D01*
X7922165D01*
X7920493Y369632D01*
X7925261Y370910D01*
X7945839Y382790D01*
X7962640Y399591D01*
X7974520Y420169D01*
X7980670Y443120D01*
Y466880D01*
X7974520Y489831D01*
X7962640Y510408D01*
X7945839Y527210D01*
X7925261Y539090D01*
X7902310Y545240D01*
X7878550D01*
X7855599Y539090D01*
X7835021Y527210D01*
X7818220Y510408D01*
X7806340Y489831D01*
X7800190Y466880D01*
Y443120D01*
X7806340Y420169D01*
X7818220Y399591D01*
X7835021Y382790D01*
X7855599Y370910D01*
X7860367Y369632D01*
X7858695Y356932D01*
X7668165D01*
X7666493Y369632D01*
X7671261Y370910D01*
X7691839Y382790D01*
X7708640Y399591D01*
X7720520Y420169D01*
X7726670Y443120D01*
Y466880D01*
X7720520Y489831D01*
X7708640Y510408D01*
X7691839Y527210D01*
X7671261Y539090D01*
X7648310Y545240D01*
X7624550D01*
X7601599Y539090D01*
X7581021Y527210D01*
X7564220Y510408D01*
X7552340Y489831D01*
X7546190Y466880D01*
Y443120D01*
X7552340Y420169D01*
X7564220Y399591D01*
X7581021Y382790D01*
X7601599Y370910D01*
X7606367Y369632D01*
X7604695Y356932D01*
X7414165D01*
X7412493Y369632D01*
X7417261Y370910D01*
X7437839Y382790D01*
X7454640Y399591D01*
X7466520Y420169D01*
X7472670Y443120D01*
Y466880D01*
X7466520Y489831D01*
X7454640Y510408D01*
X7437839Y527210D01*
X7417261Y539090D01*
X7394310Y545240D01*
X7370550D01*
X7347599Y539090D01*
X7327021Y527210D01*
X7310220Y510408D01*
X7298340Y489831D01*
X7292190Y466880D01*
Y443120D01*
X7298340Y420169D01*
X7310220Y399591D01*
X7327021Y382790D01*
X7347599Y370910D01*
X7352367Y369632D01*
X7350695Y356932D01*
X7160165D01*
X7158493Y369632D01*
X7163261Y370910D01*
X7183839Y382790D01*
X7200640Y399591D01*
X7212520Y420169D01*
X7218670Y443120D01*
Y466880D01*
X7212520Y489831D01*
X7200640Y510408D01*
X7183839Y527210D01*
X7163261Y539090D01*
X7140310Y545240D01*
X7116550D01*
X7093599Y539090D01*
X7073021Y527210D01*
X7056220Y510408D01*
X7044340Y489831D01*
X7038190Y466880D01*
Y443120D01*
X7044340Y420169D01*
X7056220Y399591D01*
X7073021Y382790D01*
X7093599Y370910D01*
X7098367Y369632D01*
X7096695Y356932D01*
X6930772D01*
X6927369Y369632D01*
X6936077Y374660D01*
X6954770Y393353D01*
X6967988Y416247D01*
X6974830Y441782D01*
Y442300D01*
X6874430D01*
Y455000D01*
X6861730D01*
Y555400D01*
X6861212D01*
X6847408Y551701D01*
X6840834Y563088D01*
X7094853Y817107D01*
X7094854Y817107D01*
X7107475Y833556D01*
X7115409Y852710D01*
X7118115Y873265D01*
X7118115Y873267D01*
Y2303219D01*
X7118115Y2303221D01*
X7118115Y2303223D01*
Y2580744D01*
X7130815Y2589100D01*
X7138905Y2585749D01*
X7155908D01*
X7171617Y2592256D01*
X7183639Y2604279D01*
X7190146Y2619988D01*
Y2636991D01*
X7183639Y2652700D01*
X7171617Y2664722D01*
X7155908Y2671229D01*
X7138905D01*
X7130815Y2667878D01*
X7118115Y2676235D01*
Y5870956D01*
X7117436Y5876117D01*
Y5881322D01*
X7116088Y5886350D01*
X7115409Y5891511D01*
X7113417Y5896320D01*
X7112070Y5901349D01*
X7109467Y5905857D01*
X7107475Y5910666D01*
X7104306Y5914796D01*
X7101703Y5919303D01*
X7098023Y5922984D01*
X7094854Y5927114D01*
X7090723Y5930284D01*
X7087043Y5933964D01*
X7082535Y5936566D01*
X7078405Y5939735D01*
X7073597Y5941727D01*
X7069088Y5944330D01*
X7064060Y5945677D01*
X7059251Y5947669D01*
X7054090Y5948349D01*
X7049062Y5949696D01*
X7043857D01*
X7038696Y5950375D01*
X7033535Y5949696D01*
X7028329D01*
X7023301Y5948349D01*
X7018140Y5947669D01*
X7013331Y5945677D01*
X7008303Y5944330D01*
X7003794Y5941727D01*
X6998986Y5939735D01*
X6994856Y5936566D01*
X6990348Y5933964D01*
X6986668Y5930284D01*
X6982537Y5927114D01*
X6979368Y5922984D01*
X6975688Y5919303D01*
X6973085Y5914796D01*
X6969916Y5910666D01*
X6967925Y5905857D01*
X6965322Y5901349D01*
X6963974Y5896320D01*
X6961982Y5891511D01*
X6961303Y5886350D01*
X6959956Y5881322D01*
Y5876117D01*
X6959276Y5870956D01*
Y2376189D01*
X4987725D01*
X4036795Y3327119D01*
X4020347Y3339740D01*
X4001192Y3347675D01*
X3980637Y3350381D01*
X3980635Y3350381D01*
X2797135D01*
Y3430242D01*
X2795880Y3433274D01*
Y3435192D01*
X2797806Y3437703D01*
X2805740Y3456857D01*
X2808446Y3477412D01*
X2805740Y3497968D01*
X2797806Y3517122D01*
X2795880Y3519633D01*
Y3521551D01*
X2797135Y3524582D01*
Y3630242D01*
X2795880Y3633273D01*
Y3635192D01*
X2797806Y3637702D01*
X2805740Y3656857D01*
X2808446Y3677412D01*
Y4018708D01*
X4610988Y5821249D01*
X4614157Y5825380D01*
X4617837Y5829060D01*
X4620440Y5833568D01*
X4623609Y5837698D01*
X4625601Y5842506D01*
X4628204Y5847015D01*
X4629551Y5852044D01*
X4631543Y5856853D01*
X4632222Y5862014D01*
X4633570Y5867041D01*
Y5872245D01*
X4634249Y5877408D01*
X4633570Y5882570D01*
Y5887774D01*
X4632223Y5892801D01*
X4631543Y5897963D01*
X4629551Y5902772D01*
X4628204Y5907800D01*
X4625601Y5912309D01*
X4623609Y5917117D01*
X4620440Y5921247D01*
X4617837Y5925755D01*
X4614157Y5929435D01*
X4610988Y5933566D01*
X4606857Y5936735D01*
X4603177Y5940415D01*
X4598669Y5943018D01*
X4594539Y5946187D01*
X4589731Y5948179D01*
X4585222Y5950782D01*
X4580194Y5952129D01*
X4575385Y5954121D01*
X4570223Y5954801D01*
X4565196Y5956148D01*
X4559992D01*
X4554830Y5956827D01*
D02*
G37*
G36*
X270880Y3911540D02*
X247120D01*
X224169Y3905390D01*
X203591Y3893510D01*
X186790Y3876709D01*
X174910Y3856131D01*
X168760Y3833180D01*
Y3809420D01*
X174910Y3786469D01*
X186790Y3765891D01*
X203591Y3749090D01*
X224169Y3737210D01*
X247120Y3731060D01*
X270880D01*
X293831Y3737210D01*
X314409Y3749090D01*
X331210Y3765891D01*
X343090Y3786469D01*
X349240Y3809420D01*
Y3833180D01*
X343090Y3856131D01*
X331210Y3876709D01*
X314409Y3893510D01*
X293831Y3905390D01*
X270880Y3911540D01*
D02*
G37*
G36*
X1927562Y3522777D02*
X1883664D01*
Y3478879D01*
X1903337Y3487027D01*
X1919413Y3503104D01*
X1927562Y3522777D01*
D02*
G37*
G36*
X270880Y3657540D02*
X247120D01*
X224169Y3651390D01*
X203591Y3639510D01*
X186790Y3622709D01*
X174910Y3602131D01*
X168760Y3579180D01*
Y3555420D01*
X174910Y3532469D01*
X186790Y3511891D01*
X203591Y3495090D01*
X224169Y3483210D01*
X247120Y3477060D01*
X270880D01*
X293831Y3483210D01*
X314409Y3495090D01*
X331210Y3511891D01*
X343090Y3532469D01*
X349240Y3555420D01*
Y3579180D01*
X343090Y3602131D01*
X331210Y3622709D01*
X314409Y3639510D01*
X293831Y3651390D01*
X270880Y3657540D01*
D02*
G37*
G36*
Y3403540D02*
X247120D01*
X224169Y3397390D01*
X203591Y3385510D01*
X186790Y3368709D01*
X174910Y3348131D01*
X168760Y3325180D01*
Y3301420D01*
X174910Y3278469D01*
X186790Y3257891D01*
X203591Y3241090D01*
X224169Y3229210D01*
X247120Y3223060D01*
X270880D01*
X293831Y3229210D01*
X314409Y3241090D01*
X331210Y3257891D01*
X343090Y3278469D01*
X349240Y3301420D01*
Y3325180D01*
X343090Y3348131D01*
X331210Y3368709D01*
X314409Y3385510D01*
X293831Y3397390D01*
X270880Y3403540D01*
D02*
G37*
G36*
X1940465Y3251810D02*
X1896567D01*
Y3207912D01*
X1916240Y3216060D01*
X1932317Y3232137D01*
X1940465Y3251810D01*
D02*
G37*
G36*
X1893214Y3156661D02*
X1874520D01*
X1857250Y3149507D01*
X1844031Y3136289D01*
X1836877Y3119018D01*
Y3100324D01*
X1844031Y3083054D01*
X1857250Y3069835D01*
X1874520Y3062681D01*
X1893214D01*
X1910485Y3069835D01*
X1923703Y3083054D01*
X1930857Y3100324D01*
Y3119018D01*
X1923703Y3136289D01*
X1910485Y3149507D01*
X1893214Y3156661D01*
D02*
G37*
G36*
X270880Y3149540D02*
X247120D01*
X224169Y3143390D01*
X203591Y3131510D01*
X186790Y3114709D01*
X174910Y3094131D01*
X168760Y3071180D01*
Y3047420D01*
X174910Y3024469D01*
X186790Y3003891D01*
X203591Y2987090D01*
X224169Y2975210D01*
X247120Y2969060D01*
X270880D01*
X293831Y2975210D01*
X314409Y2987090D01*
X331210Y3003891D01*
X343090Y3024469D01*
X349240Y3047420D01*
Y3071180D01*
X343090Y3094131D01*
X331210Y3114709D01*
X314409Y3131510D01*
X293831Y3143390D01*
X270880Y3149540D01*
D02*
G37*
G36*
X1954632Y2688851D02*
Y2644953D01*
X1998530D01*
X1990381Y2664626D01*
X1974304Y2680702D01*
X1954632Y2688851D01*
D02*
G37*
G36*
X1929232D02*
X1909559Y2680702D01*
X1893482Y2664626D01*
X1885334Y2644953D01*
X1929232D01*
Y2688851D01*
D02*
G37*
G36*
X8545907Y2671229D02*
X8528905D01*
X8513196Y2664722D01*
X8501173Y2652700D01*
X8494666Y2636991D01*
Y2619988D01*
X8501173Y2604279D01*
X8513196Y2592256D01*
X8528905Y2585749D01*
X8545907D01*
X8561616Y2592256D01*
X8573639Y2604279D01*
X8580146Y2619988D01*
Y2636991D01*
X8573639Y2652700D01*
X8561616Y2664722D01*
X8545907Y2671229D01*
D02*
G37*
G36*
X6395907D02*
X6378905D01*
X6363196Y2664722D01*
X6351173Y2652700D01*
X6344666Y2636991D01*
Y2619988D01*
X6351173Y2604279D01*
X6363196Y2592256D01*
X6378905Y2585749D01*
X6395907D01*
X6411616Y2592256D01*
X6423639Y2604279D01*
X6430146Y2619988D01*
Y2636991D01*
X6423639Y2652700D01*
X6411616Y2664722D01*
X6395907Y2671229D01*
D02*
G37*
G36*
X5005908D02*
X4988905D01*
X4973196Y2664722D01*
X4961173Y2652700D01*
X4954666Y2636991D01*
Y2619988D01*
X4961173Y2604279D01*
X4973196Y2592256D01*
X4988905Y2585749D01*
X5005908D01*
X5021617Y2592256D01*
X5033639Y2604279D01*
X5040146Y2619988D01*
Y2636991D01*
X5033639Y2652700D01*
X5021617Y2664722D01*
X5005908Y2671229D01*
D02*
G37*
G36*
X1998530Y2619553D02*
X1954632D01*
Y2575655D01*
X1974304Y2583803D01*
X1990381Y2599880D01*
X1998530Y2619553D01*
D02*
G37*
G36*
X1929232D02*
X1885334D01*
X1893482Y2599880D01*
X1909559Y2583803D01*
X1929232Y2575655D01*
Y2619553D01*
D02*
G37*
G36*
X1806245Y2604980D02*
Y2561082D01*
X1850143D01*
X1841994Y2580755D01*
X1825918Y2596831D01*
X1806245Y2604980D01*
D02*
G37*
G36*
X1780845D02*
X1761172Y2596831D01*
X1745095Y2580755D01*
X1736947Y2561082D01*
X1780845D01*
Y2604980D01*
D02*
G37*
G36*
X3199790Y2540464D02*
Y2496566D01*
X3243688D01*
X3235540Y2516239D01*
X3219463Y2532315D01*
X3199790Y2540464D01*
D02*
G37*
G36*
X3174390D02*
X3154718Y2532315D01*
X3138641Y2516239D01*
X3130492Y2496566D01*
X3174390D01*
Y2540464D01*
D02*
G37*
G36*
X1850143Y2535682D02*
X1806245D01*
Y2491784D01*
X1825918Y2499933D01*
X1841994Y2516009D01*
X1850143Y2535682D01*
D02*
G37*
G36*
X1780845D02*
X1736947D01*
X1745095Y2516009D01*
X1761172Y2499933D01*
X1780845Y2491784D01*
Y2535682D01*
D02*
G37*
G36*
X1931924Y2808275D02*
X1913230D01*
X1895959Y2801121D01*
X1882741Y2787902D01*
X1875587Y2770632D01*
Y2751938D01*
X1882741Y2734667D01*
X1895959Y2721449D01*
X1913230Y2714295D01*
X1931924D01*
X1949194Y2721449D01*
X1960543Y2732797D01*
X2366502D01*
X2390863Y2708437D01*
Y2541187D01*
X2379514Y2529838D01*
X2372360Y2512568D01*
Y2493874D01*
X2379514Y2476603D01*
X2392732Y2463385D01*
X2410003Y2456231D01*
X2428697D01*
X2445968Y2463385D01*
X2459186Y2476603D01*
X2466340Y2493874D01*
Y2512568D01*
X2459186Y2529838D01*
X2447837Y2541187D01*
Y2720235D01*
X2447838Y2720237D01*
X2445669Y2731138D01*
X2439494Y2740380D01*
X2439493Y2740381D01*
X2398446Y2781429D01*
X2389204Y2787604D01*
X2378302Y2789772D01*
X2378301Y2789772D01*
X1960543D01*
X1949194Y2801121D01*
X1931924Y2808275D01*
D02*
G37*
G36*
X3243688Y2471166D02*
X3199790D01*
Y2427268D01*
X3219463Y2435417D01*
X3235540Y2451493D01*
X3243688Y2471166D01*
D02*
G37*
G36*
X3174390D02*
X3130492D01*
X3138641Y2451493D01*
X3154718Y2435417D01*
X3174390Y2427268D01*
Y2471166D01*
D02*
G37*
G36*
X973988Y1785627D02*
Y1741729D01*
X1017886D01*
X1009738Y1761402D01*
X993661Y1777478D01*
X973988Y1785627D01*
D02*
G37*
G36*
X948588D02*
X928916Y1777478D01*
X912839Y1761402D01*
X904690Y1741729D01*
X948588D01*
Y1785627D01*
D02*
G37*
G36*
X270880Y1879540D02*
X247120D01*
X224169Y1873390D01*
X203591Y1861510D01*
X186790Y1844709D01*
X174910Y1824131D01*
X168760Y1801180D01*
Y1777420D01*
X174910Y1754469D01*
X186790Y1733891D01*
X203591Y1717090D01*
X224169Y1705210D01*
X247120Y1699060D01*
X270880D01*
X293831Y1705210D01*
X314409Y1717090D01*
X331210Y1733891D01*
X343090Y1754469D01*
X349240Y1777420D01*
Y1801180D01*
X343090Y1824131D01*
X331210Y1844709D01*
X314409Y1861510D01*
X293831Y1873390D01*
X270880Y1879540D01*
D02*
G37*
G36*
X1017886Y1716329D02*
X973988D01*
Y1672431D01*
X993661Y1680579D01*
X1009738Y1696656D01*
X1017886Y1716329D01*
D02*
G37*
G36*
X948588D02*
X904690D01*
X912839Y1696656D01*
X928916Y1680579D01*
X948588Y1672431D01*
Y1716329D01*
D02*
G37*
G36*
X1303020Y1688853D02*
Y1644955D01*
X1346918D01*
X1338769Y1664628D01*
X1322693Y1680704D01*
X1303020Y1688853D01*
D02*
G37*
G36*
X1277620D02*
X1257947Y1680704D01*
X1241871Y1664628D01*
X1233722Y1644955D01*
X1277620D01*
Y1688853D01*
D02*
G37*
G36*
X1346918Y1619555D02*
X1303020D01*
Y1575657D01*
X1322693Y1583805D01*
X1338769Y1599882D01*
X1346918Y1619555D01*
D02*
G37*
G36*
X1277620D02*
X1233722D01*
X1241871Y1599882D01*
X1257947Y1583805D01*
X1277620Y1575657D01*
Y1619555D01*
D02*
G37*
G36*
X359400Y1635700D02*
X271700D01*
Y1548000D01*
X359400D01*
Y1635700D01*
D02*
G37*
G36*
X246300D02*
X158600D01*
Y1548000D01*
X246300D01*
Y1635700D01*
D02*
G37*
G36*
X9437740Y1625540D02*
X9413980D01*
X9391029Y1619390D01*
X9370451Y1607510D01*
X9353650Y1590709D01*
X9341770Y1570131D01*
X9335620Y1547180D01*
Y1523420D01*
X9341770Y1500469D01*
X9353650Y1479891D01*
X9370451Y1463090D01*
X9391029Y1451210D01*
X9413980Y1445060D01*
X9437740D01*
X9460691Y1451210D01*
X9481269Y1463090D01*
X9498070Y1479891D01*
X9509950Y1500469D01*
X9516100Y1523420D01*
Y1547180D01*
X9509950Y1570131D01*
X9498070Y1590709D01*
X9481269Y1607510D01*
X9460691Y1619390D01*
X9437740Y1625540D01*
D02*
G37*
G36*
X359400Y1522600D02*
X271700D01*
Y1434900D01*
X359400D01*
Y1522600D01*
D02*
G37*
G36*
X246300D02*
X158600D01*
Y1434900D01*
X246300D01*
Y1522600D01*
D02*
G37*
G36*
X864311Y1243692D02*
Y1199794D01*
X908209D01*
X900061Y1219467D01*
X883984Y1235544D01*
X864311Y1243692D01*
D02*
G37*
G36*
X838911D02*
X819238Y1235544D01*
X803162Y1219467D01*
X795013Y1199794D01*
X838911D01*
Y1243692D01*
D02*
G37*
G36*
X1367536Y1179176D02*
Y1135278D01*
X1411434D01*
X1403285Y1154951D01*
X1387209Y1171028D01*
X1367536Y1179176D01*
D02*
G37*
G36*
X1342136D02*
X1322463Y1171028D01*
X1306387Y1154951D01*
X1298238Y1135278D01*
X1342136D01*
Y1179176D01*
D02*
G37*
G36*
X908209Y1174394D02*
X864311D01*
Y1130496D01*
X883984Y1138645D01*
X900061Y1154722D01*
X908209Y1174394D01*
D02*
G37*
G36*
X838911D02*
X795013D01*
X803162Y1154722D01*
X819238Y1138645D01*
X838911Y1130496D01*
Y1174394D01*
D02*
G37*
G36*
X1411434Y1109878D02*
X1367536D01*
Y1065980D01*
X1387209Y1074129D01*
X1403285Y1090206D01*
X1411434Y1109878D01*
D02*
G37*
G36*
X1342136D02*
X1298238D01*
X1306387Y1090206D01*
X1322463Y1074129D01*
X1342136Y1065980D01*
Y1109878D01*
D02*
G37*
G36*
X8816629Y909490D02*
X8743929D01*
Y836791D01*
X8816629D01*
Y909490D01*
D02*
G37*
G36*
X8718529D02*
X8645829D01*
Y836791D01*
X8718529D01*
Y909490D01*
D02*
G37*
G36*
X875414Y899330D02*
X855603D01*
X836467Y894203D01*
X819310Y884297D01*
X805302Y870289D01*
X795396Y853132D01*
X790269Y833996D01*
Y814185D01*
X795396Y795049D01*
X805302Y777892D01*
X819310Y763884D01*
X836467Y753978D01*
X855603Y748851D01*
X875414D01*
X894550Y753978D01*
X911707Y763884D01*
X925715Y777892D01*
X935621Y795049D01*
X940748Y814185D01*
Y833996D01*
X935621Y853132D01*
X925715Y870289D01*
X911707Y884297D01*
X894550Y894203D01*
X875414Y899330D01*
D02*
G37*
G36*
X8816629Y811391D02*
X8743929D01*
Y738691D01*
X8816629D01*
Y811391D01*
D02*
G37*
G36*
X8718529D02*
X8645829D01*
Y738691D01*
X8718529D01*
Y811391D01*
D02*
G37*
G36*
X6887648Y555400D02*
X6887130D01*
Y467700D01*
X6974830D01*
Y468218D01*
X6967988Y493753D01*
X6954770Y516647D01*
X6936077Y535340D01*
X6913183Y548558D01*
X6887648Y555400D01*
D02*
G37*
%LPD*%
G36*
X5638389Y6808303D02*
X5634120Y6802667D01*
X4718390D01*
X4712187Y6815367D01*
X4716580Y6821003D01*
X5632076D01*
X5638389Y6808303D01*
D02*
G37*
G36*
X2614459Y3729228D02*
X2606332Y3725861D01*
X2590255Y3709785D01*
X2582106Y3690112D01*
X2638704D01*
Y3677412D01*
X2651404D01*
Y3620814D01*
X2671077Y3628963D01*
X2683866Y3641751D01*
X2696654Y3628963D01*
X2716327Y3620814D01*
Y3677412D01*
X2741727D01*
Y3620814D01*
X2761400Y3628963D01*
X2767940Y3635503D01*
X2780640Y3630242D01*
Y3524582D01*
X2767940Y3519322D01*
X2761400Y3525862D01*
X2741727Y3534010D01*
Y3477412D01*
Y3420814D01*
X2761400Y3428963D01*
X2767940Y3435503D01*
X2780640Y3430242D01*
Y3318131D01*
X2767940Y3312871D01*
X2761400Y3319411D01*
X2741727Y3327559D01*
Y3270961D01*
X2716327D01*
Y3327559D01*
X2696654Y3319411D01*
X2683866Y3306622D01*
X2671077Y3319411D01*
X2651404Y3327559D01*
Y3270961D01*
X2638704D01*
Y3258261D01*
X2582106D01*
X2590255Y3238588D01*
X2596795Y3232048D01*
X2591534Y3219348D01*
X2529027D01*
Y3741928D01*
X2611933D01*
X2614459Y3729228D01*
D02*
G37*
%LPC*%
G36*
X2626004Y3664712D02*
X2582106D01*
X2590255Y3645039D01*
X2606332Y3628963D01*
X2626004Y3620814D01*
Y3664712D01*
D02*
G37*
G36*
X2716327Y3534010D02*
X2696654Y3525862D01*
X2687091Y3516299D01*
X2677529Y3525862D01*
X2657856Y3534010D01*
Y3477412D01*
Y3420814D01*
X2677529Y3428963D01*
X2687091Y3438526D01*
X2696654Y3428963D01*
X2716327Y3420814D01*
Y3477412D01*
Y3534010D01*
D02*
G37*
G36*
X2632456D02*
X2612783Y3525862D01*
X2596707Y3509785D01*
X2588558Y3490112D01*
X2632456D01*
Y3534010D01*
D02*
G37*
G36*
Y3464712D02*
X2588558D01*
X2596707Y3445040D01*
X2612783Y3428963D01*
X2632456Y3420814D01*
Y3464712D01*
D02*
G37*
G36*
X2626004Y3327559D02*
X2606332Y3319411D01*
X2590255Y3303334D01*
X2582106Y3283661D01*
X2626004D01*
Y3327559D01*
D02*
G37*
%LPD*%
D10*
X3487493Y7174179D02*
D03*
X3312493D02*
D03*
X3487493Y6967728D02*
D03*
X3312493D02*
D03*
D11*
X1464513Y1646829D02*
X1490320Y1672635D01*
Y2985525D02*
X5085427Y6580632D01*
X1464513Y1638706D02*
Y1646829D01*
X1490320Y1672635D02*
Y2985525D01*
X4847945Y6632245D02*
X5490312D01*
X259000Y2043300D02*
X4847945Y6632245D01*
X4683554Y6774180D02*
X5677408D01*
X1190191Y3280816D02*
X4683554Y6774180D01*
X4701391Y6849491D02*
X5742305D01*
X1173357Y3321456D02*
X4701391Y6849491D01*
X1168209Y3321456D02*
X1173357D01*
X652053Y2805300D02*
X1168209Y3321456D01*
X1201876Y3240176D02*
X1207024D01*
X4670060Y6703212D02*
X5541924D01*
X1185043Y3280816D02*
X1190191D01*
X259000Y2805300D02*
X652053D01*
X259000Y2551300D02*
X455526D01*
X259000Y2297300D02*
X1201876Y3240176D01*
X1207024D02*
X4670060Y6703212D01*
X455526Y2551300D02*
X1185043Y3280816D01*
X5085427Y6580632D02*
X5320734D01*
X5333638Y6567729D01*
X5793537D01*
X1922577Y2761285D02*
X2378302D01*
X2419350Y2720237D01*
Y2503221D02*
Y2720237D01*
D12*
X2638704Y3270961D02*
Y3470961D01*
X2645156Y3477412D02*
Y3670960D01*
Y3477412D02*
X2729027D01*
Y3677412D02*
Y4051605D01*
X2638704Y3677412D02*
X2645156Y3670960D01*
X2638704Y3470961D02*
X2645156Y3477412D01*
X2638704Y3270961D02*
X2729027D01*
Y4051605D02*
X4554830Y5877408D01*
X6620430Y455000D02*
X7038696Y873265D01*
Y2303221D01*
Y5870956D01*
X7032244Y2296770D02*
X7038696Y2303221D01*
X4954829Y2296770D02*
X7032244D01*
X3980637Y3270961D02*
X4954829Y2296770D01*
X2729027Y3270961D02*
X3980637D01*
D13*
X2529027Y7174179D02*
X2567737Y7135470D01*
X2264512Y7174179D02*
X2529027D01*
X2225802Y7135470D02*
X2264512Y7174179D01*
X1135482Y5638698D02*
X2187101Y6690317D01*
X1135482Y3412896D02*
Y5638698D01*
X1065509Y824091D02*
X1599277Y290322D01*
X7997460D02*
X8531229Y824091D01*
X1599277Y290322D02*
X7997460D01*
X2567737Y7135470D02*
X2609383Y7093823D01*
X2189818Y7099485D02*
X2225802Y7135470D01*
D14*
X2187101Y6690317D02*
Y6874600D01*
X2612100D02*
Y7009600D01*
X2609383Y7012317D02*
Y7093823D01*
Y7012317D02*
X2612100Y7009600D01*
X2187101D02*
X2189818Y7012317D01*
Y7099485D01*
X2187101Y6874600D02*
Y7009600D01*
D15*
X2363705Y6957062D02*
X2442101Y6878667D01*
X2357100Y7009600D02*
X2363705Y7002995D01*
X2442101Y6874600D02*
Y6878667D01*
X2363705Y6957062D02*
Y7002995D01*
X3161284Y7174179D02*
X3312493D01*
X3260233Y6915468D02*
X3270233D01*
X3080236Y6735470D02*
X3260233Y6915468D01*
X2329028Y6735470D02*
X3080236D01*
X3312493Y6957728D02*
Y6967728D01*
X3270233Y6915468D02*
X3312493Y6957728D01*
X2272100Y6792398D02*
Y6874600D01*
Y6792398D02*
X2329028Y6735470D01*
D16*
X865509Y824091D02*
D03*
X8531229D02*
D03*
D17*
X1065509D02*
D03*
X8731229D02*
D03*
D18*
X2102100Y7009600D02*
D03*
X2187101D02*
D03*
X2272100D02*
D03*
X2357100D02*
D03*
X2442101D02*
D03*
X2527101D02*
D03*
X2612100D02*
D03*
X2697101D02*
D03*
Y6874600D02*
D03*
X2612100D02*
D03*
X2527101D02*
D03*
X2442101D02*
D03*
X2357100D02*
D03*
X2272100D02*
D03*
X2187101D02*
D03*
X2102100D02*
D03*
D19*
X2832101Y6972600D02*
D03*
X1967100D02*
D03*
D20*
X2832101Y7310600D02*
D03*
X1967100D02*
D03*
D21*
X259000Y6361300D02*
D03*
Y6107300D02*
D03*
Y5853300D02*
D03*
Y5599300D02*
D03*
Y5345300D02*
D03*
Y5091300D02*
D03*
Y4837300D02*
D03*
Y4583300D02*
D03*
Y4329300D02*
D03*
Y4075300D02*
D03*
Y3821300D02*
D03*
Y3567300D02*
D03*
Y3313300D02*
D03*
Y3059300D02*
D03*
Y2805300D02*
D03*
Y2551300D02*
D03*
Y2297300D02*
D03*
Y2043300D02*
D03*
Y1789300D02*
D03*
X2048430Y455000D02*
D03*
X2302430D02*
D03*
X2556430D02*
D03*
X2810430D02*
D03*
X3064430D02*
D03*
X3318430D02*
D03*
X3572430D02*
D03*
X3826430D02*
D03*
X4080430D02*
D03*
X4334430D02*
D03*
X4588430D02*
D03*
X4842430D02*
D03*
X5096430D02*
D03*
X5350430D02*
D03*
X5604430D02*
D03*
X5858430D02*
D03*
X6112430D02*
D03*
X6366430D02*
D03*
X6620430D02*
D03*
X6874430D02*
D03*
X7128430D02*
D03*
X7382430D02*
D03*
X7636430D02*
D03*
X7890430D02*
D03*
X2061718Y5768848D02*
D03*
D22*
X259000Y1535300D02*
D03*
X2061718Y5514848D02*
D03*
D23*
X1794430Y455000D02*
D03*
D24*
X9425860Y1535300D02*
D03*
Y6361300D02*
D03*
D25*
X8116113Y6109665D02*
D03*
X7580630Y6103214D02*
D03*
X8109661Y2496769D02*
D03*
X7587082D02*
D03*
X6006440Y2503221D02*
D03*
X5464505D02*
D03*
X5140006Y5638470D02*
D03*
X4852096Y5631175D02*
D03*
X5452096Y5631180D02*
D03*
X5752096D02*
D03*
X5412892Y6503213D02*
D03*
X5980633Y5883859D02*
D03*
X4612894Y5703214D02*
D03*
X2587092Y2535479D02*
D03*
X2180641Y2580640D02*
D03*
X2206447Y2122576D02*
D03*
X1883867Y2935478D02*
D03*
X1793545Y2548382D02*
D03*
X1883867Y3109671D02*
D03*
Y3264510D02*
D03*
X1941932Y2632253D02*
D03*
X1870964Y3535477D02*
D03*
X961288Y1729029D02*
D03*
X1354836Y1122578D02*
D03*
X851611Y1187094D02*
D03*
X1290320Y1632255D02*
D03*
X5677408Y6774180D02*
D03*
X5742305Y6849491D02*
D03*
X5541924Y6703212D02*
D03*
X5490312Y6632245D02*
D03*
X1922577Y2761285D02*
D03*
X5793537Y6567729D02*
D03*
X1464513Y1638706D02*
D03*
X2645156Y3477412D02*
D03*
X2729027Y3270961D02*
D03*
Y3477412D02*
D03*
Y3677412D02*
D03*
X2638704D02*
D03*
Y3270961D02*
D03*
X2419350Y2503221D02*
D03*
X3161284Y7174179D02*
D03*
D26*
X4554830Y5877408D02*
D03*
X1135482Y3412896D02*
D03*
X7038696Y2303221D02*
D03*
Y5870956D02*
D03*
X4954829Y2296770D02*
D03*
%TF.MD5,491628da3447ede4bebae66619ab055f*%
M02*
