G04*
G04 #@! TF.GenerationSoftware,Altium Limited,Altium Designer,22.7.1 (60)*
G04*
G04 Layer_Color=2752767*
%FSLAX44Y44*%
%MOMM*%
G71*
G04*
G04 #@! TF.SameCoordinates,F0A3B908-A9A0-482C-9906-E7527CCB9396*
G04*
G04*
G04 #@! TF.FilePolarity,Positive*
G04*
G01*
G75*
%ADD14C,0.0254*%
%ADD74C,0.0508*%
%ADD75C,0.0677*%
%ADD76C,0.0339*%
D14*
X857746Y200438D02*
G03*
X867746Y190438I10000J0D01*
G01*
X917746Y190438D02*
G03*
X927746Y200438I0J10000D01*
G01*
X927746Y292438D02*
G03*
X917746Y302438I-10000J0D01*
G01*
X867746D02*
G03*
X857746Y292438I0J-10000D01*
G01*
X943030Y100544D02*
G03*
X934243Y79331I21213J-21213D01*
G01*
X34243D02*
G03*
X25456Y100544I-30000J0D01*
G01*
X867746Y190438D02*
X917746D01*
X927746Y200438D02*
X927746Y292438D01*
X867746Y302438D02*
X917746D01*
X857746Y200438D02*
Y292438D01*
X34243Y79331D02*
X34243Y55500D01*
X934243D01*
X934243Y79331D01*
X943030Y100544D02*
X967986Y125500D01*
Y675500D01*
X897986Y745500D02*
X967986Y675500D01*
X70500Y745500D02*
X897986D01*
X500Y675500D02*
X70500Y745500D01*
X500Y125500D02*
Y675500D01*
Y125500D02*
X25456Y100544D01*
D74*
X397709Y622849D02*
X399741Y624881D01*
X401773Y622849D01*
X399741Y620817D01*
X397709Y622849D01*
X536709D02*
X538741Y624881D01*
X540773Y622849D01*
X538741Y620817D01*
X536709Y622849D01*
X791709D02*
X793741Y624881D01*
X795773Y622849D01*
X793741Y620817D01*
X791709Y622849D01*
X652709D02*
X654741Y624881D01*
X656773Y622849D01*
X654741Y620817D01*
X652709Y622849D01*
X437709Y262849D02*
X439741Y264881D01*
X441773Y262849D01*
X439741Y260817D01*
X437709Y262849D01*
X576709D02*
X578741Y264881D01*
X580773Y262849D01*
X578741Y260817D01*
X576709Y262849D01*
X791709D02*
X793741Y264881D01*
X795773Y262849D01*
X793741Y260817D01*
X791709Y262849D01*
X652709D02*
X654741Y264881D01*
X656773Y262849D01*
X654741Y260817D01*
X652709Y262849D01*
X99484Y704484D02*
Y703468D01*
X101516D01*
Y704484D01*
X102532D01*
Y706516D01*
X101516D01*
Y707532D01*
X99484D01*
Y706516D01*
X98468D01*
Y704484D01*
X99484D01*
X866970D02*
Y703468D01*
X869002D01*
Y704484D01*
X870018D01*
Y706516D01*
X869002D01*
Y707532D01*
X866970D01*
Y706516D01*
X865954D01*
Y704484D01*
X866970D01*
X433577Y84388D02*
Y88452D01*
X437641D01*
Y84388D01*
X433577D01*
X420877D02*
Y88452D01*
X424941D01*
Y84388D01*
X420877D01*
X408177D02*
Y88452D01*
X412241D01*
Y84388D01*
X408177D01*
X395477D02*
Y88452D01*
X399541D01*
Y84388D01*
X395477D01*
X382777D02*
Y88452D01*
X386841D01*
Y84388D01*
X382777D01*
X370077D02*
Y88452D01*
X374141D01*
Y84388D01*
X370077D01*
X357377D02*
Y88452D01*
X361441D01*
Y84388D01*
X357377D01*
X344677D02*
Y88452D01*
X348741D01*
Y84388D01*
X344677D01*
X331977D02*
Y88452D01*
X336041D01*
Y84388D01*
X331977D01*
X319277D02*
Y88452D01*
X323341D01*
Y84388D01*
X319277D01*
X306577D02*
Y88452D01*
X310641D01*
Y84388D01*
X306577D01*
X293877D02*
Y88452D01*
X297941D01*
Y84388D01*
X293877D01*
X281177D02*
Y88452D01*
X285241D01*
Y84388D01*
X281177D01*
X268477D02*
Y88452D01*
X272541D01*
Y84388D01*
X268477D01*
X255777D02*
Y88452D01*
X259841D01*
Y84388D01*
X255777D01*
X243077D02*
Y88452D01*
X247141D01*
Y84388D01*
X243077D01*
X230377D02*
Y88452D01*
X234441D01*
Y84388D01*
X230377D01*
X217677D02*
Y88452D01*
X221741D01*
Y84388D01*
X217677D01*
X204977D02*
Y88452D01*
X209041D01*
Y84388D01*
X204977D01*
X192277D02*
Y88452D01*
X196341D01*
Y84388D01*
X192277D01*
X735837Y84387D02*
Y88451D01*
X739901D01*
Y84387D01*
X735837D01*
X723137D02*
Y88451D01*
X727201D01*
Y84387D01*
X723137D01*
X710437D02*
Y88451D01*
X714501D01*
Y84387D01*
X710437D01*
X697737D02*
Y88451D01*
X701801D01*
Y84387D01*
X697737D01*
X685037D02*
Y88451D01*
X689101D01*
Y84387D01*
X685037D01*
X672337D02*
Y88451D01*
X676401D01*
Y84387D01*
X672337D01*
X659637D02*
Y88451D01*
X663701D01*
Y84387D01*
X659637D01*
X646937D02*
Y88451D01*
X651001D01*
Y84387D01*
X646937D01*
X634237D02*
Y88451D01*
X638301D01*
Y84387D01*
X634237D01*
X621537D02*
Y88451D01*
X625601D01*
Y84387D01*
X621537D01*
X608837D02*
Y88451D01*
X612901D01*
Y84387D01*
X608837D01*
X596137D02*
Y88451D01*
X600201D01*
Y84387D01*
X596137D01*
X583437D02*
Y88451D01*
X587501D01*
Y84387D01*
X583437D01*
X570737D02*
Y88451D01*
X574801D01*
Y84387D01*
X570737D01*
X558037D02*
Y88451D01*
X562101D01*
Y84387D01*
X558037D01*
X545337D02*
Y88451D01*
X549401D01*
Y84387D01*
X545337D01*
X532637D02*
Y88451D01*
X536701D01*
Y84387D01*
X532637D01*
X519937D02*
Y88451D01*
X524001D01*
Y84387D01*
X519937D01*
X507237D02*
Y88451D01*
X511301D01*
Y84387D01*
X507237D01*
X494537D02*
Y88451D01*
X498601D01*
Y84387D01*
X494537D01*
X87968Y128919D02*
X88984Y130951D01*
X87968Y132983D01*
X90000Y131967D01*
X92032Y132983D01*
X91016Y130951D01*
X92032Y128919D01*
X90000Y129935D01*
X87968Y128919D01*
X88984Y129935D02*
X89492Y130951D01*
X88984Y131967D01*
X90000Y131459D01*
X91016Y131967D01*
X90508Y130951D01*
X91016Y129935D01*
X90000Y130443D01*
X88984Y129935D01*
X107968Y128919D02*
X108984Y130951D01*
X107968Y132983D01*
X110000Y131967D01*
X112032Y132983D01*
X111016Y130951D01*
X112032Y128919D01*
X110000Y129935D01*
X107968Y128919D01*
X108984Y129935D02*
X109492Y130951D01*
X108984Y131967D01*
X110000Y131459D01*
X111016Y131967D01*
X110508Y130951D01*
X111016Y129935D01*
X110000Y130443D01*
X108984Y129935D01*
X877321Y130226D02*
X878337Y132258D01*
X877321Y134290D01*
X879353Y133274D01*
X881385Y134290D01*
X880369Y132258D01*
X881385Y130226D01*
X879353Y131242D01*
X877321Y130226D01*
X878337Y131242D02*
X878845Y132258D01*
X878337Y133274D01*
X879353Y132766D01*
X880369Y133274D01*
X879861Y132258D01*
X880369Y131242D01*
X879353Y131750D01*
X878337Y131242D01*
X857321Y130226D02*
X858337Y132258D01*
X857321Y134290D01*
X859353Y133274D01*
X861385Y134290D01*
X860369Y132258D01*
X861385Y130226D01*
X859353Y131242D01*
X857321Y130226D01*
X858337Y131242D02*
X858845Y132258D01*
X858337Y133274D01*
X859353Y132766D01*
X860369Y133274D01*
X859861Y132258D01*
X860369Y131242D01*
X859353Y131750D01*
X858337Y131242D01*
X283210Y695228D02*
X281178Y699292D01*
X285242D01*
X283210Y695228D01*
Y696244D02*
X282194Y698276D01*
X284226D01*
X283210Y696244D01*
X196710Y695228D02*
X194678Y699292D01*
X198742D01*
X196710Y695228D01*
Y696244D02*
X195694Y698276D01*
X197726D01*
X196710Y696244D01*
X283210Y729028D02*
X284226Y730044D01*
X285242D01*
X284226Y731060D01*
X285242Y732076D01*
X284226D01*
X283210Y733092D01*
X282194Y732076D01*
X281178D01*
X282194Y731060D01*
X281178Y730044D01*
X282194D01*
X283210Y729028D01*
Y730044D02*
X283718Y730552D01*
X284226D01*
X283718Y731060D01*
X284226Y731568D01*
X283718D01*
X283210Y732076D01*
X282702Y731568D01*
X282194D01*
X282702Y731060D01*
X282194Y730552D01*
X282702D01*
X283210Y730044D01*
X196710Y729028D02*
X197726Y730044D01*
X198742D01*
X197726Y731060D01*
X198742Y732076D01*
X197726D01*
X196710Y733092D01*
X195694Y732076D01*
X194678D01*
X195694Y731060D01*
X194678Y730044D01*
X195694D01*
X196710Y729028D01*
Y730044D02*
X197218Y730552D01*
X197726D01*
X197218Y731060D01*
X197726Y731568D01*
X197218D01*
X196710Y732076D01*
X196202Y731568D01*
X195694D01*
X196202Y731060D01*
X195694Y730552D01*
X196202D01*
X196710Y730044D01*
X23868Y634098D02*
Y638162D01*
X27932D01*
Y634098D01*
X23868D01*
X24884Y635114D02*
Y637146D01*
X26916D01*
Y635114D01*
X24884D01*
X23868Y608698D02*
Y612762D01*
X27932D01*
Y608698D01*
X23868D01*
X24884Y609714D02*
Y611746D01*
X26916D01*
Y609714D01*
X24884D01*
X23868Y583298D02*
Y587362D01*
X27932D01*
Y583298D01*
X23868D01*
X24884Y584314D02*
Y586346D01*
X26916D01*
Y584314D01*
X24884D01*
X23868Y557898D02*
Y561962D01*
X27932D01*
Y557898D01*
X23868D01*
X24884Y558914D02*
Y560946D01*
X26916D01*
Y558914D01*
X24884D01*
X23868Y532498D02*
Y536562D01*
X27932D01*
Y532498D01*
X23868D01*
X24884Y533514D02*
Y535546D01*
X26916D01*
Y533514D01*
X24884D01*
X23868Y507098D02*
Y511162D01*
X27932D01*
Y507098D01*
X23868D01*
X24884Y508114D02*
Y510146D01*
X26916D01*
Y508114D01*
X24884D01*
X23868Y481698D02*
Y485762D01*
X27932D01*
Y481698D01*
X23868D01*
X24884Y482714D02*
Y484746D01*
X26916D01*
Y482714D01*
X24884D01*
X23868Y456298D02*
Y460362D01*
X27932D01*
Y456298D01*
X23868D01*
X24884Y457314D02*
Y459346D01*
X26916D01*
Y457314D01*
X24884D01*
X23868Y430898D02*
Y434962D01*
X27932D01*
Y430898D01*
X23868D01*
X24884Y431914D02*
Y433946D01*
X26916D01*
Y431914D01*
X24884D01*
X23868Y405498D02*
Y409562D01*
X27932D01*
Y405498D01*
X23868D01*
X24884Y406514D02*
Y408546D01*
X26916D01*
Y406514D01*
X24884D01*
X23868Y380098D02*
Y384162D01*
X27932D01*
Y380098D01*
X23868D01*
X24884Y381114D02*
Y383146D01*
X26916D01*
Y381114D01*
X24884D01*
X23868Y354698D02*
Y358762D01*
X27932D01*
Y354698D01*
X23868D01*
X24884Y355714D02*
Y357746D01*
X26916D01*
Y355714D01*
X24884D01*
X23868Y329298D02*
Y333362D01*
X27932D01*
Y329298D01*
X23868D01*
X24884Y330314D02*
Y332346D01*
X26916D01*
Y330314D01*
X24884D01*
X23868Y303898D02*
Y307962D01*
X27932D01*
Y303898D01*
X23868D01*
X24884Y304914D02*
Y306946D01*
X26916D01*
Y304914D01*
X24884D01*
X23868Y278498D02*
Y282562D01*
X27932D01*
Y278498D01*
X23868D01*
X24884Y279514D02*
Y281546D01*
X26916D01*
Y279514D01*
X24884D01*
X23868Y253098D02*
Y257162D01*
X27932D01*
Y253098D01*
X23868D01*
X24884Y254114D02*
Y256146D01*
X26916D01*
Y254114D01*
X24884D01*
X23868Y227698D02*
Y231762D01*
X27932D01*
Y227698D01*
X23868D01*
X24884Y228714D02*
Y230746D01*
X26916D01*
Y228714D01*
X24884D01*
X23868Y202298D02*
Y206362D01*
X27932D01*
Y202298D01*
X23868D01*
X24884Y203314D02*
Y205346D01*
X26916D01*
Y203314D01*
X24884D01*
X23868Y176898D02*
Y180962D01*
X27932D01*
Y176898D01*
X23868D01*
X24884Y177914D02*
Y179946D01*
X26916D01*
Y177914D01*
X24884D01*
X23868Y151498D02*
Y155562D01*
X27932D01*
Y151498D01*
X23868D01*
X24884Y152514D02*
Y154546D01*
X26916D01*
Y152514D01*
X24884D01*
X940554Y151498D02*
Y155562D01*
X944618D01*
Y151498D01*
X940554D01*
X941570Y152514D02*
Y154546D01*
X943602D01*
Y152514D01*
X941570D01*
X940554Y634098D02*
Y638162D01*
X944618D01*
Y634098D01*
X940554D01*
X941570Y635114D02*
Y637146D01*
X943602D01*
Y635114D01*
X941570D01*
X249174Y630870D02*
Y634934D01*
X253238D01*
Y630870D01*
X249174D01*
X250190Y631886D02*
Y633918D01*
X252222D01*
Y631886D01*
X250190D01*
X223774Y630870D02*
Y634934D01*
X227838D01*
Y630870D01*
X223774D01*
X224790Y631886D02*
Y633918D01*
X226822D01*
Y631886D01*
X224790D01*
X397693Y562209D02*
Y561193D01*
X399725D01*
Y562209D01*
X400741D01*
Y564241D01*
X399725D01*
Y565257D01*
X397693D01*
Y564241D01*
X396677D01*
Y562209D01*
X397693D01*
X398201Y562717D02*
Y562209D01*
X399217D01*
Y562717D01*
X399725D01*
Y563733D01*
X399217D01*
Y564241D01*
X398201D01*
Y563733D01*
X397693D01*
Y562717D01*
X398201D01*
X201451Y421193D02*
X199419Y425257D01*
X203483D01*
X201451Y421193D01*
X242741Y378612D02*
X240709Y382676D01*
X244773D01*
X242741Y378612D01*
X214193Y429580D02*
X212161Y433644D01*
X216225D01*
X214193Y429580D01*
X314467Y500919D02*
Y499902D01*
X316499D01*
Y500919D01*
X317515D01*
Y502951D01*
X316499D01*
Y503966D01*
X314467D01*
Y502951D01*
X313451D01*
Y500919D01*
X314467D01*
X314975Y501427D02*
Y500919D01*
X315991D01*
Y501427D01*
X316499D01*
Y502443D01*
X315991D01*
Y502951D01*
X314975D01*
Y502443D01*
X314467D01*
Y501427D01*
X314975D01*
X314467Y529951D02*
Y528935D01*
X316499D01*
Y529951D01*
X317515D01*
Y531983D01*
X316499D01*
Y532999D01*
X314467D01*
Y531983D01*
X313451D01*
Y529951D01*
X314467D01*
X314975Y530459D02*
Y529951D01*
X315991D01*
Y530459D01*
X316499D01*
Y531475D01*
X315991D01*
Y531983D01*
X314975D01*
Y531475D01*
X314467D01*
Y530459D01*
X314975D01*
X285435Y513176D02*
Y512160D01*
X287467D01*
Y513176D01*
X288483D01*
Y515209D01*
X287467D01*
Y516225D01*
X285435D01*
Y515209D01*
X284419D01*
Y513176D01*
X285435D01*
X285943Y513685D02*
Y513176D01*
X286959D01*
Y513685D01*
X287467D01*
Y514701D01*
X286959D01*
Y515209D01*
X285943D01*
Y514701D01*
X285435D01*
Y513685D01*
X285943D01*
X448015Y186726D02*
Y185710D01*
X450047D01*
Y186726D01*
X451063D01*
Y188758D01*
X450047D01*
Y189774D01*
X448015D01*
Y188758D01*
X446999D01*
Y186726D01*
X448015D01*
X448523Y187234D02*
Y186726D01*
X449539D01*
Y187234D01*
X450047D01*
Y188250D01*
X449539D01*
Y188758D01*
X448523D01*
Y188250D01*
X448015D01*
Y187234D01*
X448523D01*
X663499Y188016D02*
Y187000D01*
X665531D01*
Y188016D01*
X666547D01*
Y190048D01*
X665531D01*
Y191064D01*
X663499D01*
Y190048D01*
X662483D01*
Y188016D01*
X663499D01*
X664007Y188524D02*
Y188016D01*
X665023D01*
Y188524D01*
X665531D01*
Y189540D01*
X665023D01*
Y190048D01*
X664007D01*
Y189540D01*
X663499D01*
Y188524D01*
X664007D01*
X648015Y661563D02*
Y660547D01*
X650047D01*
Y661563D01*
X651063D01*
Y663595D01*
X650047D01*
Y664611D01*
X648015D01*
Y663595D01*
X646999D01*
Y661563D01*
X648015D01*
X648523Y662071D02*
Y661563D01*
X649539D01*
Y662071D01*
X650047D01*
Y663087D01*
X649539D01*
Y663595D01*
X648523D01*
Y663087D01*
X648015D01*
Y662071D01*
X648523D01*
X210322Y476677D02*
X208290Y480741D01*
X212354D01*
X210322Y476677D01*
X143225Y343774D02*
X141194Y347838D01*
X145258D01*
X143225Y343774D01*
X164516Y363129D02*
X162484Y367193D01*
X166548D01*
X164516Y363129D01*
X169032Y259258D02*
X167000Y263322D01*
X171064D01*
X169032Y259258D01*
X424515Y608289D02*
X422483Y612353D01*
X426547D01*
X424515Y608289D01*
X507741Y608935D02*
X505709Y612999D01*
X509773D01*
X507741Y608935D01*
X509031Y247645D02*
X506999Y251709D01*
X511063D01*
X509031Y247645D01*
X767740D02*
X765708Y251709D01*
X769772D01*
X767740Y247645D01*
X251612Y319903D02*
X249580Y323967D01*
X253644D01*
X251612Y319903D01*
X385806Y632160D02*
X383774Y636224D01*
X387838D01*
X385806Y632160D01*
X197291Y338968D02*
X195259Y343032D01*
X199323D01*
X197291Y338968D01*
X678708Y247645D02*
X676676Y251709D01*
X680740D01*
X678708Y247645D01*
X688868Y519257D02*
X686836Y523321D01*
X690900D01*
X688868Y519257D01*
X719999Y547644D02*
X717967Y551708D01*
X722031D01*
X719999Y547644D01*
X674192Y556677D02*
X672160Y560741D01*
X676224D01*
X674192Y556677D01*
X446451Y417322D02*
X444419Y421386D01*
X448483D01*
X446451Y417322D01*
X445806Y405709D02*
X443774Y409773D01*
X447838D01*
X445806Y405709D01*
X429677Y388935D02*
X427645Y392999D01*
X431709D01*
X429677Y388935D01*
X694837Y499257D02*
X692805Y503321D01*
X696869D01*
X694837Y499257D01*
X412257Y409580D02*
X410225Y413644D01*
X414289D01*
X412257Y409580D01*
X546451Y248290D02*
X544418Y252354D01*
X548483D01*
X546451Y248290D01*
X731611Y509580D02*
X729579Y513644D01*
X733643D01*
X731611Y509580D01*
X723869Y248290D02*
X721837Y252354D01*
X725901D01*
X723869Y248290D01*
X492981Y521922D02*
X490949Y525986D01*
X495013D01*
X492981Y521922D01*
X726450Y528289D02*
X724418Y532354D01*
X728482D01*
X726450Y528289D01*
X226827Y278398D02*
X224795Y282462D01*
X228859D01*
X226827Y278398D01*
X682579Y539902D02*
X680547Y543966D01*
X684611D01*
X682579Y539902D01*
X714192Y563773D02*
X712160Y567837D01*
X716224D01*
X714192Y563773D01*
X483225Y650870D02*
X481193Y654934D01*
X485257D01*
X483225Y650870D01*
X494193Y657967D02*
X492161Y662031D01*
X496225D01*
X494193Y657967D01*
X502580Y664418D02*
X500548Y668482D01*
X504612D01*
X502580Y664418D01*
X509676Y671515D02*
X507644Y675579D01*
X511708D01*
X509676Y671515D01*
X181935Y561193D02*
X182951Y562209D01*
X183967D01*
X182951Y563225D01*
X183967Y564241D01*
X182951D01*
X181935Y565257D01*
X180919Y564241D01*
X179903D01*
X180919Y563225D01*
X179903Y562209D01*
X180919D01*
X181935Y561193D01*
X467741Y608289D02*
X465709Y612353D01*
X469773D01*
X467741Y608289D01*
X225322Y324419D02*
X223290Y328483D01*
X227354D01*
X225322Y324419D01*
X177419Y281193D02*
X175387Y285257D01*
X179451D01*
X177419Y281193D01*
X209677Y508935D02*
X207645Y512999D01*
X211709D01*
X209677Y508935D01*
X210483Y459903D02*
X208451Y463967D01*
X212515D01*
X210483Y459903D01*
Y492806D02*
X208451Y496870D01*
X212515D01*
X210483Y492806D01*
X214354Y442483D02*
X212322Y446547D01*
X216386D01*
X214354Y442483D01*
X240161Y424419D02*
X238129Y428483D01*
X242193D01*
X240161Y424419D01*
X264032Y416677D02*
X262000Y420741D01*
X266064D01*
X264032Y416677D01*
X280806Y419903D02*
X278774Y423967D01*
X282838D01*
X280806Y419903D01*
X724515Y608289D02*
X722483Y612353D01*
X726547D01*
X724515Y608289D01*
X768386D02*
X766354Y612353D01*
X770418D01*
X768386Y608289D01*
X541289Y648289D02*
X539257Y652353D01*
X543321D01*
X541289Y648289D01*
X679353Y608289D02*
X677321Y612353D01*
X681385D01*
X679353Y608289D01*
X316128Y715386D02*
X314096Y719450D01*
X318160D01*
X316128Y715386D01*
D75*
X59181Y245170D02*
G03*
X59181Y245170I-2032J0D01*
G01*
X84581Y219770D02*
G03*
X84581Y219770I-2032J0D01*
G01*
X109981Y245170D02*
G03*
X109981Y245170I-2032J0D01*
G01*
X60452Y567750D02*
G03*
X60452Y567750I-2032J0D01*
G01*
X85852Y542350D02*
G03*
X85852Y542350I-2032J0D01*
G01*
X111252Y567750D02*
G03*
X111252Y567750I-2032J0D01*
G01*
X59182Y407730D02*
G03*
X59182Y407730I-2032J0D01*
G01*
X84581Y382330D02*
G03*
X84581Y382330I-2032J0D01*
G01*
X109982Y407730D02*
G03*
X109982Y407730I-2032J0D01*
G01*
X212242Y700960D02*
G03*
X212242Y700960I-2032J0D01*
G01*
X220742D02*
G03*
X220742Y700960I-2032J0D01*
G01*
X229242D02*
G03*
X229242Y700960I-2032J0D01*
G01*
X237742D02*
G03*
X237742Y700960I-2032J0D01*
G01*
X246242D02*
G03*
X246242Y700960I-2032J0D01*
G01*
X254742D02*
G03*
X254742Y700960I-2032J0D01*
G01*
X263242D02*
G03*
X263242Y700960I-2032J0D01*
G01*
X271742D02*
G03*
X271742Y700960I-2032J0D01*
G01*
Y687460D02*
G03*
X271742Y687460I-2032J0D01*
G01*
X263242D02*
G03*
X263242Y687460I-2032J0D01*
G01*
X254742D02*
G03*
X254742Y687460I-2032J0D01*
G01*
X246242D02*
G03*
X246242Y687460I-2032J0D01*
G01*
X237742D02*
G03*
X237742Y687460I-2032J0D01*
G01*
X229242D02*
G03*
X229242Y687460I-2032J0D01*
G01*
X220742D02*
G03*
X220742Y687460I-2032J0D01*
G01*
X212242D02*
G03*
X212242Y687460I-2032J0D01*
G01*
D76*
X211226Y700960D02*
G03*
X211226Y700960I-1016J0D01*
G01*
X219726D02*
G03*
X219726Y700960I-1016J0D01*
G01*
X228226D02*
G03*
X228226Y700960I-1016J0D01*
G01*
X236726D02*
G03*
X236726Y700960I-1016J0D01*
G01*
X245226D02*
G03*
X245226Y700960I-1016J0D01*
G01*
X253726D02*
G03*
X253726Y700960I-1016J0D01*
G01*
X262226D02*
G03*
X262226Y700960I-1016J0D01*
G01*
X270726D02*
G03*
X270726Y700960I-1016J0D01*
G01*
Y687460D02*
G03*
X270726Y687460I-1016J0D01*
G01*
X262226D02*
G03*
X262226Y687460I-1016J0D01*
G01*
X253726D02*
G03*
X253726Y687460I-1016J0D01*
G01*
X245226D02*
G03*
X245226Y687460I-1016J0D01*
G01*
X236726D02*
G03*
X236726Y687460I-1016J0D01*
G01*
X228226D02*
G03*
X228226Y687460I-1016J0D01*
G01*
X219726D02*
G03*
X219726Y687460I-1016J0D01*
G01*
X211226D02*
G03*
X211226Y687460I-1016J0D01*
G01*
M02*
