G04*
G04 #@! TF.GenerationSoftware,Altium Limited,Altium Designer,24.1.2 (44)*
G04*
G04 Layer_Color=128*
%FSLAX44Y44*%
%MOMM*%
G71*
G04*
G04 #@! TF.SameCoordinates,8F2A281D-5683-44EC-B143-A45D5901FF86*
G04*
G04*
G04 #@! TF.FilePolarity,Positive*
G04*
G01*
G75*
%ADD81C,0.0508*%
D81*
X347686Y868051D02*
X381686D01*
X364686Y851051D02*
Y885051D01*
X764246Y890911D02*
X798246D01*
X781246Y873911D02*
Y907911D01*
X1155406Y864241D02*
X1189406D01*
X1172406Y847241D02*
Y881241D01*
X354056Y1510666D02*
X358056D01*
X356056Y1508666D02*
Y1512666D01*
X362556Y1510666D02*
X366556D01*
X364556Y1508666D02*
Y1512666D01*
X371056Y1510666D02*
X375056D01*
X373056Y1508666D02*
Y1512666D01*
X379556Y1510666D02*
X383556D01*
X381556Y1508666D02*
Y1512666D01*
X388056Y1510666D02*
X392056D01*
X390056Y1508666D02*
Y1512666D01*
X396556Y1510666D02*
X400556D01*
X398556Y1508666D02*
Y1512666D01*
X405056Y1510666D02*
X409056D01*
X407056Y1508666D02*
Y1512666D01*
X413556Y1510666D02*
X417556D01*
X415556Y1508666D02*
Y1512666D01*
X413556Y1497166D02*
X417556D01*
X415556Y1495166D02*
Y1499166D01*
X405056Y1497166D02*
X409056D01*
X407056Y1495166D02*
Y1499166D01*
X396556Y1497166D02*
X400556D01*
X398556Y1495166D02*
Y1499166D01*
X388056Y1497166D02*
X392056D01*
X390056Y1495166D02*
Y1499166D01*
X379556Y1497166D02*
X383556D01*
X381556Y1495166D02*
Y1499166D01*
X371056Y1497166D02*
X375056D01*
X373056Y1495166D02*
Y1499166D01*
X362556Y1497166D02*
X366556D01*
X364556Y1495166D02*
Y1499166D01*
X354056Y1497166D02*
X358056D01*
X356056Y1495166D02*
Y1499166D01*
X418556Y1506966D02*
X439556D01*
X429056Y1496466D02*
Y1517466D01*
X332056Y1506966D02*
X353056D01*
X342556Y1496466D02*
Y1517466D01*
X422056Y1540766D02*
X436056D01*
X429056Y1533766D02*
Y1547766D01*
X335556Y1540766D02*
X349556D01*
X342556Y1533766D02*
Y1547766D01*
X303007Y958092D02*
X313207D01*
X308107Y952992D02*
Y963192D01*
X303007Y983492D02*
X313207D01*
X308107Y978392D02*
Y988592D01*
X303007Y1008892D02*
X313207D01*
X308107Y1003792D02*
Y1013992D01*
X303007Y1034292D02*
X313207D01*
X308107Y1029192D02*
Y1039392D01*
X303007Y1059692D02*
X313207D01*
X308107Y1054592D02*
Y1064792D01*
X303007Y1085092D02*
X313207D01*
X308107Y1079992D02*
Y1090192D01*
X303007Y1110492D02*
X313207D01*
X308107Y1105392D02*
Y1115592D01*
X303007Y1135892D02*
X313207D01*
X308107Y1130792D02*
Y1140992D01*
X303007Y1161292D02*
X313207D01*
X308107Y1156192D02*
Y1166392D01*
X303007Y1186692D02*
X313207D01*
X308107Y1181592D02*
Y1191792D01*
X303007Y1212092D02*
X313207D01*
X308107Y1206992D02*
Y1217192D01*
X303007Y1237492D02*
X313207D01*
X308107Y1232392D02*
Y1242592D01*
X303007Y1262892D02*
X313207D01*
X308107Y1257792D02*
Y1267992D01*
X303007Y1288292D02*
X313207D01*
X308107Y1283192D02*
Y1293392D01*
X303007Y1313692D02*
X313207D01*
X308107Y1308592D02*
Y1318792D01*
X303007Y1339092D02*
X313207D01*
X308107Y1333992D02*
Y1344192D01*
X303007Y1364492D02*
X313207D01*
X308107Y1359392D02*
Y1369592D01*
X303007Y1389892D02*
X313207D01*
X308107Y1384792D02*
Y1394992D01*
X303007Y1415292D02*
X313207D01*
X308107Y1410192D02*
Y1420392D01*
X303007Y1440692D02*
X313207D01*
X308107Y1435592D02*
Y1445792D01*
X1219693Y1440692D02*
X1229893D01*
X1224793Y1435592D02*
Y1445792D01*
X1219693Y1415292D02*
X1229893D01*
X1224793Y1410192D02*
Y1420392D01*
X1219693Y1389892D02*
X1229893D01*
X1224793Y1384792D02*
Y1394992D01*
X1219693Y1364492D02*
X1229893D01*
X1224793Y1359392D02*
Y1369592D01*
X1219693Y1339092D02*
X1229893D01*
X1224793Y1333992D02*
Y1344192D01*
X1219693Y1313692D02*
X1229893D01*
X1224793Y1308592D02*
Y1318792D01*
X1219693Y1288292D02*
X1229893D01*
X1224793Y1283192D02*
Y1293392D01*
X1219693Y1262892D02*
X1229893D01*
X1224793Y1257792D02*
Y1267992D01*
X1219693Y1237492D02*
X1229893D01*
X1224793Y1232392D02*
Y1242592D01*
X1219693Y1212092D02*
X1229893D01*
X1224793Y1206992D02*
Y1217192D01*
X1219693Y1186692D02*
X1229893D01*
X1224793Y1181592D02*
Y1191792D01*
X1219693Y1161292D02*
X1229893D01*
X1224793Y1156192D02*
Y1166392D01*
X1219693Y1135892D02*
X1229893D01*
X1224793Y1130792D02*
Y1140992D01*
X1219693Y1110492D02*
X1229893D01*
X1224793Y1105392D02*
Y1115592D01*
X1219693Y1085092D02*
X1229893D01*
X1224793Y1079992D02*
Y1090192D01*
X1219693Y1059692D02*
X1229893D01*
X1224793Y1054592D02*
Y1064792D01*
X1219693Y1034292D02*
X1229893D01*
X1224793Y1029192D02*
Y1039392D01*
X1219693Y1008892D02*
X1229893D01*
X1224793Y1003792D02*
Y1013992D01*
X1219693Y983492D02*
X1229893D01*
X1224793Y978392D02*
Y988592D01*
X1219693Y958092D02*
X1229893D01*
X1224793Y952992D02*
Y963192D01*
X726667Y788655D02*
X732167D01*
X729417Y785905D02*
Y791405D01*
X865667Y788655D02*
X871167D01*
X868417Y785905D02*
Y791405D01*
X981667Y788655D02*
X987167D01*
X984417Y785905D02*
Y791405D01*
X1120667Y788655D02*
X1126167D01*
X1123417Y785905D02*
Y791405D01*
X766667Y428655D02*
X772167D01*
X769417Y425905D02*
Y431405D01*
X905667Y428655D02*
X911167D01*
X908417Y425905D02*
Y431405D01*
X981667Y428655D02*
X987167D01*
X984417Y425905D02*
Y431405D01*
X1120667Y428655D02*
X1126167D01*
X1123417Y425905D02*
Y431405D01*
X812950Y891692D02*
X819950D01*
X816450Y888192D02*
Y895192D01*
X825650Y891692D02*
X832650D01*
X829150Y888192D02*
Y895192D01*
X812950Y891692D02*
X819950D01*
X816450Y888192D02*
Y895192D01*
X825650Y891692D02*
X832650D01*
X829150Y888192D02*
Y895192D01*
X838350Y891692D02*
X845350D01*
X841850Y888192D02*
Y895192D01*
X851050Y891692D02*
X858050D01*
X854550Y888192D02*
Y895192D01*
X863750Y891692D02*
X870750D01*
X867250Y888192D02*
Y895192D01*
X876450Y891692D02*
X883450D01*
X879950Y888192D02*
Y895192D01*
X889150Y891692D02*
X896150D01*
X892650Y888192D02*
Y895192D01*
X901850Y891692D02*
X908850D01*
X905350Y888192D02*
Y895192D01*
X914550Y891692D02*
X921550D01*
X918050Y888192D02*
Y895192D01*
X927250Y891692D02*
X934250D01*
X930750Y888192D02*
Y895192D01*
X939950Y891692D02*
X946950D01*
X943450Y888192D02*
Y895192D01*
X952650Y891692D02*
X959650D01*
X956150Y888192D02*
Y895192D01*
X965350Y891692D02*
X972350D01*
X968850Y888192D02*
Y895192D01*
X978050Y891692D02*
X985050D01*
X981550Y888192D02*
Y895192D01*
X990750Y891692D02*
X997750D01*
X994250Y888192D02*
Y895192D01*
X1003450Y891692D02*
X1010450D01*
X1006950Y888192D02*
Y895192D01*
X1016150Y891692D02*
X1023150D01*
X1019650Y888192D02*
Y895192D01*
X1028850Y891692D02*
X1035850D01*
X1032350Y888192D02*
Y895192D01*
X1041550Y891692D02*
X1048550D01*
X1045050Y888192D02*
Y895192D01*
X1054250Y891692D02*
X1061250D01*
X1057750Y888192D02*
Y895192D01*
X471650Y891692D02*
X478650D01*
X475150Y888192D02*
Y895192D01*
X484350Y891692D02*
X491350D01*
X487850Y888192D02*
Y895192D01*
X471650Y891692D02*
X478650D01*
X475150Y888192D02*
Y895192D01*
X484350Y891692D02*
X491350D01*
X487850Y888192D02*
Y895192D01*
X497050Y891692D02*
X504050D01*
X500550Y888192D02*
Y895192D01*
X509750Y891692D02*
X516750D01*
X513250Y888192D02*
Y895192D01*
X522450Y891692D02*
X529450D01*
X525950Y888192D02*
Y895192D01*
X535150Y891692D02*
X542150D01*
X538650Y888192D02*
Y895192D01*
X547850Y891692D02*
X554850D01*
X551350Y888192D02*
Y895192D01*
X560550Y891692D02*
X567550D01*
X564050Y888192D02*
Y895192D01*
X573250Y891692D02*
X580250D01*
X576750Y888192D02*
Y895192D01*
X585950Y891692D02*
X592950D01*
X589450Y888192D02*
Y895192D01*
X598650Y891692D02*
X605650D01*
X602150Y888192D02*
Y895192D01*
X611350Y891692D02*
X618350D01*
X614850Y888192D02*
Y895192D01*
X624050Y891692D02*
X631050D01*
X627550Y888192D02*
Y895192D01*
X636750Y891692D02*
X643750D01*
X640250Y888192D02*
Y895192D01*
X649450Y891692D02*
X656450D01*
X652950Y888192D02*
Y895192D01*
X662150Y891692D02*
X669150D01*
X665650Y888192D02*
Y895192D01*
X674850Y891692D02*
X681850D01*
X678350Y888192D02*
Y895192D01*
X687550Y891692D02*
X694550D01*
X691050Y888192D02*
Y895192D01*
X700250Y891692D02*
X707250D01*
X703750Y888192D02*
Y895192D01*
X712950Y891692D02*
X719950D01*
X716450Y888192D02*
Y895192D01*
X567757Y409031D02*
X576757D01*
X572257Y404531D02*
Y413531D01*
X542357Y409031D02*
X551357D01*
X546857Y404531D02*
Y413531D01*
X293107Y894592D02*
X323107D01*
X308107Y879592D02*
Y909592D01*
X293107Y1504192D02*
X323107D01*
X308107Y1489192D02*
Y1519192D01*
X1209793Y1504192D02*
X1239793D01*
X1224793Y1489192D02*
Y1519192D01*
X1209793Y894592D02*
X1239793D01*
X1224793Y879592D02*
Y909592D01*
X461660Y436773D02*
X468660D01*
X465160Y433273D02*
Y440273D01*
X481660Y436773D02*
X488660D01*
X485160Y433273D02*
Y440273D01*
X359370Y770321D02*
X368370D01*
X363870Y765821D02*
Y774821D01*
X359370Y795721D02*
X368370D01*
X363870Y791221D02*
Y800221D01*
X378435Y436773D02*
X385435D01*
X381935Y433273D02*
Y440273D01*
X398435Y436773D02*
X405435D01*
X401935Y433273D02*
Y440273D01*
X609755Y586531D02*
X613565D01*
X611660Y584626D02*
Y588436D01*
X613739Y534838D02*
X617549D01*
X615644Y532933D02*
Y536743D01*
X537449Y545160D02*
X541259D01*
X539354Y543255D02*
Y547065D01*
X576158Y625160D02*
X579968D01*
X578063Y623255D02*
Y627065D01*
X381330Y907762D02*
X385140D01*
X383235Y905857D02*
Y909667D01*
X377449Y893547D02*
X381259D01*
X379354Y891642D02*
Y895452D01*
X1040511Y730321D02*
X1044321D01*
X1042416Y728416D02*
Y732226D01*
X1046480Y714837D02*
X1050290D01*
X1048385Y712932D02*
Y716742D01*
X1056157Y725805D02*
X1059967D01*
X1058062Y723900D02*
Y727710D01*
X758093Y679353D02*
X761904D01*
X759998Y677449D02*
Y681258D01*
X764545Y647029D02*
X768355D01*
X766450Y645124D02*
Y648934D01*
X801319Y647029D02*
X805129D01*
X803224Y645124D02*
Y648934D01*
X938738Y647029D02*
X942548D01*
X940643Y645124D02*
Y648934D01*
X958738Y665805D02*
X962548D01*
X960643Y663900D02*
Y667710D01*
X816158Y667095D02*
X819968D01*
X818063Y665190D02*
Y669000D01*
X648884Y904692D02*
X652694D01*
X650789Y902787D02*
Y906597D01*
X644545Y519999D02*
X648355D01*
X646450Y518094D02*
Y521904D01*
X779146Y840379D02*
X782956D01*
X781051Y838474D02*
Y842284D01*
X795513Y852902D02*
X799323D01*
X797418Y850996D02*
Y854807D01*
X832287Y821934D02*
X836097D01*
X834192Y820029D02*
Y823839D01*
X817448Y832902D02*
X821258D01*
X819353Y830997D02*
Y834807D01*
X821319Y821289D02*
X825129D01*
X823224Y819384D02*
Y823194D01*
X530352Y794837D02*
X534162D01*
X532257Y792932D02*
Y796742D01*
X493551Y804487D02*
X497361D01*
X495456Y802582D02*
Y806392D01*
X328196Y997417D02*
X332006D01*
X330101Y995512D02*
Y999322D01*
X513578Y803869D02*
X517388D01*
X515483Y801964D02*
Y805774D01*
X540675Y871611D02*
X544485D01*
X542580Y869706D02*
Y873516D01*
X835513Y858708D02*
X839323D01*
X837418Y856803D02*
Y860613D01*
X760674Y828385D02*
X764484D01*
X762579Y826480D02*
Y830290D01*
X770351Y834192D02*
X774162D01*
X772256Y832287D02*
Y836097D01*
X722610Y816127D02*
X726420D01*
X724515Y814222D02*
Y818032D01*
X752480Y819546D02*
X756290D01*
X754385Y817641D02*
Y821451D01*
X322227Y1019736D02*
X326037D01*
X324132Y1017831D02*
Y1021641D01*
X301965Y927095D02*
X305775D01*
X303870Y925190D02*
Y929000D01*
X318094Y919998D02*
X321904D01*
X319999Y918093D02*
Y921903D01*
X290177Y971435D02*
X293987D01*
X292082Y969530D02*
Y973341D01*
X322227Y969414D02*
X326037D01*
X324132Y967509D02*
Y971319D01*
X328417Y861289D02*
X332227D01*
X330322Y859384D02*
Y863194D01*
X334869Y877418D02*
X338679D01*
X336773Y875513D02*
Y879323D01*
X343901Y890966D02*
X347711D01*
X345806Y889061D02*
Y892871D01*
X790997Y843869D02*
X794807D01*
X792902Y841964D02*
Y845774D01*
X789706Y866612D02*
X793516D01*
X791611Y864707D02*
Y868517D01*
X806480Y857418D02*
X810291D01*
X808385Y855513D02*
Y859323D01*
X369707Y920643D02*
X373517D01*
X371612Y918738D02*
Y922548D01*
X358739Y900643D02*
X362549D01*
X360644Y898738D02*
Y902548D01*
X356159Y914837D02*
X359969D01*
X358064Y912932D02*
Y916742D01*
X379385Y1478707D02*
X383195D01*
X381290Y1476802D02*
Y1480612D01*
X388151Y1479731D02*
X391961D01*
X390056Y1477826D02*
Y1481636D01*
X398094Y1479352D02*
X401904D01*
X399999Y1477447D02*
Y1481257D01*
X748579Y714030D02*
X752389D01*
X750484Y712125D02*
Y715935D01*
X923254Y715482D02*
X927064D01*
X925159Y713577D02*
Y717387D01*
X838093Y705805D02*
X841903D01*
X839998Y703900D02*
Y707710D01*
X932287Y705805D02*
X936097D01*
X934192Y703900D02*
Y707710D01*
X796803Y601289D02*
X800613D01*
X798708Y599384D02*
Y603194D01*
X820674Y604678D02*
X824484D01*
X822579Y602772D02*
Y606582D01*
X945027Y598708D02*
X948837D01*
X946932Y596804D02*
Y600614D01*
X777448Y593547D02*
X781258D01*
X779353Y591642D02*
Y595452D01*
X771043Y604515D02*
X774853D01*
X772948Y602610D02*
Y606420D01*
X787126Y586450D02*
X790936D01*
X789031Y584545D02*
Y588355D01*
X950996Y586450D02*
X954806D01*
X952901Y584545D02*
Y588355D01*
X960313Y801289D02*
X967425D01*
X963869Y797733D02*
Y804845D01*
X933577Y842579D02*
X937387D01*
X935482Y840674D02*
Y844484D01*
X1120926Y621037D02*
X1124735D01*
X1122831Y619132D02*
Y622942D01*
X1077448Y611612D02*
X1081258D01*
X1079353Y609707D02*
Y613517D01*
X1140028Y603870D02*
X1143838D01*
X1141933Y601965D02*
Y605775D01*
X1022609Y843224D02*
X1026419D01*
X1024514Y841319D02*
Y845129D01*
X1030351Y849676D02*
X1034161D01*
X1032256Y847771D02*
Y851581D01*
X1027125Y858063D02*
X1030935D01*
X1029030Y856158D02*
Y859968D01*
X1001303Y878692D02*
X1005113D01*
X1003208Y876787D02*
Y880597D01*
X999383Y836127D02*
X1003193D01*
X1001288Y834222D02*
Y838032D01*
X1009061Y829031D02*
X1012871D01*
X1010966Y827126D02*
Y830936D01*
X1014045Y904692D02*
X1017855D01*
X1015950Y902787D02*
Y906597D01*
X721319Y732902D02*
X725129D01*
X723224Y730997D02*
Y734807D01*
X1027125Y878063D02*
X1030935D01*
X1029030Y876158D02*
Y879968D01*
X807126Y719999D02*
X810936D01*
X809031Y718094D02*
Y721904D01*
X890220Y863869D02*
X894030D01*
X892125Y861964D02*
Y865774D01*
X898093Y856127D02*
X901903D01*
X899998Y854222D02*
Y858032D01*
X1000674Y730321D02*
X1004484D01*
X1002579Y728416D02*
Y732226D01*
X481965Y878063D02*
X485775D01*
X483870Y876158D02*
Y879968D01*
X1071479Y654837D02*
X1075289D01*
X1073384Y652932D02*
Y656742D01*
X494868Y904514D02*
X498678D01*
X496773Y902609D02*
Y906419D01*
X1103254Y634192D02*
X1107064D01*
X1105159Y632287D02*
Y636097D01*
X1109061Y618708D02*
X1112870D01*
X1110965Y616803D02*
Y620613D01*
X507771Y878708D02*
X511581D01*
X509676Y876803D02*
Y880613D01*
X978738Y754192D02*
X982548D01*
X980643Y752287D02*
Y756097D01*
X966480Y624515D02*
X970290D01*
X968385Y622610D02*
Y626420D01*
X520029Y905160D02*
X523839D01*
X521934Y903254D02*
Y907065D01*
X570997Y905160D02*
X574807D01*
X572902Y903254D02*
Y907065D01*
X583900Y878708D02*
X587710D01*
X585805Y876803D02*
Y880613D01*
X545191Y905160D02*
X549001D01*
X547096Y903254D02*
Y907065D01*
X534223Y878708D02*
X538033D01*
X536128Y876803D02*
Y880613D01*
X914867Y636773D02*
X918677D01*
X916772Y634868D02*
Y638678D01*
X752287Y776127D02*
X756097D01*
X754192Y774222D02*
Y778033D01*
X1086480Y643870D02*
X1090290D01*
X1088385Y641965D02*
Y645775D01*
X600674Y904514D02*
X604484D01*
X602579Y902609D02*
Y906419D01*
X610352Y879353D02*
X614162D01*
X612257Y877448D02*
Y881258D01*
X623255Y903869D02*
X627065D01*
X625160Y901964D02*
Y905774D01*
X1027125Y661934D02*
X1030935D01*
X1029030Y660029D02*
Y663839D01*
X634868Y878063D02*
X638678D01*
X636773Y876158D02*
Y879968D01*
X611282Y707740D02*
X618394D01*
X614837Y704184D02*
Y711296D01*
X659384Y878708D02*
X663194D01*
X661289Y876803D02*
Y880613D01*
X1061964Y673547D02*
X1065774D01*
X1063869Y671642D02*
Y675452D01*
X671642Y904514D02*
X675452D01*
X673547Y902609D02*
Y906419D01*
X685190Y878708D02*
X689000D01*
X687095Y876803D02*
Y880613D01*
X1091641Y685160D02*
X1095451D01*
X1093546Y683255D02*
Y687065D01*
X698739Y904514D02*
X702549D01*
X700644Y902609D02*
Y906419D01*
X898738Y690966D02*
X902548D01*
X900643Y689061D02*
Y692871D01*
X711642Y878708D02*
X715452D01*
X713547Y876803D02*
Y880613D01*
X1018093Y698708D02*
X1021903D01*
X1019998Y696803D02*
Y700613D01*
X727771Y904514D02*
X731581D01*
X729676Y902609D02*
Y906419D01*
X602610Y619354D02*
X606420D01*
X604515Y617449D02*
Y621259D01*
X843255Y904514D02*
X847065D01*
X845160Y902609D02*
Y906419D01*
X830351Y878708D02*
X834161D01*
X832256Y876803D02*
Y880613D01*
X1012287Y730321D02*
X1016096D01*
X1014192Y728416D02*
Y732226D01*
X795513Y776127D02*
X799323D01*
X797418Y774222D02*
Y778033D01*
X1042609Y905160D02*
X1046419D01*
X1044514Y903254D02*
Y907065D01*
X766481Y456128D02*
X770291D01*
X768386Y454223D02*
Y458033D01*
X980029Y456128D02*
X983839D01*
X981934Y454223D02*
Y458033D01*
X455513Y1499352D02*
X459323D01*
X457418Y1497447D02*
Y1501257D01*
X536320Y621934D02*
X540130D01*
X538225Y620029D02*
Y623839D01*
X577610Y579354D02*
X581420D01*
X579515Y577449D02*
Y581259D01*
X549062Y630321D02*
X552872D01*
X550967Y628416D02*
Y632226D01*
X545191Y677418D02*
X549001D01*
X547096Y675513D02*
Y679323D01*
X478094Y544515D02*
X481904D01*
X479999Y542610D02*
Y546420D01*
X499384Y563870D02*
X503194D01*
X501289Y561965D02*
Y565775D01*
X503900Y459999D02*
X507710D01*
X505805Y458094D02*
Y461904D01*
X835513Y776773D02*
X839323D01*
X837418Y774868D02*
Y778678D01*
X836803Y415483D02*
X840613D01*
X838708Y413578D02*
Y417388D01*
X1095512Y415483D02*
X1099322D01*
X1097417Y413578D02*
Y417388D01*
X586481Y520644D02*
X590291D01*
X588386Y518739D02*
Y522549D01*
X1006480Y415483D02*
X1010290D01*
X1008385Y413578D02*
Y417388D01*
X874222Y416128D02*
X878032D01*
X876127Y414223D02*
Y418033D01*
X1051641Y416128D02*
X1055451D01*
X1053546Y414223D02*
Y418033D01*
X561696Y479139D02*
X565506D01*
X563601Y477234D02*
Y481044D01*
X560191Y525160D02*
X564001D01*
X562096Y523255D02*
Y527065D01*
X512287Y481935D02*
X516097D01*
X514193Y480029D02*
Y483839D01*
X544546Y709676D02*
X548355D01*
X546451Y707771D02*
Y711581D01*
X545352Y660644D02*
X549162D01*
X547257Y658739D02*
Y662549D01*
X545352Y693547D02*
X549162D01*
X547257Y691642D02*
Y695452D01*
X549223Y643224D02*
X553033D01*
X551128Y641320D02*
Y645129D01*
X615674Y620644D02*
X619484D01*
X617579Y618739D02*
Y622549D01*
X1052286Y776127D02*
X1056096D01*
X1054191Y774222D02*
Y778033D01*
X1096157Y776127D02*
X1099967D01*
X1098062Y774222D02*
Y778033D01*
X1007125Y776127D02*
X1010935D01*
X1009030Y774222D02*
Y778033D01*
M02*
