M48
;Layer_Color=9474304
;FILE_FORMAT=4:4
METRIC,LZ
;TYPE=PLATED
T1F00S00C0.3810
T2F00S00C0.4000
T3F00S00C0.6000
T5F00S00C0.7000
T6F00S00C0.7112
T7F00S00C0.7620
T8F00S00C0.8382
T9F00S00C0.9000
;TYPE=NON_PLATED
T10F00S00C0.5500
T11F00S00C3.0000
%
T01
X00169032Y0026129
X00177419Y00283225
X00226827Y0028043
X00225322Y00326451
X00251612Y00321935
X00242741Y00380644
X00197291Y00341
X00164516Y00365161
X00143225Y00345806
X00429677Y00390967
X00509031Y00249677
X00546451Y00250322
X00678708Y00249677
X00723869Y00250322
X0076774Y00249677
X00731611Y00511612
X0072645Y00530322
X00719999Y00549676
X00714192Y00565805
X00674192Y00558709
X00682579Y00541934
X00688868Y00521289
X00694837Y00501289
X00679353Y00610321
X00724515
X00768386
X00507741Y00610966
X00467741Y00610321
X00424515
X00483225Y00652902
X00494193Y00659999
X0050258Y0066645
X00509676Y00673547
X00541289Y00650321
X00492981Y00523954
X00446451Y00419354
X00445806Y00407741
X00412257Y00411612
X00280806Y00421935
X00264032Y00418709
X00240161Y00426451
X00214193Y00431612
X00214354Y00444515
X00210483Y00461935
X00210322Y00478709
X00210483Y00494838
X00209677Y00510967
X00201451Y00423225
X00385806Y00634192
X00316128Y00717418
T02
X0021021Y0068746
X0021871
X0022721
X0023571
X0024421
X0025271
X0026121
X0026971
Y0070096
X0026121
X0025271
X0024421
X0023571
X0022721
X0021871
X0021021
T03
X00194309Y0008642
X00207009
X00219709
X00232409
X00245109
X00257809
X00270509
X00283209
X00295909
X00308609
X00321309
X00334009
X00346709
X00359409
X00372109
X00384809
X00397509
X00410209
X00422909
X00435609
X00496569Y00086419
X00509269
X00521969
X00534669
X00547369
X00560069
X00572769
X00585469
X00598169
X00610869
X00623569
X00636269
X00648969
X00661669
X00674369
X00687069
X00699769
X00712469
X00725169
X00737869
T05
X0009Y00130951
X0011
X00859353Y00132258
X00879353
T06
X00449031Y00187742
X00664515Y00189032
X00649031Y00662579
X00398709Y00563225
X00315483Y00530967
Y00501935
X00286451Y00514193
T07
X00181935Y00563225
T08
X00082549Y0021977
X00057149Y0024517
X00107949Y0024517
X00082549Y0038233
X0005715Y0040773
X0010795Y0040773
X0008382Y0054235
X0005842Y0056775
X0010922Y0056775
T09
X000259Y0015353
Y0017893
Y0020433
Y0022973
Y0025513
Y0028053
Y0030593
Y0033133
Y0035673
Y0038213
X00942586Y0015353
Y0063613
X00251206Y00632902
X00225806
X000259Y0063613
Y0061073
Y0058533
Y0055993
Y0053453
Y0050913
Y0048373
Y0045833
Y0043293
Y0040753
T10
X00439741Y00262849
X00578741
X00654741
X00793741
Y00622849
X00654741
X00538741
X00399741
T11
X00867986Y007055
X001005
M30
