%TF.GenerationSoftware,Altium Limited,Altium Designer,22.7.1 (60)*%
G04 Layer_Color=65535*
%FSLAX45Y45*%
%MOMM*%
%TF.SameCoordinates,68DCCB5C-BDD4-49BB-AA05-A609E45632DA*%
%TF.FilePolarity,Positive*%
%TF.FileFunction,Legend,Top*%
%TF.Part,Single*%
G01*
G75*
%TA.AperFunction,NonConductor*%
%ADD27C,0.25000*%
%ADD28C,0.20000*%
%ADD29C,0.15000*%
%ADD30C,0.25400*%
D27*
X14005701Y3418500D02*
G03*
X14005701Y3418500I-12500J0D01*
G01*
X13436400Y3263300D02*
G03*
X13436400Y3263300I-12500J0D01*
G01*
D28*
X14018201Y3506000D02*
Y3606000D01*
X14328200Y3506000D02*
Y3606000D01*
X14018201Y3506000D02*
X14328200D01*
X14018201Y3606000D02*
X14328200D01*
X14926900Y3452100D02*
Y3482100D01*
X14841901Y3452100D02*
Y3482100D01*
X14542180Y3759440D02*
Y3789440D01*
X14627180Y3759440D02*
Y3789440D01*
X14622099Y3452100D02*
Y3482100D01*
X14537100Y3452100D02*
Y3482100D01*
X14774500Y3452100D02*
Y3482100D01*
X14689500Y3452100D02*
Y3482100D01*
X14469701Y3452100D02*
Y3482100D01*
X14384700Y3452100D02*
Y3482100D01*
X13766800Y4185920D02*
X14528799D01*
Y4439920D01*
X13766800D02*
X14528799D01*
X13766800Y4185920D02*
Y4439920D01*
X13208900Y3328300D02*
X13638901D01*
Y3758300D01*
X13208900D02*
X13638901D01*
X13208900Y3328300D02*
Y3758300D01*
D29*
X14369901Y3759200D02*
X14509900D01*
X14490700Y3886200D02*
X14509900D01*
Y3632200D02*
Y3886200D01*
X14490700Y3632200D02*
X14509900D01*
X14369901D02*
X14389101D01*
X14369901D02*
Y3886200D01*
X14389101D01*
X13836501Y3772200D02*
X13866499D01*
X13836501Y3492200D02*
Y3772200D01*
Y3492200D02*
X13866499D01*
X13946500D02*
X13976500D01*
Y3772200D01*
X13946500D02*
X13976500D01*
X13836501Y3632200D02*
X13976500D01*
X13671400Y3772200D02*
X13701401D01*
X13671400Y3492200D02*
Y3772200D01*
Y3492200D02*
X13701401D01*
X13781400D02*
X13811400D01*
Y3772200D01*
X13781400D02*
X13811400D01*
X13671400Y3632200D02*
X13811400D01*
X14222501Y3778100D02*
Y3918100D01*
X14095500Y3898900D02*
Y3918100D01*
X14349500D01*
Y3898900D02*
Y3918100D01*
Y3778100D02*
Y3797300D01*
X14095500Y3778100D02*
X14349500D01*
X14095500D02*
Y3797300D01*
D30*
X13944617Y3337543D02*
X14046184Y3235977D01*
X13944617D02*
X14046184Y3337543D01*
X13944617Y3286760D02*
X14046184D01*
X13995399Y3235977D02*
Y3337543D01*
X14860704Y3208872D02*
X14843776Y3191944D01*
Y3158089D01*
X14860704Y3141161D01*
X14928416D01*
X14945343Y3158089D01*
Y3191944D01*
X14928416Y3208872D01*
X14843776Y3242728D02*
Y3310439D01*
X14860704D01*
X14928416Y3242728D01*
X14945343D01*
X13522977Y2978617D02*
Y3046328D01*
Y3012473D01*
X13624544D01*
Y3080184D02*
X13522977D01*
Y3130968D01*
X13539903Y3147896D01*
X13573759D01*
X13590688Y3130968D01*
Y3080184D01*
X13624544Y3249463D02*
Y3181752D01*
X13556831Y3249463D01*
X13539903D01*
X13522977Y3232535D01*
Y3198679D01*
X13539903Y3181752D01*
X14755711Y3945456D02*
X14738783Y3962384D01*
X14704929D01*
X14688000Y3945456D01*
Y3877744D01*
X14704929Y3860817D01*
X14738783D01*
X14755711Y3877744D01*
X14789568Y3945456D02*
X14806496Y3962384D01*
X14840352D01*
X14857278Y3945456D01*
Y3928528D01*
X14840352Y3911600D01*
X14823424D01*
X14840352D01*
X14857278Y3894672D01*
Y3877744D01*
X14840352Y3860817D01*
X14806496D01*
X14789568Y3877744D01*
X14305263Y3183489D02*
X14203696D01*
Y3234272D01*
X14220624Y3251200D01*
X14254480D01*
X14271408Y3234272D01*
Y3183489D01*
Y3217344D02*
X14305263Y3251200D01*
Y3285056D02*
Y3318912D01*
Y3301984D01*
X14203696D01*
X14220624Y3285056D01*
X14550824Y3213952D02*
X14533896Y3197024D01*
Y3163169D01*
X14550824Y3146241D01*
X14618536D01*
X14635463Y3163169D01*
Y3197024D01*
X14618536Y3213952D01*
X14533896Y3315519D02*
Y3247808D01*
X14584680D01*
X14567752Y3281664D01*
Y3298592D01*
X14584680Y3315519D01*
X14618536D01*
X14635463Y3298592D01*
Y3264736D01*
X14618536Y3247808D01*
X14703224Y3208872D02*
X14686296Y3191944D01*
Y3158089D01*
X14703224Y3141161D01*
X14770937D01*
X14787863Y3158089D01*
Y3191944D01*
X14770937Y3208872D01*
X14686296Y3310439D02*
X14703224Y3276584D01*
X14737080Y3242728D01*
X14770937D01*
X14787863Y3259656D01*
Y3293512D01*
X14770937Y3310439D01*
X14754008D01*
X14737080Y3293512D01*
Y3242728D01*
X14393344Y3219032D02*
X14376416Y3202104D01*
Y3168249D01*
X14393344Y3151321D01*
X14461057D01*
X14477983Y3168249D01*
Y3202104D01*
X14461057Y3219032D01*
X14477983Y3303672D02*
X14376416D01*
X14427200Y3252888D01*
Y3320599D01*
X13768504Y3889592D02*
X13751576Y3872664D01*
Y3838809D01*
X13768504Y3821881D01*
X13836217D01*
X13853143Y3838809D01*
Y3872664D01*
X13836217Y3889592D01*
X13853143Y3991159D02*
Y3923448D01*
X13785432Y3991159D01*
X13768504D01*
X13751576Y3974232D01*
Y3940376D01*
X13768504Y3923448D01*
X13634720Y3904816D02*
X13617792Y3921744D01*
X13583937D01*
X13567009Y3904816D01*
Y3837104D01*
X13583937Y3820177D01*
X13617792D01*
X13634720Y3837104D01*
X13668576Y3820177D02*
X13702432D01*
X13685504D01*
Y3921744D01*
X13668576Y3904816D01*
X14032681Y4013217D02*
Y4114784D01*
X14083464D01*
X14100392Y4097856D01*
Y4064000D01*
X14083464Y4047072D01*
X14032681D01*
X14066537D02*
X14100392Y4013217D01*
X14201959D02*
X14134248D01*
X14201959Y4080928D01*
Y4097856D01*
X14185033Y4114784D01*
X14151176D01*
X14134248Y4097856D01*
X14996176Y3293577D02*
Y3361289D01*
Y3327433D01*
X15097743D01*
Y3395145D02*
X14996176D01*
Y3445928D01*
X15013104Y3462856D01*
X15046960D01*
X15063889Y3445928D01*
Y3395145D01*
X15013104Y3496712D02*
X14996176Y3513640D01*
Y3547495D01*
X15013104Y3564423D01*
X15030032D01*
X15046960Y3547495D01*
Y3530567D01*
Y3547495D01*
X15063889Y3564423D01*
X15080815D01*
X15097743Y3547495D01*
Y3513640D01*
X15080815Y3496712D01*
X14672777Y4124944D02*
X14740488D01*
X14706633D01*
Y4023377D01*
X14774344D02*
Y4124944D01*
X14825128D01*
X14842056Y4108016D01*
Y4074160D01*
X14825128Y4057232D01*
X14774344D01*
X14926695Y4023377D02*
Y4124944D01*
X14875912Y4074160D01*
X14943623D01*
X14583009Y4323097D02*
Y4424664D01*
X14633792D01*
X14650720Y4407736D01*
Y4373880D01*
X14633792Y4356952D01*
X14583009D01*
X14684576Y4323097D02*
X14718433D01*
X14701505D01*
Y4424664D01*
X14684576Y4407736D01*
X13263905Y3967538D02*
Y4069105D01*
Y4018321D01*
X13416255D01*
Y4119888D02*
X13263905D01*
Y4196064D01*
X13289297Y4221456D01*
X13340080D01*
X13365472Y4196064D01*
Y4119888D01*
X13416255Y4272239D02*
Y4323023D01*
Y4297631D01*
X13263905D01*
X13289297Y4272239D01*
X13213104Y3068353D02*
X13365456D01*
Y3169920D01*
Y3220704D02*
Y3271487D01*
Y3246096D01*
X13213104D01*
X13238496Y3220704D01*
%TF.MD5,60fcc61ccb43fe478804a3c88d124fa5*%
M02*
