%TF.GenerationSoftware,Altium Limited,Altium Designer,22.7.1 (60)*%
G04 Layer_Color=16711935*
%FSLAX45Y45*%
%MOMM*%
%TF.SameCoordinates,68DCCB5C-BDD4-49BB-AA05-A609E45632DA*%
%TF.FilePolarity,Positive*%
%TF.FileFunction,Other,Top_Assembly*%
%TF.Part,Single*%
G01*
G75*
%TA.AperFunction,NonConductor*%
%ADD28C,0.20000*%
G36*
X13423901Y3611947D02*
X13373906D01*
X13374043Y3611809D01*
X13374391Y3611462D01*
X13374876Y3610838D01*
X13375571Y3609936D01*
X13376402Y3608896D01*
X13377303Y3607579D01*
X13378275Y3606123D01*
X13379314Y3604458D01*
Y3604389D01*
X13379453Y3604250D01*
X13379591Y3604042D01*
X13379730Y3603696D01*
X13380008Y3603280D01*
X13380215Y3602794D01*
X13380840Y3601685D01*
X13381464Y3600437D01*
X13382156Y3599050D01*
X13382780Y3597594D01*
X13383336Y3596207D01*
X13375778D01*
X13375710Y3596276D01*
X13375639Y3596484D01*
X13375430Y3596831D01*
X13375223Y3597316D01*
X13374947Y3597871D01*
X13374530Y3598564D01*
X13374113Y3599327D01*
X13373698Y3600090D01*
X13372588Y3601893D01*
X13371271Y3603834D01*
X13369884Y3605845D01*
X13368289Y3607717D01*
X13368221Y3607787D01*
X13368082Y3607925D01*
X13367873Y3608203D01*
X13367526Y3608550D01*
X13367110Y3608896D01*
X13366695Y3609382D01*
X13365515Y3610422D01*
X13364267Y3611601D01*
X13362811Y3612779D01*
X13361285Y3613820D01*
X13359691Y3614721D01*
Y3619783D01*
X13423901D01*
Y3611947D01*
D02*
G37*
G36*
Y3543299D02*
X13359898D01*
Y3551758D01*
X13416344D01*
Y3583309D01*
X13423901D01*
Y3543299D01*
D02*
G37*
D28*
X13198900Y3318300D02*
X13648900D01*
Y3768300D01*
X13198900D02*
X13648900D01*
X13198900Y3318300D02*
Y3768300D01*
%TF.MD5,f951becc76b265b4ec83d41456119e1d*%
M02*
