%TF.GenerationSoftware,Altium Limited,Altium Designer,22.7.1 (60)*%
G04 Layer_Color=8421504*
%FSLAX45Y45*%
%MOMM*%
%TF.SameCoordinates,68DCCB5C-BDD4-49BB-AA05-A609E45632DA*%
%TF.FilePolarity,Positive*%
%TF.FileFunction,Paste,Top*%
%TF.Part,Single*%
G01*
G75*
%TA.AperFunction,SMDPad,CuDef*%
%ADD10R,0.60000X1.00000*%
%TA.AperFunction,ConnectorPad*%
%ADD11R,1.05000X0.65000*%
%TA.AperFunction,SMDPad,CuDef*%
%ADD12R,2.03000X3.80000*%
%TA.AperFunction,ConnectorPad*%
%ADD13R,0.95000X0.85000*%
%TA.AperFunction,SMDPad,CuDef*%
%ADD14R,1.05000X0.65000*%
%ADD15R,1.00000X0.90000*%
%ADD16R,0.85000X0.95000*%
%ADD17R,3.80000X2.03000*%
%ADD18R,3.40000X0.98000*%
D10*
X14078200Y3418500D02*
D03*
X14173199D02*
D03*
X14268201D02*
D03*
Y3693500D02*
D03*
X14173199D02*
D03*
X14078200D02*
D03*
D11*
X14884399Y3552100D02*
D03*
Y3382100D02*
D03*
X14584680Y3689440D02*
D03*
Y3859440D02*
D03*
X14579601Y3552100D02*
D03*
Y3382100D02*
D03*
X14732001Y3552100D02*
D03*
Y3382100D02*
D03*
D12*
X13776961Y3185160D02*
D03*
X13573759Y4170680D02*
D03*
D13*
X14439900Y3824200D02*
D03*
Y3694200D02*
D03*
D14*
X14427200Y3552100D02*
D03*
Y3382100D02*
D03*
D15*
X13906500Y3699700D02*
D03*
Y3564700D02*
D03*
X13741400Y3699700D02*
D03*
Y3564700D02*
D03*
D16*
X14157500Y3848100D02*
D03*
X14287500D02*
D03*
D17*
X14884399Y3708400D02*
D03*
X14442439Y4043680D02*
D03*
D18*
X13423900Y3661800D02*
D03*
Y3424800D02*
D03*
%TF.MD5,37ce760c05114d422847826734469c2c*%
M02*
