%TF.GenerationSoftware,Altium Limited,Altium Designer,22.7.1 (60)*%
G04 Layer_Physical_Order=2*
G04 Layer_Color=16711680*
%FSLAX45Y45*%
%MOMM*%
%TF.SameCoordinates,68DCCB5C-BDD4-49BB-AA05-A609E45632DA*%
%TF.FilePolarity,Positive*%
%TF.FileFunction,Copper,L2,Bot,Signal*%
%TF.Part,Single*%
G01*
G75*
%TA.AperFunction,Conductor*%
%ADD20C,0.25400*%
%TA.AperFunction,ComponentPad*%
%ADD21R,1.50000X1.50000*%
%ADD22C,1.50000*%
%TA.AperFunction,ViaPad*%
%ADD23C,0.50800*%
G36*
X15189200Y2905760D02*
X13141960D01*
Y4536440D01*
X15189200D01*
Y2905760D01*
D02*
G37*
%LPC*%
G36*
X14415018Y4413320D02*
X14388582D01*
X14363046Y4406478D01*
X14340154Y4393260D01*
X14321460Y4374567D01*
X14308241Y4351673D01*
X14301401Y4326138D01*
Y4299702D01*
X14308241Y4274167D01*
X14321460Y4251273D01*
X14340154Y4232580D01*
X14363046Y4219362D01*
X14388582Y4212520D01*
X14415018D01*
X14440553Y4219362D01*
X14463448Y4232580D01*
X14482140Y4251273D01*
X14495358Y4274167D01*
X14502200Y4299702D01*
Y4326138D01*
X14495358Y4351673D01*
X14482140Y4374567D01*
X14463448Y4393260D01*
X14440553Y4406478D01*
X14415018Y4413320D01*
D02*
G37*
G36*
X13994200D02*
X13793401D01*
Y4212520D01*
X13994200D01*
Y4413320D01*
D02*
G37*
G36*
X13934386Y3982720D02*
X13914175D01*
X13895505Y3974986D01*
X13881213Y3960696D01*
X13873480Y3942025D01*
Y3921815D01*
X13881213Y3903144D01*
X13895505Y3888854D01*
X13914175Y3881120D01*
X13934386D01*
X13953056Y3888854D01*
X13957275Y3893073D01*
X14273949D01*
X14296913Y3870109D01*
Y3482316D01*
X14292694Y3478096D01*
X14284959Y3459425D01*
Y3439215D01*
X14292694Y3420544D01*
X14306984Y3406254D01*
X14325655Y3398520D01*
X14345865D01*
X14364536Y3406254D01*
X14378825Y3420544D01*
X14386560Y3439215D01*
Y3459425D01*
X14378825Y3478096D01*
X14374606Y3482316D01*
Y3886200D01*
X14372141Y3898600D01*
X14371649Y3901066D01*
X14363229Y3913669D01*
X14317509Y3959389D01*
X14304906Y3967809D01*
X14290041Y3970767D01*
X13957275D01*
X13953056Y3974986D01*
X13934386Y3982720D01*
D02*
G37*
%LPD*%
D20*
X13924280Y3931920D02*
X14290041D01*
X14335760Y3886200D01*
Y3449320D02*
Y3886200D01*
D21*
X13893800Y4312920D02*
D03*
D22*
X14147800D02*
D03*
X14401801D02*
D03*
D23*
X14061440Y3868420D02*
D03*
X13924280Y3931920D02*
D03*
X14335760Y3449320D02*
D03*
X14061440Y3815080D02*
D03*
X14020799Y3561080D02*
D03*
X14091920D02*
D03*
%TF.MD5,a85ad0d3085782a8462ace456b1f7ecd*%
M02*
