G04*
G04 #@! TF.GenerationSoftware,Altium Limited,Altium Designer,24.1.2 (44)*
G04*
G04 Layer_Color=255*
%FSLAX44Y44*%
%MOMM*%
G71*
G04*
G04 #@! TF.SameCoordinates,39859149-EBAD-4231-980B-4E5C47F9036E*
G04*
G04*
G04 #@! TF.FilePolarity,Positive*
G04*
G01*
G75*
%ADD13R,0.6000X1.0000*%
%ADD29C,3.9880*%
%ADD30C,3.0480*%
%ADD31C,3.0000*%
%ADD32C,3.8100*%
%ADD33C,2.0000*%
%ADD34R,3.4000X3.4000*%
%ADD35C,1.0000*%
%ADD38R,2.5500X2.5000*%
%ADD39R,1.7780X2.0320*%
%ADD40R,2.0000X0.7500*%
%ADD41R,1.5240X2.5000*%
%ADD42R,1.0000X0.6000*%
%ADD43R,0.7000X1.0000*%
%ADD44R,0.8000X0.6000*%
%ADD45R,0.4000X0.8000*%
%ADD46R,0.8000X0.4000*%
%ADD47R,0.9000X0.7000*%
%ADD48R,0.7000X0.9000*%
D13*
X607060Y1166560D02*
D03*
X616560Y1190560D02*
D03*
X597560D02*
D03*
X861720Y1162620D02*
D03*
X880720D02*
D03*
X871220Y1138620D02*
D03*
X634390Y1165160D02*
D03*
X653390D02*
D03*
X643890Y1141160D02*
D03*
X468020Y1163890D02*
D03*
X487020D02*
D03*
X477520Y1139890D02*
D03*
X291490Y1162620D02*
D03*
X310490D02*
D03*
X300990Y1138620D02*
D03*
X708050Y1182940D02*
D03*
X727050D02*
D03*
X717550Y1158940D02*
D03*
X664870Y431100D02*
D03*
X683870D02*
D03*
X674370Y407100D02*
D03*
X431190Y1185480D02*
D03*
X450190D02*
D03*
X440690Y1161480D02*
D03*
X219100Y1190560D02*
D03*
X238100D02*
D03*
X228600Y1166560D02*
D03*
X953110Y1219330D02*
D03*
X934110D02*
D03*
X943610Y1243330D02*
D03*
X504850Y1163890D02*
D03*
X523850D02*
D03*
X514350Y1139890D02*
D03*
X672490Y1165160D02*
D03*
X691490D02*
D03*
X681990Y1141160D02*
D03*
X229210Y1224980D02*
D03*
X210210D02*
D03*
X219710Y1248980D02*
D03*
X254660Y1162620D02*
D03*
X273660D02*
D03*
X264160Y1138620D02*
D03*
X823620Y1162620D02*
D03*
X842620D02*
D03*
X833120Y1138620D02*
D03*
X786790Y1190560D02*
D03*
X805790D02*
D03*
X796290Y1166560D02*
D03*
X247040Y1248980D02*
D03*
X266040D02*
D03*
X256540Y1224980D02*
D03*
X974750Y1189290D02*
D03*
X993750D02*
D03*
X984250Y1165290D02*
D03*
X896670Y1243330D02*
D03*
X915670D02*
D03*
X906170Y1219330D02*
D03*
X328320Y1185480D02*
D03*
X347320D02*
D03*
X337820Y1161480D02*
D03*
X164490Y1190560D02*
D03*
X183490D02*
D03*
X173990Y1166560D02*
D03*
D29*
X875403Y745968D02*
D03*
Y507208D02*
D03*
Y367508D02*
D03*
Y128748D02*
D03*
X365498Y236063D02*
D03*
X604258D02*
D03*
D30*
X1027803Y745968D02*
D03*
Y507208D02*
D03*
Y367508D02*
D03*
Y128748D02*
D03*
X365498Y83663D02*
D03*
X604258D02*
D03*
D31*
X932553Y575788D02*
D03*
X996053Y601188D02*
D03*
X932553Y197328D02*
D03*
X996053Y222728D02*
D03*
X459478Y102713D02*
D03*
X522978Y128113D02*
D03*
X239133Y1074263D02*
D03*
X175633Y1048863D02*
D03*
X428363Y1074263D02*
D03*
X364863Y1048863D02*
D03*
X617593Y1074263D02*
D03*
X554093Y1048863D02*
D03*
X806823Y1074263D02*
D03*
X743323Y1048863D02*
D03*
X996053Y1074263D02*
D03*
X932553Y1048863D02*
D03*
X239133Y885033D02*
D03*
X175633Y859633D02*
D03*
X428363Y885033D02*
D03*
X364863Y859633D02*
D03*
X617593Y885033D02*
D03*
X554093Y859633D02*
D03*
X806823Y885033D02*
D03*
X743323Y859633D02*
D03*
X996053Y885033D02*
D03*
X932553Y859633D02*
D03*
X239133Y695803D02*
D03*
X175633Y670403D02*
D03*
X428363Y695803D02*
D03*
X364863Y670403D02*
D03*
X617593Y695803D02*
D03*
X554093Y670403D02*
D03*
X806823Y695803D02*
D03*
X743323Y670403D02*
D03*
X239133Y506573D02*
D03*
X175633Y481173D02*
D03*
X428363Y506573D02*
D03*
X364863Y481173D02*
D03*
X617593Y506573D02*
D03*
X554093Y481173D02*
D03*
X806823Y506573D02*
D03*
X743323Y481173D02*
D03*
X239133Y317343D02*
D03*
X175633Y291943D02*
D03*
X428363Y317343D02*
D03*
X364863Y291943D02*
D03*
X617593Y317343D02*
D03*
X554093Y291943D02*
D03*
X806823Y317343D02*
D03*
X743323Y291943D02*
D03*
X239133Y128113D02*
D03*
X175633Y102713D02*
D03*
X806823Y128113D02*
D03*
X743323Y102713D02*
D03*
X119380Y245110D02*
D03*
X1026160Y438150D02*
D03*
X118110Y999490D02*
D03*
X1037590Y998220D02*
D03*
D32*
X957953Y626588D02*
D03*
Y248128D02*
D03*
X484878Y153513D02*
D03*
X201033Y1099663D02*
D03*
X390263D02*
D03*
X579493D02*
D03*
X768723D02*
D03*
X957953D02*
D03*
X201033Y910433D02*
D03*
X390263D02*
D03*
X579493D02*
D03*
X768723D02*
D03*
X957953D02*
D03*
X201033Y721203D02*
D03*
X390263D02*
D03*
X579493D02*
D03*
X768723D02*
D03*
X201033Y531973D02*
D03*
X390263D02*
D03*
X579493D02*
D03*
X768723D02*
D03*
X201033Y342743D02*
D03*
X390263D02*
D03*
X579493D02*
D03*
X768723D02*
D03*
X201033Y153513D02*
D03*
X768723D02*
D03*
D33*
X1008753Y626588D02*
D03*
X907153D02*
D03*
X1008753Y248128D02*
D03*
X907153D02*
D03*
X535678Y153513D02*
D03*
X434078D02*
D03*
X150233Y1099663D02*
D03*
X251833D02*
D03*
X339463D02*
D03*
X441063D02*
D03*
X528693D02*
D03*
X630293D02*
D03*
X717923D02*
D03*
X819523D02*
D03*
X907153D02*
D03*
X1008753D02*
D03*
X150233Y910433D02*
D03*
X251833D02*
D03*
X339463D02*
D03*
X441063D02*
D03*
X528693D02*
D03*
X630293D02*
D03*
X717923D02*
D03*
X819523D02*
D03*
X907153D02*
D03*
X1008753D02*
D03*
X150233Y721203D02*
D03*
X251833D02*
D03*
X339463D02*
D03*
X441063D02*
D03*
X528693D02*
D03*
X630293D02*
D03*
X717923D02*
D03*
X819523D02*
D03*
X150233Y531973D02*
D03*
X251833D02*
D03*
X339463D02*
D03*
X441063D02*
D03*
X528693D02*
D03*
X630293D02*
D03*
X717923D02*
D03*
X819523D02*
D03*
X150233Y342743D02*
D03*
X251833D02*
D03*
X339463D02*
D03*
X441063D02*
D03*
X528693D02*
D03*
X630293D02*
D03*
X717923D02*
D03*
X819523D02*
D03*
X150233Y153513D02*
D03*
X251833D02*
D03*
X717923D02*
D03*
X819523D02*
D03*
D34*
X957953Y671588D02*
D03*
Y293128D02*
D03*
X484878Y198513D02*
D03*
X201033Y1144663D02*
D03*
X390263D02*
D03*
X579493D02*
D03*
X768723D02*
D03*
X957953D02*
D03*
X201033Y955433D02*
D03*
X390263D02*
D03*
X579493D02*
D03*
X768723D02*
D03*
X957953D02*
D03*
X201033Y766203D02*
D03*
X390263D02*
D03*
X579493D02*
D03*
X768723D02*
D03*
X201033Y576973D02*
D03*
X390263D02*
D03*
X579493D02*
D03*
X768723D02*
D03*
X201033Y387743D02*
D03*
X390263D02*
D03*
X579493D02*
D03*
X768723D02*
D03*
X201033Y198513D02*
D03*
X768723D02*
D03*
D35*
X288193Y1255470D02*
D03*
X300893D02*
D03*
X313593D02*
D03*
X326293D02*
D03*
X338993D02*
D03*
X351693D02*
D03*
X364393D02*
D03*
X377093D02*
D03*
X389793D02*
D03*
X402493D02*
D03*
X415193D02*
D03*
X427893D02*
D03*
X440593D02*
D03*
X453293D02*
D03*
X465993D02*
D03*
X478693D02*
D03*
X491393D02*
D03*
X504093D02*
D03*
X516793D02*
D03*
X529493D02*
D03*
X629493D02*
D03*
X642193D02*
D03*
X654893D02*
D03*
X667593D02*
D03*
X680293D02*
D03*
X692993D02*
D03*
X705693D02*
D03*
X718393D02*
D03*
X731093D02*
D03*
X743793D02*
D03*
X756493D02*
D03*
X769193D02*
D03*
X781893D02*
D03*
X794593D02*
D03*
X807293D02*
D03*
X819993D02*
D03*
X832693D02*
D03*
X845393D02*
D03*
X858093D02*
D03*
X870793D02*
D03*
D38*
X895053Y575788D02*
D03*
Y197328D02*
D03*
X1033553Y222728D02*
D03*
X560478Y128113D02*
D03*
X421978Y102713D02*
D03*
X138133Y1048863D02*
D03*
X276633Y1074263D02*
D03*
X327363Y1048863D02*
D03*
X465863Y1074263D02*
D03*
X516593Y1048863D02*
D03*
X655093Y1074263D02*
D03*
X705823Y1048863D02*
D03*
X844323Y1074263D02*
D03*
X895053Y1048863D02*
D03*
X1033553Y1074263D02*
D03*
X138133Y859633D02*
D03*
X276633Y885033D02*
D03*
X327363Y859633D02*
D03*
X465863Y885033D02*
D03*
X516593Y859633D02*
D03*
X655093Y885033D02*
D03*
X705823Y859633D02*
D03*
X844323Y885033D02*
D03*
X895053Y859633D02*
D03*
X1033553Y885033D02*
D03*
X138133Y670403D02*
D03*
X276633Y695803D02*
D03*
X327363Y670403D02*
D03*
X465863Y695803D02*
D03*
X516593Y670403D02*
D03*
X655093Y695803D02*
D03*
X705823Y670403D02*
D03*
X844323Y695803D02*
D03*
X138133Y481173D02*
D03*
X276633Y506573D02*
D03*
X327363Y481173D02*
D03*
X465863Y506573D02*
D03*
X516593Y481173D02*
D03*
X655093Y506573D02*
D03*
X705823Y481173D02*
D03*
X138133Y291943D02*
D03*
X276633Y317343D02*
D03*
X327363Y291943D02*
D03*
X465863Y317343D02*
D03*
X516593Y291943D02*
D03*
X655093Y317343D02*
D03*
X705823Y291943D02*
D03*
X844323Y317343D02*
D03*
X138133Y102713D02*
D03*
X276633Y128113D02*
D03*
X705823Y102713D02*
D03*
D39*
X1033553Y601188D02*
D03*
D40*
X985453Y678838D02*
D03*
Y664338D02*
D03*
X930453D02*
D03*
Y678838D02*
D03*
X985453Y300378D02*
D03*
Y285878D02*
D03*
X930453D02*
D03*
Y300378D02*
D03*
X457378Y191263D02*
D03*
Y205763D02*
D03*
X512378Y191263D02*
D03*
Y205763D02*
D03*
X173533Y1151913D02*
D03*
Y1137413D02*
D03*
X228533D02*
D03*
Y1151913D02*
D03*
X362763D02*
D03*
Y1137413D02*
D03*
X417763D02*
D03*
Y1151913D02*
D03*
X551993D02*
D03*
Y1137413D02*
D03*
X606993D02*
D03*
Y1151913D02*
D03*
X741223D02*
D03*
Y1137413D02*
D03*
X796223D02*
D03*
Y1151913D02*
D03*
X930453D02*
D03*
Y1137413D02*
D03*
X985453D02*
D03*
Y1151913D02*
D03*
X173533Y962683D02*
D03*
Y948183D02*
D03*
X228533D02*
D03*
Y962683D02*
D03*
X362763D02*
D03*
Y948183D02*
D03*
X417763D02*
D03*
Y962683D02*
D03*
X551993D02*
D03*
Y948183D02*
D03*
X606993D02*
D03*
Y962683D02*
D03*
X741223D02*
D03*
Y948183D02*
D03*
X796223D02*
D03*
Y962683D02*
D03*
X930453D02*
D03*
Y948183D02*
D03*
X985453D02*
D03*
Y962683D02*
D03*
X173533Y773453D02*
D03*
Y758953D02*
D03*
X228533D02*
D03*
Y773453D02*
D03*
X362763D02*
D03*
Y758953D02*
D03*
X417763D02*
D03*
Y773453D02*
D03*
X551993D02*
D03*
Y758953D02*
D03*
X606993D02*
D03*
Y773453D02*
D03*
X741223D02*
D03*
Y758953D02*
D03*
X796223D02*
D03*
Y773453D02*
D03*
X173533Y584223D02*
D03*
Y569723D02*
D03*
X228533D02*
D03*
Y584223D02*
D03*
X362763D02*
D03*
Y569723D02*
D03*
X417763D02*
D03*
Y584223D02*
D03*
X551993D02*
D03*
Y569723D02*
D03*
X606993D02*
D03*
Y584223D02*
D03*
X741223D02*
D03*
Y569723D02*
D03*
X796223D02*
D03*
Y584223D02*
D03*
X173533Y394993D02*
D03*
Y380493D02*
D03*
X228533D02*
D03*
Y394993D02*
D03*
X362763D02*
D03*
Y380493D02*
D03*
X417763D02*
D03*
Y394993D02*
D03*
X551993D02*
D03*
Y380493D02*
D03*
X606993D02*
D03*
Y394993D02*
D03*
X741223D02*
D03*
Y380493D02*
D03*
X796223D02*
D03*
Y394993D02*
D03*
X173533Y205763D02*
D03*
Y191263D02*
D03*
X228533D02*
D03*
Y205763D02*
D03*
X741223D02*
D03*
Y191263D02*
D03*
X796223D02*
D03*
Y205763D02*
D03*
D41*
X844323Y506573D02*
D03*
Y128113D02*
D03*
D42*
X573340Y1262990D02*
D03*
Y1243990D02*
D03*
X549340Y1253490D02*
D03*
X941640Y1014070D02*
D03*
Y995070D02*
D03*
X917640Y1004570D02*
D03*
X961960Y818490D02*
D03*
Y799490D02*
D03*
X937960Y808990D02*
D03*
X894650Y681330D02*
D03*
Y662330D02*
D03*
X870650Y671830D02*
D03*
X849060Y236880D02*
D03*
Y255880D02*
D03*
X873060Y246380D02*
D03*
D43*
X995020Y1228090D02*
D03*
X168300Y1231900D02*
D03*
X584860Y1254760D02*
D03*
D44*
X971520Y1221590D02*
D03*
Y1234590D02*
D03*
X191800Y1238400D02*
D03*
Y1225400D02*
D03*
X608360Y1261260D02*
D03*
Y1248260D02*
D03*
D45*
X300990Y1097210D02*
D03*
Y1120210D02*
D03*
X490220Y1095940D02*
D03*
Y1118940D02*
D03*
X679450Y1095940D02*
D03*
Y1118940D02*
D03*
X868680Y1094670D02*
D03*
Y1117670D02*
D03*
X1035050Y1101020D02*
D03*
Y1124020D02*
D03*
X295910Y920680D02*
D03*
Y943680D02*
D03*
X483870Y920680D02*
D03*
Y943680D02*
D03*
X673100Y919410D02*
D03*
Y942410D02*
D03*
X862330Y918140D02*
D03*
Y941140D02*
D03*
X1033780Y920680D02*
D03*
Y943680D02*
D03*
X295910Y727640D02*
D03*
Y750640D02*
D03*
X483870Y727640D02*
D03*
Y750640D02*
D03*
X674370Y728910D02*
D03*
Y751910D02*
D03*
X843280Y791140D02*
D03*
Y814140D02*
D03*
X295910Y533330D02*
D03*
Y556330D02*
D03*
X483870Y532060D02*
D03*
Y555060D02*
D03*
X674370Y533330D02*
D03*
Y556330D02*
D03*
X858520Y563810D02*
D03*
Y586810D02*
D03*
X1032510Y665410D02*
D03*
Y688410D02*
D03*
X294640Y345370D02*
D03*
Y368370D02*
D03*
X480060Y349180D02*
D03*
Y372180D02*
D03*
X673100Y341560D02*
D03*
Y364560D02*
D03*
X293370Y156140D02*
D03*
Y179140D02*
D03*
X577850Y156140D02*
D03*
Y179140D02*
D03*
X845820Y163760D02*
D03*
Y186760D02*
D03*
X1046480Y248850D02*
D03*
Y271850D02*
D03*
D46*
X807790Y248920D02*
D03*
X784790D02*
D03*
D47*
X490220Y316350D02*
D03*
Y331350D02*
D03*
X599440Y178950D02*
D03*
Y163950D02*
D03*
X314960Y130690D02*
D03*
Y115690D02*
D03*
X866140Y184030D02*
D03*
Y169030D02*
D03*
D48*
X1029850Y271780D02*
D03*
X1014850D02*
D03*
X546220Y1228090D02*
D03*
X561220D02*
D03*
X605670Y1226820D02*
D03*
X590670D02*
D03*
X237370Y1262380D02*
D03*
X222370D02*
D03*
X911980Y1264920D02*
D03*
X926980D02*
D03*
X951110Y1202690D02*
D03*
X936110D02*
D03*
X194430Y1210310D02*
D03*
X209430D02*
D03*
M02*
