G04*
G04 #@! TF.GenerationSoftware,Altium Limited,Altium Designer,24.1.2 (44)*
G04*
G04 Layer_Color=16711935*
%FSLAX44Y44*%
%MOMM*%
G71*
G04*
G04 #@! TF.SameCoordinates,39859149-EBAD-4231-980B-4E5C47F9036E*
G04*
G04*
G04 #@! TF.FilePolarity,Positive*
G04*
G01*
G75*
%ADD60C,0.1000*%
D60*
X1062171Y116833D02*
G03*
X1069493Y134510I-17678J17678D01*
G01*
X993728Y58746D02*
G03*
X1011406Y66068I0J25000D01*
G01*
X147580D02*
G03*
X165257Y58746I17678J17678D01*
G01*
X89493Y134510D02*
G03*
X96815Y116833I25000J0D01*
G01*
Y573599D02*
G03*
X89493Y555922I17678J-17678D01*
G01*
X126884Y603668D02*
G03*
X134206Y621346I-17678J17678D01*
G01*
Y634600D02*
G03*
X126884Y652278I-25000J0D01*
G01*
X89493Y700024D02*
G03*
X96815Y682347I25000J0D01*
G01*
Y1139113D02*
G03*
X89493Y1121435I17678J-17678D01*
G01*
X147580Y1189878D02*
G03*
X154902Y1207555I-17678J17678D01*
G01*
X1004084D02*
G03*
X1011406Y1189878I25000J0D01*
G01*
X1069493Y1121435D02*
G03*
X1062171Y1139113I-25000J0D01*
G01*
Y661133D02*
G03*
X1069493Y678811I-17678J17678D01*
G01*
X1047102Y646065D02*
G03*
X1039780Y628387I17678J-17678D01*
G01*
Y627559D02*
G03*
X1047102Y609881I25000J0D01*
G01*
X1069493Y577135D02*
G03*
X1062171Y594813I-25000J0D01*
G01*
X226033Y153513D02*
G03*
X226033Y153513I-25000J0D01*
G01*
X873793Y1255470D02*
G03*
X873793Y1255470I-3000J0D01*
G01*
X861093D02*
G03*
X861093Y1255470I-3000J0D01*
G01*
X848393D02*
G03*
X848393Y1255470I-3000J0D01*
G01*
X835693D02*
G03*
X835693Y1255470I-3000J0D01*
G01*
X822993D02*
G03*
X822993Y1255470I-3000J0D01*
G01*
X810293D02*
G03*
X810293Y1255470I-3000J0D01*
G01*
X797593D02*
G03*
X797593Y1255470I-3000J0D01*
G01*
X481693D02*
G03*
X481693Y1255470I-3000J0D01*
G01*
X468993D02*
G03*
X468993Y1255470I-3000J0D01*
G01*
X456293D02*
G03*
X456293Y1255470I-3000J0D01*
G01*
X443593D02*
G03*
X443593Y1255470I-3000J0D01*
G01*
X430893D02*
G03*
X430893Y1255470I-3000J0D01*
G01*
X418193D02*
G03*
X418193Y1255470I-3000J0D01*
G01*
X405493D02*
G03*
X405493Y1255470I-3000J0D01*
G01*
X392793D02*
G03*
X392793Y1255470I-3000J0D01*
G01*
X329293D02*
G03*
X329293Y1255470I-3000J0D01*
G01*
X316593D02*
G03*
X316593Y1255470I-3000J0D01*
G01*
X303893D02*
G03*
X303893Y1255470I-3000J0D01*
G01*
X632493D02*
G03*
X632493Y1255470I-3000J0D01*
G01*
X341993D02*
G03*
X341993Y1255470I-3000J0D01*
G01*
X354693D02*
G03*
X354693Y1255470I-3000J0D01*
G01*
X367393D02*
G03*
X367393Y1255470I-3000J0D01*
G01*
X380093D02*
G03*
X380093Y1255470I-3000J0D01*
G01*
X494393D02*
G03*
X494393Y1255470I-3000J0D01*
G01*
X507093D02*
G03*
X507093Y1255470I-3000J0D01*
G01*
X519793D02*
G03*
X519793Y1255470I-3000J0D01*
G01*
X532493D02*
G03*
X532493Y1255470I-3000J0D01*
G01*
X645193D02*
G03*
X645193Y1255470I-3000J0D01*
G01*
X657893D02*
G03*
X657893Y1255470I-3000J0D01*
G01*
X670593D02*
G03*
X670593Y1255470I-3000J0D01*
G01*
X683293D02*
G03*
X683293Y1255470I-3000J0D01*
G01*
X695993D02*
G03*
X695993Y1255470I-3000J0D01*
G01*
X708693D02*
G03*
X708693Y1255470I-3000J0D01*
G01*
X721393D02*
G03*
X721393Y1255470I-3000J0D01*
G01*
X734093D02*
G03*
X734093Y1255470I-3000J0D01*
G01*
X746793D02*
G03*
X746793Y1255470I-3000J0D01*
G01*
X759493D02*
G03*
X759493Y1255470I-3000J0D01*
G01*
X772193D02*
G03*
X772193Y1255470I-3000J0D01*
G01*
X784893D02*
G03*
X784893Y1255470I-3000J0D01*
G01*
X291193D02*
G03*
X291193Y1255470I-3000J0D01*
G01*
X1011406Y66068D02*
X1062171Y116833D01*
X165257Y58746D02*
X993728D01*
X96815Y116833D02*
X147580Y66068D01*
X89493Y134510D02*
Y555922D01*
X96815Y573599D02*
X126884Y603668D01*
X134206Y621346D02*
Y634600D01*
X96815Y682347D02*
X126884Y652278D01*
X89493Y700024D02*
Y1121435D01*
X96815Y1139113D02*
X147580Y1189878D01*
X154902Y1207555D02*
Y1277970D01*
X1004084D01*
Y1207555D02*
Y1277970D01*
X1011406Y1189878D02*
X1062171Y1139113D01*
X1069493Y678811D02*
Y1121435D01*
X1047102Y646065D02*
X1062171Y661133D01*
X1039780Y627559D02*
Y628387D01*
X1047102Y609881D02*
X1062171Y594813D01*
X1069493Y134510D02*
Y577135D01*
M02*
