G04*
G04 #@! TF.GenerationSoftware,Altium Limited,Altium Designer,24.1.2 (44)*
G04*
G04 Layer_Color=2752767*
%FSLAX44Y44*%
%MOMM*%
G71*
G04*
G04 #@! TF.SameCoordinates,39859149-EBAD-4231-980B-4E5C47F9036E*
G04*
G04*
G04 #@! TF.FilePolarity,Positive*
G04*
G01*
G75*
%ADD63C,0.0508*%
%ADD64C,0.0677*%
D63*
X874387Y744952D02*
Y743936D01*
X876419D01*
Y744952D01*
X877435D01*
Y746984D01*
X876419D01*
Y748000D01*
X874387D01*
Y746984D01*
X873371D01*
Y744952D01*
X874387D01*
X1025771Y743936D02*
X1026787D01*
X1027803Y744952D01*
X1028819Y743936D01*
X1029835D01*
Y744952D01*
X1028819Y745968D01*
X1029835Y746984D01*
Y748000D01*
X1028819D01*
X1027803Y746984D01*
X1026787Y748000D01*
X1025771D01*
Y746984D01*
X1026787Y745968D01*
X1025771Y744952D01*
Y743936D01*
Y505176D02*
X1026787D01*
X1027803Y506192D01*
X1028819Y505176D01*
X1029835D01*
Y506192D01*
X1028819Y507208D01*
X1029835Y508224D01*
Y509240D01*
X1028819D01*
X1027803Y508224D01*
X1026787Y509240D01*
X1025771D01*
Y508224D01*
X1026787Y507208D01*
X1025771Y506192D01*
Y505176D01*
X874387Y506192D02*
Y505176D01*
X876419D01*
Y506192D01*
X877435D01*
Y508224D01*
X876419D01*
Y509240D01*
X874387D01*
Y508224D01*
X873371D01*
Y506192D01*
X874387D01*
X930521Y573756D02*
X931537Y575788D01*
X930521Y577820D01*
X932553Y576804D01*
X934585Y577820D01*
X933569Y575788D01*
X934585Y573756D01*
X932553Y574772D01*
X930521Y573756D01*
X931537Y574772D02*
X932045Y575788D01*
X931537Y576804D01*
X932553Y576296D01*
X933569Y576804D01*
X933061Y575788D01*
X933569Y574772D01*
X932553Y575280D01*
X931537Y574772D01*
X994021Y599156D02*
X995037Y601188D01*
X994021Y603220D01*
X996053Y602204D01*
X998085Y603220D01*
X997069Y601188D01*
X998085Y599156D01*
X996053Y600172D01*
X994021Y599156D01*
X995037Y600172D02*
X995545Y601188D01*
X995037Y602204D01*
X996053Y601696D01*
X997069Y602204D01*
X996561Y601188D01*
X997069Y600172D01*
X996053Y600680D01*
X995037Y600172D01*
X957953Y624556D02*
X955921Y628620D01*
X959985D01*
X957953Y624556D01*
X1008753D02*
X1009769Y625572D01*
X1010785D01*
X1009769Y626588D01*
X1010785Y627604D01*
X1009769D01*
X1008753Y628620D01*
X1007737Y627604D01*
X1006721D01*
X1007737Y626588D01*
X1006721Y625572D01*
X1007737D01*
X1008753Y624556D01*
X907153D02*
X908169Y625572D01*
X909185D01*
X908169Y626588D01*
X909185Y627604D01*
X908169D01*
X907153Y628620D01*
X906137Y627604D01*
X905121D01*
X906137Y626588D01*
X905121Y625572D01*
X906137D01*
X907153Y624556D01*
X957953Y669556D02*
X958969Y670572D01*
X959985D01*
X958969Y671588D01*
X959985Y672604D01*
X958969D01*
X957953Y673620D01*
X956937Y672604D01*
X955921D01*
X956937Y671588D01*
X955921Y670572D01*
X956937D01*
X957953Y669556D01*
Y670572D02*
X958461Y671080D01*
X958969D01*
X958461Y671588D01*
X958969Y672096D01*
X958461D01*
X957953Y672604D01*
X957445Y672096D01*
X956937D01*
X957445Y671588D01*
X956937Y671080D01*
X957445D01*
X957953Y670572D01*
X874387Y366492D02*
Y365476D01*
X876419D01*
Y366492D01*
X877435D01*
Y368524D01*
X876419D01*
Y369540D01*
X874387D01*
Y368524D01*
X873371D01*
Y366492D01*
X874387D01*
X1025771Y365476D02*
X1026787D01*
X1027803Y366492D01*
X1028819Y365476D01*
X1029835D01*
Y366492D01*
X1028819Y367508D01*
X1029835Y368524D01*
Y369540D01*
X1028819D01*
X1027803Y368524D01*
X1026787Y369540D01*
X1025771D01*
Y368524D01*
X1026787Y367508D01*
X1025771Y366492D01*
Y365476D01*
Y126716D02*
X1026787D01*
X1027803Y127732D01*
X1028819Y126716D01*
X1029835D01*
Y127732D01*
X1028819Y128748D01*
X1029835Y129764D01*
Y130780D01*
X1028819D01*
X1027803Y129764D01*
X1026787Y130780D01*
X1025771D01*
Y129764D01*
X1026787Y128748D01*
X1025771Y127732D01*
Y126716D01*
X874387Y127732D02*
Y126716D01*
X876419D01*
Y127732D01*
X877435D01*
Y129764D01*
X876419D01*
Y130780D01*
X874387D01*
Y129764D01*
X873371D01*
Y127732D01*
X874387D01*
X930521Y195296D02*
X931537Y197328D01*
X930521Y199360D01*
X932553Y198344D01*
X934585Y199360D01*
X933569Y197328D01*
X934585Y195296D01*
X932553Y196312D01*
X930521Y195296D01*
X931537Y196312D02*
X932045Y197328D01*
X931537Y198344D01*
X932553Y197836D01*
X933569Y198344D01*
X933061Y197328D01*
X933569Y196312D01*
X932553Y196820D01*
X931537Y196312D01*
X994021Y220696D02*
X995037Y222728D01*
X994021Y224760D01*
X996053Y223744D01*
X998085Y224760D01*
X997069Y222728D01*
X998085Y220696D01*
X996053Y221712D01*
X994021Y220696D01*
X995037Y221712D02*
X995545Y222728D01*
X995037Y223744D01*
X996053Y223236D01*
X997069Y223744D01*
X996561Y222728D01*
X997069Y221712D01*
X996053Y222220D01*
X995037Y221712D01*
X957953Y246096D02*
X955921Y250160D01*
X959985D01*
X957953Y246096D01*
X1008753D02*
X1009769Y247112D01*
X1010785D01*
X1009769Y248128D01*
X1010785Y249144D01*
X1009769D01*
X1008753Y250160D01*
X1007737Y249144D01*
X1006721D01*
X1007737Y248128D01*
X1006721Y247112D01*
X1007737D01*
X1008753Y246096D01*
X907153D02*
X908169Y247112D01*
X909185D01*
X908169Y248128D01*
X909185Y249144D01*
X908169D01*
X907153Y250160D01*
X906137Y249144D01*
X905121D01*
X906137Y248128D01*
X905121Y247112D01*
X906137D01*
X907153Y246096D01*
X957953Y291096D02*
X958969Y292112D01*
X959985D01*
X958969Y293128D01*
X959985Y294144D01*
X958969D01*
X957953Y295160D01*
X956937Y294144D01*
X955921D01*
X956937Y293128D01*
X955921Y292112D01*
X956937D01*
X957953Y291096D01*
Y292112D02*
X958461Y292620D01*
X958969D01*
X958461Y293128D01*
X958969Y293636D01*
X958461D01*
X957953Y294144D01*
X957445Y293636D01*
X956937D01*
X957445Y293128D01*
X956937Y292620D01*
X957445D01*
X957953Y292112D01*
X363466Y81631D02*
X364482D01*
X365498Y82647D01*
X366514Y81631D01*
X367530D01*
Y82647D01*
X366514Y83663D01*
X367530Y84679D01*
Y85695D01*
X366514D01*
X365498Y84679D01*
X364482Y85695D01*
X363466D01*
Y84679D01*
X364482Y83663D01*
X363466Y82647D01*
Y81631D01*
X602226D02*
X603242D01*
X604258Y82647D01*
X605274Y81631D01*
X606290D01*
Y82647D01*
X605274Y83663D01*
X606290Y84679D01*
Y85695D01*
X605274D01*
X604258Y84679D01*
X603242Y85695D01*
X602226D01*
Y84679D01*
X603242Y83663D01*
X602226Y82647D01*
Y81631D01*
X364482Y235047D02*
Y234031D01*
X366514D01*
Y235047D01*
X367530D01*
Y237079D01*
X366514D01*
Y238095D01*
X364482D01*
Y237079D01*
X363466D01*
Y235047D01*
X364482D01*
X603242D02*
Y234031D01*
X605274D01*
Y235047D01*
X606290D01*
Y237079D01*
X605274D01*
Y238095D01*
X603242D01*
Y237079D01*
X602226D01*
Y235047D01*
X603242D01*
X457446Y100681D02*
X458462Y102713D01*
X457446Y104745D01*
X459478Y103729D01*
X461510Y104745D01*
X460494Y102713D01*
X461510Y100681D01*
X459478Y101697D01*
X457446Y100681D01*
X458462Y101697D02*
X458970Y102713D01*
X458462Y103729D01*
X459478Y103221D01*
X460494Y103729D01*
X459986Y102713D01*
X460494Y101697D01*
X459478Y102205D01*
X458462Y101697D01*
X520946Y126081D02*
X521962Y128113D01*
X520946Y130145D01*
X522978Y129129D01*
X525010Y130145D01*
X523994Y128113D01*
X525010Y126081D01*
X522978Y127097D01*
X520946Y126081D01*
X521962Y127097D02*
X522470Y128113D01*
X521962Y129129D01*
X522978Y128621D01*
X523994Y129129D01*
X523486Y128113D01*
X523994Y127097D01*
X522978Y127605D01*
X521962Y127097D01*
X484878Y151481D02*
X482846Y155545D01*
X486910D01*
X484878Y151481D01*
X535678D02*
X536694Y152497D01*
X537710D01*
X536694Y153513D01*
X537710Y154529D01*
X536694D01*
X535678Y155545D01*
X534662Y154529D01*
X533646D01*
X534662Y153513D01*
X533646Y152497D01*
X534662D01*
X535678Y151481D01*
X434078D02*
X435094Y152497D01*
X436110D01*
X435094Y153513D01*
X436110Y154529D01*
X435094D01*
X434078Y155545D01*
X433062Y154529D01*
X432046D01*
X433062Y153513D01*
X432046Y152497D01*
X433062D01*
X434078Y151481D01*
X484878Y196481D02*
X485894Y197497D01*
X486910D01*
X485894Y198513D01*
X486910Y199529D01*
X485894D01*
X484878Y200545D01*
X483862Y199529D01*
X482846D01*
X483862Y198513D01*
X482846Y197497D01*
X483862D01*
X484878Y196481D01*
Y197497D02*
X485386Y198005D01*
X485894D01*
X485386Y198513D01*
X485894Y199021D01*
X485386D01*
X484878Y199529D01*
X484370Y199021D01*
X483862D01*
X484370Y198513D01*
X483862Y198005D01*
X484370D01*
X484878Y197497D01*
X201033Y1142631D02*
X202049Y1143647D01*
X203065D01*
X202049Y1144663D01*
X203065Y1145679D01*
X202049D01*
X201033Y1146695D01*
X200017Y1145679D01*
X199001D01*
X200017Y1144663D01*
X199001Y1143647D01*
X200017D01*
X201033Y1142631D01*
Y1143647D02*
X201541Y1144155D01*
X202049D01*
X201541Y1144663D01*
X202049Y1145171D01*
X201541D01*
X201033Y1145679D01*
X200525Y1145171D01*
X200017D01*
X200525Y1144663D01*
X200017Y1144155D01*
X200525D01*
X201033Y1143647D01*
X150233Y1097631D02*
X151249Y1098647D01*
X152265D01*
X151249Y1099663D01*
X152265Y1100679D01*
X151249D01*
X150233Y1101695D01*
X149217Y1100679D01*
X148201D01*
X149217Y1099663D01*
X148201Y1098647D01*
X149217D01*
X150233Y1097631D01*
X251833D02*
X252849Y1098647D01*
X253865D01*
X252849Y1099663D01*
X253865Y1100679D01*
X252849D01*
X251833Y1101695D01*
X250817Y1100679D01*
X249801D01*
X250817Y1099663D01*
X249801Y1098647D01*
X250817D01*
X251833Y1097631D01*
X201033D02*
X199001Y1101695D01*
X203065D01*
X201033Y1097631D01*
X237101Y1072231D02*
X238117Y1074263D01*
X237101Y1076295D01*
X239133Y1075279D01*
X241165Y1076295D01*
X240149Y1074263D01*
X241165Y1072231D01*
X239133Y1073247D01*
X237101Y1072231D01*
X238117Y1073247D02*
X238625Y1074263D01*
X238117Y1075279D01*
X239133Y1074771D01*
X240149Y1075279D01*
X239641Y1074263D01*
X240149Y1073247D01*
X239133Y1073755D01*
X238117Y1073247D01*
X173601Y1046831D02*
X174617Y1048863D01*
X173601Y1050895D01*
X175633Y1049879D01*
X177665Y1050895D01*
X176649Y1048863D01*
X177665Y1046831D01*
X175633Y1047847D01*
X173601Y1046831D01*
X174617Y1047847D02*
X175125Y1048863D01*
X174617Y1049879D01*
X175633Y1049371D01*
X176649Y1049879D01*
X176141Y1048863D01*
X176649Y1047847D01*
X175633Y1048355D01*
X174617Y1047847D01*
X390263Y1142631D02*
X391279Y1143647D01*
X392295D01*
X391279Y1144663D01*
X392295Y1145679D01*
X391279D01*
X390263Y1146695D01*
X389247Y1145679D01*
X388231D01*
X389247Y1144663D01*
X388231Y1143647D01*
X389247D01*
X390263Y1142631D01*
Y1143647D02*
X390771Y1144155D01*
X391279D01*
X390771Y1144663D01*
X391279Y1145171D01*
X390771D01*
X390263Y1145679D01*
X389755Y1145171D01*
X389247D01*
X389755Y1144663D01*
X389247Y1144155D01*
X389755D01*
X390263Y1143647D01*
X339463Y1097631D02*
X340479Y1098647D01*
X341495D01*
X340479Y1099663D01*
X341495Y1100679D01*
X340479D01*
X339463Y1101695D01*
X338447Y1100679D01*
X337431D01*
X338447Y1099663D01*
X337431Y1098647D01*
X338447D01*
X339463Y1097631D01*
X441063D02*
X442079Y1098647D01*
X443095D01*
X442079Y1099663D01*
X443095Y1100679D01*
X442079D01*
X441063Y1101695D01*
X440047Y1100679D01*
X439031D01*
X440047Y1099663D01*
X439031Y1098647D01*
X440047D01*
X441063Y1097631D01*
X390263D02*
X388231Y1101695D01*
X392295D01*
X390263Y1097631D01*
X426331Y1072231D02*
X427347Y1074263D01*
X426331Y1076295D01*
X428363Y1075279D01*
X430395Y1076295D01*
X429379Y1074263D01*
X430395Y1072231D01*
X428363Y1073247D01*
X426331Y1072231D01*
X427347Y1073247D02*
X427855Y1074263D01*
X427347Y1075279D01*
X428363Y1074771D01*
X429379Y1075279D01*
X428871Y1074263D01*
X429379Y1073247D01*
X428363Y1073755D01*
X427347Y1073247D01*
X362831Y1046831D02*
X363847Y1048863D01*
X362831Y1050895D01*
X364863Y1049879D01*
X366895Y1050895D01*
X365879Y1048863D01*
X366895Y1046831D01*
X364863Y1047847D01*
X362831Y1046831D01*
X363847Y1047847D02*
X364355Y1048863D01*
X363847Y1049879D01*
X364863Y1049371D01*
X365879Y1049879D01*
X365371Y1048863D01*
X365879Y1047847D01*
X364863Y1048355D01*
X363847Y1047847D01*
X579493Y1142631D02*
X580509Y1143647D01*
X581525D01*
X580509Y1144663D01*
X581525Y1145679D01*
X580509D01*
X579493Y1146695D01*
X578477Y1145679D01*
X577461D01*
X578477Y1144663D01*
X577461Y1143647D01*
X578477D01*
X579493Y1142631D01*
Y1143647D02*
X580001Y1144155D01*
X580509D01*
X580001Y1144663D01*
X580509Y1145171D01*
X580001D01*
X579493Y1145679D01*
X578985Y1145171D01*
X578477D01*
X578985Y1144663D01*
X578477Y1144155D01*
X578985D01*
X579493Y1143647D01*
X528693Y1097631D02*
X529709Y1098647D01*
X530725D01*
X529709Y1099663D01*
X530725Y1100679D01*
X529709D01*
X528693Y1101695D01*
X527677Y1100679D01*
X526661D01*
X527677Y1099663D01*
X526661Y1098647D01*
X527677D01*
X528693Y1097631D01*
X630293D02*
X631309Y1098647D01*
X632325D01*
X631309Y1099663D01*
X632325Y1100679D01*
X631309D01*
X630293Y1101695D01*
X629277Y1100679D01*
X628261D01*
X629277Y1099663D01*
X628261Y1098647D01*
X629277D01*
X630293Y1097631D01*
X579493D02*
X577461Y1101695D01*
X581525D01*
X579493Y1097631D01*
X615561Y1072231D02*
X616577Y1074263D01*
X615561Y1076295D01*
X617593Y1075279D01*
X619625Y1076295D01*
X618609Y1074263D01*
X619625Y1072231D01*
X617593Y1073247D01*
X615561Y1072231D01*
X616577Y1073247D02*
X617085Y1074263D01*
X616577Y1075279D01*
X617593Y1074771D01*
X618609Y1075279D01*
X618101Y1074263D01*
X618609Y1073247D01*
X617593Y1073755D01*
X616577Y1073247D01*
X552061Y1046831D02*
X553077Y1048863D01*
X552061Y1050895D01*
X554093Y1049879D01*
X556125Y1050895D01*
X555109Y1048863D01*
X556125Y1046831D01*
X554093Y1047847D01*
X552061Y1046831D01*
X553077Y1047847D02*
X553585Y1048863D01*
X553077Y1049879D01*
X554093Y1049371D01*
X555109Y1049879D01*
X554601Y1048863D01*
X555109Y1047847D01*
X554093Y1048355D01*
X553077Y1047847D01*
X768723Y1142631D02*
X769739Y1143647D01*
X770755D01*
X769739Y1144663D01*
X770755Y1145679D01*
X769739D01*
X768723Y1146695D01*
X767707Y1145679D01*
X766691D01*
X767707Y1144663D01*
X766691Y1143647D01*
X767707D01*
X768723Y1142631D01*
Y1143647D02*
X769231Y1144155D01*
X769739D01*
X769231Y1144663D01*
X769739Y1145171D01*
X769231D01*
X768723Y1145679D01*
X768215Y1145171D01*
X767707D01*
X768215Y1144663D01*
X767707Y1144155D01*
X768215D01*
X768723Y1143647D01*
X717923Y1097631D02*
X718939Y1098647D01*
X719955D01*
X718939Y1099663D01*
X719955Y1100679D01*
X718939D01*
X717923Y1101695D01*
X716907Y1100679D01*
X715891D01*
X716907Y1099663D01*
X715891Y1098647D01*
X716907D01*
X717923Y1097631D01*
X819523D02*
X820539Y1098647D01*
X821555D01*
X820539Y1099663D01*
X821555Y1100679D01*
X820539D01*
X819523Y1101695D01*
X818507Y1100679D01*
X817491D01*
X818507Y1099663D01*
X817491Y1098647D01*
X818507D01*
X819523Y1097631D01*
X768723D02*
X766691Y1101695D01*
X770755D01*
X768723Y1097631D01*
X804791Y1072231D02*
X805807Y1074263D01*
X804791Y1076295D01*
X806823Y1075279D01*
X808855Y1076295D01*
X807839Y1074263D01*
X808855Y1072231D01*
X806823Y1073247D01*
X804791Y1072231D01*
X805807Y1073247D02*
X806315Y1074263D01*
X805807Y1075279D01*
X806823Y1074771D01*
X807839Y1075279D01*
X807331Y1074263D01*
X807839Y1073247D01*
X806823Y1073755D01*
X805807Y1073247D01*
X741291Y1046831D02*
X742307Y1048863D01*
X741291Y1050895D01*
X743323Y1049879D01*
X745355Y1050895D01*
X744339Y1048863D01*
X745355Y1046831D01*
X743323Y1047847D01*
X741291Y1046831D01*
X742307Y1047847D02*
X742815Y1048863D01*
X742307Y1049879D01*
X743323Y1049371D01*
X744339Y1049879D01*
X743831Y1048863D01*
X744339Y1047847D01*
X743323Y1048355D01*
X742307Y1047847D01*
X957953Y1142631D02*
X958969Y1143647D01*
X959985D01*
X958969Y1144663D01*
X959985Y1145679D01*
X958969D01*
X957953Y1146695D01*
X956937Y1145679D01*
X955921D01*
X956937Y1144663D01*
X955921Y1143647D01*
X956937D01*
X957953Y1142631D01*
Y1143647D02*
X958461Y1144155D01*
X958969D01*
X958461Y1144663D01*
X958969Y1145171D01*
X958461D01*
X957953Y1145679D01*
X957445Y1145171D01*
X956937D01*
X957445Y1144663D01*
X956937Y1144155D01*
X957445D01*
X957953Y1143647D01*
X907153Y1097631D02*
X908169Y1098647D01*
X909185D01*
X908169Y1099663D01*
X909185Y1100679D01*
X908169D01*
X907153Y1101695D01*
X906137Y1100679D01*
X905121D01*
X906137Y1099663D01*
X905121Y1098647D01*
X906137D01*
X907153Y1097631D01*
X1008753D02*
X1009769Y1098647D01*
X1010785D01*
X1009769Y1099663D01*
X1010785Y1100679D01*
X1009769D01*
X1008753Y1101695D01*
X1007737Y1100679D01*
X1006721D01*
X1007737Y1099663D01*
X1006721Y1098647D01*
X1007737D01*
X1008753Y1097631D01*
X957953D02*
X955921Y1101695D01*
X959985D01*
X957953Y1097631D01*
X994021Y1072231D02*
X995037Y1074263D01*
X994021Y1076295D01*
X996053Y1075279D01*
X998085Y1076295D01*
X997069Y1074263D01*
X998085Y1072231D01*
X996053Y1073247D01*
X994021Y1072231D01*
X995037Y1073247D02*
X995545Y1074263D01*
X995037Y1075279D01*
X996053Y1074771D01*
X997069Y1075279D01*
X996561Y1074263D01*
X997069Y1073247D01*
X996053Y1073755D01*
X995037Y1073247D01*
X930521Y1046831D02*
X931537Y1048863D01*
X930521Y1050895D01*
X932553Y1049879D01*
X934585Y1050895D01*
X933569Y1048863D01*
X934585Y1046831D01*
X932553Y1047847D01*
X930521Y1046831D01*
X931537Y1047847D02*
X932045Y1048863D01*
X931537Y1049879D01*
X932553Y1049371D01*
X933569Y1049879D01*
X933061Y1048863D01*
X933569Y1047847D01*
X932553Y1048355D01*
X931537Y1047847D01*
X201033Y953401D02*
X202049Y954417D01*
X203065D01*
X202049Y955433D01*
X203065Y956449D01*
X202049D01*
X201033Y957465D01*
X200017Y956449D01*
X199001D01*
X200017Y955433D01*
X199001Y954417D01*
X200017D01*
X201033Y953401D01*
Y954417D02*
X201541Y954925D01*
X202049D01*
X201541Y955433D01*
X202049Y955941D01*
X201541D01*
X201033Y956449D01*
X200525Y955941D01*
X200017D01*
X200525Y955433D01*
X200017Y954925D01*
X200525D01*
X201033Y954417D01*
X150233Y908401D02*
X151249Y909417D01*
X152265D01*
X151249Y910433D01*
X152265Y911449D01*
X151249D01*
X150233Y912465D01*
X149217Y911449D01*
X148201D01*
X149217Y910433D01*
X148201Y909417D01*
X149217D01*
X150233Y908401D01*
X251833D02*
X252849Y909417D01*
X253865D01*
X252849Y910433D01*
X253865Y911449D01*
X252849D01*
X251833Y912465D01*
X250817Y911449D01*
X249801D01*
X250817Y910433D01*
X249801Y909417D01*
X250817D01*
X251833Y908401D01*
X201033D02*
X199001Y912465D01*
X203065D01*
X201033Y908401D01*
X237101Y883001D02*
X238117Y885033D01*
X237101Y887065D01*
X239133Y886049D01*
X241165Y887065D01*
X240149Y885033D01*
X241165Y883001D01*
X239133Y884017D01*
X237101Y883001D01*
X238117Y884017D02*
X238625Y885033D01*
X238117Y886049D01*
X239133Y885541D01*
X240149Y886049D01*
X239641Y885033D01*
X240149Y884017D01*
X239133Y884525D01*
X238117Y884017D01*
X173601Y857601D02*
X174617Y859633D01*
X173601Y861665D01*
X175633Y860649D01*
X177665Y861665D01*
X176649Y859633D01*
X177665Y857601D01*
X175633Y858617D01*
X173601Y857601D01*
X174617Y858617D02*
X175125Y859633D01*
X174617Y860649D01*
X175633Y860141D01*
X176649Y860649D01*
X176141Y859633D01*
X176649Y858617D01*
X175633Y859125D01*
X174617Y858617D01*
X390263Y953401D02*
X391279Y954417D01*
X392295D01*
X391279Y955433D01*
X392295Y956449D01*
X391279D01*
X390263Y957465D01*
X389247Y956449D01*
X388231D01*
X389247Y955433D01*
X388231Y954417D01*
X389247D01*
X390263Y953401D01*
Y954417D02*
X390771Y954925D01*
X391279D01*
X390771Y955433D01*
X391279Y955941D01*
X390771D01*
X390263Y956449D01*
X389755Y955941D01*
X389247D01*
X389755Y955433D01*
X389247Y954925D01*
X389755D01*
X390263Y954417D01*
X339463Y908401D02*
X340479Y909417D01*
X341495D01*
X340479Y910433D01*
X341495Y911449D01*
X340479D01*
X339463Y912465D01*
X338447Y911449D01*
X337431D01*
X338447Y910433D01*
X337431Y909417D01*
X338447D01*
X339463Y908401D01*
X441063D02*
X442079Y909417D01*
X443095D01*
X442079Y910433D01*
X443095Y911449D01*
X442079D01*
X441063Y912465D01*
X440047Y911449D01*
X439031D01*
X440047Y910433D01*
X439031Y909417D01*
X440047D01*
X441063Y908401D01*
X390263D02*
X388231Y912465D01*
X392295D01*
X390263Y908401D01*
X426331Y883001D02*
X427347Y885033D01*
X426331Y887065D01*
X428363Y886049D01*
X430395Y887065D01*
X429379Y885033D01*
X430395Y883001D01*
X428363Y884017D01*
X426331Y883001D01*
X427347Y884017D02*
X427855Y885033D01*
X427347Y886049D01*
X428363Y885541D01*
X429379Y886049D01*
X428871Y885033D01*
X429379Y884017D01*
X428363Y884525D01*
X427347Y884017D01*
X362831Y857601D02*
X363847Y859633D01*
X362831Y861665D01*
X364863Y860649D01*
X366895Y861665D01*
X365879Y859633D01*
X366895Y857601D01*
X364863Y858617D01*
X362831Y857601D01*
X363847Y858617D02*
X364355Y859633D01*
X363847Y860649D01*
X364863Y860141D01*
X365879Y860649D01*
X365371Y859633D01*
X365879Y858617D01*
X364863Y859125D01*
X363847Y858617D01*
X579493Y953401D02*
X580509Y954417D01*
X581525D01*
X580509Y955433D01*
X581525Y956449D01*
X580509D01*
X579493Y957465D01*
X578477Y956449D01*
X577461D01*
X578477Y955433D01*
X577461Y954417D01*
X578477D01*
X579493Y953401D01*
Y954417D02*
X580001Y954925D01*
X580509D01*
X580001Y955433D01*
X580509Y955941D01*
X580001D01*
X579493Y956449D01*
X578985Y955941D01*
X578477D01*
X578985Y955433D01*
X578477Y954925D01*
X578985D01*
X579493Y954417D01*
X528693Y908401D02*
X529709Y909417D01*
X530725D01*
X529709Y910433D01*
X530725Y911449D01*
X529709D01*
X528693Y912465D01*
X527677Y911449D01*
X526661D01*
X527677Y910433D01*
X526661Y909417D01*
X527677D01*
X528693Y908401D01*
X630293D02*
X631309Y909417D01*
X632325D01*
X631309Y910433D01*
X632325Y911449D01*
X631309D01*
X630293Y912465D01*
X629277Y911449D01*
X628261D01*
X629277Y910433D01*
X628261Y909417D01*
X629277D01*
X630293Y908401D01*
X579493D02*
X577461Y912465D01*
X581525D01*
X579493Y908401D01*
X615561Y883001D02*
X616577Y885033D01*
X615561Y887065D01*
X617593Y886049D01*
X619625Y887065D01*
X618609Y885033D01*
X619625Y883001D01*
X617593Y884017D01*
X615561Y883001D01*
X616577Y884017D02*
X617085Y885033D01*
X616577Y886049D01*
X617593Y885541D01*
X618609Y886049D01*
X618101Y885033D01*
X618609Y884017D01*
X617593Y884525D01*
X616577Y884017D01*
X552061Y857601D02*
X553077Y859633D01*
X552061Y861665D01*
X554093Y860649D01*
X556125Y861665D01*
X555109Y859633D01*
X556125Y857601D01*
X554093Y858617D01*
X552061Y857601D01*
X553077Y858617D02*
X553585Y859633D01*
X553077Y860649D01*
X554093Y860141D01*
X555109Y860649D01*
X554601Y859633D01*
X555109Y858617D01*
X554093Y859125D01*
X553077Y858617D01*
X768723Y953401D02*
X769739Y954417D01*
X770755D01*
X769739Y955433D01*
X770755Y956449D01*
X769739D01*
X768723Y957465D01*
X767707Y956449D01*
X766691D01*
X767707Y955433D01*
X766691Y954417D01*
X767707D01*
X768723Y953401D01*
Y954417D02*
X769231Y954925D01*
X769739D01*
X769231Y955433D01*
X769739Y955941D01*
X769231D01*
X768723Y956449D01*
X768215Y955941D01*
X767707D01*
X768215Y955433D01*
X767707Y954925D01*
X768215D01*
X768723Y954417D01*
X717923Y908401D02*
X718939Y909417D01*
X719955D01*
X718939Y910433D01*
X719955Y911449D01*
X718939D01*
X717923Y912465D01*
X716907Y911449D01*
X715891D01*
X716907Y910433D01*
X715891Y909417D01*
X716907D01*
X717923Y908401D01*
X819523D02*
X820539Y909417D01*
X821555D01*
X820539Y910433D01*
X821555Y911449D01*
X820539D01*
X819523Y912465D01*
X818507Y911449D01*
X817491D01*
X818507Y910433D01*
X817491Y909417D01*
X818507D01*
X819523Y908401D01*
X768723D02*
X766691Y912465D01*
X770755D01*
X768723Y908401D01*
X804791Y883001D02*
X805807Y885033D01*
X804791Y887065D01*
X806823Y886049D01*
X808855Y887065D01*
X807839Y885033D01*
X808855Y883001D01*
X806823Y884017D01*
X804791Y883001D01*
X805807Y884017D02*
X806315Y885033D01*
X805807Y886049D01*
X806823Y885541D01*
X807839Y886049D01*
X807331Y885033D01*
X807839Y884017D01*
X806823Y884525D01*
X805807Y884017D01*
X741291Y857601D02*
X742307Y859633D01*
X741291Y861665D01*
X743323Y860649D01*
X745355Y861665D01*
X744339Y859633D01*
X745355Y857601D01*
X743323Y858617D01*
X741291Y857601D01*
X742307Y858617D02*
X742815Y859633D01*
X742307Y860649D01*
X743323Y860141D01*
X744339Y860649D01*
X743831Y859633D01*
X744339Y858617D01*
X743323Y859125D01*
X742307Y858617D01*
X957953Y953401D02*
X958969Y954417D01*
X959985D01*
X958969Y955433D01*
X959985Y956449D01*
X958969D01*
X957953Y957465D01*
X956937Y956449D01*
X955921D01*
X956937Y955433D01*
X955921Y954417D01*
X956937D01*
X957953Y953401D01*
Y954417D02*
X958461Y954925D01*
X958969D01*
X958461Y955433D01*
X958969Y955941D01*
X958461D01*
X957953Y956449D01*
X957445Y955941D01*
X956937D01*
X957445Y955433D01*
X956937Y954925D01*
X957445D01*
X957953Y954417D01*
X907153Y908401D02*
X908169Y909417D01*
X909185D01*
X908169Y910433D01*
X909185Y911449D01*
X908169D01*
X907153Y912465D01*
X906137Y911449D01*
X905121D01*
X906137Y910433D01*
X905121Y909417D01*
X906137D01*
X907153Y908401D01*
X1008753D02*
X1009769Y909417D01*
X1010785D01*
X1009769Y910433D01*
X1010785Y911449D01*
X1009769D01*
X1008753Y912465D01*
X1007737Y911449D01*
X1006721D01*
X1007737Y910433D01*
X1006721Y909417D01*
X1007737D01*
X1008753Y908401D01*
X957953D02*
X955921Y912465D01*
X959985D01*
X957953Y908401D01*
X994021Y883001D02*
X995037Y885033D01*
X994021Y887065D01*
X996053Y886049D01*
X998085Y887065D01*
X997069Y885033D01*
X998085Y883001D01*
X996053Y884017D01*
X994021Y883001D01*
X995037Y884017D02*
X995545Y885033D01*
X995037Y886049D01*
X996053Y885541D01*
X997069Y886049D01*
X996561Y885033D01*
X997069Y884017D01*
X996053Y884525D01*
X995037Y884017D01*
X930521Y857601D02*
X931537Y859633D01*
X930521Y861665D01*
X932553Y860649D01*
X934585Y861665D01*
X933569Y859633D01*
X934585Y857601D01*
X932553Y858617D01*
X930521Y857601D01*
X931537Y858617D02*
X932045Y859633D01*
X931537Y860649D01*
X932553Y860141D01*
X933569Y860649D01*
X933061Y859633D01*
X933569Y858617D01*
X932553Y859125D01*
X931537Y858617D01*
X201033Y764171D02*
X202049Y765187D01*
X203065D01*
X202049Y766203D01*
X203065Y767219D01*
X202049D01*
X201033Y768235D01*
X200017Y767219D01*
X199001D01*
X200017Y766203D01*
X199001Y765187D01*
X200017D01*
X201033Y764171D01*
Y765187D02*
X201541Y765695D01*
X202049D01*
X201541Y766203D01*
X202049Y766711D01*
X201541D01*
X201033Y767219D01*
X200525Y766711D01*
X200017D01*
X200525Y766203D01*
X200017Y765695D01*
X200525D01*
X201033Y765187D01*
X150233Y719171D02*
X151249Y720187D01*
X152265D01*
X151249Y721203D01*
X152265Y722219D01*
X151249D01*
X150233Y723235D01*
X149217Y722219D01*
X148201D01*
X149217Y721203D01*
X148201Y720187D01*
X149217D01*
X150233Y719171D01*
X251833D02*
X252849Y720187D01*
X253865D01*
X252849Y721203D01*
X253865Y722219D01*
X252849D01*
X251833Y723235D01*
X250817Y722219D01*
X249801D01*
X250817Y721203D01*
X249801Y720187D01*
X250817D01*
X251833Y719171D01*
X201033D02*
X199001Y723235D01*
X203065D01*
X201033Y719171D01*
X237101Y693771D02*
X238117Y695803D01*
X237101Y697835D01*
X239133Y696819D01*
X241165Y697835D01*
X240149Y695803D01*
X241165Y693771D01*
X239133Y694787D01*
X237101Y693771D01*
X238117Y694787D02*
X238625Y695803D01*
X238117Y696819D01*
X239133Y696311D01*
X240149Y696819D01*
X239641Y695803D01*
X240149Y694787D01*
X239133Y695295D01*
X238117Y694787D01*
X173601Y668371D02*
X174617Y670403D01*
X173601Y672435D01*
X175633Y671419D01*
X177665Y672435D01*
X176649Y670403D01*
X177665Y668371D01*
X175633Y669387D01*
X173601Y668371D01*
X174617Y669387D02*
X175125Y670403D01*
X174617Y671419D01*
X175633Y670911D01*
X176649Y671419D01*
X176141Y670403D01*
X176649Y669387D01*
X175633Y669895D01*
X174617Y669387D01*
X390263Y764171D02*
X391279Y765187D01*
X392295D01*
X391279Y766203D01*
X392295Y767219D01*
X391279D01*
X390263Y768235D01*
X389247Y767219D01*
X388231D01*
X389247Y766203D01*
X388231Y765187D01*
X389247D01*
X390263Y764171D01*
Y765187D02*
X390771Y765695D01*
X391279D01*
X390771Y766203D01*
X391279Y766711D01*
X390771D01*
X390263Y767219D01*
X389755Y766711D01*
X389247D01*
X389755Y766203D01*
X389247Y765695D01*
X389755D01*
X390263Y765187D01*
X339463Y719171D02*
X340479Y720187D01*
X341495D01*
X340479Y721203D01*
X341495Y722219D01*
X340479D01*
X339463Y723235D01*
X338447Y722219D01*
X337431D01*
X338447Y721203D01*
X337431Y720187D01*
X338447D01*
X339463Y719171D01*
X441063D02*
X442079Y720187D01*
X443095D01*
X442079Y721203D01*
X443095Y722219D01*
X442079D01*
X441063Y723235D01*
X440047Y722219D01*
X439031D01*
X440047Y721203D01*
X439031Y720187D01*
X440047D01*
X441063Y719171D01*
X390263D02*
X388231Y723235D01*
X392295D01*
X390263Y719171D01*
X426331Y693771D02*
X427347Y695803D01*
X426331Y697835D01*
X428363Y696819D01*
X430395Y697835D01*
X429379Y695803D01*
X430395Y693771D01*
X428363Y694787D01*
X426331Y693771D01*
X427347Y694787D02*
X427855Y695803D01*
X427347Y696819D01*
X428363Y696311D01*
X429379Y696819D01*
X428871Y695803D01*
X429379Y694787D01*
X428363Y695295D01*
X427347Y694787D01*
X362831Y668371D02*
X363847Y670403D01*
X362831Y672435D01*
X364863Y671419D01*
X366895Y672435D01*
X365879Y670403D01*
X366895Y668371D01*
X364863Y669387D01*
X362831Y668371D01*
X363847Y669387D02*
X364355Y670403D01*
X363847Y671419D01*
X364863Y670911D01*
X365879Y671419D01*
X365371Y670403D01*
X365879Y669387D01*
X364863Y669895D01*
X363847Y669387D01*
X579493Y764171D02*
X580509Y765187D01*
X581525D01*
X580509Y766203D01*
X581525Y767219D01*
X580509D01*
X579493Y768235D01*
X578477Y767219D01*
X577461D01*
X578477Y766203D01*
X577461Y765187D01*
X578477D01*
X579493Y764171D01*
Y765187D02*
X580001Y765695D01*
X580509D01*
X580001Y766203D01*
X580509Y766711D01*
X580001D01*
X579493Y767219D01*
X578985Y766711D01*
X578477D01*
X578985Y766203D01*
X578477Y765695D01*
X578985D01*
X579493Y765187D01*
X528693Y719171D02*
X529709Y720187D01*
X530725D01*
X529709Y721203D01*
X530725Y722219D01*
X529709D01*
X528693Y723235D01*
X527677Y722219D01*
X526661D01*
X527677Y721203D01*
X526661Y720187D01*
X527677D01*
X528693Y719171D01*
X630293D02*
X631309Y720187D01*
X632325D01*
X631309Y721203D01*
X632325Y722219D01*
X631309D01*
X630293Y723235D01*
X629277Y722219D01*
X628261D01*
X629277Y721203D01*
X628261Y720187D01*
X629277D01*
X630293Y719171D01*
X579493D02*
X577461Y723235D01*
X581525D01*
X579493Y719171D01*
X615561Y693771D02*
X616577Y695803D01*
X615561Y697835D01*
X617593Y696819D01*
X619625Y697835D01*
X618609Y695803D01*
X619625Y693771D01*
X617593Y694787D01*
X615561Y693771D01*
X616577Y694787D02*
X617085Y695803D01*
X616577Y696819D01*
X617593Y696311D01*
X618609Y696819D01*
X618101Y695803D01*
X618609Y694787D01*
X617593Y695295D01*
X616577Y694787D01*
X552061Y668371D02*
X553077Y670403D01*
X552061Y672435D01*
X554093Y671419D01*
X556125Y672435D01*
X555109Y670403D01*
X556125Y668371D01*
X554093Y669387D01*
X552061Y668371D01*
X553077Y669387D02*
X553585Y670403D01*
X553077Y671419D01*
X554093Y670911D01*
X555109Y671419D01*
X554601Y670403D01*
X555109Y669387D01*
X554093Y669895D01*
X553077Y669387D01*
X768723Y764171D02*
X769739Y765187D01*
X770755D01*
X769739Y766203D01*
X770755Y767219D01*
X769739D01*
X768723Y768235D01*
X767707Y767219D01*
X766691D01*
X767707Y766203D01*
X766691Y765187D01*
X767707D01*
X768723Y764171D01*
Y765187D02*
X769231Y765695D01*
X769739D01*
X769231Y766203D01*
X769739Y766711D01*
X769231D01*
X768723Y767219D01*
X768215Y766711D01*
X767707D01*
X768215Y766203D01*
X767707Y765695D01*
X768215D01*
X768723Y765187D01*
X717923Y719171D02*
X718939Y720187D01*
X719955D01*
X718939Y721203D01*
X719955Y722219D01*
X718939D01*
X717923Y723235D01*
X716907Y722219D01*
X715891D01*
X716907Y721203D01*
X715891Y720187D01*
X716907D01*
X717923Y719171D01*
X819523D02*
X820539Y720187D01*
X821555D01*
X820539Y721203D01*
X821555Y722219D01*
X820539D01*
X819523Y723235D01*
X818507Y722219D01*
X817491D01*
X818507Y721203D01*
X817491Y720187D01*
X818507D01*
X819523Y719171D01*
X768723D02*
X766691Y723235D01*
X770755D01*
X768723Y719171D01*
X804791Y693771D02*
X805807Y695803D01*
X804791Y697835D01*
X806823Y696819D01*
X808855Y697835D01*
X807839Y695803D01*
X808855Y693771D01*
X806823Y694787D01*
X804791Y693771D01*
X805807Y694787D02*
X806315Y695803D01*
X805807Y696819D01*
X806823Y696311D01*
X807839Y696819D01*
X807331Y695803D01*
X807839Y694787D01*
X806823Y695295D01*
X805807Y694787D01*
X741291Y668371D02*
X742307Y670403D01*
X741291Y672435D01*
X743323Y671419D01*
X745355Y672435D01*
X744339Y670403D01*
X745355Y668371D01*
X743323Y669387D01*
X741291Y668371D01*
X742307Y669387D02*
X742815Y670403D01*
X742307Y671419D01*
X743323Y670911D01*
X744339Y671419D01*
X743831Y670403D01*
X744339Y669387D01*
X743323Y669895D01*
X742307Y669387D01*
X201033Y574941D02*
X202049Y575957D01*
X203065D01*
X202049Y576973D01*
X203065Y577989D01*
X202049D01*
X201033Y579005D01*
X200017Y577989D01*
X199001D01*
X200017Y576973D01*
X199001Y575957D01*
X200017D01*
X201033Y574941D01*
Y575957D02*
X201541Y576465D01*
X202049D01*
X201541Y576973D01*
X202049Y577481D01*
X201541D01*
X201033Y577989D01*
X200525Y577481D01*
X200017D01*
X200525Y576973D01*
X200017Y576465D01*
X200525D01*
X201033Y575957D01*
X150233Y529941D02*
X151249Y530957D01*
X152265D01*
X151249Y531973D01*
X152265Y532989D01*
X151249D01*
X150233Y534005D01*
X149217Y532989D01*
X148201D01*
X149217Y531973D01*
X148201Y530957D01*
X149217D01*
X150233Y529941D01*
X251833D02*
X252849Y530957D01*
X253865D01*
X252849Y531973D01*
X253865Y532989D01*
X252849D01*
X251833Y534005D01*
X250817Y532989D01*
X249801D01*
X250817Y531973D01*
X249801Y530957D01*
X250817D01*
X251833Y529941D01*
X201033D02*
X199001Y534005D01*
X203065D01*
X201033Y529941D01*
X237101Y504541D02*
X238117Y506573D01*
X237101Y508605D01*
X239133Y507589D01*
X241165Y508605D01*
X240149Y506573D01*
X241165Y504541D01*
X239133Y505557D01*
X237101Y504541D01*
X238117Y505557D02*
X238625Y506573D01*
X238117Y507589D01*
X239133Y507081D01*
X240149Y507589D01*
X239641Y506573D01*
X240149Y505557D01*
X239133Y506065D01*
X238117Y505557D01*
X173601Y479141D02*
X174617Y481173D01*
X173601Y483205D01*
X175633Y482189D01*
X177665Y483205D01*
X176649Y481173D01*
X177665Y479141D01*
X175633Y480157D01*
X173601Y479141D01*
X174617Y480157D02*
X175125Y481173D01*
X174617Y482189D01*
X175633Y481681D01*
X176649Y482189D01*
X176141Y481173D01*
X176649Y480157D01*
X175633Y480665D01*
X174617Y480157D01*
X390263Y574941D02*
X391279Y575957D01*
X392295D01*
X391279Y576973D01*
X392295Y577989D01*
X391279D01*
X390263Y579005D01*
X389247Y577989D01*
X388231D01*
X389247Y576973D01*
X388231Y575957D01*
X389247D01*
X390263Y574941D01*
Y575957D02*
X390771Y576465D01*
X391279D01*
X390771Y576973D01*
X391279Y577481D01*
X390771D01*
X390263Y577989D01*
X389755Y577481D01*
X389247D01*
X389755Y576973D01*
X389247Y576465D01*
X389755D01*
X390263Y575957D01*
X339463Y529941D02*
X340479Y530957D01*
X341495D01*
X340479Y531973D01*
X341495Y532989D01*
X340479D01*
X339463Y534005D01*
X338447Y532989D01*
X337431D01*
X338447Y531973D01*
X337431Y530957D01*
X338447D01*
X339463Y529941D01*
X441063D02*
X442079Y530957D01*
X443095D01*
X442079Y531973D01*
X443095Y532989D01*
X442079D01*
X441063Y534005D01*
X440047Y532989D01*
X439031D01*
X440047Y531973D01*
X439031Y530957D01*
X440047D01*
X441063Y529941D01*
X390263D02*
X388231Y534005D01*
X392295D01*
X390263Y529941D01*
X426331Y504541D02*
X427347Y506573D01*
X426331Y508605D01*
X428363Y507589D01*
X430395Y508605D01*
X429379Y506573D01*
X430395Y504541D01*
X428363Y505557D01*
X426331Y504541D01*
X427347Y505557D02*
X427855Y506573D01*
X427347Y507589D01*
X428363Y507081D01*
X429379Y507589D01*
X428871Y506573D01*
X429379Y505557D01*
X428363Y506065D01*
X427347Y505557D01*
X362831Y479141D02*
X363847Y481173D01*
X362831Y483205D01*
X364863Y482189D01*
X366895Y483205D01*
X365879Y481173D01*
X366895Y479141D01*
X364863Y480157D01*
X362831Y479141D01*
X363847Y480157D02*
X364355Y481173D01*
X363847Y482189D01*
X364863Y481681D01*
X365879Y482189D01*
X365371Y481173D01*
X365879Y480157D01*
X364863Y480665D01*
X363847Y480157D01*
X579493Y574941D02*
X580509Y575957D01*
X581525D01*
X580509Y576973D01*
X581525Y577989D01*
X580509D01*
X579493Y579005D01*
X578477Y577989D01*
X577461D01*
X578477Y576973D01*
X577461Y575957D01*
X578477D01*
X579493Y574941D01*
Y575957D02*
X580001Y576465D01*
X580509D01*
X580001Y576973D01*
X580509Y577481D01*
X580001D01*
X579493Y577989D01*
X578985Y577481D01*
X578477D01*
X578985Y576973D01*
X578477Y576465D01*
X578985D01*
X579493Y575957D01*
X528693Y529941D02*
X529709Y530957D01*
X530725D01*
X529709Y531973D01*
X530725Y532989D01*
X529709D01*
X528693Y534005D01*
X527677Y532989D01*
X526661D01*
X527677Y531973D01*
X526661Y530957D01*
X527677D01*
X528693Y529941D01*
X630293D02*
X631309Y530957D01*
X632325D01*
X631309Y531973D01*
X632325Y532989D01*
X631309D01*
X630293Y534005D01*
X629277Y532989D01*
X628261D01*
X629277Y531973D01*
X628261Y530957D01*
X629277D01*
X630293Y529941D01*
X579493D02*
X577461Y534005D01*
X581525D01*
X579493Y529941D01*
X615561Y504541D02*
X616577Y506573D01*
X615561Y508605D01*
X617593Y507589D01*
X619625Y508605D01*
X618609Y506573D01*
X619625Y504541D01*
X617593Y505557D01*
X615561Y504541D01*
X616577Y505557D02*
X617085Y506573D01*
X616577Y507589D01*
X617593Y507081D01*
X618609Y507589D01*
X618101Y506573D01*
X618609Y505557D01*
X617593Y506065D01*
X616577Y505557D01*
X552061Y479141D02*
X553077Y481173D01*
X552061Y483205D01*
X554093Y482189D01*
X556125Y483205D01*
X555109Y481173D01*
X556125Y479141D01*
X554093Y480157D01*
X552061Y479141D01*
X553077Y480157D02*
X553585Y481173D01*
X553077Y482189D01*
X554093Y481681D01*
X555109Y482189D01*
X554601Y481173D01*
X555109Y480157D01*
X554093Y480665D01*
X553077Y480157D01*
X768723Y574941D02*
X769739Y575957D01*
X770755D01*
X769739Y576973D01*
X770755Y577989D01*
X769739D01*
X768723Y579005D01*
X767707Y577989D01*
X766691D01*
X767707Y576973D01*
X766691Y575957D01*
X767707D01*
X768723Y574941D01*
Y575957D02*
X769231Y576465D01*
X769739D01*
X769231Y576973D01*
X769739Y577481D01*
X769231D01*
X768723Y577989D01*
X768215Y577481D01*
X767707D01*
X768215Y576973D01*
X767707Y576465D01*
X768215D01*
X768723Y575957D01*
X717923Y529941D02*
X718939Y530957D01*
X719955D01*
X718939Y531973D01*
X719955Y532989D01*
X718939D01*
X717923Y534005D01*
X716907Y532989D01*
X715891D01*
X716907Y531973D01*
X715891Y530957D01*
X716907D01*
X717923Y529941D01*
X819523D02*
X820539Y530957D01*
X821555D01*
X820539Y531973D01*
X821555Y532989D01*
X820539D01*
X819523Y534005D01*
X818507Y532989D01*
X817491D01*
X818507Y531973D01*
X817491Y530957D01*
X818507D01*
X819523Y529941D01*
X768723D02*
X766691Y534005D01*
X770755D01*
X768723Y529941D01*
X804791Y504541D02*
X805807Y506573D01*
X804791Y508605D01*
X806823Y507589D01*
X808855Y508605D01*
X807839Y506573D01*
X808855Y504541D01*
X806823Y505557D01*
X804791Y504541D01*
X805807Y505557D02*
X806315Y506573D01*
X805807Y507589D01*
X806823Y507081D01*
X807839Y507589D01*
X807331Y506573D01*
X807839Y505557D01*
X806823Y506065D01*
X805807Y505557D01*
X741291Y479141D02*
X742307Y481173D01*
X741291Y483205D01*
X743323Y482189D01*
X745355Y483205D01*
X744339Y481173D01*
X745355Y479141D01*
X743323Y480157D01*
X741291Y479141D01*
X742307Y480157D02*
X742815Y481173D01*
X742307Y482189D01*
X743323Y481681D01*
X744339Y482189D01*
X743831Y481173D01*
X744339Y480157D01*
X743323Y480665D01*
X742307Y480157D01*
X201033Y385711D02*
X202049Y386727D01*
X203065D01*
X202049Y387743D01*
X203065Y388759D01*
X202049D01*
X201033Y389775D01*
X200017Y388759D01*
X199001D01*
X200017Y387743D01*
X199001Y386727D01*
X200017D01*
X201033Y385711D01*
Y386727D02*
X201541Y387235D01*
X202049D01*
X201541Y387743D01*
X202049Y388251D01*
X201541D01*
X201033Y388759D01*
X200525Y388251D01*
X200017D01*
X200525Y387743D01*
X200017Y387235D01*
X200525D01*
X201033Y386727D01*
X150233Y340711D02*
X151249Y341727D01*
X152265D01*
X151249Y342743D01*
X152265Y343759D01*
X151249D01*
X150233Y344775D01*
X149217Y343759D01*
X148201D01*
X149217Y342743D01*
X148201Y341727D01*
X149217D01*
X150233Y340711D01*
X251833D02*
X252849Y341727D01*
X253865D01*
X252849Y342743D01*
X253865Y343759D01*
X252849D01*
X251833Y344775D01*
X250817Y343759D01*
X249801D01*
X250817Y342743D01*
X249801Y341727D01*
X250817D01*
X251833Y340711D01*
X201033D02*
X199001Y344775D01*
X203065D01*
X201033Y340711D01*
X237101Y315311D02*
X238117Y317343D01*
X237101Y319375D01*
X239133Y318359D01*
X241165Y319375D01*
X240149Y317343D01*
X241165Y315311D01*
X239133Y316327D01*
X237101Y315311D01*
X238117Y316327D02*
X238625Y317343D01*
X238117Y318359D01*
X239133Y317851D01*
X240149Y318359D01*
X239641Y317343D01*
X240149Y316327D01*
X239133Y316835D01*
X238117Y316327D01*
X173601Y289911D02*
X174617Y291943D01*
X173601Y293975D01*
X175633Y292959D01*
X177665Y293975D01*
X176649Y291943D01*
X177665Y289911D01*
X175633Y290927D01*
X173601Y289911D01*
X174617Y290927D02*
X175125Y291943D01*
X174617Y292959D01*
X175633Y292451D01*
X176649Y292959D01*
X176141Y291943D01*
X176649Y290927D01*
X175633Y291435D01*
X174617Y290927D01*
X390263Y385711D02*
X391279Y386727D01*
X392295D01*
X391279Y387743D01*
X392295Y388759D01*
X391279D01*
X390263Y389775D01*
X389247Y388759D01*
X388231D01*
X389247Y387743D01*
X388231Y386727D01*
X389247D01*
X390263Y385711D01*
Y386727D02*
X390771Y387235D01*
X391279D01*
X390771Y387743D01*
X391279Y388251D01*
X390771D01*
X390263Y388759D01*
X389755Y388251D01*
X389247D01*
X389755Y387743D01*
X389247Y387235D01*
X389755D01*
X390263Y386727D01*
X339463Y340711D02*
X340479Y341727D01*
X341495D01*
X340479Y342743D01*
X341495Y343759D01*
X340479D01*
X339463Y344775D01*
X338447Y343759D01*
X337431D01*
X338447Y342743D01*
X337431Y341727D01*
X338447D01*
X339463Y340711D01*
X441063D02*
X442079Y341727D01*
X443095D01*
X442079Y342743D01*
X443095Y343759D01*
X442079D01*
X441063Y344775D01*
X440047Y343759D01*
X439031D01*
X440047Y342743D01*
X439031Y341727D01*
X440047D01*
X441063Y340711D01*
X390263D02*
X388231Y344775D01*
X392295D01*
X390263Y340711D01*
X426331Y315311D02*
X427347Y317343D01*
X426331Y319375D01*
X428363Y318359D01*
X430395Y319375D01*
X429379Y317343D01*
X430395Y315311D01*
X428363Y316327D01*
X426331Y315311D01*
X427347Y316327D02*
X427855Y317343D01*
X427347Y318359D01*
X428363Y317851D01*
X429379Y318359D01*
X428871Y317343D01*
X429379Y316327D01*
X428363Y316835D01*
X427347Y316327D01*
X362831Y289911D02*
X363847Y291943D01*
X362831Y293975D01*
X364863Y292959D01*
X366895Y293975D01*
X365879Y291943D01*
X366895Y289911D01*
X364863Y290927D01*
X362831Y289911D01*
X363847Y290927D02*
X364355Y291943D01*
X363847Y292959D01*
X364863Y292451D01*
X365879Y292959D01*
X365371Y291943D01*
X365879Y290927D01*
X364863Y291435D01*
X363847Y290927D01*
X579493Y385711D02*
X580509Y386727D01*
X581525D01*
X580509Y387743D01*
X581525Y388759D01*
X580509D01*
X579493Y389775D01*
X578477Y388759D01*
X577461D01*
X578477Y387743D01*
X577461Y386727D01*
X578477D01*
X579493Y385711D01*
Y386727D02*
X580001Y387235D01*
X580509D01*
X580001Y387743D01*
X580509Y388251D01*
X580001D01*
X579493Y388759D01*
X578985Y388251D01*
X578477D01*
X578985Y387743D01*
X578477Y387235D01*
X578985D01*
X579493Y386727D01*
X528693Y340711D02*
X529709Y341727D01*
X530725D01*
X529709Y342743D01*
X530725Y343759D01*
X529709D01*
X528693Y344775D01*
X527677Y343759D01*
X526661D01*
X527677Y342743D01*
X526661Y341727D01*
X527677D01*
X528693Y340711D01*
X630293D02*
X631309Y341727D01*
X632325D01*
X631309Y342743D01*
X632325Y343759D01*
X631309D01*
X630293Y344775D01*
X629277Y343759D01*
X628261D01*
X629277Y342743D01*
X628261Y341727D01*
X629277D01*
X630293Y340711D01*
X579493D02*
X577461Y344775D01*
X581525D01*
X579493Y340711D01*
X615561Y315311D02*
X616577Y317343D01*
X615561Y319375D01*
X617593Y318359D01*
X619625Y319375D01*
X618609Y317343D01*
X619625Y315311D01*
X617593Y316327D01*
X615561Y315311D01*
X616577Y316327D02*
X617085Y317343D01*
X616577Y318359D01*
X617593Y317851D01*
X618609Y318359D01*
X618101Y317343D01*
X618609Y316327D01*
X617593Y316835D01*
X616577Y316327D01*
X552061Y289911D02*
X553077Y291943D01*
X552061Y293975D01*
X554093Y292959D01*
X556125Y293975D01*
X555109Y291943D01*
X556125Y289911D01*
X554093Y290927D01*
X552061Y289911D01*
X553077Y290927D02*
X553585Y291943D01*
X553077Y292959D01*
X554093Y292451D01*
X555109Y292959D01*
X554601Y291943D01*
X555109Y290927D01*
X554093Y291435D01*
X553077Y290927D01*
X768723Y385711D02*
X769739Y386727D01*
X770755D01*
X769739Y387743D01*
X770755Y388759D01*
X769739D01*
X768723Y389775D01*
X767707Y388759D01*
X766691D01*
X767707Y387743D01*
X766691Y386727D01*
X767707D01*
X768723Y385711D01*
Y386727D02*
X769231Y387235D01*
X769739D01*
X769231Y387743D01*
X769739Y388251D01*
X769231D01*
X768723Y388759D01*
X768215Y388251D01*
X767707D01*
X768215Y387743D01*
X767707Y387235D01*
X768215D01*
X768723Y386727D01*
X717923Y340711D02*
X718939Y341727D01*
X719955D01*
X718939Y342743D01*
X719955Y343759D01*
X718939D01*
X717923Y344775D01*
X716907Y343759D01*
X715891D01*
X716907Y342743D01*
X715891Y341727D01*
X716907D01*
X717923Y340711D01*
X819523D02*
X820539Y341727D01*
X821555D01*
X820539Y342743D01*
X821555Y343759D01*
X820539D01*
X819523Y344775D01*
X818507Y343759D01*
X817491D01*
X818507Y342743D01*
X817491Y341727D01*
X818507D01*
X819523Y340711D01*
X768723D02*
X766691Y344775D01*
X770755D01*
X768723Y340711D01*
X804791Y315311D02*
X805807Y317343D01*
X804791Y319375D01*
X806823Y318359D01*
X808855Y319375D01*
X807839Y317343D01*
X808855Y315311D01*
X806823Y316327D01*
X804791Y315311D01*
X805807Y316327D02*
X806315Y317343D01*
X805807Y318359D01*
X806823Y317851D01*
X807839Y318359D01*
X807331Y317343D01*
X807839Y316327D01*
X806823Y316835D01*
X805807Y316327D01*
X741291Y289911D02*
X742307Y291943D01*
X741291Y293975D01*
X743323Y292959D01*
X745355Y293975D01*
X744339Y291943D01*
X745355Y289911D01*
X743323Y290927D01*
X741291Y289911D01*
X742307Y290927D02*
X742815Y291943D01*
X742307Y292959D01*
X743323Y292451D01*
X744339Y292959D01*
X743831Y291943D01*
X744339Y290927D01*
X743323Y291435D01*
X742307Y290927D01*
X201033Y196481D02*
X202049Y197497D01*
X203065D01*
X202049Y198513D01*
X203065Y199529D01*
X202049D01*
X201033Y200545D01*
X200017Y199529D01*
X199001D01*
X200017Y198513D01*
X199001Y197497D01*
X200017D01*
X201033Y196481D01*
Y197497D02*
X201541Y198005D01*
X202049D01*
X201541Y198513D01*
X202049Y199021D01*
X201541D01*
X201033Y199529D01*
X200525Y199021D01*
X200017D01*
X200525Y198513D01*
X200017Y198005D01*
X200525D01*
X201033Y197497D01*
X150233Y151481D02*
X151249Y152497D01*
X152265D01*
X151249Y153513D01*
X152265Y154529D01*
X151249D01*
X150233Y155545D01*
X149217Y154529D01*
X148201D01*
X149217Y153513D01*
X148201Y152497D01*
X149217D01*
X150233Y151481D01*
X251833D02*
X252849Y152497D01*
X253865D01*
X252849Y153513D01*
X253865Y154529D01*
X252849D01*
X251833Y155545D01*
X250817Y154529D01*
X249801D01*
X250817Y153513D01*
X249801Y152497D01*
X250817D01*
X251833Y151481D01*
X201033D02*
X199001Y155545D01*
X203065D01*
X201033Y151481D01*
X237101Y126081D02*
X238117Y128113D01*
X237101Y130145D01*
X239133Y129129D01*
X241165Y130145D01*
X240149Y128113D01*
X241165Y126081D01*
X239133Y127097D01*
X237101Y126081D01*
X238117Y127097D02*
X238625Y128113D01*
X238117Y129129D01*
X239133Y128621D01*
X240149Y129129D01*
X239641Y128113D01*
X240149Y127097D01*
X239133Y127605D01*
X238117Y127097D01*
X173601Y100681D02*
X174617Y102713D01*
X173601Y104745D01*
X175633Y103729D01*
X177665Y104745D01*
X176649Y102713D01*
X177665Y100681D01*
X175633Y101697D01*
X173601Y100681D01*
X174617Y101697D02*
X175125Y102713D01*
X174617Y103729D01*
X175633Y103221D01*
X176649Y103729D01*
X176141Y102713D01*
X176649Y101697D01*
X175633Y102205D01*
X174617Y101697D01*
X768723Y196481D02*
X769739Y197497D01*
X770755D01*
X769739Y198513D01*
X770755Y199529D01*
X769739D01*
X768723Y200545D01*
X767707Y199529D01*
X766691D01*
X767707Y198513D01*
X766691Y197497D01*
X767707D01*
X768723Y196481D01*
Y197497D02*
X769231Y198005D01*
X769739D01*
X769231Y198513D01*
X769739Y199021D01*
X769231D01*
X768723Y199529D01*
X768215Y199021D01*
X767707D01*
X768215Y198513D01*
X767707Y198005D01*
X768215D01*
X768723Y197497D01*
X717923Y151481D02*
X718939Y152497D01*
X719955D01*
X718939Y153513D01*
X719955Y154529D01*
X718939D01*
X717923Y155545D01*
X716907Y154529D01*
X715891D01*
X716907Y153513D01*
X715891Y152497D01*
X716907D01*
X717923Y151481D01*
X819523D02*
X820539Y152497D01*
X821555D01*
X820539Y153513D01*
X821555Y154529D01*
X820539D01*
X819523Y155545D01*
X818507Y154529D01*
X817491D01*
X818507Y153513D01*
X817491Y152497D01*
X818507D01*
X819523Y151481D01*
X768723D02*
X766691Y155545D01*
X770755D01*
X768723Y151481D01*
X804791Y126081D02*
X805807Y128113D01*
X804791Y130145D01*
X806823Y129129D01*
X808855Y130145D01*
X807839Y128113D01*
X808855Y126081D01*
X806823Y127097D01*
X804791Y126081D01*
X805807Y127097D02*
X806315Y128113D01*
X805807Y129129D01*
X806823Y128621D01*
X807839Y129129D01*
X807331Y128113D01*
X807839Y127097D01*
X806823Y127605D01*
X805807Y127097D01*
X741291Y100681D02*
X742307Y102713D01*
X741291Y104745D01*
X743323Y103729D01*
X745355Y104745D01*
X744339Y102713D01*
X745355Y100681D01*
X743323Y101697D01*
X741291Y100681D01*
X742307Y101697D02*
X742815Y102713D01*
X742307Y103729D01*
X743323Y103221D01*
X744339Y103729D01*
X743831Y102713D01*
X744339Y101697D01*
X743323Y102205D01*
X742307Y101697D01*
X288193Y1253438D02*
X286161Y1257502D01*
X290225D01*
X288193Y1253438D01*
Y1254454D02*
X287177Y1256486D01*
X289209D01*
X288193Y1254454D01*
X300893Y1253438D02*
X298861Y1257502D01*
X302925D01*
X300893Y1253438D01*
Y1254454D02*
X299877Y1256486D01*
X301909D01*
X300893Y1254454D01*
X313593Y1253438D02*
X311561Y1257502D01*
X315625D01*
X313593Y1253438D01*
Y1254454D02*
X312577Y1256486D01*
X314609D01*
X313593Y1254454D01*
X326293Y1253438D02*
X324261Y1257502D01*
X328325D01*
X326293Y1253438D01*
Y1254454D02*
X325277Y1256486D01*
X327309D01*
X326293Y1254454D01*
X338993Y1253438D02*
X336961Y1257502D01*
X341025D01*
X338993Y1253438D01*
Y1254454D02*
X337977Y1256486D01*
X340009D01*
X338993Y1254454D01*
X351693Y1253438D02*
X349661Y1257502D01*
X353725D01*
X351693Y1253438D01*
Y1254454D02*
X350677Y1256486D01*
X352709D01*
X351693Y1254454D01*
X364393Y1253438D02*
X362361Y1257502D01*
X366425D01*
X364393Y1253438D01*
Y1254454D02*
X363377Y1256486D01*
X365409D01*
X364393Y1254454D01*
X377093Y1253438D02*
X375061Y1257502D01*
X379125D01*
X377093Y1253438D01*
Y1254454D02*
X376077Y1256486D01*
X378109D01*
X377093Y1254454D01*
X389793Y1253438D02*
X387761Y1257502D01*
X391825D01*
X389793Y1253438D01*
Y1254454D02*
X388777Y1256486D01*
X390809D01*
X389793Y1254454D01*
X402493Y1253438D02*
X400461Y1257502D01*
X404525D01*
X402493Y1253438D01*
Y1254454D02*
X401477Y1256486D01*
X403509D01*
X402493Y1254454D01*
X415193Y1253438D02*
X413161Y1257502D01*
X417225D01*
X415193Y1253438D01*
Y1254454D02*
X414177Y1256486D01*
X416209D01*
X415193Y1254454D01*
X427893Y1253438D02*
X425861Y1257502D01*
X429925D01*
X427893Y1253438D01*
Y1254454D02*
X426877Y1256486D01*
X428909D01*
X427893Y1254454D01*
X440593Y1253438D02*
X438561Y1257502D01*
X442625D01*
X440593Y1253438D01*
Y1254454D02*
X439577Y1256486D01*
X441609D01*
X440593Y1254454D01*
X453293Y1253438D02*
X451261Y1257502D01*
X455325D01*
X453293Y1253438D01*
Y1254454D02*
X452277Y1256486D01*
X454309D01*
X453293Y1254454D01*
X465993Y1253438D02*
X463961Y1257502D01*
X468025D01*
X465993Y1253438D01*
Y1254454D02*
X464977Y1256486D01*
X467009D01*
X465993Y1254454D01*
X478693Y1253438D02*
X476661Y1257502D01*
X480725D01*
X478693Y1253438D01*
Y1254454D02*
X477677Y1256486D01*
X479709D01*
X478693Y1254454D01*
X491393Y1253438D02*
X489361Y1257502D01*
X493425D01*
X491393Y1253438D01*
Y1254454D02*
X490377Y1256486D01*
X492409D01*
X491393Y1254454D01*
X504093Y1253438D02*
X502061Y1257502D01*
X506125D01*
X504093Y1253438D01*
Y1254454D02*
X503077Y1256486D01*
X505109D01*
X504093Y1254454D01*
X516793Y1253438D02*
X514761Y1257502D01*
X518825D01*
X516793Y1253438D01*
Y1254454D02*
X515777Y1256486D01*
X517809D01*
X516793Y1254454D01*
X529493Y1253438D02*
X527461Y1257502D01*
X531525D01*
X529493Y1253438D01*
Y1254454D02*
X528477Y1256486D01*
X530509D01*
X529493Y1254454D01*
X629493Y1253438D02*
X627461Y1257502D01*
X631525D01*
X629493Y1253438D01*
Y1254454D02*
X628477Y1256486D01*
X630509D01*
X629493Y1254454D01*
X642193Y1253438D02*
X640161Y1257502D01*
X644225D01*
X642193Y1253438D01*
Y1254454D02*
X641177Y1256486D01*
X643209D01*
X642193Y1254454D01*
X654893Y1253438D02*
X652861Y1257502D01*
X656925D01*
X654893Y1253438D01*
Y1254454D02*
X653877Y1256486D01*
X655909D01*
X654893Y1254454D01*
X667593Y1253438D02*
X665561Y1257502D01*
X669625D01*
X667593Y1253438D01*
Y1254454D02*
X666577Y1256486D01*
X668609D01*
X667593Y1254454D01*
X680293Y1253438D02*
X678261Y1257502D01*
X682325D01*
X680293Y1253438D01*
Y1254454D02*
X679277Y1256486D01*
X681309D01*
X680293Y1254454D01*
X692993Y1253438D02*
X690961Y1257502D01*
X695025D01*
X692993Y1253438D01*
Y1254454D02*
X691977Y1256486D01*
X694009D01*
X692993Y1254454D01*
X705693Y1253438D02*
X703661Y1257502D01*
X707725D01*
X705693Y1253438D01*
Y1254454D02*
X704677Y1256486D01*
X706709D01*
X705693Y1254454D01*
X718393Y1253438D02*
X716361Y1257502D01*
X720425D01*
X718393Y1253438D01*
Y1254454D02*
X717377Y1256486D01*
X719409D01*
X718393Y1254454D01*
X731093Y1253438D02*
X729061Y1257502D01*
X733125D01*
X731093Y1253438D01*
Y1254454D02*
X730077Y1256486D01*
X732109D01*
X731093Y1254454D01*
X743793Y1253438D02*
X741761Y1257502D01*
X745825D01*
X743793Y1253438D01*
Y1254454D02*
X742777Y1256486D01*
X744809D01*
X743793Y1254454D01*
X756493Y1253438D02*
X754461Y1257502D01*
X758525D01*
X756493Y1253438D01*
Y1254454D02*
X755477Y1256486D01*
X757509D01*
X756493Y1254454D01*
X769193Y1253438D02*
X767161Y1257502D01*
X771225D01*
X769193Y1253438D01*
Y1254454D02*
X768177Y1256486D01*
X770209D01*
X769193Y1254454D01*
X781893Y1253438D02*
X779861Y1257502D01*
X783925D01*
X781893Y1253438D01*
Y1254454D02*
X780877Y1256486D01*
X782909D01*
X781893Y1254454D01*
X794593Y1253438D02*
X792561Y1257502D01*
X796625D01*
X794593Y1253438D01*
Y1254454D02*
X793577Y1256486D01*
X795609D01*
X794593Y1254454D01*
X807293Y1253438D02*
X805261Y1257502D01*
X809325D01*
X807293Y1253438D01*
Y1254454D02*
X806277Y1256486D01*
X808309D01*
X807293Y1254454D01*
X819993Y1253438D02*
X817961Y1257502D01*
X822025D01*
X819993Y1253438D01*
Y1254454D02*
X818977Y1256486D01*
X821009D01*
X819993Y1254454D01*
X832693Y1253438D02*
X830661Y1257502D01*
X834725D01*
X832693Y1253438D01*
Y1254454D02*
X831677Y1256486D01*
X833709D01*
X832693Y1254454D01*
X845393Y1253438D02*
X843361Y1257502D01*
X847425D01*
X845393Y1253438D01*
Y1254454D02*
X844377Y1256486D01*
X846409D01*
X845393Y1254454D01*
X858093Y1253438D02*
X856061Y1257502D01*
X860125D01*
X858093Y1253438D01*
Y1254454D02*
X857077Y1256486D01*
X859109D01*
X858093Y1254454D01*
X870793Y1253438D02*
X868761Y1257502D01*
X872825D01*
X870793Y1253438D01*
Y1254454D02*
X869777Y1256486D01*
X871809D01*
X870793Y1254454D01*
X117348Y243078D02*
X118364Y245110D01*
X117348Y247142D01*
X119380Y246126D01*
X121412Y247142D01*
X120396Y245110D01*
X121412Y243078D01*
X119380Y244094D01*
X117348Y243078D01*
X118364Y244094D02*
X118872Y245110D01*
X118364Y246126D01*
X119380Y245618D01*
X120396Y246126D01*
X119888Y245110D01*
X120396Y244094D01*
X119380Y244602D01*
X118364Y244094D01*
X1024128Y436118D02*
X1025144Y438150D01*
X1024128Y440182D01*
X1026160Y439166D01*
X1028192Y440182D01*
X1027176Y438150D01*
X1028192Y436118D01*
X1026160Y437134D01*
X1024128Y436118D01*
X1025144Y437134D02*
X1025652Y438150D01*
X1025144Y439166D01*
X1026160Y438658D01*
X1027176Y439166D01*
X1026668Y438150D01*
X1027176Y437134D01*
X1026160Y437642D01*
X1025144Y437134D01*
X116078Y997458D02*
X117094Y999490D01*
X116078Y1001522D01*
X118110Y1000506D01*
X120142Y1001522D01*
X119126Y999490D01*
X120142Y997458D01*
X118110Y998474D01*
X116078Y997458D01*
X117094Y998474D02*
X117602Y999490D01*
X117094Y1000506D01*
X118110Y999998D01*
X119126Y1000506D01*
X118618Y999490D01*
X119126Y998474D01*
X118110Y998982D01*
X117094Y998474D01*
X1035558Y996188D02*
X1036574Y998220D01*
X1035558Y1000252D01*
X1037590Y999236D01*
X1039622Y1000252D01*
X1038606Y998220D01*
X1039622Y996188D01*
X1037590Y997204D01*
X1035558Y996188D01*
X1036574Y997204D02*
X1037082Y998220D01*
X1036574Y999236D01*
X1037590Y998728D01*
X1038606Y999236D01*
X1038098Y998220D01*
X1038606Y997204D01*
X1037590Y997712D01*
X1036574Y997204D01*
X581323Y1236218D02*
Y1240282D01*
X585387D01*
Y1236218D01*
X581323D01*
X572008Y1251458D02*
Y1255522D01*
X576072D01*
Y1251458D01*
X572008D01*
X318008Y1184148D02*
Y1188212D01*
X322072D01*
Y1184148D01*
X318008D01*
X696468Y1001268D02*
Y1005332D01*
X700532D01*
Y1001268D01*
X696468D01*
X885698Y1026668D02*
Y1030732D01*
X889762D01*
Y1026668D01*
X885698D01*
X893318Y1161288D02*
Y1165352D01*
X897382D01*
Y1161288D01*
X893318D01*
X696468Y691388D02*
Y695452D01*
X700532D01*
Y691388D01*
X696468D01*
X792988Y782828D02*
Y786892D01*
X797052D01*
Y782828D01*
X792988D01*
X704088Y615188D02*
Y619252D01*
X708152D01*
Y615188D01*
X704088D01*
X696468Y429768D02*
Y433832D01*
X700532D01*
Y429768D01*
X696468D01*
X853948Y265938D02*
Y270002D01*
X858012D01*
Y265938D01*
X853948D01*
X792988Y215138D02*
Y219202D01*
X797052D01*
Y215138D01*
X792988D01*
X824738Y240538D02*
Y244602D01*
X828802D01*
Y240538D01*
X824738D01*
X843788Y202438D02*
Y206502D01*
X847852D01*
Y202438D01*
X843788D01*
X739191Y1162101D02*
Y1166165D01*
X743255D01*
Y1162101D01*
X739191D01*
X719128Y1190839D02*
Y1194903D01*
X723192D01*
Y1190839D01*
X719128D01*
X706018Y1191108D02*
Y1195172D01*
X710082D01*
Y1191108D01*
X706018D01*
X1054608Y945388D02*
Y949452D01*
X1058672D01*
Y945388D01*
X1054608D01*
X1030478Y1139698D02*
Y1143762D01*
X1034542D01*
Y1139698D01*
X1030478D01*
X570738Y1231138D02*
Y1235202D01*
X574802D01*
Y1231138D01*
X570738D01*
X958088Y1182878D02*
Y1186942D01*
X962152D01*
Y1182878D01*
X958088D01*
X829818Y1187958D02*
Y1192022D01*
X833882D01*
Y1187958D01*
X829818D01*
X820928Y1173988D02*
Y1178052D01*
X824992D01*
Y1173988D01*
X820928D01*
X733868Y1180908D02*
Y1184972D01*
X737932D01*
Y1180908D01*
X733868D01*
X919988Y1160018D02*
Y1164082D01*
X924052D01*
Y1160018D01*
X919988D01*
X960628Y834898D02*
Y838962D01*
X964692D01*
Y834898D01*
X960628D01*
X893318Y692658D02*
Y696722D01*
X897382D01*
Y692658D01*
X893318D01*
X899668Y1267968D02*
Y1272032D01*
X903732D01*
Y1267968D01*
X899668D01*
X650621Y1212088D02*
Y1216152D01*
X654685D01*
Y1212088D01*
X650621D01*
X632358Y1174598D02*
Y1178662D01*
X636422D01*
Y1174598D01*
X632358D01*
X650621Y1173328D02*
Y1177392D01*
X654685D01*
Y1173328D01*
X650621D01*
X670687Y1175918D02*
Y1179982D01*
X674751D01*
Y1175918D01*
X670687D01*
X671068Y568198D02*
Y572262D01*
X675132D01*
Y568198D01*
X671068D01*
X652018Y433578D02*
Y437642D01*
X656082D01*
Y433578D01*
X652018D01*
X671068Y375158D02*
Y379222D01*
X675132D01*
Y375158D01*
X671068D01*
Y956818D02*
Y960882D01*
X675132D01*
Y956818D01*
X671068D01*
Y766318D02*
Y770382D01*
X675132D01*
Y766318D01*
X671068D01*
X613918Y177038D02*
Y181102D01*
X617982D01*
Y177038D01*
X613918D01*
X841366Y585978D02*
Y590042D01*
X845430D01*
Y585978D01*
X841366D01*
X834898Y377698D02*
Y381762D01*
X838962D01*
Y377698D01*
X834898D01*
Y243078D02*
Y247142D01*
X838962D01*
Y243078D01*
X834898D01*
X1005078Y283718D02*
Y287782D01*
X1009142D01*
Y283718D01*
X1005078D01*
X1006348Y662178D02*
Y666242D01*
X1010412D01*
Y662178D01*
X1006348D01*
X1002538Y946658D02*
Y950722D01*
X1006602D01*
Y946658D01*
X1002538D01*
X980948Y311658D02*
Y315722D01*
X985012D01*
Y311658D01*
X980948D01*
X982218Y691388D02*
Y695452D01*
X986282D01*
Y691388D01*
X982218D01*
Y972058D02*
Y976122D01*
X986282D01*
Y972058D01*
X982218D01*
X984377Y1123255D02*
Y1127319D01*
X988441D01*
Y1123255D01*
X984377D01*
X911098Y298958D02*
Y303022D01*
X915162D01*
Y298958D01*
X911098D01*
Y677418D02*
Y681482D01*
X915162D01*
Y677418D01*
X911098D01*
Y960628D02*
Y964692D01*
X915162D01*
Y960628D01*
X911098D01*
X968248Y1167638D02*
Y1171702D01*
X972312D01*
Y1167638D01*
X968248D01*
X1030478Y700278D02*
Y704342D01*
X1034542D01*
Y700278D01*
X1030478D01*
X1044448Y284988D02*
Y289052D01*
X1048512D01*
Y284988D01*
X1044448D01*
X834898Y756158D02*
Y760222D01*
X838962D01*
Y756158D01*
X834898D01*
X814578Y189738D02*
Y193802D01*
X818642D01*
Y189738D01*
X814578D01*
X834898Y568198D02*
Y572262D01*
X838962D01*
Y568198D01*
X834898D01*
Y945388D02*
Y949452D01*
X838962D01*
Y945388D01*
X834898D01*
X809974Y1142238D02*
Y1146302D01*
X814038D01*
Y1142238D01*
X809974D01*
X853948Y1128268D02*
Y1132332D01*
X858012D01*
Y1128268D01*
X853948D01*
X852678Y953008D02*
Y957072D01*
X856742D01*
Y953008D01*
X852678D01*
Y813308D02*
Y817372D01*
X856742D01*
Y813308D01*
X852678D01*
X794258Y405638D02*
Y409702D01*
X798322D01*
Y405638D01*
X794258D01*
Y593598D02*
Y597662D01*
X798322D01*
Y593598D01*
X794258D01*
X792988Y973328D02*
Y977392D01*
X797052D01*
Y973328D01*
X792988D01*
X767588Y1166353D02*
Y1170417D01*
X771652D01*
Y1166353D01*
X767588D01*
X721868Y203708D02*
Y207772D01*
X725932D01*
Y203708D01*
X721868D01*
Y392938D02*
Y397002D01*
X725932D01*
Y392938D01*
X721868D01*
X720598Y583438D02*
Y587502D01*
X724662D01*
Y583438D01*
X720598D01*
Y771398D02*
Y775462D01*
X724662D01*
Y771398D01*
X720598D01*
X719328Y960628D02*
Y964692D01*
X723392D01*
Y960628D01*
X719328D01*
X627888Y1129538D02*
Y1133602D01*
X631952D01*
Y1129538D01*
X627888D01*
X528828Y189738D02*
Y193802D01*
X532892D01*
Y189738D01*
X528828D01*
X642661Y378165D02*
Y382229D01*
X646725D01*
Y378165D01*
X642661D01*
Y567395D02*
Y571459D01*
X646725D01*
Y567395D01*
X642661D01*
Y756625D02*
Y760689D01*
X646725D01*
Y756625D01*
X642661D01*
Y945855D02*
Y949919D01*
X646725D01*
Y945855D01*
X642661D01*
X511048Y215138D02*
Y219202D01*
X515112D01*
Y215138D01*
X511048D01*
X603758Y404368D02*
Y408432D01*
X607822D01*
Y404368D01*
X603758D01*
Y594868D02*
Y598932D01*
X607822D01*
Y594868D01*
X603758D01*
X605028Y782828D02*
Y786892D01*
X609092D01*
Y782828D01*
X605028D01*
X603758Y972058D02*
Y976122D01*
X607822D01*
Y972058D01*
X603758D01*
X616458Y1161288D02*
Y1165352D01*
X620522D01*
Y1161288D01*
X616458D01*
X455168Y216408D02*
Y220472D01*
X459232D01*
Y216408D01*
X455168D01*
X532638Y401828D02*
Y405892D01*
X536702D01*
Y401828D01*
X532638D01*
Y582168D02*
Y586232D01*
X536702D01*
Y582168D01*
X532638D01*
Y771398D02*
Y775462D01*
X536702D01*
Y771398D01*
X532638D01*
Y960628D02*
Y964692D01*
X536702D01*
Y960628D01*
X532638D01*
X550774Y1160018D02*
Y1164082D01*
X554838D01*
Y1160018D01*
X550774D01*
X418338D02*
Y1164082D01*
X422402D01*
Y1160018D01*
X418338D01*
X445008Y378968D02*
Y383032D01*
X449072D01*
Y378968D01*
X445008D01*
X455168Y565658D02*
Y569722D01*
X459232D01*
Y565658D01*
X455168D01*
Y757428D02*
Y761492D01*
X459232D01*
Y757428D01*
X455168D01*
Y946658D02*
Y950722D01*
X459232D01*
Y946658D01*
X455168D01*
X415798Y404368D02*
Y408432D01*
X419862D01*
Y404368D01*
X415798D01*
Y594868D02*
Y598932D01*
X419862D01*
Y594868D01*
X415798D01*
Y785368D02*
Y789432D01*
X419862D01*
Y785368D01*
X415798D01*
X417068Y973328D02*
Y977392D01*
X421132D01*
Y973328D01*
X417068D01*
X441961Y1135381D02*
Y1139445D01*
X446025D01*
Y1135381D01*
X441961D01*
X335788Y392938D02*
Y397002D01*
X339852D01*
Y392938D01*
X335788D01*
X334518Y582168D02*
Y586232D01*
X338582D01*
Y582168D01*
X334518D01*
X335788Y771398D02*
Y775462D01*
X339852D01*
Y771398D01*
X335788D01*
X333248Y960628D02*
Y964692D01*
X337312D01*
Y960628D01*
X333248D01*
X342168Y1149840D02*
Y1153904D01*
X346232D01*
Y1149840D01*
X342168D01*
X331978Y742188D02*
Y746252D01*
X336042D01*
Y742188D01*
X331978D01*
X269748Y960628D02*
Y964692D01*
X273812D01*
Y960628D01*
X269748D01*
Y771398D02*
Y775462D01*
X273812D01*
Y771398D01*
X269748D01*
X268478Y203708D02*
Y207772D01*
X272542D01*
Y203708D01*
X268478D01*
Y392938D02*
Y397002D01*
X272542D01*
Y392938D01*
X268478D01*
Y582168D02*
Y586232D01*
X272542D01*
Y582168D01*
X268478D01*
X272288Y1124458D02*
Y1128522D01*
X276352D01*
Y1124458D01*
X272288D01*
X241808Y189738D02*
Y193802D01*
X245872D01*
Y189738D01*
X241808D01*
Y378968D02*
Y383032D01*
X245872D01*
Y378968D01*
X241808D01*
X243078Y568198D02*
Y572262D01*
X247142D01*
Y568198D01*
X243078D01*
Y757428D02*
Y761492D01*
X247142D01*
Y757428D01*
X243078D01*
X245618Y946658D02*
Y950722D01*
X249682D01*
Y946658D01*
X245618D01*
X262128Y1121918D02*
Y1125982D01*
X266192D01*
Y1121918D01*
X262128D01*
X283718Y189738D02*
Y193802D01*
X287782D01*
Y189738D01*
X283718D01*
Y380238D02*
Y384302D01*
X287782D01*
Y380238D01*
X283718D01*
X283788Y559378D02*
Y563442D01*
X287852D01*
Y559378D01*
X283788D01*
Y753548D02*
Y757612D01*
X287852D01*
Y753548D01*
X283788D01*
X150368Y203708D02*
Y207772D01*
X154432D01*
Y203708D01*
X150368D01*
X130048Y392938D02*
Y397002D01*
X134112D01*
Y392938D01*
X130048D01*
X144018Y583438D02*
Y587502D01*
X148082D01*
Y583438D01*
X144018D01*
X130048Y771398D02*
Y775462D01*
X134112D01*
Y771398D01*
X130048D01*
X140208Y960628D02*
Y964692D01*
X144272D01*
Y960628D01*
X140208D01*
X155471Y1149881D02*
Y1153945D01*
X159535D01*
Y1149881D01*
X155471D01*
X476828Y385318D02*
Y389382D01*
X480892D01*
Y385318D01*
X476828D01*
Y565728D02*
Y569792D01*
X480892D01*
Y565728D01*
X476828D01*
Y760038D02*
Y764102D01*
X480892D01*
Y760038D01*
X476828D01*
Y954348D02*
Y958412D01*
X480892D01*
Y954348D01*
X476828D01*
X733868Y1229168D02*
Y1233232D01*
X737932D01*
Y1229168D01*
X733868D01*
X679801Y1046831D02*
Y1050895D01*
X683865D01*
Y1046831D01*
X679801D01*
X663448Y1116838D02*
Y1120902D01*
X667512D01*
Y1116838D01*
X663448D01*
X581598Y1188528D02*
Y1192592D01*
X585662D01*
Y1188528D01*
X581598D01*
X542798Y1236218D02*
Y1240282D01*
X546862D01*
Y1236218D01*
X542798D01*
X500888Y1173988D02*
Y1178052D01*
X504952D01*
Y1173988D01*
X500888D01*
Y1223518D02*
Y1227582D01*
X504952D01*
Y1223518D01*
X500888D01*
Y1190498D02*
Y1194562D01*
X504952D01*
Y1190498D01*
X500888D01*
X494538Y860298D02*
Y864362D01*
X498602D01*
Y860298D01*
X494538D01*
X424688Y1212088D02*
Y1216152D01*
X428752D01*
Y1212088D01*
X424688D01*
X455829Y1183409D02*
Y1187473D01*
X459893D01*
Y1183409D01*
X455829D01*
X465988Y1173328D02*
Y1177392D01*
X470052D01*
Y1173328D01*
X465988D01*
X417068Y1184148D02*
Y1188212D01*
X421132D01*
Y1184148D01*
X417068D01*
X320548Y509778D02*
Y513842D01*
X324612D01*
Y509778D01*
X320548D01*
X311658Y323088D02*
Y327152D01*
X315722D01*
Y323088D01*
X311658D01*
X325628Y1223518D02*
Y1227582D01*
X329692D01*
Y1223518D01*
X325628D01*
X307848Y1207008D02*
Y1211072D01*
X311912D01*
Y1207008D01*
X307848D01*
X292608Y1171448D02*
Y1175512D01*
X296672D01*
Y1171448D01*
X292608D01*
X349758Y110998D02*
Y115062D01*
X353822D01*
Y110998D01*
X349758D01*
X476828Y1116908D02*
Y1120972D01*
X480892D01*
Y1116908D01*
X476828D01*
X283788Y944188D02*
Y948252D01*
X287852D01*
Y944188D01*
X283788D01*
X252628Y1173328D02*
Y1177392D01*
X256692D01*
Y1173328D01*
X252628D01*
X205548Y1188528D02*
Y1192592D01*
X209612D01*
Y1188528D01*
X205548D01*
X162458Y1200048D02*
Y1204112D01*
X166522D01*
Y1200048D01*
X162458D01*
X283788Y1118178D02*
Y1122242D01*
X287852D01*
Y1118178D01*
X283788D01*
X992988Y1241958D02*
Y1246022D01*
X997052D01*
Y1241958D01*
X992988D01*
X706628Y1124458D02*
Y1128522D01*
X710692D01*
Y1124458D01*
X706628D01*
X707198Y1156908D02*
Y1160972D01*
X711262D01*
Y1156908D01*
X707198D01*
X529398Y1161858D02*
Y1165922D01*
X533462D01*
Y1161858D01*
X529398D01*
X308458Y1170838D02*
Y1174902D01*
X312522D01*
Y1170838D01*
X308458D01*
X886968Y1217168D02*
Y1221232D01*
X891032D01*
Y1217168D01*
X886968D01*
X690118Y1209548D02*
Y1213612D01*
X694182D01*
Y1209548D01*
X690118D01*
X839978D02*
Y1213612D01*
X844042D01*
Y1209548D01*
X839978D01*
X516128D02*
Y1213612D01*
X520192D01*
Y1209548D01*
X516128D01*
X271018Y1215898D02*
Y1219962D01*
X275082D01*
Y1215898D01*
X271018D01*
X271628Y1172058D02*
Y1176122D01*
X275692D01*
Y1172058D01*
X271628D01*
X690118Y1173988D02*
Y1178052D01*
X694182D01*
Y1173988D01*
X690118D01*
X839978Y1171448D02*
Y1175512D01*
X844042D01*
Y1171448D01*
X839978D01*
X166878Y1246378D02*
Y1250442D01*
X170942D01*
Y1246378D01*
X166878D01*
D64*
X377952Y175260D02*
G03*
X377952Y175260I-2032J0D01*
G01*
X436372Y807720D02*
G03*
X436372Y807720I-2032J0D01*
G01*
X885952Y433070D02*
G03*
X885952Y433070I-2032J0D01*
G01*
X146812Y435610D02*
G03*
X146812Y435610I-2032J0D01*
G01*
X203962Y1003300D02*
G03*
X203962Y1003300I-2032J0D01*
G01*
M02*
