G04*
G04 #@! TF.GenerationSoftware,Altium Limited,Altium Designer,22.7.1 (60)*
G04*
G04 Layer_Color=16711935*
%FSLAX44Y44*%
%MOMM*%
G71*
G04*
G04 #@! TF.SameCoordinates,EC5D1957-9DED-4F38-8C92-ABF119FEB4E7*
G04*
G04*
G04 #@! TF.FilePolarity,Negative*
G04*
G01*
G75*
%ADD12R,1.3462X1.3462*%
%ADD13C,1.3462*%
%ADD14C,1.9812*%
%ADD15C,2.4892*%
%ADD16C,4.0132*%
%ADD17C,2.2032*%
%ADD18C,4.1912*%
%ADD19C,3.2512*%
%ADD20C,1.2032*%
%ADD21C,1.7032*%
%ADD41R,1.4097X0.5080*%
%ADD42R,0.9032X1.1032*%
%ADD43R,1.0032X0.6032*%
%ADD44R,1.1032X0.9032*%
%ADD45R,1.2032X0.8032*%
%ADD46R,0.8032X1.2032*%
%ADD47R,4.0032X2.2332*%
D12*
X58420Y1682750D02*
D03*
X57150Y1522730D02*
D03*
Y1360170D02*
D03*
D13*
X83820Y1657350D02*
D03*
X109220Y1682750D02*
D03*
X107950Y1522730D02*
D03*
X82550Y1497330D02*
D03*
Y1334770D02*
D03*
X107950Y1360170D02*
D03*
D14*
X875273Y1095093D02*
D03*
X824473D02*
D03*
X849873D02*
D03*
X900675Y1095091D02*
D03*
Y622016D02*
D03*
X849873Y622018D02*
D03*
X824473D02*
D03*
X875273D02*
D03*
X900675Y243556D02*
D03*
X849873Y243558D02*
D03*
X824473D02*
D03*
X875273D02*
D03*
X402198Y148943D02*
D03*
X351398D02*
D03*
X376798D02*
D03*
X427600Y148941D02*
D03*
X118353Y148943D02*
D03*
X67553D02*
D03*
X92953D02*
D03*
X143755Y148941D02*
D03*
X118353Y338173D02*
D03*
X67553D02*
D03*
X92953D02*
D03*
X143755Y338171D02*
D03*
X118353Y527403D02*
D03*
X67553D02*
D03*
X92953D02*
D03*
X143755Y527401D02*
D03*
X118353Y716633D02*
D03*
X67553D02*
D03*
X92953D02*
D03*
X143755Y716631D02*
D03*
X118353Y905863D02*
D03*
X67553D02*
D03*
X92953D02*
D03*
X143755Y905861D02*
D03*
X118353Y1095093D02*
D03*
X67553D02*
D03*
X92953D02*
D03*
X143755Y1095091D02*
D03*
X711445D02*
D03*
X660643Y1095093D02*
D03*
X635243D02*
D03*
X686043D02*
D03*
X522215Y338171D02*
D03*
X471413Y338173D02*
D03*
X446013D02*
D03*
X496813D02*
D03*
X711445Y148941D02*
D03*
X660643Y148943D02*
D03*
X635243D02*
D03*
X686043D02*
D03*
X711445Y338171D02*
D03*
X660643Y338173D02*
D03*
X635243D02*
D03*
X686043D02*
D03*
X711445Y527401D02*
D03*
X660643Y527403D02*
D03*
X635243D02*
D03*
X686043D02*
D03*
X522215Y905861D02*
D03*
X471413Y905863D02*
D03*
X446013D02*
D03*
X496813D02*
D03*
X522215Y1095091D02*
D03*
X471413Y1095093D02*
D03*
X446013D02*
D03*
X496813D02*
D03*
X711445Y905861D02*
D03*
X660643Y905863D02*
D03*
X635243D02*
D03*
X686043D02*
D03*
X711445Y716631D02*
D03*
X660643Y716633D02*
D03*
X635243D02*
D03*
X686043D02*
D03*
X522215Y716631D02*
D03*
X471413Y716633D02*
D03*
X446013D02*
D03*
X496813D02*
D03*
X522215Y527401D02*
D03*
X471413Y527403D02*
D03*
X446013D02*
D03*
X496813D02*
D03*
X900675Y905861D02*
D03*
X849873Y905863D02*
D03*
X824473D02*
D03*
X875273D02*
D03*
X332985Y716631D02*
D03*
X282183Y716633D02*
D03*
X256783D02*
D03*
X307583D02*
D03*
X332985Y527401D02*
D03*
X282183Y527403D02*
D03*
X256783D02*
D03*
X307583D02*
D03*
X332985Y1095091D02*
D03*
X282183Y1095093D02*
D03*
X256783D02*
D03*
X307583D02*
D03*
X332985Y338171D02*
D03*
X282183Y338173D02*
D03*
X256783D02*
D03*
X307583D02*
D03*
X332985Y905861D02*
D03*
X282183Y905863D02*
D03*
X256783D02*
D03*
X307583D02*
D03*
D15*
X838193Y996031D02*
D03*
X899913Y1019401D02*
D03*
Y546326D02*
D03*
X838193Y522956D02*
D03*
X899913Y167866D02*
D03*
X838193Y144496D02*
D03*
X365118Y49881D02*
D03*
X426838Y73251D02*
D03*
X81273Y49881D02*
D03*
X142993Y73251D02*
D03*
X81273Y239111D02*
D03*
X142993Y262481D02*
D03*
X81273Y428341D02*
D03*
X142993Y451711D02*
D03*
X81273Y617571D02*
D03*
X142993Y640941D02*
D03*
X81273Y806801D02*
D03*
X142993Y830171D02*
D03*
X81273Y996031D02*
D03*
X142993Y1019401D02*
D03*
X710683D02*
D03*
X648963Y996031D02*
D03*
X521453Y262481D02*
D03*
X459733Y239111D02*
D03*
X710683Y73251D02*
D03*
X648963Y49881D02*
D03*
X710683Y262481D02*
D03*
X648963Y239111D02*
D03*
X710683Y451711D02*
D03*
X648963Y428341D02*
D03*
X521453Y830171D02*
D03*
X459733Y806801D02*
D03*
X521453Y1019401D02*
D03*
X459733Y996031D02*
D03*
X710683Y830171D02*
D03*
X648963Y806801D02*
D03*
X710683Y640941D02*
D03*
X648963Y617571D02*
D03*
X521453Y640941D02*
D03*
X459733Y617571D02*
D03*
X521453Y451711D02*
D03*
X459733Y428341D02*
D03*
X899913Y830171D02*
D03*
X838193Y806801D02*
D03*
X332223Y640941D02*
D03*
X270503Y617571D02*
D03*
X332223Y451711D02*
D03*
X270503Y428341D02*
D03*
X332223Y1019401D02*
D03*
X270503Y996031D02*
D03*
X332223Y262481D02*
D03*
X270503Y239111D02*
D03*
X332223Y830171D02*
D03*
X270503Y806801D02*
D03*
D16*
X862703Y1046323D02*
D03*
Y573248D02*
D03*
Y194788D02*
D03*
X389628Y100173D02*
D03*
X105783D02*
D03*
Y289403D02*
D03*
Y478633D02*
D03*
Y667863D02*
D03*
Y857093D02*
D03*
Y1046323D02*
D03*
X673473D02*
D03*
X484243Y289403D02*
D03*
X673473Y100173D02*
D03*
Y289403D02*
D03*
Y478633D02*
D03*
X484243Y857093D02*
D03*
Y1046323D02*
D03*
X673473Y857093D02*
D03*
Y667863D02*
D03*
X484243D02*
D03*
Y478633D02*
D03*
X862703Y857093D02*
D03*
X295013Y667863D02*
D03*
Y478633D02*
D03*
Y1046323D02*
D03*
Y289403D02*
D03*
Y857093D02*
D03*
D17*
X912614Y1046323D02*
D03*
X812793D02*
D03*
Y573248D02*
D03*
X912614D02*
D03*
X812793Y194788D02*
D03*
X912614D02*
D03*
X439539Y100173D02*
D03*
X339718D02*
D03*
X155694D02*
D03*
X55873D02*
D03*
X155694Y289403D02*
D03*
X55873D02*
D03*
X155694Y478633D02*
D03*
X55873D02*
D03*
X155694Y667863D02*
D03*
X55873D02*
D03*
X155694Y857093D02*
D03*
X55873D02*
D03*
X155694Y1046323D02*
D03*
X55873D02*
D03*
X623563D02*
D03*
X723384D02*
D03*
X434333Y289403D02*
D03*
X534154D02*
D03*
X623563Y100173D02*
D03*
X723384D02*
D03*
X623563Y289403D02*
D03*
X723384D02*
D03*
X623563Y478633D02*
D03*
X723384D02*
D03*
X434333Y857093D02*
D03*
X534154D02*
D03*
X434333Y1046323D02*
D03*
X534154D02*
D03*
X623563Y857093D02*
D03*
X723384D02*
D03*
X623563Y667863D02*
D03*
X723384D02*
D03*
X434333D02*
D03*
X534154D02*
D03*
X434333Y478633D02*
D03*
X534154D02*
D03*
X812793Y857093D02*
D03*
X912614D02*
D03*
X245103Y667863D02*
D03*
X344924D02*
D03*
X245103Y478633D02*
D03*
X344924D02*
D03*
X245103Y1046323D02*
D03*
X344924D02*
D03*
X245103Y289403D02*
D03*
X344924D02*
D03*
X245103Y857093D02*
D03*
X344924D02*
D03*
D18*
X780153Y692628D02*
D03*
Y453868D02*
D03*
Y314168D02*
D03*
Y75408D02*
D03*
X270248Y182723D02*
D03*
X509008D02*
D03*
D19*
X932553Y692628D02*
D03*
Y453868D02*
D03*
Y314168D02*
D03*
Y75408D02*
D03*
X270248Y30323D02*
D03*
X509008D02*
D03*
D20*
X737870Y1201420D02*
D03*
X725170D02*
D03*
X712470D02*
D03*
X699770D02*
D03*
X687070D02*
D03*
X674370D02*
D03*
X661670D02*
D03*
X648970D02*
D03*
X636270D02*
D03*
X623570D02*
D03*
X610870D02*
D03*
X598170D02*
D03*
X585470D02*
D03*
X572770D02*
D03*
X560070D02*
D03*
X547370D02*
D03*
X534670D02*
D03*
X521970D02*
D03*
X509270D02*
D03*
X496570D02*
D03*
X435610D02*
D03*
X422910D02*
D03*
X410210D02*
D03*
X397510D02*
D03*
X384810D02*
D03*
X372110D02*
D03*
X359410D02*
D03*
X346710D02*
D03*
X334010D02*
D03*
X321310D02*
D03*
X308610D02*
D03*
X295910D02*
D03*
X283210D02*
D03*
X270510D02*
D03*
X257810D02*
D03*
X245110D02*
D03*
X232410D02*
D03*
X219710D02*
D03*
X207010D02*
D03*
X194310D02*
D03*
D21*
X25900Y1268530D02*
D03*
Y1293930D02*
D03*
Y1319330D02*
D03*
Y1344730D02*
D03*
Y1370130D02*
D03*
Y1395530D02*
D03*
Y1420930D02*
D03*
Y1446330D02*
D03*
Y1471730D02*
D03*
Y1497130D02*
D03*
Y1522530D02*
D03*
Y1547930D02*
D03*
Y1573330D02*
D03*
Y1598730D02*
D03*
Y1624130D02*
D03*
Y1649530D02*
D03*
Y1674930D02*
D03*
X942586Y1268530D02*
D03*
Y1751130D02*
D03*
X25900Y1700330D02*
D03*
Y1725730D02*
D03*
Y1751130D02*
D03*
D41*
X919353Y1316990D02*
D03*
Y1329690D02*
D03*
Y1342390D02*
D03*
Y1355090D02*
D03*
Y1367790D02*
D03*
Y1380490D02*
D03*
Y1393190D02*
D03*
Y1405890D02*
D03*
X866140D02*
D03*
Y1393190D02*
D03*
Y1380490D02*
D03*
Y1367790D02*
D03*
Y1355090D02*
D03*
Y1342390D02*
D03*
Y1329690D02*
D03*
Y1316990D02*
D03*
D42*
X478910Y73660D02*
D03*
X493910D02*
D03*
X196970Y46990D02*
D03*
X211970D02*
D03*
X382390Y246380D02*
D03*
X397390D02*
D03*
X759580Y130810D02*
D03*
X774580D02*
D03*
X881500Y93980D02*
D03*
X896500D02*
D03*
X811410Y411480D02*
D03*
X796410D02*
D03*
X795140Y976630D02*
D03*
X810140D02*
D03*
X792600Y1113790D02*
D03*
X807600D02*
D03*
X112910Y1624330D02*
D03*
X97910D02*
D03*
X72270Y1576070D02*
D03*
X57270D02*
D03*
X115450Y1297940D02*
D03*
X100450D02*
D03*
X114060Y1463040D02*
D03*
X99060D02*
D03*
X74810Y1413510D02*
D03*
X59810D02*
D03*
X74810Y1248410D02*
D03*
X59810D02*
D03*
X805060Y646430D02*
D03*
X790060D02*
D03*
X807600Y775970D02*
D03*
X792600D02*
D03*
D43*
X332670Y234973D02*
D03*
X355670D02*
D03*
X143440Y424203D02*
D03*
X166440D02*
D03*
X711130Y802663D02*
D03*
X734130D02*
D03*
X521900D02*
D03*
X544900D02*
D03*
X332670D02*
D03*
X355670D02*
D03*
X143440D02*
D03*
X166440D02*
D03*
X143440Y991893D02*
D03*
X166440D02*
D03*
X332670D02*
D03*
X355670D02*
D03*
X521900D02*
D03*
X544900D02*
D03*
X711130D02*
D03*
X734130D02*
D03*
X900360Y990623D02*
D03*
X923360D02*
D03*
X167710Y613433D02*
D03*
X144710D02*
D03*
X734130Y614703D02*
D03*
X711130D02*
D03*
X544900Y613433D02*
D03*
X521900D02*
D03*
X355670D02*
D03*
X332670D02*
D03*
X166440Y234973D02*
D03*
X143440D02*
D03*
X544900Y237513D02*
D03*
X521900D02*
D03*
X449650Y47013D02*
D03*
X426650D02*
D03*
X166440D02*
D03*
X143440D02*
D03*
X734130Y237513D02*
D03*
X711130D02*
D03*
X734130Y47013D02*
D03*
X711130D02*
D03*
X924630Y133373D02*
D03*
X901630D02*
D03*
X923360Y803933D02*
D03*
X900360D02*
D03*
X923360Y519453D02*
D03*
X900360D02*
D03*
X734130Y421663D02*
D03*
X711130D02*
D03*
X544900D02*
D03*
X521900D02*
D03*
X355670Y424203D02*
D03*
X332670D02*
D03*
D44*
X734060Y200420D02*
D03*
Y185420D02*
D03*
D45*
X777810Y193040D02*
D03*
X753810Y202540D02*
D03*
Y183540D02*
D03*
X781750Y384810D02*
D03*
X805750Y375310D02*
D03*
Y394310D02*
D03*
X775400Y618490D02*
D03*
X799400Y608990D02*
D03*
Y627990D02*
D03*
X783020Y749300D02*
D03*
X807020Y739800D02*
D03*
Y758800D02*
D03*
X785560Y951230D02*
D03*
X809560Y941730D02*
D03*
Y960730D02*
D03*
X775400Y1083310D02*
D03*
X799400Y1073810D02*
D03*
Y1092810D02*
D03*
X72960Y1609700D02*
D03*
Y1590700D02*
D03*
X48960Y1600200D02*
D03*
X75500Y1282040D02*
D03*
Y1263040D02*
D03*
X51500Y1272540D02*
D03*
X74230Y1447140D02*
D03*
Y1428140D02*
D03*
X50230Y1437640D02*
D03*
D46*
X908050Y1138620D02*
D03*
X917550Y1162620D02*
D03*
X898550D02*
D03*
X721360Y1117030D02*
D03*
X730860Y1141030D02*
D03*
X711860D02*
D03*
X530860Y1138620D02*
D03*
X540360Y1162620D02*
D03*
X521360D02*
D03*
X340360Y1133540D02*
D03*
X349860Y1157540D02*
D03*
X330860D02*
D03*
X136100Y1139890D02*
D03*
X145600Y1163890D02*
D03*
X126600D02*
D03*
X107290Y1586930D02*
D03*
X88290D02*
D03*
X97790Y1610930D02*
D03*
X109830Y1259270D02*
D03*
X90830D02*
D03*
X100330Y1283270D02*
D03*
X108560Y1424370D02*
D03*
X89560D02*
D03*
X99060Y1448370D02*
D03*
X862990Y1162620D02*
D03*
X881990D02*
D03*
X872490Y1138620D02*
D03*
X814730Y1162620D02*
D03*
X833730D02*
D03*
X824230Y1138620D02*
D03*
X677570Y1141030D02*
D03*
X696570D02*
D03*
X687070Y1117030D02*
D03*
X625500Y1142300D02*
D03*
X644500D02*
D03*
X635000Y1118300D02*
D03*
X436270Y1162620D02*
D03*
X455270D02*
D03*
X445770Y1138620D02*
D03*
X485800Y1162620D02*
D03*
X504800D02*
D03*
X495300Y1138620D02*
D03*
X261010Y1157540D02*
D03*
X280010D02*
D03*
X270510Y1133540D02*
D03*
X295300Y1157540D02*
D03*
X314300D02*
D03*
X304800Y1133540D02*
D03*
X91040Y1163890D02*
D03*
X110040D02*
D03*
X100540Y1139890D02*
D03*
X55480Y1163890D02*
D03*
X74480D02*
D03*
X64980Y1139890D02*
D03*
D47*
X69850Y1629410D02*
D03*
X896620Y1438910D02*
D03*
X887730Y1475740D02*
D03*
X66040Y1469390D02*
D03*
X67310Y1303020D02*
D03*
M02*
