G04*
G04 #@! TF.GenerationSoftware,Altium Limited,Altium Designer,22.7.1 (60)*
G04*
G04 Layer_Color=2752767*
%FSLAX44Y44*%
%MOMM*%
G71*
G04*
G04 #@! TF.SameCoordinates,EC5D1957-9DED-4F38-8C92-ABF119FEB4E7*
G04*
G04*
G04 #@! TF.FilePolarity,Positive*
G04*
G01*
G75*
%ADD53C,0.0508*%
%ADD54C,0.0677*%
%ADD55C,0.0339*%
D53*
X56388Y1680718D02*
X57404Y1682750D01*
X56388Y1684782D01*
X58420Y1683766D01*
X60452Y1684782D01*
X59436Y1682750D01*
X60452Y1680718D01*
X58420Y1681734D01*
X56388Y1680718D01*
X81788Y1655318D02*
X82804Y1657350D01*
X81788Y1659382D01*
X83820Y1658366D01*
X85852Y1659382D01*
X84836Y1657350D01*
X85852Y1655318D01*
X83820Y1656334D01*
X81788Y1655318D01*
X107188Y1680718D02*
X108204Y1682750D01*
X107188Y1684782D01*
X109220Y1683766D01*
X111252Y1684782D01*
X110236Y1682750D01*
X111252Y1680718D01*
X109220Y1681734D01*
X107188Y1680718D01*
X105918Y1520698D02*
X106934Y1522730D01*
X105918Y1524762D01*
X107950Y1523746D01*
X109982Y1524762D01*
X108966Y1522730D01*
X109982Y1520698D01*
X107950Y1521714D01*
X105918Y1520698D01*
X80518Y1495298D02*
X81534Y1497330D01*
X80518Y1499362D01*
X82550Y1498346D01*
X84582Y1499362D01*
X83566Y1497330D01*
X84582Y1495298D01*
X82550Y1496314D01*
X80518Y1495298D01*
X55118Y1520698D02*
X56134Y1522730D01*
X55118Y1524762D01*
X57150Y1523746D01*
X59182Y1524762D01*
X58166Y1522730D01*
X59182Y1520698D01*
X57150Y1521714D01*
X55118Y1520698D01*
Y1358138D02*
X56134Y1360170D01*
X55118Y1362202D01*
X57150Y1361186D01*
X59182Y1362202D01*
X58166Y1360170D01*
X59182Y1358138D01*
X57150Y1359154D01*
X55118Y1358138D01*
X80518Y1332738D02*
X81534Y1334770D01*
X80518Y1336802D01*
X82550Y1335786D01*
X84582Y1336802D01*
X83566Y1334770D01*
X84582Y1332738D01*
X82550Y1333754D01*
X80518Y1332738D01*
X105918Y1358138D02*
X106934Y1360170D01*
X105918Y1362202D01*
X107950Y1361186D01*
X109982Y1362202D01*
X108966Y1360170D01*
X109982Y1358138D01*
X107950Y1359154D01*
X105918Y1358138D01*
X873241Y1093061D02*
Y1097125D01*
X877305D01*
Y1093061D01*
X873241D01*
X822441D02*
Y1097125D01*
X826505D01*
Y1093061D01*
X822441D01*
X847841D02*
Y1097125D01*
X851905D01*
Y1093061D01*
X847841D01*
X898643Y1093059D02*
Y1097123D01*
X902707D01*
Y1093059D01*
X898643D01*
X862703Y1044291D02*
X860671Y1048355D01*
X864735D01*
X862703Y1044291D01*
X912614D02*
X913630Y1045307D01*
X914646D01*
X913630Y1046323D01*
X914646Y1047339D01*
X913630D01*
X912614Y1048355D01*
X911598Y1047339D01*
X910582D01*
X911598Y1046323D01*
X910582Y1045307D01*
X911598D01*
X912614Y1044291D01*
X812793D02*
X813809Y1045307D01*
X814825D01*
X813809Y1046323D01*
X814825Y1047339D01*
X813809D01*
X812793Y1048355D01*
X811777Y1047339D01*
X810761D01*
X811777Y1046323D01*
X810761Y1045307D01*
X811777D01*
X812793Y1044291D01*
Y571216D02*
X813809Y572232D01*
X814825D01*
X813809Y573248D01*
X814825Y574264D01*
X813809D01*
X812793Y575280D01*
X811777Y574264D01*
X810761D01*
X811777Y573248D01*
X810761Y572232D01*
X811777D01*
X812793Y571216D01*
X912614D02*
X913630Y572232D01*
X914646D01*
X913630Y573248D01*
X914646Y574264D01*
X913630D01*
X912614Y575280D01*
X911598Y574264D01*
X910582D01*
X911598Y573248D01*
X910582Y572232D01*
X911598D01*
X912614Y571216D01*
X862703D02*
X860671Y575280D01*
X864735D01*
X862703Y571216D01*
X898643Y619984D02*
Y624048D01*
X902707D01*
Y619984D01*
X898643D01*
X847841Y619986D02*
Y624050D01*
X851905D01*
Y619986D01*
X847841D01*
X822441D02*
Y624050D01*
X826505D01*
Y619986D01*
X822441D01*
X873241D02*
Y624050D01*
X877305D01*
Y619986D01*
X873241D01*
X779137Y691612D02*
Y690596D01*
X781169D01*
Y691612D01*
X782185D01*
Y693644D01*
X781169D01*
Y694660D01*
X779137D01*
Y693644D01*
X778121D01*
Y691612D01*
X779137D01*
X930521Y690596D02*
X931537D01*
X932553Y691612D01*
X933569Y690596D01*
X934585D01*
Y691612D01*
X933569Y692628D01*
X934585Y693644D01*
Y694660D01*
X933569D01*
X932553Y693644D01*
X931537Y694660D01*
X930521D01*
Y693644D01*
X931537Y692628D01*
X930521Y691612D01*
Y690596D01*
Y451836D02*
X931537D01*
X932553Y452852D01*
X933569Y451836D01*
X934585D01*
Y452852D01*
X933569Y453868D01*
X934585Y454884D01*
Y455900D01*
X933569D01*
X932553Y454884D01*
X931537Y455900D01*
X930521D01*
Y454884D01*
X931537Y453868D01*
X930521Y452852D01*
Y451836D01*
X779137Y452852D02*
Y451836D01*
X781169D01*
Y452852D01*
X782185D01*
Y454884D01*
X781169D01*
Y455900D01*
X779137D01*
Y454884D01*
X778121D01*
Y452852D01*
X779137D01*
X812793Y192756D02*
X813809Y193772D01*
X814825D01*
X813809Y194788D01*
X814825Y195804D01*
X813809D01*
X812793Y196820D01*
X811777Y195804D01*
X810761D01*
X811777Y194788D01*
X810761Y193772D01*
X811777D01*
X812793Y192756D01*
X912614D02*
X913630Y193772D01*
X914646D01*
X913630Y194788D01*
X914646Y195804D01*
X913630D01*
X912614Y196820D01*
X911598Y195804D01*
X910582D01*
X911598Y194788D01*
X910582Y193772D01*
X911598D01*
X912614Y192756D01*
X862703D02*
X860671Y196820D01*
X864735D01*
X862703Y192756D01*
X898643Y241524D02*
Y245588D01*
X902707D01*
Y241524D01*
X898643D01*
X847841Y241526D02*
Y245590D01*
X851905D01*
Y241526D01*
X847841D01*
X822441D02*
Y245590D01*
X826505D01*
Y241526D01*
X822441D01*
X873241D02*
Y245590D01*
X877305D01*
Y241526D01*
X873241D01*
X779137Y313152D02*
Y312136D01*
X781169D01*
Y313152D01*
X782185D01*
Y315184D01*
X781169D01*
Y316200D01*
X779137D01*
Y315184D01*
X778121D01*
Y313152D01*
X779137D01*
X930521Y312136D02*
X931537D01*
X932553Y313152D01*
X933569Y312136D01*
X934585D01*
Y313152D01*
X933569Y314168D01*
X934585Y315184D01*
Y316200D01*
X933569D01*
X932553Y315184D01*
X931537Y316200D01*
X930521D01*
Y315184D01*
X931537Y314168D01*
X930521Y313152D01*
Y312136D01*
Y73376D02*
X931537D01*
X932553Y74392D01*
X933569Y73376D01*
X934585D01*
Y74392D01*
X933569Y75408D01*
X934585Y76424D01*
Y77440D01*
X933569D01*
X932553Y76424D01*
X931537Y77440D01*
X930521D01*
Y76424D01*
X931537Y75408D01*
X930521Y74392D01*
Y73376D01*
X779137Y74392D02*
Y73376D01*
X781169D01*
Y74392D01*
X782185D01*
Y76424D01*
X781169D01*
Y77440D01*
X779137D01*
Y76424D01*
X778121D01*
Y74392D01*
X779137D01*
X400166Y146911D02*
Y150975D01*
X404230D01*
Y146911D01*
X400166D01*
X349366D02*
Y150975D01*
X353430D01*
Y146911D01*
X349366D01*
X374766D02*
Y150975D01*
X378830D01*
Y146911D01*
X374766D01*
X425568Y146909D02*
Y150973D01*
X429632D01*
Y146909D01*
X425568D01*
X389628Y98141D02*
X387596Y102205D01*
X391660D01*
X389628Y98141D01*
X439539D02*
X440555Y99157D01*
X441571D01*
X440555Y100173D01*
X441571Y101189D01*
X440555D01*
X439539Y102205D01*
X438523Y101189D01*
X437507D01*
X438523Y100173D01*
X437507Y99157D01*
X438523D01*
X439539Y98141D01*
X339718D02*
X340734Y99157D01*
X341750D01*
X340734Y100173D01*
X341750Y101189D01*
X340734D01*
X339718Y102205D01*
X338702Y101189D01*
X337686D01*
X338702Y100173D01*
X337686Y99157D01*
X338702D01*
X339718Y98141D01*
X268216Y28291D02*
X269232D01*
X270248Y29307D01*
X271264Y28291D01*
X272280D01*
Y29307D01*
X271264Y30323D01*
X272280Y31339D01*
Y32355D01*
X271264D01*
X270248Y31339D01*
X269232Y32355D01*
X268216D01*
Y31339D01*
X269232Y30323D01*
X268216Y29307D01*
Y28291D01*
X506976D02*
X507992D01*
X509008Y29307D01*
X510024Y28291D01*
X511040D01*
Y29307D01*
X510024Y30323D01*
X511040Y31339D01*
Y32355D01*
X510024D01*
X509008Y31339D01*
X507992Y32355D01*
X506976D01*
Y31339D01*
X507992Y30323D01*
X506976Y29307D01*
Y28291D01*
X269232Y181707D02*
Y180691D01*
X271264D01*
Y181707D01*
X272280D01*
Y183739D01*
X271264D01*
Y184755D01*
X269232D01*
Y183739D01*
X268216D01*
Y181707D01*
X269232D01*
X507992D02*
Y180691D01*
X510024D01*
Y181707D01*
X511040D01*
Y183739D01*
X510024D01*
Y184755D01*
X507992D01*
Y183739D01*
X506976D01*
Y181707D01*
X507992D01*
X116321Y146911D02*
Y150975D01*
X120385D01*
Y146911D01*
X116321D01*
X65521D02*
Y150975D01*
X69585D01*
Y146911D01*
X65521D01*
X90921D02*
Y150975D01*
X94985D01*
Y146911D01*
X90921D01*
X141723Y146909D02*
Y150973D01*
X145787D01*
Y146909D01*
X141723D01*
X105783Y98141D02*
X103751Y102205D01*
X107815D01*
X105783Y98141D01*
X155694D02*
X156710Y99157D01*
X157726D01*
X156710Y100173D01*
X157726Y101189D01*
X156710D01*
X155694Y102205D01*
X154678Y101189D01*
X153662D01*
X154678Y100173D01*
X153662Y99157D01*
X154678D01*
X155694Y98141D01*
X55873D02*
X56889Y99157D01*
X57905D01*
X56889Y100173D01*
X57905Y101189D01*
X56889D01*
X55873Y102205D01*
X54857Y101189D01*
X53841D01*
X54857Y100173D01*
X53841Y99157D01*
X54857D01*
X55873Y98141D01*
X116321Y336141D02*
Y340205D01*
X120385D01*
Y336141D01*
X116321D01*
X65521D02*
Y340205D01*
X69585D01*
Y336141D01*
X65521D01*
X90921D02*
Y340205D01*
X94985D01*
Y336141D01*
X90921D01*
X141723Y336139D02*
Y340203D01*
X145787D01*
Y336139D01*
X141723D01*
X105783Y287371D02*
X103751Y291435D01*
X107815D01*
X105783Y287371D01*
X155694D02*
X156710Y288387D01*
X157726D01*
X156710Y289403D01*
X157726Y290419D01*
X156710D01*
X155694Y291435D01*
X154678Y290419D01*
X153662D01*
X154678Y289403D01*
X153662Y288387D01*
X154678D01*
X155694Y287371D01*
X55873D02*
X56889Y288387D01*
X57905D01*
X56889Y289403D01*
X57905Y290419D01*
X56889D01*
X55873Y291435D01*
X54857Y290419D01*
X53841D01*
X54857Y289403D01*
X53841Y288387D01*
X54857D01*
X55873Y287371D01*
X116321Y525371D02*
Y529435D01*
X120385D01*
Y525371D01*
X116321D01*
X65521D02*
Y529435D01*
X69585D01*
Y525371D01*
X65521D01*
X90921D02*
Y529435D01*
X94985D01*
Y525371D01*
X90921D01*
X141723Y525369D02*
Y529433D01*
X145787D01*
Y525369D01*
X141723D01*
X105783Y476601D02*
X103751Y480665D01*
X107815D01*
X105783Y476601D01*
X155694D02*
X156710Y477617D01*
X157726D01*
X156710Y478633D01*
X157726Y479649D01*
X156710D01*
X155694Y480665D01*
X154678Y479649D01*
X153662D01*
X154678Y478633D01*
X153662Y477617D01*
X154678D01*
X155694Y476601D01*
X55873D02*
X56889Y477617D01*
X57905D01*
X56889Y478633D01*
X57905Y479649D01*
X56889D01*
X55873Y480665D01*
X54857Y479649D01*
X53841D01*
X54857Y478633D01*
X53841Y477617D01*
X54857D01*
X55873Y476601D01*
X116321Y714601D02*
Y718665D01*
X120385D01*
Y714601D01*
X116321D01*
X65521D02*
Y718665D01*
X69585D01*
Y714601D01*
X65521D01*
X90921D02*
Y718665D01*
X94985D01*
Y714601D01*
X90921D01*
X141723Y714599D02*
Y718663D01*
X145787D01*
Y714599D01*
X141723D01*
X105783Y665831D02*
X103751Y669895D01*
X107815D01*
X105783Y665831D01*
X155694D02*
X156710Y666847D01*
X157726D01*
X156710Y667863D01*
X157726Y668879D01*
X156710D01*
X155694Y669895D01*
X154678Y668879D01*
X153662D01*
X154678Y667863D01*
X153662Y666847D01*
X154678D01*
X155694Y665831D01*
X55873D02*
X56889Y666847D01*
X57905D01*
X56889Y667863D01*
X57905Y668879D01*
X56889D01*
X55873Y669895D01*
X54857Y668879D01*
X53841D01*
X54857Y667863D01*
X53841Y666847D01*
X54857D01*
X55873Y665831D01*
X116321Y903831D02*
Y907895D01*
X120385D01*
Y903831D01*
X116321D01*
X65521D02*
Y907895D01*
X69585D01*
Y903831D01*
X65521D01*
X90921D02*
Y907895D01*
X94985D01*
Y903831D01*
X90921D01*
X141723Y903829D02*
Y907893D01*
X145787D01*
Y903829D01*
X141723D01*
X105783Y855061D02*
X103751Y859125D01*
X107815D01*
X105783Y855061D01*
X155694D02*
X156710Y856077D01*
X157726D01*
X156710Y857093D01*
X157726Y858109D01*
X156710D01*
X155694Y859125D01*
X154678Y858109D01*
X153662D01*
X154678Y857093D01*
X153662Y856077D01*
X154678D01*
X155694Y855061D01*
X55873D02*
X56889Y856077D01*
X57905D01*
X56889Y857093D01*
X57905Y858109D01*
X56889D01*
X55873Y859125D01*
X54857Y858109D01*
X53841D01*
X54857Y857093D01*
X53841Y856077D01*
X54857D01*
X55873Y855061D01*
X116321Y1093061D02*
Y1097125D01*
X120385D01*
Y1093061D01*
X116321D01*
X65521D02*
Y1097125D01*
X69585D01*
Y1093061D01*
X65521D01*
X90921D02*
Y1097125D01*
X94985D01*
Y1093061D01*
X90921D01*
X141723Y1093059D02*
Y1097123D01*
X145787D01*
Y1093059D01*
X141723D01*
X105783Y1044291D02*
X103751Y1048355D01*
X107815D01*
X105783Y1044291D01*
X155694D02*
X156710Y1045307D01*
X157726D01*
X156710Y1046323D01*
X157726Y1047339D01*
X156710D01*
X155694Y1048355D01*
X154678Y1047339D01*
X153662D01*
X154678Y1046323D01*
X153662Y1045307D01*
X154678D01*
X155694Y1044291D01*
X55873D02*
X56889Y1045307D01*
X57905D01*
X56889Y1046323D01*
X57905Y1047339D01*
X56889D01*
X55873Y1048355D01*
X54857Y1047339D01*
X53841D01*
X54857Y1046323D01*
X53841Y1045307D01*
X54857D01*
X55873Y1044291D01*
X737870Y1199388D02*
X735838Y1203452D01*
X739902D01*
X737870Y1199388D01*
Y1200404D02*
X736854Y1202436D01*
X738886D01*
X737870Y1200404D01*
X725170Y1199388D02*
X723138Y1203452D01*
X727202D01*
X725170Y1199388D01*
Y1200404D02*
X724154Y1202436D01*
X726186D01*
X725170Y1200404D01*
X712470Y1199388D02*
X710438Y1203452D01*
X714502D01*
X712470Y1199388D01*
Y1200404D02*
X711454Y1202436D01*
X713486D01*
X712470Y1200404D01*
X699770Y1199388D02*
X697738Y1203452D01*
X701802D01*
X699770Y1199388D01*
Y1200404D02*
X698754Y1202436D01*
X700786D01*
X699770Y1200404D01*
X687070Y1199388D02*
X685038Y1203452D01*
X689102D01*
X687070Y1199388D01*
Y1200404D02*
X686054Y1202436D01*
X688086D01*
X687070Y1200404D01*
X674370Y1199388D02*
X672338Y1203452D01*
X676402D01*
X674370Y1199388D01*
Y1200404D02*
X673354Y1202436D01*
X675386D01*
X674370Y1200404D01*
X661670Y1199388D02*
X659638Y1203452D01*
X663702D01*
X661670Y1199388D01*
Y1200404D02*
X660654Y1202436D01*
X662686D01*
X661670Y1200404D01*
X648970Y1199388D02*
X646938Y1203452D01*
X651002D01*
X648970Y1199388D01*
Y1200404D02*
X647954Y1202436D01*
X649986D01*
X648970Y1200404D01*
X636270Y1199388D02*
X634238Y1203452D01*
X638302D01*
X636270Y1199388D01*
Y1200404D02*
X635254Y1202436D01*
X637286D01*
X636270Y1200404D01*
X623570Y1199388D02*
X621538Y1203452D01*
X625602D01*
X623570Y1199388D01*
Y1200404D02*
X622554Y1202436D01*
X624586D01*
X623570Y1200404D01*
X610870Y1199388D02*
X608838Y1203452D01*
X612902D01*
X610870Y1199388D01*
Y1200404D02*
X609854Y1202436D01*
X611886D01*
X610870Y1200404D01*
X598170Y1199388D02*
X596138Y1203452D01*
X600202D01*
X598170Y1199388D01*
Y1200404D02*
X597154Y1202436D01*
X599186D01*
X598170Y1200404D01*
X585470Y1199388D02*
X583438Y1203452D01*
X587502D01*
X585470Y1199388D01*
Y1200404D02*
X584454Y1202436D01*
X586486D01*
X585470Y1200404D01*
X572770Y1199388D02*
X570738Y1203452D01*
X574802D01*
X572770Y1199388D01*
Y1200404D02*
X571754Y1202436D01*
X573786D01*
X572770Y1200404D01*
X560070Y1199388D02*
X558038Y1203452D01*
X562102D01*
X560070Y1199388D01*
Y1200404D02*
X559054Y1202436D01*
X561086D01*
X560070Y1200404D01*
X547370Y1199388D02*
X545338Y1203452D01*
X549402D01*
X547370Y1199388D01*
Y1200404D02*
X546354Y1202436D01*
X548386D01*
X547370Y1200404D01*
X534670Y1199388D02*
X532638Y1203452D01*
X536702D01*
X534670Y1199388D01*
Y1200404D02*
X533654Y1202436D01*
X535686D01*
X534670Y1200404D01*
X521970Y1199388D02*
X519938Y1203452D01*
X524002D01*
X521970Y1199388D01*
Y1200404D02*
X520954Y1202436D01*
X522986D01*
X521970Y1200404D01*
X509270Y1199388D02*
X507238Y1203452D01*
X511302D01*
X509270Y1199388D01*
Y1200404D02*
X508254Y1202436D01*
X510286D01*
X509270Y1200404D01*
X496570Y1199388D02*
X494538Y1203452D01*
X498602D01*
X496570Y1199388D01*
Y1200404D02*
X495554Y1202436D01*
X497586D01*
X496570Y1200404D01*
X435610Y1199388D02*
X433578Y1203452D01*
X437642D01*
X435610Y1199388D01*
Y1200404D02*
X434594Y1202436D01*
X436626D01*
X435610Y1200404D01*
X422910Y1199388D02*
X420878Y1203452D01*
X424942D01*
X422910Y1199388D01*
Y1200404D02*
X421894Y1202436D01*
X423926D01*
X422910Y1200404D01*
X410210Y1199388D02*
X408178Y1203452D01*
X412242D01*
X410210Y1199388D01*
Y1200404D02*
X409194Y1202436D01*
X411226D01*
X410210Y1200404D01*
X397510Y1199388D02*
X395478Y1203452D01*
X399542D01*
X397510Y1199388D01*
Y1200404D02*
X396494Y1202436D01*
X398526D01*
X397510Y1200404D01*
X384810Y1199388D02*
X382778Y1203452D01*
X386842D01*
X384810Y1199388D01*
Y1200404D02*
X383794Y1202436D01*
X385826D01*
X384810Y1200404D01*
X372110Y1199388D02*
X370078Y1203452D01*
X374142D01*
X372110Y1199388D01*
Y1200404D02*
X371094Y1202436D01*
X373126D01*
X372110Y1200404D01*
X359410Y1199388D02*
X357378Y1203452D01*
X361442D01*
X359410Y1199388D01*
Y1200404D02*
X358394Y1202436D01*
X360426D01*
X359410Y1200404D01*
X346710Y1199388D02*
X344678Y1203452D01*
X348742D01*
X346710Y1199388D01*
Y1200404D02*
X345694Y1202436D01*
X347726D01*
X346710Y1200404D01*
X334010Y1199388D02*
X331978Y1203452D01*
X336042D01*
X334010Y1199388D01*
Y1200404D02*
X332994Y1202436D01*
X335026D01*
X334010Y1200404D01*
X321310Y1199388D02*
X319278Y1203452D01*
X323342D01*
X321310Y1199388D01*
Y1200404D02*
X320294Y1202436D01*
X322326D01*
X321310Y1200404D01*
X308610Y1199388D02*
X306578Y1203452D01*
X310642D01*
X308610Y1199388D01*
Y1200404D02*
X307594Y1202436D01*
X309626D01*
X308610Y1200404D01*
X295910Y1199388D02*
X293878Y1203452D01*
X297942D01*
X295910Y1199388D01*
Y1200404D02*
X294894Y1202436D01*
X296926D01*
X295910Y1200404D01*
X283210Y1199388D02*
X281178Y1203452D01*
X285242D01*
X283210Y1199388D01*
Y1200404D02*
X282194Y1202436D01*
X284226D01*
X283210Y1200404D01*
X270510Y1199388D02*
X268478Y1203452D01*
X272542D01*
X270510Y1199388D01*
Y1200404D02*
X269494Y1202436D01*
X271526D01*
X270510Y1200404D01*
X257810Y1199388D02*
X255778Y1203452D01*
X259842D01*
X257810Y1199388D01*
Y1200404D02*
X256794Y1202436D01*
X258826D01*
X257810Y1200404D01*
X245110Y1199388D02*
X243078Y1203452D01*
X247142D01*
X245110Y1199388D01*
Y1200404D02*
X244094Y1202436D01*
X246126D01*
X245110Y1200404D01*
X232410Y1199388D02*
X230378Y1203452D01*
X234442D01*
X232410Y1199388D01*
Y1200404D02*
X231394Y1202436D01*
X233426D01*
X232410Y1200404D01*
X219710Y1199388D02*
X217678Y1203452D01*
X221742D01*
X219710Y1199388D01*
Y1200404D02*
X218694Y1202436D01*
X220726D01*
X219710Y1200404D01*
X207010Y1199388D02*
X204978Y1203452D01*
X209042D01*
X207010Y1199388D01*
Y1200404D02*
X205994Y1202436D01*
X208026D01*
X207010Y1200404D01*
X194310Y1199388D02*
X192278Y1203452D01*
X196342D01*
X194310Y1199388D01*
Y1200404D02*
X193294Y1202436D01*
X195326D01*
X194310Y1200404D01*
X23868Y1268530D02*
X25900Y1270562D01*
X27932Y1268530D01*
X25900Y1266498D01*
X23868Y1268530D01*
Y1293930D02*
X25900Y1295962D01*
X27932Y1293930D01*
X25900Y1291898D01*
X23868Y1293930D01*
Y1319330D02*
X25900Y1321362D01*
X27932Y1319330D01*
X25900Y1317298D01*
X23868Y1319330D01*
Y1344730D02*
X25900Y1346762D01*
X27932Y1344730D01*
X25900Y1342698D01*
X23868Y1344730D01*
Y1370130D02*
X25900Y1372162D01*
X27932Y1370130D01*
X25900Y1368098D01*
X23868Y1370130D01*
Y1395530D02*
X25900Y1397562D01*
X27932Y1395530D01*
X25900Y1393498D01*
X23868Y1395530D01*
Y1420930D02*
X25900Y1422962D01*
X27932Y1420930D01*
X25900Y1418898D01*
X23868Y1420930D01*
Y1446330D02*
X25900Y1448362D01*
X27932Y1446330D01*
X25900Y1444298D01*
X23868Y1446330D01*
Y1471730D02*
X25900Y1473762D01*
X27932Y1471730D01*
X25900Y1469698D01*
X23868Y1471730D01*
Y1497130D02*
X25900Y1499162D01*
X27932Y1497130D01*
X25900Y1495098D01*
X23868Y1497130D01*
Y1522530D02*
X25900Y1524562D01*
X27932Y1522530D01*
X25900Y1520498D01*
X23868Y1522530D01*
Y1547930D02*
X25900Y1549962D01*
X27932Y1547930D01*
X25900Y1545898D01*
X23868Y1547930D01*
Y1573330D02*
X25900Y1575362D01*
X27932Y1573330D01*
X25900Y1571298D01*
X23868Y1573330D01*
Y1598730D02*
X25900Y1600762D01*
X27932Y1598730D01*
X25900Y1596698D01*
X23868Y1598730D01*
Y1624130D02*
X25900Y1626162D01*
X27932Y1624130D01*
X25900Y1622098D01*
X23868Y1624130D01*
Y1649530D02*
X25900Y1651562D01*
X27932Y1649530D01*
X25900Y1647498D01*
X23868Y1649530D01*
Y1674930D02*
X25900Y1676962D01*
X27932Y1674930D01*
X25900Y1672898D01*
X23868Y1674930D01*
X940554Y1268530D02*
X942586Y1270562D01*
X944618Y1268530D01*
X942586Y1266498D01*
X940554Y1268530D01*
Y1751130D02*
X942586Y1753162D01*
X944618Y1751130D01*
X942586Y1749098D01*
X940554Y1751130D01*
X23868Y1700330D02*
X25900Y1702362D01*
X27932Y1700330D01*
X25900Y1698298D01*
X23868Y1700330D01*
Y1725730D02*
X25900Y1727762D01*
X27932Y1725730D01*
X25900Y1723698D01*
X23868Y1725730D01*
Y1751130D02*
X25900Y1753162D01*
X27932Y1751130D01*
X25900Y1749098D01*
X23868Y1751130D01*
X623563Y1044291D02*
X624579Y1045307D01*
X625595D01*
X624579Y1046323D01*
X625595Y1047339D01*
X624579D01*
X623563Y1048355D01*
X622547Y1047339D01*
X621531D01*
X622547Y1046323D01*
X621531Y1045307D01*
X622547D01*
X623563Y1044291D01*
X723384D02*
X724400Y1045307D01*
X725416D01*
X724400Y1046323D01*
X725416Y1047339D01*
X724400D01*
X723384Y1048355D01*
X722368Y1047339D01*
X721352D01*
X722368Y1046323D01*
X721352Y1045307D01*
X722368D01*
X723384Y1044291D01*
X673473D02*
X671441Y1048355D01*
X675505D01*
X673473Y1044291D01*
X709413Y1093059D02*
Y1097123D01*
X713477D01*
Y1093059D01*
X709413D01*
X658611Y1093061D02*
Y1097125D01*
X662675D01*
Y1093061D01*
X658611D01*
X633211D02*
Y1097125D01*
X637275D01*
Y1093061D01*
X633211D01*
X684011D02*
Y1097125D01*
X688075D01*
Y1093061D01*
X684011D01*
X434333Y287371D02*
X435349Y288387D01*
X436365D01*
X435349Y289403D01*
X436365Y290419D01*
X435349D01*
X434333Y291435D01*
X433317Y290419D01*
X432301D01*
X433317Y289403D01*
X432301Y288387D01*
X433317D01*
X434333Y287371D01*
X534154D02*
X535170Y288387D01*
X536186D01*
X535170Y289403D01*
X536186Y290419D01*
X535170D01*
X534154Y291435D01*
X533138Y290419D01*
X532122D01*
X533138Y289403D01*
X532122Y288387D01*
X533138D01*
X534154Y287371D01*
X484243D02*
X482211Y291435D01*
X486275D01*
X484243Y287371D01*
X520183Y336139D02*
Y340203D01*
X524247D01*
Y336139D01*
X520183D01*
X469381Y336141D02*
Y340205D01*
X473445D01*
Y336141D01*
X469381D01*
X443981D02*
Y340205D01*
X448045D01*
Y336141D01*
X443981D01*
X494781D02*
Y340205D01*
X498845D01*
Y336141D01*
X494781D01*
X623563Y98141D02*
X624579Y99157D01*
X625595D01*
X624579Y100173D01*
X625595Y101189D01*
X624579D01*
X623563Y102205D01*
X622547Y101189D01*
X621531D01*
X622547Y100173D01*
X621531Y99157D01*
X622547D01*
X623563Y98141D01*
X723384D02*
X724400Y99157D01*
X725416D01*
X724400Y100173D01*
X725416Y101189D01*
X724400D01*
X723384Y102205D01*
X722368Y101189D01*
X721352D01*
X722368Y100173D01*
X721352Y99157D01*
X722368D01*
X723384Y98141D01*
X673473D02*
X671441Y102205D01*
X675505D01*
X673473Y98141D01*
X709413Y146909D02*
Y150973D01*
X713477D01*
Y146909D01*
X709413D01*
X658611Y146911D02*
Y150975D01*
X662675D01*
Y146911D01*
X658611D01*
X633211D02*
Y150975D01*
X637275D01*
Y146911D01*
X633211D01*
X684011D02*
Y150975D01*
X688075D01*
Y146911D01*
X684011D01*
X623563Y287371D02*
X624579Y288387D01*
X625595D01*
X624579Y289403D01*
X625595Y290419D01*
X624579D01*
X623563Y291435D01*
X622547Y290419D01*
X621531D01*
X622547Y289403D01*
X621531Y288387D01*
X622547D01*
X623563Y287371D01*
X723384D02*
X724400Y288387D01*
X725416D01*
X724400Y289403D01*
X725416Y290419D01*
X724400D01*
X723384Y291435D01*
X722368Y290419D01*
X721352D01*
X722368Y289403D01*
X721352Y288387D01*
X722368D01*
X723384Y287371D01*
X673473D02*
X671441Y291435D01*
X675505D01*
X673473Y287371D01*
X709413Y336139D02*
Y340203D01*
X713477D01*
Y336139D01*
X709413D01*
X658611Y336141D02*
Y340205D01*
X662675D01*
Y336141D01*
X658611D01*
X633211D02*
Y340205D01*
X637275D01*
Y336141D01*
X633211D01*
X684011D02*
Y340205D01*
X688075D01*
Y336141D01*
X684011D01*
X623563Y476601D02*
X624579Y477617D01*
X625595D01*
X624579Y478633D01*
X625595Y479649D01*
X624579D01*
X623563Y480665D01*
X622547Y479649D01*
X621531D01*
X622547Y478633D01*
X621531Y477617D01*
X622547D01*
X623563Y476601D01*
X723384D02*
X724400Y477617D01*
X725416D01*
X724400Y478633D01*
X725416Y479649D01*
X724400D01*
X723384Y480665D01*
X722368Y479649D01*
X721352D01*
X722368Y478633D01*
X721352Y477617D01*
X722368D01*
X723384Y476601D01*
X673473D02*
X671441Y480665D01*
X675505D01*
X673473Y476601D01*
X709413Y525369D02*
Y529433D01*
X713477D01*
Y525369D01*
X709413D01*
X658611Y525371D02*
Y529435D01*
X662675D01*
Y525371D01*
X658611D01*
X633211D02*
Y529435D01*
X637275D01*
Y525371D01*
X633211D01*
X684011D02*
Y529435D01*
X688075D01*
Y525371D01*
X684011D01*
X434333Y855061D02*
X435349Y856077D01*
X436365D01*
X435349Y857093D01*
X436365Y858109D01*
X435349D01*
X434333Y859125D01*
X433317Y858109D01*
X432301D01*
X433317Y857093D01*
X432301Y856077D01*
X433317D01*
X434333Y855061D01*
X534154D02*
X535170Y856077D01*
X536186D01*
X535170Y857093D01*
X536186Y858109D01*
X535170D01*
X534154Y859125D01*
X533138Y858109D01*
X532122D01*
X533138Y857093D01*
X532122Y856077D01*
X533138D01*
X534154Y855061D01*
X484243D02*
X482211Y859125D01*
X486275D01*
X484243Y855061D01*
X520183Y903829D02*
Y907893D01*
X524247D01*
Y903829D01*
X520183D01*
X469381Y903831D02*
Y907895D01*
X473445D01*
Y903831D01*
X469381D01*
X443981D02*
Y907895D01*
X448045D01*
Y903831D01*
X443981D01*
X494781D02*
Y907895D01*
X498845D01*
Y903831D01*
X494781D01*
X434333Y1044291D02*
X435349Y1045307D01*
X436365D01*
X435349Y1046323D01*
X436365Y1047339D01*
X435349D01*
X434333Y1048355D01*
X433317Y1047339D01*
X432301D01*
X433317Y1046323D01*
X432301Y1045307D01*
X433317D01*
X434333Y1044291D01*
X534154D02*
X535170Y1045307D01*
X536186D01*
X535170Y1046323D01*
X536186Y1047339D01*
X535170D01*
X534154Y1048355D01*
X533138Y1047339D01*
X532122D01*
X533138Y1046323D01*
X532122Y1045307D01*
X533138D01*
X534154Y1044291D01*
X484243D02*
X482211Y1048355D01*
X486275D01*
X484243Y1044291D01*
X520183Y1093059D02*
Y1097123D01*
X524247D01*
Y1093059D01*
X520183D01*
X469381Y1093061D02*
Y1097125D01*
X473445D01*
Y1093061D01*
X469381D01*
X443981D02*
Y1097125D01*
X448045D01*
Y1093061D01*
X443981D01*
X494781D02*
Y1097125D01*
X498845D01*
Y1093061D01*
X494781D01*
X623563Y855061D02*
X624579Y856077D01*
X625595D01*
X624579Y857093D01*
X625595Y858109D01*
X624579D01*
X623563Y859125D01*
X622547Y858109D01*
X621531D01*
X622547Y857093D01*
X621531Y856077D01*
X622547D01*
X623563Y855061D01*
X723384D02*
X724400Y856077D01*
X725416D01*
X724400Y857093D01*
X725416Y858109D01*
X724400D01*
X723384Y859125D01*
X722368Y858109D01*
X721352D01*
X722368Y857093D01*
X721352Y856077D01*
X722368D01*
X723384Y855061D01*
X673473D02*
X671441Y859125D01*
X675505D01*
X673473Y855061D01*
X709413Y903829D02*
Y907893D01*
X713477D01*
Y903829D01*
X709413D01*
X658611Y903831D02*
Y907895D01*
X662675D01*
Y903831D01*
X658611D01*
X633211D02*
Y907895D01*
X637275D01*
Y903831D01*
X633211D01*
X684011D02*
Y907895D01*
X688075D01*
Y903831D01*
X684011D01*
X623563Y665831D02*
X624579Y666847D01*
X625595D01*
X624579Y667863D01*
X625595Y668879D01*
X624579D01*
X623563Y669895D01*
X622547Y668879D01*
X621531D01*
X622547Y667863D01*
X621531Y666847D01*
X622547D01*
X623563Y665831D01*
X723384D02*
X724400Y666847D01*
X725416D01*
X724400Y667863D01*
X725416Y668879D01*
X724400D01*
X723384Y669895D01*
X722368Y668879D01*
X721352D01*
X722368Y667863D01*
X721352Y666847D01*
X722368D01*
X723384Y665831D01*
X673473D02*
X671441Y669895D01*
X675505D01*
X673473Y665831D01*
X709413Y714599D02*
Y718663D01*
X713477D01*
Y714599D01*
X709413D01*
X658611Y714601D02*
Y718665D01*
X662675D01*
Y714601D01*
X658611D01*
X633211D02*
Y718665D01*
X637275D01*
Y714601D01*
X633211D01*
X684011D02*
Y718665D01*
X688075D01*
Y714601D01*
X684011D01*
X434333Y665831D02*
X435349Y666847D01*
X436365D01*
X435349Y667863D01*
X436365Y668879D01*
X435349D01*
X434333Y669895D01*
X433317Y668879D01*
X432301D01*
X433317Y667863D01*
X432301Y666847D01*
X433317D01*
X434333Y665831D01*
X534154D02*
X535170Y666847D01*
X536186D01*
X535170Y667863D01*
X536186Y668879D01*
X535170D01*
X534154Y669895D01*
X533138Y668879D01*
X532122D01*
X533138Y667863D01*
X532122Y666847D01*
X533138D01*
X534154Y665831D01*
X484243D02*
X482211Y669895D01*
X486275D01*
X484243Y665831D01*
X520183Y714599D02*
Y718663D01*
X524247D01*
Y714599D01*
X520183D01*
X469381Y714601D02*
Y718665D01*
X473445D01*
Y714601D01*
X469381D01*
X443981D02*
Y718665D01*
X448045D01*
Y714601D01*
X443981D01*
X494781D02*
Y718665D01*
X498845D01*
Y714601D01*
X494781D01*
X434333Y476601D02*
X435349Y477617D01*
X436365D01*
X435349Y478633D01*
X436365Y479649D01*
X435349D01*
X434333Y480665D01*
X433317Y479649D01*
X432301D01*
X433317Y478633D01*
X432301Y477617D01*
X433317D01*
X434333Y476601D01*
X534154D02*
X535170Y477617D01*
X536186D01*
X535170Y478633D01*
X536186Y479649D01*
X535170D01*
X534154Y480665D01*
X533138Y479649D01*
X532122D01*
X533138Y478633D01*
X532122Y477617D01*
X533138D01*
X534154Y476601D01*
X484243D02*
X482211Y480665D01*
X486275D01*
X484243Y476601D01*
X520183Y525369D02*
Y529433D01*
X524247D01*
Y525369D01*
X520183D01*
X469381Y525371D02*
Y529435D01*
X473445D01*
Y525371D01*
X469381D01*
X443981D02*
Y529435D01*
X448045D01*
Y525371D01*
X443981D01*
X494781D02*
Y529435D01*
X498845D01*
Y525371D01*
X494781D01*
X812793Y855061D02*
X813809Y856077D01*
X814825D01*
X813809Y857093D01*
X814825Y858109D01*
X813809D01*
X812793Y859125D01*
X811777Y858109D01*
X810761D01*
X811777Y857093D01*
X810761Y856077D01*
X811777D01*
X812793Y855061D01*
X912614D02*
X913630Y856077D01*
X914646D01*
X913630Y857093D01*
X914646Y858109D01*
X913630D01*
X912614Y859125D01*
X911598Y858109D01*
X910582D01*
X911598Y857093D01*
X910582Y856077D01*
X911598D01*
X912614Y855061D01*
X862703D02*
X860671Y859125D01*
X864735D01*
X862703Y855061D01*
X898643Y903829D02*
Y907893D01*
X902707D01*
Y903829D01*
X898643D01*
X847841Y903831D02*
Y907895D01*
X851905D01*
Y903831D01*
X847841D01*
X822441D02*
Y907895D01*
X826505D01*
Y903831D01*
X822441D01*
X873241D02*
Y907895D01*
X877305D01*
Y903831D01*
X873241D01*
X245103Y665831D02*
X246119Y666847D01*
X247135D01*
X246119Y667863D01*
X247135Y668879D01*
X246119D01*
X245103Y669895D01*
X244087Y668879D01*
X243071D01*
X244087Y667863D01*
X243071Y666847D01*
X244087D01*
X245103Y665831D01*
X344924D02*
X345940Y666847D01*
X346956D01*
X345940Y667863D01*
X346956Y668879D01*
X345940D01*
X344924Y669895D01*
X343908Y668879D01*
X342892D01*
X343908Y667863D01*
X342892Y666847D01*
X343908D01*
X344924Y665831D01*
X295013D02*
X292981Y669895D01*
X297045D01*
X295013Y665831D01*
X330953Y714599D02*
Y718663D01*
X335017D01*
Y714599D01*
X330953D01*
X280151Y714601D02*
Y718665D01*
X284215D01*
Y714601D01*
X280151D01*
X254751D02*
Y718665D01*
X258815D01*
Y714601D01*
X254751D01*
X305551D02*
Y718665D01*
X309615D01*
Y714601D01*
X305551D01*
X245103Y476601D02*
X246119Y477617D01*
X247135D01*
X246119Y478633D01*
X247135Y479649D01*
X246119D01*
X245103Y480665D01*
X244087Y479649D01*
X243071D01*
X244087Y478633D01*
X243071Y477617D01*
X244087D01*
X245103Y476601D01*
X344924D02*
X345940Y477617D01*
X346956D01*
X345940Y478633D01*
X346956Y479649D01*
X345940D01*
X344924Y480665D01*
X343908Y479649D01*
X342892D01*
X343908Y478633D01*
X342892Y477617D01*
X343908D01*
X344924Y476601D01*
X295013D02*
X292981Y480665D01*
X297045D01*
X295013Y476601D01*
X330953Y525369D02*
Y529433D01*
X335017D01*
Y525369D01*
X330953D01*
X280151Y525371D02*
Y529435D01*
X284215D01*
Y525371D01*
X280151D01*
X254751D02*
Y529435D01*
X258815D01*
Y525371D01*
X254751D01*
X305551D02*
Y529435D01*
X309615D01*
Y525371D01*
X305551D01*
X245103Y1044291D02*
X246119Y1045307D01*
X247135D01*
X246119Y1046323D01*
X247135Y1047339D01*
X246119D01*
X245103Y1048355D01*
X244087Y1047339D01*
X243071D01*
X244087Y1046323D01*
X243071Y1045307D01*
X244087D01*
X245103Y1044291D01*
X344924D02*
X345940Y1045307D01*
X346956D01*
X345940Y1046323D01*
X346956Y1047339D01*
X345940D01*
X344924Y1048355D01*
X343908Y1047339D01*
X342892D01*
X343908Y1046323D01*
X342892Y1045307D01*
X343908D01*
X344924Y1044291D01*
X295013D02*
X292981Y1048355D01*
X297045D01*
X295013Y1044291D01*
X330953Y1093059D02*
Y1097123D01*
X335017D01*
Y1093059D01*
X330953D01*
X280151Y1093061D02*
Y1097125D01*
X284215D01*
Y1093061D01*
X280151D01*
X254751D02*
Y1097125D01*
X258815D01*
Y1093061D01*
X254751D01*
X305551D02*
Y1097125D01*
X309615D01*
Y1093061D01*
X305551D01*
X245103Y287371D02*
X246119Y288387D01*
X247135D01*
X246119Y289403D01*
X247135Y290419D01*
X246119D01*
X245103Y291435D01*
X244087Y290419D01*
X243071D01*
X244087Y289403D01*
X243071Y288387D01*
X244087D01*
X245103Y287371D01*
X344924D02*
X345940Y288387D01*
X346956D01*
X345940Y289403D01*
X346956Y290419D01*
X345940D01*
X344924Y291435D01*
X343908Y290419D01*
X342892D01*
X343908Y289403D01*
X342892Y288387D01*
X343908D01*
X344924Y287371D01*
X295013D02*
X292981Y291435D01*
X297045D01*
X295013Y287371D01*
X330953Y336139D02*
Y340203D01*
X335017D01*
Y336139D01*
X330953D01*
X280151Y336141D02*
Y340205D01*
X284215D01*
Y336141D01*
X280151D01*
X254751D02*
Y340205D01*
X258815D01*
Y336141D01*
X254751D01*
X305551D02*
Y340205D01*
X309615D01*
Y336141D01*
X305551D01*
X245103Y855061D02*
X246119Y856077D01*
X247135D01*
X246119Y857093D01*
X247135Y858109D01*
X246119D01*
X245103Y859125D01*
X244087Y858109D01*
X243071D01*
X244087Y857093D01*
X243071Y856077D01*
X244087D01*
X245103Y855061D01*
X344924D02*
X345940Y856077D01*
X346956D01*
X345940Y857093D01*
X346956Y858109D01*
X345940D01*
X344924Y859125D01*
X343908Y858109D01*
X342892D01*
X343908Y857093D01*
X342892Y856077D01*
X343908D01*
X344924Y855061D01*
X295013D02*
X292981Y859125D01*
X297045D01*
X295013Y855061D01*
X330953Y903829D02*
Y907893D01*
X335017D01*
Y903829D01*
X330953D01*
X280151Y903831D02*
Y907895D01*
X284215D01*
Y903831D01*
X280151D01*
X254751D02*
Y907895D01*
X258815D01*
Y903831D01*
X254751D01*
X305551D02*
Y907895D01*
X309615D01*
Y903831D01*
X305551D01*
D54*
X840225Y996031D02*
G03*
X840225Y996031I-2032J0D01*
G01*
X901945Y1019401D02*
G03*
X901945Y1019401I-2032J0D01*
G01*
Y546326D02*
G03*
X901945Y546326I-2032J0D01*
G01*
X840225Y522956D02*
G03*
X840225Y522956I-2032J0D01*
G01*
X901945Y167866D02*
G03*
X901945Y167866I-2032J0D01*
G01*
X840225Y144496D02*
G03*
X840225Y144496I-2032J0D01*
G01*
X367150Y49881D02*
G03*
X367150Y49881I-2032J0D01*
G01*
X428870Y73251D02*
G03*
X428870Y73251I-2032J0D01*
G01*
X83305Y49881D02*
G03*
X83305Y49881I-2032J0D01*
G01*
X145025Y73251D02*
G03*
X145025Y73251I-2032J0D01*
G01*
X83305Y239111D02*
G03*
X83305Y239111I-2032J0D01*
G01*
X145025Y262481D02*
G03*
X145025Y262481I-2032J0D01*
G01*
X83305Y428341D02*
G03*
X83305Y428341I-2032J0D01*
G01*
X145025Y451711D02*
G03*
X145025Y451711I-2032J0D01*
G01*
X83305Y617571D02*
G03*
X83305Y617571I-2032J0D01*
G01*
X145025Y640941D02*
G03*
X145025Y640941I-2032J0D01*
G01*
X83305Y806801D02*
G03*
X83305Y806801I-2032J0D01*
G01*
X145025Y830171D02*
G03*
X145025Y830171I-2032J0D01*
G01*
X83305Y996031D02*
G03*
X83305Y996031I-2032J0D01*
G01*
X145025Y1019401D02*
G03*
X145025Y1019401I-2032J0D01*
G01*
X712715D02*
G03*
X712715Y1019401I-2032J0D01*
G01*
X650995Y996031D02*
G03*
X650995Y996031I-2032J0D01*
G01*
X523485Y262481D02*
G03*
X523485Y262481I-2032J0D01*
G01*
X461765Y239111D02*
G03*
X461765Y239111I-2032J0D01*
G01*
X712715Y73251D02*
G03*
X712715Y73251I-2032J0D01*
G01*
X650995Y49881D02*
G03*
X650995Y49881I-2032J0D01*
G01*
X712715Y262481D02*
G03*
X712715Y262481I-2032J0D01*
G01*
X650995Y239111D02*
G03*
X650995Y239111I-2032J0D01*
G01*
X712715Y451711D02*
G03*
X712715Y451711I-2032J0D01*
G01*
X650995Y428341D02*
G03*
X650995Y428341I-2032J0D01*
G01*
X523485Y830171D02*
G03*
X523485Y830171I-2032J0D01*
G01*
X461765Y806801D02*
G03*
X461765Y806801I-2032J0D01*
G01*
X523485Y1019401D02*
G03*
X523485Y1019401I-2032J0D01*
G01*
X461765Y996031D02*
G03*
X461765Y996031I-2032J0D01*
G01*
X712715Y830171D02*
G03*
X712715Y830171I-2032J0D01*
G01*
X650995Y806801D02*
G03*
X650995Y806801I-2032J0D01*
G01*
X712715Y640941D02*
G03*
X712715Y640941I-2032J0D01*
G01*
X650995Y617571D02*
G03*
X650995Y617571I-2032J0D01*
G01*
X523485Y640941D02*
G03*
X523485Y640941I-2032J0D01*
G01*
X461765Y617571D02*
G03*
X461765Y617571I-2032J0D01*
G01*
X523485Y451711D02*
G03*
X523485Y451711I-2032J0D01*
G01*
X461765Y428341D02*
G03*
X461765Y428341I-2032J0D01*
G01*
X901945Y830171D02*
G03*
X901945Y830171I-2032J0D01*
G01*
X840225Y806801D02*
G03*
X840225Y806801I-2032J0D01*
G01*
X334255Y640941D02*
G03*
X334255Y640941I-2032J0D01*
G01*
X272535Y617571D02*
G03*
X272535Y617571I-2032J0D01*
G01*
X334255Y451711D02*
G03*
X334255Y451711I-2032J0D01*
G01*
X272535Y428341D02*
G03*
X272535Y428341I-2032J0D01*
G01*
X334255Y1019401D02*
G03*
X334255Y1019401I-2032J0D01*
G01*
X272535Y996031D02*
G03*
X272535Y996031I-2032J0D01*
G01*
X334255Y262481D02*
G03*
X334255Y262481I-2032J0D01*
G01*
X272535Y239111D02*
G03*
X272535Y239111I-2032J0D01*
G01*
X334255Y830171D02*
G03*
X334255Y830171I-2032J0D01*
G01*
X272535Y806801D02*
G03*
X272535Y806801I-2032J0D01*
G01*
X958342Y386080D02*
G03*
X958342Y386080I-2032J0D01*
G01*
X959612Y651510D02*
G03*
X959612Y651510I-2032J0D01*
G01*
X856742Y1515110D02*
G03*
X856742Y1515110I-2032J0D01*
G01*
Y1602740D02*
G03*
X856742Y1602740I-2032J0D01*
G01*
Y1677670D02*
G03*
X856742Y1677670I-2032J0D01*
G01*
X858012Y1775460D02*
G03*
X858012Y1775460I-2032J0D01*
G01*
X955802D02*
G03*
X955802Y1775460I-2032J0D01*
G01*
Y1677670D02*
G03*
X955802Y1677670I-2032J0D01*
G01*
Y1601470D02*
G03*
X955802Y1601470I-2032J0D01*
G01*
Y1515110D02*
G03*
X955802Y1515110I-2032J0D01*
G01*
Y1443990D02*
G03*
X955802Y1443990I-2032J0D01*
G01*
X957072Y1357630D02*
G03*
X957072Y1357630I-2032J0D01*
G01*
Y1303020D02*
G03*
X957072Y1303020I-2032J0D01*
G01*
X963422Y951230D02*
G03*
X963422Y951230I-2032J0D01*
G01*
X159512Y1209040D02*
G03*
X159512Y1209040I-2032J0D01*
G01*
X111252Y1236980D02*
G03*
X111252Y1236980I-2032J0D01*
G01*
X125222Y1781810D02*
G03*
X125222Y1781810I-2032J0D01*
G01*
X12192D02*
G03*
X12192Y1781810I-2032J0D01*
G01*
X13462Y1714500D02*
G03*
X13462Y1714500I-2032J0D01*
G01*
Y1612900D02*
G03*
X13462Y1612900I-2032J0D01*
G01*
Y1484630D02*
G03*
X13462Y1484630I-2032J0D01*
G01*
Y1332230D02*
G03*
X13462Y1332230I-2032J0D01*
G01*
X27432Y1238250D02*
G03*
X27432Y1238250I-2032J0D01*
G01*
X51562Y1129030D02*
G03*
X51562Y1129030I-2032J0D01*
G01*
X50292Y1016000D02*
G03*
X50292Y1016000I-2032J0D01*
G01*
X51562Y927100D02*
G03*
X51562Y927100I-2032J0D01*
G01*
X54102Y751840D02*
G03*
X54102Y751840I-2032J0D01*
G01*
X52832Y551180D02*
G03*
X52832Y551180I-2032J0D01*
G01*
X50292Y452120D02*
G03*
X50292Y452120I-2032J0D01*
G01*
Y353060D02*
G03*
X50292Y353060I-2032J0D01*
G01*
X49022Y234950D02*
G03*
X49022Y234950I-2032J0D01*
G01*
Y133350D02*
G03*
X49022Y133350I-2032J0D01*
G01*
Y54610D02*
G03*
X49022Y54610I-2032J0D01*
G01*
X93472Y15240D02*
G03*
X93472Y15240I-2032J0D01*
G01*
X220472D02*
G03*
X220472Y15240I-2032J0D01*
G01*
X324612D02*
G03*
X324612Y15240I-2032J0D01*
G01*
X461772D02*
G03*
X461772Y15240I-2032J0D01*
G01*
X620522D02*
G03*
X620522Y15240I-2032J0D01*
G01*
X771652D02*
G03*
X771652Y15240I-2032J0D01*
G01*
X906272D02*
G03*
X906272Y15240I-2032J0D01*
G01*
X960882Y101600D02*
G03*
X960882Y101600I-2032J0D01*
G01*
X958342Y251460D02*
G03*
X958342Y251460I-2032J0D01*
G01*
X960882Y499110D02*
G03*
X960882Y499110I-2032J0D01*
G01*
X963422Y855980D02*
G03*
X963422Y855980I-2032J0D01*
G01*
X962152Y1045210D02*
G03*
X962152Y1045210I-2032J0D01*
G01*
X579882Y1047750D02*
G03*
X579882Y1047750I-2032J0D01*
G01*
X391922Y1045210D02*
G03*
X391922Y1045210I-2032J0D01*
G01*
Y858520D02*
G03*
X391922Y858520I-2032J0D01*
G01*
X581152Y859790D02*
G03*
X581152Y859790I-2032J0D01*
G01*
Y670560D02*
G03*
X581152Y670560I-2032J0D01*
G01*
X391922Y666750D02*
G03*
X391922Y666750I-2032J0D01*
G01*
X579882Y294640D02*
G03*
X579882Y294640I-2032J0D01*
G01*
Y480060D02*
G03*
X579882Y480060I-2032J0D01*
G01*
X391922Y476250D02*
G03*
X391922Y476250I-2032J0D01*
G01*
X390652Y298450D02*
G03*
X390652Y298450I-2032J0D01*
G01*
X230632Y46990D02*
G03*
X230632Y46990I-2032J0D01*
G01*
X515112Y73660D02*
G03*
X515112Y73660I-2032J0D01*
G01*
X910082Y93980D02*
G03*
X910082Y93980I-2032J0D01*
G01*
X799592Y132080D02*
G03*
X799592Y132080I-2032J0D01*
G01*
X883412Y1367790D02*
G03*
X883412Y1367790I-2032J0D01*
G01*
X868172Y1423670D02*
G03*
X868172Y1423670I-2032J0D01*
G01*
X733552Y1131288D02*
G03*
X733552Y1131288I-2032J0D01*
G01*
X779829Y1108428D02*
G03*
X779829Y1108428I-2032J0D01*
G01*
X788162Y1137638D02*
G03*
X788162Y1137638I-2032J0D01*
G01*
X148082Y1151890D02*
G03*
X148082Y1151890I-2032J0D01*
G01*
X889762Y1116330D02*
G03*
X889762Y1116330I-2032J0D01*
G01*
X837692Y1117318D02*
G03*
X837692Y1117318I-2032J0D01*
G01*
X352552Y1145540D02*
G03*
X352552Y1145540I-2032J0D01*
G01*
X457962Y1150620D02*
G03*
X457962Y1150620I-2032J0D01*
G01*
X282702Y1145540D02*
G03*
X282702Y1145540I-2032J0D01*
G01*
X116332Y1285240D02*
G03*
X116332Y1285240I-2032J0D01*
G01*
X115062Y1450340D02*
G03*
X115062Y1450340I-2032J0D01*
G01*
X117602Y1612900D02*
G03*
X117602Y1612900I-2032J0D01*
G01*
X49022Y1588770D02*
G03*
X49022Y1588770I-2032J0D01*
G01*
X51562Y1427480D02*
G03*
X51562Y1427480I-2032J0D01*
G01*
X543052Y1150620D02*
G03*
X543052Y1150620I-2032J0D01*
G01*
X699262Y1129030D02*
G03*
X699262Y1129030I-2032J0D01*
G01*
X920242D02*
G03*
X920242Y1129030I-2032J0D01*
G01*
X647192Y1130300D02*
G03*
X647192Y1130300I-2032J0D01*
G01*
X507492Y1150620D02*
G03*
X507492Y1150620I-2032J0D01*
G01*
X316992Y1145540D02*
G03*
X316992Y1145540I-2032J0D01*
G01*
X112522Y1151890D02*
G03*
X112522Y1151890I-2032J0D01*
G01*
X76962D02*
G03*
X76962Y1151890I-2032J0D01*
G01*
X880708Y1342351D02*
G03*
X880708Y1342351I-2032J0D01*
G01*
X887222Y1353820D02*
G03*
X887222Y1353820I-2032J0D01*
G01*
X884682Y1380490D02*
G03*
X884682Y1380490I-2032J0D01*
G01*
X765302Y1159256D02*
G03*
X765302Y1159256I-2032J0D01*
G01*
X750062Y1158240D02*
G03*
X750062Y1158240I-2032J0D01*
G01*
X780542Y1143372D02*
G03*
X780542Y1143372I-2032J0D01*
G01*
X934212Y1393190D02*
G03*
X934212Y1393190I-2032J0D01*
G01*
Y1380490D02*
G03*
X934212Y1380490I-2032J0D01*
G01*
X772877Y1150611D02*
G03*
X772877Y1150611I-2032J0D01*
G01*
X934212Y1367790D02*
G03*
X934212Y1367790I-2032J0D01*
G01*
Y1355090D02*
G03*
X934212Y1355090I-2032J0D01*
G01*
Y1342390D02*
G03*
X934212Y1342390I-2032J0D01*
G01*
Y1329690D02*
G03*
X934212Y1329690I-2032J0D01*
G01*
X757682Y1150620D02*
G03*
X757682Y1150620I-2032J0D01*
G01*
X790702Y919480D02*
G03*
X790702Y919480I-2032J0D01*
G01*
X781812Y597535D02*
G03*
X781812Y597535I-2032J0D01*
G01*
X784352Y730250D02*
G03*
X784352Y730250I-2032J0D01*
G01*
X779272Y353060D02*
G03*
X779272Y353060I-2032J0D01*
G01*
D55*
X957326Y386080D02*
G03*
X957326Y386080I-1016J0D01*
G01*
X958596Y651510D02*
G03*
X958596Y651510I-1016J0D01*
G01*
X855726Y1515110D02*
G03*
X855726Y1515110I-1016J0D01*
G01*
Y1602740D02*
G03*
X855726Y1602740I-1016J0D01*
G01*
Y1677670D02*
G03*
X855726Y1677670I-1016J0D01*
G01*
X856996Y1775460D02*
G03*
X856996Y1775460I-1016J0D01*
G01*
X954786D02*
G03*
X954786Y1775460I-1016J0D01*
G01*
Y1677670D02*
G03*
X954786Y1677670I-1016J0D01*
G01*
Y1601470D02*
G03*
X954786Y1601470I-1016J0D01*
G01*
Y1515110D02*
G03*
X954786Y1515110I-1016J0D01*
G01*
Y1443990D02*
G03*
X954786Y1443990I-1016J0D01*
G01*
X956056Y1357630D02*
G03*
X956056Y1357630I-1016J0D01*
G01*
Y1303020D02*
G03*
X956056Y1303020I-1016J0D01*
G01*
X962406Y951230D02*
G03*
X962406Y951230I-1016J0D01*
G01*
X158496Y1209040D02*
G03*
X158496Y1209040I-1016J0D01*
G01*
X110236Y1236980D02*
G03*
X110236Y1236980I-1016J0D01*
G01*
X124206Y1781810D02*
G03*
X124206Y1781810I-1016J0D01*
G01*
X11176D02*
G03*
X11176Y1781810I-1016J0D01*
G01*
X12446Y1714500D02*
G03*
X12446Y1714500I-1016J0D01*
G01*
Y1612900D02*
G03*
X12446Y1612900I-1016J0D01*
G01*
Y1484630D02*
G03*
X12446Y1484630I-1016J0D01*
G01*
Y1332230D02*
G03*
X12446Y1332230I-1016J0D01*
G01*
X26416Y1238250D02*
G03*
X26416Y1238250I-1016J0D01*
G01*
X50546Y1129030D02*
G03*
X50546Y1129030I-1016J0D01*
G01*
X49276Y1016000D02*
G03*
X49276Y1016000I-1016J0D01*
G01*
X50546Y927100D02*
G03*
X50546Y927100I-1016J0D01*
G01*
X53086Y751840D02*
G03*
X53086Y751840I-1016J0D01*
G01*
X51816Y551180D02*
G03*
X51816Y551180I-1016J0D01*
G01*
X49276Y452120D02*
G03*
X49276Y452120I-1016J0D01*
G01*
Y353060D02*
G03*
X49276Y353060I-1016J0D01*
G01*
X48006Y234950D02*
G03*
X48006Y234950I-1016J0D01*
G01*
Y133350D02*
G03*
X48006Y133350I-1016J0D01*
G01*
Y54610D02*
G03*
X48006Y54610I-1016J0D01*
G01*
X92456Y15240D02*
G03*
X92456Y15240I-1016J0D01*
G01*
X219456D02*
G03*
X219456Y15240I-1016J0D01*
G01*
X323596D02*
G03*
X323596Y15240I-1016J0D01*
G01*
X460756D02*
G03*
X460756Y15240I-1016J0D01*
G01*
X619506D02*
G03*
X619506Y15240I-1016J0D01*
G01*
X770636D02*
G03*
X770636Y15240I-1016J0D01*
G01*
X905256D02*
G03*
X905256Y15240I-1016J0D01*
G01*
X959866Y101600D02*
G03*
X959866Y101600I-1016J0D01*
G01*
X957326Y251460D02*
G03*
X957326Y251460I-1016J0D01*
G01*
X959866Y499110D02*
G03*
X959866Y499110I-1016J0D01*
G01*
X962406Y855980D02*
G03*
X962406Y855980I-1016J0D01*
G01*
X961136Y1045210D02*
G03*
X961136Y1045210I-1016J0D01*
G01*
X578866Y1047750D02*
G03*
X578866Y1047750I-1016J0D01*
G01*
X390906Y1045210D02*
G03*
X390906Y1045210I-1016J0D01*
G01*
Y858520D02*
G03*
X390906Y858520I-1016J0D01*
G01*
X580136Y859790D02*
G03*
X580136Y859790I-1016J0D01*
G01*
Y670560D02*
G03*
X580136Y670560I-1016J0D01*
G01*
X390906Y666750D02*
G03*
X390906Y666750I-1016J0D01*
G01*
X578866Y294640D02*
G03*
X578866Y294640I-1016J0D01*
G01*
Y480060D02*
G03*
X578866Y480060I-1016J0D01*
G01*
X390906Y476250D02*
G03*
X390906Y476250I-1016J0D01*
G01*
X389636Y298450D02*
G03*
X389636Y298450I-1016J0D01*
G01*
X229616Y46990D02*
G03*
X229616Y46990I-1016J0D01*
G01*
X514096Y73660D02*
G03*
X514096Y73660I-1016J0D01*
G01*
X909066Y93980D02*
G03*
X909066Y93980I-1016J0D01*
G01*
X798576Y132080D02*
G03*
X798576Y132080I-1016J0D01*
G01*
X882396Y1367790D02*
G03*
X882396Y1367790I-1016J0D01*
G01*
X867156Y1423670D02*
G03*
X867156Y1423670I-1016J0D01*
G01*
X732536Y1131288D02*
G03*
X732536Y1131288I-1016J0D01*
G01*
X778813Y1108428D02*
G03*
X778813Y1108428I-1016J0D01*
G01*
X787146Y1137638D02*
G03*
X787146Y1137638I-1016J0D01*
G01*
X147066Y1151890D02*
G03*
X147066Y1151890I-1016J0D01*
G01*
X888746Y1116330D02*
G03*
X888746Y1116330I-1016J0D01*
G01*
X836676Y1117318D02*
G03*
X836676Y1117318I-1016J0D01*
G01*
X351536Y1145540D02*
G03*
X351536Y1145540I-1016J0D01*
G01*
X456946Y1150620D02*
G03*
X456946Y1150620I-1016J0D01*
G01*
X281686Y1145540D02*
G03*
X281686Y1145540I-1016J0D01*
G01*
X115316Y1285240D02*
G03*
X115316Y1285240I-1016J0D01*
G01*
X114046Y1450340D02*
G03*
X114046Y1450340I-1016J0D01*
G01*
X116586Y1612900D02*
G03*
X116586Y1612900I-1016J0D01*
G01*
X48006Y1588770D02*
G03*
X48006Y1588770I-1016J0D01*
G01*
X50546Y1427480D02*
G03*
X50546Y1427480I-1016J0D01*
G01*
X542036Y1150620D02*
G03*
X542036Y1150620I-1016J0D01*
G01*
X698246Y1129030D02*
G03*
X698246Y1129030I-1016J0D01*
G01*
X919226D02*
G03*
X919226Y1129030I-1016J0D01*
G01*
X646176Y1130300D02*
G03*
X646176Y1130300I-1016J0D01*
G01*
X506476Y1150620D02*
G03*
X506476Y1150620I-1016J0D01*
G01*
X315976Y1145540D02*
G03*
X315976Y1145540I-1016J0D01*
G01*
X111506Y1151890D02*
G03*
X111506Y1151890I-1016J0D01*
G01*
X75946D02*
G03*
X75946Y1151890I-1016J0D01*
G01*
X879692Y1342351D02*
G03*
X879692Y1342351I-1016J0D01*
G01*
X886206Y1353820D02*
G03*
X886206Y1353820I-1016J0D01*
G01*
X883666Y1380490D02*
G03*
X883666Y1380490I-1016J0D01*
G01*
X764286Y1159256D02*
G03*
X764286Y1159256I-1016J0D01*
G01*
X749046Y1158240D02*
G03*
X749046Y1158240I-1016J0D01*
G01*
X779526Y1143372D02*
G03*
X779526Y1143372I-1016J0D01*
G01*
X933196Y1393190D02*
G03*
X933196Y1393190I-1016J0D01*
G01*
Y1380490D02*
G03*
X933196Y1380490I-1016J0D01*
G01*
X771861Y1150611D02*
G03*
X771861Y1150611I-1016J0D01*
G01*
X933196Y1367790D02*
G03*
X933196Y1367790I-1016J0D01*
G01*
Y1355090D02*
G03*
X933196Y1355090I-1016J0D01*
G01*
Y1342390D02*
G03*
X933196Y1342390I-1016J0D01*
G01*
Y1329690D02*
G03*
X933196Y1329690I-1016J0D01*
G01*
X756666Y1150620D02*
G03*
X756666Y1150620I-1016J0D01*
G01*
X789686Y919480D02*
G03*
X789686Y919480I-1016J0D01*
G01*
X780796Y597535D02*
G03*
X780796Y597535I-1016J0D01*
G01*
X783336Y730250D02*
G03*
X783336Y730250I-1016J0D01*
G01*
X778256Y353060D02*
G03*
X778256Y353060I-1016J0D01*
G01*
M02*
