G04*
G04 #@! TF.GenerationSoftware,Altium Limited,Altium Designer,24.1.2 (44)*
G04*
G04 Layer_Color=128*
%FSLAX44Y44*%
%MOMM*%
G71*
G04*
G04 #@! TF.SameCoordinates,39859149-EBAD-4231-980B-4E5C47F9036E*
G04*
G04*
G04 #@! TF.FilePolarity,Positive*
G04*
G01*
G75*
%ADD63C,0.0508*%
D63*
X855464Y745968D02*
X895342D01*
X875403Y726029D02*
Y765907D01*
X1012563Y745968D02*
X1043043D01*
X1027803Y730728D02*
Y761208D01*
X1012563Y507208D02*
X1043043D01*
X1027803Y491968D02*
Y522448D01*
X855464Y507208D02*
X895342D01*
X875403Y487269D02*
Y527147D01*
X917553Y575788D02*
X947553D01*
X932553Y560788D02*
Y590788D01*
X981053Y601188D02*
X1011053D01*
X996053Y586188D02*
Y616188D01*
X938903Y626588D02*
X977003D01*
X957953Y607538D02*
Y645638D01*
X998753Y626588D02*
X1018753D01*
X1008753Y616588D02*
Y636588D01*
X897153Y626588D02*
X917153D01*
X907153Y616588D02*
Y636588D01*
X940953Y671588D02*
X974953D01*
X957953Y654588D02*
Y688588D01*
X855464Y367508D02*
X895342D01*
X875403Y347569D02*
Y387447D01*
X1012563Y367508D02*
X1043043D01*
X1027803Y352268D02*
Y382748D01*
X1012563Y128748D02*
X1043043D01*
X1027803Y113508D02*
Y143988D01*
X855464Y128748D02*
X895342D01*
X875403Y108809D02*
Y148687D01*
X917553Y197328D02*
X947553D01*
X932553Y182328D02*
Y212328D01*
X981053Y222728D02*
X1011053D01*
X996053Y207728D02*
Y237728D01*
X938903Y248128D02*
X977003D01*
X957953Y229078D02*
Y267178D01*
X998753Y248128D02*
X1018753D01*
X1008753Y238128D02*
Y258128D01*
X897153Y248128D02*
X917153D01*
X907153Y238128D02*
Y258128D01*
X940953Y293128D02*
X974953D01*
X957953Y276128D02*
Y310128D01*
X350258Y83663D02*
X380738D01*
X365498Y68423D02*
Y98903D01*
X589018Y83663D02*
X619498D01*
X604258Y68423D02*
Y98903D01*
X345559Y236063D02*
X385437D01*
X365498Y216124D02*
Y256002D01*
X584319Y236063D02*
X624197D01*
X604258Y216124D02*
Y256002D01*
X444478Y102713D02*
X474478D01*
X459478Y87713D02*
Y117713D01*
X507978Y128113D02*
X537978D01*
X522978Y113113D02*
Y143113D01*
X465828Y153513D02*
X503928D01*
X484878Y134463D02*
Y172563D01*
X525678Y153513D02*
X545678D01*
X535678Y143513D02*
Y163513D01*
X424078Y153513D02*
X444078D01*
X434078Y143513D02*
Y163513D01*
X467878Y198513D02*
X501878D01*
X484878Y181513D02*
Y215513D01*
X184033Y1144663D02*
X218033D01*
X201033Y1127663D02*
Y1161663D01*
X140233Y1099663D02*
X160233D01*
X150233Y1089663D02*
Y1109663D01*
X241833Y1099663D02*
X261833D01*
X251833Y1089663D02*
Y1109663D01*
X181983Y1099663D02*
X220083D01*
X201033Y1080613D02*
Y1118713D01*
X224133Y1074263D02*
X254133D01*
X239133Y1059263D02*
Y1089263D01*
X160633Y1048863D02*
X190633D01*
X175633Y1033863D02*
Y1063863D01*
X373263Y1144663D02*
X407263D01*
X390263Y1127663D02*
Y1161663D01*
X329463Y1099663D02*
X349463D01*
X339463Y1089663D02*
Y1109663D01*
X431063Y1099663D02*
X451063D01*
X441063Y1089663D02*
Y1109663D01*
X371213Y1099663D02*
X409313D01*
X390263Y1080613D02*
Y1118713D01*
X413363Y1074263D02*
X443363D01*
X428363Y1059263D02*
Y1089263D01*
X349863Y1048863D02*
X379863D01*
X364863Y1033863D02*
Y1063863D01*
X562493Y1144663D02*
X596493D01*
X579493Y1127663D02*
Y1161663D01*
X518693Y1099663D02*
X538693D01*
X528693Y1089663D02*
Y1109663D01*
X620293Y1099663D02*
X640293D01*
X630293Y1089663D02*
Y1109663D01*
X560443Y1099663D02*
X598543D01*
X579493Y1080613D02*
Y1118713D01*
X602593Y1074263D02*
X632593D01*
X617593Y1059263D02*
Y1089263D01*
X539093Y1048863D02*
X569093D01*
X554093Y1033863D02*
Y1063863D01*
X751723Y1144663D02*
X785723D01*
X768723Y1127663D02*
Y1161663D01*
X707923Y1099663D02*
X727923D01*
X717923Y1089663D02*
Y1109663D01*
X809523Y1099663D02*
X829523D01*
X819523Y1089663D02*
Y1109663D01*
X749673Y1099663D02*
X787773D01*
X768723Y1080613D02*
Y1118713D01*
X791823Y1074263D02*
X821823D01*
X806823Y1059263D02*
Y1089263D01*
X728323Y1048863D02*
X758323D01*
X743323Y1033863D02*
Y1063863D01*
X940953Y1144663D02*
X974953D01*
X957953Y1127663D02*
Y1161663D01*
X897153Y1099663D02*
X917153D01*
X907153Y1089663D02*
Y1109663D01*
X998753Y1099663D02*
X1018753D01*
X1008753Y1089663D02*
Y1109663D01*
X938903Y1099663D02*
X977003D01*
X957953Y1080613D02*
Y1118713D01*
X981053Y1074263D02*
X1011053D01*
X996053Y1059263D02*
Y1089263D01*
X917553Y1048863D02*
X947553D01*
X932553Y1033863D02*
Y1063863D01*
X184033Y955433D02*
X218033D01*
X201033Y938433D02*
Y972433D01*
X140233Y910433D02*
X160233D01*
X150233Y900433D02*
Y920433D01*
X241833Y910433D02*
X261833D01*
X251833Y900433D02*
Y920433D01*
X181983Y910433D02*
X220083D01*
X201033Y891383D02*
Y929483D01*
X224133Y885033D02*
X254133D01*
X239133Y870033D02*
Y900033D01*
X160633Y859633D02*
X190633D01*
X175633Y844633D02*
Y874633D01*
X373263Y955433D02*
X407263D01*
X390263Y938433D02*
Y972433D01*
X329463Y910433D02*
X349463D01*
X339463Y900433D02*
Y920433D01*
X431063Y910433D02*
X451063D01*
X441063Y900433D02*
Y920433D01*
X371213Y910433D02*
X409313D01*
X390263Y891383D02*
Y929483D01*
X413363Y885033D02*
X443363D01*
X428363Y870033D02*
Y900033D01*
X349863Y859633D02*
X379863D01*
X364863Y844633D02*
Y874633D01*
X562493Y955433D02*
X596493D01*
X579493Y938433D02*
Y972433D01*
X518693Y910433D02*
X538693D01*
X528693Y900433D02*
Y920433D01*
X620293Y910433D02*
X640293D01*
X630293Y900433D02*
Y920433D01*
X560443Y910433D02*
X598543D01*
X579493Y891383D02*
Y929483D01*
X602593Y885033D02*
X632593D01*
X617593Y870033D02*
Y900033D01*
X539093Y859633D02*
X569093D01*
X554093Y844633D02*
Y874633D01*
X751723Y955433D02*
X785723D01*
X768723Y938433D02*
Y972433D01*
X707923Y910433D02*
X727923D01*
X717923Y900433D02*
Y920433D01*
X809523Y910433D02*
X829523D01*
X819523Y900433D02*
Y920433D01*
X749673Y910433D02*
X787773D01*
X768723Y891383D02*
Y929483D01*
X791823Y885033D02*
X821823D01*
X806823Y870033D02*
Y900033D01*
X728323Y859633D02*
X758323D01*
X743323Y844633D02*
Y874633D01*
X940953Y955433D02*
X974953D01*
X957953Y938433D02*
Y972433D01*
X897153Y910433D02*
X917153D01*
X907153Y900433D02*
Y920433D01*
X998753Y910433D02*
X1018753D01*
X1008753Y900433D02*
Y920433D01*
X938903Y910433D02*
X977003D01*
X957953Y891383D02*
Y929483D01*
X981053Y885033D02*
X1011053D01*
X996053Y870033D02*
Y900033D01*
X917553Y859633D02*
X947553D01*
X932553Y844633D02*
Y874633D01*
X184033Y766203D02*
X218033D01*
X201033Y749203D02*
Y783203D01*
X140233Y721203D02*
X160233D01*
X150233Y711203D02*
Y731203D01*
X241833Y721203D02*
X261833D01*
X251833Y711203D02*
Y731203D01*
X181983Y721203D02*
X220083D01*
X201033Y702153D02*
Y740253D01*
X224133Y695803D02*
X254133D01*
X239133Y680803D02*
Y710803D01*
X160633Y670403D02*
X190633D01*
X175633Y655403D02*
Y685403D01*
X373263Y766203D02*
X407263D01*
X390263Y749203D02*
Y783203D01*
X329463Y721203D02*
X349463D01*
X339463Y711203D02*
Y731203D01*
X431063Y721203D02*
X451063D01*
X441063Y711203D02*
Y731203D01*
X371213Y721203D02*
X409313D01*
X390263Y702153D02*
Y740253D01*
X413363Y695803D02*
X443363D01*
X428363Y680803D02*
Y710803D01*
X349863Y670403D02*
X379863D01*
X364863Y655403D02*
Y685403D01*
X562493Y766203D02*
X596493D01*
X579493Y749203D02*
Y783203D01*
X518693Y721203D02*
X538693D01*
X528693Y711203D02*
Y731203D01*
X620293Y721203D02*
X640293D01*
X630293Y711203D02*
Y731203D01*
X560443Y721203D02*
X598543D01*
X579493Y702153D02*
Y740253D01*
X602593Y695803D02*
X632593D01*
X617593Y680803D02*
Y710803D01*
X539093Y670403D02*
X569093D01*
X554093Y655403D02*
Y685403D01*
X751723Y766203D02*
X785723D01*
X768723Y749203D02*
Y783203D01*
X707923Y721203D02*
X727923D01*
X717923Y711203D02*
Y731203D01*
X809523Y721203D02*
X829523D01*
X819523Y711203D02*
Y731203D01*
X749673Y721203D02*
X787773D01*
X768723Y702153D02*
Y740253D01*
X791823Y695803D02*
X821823D01*
X806823Y680803D02*
Y710803D01*
X728323Y670403D02*
X758323D01*
X743323Y655403D02*
Y685403D01*
X184033Y576973D02*
X218033D01*
X201033Y559973D02*
Y593973D01*
X140233Y531973D02*
X160233D01*
X150233Y521973D02*
Y541973D01*
X241833Y531973D02*
X261833D01*
X251833Y521973D02*
Y541973D01*
X181983Y531973D02*
X220083D01*
X201033Y512923D02*
Y551023D01*
X224133Y506573D02*
X254133D01*
X239133Y491573D02*
Y521573D01*
X160633Y481173D02*
X190633D01*
X175633Y466173D02*
Y496173D01*
X373263Y576973D02*
X407263D01*
X390263Y559973D02*
Y593973D01*
X329463Y531973D02*
X349463D01*
X339463Y521973D02*
Y541973D01*
X431063Y531973D02*
X451063D01*
X441063Y521973D02*
Y541973D01*
X371213Y531973D02*
X409313D01*
X390263Y512923D02*
Y551023D01*
X413363Y506573D02*
X443363D01*
X428363Y491573D02*
Y521573D01*
X349863Y481173D02*
X379863D01*
X364863Y466173D02*
Y496173D01*
X562493Y576973D02*
X596493D01*
X579493Y559973D02*
Y593973D01*
X518693Y531973D02*
X538693D01*
X528693Y521973D02*
Y541973D01*
X620293Y531973D02*
X640293D01*
X630293Y521973D02*
Y541973D01*
X560443Y531973D02*
X598543D01*
X579493Y512923D02*
Y551023D01*
X602593Y506573D02*
X632593D01*
X617593Y491573D02*
Y521573D01*
X539093Y481173D02*
X569093D01*
X554093Y466173D02*
Y496173D01*
X751723Y576973D02*
X785723D01*
X768723Y559973D02*
Y593973D01*
X707923Y531973D02*
X727923D01*
X717923Y521973D02*
Y541973D01*
X809523Y531973D02*
X829523D01*
X819523Y521973D02*
Y541973D01*
X749673Y531973D02*
X787773D01*
X768723Y512923D02*
Y551023D01*
X791823Y506573D02*
X821823D01*
X806823Y491573D02*
Y521573D01*
X728323Y481173D02*
X758323D01*
X743323Y466173D02*
Y496173D01*
X184033Y387743D02*
X218033D01*
X201033Y370743D02*
Y404743D01*
X140233Y342743D02*
X160233D01*
X150233Y332743D02*
Y352743D01*
X241833Y342743D02*
X261833D01*
X251833Y332743D02*
Y352743D01*
X181983Y342743D02*
X220083D01*
X201033Y323693D02*
Y361793D01*
X224133Y317343D02*
X254133D01*
X239133Y302343D02*
Y332343D01*
X160633Y291943D02*
X190633D01*
X175633Y276943D02*
Y306943D01*
X373263Y387743D02*
X407263D01*
X390263Y370743D02*
Y404743D01*
X329463Y342743D02*
X349463D01*
X339463Y332743D02*
Y352743D01*
X431063Y342743D02*
X451063D01*
X441063Y332743D02*
Y352743D01*
X371213Y342743D02*
X409313D01*
X390263Y323693D02*
Y361793D01*
X413363Y317343D02*
X443363D01*
X428363Y302343D02*
Y332343D01*
X349863Y291943D02*
X379863D01*
X364863Y276943D02*
Y306943D01*
X562493Y387743D02*
X596493D01*
X579493Y370743D02*
Y404743D01*
X518693Y342743D02*
X538693D01*
X528693Y332743D02*
Y352743D01*
X620293Y342743D02*
X640293D01*
X630293Y332743D02*
Y352743D01*
X560443Y342743D02*
X598543D01*
X579493Y323693D02*
Y361793D01*
X602593Y317343D02*
X632593D01*
X617593Y302343D02*
Y332343D01*
X539093Y291943D02*
X569093D01*
X554093Y276943D02*
Y306943D01*
X751723Y387743D02*
X785723D01*
X768723Y370743D02*
Y404743D01*
X707923Y342743D02*
X727923D01*
X717923Y332743D02*
Y352743D01*
X809523Y342743D02*
X829523D01*
X819523Y332743D02*
Y352743D01*
X749673Y342743D02*
X787773D01*
X768723Y323693D02*
Y361793D01*
X791823Y317343D02*
X821823D01*
X806823Y302343D02*
Y332343D01*
X728323Y291943D02*
X758323D01*
X743323Y276943D02*
Y306943D01*
X184033Y198513D02*
X218033D01*
X201033Y181513D02*
Y215513D01*
X140233Y153513D02*
X160233D01*
X150233Y143513D02*
Y163513D01*
X241833Y153513D02*
X261833D01*
X251833Y143513D02*
Y163513D01*
X181983Y153513D02*
X220083D01*
X201033Y134463D02*
Y172563D01*
X224133Y128113D02*
X254133D01*
X239133Y113113D02*
Y143113D01*
X160633Y102713D02*
X190633D01*
X175633Y87713D02*
Y117713D01*
X751723Y198513D02*
X785723D01*
X768723Y181513D02*
Y215513D01*
X707923Y153513D02*
X727923D01*
X717923Y143513D02*
Y163513D01*
X809523Y153513D02*
X829523D01*
X819523Y143513D02*
Y163513D01*
X749673Y153513D02*
X787773D01*
X768723Y134463D02*
Y172563D01*
X791823Y128113D02*
X821823D01*
X806823Y113113D02*
Y143113D01*
X728323Y102713D02*
X758323D01*
X743323Y87713D02*
Y117713D01*
X285193Y1255470D02*
X291193D01*
X288193Y1252470D02*
Y1258470D01*
X297893Y1255470D02*
X303893D01*
X300893Y1252470D02*
Y1258470D01*
X310593Y1255470D02*
X316593D01*
X313593Y1252470D02*
Y1258470D01*
X323293Y1255470D02*
X329293D01*
X326293Y1252470D02*
Y1258470D01*
X335993Y1255470D02*
X341993D01*
X338993Y1252470D02*
Y1258470D01*
X348693Y1255470D02*
X354693D01*
X351693Y1252470D02*
Y1258470D01*
X361393Y1255470D02*
X367393D01*
X364393Y1252470D02*
Y1258470D01*
X374093Y1255470D02*
X380093D01*
X377093Y1252470D02*
Y1258470D01*
X386793Y1255470D02*
X392793D01*
X389793Y1252470D02*
Y1258470D01*
X399493Y1255470D02*
X405493D01*
X402493Y1252470D02*
Y1258470D01*
X412193Y1255470D02*
X418193D01*
X415193Y1252470D02*
Y1258470D01*
X424893Y1255470D02*
X430893D01*
X427893Y1252470D02*
Y1258470D01*
X437593Y1255470D02*
X443593D01*
X440593Y1252470D02*
Y1258470D01*
X450293Y1255470D02*
X456293D01*
X453293Y1252470D02*
Y1258470D01*
X462993Y1255470D02*
X468993D01*
X465993Y1252470D02*
Y1258470D01*
X475693Y1255470D02*
X481693D01*
X478693Y1252470D02*
Y1258470D01*
X488393Y1255470D02*
X494393D01*
X491393Y1252470D02*
Y1258470D01*
X501093Y1255470D02*
X507093D01*
X504093Y1252470D02*
Y1258470D01*
X513793Y1255470D02*
X519793D01*
X516793Y1252470D02*
Y1258470D01*
X526493Y1255470D02*
X532493D01*
X529493Y1252470D02*
Y1258470D01*
X626493Y1255470D02*
X632493D01*
X629493Y1252470D02*
Y1258470D01*
X639193Y1255470D02*
X645193D01*
X642193Y1252470D02*
Y1258470D01*
X651893Y1255470D02*
X657893D01*
X654893Y1252470D02*
Y1258470D01*
X664593Y1255470D02*
X670593D01*
X667593Y1252470D02*
Y1258470D01*
X677293Y1255470D02*
X683293D01*
X680293Y1252470D02*
Y1258470D01*
X689993Y1255470D02*
X695993D01*
X692993Y1252470D02*
Y1258470D01*
X702693Y1255470D02*
X708693D01*
X705693Y1252470D02*
Y1258470D01*
X715393Y1255470D02*
X721393D01*
X718393Y1252470D02*
Y1258470D01*
X728093Y1255470D02*
X734093D01*
X731093Y1252470D02*
Y1258470D01*
X740793Y1255470D02*
X746793D01*
X743793Y1252470D02*
Y1258470D01*
X753493Y1255470D02*
X759493D01*
X756493Y1252470D02*
Y1258470D01*
X766193Y1255470D02*
X772193D01*
X769193Y1252470D02*
Y1258470D01*
X778893Y1255470D02*
X784893D01*
X781893Y1252470D02*
Y1258470D01*
X791593Y1255470D02*
X797593D01*
X794593Y1252470D02*
Y1258470D01*
X804293Y1255470D02*
X810293D01*
X807293Y1252470D02*
Y1258470D01*
X816993Y1255470D02*
X822993D01*
X819993Y1252470D02*
Y1258470D01*
X829693Y1255470D02*
X835693D01*
X832693Y1252470D02*
Y1258470D01*
X842393Y1255470D02*
X848393D01*
X845393Y1252470D02*
Y1258470D01*
X855093Y1255470D02*
X861093D01*
X858093Y1252470D02*
Y1258470D01*
X867793Y1255470D02*
X873793D01*
X870793Y1252470D02*
Y1258470D01*
X104380Y245110D02*
X134380D01*
X119380Y230110D02*
Y260110D01*
X1011160Y438150D02*
X1041160D01*
X1026160Y423150D02*
Y453150D01*
X103110Y999490D02*
X133110D01*
X118110Y984490D02*
Y1014490D01*
X1022590Y998220D02*
X1052590D01*
X1037590Y983220D02*
Y1013220D01*
X581450Y1238250D02*
X585260D01*
X583355Y1236345D02*
Y1240155D01*
X572135Y1253490D02*
X575945D01*
X574040Y1251585D02*
Y1255395D01*
X318135Y1186180D02*
X321945D01*
X320040Y1184275D02*
Y1188085D01*
X372364Y175260D02*
X379476D01*
X375920Y171704D02*
Y178816D01*
X430784Y807720D02*
X437896D01*
X434340Y804164D02*
Y811276D01*
X880364Y433070D02*
X887476D01*
X883920Y429514D02*
Y436626D01*
X141224Y435610D02*
X148336D01*
X144780Y432054D02*
Y439166D01*
X198374Y1003300D02*
X205486D01*
X201930Y999744D02*
Y1006856D01*
X696595Y1003300D02*
X700405D01*
X698500Y1001395D02*
Y1005205D01*
X885825Y1028700D02*
X889635D01*
X887730Y1026795D02*
Y1030605D01*
X893445Y1163320D02*
X897255D01*
X895350Y1161415D02*
Y1165225D01*
X696595Y693420D02*
X700405D01*
X698500Y691515D02*
Y695325D01*
X793115Y784860D02*
X796925D01*
X795020Y782955D02*
Y786765D01*
X704215Y617220D02*
X708025D01*
X706120Y615315D02*
Y619125D01*
X696595Y431800D02*
X700405D01*
X698500Y429895D02*
Y433705D01*
X854075Y267970D02*
X857885D01*
X855980Y266065D02*
Y269875D01*
X793115Y217170D02*
X796925D01*
X795020Y215265D02*
Y219075D01*
X824865Y242570D02*
X828675D01*
X826770Y240665D02*
Y244475D01*
X843915Y204470D02*
X847725D01*
X845820Y202565D02*
Y206375D01*
X739318Y1164133D02*
X743128D01*
X741223Y1162228D02*
Y1166038D01*
X719255Y1192871D02*
X723065D01*
X721160Y1190966D02*
Y1194776D01*
X706145Y1193140D02*
X709955D01*
X708050Y1191235D02*
Y1195045D01*
X1054735Y947420D02*
X1058545D01*
X1056640Y945515D02*
Y949325D01*
X1030605Y1141730D02*
X1034415D01*
X1032510Y1139825D02*
Y1143635D01*
X570865Y1233170D02*
X574675D01*
X572770Y1231265D02*
Y1235075D01*
X958215Y1184910D02*
X962025D01*
X960120Y1183005D02*
Y1186815D01*
X829945Y1189990D02*
X833755D01*
X831850Y1188085D02*
Y1191895D01*
X821055Y1176020D02*
X824865D01*
X822960Y1174115D02*
Y1177925D01*
X733995Y1182940D02*
X737805D01*
X735900Y1181035D02*
Y1184845D01*
X920115Y1162050D02*
X923925D01*
X922020Y1160145D02*
Y1163955D01*
X960755Y836930D02*
X964565D01*
X962660Y835025D02*
Y838835D01*
X893445Y694690D02*
X897255D01*
X895350Y692785D02*
Y696595D01*
X899795Y1270000D02*
X903605D01*
X901700Y1268095D02*
Y1271905D01*
X650748Y1214120D02*
X654558D01*
X652653Y1212215D02*
Y1216025D01*
X632485Y1176630D02*
X636295D01*
X634390Y1174725D02*
Y1178535D01*
X650748Y1175360D02*
X654558D01*
X652653Y1173455D02*
Y1177265D01*
X670814Y1177950D02*
X674624D01*
X672719Y1176045D02*
Y1179855D01*
X671195Y570230D02*
X675005D01*
X673100Y568325D02*
Y572135D01*
X652145Y435610D02*
X655955D01*
X654050Y433705D02*
Y437515D01*
X671195Y377190D02*
X675005D01*
X673100Y375285D02*
Y379095D01*
X671195Y958850D02*
X675005D01*
X673100Y956945D02*
Y960755D01*
X671195Y768350D02*
X675005D01*
X673100Y766445D02*
Y770255D01*
X614045Y179070D02*
X617855D01*
X615950Y177165D02*
Y180975D01*
X841493Y588010D02*
X845303D01*
X843398Y586105D02*
Y589915D01*
X835025Y379730D02*
X838835D01*
X836930Y377825D02*
Y381635D01*
X835025Y245110D02*
X838835D01*
X836930Y243205D02*
Y247015D01*
X1005205Y285750D02*
X1009015D01*
X1007110Y283845D02*
Y287655D01*
X1006475Y664210D02*
X1010285D01*
X1008380Y662305D02*
Y666115D01*
X1002665Y948690D02*
X1006475D01*
X1004570Y946785D02*
Y950595D01*
X981075Y313690D02*
X984885D01*
X982980Y311785D02*
Y315595D01*
X982345Y693420D02*
X986155D01*
X984250Y691515D02*
Y695325D01*
X982345Y974090D02*
X986155D01*
X984250Y972185D02*
Y975995D01*
X984504Y1125287D02*
X988314D01*
X986409Y1123382D02*
Y1127192D01*
X911225Y300990D02*
X915035D01*
X913130Y299085D02*
Y302895D01*
X911225Y679450D02*
X915035D01*
X913130Y677545D02*
Y681355D01*
X911225Y962660D02*
X915035D01*
X913130Y960755D02*
Y964565D01*
X968375Y1169670D02*
X972185D01*
X970280Y1167765D02*
Y1171575D01*
X1030605Y702310D02*
X1034415D01*
X1032510Y700405D02*
Y704215D01*
X1044575Y287020D02*
X1048385D01*
X1046480Y285115D02*
Y288925D01*
X835025Y758190D02*
X838835D01*
X836930Y756285D02*
Y760095D01*
X814705Y191770D02*
X818515D01*
X816610Y189865D02*
Y193675D01*
X835025Y570230D02*
X838835D01*
X836930Y568325D02*
Y572135D01*
X835025Y947420D02*
X838835D01*
X836930Y945515D02*
Y949325D01*
X810101Y1144270D02*
X813911D01*
X812006Y1142365D02*
Y1146175D01*
X854075Y1130300D02*
X857885D01*
X855980Y1128395D02*
Y1132205D01*
X852805Y955040D02*
X856615D01*
X854710Y953135D02*
Y956945D01*
X852805Y815340D02*
X856615D01*
X854710Y813435D02*
Y817245D01*
X794385Y407670D02*
X798195D01*
X796290Y405765D02*
Y409575D01*
X794385Y595630D02*
X798195D01*
X796290Y593725D02*
Y597535D01*
X793115Y975360D02*
X796925D01*
X795020Y973455D02*
Y977265D01*
X767715Y1168385D02*
X771525D01*
X769620Y1166480D02*
Y1170290D01*
X721995Y205740D02*
X725805D01*
X723900Y203835D02*
Y207645D01*
X721995Y394970D02*
X725805D01*
X723900Y393065D02*
Y396875D01*
X720725Y585470D02*
X724535D01*
X722630Y583565D02*
Y587375D01*
X720725Y773430D02*
X724535D01*
X722630Y771525D02*
Y775335D01*
X719455Y962660D02*
X723265D01*
X721360Y960755D02*
Y964565D01*
X628015Y1131570D02*
X631825D01*
X629920Y1129665D02*
Y1133475D01*
X528955Y191770D02*
X532765D01*
X530860Y189865D02*
Y193675D01*
X642788Y380197D02*
X646598D01*
X644693Y378292D02*
Y382102D01*
X642788Y569427D02*
X646598D01*
X644693Y567522D02*
Y571332D01*
X642788Y758657D02*
X646598D01*
X644693Y756752D02*
Y760562D01*
X642788Y947887D02*
X646598D01*
X644693Y945982D02*
Y949792D01*
X511175Y217170D02*
X514985D01*
X513080Y215265D02*
Y219075D01*
X603885Y406400D02*
X607695D01*
X605790Y404495D02*
Y408305D01*
X603885Y596900D02*
X607695D01*
X605790Y594995D02*
Y598805D01*
X605155Y784860D02*
X608965D01*
X607060Y782955D02*
Y786765D01*
X603885Y974090D02*
X607695D01*
X605790Y972185D02*
Y975995D01*
X616585Y1163320D02*
X620395D01*
X618490Y1161415D02*
Y1165225D01*
X455295Y218440D02*
X459105D01*
X457200Y216535D02*
Y220345D01*
X532765Y403860D02*
X536575D01*
X534670Y401955D02*
Y405765D01*
X532765Y584200D02*
X536575D01*
X534670Y582295D02*
Y586105D01*
X532765Y773430D02*
X536575D01*
X534670Y771525D02*
Y775335D01*
X532765Y962660D02*
X536575D01*
X534670Y960755D02*
Y964565D01*
X550901Y1162050D02*
X554711D01*
X552806Y1160145D02*
Y1163955D01*
X418465Y1162050D02*
X422275D01*
X420370Y1160145D02*
Y1163955D01*
X445135Y381000D02*
X448945D01*
X447040Y379095D02*
Y382905D01*
X455295Y567690D02*
X459105D01*
X457200Y565785D02*
Y569595D01*
X455295Y759460D02*
X459105D01*
X457200Y757555D02*
Y761365D01*
X455295Y948690D02*
X459105D01*
X457200Y946785D02*
Y950595D01*
X415925Y406400D02*
X419735D01*
X417830Y404495D02*
Y408305D01*
X415925Y596900D02*
X419735D01*
X417830Y594995D02*
Y598805D01*
X415925Y787400D02*
X419735D01*
X417830Y785495D02*
Y789305D01*
X417195Y975360D02*
X421005D01*
X419100Y973455D02*
Y977265D01*
X442088Y1137413D02*
X445898D01*
X443993Y1135508D02*
Y1139318D01*
X335915Y394970D02*
X339725D01*
X337820Y393065D02*
Y396875D01*
X334645Y584200D02*
X338455D01*
X336550Y582295D02*
Y586105D01*
X335915Y773430D02*
X339725D01*
X337820Y771525D02*
Y775335D01*
X333375Y962660D02*
X337185D01*
X335280Y960755D02*
Y964565D01*
X342295Y1151872D02*
X346105D01*
X344200Y1149967D02*
Y1153777D01*
X332105Y744220D02*
X335915D01*
X334010Y742315D02*
Y746125D01*
X269875Y962660D02*
X273685D01*
X271780Y960755D02*
Y964565D01*
X269875Y773430D02*
X273685D01*
X271780Y771525D02*
Y775335D01*
X268605Y205740D02*
X272415D01*
X270510Y203835D02*
Y207645D01*
X268605Y394970D02*
X272415D01*
X270510Y393065D02*
Y396875D01*
X268605Y584200D02*
X272415D01*
X270510Y582295D02*
Y586105D01*
X272415Y1126490D02*
X276225D01*
X274320Y1124585D02*
Y1128395D01*
X241935Y191770D02*
X245745D01*
X243840Y189865D02*
Y193675D01*
X241935Y381000D02*
X245745D01*
X243840Y379095D02*
Y382905D01*
X243205Y570230D02*
X247015D01*
X245110Y568325D02*
Y572135D01*
X243205Y759460D02*
X247015D01*
X245110Y757555D02*
Y761365D01*
X245745Y948690D02*
X249555D01*
X247650Y946785D02*
Y950595D01*
X262255Y1123950D02*
X266065D01*
X264160Y1122045D02*
Y1125855D01*
X283845Y191770D02*
X287655D01*
X285750Y189865D02*
Y193675D01*
X283845Y382270D02*
X287655D01*
X285750Y380365D02*
Y384175D01*
X283915Y561410D02*
X287725D01*
X285820Y559505D02*
Y563315D01*
X283915Y755580D02*
X287725D01*
X285820Y753675D02*
Y757485D01*
X150495Y205740D02*
X154305D01*
X152400Y203835D02*
Y207645D01*
X130175Y394970D02*
X133985D01*
X132080Y393065D02*
Y396875D01*
X144145Y585470D02*
X147955D01*
X146050Y583565D02*
Y587375D01*
X130175Y773430D02*
X133985D01*
X132080Y771525D02*
Y775335D01*
X140335Y962660D02*
X144145D01*
X142240Y960755D02*
Y964565D01*
X155598Y1151913D02*
X159408D01*
X157503Y1150008D02*
Y1153818D01*
X476955Y387350D02*
X480765D01*
X478860Y385445D02*
Y389255D01*
X476955Y567760D02*
X480765D01*
X478860Y565855D02*
Y569665D01*
X476955Y762070D02*
X480765D01*
X478860Y760165D02*
Y763975D01*
X476955Y956380D02*
X480765D01*
X478860Y954475D02*
Y958285D01*
X733995Y1231200D02*
X737805D01*
X735900Y1229295D02*
Y1233105D01*
X679928Y1048863D02*
X683738D01*
X681833Y1046958D02*
Y1050768D01*
X663575Y1118870D02*
X667385D01*
X665480Y1116965D02*
Y1120775D01*
X581725Y1190560D02*
X585535D01*
X583630Y1188655D02*
Y1192465D01*
X542925Y1238250D02*
X546735D01*
X544830Y1236345D02*
Y1240155D01*
X501015Y1176020D02*
X504825D01*
X502920Y1174115D02*
Y1177925D01*
X501015Y1225550D02*
X504825D01*
X502920Y1223645D02*
Y1227455D01*
X501015Y1192530D02*
X504825D01*
X502920Y1190625D02*
Y1194435D01*
X494665Y862330D02*
X498475D01*
X496570Y860425D02*
Y864235D01*
X424815Y1214120D02*
X428625D01*
X426720Y1212215D02*
Y1216025D01*
X455956Y1185441D02*
X459766D01*
X457861Y1183536D02*
Y1187346D01*
X466115Y1175360D02*
X469925D01*
X468020Y1173455D02*
Y1177265D01*
X417195Y1186180D02*
X421005D01*
X419100Y1184275D02*
Y1188085D01*
X320675Y511810D02*
X324485D01*
X322580Y509905D02*
Y513715D01*
X311785Y325120D02*
X315595D01*
X313690Y323215D02*
Y327025D01*
X325755Y1225550D02*
X329565D01*
X327660Y1223645D02*
Y1227455D01*
X307975Y1209040D02*
X311785D01*
X309880Y1207135D02*
Y1210945D01*
X292735Y1173480D02*
X296545D01*
X294640Y1171575D02*
Y1175385D01*
X349885Y113030D02*
X353695D01*
X351790Y111125D02*
Y114935D01*
X476955Y1118940D02*
X480765D01*
X478860Y1117035D02*
Y1120845D01*
X283915Y946220D02*
X287725D01*
X285820Y944315D02*
Y948125D01*
X252755Y1175360D02*
X256565D01*
X254660Y1173455D02*
Y1177265D01*
X205675Y1190560D02*
X209485D01*
X207580Y1188655D02*
Y1192465D01*
X162585Y1202080D02*
X166395D01*
X164490Y1200175D02*
Y1203985D01*
X283915Y1120210D02*
X287725D01*
X285820Y1118305D02*
Y1122115D01*
X993115Y1243990D02*
X996925D01*
X995020Y1242085D02*
Y1245895D01*
X706755Y1126490D02*
X710565D01*
X708660Y1124585D02*
Y1128395D01*
X707325Y1158940D02*
X711135D01*
X709230Y1157035D02*
Y1160845D01*
X529525Y1163890D02*
X533335D01*
X531430Y1161985D02*
Y1165795D01*
X308585Y1172870D02*
X312395D01*
X310490Y1170965D02*
Y1174775D01*
X887095Y1219200D02*
X890905D01*
X889000Y1217295D02*
Y1221105D01*
X690245Y1211580D02*
X694055D01*
X692150Y1209675D02*
Y1213485D01*
X840105Y1211580D02*
X843915D01*
X842010Y1209675D02*
Y1213485D01*
X516255Y1211580D02*
X520065D01*
X518160Y1209675D02*
Y1213485D01*
X271145Y1217930D02*
X274955D01*
X273050Y1216025D02*
Y1219835D01*
X271755Y1174090D02*
X275565D01*
X273660Y1172185D02*
Y1175995D01*
X690245Y1176020D02*
X694055D01*
X692150Y1174115D02*
Y1177925D01*
X840105Y1173480D02*
X843915D01*
X842010Y1171575D02*
Y1175385D01*
X167005Y1248410D02*
X170815D01*
X168910Y1246505D02*
Y1250315D01*
M02*
