%TF.GenerationSoftware,Altium Limited,Altium Designer,22.7.1 (60)*%
G04 Layer_Physical_Order=1*
G04 Layer_Color=255*
%FSLAX45Y45*%
%MOMM*%
%TF.SameCoordinates,5A05AA2C-F857-43D8-A6CE-F15CAA79189D*%
%TF.FilePolarity,Positive*%
%TF.FileFunction,Copper,L1,Top,Signal*%
%TF.Part,Single*%
G01*
G75*
%TA.AperFunction,Conductor*%
%ADD10C,0.38100*%
%ADD11C,0.50800*%
%ADD12C,0.30480*%
%TA.AperFunction,ComponentPad*%
%ADD13R,1.34620X1.34620*%
%ADD14C,1.34620*%
%ADD15C,1.77800*%
%ADD16C,2.28600*%
%ADD17C,3.81000*%
%ADD18C,2.00000*%
%ADD19C,3.98800*%
%ADD20C,3.04800*%
%ADD21C,1.00000*%
%TA.AperFunction,ViaPad*%
%ADD22C,1.50000*%
%ADD23C,0.63500*%
G36*
X919879Y13300349D02*
Y12014200D01*
X923329Y11996856D01*
X933153Y11982153D01*
X1403350Y11511957D01*
Y11507532D01*
X1407058Y11498581D01*
X1400002Y11488021D01*
X1199873D01*
X1162050Y11525843D01*
Y11530268D01*
X1153349Y11551273D01*
X1137273Y11567349D01*
X1124345Y11572704D01*
X750295Y11946754D01*
Y13273833D01*
X762995Y13279092D01*
X768575Y13273512D01*
X789715Y13261308D01*
X813295Y13254990D01*
X837705D01*
X861285Y13261308D01*
X882425Y13273512D01*
X899687Y13290775D01*
X907179Y13303752D01*
X919879Y13300349D01*
D02*
G37*
G36*
X9679860Y12405000D02*
X9430298Y12155438D01*
X9420144Y12144773D01*
X9401468Y12122015D01*
X9385111Y12097536D01*
X9371233Y12071572D01*
X9359967Y12044372D01*
X9351420Y12016199D01*
X9350536Y12011754D01*
X9337836Y12013005D01*
Y12613376D01*
X9350536Y12618637D01*
X9364213Y12604960D01*
X9387107Y12591742D01*
X9412642Y12584900D01*
X9439078D01*
X9464613Y12591742D01*
X9487507Y12604960D01*
X9506200Y12623653D01*
X9519418Y12646547D01*
X9526260Y12672082D01*
Y12698518D01*
X9519418Y12724053D01*
X9506200Y12746947D01*
X9487507Y12765640D01*
X9464613Y12778858D01*
X9439078Y12785700D01*
X9412642D01*
X9387107Y12778858D01*
X9375936Y12772409D01*
X9363236Y12779741D01*
Y13257513D01*
X9370249Y13264526D01*
X9378950Y13285532D01*
Y13308269D01*
X9370249Y13329272D01*
X9354173Y13345349D01*
X9339881Y13351270D01*
X9334438Y13360168D01*
X9333861Y13363577D01*
X9334065Y13366379D01*
X9335269Y13367619D01*
X9354173Y13375452D01*
X9370249Y13391527D01*
X9378950Y13412532D01*
Y13435268D01*
X9370249Y13456273D01*
X9354173Y13472350D01*
X9339881Y13478268D01*
X9334438Y13487167D01*
X9333861Y13490578D01*
X9334065Y13493379D01*
X9335269Y13494620D01*
X9354173Y13502451D01*
X9370249Y13518527D01*
X9378950Y13539532D01*
Y13562268D01*
X9370249Y13583273D01*
X9354173Y13599348D01*
X9339881Y13605269D01*
X9334438Y13614168D01*
X9333861Y13617578D01*
X9334065Y13620380D01*
X9335269Y13621620D01*
X9354173Y13629451D01*
X9370249Y13645528D01*
X9378950Y13666531D01*
Y13689268D01*
X9370249Y13710274D01*
X9354173Y13726349D01*
X9339881Y13732269D01*
X9334438Y13741168D01*
X9333861Y13744579D01*
X9334065Y13747379D01*
X9335269Y13748621D01*
X9354173Y13756451D01*
X9370249Y13772527D01*
X9378950Y13793532D01*
Y13816267D01*
X9370249Y13837273D01*
X9354173Y13853349D01*
X9339881Y13859270D01*
X9334438Y13868169D01*
X9333861Y13871577D01*
X9334065Y13874379D01*
X9335269Y13875620D01*
X9354173Y13883450D01*
X9370249Y13899527D01*
X9378950Y13920532D01*
Y13943268D01*
X9370249Y13964273D01*
X9354173Y13980350D01*
X9333168Y13989050D01*
X9310432D01*
X9289427Y13980350D01*
X9273351Y13964273D01*
X9264650Y13943268D01*
Y13933350D01*
X8997978Y13666678D01*
X8986245Y13671539D01*
Y13696950D01*
X8982303Y13716771D01*
X8971075Y13733575D01*
X8880304Y13824345D01*
X8874949Y13837273D01*
X8858873Y13853349D01*
X8837868Y13862050D01*
X8815132D01*
X8794127Y13853349D01*
X8778051Y13837273D01*
X8769350Y13816267D01*
Y13793532D01*
X8778051Y13772527D01*
X8794127Y13756451D01*
X8807055Y13751096D01*
X8882655Y13675496D01*
Y13598750D01*
X8872095Y13591695D01*
X8863268Y13595351D01*
X8840532D01*
X8819527Y13586649D01*
X8803451Y13570573D01*
X8794750Y13549568D01*
Y13526833D01*
X8803451Y13505827D01*
X8813067Y13496211D01*
X8812429Y13487102D01*
X8800627Y13479626D01*
X8798129Y13480663D01*
X8775393D01*
X8754388Y13471960D01*
X8738311Y13455885D01*
X8729611Y13434880D01*
Y13412144D01*
X8738311Y13391139D01*
X8741440Y13388010D01*
Y12094834D01*
X8611677Y11965071D01*
X7452064D01*
X7444732Y11977771D01*
X7448962Y11985097D01*
X7454100Y12004273D01*
Y12024127D01*
X7448962Y12043303D01*
X7439035Y12060497D01*
X7424997Y12074535D01*
X7407803Y12084462D01*
X7388627Y12089600D01*
X7368773D01*
X7349597Y12084462D01*
X7332403Y12074535D01*
X7323649Y12065781D01*
X7315200Y12061937D01*
X7306751Y12065781D01*
X7297997Y12074535D01*
X7280803Y12084462D01*
X7261627Y12089600D01*
X7241773D01*
X7222597Y12084462D01*
X7205403Y12074535D01*
X7196649Y12065781D01*
X7188200Y12061937D01*
X7179751Y12065781D01*
X7170997Y12074535D01*
X7153803Y12084462D01*
X7134627Y12089600D01*
X7114773D01*
X7095597Y12084462D01*
X7078403Y12074535D01*
X7069649Y12065781D01*
X7061200Y12061937D01*
X7052751Y12065781D01*
X7043997Y12074535D01*
X7026803Y12084462D01*
X7007627Y12089600D01*
X6987773D01*
X6968597Y12084462D01*
X6951403Y12074535D01*
X6937365Y12060497D01*
X6927438Y12043303D01*
X6922300Y12024127D01*
Y12004273D01*
X6927438Y11985097D01*
X6937365Y11967903D01*
X6951403Y11953865D01*
X6968597Y11943938D01*
X6987773Y11938800D01*
X7007627D01*
X7012113Y11940002D01*
X7094567Y11857548D01*
X7089707Y11845815D01*
X6207782D01*
X6125976Y11927621D01*
X6129771Y11941786D01*
X6137803Y11943938D01*
X6154997Y11953865D01*
X6163751Y11962619D01*
X6172200Y11966463D01*
X6180649Y11962619D01*
X6189403Y11953865D01*
X6206597Y11943938D01*
X6225773Y11938800D01*
X6245627D01*
X6264803Y11943938D01*
X6281997Y11953865D01*
X6290751Y11962619D01*
X6299200Y11966463D01*
X6307649Y11962619D01*
X6316403Y11953865D01*
X6333597Y11943938D01*
X6352773Y11938800D01*
X6372627D01*
X6391803Y11943938D01*
X6408997Y11953865D01*
X6417751Y11962619D01*
X6426200Y11966463D01*
X6434649Y11962619D01*
X6443403Y11953865D01*
X6460597Y11943938D01*
X6479773Y11938800D01*
X6499627D01*
X6518803Y11943938D01*
X6535997Y11953865D01*
X6550035Y11967903D01*
X6559962Y11985097D01*
X6565100Y12004273D01*
Y12024127D01*
X6559962Y12043303D01*
X6550035Y12060497D01*
X6535997Y12074535D01*
X6518803Y12084462D01*
X6499627Y12089600D01*
X6479773D01*
X6460597Y12084462D01*
X6443403Y12074535D01*
X6434649Y12065781D01*
X6426200Y12061937D01*
X6417751Y12065781D01*
X6408997Y12074535D01*
X6391803Y12084462D01*
X6372627Y12089600D01*
X6352773D01*
X6333597Y12084462D01*
X6316403Y12074535D01*
X6307649Y12065781D01*
X6299200Y12061937D01*
X6290751Y12065781D01*
X6281997Y12074535D01*
X6264803Y12084462D01*
X6245627Y12089600D01*
X6225773D01*
X6206597Y12084462D01*
X6189403Y12074535D01*
X6180649Y12065781D01*
X6172200Y12061937D01*
X6163751Y12065781D01*
X6154997Y12074535D01*
X6137803Y12084462D01*
X6118627Y12089600D01*
X6098773D01*
X6079597Y12084462D01*
X6062403Y12074535D01*
X6053649Y12065781D01*
X6045200Y12061937D01*
X6036751Y12065781D01*
X6027997Y12074535D01*
X6010803Y12084462D01*
X5991627Y12089600D01*
X5971773D01*
X5952597Y12084462D01*
X5935403Y12074535D01*
X5926649Y12065781D01*
X5918200Y12061937D01*
X5909751Y12065781D01*
X5900997Y12074535D01*
X5883803Y12084462D01*
X5864627Y12089600D01*
X5844773D01*
X5825597Y12084462D01*
X5808403Y12074535D01*
X5799649Y12065781D01*
X5791200Y12061937D01*
X5782751Y12065781D01*
X5773997Y12074535D01*
X5756803Y12084462D01*
X5737627Y12089600D01*
X5717773D01*
X5698597Y12084462D01*
X5681403Y12074535D01*
X5672649Y12065781D01*
X5664200Y12061937D01*
X5655751Y12065781D01*
X5646997Y12074535D01*
X5629803Y12084462D01*
X5610627Y12089600D01*
X5590773D01*
X5571597Y12084462D01*
X5554403Y12074535D01*
X5545649Y12065781D01*
X5537200Y12061937D01*
X5528751Y12065781D01*
X5519997Y12074535D01*
X5502803Y12084462D01*
X5483627Y12089600D01*
X5463773D01*
X5444597Y12084462D01*
X5427403Y12074535D01*
X5418649Y12065781D01*
X5410200Y12061937D01*
X5401751Y12065781D01*
X5392997Y12074535D01*
X5375803Y12084462D01*
X5356627Y12089600D01*
X5336773D01*
X5317597Y12084462D01*
X5300403Y12074535D01*
X5291649Y12065781D01*
X5283200Y12061937D01*
X5274751Y12065781D01*
X5265997Y12074535D01*
X5248803Y12084462D01*
X5229627Y12089600D01*
X5209773D01*
X5190597Y12084462D01*
X5173403Y12074535D01*
X5164649Y12065781D01*
X5156200Y12061937D01*
X5147751Y12065781D01*
X5138997Y12074535D01*
X5121803Y12084462D01*
X5102627Y12089600D01*
X5082773D01*
X5063597Y12084462D01*
X5046403Y12074535D01*
X5037649Y12065781D01*
X5029200Y12061937D01*
X5020751Y12065781D01*
X5011997Y12074535D01*
X4994803Y12084462D01*
X4975627Y12089600D01*
X4955773D01*
X4936597Y12084462D01*
X4919403Y12074535D01*
X4905365Y12060497D01*
X4895438Y12043303D01*
X4890300Y12024127D01*
Y12004273D01*
X4895438Y11985097D01*
X4905365Y11967903D01*
X4919403Y11953865D01*
X4936597Y11943938D01*
X4955773Y11938800D01*
X4975627D01*
X4994803Y11943938D01*
X5011997Y11953865D01*
X5020751Y11962619D01*
X5029200Y11966463D01*
X5037649Y11962619D01*
X5046403Y11953865D01*
X5063597Y11943938D01*
X5082773Y11938800D01*
X5102627D01*
X5121803Y11943938D01*
X5138997Y11953865D01*
X5147751Y11962619D01*
X5156200Y11966463D01*
X5164649Y11962619D01*
X5173403Y11953865D01*
X5190597Y11943938D01*
X5209773Y11938800D01*
X5229627D01*
X5248803Y11943938D01*
X5265997Y11953865D01*
X5274751Y11962619D01*
X5283200Y11966463D01*
X5291649Y11962619D01*
X5300403Y11953865D01*
X5317597Y11943938D01*
X5336773Y11938800D01*
X5356627D01*
X5375803Y11943938D01*
X5392997Y11953865D01*
X5401751Y11962619D01*
X5410200Y11966463D01*
X5418649Y11962619D01*
X5427403Y11953865D01*
X5444597Y11943938D01*
X5463773Y11938800D01*
X5483627D01*
X5502803Y11943938D01*
X5519997Y11953865D01*
X5528751Y11962619D01*
X5537200Y11966463D01*
X5545649Y11962619D01*
X5554403Y11953865D01*
X5571597Y11943938D01*
X5590773Y11938800D01*
X5610627D01*
X5629803Y11943938D01*
X5646997Y11953865D01*
X5655751Y11962619D01*
X5664200Y11966463D01*
X5672649Y11962619D01*
X5681403Y11953865D01*
X5698597Y11943938D01*
X5717773Y11938800D01*
X5737627D01*
X5756803Y11943938D01*
X5773997Y11953865D01*
X5782751Y11962619D01*
X5791200Y11966463D01*
X5799649Y11962619D01*
X5808403Y11953865D01*
X5825597Y11943938D01*
X5844773Y11938800D01*
X5864627D01*
X5883803Y11943938D01*
X5900997Y11953865D01*
X5909751Y11962619D01*
X5918200Y11966463D01*
X5926649Y11962619D01*
X5935403Y11953865D01*
X5952597Y11943938D01*
X5968743Y11939612D01*
X5971275Y11935822D01*
X6149702Y11757395D01*
X6153705Y11754721D01*
X6149852Y11742021D01*
X1638300D01*
X1620957Y11738571D01*
X1606253Y11728747D01*
X1606253Y11728746D01*
X1460500Y11582993D01*
X1010521Y12032973D01*
Y13522974D01*
X1016503Y13525452D01*
X1023221Y13527139D01*
X1043715Y13515308D01*
X1067295Y13508990D01*
X1091705D01*
X1115285Y13515308D01*
X1136425Y13527513D01*
X1153687Y13544775D01*
X1154705Y13546538D01*
X1167405Y13543135D01*
Y12917242D01*
X1154705Y12909412D01*
X1154368Y12909550D01*
X1131632D01*
X1110627Y12900848D01*
X1094551Y12884773D01*
X1085850Y12863768D01*
Y12841032D01*
X1094551Y12820027D01*
X1110627Y12803951D01*
X1131632Y12795250D01*
X1154368D01*
X1156845Y12796276D01*
X1167405Y12789220D01*
Y12026900D01*
X1171347Y12007079D01*
X1182575Y11990275D01*
X1296075Y11876775D01*
X1312879Y11865547D01*
X1332700Y11861605D01*
X3889853D01*
X3909674Y11865547D01*
X3926478Y11876775D01*
X3985525Y11935822D01*
X3988057Y11939612D01*
X4004203Y11943938D01*
X4021397Y11953865D01*
X4030151Y11962619D01*
X4038600Y11966463D01*
X4047049Y11962619D01*
X4055803Y11953865D01*
X4072997Y11943938D01*
X4092173Y11938800D01*
X4112027D01*
X4131203Y11943938D01*
X4148397Y11953865D01*
X4157151Y11962619D01*
X4165600Y11966463D01*
X4174049Y11962619D01*
X4182803Y11953865D01*
X4199997Y11943938D01*
X4219173Y11938800D01*
X4239027D01*
X4258203Y11943938D01*
X4275397Y11953865D01*
X4289435Y11967903D01*
X4299362Y11985097D01*
X4304500Y12004273D01*
Y12024127D01*
X4299362Y12043303D01*
X4289435Y12060497D01*
X4275397Y12074535D01*
X4258203Y12084462D01*
X4239027Y12089600D01*
X4219173D01*
X4199997Y12084462D01*
X4182803Y12074535D01*
X4174049Y12065781D01*
X4165600Y12061937D01*
X4157151Y12065781D01*
X4148397Y12074535D01*
X4131203Y12084462D01*
X4112027Y12089600D01*
X4092173D01*
X4072997Y12084462D01*
X4055803Y12074535D01*
X4047049Y12065781D01*
X4038600Y12061937D01*
X4030151Y12065781D01*
X4021397Y12074535D01*
X4004203Y12084462D01*
X3985027Y12089600D01*
X3965173D01*
X3945997Y12084462D01*
X3928803Y12074535D01*
X3920049Y12065781D01*
X3911600Y12061937D01*
X3903151Y12065781D01*
X3894397Y12074535D01*
X3877203Y12084462D01*
X3858027Y12089600D01*
X3838173D01*
X3818997Y12084462D01*
X3801803Y12074535D01*
X3793049Y12065781D01*
X3784600Y12061937D01*
X3776151Y12065781D01*
X3767397Y12074535D01*
X3750203Y12084462D01*
X3731027Y12089600D01*
X3711173D01*
X3691997Y12084462D01*
X3674803Y12074535D01*
X3666049Y12065781D01*
X3657600Y12061937D01*
X3649151Y12065781D01*
X3640397Y12074535D01*
X3623203Y12084462D01*
X3604027Y12089600D01*
X3584173D01*
X3564997Y12084462D01*
X3547803Y12074535D01*
X3539049Y12065781D01*
X3530600Y12061937D01*
X3522151Y12065781D01*
X3513397Y12074535D01*
X3496203Y12084462D01*
X3477027Y12089600D01*
X3457173D01*
X3437997Y12084462D01*
X3420803Y12074535D01*
X3412049Y12065781D01*
X3403600Y12061937D01*
X3395151Y12065781D01*
X3386397Y12074535D01*
X3369203Y12084462D01*
X3350027Y12089600D01*
X3330173D01*
X3310997Y12084462D01*
X3293803Y12074535D01*
X3285049Y12065781D01*
X3276600Y12061937D01*
X3268151Y12065781D01*
X3259397Y12074535D01*
X3242203Y12084462D01*
X3223027Y12089600D01*
X3203173D01*
X3183997Y12084462D01*
X3166803Y12074535D01*
X3158049Y12065781D01*
X3149600Y12061937D01*
X3141151Y12065781D01*
X3132397Y12074535D01*
X3115203Y12084462D01*
X3096027Y12089600D01*
X3076173D01*
X3056997Y12084462D01*
X3039803Y12074535D01*
X3031049Y12065781D01*
X3022600Y12061937D01*
X3014151Y12065781D01*
X3005397Y12074535D01*
X2988203Y12084462D01*
X2969027Y12089600D01*
X2949173D01*
X2929997Y12084462D01*
X2912803Y12074535D01*
X2904049Y12065781D01*
X2895600Y12061937D01*
X2887151Y12065781D01*
X2878397Y12074535D01*
X2861203Y12084462D01*
X2842027Y12089600D01*
X2822173D01*
X2802997Y12084462D01*
X2785803Y12074535D01*
X2777049Y12065781D01*
X2768600Y12061937D01*
X2760151Y12065781D01*
X2751397Y12074535D01*
X2734203Y12084462D01*
X2715027Y12089600D01*
X2695173D01*
X2675997Y12084462D01*
X2658803Y12074535D01*
X2650049Y12065781D01*
X2641600Y12061937D01*
X2633151Y12065781D01*
X2624397Y12074535D01*
X2607203Y12084462D01*
X2588027Y12089600D01*
X2568173D01*
X2548997Y12084462D01*
X2531803Y12074535D01*
X2523049Y12065781D01*
X2514600Y12061937D01*
X2506151Y12065781D01*
X2497397Y12074535D01*
X2480203Y12084462D01*
X2461027Y12089600D01*
X2441173D01*
X2421997Y12084462D01*
X2404803Y12074535D01*
X2396049Y12065781D01*
X2387600Y12061937D01*
X2379151Y12065781D01*
X2370397Y12074535D01*
X2353203Y12084462D01*
X2334027Y12089600D01*
X2314173D01*
X2294997Y12084462D01*
X2277803Y12074535D01*
X2269049Y12065781D01*
X2260600Y12061937D01*
X2252151Y12065781D01*
X2243397Y12074535D01*
X2226203Y12084462D01*
X2207027Y12089600D01*
X2187173D01*
X2167997Y12084462D01*
X2150803Y12074535D01*
X2142049Y12065781D01*
X2133600Y12061937D01*
X2125151Y12065781D01*
X2116397Y12074535D01*
X2099203Y12084462D01*
X2080027Y12089600D01*
X2060173D01*
X2040997Y12084462D01*
X2023803Y12074535D01*
X2015049Y12065781D01*
X2006600Y12061937D01*
X1998151Y12065781D01*
X1989397Y12074535D01*
X1972203Y12084462D01*
X1953027Y12089600D01*
X1933173D01*
X1913997Y12084462D01*
X1896803Y12074535D01*
X1882765Y12060497D01*
X1872838Y12043303D01*
X1867700Y12024127D01*
Y12004273D01*
X1872838Y11985097D01*
X1876996Y11977895D01*
X1869664Y11965195D01*
X1354155D01*
X1270995Y12048354D01*
Y12865100D01*
Y14516100D01*
Y16065500D01*
X1267053Y16085321D01*
X1255825Y16102126D01*
X1209504Y16148445D01*
X1204149Y16161372D01*
X1188073Y16177449D01*
X1167068Y16186150D01*
X1144332D01*
X1123327Y16177449D01*
X1107251Y16161372D01*
X1098550Y16140369D01*
Y16117632D01*
X1107251Y16096626D01*
X1123327Y16080551D01*
X1136255Y16075195D01*
X1167405Y16044046D01*
Y15285864D01*
X1154705Y15282462D01*
X1153687Y15284225D01*
X1136425Y15301488D01*
X1115285Y15313692D01*
X1091705Y15320010D01*
X1067295D01*
X1043715Y15313692D01*
X1022575Y15301488D01*
X1005313Y15284225D01*
X993108Y15263084D01*
X986790Y15239505D01*
Y15215096D01*
X993108Y15191515D01*
X1005313Y15170375D01*
X1022575Y15153113D01*
X1043715Y15140907D01*
X1067295Y15134590D01*
X1091705D01*
X1115285Y15140907D01*
X1136425Y15153113D01*
X1153687Y15170375D01*
X1154705Y15172137D01*
X1167405Y15168735D01*
Y14557625D01*
X1148729D01*
X1141668Y14560550D01*
X1118932D01*
X1097927Y14551849D01*
X1081851Y14535773D01*
X1073150Y14514767D01*
Y14492032D01*
X1081851Y14471027D01*
X1097927Y14454951D01*
X1118932Y14446249D01*
X1141668D01*
X1154705Y14451649D01*
X1167405Y14444383D01*
Y13660265D01*
X1154705Y13656862D01*
X1153687Y13658624D01*
X1136425Y13675887D01*
X1115285Y13688092D01*
X1091705Y13694411D01*
X1067295D01*
X1043715Y13688092D01*
X1023221Y13676260D01*
X1016503Y13677948D01*
X1010521Y13680426D01*
Y15113000D01*
X1007071Y15130344D01*
X997247Y15145047D01*
X997246Y15145047D01*
X515221Y15627074D01*
Y15852197D01*
X518349Y15855327D01*
X527050Y15876332D01*
Y15899068D01*
X518349Y15920073D01*
X502273Y15936150D01*
X481268Y15944850D01*
X458532D01*
X437527Y15936150D01*
X421451Y15920073D01*
X412750Y15899068D01*
Y15876332D01*
X421451Y15855327D01*
X424579Y15852197D01*
Y15608299D01*
X428029Y15590956D01*
X437853Y15576253D01*
X919879Y15094228D01*
Y15020651D01*
X907179Y15017249D01*
X899687Y15030225D01*
X882425Y15047487D01*
X861285Y15059692D01*
X837705Y15066010D01*
X813295D01*
X789715Y15059692D01*
X768575Y15047487D01*
X751313Y15030225D01*
X739108Y15009085D01*
X732790Y14985506D01*
Y14961095D01*
X739108Y14937515D01*
X751313Y14916376D01*
X768575Y14899113D01*
X789715Y14886908D01*
X813295Y14880589D01*
X837705D01*
X861285Y14886908D01*
X882425Y14899113D01*
X899687Y14916376D01*
X907179Y14929352D01*
X919879Y14925949D01*
Y13395052D01*
X907179Y13391647D01*
X899687Y13404625D01*
X882425Y13421887D01*
X861285Y13434093D01*
X837705Y13440410D01*
X813295D01*
X789715Y13434093D01*
X768575Y13421887D01*
X762995Y13416307D01*
X750295Y13421568D01*
Y13716000D01*
X746353Y13735822D01*
X735125Y13752625D01*
X547095Y13940654D01*
Y14250504D01*
X552450Y14263432D01*
Y14286168D01*
X543749Y14307173D01*
X527673Y14323248D01*
X506668Y14331950D01*
X483932D01*
X462927Y14323248D01*
X446851Y14307173D01*
X438150Y14286168D01*
Y14263432D01*
X443505Y14250504D01*
Y13919200D01*
X447447Y13899379D01*
X458675Y13882574D01*
X646705Y13694547D01*
Y11925300D01*
X650647Y11905479D01*
X661875Y11888675D01*
X1051096Y11499455D01*
X1056451Y11486527D01*
X1072527Y11470451D01*
X1093532Y11461750D01*
X1097957D01*
X1123453Y11436254D01*
X1118592Y11424521D01*
X907772D01*
X806450Y11525843D01*
Y11530268D01*
X797749Y11551273D01*
X781673Y11567349D01*
X760668Y11576050D01*
X737932D01*
X716927Y11567349D01*
X700851Y11551273D01*
X692150Y11530268D01*
Y11507532D01*
X700851Y11486527D01*
X716927Y11470451D01*
X737932Y11461750D01*
X742357D01*
X856953Y11347154D01*
X856953Y11347153D01*
X871657Y11337329D01*
X889000Y11333879D01*
X2711727D01*
X2761953Y11283654D01*
X2761953Y11283653D01*
X2776657Y11273829D01*
X2794000Y11270379D01*
X3874402D01*
X3891746Y11273829D01*
X3906449Y11283653D01*
X4083675Y11460879D01*
X4523798D01*
X4526927Y11457751D01*
X4547932Y11449050D01*
X4552357D01*
X4730453Y11270953D01*
X4745156Y11261129D01*
X4762500Y11257679D01*
X4762501Y11257679D01*
X6416098D01*
X6419227Y11254551D01*
X6440232Y11245850D01*
X6462968D01*
X6483973Y11254551D01*
X6487102Y11257679D01*
X6833064D01*
X6936585Y11154159D01*
X6931725Y11142425D01*
X6746130D01*
X6726309Y11138483D01*
X6709505Y11127255D01*
X6709505Y11127254D01*
X6641986Y11059735D01*
X6621478Y11065230D01*
X6591382D01*
X6562312Y11057441D01*
X6536248Y11042393D01*
X6534015Y11040160D01*
X6446920Y11127255D01*
X6430117Y11138483D01*
X6410296Y11142425D01*
X4910266D01*
X4910264Y11142426D01*
X4890443Y11138483D01*
X4873640Y11127255D01*
X4786545Y11040160D01*
X4784312Y11042393D01*
X4758248Y11057441D01*
X4729178Y11065230D01*
X4699082D01*
X4670012Y11057441D01*
X4643948Y11042393D01*
X4641715Y11040160D01*
X4554620Y11127255D01*
X4537817Y11138483D01*
X4535669Y11138910D01*
X4512754Y11161825D01*
X4495950Y11173053D01*
X4476129Y11176995D01*
X4108660D01*
X4088839Y11173053D01*
X4072035Y11161825D01*
X3942426Y11032215D01*
X3519360D01*
X3424320Y11127255D01*
X3407517Y11138483D01*
X3387696Y11142425D01*
X3017966D01*
X3017965Y11142426D01*
X2998143Y11138483D01*
X2981340Y11127255D01*
X2894245Y11040160D01*
X2892012Y11042393D01*
X2865948Y11057441D01*
X2836878Y11065230D01*
X2806782D01*
X2777712Y11057441D01*
X2765978Y11050666D01*
X2692920Y11123725D01*
X2676116Y11134953D01*
X2656295Y11138895D01*
X2643443D01*
X2625696Y11142425D01*
X1125666D01*
X1125664Y11142426D01*
X1105843Y11138483D01*
X1089040Y11127255D01*
X1089039Y11127254D01*
X1007205Y11045420D01*
X1005568Y11042970D01*
X999711Y11042393D01*
X973648Y11057441D01*
X944578Y11065230D01*
X914482D01*
X885412Y11057441D01*
X859348Y11042393D01*
X838067Y11021112D01*
X823019Y10995048D01*
X815230Y10965978D01*
Y10935882D01*
X823019Y10906812D01*
X838067Y10880748D01*
X859348Y10859467D01*
X885412Y10844420D01*
X914482Y10836630D01*
X923366D01*
X929530Y10835404D01*
X935694Y10836630D01*
X944578D01*
X973648Y10844420D01*
X999712Y10859467D01*
X1020993Y10880748D01*
X1036041Y10906812D01*
X1041036Y10925456D01*
X1057497Y10941916D01*
X1069230Y10937056D01*
Y10935882D01*
X1077019Y10906812D01*
X1092067Y10880748D01*
X1113348Y10859467D01*
X1139412Y10844420D01*
X1168482Y10836630D01*
X1198578D01*
X1227648Y10844420D01*
X1253712Y10859467D01*
X1274993Y10880748D01*
X1290041Y10906812D01*
X1297830Y10935882D01*
Y10965978D01*
X1290041Y10995048D01*
X1274993Y11021112D01*
X1269003Y11027102D01*
X1273863Y11038835D01*
X1347237D01*
X1352097Y11027102D01*
X1346087Y11021092D01*
X1331040Y10995028D01*
X1323250Y10965958D01*
Y10935862D01*
X1331040Y10906792D01*
X1346087Y10880728D01*
X1367368Y10859447D01*
X1393432Y10844399D01*
X1422502Y10836610D01*
X1452598D01*
X1481668Y10844399D01*
X1507732Y10859447D01*
X1529013Y10880728D01*
X1544061Y10906792D01*
X1551850Y10935862D01*
Y10965958D01*
X1544061Y10995028D01*
X1529013Y11021092D01*
X1523003Y11027102D01*
X1527863Y11038835D01*
X2477497D01*
X2482357Y11027102D01*
X2476367Y11021112D01*
X2461319Y10995048D01*
X2453530Y10965978D01*
Y10935882D01*
X2461319Y10906812D01*
X2476367Y10880748D01*
X2497648Y10859467D01*
X2523712Y10844420D01*
X2552782Y10836630D01*
X2582878D01*
X2611948Y10844420D01*
X2638012Y10859467D01*
X2659293Y10880748D01*
X2674341Y10906812D01*
X2682130Y10935882D01*
Y10965978D01*
X2680638Y10971547D01*
X2692024Y10978121D01*
X2707530Y10962616D01*
Y10935882D01*
X2715319Y10906812D01*
X2730367Y10880748D01*
X2751648Y10859467D01*
X2777712Y10844420D01*
X2806782Y10836630D01*
X2836878D01*
X2865948Y10844420D01*
X2892012Y10859467D01*
X2913293Y10880748D01*
X2928341Y10906812D01*
X2936130Y10935882D01*
Y10936561D01*
X2939189Y10938606D01*
X2949797Y10949213D01*
X2961530Y10944353D01*
Y10935882D01*
X2969319Y10906812D01*
X2984367Y10880748D01*
X3005648Y10859467D01*
X3031712Y10844420D01*
X3060782Y10836630D01*
X3090878D01*
X3119948Y10844420D01*
X3146012Y10859467D01*
X3167293Y10880748D01*
X3182341Y10906812D01*
X3190130Y10935882D01*
Y10965978D01*
X3182341Y10995048D01*
X3167293Y11021112D01*
X3161303Y11027102D01*
X3166163Y11038835D01*
X3239537D01*
X3244397Y11027102D01*
X3238387Y11021092D01*
X3223340Y10995028D01*
X3215550Y10965958D01*
Y10935862D01*
X3223340Y10906792D01*
X3238387Y10880728D01*
X3259668Y10859447D01*
X3285732Y10844399D01*
X3314802Y10836610D01*
X3344898D01*
X3373968Y10844399D01*
X3400032Y10859447D01*
X3421313Y10880728D01*
X3436361Y10906792D01*
X3444150Y10935862D01*
Y10944333D01*
X3455883Y10949193D01*
X3461280Y10943796D01*
X3461281Y10943795D01*
X3478084Y10932567D01*
X3497906Y10928625D01*
X3963880D01*
X3983701Y10932567D01*
X4000505Y10943795D01*
X4130114Y11073405D01*
X4426521D01*
X4428194Y11060705D01*
X4416012Y11057441D01*
X4389948Y11042393D01*
X4368667Y11021112D01*
X4353619Y10995048D01*
X4345830Y10965978D01*
Y10935882D01*
X4353619Y10906812D01*
X4368667Y10880748D01*
X4389948Y10859467D01*
X4416012Y10844420D01*
X4445082Y10836630D01*
X4475178D01*
X4504248Y10844420D01*
X4530312Y10859467D01*
X4551593Y10880748D01*
X4566641Y10906812D01*
X4574430Y10935882D01*
Y10944353D01*
X4586163Y10949213D01*
X4596771Y10938606D01*
X4599830Y10936561D01*
Y10935882D01*
X4607619Y10906812D01*
X4622667Y10880748D01*
X4643948Y10859467D01*
X4670012Y10844420D01*
X4699082Y10836630D01*
X4729178D01*
X4758248Y10844420D01*
X4784312Y10859467D01*
X4805593Y10880748D01*
X4820641Y10906812D01*
X4828430Y10935882D01*
Y10936561D01*
X4831489Y10938606D01*
X4842097Y10949213D01*
X4853830Y10944353D01*
Y10935882D01*
X4861619Y10906812D01*
X4876667Y10880748D01*
X4897948Y10859467D01*
X4924012Y10844420D01*
X4953082Y10836630D01*
X4983178D01*
X5012248Y10844420D01*
X5038312Y10859467D01*
X5059593Y10880748D01*
X5074641Y10906812D01*
X5082430Y10935882D01*
Y10965978D01*
X5074641Y10995048D01*
X5059593Y11021112D01*
X5053603Y11027102D01*
X5058463Y11038835D01*
X5131837D01*
X5136697Y11027102D01*
X5130687Y11021092D01*
X5115640Y10995028D01*
X5107850Y10965958D01*
Y10935862D01*
X5115640Y10906792D01*
X5130687Y10880728D01*
X5151968Y10859447D01*
X5178032Y10844399D01*
X5207102Y10836610D01*
X5237198D01*
X5266268Y10844399D01*
X5292332Y10859447D01*
X5313613Y10880728D01*
X5328661Y10906792D01*
X5336450Y10935862D01*
Y10965958D01*
X5328661Y10995028D01*
X5313613Y11021092D01*
X5307603Y11027102D01*
X5312463Y11038835D01*
X6262097D01*
X6266957Y11027102D01*
X6260967Y11021112D01*
X6245919Y10995048D01*
X6238130Y10965978D01*
Y10935882D01*
X6245919Y10906812D01*
X6260967Y10880748D01*
X6282248Y10859467D01*
X6308312Y10844420D01*
X6337382Y10836630D01*
X6367478D01*
X6396548Y10844420D01*
X6422612Y10859467D01*
X6443893Y10880748D01*
X6458941Y10906812D01*
X6466730Y10935882D01*
Y10944353D01*
X6478463Y10949213D01*
X6489071Y10938606D01*
X6492130Y10936561D01*
Y10935882D01*
X6499919Y10906812D01*
X6514967Y10880748D01*
X6536248Y10859467D01*
X6562312Y10844420D01*
X6591382Y10836630D01*
X6621478D01*
X6650548Y10844420D01*
X6676612Y10859467D01*
X6697893Y10880748D01*
X6712941Y10906812D01*
X6720730Y10935882D01*
Y10965978D01*
X6715235Y10986486D01*
X6759641Y11030891D01*
X6760596Y11030701D01*
X6762483Y11028539D01*
X6766365Y11016605D01*
X6753919Y10995048D01*
X6746130Y10965978D01*
Y10935882D01*
X6753919Y10906812D01*
X6768967Y10880748D01*
X6790248Y10859467D01*
X6816312Y10844420D01*
X6845382Y10836630D01*
X6875478D01*
X6904548Y10844420D01*
X6930612Y10859467D01*
X6951893Y10880748D01*
X6966941Y10906812D01*
X6974730Y10935882D01*
Y10965978D01*
X6966941Y10995048D01*
X6951893Y11021112D01*
X6945903Y11027102D01*
X6950763Y11038835D01*
X7024137D01*
X7028997Y11027102D01*
X7022987Y11021092D01*
X7007940Y10995028D01*
X7000150Y10965958D01*
Y10935862D01*
X7007940Y10906792D01*
X7022987Y10880728D01*
X7044268Y10859447D01*
X7070332Y10844399D01*
X7099402Y10836610D01*
X7129498D01*
X7158568Y10844399D01*
X7184632Y10859447D01*
X7205913Y10880728D01*
X7220961Y10906792D01*
X7228750Y10935862D01*
Y10965958D01*
X7220961Y10995028D01*
X7205913Y11021092D01*
X7199903Y11027102D01*
X7204763Y11038835D01*
X7241804D01*
X7245407Y11036428D01*
X7265228Y11032485D01*
X7753674D01*
X7766601Y11027130D01*
X7789337D01*
X7810342Y11035831D01*
X7812037Y11037525D01*
X7823200Y11035305D01*
X7840947Y11038835D01*
X8154397D01*
X8159257Y11027102D01*
X8153267Y11021112D01*
X8138219Y10995048D01*
X8130430Y10965978D01*
Y10935882D01*
X8138219Y10906812D01*
X8153267Y10880748D01*
X8174548Y10859467D01*
X8200612Y10844420D01*
X8229682Y10836630D01*
X8259778D01*
X8288848Y10844420D01*
X8314912Y10859467D01*
X8336193Y10880748D01*
X8351241Y10906812D01*
X8359030Y10935882D01*
Y10965978D01*
X8351241Y10995048D01*
X8338795Y11016605D01*
X8342677Y11028539D01*
X8344564Y11030701D01*
X8345520Y11030891D01*
X8389925Y10986486D01*
X8384430Y10965978D01*
Y10935882D01*
X8392219Y10906812D01*
X8407267Y10880748D01*
X8428548Y10859467D01*
X8454612Y10844420D01*
X8483682Y10836630D01*
X8513778D01*
X8542848Y10844420D01*
X8568912Y10859467D01*
X8590193Y10880748D01*
X8605241Y10906812D01*
X8613030Y10935882D01*
Y10965978D01*
X8605241Y10995048D01*
X8590193Y11021112D01*
X8568912Y11042393D01*
X8542848Y11057441D01*
X8513778Y11065230D01*
X8483682D01*
X8463174Y11059735D01*
X8395655Y11127255D01*
X8395282Y11131040D01*
X8405049Y11140807D01*
X8413750Y11161812D01*
Y11184548D01*
X8410042Y11193500D01*
X8417098Y11204059D01*
X8772447D01*
X8820150Y11156357D01*
Y11151932D01*
X8828851Y11130927D01*
X8844927Y11114851D01*
X8865932Y11106150D01*
X8888668D01*
X8909673Y11114851D01*
X8925749Y11130927D01*
X8934450Y11151932D01*
Y11174668D01*
X8925749Y11195673D01*
X8909673Y11211749D01*
X8888668Y11220450D01*
X8884243D01*
X8848867Y11255826D01*
X8853728Y11267559D01*
X9129661D01*
X9133651Y11257927D01*
X9149727Y11241851D01*
X9170732Y11233150D01*
X9193468D01*
X9214473Y11241851D01*
X9230549Y11257927D01*
X9239250Y11278932D01*
Y11301668D01*
X9230549Y11322673D01*
X9214473Y11338749D01*
X9193468Y11347450D01*
X9180917D01*
X9169990Y11354751D01*
X9152647Y11358201D01*
X8867994D01*
X8863134Y11369934D01*
X9325700Y11832500D01*
X9329730Y11838532D01*
X9342430Y11834679D01*
X9342430Y11129264D01*
X9342791Y11114543D01*
X9345677Y11085245D01*
X9351420Y11056370D01*
X9359967Y11028197D01*
X9371233Y11000997D01*
X9385111Y10975033D01*
X9401468Y10950554D01*
X9420145Y10927796D01*
X9430298Y10917132D01*
X9430298Y10917132D01*
X9742430Y10605000D01*
Y6405000D01*
X9430298Y6092868D01*
X9420144Y6082203D01*
X9401468Y6059445D01*
X9385111Y6034966D01*
X9371233Y6009002D01*
X9359967Y5981802D01*
X9351420Y5953629D01*
X9345677Y5924755D01*
X9342791Y5895456D01*
X9342430Y5880736D01*
X9342430Y5880736D01*
X9342430Y5880735D01*
X9342430Y5629264D01*
X9342791Y5614544D01*
X9345677Y5585245D01*
X9351420Y5556370D01*
X9359967Y5528197D01*
X9371233Y5500997D01*
X9385111Y5475033D01*
X9401468Y5450554D01*
X9420145Y5427796D01*
X9430298Y5417132D01*
X9430298Y5417132D01*
X9742430Y5105000D01*
Y605000D01*
X9142430Y5000D01*
X542430D01*
X342430Y205000D01*
X342430Y11943306D01*
X342068Y11958026D01*
X339183Y11987325D01*
X333439Y12016199D01*
X324893Y12044372D01*
X313626Y12071572D01*
X299748Y12097536D01*
X283392Y12122015D01*
X264715Y12144773D01*
X254562Y12155437D01*
X254562Y12155438D01*
X5000Y12405000D01*
Y17905000D01*
X1305000D01*
Y12505000D01*
X1305642Y12485379D01*
X1310764Y12446472D01*
X1320921Y12408568D01*
X1335938Y12372313D01*
X1355559Y12338329D01*
X1379448Y12307196D01*
X1407196Y12279448D01*
X1438329Y12255559D01*
X1472313Y12235938D01*
X1508568Y12220921D01*
X1546473Y12210764D01*
X1585379Y12205642D01*
X1605000Y12205000D01*
X8079860D01*
X8099481Y12205642D01*
X8138387Y12210764D01*
X8176291Y12220921D01*
X8212546Y12235938D01*
X8246531Y12255559D01*
X8277663Y12279448D01*
X8305412Y12307196D01*
X8329301Y12338329D01*
X8348922Y12372313D01*
X8363939Y12408568D01*
X8374095Y12446473D01*
X8379217Y12485379D01*
X8379860Y12505000D01*
X8379860Y17905000D01*
X9679860D01*
Y12405000D01*
D02*
G37*
G36*
X5353050Y11499256D02*
Y11494832D01*
X5356758Y11485881D01*
X5349702Y11475321D01*
X5308491D01*
X5245565Y11538247D01*
X5230862Y11548071D01*
X5213518Y11551521D01*
X5090102D01*
X5086973Y11554649D01*
X5065968Y11563350D01*
X5061543D01*
X4985247Y11639646D01*
X4990108Y11651379D01*
X5200927D01*
X5353050Y11499256D01*
D02*
G37*
G36*
X4044453Y11639646D02*
X3829327Y11424521D01*
X3565698D01*
X3558642Y11435081D01*
X3562350Y11444032D01*
Y11466768D01*
X3553649Y11487773D01*
X3537573Y11503849D01*
X3516568Y11512550D01*
X3512143D01*
X3385047Y11639646D01*
X3389908Y11651379D01*
X4039593D01*
X4044453Y11639646D01*
D02*
G37*
G36*
X3448050Y11448457D02*
Y11444032D01*
X3451758Y11435081D01*
X3444702Y11424521D01*
X3244573D01*
X3206750Y11462343D01*
Y11466768D01*
X3198049Y11487773D01*
X3181973Y11503849D01*
X3160968Y11512550D01*
X3156543D01*
X3030414Y11638679D01*
X3031048Y11643557D01*
X3034846Y11651379D01*
X3245127D01*
X3448050Y11448457D01*
D02*
G37*
G36*
X3092450D02*
Y11444032D01*
X3101151Y11423027D01*
X3117227Y11406951D01*
X3138232Y11398250D01*
X3142657D01*
X3168153Y11372754D01*
X3163292Y11361021D01*
X2812772D01*
X2794593Y11379200D01*
X2813643Y11398250D01*
X2818068D01*
X2839073Y11406951D01*
X2855149Y11423027D01*
X2863850Y11444032D01*
Y11466768D01*
X2855149Y11487773D01*
X2839073Y11503849D01*
X2818068Y11512550D01*
X2795332D01*
X2774327Y11503849D01*
X2758251Y11487773D01*
X2749550Y11466768D01*
Y11462343D01*
X2711727Y11424521D01*
X1611908D01*
X1607047Y11436254D01*
X1733273Y11562479D01*
X2978427D01*
X3092450Y11448457D01*
D02*
G37*
G36*
X4997450Y11499257D02*
Y11494832D01*
X5006151Y11473827D01*
X5022227Y11457751D01*
X5043232Y11449050D01*
X5065968D01*
X5086973Y11457751D01*
X5090102Y11460879D01*
X5194746D01*
X5257671Y11397953D01*
X5272375Y11388129D01*
X5289718Y11384679D01*
X5524500D01*
X5541844Y11388129D01*
X5556547Y11397953D01*
X5670272Y11511679D01*
X6686827D01*
X6838453Y11360054D01*
X6833593Y11348321D01*
X6487102D01*
X6483973Y11351449D01*
X6462968Y11360150D01*
X6440232D01*
X6419227Y11351449D01*
X6416098Y11348321D01*
X4781273D01*
X4616450Y11513143D01*
Y11517568D01*
X4607749Y11538573D01*
X4591673Y11554649D01*
X4570668Y11563350D01*
X4547932D01*
X4526927Y11554649D01*
X4523798Y11551521D01*
X4101107D01*
X4096247Y11563254D01*
X4120872Y11587879D01*
X4908827D01*
X4997450Y11499257D01*
D02*
G37*
G36*
X7503466Y11730491D02*
X7457318Y11684344D01*
X7448336Y11670901D01*
X7445182Y11655044D01*
Y11628104D01*
X7431851Y11614773D01*
X7423150Y11593768D01*
Y11571032D01*
X7431851Y11550027D01*
X7447927Y11533951D01*
X7468932Y11525250D01*
X7488786D01*
X7494902Y11520802D01*
X7499350Y11514686D01*
Y11494832D01*
X7508051Y11473827D01*
X7524127Y11457751D01*
X7545132Y11449050D01*
X7567868D01*
X7588873Y11457751D01*
X7604949Y11473827D01*
X7613650Y11494832D01*
Y11517568D01*
X7610011Y11526353D01*
X7619731Y11536073D01*
X7621332Y11535410D01*
X7644068D01*
X7645165Y11535864D01*
X7654885Y11526144D01*
X7651297Y11517481D01*
Y11494746D01*
X7659997Y11473741D01*
X7676074Y11457664D01*
X7697079Y11448964D01*
X7716216D01*
X7721070Y11447362D01*
X7727950Y11438587D01*
Y11422356D01*
X7736651Y11401351D01*
X7752727Y11385274D01*
X7773732Y11376574D01*
X7796468D01*
X7804150Y11371440D01*
Y11365012D01*
X7807858Y11356061D01*
X7800802Y11345501D01*
X7441638D01*
X7427794Y11354751D01*
X7410451Y11358201D01*
X7350702D01*
X7347573Y11361330D01*
X7326568Y11370030D01*
X7322143D01*
X6963427Y11728747D01*
X6962262Y11729525D01*
X6966115Y11742225D01*
X7498605D01*
X7503466Y11730491D01*
D02*
G37*
G36*
X7258050Y11305937D02*
Y11301512D01*
X7261758Y11292561D01*
X7254702Y11282001D01*
X7197260D01*
X7156915Y11322347D01*
X7142212Y11332171D01*
X7124868Y11335621D01*
X7007802D01*
X7004673Y11338749D01*
X6983668Y11347450D01*
X6979243D01*
X6737647Y11589047D01*
X6722944Y11598871D01*
X6705600Y11602321D01*
X5651501D01*
X5651500Y11602321D01*
X5634156Y11598871D01*
X5619453Y11589047D01*
X5619453Y11589046D01*
X5505727Y11475321D01*
X5470698D01*
X5463642Y11485881D01*
X5467350Y11494832D01*
Y11517568D01*
X5458649Y11538573D01*
X5442573Y11554649D01*
X5421568Y11563350D01*
X5417143D01*
X5340847Y11639646D01*
X5345707Y11651379D01*
X6912607D01*
X7258050Y11305937D01*
D02*
G37*
%LPC*%
G36*
X9439078Y17611700D02*
X9412642D01*
X9387107Y17604858D01*
X9364213Y17591640D01*
X9345520Y17572948D01*
X9332302Y17550053D01*
X9325460Y17524518D01*
Y17498082D01*
X9332302Y17472546D01*
X9345520Y17449654D01*
X9364213Y17430960D01*
X9387107Y17417741D01*
X9412642Y17410899D01*
X9439078D01*
X9464613Y17417741D01*
X9487507Y17430960D01*
X9506200Y17449654D01*
X9519418Y17472546D01*
X9526260Y17498082D01*
Y17524518D01*
X9519418Y17550053D01*
X9506200Y17572948D01*
X9487507Y17591640D01*
X9464613Y17604858D01*
X9439078Y17611700D01*
D02*
G37*
G36*
X272218D02*
X245782D01*
X220247Y17604858D01*
X197353Y17591640D01*
X178660Y17572948D01*
X165442Y17550053D01*
X158600Y17524518D01*
Y17498082D01*
X165442Y17472546D01*
X178660Y17449654D01*
X197353Y17430960D01*
X220247Y17417741D01*
X245782Y17410899D01*
X272218D01*
X297753Y17417741D01*
X320647Y17430960D01*
X339340Y17449654D01*
X352558Y17472546D01*
X359400Y17498082D01*
Y17524518D01*
X352558Y17550053D01*
X339340Y17572948D01*
X320647Y17591640D01*
X297753Y17604858D01*
X272218Y17611700D01*
D02*
G37*
G36*
Y17357700D02*
X245782D01*
X220247Y17350858D01*
X197353Y17337640D01*
X178660Y17318947D01*
X165442Y17296053D01*
X158600Y17270518D01*
Y17244083D01*
X165442Y17218547D01*
X178660Y17195653D01*
X197353Y17176961D01*
X220247Y17163742D01*
X245782Y17156900D01*
X272218D01*
X297753Y17163742D01*
X320647Y17176961D01*
X339340Y17195653D01*
X352558Y17218547D01*
X359400Y17244083D01*
Y17270518D01*
X352558Y17296053D01*
X339340Y17318947D01*
X320647Y17337640D01*
X297753Y17350858D01*
X272218Y17357700D01*
D02*
G37*
G36*
Y17103700D02*
X245782D01*
X220247Y17096858D01*
X197353Y17083640D01*
X178660Y17064948D01*
X165442Y17042053D01*
X158600Y17016518D01*
Y16990082D01*
X165442Y16964548D01*
X178660Y16941653D01*
X197353Y16922960D01*
X220247Y16909743D01*
X245782Y16902901D01*
X272218D01*
X297753Y16909743D01*
X320647Y16922960D01*
X339340Y16941653D01*
X352558Y16964548D01*
X359400Y16990082D01*
Y17016518D01*
X352558Y17042053D01*
X339340Y17064948D01*
X320647Y17083640D01*
X297753Y17096858D01*
X272218Y17103700D01*
D02*
G37*
G36*
X1104405Y16920210D02*
X1079995D01*
X1056415Y16913892D01*
X1035275Y16901688D01*
X1018013Y16884425D01*
X1005808Y16863284D01*
X999490Y16839705D01*
Y16815295D01*
X1005808Y16791714D01*
X1018013Y16770575D01*
X1035275Y16753313D01*
X1056415Y16741109D01*
X1079995Y16734790D01*
X1104405D01*
X1127985Y16741109D01*
X1149125Y16753313D01*
X1166387Y16770575D01*
X1178592Y16791714D01*
X1184910Y16815295D01*
Y16839705D01*
X1178592Y16863284D01*
X1166387Y16884425D01*
X1149125Y16901688D01*
X1127985Y16913892D01*
X1104405Y16920210D01*
D02*
G37*
G36*
X272218Y16849699D02*
X245782D01*
X220247Y16842857D01*
X197353Y16829640D01*
X178660Y16810947D01*
X165442Y16788052D01*
X158600Y16762518D01*
Y16736082D01*
X165442Y16710547D01*
X178660Y16687653D01*
X197353Y16668961D01*
X220247Y16655742D01*
X245782Y16648900D01*
X272218D01*
X297753Y16655742D01*
X320647Y16668961D01*
X339340Y16687653D01*
X352558Y16710547D01*
X359400Y16736082D01*
Y16762518D01*
X352558Y16788052D01*
X339340Y16810947D01*
X320647Y16829640D01*
X297753Y16842857D01*
X272218Y16849699D01*
D02*
G37*
G36*
X850405Y16666209D02*
X825995D01*
X802415Y16659892D01*
X781275Y16647687D01*
X764013Y16630424D01*
X751808Y16609285D01*
X745490Y16585706D01*
Y16561295D01*
X751808Y16537715D01*
X764013Y16516576D01*
X781275Y16499313D01*
X802415Y16487108D01*
X825995Y16480791D01*
X850405D01*
X873985Y16487108D01*
X895125Y16499313D01*
X912387Y16516576D01*
X924592Y16537715D01*
X930910Y16561295D01*
Y16585706D01*
X924592Y16609285D01*
X912387Y16630424D01*
X895125Y16647687D01*
X873985Y16659892D01*
X850405Y16666209D01*
D02*
G37*
G36*
X272218Y16595700D02*
X245782D01*
X220247Y16588858D01*
X197353Y16575639D01*
X178660Y16556947D01*
X165442Y16534053D01*
X158600Y16508517D01*
Y16482082D01*
X165442Y16456548D01*
X178660Y16433653D01*
X197353Y16414960D01*
X220247Y16401743D01*
X245782Y16394901D01*
X272218D01*
X297753Y16401743D01*
X320647Y16414960D01*
X339340Y16433653D01*
X352558Y16456548D01*
X359400Y16482082D01*
Y16508517D01*
X352558Y16534053D01*
X339340Y16556947D01*
X320647Y16575639D01*
X297753Y16588858D01*
X272218Y16595700D01*
D02*
G37*
G36*
Y16341701D02*
X245782D01*
X220247Y16334859D01*
X197353Y16321640D01*
X178660Y16302946D01*
X165442Y16280054D01*
X158600Y16254518D01*
Y16228082D01*
X165442Y16202547D01*
X178660Y16179652D01*
X197353Y16160960D01*
X220247Y16147742D01*
X245782Y16140900D01*
X272218D01*
X297753Y16147742D01*
X320647Y16160960D01*
X339340Y16179652D01*
X352558Y16202547D01*
X359400Y16228082D01*
Y16254518D01*
X352558Y16280054D01*
X339340Y16302946D01*
X320647Y16321640D01*
X297753Y16334859D01*
X272218Y16341701D01*
D02*
G37*
G36*
Y16087700D02*
X245782D01*
X220247Y16080858D01*
X197353Y16067641D01*
X178660Y16048947D01*
X165442Y16026053D01*
X158600Y16000517D01*
Y15974081D01*
X165442Y15948547D01*
X178660Y15925653D01*
X197353Y15906960D01*
X220247Y15893742D01*
X245782Y15886900D01*
X272218D01*
X297753Y15893742D01*
X320647Y15906960D01*
X339340Y15925653D01*
X352558Y15948547D01*
X359400Y15974081D01*
Y16000517D01*
X352558Y16026053D01*
X339340Y16048947D01*
X320647Y16067641D01*
X297753Y16080858D01*
X272218Y16087700D01*
D02*
G37*
G36*
Y15833701D02*
X245782D01*
X220247Y15826859D01*
X197353Y15813640D01*
X178660Y15794946D01*
X165442Y15772054D01*
X158600Y15746518D01*
Y15720082D01*
X165442Y15694547D01*
X178660Y15671654D01*
X197353Y15652960D01*
X220247Y15639742D01*
X245782Y15632899D01*
X272218D01*
X297753Y15639742D01*
X320647Y15652960D01*
X339340Y15671654D01*
X352558Y15694547D01*
X359400Y15720082D01*
Y15746518D01*
X352558Y15772054D01*
X339340Y15794946D01*
X320647Y15813640D01*
X297753Y15826859D01*
X272218Y15833701D01*
D02*
G37*
G36*
Y15579700D02*
X245782D01*
X220247Y15572858D01*
X197353Y15559641D01*
X178660Y15540947D01*
X165442Y15518053D01*
X158600Y15492519D01*
Y15466081D01*
X165442Y15440547D01*
X178660Y15417653D01*
X197353Y15398959D01*
X220247Y15385742D01*
X245782Y15378900D01*
X272218D01*
X297753Y15385742D01*
X320647Y15398959D01*
X339340Y15417653D01*
X352558Y15440547D01*
X359400Y15466081D01*
Y15492519D01*
X352558Y15518053D01*
X339340Y15540947D01*
X320647Y15559641D01*
X297753Y15572858D01*
X272218Y15579700D01*
D02*
G37*
G36*
Y15325700D02*
X245782D01*
X220247Y15318858D01*
X197353Y15305640D01*
X178660Y15286948D01*
X165442Y15264053D01*
X158600Y15238518D01*
Y15212082D01*
X165442Y15186546D01*
X178660Y15163654D01*
X197353Y15144960D01*
X220247Y15131741D01*
X245782Y15124899D01*
X272218D01*
X297753Y15131741D01*
X320647Y15144960D01*
X339340Y15163654D01*
X352558Y15186546D01*
X359400Y15212082D01*
Y15238518D01*
X352558Y15264053D01*
X339340Y15286948D01*
X320647Y15305640D01*
X297753Y15318858D01*
X272218Y15325700D01*
D02*
G37*
G36*
Y15071700D02*
X245782D01*
X220247Y15064857D01*
X197353Y15051640D01*
X178660Y15032947D01*
X165442Y15010052D01*
X158600Y14984518D01*
Y14958083D01*
X165442Y14932547D01*
X178660Y14909653D01*
X197353Y14890961D01*
X220247Y14877742D01*
X245782Y14870900D01*
X272218D01*
X297753Y14877742D01*
X320647Y14890961D01*
X339340Y14909653D01*
X352558Y14932547D01*
X359400Y14958083D01*
Y14984518D01*
X352558Y15010052D01*
X339340Y15032947D01*
X320647Y15051640D01*
X297753Y15064857D01*
X272218Y15071700D01*
D02*
G37*
G36*
Y14817700D02*
X245782D01*
X220247Y14810858D01*
X197353Y14797639D01*
X178660Y14778947D01*
X165442Y14756053D01*
X158600Y14730518D01*
Y14704082D01*
X165442Y14678548D01*
X178660Y14655653D01*
X197353Y14636960D01*
X220247Y14623743D01*
X245782Y14616901D01*
X272218D01*
X297753Y14623743D01*
X320647Y14636960D01*
X339340Y14655653D01*
X352558Y14678548D01*
X359400Y14704082D01*
Y14730518D01*
X352558Y14756053D01*
X339340Y14778947D01*
X320647Y14797639D01*
X297753Y14810858D01*
X272218Y14817700D01*
D02*
G37*
G36*
Y14563699D02*
X245782D01*
X220247Y14556857D01*
X197353Y14543640D01*
X178660Y14524947D01*
X165442Y14502052D01*
X158600Y14476518D01*
Y14450082D01*
X165442Y14424547D01*
X178660Y14401653D01*
X197353Y14382961D01*
X220247Y14369742D01*
X245782Y14362900D01*
X272218D01*
X297753Y14369742D01*
X320647Y14382961D01*
X339340Y14401653D01*
X352558Y14424547D01*
X359400Y14450082D01*
Y14476518D01*
X352558Y14502052D01*
X339340Y14524947D01*
X320647Y14543640D01*
X297753Y14556857D01*
X272218Y14563699D01*
D02*
G37*
G36*
Y14309700D02*
X245782D01*
X220247Y14302858D01*
X197353Y14289639D01*
X178660Y14270947D01*
X165442Y14248053D01*
X158600Y14222517D01*
Y14196082D01*
X165442Y14170547D01*
X178660Y14147653D01*
X197353Y14128960D01*
X220247Y14115742D01*
X245782Y14108900D01*
X272218D01*
X297753Y14115742D01*
X320647Y14128960D01*
X339340Y14147653D01*
X352558Y14170547D01*
X359400Y14196082D01*
Y14222517D01*
X352558Y14248053D01*
X339340Y14270947D01*
X320647Y14289639D01*
X297753Y14302858D01*
X272218Y14309700D01*
D02*
G37*
G36*
Y14055701D02*
X245782D01*
X220247Y14048859D01*
X197353Y14035640D01*
X178660Y14016946D01*
X165442Y13994054D01*
X158600Y13968518D01*
Y13942082D01*
X165442Y13916547D01*
X178660Y13893652D01*
X197353Y13874960D01*
X220247Y13861742D01*
X245782Y13854900D01*
X272218D01*
X297753Y13861742D01*
X320647Y13874960D01*
X339340Y13893652D01*
X352558Y13916547D01*
X359400Y13942082D01*
Y13968518D01*
X352558Y13994054D01*
X339340Y14016946D01*
X320647Y14035640D01*
X297753Y14048859D01*
X272218Y14055701D01*
D02*
G37*
G36*
Y13801700D02*
X245782D01*
X220247Y13794858D01*
X197353Y13781641D01*
X178660Y13762947D01*
X165442Y13740053D01*
X158600Y13714519D01*
Y13688081D01*
X165442Y13662547D01*
X178660Y13639653D01*
X197353Y13620959D01*
X220247Y13607742D01*
X245782Y13600900D01*
X272218D01*
X297753Y13607742D01*
X320647Y13620959D01*
X339340Y13639653D01*
X352558Y13662547D01*
X359400Y13688081D01*
Y13714519D01*
X352558Y13740053D01*
X339340Y13762947D01*
X320647Y13781641D01*
X297753Y13794858D01*
X272218Y13801700D01*
D02*
G37*
G36*
Y13547701D02*
X245782D01*
X220247Y13540858D01*
X197353Y13527640D01*
X178660Y13508948D01*
X165442Y13486053D01*
X158600Y13460518D01*
Y13434082D01*
X165442Y13408546D01*
X178660Y13385654D01*
X197353Y13366960D01*
X220247Y13353741D01*
X245782Y13346899D01*
X272218D01*
X297753Y13353741D01*
X320647Y13366960D01*
X339340Y13385654D01*
X352558Y13408546D01*
X359400Y13434082D01*
Y13460518D01*
X352558Y13486053D01*
X339340Y13508948D01*
X320647Y13527640D01*
X297753Y13540858D01*
X272218Y13547701D01*
D02*
G37*
G36*
Y13293700D02*
X245782D01*
X220247Y13286858D01*
X197353Y13273640D01*
X178660Y13254947D01*
X165442Y13232053D01*
X158600Y13206519D01*
Y13180083D01*
X165442Y13154547D01*
X178660Y13131653D01*
X197353Y13112959D01*
X220247Y13099742D01*
X245782Y13092900D01*
X272218D01*
X297753Y13099742D01*
X320647Y13112959D01*
X339340Y13131653D01*
X352558Y13154547D01*
X359400Y13180083D01*
Y13206519D01*
X352558Y13232053D01*
X339340Y13254947D01*
X320647Y13273640D01*
X297753Y13286858D01*
X272218Y13293700D01*
D02*
G37*
G36*
Y13039700D02*
X245782D01*
X220247Y13032858D01*
X197353Y13019640D01*
X178660Y13000948D01*
X165442Y12978053D01*
X158600Y12952518D01*
Y12926082D01*
X165442Y12900546D01*
X178660Y12877654D01*
X197353Y12858960D01*
X220247Y12845741D01*
X245782Y12838901D01*
X272218D01*
X297753Y12845741D01*
X320647Y12858960D01*
X339340Y12877654D01*
X352558Y12900546D01*
X359400Y12926082D01*
Y12952518D01*
X352558Y12978053D01*
X339340Y13000948D01*
X320647Y13019640D01*
X297753Y13032858D01*
X272218Y13039700D01*
D02*
G37*
G36*
Y12785700D02*
X245782D01*
X220247Y12778858D01*
X197353Y12765640D01*
X178660Y12746947D01*
X165442Y12724053D01*
X158600Y12698518D01*
Y12672082D01*
X165442Y12646547D01*
X178660Y12623653D01*
X197353Y12604960D01*
X220247Y12591742D01*
X245782Y12584900D01*
X272218D01*
X297753Y12591742D01*
X320647Y12604960D01*
X339340Y12623653D01*
X352558Y12646547D01*
X359400Y12672082D01*
Y12698518D01*
X352558Y12724053D01*
X339340Y12746947D01*
X320647Y12765640D01*
X297753Y12778858D01*
X272218Y12785700D01*
D02*
G37*
G36*
X8767778Y11065230D02*
X8737682D01*
X8708612Y11057441D01*
X8682548Y11042393D01*
X8661267Y11021112D01*
X8646219Y10995048D01*
X8638430Y10965978D01*
Y10935882D01*
X8646219Y10906812D01*
X8661267Y10880748D01*
X8682548Y10859467D01*
X8708612Y10844420D01*
X8737682Y10836630D01*
X8767778D01*
X8796848Y10844420D01*
X8822912Y10859467D01*
X8844193Y10880748D01*
X8859241Y10906812D01*
X8867030Y10935882D01*
Y10965978D01*
X8859241Y10995048D01*
X8844193Y11021112D01*
X8822912Y11042393D01*
X8796848Y11057441D01*
X8767778Y11065230D01*
D02*
G37*
G36*
X690578D02*
X660482D01*
X631412Y11057441D01*
X605348Y11042393D01*
X584067Y11021112D01*
X569019Y10995048D01*
X561230Y10965978D01*
Y10935882D01*
X569019Y10906812D01*
X584067Y10880748D01*
X605348Y10859467D01*
X631412Y10844420D01*
X660482Y10836630D01*
X690578D01*
X719648Y10844420D01*
X745712Y10859467D01*
X766993Y10880748D01*
X782041Y10906812D01*
X789830Y10935882D01*
Y10965978D01*
X782041Y10995048D01*
X766993Y11021112D01*
X745712Y11042393D01*
X719648Y11057441D01*
X690578Y11065230D01*
D02*
G37*
G36*
X9021798Y11065210D02*
X8991702D01*
X8962632Y11057421D01*
X8936568Y11042373D01*
X8915287Y11021092D01*
X8900240Y10995028D01*
X8892450Y10965958D01*
Y10935862D01*
X8900240Y10906792D01*
X8915287Y10880728D01*
X8936568Y10859447D01*
X8962632Y10844399D01*
X8991702Y10836610D01*
X9021798D01*
X9050868Y10844399D01*
X9076932Y10859447D01*
X9098213Y10880728D01*
X9113261Y10906792D01*
X9121050Y10935862D01*
Y10965958D01*
X9113261Y10995028D01*
X9098213Y11021092D01*
X9076932Y11042373D01*
X9050868Y11057421D01*
X9021798Y11065210D01*
D02*
G37*
G36*
X9142649Y10588630D02*
X9109631D01*
X9077737Y10580084D01*
X9049143Y10563575D01*
X9025795Y10540227D01*
X9009286Y10511633D01*
X9000740Y10479739D01*
Y10446721D01*
X9009286Y10414828D01*
X9025795Y10386233D01*
X9049143Y10362885D01*
X9077737Y10346376D01*
X9109631Y10337830D01*
X9142649D01*
X9174542Y10346376D01*
X9203137Y10362885D01*
X9226485Y10386233D01*
X9242994Y10414828D01*
X9251540Y10446721D01*
Y10479739D01*
X9242994Y10511633D01*
X9226485Y10540227D01*
X9203137Y10563575D01*
X9174542Y10580084D01*
X9142649Y10588630D01*
D02*
G37*
G36*
X8144439D02*
X8111421D01*
X8079527Y10580084D01*
X8050933Y10563575D01*
X8027585Y10540227D01*
X8011076Y10511633D01*
X8002530Y10479739D01*
Y10446721D01*
X8011076Y10414828D01*
X8027585Y10386233D01*
X8050933Y10362885D01*
X8079527Y10346376D01*
X8111421Y10337830D01*
X8144439D01*
X8176332Y10346376D01*
X8204927Y10362885D01*
X8228275Y10386233D01*
X8244784Y10414828D01*
X8253330Y10446721D01*
Y10479739D01*
X8244784Y10511633D01*
X8228275Y10540227D01*
X8204927Y10563575D01*
X8176332Y10580084D01*
X8144439Y10588630D01*
D02*
G37*
G36*
X7250349D02*
X7217331D01*
X7185437Y10580084D01*
X7156843Y10563575D01*
X7133495Y10540227D01*
X7116986Y10511633D01*
X7108440Y10479739D01*
Y10446721D01*
X7116986Y10414828D01*
X7133495Y10386233D01*
X7156843Y10362885D01*
X7185437Y10346376D01*
X7217331Y10337830D01*
X7250349D01*
X7282242Y10346376D01*
X7310837Y10362885D01*
X7334185Y10386233D01*
X7350694Y10414828D01*
X7359240Y10446721D01*
Y10479739D01*
X7350694Y10511633D01*
X7334185Y10540227D01*
X7310837Y10563575D01*
X7282242Y10580084D01*
X7250349Y10588630D01*
D02*
G37*
G36*
X6252139D02*
X6219121D01*
X6187227Y10580084D01*
X6158633Y10563575D01*
X6135285Y10540227D01*
X6118776Y10511633D01*
X6110230Y10479739D01*
Y10446721D01*
X6118776Y10414828D01*
X6135285Y10386233D01*
X6158633Y10362885D01*
X6187227Y10346376D01*
X6219121Y10337830D01*
X6252139D01*
X6284032Y10346376D01*
X6312627Y10362885D01*
X6335975Y10386233D01*
X6352484Y10414828D01*
X6361030Y10446721D01*
Y10479739D01*
X6352484Y10511633D01*
X6335975Y10540227D01*
X6312627Y10563575D01*
X6284032Y10580084D01*
X6252139Y10588630D01*
D02*
G37*
G36*
X5358049D02*
X5325031D01*
X5293137Y10580084D01*
X5264543Y10563575D01*
X5241195Y10540227D01*
X5224686Y10511633D01*
X5216140Y10479739D01*
Y10446721D01*
X5224686Y10414828D01*
X5241195Y10386233D01*
X5264543Y10362885D01*
X5293137Y10346376D01*
X5325031Y10337830D01*
X5358049D01*
X5389942Y10346376D01*
X5418537Y10362885D01*
X5441885Y10386233D01*
X5458394Y10414828D01*
X5466940Y10446721D01*
Y10479739D01*
X5458394Y10511633D01*
X5441885Y10540227D01*
X5418537Y10563575D01*
X5389942Y10580084D01*
X5358049Y10588630D01*
D02*
G37*
G36*
X4359839D02*
X4326821D01*
X4294927Y10580084D01*
X4266333Y10563575D01*
X4242985Y10540227D01*
X4226476Y10511633D01*
X4217930Y10479739D01*
Y10446721D01*
X4226476Y10414828D01*
X4242985Y10386233D01*
X4266333Y10362885D01*
X4294927Y10346376D01*
X4326821Y10337830D01*
X4359839D01*
X4391732Y10346376D01*
X4420327Y10362885D01*
X4443675Y10386233D01*
X4460184Y10414828D01*
X4468730Y10446721D01*
Y10479739D01*
X4460184Y10511633D01*
X4443675Y10540227D01*
X4420327Y10563575D01*
X4391732Y10580084D01*
X4359839Y10588630D01*
D02*
G37*
G36*
X3465749D02*
X3432731D01*
X3400837Y10580084D01*
X3372243Y10563575D01*
X3348895Y10540227D01*
X3332386Y10511633D01*
X3323840Y10479739D01*
Y10446721D01*
X3332386Y10414828D01*
X3348895Y10386233D01*
X3372243Y10362885D01*
X3400837Y10346376D01*
X3432731Y10337830D01*
X3465749D01*
X3497642Y10346376D01*
X3526237Y10362885D01*
X3549585Y10386233D01*
X3566094Y10414828D01*
X3574640Y10446721D01*
Y10479739D01*
X3566094Y10511633D01*
X3549585Y10540227D01*
X3526237Y10563575D01*
X3497642Y10580084D01*
X3465749Y10588630D01*
D02*
G37*
G36*
X2467539D02*
X2434521D01*
X2402627Y10580084D01*
X2374033Y10563575D01*
X2350685Y10540227D01*
X2334176Y10511633D01*
X2325630Y10479739D01*
Y10446721D01*
X2334176Y10414828D01*
X2350685Y10386233D01*
X2374033Y10362885D01*
X2402627Y10346376D01*
X2434521Y10337830D01*
X2467539D01*
X2499432Y10346376D01*
X2528027Y10362885D01*
X2551375Y10386233D01*
X2567884Y10414828D01*
X2576430Y10446721D01*
Y10479739D01*
X2567884Y10511633D01*
X2551375Y10540227D01*
X2528027Y10563575D01*
X2499432Y10580084D01*
X2467539Y10588630D01*
D02*
G37*
G36*
X1573449D02*
X1540431D01*
X1508537Y10580084D01*
X1479943Y10563575D01*
X1456595Y10540227D01*
X1440086Y10511633D01*
X1431540Y10479739D01*
Y10446721D01*
X1440086Y10414828D01*
X1456595Y10386233D01*
X1479943Y10362885D01*
X1508537Y10346376D01*
X1540431Y10337830D01*
X1573449D01*
X1605342Y10346376D01*
X1633937Y10362885D01*
X1657285Y10386233D01*
X1673794Y10414828D01*
X1682340Y10446721D01*
Y10479739D01*
X1673794Y10511633D01*
X1657285Y10540227D01*
X1633937Y10563575D01*
X1605342Y10580084D01*
X1573449Y10588630D01*
D02*
G37*
G36*
X575239D02*
X542221D01*
X510327Y10580084D01*
X481733Y10563575D01*
X458385Y10540227D01*
X441876Y10511633D01*
X433330Y10479739D01*
Y10446721D01*
X441876Y10414828D01*
X458385Y10386233D01*
X481733Y10362885D01*
X510327Y10346376D01*
X542221Y10337830D01*
X575239D01*
X607132Y10346376D01*
X635727Y10362885D01*
X659075Y10386233D01*
X675584Y10414828D01*
X684130Y10446721D01*
Y10479739D01*
X675584Y10511633D01*
X659075Y10540227D01*
X635727Y10563575D01*
X607132Y10580084D01*
X575239Y10588630D01*
D02*
G37*
G36*
X8648294Y10679130D02*
X8605766D01*
X8564054Y10670833D01*
X8524763Y10654558D01*
X8489402Y10630930D01*
X8459330Y10600858D01*
X8435702Y10565497D01*
X8419427Y10526206D01*
X8411130Y10484494D01*
Y10441966D01*
X8419427Y10400254D01*
X8435702Y10360963D01*
X8459330Y10325602D01*
X8489402Y10295530D01*
X8524763Y10271902D01*
X8564054Y10255627D01*
X8605766Y10247330D01*
X8648294D01*
X8690006Y10255627D01*
X8729297Y10271902D01*
X8764658Y10295530D01*
X8794730Y10325602D01*
X8818358Y10360963D01*
X8834633Y10400254D01*
X8842930Y10441966D01*
Y10484494D01*
X8834633Y10526206D01*
X8818358Y10565497D01*
X8794730Y10600858D01*
X8764658Y10630930D01*
X8729297Y10654558D01*
X8690006Y10670833D01*
X8648294Y10679130D01*
D02*
G37*
G36*
X6755994D02*
X6713466D01*
X6671754Y10670833D01*
X6632463Y10654558D01*
X6597102Y10630930D01*
X6567030Y10600858D01*
X6543402Y10565497D01*
X6527127Y10526206D01*
X6518830Y10484494D01*
Y10441966D01*
X6527127Y10400254D01*
X6543402Y10360963D01*
X6567030Y10325602D01*
X6597102Y10295530D01*
X6632463Y10271902D01*
X6671754Y10255627D01*
X6713466Y10247330D01*
X6755994D01*
X6797706Y10255627D01*
X6836997Y10271902D01*
X6872358Y10295530D01*
X6902430Y10325602D01*
X6926058Y10360963D01*
X6942333Y10400254D01*
X6950630Y10441966D01*
Y10484494D01*
X6942333Y10526206D01*
X6926058Y10565497D01*
X6902430Y10600858D01*
X6872358Y10630930D01*
X6836997Y10654558D01*
X6797706Y10670833D01*
X6755994Y10679130D01*
D02*
G37*
G36*
X4863694D02*
X4821166D01*
X4779454Y10670833D01*
X4740163Y10654558D01*
X4704802Y10630930D01*
X4674730Y10600858D01*
X4651102Y10565497D01*
X4634827Y10526206D01*
X4626530Y10484494D01*
Y10441966D01*
X4634827Y10400254D01*
X4651102Y10360963D01*
X4674730Y10325602D01*
X4704802Y10295530D01*
X4740163Y10271902D01*
X4779454Y10255627D01*
X4821166Y10247330D01*
X4863694D01*
X4905406Y10255627D01*
X4944697Y10271902D01*
X4980058Y10295530D01*
X5010130Y10325602D01*
X5033758Y10360963D01*
X5050033Y10400254D01*
X5058330Y10441966D01*
Y10484494D01*
X5050033Y10526206D01*
X5033758Y10565497D01*
X5010130Y10600858D01*
X4980058Y10630930D01*
X4944697Y10654558D01*
X4905406Y10670833D01*
X4863694Y10679130D01*
D02*
G37*
G36*
X2971394D02*
X2928866D01*
X2887154Y10670833D01*
X2847863Y10654558D01*
X2812502Y10630930D01*
X2782430Y10600858D01*
X2758802Y10565497D01*
X2742527Y10526206D01*
X2734230Y10484494D01*
Y10441966D01*
X2742527Y10400254D01*
X2758802Y10360963D01*
X2782430Y10325602D01*
X2812502Y10295530D01*
X2847863Y10271902D01*
X2887154Y10255627D01*
X2928866Y10247330D01*
X2971394D01*
X3013106Y10255627D01*
X3052397Y10271902D01*
X3087758Y10295530D01*
X3117830Y10325602D01*
X3141458Y10360963D01*
X3157733Y10400254D01*
X3166030Y10441966D01*
Y10484494D01*
X3157733Y10526206D01*
X3141458Y10565497D01*
X3117830Y10600858D01*
X3087758Y10630930D01*
X3052397Y10654558D01*
X3013106Y10670833D01*
X2971394Y10679130D01*
D02*
G37*
G36*
X1079094D02*
X1036566D01*
X994854Y10670833D01*
X955563Y10654558D01*
X920202Y10630930D01*
X890130Y10600858D01*
X866502Y10565497D01*
X850227Y10526206D01*
X841930Y10484494D01*
Y10441966D01*
X850227Y10400254D01*
X866502Y10360963D01*
X890130Y10325602D01*
X920202Y10295530D01*
X955563Y10271902D01*
X994854Y10255627D01*
X1036566Y10247330D01*
X1079094D01*
X1120806Y10255627D01*
X1160097Y10271902D01*
X1195458Y10295530D01*
X1225530Y10325602D01*
X1249158Y10360963D01*
X1265433Y10400254D01*
X1273730Y10441966D01*
Y10484494D01*
X1265433Y10526206D01*
X1249158Y10565497D01*
X1225530Y10600858D01*
X1195458Y10630930D01*
X1160097Y10654558D01*
X1120806Y10670833D01*
X1079094Y10679130D01*
D02*
G37*
G36*
X9017522Y10333710D02*
X8980738D01*
X8945208Y10324190D01*
X8913352Y10305798D01*
X8887342Y10279788D01*
X8868951Y10247932D01*
X8859430Y10212402D01*
Y10175618D01*
X8868951Y10140088D01*
X8887342Y10108232D01*
X8913352Y10082222D01*
X8945208Y10063831D01*
X8980738Y10054310D01*
X9017522D01*
X9053052Y10063831D01*
X9084908Y10082222D01*
X9110918Y10108232D01*
X9129310Y10140088D01*
X9138830Y10175618D01*
Y10212402D01*
X9129310Y10247932D01*
X9110918Y10279788D01*
X9084908Y10305798D01*
X9053052Y10324190D01*
X9017522Y10333710D01*
D02*
G37*
G36*
X7125222D02*
X7088438D01*
X7052908Y10324190D01*
X7021052Y10305798D01*
X6995042Y10279788D01*
X6976651Y10247932D01*
X6967130Y10212402D01*
Y10175618D01*
X6976651Y10140088D01*
X6995042Y10108232D01*
X7021052Y10082222D01*
X7052908Y10063831D01*
X7088438Y10054310D01*
X7125222D01*
X7160752Y10063831D01*
X7192608Y10082222D01*
X7218618Y10108232D01*
X7237010Y10140088D01*
X7246530Y10175618D01*
Y10212402D01*
X7237010Y10247932D01*
X7218618Y10279788D01*
X7192608Y10305798D01*
X7160752Y10324190D01*
X7125222Y10333710D01*
D02*
G37*
G36*
X5232922D02*
X5196138D01*
X5160608Y10324190D01*
X5128752Y10305798D01*
X5102742Y10279788D01*
X5084351Y10247932D01*
X5074830Y10212402D01*
Y10175618D01*
X5084351Y10140088D01*
X5102742Y10108232D01*
X5128752Y10082222D01*
X5160608Y10063831D01*
X5196138Y10054310D01*
X5232922D01*
X5268452Y10063831D01*
X5300308Y10082222D01*
X5326318Y10108232D01*
X5344710Y10140088D01*
X5354230Y10175618D01*
Y10212402D01*
X5344710Y10247932D01*
X5326318Y10279788D01*
X5300308Y10305798D01*
X5268452Y10324190D01*
X5232922Y10333710D01*
D02*
G37*
G36*
X3340622D02*
X3303838D01*
X3268308Y10324190D01*
X3236452Y10305798D01*
X3210442Y10279788D01*
X3192051Y10247932D01*
X3182530Y10212402D01*
Y10175618D01*
X3192051Y10140088D01*
X3210442Y10108232D01*
X3236452Y10082222D01*
X3268308Y10063831D01*
X3303838Y10054310D01*
X3340622D01*
X3376152Y10063831D01*
X3408008Y10082222D01*
X3434018Y10108232D01*
X3452410Y10140088D01*
X3461930Y10175618D01*
Y10212402D01*
X3452410Y10247932D01*
X3434018Y10279788D01*
X3408008Y10305798D01*
X3376152Y10324190D01*
X3340622Y10333710D01*
D02*
G37*
G36*
X1448322D02*
X1411538D01*
X1376008Y10324190D01*
X1344152Y10305798D01*
X1318142Y10279788D01*
X1299751Y10247932D01*
X1290230Y10212402D01*
Y10175618D01*
X1299751Y10140088D01*
X1318142Y10108232D01*
X1344152Y10082222D01*
X1376008Y10063831D01*
X1411538Y10054310D01*
X1448322D01*
X1483852Y10063831D01*
X1515708Y10082222D01*
X1541718Y10108232D01*
X1560110Y10140088D01*
X1569630Y10175618D01*
Y10212402D01*
X1560110Y10247932D01*
X1541718Y10279788D01*
X1515708Y10305798D01*
X1483852Y10324190D01*
X1448322Y10333710D01*
D02*
G37*
G36*
X8400322Y10100010D02*
X8363538D01*
X8328008Y10090490D01*
X8296152Y10072098D01*
X8270142Y10046088D01*
X8251750Y10014232D01*
X8242230Y9978702D01*
Y9948374D01*
X6629330D01*
Y9978702D01*
X6619809Y10014232D01*
X6601418Y10046088D01*
X6575408Y10072098D01*
X6543552Y10090490D01*
X6508022Y10100010D01*
X6471238D01*
X6435708Y10090490D01*
X6403852Y10072098D01*
X6377842Y10046088D01*
X6359450Y10014232D01*
X6349930Y9978702D01*
Y9948374D01*
X4737030D01*
Y9978702D01*
X4727509Y10014232D01*
X4709118Y10046088D01*
X4683108Y10072098D01*
X4651252Y10090490D01*
X4615722Y10100010D01*
X4578938D01*
X4543408Y10090490D01*
X4511552Y10072098D01*
X4485542Y10046088D01*
X4467150Y10014232D01*
X4457630Y9978702D01*
Y9948374D01*
X2844730D01*
Y9978702D01*
X2835209Y10014232D01*
X2816818Y10046088D01*
X2790808Y10072098D01*
X2758952Y10090490D01*
X2723422Y10100010D01*
X2686638D01*
X2651108Y10090490D01*
X2619252Y10072098D01*
X2593242Y10046088D01*
X2574850Y10014232D01*
X2565330Y9978702D01*
Y9948374D01*
X952430D01*
Y9978702D01*
X942909Y10014232D01*
X924518Y10046088D01*
X898508Y10072098D01*
X866652Y10090490D01*
X831122Y10100010D01*
X794338D01*
X758808Y10090490D01*
X726952Y10072098D01*
X700942Y10046088D01*
X682550Y10014232D01*
X673030Y9978702D01*
Y9941918D01*
X682550Y9906388D01*
X700942Y9874532D01*
X726952Y9848522D01*
X758808Y9830130D01*
X794338Y9820610D01*
X831122D01*
X866652Y9830130D01*
X892033Y9844784D01*
X2625727D01*
X2651108Y9830130D01*
X2686638Y9820610D01*
X2723422D01*
X2758952Y9830130D01*
X2784333Y9844784D01*
X4518027D01*
X4543408Y9830130D01*
X4578938Y9820610D01*
X4615722D01*
X4651252Y9830130D01*
X4676633Y9844784D01*
X6410327D01*
X6435708Y9830130D01*
X6471238Y9820610D01*
X6508022D01*
X6543552Y9830130D01*
X6568933Y9844784D01*
X8302627D01*
X8328008Y9830130D01*
X8363538Y9820610D01*
X8400322D01*
X8435852Y9830130D01*
X8467708Y9848522D01*
X8493718Y9874532D01*
X8512109Y9906388D01*
X8521630Y9941918D01*
Y9978702D01*
X8512109Y10014232D01*
X8493718Y10046088D01*
X8467708Y10072098D01*
X8435852Y10090490D01*
X8400322Y10100010D01*
D02*
G37*
G36*
X8767778Y9172930D02*
X8737682D01*
X8708612Y9165141D01*
X8682548Y9150093D01*
X8661267Y9128812D01*
X8646219Y9102748D01*
X8638430Y9073678D01*
Y9043582D01*
X8646219Y9014512D01*
X8661267Y8988448D01*
X8682548Y8967167D01*
X8708612Y8952120D01*
X8737682Y8944330D01*
X8767778D01*
X8796848Y8952120D01*
X8822912Y8967167D01*
X8844193Y8988448D01*
X8859241Y9014512D01*
X8867030Y9043582D01*
Y9073678D01*
X8859241Y9102748D01*
X8844193Y9128812D01*
X8822912Y9150093D01*
X8796848Y9165141D01*
X8767778Y9172930D01*
D02*
G37*
G36*
X2654300Y9284695D02*
X1103800D01*
X1083979Y9280753D01*
X1067175Y9269525D01*
X965085Y9167435D01*
X944578Y9172930D01*
X914482D01*
X885412Y9165141D01*
X859348Y9150093D01*
X838067Y9128812D01*
X823019Y9102748D01*
X815230Y9073678D01*
Y9043582D01*
X823019Y9014512D01*
X838067Y8988448D01*
X859348Y8967167D01*
X885412Y8952120D01*
X914482Y8944330D01*
X944578D01*
X973648Y8952120D01*
X999712Y8967167D01*
X1020993Y8988448D01*
X1036041Y9014512D01*
X1043830Y9043582D01*
Y9073678D01*
X1038335Y9094186D01*
X1125254Y9181105D01*
X1149921D01*
X1151594Y9168405D01*
X1139412Y9165141D01*
X1113348Y9150093D01*
X1092067Y9128812D01*
X1077019Y9102748D01*
X1069230Y9073678D01*
Y9043582D01*
X1077019Y9014512D01*
X1092067Y8988448D01*
X1113348Y8967167D01*
X1139412Y8952120D01*
X1168482Y8944330D01*
X1198578D01*
X1227648Y8952120D01*
X1253712Y8967167D01*
X1274993Y8988448D01*
X1290041Y9014512D01*
X1297830Y9043582D01*
Y9073678D01*
X1290041Y9102748D01*
X1274993Y9128812D01*
X1253712Y9150093D01*
X1227648Y9165141D01*
X1215466Y9168405D01*
X1217139Y9181105D01*
X1404016D01*
X1405688Y9168405D01*
X1393432Y9165121D01*
X1367368Y9150073D01*
X1346087Y9128792D01*
X1331040Y9102728D01*
X1323250Y9073658D01*
Y9043562D01*
X1331040Y9014492D01*
X1346087Y8988428D01*
X1367368Y8967147D01*
X1393432Y8952099D01*
X1422502Y8944310D01*
X1452598D01*
X1481668Y8952099D01*
X1507732Y8967147D01*
X1529013Y8988428D01*
X1544061Y9014492D01*
X1551850Y9043562D01*
Y9073658D01*
X1544061Y9102728D01*
X1529013Y9128792D01*
X1507732Y9150073D01*
X1481668Y9165121D01*
X1469412Y9168405D01*
X1471084Y9181105D01*
X2534221D01*
X2535894Y9168405D01*
X2523712Y9165141D01*
X2497648Y9150093D01*
X2476367Y9128812D01*
X2461319Y9102748D01*
X2453530Y9073678D01*
Y9043582D01*
X2461319Y9014512D01*
X2476367Y8988448D01*
X2497648Y8967167D01*
X2523712Y8952120D01*
X2552782Y8944330D01*
X2582878D01*
X2611948Y8952120D01*
X2638012Y8967167D01*
X2659293Y8988448D01*
X2674341Y9014512D01*
X2682130Y9043582D01*
Y9073678D01*
X2674341Y9102748D01*
X2659293Y9128812D01*
X2638012Y9150093D01*
X2611948Y9165141D01*
X2599766Y9168405D01*
X2601439Y9181105D01*
X2632846D01*
X2714449Y9099501D01*
X2707530Y9073678D01*
Y9043582D01*
X2715319Y9014512D01*
X2730367Y8988448D01*
X2751648Y8967167D01*
X2777712Y8952120D01*
X2806782Y8944330D01*
X2836878D01*
X2865948Y8952120D01*
X2892012Y8967167D01*
X2913293Y8988448D01*
X2928341Y9014512D01*
X2936130Y9043582D01*
Y9073678D01*
X2930635Y9094186D01*
X3000093Y9163643D01*
X3002641Y9163022D01*
X3004925Y9153202D01*
X3004943Y9149388D01*
X2984367Y9128812D01*
X2969319Y9102748D01*
X2961530Y9073678D01*
Y9043582D01*
X2969319Y9014512D01*
X2984367Y8988448D01*
X3005648Y8967167D01*
X3031712Y8952120D01*
X3060782Y8944330D01*
X3090878D01*
X3119948Y8952120D01*
X3146012Y8967167D01*
X3167293Y8988448D01*
X3182341Y9014512D01*
X3190130Y9043582D01*
Y9073678D01*
X3182341Y9102748D01*
X3167293Y9128812D01*
X3146012Y9150093D01*
X3136292Y9155705D01*
X3139695Y9168405D01*
X3266020D01*
X3269423Y9155705D01*
X3259668Y9150073D01*
X3238387Y9128792D01*
X3223340Y9102728D01*
X3215550Y9073658D01*
Y9043562D01*
X3223340Y9014492D01*
X3238387Y8988428D01*
X3259668Y8967147D01*
X3285732Y8952099D01*
X3314802Y8944310D01*
X3344898D01*
X3373968Y8952099D01*
X3400032Y8967147D01*
X3421313Y8988428D01*
X3436361Y9014492D01*
X3444150Y9043562D01*
Y9073658D01*
X3436361Y9102728D01*
X3421313Y9128792D01*
X3400032Y9150073D01*
X3390277Y9155705D01*
X3393680Y9168405D01*
X4396265D01*
X4399668Y9155705D01*
X4389948Y9150093D01*
X4368667Y9128812D01*
X4353619Y9102748D01*
X4345830Y9073678D01*
Y9043582D01*
X4353619Y9014512D01*
X4368667Y8988448D01*
X4389948Y8967167D01*
X4416012Y8952120D01*
X4445082Y8944330D01*
X4475178D01*
X4504248Y8952120D01*
X4530312Y8967167D01*
X4551593Y8988448D01*
X4566641Y9014512D01*
X4574430Y9043582D01*
Y9073678D01*
X4566641Y9102748D01*
X4551593Y9128812D01*
X4530312Y9150093D01*
X4520592Y9155705D01*
X4523995Y9168405D01*
X4563246D01*
X4615409Y9116241D01*
X4607619Y9102748D01*
X4599830Y9073678D01*
Y9043582D01*
X4607619Y9014512D01*
X4622667Y8988448D01*
X4643948Y8967167D01*
X4670012Y8952120D01*
X4699082Y8944330D01*
X4729178D01*
X4758248Y8952120D01*
X4784312Y8967167D01*
X4805593Y8988448D01*
X4820641Y9014512D01*
X4828430Y9043582D01*
Y9073678D01*
X4822935Y9094186D01*
X4875544Y9146794D01*
X4876499Y9146604D01*
X4880679Y9132824D01*
X4876667Y9128812D01*
X4861619Y9102748D01*
X4853830Y9073678D01*
Y9043582D01*
X4861619Y9014512D01*
X4876667Y8988448D01*
X4897948Y8967167D01*
X4924012Y8952120D01*
X4953082Y8944330D01*
X4983178D01*
X5012248Y8952120D01*
X5038312Y8967167D01*
X5059593Y8988448D01*
X5074641Y9014512D01*
X5082430Y9043582D01*
Y9073678D01*
X5074641Y9102748D01*
X5059593Y9128812D01*
X5045400Y9143005D01*
X5050660Y9155705D01*
X5139640D01*
X5144900Y9143005D01*
X5130687Y9128792D01*
X5115640Y9102728D01*
X5107850Y9073658D01*
Y9043562D01*
X5115640Y9014492D01*
X5130687Y8988428D01*
X5151968Y8967147D01*
X5178032Y8952099D01*
X5207102Y8944310D01*
X5237198D01*
X5266268Y8952099D01*
X5292332Y8967147D01*
X5313613Y8988428D01*
X5328661Y9014492D01*
X5336450Y9043562D01*
Y9073658D01*
X5328661Y9102728D01*
X5313613Y9128792D01*
X5299400Y9143005D01*
X5304660Y9155705D01*
X6269900D01*
X6275160Y9143005D01*
X6260967Y9128812D01*
X6245919Y9102748D01*
X6238130Y9073678D01*
Y9043582D01*
X6245919Y9014512D01*
X6260967Y8988448D01*
X6282248Y8967167D01*
X6308312Y8952120D01*
X6337382Y8944330D01*
X6367478D01*
X6396548Y8952120D01*
X6422612Y8967167D01*
X6443893Y8988448D01*
X6458941Y9014512D01*
X6466730Y9043582D01*
Y9073678D01*
X6458941Y9102748D01*
X6443893Y9128812D01*
X6429700Y9143005D01*
X6434960Y9155705D01*
X6455546D01*
X6503061Y9108190D01*
X6499919Y9102748D01*
X6492130Y9073678D01*
Y9043582D01*
X6499919Y9014512D01*
X6514967Y8988448D01*
X6536248Y8967167D01*
X6562312Y8952120D01*
X6591382Y8944330D01*
X6621478D01*
X6650548Y8952120D01*
X6676612Y8967167D01*
X6697893Y8988448D01*
X6712941Y9014512D01*
X6720730Y9043582D01*
Y9073678D01*
X6715235Y9094186D01*
X6759641Y9138591D01*
X6760596Y9138401D01*
X6762483Y9136239D01*
X6766365Y9124305D01*
X6753919Y9102748D01*
X6746130Y9073678D01*
Y9043582D01*
X6753919Y9014512D01*
X6768967Y8988448D01*
X6790248Y8967167D01*
X6816312Y8952120D01*
X6845382Y8944330D01*
X6875478D01*
X6904548Y8952120D01*
X6930612Y8967167D01*
X6951893Y8988448D01*
X6966941Y9014512D01*
X6974730Y9043582D01*
Y9073678D01*
X6966941Y9102748D01*
X6951893Y9128812D01*
X6945903Y9134802D01*
X6950763Y9146535D01*
X7024137D01*
X7028997Y9134802D01*
X7022987Y9128792D01*
X7007940Y9102728D01*
X7000150Y9073658D01*
Y9043562D01*
X7007940Y9014492D01*
X7022987Y8988428D01*
X7044268Y8967147D01*
X7070332Y8952099D01*
X7099402Y8944310D01*
X7129498D01*
X7158568Y8952099D01*
X7184632Y8967147D01*
X7205913Y8988428D01*
X7220961Y9014492D01*
X7228750Y9043562D01*
Y9073658D01*
X7220961Y9102728D01*
X7205913Y9128792D01*
X7199903Y9134802D01*
X7204763Y9146535D01*
X7713116D01*
X7730863Y9143005D01*
X7862404D01*
X7875332Y9137650D01*
X7898068D01*
X7910996Y9143005D01*
X8122818D01*
X8140566Y9146535D01*
X8154397D01*
X8159257Y9134802D01*
X8153267Y9128812D01*
X8138219Y9102748D01*
X8130430Y9073678D01*
Y9043582D01*
X8138219Y9014512D01*
X8153267Y8988448D01*
X8174548Y8967167D01*
X8200612Y8952120D01*
X8229682Y8944330D01*
X8259778D01*
X8288848Y8952120D01*
X8314912Y8967167D01*
X8336193Y8988448D01*
X8351241Y9014512D01*
X8359030Y9043582D01*
Y9073678D01*
X8351241Y9102748D01*
X8338795Y9124305D01*
X8342677Y9136239D01*
X8344564Y9138401D01*
X8345520Y9138591D01*
X8389925Y9094186D01*
X8384430Y9073678D01*
Y9043582D01*
X8392219Y9014512D01*
X8407267Y8988448D01*
X8428548Y8967167D01*
X8454612Y8952120D01*
X8483682Y8944330D01*
X8513778D01*
X8542848Y8952120D01*
X8568912Y8967167D01*
X8590193Y8988448D01*
X8605241Y9014512D01*
X8613030Y9043582D01*
Y9073678D01*
X8605241Y9102748D01*
X8590193Y9128812D01*
X8568912Y9150093D01*
X8542848Y9165141D01*
X8513778Y9172930D01*
X8483682D01*
X8463174Y9167435D01*
X8395655Y9234955D01*
X8378851Y9246183D01*
X8359030Y9250125D01*
X8126348D01*
X8108601Y9246595D01*
X7910996D01*
X7898068Y9251950D01*
X7875332D01*
X7862404Y9246595D01*
X7745081D01*
X7727333Y9250125D01*
X6746130D01*
X6726309Y9246183D01*
X6709505Y9234955D01*
X6709505Y9234954D01*
X6641986Y9167435D01*
X6621478Y9172930D01*
X6591382D01*
X6586206Y9171543D01*
X6513625Y9244125D01*
X6496821Y9255353D01*
X6477000Y9259295D01*
X4863000D01*
X4843179Y9255353D01*
X4826375Y9244125D01*
X4749685Y9167435D01*
X4729178Y9172930D01*
X4705219D01*
X4621325Y9256825D01*
X4604521Y9268053D01*
X4584700Y9271995D01*
X2983400D01*
X2963579Y9268053D01*
X2946775Y9256825D01*
X2857385Y9167435D01*
X2836878Y9172930D01*
X2806782D01*
X2791590Y9168859D01*
X2690925Y9269525D01*
X2674121Y9280753D01*
X2654300Y9284695D01*
D02*
G37*
G36*
X9021798Y9172910D02*
X8991702D01*
X8962632Y9165121D01*
X8936568Y9150073D01*
X8915287Y9128792D01*
X8900240Y9102728D01*
X8892450Y9073658D01*
Y9043562D01*
X8900240Y9014492D01*
X8915287Y8988428D01*
X8936568Y8967147D01*
X8962632Y8952099D01*
X8991702Y8944310D01*
X9021798D01*
X9050868Y8952099D01*
X9076932Y8967147D01*
X9098213Y8988428D01*
X9113261Y9014492D01*
X9121050Y9043562D01*
Y9073658D01*
X9113261Y9102728D01*
X9098213Y9128792D01*
X9076932Y9150073D01*
X9050868Y9165121D01*
X9021798Y9172910D01*
D02*
G37*
G36*
X690578Y9172930D02*
X660482D01*
X631412Y9165141D01*
X605348Y9150093D01*
X584067Y9128812D01*
X569019Y9102748D01*
X561230Y9073678D01*
Y9043582D01*
X569019Y9014512D01*
X584067Y8988448D01*
X605348Y8967167D01*
X631412Y8952120D01*
X660482Y8944330D01*
X669366D01*
X675530Y8943104D01*
X681694Y8944330D01*
X690578D01*
X719648Y8952120D01*
X745712Y8967167D01*
X766993Y8988448D01*
X782041Y9014512D01*
X789830Y9043582D01*
Y9073678D01*
X782041Y9102748D01*
X766993Y9128812D01*
X745712Y9150093D01*
X719648Y9165141D01*
X690578Y9172930D01*
D02*
G37*
G36*
X9142649Y8696330D02*
X9109631D01*
X9077737Y8687784D01*
X9049143Y8671275D01*
X9025795Y8647927D01*
X9009286Y8619333D01*
X9000740Y8587439D01*
Y8554421D01*
X9009286Y8522528D01*
X9025795Y8493933D01*
X9049143Y8470585D01*
X9077737Y8454076D01*
X9109631Y8445530D01*
X9142649D01*
X9174542Y8454076D01*
X9203137Y8470585D01*
X9226485Y8493933D01*
X9242994Y8522528D01*
X9251540Y8554421D01*
Y8587439D01*
X9242994Y8619333D01*
X9226485Y8647927D01*
X9203137Y8671275D01*
X9174542Y8687784D01*
X9142649Y8696330D01*
D02*
G37*
G36*
X8144439D02*
X8111421D01*
X8079527Y8687784D01*
X8050933Y8671275D01*
X8027585Y8647927D01*
X8011076Y8619333D01*
X8002530Y8587439D01*
Y8554421D01*
X8011076Y8522528D01*
X8027585Y8493933D01*
X8050933Y8470585D01*
X8079527Y8454076D01*
X8111421Y8445530D01*
X8144439D01*
X8176332Y8454076D01*
X8204927Y8470585D01*
X8228275Y8493933D01*
X8244784Y8522528D01*
X8253330Y8554421D01*
Y8587439D01*
X8244784Y8619333D01*
X8228275Y8647927D01*
X8204927Y8671275D01*
X8176332Y8687784D01*
X8144439Y8696330D01*
D02*
G37*
G36*
X7250349D02*
X7217331D01*
X7185437Y8687784D01*
X7156843Y8671275D01*
X7133495Y8647927D01*
X7116986Y8619333D01*
X7108440Y8587439D01*
Y8554421D01*
X7116986Y8522528D01*
X7133495Y8493933D01*
X7156843Y8470585D01*
X7185437Y8454076D01*
X7217331Y8445530D01*
X7250349D01*
X7282242Y8454076D01*
X7310837Y8470585D01*
X7334185Y8493933D01*
X7350694Y8522528D01*
X7359240Y8554421D01*
Y8587439D01*
X7350694Y8619333D01*
X7334185Y8647927D01*
X7310837Y8671275D01*
X7282242Y8687784D01*
X7250349Y8696330D01*
D02*
G37*
G36*
X6252139D02*
X6219121D01*
X6187227Y8687784D01*
X6158633Y8671275D01*
X6135285Y8647927D01*
X6118776Y8619333D01*
X6110230Y8587439D01*
Y8554421D01*
X6118776Y8522528D01*
X6135285Y8493933D01*
X6158633Y8470585D01*
X6187227Y8454076D01*
X6219121Y8445530D01*
X6252139D01*
X6284032Y8454076D01*
X6312627Y8470585D01*
X6335975Y8493933D01*
X6352484Y8522528D01*
X6361030Y8554421D01*
Y8587439D01*
X6352484Y8619333D01*
X6335975Y8647927D01*
X6312627Y8671275D01*
X6284032Y8687784D01*
X6252139Y8696330D01*
D02*
G37*
G36*
X5358049D02*
X5325031D01*
X5293137Y8687784D01*
X5264543Y8671275D01*
X5241195Y8647927D01*
X5224686Y8619333D01*
X5216140Y8587439D01*
Y8554421D01*
X5224686Y8522528D01*
X5241195Y8493933D01*
X5264543Y8470585D01*
X5293137Y8454076D01*
X5325031Y8445530D01*
X5358049D01*
X5389942Y8454076D01*
X5418537Y8470585D01*
X5441885Y8493933D01*
X5458394Y8522528D01*
X5466940Y8554421D01*
Y8587439D01*
X5458394Y8619333D01*
X5441885Y8647927D01*
X5418537Y8671275D01*
X5389942Y8687784D01*
X5358049Y8696330D01*
D02*
G37*
G36*
X4359839D02*
X4326821D01*
X4294927Y8687784D01*
X4266333Y8671275D01*
X4242985Y8647927D01*
X4226476Y8619333D01*
X4217930Y8587439D01*
Y8554421D01*
X4226476Y8522528D01*
X4242985Y8493933D01*
X4266333Y8470585D01*
X4294927Y8454076D01*
X4326821Y8445530D01*
X4359839D01*
X4391732Y8454076D01*
X4420327Y8470585D01*
X4443675Y8493933D01*
X4460184Y8522528D01*
X4468730Y8554421D01*
Y8587439D01*
X4460184Y8619333D01*
X4443675Y8647927D01*
X4420327Y8671275D01*
X4391732Y8687784D01*
X4359839Y8696330D01*
D02*
G37*
G36*
X3465749D02*
X3432731D01*
X3400837Y8687784D01*
X3372243Y8671275D01*
X3348895Y8647927D01*
X3332386Y8619333D01*
X3323840Y8587439D01*
Y8554421D01*
X3332386Y8522528D01*
X3348895Y8493933D01*
X3372243Y8470585D01*
X3400837Y8454076D01*
X3432731Y8445530D01*
X3465749D01*
X3497642Y8454076D01*
X3526237Y8470585D01*
X3549585Y8493933D01*
X3566094Y8522528D01*
X3574640Y8554421D01*
Y8587439D01*
X3566094Y8619333D01*
X3549585Y8647927D01*
X3526237Y8671275D01*
X3497642Y8687784D01*
X3465749Y8696330D01*
D02*
G37*
G36*
X2467539D02*
X2434521D01*
X2402627Y8687784D01*
X2374033Y8671275D01*
X2350685Y8647927D01*
X2334176Y8619333D01*
X2325630Y8587439D01*
Y8554421D01*
X2334176Y8522528D01*
X2350685Y8493933D01*
X2374033Y8470585D01*
X2402627Y8454076D01*
X2434521Y8445530D01*
X2467539D01*
X2499432Y8454076D01*
X2528027Y8470585D01*
X2551375Y8493933D01*
X2567884Y8522528D01*
X2576430Y8554421D01*
Y8587439D01*
X2567884Y8619333D01*
X2551375Y8647927D01*
X2528027Y8671275D01*
X2499432Y8687784D01*
X2467539Y8696330D01*
D02*
G37*
G36*
X1573449D02*
X1540431D01*
X1508537Y8687784D01*
X1479943Y8671275D01*
X1456595Y8647927D01*
X1440086Y8619333D01*
X1431540Y8587439D01*
Y8554421D01*
X1440086Y8522528D01*
X1456595Y8493933D01*
X1479943Y8470585D01*
X1508537Y8454076D01*
X1540431Y8445530D01*
X1573449D01*
X1605342Y8454076D01*
X1633937Y8470585D01*
X1657285Y8493933D01*
X1673794Y8522528D01*
X1682340Y8554421D01*
Y8587439D01*
X1673794Y8619333D01*
X1657285Y8647927D01*
X1633937Y8671275D01*
X1605342Y8687784D01*
X1573449Y8696330D01*
D02*
G37*
G36*
X575239D02*
X542221D01*
X510327Y8687784D01*
X481733Y8671275D01*
X458385Y8647927D01*
X441876Y8619333D01*
X433330Y8587439D01*
Y8554421D01*
X441876Y8522528D01*
X458385Y8493933D01*
X481733Y8470585D01*
X510327Y8454076D01*
X542221Y8445530D01*
X575239D01*
X607132Y8454076D01*
X635727Y8470585D01*
X659075Y8493933D01*
X675584Y8522528D01*
X684130Y8554421D01*
Y8587439D01*
X675584Y8619333D01*
X659075Y8647927D01*
X635727Y8671275D01*
X607132Y8687784D01*
X575239Y8696330D01*
D02*
G37*
G36*
X8648294Y8786830D02*
X8605766D01*
X8564054Y8778533D01*
X8524763Y8762258D01*
X8489402Y8738630D01*
X8459330Y8708558D01*
X8435702Y8673197D01*
X8419427Y8633906D01*
X8411130Y8592194D01*
Y8549666D01*
X8419427Y8507954D01*
X8435702Y8468663D01*
X8459330Y8433302D01*
X8489402Y8403230D01*
X8524763Y8379602D01*
X8564054Y8363327D01*
X8605766Y8355030D01*
X8648294D01*
X8690006Y8363327D01*
X8729297Y8379602D01*
X8764658Y8403230D01*
X8794730Y8433302D01*
X8818358Y8468663D01*
X8834633Y8507954D01*
X8842930Y8549666D01*
Y8592194D01*
X8834633Y8633906D01*
X8818358Y8673197D01*
X8794730Y8708558D01*
X8764658Y8738630D01*
X8729297Y8762258D01*
X8690006Y8778533D01*
X8648294Y8786830D01*
D02*
G37*
G36*
X6755994D02*
X6713466D01*
X6671754Y8778533D01*
X6632463Y8762258D01*
X6597102Y8738630D01*
X6567030Y8708558D01*
X6543402Y8673197D01*
X6527127Y8633906D01*
X6518830Y8592194D01*
Y8549666D01*
X6527127Y8507954D01*
X6543402Y8468663D01*
X6567030Y8433302D01*
X6597102Y8403230D01*
X6632463Y8379602D01*
X6671754Y8363327D01*
X6713466Y8355030D01*
X6755994D01*
X6797706Y8363327D01*
X6836997Y8379602D01*
X6872358Y8403230D01*
X6902430Y8433302D01*
X6926058Y8468663D01*
X6942333Y8507954D01*
X6950630Y8549666D01*
Y8592194D01*
X6942333Y8633906D01*
X6926058Y8673197D01*
X6902430Y8708558D01*
X6872358Y8738630D01*
X6836997Y8762258D01*
X6797706Y8778533D01*
X6755994Y8786830D01*
D02*
G37*
G36*
X4863694D02*
X4821166D01*
X4779454Y8778533D01*
X4740163Y8762258D01*
X4704802Y8738630D01*
X4674730Y8708558D01*
X4651102Y8673197D01*
X4634827Y8633906D01*
X4626530Y8592194D01*
Y8549666D01*
X4634827Y8507954D01*
X4651102Y8468663D01*
X4674730Y8433302D01*
X4704802Y8403230D01*
X4740163Y8379602D01*
X4779454Y8363327D01*
X4821166Y8355030D01*
X4863694D01*
X4905406Y8363327D01*
X4944697Y8379602D01*
X4980058Y8403230D01*
X5010130Y8433302D01*
X5033758Y8468663D01*
X5050033Y8507954D01*
X5058330Y8549666D01*
Y8592194D01*
X5050033Y8633906D01*
X5033758Y8673197D01*
X5010130Y8708558D01*
X4980058Y8738630D01*
X4944697Y8762258D01*
X4905406Y8778533D01*
X4863694Y8786830D01*
D02*
G37*
G36*
X2971394D02*
X2928866D01*
X2887154Y8778533D01*
X2847863Y8762258D01*
X2812502Y8738630D01*
X2782430Y8708558D01*
X2758802Y8673197D01*
X2742527Y8633906D01*
X2734230Y8592194D01*
Y8549666D01*
X2742527Y8507954D01*
X2758802Y8468663D01*
X2782430Y8433302D01*
X2812502Y8403230D01*
X2847863Y8379602D01*
X2887154Y8363327D01*
X2928866Y8355030D01*
X2971394D01*
X3013106Y8363327D01*
X3052397Y8379602D01*
X3087758Y8403230D01*
X3117830Y8433302D01*
X3141458Y8468663D01*
X3157733Y8507954D01*
X3166030Y8549666D01*
Y8592194D01*
X3157733Y8633906D01*
X3141458Y8673197D01*
X3117830Y8708558D01*
X3087758Y8738630D01*
X3052397Y8762258D01*
X3013106Y8778533D01*
X2971394Y8786830D01*
D02*
G37*
G36*
X1079094D02*
X1036566D01*
X994854Y8778533D01*
X955563Y8762258D01*
X920202Y8738630D01*
X890130Y8708558D01*
X866502Y8673197D01*
X850227Y8633906D01*
X841930Y8592194D01*
Y8549666D01*
X850227Y8507954D01*
X866502Y8468663D01*
X890130Y8433302D01*
X920202Y8403230D01*
X955563Y8379602D01*
X994854Y8363327D01*
X1036566Y8355030D01*
X1079094D01*
X1120806Y8363327D01*
X1160097Y8379602D01*
X1195458Y8403230D01*
X1225530Y8433302D01*
X1249158Y8468663D01*
X1265433Y8507954D01*
X1273730Y8549666D01*
Y8592194D01*
X1265433Y8633906D01*
X1249158Y8673197D01*
X1225530Y8708558D01*
X1195458Y8738630D01*
X1160097Y8762258D01*
X1120806Y8778533D01*
X1079094Y8786830D01*
D02*
G37*
G36*
X9017522Y8441410D02*
X8980738D01*
X8945208Y8431890D01*
X8913352Y8413498D01*
X8887342Y8387488D01*
X8868951Y8355632D01*
X8859430Y8320102D01*
Y8283318D01*
X8868951Y8247788D01*
X8887342Y8215932D01*
X8913352Y8189922D01*
X8945208Y8171531D01*
X8980738Y8162010D01*
X9017522D01*
X9053052Y8171531D01*
X9084908Y8189922D01*
X9110918Y8215932D01*
X9129310Y8247788D01*
X9138830Y8283318D01*
Y8320102D01*
X9129310Y8355632D01*
X9110918Y8387488D01*
X9084908Y8413498D01*
X9053052Y8431890D01*
X9017522Y8441410D01*
D02*
G37*
G36*
X7125222D02*
X7088438D01*
X7052908Y8431890D01*
X7021052Y8413498D01*
X6995042Y8387488D01*
X6976651Y8355632D01*
X6967130Y8320102D01*
Y8283318D01*
X6976651Y8247788D01*
X6995042Y8215932D01*
X7021052Y8189922D01*
X7052908Y8171531D01*
X7088438Y8162010D01*
X7125222D01*
X7160752Y8171531D01*
X7192608Y8189922D01*
X7218618Y8215932D01*
X7237010Y8247788D01*
X7246530Y8283318D01*
Y8320102D01*
X7237010Y8355632D01*
X7218618Y8387488D01*
X7192608Y8413498D01*
X7160752Y8431890D01*
X7125222Y8441410D01*
D02*
G37*
G36*
X5232922D02*
X5196138D01*
X5160608Y8431890D01*
X5128752Y8413498D01*
X5102742Y8387488D01*
X5084351Y8355632D01*
X5074830Y8320102D01*
Y8283318D01*
X5084351Y8247788D01*
X5102742Y8215932D01*
X5128752Y8189922D01*
X5160608Y8171531D01*
X5196138Y8162010D01*
X5232922D01*
X5268452Y8171531D01*
X5300308Y8189922D01*
X5326318Y8215932D01*
X5344710Y8247788D01*
X5354230Y8283318D01*
Y8320102D01*
X5344710Y8355632D01*
X5326318Y8387488D01*
X5300308Y8413498D01*
X5268452Y8431890D01*
X5232922Y8441410D01*
D02*
G37*
G36*
X3340622D02*
X3303838D01*
X3268308Y8431890D01*
X3236452Y8413498D01*
X3210442Y8387488D01*
X3192051Y8355632D01*
X3182530Y8320102D01*
Y8283318D01*
X3192051Y8247788D01*
X3210442Y8215932D01*
X3236452Y8189922D01*
X3268308Y8171531D01*
X3303838Y8162010D01*
X3340622D01*
X3376152Y8171531D01*
X3408008Y8189922D01*
X3434018Y8215932D01*
X3452410Y8247788D01*
X3461930Y8283318D01*
Y8320102D01*
X3452410Y8355632D01*
X3434018Y8387488D01*
X3408008Y8413498D01*
X3376152Y8431890D01*
X3340622Y8441410D01*
D02*
G37*
G36*
X1448322D02*
X1411538D01*
X1376008Y8431890D01*
X1344152Y8413498D01*
X1318142Y8387488D01*
X1299751Y8355632D01*
X1290230Y8320102D01*
Y8283318D01*
X1299751Y8247788D01*
X1318142Y8215932D01*
X1344152Y8189922D01*
X1376008Y8171531D01*
X1411538Y8162010D01*
X1448322D01*
X1483852Y8171531D01*
X1515708Y8189922D01*
X1541718Y8215932D01*
X1560110Y8247788D01*
X1569630Y8283318D01*
Y8320102D01*
X1560110Y8355632D01*
X1541718Y8387488D01*
X1515708Y8413498D01*
X1483852Y8431890D01*
X1448322Y8441410D01*
D02*
G37*
G36*
X8400322Y8207710D02*
X8363538D01*
X8328008Y8198190D01*
X8296152Y8179798D01*
X8270142Y8153788D01*
X8251750Y8121932D01*
X8242230Y8086402D01*
Y8056074D01*
X6629330D01*
Y8086402D01*
X6619809Y8121932D01*
X6601418Y8153788D01*
X6575408Y8179798D01*
X6543552Y8198190D01*
X6508022Y8207710D01*
X6471238D01*
X6435708Y8198190D01*
X6403852Y8179798D01*
X6377842Y8153788D01*
X6359450Y8121932D01*
X6349930Y8086402D01*
Y8056074D01*
X4737030D01*
Y8086402D01*
X4727509Y8121932D01*
X4709118Y8153788D01*
X4683108Y8179798D01*
X4651252Y8198190D01*
X4615722Y8207710D01*
X4578938D01*
X4543408Y8198190D01*
X4511552Y8179798D01*
X4485542Y8153788D01*
X4467150Y8121932D01*
X4457630Y8086402D01*
Y8056074D01*
X2844730D01*
Y8086402D01*
X2835209Y8121932D01*
X2816818Y8153788D01*
X2790808Y8179798D01*
X2758952Y8198190D01*
X2723422Y8207710D01*
X2686638D01*
X2651108Y8198190D01*
X2619252Y8179798D01*
X2593242Y8153788D01*
X2574850Y8121932D01*
X2565330Y8086402D01*
Y8056074D01*
X952430D01*
Y8086402D01*
X942909Y8121932D01*
X924518Y8153788D01*
X898508Y8179798D01*
X866652Y8198190D01*
X831122Y8207710D01*
X794338D01*
X758808Y8198190D01*
X726952Y8179798D01*
X700942Y8153788D01*
X682550Y8121932D01*
X673030Y8086402D01*
Y8049618D01*
X682550Y8014088D01*
X700942Y7982232D01*
X726952Y7956222D01*
X758808Y7937830D01*
X794338Y7928310D01*
X831122D01*
X866652Y7937830D01*
X892033Y7952484D01*
X2625727D01*
X2651108Y7937830D01*
X2686638Y7928310D01*
X2723422D01*
X2758952Y7937830D01*
X2784333Y7952484D01*
X4518027D01*
X4543408Y7937830D01*
X4578938Y7928310D01*
X4615722D01*
X4651252Y7937830D01*
X4676633Y7952484D01*
X6410327D01*
X6435708Y7937830D01*
X6471238Y7928310D01*
X6508022D01*
X6543552Y7937830D01*
X6568933Y7952484D01*
X8302627D01*
X8328008Y7937830D01*
X8363538Y7928310D01*
X8400322D01*
X8435852Y7937830D01*
X8467708Y7956222D01*
X8493718Y7982232D01*
X8512109Y8014088D01*
X8521630Y8049618D01*
Y8086402D01*
X8512109Y8121932D01*
X8493718Y8153788D01*
X8467708Y8179798D01*
X8435852Y8198190D01*
X8400322Y8207710D01*
D02*
G37*
G36*
X6444860Y7379695D02*
X4875700D01*
X4855879Y7375753D01*
X4839075Y7364525D01*
X4749685Y7275135D01*
X4729178Y7280630D01*
X4705219D01*
X4621325Y7364525D01*
X4604521Y7375753D01*
X4584700Y7379695D01*
X2983400D01*
X2963579Y7375753D01*
X2946775Y7364525D01*
X2857385Y7275135D01*
X2836878Y7280630D01*
X2806782D01*
X2786275Y7275135D01*
X2696885Y7364525D01*
X2680081Y7375753D01*
X2660260Y7379695D01*
X1091100D01*
X1071279Y7375753D01*
X1054475Y7364525D01*
X965085Y7275135D01*
X944578Y7280630D01*
X914482D01*
X885412Y7272841D01*
X859348Y7257793D01*
X838067Y7236512D01*
X823019Y7210448D01*
X815230Y7181378D01*
Y7151282D01*
X823019Y7122212D01*
X838067Y7096148D01*
X859348Y7074867D01*
X885412Y7059820D01*
X914482Y7052030D01*
X944578D01*
X973648Y7059820D01*
X999712Y7074867D01*
X1020993Y7096148D01*
X1036041Y7122212D01*
X1043830Y7151282D01*
Y7181378D01*
X1038335Y7201886D01*
X1107793Y7271343D01*
X1110341Y7270722D01*
X1112625Y7260902D01*
X1112643Y7257088D01*
X1092067Y7236512D01*
X1077019Y7210448D01*
X1069230Y7181378D01*
Y7151282D01*
X1077019Y7122212D01*
X1092067Y7096148D01*
X1113348Y7074867D01*
X1139412Y7059820D01*
X1168482Y7052030D01*
X1198578D01*
X1227648Y7059820D01*
X1253712Y7074867D01*
X1274993Y7096148D01*
X1290041Y7122212D01*
X1297830Y7151282D01*
Y7181378D01*
X1290041Y7210448D01*
X1274993Y7236512D01*
X1253712Y7257793D01*
X1243992Y7263405D01*
X1247395Y7276105D01*
X1373720D01*
X1377123Y7263405D01*
X1367368Y7257773D01*
X1346087Y7236492D01*
X1331040Y7210428D01*
X1323250Y7181358D01*
Y7151262D01*
X1331040Y7122192D01*
X1346087Y7096128D01*
X1367368Y7074847D01*
X1393432Y7059799D01*
X1422502Y7052010D01*
X1452598D01*
X1481668Y7059799D01*
X1507732Y7074847D01*
X1529013Y7096128D01*
X1544061Y7122192D01*
X1551850Y7151262D01*
Y7181358D01*
X1544061Y7210428D01*
X1529013Y7236492D01*
X1507732Y7257773D01*
X1497977Y7263405D01*
X1501380Y7276105D01*
X2503965D01*
X2507368Y7263405D01*
X2497648Y7257793D01*
X2476367Y7236512D01*
X2461319Y7210448D01*
X2453530Y7181378D01*
Y7151282D01*
X2461319Y7122212D01*
X2476367Y7096148D01*
X2497648Y7074867D01*
X2523712Y7059820D01*
X2552782Y7052030D01*
X2582878D01*
X2611948Y7059820D01*
X2638012Y7074867D01*
X2659293Y7096148D01*
X2674341Y7122212D01*
X2682130Y7151282D01*
Y7181378D01*
X2674341Y7210448D01*
X2659293Y7236512D01*
X2638717Y7257088D01*
X2638735Y7260902D01*
X2641019Y7270722D01*
X2643567Y7271343D01*
X2713025Y7201886D01*
X2707530Y7181378D01*
Y7151282D01*
X2715319Y7122212D01*
X2730367Y7096148D01*
X2751648Y7074867D01*
X2777712Y7059820D01*
X2806782Y7052030D01*
X2836878D01*
X2865948Y7059820D01*
X2892012Y7074867D01*
X2913293Y7096148D01*
X2928341Y7122212D01*
X2936130Y7151282D01*
Y7181378D01*
X2930635Y7201886D01*
X3000093Y7271343D01*
X3002641Y7270722D01*
X3004925Y7260902D01*
X3004943Y7257088D01*
X2984367Y7236512D01*
X2969319Y7210448D01*
X2961530Y7181378D01*
Y7151282D01*
X2969319Y7122212D01*
X2984367Y7096148D01*
X3005648Y7074867D01*
X3031712Y7059820D01*
X3060782Y7052030D01*
X3090878D01*
X3119948Y7059820D01*
X3146012Y7074867D01*
X3167293Y7096148D01*
X3182341Y7122212D01*
X3190130Y7151282D01*
Y7181378D01*
X3182341Y7210448D01*
X3167293Y7236512D01*
X3146012Y7257793D01*
X3136292Y7263405D01*
X3139695Y7276105D01*
X3266020D01*
X3269423Y7263405D01*
X3259668Y7257773D01*
X3238387Y7236492D01*
X3223340Y7210428D01*
X3215550Y7181358D01*
Y7151262D01*
X3223340Y7122192D01*
X3238387Y7096128D01*
X3259668Y7074847D01*
X3285732Y7059799D01*
X3314802Y7052010D01*
X3344898D01*
X3373968Y7059799D01*
X3400032Y7074847D01*
X3421313Y7096128D01*
X3436361Y7122192D01*
X3444150Y7151262D01*
Y7181358D01*
X3436361Y7210428D01*
X3421313Y7236492D01*
X3400032Y7257773D01*
X3390277Y7263405D01*
X3393680Y7276105D01*
X4396265D01*
X4399668Y7263405D01*
X4389948Y7257793D01*
X4368667Y7236512D01*
X4353619Y7210448D01*
X4345830Y7181378D01*
Y7151282D01*
X4353619Y7122212D01*
X4368667Y7096148D01*
X4389948Y7074867D01*
X4416012Y7059820D01*
X4445082Y7052030D01*
X4475178D01*
X4504248Y7059820D01*
X4530312Y7074867D01*
X4551593Y7096148D01*
X4566641Y7122212D01*
X4574430Y7151282D01*
Y7181378D01*
X4566641Y7210448D01*
X4551593Y7236512D01*
X4530312Y7257793D01*
X4520592Y7263405D01*
X4523995Y7276105D01*
X4563246D01*
X4615409Y7223941D01*
X4607619Y7210448D01*
X4599830Y7181378D01*
Y7151282D01*
X4607619Y7122212D01*
X4622667Y7096148D01*
X4643948Y7074867D01*
X4670012Y7059820D01*
X4699082Y7052030D01*
X4729178D01*
X4758248Y7059820D01*
X4784312Y7074867D01*
X4805593Y7096148D01*
X4820641Y7122212D01*
X4828430Y7151282D01*
Y7181378D01*
X4822935Y7201886D01*
X4892393Y7271343D01*
X4894941Y7270722D01*
X4897225Y7260902D01*
X4897243Y7257088D01*
X4876667Y7236512D01*
X4861619Y7210448D01*
X4853830Y7181378D01*
Y7151282D01*
X4861619Y7122212D01*
X4876667Y7096148D01*
X4897948Y7074867D01*
X4924012Y7059820D01*
X4953082Y7052030D01*
X4983178D01*
X5012248Y7059820D01*
X5038312Y7074867D01*
X5059593Y7096148D01*
X5074641Y7122212D01*
X5082430Y7151282D01*
Y7181378D01*
X5074641Y7210448D01*
X5059593Y7236512D01*
X5038312Y7257793D01*
X5028592Y7263405D01*
X5031995Y7276105D01*
X5158320D01*
X5161723Y7263405D01*
X5151968Y7257773D01*
X5130687Y7236492D01*
X5115640Y7210428D01*
X5107850Y7181358D01*
Y7151262D01*
X5115640Y7122192D01*
X5130687Y7096128D01*
X5151968Y7074847D01*
X5178032Y7059799D01*
X5207102Y7052010D01*
X5237198D01*
X5266268Y7059799D01*
X5292332Y7074847D01*
X5313613Y7096128D01*
X5328661Y7122192D01*
X5336450Y7151262D01*
Y7181358D01*
X5328661Y7210428D01*
X5313613Y7236492D01*
X5292332Y7257773D01*
X5282577Y7263405D01*
X5285980Y7276105D01*
X6288565D01*
X6291968Y7263405D01*
X6282248Y7257793D01*
X6260967Y7236512D01*
X6245919Y7210448D01*
X6238130Y7181378D01*
Y7151282D01*
X6245919Y7122212D01*
X6260967Y7096148D01*
X6282248Y7074867D01*
X6308312Y7059820D01*
X6337382Y7052030D01*
X6367478D01*
X6396548Y7059820D01*
X6422612Y7074867D01*
X6443893Y7096148D01*
X6458941Y7122212D01*
X6466730Y7151282D01*
Y7181378D01*
X6458941Y7210448D01*
X6443893Y7236512D01*
X6423317Y7257088D01*
X6423335Y7260902D01*
X6425619Y7270722D01*
X6428167Y7271343D01*
X6497625Y7201886D01*
X6492130Y7181378D01*
Y7151282D01*
X6499919Y7122212D01*
X6514967Y7096148D01*
X6536248Y7074867D01*
X6562312Y7059820D01*
X6591382Y7052030D01*
X6621478D01*
X6650548Y7059820D01*
X6676612Y7074867D01*
X6697893Y7096148D01*
X6712941Y7122212D01*
X6720730Y7151282D01*
Y7181378D01*
X6715235Y7201886D01*
X6759641Y7246291D01*
X6760596Y7246101D01*
X6762483Y7243939D01*
X6766365Y7232005D01*
X6753919Y7210448D01*
X6746130Y7181378D01*
Y7151282D01*
X6753919Y7122212D01*
X6768967Y7096148D01*
X6790248Y7074867D01*
X6816312Y7059820D01*
X6845382Y7052030D01*
X6875478D01*
X6904548Y7059820D01*
X6930612Y7074867D01*
X6951893Y7096148D01*
X6966941Y7122212D01*
X6974730Y7151282D01*
Y7181378D01*
X6966941Y7210448D01*
X6951893Y7236512D01*
X6945903Y7242502D01*
X6950763Y7254235D01*
X7024137D01*
X7028997Y7242502D01*
X7022987Y7236492D01*
X7007940Y7210428D01*
X7000150Y7181358D01*
Y7151262D01*
X7007940Y7122192D01*
X7022987Y7096128D01*
X7044268Y7074847D01*
X7070332Y7059799D01*
X7099402Y7052010D01*
X7129498D01*
X7158568Y7059799D01*
X7184632Y7074847D01*
X7205913Y7096128D01*
X7220961Y7122192D01*
X7228750Y7151262D01*
Y7181358D01*
X7220961Y7210428D01*
X7205913Y7236492D01*
X7199903Y7242502D01*
X7204763Y7254235D01*
X7535316D01*
X7553063Y7250705D01*
X7798904D01*
X7811832Y7245350D01*
X7834568D01*
X7855573Y7254051D01*
X7871649Y7270127D01*
X7880350Y7291132D01*
Y7313868D01*
X7871649Y7334873D01*
X7855573Y7350949D01*
X7834568Y7359650D01*
X7811832D01*
X7798904Y7354295D01*
X7567281D01*
X7549533Y7357825D01*
X6746130D01*
X6726309Y7353883D01*
X6709505Y7342655D01*
X6709505Y7342654D01*
X6641986Y7275135D01*
X6621478Y7280630D01*
X6591382D01*
X6570875Y7275135D01*
X6481485Y7364525D01*
X6464681Y7375753D01*
X6444860Y7379695D01*
D02*
G37*
G36*
X690578Y7280630D02*
X660482D01*
X631412Y7272841D01*
X605348Y7257793D01*
X584067Y7236512D01*
X569019Y7210448D01*
X561230Y7181378D01*
Y7151282D01*
X569019Y7122212D01*
X584067Y7096148D01*
X605348Y7074867D01*
X631412Y7059820D01*
X660482Y7052030D01*
X669366D01*
X675530Y7050804D01*
X681694Y7052030D01*
X690578D01*
X719648Y7059820D01*
X745712Y7074867D01*
X766993Y7096148D01*
X782041Y7122212D01*
X789830Y7151282D01*
Y7181378D01*
X782041Y7210448D01*
X766993Y7236512D01*
X745712Y7257793D01*
X719648Y7272841D01*
X690578Y7280630D01*
D02*
G37*
G36*
X9343042Y7104080D02*
X9308018D01*
X9273668Y7097247D01*
X9241310Y7083844D01*
X9212189Y7064386D01*
X9187424Y7039621D01*
X9167966Y7010500D01*
X9154563Y6978142D01*
X9147730Y6943792D01*
Y6908768D01*
X9154563Y6874418D01*
X9167966Y6842060D01*
X9187424Y6812939D01*
X9212189Y6788174D01*
X9241310Y6768716D01*
X9273668Y6755313D01*
X9308018Y6748480D01*
X9343042D01*
X9377392Y6755313D01*
X9409750Y6768716D01*
X9438871Y6788174D01*
X9463636Y6812939D01*
X9483094Y6842060D01*
X9496497Y6874418D01*
X9503330Y6908768D01*
Y6943792D01*
X9496497Y6978142D01*
X9483094Y7010500D01*
X9463636Y7039621D01*
X9438871Y7064386D01*
X9409750Y7083844D01*
X9377392Y7097247D01*
X9343042Y7104080D01*
D02*
G37*
G36*
X7823671Y7151080D02*
X7779389D01*
X7735958Y7142441D01*
X7695047Y7125495D01*
X7658229Y7100893D01*
X7626917Y7069581D01*
X7602315Y7032763D01*
X7585369Y6991852D01*
X7576730Y6948421D01*
Y6904139D01*
X7585369Y6860708D01*
X7602315Y6819797D01*
X7626917Y6782979D01*
X7658229Y6751667D01*
X7695047Y6727065D01*
X7735958Y6710119D01*
X7779389Y6701480D01*
X7823671D01*
X7867102Y6710119D01*
X7908013Y6727065D01*
X7944831Y6751667D01*
X7976143Y6782979D01*
X8000745Y6819797D01*
X8017691Y6860708D01*
X8026330Y6904139D01*
Y6948421D01*
X8017691Y6991852D01*
X8000745Y7032763D01*
X7976143Y7069581D01*
X7944831Y7100893D01*
X7908013Y7125495D01*
X7867102Y7142441D01*
X7823671Y7151080D01*
D02*
G37*
G36*
X7250349Y6804030D02*
X7217331D01*
X7185437Y6795484D01*
X7156843Y6778975D01*
X7133495Y6755627D01*
X7116986Y6727033D01*
X7108440Y6695139D01*
Y6662121D01*
X7116986Y6630228D01*
X7133495Y6601633D01*
X7156843Y6578285D01*
X7185437Y6561776D01*
X7217331Y6553230D01*
X7250349D01*
X7282242Y6561776D01*
X7310837Y6578285D01*
X7334185Y6601633D01*
X7350694Y6630228D01*
X7359240Y6662121D01*
Y6695139D01*
X7350694Y6727033D01*
X7334185Y6755627D01*
X7310837Y6778975D01*
X7282242Y6795484D01*
X7250349Y6804030D01*
D02*
G37*
G36*
X6252139D02*
X6219121D01*
X6187227Y6795484D01*
X6158633Y6778975D01*
X6135285Y6755627D01*
X6118776Y6727033D01*
X6110230Y6695139D01*
Y6662121D01*
X6118776Y6630228D01*
X6135285Y6601633D01*
X6158633Y6578285D01*
X6187227Y6561776D01*
X6219121Y6553230D01*
X6252139D01*
X6284032Y6561776D01*
X6312627Y6578285D01*
X6335975Y6601633D01*
X6352484Y6630228D01*
X6361030Y6662121D01*
Y6695139D01*
X6352484Y6727033D01*
X6335975Y6755627D01*
X6312627Y6778975D01*
X6284032Y6795484D01*
X6252139Y6804030D01*
D02*
G37*
G36*
X5358049D02*
X5325031D01*
X5293137Y6795484D01*
X5264543Y6778975D01*
X5241195Y6755627D01*
X5224686Y6727033D01*
X5216140Y6695139D01*
Y6662121D01*
X5224686Y6630228D01*
X5241195Y6601633D01*
X5264543Y6578285D01*
X5293137Y6561776D01*
X5325031Y6553230D01*
X5358049D01*
X5389942Y6561776D01*
X5418537Y6578285D01*
X5441885Y6601633D01*
X5458394Y6630228D01*
X5466940Y6662121D01*
Y6695139D01*
X5458394Y6727033D01*
X5441885Y6755627D01*
X5418537Y6778975D01*
X5389942Y6795484D01*
X5358049Y6804030D01*
D02*
G37*
G36*
X4359839D02*
X4326821D01*
X4294927Y6795484D01*
X4266333Y6778975D01*
X4242985Y6755627D01*
X4226476Y6727033D01*
X4217930Y6695139D01*
Y6662121D01*
X4226476Y6630228D01*
X4242985Y6601633D01*
X4266333Y6578285D01*
X4294927Y6561776D01*
X4326821Y6553230D01*
X4359839D01*
X4391732Y6561776D01*
X4420327Y6578285D01*
X4443675Y6601633D01*
X4460184Y6630228D01*
X4468730Y6662121D01*
Y6695139D01*
X4460184Y6727033D01*
X4443675Y6755627D01*
X4420327Y6778975D01*
X4391732Y6795484D01*
X4359839Y6804030D01*
D02*
G37*
G36*
X3465749D02*
X3432731D01*
X3400837Y6795484D01*
X3372243Y6778975D01*
X3348895Y6755627D01*
X3332386Y6727033D01*
X3323840Y6695139D01*
Y6662121D01*
X3332386Y6630228D01*
X3348895Y6601633D01*
X3372243Y6578285D01*
X3400837Y6561776D01*
X3432731Y6553230D01*
X3465749D01*
X3497642Y6561776D01*
X3526237Y6578285D01*
X3549585Y6601633D01*
X3566094Y6630228D01*
X3574640Y6662121D01*
Y6695139D01*
X3566094Y6727033D01*
X3549585Y6755627D01*
X3526237Y6778975D01*
X3497642Y6795484D01*
X3465749Y6804030D01*
D02*
G37*
G36*
X2467539D02*
X2434521D01*
X2402627Y6795484D01*
X2374033Y6778975D01*
X2350685Y6755627D01*
X2334176Y6727033D01*
X2325630Y6695139D01*
Y6662121D01*
X2334176Y6630228D01*
X2350685Y6601633D01*
X2374033Y6578285D01*
X2402627Y6561776D01*
X2434521Y6553230D01*
X2467539D01*
X2499432Y6561776D01*
X2528027Y6578285D01*
X2551375Y6601633D01*
X2567884Y6630228D01*
X2576430Y6662121D01*
Y6695139D01*
X2567884Y6727033D01*
X2551375Y6755627D01*
X2528027Y6778975D01*
X2499432Y6795484D01*
X2467539Y6804030D01*
D02*
G37*
G36*
X1573449D02*
X1540431D01*
X1508537Y6795484D01*
X1479943Y6778975D01*
X1456595Y6755627D01*
X1440086Y6727033D01*
X1431540Y6695139D01*
Y6662121D01*
X1440086Y6630228D01*
X1456595Y6601633D01*
X1479943Y6578285D01*
X1508537Y6561776D01*
X1540431Y6553230D01*
X1573449D01*
X1605342Y6561776D01*
X1633937Y6578285D01*
X1657285Y6601633D01*
X1673794Y6630228D01*
X1682340Y6662121D01*
Y6695139D01*
X1673794Y6727033D01*
X1657285Y6755627D01*
X1633937Y6778975D01*
X1605342Y6795484D01*
X1573449Y6804030D01*
D02*
G37*
G36*
X575239D02*
X542221D01*
X510327Y6795484D01*
X481733Y6778975D01*
X458385Y6755627D01*
X441876Y6727033D01*
X433330Y6695139D01*
Y6662121D01*
X441876Y6630228D01*
X458385Y6601633D01*
X481733Y6578285D01*
X510327Y6561776D01*
X542221Y6553230D01*
X575239D01*
X607132Y6561776D01*
X635727Y6578285D01*
X659075Y6601633D01*
X675584Y6630228D01*
X684130Y6662121D01*
Y6695139D01*
X675584Y6727033D01*
X659075Y6755627D01*
X635727Y6778975D01*
X607132Y6795484D01*
X575239Y6804030D01*
D02*
G37*
G36*
X6755994Y6894530D02*
X6713466D01*
X6671754Y6886233D01*
X6632463Y6869958D01*
X6597102Y6846330D01*
X6567030Y6816258D01*
X6543402Y6780897D01*
X6527127Y6741606D01*
X6518830Y6699894D01*
Y6657366D01*
X6527127Y6615654D01*
X6543402Y6576363D01*
X6567030Y6541002D01*
X6597102Y6510930D01*
X6632463Y6487302D01*
X6671754Y6471027D01*
X6713466Y6462730D01*
X6755994D01*
X6797706Y6471027D01*
X6836997Y6487302D01*
X6872358Y6510930D01*
X6902430Y6541002D01*
X6926058Y6576363D01*
X6942333Y6615654D01*
X6950630Y6657366D01*
Y6699894D01*
X6942333Y6741606D01*
X6926058Y6780897D01*
X6902430Y6816258D01*
X6872358Y6846330D01*
X6836997Y6869958D01*
X6797706Y6886233D01*
X6755994Y6894530D01*
D02*
G37*
G36*
X4863694D02*
X4821166D01*
X4779454Y6886233D01*
X4740163Y6869958D01*
X4704802Y6846330D01*
X4674730Y6816258D01*
X4651102Y6780897D01*
X4634827Y6741606D01*
X4626530Y6699894D01*
Y6657366D01*
X4634827Y6615654D01*
X4651102Y6576363D01*
X4674730Y6541002D01*
X4704802Y6510930D01*
X4740163Y6487302D01*
X4779454Y6471027D01*
X4821166Y6462730D01*
X4863694D01*
X4905406Y6471027D01*
X4944697Y6487302D01*
X4980058Y6510930D01*
X5010130Y6541002D01*
X5033758Y6576363D01*
X5050033Y6615654D01*
X5058330Y6657366D01*
Y6699894D01*
X5050033Y6741606D01*
X5033758Y6780897D01*
X5010130Y6816258D01*
X4980058Y6846330D01*
X4944697Y6869958D01*
X4905406Y6886233D01*
X4863694Y6894530D01*
D02*
G37*
G36*
X2971394D02*
X2928866D01*
X2887154Y6886233D01*
X2847863Y6869958D01*
X2812502Y6846330D01*
X2782430Y6816258D01*
X2758802Y6780897D01*
X2742527Y6741606D01*
X2734230Y6699894D01*
Y6657366D01*
X2742527Y6615654D01*
X2758802Y6576363D01*
X2782430Y6541002D01*
X2812502Y6510930D01*
X2847863Y6487302D01*
X2887154Y6471027D01*
X2928866Y6462730D01*
X2971394D01*
X3013106Y6471027D01*
X3052397Y6487302D01*
X3087758Y6510930D01*
X3117830Y6541002D01*
X3141458Y6576363D01*
X3157733Y6615654D01*
X3166030Y6657366D01*
Y6699894D01*
X3157733Y6741606D01*
X3141458Y6780897D01*
X3117830Y6816258D01*
X3087758Y6846330D01*
X3052397Y6869958D01*
X3013106Y6886233D01*
X2971394Y6894530D01*
D02*
G37*
G36*
X1079094D02*
X1036566D01*
X994854Y6886233D01*
X955563Y6869958D01*
X920202Y6846330D01*
X890130Y6816258D01*
X866502Y6780897D01*
X850227Y6741606D01*
X841930Y6699894D01*
Y6657366D01*
X850227Y6615654D01*
X866502Y6576363D01*
X890130Y6541002D01*
X920202Y6510930D01*
X955563Y6487302D01*
X994854Y6471027D01*
X1036566Y6462730D01*
X1079094D01*
X1120806Y6471027D01*
X1160097Y6487302D01*
X1195458Y6510930D01*
X1225530Y6541002D01*
X1249158Y6576363D01*
X1265433Y6615654D01*
X1273730Y6657366D01*
Y6699894D01*
X1265433Y6741606D01*
X1249158Y6780897D01*
X1225530Y6816258D01*
X1195458Y6846330D01*
X1160097Y6869958D01*
X1120806Y6886233D01*
X1079094Y6894530D01*
D02*
G37*
G36*
X7125222Y6549110D02*
X7088438D01*
X7052908Y6539590D01*
X7021052Y6521198D01*
X6995042Y6495188D01*
X6976651Y6463332D01*
X6967130Y6427802D01*
Y6391018D01*
X6976651Y6355488D01*
X6995042Y6323632D01*
X7021052Y6297622D01*
X7052908Y6279231D01*
X7088438Y6269710D01*
X7125222D01*
X7160752Y6279231D01*
X7192608Y6297622D01*
X7218618Y6323632D01*
X7237010Y6355488D01*
X7246530Y6391018D01*
Y6427802D01*
X7237010Y6463332D01*
X7218618Y6495188D01*
X7192608Y6521198D01*
X7160752Y6539590D01*
X7125222Y6549110D01*
D02*
G37*
G36*
X5232922D02*
X5196138D01*
X5160608Y6539590D01*
X5128752Y6521198D01*
X5102742Y6495188D01*
X5084351Y6463332D01*
X5074830Y6427802D01*
Y6391018D01*
X5084351Y6355488D01*
X5102742Y6323632D01*
X5128752Y6297622D01*
X5160608Y6279231D01*
X5196138Y6269710D01*
X5232922D01*
X5268452Y6279231D01*
X5300308Y6297622D01*
X5326318Y6323632D01*
X5344710Y6355488D01*
X5354230Y6391018D01*
Y6427802D01*
X5344710Y6463332D01*
X5326318Y6495188D01*
X5300308Y6521198D01*
X5268452Y6539590D01*
X5232922Y6549110D01*
D02*
G37*
G36*
X3340622D02*
X3303838D01*
X3268308Y6539590D01*
X3236452Y6521198D01*
X3210442Y6495188D01*
X3192051Y6463332D01*
X3182530Y6427802D01*
Y6391018D01*
X3192051Y6355488D01*
X3210442Y6323632D01*
X3236452Y6297622D01*
X3268308Y6279231D01*
X3303838Y6269710D01*
X3340622D01*
X3376152Y6279231D01*
X3408008Y6297622D01*
X3434018Y6323632D01*
X3452410Y6355488D01*
X3461930Y6391018D01*
Y6427802D01*
X3452410Y6463332D01*
X3434018Y6495188D01*
X3408008Y6521198D01*
X3376152Y6539590D01*
X3340622Y6549110D01*
D02*
G37*
G36*
X1448322D02*
X1411538D01*
X1376008Y6539590D01*
X1344152Y6521198D01*
X1318142Y6495188D01*
X1299751Y6463332D01*
X1290230Y6427802D01*
Y6391018D01*
X1299751Y6355488D01*
X1318142Y6323632D01*
X1344152Y6297622D01*
X1376008Y6279231D01*
X1411538Y6269710D01*
X1448322D01*
X1483852Y6279231D01*
X1515708Y6297622D01*
X1541718Y6323632D01*
X1560110Y6355488D01*
X1569630Y6391018D01*
Y6427802D01*
X1560110Y6463332D01*
X1541718Y6495188D01*
X1515708Y6521198D01*
X1483852Y6539590D01*
X1448322Y6549110D01*
D02*
G37*
G36*
X6508022Y6315410D02*
X6471238D01*
X6435708Y6305890D01*
X6403852Y6287498D01*
X6377842Y6261488D01*
X6359450Y6229632D01*
X6349930Y6194102D01*
Y6163774D01*
X4737030D01*
Y6194102D01*
X4727509Y6229632D01*
X4709118Y6261488D01*
X4683108Y6287498D01*
X4651252Y6305890D01*
X4615722Y6315410D01*
X4578938D01*
X4543408Y6305890D01*
X4511552Y6287498D01*
X4485542Y6261488D01*
X4467150Y6229632D01*
X4457630Y6194102D01*
Y6163774D01*
X2844730D01*
Y6194102D01*
X2835209Y6229632D01*
X2816818Y6261488D01*
X2790808Y6287498D01*
X2758952Y6305890D01*
X2723422Y6315410D01*
X2686638D01*
X2651108Y6305890D01*
X2619252Y6287498D01*
X2593242Y6261488D01*
X2574850Y6229632D01*
X2565330Y6194102D01*
Y6163774D01*
X952430D01*
Y6194102D01*
X942909Y6229632D01*
X924518Y6261488D01*
X898508Y6287498D01*
X866652Y6305890D01*
X831122Y6315410D01*
X794338D01*
X758808Y6305890D01*
X726952Y6287498D01*
X700942Y6261488D01*
X682550Y6229632D01*
X673030Y6194102D01*
Y6157318D01*
X682550Y6121788D01*
X700942Y6089932D01*
X726952Y6063922D01*
X758808Y6045530D01*
X794338Y6036010D01*
X831122D01*
X866652Y6045530D01*
X892033Y6060184D01*
X2625727D01*
X2651108Y6045530D01*
X2686638Y6036010D01*
X2723422D01*
X2758952Y6045530D01*
X2784333Y6060184D01*
X4518027D01*
X4543408Y6045530D01*
X4578938Y6036010D01*
X4615722D01*
X4651252Y6045530D01*
X4676633Y6060184D01*
X6410327D01*
X6435708Y6045530D01*
X6471238Y6036010D01*
X6508022D01*
X6543552Y6045530D01*
X6575408Y6063922D01*
X6601418Y6089932D01*
X6619809Y6121788D01*
X6629330Y6157318D01*
Y6194102D01*
X6619809Y6229632D01*
X6601418Y6261488D01*
X6575408Y6287498D01*
X6543552Y6305890D01*
X6508022Y6315410D01*
D02*
G37*
G36*
X8767778Y6334480D02*
X8737682D01*
X8708612Y6326691D01*
X8682548Y6311643D01*
X8661267Y6290362D01*
X8646219Y6264298D01*
X8638430Y6235228D01*
Y6205132D01*
X8646219Y6176062D01*
X8661267Y6149998D01*
X8682548Y6128717D01*
X8708612Y6113670D01*
X8737682Y6105880D01*
X8767778D01*
X8796848Y6113670D01*
X8822912Y6128717D01*
X8844193Y6149998D01*
X8859241Y6176062D01*
X8867030Y6205132D01*
Y6235228D01*
X8859241Y6264298D01*
X8844193Y6290362D01*
X8822912Y6311643D01*
X8796848Y6326691D01*
X8767778Y6334480D01*
D02*
G37*
G36*
X8415742Y6490695D02*
X7874000D01*
X7854179Y6486753D01*
X7837375Y6475525D01*
X7761175Y6399325D01*
X7749947Y6382521D01*
X7746005Y6362700D01*
Y5999646D01*
X7740650Y5986718D01*
Y5963982D01*
X7746005Y5951054D01*
Y5609454D01*
X7623946Y5487395D01*
X6768000D01*
X6748179Y5483453D01*
X6731375Y5472225D01*
X6641985Y5382835D01*
X6621478Y5388330D01*
X6591382D01*
X6570875Y5382835D01*
X6481485Y5472225D01*
X6464681Y5483453D01*
X6444860Y5487395D01*
X4875700D01*
X4855879Y5483453D01*
X4839075Y5472225D01*
X4749685Y5382835D01*
X4729178Y5388330D01*
X4699082D01*
X4678575Y5382835D01*
X4589185Y5472225D01*
X4572381Y5483453D01*
X4552560Y5487395D01*
X2983400D01*
X2963579Y5483453D01*
X2946775Y5472225D01*
X2857385Y5382835D01*
X2836878Y5388330D01*
X2806782D01*
X2786275Y5382835D01*
X2696885Y5472225D01*
X2680081Y5483453D01*
X2660260Y5487395D01*
X1091100D01*
X1071279Y5483453D01*
X1054475Y5472225D01*
X965085Y5382835D01*
X944578Y5388330D01*
X914482D01*
X885412Y5380541D01*
X859348Y5365493D01*
X838067Y5344212D01*
X823019Y5318148D01*
X815230Y5289078D01*
Y5258982D01*
X823019Y5229912D01*
X838067Y5203848D01*
X859348Y5182567D01*
X885412Y5167520D01*
X914482Y5159730D01*
X944578D01*
X973648Y5167520D01*
X999712Y5182567D01*
X1020993Y5203848D01*
X1036041Y5229912D01*
X1043830Y5258982D01*
Y5289078D01*
X1038335Y5309586D01*
X1107793Y5379043D01*
X1110341Y5378422D01*
X1112625Y5368602D01*
X1112643Y5364788D01*
X1092067Y5344212D01*
X1077019Y5318148D01*
X1069230Y5289078D01*
Y5258982D01*
X1077019Y5229912D01*
X1092067Y5203848D01*
X1113348Y5182567D01*
X1139412Y5167520D01*
X1168482Y5159730D01*
X1198578D01*
X1227648Y5167520D01*
X1253712Y5182567D01*
X1274993Y5203848D01*
X1290041Y5229912D01*
X1297830Y5258982D01*
Y5289078D01*
X1290041Y5318148D01*
X1274993Y5344212D01*
X1253712Y5365493D01*
X1243992Y5371105D01*
X1247395Y5383805D01*
X1373720D01*
X1377123Y5371105D01*
X1367368Y5365473D01*
X1346087Y5344192D01*
X1331040Y5318128D01*
X1323250Y5289058D01*
Y5258962D01*
X1331040Y5229892D01*
X1346087Y5203828D01*
X1367368Y5182547D01*
X1393432Y5167499D01*
X1422502Y5159710D01*
X1452598D01*
X1481668Y5167499D01*
X1507732Y5182547D01*
X1529013Y5203828D01*
X1544061Y5229892D01*
X1551850Y5258962D01*
Y5289058D01*
X1544061Y5318128D01*
X1529013Y5344192D01*
X1507732Y5365473D01*
X1497977Y5371105D01*
X1501380Y5383805D01*
X2503965D01*
X2507368Y5371105D01*
X2497648Y5365493D01*
X2476367Y5344212D01*
X2461319Y5318148D01*
X2453530Y5289078D01*
Y5258982D01*
X2461319Y5229912D01*
X2476367Y5203848D01*
X2497648Y5182567D01*
X2523712Y5167520D01*
X2552782Y5159730D01*
X2582878D01*
X2611948Y5167520D01*
X2638012Y5182567D01*
X2659293Y5203848D01*
X2674341Y5229912D01*
X2682130Y5258982D01*
Y5289078D01*
X2674341Y5318148D01*
X2659293Y5344212D01*
X2638717Y5364788D01*
X2638735Y5368602D01*
X2641019Y5378422D01*
X2643567Y5379043D01*
X2713025Y5309586D01*
X2707530Y5289078D01*
Y5258982D01*
X2715319Y5229912D01*
X2730367Y5203848D01*
X2751648Y5182567D01*
X2777712Y5167520D01*
X2806782Y5159730D01*
X2836878D01*
X2865948Y5167520D01*
X2892012Y5182567D01*
X2913293Y5203848D01*
X2928341Y5229912D01*
X2936130Y5258982D01*
Y5289078D01*
X2930635Y5309586D01*
X3000093Y5379043D01*
X3002641Y5378422D01*
X3004925Y5368602D01*
X3004943Y5364788D01*
X2984367Y5344212D01*
X2969319Y5318148D01*
X2961530Y5289078D01*
Y5258982D01*
X2969319Y5229912D01*
X2984367Y5203848D01*
X3005648Y5182567D01*
X3031712Y5167520D01*
X3060782Y5159730D01*
X3090878D01*
X3119948Y5167520D01*
X3146012Y5182567D01*
X3167293Y5203848D01*
X3182341Y5229912D01*
X3190130Y5258982D01*
Y5289078D01*
X3182341Y5318148D01*
X3167293Y5344212D01*
X3146012Y5365493D01*
X3136292Y5371105D01*
X3139695Y5383805D01*
X3266020D01*
X3269423Y5371105D01*
X3259668Y5365473D01*
X3238387Y5344192D01*
X3223340Y5318128D01*
X3215550Y5289058D01*
Y5258962D01*
X3223340Y5229892D01*
X3238387Y5203828D01*
X3259668Y5182547D01*
X3285732Y5167499D01*
X3314802Y5159710D01*
X3344898D01*
X3373968Y5167499D01*
X3400032Y5182547D01*
X3421313Y5203828D01*
X3436361Y5229892D01*
X3444150Y5258962D01*
Y5289058D01*
X3436361Y5318128D01*
X3421313Y5344192D01*
X3400032Y5365473D01*
X3390277Y5371105D01*
X3393680Y5383805D01*
X4396265D01*
X4399668Y5371105D01*
X4389948Y5365493D01*
X4368667Y5344212D01*
X4353619Y5318148D01*
X4345830Y5289078D01*
Y5258982D01*
X4353619Y5229912D01*
X4368667Y5203848D01*
X4389948Y5182567D01*
X4416012Y5167520D01*
X4445082Y5159730D01*
X4475178D01*
X4504248Y5167520D01*
X4530312Y5182567D01*
X4551593Y5203848D01*
X4566641Y5229912D01*
X4574430Y5258982D01*
Y5289078D01*
X4566641Y5318148D01*
X4551593Y5344212D01*
X4531017Y5364788D01*
X4531035Y5368602D01*
X4533319Y5378422D01*
X4535867Y5379043D01*
X4605325Y5309586D01*
X4599830Y5289078D01*
Y5258982D01*
X4607619Y5229912D01*
X4622667Y5203848D01*
X4643948Y5182567D01*
X4670012Y5167520D01*
X4699082Y5159730D01*
X4729178D01*
X4758248Y5167520D01*
X4784312Y5182567D01*
X4805593Y5203848D01*
X4820641Y5229912D01*
X4828430Y5258982D01*
Y5289078D01*
X4822935Y5309586D01*
X4892393Y5379043D01*
X4894941Y5378422D01*
X4897225Y5368602D01*
X4897243Y5364788D01*
X4876667Y5344212D01*
X4861619Y5318148D01*
X4853830Y5289078D01*
Y5258982D01*
X4861619Y5229912D01*
X4876667Y5203848D01*
X4897948Y5182567D01*
X4924012Y5167520D01*
X4953082Y5159730D01*
X4983178D01*
X5012248Y5167520D01*
X5038312Y5182567D01*
X5059593Y5203848D01*
X5074641Y5229912D01*
X5082430Y5258982D01*
Y5289078D01*
X5074641Y5318148D01*
X5059593Y5344212D01*
X5038312Y5365493D01*
X5028592Y5371105D01*
X5031995Y5383805D01*
X5158320D01*
X5161723Y5371105D01*
X5151968Y5365473D01*
X5130687Y5344192D01*
X5115640Y5318128D01*
X5107850Y5289058D01*
Y5258962D01*
X5115640Y5229892D01*
X5130687Y5203828D01*
X5151968Y5182547D01*
X5178032Y5167499D01*
X5207102Y5159710D01*
X5237198D01*
X5266268Y5167499D01*
X5292332Y5182547D01*
X5313613Y5203828D01*
X5328661Y5229892D01*
X5336450Y5258962D01*
Y5289058D01*
X5328661Y5318128D01*
X5313613Y5344192D01*
X5292332Y5365473D01*
X5282577Y5371105D01*
X5285980Y5383805D01*
X6288565D01*
X6291968Y5371105D01*
X6282248Y5365493D01*
X6260967Y5344212D01*
X6245919Y5318148D01*
X6238130Y5289078D01*
Y5258982D01*
X6245919Y5229912D01*
X6260967Y5203848D01*
X6282248Y5182567D01*
X6308312Y5167520D01*
X6337382Y5159730D01*
X6367478D01*
X6396548Y5167520D01*
X6422612Y5182567D01*
X6443893Y5203848D01*
X6458941Y5229912D01*
X6466730Y5258982D01*
Y5289078D01*
X6458941Y5318148D01*
X6443893Y5344212D01*
X6423317Y5364788D01*
X6423335Y5368602D01*
X6425619Y5378422D01*
X6428167Y5379043D01*
X6497625Y5309586D01*
X6492130Y5289078D01*
Y5258982D01*
X6499919Y5229912D01*
X6514967Y5203848D01*
X6536248Y5182567D01*
X6562312Y5167520D01*
X6591382Y5159730D01*
X6621478D01*
X6650548Y5167520D01*
X6676612Y5182567D01*
X6697893Y5203848D01*
X6712941Y5229912D01*
X6720730Y5258982D01*
Y5289078D01*
X6715235Y5309586D01*
X6784693Y5379043D01*
X6787241Y5378422D01*
X6789525Y5368602D01*
X6789543Y5364788D01*
X6768967Y5344212D01*
X6753919Y5318148D01*
X6746130Y5289078D01*
Y5258982D01*
X6753919Y5229912D01*
X6768967Y5203848D01*
X6790248Y5182567D01*
X6816312Y5167520D01*
X6845382Y5159730D01*
X6875478D01*
X6904548Y5167520D01*
X6930612Y5182567D01*
X6951893Y5203848D01*
X6966941Y5229912D01*
X6974730Y5258982D01*
Y5289078D01*
X6966941Y5318148D01*
X6951893Y5344212D01*
X6930612Y5365493D01*
X6920892Y5371105D01*
X6924295Y5383805D01*
X7050620D01*
X7054023Y5371105D01*
X7044268Y5365473D01*
X7022987Y5344192D01*
X7007940Y5318128D01*
X7000150Y5289058D01*
Y5258962D01*
X7007940Y5229892D01*
X7022987Y5203828D01*
X7044268Y5182547D01*
X7070332Y5167499D01*
X7099402Y5159710D01*
X7129498D01*
X7158568Y5167499D01*
X7184632Y5182547D01*
X7205913Y5203828D01*
X7220961Y5229892D01*
X7228750Y5258962D01*
Y5289058D01*
X7220961Y5318128D01*
X7205913Y5344192D01*
X7184632Y5365473D01*
X7174877Y5371105D01*
X7178280Y5383805D01*
X7645400D01*
X7665221Y5387747D01*
X7682025Y5398975D01*
X7834425Y5551375D01*
X7845653Y5568179D01*
X7849595Y5588000D01*
Y5951054D01*
X7854950Y5963982D01*
Y5986718D01*
X7849595Y5999646D01*
Y6341246D01*
X7895454Y6387105D01*
X8394288D01*
X8446935Y6334457D01*
Y6322258D01*
X8428548Y6311643D01*
X8407267Y6290362D01*
X8392219Y6264298D01*
X8384430Y6235228D01*
Y6205132D01*
X8392219Y6176062D01*
X8407267Y6149998D01*
X8428548Y6128717D01*
X8454612Y6113670D01*
X8483682Y6105880D01*
X8513778D01*
X8542848Y6113670D01*
X8568912Y6128717D01*
X8590193Y6149998D01*
X8605241Y6176062D01*
X8613030Y6205132D01*
Y6235228D01*
X8605241Y6264298D01*
X8590193Y6290362D01*
X8568912Y6311643D01*
X8550525Y6322258D01*
Y6355912D01*
X8546583Y6375733D01*
X8535355Y6392537D01*
X8452367Y6475525D01*
X8435563Y6486753D01*
X8415742Y6490695D01*
D02*
G37*
G36*
X8259778Y6334480D02*
X8229682D01*
X8200612Y6326691D01*
X8174548Y6311643D01*
X8153267Y6290362D01*
X8138219Y6264298D01*
X8130430Y6235228D01*
Y6205132D01*
X8138219Y6176062D01*
X8153267Y6149998D01*
X8174548Y6128717D01*
X8200612Y6113670D01*
X8229682Y6105880D01*
X8259778D01*
X8288848Y6113670D01*
X8314912Y6128717D01*
X8336193Y6149998D01*
X8351241Y6176062D01*
X8359030Y6205132D01*
Y6235228D01*
X8351241Y6264298D01*
X8336193Y6290362D01*
X8314912Y6311643D01*
X8288848Y6326691D01*
X8259778Y6334480D01*
D02*
G37*
G36*
X9021798Y6334460D02*
X8991702D01*
X8962632Y6326671D01*
X8936568Y6311623D01*
X8915287Y6290342D01*
X8900240Y6264278D01*
X8892450Y6235208D01*
Y6205112D01*
X8900240Y6176042D01*
X8915287Y6149978D01*
X8936568Y6128697D01*
X8962632Y6113649D01*
X8991702Y6105860D01*
X9021798D01*
X9050868Y6113649D01*
X9076932Y6128697D01*
X9098213Y6149978D01*
X9113261Y6176042D01*
X9121050Y6205112D01*
Y6235208D01*
X9113261Y6264278D01*
X9098213Y6290342D01*
X9076932Y6311623D01*
X9050868Y6326671D01*
X9021798Y6334460D01*
D02*
G37*
G36*
X9142649Y5857880D02*
X9109631D01*
X9077737Y5849334D01*
X9049143Y5832825D01*
X9025795Y5809477D01*
X9009286Y5780883D01*
X9000740Y5748989D01*
Y5715971D01*
X9009286Y5684078D01*
X9025795Y5655483D01*
X9049143Y5632135D01*
X9077737Y5615626D01*
X9109631Y5607080D01*
X9142649D01*
X9174542Y5615626D01*
X9203137Y5632135D01*
X9226485Y5655483D01*
X9242994Y5684078D01*
X9251540Y5715971D01*
Y5748989D01*
X9242994Y5780883D01*
X9226485Y5809477D01*
X9203137Y5832825D01*
X9174542Y5849334D01*
X9142649Y5857880D01*
D02*
G37*
G36*
X8144439D02*
X8111421D01*
X8079527Y5849334D01*
X8050933Y5832825D01*
X8027585Y5809477D01*
X8011076Y5780883D01*
X8002530Y5748989D01*
Y5715971D01*
X8011076Y5684078D01*
X8027585Y5655483D01*
X8050933Y5632135D01*
X8079527Y5615626D01*
X8111421Y5607080D01*
X8144439D01*
X8176332Y5615626D01*
X8204927Y5632135D01*
X8228275Y5655483D01*
X8244784Y5684078D01*
X8253330Y5715971D01*
Y5748989D01*
X8244784Y5780883D01*
X8228275Y5809477D01*
X8204927Y5832825D01*
X8176332Y5849334D01*
X8144439Y5857880D01*
D02*
G37*
G36*
X8648294Y5948380D02*
X8605766D01*
X8564054Y5940083D01*
X8524763Y5923808D01*
X8489402Y5900180D01*
X8459330Y5870108D01*
X8435702Y5834747D01*
X8419427Y5795456D01*
X8411130Y5753744D01*
Y5711216D01*
X8419427Y5669504D01*
X8435702Y5630213D01*
X8459330Y5594852D01*
X8489402Y5564780D01*
X8524763Y5541152D01*
X8564054Y5524877D01*
X8605766Y5516580D01*
X8648294D01*
X8690006Y5524877D01*
X8729297Y5541152D01*
X8764658Y5564780D01*
X8794730Y5594852D01*
X8818358Y5630213D01*
X8834633Y5669504D01*
X8842930Y5711216D01*
Y5753744D01*
X8834633Y5795456D01*
X8818358Y5834747D01*
X8794730Y5870108D01*
X8764658Y5900180D01*
X8729297Y5923808D01*
X8690006Y5940083D01*
X8648294Y5948380D01*
D02*
G37*
G36*
X9017522Y5602960D02*
X8980738D01*
X8945208Y5593440D01*
X8913352Y5575048D01*
X8887342Y5549038D01*
X8868951Y5517182D01*
X8859430Y5481652D01*
Y5444868D01*
X8868951Y5409338D01*
X8887342Y5377482D01*
X8913352Y5351472D01*
X8945208Y5333081D01*
X8980738Y5323560D01*
X9017522D01*
X9053052Y5333081D01*
X9084908Y5351472D01*
X9110918Y5377482D01*
X9129310Y5409338D01*
X9138830Y5444868D01*
Y5481652D01*
X9129310Y5517182D01*
X9110918Y5549038D01*
X9084908Y5575048D01*
X9053052Y5593440D01*
X9017522Y5602960D01*
D02*
G37*
G36*
X8400322Y5369260D02*
X8363538D01*
X8328008Y5359740D01*
X8296152Y5341348D01*
X8270142Y5315338D01*
X8251750Y5283482D01*
X8251180Y5281355D01*
X8116499D01*
X8116497Y5281355D01*
X8096676Y5277413D01*
X8079873Y5266185D01*
X8079872Y5266184D01*
X7148893Y4335205D01*
X6620379D01*
X6619809Y4337332D01*
X6601418Y4369188D01*
X6575408Y4395198D01*
X6543552Y4413590D01*
X6508022Y4423110D01*
X6471238D01*
X6435708Y4413590D01*
X6403852Y4395198D01*
X6377842Y4369188D01*
X6359450Y4337332D01*
X6358880Y4335205D01*
X4728079D01*
X4727509Y4337332D01*
X4709118Y4369188D01*
X4683108Y4395198D01*
X4651252Y4413590D01*
X4615722Y4423110D01*
X4578938D01*
X4543408Y4413590D01*
X4511552Y4395198D01*
X4485542Y4369188D01*
X4467150Y4337332D01*
X4466580Y4335205D01*
X2835779D01*
X2835209Y4337332D01*
X2816818Y4369188D01*
X2790808Y4395198D01*
X2758952Y4413590D01*
X2723422Y4423110D01*
X2686638D01*
X2651108Y4413590D01*
X2619252Y4395198D01*
X2593242Y4369188D01*
X2574850Y4337332D01*
X2574280Y4335205D01*
X943479D01*
X942909Y4337332D01*
X924518Y4369188D01*
X898508Y4395198D01*
X866652Y4413590D01*
X831122Y4423110D01*
X794338D01*
X758808Y4413590D01*
X726952Y4395198D01*
X700942Y4369188D01*
X682550Y4337332D01*
X673030Y4301802D01*
Y4265018D01*
X682550Y4229488D01*
X700942Y4197632D01*
X726952Y4171622D01*
X758808Y4153230D01*
X794338Y4143710D01*
X831122D01*
X866652Y4153230D01*
X898508Y4171622D01*
X924518Y4197632D01*
X942909Y4229488D01*
X943479Y4231615D01*
X2574280D01*
X2574850Y4229488D01*
X2593242Y4197632D01*
X2619252Y4171622D01*
X2651108Y4153230D01*
X2686638Y4143710D01*
X2723422D01*
X2758952Y4153230D01*
X2790808Y4171622D01*
X2816818Y4197632D01*
X2835209Y4229488D01*
X2835779Y4231615D01*
X4466580D01*
X4467150Y4229488D01*
X4485542Y4197632D01*
X4511552Y4171622D01*
X4543408Y4153230D01*
X4578938Y4143710D01*
X4615722D01*
X4651252Y4153230D01*
X4683108Y4171622D01*
X4709118Y4197632D01*
X4727509Y4229488D01*
X4728079Y4231615D01*
X6358880D01*
X6359450Y4229488D01*
X6377842Y4197632D01*
X6403852Y4171622D01*
X6435708Y4153230D01*
X6471238Y4143710D01*
X6508022D01*
X6543552Y4153230D01*
X6575408Y4171622D01*
X6601418Y4197632D01*
X6619809Y4229488D01*
X6620379Y4231615D01*
X7170347D01*
X7190169Y4235557D01*
X7206972Y4246785D01*
X7577154Y4616967D01*
X7587713Y4609911D01*
X7585369Y4604252D01*
X7576730Y4560821D01*
Y4516539D01*
X7585369Y4473108D01*
X7602315Y4432197D01*
X7626917Y4395379D01*
X7658229Y4364067D01*
X7695047Y4339465D01*
X7735958Y4322519D01*
X7779389Y4313880D01*
X7823671D01*
X7867102Y4322519D01*
X7908013Y4339465D01*
X7944831Y4364067D01*
X7976143Y4395379D01*
X8000745Y4432197D01*
X8017691Y4473108D01*
X8026330Y4516539D01*
Y4560821D01*
X8017691Y4604252D01*
X8000745Y4645163D01*
X7976143Y4681981D01*
X7944831Y4713293D01*
X7908013Y4737895D01*
X7867102Y4754841D01*
X7823671Y4763480D01*
X7779389D01*
X7735958Y4754841D01*
X7730299Y4752497D01*
X7723243Y4763056D01*
X8137951Y5177765D01*
X8251180D01*
X8251750Y5175638D01*
X8270142Y5143782D01*
X8296152Y5117772D01*
X8328008Y5099380D01*
X8363538Y5089860D01*
X8400322D01*
X8435852Y5099380D01*
X8467708Y5117772D01*
X8493718Y5143782D01*
X8512109Y5175638D01*
X8521630Y5211168D01*
Y5247952D01*
X8512109Y5283482D01*
X8493718Y5315338D01*
X8467708Y5341348D01*
X8435852Y5359740D01*
X8400322Y5369260D01*
D02*
G37*
G36*
X690578Y5388330D02*
X660482D01*
X631412Y5380541D01*
X605348Y5365493D01*
X584067Y5344212D01*
X569019Y5318148D01*
X561230Y5289078D01*
Y5258982D01*
X569019Y5229912D01*
X584067Y5203848D01*
X605348Y5182567D01*
X631412Y5167520D01*
X660482Y5159730D01*
X669366D01*
X675530Y5158504D01*
X681694Y5159730D01*
X690578D01*
X719648Y5167520D01*
X745712Y5182567D01*
X766993Y5203848D01*
X782041Y5229912D01*
X789830Y5258982D01*
Y5289078D01*
X782041Y5318148D01*
X766993Y5344212D01*
X745712Y5365493D01*
X719648Y5380541D01*
X690578Y5388330D01*
D02*
G37*
G36*
X7250349Y4911730D02*
X7217331D01*
X7185437Y4903184D01*
X7156843Y4886675D01*
X7133495Y4863327D01*
X7116986Y4834733D01*
X7108440Y4802839D01*
Y4769821D01*
X7116986Y4737928D01*
X7133495Y4709333D01*
X7156843Y4685985D01*
X7185437Y4669476D01*
X7217331Y4660930D01*
X7250349D01*
X7282242Y4669476D01*
X7310837Y4685985D01*
X7334185Y4709333D01*
X7350694Y4737928D01*
X7359240Y4769821D01*
Y4802839D01*
X7350694Y4834733D01*
X7334185Y4863327D01*
X7310837Y4886675D01*
X7282242Y4903184D01*
X7250349Y4911730D01*
D02*
G37*
G36*
X6252139D02*
X6219121D01*
X6187227Y4903184D01*
X6158633Y4886675D01*
X6135285Y4863327D01*
X6118776Y4834733D01*
X6110230Y4802839D01*
Y4769821D01*
X6118776Y4737928D01*
X6135285Y4709333D01*
X6158633Y4685985D01*
X6187227Y4669476D01*
X6219121Y4660930D01*
X6252139D01*
X6284032Y4669476D01*
X6312627Y4685985D01*
X6335975Y4709333D01*
X6352484Y4737928D01*
X6361030Y4769821D01*
Y4802839D01*
X6352484Y4834733D01*
X6335975Y4863327D01*
X6312627Y4886675D01*
X6284032Y4903184D01*
X6252139Y4911730D01*
D02*
G37*
G36*
X5358049D02*
X5325031D01*
X5293137Y4903184D01*
X5264543Y4886675D01*
X5241195Y4863327D01*
X5224686Y4834733D01*
X5216140Y4802839D01*
Y4769821D01*
X5224686Y4737928D01*
X5241195Y4709333D01*
X5264543Y4685985D01*
X5293137Y4669476D01*
X5325031Y4660930D01*
X5358049D01*
X5389942Y4669476D01*
X5418537Y4685985D01*
X5441885Y4709333D01*
X5458394Y4737928D01*
X5466940Y4769821D01*
Y4802839D01*
X5458394Y4834733D01*
X5441885Y4863327D01*
X5418537Y4886675D01*
X5389942Y4903184D01*
X5358049Y4911730D01*
D02*
G37*
G36*
X4359839D02*
X4326821D01*
X4294927Y4903184D01*
X4266333Y4886675D01*
X4242985Y4863327D01*
X4226476Y4834733D01*
X4217930Y4802839D01*
Y4769821D01*
X4226476Y4737928D01*
X4242985Y4709333D01*
X4266333Y4685985D01*
X4294927Y4669476D01*
X4326821Y4660930D01*
X4359839D01*
X4391732Y4669476D01*
X4420327Y4685985D01*
X4443675Y4709333D01*
X4460184Y4737928D01*
X4468730Y4769821D01*
Y4802839D01*
X4460184Y4834733D01*
X4443675Y4863327D01*
X4420327Y4886675D01*
X4391732Y4903184D01*
X4359839Y4911730D01*
D02*
G37*
G36*
X3465749D02*
X3432731D01*
X3400837Y4903184D01*
X3372243Y4886675D01*
X3348895Y4863327D01*
X3332386Y4834733D01*
X3323840Y4802839D01*
Y4769821D01*
X3332386Y4737928D01*
X3348895Y4709333D01*
X3372243Y4685985D01*
X3400837Y4669476D01*
X3432731Y4660930D01*
X3465749D01*
X3497642Y4669476D01*
X3526237Y4685985D01*
X3549585Y4709333D01*
X3566094Y4737928D01*
X3574640Y4769821D01*
Y4802839D01*
X3566094Y4834733D01*
X3549585Y4863327D01*
X3526237Y4886675D01*
X3497642Y4903184D01*
X3465749Y4911730D01*
D02*
G37*
G36*
X2467539D02*
X2434521D01*
X2402627Y4903184D01*
X2374033Y4886675D01*
X2350685Y4863327D01*
X2334176Y4834733D01*
X2325630Y4802839D01*
Y4769821D01*
X2334176Y4737928D01*
X2350685Y4709333D01*
X2374033Y4685985D01*
X2402627Y4669476D01*
X2434521Y4660930D01*
X2467539D01*
X2499432Y4669476D01*
X2528027Y4685985D01*
X2551375Y4709333D01*
X2567884Y4737928D01*
X2576430Y4769821D01*
Y4802839D01*
X2567884Y4834733D01*
X2551375Y4863327D01*
X2528027Y4886675D01*
X2499432Y4903184D01*
X2467539Y4911730D01*
D02*
G37*
G36*
X1573449D02*
X1540431D01*
X1508537Y4903184D01*
X1479943Y4886675D01*
X1456595Y4863327D01*
X1440086Y4834733D01*
X1431540Y4802839D01*
Y4769821D01*
X1440086Y4737928D01*
X1456595Y4709333D01*
X1479943Y4685985D01*
X1508537Y4669476D01*
X1540431Y4660930D01*
X1573449D01*
X1605342Y4669476D01*
X1633937Y4685985D01*
X1657285Y4709333D01*
X1673794Y4737928D01*
X1682340Y4769821D01*
Y4802839D01*
X1673794Y4834733D01*
X1657285Y4863327D01*
X1633937Y4886675D01*
X1605342Y4903184D01*
X1573449Y4911730D01*
D02*
G37*
G36*
X575239D02*
X542221D01*
X510327Y4903184D01*
X481733Y4886675D01*
X458385Y4863327D01*
X441876Y4834733D01*
X433330Y4802839D01*
Y4769821D01*
X441876Y4737928D01*
X458385Y4709333D01*
X481733Y4685985D01*
X510327Y4669476D01*
X542221Y4660930D01*
X575239D01*
X607132Y4669476D01*
X635727Y4685985D01*
X659075Y4709333D01*
X675584Y4737928D01*
X684130Y4769821D01*
Y4802839D01*
X675584Y4834733D01*
X659075Y4863327D01*
X635727Y4886675D01*
X607132Y4903184D01*
X575239Y4911730D01*
D02*
G37*
G36*
X6755994Y5002230D02*
X6713466D01*
X6671754Y4993933D01*
X6632463Y4977658D01*
X6597102Y4954030D01*
X6567030Y4923958D01*
X6543402Y4888597D01*
X6527127Y4849306D01*
X6518830Y4807594D01*
Y4765066D01*
X6527127Y4723354D01*
X6543402Y4684063D01*
X6567030Y4648702D01*
X6597102Y4618630D01*
X6632463Y4595002D01*
X6671754Y4578727D01*
X6713466Y4570430D01*
X6755994D01*
X6797706Y4578727D01*
X6836997Y4595002D01*
X6872358Y4618630D01*
X6902430Y4648702D01*
X6926058Y4684063D01*
X6942333Y4723354D01*
X6950630Y4765066D01*
Y4807594D01*
X6942333Y4849306D01*
X6926058Y4888597D01*
X6902430Y4923958D01*
X6872358Y4954030D01*
X6836997Y4977658D01*
X6797706Y4993933D01*
X6755994Y5002230D01*
D02*
G37*
G36*
X4863694D02*
X4821166D01*
X4779454Y4993933D01*
X4740163Y4977658D01*
X4704802Y4954030D01*
X4674730Y4923958D01*
X4651102Y4888597D01*
X4634827Y4849306D01*
X4626530Y4807594D01*
Y4765066D01*
X4634827Y4723354D01*
X4651102Y4684063D01*
X4674730Y4648702D01*
X4704802Y4618630D01*
X4740163Y4595002D01*
X4779454Y4578727D01*
X4821166Y4570430D01*
X4863694D01*
X4905406Y4578727D01*
X4944697Y4595002D01*
X4980058Y4618630D01*
X5010130Y4648702D01*
X5033758Y4684063D01*
X5050033Y4723354D01*
X5058330Y4765066D01*
Y4807594D01*
X5050033Y4849306D01*
X5033758Y4888597D01*
X5010130Y4923958D01*
X4980058Y4954030D01*
X4944697Y4977658D01*
X4905406Y4993933D01*
X4863694Y5002230D01*
D02*
G37*
G36*
X2971394D02*
X2928866D01*
X2887154Y4993933D01*
X2847863Y4977658D01*
X2812502Y4954030D01*
X2782430Y4923958D01*
X2758802Y4888597D01*
X2742527Y4849306D01*
X2734230Y4807594D01*
Y4765066D01*
X2742527Y4723354D01*
X2758802Y4684063D01*
X2782430Y4648702D01*
X2812502Y4618630D01*
X2847863Y4595002D01*
X2887154Y4578727D01*
X2928866Y4570430D01*
X2971394D01*
X3013106Y4578727D01*
X3052397Y4595002D01*
X3087758Y4618630D01*
X3117830Y4648702D01*
X3141458Y4684063D01*
X3157733Y4723354D01*
X3166030Y4765066D01*
Y4807594D01*
X3157733Y4849306D01*
X3141458Y4888597D01*
X3117830Y4923958D01*
X3087758Y4954030D01*
X3052397Y4977658D01*
X3013106Y4993933D01*
X2971394Y5002230D01*
D02*
G37*
G36*
X1079094D02*
X1036566D01*
X994854Y4993933D01*
X955563Y4977658D01*
X920202Y4954030D01*
X890130Y4923958D01*
X866502Y4888597D01*
X850227Y4849306D01*
X841930Y4807594D01*
Y4765066D01*
X850227Y4723354D01*
X866502Y4684063D01*
X890130Y4648702D01*
X920202Y4618630D01*
X955563Y4595002D01*
X994854Y4578727D01*
X1036566Y4570430D01*
X1079094D01*
X1120806Y4578727D01*
X1160097Y4595002D01*
X1195458Y4618630D01*
X1225530Y4648702D01*
X1249158Y4684063D01*
X1265433Y4723354D01*
X1273730Y4765066D01*
Y4807594D01*
X1265433Y4849306D01*
X1249158Y4888597D01*
X1225530Y4923958D01*
X1195458Y4954030D01*
X1160097Y4977658D01*
X1120806Y4993933D01*
X1079094Y5002230D01*
D02*
G37*
G36*
X7125222Y4656810D02*
X7088438D01*
X7052908Y4647290D01*
X7021052Y4628898D01*
X6995042Y4602888D01*
X6976651Y4571032D01*
X6967130Y4535502D01*
Y4498718D01*
X6976651Y4463188D01*
X6995042Y4431332D01*
X7021052Y4405322D01*
X7052908Y4386931D01*
X7088438Y4377410D01*
X7125222D01*
X7160752Y4386931D01*
X7192608Y4405322D01*
X7218618Y4431332D01*
X7237010Y4463188D01*
X7246530Y4498718D01*
Y4535502D01*
X7237010Y4571032D01*
X7218618Y4602888D01*
X7192608Y4628898D01*
X7160752Y4647290D01*
X7125222Y4656810D01*
D02*
G37*
G36*
X5232922D02*
X5196138D01*
X5160608Y4647290D01*
X5128752Y4628898D01*
X5102742Y4602888D01*
X5084351Y4571032D01*
X5074830Y4535502D01*
Y4498718D01*
X5084351Y4463188D01*
X5102742Y4431332D01*
X5128752Y4405322D01*
X5160608Y4386931D01*
X5196138Y4377410D01*
X5232922D01*
X5268452Y4386931D01*
X5300308Y4405322D01*
X5326318Y4431332D01*
X5344710Y4463188D01*
X5354230Y4498718D01*
Y4535502D01*
X5344710Y4571032D01*
X5326318Y4602888D01*
X5300308Y4628898D01*
X5268452Y4647290D01*
X5232922Y4656810D01*
D02*
G37*
G36*
X3340622D02*
X3303838D01*
X3268308Y4647290D01*
X3236452Y4628898D01*
X3210442Y4602888D01*
X3192051Y4571032D01*
X3182530Y4535502D01*
Y4498718D01*
X3192051Y4463188D01*
X3210442Y4431332D01*
X3236452Y4405322D01*
X3268308Y4386931D01*
X3303838Y4377410D01*
X3340622D01*
X3376152Y4386931D01*
X3408008Y4405322D01*
X3434018Y4431332D01*
X3452410Y4463188D01*
X3461930Y4498718D01*
Y4535502D01*
X3452410Y4571032D01*
X3434018Y4602888D01*
X3408008Y4628898D01*
X3376152Y4647290D01*
X3340622Y4656810D01*
D02*
G37*
G36*
X1448322D02*
X1411538D01*
X1376008Y4647290D01*
X1344152Y4628898D01*
X1318142Y4602888D01*
X1299751Y4571032D01*
X1290230Y4535502D01*
Y4498718D01*
X1299751Y4463188D01*
X1318142Y4431332D01*
X1344152Y4405322D01*
X1376008Y4386931D01*
X1411538Y4377410D01*
X1448322D01*
X1483852Y4386931D01*
X1515708Y4405322D01*
X1541718Y4431332D01*
X1560110Y4463188D01*
X1569630Y4498718D01*
Y4535502D01*
X1560110Y4571032D01*
X1541718Y4602888D01*
X1515708Y4628898D01*
X1483852Y4647290D01*
X1448322Y4656810D01*
D02*
G37*
G36*
X9343042Y4716480D02*
X9308018D01*
X9273668Y4709647D01*
X9241310Y4696244D01*
X9212189Y4676786D01*
X9187424Y4652021D01*
X9167966Y4622900D01*
X9154563Y4590542D01*
X9147730Y4556192D01*
Y4521168D01*
X9154563Y4486818D01*
X9167966Y4454460D01*
X9187424Y4425339D01*
X9212189Y4400574D01*
X9241310Y4381116D01*
X9273668Y4367713D01*
X9308018Y4360880D01*
X9343042D01*
X9377392Y4367713D01*
X9409750Y4381116D01*
X9438871Y4400574D01*
X9463636Y4425339D01*
X9483094Y4454460D01*
X9496497Y4486818D01*
X9503330Y4521168D01*
Y4556192D01*
X9496497Y4590542D01*
X9483094Y4622900D01*
X9463636Y4652021D01*
X9438871Y4676786D01*
X9409750Y4696244D01*
X9377392Y4709647D01*
X9343042Y4716480D01*
D02*
G37*
G36*
X4539860Y3607795D02*
X2996100D01*
X2976279Y3603853D01*
X2959475Y3592625D01*
X2857385Y3490535D01*
X2836878Y3496030D01*
X2806782D01*
X2786275Y3490535D01*
X2684185Y3592625D01*
X2667381Y3603853D01*
X2647560Y3607795D01*
X1103800D01*
X1083979Y3603853D01*
X1067175Y3592625D01*
X965085Y3490535D01*
X944578Y3496030D01*
X914482D01*
X885412Y3488241D01*
X859348Y3473193D01*
X838067Y3451912D01*
X823019Y3425848D01*
X815230Y3396778D01*
Y3366682D01*
X823019Y3337612D01*
X838067Y3311548D01*
X859348Y3290267D01*
X885412Y3275220D01*
X914482Y3267430D01*
X944578D01*
X973648Y3275220D01*
X999712Y3290267D01*
X1020993Y3311548D01*
X1036041Y3337612D01*
X1043830Y3366682D01*
Y3396778D01*
X1038335Y3417286D01*
X1125254Y3504205D01*
X1149921D01*
X1151594Y3491505D01*
X1139412Y3488241D01*
X1113348Y3473193D01*
X1092067Y3451912D01*
X1077019Y3425848D01*
X1069230Y3396778D01*
Y3366682D01*
X1077019Y3337612D01*
X1092067Y3311548D01*
X1113348Y3290267D01*
X1139412Y3275220D01*
X1168482Y3267430D01*
X1198578D01*
X1227648Y3275220D01*
X1253712Y3290267D01*
X1274993Y3311548D01*
X1290041Y3337612D01*
X1297830Y3366682D01*
Y3396778D01*
X1290041Y3425848D01*
X1274993Y3451912D01*
X1253712Y3473193D01*
X1227648Y3488241D01*
X1215466Y3491505D01*
X1217139Y3504205D01*
X1404016D01*
X1405688Y3491505D01*
X1393432Y3488221D01*
X1367368Y3473173D01*
X1346087Y3451892D01*
X1331040Y3425828D01*
X1323250Y3396758D01*
Y3366662D01*
X1331040Y3337592D01*
X1346087Y3311528D01*
X1367368Y3290247D01*
X1393432Y3275199D01*
X1422502Y3267410D01*
X1452598D01*
X1481668Y3275199D01*
X1507732Y3290247D01*
X1529013Y3311528D01*
X1544061Y3337592D01*
X1551850Y3366662D01*
Y3396758D01*
X1544061Y3425828D01*
X1529013Y3451892D01*
X1507732Y3473173D01*
X1481668Y3488221D01*
X1469412Y3491505D01*
X1471084Y3504205D01*
X2534221D01*
X2535894Y3491505D01*
X2523712Y3488241D01*
X2497648Y3473193D01*
X2476367Y3451912D01*
X2461319Y3425848D01*
X2453530Y3396778D01*
Y3366682D01*
X2461319Y3337612D01*
X2476367Y3311548D01*
X2497648Y3290267D01*
X2523712Y3275220D01*
X2552782Y3267430D01*
X2582878D01*
X2611948Y3275220D01*
X2638012Y3290267D01*
X2659293Y3311548D01*
X2674341Y3337612D01*
X2682130Y3366682D01*
Y3396778D01*
X2674341Y3425848D01*
X2659293Y3451912D01*
X2638012Y3473193D01*
X2611948Y3488241D01*
X2599766Y3491505D01*
X2601439Y3504205D01*
X2626106D01*
X2713025Y3417286D01*
X2707530Y3396778D01*
Y3366682D01*
X2715319Y3337612D01*
X2730367Y3311548D01*
X2751648Y3290267D01*
X2777712Y3275220D01*
X2806782Y3267430D01*
X2836878D01*
X2865948Y3275220D01*
X2892012Y3290267D01*
X2913293Y3311548D01*
X2928341Y3337612D01*
X2936130Y3366682D01*
Y3396778D01*
X2930635Y3417286D01*
X3017554Y3504205D01*
X3042221D01*
X3043894Y3491505D01*
X3031712Y3488241D01*
X3005648Y3473193D01*
X2984367Y3451912D01*
X2969319Y3425848D01*
X2961530Y3396778D01*
Y3366682D01*
X2969319Y3337612D01*
X2984367Y3311548D01*
X3005648Y3290267D01*
X3031712Y3275220D01*
X3060782Y3267430D01*
X3090878D01*
X3119948Y3275220D01*
X3146012Y3290267D01*
X3167293Y3311548D01*
X3182341Y3337612D01*
X3190130Y3366682D01*
Y3396778D01*
X3182341Y3425848D01*
X3167293Y3451912D01*
X3146012Y3473193D01*
X3119948Y3488241D01*
X3107766Y3491505D01*
X3109439Y3504205D01*
X3296316D01*
X3297988Y3491505D01*
X3285732Y3488221D01*
X3259668Y3473173D01*
X3238387Y3451892D01*
X3223340Y3425828D01*
X3215550Y3396758D01*
Y3366662D01*
X3223340Y3337592D01*
X3238387Y3311528D01*
X3259668Y3290247D01*
X3285732Y3275199D01*
X3314802Y3267410D01*
X3344898D01*
X3373968Y3275199D01*
X3400032Y3290247D01*
X3421313Y3311528D01*
X3436361Y3337592D01*
X3444150Y3366662D01*
Y3396758D01*
X3436361Y3425828D01*
X3421313Y3451892D01*
X3400032Y3473173D01*
X3373968Y3488221D01*
X3361712Y3491505D01*
X3363384Y3504205D01*
X4426521D01*
X4428194Y3491505D01*
X4416012Y3488241D01*
X4389948Y3473193D01*
X4368667Y3451912D01*
X4353619Y3425848D01*
X4345830Y3396778D01*
Y3366682D01*
X4353619Y3337612D01*
X4368667Y3311548D01*
X4389948Y3290267D01*
X4416012Y3275220D01*
X4445082Y3267430D01*
X4475178D01*
X4504248Y3275220D01*
X4530312Y3290267D01*
X4551593Y3311548D01*
X4566641Y3337612D01*
X4574430Y3366682D01*
Y3396778D01*
X4566641Y3425848D01*
X4551593Y3451912D01*
X4530312Y3473193D01*
X4504248Y3488241D01*
X4492066Y3491505D01*
X4493739Y3504205D01*
X4518406D01*
X4605325Y3417286D01*
X4599830Y3396778D01*
Y3366682D01*
X4607619Y3337612D01*
X4622667Y3311548D01*
X4643948Y3290267D01*
X4670012Y3275220D01*
X4699082Y3267430D01*
X4729178D01*
X4758248Y3275220D01*
X4784312Y3290267D01*
X4805593Y3311548D01*
X4820641Y3337612D01*
X4828430Y3366682D01*
Y3396778D01*
X4822935Y3417286D01*
X4892393Y3486743D01*
X4894941Y3486122D01*
X4897225Y3476302D01*
X4897243Y3472488D01*
X4876667Y3451912D01*
X4861619Y3425848D01*
X4853830Y3396778D01*
Y3366682D01*
X4861619Y3337612D01*
X4876667Y3311548D01*
X4897948Y3290267D01*
X4924012Y3275220D01*
X4953082Y3267430D01*
X4983178D01*
X5012248Y3275220D01*
X5038312Y3290267D01*
X5059593Y3311548D01*
X5074641Y3337612D01*
X5082430Y3366682D01*
Y3396778D01*
X5074641Y3425848D01*
X5059593Y3451912D01*
X5038312Y3473193D01*
X5028592Y3478805D01*
X5031995Y3491505D01*
X5158320D01*
X5161723Y3478805D01*
X5151968Y3473173D01*
X5130687Y3451892D01*
X5115640Y3425828D01*
X5107850Y3396758D01*
Y3366662D01*
X5115640Y3337592D01*
X5130687Y3311528D01*
X5151968Y3290247D01*
X5178032Y3275199D01*
X5207102Y3267410D01*
X5237198D01*
X5266268Y3275199D01*
X5292332Y3290247D01*
X5313613Y3311528D01*
X5328661Y3337592D01*
X5336450Y3366662D01*
Y3396758D01*
X5328661Y3425828D01*
X5313613Y3451892D01*
X5292332Y3473173D01*
X5282577Y3478805D01*
X5285980Y3491505D01*
X6288565D01*
X6291968Y3478805D01*
X6282248Y3473193D01*
X6260967Y3451912D01*
X6245919Y3425848D01*
X6238130Y3396778D01*
Y3366682D01*
X6245919Y3337612D01*
X6260967Y3311548D01*
X6282248Y3290267D01*
X6308312Y3275220D01*
X6337382Y3267430D01*
X6367478D01*
X6396548Y3275220D01*
X6422612Y3290267D01*
X6443893Y3311548D01*
X6458941Y3337612D01*
X6466730Y3366682D01*
Y3396778D01*
X6458941Y3425848D01*
X6443893Y3451912D01*
X6423317Y3472488D01*
X6423335Y3476302D01*
X6425619Y3486122D01*
X6428167Y3486743D01*
X6497625Y3417286D01*
X6492130Y3396778D01*
Y3366682D01*
X6499919Y3337612D01*
X6514967Y3311548D01*
X6536248Y3290267D01*
X6562312Y3275220D01*
X6591382Y3267430D01*
X6621478D01*
X6650548Y3275220D01*
X6676612Y3290267D01*
X6697893Y3311548D01*
X6712941Y3337612D01*
X6720730Y3366682D01*
Y3396778D01*
X6715235Y3417286D01*
X6767844Y3469894D01*
X6768799Y3469704D01*
X6772979Y3455924D01*
X6768967Y3451912D01*
X6753919Y3425848D01*
X6746130Y3396778D01*
Y3366682D01*
X6753919Y3337612D01*
X6768967Y3311548D01*
X6790248Y3290267D01*
X6816312Y3275220D01*
X6845382Y3267430D01*
X6875478D01*
X6904548Y3275220D01*
X6930612Y3290267D01*
X6951893Y3311548D01*
X6966941Y3337612D01*
X6974730Y3366682D01*
Y3396778D01*
X6966941Y3425848D01*
X6951893Y3451912D01*
X6937700Y3466105D01*
X6942960Y3478805D01*
X7031940D01*
X7037200Y3466105D01*
X7022987Y3451892D01*
X7007940Y3425828D01*
X7000150Y3396758D01*
Y3366662D01*
X7007940Y3337592D01*
X7022987Y3311528D01*
X7044268Y3290247D01*
X7070332Y3275199D01*
X7099402Y3267410D01*
X7129498D01*
X7158568Y3275199D01*
X7184632Y3290247D01*
X7205913Y3311528D01*
X7220961Y3337592D01*
X7228750Y3366662D01*
Y3396758D01*
X7220961Y3425828D01*
X7205913Y3451892D01*
X7191700Y3466105D01*
X7196960Y3478805D01*
X7748104D01*
X7761032Y3473450D01*
X7783768D01*
X7804773Y3482151D01*
X7820849Y3498227D01*
X7829550Y3519232D01*
Y3541968D01*
X7820849Y3562973D01*
X7804773Y3579049D01*
X7783768Y3587750D01*
X7761032D01*
X7748104Y3582395D01*
X6755300D01*
X6735479Y3578453D01*
X6718675Y3567225D01*
X6641985Y3490535D01*
X6621478Y3496030D01*
X6591382D01*
X6570875Y3490535D01*
X6481485Y3579925D01*
X6464681Y3591153D01*
X6444860Y3595095D01*
X4875700D01*
X4855879Y3591153D01*
X4839075Y3579925D01*
X4749685Y3490535D01*
X4729178Y3496030D01*
X4699082D01*
X4678575Y3490535D01*
X4576485Y3592625D01*
X4559681Y3603853D01*
X4539860Y3607795D01*
D02*
G37*
G36*
X690578Y3496030D02*
X660482D01*
X631412Y3488241D01*
X605348Y3473193D01*
X584067Y3451912D01*
X569019Y3425848D01*
X561230Y3396778D01*
Y3366682D01*
X569019Y3337612D01*
X584067Y3311548D01*
X605348Y3290267D01*
X631412Y3275220D01*
X660482Y3267430D01*
X690578D01*
X719648Y3275220D01*
X745712Y3290267D01*
X766993Y3311548D01*
X782041Y3337612D01*
X789830Y3366682D01*
Y3396778D01*
X782041Y3425848D01*
X766993Y3451912D01*
X745712Y3473193D01*
X719648Y3488241D01*
X690578Y3496030D01*
D02*
G37*
G36*
X9343042Y3319480D02*
X9308018D01*
X9273668Y3312647D01*
X9241310Y3299244D01*
X9212189Y3279786D01*
X9187424Y3255021D01*
X9167966Y3225900D01*
X9154563Y3193542D01*
X9147730Y3159192D01*
Y3124168D01*
X9154563Y3089818D01*
X9167966Y3057460D01*
X9187424Y3028339D01*
X9212189Y3003574D01*
X9241310Y2984116D01*
X9273668Y2970713D01*
X9308018Y2963880D01*
X9343042D01*
X9377392Y2970713D01*
X9409750Y2984116D01*
X9438871Y3003574D01*
X9463636Y3028339D01*
X9483094Y3057460D01*
X9496497Y3089818D01*
X9503330Y3124168D01*
Y3159192D01*
X9496497Y3193542D01*
X9483094Y3225900D01*
X9463636Y3255021D01*
X9438871Y3279786D01*
X9409750Y3299244D01*
X9377392Y3312647D01*
X9343042Y3319480D01*
D02*
G37*
G36*
X7823671Y3366480D02*
X7779389D01*
X7735958Y3357841D01*
X7695047Y3340895D01*
X7658229Y3316293D01*
X7626917Y3284981D01*
X7602315Y3248163D01*
X7585369Y3207252D01*
X7576730Y3163821D01*
Y3119539D01*
X7585369Y3076108D01*
X7602315Y3035197D01*
X7626917Y2998379D01*
X7658229Y2967067D01*
X7695047Y2942465D01*
X7735958Y2925519D01*
X7779389Y2916880D01*
X7823671D01*
X7867102Y2925519D01*
X7908013Y2942465D01*
X7944831Y2967067D01*
X7976143Y2998379D01*
X8000745Y3035197D01*
X8017691Y3076108D01*
X8026330Y3119539D01*
Y3163821D01*
X8017691Y3207252D01*
X8000745Y3248163D01*
X7976143Y3284981D01*
X7944831Y3316293D01*
X7908013Y3340895D01*
X7867102Y3357841D01*
X7823671Y3366480D01*
D02*
G37*
G36*
X7250349Y3019430D02*
X7217331D01*
X7185437Y3010884D01*
X7156843Y2994375D01*
X7133495Y2971027D01*
X7116986Y2942433D01*
X7108440Y2910539D01*
Y2877521D01*
X7116986Y2845628D01*
X7133495Y2817033D01*
X7156843Y2793685D01*
X7185437Y2777176D01*
X7217331Y2768630D01*
X7250349D01*
X7282242Y2777176D01*
X7310837Y2793685D01*
X7334185Y2817033D01*
X7350694Y2845628D01*
X7359240Y2877521D01*
Y2910539D01*
X7350694Y2942433D01*
X7334185Y2971027D01*
X7310837Y2994375D01*
X7282242Y3010884D01*
X7250349Y3019430D01*
D02*
G37*
G36*
X6252139D02*
X6219121D01*
X6187227Y3010884D01*
X6158633Y2994375D01*
X6135285Y2971027D01*
X6118776Y2942433D01*
X6110230Y2910539D01*
Y2877521D01*
X6118776Y2845628D01*
X6135285Y2817033D01*
X6158633Y2793685D01*
X6187227Y2777176D01*
X6219121Y2768630D01*
X6252139D01*
X6284032Y2777176D01*
X6312627Y2793685D01*
X6335975Y2817033D01*
X6352484Y2845628D01*
X6361030Y2877521D01*
Y2910539D01*
X6352484Y2942433D01*
X6335975Y2971027D01*
X6312627Y2994375D01*
X6284032Y3010884D01*
X6252139Y3019430D01*
D02*
G37*
G36*
X5358049D02*
X5325031D01*
X5293137Y3010884D01*
X5264543Y2994375D01*
X5241195Y2971027D01*
X5224686Y2942433D01*
X5216140Y2910539D01*
Y2877521D01*
X5224686Y2845628D01*
X5241195Y2817033D01*
X5264543Y2793685D01*
X5293137Y2777176D01*
X5325031Y2768630D01*
X5358049D01*
X5389942Y2777176D01*
X5418537Y2793685D01*
X5441885Y2817033D01*
X5458394Y2845628D01*
X5466940Y2877521D01*
Y2910539D01*
X5458394Y2942433D01*
X5441885Y2971027D01*
X5418537Y2994375D01*
X5389942Y3010884D01*
X5358049Y3019430D01*
D02*
G37*
G36*
X4359839D02*
X4326821D01*
X4294927Y3010884D01*
X4266333Y2994375D01*
X4242985Y2971027D01*
X4226476Y2942433D01*
X4217930Y2910539D01*
Y2877521D01*
X4226476Y2845628D01*
X4242985Y2817033D01*
X4266333Y2793685D01*
X4294927Y2777176D01*
X4326821Y2768630D01*
X4359839D01*
X4391732Y2777176D01*
X4420327Y2793685D01*
X4443675Y2817033D01*
X4460184Y2845628D01*
X4468730Y2877521D01*
Y2910539D01*
X4460184Y2942433D01*
X4443675Y2971027D01*
X4420327Y2994375D01*
X4391732Y3010884D01*
X4359839Y3019430D01*
D02*
G37*
G36*
X3465749D02*
X3432731D01*
X3400837Y3010884D01*
X3372243Y2994375D01*
X3348895Y2971027D01*
X3332386Y2942433D01*
X3323840Y2910539D01*
Y2877521D01*
X3332386Y2845628D01*
X3348895Y2817033D01*
X3372243Y2793685D01*
X3400837Y2777176D01*
X3432731Y2768630D01*
X3465749D01*
X3497642Y2777176D01*
X3526237Y2793685D01*
X3549585Y2817033D01*
X3566094Y2845628D01*
X3574640Y2877521D01*
Y2910539D01*
X3566094Y2942433D01*
X3549585Y2971027D01*
X3526237Y2994375D01*
X3497642Y3010884D01*
X3465749Y3019430D01*
D02*
G37*
G36*
X2467539D02*
X2434521D01*
X2402627Y3010884D01*
X2374033Y2994375D01*
X2350685Y2971027D01*
X2334176Y2942433D01*
X2325630Y2910539D01*
Y2877521D01*
X2334176Y2845628D01*
X2350685Y2817033D01*
X2374033Y2793685D01*
X2402627Y2777176D01*
X2434521Y2768630D01*
X2467539D01*
X2499432Y2777176D01*
X2528027Y2793685D01*
X2551375Y2817033D01*
X2567884Y2845628D01*
X2576430Y2877521D01*
Y2910539D01*
X2567884Y2942433D01*
X2551375Y2971027D01*
X2528027Y2994375D01*
X2499432Y3010884D01*
X2467539Y3019430D01*
D02*
G37*
G36*
X1573449D02*
X1540431D01*
X1508537Y3010884D01*
X1479943Y2994375D01*
X1456595Y2971027D01*
X1440086Y2942433D01*
X1431540Y2910539D01*
Y2877521D01*
X1440086Y2845628D01*
X1456595Y2817033D01*
X1479943Y2793685D01*
X1508537Y2777176D01*
X1540431Y2768630D01*
X1573449D01*
X1605342Y2777176D01*
X1633937Y2793685D01*
X1657285Y2817033D01*
X1673794Y2845628D01*
X1682340Y2877521D01*
Y2910539D01*
X1673794Y2942433D01*
X1657285Y2971027D01*
X1633937Y2994375D01*
X1605342Y3010884D01*
X1573449Y3019430D01*
D02*
G37*
G36*
X575239D02*
X542221D01*
X510327Y3010884D01*
X481733Y2994375D01*
X458385Y2971027D01*
X441876Y2942433D01*
X433330Y2910539D01*
Y2877521D01*
X441876Y2845628D01*
X458385Y2817033D01*
X481733Y2793685D01*
X510327Y2777176D01*
X542221Y2768630D01*
X575239D01*
X607132Y2777176D01*
X635727Y2793685D01*
X659075Y2817033D01*
X675584Y2845628D01*
X684130Y2877521D01*
Y2910539D01*
X675584Y2942433D01*
X659075Y2971027D01*
X635727Y2994375D01*
X607132Y3010884D01*
X575239Y3019430D01*
D02*
G37*
G36*
X6755994Y3109930D02*
X6713466D01*
X6671754Y3101633D01*
X6632463Y3085358D01*
X6597102Y3061730D01*
X6567030Y3031658D01*
X6543402Y2996297D01*
X6527127Y2957006D01*
X6518830Y2915294D01*
Y2872766D01*
X6527127Y2831054D01*
X6543402Y2791763D01*
X6567030Y2756402D01*
X6597102Y2726330D01*
X6632463Y2702702D01*
X6671754Y2686427D01*
X6713466Y2678130D01*
X6755994D01*
X6797706Y2686427D01*
X6836997Y2702702D01*
X6872358Y2726330D01*
X6902430Y2756402D01*
X6926058Y2791763D01*
X6942333Y2831054D01*
X6950630Y2872766D01*
Y2915294D01*
X6942333Y2957006D01*
X6926058Y2996297D01*
X6902430Y3031658D01*
X6872358Y3061730D01*
X6836997Y3085358D01*
X6797706Y3101633D01*
X6755994Y3109930D01*
D02*
G37*
G36*
X4863694D02*
X4821166D01*
X4779454Y3101633D01*
X4740163Y3085358D01*
X4704802Y3061730D01*
X4674730Y3031658D01*
X4651102Y2996297D01*
X4634827Y2957006D01*
X4626530Y2915294D01*
Y2872766D01*
X4634827Y2831054D01*
X4651102Y2791763D01*
X4674730Y2756402D01*
X4704802Y2726330D01*
X4740163Y2702702D01*
X4779454Y2686427D01*
X4821166Y2678130D01*
X4863694D01*
X4905406Y2686427D01*
X4944697Y2702702D01*
X4980058Y2726330D01*
X5010130Y2756402D01*
X5033758Y2791763D01*
X5050033Y2831054D01*
X5058330Y2872766D01*
Y2915294D01*
X5050033Y2957006D01*
X5033758Y2996297D01*
X5010130Y3031658D01*
X4980058Y3061730D01*
X4944697Y3085358D01*
X4905406Y3101633D01*
X4863694Y3109930D01*
D02*
G37*
G36*
X2971394D02*
X2928866D01*
X2887154Y3101633D01*
X2847863Y3085358D01*
X2812502Y3061730D01*
X2782430Y3031658D01*
X2758802Y2996297D01*
X2742527Y2957006D01*
X2734230Y2915294D01*
Y2872766D01*
X2742527Y2831054D01*
X2758802Y2791763D01*
X2782430Y2756402D01*
X2812502Y2726330D01*
X2847863Y2702702D01*
X2887154Y2686427D01*
X2928866Y2678130D01*
X2971394D01*
X3013106Y2686427D01*
X3052397Y2702702D01*
X3087758Y2726330D01*
X3117830Y2756402D01*
X3141458Y2791763D01*
X3157733Y2831054D01*
X3166030Y2872766D01*
Y2915294D01*
X3157733Y2957006D01*
X3141458Y2996297D01*
X3117830Y3031658D01*
X3087758Y3061730D01*
X3052397Y3085358D01*
X3013106Y3101633D01*
X2971394Y3109930D01*
D02*
G37*
G36*
X1079094D02*
X1036566D01*
X994854Y3101633D01*
X955563Y3085358D01*
X920202Y3061730D01*
X890130Y3031658D01*
X866502Y2996297D01*
X850227Y2957006D01*
X841930Y2915294D01*
Y2872766D01*
X850227Y2831054D01*
X866502Y2791763D01*
X890130Y2756402D01*
X920202Y2726330D01*
X955563Y2702702D01*
X994854Y2686427D01*
X1036566Y2678130D01*
X1079094D01*
X1120806Y2686427D01*
X1160097Y2702702D01*
X1195458Y2726330D01*
X1225530Y2756402D01*
X1249158Y2791763D01*
X1265433Y2831054D01*
X1273730Y2872766D01*
Y2915294D01*
X1265433Y2957006D01*
X1249158Y2996297D01*
X1225530Y3031658D01*
X1195458Y3061730D01*
X1160097Y3085358D01*
X1120806Y3101633D01*
X1079094Y3109930D01*
D02*
G37*
G36*
X7125222Y2764510D02*
X7088438D01*
X7052908Y2754990D01*
X7021052Y2736598D01*
X6995042Y2710588D01*
X6976651Y2678732D01*
X6967130Y2643202D01*
Y2606418D01*
X6976651Y2570888D01*
X6995042Y2539032D01*
X7021052Y2513022D01*
X7052908Y2494631D01*
X7088438Y2485110D01*
X7125222D01*
X7160752Y2494631D01*
X7192608Y2513022D01*
X7218618Y2539032D01*
X7237010Y2570888D01*
X7246530Y2606418D01*
Y2643202D01*
X7237010Y2678732D01*
X7218618Y2710588D01*
X7192608Y2736598D01*
X7160752Y2754990D01*
X7125222Y2764510D01*
D02*
G37*
G36*
X5232922D02*
X5196138D01*
X5160608Y2754990D01*
X5128752Y2736598D01*
X5102742Y2710588D01*
X5084351Y2678732D01*
X5074830Y2643202D01*
Y2606418D01*
X5084351Y2570888D01*
X5102742Y2539032D01*
X5128752Y2513022D01*
X5160608Y2494631D01*
X5196138Y2485110D01*
X5232922D01*
X5268452Y2494631D01*
X5300308Y2513022D01*
X5326318Y2539032D01*
X5344710Y2570888D01*
X5354230Y2606418D01*
Y2643202D01*
X5344710Y2678732D01*
X5326318Y2710588D01*
X5300308Y2736598D01*
X5268452Y2754990D01*
X5232922Y2764510D01*
D02*
G37*
G36*
X3340622D02*
X3303838D01*
X3268308Y2754990D01*
X3236452Y2736598D01*
X3210442Y2710588D01*
X3192051Y2678732D01*
X3182530Y2643202D01*
Y2606418D01*
X3192051Y2570888D01*
X3210442Y2539032D01*
X3236452Y2513022D01*
X3268308Y2494631D01*
X3303838Y2485110D01*
X3340622D01*
X3376152Y2494631D01*
X3408008Y2513022D01*
X3434018Y2539032D01*
X3452410Y2570888D01*
X3461930Y2606418D01*
Y2643202D01*
X3452410Y2678732D01*
X3434018Y2710588D01*
X3408008Y2736598D01*
X3376152Y2754990D01*
X3340622Y2764510D01*
D02*
G37*
G36*
X1448322D02*
X1411538D01*
X1376008Y2754990D01*
X1344152Y2736598D01*
X1318142Y2710588D01*
X1299751Y2678732D01*
X1290230Y2643202D01*
Y2606418D01*
X1299751Y2570888D01*
X1318142Y2539032D01*
X1344152Y2513022D01*
X1376008Y2494631D01*
X1411538Y2485110D01*
X1448322D01*
X1483852Y2494631D01*
X1515708Y2513022D01*
X1541718Y2539032D01*
X1560110Y2570888D01*
X1569630Y2606418D01*
Y2643202D01*
X1560110Y2678732D01*
X1541718Y2710588D01*
X1515708Y2736598D01*
X1483852Y2754990D01*
X1448322Y2764510D01*
D02*
G37*
G36*
X6508022Y2530810D02*
X6471238D01*
X6435708Y2521290D01*
X6403852Y2502898D01*
X6377842Y2476888D01*
X6359450Y2445032D01*
X6358880Y2442905D01*
X4728079D01*
X4727509Y2445032D01*
X4709118Y2476888D01*
X4683108Y2502898D01*
X4651252Y2521290D01*
X4615722Y2530810D01*
X4578938D01*
X4543408Y2521290D01*
X4511552Y2502898D01*
X4485542Y2476888D01*
X4467150Y2445032D01*
X4466580Y2442905D01*
X2835779D01*
X2835209Y2445032D01*
X2816818Y2476888D01*
X2790808Y2502898D01*
X2758952Y2521290D01*
X2723422Y2530810D01*
X2686638D01*
X2651108Y2521290D01*
X2619252Y2502898D01*
X2593242Y2476888D01*
X2574850Y2445032D01*
X2574280Y2442905D01*
X943479D01*
X942909Y2445032D01*
X924518Y2476888D01*
X898508Y2502898D01*
X866652Y2521290D01*
X831122Y2530810D01*
X794338D01*
X758808Y2521290D01*
X726952Y2502898D01*
X700942Y2476888D01*
X682550Y2445032D01*
X673030Y2409502D01*
Y2372718D01*
X682550Y2337188D01*
X700942Y2305332D01*
X726952Y2279322D01*
X758808Y2260930D01*
X794338Y2251410D01*
X831122D01*
X866652Y2260930D01*
X898508Y2279322D01*
X924518Y2305332D01*
X942909Y2337188D01*
X943479Y2339315D01*
X2574280D01*
X2574850Y2337188D01*
X2593242Y2305332D01*
X2619252Y2279322D01*
X2651108Y2260930D01*
X2686638Y2251410D01*
X2723422D01*
X2758952Y2260930D01*
X2790808Y2279322D01*
X2816818Y2305332D01*
X2835209Y2337188D01*
X2835779Y2339315D01*
X4466580D01*
X4467150Y2337188D01*
X4485542Y2305332D01*
X4511552Y2279322D01*
X4543408Y2260930D01*
X4578938Y2251410D01*
X4615722D01*
X4651252Y2260930D01*
X4683108Y2279322D01*
X4709118Y2305332D01*
X4727509Y2337188D01*
X4728079Y2339315D01*
X6358880D01*
X6359450Y2337188D01*
X6377842Y2305332D01*
X6403852Y2279322D01*
X6435708Y2260930D01*
X6471238Y2251410D01*
X6508022D01*
X6543552Y2260930D01*
X6575408Y2279322D01*
X6601418Y2305332D01*
X6619809Y2337188D01*
X6629330Y2372718D01*
Y2409502D01*
X6619809Y2445032D01*
X6601418Y2476888D01*
X6575408Y2502898D01*
X6543552Y2521290D01*
X6508022Y2530810D01*
D02*
G37*
G36*
X8767778Y2549880D02*
X8737682D01*
X8708612Y2542091D01*
X8682548Y2527043D01*
X8661267Y2505762D01*
X8646219Y2479698D01*
X8638430Y2450628D01*
Y2420532D01*
X8646219Y2391462D01*
X8661267Y2365398D01*
X8682548Y2344117D01*
X8708612Y2329070D01*
X8737682Y2321280D01*
X8767778D01*
X8796848Y2329070D01*
X8822912Y2344117D01*
X8844193Y2365398D01*
X8859241Y2391462D01*
X8867030Y2420532D01*
Y2450628D01*
X8859241Y2479698D01*
X8844193Y2505762D01*
X8822912Y2527043D01*
X8796848Y2542091D01*
X8767778Y2549880D01*
D02*
G37*
G36*
X8513778D02*
X8483682D01*
X8454612Y2542091D01*
X8428548Y2527043D01*
X8407267Y2505762D01*
X8392219Y2479698D01*
X8384430Y2450628D01*
Y2420532D01*
X8389925Y2400025D01*
X8281875Y2291975D01*
X8270647Y2275171D01*
X8266705Y2255350D01*
Y1837554D01*
X7801746Y1372595D01*
X7166121D01*
X7162718Y1385295D01*
X7184632Y1397947D01*
X7205913Y1419228D01*
X7220961Y1445292D01*
X7228750Y1474362D01*
Y1504458D01*
X7220961Y1533528D01*
X7205913Y1559592D01*
X7184632Y1580873D01*
X7158568Y1595921D01*
X7129498Y1603710D01*
X7099402D01*
X7070332Y1595921D01*
X7044268Y1580873D01*
X7022987Y1559592D01*
X7007940Y1533528D01*
X7000150Y1504458D01*
Y1474362D01*
X7007940Y1445292D01*
X7022987Y1419228D01*
X7044268Y1397947D01*
X7066182Y1385295D01*
X7062779Y1372595D01*
X6912066D01*
X6908663Y1385295D01*
X6930612Y1397967D01*
X6951893Y1419248D01*
X6966941Y1445312D01*
X6974730Y1474382D01*
Y1504478D01*
X6966941Y1533548D01*
X6951893Y1559612D01*
X6930612Y1580893D01*
X6904548Y1595941D01*
X6875478Y1603730D01*
X6845382D01*
X6816312Y1595941D01*
X6790248Y1580893D01*
X6768967Y1559612D01*
X6753919Y1533548D01*
X6746130Y1504478D01*
Y1474382D01*
X6753919Y1445312D01*
X6768967Y1419248D01*
X6790248Y1397967D01*
X6812197Y1385295D01*
X6808794Y1372595D01*
X6796514D01*
X6715235Y1453875D01*
X6720730Y1474382D01*
Y1504478D01*
X6712941Y1533548D01*
X6697893Y1559612D01*
X6676612Y1580893D01*
X6650548Y1595941D01*
X6621478Y1603730D01*
X6591382D01*
X6562312Y1595941D01*
X6536248Y1580893D01*
X6514967Y1559612D01*
X6499919Y1533548D01*
X6492130Y1504478D01*
Y1474382D01*
X6497625Y1453875D01*
X6403646Y1359895D01*
X3970764D01*
X3876785Y1453875D01*
X3882280Y1474382D01*
Y1504478D01*
X3874491Y1533548D01*
X3859443Y1559612D01*
X3838162Y1580893D01*
X3812098Y1595941D01*
X3783028Y1603730D01*
X3752932D01*
X3723862Y1595941D01*
X3697798Y1580893D01*
X3676517Y1559612D01*
X3661469Y1533548D01*
X3653680Y1504478D01*
Y1474382D01*
X3659175Y1453875D01*
X3565196Y1359895D01*
X1132314D01*
X1038335Y1453875D01*
X1043830Y1474382D01*
Y1504478D01*
X1036041Y1533548D01*
X1020993Y1559612D01*
X999712Y1580893D01*
X973648Y1595941D01*
X944578Y1603730D01*
X914482D01*
X885412Y1595941D01*
X859348Y1580893D01*
X838067Y1559612D01*
X823019Y1533548D01*
X815230Y1504478D01*
Y1474382D01*
X823019Y1445312D01*
X838067Y1419248D01*
X859348Y1397967D01*
X885412Y1382920D01*
X914482Y1375130D01*
X944578D01*
X965085Y1380625D01*
X1074235Y1271475D01*
X1091039Y1260247D01*
X1110860Y1256305D01*
X3586650D01*
X3606471Y1260247D01*
X3623275Y1271475D01*
X3732425Y1380625D01*
X3752932Y1375130D01*
X3783028D01*
X3803535Y1380625D01*
X3912685Y1271475D01*
X3929489Y1260247D01*
X3949310Y1256305D01*
X6425100D01*
X6444921Y1260247D01*
X6461725Y1271475D01*
X6570875Y1380625D01*
X6591382Y1375130D01*
X6621478D01*
X6641985Y1380625D01*
X6738435Y1284176D01*
X6738435Y1284175D01*
X6755239Y1272947D01*
X6775060Y1269005D01*
X6775061Y1269005D01*
X7823200D01*
X7843021Y1272947D01*
X7859825Y1284175D01*
X8355124Y1779475D01*
X8355125Y1779475D01*
X8366353Y1796279D01*
X8370295Y1816100D01*
Y2233896D01*
X8463175Y2326775D01*
X8483682Y2321280D01*
X8513778D01*
X8542848Y2329070D01*
X8568912Y2344117D01*
X8590193Y2365398D01*
X8605241Y2391462D01*
X8613030Y2420532D01*
Y2450628D01*
X8605241Y2479698D01*
X8590193Y2505762D01*
X8568912Y2527043D01*
X8542848Y2542091D01*
X8513778Y2549880D01*
D02*
G37*
G36*
X8259778D02*
X8229682D01*
X8200612Y2542091D01*
X8174548Y2527043D01*
X8153267Y2505762D01*
X8138219Y2479698D01*
X8130430Y2450628D01*
Y2420532D01*
X8138219Y2391462D01*
X8153267Y2365398D01*
X8174548Y2344117D01*
X8200612Y2329070D01*
X8229682Y2321280D01*
X8259778D01*
X8288848Y2329070D01*
X8314912Y2344117D01*
X8336193Y2365398D01*
X8351241Y2391462D01*
X8359030Y2420532D01*
Y2450628D01*
X8351241Y2479698D01*
X8336193Y2505762D01*
X8314912Y2527043D01*
X8288848Y2542091D01*
X8259778Y2549880D01*
D02*
G37*
G36*
X9021798Y2549860D02*
X8991702D01*
X8962632Y2542071D01*
X8936568Y2527023D01*
X8915287Y2505742D01*
X8900240Y2479678D01*
X8892450Y2450608D01*
Y2420512D01*
X8900240Y2391442D01*
X8915287Y2365378D01*
X8936568Y2344097D01*
X8962632Y2329049D01*
X8991702Y2321260D01*
X9021798D01*
X9050868Y2329049D01*
X9076932Y2344097D01*
X9098213Y2365378D01*
X9113261Y2391442D01*
X9121050Y2420512D01*
Y2450608D01*
X9113261Y2479678D01*
X9098213Y2505742D01*
X9076932Y2527023D01*
X9050868Y2542071D01*
X9021798Y2549860D01*
D02*
G37*
G36*
X9142649Y2073280D02*
X9109631D01*
X9077737Y2064734D01*
X9049143Y2048225D01*
X9025795Y2024877D01*
X9009286Y1996283D01*
X9000740Y1964389D01*
Y1931371D01*
X9009286Y1899478D01*
X9025795Y1870883D01*
X9049143Y1847535D01*
X9077737Y1831026D01*
X9109631Y1822480D01*
X9142649D01*
X9174542Y1831026D01*
X9203137Y1847535D01*
X9226485Y1870883D01*
X9242994Y1899478D01*
X9251540Y1931371D01*
Y1964389D01*
X9242994Y1996283D01*
X9226485Y2024877D01*
X9203137Y2048225D01*
X9174542Y2064734D01*
X9142649Y2073280D01*
D02*
G37*
G36*
X8144439D02*
X8111421D01*
X8079527Y2064734D01*
X8050933Y2048225D01*
X8027585Y2024877D01*
X8011076Y1996283D01*
X8002530Y1964389D01*
Y1931371D01*
X8011076Y1899478D01*
X8027585Y1870883D01*
X8050933Y1847535D01*
X8079527Y1831026D01*
X8111421Y1822480D01*
X8144439D01*
X8176332Y1831026D01*
X8204927Y1847535D01*
X8228275Y1870883D01*
X8244784Y1899478D01*
X8253330Y1931371D01*
Y1964389D01*
X8244784Y1996283D01*
X8228275Y2024877D01*
X8204927Y2048225D01*
X8176332Y2064734D01*
X8144439Y2073280D01*
D02*
G37*
G36*
X8648294Y2163780D02*
X8605766D01*
X8564054Y2155483D01*
X8524763Y2139208D01*
X8489402Y2115580D01*
X8459330Y2085508D01*
X8435702Y2050147D01*
X8419427Y2010856D01*
X8411130Y1969144D01*
Y1926616D01*
X8419427Y1884904D01*
X8435702Y1845613D01*
X8459330Y1810252D01*
X8489402Y1780180D01*
X8524763Y1756552D01*
X8564054Y1740277D01*
X8605766Y1731980D01*
X8648294D01*
X8690006Y1740277D01*
X8729297Y1756552D01*
X8764658Y1780180D01*
X8794730Y1810252D01*
X8818358Y1845613D01*
X8834633Y1884904D01*
X8842930Y1926616D01*
Y1969144D01*
X8834633Y2010856D01*
X8818358Y2050147D01*
X8794730Y2085508D01*
X8764658Y2115580D01*
X8729297Y2139208D01*
X8690006Y2155483D01*
X8648294Y2163780D01*
D02*
G37*
G36*
X5112221Y2052030D02*
X5067939D01*
X5024508Y2043391D01*
X4983597Y2026445D01*
X4946779Y2001843D01*
X4915467Y1970531D01*
X4890865Y1933713D01*
X4873919Y1892802D01*
X4865280Y1849371D01*
Y1805089D01*
X4873919Y1761658D01*
X4890865Y1720747D01*
X4915467Y1683929D01*
X4946779Y1652617D01*
X4983597Y1628015D01*
X5024508Y1611069D01*
X5067939Y1602430D01*
X5112221D01*
X5155652Y1611069D01*
X5196563Y1628015D01*
X5233381Y1652617D01*
X5264693Y1683929D01*
X5289295Y1720747D01*
X5306241Y1761658D01*
X5314880Y1805089D01*
Y1849371D01*
X5306241Y1892802D01*
X5289295Y1933713D01*
X5264693Y1970531D01*
X5233381Y2001843D01*
X5196563Y2026445D01*
X5155652Y2043391D01*
X5112221Y2052030D01*
D02*
G37*
G36*
X2724621D02*
X2680339D01*
X2636908Y2043391D01*
X2595997Y2026445D01*
X2559179Y2001843D01*
X2527867Y1970531D01*
X2503265Y1933713D01*
X2486319Y1892802D01*
X2477680Y1849371D01*
Y1805089D01*
X2486319Y1761658D01*
X2503265Y1720747D01*
X2527867Y1683929D01*
X2559179Y1652617D01*
X2595997Y1628015D01*
X2636908Y1611069D01*
X2680339Y1602430D01*
X2724621D01*
X2768052Y1611069D01*
X2808963Y1628015D01*
X2845781Y1652617D01*
X2877093Y1683929D01*
X2901695Y1720747D01*
X2918641Y1761658D01*
X2927280Y1805089D01*
Y1849371D01*
X2918641Y1892802D01*
X2901695Y1933713D01*
X2877093Y1970531D01*
X2845781Y2001843D01*
X2808963Y2026445D01*
X2768052Y2043391D01*
X2724621Y2052030D01*
D02*
G37*
G36*
X9017522Y1818360D02*
X8980738D01*
X8945208Y1808840D01*
X8913352Y1790448D01*
X8887342Y1764438D01*
X8868951Y1732582D01*
X8859430Y1697052D01*
Y1660268D01*
X8868951Y1624738D01*
X8887342Y1592882D01*
X8913352Y1566872D01*
X8945208Y1548481D01*
X8980738Y1538960D01*
X9017522D01*
X9053052Y1548481D01*
X9084908Y1566872D01*
X9110918Y1592882D01*
X9129310Y1624738D01*
X9138830Y1660268D01*
Y1697052D01*
X9129310Y1732582D01*
X9110918Y1764438D01*
X9084908Y1790448D01*
X9053052Y1808840D01*
X9017522Y1818360D01*
D02*
G37*
G36*
X6367478Y1603730D02*
X6337382D01*
X6308312Y1595941D01*
X6282248Y1580893D01*
X6260967Y1559612D01*
X6245919Y1533548D01*
X6238130Y1504478D01*
Y1474382D01*
X6245919Y1445312D01*
X6260967Y1419248D01*
X6282248Y1397967D01*
X6308312Y1382920D01*
X6337382Y1375130D01*
X6367478D01*
X6396548Y1382920D01*
X6422612Y1397967D01*
X6443893Y1419248D01*
X6458941Y1445312D01*
X6466730Y1474382D01*
Y1504478D01*
X6458941Y1533548D01*
X6443893Y1559612D01*
X6422612Y1580893D01*
X6396548Y1595941D01*
X6367478Y1603730D01*
D02*
G37*
G36*
X4037028D02*
X4006932D01*
X3977862Y1595941D01*
X3951798Y1580893D01*
X3930517Y1559612D01*
X3915469Y1533548D01*
X3907680Y1504478D01*
Y1474382D01*
X3915469Y1445312D01*
X3930517Y1419248D01*
X3951798Y1397967D01*
X3977862Y1382920D01*
X4006932Y1375130D01*
X4037028D01*
X4066098Y1382920D01*
X4092162Y1397967D01*
X4113443Y1419248D01*
X4128491Y1445312D01*
X4136280Y1474382D01*
Y1504478D01*
X4128491Y1533548D01*
X4113443Y1559612D01*
X4092162Y1580893D01*
X4066098Y1595941D01*
X4037028Y1603730D01*
D02*
G37*
G36*
X3529028D02*
X3498932D01*
X3469862Y1595941D01*
X3443798Y1580893D01*
X3422517Y1559612D01*
X3407469Y1533548D01*
X3399680Y1504478D01*
Y1474382D01*
X3407469Y1445312D01*
X3422517Y1419248D01*
X3443798Y1397967D01*
X3469862Y1382920D01*
X3498932Y1375130D01*
X3529028D01*
X3558098Y1382920D01*
X3584162Y1397967D01*
X3605443Y1419248D01*
X3620491Y1445312D01*
X3628280Y1474382D01*
Y1504478D01*
X3620491Y1533548D01*
X3605443Y1559612D01*
X3584162Y1580893D01*
X3558098Y1595941D01*
X3529028Y1603730D01*
D02*
G37*
G36*
X1198578D02*
X1168482D01*
X1139412Y1595941D01*
X1113348Y1580893D01*
X1092067Y1559612D01*
X1077019Y1533548D01*
X1069230Y1504478D01*
Y1474382D01*
X1077019Y1445312D01*
X1092067Y1419248D01*
X1113348Y1397967D01*
X1139412Y1382920D01*
X1168482Y1375130D01*
X1198578D01*
X1227648Y1382920D01*
X1253712Y1397967D01*
X1274993Y1419248D01*
X1290041Y1445312D01*
X1297830Y1474382D01*
Y1504478D01*
X1290041Y1533548D01*
X1274993Y1559612D01*
X1253712Y1580893D01*
X1227648Y1595941D01*
X1198578Y1603730D01*
D02*
G37*
G36*
X690578D02*
X660482D01*
X631412Y1595941D01*
X605348Y1580893D01*
X584067Y1559612D01*
X569019Y1533548D01*
X561230Y1504478D01*
Y1474382D01*
X569019Y1445312D01*
X584067Y1419248D01*
X605348Y1397967D01*
X631412Y1382920D01*
X660482Y1375130D01*
X690578D01*
X719648Y1382920D01*
X745712Y1397967D01*
X766993Y1419248D01*
X782041Y1445312D01*
X789830Y1474382D01*
Y1504478D01*
X782041Y1533548D01*
X766993Y1559612D01*
X745712Y1580893D01*
X719648Y1595941D01*
X690578Y1603730D01*
D02*
G37*
G36*
X4291048Y1603710D02*
X4260952D01*
X4231882Y1595921D01*
X4205818Y1580873D01*
X4184537Y1559592D01*
X4169490Y1533528D01*
X4161700Y1504458D01*
Y1474362D01*
X4169490Y1445292D01*
X4184537Y1419228D01*
X4205818Y1397947D01*
X4231882Y1382899D01*
X4260952Y1375110D01*
X4291048D01*
X4320118Y1382899D01*
X4346182Y1397947D01*
X4367463Y1419228D01*
X4382511Y1445292D01*
X4390300Y1474362D01*
Y1504458D01*
X4382511Y1533528D01*
X4367463Y1559592D01*
X4346182Y1580873D01*
X4320118Y1595921D01*
X4291048Y1603710D01*
D02*
G37*
G36*
X1452598D02*
X1422502D01*
X1393432Y1595921D01*
X1367368Y1580873D01*
X1346087Y1559592D01*
X1331040Y1533528D01*
X1323250Y1504458D01*
Y1474362D01*
X1331040Y1445292D01*
X1346087Y1419228D01*
X1367368Y1397947D01*
X1393432Y1382899D01*
X1422502Y1375110D01*
X1452598D01*
X1481668Y1382899D01*
X1507732Y1397947D01*
X1529013Y1419228D01*
X1544061Y1445292D01*
X1551850Y1474362D01*
Y1504458D01*
X1544061Y1533528D01*
X1529013Y1559592D01*
X1507732Y1580873D01*
X1481668Y1595921D01*
X1452598Y1603710D01*
D02*
G37*
G36*
X7250349Y1127130D02*
X7217331D01*
X7185437Y1118584D01*
X7156843Y1102075D01*
X7133495Y1078727D01*
X7116986Y1050133D01*
X7108440Y1018239D01*
Y985221D01*
X7116986Y953328D01*
X7133495Y924733D01*
X7156843Y901385D01*
X7185437Y884876D01*
X7217331Y876330D01*
X7250349D01*
X7282242Y884876D01*
X7310837Y901385D01*
X7334185Y924733D01*
X7350694Y953328D01*
X7359240Y985221D01*
Y1018239D01*
X7350694Y1050133D01*
X7334185Y1078727D01*
X7310837Y1102075D01*
X7282242Y1118584D01*
X7250349Y1127130D01*
D02*
G37*
G36*
X6252139D02*
X6219121D01*
X6187227Y1118584D01*
X6158633Y1102075D01*
X6135285Y1078727D01*
X6118776Y1050133D01*
X6110230Y1018239D01*
Y985221D01*
X6118776Y953328D01*
X6135285Y924733D01*
X6158633Y901385D01*
X6187227Y884876D01*
X6219121Y876330D01*
X6252139D01*
X6284032Y884876D01*
X6312627Y901385D01*
X6335975Y924733D01*
X6352484Y953328D01*
X6361030Y985221D01*
Y1018239D01*
X6352484Y1050133D01*
X6335975Y1078727D01*
X6312627Y1102075D01*
X6284032Y1118584D01*
X6252139Y1127130D01*
D02*
G37*
G36*
X4411899D02*
X4378881D01*
X4346987Y1118584D01*
X4318393Y1102075D01*
X4295045Y1078727D01*
X4278536Y1050133D01*
X4269990Y1018239D01*
Y985221D01*
X4278536Y953328D01*
X4295045Y924733D01*
X4318393Y901385D01*
X4346987Y884876D01*
X4378881Y876330D01*
X4411899D01*
X4443792Y884876D01*
X4472387Y901385D01*
X4495735Y924733D01*
X4512244Y953328D01*
X4520790Y985221D01*
Y1018239D01*
X4512244Y1050133D01*
X4495735Y1078727D01*
X4472387Y1102075D01*
X4443792Y1118584D01*
X4411899Y1127130D01*
D02*
G37*
G36*
X3413689D02*
X3380671D01*
X3348777Y1118584D01*
X3320183Y1102075D01*
X3296835Y1078727D01*
X3280326Y1050133D01*
X3271780Y1018239D01*
Y985221D01*
X3280326Y953328D01*
X3296835Y924733D01*
X3320183Y901385D01*
X3348777Y884876D01*
X3380671Y876330D01*
X3413689D01*
X3445582Y884876D01*
X3474177Y901385D01*
X3497525Y924733D01*
X3514034Y953328D01*
X3522580Y985221D01*
Y1018239D01*
X3514034Y1050133D01*
X3497525Y1078727D01*
X3474177Y1102075D01*
X3445582Y1118584D01*
X3413689Y1127130D01*
D02*
G37*
G36*
X1573449D02*
X1540431D01*
X1508537Y1118584D01*
X1479943Y1102075D01*
X1456595Y1078727D01*
X1440086Y1050133D01*
X1431540Y1018239D01*
Y985221D01*
X1440086Y953328D01*
X1456595Y924733D01*
X1479943Y901385D01*
X1508537Y884876D01*
X1540431Y876330D01*
X1573449D01*
X1605342Y884876D01*
X1633937Y901385D01*
X1657285Y924733D01*
X1673794Y953328D01*
X1682340Y985221D01*
Y1018239D01*
X1673794Y1050133D01*
X1657285Y1078727D01*
X1633937Y1102075D01*
X1605342Y1118584D01*
X1573449Y1127130D01*
D02*
G37*
G36*
X575239D02*
X542221D01*
X510327Y1118584D01*
X481733Y1102075D01*
X458385Y1078727D01*
X441876Y1050133D01*
X433330Y1018239D01*
Y985221D01*
X441876Y953328D01*
X458385Y924733D01*
X481733Y901385D01*
X510327Y884876D01*
X542221Y876330D01*
X575239D01*
X607132Y884876D01*
X635727Y901385D01*
X659075Y924733D01*
X675584Y953328D01*
X684130Y985221D01*
Y1018239D01*
X675584Y1050133D01*
X659075Y1078727D01*
X635727Y1102075D01*
X607132Y1118584D01*
X575239Y1127130D01*
D02*
G37*
G36*
X6755994Y1217630D02*
X6713466D01*
X6671754Y1209333D01*
X6632463Y1193058D01*
X6597102Y1169430D01*
X6567030Y1139358D01*
X6543402Y1103997D01*
X6527127Y1064706D01*
X6518830Y1022994D01*
Y980466D01*
X6527127Y938754D01*
X6543402Y899463D01*
X6567030Y864102D01*
X6597102Y834030D01*
X6632463Y810402D01*
X6671754Y794127D01*
X6713466Y785830D01*
X6755994D01*
X6797706Y794127D01*
X6836997Y810402D01*
X6872358Y834030D01*
X6902430Y864102D01*
X6926058Y899463D01*
X6942333Y938754D01*
X6950630Y980466D01*
Y1022994D01*
X6942333Y1064706D01*
X6926058Y1103997D01*
X6902430Y1139358D01*
X6872358Y1169430D01*
X6836997Y1193058D01*
X6797706Y1209333D01*
X6755994Y1217630D01*
D02*
G37*
G36*
X3917544D02*
X3875016D01*
X3833304Y1209333D01*
X3794013Y1193058D01*
X3758652Y1169430D01*
X3728580Y1139358D01*
X3704952Y1103997D01*
X3688677Y1064706D01*
X3680380Y1022994D01*
Y980466D01*
X3688677Y938754D01*
X3704952Y899463D01*
X3728580Y864102D01*
X3758652Y834030D01*
X3794013Y810402D01*
X3833304Y794127D01*
X3875016Y785830D01*
X3917544D01*
X3959256Y794127D01*
X3998547Y810402D01*
X4033908Y834030D01*
X4063980Y864102D01*
X4087608Y899463D01*
X4103883Y938754D01*
X4112180Y980466D01*
Y1022994D01*
X4103883Y1064706D01*
X4087608Y1103997D01*
X4063980Y1139358D01*
X4033908Y1169430D01*
X3998547Y1193058D01*
X3959256Y1209333D01*
X3917544Y1217630D01*
D02*
G37*
G36*
X1079094D02*
X1036566D01*
X994854Y1209333D01*
X955563Y1193058D01*
X920202Y1169430D01*
X890130Y1139358D01*
X866502Y1103997D01*
X850227Y1064706D01*
X841930Y1022994D01*
Y980466D01*
X850227Y938754D01*
X866502Y899463D01*
X890130Y864102D01*
X920202Y834030D01*
X955563Y810402D01*
X994854Y794127D01*
X1036566Y785830D01*
X1079094D01*
X1120806Y794127D01*
X1160097Y810402D01*
X1195458Y834030D01*
X1225530Y864102D01*
X1249158Y899463D01*
X1265433Y938754D01*
X1273730Y980466D01*
Y1022994D01*
X1265433Y1064706D01*
X1249158Y1103997D01*
X1225530Y1139358D01*
X1195458Y1169430D01*
X1160097Y1193058D01*
X1120806Y1209333D01*
X1079094Y1217630D01*
D02*
G37*
G36*
X7125222Y872210D02*
X7088438D01*
X7052908Y862690D01*
X7021052Y844298D01*
X6995042Y818288D01*
X6976651Y786432D01*
X6967130Y750902D01*
Y714118D01*
X6976651Y678588D01*
X6995042Y646732D01*
X7021052Y620722D01*
X7052908Y602331D01*
X7088438Y592810D01*
X7125222D01*
X7160752Y602331D01*
X7192608Y620722D01*
X7218618Y646732D01*
X7237010Y678588D01*
X7246530Y714118D01*
Y750902D01*
X7237010Y786432D01*
X7218618Y818288D01*
X7192608Y844298D01*
X7160752Y862690D01*
X7125222Y872210D01*
D02*
G37*
G36*
X1448322D02*
X1411538D01*
X1376008Y862690D01*
X1344152Y844298D01*
X1318142Y818288D01*
X1299751Y786432D01*
X1290230Y750902D01*
Y714118D01*
X1299751Y678588D01*
X1318142Y646732D01*
X1344152Y620722D01*
X1376008Y602331D01*
X1411538Y592810D01*
X1448322D01*
X1483852Y602331D01*
X1515708Y620722D01*
X1541718Y646732D01*
X1560110Y678588D01*
X1569630Y714118D01*
Y750902D01*
X1560110Y786432D01*
X1541718Y818288D01*
X1515708Y844298D01*
X1483852Y862690D01*
X1448322Y872210D01*
D02*
G37*
G36*
X9343042Y931880D02*
X9308018D01*
X9273668Y925047D01*
X9241310Y911644D01*
X9212189Y892186D01*
X9187424Y867421D01*
X9167966Y838300D01*
X9154563Y805942D01*
X9147730Y771592D01*
Y736568D01*
X9154563Y702218D01*
X9167966Y669860D01*
X9187424Y640739D01*
X9212189Y615974D01*
X9241310Y596516D01*
X9273668Y583113D01*
X9308018Y576280D01*
X9343042D01*
X9377392Y583113D01*
X9409750Y596516D01*
X9438871Y615974D01*
X9463636Y640739D01*
X9483094Y669860D01*
X9496497Y702218D01*
X9503330Y736568D01*
Y771592D01*
X9496497Y805942D01*
X9483094Y838300D01*
X9463636Y867421D01*
X9438871Y892186D01*
X9409750Y911644D01*
X9377392Y925047D01*
X9343042Y931880D01*
D02*
G37*
G36*
X8400322Y1584660D02*
X8363538D01*
X8328008Y1575140D01*
X8296152Y1556748D01*
X8270142Y1530738D01*
X8251750Y1498882D01*
X8242230Y1463352D01*
Y1426568D01*
X8251750Y1391038D01*
X8270142Y1359182D01*
X8296152Y1333172D01*
X8328008Y1314780D01*
X8330135Y1314210D01*
Y938367D01*
X7913463Y521695D01*
X7850637D01*
X7849386Y534395D01*
X7867102Y537919D01*
X7908013Y554865D01*
X7944831Y579467D01*
X7976143Y610779D01*
X8000745Y647597D01*
X8017691Y688508D01*
X8026330Y731939D01*
Y776221D01*
X8017691Y819652D01*
X8000745Y860563D01*
X7976143Y897381D01*
X7944831Y928693D01*
X7908013Y953295D01*
X7867102Y970241D01*
X7823671Y978880D01*
X7779389D01*
X7735958Y970241D01*
X7695047Y953295D01*
X7658229Y928693D01*
X7626917Y897381D01*
X7602315Y860563D01*
X7585369Y819652D01*
X7576730Y776221D01*
Y731939D01*
X7585369Y688508D01*
X7602315Y647597D01*
X7626917Y610779D01*
X7658229Y579467D01*
X7695047Y554865D01*
X7735958Y537919D01*
X7753674Y534395D01*
X7752423Y521695D01*
X6628126D01*
X6619809Y552732D01*
X6601418Y584588D01*
X6575408Y610598D01*
X6543552Y628990D01*
X6508022Y638510D01*
X6471238D01*
X6435708Y628990D01*
X6403852Y610598D01*
X6377880Y584625D01*
X6373836D01*
X6370972Y585195D01*
X4307422D01*
X4305750Y597895D01*
X4322302Y602331D01*
X4354158Y620722D01*
X4380168Y646732D01*
X4398560Y678588D01*
X4408080Y714118D01*
Y750902D01*
X4398560Y786432D01*
X4380168Y818288D01*
X4354158Y844298D01*
X4322302Y862690D01*
X4286772Y872210D01*
X4249988D01*
X4214458Y862690D01*
X4182602Y844298D01*
X4156592Y818288D01*
X4138201Y786432D01*
X4128680Y750902D01*
Y714118D01*
X4138201Y678588D01*
X4156592Y646732D01*
X4182602Y620722D01*
X4214458Y602331D01*
X4231011Y597895D01*
X4229339Y585195D01*
X3769838D01*
X3766974Y584625D01*
X3762930D01*
X3736958Y610598D01*
X3705102Y628990D01*
X3669572Y638510D01*
X3632788D01*
X3597258Y628990D01*
X3565402Y610598D01*
X3557453Y602649D01*
X3549427Y604245D01*
X1617338D01*
X1597517Y600303D01*
X1580713Y589075D01*
X1542244Y550605D01*
X943479D01*
X942909Y552732D01*
X924518Y584588D01*
X898508Y610598D01*
X866652Y628990D01*
X831122Y638510D01*
X794338D01*
X758808Y628990D01*
X726952Y610598D01*
X700942Y584588D01*
X682550Y552732D01*
X673030Y517202D01*
Y480418D01*
X682550Y444888D01*
X700942Y413032D01*
X726952Y387022D01*
X758808Y368630D01*
X794338Y359110D01*
X831122D01*
X866652Y368630D01*
X898508Y387022D01*
X924518Y413032D01*
X942909Y444888D01*
X943479Y447015D01*
X1563698D01*
X1583519Y450957D01*
X1600323Y462185D01*
X1638792Y500655D01*
X3511480D01*
Y480418D01*
X3521000Y444888D01*
X3539392Y413032D01*
X3565402Y387022D01*
X3597258Y368630D01*
X3632788Y359110D01*
X3669572D01*
X3705102Y368630D01*
X3736958Y387022D01*
X3762968Y413032D01*
X3781359Y444888D01*
X3790880Y480418D01*
Y481605D01*
X5022915D01*
X5025441Y468905D01*
X5005860Y460794D01*
X4976739Y441336D01*
X4951974Y416571D01*
X4932516Y387450D01*
X4919113Y355092D01*
X4912280Y320742D01*
Y285718D01*
X4919113Y251368D01*
X4932516Y219010D01*
X4951974Y189889D01*
X4976739Y165124D01*
X5005860Y145666D01*
X5038218Y132263D01*
X5072568Y125430D01*
X5107592D01*
X5141942Y132263D01*
X5174300Y145666D01*
X5203421Y165124D01*
X5228186Y189889D01*
X5247644Y219010D01*
X5261047Y251368D01*
X5267880Y285718D01*
Y320742D01*
X5261047Y355092D01*
X5247644Y387450D01*
X5228186Y416571D01*
X5203421Y441336D01*
X5174300Y460794D01*
X5154719Y468905D01*
X5157245Y481605D01*
X6349930D01*
Y480418D01*
X6359450Y444888D01*
X6377842Y413032D01*
X6403852Y387022D01*
X6435708Y368630D01*
X6471238Y359110D01*
X6508022D01*
X6543552Y368630D01*
X6575408Y387022D01*
X6601418Y413032D01*
X6604346Y418105D01*
X7934917D01*
X7954738Y422047D01*
X7971542Y433275D01*
X8418554Y880288D01*
X8418555Y880288D01*
X8429782Y897092D01*
X8433725Y916913D01*
X8433725Y916914D01*
Y1314210D01*
X8435852Y1314780D01*
X8467708Y1333172D01*
X8493718Y1359182D01*
X8512109Y1391038D01*
X8521630Y1426568D01*
Y1463352D01*
X8512109Y1498882D01*
X8493718Y1530738D01*
X8467708Y1556748D01*
X8435852Y1575140D01*
X8400322Y1584660D01*
D02*
G37*
G36*
X2719992Y481030D02*
X2684968D01*
X2650618Y474197D01*
X2618260Y460794D01*
X2589139Y441336D01*
X2564374Y416571D01*
X2544916Y387450D01*
X2531513Y355092D01*
X2524680Y320742D01*
Y285718D01*
X2531513Y251368D01*
X2544916Y219010D01*
X2564374Y189889D01*
X2589139Y165124D01*
X2618260Y145666D01*
X2650618Y132263D01*
X2684968Y125430D01*
X2719992D01*
X2754342Y132263D01*
X2786700Y145666D01*
X2815821Y165124D01*
X2840586Y189889D01*
X2860044Y219010D01*
X2873447Y251368D01*
X2880280Y285718D01*
Y320742D01*
X2873447Y355092D01*
X2860044Y387450D01*
X2840586Y416571D01*
X2815821Y441336D01*
X2786700Y460794D01*
X2754342Y474197D01*
X2719992Y481030D01*
D02*
G37*
%LPD*%
D10*
X965200Y12014200D02*
X1460500Y11518900D01*
X469900Y15608299D02*
X965200Y15113000D01*
Y12014200D02*
Y15113000D01*
X6931380Y11696700D02*
X7315200Y11312880D01*
X7326933D02*
X7410451D01*
X7315200Y11301147D02*
X7326933Y11312880D01*
X7423151Y11300180D02*
X8286034D01*
X7410451Y11312880D02*
X7423151Y11300180D01*
X6981657Y11173180D02*
X8356600D01*
X7124868Y11290300D02*
X7178488Y11236680D01*
X8312337D02*
X8325037Y11249380D01*
X7178488Y11236680D02*
X8312337D01*
X6851837Y11303000D02*
X6981657Y11173180D01*
X5219699Y11696700D02*
X6931380D01*
X6451600Y11303000D02*
X6851837D01*
X8286034Y11300180D02*
X8298734Y11312880D01*
X6972300Y11290300D02*
X7124868D01*
X4559300Y11506200D02*
X4762500Y11303000D01*
X6451600D01*
X3874402Y11315700D02*
X4064902Y11506200D01*
X2794000Y11315700D02*
X3874402D01*
X2730500Y11379200D02*
X2794000Y11315700D01*
X4064902Y11506200D02*
X4559300D01*
X2730500Y11379200D02*
X2806700Y11455400D01*
X749300Y11518900D02*
X889000Y11379200D01*
X2730500D01*
X5289718Y11430000D02*
X5524500D01*
X5651500Y11557000D02*
X6705600D01*
X5524500Y11430000D02*
X5651500Y11557000D01*
X8791220Y11249380D02*
X8877300Y11163300D01*
X8298734Y11312880D02*
X9152647D01*
X9175227Y11290300D01*
X8325037Y11249380D02*
X8791220D01*
X9175227Y11290300D02*
X9182100D01*
X6705600Y11557000D02*
X6972300Y11290300D01*
X5054600Y11506200D02*
X5213518D01*
X5289718Y11430000D01*
X4102100Y11633200D02*
X4927600D01*
X5054600Y11506200D01*
X3848100Y11379200D02*
X4102100Y11633200D01*
X3225800Y11379200D02*
X3848100D01*
X3149600Y11455400D02*
X3225800Y11379200D01*
X2997200Y11607800D02*
X3149600Y11455400D01*
X1714500Y11607800D02*
X2997200D01*
X1549400Y11442700D02*
X1714500Y11607800D01*
X1104900Y11518900D02*
X1181100Y11442700D01*
X1549400D01*
X5219699Y11696700D02*
X5410199Y11506200D01*
X3263900Y11696700D02*
X5219699D01*
X5410199Y11506200D02*
X5410200D01*
X3263900Y11696700D02*
X3505200Y11455400D01*
X1638300Y11696700D02*
X3263900D01*
X1460500Y11518900D02*
X1638300Y11696700D01*
X469900Y15608299D02*
Y15887700D01*
X8786761Y12076061D02*
Y13423512D01*
X7212578Y11919750D02*
X8630450D01*
X8786761Y12076061D01*
X7124700Y12007627D02*
X7212578Y11919750D01*
X6870700Y12007627D02*
Y12014200D01*
X7124700Y12007627D02*
Y12014200D01*
D11*
X812730Y498810D02*
X1563698D01*
X1617338Y552450D01*
X3549427D01*
X3603067Y498810D02*
X3651180D01*
X3549427Y552450D02*
X3603067Y498810D01*
X1155700Y16128999D02*
X1219200Y16065500D01*
Y14516100D02*
Y16065500D01*
X7258878Y11090630D02*
X7265228Y11084280D01*
X7777969D01*
X6746130Y11090630D02*
X7258878D01*
X1219200Y12865100D02*
Y14516100D01*
Y12026900D02*
Y12865100D01*
X1145430Y12854829D02*
X1208930D01*
X1219200Y12865100D01*
X1143000Y12852400D02*
X1145430Y12854829D01*
X1132730Y14505830D02*
X1208930D01*
X1219200Y14516100D01*
X1130300Y14503400D02*
X1132730Y14505830D01*
X1219200Y12026900D02*
X1332700Y11913400D01*
X3889853D02*
X3948900Y11972447D01*
X1332700Y11913400D02*
X3889853D01*
X3975100Y12000887D02*
Y12014200D01*
X3948900Y11974687D02*
X3975100Y12000887D01*
X3948900Y11972447D02*
Y11974687D01*
X698500Y11925300D02*
X1104900Y11518900D01*
X698500Y11925300D02*
Y13716000D01*
X495300Y13919200D02*
X698500Y13716000D01*
X495300Y13919200D02*
Y14274800D01*
X8707920Y11794020D02*
X8926830Y12012930D01*
Y13486403D01*
X8934450Y13494023D02*
Y13696950D01*
X8826500Y13804900D02*
X8934450Y13696950D01*
X8926830Y13486403D02*
X8934450Y13494023D01*
X6186327Y11794020D02*
X8707920D01*
X6007900Y11972447D02*
X6186327Y11794020D01*
X5981700Y12000887D02*
X6007900Y11974687D01*
X5981700Y12000887D02*
Y12014200D01*
X6007900Y11972447D02*
Y11974687D01*
X2875495Y10975230D02*
X2902565D01*
X6552765D02*
X6591748Y10936248D01*
X2821830Y10921565D02*
X2875495Y10975230D01*
X7785100Y11090630D02*
X7819670D01*
X7823200Y11087100D02*
X7826730Y11090630D01*
X8359030D02*
X8498730Y10950930D01*
X7826730Y11090630D02*
X8359030D01*
X6606430Y10950930D02*
X6746130Y11090630D01*
X7819670D02*
X7823200Y11087100D01*
X7886700Y9194800D02*
X8122818D01*
X7730863D02*
X7886700D01*
X8122818D02*
X8126348Y9198330D01*
X8359030D01*
X7727333D02*
X7730863Y9194800D01*
X8359030Y9198330D02*
X8498730Y9058630D01*
X6746130Y9198330D02*
X7727333D01*
X7797800Y5975350D02*
Y6362700D01*
Y5588000D02*
Y5975350D01*
X7645400Y5435600D02*
X7797800Y5588000D01*
X6768000Y5435600D02*
X7645400D01*
X6606430Y5274030D02*
X6768000Y5435600D01*
X7797800Y6362700D02*
X7874000Y6438900D01*
X7553063Y7302500D02*
X7823200D01*
X7549533Y7306030D02*
X7553063Y7302500D01*
X6746130Y7306030D02*
X7549533D01*
X8318500Y2255350D02*
X8498730Y2435580D01*
X8318500Y1816100D02*
Y2255350D01*
X7823200Y1320800D02*
X8318500Y1816100D01*
X6775060Y1320800D02*
X7823200D01*
X6606430Y1489430D02*
X6775060Y1320800D01*
X6425100Y1308100D02*
X6606430Y1489430D01*
X3767980D02*
X3949310Y1308100D01*
X6425100D01*
X3586650D02*
X3767980Y1489430D01*
X1110860Y1308100D02*
X3586650D01*
X929530Y1489430D02*
X1110860Y1308100D01*
X6755300Y3530600D02*
X7772400D01*
X6606430Y3381730D02*
X6755300Y3530600D01*
X6444860Y3543300D02*
X6606430Y3381730D01*
X4875700Y3543300D02*
X6444860D01*
X4714130Y3381730D02*
X4875700Y3543300D01*
X4539860Y3556000D02*
X4714130Y3381730D01*
X2821830D02*
X2996100Y3556000D01*
X4539860D01*
X2647560D02*
X2821830Y3381730D01*
X1103800Y3556000D02*
X2647560D01*
X929530Y3381730D02*
X1103800Y3556000D01*
X3651180Y498810D02*
X3685200Y532830D01*
X3769268D01*
X3769838Y533400D01*
X6370972D01*
X6371541Y532830D02*
X6455610D01*
X6518540Y469900D01*
X6370972Y533400D02*
X6371541Y532830D01*
X6518540Y469900D02*
X7934917D01*
X8381930Y916913D01*
X812730Y2391110D02*
X2705030D01*
X6489630D01*
Y4283410D02*
X7170347D01*
X8116497Y5229560D02*
X8381930D01*
X4597330Y4283410D02*
X6489630D01*
X7170347D02*
X8116497Y5229560D01*
X2705030Y4283410D02*
X4597330D01*
X812730D02*
X2705030D01*
X8415742Y6438900D02*
X8498730Y6355912D01*
Y6220180D02*
Y6355912D01*
X7874000Y6438900D02*
X8415742D01*
X4875700Y5435600D02*
X6444860D01*
X6606430Y5274030D01*
X4714130D02*
X4875700Y5435600D01*
X4552560D02*
X4714130Y5274030D01*
X2983400Y5435600D02*
X4552560D01*
X2821830Y5274030D02*
X2983400Y5435600D01*
X1091100D02*
X2660260D01*
X2821830Y5274030D01*
X929530D02*
X1091100Y5435600D01*
X6606430Y7166330D02*
X6746130Y7306030D01*
X6444860Y7327900D02*
X6606430Y7166330D01*
X4875700Y7327900D02*
X6444860D01*
X4714130Y7166330D02*
X4875700Y7327900D01*
X4584700D02*
X4714130Y7198470D01*
Y7166330D02*
Y7198470D01*
X2983400Y7327900D02*
X4584700D01*
X2821830Y7166330D02*
X2983400Y7327900D01*
X1091100D02*
X2660260D01*
X2821830Y7166330D01*
X929530D02*
X1091100Y7327900D01*
X6606430Y9058630D02*
X6746130Y9198330D01*
X6477000Y9207500D02*
X6606430Y9078070D01*
Y9058630D02*
Y9078070D01*
X4863000Y9207500D02*
X6477000D01*
X4714130Y9058630D02*
X4863000Y9207500D01*
X4714130Y9058630D02*
Y9090770D01*
X4584700Y9220200D02*
X4714130Y9090770D01*
X2821830Y9058630D02*
X2983400Y9220200D01*
X4584700D01*
X2654300Y9232900D02*
X2821830Y9065370D01*
Y9058630D02*
Y9065370D01*
X929530Y9058630D02*
X1103800Y9232900D01*
X2654300D01*
X8381930Y916913D02*
Y1381229D01*
X3643560Y442699D02*
X3651180Y435079D01*
X812730D02*
X820350Y442699D01*
X812730Y6111979D02*
X6489630D01*
X812730Y8004279D02*
X8381930D01*
X812730Y9896579D02*
X8381930D01*
X675530Y5210299D02*
Y5244665D01*
Y7102599D02*
Y7136965D01*
Y8994899D02*
Y9029265D01*
X6525695Y10975230D02*
X6552765D01*
X6410296Y11090630D02*
X6525695Y10975230D01*
X4910264Y11090630D02*
X6410296D01*
X4794865Y10975230D02*
X4910264Y11090630D01*
X4772796Y10975230D02*
X4794865D01*
X4731313Y10904382D02*
Y10933747D01*
X4772796Y10975230D01*
X4476129Y11125200D02*
X4510699Y11090630D01*
X4660465Y10975230D02*
X4731313Y10904382D01*
X4510699Y11090630D02*
X4517996D01*
X4633395Y10975230D01*
X3963880Y10980420D02*
X4108660Y11125200D01*
X4476129D01*
X4633395Y10975230D02*
X4660465D01*
X3497906Y10980420D02*
X3963880D01*
X3017965Y11090630D02*
X3387696D01*
X2902565Y10975230D02*
X3017965Y11090630D01*
X3387696D02*
X3497906Y10980420D01*
X2625696Y11090630D02*
X2629226Y11087100D01*
X2656295D01*
X1043830Y11001499D02*
Y11008796D01*
X929530Y10887199D02*
X1043830Y11001499D01*
Y11008796D02*
X1125664Y11090630D01*
X2625696D01*
X2656295Y11087100D02*
X2821830Y10921565D01*
D12*
X8793074Y11448770D02*
X9217660Y11873356D01*
X7791418Y11440042D02*
X7822587D01*
X7831315Y11448770D02*
X8793074D01*
X8258060Y11376380D02*
X8267940Y11366500D01*
X7785100Y11433724D02*
X7791418Y11440042D01*
X7822587D02*
X7831315Y11448770D01*
X7861300Y11376380D02*
X8258060D01*
X8267940Y11366500D02*
X8274010Y11372570D01*
X8807170D01*
X7708447Y11506114D02*
X8771392D01*
X9161780Y11896502D01*
X8807170Y11372570D02*
X9296400Y11861800D01*
X9217660Y11873356D02*
Y13311122D01*
X7150656Y11860060D02*
X8659660D01*
X8859151Y12059551D01*
Y13458784D01*
X8857205Y13460730D02*
X8859151Y13458784D01*
X9050020Y13437172D02*
X9056370Y13443523D01*
X8781352Y11595100D02*
X9105900Y11919648D01*
X9161780Y11896502D02*
Y13390880D01*
X9105900Y11919648D02*
Y13414026D01*
X8779326Y11672100D02*
X9050020Y11942794D01*
X9105900Y13414026D02*
X9112250Y13420377D01*
X9217660Y13311122D02*
X9259257Y13352719D01*
X8994140Y13460318D02*
X9000490Y13466669D01*
X9050020Y11942794D02*
Y13437172D01*
X8756180Y11727980D02*
X8994140Y11965940D01*
X9161780Y13390880D02*
X9321800Y13550900D01*
X8994140Y11965940D02*
Y13460318D01*
X9259257Y13361357D02*
X9321800Y13423900D01*
X9056370Y13539470D02*
X9321800Y13804900D01*
X9112250Y13420377D02*
Y13468350D01*
X9000490Y13466669D02*
Y13610590D01*
X9056370Y13443523D02*
Y13539470D01*
X9112250Y13468350D02*
X9321800Y13677901D01*
X9259257Y13352719D02*
Y13361357D01*
X9000490Y13610590D02*
X9321800Y13931900D01*
X8851900Y13538200D02*
X8857205Y13532895D01*
Y13460730D02*
Y13532895D01*
X9296400Y11861800D02*
Y12719379D01*
X9321800Y12744779D02*
Y13296899D01*
X9296400Y12719379D02*
X9321800Y12744779D01*
X7585315Y11672100D02*
X8779326D01*
X7560310Y11647095D02*
X7585315Y11672100D01*
X7559554Y11727980D02*
X8756180D01*
X7486618Y11655044D02*
X7559554Y11727980D01*
X6997700Y12013016D02*
X7150656Y11860060D01*
X7560310Y11510010D02*
Y11647095D01*
X7635240Y11595100D02*
X8781352D01*
X7632700Y11592560D02*
X7635240Y11595100D01*
X6997700Y12013016D02*
Y12014200D01*
X7480300Y11582400D02*
X7486618Y11588718D01*
Y11655044D01*
X7556500Y11506200D02*
X7560310Y11510010D01*
D13*
X584200Y16827499D02*
D03*
X571500Y13601700D02*
D03*
Y15227299D02*
D03*
D14*
X838200Y16573500D02*
D03*
X1092200Y16827499D02*
D03*
X1079500Y13601700D02*
D03*
X825500Y13347701D02*
D03*
X1079500Y15227299D02*
D03*
X825500Y14973300D02*
D03*
D15*
X8752730Y10950930D02*
D03*
X8244730D02*
D03*
X8498730D02*
D03*
X9006750Y10950910D02*
D03*
Y6220160D02*
D03*
X8498730Y6220180D02*
D03*
X8244730D02*
D03*
X8752730D02*
D03*
X9006750Y2435560D02*
D03*
X8498730Y2435580D02*
D03*
X8244730D02*
D03*
X8752730D02*
D03*
X4021980Y1489430D02*
D03*
X3513980D02*
D03*
X3767980D02*
D03*
X4276000Y1489410D02*
D03*
X1183530Y1489430D02*
D03*
X675530D02*
D03*
X929530D02*
D03*
X1437550Y1489410D02*
D03*
X1183530Y3381730D02*
D03*
X675530D02*
D03*
X929530D02*
D03*
X1437550Y3381710D02*
D03*
X1183530Y5274030D02*
D03*
X675530D02*
D03*
X929530D02*
D03*
X1437550Y5274010D02*
D03*
X1183530Y7166330D02*
D03*
X675530D02*
D03*
X929530D02*
D03*
X1437550Y7166310D02*
D03*
X1183530Y9058630D02*
D03*
X675530D02*
D03*
X929530D02*
D03*
X1437550Y9058610D02*
D03*
X1183530Y10950930D02*
D03*
X675530D02*
D03*
X929530D02*
D03*
X1437550Y10950910D02*
D03*
X7114450D02*
D03*
X6606430Y10950930D02*
D03*
X6352430D02*
D03*
X6860430D02*
D03*
X5222150Y3381710D02*
D03*
X4714130Y3381730D02*
D03*
X4460130D02*
D03*
X4968130D02*
D03*
X7114450Y1489410D02*
D03*
X6606430Y1489430D02*
D03*
X6352430D02*
D03*
X6860430D02*
D03*
X7114450Y3381710D02*
D03*
X6606430Y3381730D02*
D03*
X6352430D02*
D03*
X6860430D02*
D03*
X7114450Y5274010D02*
D03*
X6606430Y5274030D02*
D03*
X6352430D02*
D03*
X6860430D02*
D03*
X5222150Y9058610D02*
D03*
X4714130Y9058630D02*
D03*
X4460130D02*
D03*
X4968130D02*
D03*
X5222150Y10950910D02*
D03*
X4714130Y10950930D02*
D03*
X4460130D02*
D03*
X4968130D02*
D03*
X7114450Y9058610D02*
D03*
X6606430Y9058630D02*
D03*
X6352430D02*
D03*
X6860430D02*
D03*
X7114450Y7166310D02*
D03*
X6606430Y7166330D02*
D03*
X6352430D02*
D03*
X6860430D02*
D03*
X5222150Y7166310D02*
D03*
X4714130Y7166330D02*
D03*
X4460130D02*
D03*
X4968130D02*
D03*
X5222150Y5274010D02*
D03*
X4714130Y5274030D02*
D03*
X4460130D02*
D03*
X4968130D02*
D03*
X9006750Y9058610D02*
D03*
X8498730Y9058630D02*
D03*
X8244730D02*
D03*
X8752730D02*
D03*
X3329850Y7166310D02*
D03*
X2821830Y7166330D02*
D03*
X2567830D02*
D03*
X3075830D02*
D03*
X3329850Y5274010D02*
D03*
X2821830Y5274030D02*
D03*
X2567830D02*
D03*
X3075830D02*
D03*
X3329850Y10950910D02*
D03*
X2821830Y10950930D02*
D03*
X2567830D02*
D03*
X3075830D02*
D03*
X3329850Y3381710D02*
D03*
X2821830Y3381730D02*
D03*
X2567830D02*
D03*
X3075830D02*
D03*
X3329850Y9058610D02*
D03*
X2821830Y9058630D02*
D03*
X2567830D02*
D03*
X3075830D02*
D03*
D16*
X8381930Y9960310D02*
D03*
X8999130Y10194010D02*
D03*
Y5463260D02*
D03*
X8381930Y5229560D02*
D03*
X8999130Y1678660D02*
D03*
X8381930Y1444960D02*
D03*
X3651180Y498810D02*
D03*
X4268380Y732510D02*
D03*
X812730Y498810D02*
D03*
X1429930Y732510D02*
D03*
X812730Y2391110D02*
D03*
X1429930Y2624810D02*
D03*
X812730Y4283410D02*
D03*
X1429930Y4517110D02*
D03*
X812730Y6175710D02*
D03*
X1429930Y6409410D02*
D03*
X812730Y8068010D02*
D03*
X1429930Y8301710D02*
D03*
X812730Y9960310D02*
D03*
X1429930Y10194010D02*
D03*
X7106830D02*
D03*
X6489630Y9960310D02*
D03*
X5214530Y2624810D02*
D03*
X4597330Y2391110D02*
D03*
X7106830Y732510D02*
D03*
X6489630Y498810D02*
D03*
X7106830Y2624810D02*
D03*
X6489630Y2391110D02*
D03*
X7106830Y4517110D02*
D03*
X6489630Y4283410D02*
D03*
X5214530Y8301710D02*
D03*
X4597330Y8068010D02*
D03*
X5214530Y10194010D02*
D03*
X4597330Y9960310D02*
D03*
X7106830Y8301710D02*
D03*
X6489630Y8068010D02*
D03*
X7106830Y6409410D02*
D03*
X6489630Y6175710D02*
D03*
X5214530Y6409410D02*
D03*
X4597330Y6175710D02*
D03*
X5214530Y4517110D02*
D03*
X4597330Y4283410D02*
D03*
X8999130Y8301710D02*
D03*
X8381930Y8068010D02*
D03*
X3322230Y6409410D02*
D03*
X2705030Y6175710D02*
D03*
X3322230Y4517110D02*
D03*
X2705030Y4283410D02*
D03*
X3322230Y10194010D02*
D03*
X2705030Y9960310D02*
D03*
X3322230Y2624810D02*
D03*
X2705030Y2391110D02*
D03*
X3322230Y8301710D02*
D03*
X2705030Y8068010D02*
D03*
D17*
X8627030Y10463230D02*
D03*
Y5732480D02*
D03*
Y1947880D02*
D03*
X3896280Y1001730D02*
D03*
X1057830D02*
D03*
Y2894030D02*
D03*
Y4786330D02*
D03*
Y6678630D02*
D03*
Y8570930D02*
D03*
Y10463230D02*
D03*
X6734730D02*
D03*
X4842430Y2894030D02*
D03*
X6734730Y1001730D02*
D03*
Y2894030D02*
D03*
Y4786330D02*
D03*
X4842430Y8570930D02*
D03*
Y10463230D02*
D03*
X6734730Y8570930D02*
D03*
Y6678630D02*
D03*
X4842430D02*
D03*
Y4786330D02*
D03*
X8627030Y8570930D02*
D03*
X2950130Y6678630D02*
D03*
Y4786330D02*
D03*
Y10463230D02*
D03*
Y2894030D02*
D03*
Y8570930D02*
D03*
D18*
X9126140Y10463230D02*
D03*
X8127930D02*
D03*
Y5732480D02*
D03*
X9126140D02*
D03*
X8127930Y1947880D02*
D03*
X9126140D02*
D03*
X4395390Y1001730D02*
D03*
X3397180D02*
D03*
X1556940D02*
D03*
X558730D02*
D03*
X1556940Y2894030D02*
D03*
X558730D02*
D03*
X1556940Y4786330D02*
D03*
X558730D02*
D03*
X1556940Y6678630D02*
D03*
X558730D02*
D03*
X1556940Y8570930D02*
D03*
X558730D02*
D03*
X1556940Y10463230D02*
D03*
X558730D02*
D03*
X6235630D02*
D03*
X7233840D02*
D03*
X4343330Y2894030D02*
D03*
X5341540D02*
D03*
X6235630Y1001730D02*
D03*
X7233840D02*
D03*
X6235630Y2894030D02*
D03*
X7233840D02*
D03*
X6235630Y4786330D02*
D03*
X7233840D02*
D03*
X4343330Y8570930D02*
D03*
X5341540D02*
D03*
X4343330Y10463230D02*
D03*
X5341540D02*
D03*
X6235630Y8570930D02*
D03*
X7233840D02*
D03*
X6235630Y6678630D02*
D03*
X7233840D02*
D03*
X4343330D02*
D03*
X5341540D02*
D03*
X4343330Y4786330D02*
D03*
X5341540D02*
D03*
X8127930Y8570930D02*
D03*
X9126140D02*
D03*
X2451030Y6678630D02*
D03*
X3449240D02*
D03*
X2451030Y4786330D02*
D03*
X3449240D02*
D03*
X2451030Y10463230D02*
D03*
X3449240D02*
D03*
X2451030Y2894030D02*
D03*
X3449240D02*
D03*
X2451030Y8570930D02*
D03*
X3449240D02*
D03*
D19*
X7801530Y6926280D02*
D03*
Y4538680D02*
D03*
Y3141680D02*
D03*
Y754080D02*
D03*
X2702480Y1827230D02*
D03*
X5090080D02*
D03*
D20*
X9325530Y6926280D02*
D03*
Y4538680D02*
D03*
Y3141680D02*
D03*
Y754080D02*
D03*
X2702480Y303230D02*
D03*
X5090080D02*
D03*
D21*
X7378700Y12014200D02*
D03*
X7251700D02*
D03*
X7124700D02*
D03*
X6997700D02*
D03*
X6870700D02*
D03*
X6743700D02*
D03*
X6616700D02*
D03*
X6489700D02*
D03*
X6362700D02*
D03*
X6235700D02*
D03*
X6108700D02*
D03*
X5981700D02*
D03*
X5854700D02*
D03*
X5727700D02*
D03*
X5600700D02*
D03*
X5473700D02*
D03*
X5346700D02*
D03*
X5219700D02*
D03*
X5092700D02*
D03*
X4965700D02*
D03*
X4356100D02*
D03*
X4229100D02*
D03*
X4102100D02*
D03*
X3975100D02*
D03*
X3848100D02*
D03*
X3721100D02*
D03*
X3594100D02*
D03*
X3467100D02*
D03*
X3340100D02*
D03*
X3213100D02*
D03*
X3086100D02*
D03*
X2959100D02*
D03*
X2832100D02*
D03*
X2705100D02*
D03*
X2578100D02*
D03*
X2451100D02*
D03*
X2324100D02*
D03*
X2197100D02*
D03*
X2070100D02*
D03*
X1943100D02*
D03*
D22*
X259000Y12685300D02*
D03*
Y12939301D02*
D03*
Y13193300D02*
D03*
Y13447301D02*
D03*
Y13701300D02*
D03*
Y13955299D02*
D03*
Y14209300D02*
D03*
Y14463300D02*
D03*
Y14717300D02*
D03*
Y14971300D02*
D03*
Y15225301D02*
D03*
Y15479300D02*
D03*
Y15733299D02*
D03*
Y15987300D02*
D03*
Y16241299D02*
D03*
Y16495300D02*
D03*
Y16749300D02*
D03*
X9425860Y12685300D02*
D03*
Y17511301D02*
D03*
X259000Y17003300D02*
D03*
Y17257300D02*
D03*
Y17511301D02*
D03*
D23*
X9563100Y3860800D02*
D03*
X9575800Y6515100D02*
D03*
X8547100Y15151100D02*
D03*
Y16027400D02*
D03*
Y16776700D02*
D03*
X8559800Y17754601D02*
D03*
X9537700D02*
D03*
Y16776700D02*
D03*
Y16014700D02*
D03*
Y15151100D02*
D03*
Y14439900D02*
D03*
X9550400Y13576300D02*
D03*
Y13030200D02*
D03*
X9613900Y9512300D02*
D03*
X1574800Y12090400D02*
D03*
X1092200Y12369800D02*
D03*
X1231900Y17818100D02*
D03*
X101600D02*
D03*
X114300Y17145000D02*
D03*
Y16128999D02*
D03*
Y14846300D02*
D03*
Y13322301D02*
D03*
X254000Y12382500D02*
D03*
X495300Y11290300D02*
D03*
X482600Y10160000D02*
D03*
X495300Y9271000D02*
D03*
X520700Y7518400D02*
D03*
X508000Y5511800D02*
D03*
X482600Y4521200D02*
D03*
Y3530600D02*
D03*
X469900Y2349500D02*
D03*
Y1333500D02*
D03*
Y546100D02*
D03*
X914400Y152400D02*
D03*
X2184400D02*
D03*
X3225800D02*
D03*
X4597400D02*
D03*
X6184900D02*
D03*
X7696200D02*
D03*
X9042400D02*
D03*
X9588500Y1016000D02*
D03*
X9563100Y2514600D02*
D03*
X9588500Y4991100D02*
D03*
X9613900Y8559800D02*
D03*
X9601200Y10452100D02*
D03*
X5778500Y10477500D02*
D03*
X3898900Y10452100D02*
D03*
Y8585200D02*
D03*
X5791200Y8597900D02*
D03*
Y6705600D02*
D03*
X3898900Y6667500D02*
D03*
X5778500Y2946400D02*
D03*
Y4800600D02*
D03*
X3898900Y4762500D02*
D03*
X3886200Y2984500D02*
D03*
X2286000Y469900D02*
D03*
X5130800Y736600D02*
D03*
X9080500Y939800D02*
D03*
X7975600Y1320800D02*
D03*
X8813800Y13677901D02*
D03*
X8661400Y14236700D02*
D03*
X7315200Y11312880D02*
D03*
X7777969Y11084280D02*
D03*
X7861300Y11376380D02*
D03*
X1460500Y11518900D02*
D03*
X8877300Y11163300D02*
D03*
X8356600Y11173180D02*
D03*
X3505200Y11455400D02*
D03*
X4559300Y11506200D02*
D03*
X2806700Y11455400D02*
D03*
X1143000Y12852400D02*
D03*
X1130300Y14503400D02*
D03*
X1155700Y16128999D02*
D03*
X469900Y15887700D02*
D03*
X495300Y14274800D02*
D03*
X5410200Y11506200D02*
D03*
X6972300Y11290300D02*
D03*
X9182100D02*
D03*
X6451600Y11303000D02*
D03*
X5054600Y11506200D02*
D03*
X3149600Y11455400D02*
D03*
X1104900Y11518900D02*
D03*
X749300D02*
D03*
X8786761Y13423512D02*
D03*
X8851900Y13538200D02*
D03*
X8826500Y13804900D02*
D03*
X7632700Y11592560D02*
D03*
X7480300Y11582400D02*
D03*
X7785100Y11433724D02*
D03*
X9321800Y13931900D02*
D03*
Y13804900D02*
D03*
X7708447Y11506114D02*
D03*
X9321800Y13677901D02*
D03*
Y13550900D02*
D03*
Y13423900D02*
D03*
Y13296899D02*
D03*
X7556500Y11506200D02*
D03*
X7886700Y9194800D02*
D03*
X7797800Y5975350D02*
D03*
X7823200Y7302500D02*
D03*
X7772400Y3530600D02*
D03*
%TF.MD5,10455633da02c3992c5ce48c4e572519*%
M02*
