%TF.GenerationSoftware,Altium Limited,Altium Designer,22.7.1 (60)*%
G04 Layer_Color=128*
%FSLAX45Y45*%
%MOMM*%
%TF.SameCoordinates,5A05AA2C-F857-43D8-A6CE-F15CAA79189D*%
%TF.FilePolarity,Positive*%
%TF.FileFunction,Paste,Bot*%
%TF.Part,Single*%
G01*
G75*
%TA.AperFunction,SMDPad,CuDef*%
%ADD24R,0.70000X0.90000*%
%ADD25R,0.80000X0.40000*%
%ADD26R,0.90000X0.70000*%
%ADD27R,1.00000X0.60000*%
%ADD28R,0.60000X1.00000*%
%ADD29R,3.80000X2.03000*%
%ADD30R,1.40970X0.50800*%
D24*
X4789100Y736600D02*
D03*
X4939100D02*
D03*
X1969700Y469900D02*
D03*
X2119700D02*
D03*
X3823900Y2463800D02*
D03*
X3973900D02*
D03*
X7595800Y1308100D02*
D03*
X7745800D02*
D03*
X8814999Y939800D02*
D03*
X8964999D02*
D03*
X8114100Y4114800D02*
D03*
X7964100D02*
D03*
X7951400Y9766300D02*
D03*
X8101400D02*
D03*
X7926000Y11137900D02*
D03*
X8076000D02*
D03*
X1129100Y16243300D02*
D03*
X979100D02*
D03*
X722700Y15760699D02*
D03*
X572700D02*
D03*
X1154500Y12979401D02*
D03*
X1004500D02*
D03*
X1140600Y14630400D02*
D03*
X990600D02*
D03*
X748100Y14135100D02*
D03*
X598100D02*
D03*
X748100Y12484100D02*
D03*
X598100D02*
D03*
X8050600Y6464300D02*
D03*
X7900600D02*
D03*
X8076000Y7759700D02*
D03*
X7926000D02*
D03*
D25*
X3326700Y2349731D02*
D03*
X3556700D02*
D03*
X1434400Y4242031D02*
D03*
X1664400D02*
D03*
X7111300Y8026631D02*
D03*
X7341300D02*
D03*
X5219000D02*
D03*
X5449000D02*
D03*
X3326700D02*
D03*
X3556700D02*
D03*
X1434400D02*
D03*
X1664400D02*
D03*
X1434400Y9918931D02*
D03*
X1664400D02*
D03*
X3326700D02*
D03*
X3556700D02*
D03*
X5219000D02*
D03*
X5449000D02*
D03*
X7111300D02*
D03*
X7341300D02*
D03*
X9003600Y9906231D02*
D03*
X9233600D02*
D03*
X1677100Y6134331D02*
D03*
X1447100D02*
D03*
X7341300Y6147031D02*
D03*
X7111300D02*
D03*
X5449000Y6134331D02*
D03*
X5219000D02*
D03*
X3556700D02*
D03*
X3326700D02*
D03*
X1664400Y2349731D02*
D03*
X1434400D02*
D03*
X5449000Y2375131D02*
D03*
X5219000D02*
D03*
X4496500Y470131D02*
D03*
X4266500D02*
D03*
X1664400D02*
D03*
X1434400D02*
D03*
X7341300Y2375131D02*
D03*
X7111300D02*
D03*
X7341300Y470131D02*
D03*
X7111300D02*
D03*
X9246300Y1333731D02*
D03*
X9016300D02*
D03*
X9233600Y8039331D02*
D03*
X9003600D02*
D03*
X9233600Y5194531D02*
D03*
X9003600D02*
D03*
X7341300Y4216631D02*
D03*
X7111300D02*
D03*
X5449000D02*
D03*
X5219000D02*
D03*
X3556700Y4242031D02*
D03*
X3326700D02*
D03*
D26*
X7340600Y2004200D02*
D03*
Y1854200D02*
D03*
D27*
X7778100Y1930400D02*
D03*
X7538100Y2025400D02*
D03*
Y1835400D02*
D03*
X7817500Y3848100D02*
D03*
X8057500Y3753100D02*
D03*
Y3943100D02*
D03*
X7754000Y6184900D02*
D03*
X7994000Y6089900D02*
D03*
Y6279900D02*
D03*
X7830200Y7493000D02*
D03*
X8070200Y7398000D02*
D03*
Y7588000D02*
D03*
X7855600Y9512300D02*
D03*
X8095600Y9417300D02*
D03*
Y9607300D02*
D03*
X7754000Y10833100D02*
D03*
X7994000Y10738100D02*
D03*
Y10928100D02*
D03*
X729600Y16097000D02*
D03*
Y15907001D02*
D03*
X489600Y16002000D02*
D03*
X755000Y12820399D02*
D03*
Y12630400D02*
D03*
X515000Y12725400D02*
D03*
X742300Y14471400D02*
D03*
Y14281400D02*
D03*
X502300Y14376401D02*
D03*
D28*
X9080500Y11386200D02*
D03*
X9175500Y11626200D02*
D03*
X8985500D02*
D03*
X7213600Y11170300D02*
D03*
X7308600Y11410300D02*
D03*
X7118600D02*
D03*
X5308600Y11386200D02*
D03*
X5403600Y11626200D02*
D03*
X5213600D02*
D03*
X3403600Y11335400D02*
D03*
X3498600Y11575400D02*
D03*
X3308600D02*
D03*
X1361001Y11398900D02*
D03*
X1456000Y11638900D02*
D03*
X1266001D02*
D03*
X1072900Y15869299D02*
D03*
X882900D02*
D03*
X977900Y16109300D02*
D03*
X1098300Y12592700D02*
D03*
X908300D02*
D03*
X1003300Y12832700D02*
D03*
X1085600Y14243700D02*
D03*
X895600D02*
D03*
X990600Y14483701D02*
D03*
X8629900Y11626200D02*
D03*
X8819900D02*
D03*
X8724900Y11386200D02*
D03*
X8147300Y11626200D02*
D03*
X8337300D02*
D03*
X8242300Y11386200D02*
D03*
X6775700Y11410300D02*
D03*
X6965700D02*
D03*
X6870700Y11170300D02*
D03*
X6255000Y11423000D02*
D03*
X6445000D02*
D03*
X6350000Y11183000D02*
D03*
X4362700Y11626200D02*
D03*
X4552700D02*
D03*
X4457700Y11386200D02*
D03*
X4858000Y11626200D02*
D03*
X5048000D02*
D03*
X4953000Y11386200D02*
D03*
X2610100Y11575400D02*
D03*
X2800100D02*
D03*
X2705100Y11335400D02*
D03*
X2953000Y11575400D02*
D03*
X3143000D02*
D03*
X3048000Y11335400D02*
D03*
X910401Y11638900D02*
D03*
X1100400D02*
D03*
X1005401Y11398900D02*
D03*
X554801Y11638900D02*
D03*
X744800D02*
D03*
X649801Y11398900D02*
D03*
D29*
X698500Y16294099D02*
D03*
X8966200Y14389101D02*
D03*
X8877300Y14757401D02*
D03*
X660400Y14693900D02*
D03*
X673100Y13030200D02*
D03*
D30*
X9193530Y13169901D02*
D03*
Y13296899D02*
D03*
Y13423900D02*
D03*
Y13550900D02*
D03*
Y13677901D02*
D03*
Y13804900D02*
D03*
Y13931900D02*
D03*
Y14058900D02*
D03*
X8661400D02*
D03*
Y13931900D02*
D03*
Y13804900D02*
D03*
Y13677901D02*
D03*
Y13550900D02*
D03*
Y13423900D02*
D03*
Y13296899D02*
D03*
Y13169901D02*
D03*
%TF.MD5,7bd4ceef8d3de027424eef767b2c6edc*%
M02*
