G04*
G04 #@! TF.GenerationSoftware,Altium Limited,Altium Designer,24.1.2 (44)*
G04*
G04 Layer_Color=8388736*
%FSLAX44Y44*%
%MOMM*%
G71*
G04*
G04 #@! TF.SameCoordinates,39859149-EBAD-4231-980B-4E5C47F9036E*
G04*
G04*
G04 #@! TF.FilePolarity,Negative*
G04*
G01*
G75*
%ADD16R,0.8032X1.2032*%
%ADD17R,4.0032X2.2332*%
%ADD18R,2.2332X4.0032*%
%ADD19C,4.1912*%
%ADD20C,3.2512*%
%ADD21C,3.2032*%
%ADD22C,4.0132*%
%ADD23C,2.2032*%
%ADD24R,3.6032X3.6032*%
%ADD25C,1.2032*%
D16*
X596900Y1248410D02*
D03*
X606400Y1224410D02*
D03*
X587400D02*
D03*
D17*
X177800Y1263650D02*
D03*
X976630Y1261110D02*
D03*
D18*
X563880Y1200150D02*
D03*
D19*
X875403Y745968D02*
D03*
Y507208D02*
D03*
Y367508D02*
D03*
Y128748D02*
D03*
X365498Y236063D02*
D03*
X604258D02*
D03*
D20*
X1027803Y745968D02*
D03*
Y507208D02*
D03*
Y367508D02*
D03*
Y128748D02*
D03*
X365498Y83663D02*
D03*
X604258D02*
D03*
D21*
X932553Y575788D02*
D03*
X996053Y601188D02*
D03*
X932553Y197328D02*
D03*
X996053Y222728D02*
D03*
X459478Y102713D02*
D03*
X522978Y128113D02*
D03*
X239133Y1074263D02*
D03*
X175633Y1048863D02*
D03*
X428363Y1074263D02*
D03*
X364863Y1048863D02*
D03*
X617593Y1074263D02*
D03*
X554093Y1048863D02*
D03*
X806823Y1074263D02*
D03*
X743323Y1048863D02*
D03*
X996053Y1074263D02*
D03*
X932553Y1048863D02*
D03*
X239133Y885033D02*
D03*
X175633Y859633D02*
D03*
X428363Y885033D02*
D03*
X364863Y859633D02*
D03*
X617593Y885033D02*
D03*
X554093Y859633D02*
D03*
X806823Y885033D02*
D03*
X743323Y859633D02*
D03*
X996053Y885033D02*
D03*
X932553Y859633D02*
D03*
X239133Y695803D02*
D03*
X175633Y670403D02*
D03*
X428363Y695803D02*
D03*
X364863Y670403D02*
D03*
X617593Y695803D02*
D03*
X554093Y670403D02*
D03*
X806823Y695803D02*
D03*
X743323Y670403D02*
D03*
X239133Y506573D02*
D03*
X175633Y481173D02*
D03*
X428363Y506573D02*
D03*
X364863Y481173D02*
D03*
X617593Y506573D02*
D03*
X554093Y481173D02*
D03*
X806823Y506573D02*
D03*
X743323Y481173D02*
D03*
X239133Y317343D02*
D03*
X175633Y291943D02*
D03*
X428363Y317343D02*
D03*
X364863Y291943D02*
D03*
X617593Y317343D02*
D03*
X554093Y291943D02*
D03*
X806823Y317343D02*
D03*
X743323Y291943D02*
D03*
X239133Y128113D02*
D03*
X175633Y102713D02*
D03*
X806823Y128113D02*
D03*
X743323Y102713D02*
D03*
X119380Y245110D02*
D03*
X1026160Y438150D02*
D03*
X118110Y999490D02*
D03*
X1037590Y998220D02*
D03*
D22*
X957953Y626588D02*
D03*
Y248128D02*
D03*
X484878Y153513D02*
D03*
X201033Y1099663D02*
D03*
X390263D02*
D03*
X579493D02*
D03*
X768723D02*
D03*
X957953D02*
D03*
X201033Y910433D02*
D03*
X390263D02*
D03*
X579493D02*
D03*
X768723D02*
D03*
X957953D02*
D03*
X201033Y721203D02*
D03*
X390263D02*
D03*
X579493D02*
D03*
X768723D02*
D03*
X201033Y531973D02*
D03*
X390263D02*
D03*
X579493D02*
D03*
X768723D02*
D03*
X201033Y342743D02*
D03*
X390263D02*
D03*
X579493D02*
D03*
X768723D02*
D03*
X201033Y153513D02*
D03*
X768723D02*
D03*
D23*
X1008753Y626588D02*
D03*
X907153D02*
D03*
X1008753Y248128D02*
D03*
X907153D02*
D03*
X535678Y153513D02*
D03*
X434078D02*
D03*
X150233Y1099663D02*
D03*
X251833D02*
D03*
X339463D02*
D03*
X441063D02*
D03*
X528693D02*
D03*
X630293D02*
D03*
X717923D02*
D03*
X819523D02*
D03*
X907153D02*
D03*
X1008753D02*
D03*
X150233Y910433D02*
D03*
X251833D02*
D03*
X339463D02*
D03*
X441063D02*
D03*
X528693D02*
D03*
X630293D02*
D03*
X717923D02*
D03*
X819523D02*
D03*
X907153D02*
D03*
X1008753D02*
D03*
X150233Y721203D02*
D03*
X251833D02*
D03*
X339463D02*
D03*
X441063D02*
D03*
X528693D02*
D03*
X630293D02*
D03*
X717923D02*
D03*
X819523D02*
D03*
X150233Y531973D02*
D03*
X251833D02*
D03*
X339463D02*
D03*
X441063D02*
D03*
X528693D02*
D03*
X630293D02*
D03*
X717923D02*
D03*
X819523D02*
D03*
X150233Y342743D02*
D03*
X251833D02*
D03*
X339463D02*
D03*
X441063D02*
D03*
X528693D02*
D03*
X630293D02*
D03*
X717923D02*
D03*
X819523D02*
D03*
X150233Y153513D02*
D03*
X251833D02*
D03*
X717923D02*
D03*
X819523D02*
D03*
D24*
X957953Y671588D02*
D03*
Y293128D02*
D03*
X484878Y198513D02*
D03*
X201033Y1144663D02*
D03*
X390263D02*
D03*
X579493D02*
D03*
X768723D02*
D03*
X957953D02*
D03*
X201033Y955433D02*
D03*
X390263D02*
D03*
X579493D02*
D03*
X768723D02*
D03*
X957953D02*
D03*
X201033Y766203D02*
D03*
X390263D02*
D03*
X579493D02*
D03*
X768723D02*
D03*
X201033Y576973D02*
D03*
X390263D02*
D03*
X579493D02*
D03*
X768723D02*
D03*
X201033Y387743D02*
D03*
X390263D02*
D03*
X579493D02*
D03*
X768723D02*
D03*
X201033Y198513D02*
D03*
X768723D02*
D03*
D25*
X288193Y1255470D02*
D03*
X300893D02*
D03*
X313593D02*
D03*
X326293D02*
D03*
X338993D02*
D03*
X351693D02*
D03*
X364393D02*
D03*
X377093D02*
D03*
X389793D02*
D03*
X402493D02*
D03*
X415193D02*
D03*
X427893D02*
D03*
X440593D02*
D03*
X453293D02*
D03*
X465993D02*
D03*
X478693D02*
D03*
X491393D02*
D03*
X504093D02*
D03*
X516793D02*
D03*
X529493D02*
D03*
X629493D02*
D03*
X642193D02*
D03*
X654893D02*
D03*
X667593D02*
D03*
X680293D02*
D03*
X692993D02*
D03*
X705693D02*
D03*
X718393D02*
D03*
X731093D02*
D03*
X743793D02*
D03*
X756493D02*
D03*
X769193D02*
D03*
X781893D02*
D03*
X794593D02*
D03*
X807293D02*
D03*
X819993D02*
D03*
X832693D02*
D03*
X845393D02*
D03*
X858093D02*
D03*
X870793D02*
D03*
M02*
