M48
;Layer_Color=9474304
;FILE_FORMAT=4:4
METRIC,LZ
;TYPE=PLATED
T01F00S00C0.3810
T02F00S00C0.6000
T03F00S00C0.7112
T04F00S00C2.0000
T05F00S00C3.8100
;TYPE=NON_PLATED
T06F00S00C3.0000
T07F00S00C3.0480
T09F00S00C3.9878
%
T01
X001524Y0020574
X0024384Y0019177
X0027051Y0020574
X0028575Y0019177
X0035179Y0011303
X0031369Y0032512
X0028575Y0038227
X0027051Y0039497
X0024384Y00381
X0033782Y0039497
X0013208
X0044704Y00381
X0047886Y0038735
X00644693Y00380197
X006731Y0037719
X007239Y0039497
Y0020574
X0061595Y0017907
X0053086Y0019177
X0051308Y0021717
X004572Y0021844
X0079502Y0021717
X0081661Y0019177
X0084582Y0020447
X0083693Y0024511
X0082677Y0024257
X0085598Y0026797
X0091313Y0030099
X0098298Y0031369
X0100711Y0028575
X0104648Y0028702
X0083693Y0037973
X0079629Y0040767
Y0059563
X00843398Y0058801
X0083693Y0057023
X0089535Y0069469
X0091313Y0067945
X0098425Y0069342
X0100838Y0066421
X0103251Y0070231
X0083693Y0075819
X0079502Y0078486
X0072263Y0077343
X006731Y0076835
X00644693Y00758657
X0060706Y0078486
X0053467Y0077343
X0047886Y0076207
X004572Y0075946
X0041783Y007874
Y005969
X004572Y0056769
X0047886Y0056776
X0053467Y005842
X0060579Y005969
X00644693Y00569427
X006731Y0057023
X0072263Y0058547
X0070612Y0061722
X006985Y0069342
Y004318
X0065405Y0043561
X0060579Y004064
X0053467Y0040386
X0041783Y004064
X0032258Y0051181
X0033655Y005842
X0027051
X0028582Y0056141
X0024511Y0057023
X0014605Y0058547
X0013208Y0077343
X0024511Y0075946
X0027178Y0077343
X0028582Y0075558
X0033401Y0074422
X0033782Y0077343
X0033528Y0096266
X0027178
X0028582Y0094622
X0024765Y0094869
X0014224Y0096266
X00157503Y01151913
X0020758Y0119056
X0025466Y0117536
X0027366Y0117409
X0029464Y0117348
X0031049Y0117287
X0032004Y0118618
X003442Y01151872
X0028582Y0112021
X0027432Y0112649
X0026416Y0112395
X00443993Y01137413
X0042037Y0116205
X004191Y0118618
X00457861Y01185441
X0046802Y0117536
X0050292Y0117602
X0053143Y0116389
X00552806Y0116205
X0058363Y0119056
X0061849Y0116332
X0063439Y0117663
X00652653Y0117536
X00672719Y0117795
X0069215Y0117602
X0070923Y0115894
X0070866Y0112649
X0066548Y0111887
X0062992Y0113157
X00681833Y01048863
X006985Y010033
X0072136Y0096266
X006731Y0095885
X00644693Y00947887
X0060579Y0097409
X0053467Y0096266
X0047886Y0095638
X004572Y0094869
X004191Y0097536
X0049657Y0086233
X0047886Y0111894
X00741223Y01164133
X007359Y0118294
X0076962Y01168385
X0082296Y0117602
X0084201Y0117348
X0083185Y0118999
X00812006Y0114427
X0085598Y011303
X0089535Y0116332
X0092202Y0116205
X0097028Y0116967
X0096012Y0118491
X00986409Y01125287
X0103251Y0114173
X0098425Y0097409
X0100457Y0094869
X0105664Y0094742
X0091313Y0096266
X0085471Y0095504
X0083693Y0094742
X0079502Y0097536
X0088773Y010287
X0085471Y0081534
X0096266Y0083693
X0099502Y0124399
X009017Y0127
X00889Y012192
X0084201Y0121158
X007359Y012312
X0072116Y01192871
X0070805Y0119314
X0069215Y0121158
X00652653Y0121412
X00583355Y0123825
X0057277Y0123317
X0057404Y0125349
X0054483Y0123825
X0051816Y0121158
X0050292Y0122555
Y0119253
X0042672Y0121412
X0032766Y0122555
X0030988Y0120904
X0027305Y0121793
X0016449Y0120208
X0016891Y0124841
T02
X00794593Y0125547
X00807293
X00819993
X00832693
X00845393
X00858093
X00870793
X00781893
X00769193
X00756493
X00743793
X00731093
X00718393
X00705693
X00692993
X00680293
X00667593
X00654893
X00642193
X00629493
X00529493
X00516793
X00504093
X00491393
X00478693
X00465993
X00453293
X00440593
X00427893
X00415193
X00402493
X00389793
X00377093
X00364393
X00351693
X00338993
X00326293
X00313593
X00300893
X00288193
T03
X0037592Y0017526
X0088392Y0043307
X0014478Y0043561
X0020193Y010033
X0043434Y0080772
T04
X00150233Y00153513
X00251833
Y00342743
X00339463
X00150233
X00441063
X00528693
X00630293
X00717923
Y00153513
X00535678
X00434078
X00819523
X00907153Y00248128
X01008753
X00819523Y00342743
Y00531973
X00907153Y00626588
X01008753
X00819523Y00721203
X00717923
X00630293
X00528693
X00441063
Y00531973
X00528693
X00630293
X00717923
X00339463
X00251833
X00150233
Y00721203
X00251833
X00339463
Y00910433
X00251833
X00150233
Y01099663
X00251833
X00339463
X00441063
X00528693
X00630293
X00717923
Y00910433
X00630293
X00528693
X00441063
X00819523
X00907153
X01008753
Y01099663
X00907153
X00819523
T05
X00201033Y00153513
Y00342743
X00390263
X00579493
X00768723
Y00153513
X00484878
X00957953Y00248128
Y00626588
X00768723Y00721203
X00579493
Y00531973
X00768723
X00390263
Y00721203
X00201033
Y00531973
Y00910433
Y01099663
X00390263
Y00910433
X00579493
Y01099663
X00768723
Y00910433
X00957953
Y01099663
T06
X00175633Y00102713
X00239133Y00128113
Y00317343
X00175633Y00291943
X0011938Y0024511
X00364863Y00291943
X00428363Y00317343
X00554093Y00291943
X00617593Y00317343
X00743323Y00291943
Y00102713
X00522978Y00128113
X00459478Y00102713
X00806823Y00128113
Y00317343
X00932553Y00197328
X00996053Y00222728
X0102616Y0043815
X00996053Y00601188
X00932553Y00575788
X00806823Y00506573
Y00695803
X00743323Y00670403
X00617593Y00695803
X00554093Y00670403
X00428363Y00695803
Y00506573
X00554093Y00481173
X00617593Y00506573
X00743323Y00481173
X00364863
X00239133Y00506573
X00175633Y00481173
Y00670403
X00239133Y00695803
X00364863Y00670403
Y00859633
X00239133Y00885033
X00175633Y00859633
Y01048863
X00239133Y01074263
X00364863Y01048863
X0011811Y0099949
X00428363Y01074263
X00554093Y01048863
X00617593Y01074263
X00743323Y01048863
Y00859633
X00617593Y00885033
X00554093Y00859633
X00428363Y00885033
X00806823
X00932553Y00859633
X00996053Y00885033
X0103759Y0099822
X00996053Y01074263
X00932553Y01048863
X00806823Y01074263
T07
X00365498Y00083663
X00604258
X01027803Y00128748
Y00367508
Y00507208
Y00745968
T09
X00365498Y00236063
X00604258
X00875403Y00128748
Y00367508
Y00507208
Y00745968
M30
