G04*
G04 #@! TF.GenerationSoftware,Altium Limited,Altium Designer,22.7.1 (60)*
G04*
G04 Layer_Physical_Order=1*
G04 Layer_Color=255*
%FSLAX44Y44*%
%MOMM*%
G71*
G04*
G04 #@! TF.SameCoordinates,EC5D1957-9DED-4F38-8C92-ABF119FEB4E7*
G04*
G04*
G04 #@! TF.FilePolarity,Positive*
G04*
G01*
G75*
%ADD12R,1.3462X1.3462*%
%ADD13C,1.3462*%
%ADD22C,0.3810*%
%ADD23C,0.5080*%
%ADD24C,0.3048*%
%ADD25C,0.0254*%
%ADD26C,1.7780*%
%ADD27C,2.2860*%
%ADD28C,3.8100*%
%ADD29C,2.0000*%
%ADD30C,3.9880*%
%ADD31C,3.0480*%
%ADD32C,1.0000*%
%ADD33C,1.5000*%
%ADD34C,0.6350*%
G36*
X127781Y1609140D02*
X126511Y1608823D01*
X125583Y1610213D01*
X120950Y1614845D01*
X120415Y1616137D01*
X118807Y1617745D01*
X116707Y1618615D01*
X114433D01*
X112333Y1617745D01*
X110725Y1616137D01*
X109855Y1614037D01*
Y1611763D01*
X110725Y1609663D01*
X112333Y1608055D01*
X113625Y1607520D01*
X116741Y1604405D01*
Y1528586D01*
X115471Y1528246D01*
X115369Y1528423D01*
X113643Y1530149D01*
X111529Y1531369D01*
X109171Y1532001D01*
X106729D01*
X104372Y1531369D01*
X102257Y1530149D01*
X100531Y1528423D01*
X99311Y1526308D01*
X98679Y1523951D01*
Y1521510D01*
X99311Y1519151D01*
X100531Y1517038D01*
X102257Y1515311D01*
X104372Y1514091D01*
X106729Y1513459D01*
X109171D01*
X111529Y1514091D01*
X113643Y1515311D01*
X115369Y1517038D01*
X115471Y1517214D01*
X116741Y1516873D01*
Y1455762D01*
X114873D01*
X114167Y1456055D01*
X111893D01*
X109793Y1455185D01*
X108185Y1453577D01*
X107315Y1451477D01*
Y1449203D01*
X108185Y1447103D01*
X109793Y1445495D01*
X111893Y1444625D01*
X114167D01*
X115471Y1445165D01*
X116741Y1444438D01*
Y1366026D01*
X115471Y1365686D01*
X115369Y1365862D01*
X113643Y1367589D01*
X111529Y1368809D01*
X109171Y1369441D01*
X106729D01*
X104372Y1368809D01*
X102322Y1367626D01*
X101650Y1367795D01*
X101052Y1368043D01*
Y1511300D01*
X100707Y1513034D01*
X99725Y1514505D01*
X99725Y1514505D01*
X51522Y1562707D01*
Y1585220D01*
X51835Y1585533D01*
X52705Y1587633D01*
Y1589907D01*
X51835Y1592007D01*
X50227Y1593615D01*
X48127Y1594485D01*
X45853D01*
X43753Y1593615D01*
X42145Y1592007D01*
X41275Y1589907D01*
Y1587633D01*
X42145Y1585533D01*
X42458Y1585220D01*
Y1560830D01*
X42803Y1559096D01*
X43785Y1557625D01*
X91988Y1509423D01*
Y1502065D01*
X90718Y1501725D01*
X89969Y1503022D01*
X88243Y1504749D01*
X86129Y1505969D01*
X83771Y1506601D01*
X81329D01*
X78972Y1505969D01*
X76858Y1504749D01*
X75131Y1503022D01*
X73911Y1500909D01*
X73279Y1498551D01*
Y1496109D01*
X73911Y1493752D01*
X75131Y1491638D01*
X76858Y1489911D01*
X78972Y1488691D01*
X81329Y1488059D01*
X83771D01*
X86129Y1488691D01*
X88243Y1489911D01*
X89969Y1491638D01*
X90718Y1492935D01*
X91988Y1492595D01*
Y1339505D01*
X90718Y1339165D01*
X89969Y1340462D01*
X88243Y1342189D01*
X86129Y1343409D01*
X83771Y1344041D01*
X81329D01*
X78972Y1343409D01*
X76858Y1342189D01*
X76300Y1341631D01*
X75030Y1342157D01*
Y1371600D01*
X74635Y1373582D01*
X73513Y1375262D01*
X54710Y1394065D01*
Y1425050D01*
X55245Y1426343D01*
Y1428617D01*
X54375Y1430717D01*
X52767Y1432325D01*
X50667Y1433195D01*
X48393D01*
X46293Y1432325D01*
X44685Y1430717D01*
X43815Y1428617D01*
Y1426343D01*
X44351Y1425050D01*
Y1391920D01*
X44745Y1389938D01*
X45868Y1388257D01*
X64671Y1369455D01*
Y1192530D01*
X65065Y1190548D01*
X66188Y1188867D01*
X105110Y1149946D01*
X105645Y1148653D01*
X107253Y1147045D01*
X109353Y1146175D01*
X109796D01*
X112345Y1143625D01*
X111859Y1142452D01*
X90777D01*
X80645Y1152584D01*
Y1153027D01*
X79775Y1155127D01*
X78167Y1156735D01*
X76067Y1157605D01*
X73793D01*
X71693Y1156735D01*
X70085Y1155127D01*
X69215Y1153027D01*
Y1150753D01*
X70085Y1148653D01*
X71693Y1147045D01*
X73793Y1146175D01*
X74236D01*
X85695Y1134715D01*
X85695Y1134715D01*
X87166Y1133733D01*
X88900Y1133388D01*
X271173D01*
X276195Y1128365D01*
X276195Y1128365D01*
X277666Y1127383D01*
X279400Y1127038D01*
X387440D01*
X389175Y1127383D01*
X390645Y1128365D01*
X408368Y1146088D01*
X452380D01*
X452693Y1145775D01*
X454793Y1144905D01*
X455236D01*
X473045Y1127095D01*
X474516Y1126113D01*
X476250Y1125768D01*
X476250Y1125768D01*
X641610D01*
X641923Y1125455D01*
X644023Y1124585D01*
X646297D01*
X648397Y1125455D01*
X648710Y1125768D01*
X683306D01*
X693659Y1115416D01*
X693173Y1114242D01*
X674613D01*
X672631Y1113848D01*
X670950Y1112726D01*
X670950Y1112725D01*
X664199Y1105974D01*
X662148Y1106523D01*
X659138D01*
X656231Y1105744D01*
X653625Y1104239D01*
X653401Y1104016D01*
X644692Y1112726D01*
X643012Y1113848D01*
X641030Y1114242D01*
X491027D01*
X491026Y1114243D01*
X489044Y1113848D01*
X487364Y1112726D01*
X478655Y1104016D01*
X478431Y1104239D01*
X475825Y1105744D01*
X472918Y1106523D01*
X469908D01*
X467001Y1105744D01*
X464395Y1104239D01*
X464171Y1104016D01*
X455462Y1112726D01*
X453782Y1113848D01*
X453567Y1113891D01*
X451275Y1116182D01*
X449595Y1117305D01*
X447613Y1117700D01*
X410866D01*
X408884Y1117305D01*
X407203Y1116182D01*
X394243Y1103222D01*
X351936D01*
X342432Y1112726D01*
X340752Y1113848D01*
X338770Y1114242D01*
X301797D01*
X301796Y1114243D01*
X299814Y1113848D01*
X298134Y1112726D01*
X289424Y1104016D01*
X289201Y1104239D01*
X286595Y1105744D01*
X283688Y1106523D01*
X280678D01*
X277771Y1105744D01*
X276598Y1105067D01*
X269292Y1112373D01*
X267612Y1113495D01*
X265630Y1113889D01*
X264344D01*
X262570Y1114242D01*
X112567D01*
X112566Y1114243D01*
X110584Y1113848D01*
X108904Y1112726D01*
X108904Y1112725D01*
X100721Y1104542D01*
X100557Y1104297D01*
X99971Y1104239D01*
X97365Y1105744D01*
X94458Y1106523D01*
X91448D01*
X88541Y1105744D01*
X85935Y1104239D01*
X83807Y1102111D01*
X82302Y1099505D01*
X81523Y1096598D01*
Y1093588D01*
X82302Y1090681D01*
X83807Y1088075D01*
X85935Y1085947D01*
X88541Y1084442D01*
X91448Y1083663D01*
X92337D01*
X92953Y1083540D01*
X93569Y1083663D01*
X94458D01*
X97365Y1084442D01*
X99971Y1085947D01*
X102099Y1088075D01*
X103604Y1090681D01*
X104104Y1092546D01*
X105750Y1094192D01*
X106923Y1093706D01*
Y1093588D01*
X107702Y1090681D01*
X109207Y1088075D01*
X111335Y1085947D01*
X113941Y1084442D01*
X116848Y1083663D01*
X119858D01*
X122765Y1084442D01*
X125371Y1085947D01*
X127499Y1088075D01*
X129004Y1090681D01*
X129783Y1093588D01*
Y1096598D01*
X129004Y1099505D01*
X127499Y1102111D01*
X126900Y1102710D01*
X127386Y1103884D01*
X134724D01*
X135210Y1102710D01*
X134609Y1102109D01*
X133104Y1099503D01*
X132325Y1096596D01*
Y1093586D01*
X133104Y1090679D01*
X134609Y1088073D01*
X136737Y1085945D01*
X139343Y1084440D01*
X142250Y1083661D01*
X145260D01*
X148167Y1084440D01*
X150773Y1085945D01*
X152901Y1088073D01*
X154406Y1090679D01*
X155185Y1093586D01*
Y1096596D01*
X154406Y1099503D01*
X152901Y1102109D01*
X152300Y1102710D01*
X152786Y1103884D01*
X247750D01*
X248236Y1102710D01*
X247637Y1102111D01*
X246132Y1099505D01*
X245353Y1096598D01*
Y1093588D01*
X246132Y1090681D01*
X247637Y1088075D01*
X249765Y1085947D01*
X252371Y1084442D01*
X255278Y1083663D01*
X258288D01*
X261195Y1084442D01*
X263801Y1085947D01*
X265929Y1088075D01*
X267434Y1090681D01*
X268213Y1093588D01*
Y1096598D01*
X268064Y1097155D01*
X269202Y1097812D01*
X270753Y1096262D01*
Y1093588D01*
X271532Y1090681D01*
X273037Y1088075D01*
X275165Y1085947D01*
X277771Y1084442D01*
X280678Y1083663D01*
X283688D01*
X286595Y1084442D01*
X289201Y1085947D01*
X291329Y1088075D01*
X292834Y1090681D01*
X293613Y1093588D01*
Y1093656D01*
X293919Y1093861D01*
X294980Y1094921D01*
X296153Y1094435D01*
Y1093588D01*
X296932Y1090681D01*
X298437Y1088075D01*
X300565Y1085947D01*
X303171Y1084442D01*
X306078Y1083663D01*
X309088D01*
X311995Y1084442D01*
X314601Y1085947D01*
X316729Y1088075D01*
X318234Y1090681D01*
X319013Y1093588D01*
Y1096598D01*
X318234Y1099505D01*
X316729Y1102111D01*
X316130Y1102710D01*
X316616Y1103884D01*
X323954D01*
X324440Y1102710D01*
X323839Y1102109D01*
X322334Y1099503D01*
X321555Y1096596D01*
Y1093586D01*
X322334Y1090679D01*
X323839Y1088073D01*
X325967Y1085945D01*
X328573Y1084440D01*
X331480Y1083661D01*
X334490D01*
X337397Y1084440D01*
X340003Y1085945D01*
X342131Y1088073D01*
X343636Y1090679D01*
X344415Y1093586D01*
Y1094433D01*
X345588Y1094919D01*
X346128Y1094380D01*
X346128Y1094380D01*
X347808Y1093257D01*
X349791Y1092862D01*
X396388D01*
X398370Y1093257D01*
X400051Y1094380D01*
X413011Y1107340D01*
X442652D01*
X442819Y1106070D01*
X441601Y1105744D01*
X438995Y1104239D01*
X436867Y1102111D01*
X435362Y1099505D01*
X434583Y1096598D01*
Y1093588D01*
X435362Y1090681D01*
X436867Y1088075D01*
X438995Y1085947D01*
X441601Y1084442D01*
X444508Y1083663D01*
X447518D01*
X450425Y1084442D01*
X453031Y1085947D01*
X455159Y1088075D01*
X456664Y1090681D01*
X457443Y1093588D01*
Y1094435D01*
X458616Y1094921D01*
X459677Y1093861D01*
X459983Y1093656D01*
Y1093588D01*
X460762Y1090681D01*
X462267Y1088075D01*
X464395Y1085947D01*
X467001Y1084442D01*
X469908Y1083663D01*
X472918D01*
X475825Y1084442D01*
X478431Y1085947D01*
X480559Y1088075D01*
X482064Y1090681D01*
X482843Y1093588D01*
Y1093656D01*
X483149Y1093861D01*
X484210Y1094921D01*
X485383Y1094435D01*
Y1093588D01*
X486162Y1090681D01*
X487667Y1088075D01*
X489795Y1085947D01*
X492401Y1084442D01*
X495308Y1083663D01*
X498318D01*
X501225Y1084442D01*
X503831Y1085947D01*
X505959Y1088075D01*
X507464Y1090681D01*
X508243Y1093588D01*
Y1096598D01*
X507464Y1099505D01*
X505959Y1102111D01*
X505360Y1102710D01*
X505846Y1103884D01*
X513184D01*
X513670Y1102710D01*
X513069Y1102109D01*
X511564Y1099503D01*
X510785Y1096596D01*
Y1093586D01*
X511564Y1090679D01*
X513069Y1088073D01*
X515197Y1085945D01*
X517803Y1084440D01*
X520710Y1083661D01*
X523720D01*
X526627Y1084440D01*
X529233Y1085945D01*
X531361Y1088073D01*
X532866Y1090679D01*
X533645Y1093586D01*
Y1096596D01*
X532866Y1099503D01*
X531361Y1102109D01*
X530760Y1102710D01*
X531246Y1103884D01*
X626210D01*
X626696Y1102710D01*
X626097Y1102111D01*
X624592Y1099505D01*
X623813Y1096598D01*
Y1093588D01*
X624592Y1090681D01*
X626097Y1088075D01*
X628225Y1085947D01*
X630831Y1084442D01*
X633738Y1083663D01*
X636748D01*
X639655Y1084442D01*
X642261Y1085947D01*
X644389Y1088075D01*
X645894Y1090681D01*
X646673Y1093588D01*
Y1094435D01*
X647846Y1094921D01*
X648907Y1093861D01*
X649213Y1093656D01*
Y1093588D01*
X649992Y1090681D01*
X651497Y1088075D01*
X653625Y1085947D01*
X656231Y1084442D01*
X659138Y1083663D01*
X662148D01*
X665055Y1084442D01*
X667661Y1085947D01*
X669789Y1088075D01*
X671294Y1090681D01*
X672073Y1093588D01*
Y1096598D01*
X671524Y1098649D01*
X675964Y1103089D01*
X676060Y1103070D01*
X676248Y1102854D01*
X676637Y1101661D01*
X675392Y1099505D01*
X674613Y1096598D01*
Y1093588D01*
X675392Y1090681D01*
X676897Y1088075D01*
X679025Y1085947D01*
X681631Y1084442D01*
X684538Y1083663D01*
X687548D01*
X690455Y1084442D01*
X693061Y1085947D01*
X695189Y1088075D01*
X696694Y1090681D01*
X697473Y1093588D01*
Y1096598D01*
X696694Y1099505D01*
X695189Y1102111D01*
X694590Y1102710D01*
X695076Y1103884D01*
X702414D01*
X702900Y1102710D01*
X702299Y1102109D01*
X700794Y1099503D01*
X700015Y1096596D01*
Y1093586D01*
X700794Y1090679D01*
X702299Y1088073D01*
X704427Y1085945D01*
X707033Y1084440D01*
X709940Y1083661D01*
X712950D01*
X715857Y1084440D01*
X718463Y1085945D01*
X720591Y1088073D01*
X722096Y1090679D01*
X722875Y1093586D01*
Y1096596D01*
X722096Y1099503D01*
X720591Y1102109D01*
X719990Y1102710D01*
X720476Y1103884D01*
X724180D01*
X724541Y1103643D01*
X726523Y1103249D01*
X775367D01*
X776660Y1102713D01*
X778934D01*
X781034Y1103583D01*
X781204Y1103753D01*
X782320Y1103531D01*
X784095Y1103884D01*
X815440D01*
X815926Y1102710D01*
X815327Y1102111D01*
X813822Y1099505D01*
X813043Y1096598D01*
Y1093588D01*
X813822Y1090681D01*
X815327Y1088075D01*
X817455Y1085947D01*
X820061Y1084442D01*
X822968Y1083663D01*
X825978D01*
X828885Y1084442D01*
X831491Y1085947D01*
X833619Y1088075D01*
X835124Y1090681D01*
X835903Y1093588D01*
Y1096598D01*
X835124Y1099505D01*
X833879Y1101661D01*
X834268Y1102854D01*
X834456Y1103070D01*
X834552Y1103089D01*
X838992Y1098649D01*
X838443Y1096598D01*
Y1093588D01*
X839222Y1090681D01*
X840727Y1088075D01*
X842855Y1085947D01*
X845461Y1084442D01*
X848368Y1083663D01*
X851378D01*
X854285Y1084442D01*
X856891Y1085947D01*
X859019Y1088075D01*
X860524Y1090681D01*
X861303Y1093588D01*
Y1096598D01*
X860524Y1099505D01*
X859019Y1102111D01*
X856891Y1104239D01*
X854285Y1105744D01*
X851378Y1106523D01*
X848368D01*
X846317Y1105974D01*
X839566Y1112726D01*
X839528Y1113104D01*
X840505Y1114081D01*
X841375Y1116181D01*
Y1118455D01*
X841004Y1119350D01*
X841710Y1120406D01*
X877245D01*
X882015Y1115636D01*
Y1115193D01*
X882885Y1113093D01*
X884493Y1111485D01*
X886593Y1110615D01*
X888867D01*
X890967Y1111485D01*
X892575Y1113093D01*
X893445Y1115193D01*
Y1117467D01*
X892575Y1119567D01*
X890967Y1121175D01*
X888867Y1122045D01*
X888424D01*
X884887Y1125583D01*
X885373Y1126756D01*
X912966D01*
X913365Y1125793D01*
X914973Y1124185D01*
X917073Y1123315D01*
X919347D01*
X921447Y1124185D01*
X923055Y1125793D01*
X923925Y1127893D01*
Y1130167D01*
X923055Y1132267D01*
X921447Y1133875D01*
X919347Y1134745D01*
X918092D01*
X916999Y1135475D01*
X915265Y1135820D01*
X886799D01*
X886313Y1136993D01*
X930350Y1181030D01*
X931524Y1180544D01*
X931524Y1112926D01*
X931475Y1112926D01*
X931878Y1107800D01*
X933079Y1102801D01*
X935046Y1098050D01*
X937733Y1093666D01*
X940259Y1090709D01*
X941072Y1089756D01*
X941072Y1089756D01*
X941991Y1088906D01*
X971524Y1059374D01*
Y641626D01*
X941107Y611210D01*
X941107Y611210D01*
X941072Y611244D01*
X937733Y607334D01*
X935046Y602950D01*
X933079Y598200D01*
X931878Y593200D01*
X931475Y588074D01*
D01*
X931524Y586824D01*
X931524Y562926D01*
X931475D01*
X931878Y557800D01*
X933079Y552801D01*
X935046Y548050D01*
X937733Y543666D01*
X940259Y540709D01*
X941072Y539756D01*
X941072Y539756D01*
X941991Y538907D01*
X971524Y509374D01*
Y61626D01*
X913117Y3219D01*
X55369D01*
X36962Y21626D01*
Y1194331D01*
X37011D01*
X36608Y1199457D01*
X35407Y1204456D01*
X33440Y1209207D01*
X30753Y1213591D01*
X27413Y1217501D01*
X27379Y1217467D01*
X3219Y1241626D01*
Y1787781D01*
X127781D01*
Y1609140D01*
D02*
G37*
G36*
X91988Y1330035D02*
Y1201420D01*
X92333Y1199686D01*
X93315Y1198215D01*
X140335Y1151196D01*
Y1150753D01*
X140706Y1149858D01*
X140000Y1148802D01*
X119987D01*
X116205Y1152584D01*
Y1153027D01*
X115335Y1155127D01*
X113727Y1156735D01*
X112435Y1157270D01*
X75030Y1194675D01*
Y1327383D01*
X76300Y1327909D01*
X76858Y1327351D01*
X78972Y1326131D01*
X81329Y1325499D01*
X83771D01*
X86129Y1326131D01*
X88243Y1327351D01*
X89969Y1329077D01*
X90718Y1330375D01*
X91988Y1330035D01*
D02*
G37*
G36*
X965267Y1241626D02*
X941107Y1217467D01*
X941107Y1217467D01*
X941072Y1217501D01*
X937733Y1213591D01*
X935046Y1209207D01*
X935029Y1209165D01*
X933784Y1209413D01*
Y1261338D01*
X935054Y1261864D01*
X936421Y1260496D01*
X938711Y1259174D01*
X941264Y1258490D01*
X943908D01*
X946461Y1259174D01*
X948751Y1260496D01*
X950620Y1262365D01*
X951942Y1264655D01*
X952626Y1267208D01*
Y1269852D01*
X951942Y1272405D01*
X950620Y1274695D01*
X948751Y1276564D01*
X946461Y1277886D01*
X943908Y1278570D01*
X941264D01*
X938711Y1277886D01*
X937594Y1277241D01*
X936324Y1277974D01*
Y1325751D01*
X937025Y1326453D01*
X937895Y1328553D01*
Y1330827D01*
X937025Y1332927D01*
X935417Y1334535D01*
X933988Y1335127D01*
X933444Y1336017D01*
X933386Y1336358D01*
X933407Y1336638D01*
X933527Y1336762D01*
X935417Y1337545D01*
X937025Y1339153D01*
X937895Y1341253D01*
Y1343527D01*
X937025Y1345627D01*
X935417Y1347235D01*
X933988Y1347827D01*
X933444Y1348717D01*
X933386Y1349058D01*
X933407Y1349338D01*
X933527Y1349462D01*
X935417Y1350245D01*
X937025Y1351853D01*
X937895Y1353953D01*
Y1356227D01*
X937025Y1358327D01*
X935417Y1359935D01*
X933988Y1360527D01*
X933444Y1361417D01*
X933386Y1361758D01*
X933407Y1362038D01*
X933527Y1362162D01*
X935417Y1362945D01*
X937025Y1364553D01*
X937895Y1366653D01*
Y1368927D01*
X937025Y1371027D01*
X935417Y1372635D01*
X933988Y1373227D01*
X933444Y1374117D01*
X933386Y1374458D01*
X933407Y1374738D01*
X933527Y1374862D01*
X935417Y1375645D01*
X937025Y1377253D01*
X937895Y1379353D01*
Y1381627D01*
X937025Y1383727D01*
X935417Y1385335D01*
X933988Y1385927D01*
X933444Y1386817D01*
X933386Y1387158D01*
X933407Y1387438D01*
X933527Y1387562D01*
X935417Y1388345D01*
X937025Y1389953D01*
X937895Y1392053D01*
Y1394327D01*
X937025Y1396427D01*
X935417Y1398035D01*
X933317Y1398905D01*
X931043D01*
X928943Y1398035D01*
X927335Y1396427D01*
X926465Y1394327D01*
Y1393335D01*
X899798Y1366668D01*
X898624Y1367154D01*
Y1369695D01*
X898230Y1371677D01*
X897107Y1373358D01*
X888030Y1382435D01*
X887495Y1383727D01*
X885887Y1385335D01*
X883787Y1386205D01*
X881513D01*
X879413Y1385335D01*
X877805Y1383727D01*
X876935Y1381627D01*
Y1379353D01*
X877805Y1377253D01*
X879413Y1375645D01*
X880705Y1375110D01*
X888266Y1367550D01*
Y1359875D01*
X887209Y1359169D01*
X886327Y1359535D01*
X884053D01*
X881953Y1358665D01*
X880345Y1357057D01*
X879475Y1354957D01*
Y1352683D01*
X880345Y1350583D01*
X881307Y1349621D01*
X881243Y1348710D01*
X880063Y1347963D01*
X879813Y1348066D01*
X877539D01*
X875439Y1347196D01*
X873831Y1345589D01*
X872961Y1343488D01*
Y1341214D01*
X873831Y1339114D01*
X874144Y1338801D01*
Y1209483D01*
X861168Y1196507D01*
X745206D01*
X744473Y1197777D01*
X744896Y1198510D01*
X745410Y1200427D01*
Y1202413D01*
X744896Y1204330D01*
X743904Y1206050D01*
X742500Y1207454D01*
X740780Y1208446D01*
X738863Y1208960D01*
X736877D01*
X734960Y1208446D01*
X733240Y1207454D01*
X732365Y1206578D01*
X731520Y1206194D01*
X730675Y1206578D01*
X729800Y1207454D01*
X728080Y1208446D01*
X726163Y1208960D01*
X724177D01*
X722260Y1208446D01*
X720540Y1207454D01*
X719665Y1206578D01*
X718820Y1206194D01*
X717975Y1206578D01*
X717100Y1207454D01*
X715380Y1208446D01*
X713463Y1208960D01*
X711477D01*
X709560Y1208446D01*
X707840Y1207454D01*
X706965Y1206578D01*
X706120Y1206194D01*
X705275Y1206578D01*
X704400Y1207454D01*
X702680Y1208446D01*
X700763Y1208960D01*
X698777D01*
X696860Y1208446D01*
X695140Y1207454D01*
X693736Y1206050D01*
X692744Y1204330D01*
X692230Y1202413D01*
Y1200427D01*
X692744Y1198510D01*
X693736Y1196790D01*
X695140Y1195387D01*
X696860Y1194394D01*
X698777Y1193880D01*
X700763D01*
X701211Y1194000D01*
X709457Y1185755D01*
X708971Y1184582D01*
X620778D01*
X612598Y1192762D01*
X612977Y1194179D01*
X613780Y1194394D01*
X615500Y1195387D01*
X616375Y1196262D01*
X617220Y1196646D01*
X618065Y1196262D01*
X618940Y1195387D01*
X620660Y1194394D01*
X622577Y1193880D01*
X624563D01*
X626480Y1194394D01*
X628200Y1195387D01*
X629075Y1196262D01*
X629920Y1196646D01*
X630765Y1196262D01*
X631640Y1195387D01*
X633360Y1194394D01*
X635277Y1193880D01*
X637263D01*
X639180Y1194394D01*
X640900Y1195387D01*
X641775Y1196262D01*
X642620Y1196646D01*
X643465Y1196262D01*
X644340Y1195387D01*
X646060Y1194394D01*
X647977Y1193880D01*
X649963D01*
X651880Y1194394D01*
X653600Y1195387D01*
X655004Y1196790D01*
X655996Y1198510D01*
X656510Y1200427D01*
Y1202413D01*
X655996Y1204330D01*
X655004Y1206050D01*
X653600Y1207454D01*
X651880Y1208446D01*
X649963Y1208960D01*
X647977D01*
X646060Y1208446D01*
X644340Y1207454D01*
X643465Y1206578D01*
X642620Y1206194D01*
X641775Y1206578D01*
X640900Y1207454D01*
X639180Y1208446D01*
X637263Y1208960D01*
X635277D01*
X633360Y1208446D01*
X631640Y1207454D01*
X630765Y1206578D01*
X629920Y1206194D01*
X629075Y1206578D01*
X628200Y1207454D01*
X626480Y1208446D01*
X624563Y1208960D01*
X622577D01*
X620660Y1208446D01*
X618940Y1207454D01*
X618065Y1206578D01*
X617220Y1206194D01*
X616375Y1206578D01*
X615500Y1207454D01*
X613780Y1208446D01*
X611863Y1208960D01*
X609877D01*
X607960Y1208446D01*
X606240Y1207454D01*
X605365Y1206578D01*
X604520Y1206194D01*
X603675Y1206578D01*
X602800Y1207454D01*
X601080Y1208446D01*
X599163Y1208960D01*
X597177D01*
X595260Y1208446D01*
X593540Y1207454D01*
X592665Y1206578D01*
X591820Y1206194D01*
X590975Y1206578D01*
X590100Y1207454D01*
X588380Y1208446D01*
X586463Y1208960D01*
X584477D01*
X582560Y1208446D01*
X580840Y1207454D01*
X579965Y1206578D01*
X579120Y1206194D01*
X578275Y1206578D01*
X577400Y1207454D01*
X575680Y1208446D01*
X573763Y1208960D01*
X571777D01*
X569860Y1208446D01*
X568140Y1207454D01*
X567265Y1206578D01*
X566420Y1206194D01*
X565575Y1206578D01*
X564700Y1207454D01*
X562980Y1208446D01*
X561063Y1208960D01*
X559077D01*
X557160Y1208446D01*
X555440Y1207454D01*
X554565Y1206578D01*
X553720Y1206194D01*
X552875Y1206578D01*
X552000Y1207454D01*
X550280Y1208446D01*
X548363Y1208960D01*
X546377D01*
X544460Y1208446D01*
X542740Y1207454D01*
X541865Y1206578D01*
X541020Y1206194D01*
X540175Y1206578D01*
X539300Y1207454D01*
X537580Y1208446D01*
X535663Y1208960D01*
X533677D01*
X531760Y1208446D01*
X530040Y1207454D01*
X529165Y1206578D01*
X528320Y1206194D01*
X527475Y1206578D01*
X526600Y1207454D01*
X524880Y1208446D01*
X522963Y1208960D01*
X520977D01*
X519060Y1208446D01*
X517340Y1207454D01*
X516465Y1206578D01*
X515620Y1206194D01*
X514775Y1206578D01*
X513900Y1207454D01*
X512180Y1208446D01*
X510263Y1208960D01*
X508277D01*
X506360Y1208446D01*
X504640Y1207454D01*
X503765Y1206578D01*
X502920Y1206194D01*
X502075Y1206578D01*
X501200Y1207454D01*
X499480Y1208446D01*
X497563Y1208960D01*
X495577D01*
X493660Y1208446D01*
X491940Y1207454D01*
X490536Y1206050D01*
X489544Y1204330D01*
X489030Y1202413D01*
Y1200427D01*
X489544Y1198510D01*
X490536Y1196790D01*
X491940Y1195387D01*
X493660Y1194394D01*
X495577Y1193880D01*
X497563D01*
X499480Y1194394D01*
X501200Y1195387D01*
X502075Y1196262D01*
X502920Y1196646D01*
X503765Y1196262D01*
X504640Y1195387D01*
X506360Y1194394D01*
X508277Y1193880D01*
X510263D01*
X512180Y1194394D01*
X513900Y1195387D01*
X514775Y1196262D01*
X515620Y1196646D01*
X516465Y1196262D01*
X517340Y1195387D01*
X519060Y1194394D01*
X520977Y1193880D01*
X522963D01*
X524880Y1194394D01*
X526600Y1195387D01*
X527475Y1196262D01*
X528320Y1196646D01*
X529165Y1196262D01*
X530040Y1195387D01*
X531760Y1194394D01*
X533677Y1193880D01*
X535663D01*
X537580Y1194394D01*
X539300Y1195387D01*
X540175Y1196262D01*
X541020Y1196646D01*
X541865Y1196262D01*
X542740Y1195387D01*
X544460Y1194394D01*
X546377Y1193880D01*
X548363D01*
X550280Y1194394D01*
X552000Y1195387D01*
X552875Y1196262D01*
X553720Y1196646D01*
X554565Y1196262D01*
X555440Y1195387D01*
X557160Y1194394D01*
X559077Y1193880D01*
X561063D01*
X562980Y1194394D01*
X564700Y1195387D01*
X565575Y1196262D01*
X566420Y1196646D01*
X567265Y1196262D01*
X568140Y1195387D01*
X569860Y1194394D01*
X571777Y1193880D01*
X573763D01*
X575680Y1194394D01*
X577400Y1195387D01*
X578275Y1196262D01*
X579120Y1196646D01*
X579965Y1196262D01*
X580840Y1195387D01*
X582560Y1194394D01*
X584477Y1193880D01*
X586463D01*
X588380Y1194394D01*
X590100Y1195387D01*
X590975Y1196262D01*
X591820Y1196646D01*
X592665Y1196262D01*
X593540Y1195387D01*
X595260Y1194394D01*
X596874Y1193961D01*
X597127Y1193582D01*
X614970Y1175740D01*
X615370Y1175472D01*
X614985Y1174202D01*
X163830D01*
X162096Y1173857D01*
X160625Y1172875D01*
X160625Y1172875D01*
X146050Y1158299D01*
X101052Y1203297D01*
Y1352297D01*
X101650Y1352545D01*
X102322Y1352714D01*
X104372Y1351531D01*
X106729Y1350899D01*
X109171D01*
X111529Y1351531D01*
X113643Y1352751D01*
X115369Y1354478D01*
X115471Y1354654D01*
X116741Y1354314D01*
Y1291724D01*
X115471Y1290941D01*
X115437Y1290955D01*
X113163D01*
X111063Y1290085D01*
X109455Y1288477D01*
X108585Y1286377D01*
Y1284103D01*
X109455Y1282003D01*
X111063Y1280395D01*
X113163Y1279525D01*
X115437D01*
X115684Y1279628D01*
X116741Y1278922D01*
Y1202690D01*
X117135Y1200708D01*
X118258Y1199027D01*
X129607Y1187678D01*
X131288Y1186555D01*
X133270Y1186161D01*
X388985D01*
X390967Y1186555D01*
X392648Y1187678D01*
X398553Y1193582D01*
X398806Y1193961D01*
X400420Y1194394D01*
X402140Y1195387D01*
X403015Y1196262D01*
X403860Y1196646D01*
X404705Y1196262D01*
X405580Y1195387D01*
X407300Y1194394D01*
X409217Y1193880D01*
X411203D01*
X413120Y1194394D01*
X414840Y1195387D01*
X415715Y1196262D01*
X416560Y1196646D01*
X417405Y1196262D01*
X418280Y1195387D01*
X420000Y1194394D01*
X421917Y1193880D01*
X423903D01*
X425820Y1194394D01*
X427540Y1195387D01*
X428943Y1196790D01*
X429936Y1198510D01*
X430450Y1200427D01*
Y1202413D01*
X429936Y1204330D01*
X428943Y1206050D01*
X427540Y1207454D01*
X425820Y1208446D01*
X423903Y1208960D01*
X421917D01*
X420000Y1208446D01*
X418280Y1207454D01*
X417405Y1206578D01*
X416560Y1206194D01*
X415715Y1206578D01*
X414840Y1207454D01*
X413120Y1208446D01*
X411203Y1208960D01*
X409217D01*
X407300Y1208446D01*
X405580Y1207454D01*
X404705Y1206578D01*
X403860Y1206194D01*
X403015Y1206578D01*
X402140Y1207454D01*
X400420Y1208446D01*
X398503Y1208960D01*
X396517D01*
X394600Y1208446D01*
X392880Y1207454D01*
X392005Y1206578D01*
X391160Y1206194D01*
X390315Y1206578D01*
X389440Y1207454D01*
X387720Y1208446D01*
X385803Y1208960D01*
X383817D01*
X381900Y1208446D01*
X380180Y1207454D01*
X379305Y1206578D01*
X378460Y1206194D01*
X377615Y1206578D01*
X376740Y1207454D01*
X375020Y1208446D01*
X373103Y1208960D01*
X371117D01*
X369200Y1208446D01*
X367480Y1207454D01*
X366605Y1206578D01*
X365760Y1206194D01*
X364915Y1206578D01*
X364040Y1207454D01*
X362320Y1208446D01*
X360403Y1208960D01*
X358417D01*
X356500Y1208446D01*
X354780Y1207454D01*
X353905Y1206578D01*
X353060Y1206194D01*
X352215Y1206578D01*
X351340Y1207454D01*
X349620Y1208446D01*
X347703Y1208960D01*
X345717D01*
X343800Y1208446D01*
X342080Y1207454D01*
X341205Y1206578D01*
X340360Y1206194D01*
X339515Y1206578D01*
X338640Y1207454D01*
X336920Y1208446D01*
X335003Y1208960D01*
X333017D01*
X331100Y1208446D01*
X329380Y1207454D01*
X328505Y1206578D01*
X327660Y1206194D01*
X326815Y1206578D01*
X325940Y1207454D01*
X324220Y1208446D01*
X322303Y1208960D01*
X320317D01*
X318400Y1208446D01*
X316680Y1207454D01*
X315805Y1206578D01*
X314960Y1206194D01*
X314115Y1206578D01*
X313240Y1207454D01*
X311520Y1208446D01*
X309603Y1208960D01*
X307617D01*
X305700Y1208446D01*
X303980Y1207454D01*
X303105Y1206578D01*
X302260Y1206194D01*
X301415Y1206578D01*
X300540Y1207454D01*
X298820Y1208446D01*
X296903Y1208960D01*
X294917D01*
X293000Y1208446D01*
X291280Y1207454D01*
X290405Y1206578D01*
X289560Y1206194D01*
X288715Y1206578D01*
X287840Y1207454D01*
X286120Y1208446D01*
X284203Y1208960D01*
X282217D01*
X280300Y1208446D01*
X278580Y1207454D01*
X277705Y1206578D01*
X276860Y1206194D01*
X276015Y1206578D01*
X275140Y1207454D01*
X273420Y1208446D01*
X271503Y1208960D01*
X269517D01*
X267600Y1208446D01*
X265880Y1207454D01*
X265005Y1206578D01*
X264160Y1206194D01*
X263315Y1206578D01*
X262440Y1207454D01*
X260720Y1208446D01*
X258803Y1208960D01*
X256817D01*
X254900Y1208446D01*
X253180Y1207454D01*
X252305Y1206578D01*
X251460Y1206194D01*
X250615Y1206578D01*
X249740Y1207454D01*
X248020Y1208446D01*
X246103Y1208960D01*
X244117D01*
X242200Y1208446D01*
X240480Y1207454D01*
X239605Y1206578D01*
X238760Y1206194D01*
X237915Y1206578D01*
X237040Y1207454D01*
X235320Y1208446D01*
X233403Y1208960D01*
X231417D01*
X229500Y1208446D01*
X227780Y1207454D01*
X226905Y1206578D01*
X226060Y1206194D01*
X225215Y1206578D01*
X224340Y1207454D01*
X222620Y1208446D01*
X220703Y1208960D01*
X218717D01*
X216800Y1208446D01*
X215080Y1207454D01*
X214205Y1206578D01*
X213360Y1206194D01*
X212515Y1206578D01*
X211640Y1207454D01*
X209920Y1208446D01*
X208003Y1208960D01*
X206017D01*
X204100Y1208446D01*
X202380Y1207454D01*
X201505Y1206578D01*
X200660Y1206194D01*
X199815Y1206578D01*
X198940Y1207454D01*
X197220Y1208446D01*
X195303Y1208960D01*
X193317D01*
X191400Y1208446D01*
X189680Y1207454D01*
X188277Y1206050D01*
X187284Y1204330D01*
X186770Y1202413D01*
Y1200427D01*
X187284Y1198510D01*
X187700Y1197790D01*
X186966Y1196519D01*
X135415D01*
X127100Y1204835D01*
Y1244249D01*
X128370Y1244399D01*
X129336Y1240374D01*
X131304Y1235624D01*
X133990Y1231239D01*
X137330Y1227329D01*
X141239Y1223990D01*
X145624Y1221303D01*
X150374Y1219336D01*
X155374Y1218135D01*
X159251Y1217830D01*
X160500Y1217732D01*
X161770Y1217781D01*
X807986D01*
Y1217732D01*
X813112Y1218135D01*
X818112Y1219336D01*
X822862Y1221303D01*
X827246Y1223990D01*
X831156Y1227329D01*
X834496Y1231239D01*
X837182Y1235624D01*
X839150Y1240374D01*
X840351Y1245374D01*
X840754Y1250500D01*
X840705D01*
X840705Y1787781D01*
X965267D01*
Y1241626D01*
D02*
G37*
G36*
X535305Y1149926D02*
Y1149483D01*
X535676Y1148588D01*
X534970Y1147532D01*
X530849D01*
X524557Y1153825D01*
X523086Y1154807D01*
X521352Y1155152D01*
X509010D01*
X508697Y1155465D01*
X506597Y1156335D01*
X506154D01*
X498525Y1163965D01*
X499011Y1165138D01*
X520093D01*
X535305Y1149926D01*
D02*
G37*
G36*
X404445Y1163965D02*
X382933Y1142452D01*
X356570D01*
X355864Y1143508D01*
X356235Y1144403D01*
Y1146677D01*
X355365Y1148777D01*
X353757Y1150385D01*
X351657Y1151255D01*
X351214D01*
X338505Y1163965D01*
X338991Y1165138D01*
X403959D01*
X404445Y1163965D01*
D02*
G37*
G36*
X344805Y1144846D02*
Y1144403D01*
X345176Y1143508D01*
X344470Y1142452D01*
X324457D01*
X320675Y1146234D01*
Y1146677D01*
X319805Y1148777D01*
X318197Y1150385D01*
X316097Y1151255D01*
X315654D01*
X303041Y1163868D01*
X303105Y1164356D01*
X303485Y1165138D01*
X324513D01*
X344805Y1144846D01*
D02*
G37*
G36*
X309245D02*
Y1144403D01*
X310115Y1142303D01*
X311723Y1140695D01*
X313823Y1139825D01*
X314266D01*
X316815Y1137275D01*
X316329Y1136102D01*
X281277D01*
X279459Y1137920D01*
X281364Y1139825D01*
X281807D01*
X283907Y1140695D01*
X285515Y1142303D01*
X286385Y1144403D01*
Y1146677D01*
X285515Y1148777D01*
X283907Y1150385D01*
X281807Y1151255D01*
X279533D01*
X277433Y1150385D01*
X275825Y1148777D01*
X274955Y1146677D01*
Y1146234D01*
X271173Y1142452D01*
X161191D01*
X160705Y1143625D01*
X173327Y1156248D01*
X297843D01*
X309245Y1144846D01*
D02*
G37*
G36*
X499745Y1149926D02*
Y1149483D01*
X500615Y1147383D01*
X502223Y1145775D01*
X504323Y1144905D01*
X506597D01*
X508697Y1145775D01*
X509010Y1146088D01*
X519475D01*
X525767Y1139795D01*
X527238Y1138813D01*
X528972Y1138468D01*
X552450D01*
X554184Y1138813D01*
X555655Y1139795D01*
X567027Y1151168D01*
X668683D01*
X683845Y1136005D01*
X683359Y1134832D01*
X648710D01*
X648397Y1135145D01*
X646297Y1136015D01*
X644023D01*
X641923Y1135145D01*
X641610Y1134832D01*
X478127D01*
X461645Y1151314D01*
Y1151757D01*
X460775Y1153857D01*
X459167Y1155465D01*
X457067Y1156335D01*
X454793D01*
X452693Y1155465D01*
X452380Y1155152D01*
X410111D01*
X409625Y1156325D01*
X412087Y1158788D01*
X490883D01*
X499745Y1149926D01*
D02*
G37*
G36*
X750347Y1173049D02*
X745732Y1168434D01*
X744834Y1167090D01*
X744518Y1165504D01*
Y1162810D01*
X743185Y1161477D01*
X742315Y1159377D01*
Y1157103D01*
X743185Y1155003D01*
X744793Y1153395D01*
X746893Y1152525D01*
X748879D01*
X749490Y1152080D01*
X749935Y1151469D01*
Y1149483D01*
X750805Y1147383D01*
X752413Y1145775D01*
X754513Y1144905D01*
X756787D01*
X758887Y1145775D01*
X760495Y1147383D01*
X761365Y1149483D01*
Y1151757D01*
X761001Y1152635D01*
X761973Y1153607D01*
X762133Y1153541D01*
X764407D01*
X764517Y1153586D01*
X765489Y1152614D01*
X765130Y1151748D01*
Y1149475D01*
X766000Y1147374D01*
X767607Y1145766D01*
X769708Y1144896D01*
X771622D01*
X772107Y1144736D01*
X772795Y1143859D01*
Y1142236D01*
X773665Y1140135D01*
X775273Y1138527D01*
X777373Y1137657D01*
X779647D01*
X780415Y1137144D01*
Y1136501D01*
X780786Y1135606D01*
X780080Y1134550D01*
X744164D01*
X742779Y1135475D01*
X741045Y1135820D01*
X735070D01*
X734757Y1136133D01*
X732657Y1137003D01*
X732214D01*
X696343Y1172875D01*
X696226Y1172952D01*
X696611Y1174222D01*
X749861D01*
X750347Y1173049D01*
D02*
G37*
G36*
X725805Y1130594D02*
Y1130151D01*
X726176Y1129256D01*
X725470Y1128200D01*
X719726D01*
X715692Y1132235D01*
X714221Y1133217D01*
X712487Y1133562D01*
X700780D01*
X700467Y1133875D01*
X698367Y1134745D01*
X697924D01*
X673765Y1158905D01*
X672294Y1159887D01*
X670560Y1160232D01*
X565150D01*
X565150Y1160232D01*
X563416Y1159887D01*
X561945Y1158905D01*
X561945Y1158905D01*
X550573Y1147532D01*
X547070D01*
X546364Y1148588D01*
X546735Y1149483D01*
Y1151757D01*
X545865Y1153857D01*
X544257Y1155465D01*
X542157Y1156335D01*
X541714D01*
X534085Y1163965D01*
X534571Y1165138D01*
X691261D01*
X725805Y1130594D01*
D02*
G37*
%LPC*%
G36*
X27222Y1761170D02*
X24578D01*
X22025Y1760486D01*
X19735Y1759164D01*
X17866Y1757295D01*
X16544Y1755005D01*
X15860Y1752452D01*
Y1749808D01*
X16544Y1747255D01*
X17866Y1744965D01*
X19735Y1743096D01*
X22025Y1741774D01*
X24578Y1741090D01*
X27222D01*
X29775Y1741774D01*
X32065Y1743096D01*
X33934Y1744965D01*
X35256Y1747255D01*
X35940Y1749808D01*
Y1752452D01*
X35256Y1755005D01*
X33934Y1757295D01*
X32065Y1759164D01*
X29775Y1760486D01*
X27222Y1761170D01*
D02*
G37*
G36*
Y1735770D02*
X24578D01*
X22025Y1735086D01*
X19735Y1733764D01*
X17866Y1731895D01*
X16544Y1729605D01*
X15860Y1727052D01*
Y1724408D01*
X16544Y1721855D01*
X17866Y1719565D01*
X19735Y1717696D01*
X22025Y1716374D01*
X24578Y1715690D01*
X27222D01*
X29775Y1716374D01*
X32065Y1717696D01*
X33934Y1719565D01*
X35256Y1721855D01*
X35940Y1724408D01*
Y1727052D01*
X35256Y1729605D01*
X33934Y1731895D01*
X32065Y1733764D01*
X29775Y1735086D01*
X27222Y1735770D01*
D02*
G37*
G36*
Y1710370D02*
X24578D01*
X22025Y1709686D01*
X19735Y1708364D01*
X17866Y1706495D01*
X16544Y1704205D01*
X15860Y1701652D01*
Y1699008D01*
X16544Y1696455D01*
X17866Y1694165D01*
X19735Y1692296D01*
X22025Y1690974D01*
X24578Y1690290D01*
X27222D01*
X29775Y1690974D01*
X32065Y1692296D01*
X33934Y1694165D01*
X35256Y1696455D01*
X35940Y1699008D01*
Y1701652D01*
X35256Y1704205D01*
X33934Y1706495D01*
X32065Y1708364D01*
X29775Y1709686D01*
X27222Y1710370D01*
D02*
G37*
G36*
X110441Y1692021D02*
X107999D01*
X105641Y1691389D01*
X103527Y1690169D01*
X101801Y1688443D01*
X100581Y1686328D01*
X99949Y1683970D01*
Y1681530D01*
X100581Y1679171D01*
X101801Y1677057D01*
X103527Y1675331D01*
X105641Y1674111D01*
X107999Y1673479D01*
X110441D01*
X112799Y1674111D01*
X114913Y1675331D01*
X116639Y1677057D01*
X117859Y1679171D01*
X118491Y1681530D01*
Y1683970D01*
X117859Y1686328D01*
X116639Y1688443D01*
X114913Y1690169D01*
X112799Y1691389D01*
X110441Y1692021D01*
D02*
G37*
G36*
X27222Y1684970D02*
X24578D01*
X22025Y1684286D01*
X19735Y1682964D01*
X17866Y1681095D01*
X16544Y1678805D01*
X15860Y1676252D01*
Y1673608D01*
X16544Y1671055D01*
X17866Y1668765D01*
X19735Y1666896D01*
X22025Y1665574D01*
X24578Y1664890D01*
X27222D01*
X29775Y1665574D01*
X32065Y1666896D01*
X33934Y1668765D01*
X35256Y1671055D01*
X35940Y1673608D01*
Y1676252D01*
X35256Y1678805D01*
X33934Y1681095D01*
X32065Y1682964D01*
X29775Y1684286D01*
X27222Y1684970D01*
D02*
G37*
G36*
X85041Y1666621D02*
X82599D01*
X80241Y1665989D01*
X78127Y1664769D01*
X76401Y1663042D01*
X75181Y1660928D01*
X74549Y1658571D01*
Y1656129D01*
X75181Y1653772D01*
X76401Y1651658D01*
X78127Y1649931D01*
X80241Y1648711D01*
X82599Y1648079D01*
X85041D01*
X87399Y1648711D01*
X89513Y1649931D01*
X91239Y1651658D01*
X92459Y1653772D01*
X93091Y1656129D01*
Y1658571D01*
X92459Y1660928D01*
X91239Y1663042D01*
X89513Y1664769D01*
X87399Y1665989D01*
X85041Y1666621D01*
D02*
G37*
G36*
X27222Y1659570D02*
X24578D01*
X22025Y1658886D01*
X19735Y1657564D01*
X17866Y1655695D01*
X16544Y1653405D01*
X15860Y1650852D01*
Y1648208D01*
X16544Y1645655D01*
X17866Y1643365D01*
X19735Y1641496D01*
X22025Y1640174D01*
X24578Y1639490D01*
X27222D01*
X29775Y1640174D01*
X32065Y1641496D01*
X33934Y1643365D01*
X35256Y1645655D01*
X35940Y1648208D01*
Y1650852D01*
X35256Y1653405D01*
X33934Y1655695D01*
X32065Y1657564D01*
X29775Y1658886D01*
X27222Y1659570D01*
D02*
G37*
G36*
Y1634170D02*
X24578D01*
X22025Y1633486D01*
X19735Y1632164D01*
X17866Y1630295D01*
X16544Y1628005D01*
X15860Y1625452D01*
Y1622808D01*
X16544Y1620255D01*
X17866Y1617965D01*
X19735Y1616096D01*
X22025Y1614774D01*
X24578Y1614090D01*
X27222D01*
X29775Y1614774D01*
X32065Y1616096D01*
X33934Y1617965D01*
X35256Y1620255D01*
X35940Y1622808D01*
Y1625452D01*
X35256Y1628005D01*
X33934Y1630295D01*
X32065Y1632164D01*
X29775Y1633486D01*
X27222Y1634170D01*
D02*
G37*
G36*
Y1608770D02*
X24578D01*
X22025Y1608086D01*
X19735Y1606764D01*
X17866Y1604895D01*
X16544Y1602605D01*
X15860Y1600052D01*
Y1597408D01*
X16544Y1594855D01*
X17866Y1592565D01*
X19735Y1590696D01*
X22025Y1589374D01*
X24578Y1588690D01*
X27222D01*
X29775Y1589374D01*
X32065Y1590696D01*
X33934Y1592565D01*
X35256Y1594855D01*
X35940Y1597408D01*
Y1600052D01*
X35256Y1602605D01*
X33934Y1604895D01*
X32065Y1606764D01*
X29775Y1608086D01*
X27222Y1608770D01*
D02*
G37*
G36*
Y1583370D02*
X24578D01*
X22025Y1582686D01*
X19735Y1581364D01*
X17866Y1579495D01*
X16544Y1577205D01*
X15860Y1574652D01*
Y1572008D01*
X16544Y1569455D01*
X17866Y1567165D01*
X19735Y1565296D01*
X22025Y1563974D01*
X24578Y1563290D01*
X27222D01*
X29775Y1563974D01*
X32065Y1565296D01*
X33934Y1567165D01*
X35256Y1569455D01*
X35940Y1572008D01*
Y1574652D01*
X35256Y1577205D01*
X33934Y1579495D01*
X32065Y1581364D01*
X29775Y1582686D01*
X27222Y1583370D01*
D02*
G37*
G36*
Y1557970D02*
X24578D01*
X22025Y1557286D01*
X19735Y1555964D01*
X17866Y1554095D01*
X16544Y1551805D01*
X15860Y1549252D01*
Y1546608D01*
X16544Y1544055D01*
X17866Y1541765D01*
X19735Y1539896D01*
X22025Y1538574D01*
X24578Y1537890D01*
X27222D01*
X29775Y1538574D01*
X32065Y1539896D01*
X33934Y1541765D01*
X35256Y1544055D01*
X35940Y1546608D01*
Y1549252D01*
X35256Y1551805D01*
X33934Y1554095D01*
X32065Y1555964D01*
X29775Y1557286D01*
X27222Y1557970D01*
D02*
G37*
G36*
Y1532570D02*
X24578D01*
X22025Y1531886D01*
X19735Y1530564D01*
X17866Y1528695D01*
X16544Y1526405D01*
X15860Y1523852D01*
Y1521208D01*
X16544Y1518655D01*
X17866Y1516365D01*
X19735Y1514496D01*
X22025Y1513174D01*
X24578Y1512490D01*
X27222D01*
X29775Y1513174D01*
X32065Y1514496D01*
X33934Y1516365D01*
X35256Y1518655D01*
X35940Y1521208D01*
Y1523852D01*
X35256Y1526405D01*
X33934Y1528695D01*
X32065Y1530564D01*
X29775Y1531886D01*
X27222Y1532570D01*
D02*
G37*
G36*
Y1507170D02*
X24578D01*
X22025Y1506486D01*
X19735Y1505164D01*
X17866Y1503295D01*
X16544Y1501005D01*
X15860Y1498452D01*
Y1495808D01*
X16544Y1493255D01*
X17866Y1490965D01*
X19735Y1489096D01*
X22025Y1487774D01*
X24578Y1487090D01*
X27222D01*
X29775Y1487774D01*
X32065Y1489096D01*
X33934Y1490965D01*
X35256Y1493255D01*
X35940Y1495808D01*
Y1498452D01*
X35256Y1501005D01*
X33934Y1503295D01*
X32065Y1505164D01*
X29775Y1506486D01*
X27222Y1507170D01*
D02*
G37*
G36*
Y1481770D02*
X24578D01*
X22025Y1481086D01*
X19735Y1479764D01*
X17866Y1477895D01*
X16544Y1475605D01*
X15860Y1473052D01*
Y1470408D01*
X16544Y1467855D01*
X17866Y1465565D01*
X19735Y1463696D01*
X22025Y1462374D01*
X24578Y1461690D01*
X27222D01*
X29775Y1462374D01*
X32065Y1463696D01*
X33934Y1465565D01*
X35256Y1467855D01*
X35940Y1470408D01*
Y1473052D01*
X35256Y1475605D01*
X33934Y1477895D01*
X32065Y1479764D01*
X29775Y1481086D01*
X27222Y1481770D01*
D02*
G37*
G36*
Y1456370D02*
X24578D01*
X22025Y1455686D01*
X19735Y1454364D01*
X17866Y1452495D01*
X16544Y1450205D01*
X15860Y1447652D01*
Y1445008D01*
X16544Y1442455D01*
X17866Y1440165D01*
X19735Y1438296D01*
X22025Y1436974D01*
X24578Y1436290D01*
X27222D01*
X29775Y1436974D01*
X32065Y1438296D01*
X33934Y1440165D01*
X35256Y1442455D01*
X35940Y1445008D01*
Y1447652D01*
X35256Y1450205D01*
X33934Y1452495D01*
X32065Y1454364D01*
X29775Y1455686D01*
X27222Y1456370D01*
D02*
G37*
G36*
Y1430970D02*
X24578D01*
X22025Y1430286D01*
X19735Y1428964D01*
X17866Y1427095D01*
X16544Y1424805D01*
X15860Y1422252D01*
Y1419608D01*
X16544Y1417055D01*
X17866Y1414765D01*
X19735Y1412896D01*
X22025Y1411574D01*
X24578Y1410890D01*
X27222D01*
X29775Y1411574D01*
X32065Y1412896D01*
X33934Y1414765D01*
X35256Y1417055D01*
X35940Y1419608D01*
Y1422252D01*
X35256Y1424805D01*
X33934Y1427095D01*
X32065Y1428964D01*
X29775Y1430286D01*
X27222Y1430970D01*
D02*
G37*
G36*
Y1405570D02*
X24578D01*
X22025Y1404886D01*
X19735Y1403564D01*
X17866Y1401695D01*
X16544Y1399405D01*
X15860Y1396852D01*
Y1394208D01*
X16544Y1391655D01*
X17866Y1389365D01*
X19735Y1387496D01*
X22025Y1386174D01*
X24578Y1385490D01*
X27222D01*
X29775Y1386174D01*
X32065Y1387496D01*
X33934Y1389365D01*
X35256Y1391655D01*
X35940Y1394208D01*
Y1396852D01*
X35256Y1399405D01*
X33934Y1401695D01*
X32065Y1403564D01*
X29775Y1404886D01*
X27222Y1405570D01*
D02*
G37*
G36*
Y1380170D02*
X24578D01*
X22025Y1379486D01*
X19735Y1378164D01*
X17866Y1376295D01*
X16544Y1374005D01*
X15860Y1371452D01*
Y1368808D01*
X16544Y1366255D01*
X17866Y1363965D01*
X19735Y1362096D01*
X22025Y1360774D01*
X24578Y1360090D01*
X27222D01*
X29775Y1360774D01*
X32065Y1362096D01*
X33934Y1363965D01*
X35256Y1366255D01*
X35940Y1368808D01*
Y1371452D01*
X35256Y1374005D01*
X33934Y1376295D01*
X32065Y1378164D01*
X29775Y1379486D01*
X27222Y1380170D01*
D02*
G37*
G36*
Y1354770D02*
X24578D01*
X22025Y1354086D01*
X19735Y1352764D01*
X17866Y1350895D01*
X16544Y1348605D01*
X15860Y1346052D01*
Y1343408D01*
X16544Y1340855D01*
X17866Y1338565D01*
X19735Y1336696D01*
X22025Y1335374D01*
X24578Y1334690D01*
X27222D01*
X29775Y1335374D01*
X32065Y1336696D01*
X33934Y1338565D01*
X35256Y1340855D01*
X35940Y1343408D01*
Y1346052D01*
X35256Y1348605D01*
X33934Y1350895D01*
X32065Y1352764D01*
X29775Y1354086D01*
X27222Y1354770D01*
D02*
G37*
G36*
Y1329370D02*
X24578D01*
X22025Y1328686D01*
X19735Y1327364D01*
X17866Y1325495D01*
X16544Y1323205D01*
X15860Y1320652D01*
Y1318008D01*
X16544Y1315455D01*
X17866Y1313165D01*
X19735Y1311296D01*
X22025Y1309974D01*
X24578Y1309290D01*
X27222D01*
X29775Y1309974D01*
X32065Y1311296D01*
X33934Y1313165D01*
X35256Y1315455D01*
X35940Y1318008D01*
Y1320652D01*
X35256Y1323205D01*
X33934Y1325495D01*
X32065Y1327364D01*
X29775Y1328686D01*
X27222Y1329370D01*
D02*
G37*
G36*
Y1303970D02*
X24578D01*
X22025Y1303286D01*
X19735Y1301964D01*
X17866Y1300095D01*
X16544Y1297805D01*
X15860Y1295252D01*
Y1292608D01*
X16544Y1290055D01*
X17866Y1287765D01*
X19735Y1285896D01*
X22025Y1284574D01*
X24578Y1283890D01*
X27222D01*
X29775Y1284574D01*
X32065Y1285896D01*
X33934Y1287765D01*
X35256Y1290055D01*
X35940Y1292608D01*
Y1295252D01*
X35256Y1297805D01*
X33934Y1300095D01*
X32065Y1301964D01*
X29775Y1303286D01*
X27222Y1303970D01*
D02*
G37*
G36*
Y1278570D02*
X24578D01*
X22025Y1277886D01*
X19735Y1276564D01*
X17866Y1274695D01*
X16544Y1272405D01*
X15860Y1269852D01*
Y1267208D01*
X16544Y1264655D01*
X17866Y1262365D01*
X19735Y1260496D01*
X22025Y1259174D01*
X24578Y1258490D01*
X27222D01*
X29775Y1259174D01*
X32065Y1260496D01*
X33934Y1262365D01*
X35256Y1264655D01*
X35940Y1267208D01*
Y1269852D01*
X35256Y1272405D01*
X33934Y1274695D01*
X32065Y1276564D01*
X29775Y1277886D01*
X27222Y1278570D01*
D02*
G37*
G36*
X876778Y1106523D02*
X873768D01*
X870861Y1105744D01*
X868255Y1104239D01*
X866127Y1102111D01*
X864622Y1099505D01*
X863843Y1096598D01*
Y1093588D01*
X864622Y1090681D01*
X866127Y1088075D01*
X868255Y1085947D01*
X870861Y1084442D01*
X873768Y1083663D01*
X876778D01*
X879685Y1084442D01*
X882291Y1085947D01*
X884419Y1088075D01*
X885924Y1090681D01*
X886703Y1093588D01*
Y1096598D01*
X885924Y1099505D01*
X884419Y1102111D01*
X882291Y1104239D01*
X879685Y1105744D01*
X876778Y1106523D01*
D02*
G37*
G36*
X69058D02*
X66048D01*
X63141Y1105744D01*
X60535Y1104239D01*
X58407Y1102111D01*
X56902Y1099505D01*
X56123Y1096598D01*
Y1093588D01*
X56902Y1090681D01*
X58407Y1088075D01*
X60535Y1085947D01*
X63141Y1084442D01*
X66048Y1083663D01*
X69058D01*
X71965Y1084442D01*
X74571Y1085947D01*
X76699Y1088075D01*
X78204Y1090681D01*
X78983Y1093588D01*
Y1096598D01*
X78204Y1099505D01*
X76699Y1102111D01*
X74571Y1104239D01*
X71965Y1105744D01*
X69058Y1106523D01*
D02*
G37*
G36*
X902180Y1106521D02*
X899170D01*
X896263Y1105742D01*
X893657Y1104237D01*
X891529Y1102109D01*
X890024Y1099503D01*
X889245Y1096596D01*
Y1093586D01*
X890024Y1090679D01*
X891529Y1088073D01*
X893657Y1085945D01*
X896263Y1084440D01*
X899170Y1083661D01*
X902180D01*
X905087Y1084440D01*
X907693Y1085945D01*
X909821Y1088073D01*
X911326Y1090679D01*
X912105Y1093586D01*
Y1096596D01*
X911326Y1099503D01*
X909821Y1102109D01*
X907693Y1104237D01*
X905087Y1105742D01*
X902180Y1106521D01*
D02*
G37*
G36*
X914265Y1058863D02*
X910963D01*
X907774Y1058008D01*
X904914Y1056357D01*
X902579Y1054023D01*
X900929Y1051163D01*
X900074Y1047974D01*
Y1044672D01*
X900929Y1041483D01*
X902579Y1038623D01*
X904914Y1036289D01*
X907774Y1034638D01*
X910963Y1033783D01*
X914265D01*
X917454Y1034638D01*
X920314Y1036289D01*
X922648Y1038623D01*
X924299Y1041483D01*
X925154Y1044672D01*
Y1047974D01*
X924299Y1051163D01*
X922648Y1054023D01*
X920314Y1056357D01*
X917454Y1058008D01*
X914265Y1058863D01*
D02*
G37*
G36*
X814444D02*
X811142D01*
X807953Y1058008D01*
X805093Y1056357D01*
X802758Y1054023D01*
X801108Y1051163D01*
X800253Y1047974D01*
Y1044672D01*
X801108Y1041483D01*
X802758Y1038623D01*
X805093Y1036289D01*
X807953Y1034638D01*
X811142Y1033783D01*
X814444D01*
X817633Y1034638D01*
X820493Y1036289D01*
X822828Y1038623D01*
X824478Y1041483D01*
X825333Y1044672D01*
Y1047974D01*
X824478Y1051163D01*
X822828Y1054023D01*
X820493Y1056357D01*
X817633Y1058008D01*
X814444Y1058863D01*
D02*
G37*
G36*
X725035D02*
X721733D01*
X718544Y1058008D01*
X715684Y1056357D01*
X713350Y1054023D01*
X711699Y1051163D01*
X710844Y1047974D01*
Y1044672D01*
X711699Y1041483D01*
X713350Y1038623D01*
X715684Y1036289D01*
X718544Y1034638D01*
X721733Y1033783D01*
X725035D01*
X728224Y1034638D01*
X731084Y1036289D01*
X733419Y1038623D01*
X735069Y1041483D01*
X735924Y1044672D01*
Y1047974D01*
X735069Y1051163D01*
X733419Y1054023D01*
X731084Y1056357D01*
X728224Y1058008D01*
X725035Y1058863D01*
D02*
G37*
G36*
X625214D02*
X621912D01*
X618723Y1058008D01*
X615863Y1056357D01*
X613529Y1054023D01*
X611878Y1051163D01*
X611023Y1047974D01*
Y1044672D01*
X611878Y1041483D01*
X613529Y1038623D01*
X615863Y1036289D01*
X618723Y1034638D01*
X621912Y1033783D01*
X625214D01*
X628403Y1034638D01*
X631263Y1036289D01*
X633597Y1038623D01*
X635248Y1041483D01*
X636103Y1044672D01*
Y1047974D01*
X635248Y1051163D01*
X633597Y1054023D01*
X631263Y1056357D01*
X628403Y1058008D01*
X625214Y1058863D01*
D02*
G37*
G36*
X535805D02*
X532503D01*
X529314Y1058008D01*
X526454Y1056357D01*
X524119Y1054023D01*
X522469Y1051163D01*
X521614Y1047974D01*
Y1044672D01*
X522469Y1041483D01*
X524119Y1038623D01*
X526454Y1036289D01*
X529314Y1034638D01*
X532503Y1033783D01*
X535805D01*
X538994Y1034638D01*
X541854Y1036289D01*
X544188Y1038623D01*
X545839Y1041483D01*
X546694Y1044672D01*
Y1047974D01*
X545839Y1051163D01*
X544188Y1054023D01*
X541854Y1056357D01*
X538994Y1058008D01*
X535805Y1058863D01*
D02*
G37*
G36*
X435984D02*
X432682D01*
X429493Y1058008D01*
X426633Y1056357D01*
X424299Y1054023D01*
X422648Y1051163D01*
X421793Y1047974D01*
Y1044672D01*
X422648Y1041483D01*
X424299Y1038623D01*
X426633Y1036289D01*
X429493Y1034638D01*
X432682Y1033783D01*
X435984D01*
X439173Y1034638D01*
X442033Y1036289D01*
X444367Y1038623D01*
X446018Y1041483D01*
X446873Y1044672D01*
Y1047974D01*
X446018Y1051163D01*
X444367Y1054023D01*
X442033Y1056357D01*
X439173Y1058008D01*
X435984Y1058863D01*
D02*
G37*
G36*
X346575D02*
X343273D01*
X340084Y1058008D01*
X337224Y1056357D01*
X334889Y1054023D01*
X333239Y1051163D01*
X332384Y1047974D01*
Y1044672D01*
X333239Y1041483D01*
X334889Y1038623D01*
X337224Y1036289D01*
X340084Y1034638D01*
X343273Y1033783D01*
X346575D01*
X349764Y1034638D01*
X352624Y1036289D01*
X354958Y1038623D01*
X356609Y1041483D01*
X357464Y1044672D01*
Y1047974D01*
X356609Y1051163D01*
X354958Y1054023D01*
X352624Y1056357D01*
X349764Y1058008D01*
X346575Y1058863D01*
D02*
G37*
G36*
X246754D02*
X243452D01*
X240263Y1058008D01*
X237403Y1056357D01*
X235068Y1054023D01*
X233418Y1051163D01*
X232563Y1047974D01*
Y1044672D01*
X233418Y1041483D01*
X235068Y1038623D01*
X237403Y1036289D01*
X240263Y1034638D01*
X243452Y1033783D01*
X246754D01*
X249943Y1034638D01*
X252803Y1036289D01*
X255138Y1038623D01*
X256788Y1041483D01*
X257643Y1044672D01*
Y1047974D01*
X256788Y1051163D01*
X255138Y1054023D01*
X252803Y1056357D01*
X249943Y1058008D01*
X246754Y1058863D01*
D02*
G37*
G36*
X157345D02*
X154043D01*
X150854Y1058008D01*
X147994Y1056357D01*
X145660Y1054023D01*
X144009Y1051163D01*
X143154Y1047974D01*
Y1044672D01*
X144009Y1041483D01*
X145660Y1038623D01*
X147994Y1036289D01*
X150854Y1034638D01*
X154043Y1033783D01*
X157345D01*
X160534Y1034638D01*
X163394Y1036289D01*
X165728Y1038623D01*
X167379Y1041483D01*
X168234Y1044672D01*
Y1047974D01*
X167379Y1051163D01*
X165728Y1054023D01*
X163394Y1056357D01*
X160534Y1058008D01*
X157345Y1058863D01*
D02*
G37*
G36*
X57524D02*
X54222D01*
X51033Y1058008D01*
X48173Y1056357D01*
X45838Y1054023D01*
X44188Y1051163D01*
X43333Y1047974D01*
Y1044672D01*
X44188Y1041483D01*
X45838Y1038623D01*
X48173Y1036289D01*
X51033Y1034638D01*
X54222Y1033783D01*
X57524D01*
X60713Y1034638D01*
X63573Y1036289D01*
X65908Y1038623D01*
X67558Y1041483D01*
X68413Y1044672D01*
Y1047974D01*
X67558Y1051163D01*
X65908Y1054023D01*
X63573Y1056357D01*
X60713Y1058008D01*
X57524Y1058863D01*
D02*
G37*
G36*
X864829Y1067913D02*
X860577D01*
X856405Y1067083D01*
X852476Y1065456D01*
X848940Y1063093D01*
X845933Y1060086D01*
X843570Y1056550D01*
X841943Y1052621D01*
X841113Y1048449D01*
Y1044197D01*
X841943Y1040025D01*
X843570Y1036096D01*
X845933Y1032560D01*
X848940Y1029553D01*
X852476Y1027190D01*
X856405Y1025563D01*
X860577Y1024733D01*
X864829D01*
X869001Y1025563D01*
X872930Y1027190D01*
X876466Y1029553D01*
X879473Y1032560D01*
X881836Y1036096D01*
X883463Y1040025D01*
X884293Y1044197D01*
Y1048449D01*
X883463Y1052621D01*
X881836Y1056550D01*
X879473Y1060086D01*
X876466Y1063093D01*
X872930Y1065456D01*
X869001Y1067083D01*
X864829Y1067913D01*
D02*
G37*
G36*
X675599D02*
X671347D01*
X667175Y1067083D01*
X663246Y1065456D01*
X659710Y1063093D01*
X656703Y1060086D01*
X654340Y1056550D01*
X652713Y1052621D01*
X651883Y1048449D01*
Y1044197D01*
X652713Y1040025D01*
X654340Y1036096D01*
X656703Y1032560D01*
X659710Y1029553D01*
X663246Y1027190D01*
X667175Y1025563D01*
X671347Y1024733D01*
X675599D01*
X679771Y1025563D01*
X683700Y1027190D01*
X687236Y1029553D01*
X690243Y1032560D01*
X692606Y1036096D01*
X694233Y1040025D01*
X695063Y1044197D01*
Y1048449D01*
X694233Y1052621D01*
X692606Y1056550D01*
X690243Y1060086D01*
X687236Y1063093D01*
X683700Y1065456D01*
X679771Y1067083D01*
X675599Y1067913D01*
D02*
G37*
G36*
X486369D02*
X482117D01*
X477945Y1067083D01*
X474016Y1065456D01*
X470480Y1063093D01*
X467473Y1060086D01*
X465110Y1056550D01*
X463483Y1052621D01*
X462653Y1048449D01*
Y1044197D01*
X463483Y1040025D01*
X465110Y1036096D01*
X467473Y1032560D01*
X470480Y1029553D01*
X474016Y1027190D01*
X477945Y1025563D01*
X482117Y1024733D01*
X486369D01*
X490541Y1025563D01*
X494470Y1027190D01*
X498006Y1029553D01*
X501013Y1032560D01*
X503376Y1036096D01*
X505003Y1040025D01*
X505833Y1044197D01*
Y1048449D01*
X505003Y1052621D01*
X503376Y1056550D01*
X501013Y1060086D01*
X498006Y1063093D01*
X494470Y1065456D01*
X490541Y1067083D01*
X486369Y1067913D01*
D02*
G37*
G36*
X297139D02*
X292887D01*
X288715Y1067083D01*
X284786Y1065456D01*
X281250Y1063093D01*
X278243Y1060086D01*
X275880Y1056550D01*
X274253Y1052621D01*
X273423Y1048449D01*
Y1044197D01*
X274253Y1040025D01*
X275880Y1036096D01*
X278243Y1032560D01*
X281250Y1029553D01*
X284786Y1027190D01*
X288715Y1025563D01*
X292887Y1024733D01*
X297139D01*
X301311Y1025563D01*
X305240Y1027190D01*
X308776Y1029553D01*
X311783Y1032560D01*
X314146Y1036096D01*
X315773Y1040025D01*
X316603Y1044197D01*
Y1048449D01*
X315773Y1052621D01*
X314146Y1056550D01*
X311783Y1060086D01*
X308776Y1063093D01*
X305240Y1065456D01*
X301311Y1067083D01*
X297139Y1067913D01*
D02*
G37*
G36*
X107909D02*
X103657D01*
X99485Y1067083D01*
X95556Y1065456D01*
X92020Y1063093D01*
X89013Y1060086D01*
X86650Y1056550D01*
X85023Y1052621D01*
X84193Y1048449D01*
Y1044197D01*
X85023Y1040025D01*
X86650Y1036096D01*
X89013Y1032560D01*
X92020Y1029553D01*
X95556Y1027190D01*
X99485Y1025563D01*
X103657Y1024733D01*
X107909D01*
X112081Y1025563D01*
X116010Y1027190D01*
X119546Y1029553D01*
X122553Y1032560D01*
X124916Y1036096D01*
X126543Y1040025D01*
X127373Y1044197D01*
Y1048449D01*
X126543Y1052621D01*
X124916Y1056550D01*
X122553Y1060086D01*
X119546Y1063093D01*
X116010Y1065456D01*
X112081Y1067083D01*
X107909Y1067913D01*
D02*
G37*
G36*
X901752Y1033371D02*
X898074D01*
X894521Y1032419D01*
X891335Y1030580D01*
X888734Y1027979D01*
X886895Y1024793D01*
X885943Y1021240D01*
Y1017562D01*
X886895Y1014009D01*
X888734Y1010823D01*
X891335Y1008222D01*
X894521Y1006383D01*
X898074Y1005431D01*
X901752D01*
X905305Y1006383D01*
X908491Y1008222D01*
X911092Y1010823D01*
X912931Y1014009D01*
X913883Y1017562D01*
Y1021240D01*
X912931Y1024793D01*
X911092Y1027979D01*
X908491Y1030580D01*
X905305Y1032419D01*
X901752Y1033371D01*
D02*
G37*
G36*
X712522D02*
X708844D01*
X705291Y1032419D01*
X702105Y1030580D01*
X699504Y1027979D01*
X697665Y1024793D01*
X696713Y1021240D01*
Y1017562D01*
X697665Y1014009D01*
X699504Y1010823D01*
X702105Y1008222D01*
X705291Y1006383D01*
X708844Y1005431D01*
X712522D01*
X716075Y1006383D01*
X719261Y1008222D01*
X721862Y1010823D01*
X723701Y1014009D01*
X724653Y1017562D01*
Y1021240D01*
X723701Y1024793D01*
X721862Y1027979D01*
X719261Y1030580D01*
X716075Y1032419D01*
X712522Y1033371D01*
D02*
G37*
G36*
X523292D02*
X519614D01*
X516061Y1032419D01*
X512875Y1030580D01*
X510274Y1027979D01*
X508435Y1024793D01*
X507483Y1021240D01*
Y1017562D01*
X508435Y1014009D01*
X510274Y1010823D01*
X512875Y1008222D01*
X516061Y1006383D01*
X519614Y1005431D01*
X523292D01*
X526845Y1006383D01*
X530031Y1008222D01*
X532632Y1010823D01*
X534471Y1014009D01*
X535423Y1017562D01*
Y1021240D01*
X534471Y1024793D01*
X532632Y1027979D01*
X530031Y1030580D01*
X526845Y1032419D01*
X523292Y1033371D01*
D02*
G37*
G36*
X334062D02*
X330384D01*
X326831Y1032419D01*
X323645Y1030580D01*
X321044Y1027979D01*
X319205Y1024793D01*
X318253Y1021240D01*
Y1017562D01*
X319205Y1014009D01*
X321044Y1010823D01*
X323645Y1008222D01*
X326831Y1006383D01*
X330384Y1005431D01*
X334062D01*
X337615Y1006383D01*
X340801Y1008222D01*
X343402Y1010823D01*
X345241Y1014009D01*
X346193Y1017562D01*
Y1021240D01*
X345241Y1024793D01*
X343402Y1027979D01*
X340801Y1030580D01*
X337615Y1032419D01*
X334062Y1033371D01*
D02*
G37*
G36*
X144832D02*
X141154D01*
X137601Y1032419D01*
X134415Y1030580D01*
X131814Y1027979D01*
X129975Y1024793D01*
X129023Y1021240D01*
Y1017562D01*
X129975Y1014009D01*
X131814Y1010823D01*
X134415Y1008222D01*
X137601Y1006383D01*
X141154Y1005431D01*
X144832D01*
X148385Y1006383D01*
X151571Y1008222D01*
X154172Y1010823D01*
X156011Y1014009D01*
X156963Y1017562D01*
Y1021240D01*
X156011Y1024793D01*
X154172Y1027979D01*
X151571Y1030580D01*
X148385Y1032419D01*
X144832Y1033371D01*
D02*
G37*
G36*
X840032Y1010001D02*
X836354D01*
X832801Y1009049D01*
X829615Y1007210D01*
X827014Y1004609D01*
X825175Y1001423D01*
X824223Y997870D01*
Y994837D01*
X662933D01*
Y997870D01*
X661981Y1001423D01*
X660142Y1004609D01*
X657541Y1007210D01*
X654355Y1009049D01*
X650802Y1010001D01*
X647124D01*
X643571Y1009049D01*
X640385Y1007210D01*
X637784Y1004609D01*
X635945Y1001423D01*
X634993Y997870D01*
Y994837D01*
X473703D01*
Y997870D01*
X472751Y1001423D01*
X470912Y1004609D01*
X468311Y1007210D01*
X465125Y1009049D01*
X461572Y1010001D01*
X457894D01*
X454341Y1009049D01*
X451155Y1007210D01*
X448554Y1004609D01*
X446715Y1001423D01*
X445763Y997870D01*
Y994837D01*
X284473D01*
Y997870D01*
X283521Y1001423D01*
X281682Y1004609D01*
X279081Y1007210D01*
X275895Y1009049D01*
X272342Y1010001D01*
X268664D01*
X265111Y1009049D01*
X261925Y1007210D01*
X259324Y1004609D01*
X257485Y1001423D01*
X256533Y997870D01*
Y994837D01*
X95243D01*
Y997870D01*
X94291Y1001423D01*
X92452Y1004609D01*
X89851Y1007210D01*
X86665Y1009049D01*
X83112Y1010001D01*
X79434D01*
X75881Y1009049D01*
X72695Y1007210D01*
X70094Y1004609D01*
X68255Y1001423D01*
X67303Y997870D01*
Y994192D01*
X68255Y990639D01*
X70094Y987453D01*
X72695Y984852D01*
X75881Y983013D01*
X79434Y982061D01*
X83112D01*
X86665Y983013D01*
X89203Y984478D01*
X262573D01*
X265111Y983013D01*
X268664Y982061D01*
X272342D01*
X275895Y983013D01*
X278433Y984478D01*
X451803D01*
X454341Y983013D01*
X457894Y982061D01*
X461572D01*
X465125Y983013D01*
X467663Y984478D01*
X641033D01*
X643571Y983013D01*
X647124Y982061D01*
X650802D01*
X654355Y983013D01*
X656893Y984478D01*
X830263D01*
X832801Y983013D01*
X836354Y982061D01*
X840032D01*
X843585Y983013D01*
X846771Y984852D01*
X849372Y987453D01*
X851211Y990639D01*
X852163Y994192D01*
Y997870D01*
X851211Y1001423D01*
X849372Y1004609D01*
X846771Y1007210D01*
X843585Y1009049D01*
X840032Y1010001D01*
D02*
G37*
G36*
X876778Y917293D02*
X873768D01*
X870861Y916514D01*
X868255Y915009D01*
X866127Y912881D01*
X864622Y910275D01*
X863843Y907368D01*
Y904358D01*
X864622Y901451D01*
X866127Y898845D01*
X868255Y896717D01*
X870861Y895212D01*
X873768Y894433D01*
X876778D01*
X879685Y895212D01*
X882291Y896717D01*
X884419Y898845D01*
X885924Y901451D01*
X886703Y904358D01*
Y907368D01*
X885924Y910275D01*
X884419Y912881D01*
X882291Y915009D01*
X879685Y916514D01*
X876778Y917293D01*
D02*
G37*
G36*
X265430Y928469D02*
X110380D01*
X108398Y928075D01*
X106718Y926953D01*
X96509Y916743D01*
X94458Y917293D01*
X91448D01*
X88541Y916514D01*
X85935Y915009D01*
X83807Y912881D01*
X82302Y910275D01*
X81523Y907368D01*
Y904358D01*
X82302Y901451D01*
X83807Y898845D01*
X85935Y896717D01*
X88541Y895212D01*
X91448Y894433D01*
X94458D01*
X97365Y895212D01*
X99971Y896717D01*
X102099Y898845D01*
X103604Y901451D01*
X104383Y904358D01*
Y907368D01*
X103834Y909419D01*
X112525Y918111D01*
X114992D01*
X115159Y916841D01*
X113941Y916514D01*
X111335Y915009D01*
X109207Y912881D01*
X107702Y910275D01*
X106923Y907368D01*
Y904358D01*
X107702Y901451D01*
X109207Y898845D01*
X111335Y896717D01*
X113941Y895212D01*
X116848Y894433D01*
X119858D01*
X122765Y895212D01*
X125371Y896717D01*
X127499Y898845D01*
X129004Y901451D01*
X129783Y904358D01*
Y907368D01*
X129004Y910275D01*
X127499Y912881D01*
X125371Y915009D01*
X122765Y916514D01*
X121547Y916841D01*
X121714Y918111D01*
X140402D01*
X140569Y916841D01*
X139343Y916512D01*
X136737Y915007D01*
X134609Y912879D01*
X133104Y910273D01*
X132325Y907366D01*
Y904356D01*
X133104Y901449D01*
X134609Y898843D01*
X136737Y896715D01*
X139343Y895210D01*
X142250Y894431D01*
X145260D01*
X148167Y895210D01*
X150773Y896715D01*
X152901Y898843D01*
X154406Y901449D01*
X155185Y904356D01*
Y907366D01*
X154406Y910273D01*
X152901Y912879D01*
X150773Y915007D01*
X148167Y916512D01*
X146941Y916841D01*
X147108Y918111D01*
X253422D01*
X253589Y916841D01*
X252371Y916514D01*
X249765Y915009D01*
X247637Y912881D01*
X246132Y910275D01*
X245353Y907368D01*
Y904358D01*
X246132Y901451D01*
X247637Y898845D01*
X249765Y896717D01*
X252371Y895212D01*
X255278Y894433D01*
X258288D01*
X261195Y895212D01*
X263801Y896717D01*
X265929Y898845D01*
X267434Y901451D01*
X268213Y904358D01*
Y907368D01*
X267434Y910275D01*
X265929Y912881D01*
X263801Y915009D01*
X261195Y916514D01*
X259977Y916841D01*
X260144Y918111D01*
X263285D01*
X271445Y909950D01*
X270753Y907368D01*
Y904358D01*
X271532Y901451D01*
X273037Y898845D01*
X275165Y896717D01*
X277771Y895212D01*
X280678Y894433D01*
X283688D01*
X286595Y895212D01*
X289201Y896717D01*
X291329Y898845D01*
X292834Y901451D01*
X293613Y904358D01*
Y907368D01*
X293064Y909419D01*
X300009Y916364D01*
X300264Y916302D01*
X300492Y915320D01*
X300494Y914939D01*
X298437Y912881D01*
X296932Y910275D01*
X296153Y907368D01*
Y904358D01*
X296932Y901451D01*
X298437Y898845D01*
X300565Y896717D01*
X303171Y895212D01*
X306078Y894433D01*
X309088D01*
X311995Y895212D01*
X314601Y896717D01*
X316729Y898845D01*
X318234Y901451D01*
X319013Y904358D01*
Y907368D01*
X318234Y910275D01*
X316729Y912881D01*
X314601Y915009D01*
X313629Y915571D01*
X313969Y916841D01*
X326602D01*
X326942Y915571D01*
X325967Y915007D01*
X323839Y912879D01*
X322334Y910273D01*
X321555Y907366D01*
Y904356D01*
X322334Y901449D01*
X323839Y898843D01*
X325967Y896715D01*
X328573Y895210D01*
X331480Y894431D01*
X334490D01*
X337397Y895210D01*
X340003Y896715D01*
X342131Y898843D01*
X343636Y901449D01*
X344415Y904356D01*
Y907366D01*
X343636Y910273D01*
X342131Y912879D01*
X340003Y915007D01*
X339028Y915571D01*
X339368Y916841D01*
X439627D01*
X439967Y915571D01*
X438995Y915009D01*
X436867Y912881D01*
X435362Y910275D01*
X434583Y907368D01*
Y904358D01*
X435362Y901451D01*
X436867Y898845D01*
X438995Y896717D01*
X441601Y895212D01*
X444508Y894433D01*
X447518D01*
X450425Y895212D01*
X453031Y896717D01*
X455159Y898845D01*
X456664Y901451D01*
X457443Y904358D01*
Y907368D01*
X456664Y910275D01*
X455159Y912881D01*
X453031Y915009D01*
X452059Y915571D01*
X452399Y916841D01*
X456325D01*
X461541Y911624D01*
X460762Y910275D01*
X459983Y907368D01*
Y904358D01*
X460762Y901451D01*
X462267Y898845D01*
X464395Y896717D01*
X467001Y895212D01*
X469908Y894433D01*
X472918D01*
X475825Y895212D01*
X478431Y896717D01*
X480559Y898845D01*
X482064Y901451D01*
X482843Y904358D01*
Y907368D01*
X482294Y909419D01*
X487554Y914679D01*
X487650Y914660D01*
X488068Y913282D01*
X487667Y912881D01*
X486162Y910275D01*
X485383Y907368D01*
Y904358D01*
X486162Y901451D01*
X487667Y898845D01*
X489795Y896717D01*
X492401Y895212D01*
X495308Y894433D01*
X498318D01*
X501225Y895212D01*
X503831Y896717D01*
X505959Y898845D01*
X507464Y901451D01*
X508243Y904358D01*
Y907368D01*
X507464Y910275D01*
X505959Y912881D01*
X504540Y914301D01*
X505066Y915571D01*
X513964D01*
X514490Y914301D01*
X513069Y912879D01*
X511564Y910273D01*
X510785Y907366D01*
Y904356D01*
X511564Y901449D01*
X513069Y898843D01*
X515197Y896715D01*
X517803Y895210D01*
X520710Y894431D01*
X523720D01*
X526627Y895210D01*
X529233Y896715D01*
X531361Y898843D01*
X532866Y901449D01*
X533645Y904356D01*
Y907366D01*
X532866Y910273D01*
X531361Y912879D01*
X529940Y914301D01*
X530466Y915571D01*
X626990D01*
X627516Y914301D01*
X626097Y912881D01*
X624592Y910275D01*
X623813Y907368D01*
Y904358D01*
X624592Y901451D01*
X626097Y898845D01*
X628225Y896717D01*
X630831Y895212D01*
X633738Y894433D01*
X636748D01*
X639655Y895212D01*
X642261Y896717D01*
X644389Y898845D01*
X645894Y901451D01*
X646673Y904358D01*
Y907368D01*
X645894Y910275D01*
X644389Y912881D01*
X642970Y914301D01*
X643496Y915571D01*
X645555D01*
X650306Y910819D01*
X649992Y910275D01*
X649213Y907368D01*
Y904358D01*
X649992Y901451D01*
X651497Y898845D01*
X653625Y896717D01*
X656231Y895212D01*
X659138Y894433D01*
X662148D01*
X665055Y895212D01*
X667661Y896717D01*
X669789Y898845D01*
X671294Y901451D01*
X672073Y904358D01*
Y907368D01*
X671524Y909419D01*
X675964Y913859D01*
X676060Y913840D01*
X676248Y913624D01*
X676637Y912430D01*
X675392Y910275D01*
X674613Y907368D01*
Y904358D01*
X675392Y901451D01*
X676897Y898845D01*
X679025Y896717D01*
X681631Y895212D01*
X684538Y894433D01*
X687548D01*
X690455Y895212D01*
X693061Y896717D01*
X695189Y898845D01*
X696694Y901451D01*
X697473Y904358D01*
Y907368D01*
X696694Y910275D01*
X695189Y912881D01*
X694590Y913480D01*
X695076Y914653D01*
X702414D01*
X702900Y913480D01*
X702299Y912879D01*
X700794Y910273D01*
X700015Y907366D01*
Y904356D01*
X700794Y901449D01*
X702299Y898843D01*
X704427Y896715D01*
X707033Y895210D01*
X709940Y894431D01*
X712950D01*
X715857Y895210D01*
X718463Y896715D01*
X720591Y898843D01*
X722096Y901449D01*
X722875Y904356D01*
Y907366D01*
X722096Y910273D01*
X720591Y912879D01*
X719990Y913480D01*
X720476Y914653D01*
X771312D01*
X773086Y914301D01*
X786240D01*
X787533Y913765D01*
X789807D01*
X791100Y914301D01*
X812282D01*
X814057Y914653D01*
X815440D01*
X815926Y913480D01*
X815327Y912881D01*
X813822Y910275D01*
X813043Y907368D01*
Y904358D01*
X813822Y901451D01*
X815327Y898845D01*
X817455Y896717D01*
X820061Y895212D01*
X822968Y894433D01*
X825978D01*
X828885Y895212D01*
X831491Y896717D01*
X833619Y898845D01*
X835124Y901451D01*
X835903Y904358D01*
Y907368D01*
X835124Y910275D01*
X833879Y912430D01*
X834268Y913624D01*
X834456Y913840D01*
X834552Y913859D01*
X838992Y909419D01*
X838443Y907368D01*
Y904358D01*
X839222Y901451D01*
X840727Y898845D01*
X842855Y896717D01*
X845461Y895212D01*
X848368Y894433D01*
X851378D01*
X854285Y895212D01*
X856891Y896717D01*
X859019Y898845D01*
X860524Y901451D01*
X861303Y904358D01*
Y907368D01*
X860524Y910275D01*
X859019Y912881D01*
X856891Y915009D01*
X854285Y916514D01*
X851378Y917293D01*
X848368D01*
X846317Y916743D01*
X839566Y923495D01*
X837885Y924618D01*
X835903Y925013D01*
X812635D01*
X810860Y924660D01*
X791100D01*
X789807Y925195D01*
X787533D01*
X786240Y924660D01*
X774508D01*
X772733Y925013D01*
X674613D01*
X672631Y924618D01*
X670950Y923495D01*
X670950Y923495D01*
X664199Y916743D01*
X662148Y917293D01*
X659138D01*
X658621Y917154D01*
X651363Y924413D01*
X649682Y925535D01*
X647700Y925929D01*
X486300D01*
X484318Y925535D01*
X482637Y924413D01*
X474968Y916743D01*
X472918Y917293D01*
X470522D01*
X462132Y925683D01*
X460452Y926805D01*
X458470Y927199D01*
X298340D01*
X296358Y926805D01*
X294678Y925683D01*
X285739Y916743D01*
X283688Y917293D01*
X280678D01*
X279159Y916886D01*
X269093Y926953D01*
X267412Y928075D01*
X265430Y928469D01*
D02*
G37*
G36*
X902180Y917291D02*
X899170D01*
X896263Y916512D01*
X893657Y915007D01*
X891529Y912879D01*
X890024Y910273D01*
X889245Y907366D01*
Y904356D01*
X890024Y901449D01*
X891529Y898843D01*
X893657Y896715D01*
X896263Y895210D01*
X899170Y894431D01*
X902180D01*
X905087Y895210D01*
X907693Y896715D01*
X909821Y898843D01*
X911326Y901449D01*
X912105Y904356D01*
Y907366D01*
X911326Y910273D01*
X909821Y912879D01*
X907693Y915007D01*
X905087Y916512D01*
X902180Y917291D01*
D02*
G37*
G36*
X69058Y917293D02*
X66048D01*
X63141Y916514D01*
X60535Y915009D01*
X58407Y912881D01*
X56902Y910275D01*
X56123Y907368D01*
Y904358D01*
X56902Y901451D01*
X58407Y898845D01*
X60535Y896717D01*
X63141Y895212D01*
X66048Y894433D01*
X66937D01*
X67553Y894310D01*
X68169Y894433D01*
X69058D01*
X71965Y895212D01*
X74571Y896717D01*
X76699Y898845D01*
X78204Y901451D01*
X78983Y904358D01*
Y907368D01*
X78204Y910275D01*
X76699Y912881D01*
X74571Y915009D01*
X71965Y916514D01*
X69058Y917293D01*
D02*
G37*
G36*
X914265Y869633D02*
X910963D01*
X907774Y868778D01*
X904914Y867128D01*
X902579Y864793D01*
X900929Y861933D01*
X900074Y858744D01*
Y855442D01*
X900929Y852253D01*
X902579Y849393D01*
X904914Y847058D01*
X907774Y845408D01*
X910963Y844553D01*
X914265D01*
X917454Y845408D01*
X920314Y847058D01*
X922648Y849393D01*
X924299Y852253D01*
X925154Y855442D01*
Y858744D01*
X924299Y861933D01*
X922648Y864793D01*
X920314Y867128D01*
X917454Y868778D01*
X914265Y869633D01*
D02*
G37*
G36*
X814444D02*
X811142D01*
X807953Y868778D01*
X805093Y867128D01*
X802758Y864793D01*
X801108Y861933D01*
X800253Y858744D01*
Y855442D01*
X801108Y852253D01*
X802758Y849393D01*
X805093Y847058D01*
X807953Y845408D01*
X811142Y844553D01*
X814444D01*
X817633Y845408D01*
X820493Y847058D01*
X822828Y849393D01*
X824478Y852253D01*
X825333Y855442D01*
Y858744D01*
X824478Y861933D01*
X822828Y864793D01*
X820493Y867128D01*
X817633Y868778D01*
X814444Y869633D01*
D02*
G37*
G36*
X725035D02*
X721733D01*
X718544Y868778D01*
X715684Y867128D01*
X713350Y864793D01*
X711699Y861933D01*
X710844Y858744D01*
Y855442D01*
X711699Y852253D01*
X713350Y849393D01*
X715684Y847058D01*
X718544Y845408D01*
X721733Y844553D01*
X725035D01*
X728224Y845408D01*
X731084Y847058D01*
X733419Y849393D01*
X735069Y852253D01*
X735924Y855442D01*
Y858744D01*
X735069Y861933D01*
X733419Y864793D01*
X731084Y867128D01*
X728224Y868778D01*
X725035Y869633D01*
D02*
G37*
G36*
X625214D02*
X621912D01*
X618723Y868778D01*
X615863Y867128D01*
X613529Y864793D01*
X611878Y861933D01*
X611023Y858744D01*
Y855442D01*
X611878Y852253D01*
X613529Y849393D01*
X615863Y847058D01*
X618723Y845408D01*
X621912Y844553D01*
X625214D01*
X628403Y845408D01*
X631263Y847058D01*
X633597Y849393D01*
X635248Y852253D01*
X636103Y855442D01*
Y858744D01*
X635248Y861933D01*
X633597Y864793D01*
X631263Y867128D01*
X628403Y868778D01*
X625214Y869633D01*
D02*
G37*
G36*
X535805D02*
X532503D01*
X529314Y868778D01*
X526454Y867128D01*
X524119Y864793D01*
X522469Y861933D01*
X521614Y858744D01*
Y855442D01*
X522469Y852253D01*
X524119Y849393D01*
X526454Y847058D01*
X529314Y845408D01*
X532503Y844553D01*
X535805D01*
X538994Y845408D01*
X541854Y847058D01*
X544188Y849393D01*
X545839Y852253D01*
X546694Y855442D01*
Y858744D01*
X545839Y861933D01*
X544188Y864793D01*
X541854Y867128D01*
X538994Y868778D01*
X535805Y869633D01*
D02*
G37*
G36*
X435984D02*
X432682D01*
X429493Y868778D01*
X426633Y867128D01*
X424299Y864793D01*
X422648Y861933D01*
X421793Y858744D01*
Y855442D01*
X422648Y852253D01*
X424299Y849393D01*
X426633Y847058D01*
X429493Y845408D01*
X432682Y844553D01*
X435984D01*
X439173Y845408D01*
X442033Y847058D01*
X444367Y849393D01*
X446018Y852253D01*
X446873Y855442D01*
Y858744D01*
X446018Y861933D01*
X444367Y864793D01*
X442033Y867128D01*
X439173Y868778D01*
X435984Y869633D01*
D02*
G37*
G36*
X346575D02*
X343273D01*
X340084Y868778D01*
X337224Y867128D01*
X334889Y864793D01*
X333239Y861933D01*
X332384Y858744D01*
Y855442D01*
X333239Y852253D01*
X334889Y849393D01*
X337224Y847058D01*
X340084Y845408D01*
X343273Y844553D01*
X346575D01*
X349764Y845408D01*
X352624Y847058D01*
X354958Y849393D01*
X356609Y852253D01*
X357464Y855442D01*
Y858744D01*
X356609Y861933D01*
X354958Y864793D01*
X352624Y867128D01*
X349764Y868778D01*
X346575Y869633D01*
D02*
G37*
G36*
X246754D02*
X243452D01*
X240263Y868778D01*
X237403Y867128D01*
X235068Y864793D01*
X233418Y861933D01*
X232563Y858744D01*
Y855442D01*
X233418Y852253D01*
X235068Y849393D01*
X237403Y847058D01*
X240263Y845408D01*
X243452Y844553D01*
X246754D01*
X249943Y845408D01*
X252803Y847058D01*
X255138Y849393D01*
X256788Y852253D01*
X257643Y855442D01*
Y858744D01*
X256788Y861933D01*
X255138Y864793D01*
X252803Y867128D01*
X249943Y868778D01*
X246754Y869633D01*
D02*
G37*
G36*
X157345D02*
X154043D01*
X150854Y868778D01*
X147994Y867128D01*
X145660Y864793D01*
X144009Y861933D01*
X143154Y858744D01*
Y855442D01*
X144009Y852253D01*
X145660Y849393D01*
X147994Y847058D01*
X150854Y845408D01*
X154043Y844553D01*
X157345D01*
X160534Y845408D01*
X163394Y847058D01*
X165728Y849393D01*
X167379Y852253D01*
X168234Y855442D01*
Y858744D01*
X167379Y861933D01*
X165728Y864793D01*
X163394Y867128D01*
X160534Y868778D01*
X157345Y869633D01*
D02*
G37*
G36*
X57524D02*
X54222D01*
X51033Y868778D01*
X48173Y867128D01*
X45838Y864793D01*
X44188Y861933D01*
X43333Y858744D01*
Y855442D01*
X44188Y852253D01*
X45838Y849393D01*
X48173Y847058D01*
X51033Y845408D01*
X54222Y844553D01*
X57524D01*
X60713Y845408D01*
X63573Y847058D01*
X65908Y849393D01*
X67558Y852253D01*
X68413Y855442D01*
Y858744D01*
X67558Y861933D01*
X65908Y864793D01*
X63573Y867128D01*
X60713Y868778D01*
X57524Y869633D01*
D02*
G37*
G36*
X864829Y878683D02*
X860577D01*
X856405Y877853D01*
X852476Y876226D01*
X848940Y873863D01*
X845933Y870856D01*
X843570Y867320D01*
X841943Y863391D01*
X841113Y859219D01*
Y854967D01*
X841943Y850795D01*
X843570Y846866D01*
X845933Y843330D01*
X848940Y840323D01*
X852476Y837960D01*
X856405Y836333D01*
X860577Y835503D01*
X864829D01*
X869001Y836333D01*
X872930Y837960D01*
X876466Y840323D01*
X879473Y843330D01*
X881836Y846866D01*
X883463Y850795D01*
X884293Y854967D01*
Y859219D01*
X883463Y863391D01*
X881836Y867320D01*
X879473Y870856D01*
X876466Y873863D01*
X872930Y876226D01*
X869001Y877853D01*
X864829Y878683D01*
D02*
G37*
G36*
X675599D02*
X671347D01*
X667175Y877853D01*
X663246Y876226D01*
X659710Y873863D01*
X656703Y870856D01*
X654340Y867320D01*
X652713Y863391D01*
X651883Y859219D01*
Y854967D01*
X652713Y850795D01*
X654340Y846866D01*
X656703Y843330D01*
X659710Y840323D01*
X663246Y837960D01*
X667175Y836333D01*
X671347Y835503D01*
X675599D01*
X679771Y836333D01*
X683700Y837960D01*
X687236Y840323D01*
X690243Y843330D01*
X692606Y846866D01*
X694233Y850795D01*
X695063Y854967D01*
Y859219D01*
X694233Y863391D01*
X692606Y867320D01*
X690243Y870856D01*
X687236Y873863D01*
X683700Y876226D01*
X679771Y877853D01*
X675599Y878683D01*
D02*
G37*
G36*
X486369D02*
X482117D01*
X477945Y877853D01*
X474016Y876226D01*
X470480Y873863D01*
X467473Y870856D01*
X465110Y867320D01*
X463483Y863391D01*
X462653Y859219D01*
Y854967D01*
X463483Y850795D01*
X465110Y846866D01*
X467473Y843330D01*
X470480Y840323D01*
X474016Y837960D01*
X477945Y836333D01*
X482117Y835503D01*
X486369D01*
X490541Y836333D01*
X494470Y837960D01*
X498006Y840323D01*
X501013Y843330D01*
X503376Y846866D01*
X505003Y850795D01*
X505833Y854967D01*
Y859219D01*
X505003Y863391D01*
X503376Y867320D01*
X501013Y870856D01*
X498006Y873863D01*
X494470Y876226D01*
X490541Y877853D01*
X486369Y878683D01*
D02*
G37*
G36*
X297139D02*
X292887D01*
X288715Y877853D01*
X284786Y876226D01*
X281250Y873863D01*
X278243Y870856D01*
X275880Y867320D01*
X274253Y863391D01*
X273423Y859219D01*
Y854967D01*
X274253Y850795D01*
X275880Y846866D01*
X278243Y843330D01*
X281250Y840323D01*
X284786Y837960D01*
X288715Y836333D01*
X292887Y835503D01*
X297139D01*
X301311Y836333D01*
X305240Y837960D01*
X308776Y840323D01*
X311783Y843330D01*
X314146Y846866D01*
X315773Y850795D01*
X316603Y854967D01*
Y859219D01*
X315773Y863391D01*
X314146Y867320D01*
X311783Y870856D01*
X308776Y873863D01*
X305240Y876226D01*
X301311Y877853D01*
X297139Y878683D01*
D02*
G37*
G36*
X107909D02*
X103657D01*
X99485Y877853D01*
X95556Y876226D01*
X92020Y873863D01*
X89013Y870856D01*
X86650Y867320D01*
X85023Y863391D01*
X84193Y859219D01*
Y854967D01*
X85023Y850795D01*
X86650Y846866D01*
X89013Y843330D01*
X92020Y840323D01*
X95556Y837960D01*
X99485Y836333D01*
X103657Y835503D01*
X107909D01*
X112081Y836333D01*
X116010Y837960D01*
X119546Y840323D01*
X122553Y843330D01*
X124916Y846866D01*
X126543Y850795D01*
X127373Y854967D01*
Y859219D01*
X126543Y863391D01*
X124916Y867320D01*
X122553Y870856D01*
X119546Y873863D01*
X116010Y876226D01*
X112081Y877853D01*
X107909Y878683D01*
D02*
G37*
G36*
X901752Y844141D02*
X898074D01*
X894521Y843189D01*
X891335Y841350D01*
X888734Y838749D01*
X886895Y835563D01*
X885943Y832010D01*
Y828332D01*
X886895Y824779D01*
X888734Y821593D01*
X891335Y818992D01*
X894521Y817153D01*
X898074Y816201D01*
X901752D01*
X905305Y817153D01*
X908491Y818992D01*
X911092Y821593D01*
X912931Y824779D01*
X913883Y828332D01*
Y832010D01*
X912931Y835563D01*
X911092Y838749D01*
X908491Y841350D01*
X905305Y843189D01*
X901752Y844141D01*
D02*
G37*
G36*
X712522D02*
X708844D01*
X705291Y843189D01*
X702105Y841350D01*
X699504Y838749D01*
X697665Y835563D01*
X696713Y832010D01*
Y828332D01*
X697665Y824779D01*
X699504Y821593D01*
X702105Y818992D01*
X705291Y817153D01*
X708844Y816201D01*
X712522D01*
X716075Y817153D01*
X719261Y818992D01*
X721862Y821593D01*
X723701Y824779D01*
X724653Y828332D01*
Y832010D01*
X723701Y835563D01*
X721862Y838749D01*
X719261Y841350D01*
X716075Y843189D01*
X712522Y844141D01*
D02*
G37*
G36*
X523292D02*
X519614D01*
X516061Y843189D01*
X512875Y841350D01*
X510274Y838749D01*
X508435Y835563D01*
X507483Y832010D01*
Y828332D01*
X508435Y824779D01*
X510274Y821593D01*
X512875Y818992D01*
X516061Y817153D01*
X519614Y816201D01*
X523292D01*
X526845Y817153D01*
X530031Y818992D01*
X532632Y821593D01*
X534471Y824779D01*
X535423Y828332D01*
Y832010D01*
X534471Y835563D01*
X532632Y838749D01*
X530031Y841350D01*
X526845Y843189D01*
X523292Y844141D01*
D02*
G37*
G36*
X334062D02*
X330384D01*
X326831Y843189D01*
X323645Y841350D01*
X321044Y838749D01*
X319205Y835563D01*
X318253Y832010D01*
Y828332D01*
X319205Y824779D01*
X321044Y821593D01*
X323645Y818992D01*
X326831Y817153D01*
X330384Y816201D01*
X334062D01*
X337615Y817153D01*
X340801Y818992D01*
X343402Y821593D01*
X345241Y824779D01*
X346193Y828332D01*
Y832010D01*
X345241Y835563D01*
X343402Y838749D01*
X340801Y841350D01*
X337615Y843189D01*
X334062Y844141D01*
D02*
G37*
G36*
X144832D02*
X141154D01*
X137601Y843189D01*
X134415Y841350D01*
X131814Y838749D01*
X129975Y835563D01*
X129023Y832010D01*
Y828332D01*
X129975Y824779D01*
X131814Y821593D01*
X134415Y818992D01*
X137601Y817153D01*
X141154Y816201D01*
X144832D01*
X148385Y817153D01*
X151571Y818992D01*
X154172Y821593D01*
X156011Y824779D01*
X156963Y828332D01*
Y832010D01*
X156011Y835563D01*
X154172Y838749D01*
X151571Y841350D01*
X148385Y843189D01*
X144832Y844141D01*
D02*
G37*
G36*
X840032Y820771D02*
X836354D01*
X832801Y819819D01*
X829615Y817980D01*
X827014Y815379D01*
X825175Y812193D01*
X824223Y808640D01*
Y805607D01*
X662933D01*
Y808640D01*
X661981Y812193D01*
X660142Y815379D01*
X657541Y817980D01*
X654355Y819819D01*
X650802Y820771D01*
X647124D01*
X643571Y819819D01*
X640385Y817980D01*
X637784Y815379D01*
X635945Y812193D01*
X634993Y808640D01*
Y805607D01*
X473703D01*
Y808640D01*
X472751Y812193D01*
X470912Y815379D01*
X468311Y817980D01*
X465125Y819819D01*
X461572Y820771D01*
X457894D01*
X454341Y819819D01*
X451155Y817980D01*
X448554Y815379D01*
X446715Y812193D01*
X445763Y808640D01*
Y805607D01*
X284473D01*
Y808640D01*
X283521Y812193D01*
X281682Y815379D01*
X279081Y817980D01*
X275895Y819819D01*
X272342Y820771D01*
X268664D01*
X265111Y819819D01*
X261925Y817980D01*
X259324Y815379D01*
X257485Y812193D01*
X256533Y808640D01*
Y805607D01*
X95243D01*
Y808640D01*
X94291Y812193D01*
X92452Y815379D01*
X89851Y817980D01*
X86665Y819819D01*
X83112Y820771D01*
X79434D01*
X75881Y819819D01*
X72695Y817980D01*
X70094Y815379D01*
X68255Y812193D01*
X67303Y808640D01*
Y804962D01*
X68255Y801409D01*
X70094Y798223D01*
X72695Y795622D01*
X75881Y793783D01*
X79434Y792831D01*
X83112D01*
X86665Y793783D01*
X89203Y795248D01*
X262573D01*
X265111Y793783D01*
X268664Y792831D01*
X272342D01*
X275895Y793783D01*
X278433Y795248D01*
X451803D01*
X454341Y793783D01*
X457894Y792831D01*
X461572D01*
X465125Y793783D01*
X467663Y795248D01*
X641033D01*
X643571Y793783D01*
X647124Y792831D01*
X650802D01*
X654355Y793783D01*
X656893Y795248D01*
X830263D01*
X832801Y793783D01*
X836354Y792831D01*
X840032D01*
X843585Y793783D01*
X846771Y795622D01*
X849372Y798223D01*
X851211Y801409D01*
X852163Y804962D01*
Y808640D01*
X851211Y812193D01*
X849372Y815379D01*
X846771Y817980D01*
X843585Y819819D01*
X840032Y820771D01*
D02*
G37*
G36*
X644486Y737970D02*
X487570D01*
X485588Y737575D01*
X483908Y736452D01*
X474968Y727514D01*
X472918Y728063D01*
X470522D01*
X462132Y736452D01*
X460452Y737575D01*
X458470Y737970D01*
X298340D01*
X296358Y737575D01*
X294678Y736452D01*
X285739Y727514D01*
X283688Y728063D01*
X280678D01*
X278627Y727514D01*
X269688Y736452D01*
X268008Y737575D01*
X266026Y737970D01*
X109110D01*
X107128Y737575D01*
X105448Y736452D01*
X96509Y727514D01*
X94458Y728063D01*
X91448D01*
X88541Y727284D01*
X85935Y725779D01*
X83807Y723651D01*
X82302Y721045D01*
X81523Y718138D01*
Y715128D01*
X82302Y712221D01*
X83807Y709615D01*
X85935Y707487D01*
X88541Y705982D01*
X91448Y705203D01*
X94458D01*
X97365Y705982D01*
X99971Y707487D01*
X102099Y709615D01*
X103604Y712221D01*
X104383Y715128D01*
Y718138D01*
X103834Y720189D01*
X110779Y727134D01*
X111034Y727072D01*
X111263Y726090D01*
X111264Y725709D01*
X109207Y723651D01*
X107702Y721045D01*
X106923Y718138D01*
Y715128D01*
X107702Y712221D01*
X109207Y709615D01*
X111335Y707487D01*
X113941Y705982D01*
X116848Y705203D01*
X119858D01*
X122765Y705982D01*
X125371Y707487D01*
X127499Y709615D01*
X129004Y712221D01*
X129783Y715128D01*
Y718138D01*
X129004Y721045D01*
X127499Y723651D01*
X125371Y725779D01*
X124399Y726340D01*
X124740Y727610D01*
X137372D01*
X137712Y726340D01*
X136737Y725777D01*
X134609Y723649D01*
X133104Y721043D01*
X132325Y718136D01*
Y715126D01*
X133104Y712219D01*
X134609Y709613D01*
X136737Y707485D01*
X139343Y705980D01*
X142250Y705201D01*
X145260D01*
X148167Y705980D01*
X150773Y707485D01*
X152901Y709613D01*
X154406Y712219D01*
X155185Y715126D01*
Y718136D01*
X154406Y721043D01*
X152901Y723649D01*
X150773Y725777D01*
X149798Y726340D01*
X150138Y727610D01*
X250396D01*
X250737Y726340D01*
X249765Y725779D01*
X247637Y723651D01*
X246132Y721045D01*
X245353Y718138D01*
Y715128D01*
X246132Y712221D01*
X247637Y709615D01*
X249765Y707487D01*
X252371Y705982D01*
X255278Y705203D01*
X258288D01*
X261195Y705982D01*
X263801Y707487D01*
X265929Y709615D01*
X267434Y712221D01*
X268213Y715128D01*
Y718138D01*
X267434Y721045D01*
X265929Y723651D01*
X263872Y725709D01*
X263874Y726090D01*
X264102Y727072D01*
X264357Y727134D01*
X271303Y720189D01*
X270753Y718138D01*
Y715128D01*
X271532Y712221D01*
X273037Y709615D01*
X275165Y707487D01*
X277771Y705982D01*
X280678Y705203D01*
X283688D01*
X286595Y705982D01*
X289201Y707487D01*
X291329Y709615D01*
X292834Y712221D01*
X293613Y715128D01*
Y718138D01*
X293064Y720189D01*
X300009Y727134D01*
X300264Y727072D01*
X300492Y726090D01*
X300494Y725709D01*
X298437Y723651D01*
X296932Y721045D01*
X296153Y718138D01*
Y715128D01*
X296932Y712221D01*
X298437Y709615D01*
X300565Y707487D01*
X303171Y705982D01*
X306078Y705203D01*
X309088D01*
X311995Y705982D01*
X314601Y707487D01*
X316729Y709615D01*
X318234Y712221D01*
X319013Y715128D01*
Y718138D01*
X318234Y721045D01*
X316729Y723651D01*
X314601Y725779D01*
X313629Y726340D01*
X313969Y727610D01*
X326602D01*
X326942Y726340D01*
X325967Y725777D01*
X323839Y723649D01*
X322334Y721043D01*
X321555Y718136D01*
Y715126D01*
X322334Y712219D01*
X323839Y709613D01*
X325967Y707485D01*
X328573Y705980D01*
X331480Y705201D01*
X334490D01*
X337397Y705980D01*
X340003Y707485D01*
X342131Y709613D01*
X343636Y712219D01*
X344415Y715126D01*
Y718136D01*
X343636Y721043D01*
X342131Y723649D01*
X340003Y725777D01*
X339028Y726340D01*
X339368Y727610D01*
X439627D01*
X439967Y726340D01*
X438995Y725779D01*
X436867Y723651D01*
X435362Y721045D01*
X434583Y718138D01*
Y715128D01*
X435362Y712221D01*
X436867Y709615D01*
X438995Y707487D01*
X441601Y705982D01*
X444508Y705203D01*
X447518D01*
X450425Y705982D01*
X453031Y707487D01*
X455159Y709615D01*
X456664Y712221D01*
X457443Y715128D01*
Y718138D01*
X456664Y721045D01*
X455159Y723651D01*
X453031Y725779D01*
X452059Y726340D01*
X452399Y727610D01*
X456325D01*
X461541Y722394D01*
X460762Y721045D01*
X459983Y718138D01*
Y715128D01*
X460762Y712221D01*
X462267Y709615D01*
X464395Y707487D01*
X467001Y705982D01*
X469908Y705203D01*
X472918D01*
X475825Y705982D01*
X478431Y707487D01*
X480559Y709615D01*
X482064Y712221D01*
X482843Y715128D01*
Y718138D01*
X482294Y720189D01*
X489239Y727134D01*
X489494Y727072D01*
X489723Y726090D01*
X489724Y725709D01*
X487667Y723651D01*
X486162Y721045D01*
X485383Y718138D01*
Y715128D01*
X486162Y712221D01*
X487667Y709615D01*
X489795Y707487D01*
X492401Y705982D01*
X495308Y705203D01*
X498318D01*
X501225Y705982D01*
X503831Y707487D01*
X505959Y709615D01*
X507464Y712221D01*
X508243Y715128D01*
Y718138D01*
X507464Y721045D01*
X505959Y723651D01*
X503831Y725779D01*
X502859Y726340D01*
X503200Y727610D01*
X515832D01*
X516172Y726340D01*
X515197Y725777D01*
X513069Y723649D01*
X511564Y721043D01*
X510785Y718136D01*
Y715126D01*
X511564Y712219D01*
X513069Y709613D01*
X515197Y707485D01*
X517803Y705980D01*
X520710Y705201D01*
X523720D01*
X526627Y705980D01*
X529233Y707485D01*
X531361Y709613D01*
X532866Y712219D01*
X533645Y715126D01*
Y718136D01*
X532866Y721043D01*
X531361Y723649D01*
X529233Y725777D01*
X528258Y726340D01*
X528598Y727610D01*
X628857D01*
X629197Y726340D01*
X628225Y725779D01*
X626097Y723651D01*
X624592Y721045D01*
X623813Y718138D01*
Y715128D01*
X624592Y712221D01*
X626097Y709615D01*
X628225Y707487D01*
X630831Y705982D01*
X633738Y705203D01*
X636748D01*
X639655Y705982D01*
X642261Y707487D01*
X644389Y709615D01*
X645894Y712221D01*
X646673Y715128D01*
Y718138D01*
X645894Y721045D01*
X644389Y723651D01*
X642332Y725709D01*
X642334Y726090D01*
X642562Y727072D01*
X642817Y727134D01*
X649762Y720189D01*
X649213Y718138D01*
Y715128D01*
X649992Y712221D01*
X651497Y709615D01*
X653625Y707487D01*
X656231Y705982D01*
X659138Y705203D01*
X662148D01*
X665055Y705982D01*
X667661Y707487D01*
X669789Y709615D01*
X671294Y712221D01*
X672073Y715128D01*
Y718138D01*
X671524Y720189D01*
X675964Y724629D01*
X676060Y724610D01*
X676248Y724394D01*
X676637Y723201D01*
X675392Y721045D01*
X674613Y718138D01*
Y715128D01*
X675392Y712221D01*
X676897Y709615D01*
X679025Y707487D01*
X681631Y705982D01*
X684538Y705203D01*
X687548D01*
X690455Y705982D01*
X693061Y707487D01*
X695189Y709615D01*
X696694Y712221D01*
X697473Y715128D01*
Y718138D01*
X696694Y721045D01*
X695189Y723651D01*
X694590Y724250D01*
X695076Y725424D01*
X702414D01*
X702900Y724250D01*
X702299Y723649D01*
X700794Y721043D01*
X700015Y718136D01*
Y715126D01*
X700794Y712219D01*
X702299Y709613D01*
X704427Y707485D01*
X707033Y705980D01*
X709940Y705201D01*
X712950D01*
X715857Y705980D01*
X718463Y707485D01*
X720591Y709613D01*
X722096Y712219D01*
X722875Y715126D01*
Y718136D01*
X722096Y721043D01*
X720591Y723649D01*
X719990Y724250D01*
X720476Y725424D01*
X753532D01*
X755306Y725070D01*
X779890D01*
X781183Y724535D01*
X783457D01*
X785557Y725405D01*
X787165Y727013D01*
X788035Y729113D01*
Y731387D01*
X787165Y733487D01*
X785557Y735095D01*
X783457Y735965D01*
X781183D01*
X779890Y735430D01*
X756728D01*
X754953Y735782D01*
X674613D01*
X672631Y735388D01*
X670950Y734266D01*
X670950Y734265D01*
X664199Y727514D01*
X662148Y728063D01*
X659138D01*
X657087Y727514D01*
X648148Y736452D01*
X646468Y737575D01*
X644486Y737970D01*
D02*
G37*
G36*
X69058Y728063D02*
X66048D01*
X63141Y727284D01*
X60535Y725779D01*
X58407Y723651D01*
X56902Y721045D01*
X56123Y718138D01*
Y715128D01*
X56902Y712221D01*
X58407Y709615D01*
X60535Y707487D01*
X63141Y705982D01*
X66048Y705203D01*
X66937D01*
X67553Y705080D01*
X68169Y705203D01*
X69058D01*
X71965Y705982D01*
X74571Y707487D01*
X76699Y709615D01*
X78204Y712221D01*
X78983Y715128D01*
Y718138D01*
X78204Y721045D01*
X76699Y723651D01*
X74571Y725779D01*
X71965Y727284D01*
X69058Y728063D01*
D02*
G37*
G36*
X934304Y710408D02*
X930802D01*
X927367Y709725D01*
X924131Y708384D01*
X921219Y706439D01*
X918742Y703962D01*
X916797Y701050D01*
X915456Y697814D01*
X914773Y694379D01*
Y690877D01*
X915456Y687442D01*
X916797Y684206D01*
X918742Y681294D01*
X921219Y678817D01*
X924131Y676872D01*
X927367Y675531D01*
X930802Y674848D01*
X934304D01*
X937739Y675531D01*
X940975Y676872D01*
X943887Y678817D01*
X946364Y681294D01*
X948309Y684206D01*
X949650Y687442D01*
X950333Y690877D01*
Y694379D01*
X949650Y697814D01*
X948309Y701050D01*
X946364Y703962D01*
X943887Y706439D01*
X940975Y708384D01*
X937739Y709725D01*
X934304Y710408D01*
D02*
G37*
G36*
X782367Y715108D02*
X777939D01*
X773596Y714244D01*
X769505Y712550D01*
X765823Y710089D01*
X762692Y706958D01*
X760231Y703276D01*
X758537Y699185D01*
X757673Y694842D01*
Y690414D01*
X758537Y686071D01*
X760231Y681980D01*
X762692Y678298D01*
X765823Y675167D01*
X769505Y672707D01*
X773596Y671012D01*
X777939Y670148D01*
X782367D01*
X786710Y671012D01*
X790801Y672707D01*
X794483Y675167D01*
X797614Y678298D01*
X800074Y681980D01*
X801769Y686071D01*
X802633Y690414D01*
Y694842D01*
X801769Y699185D01*
X800074Y703276D01*
X797614Y706958D01*
X794483Y710089D01*
X790801Y712550D01*
X786710Y714244D01*
X782367Y715108D01*
D02*
G37*
G36*
X725035Y680403D02*
X721733D01*
X718544Y679548D01*
X715684Y677897D01*
X713350Y675563D01*
X711699Y672703D01*
X710844Y669514D01*
Y666212D01*
X711699Y663023D01*
X713350Y660163D01*
X715684Y657829D01*
X718544Y656178D01*
X721733Y655323D01*
X725035D01*
X728224Y656178D01*
X731084Y657829D01*
X733419Y660163D01*
X735069Y663023D01*
X735924Y666212D01*
Y669514D01*
X735069Y672703D01*
X733419Y675563D01*
X731084Y677897D01*
X728224Y679548D01*
X725035Y680403D01*
D02*
G37*
G36*
X625214D02*
X621912D01*
X618723Y679548D01*
X615863Y677897D01*
X613529Y675563D01*
X611878Y672703D01*
X611023Y669514D01*
Y666212D01*
X611878Y663023D01*
X613529Y660163D01*
X615863Y657829D01*
X618723Y656178D01*
X621912Y655323D01*
X625214D01*
X628403Y656178D01*
X631263Y657829D01*
X633597Y660163D01*
X635248Y663023D01*
X636103Y666212D01*
Y669514D01*
X635248Y672703D01*
X633597Y675563D01*
X631263Y677897D01*
X628403Y679548D01*
X625214Y680403D01*
D02*
G37*
G36*
X535805D02*
X532503D01*
X529314Y679548D01*
X526454Y677897D01*
X524119Y675563D01*
X522469Y672703D01*
X521614Y669514D01*
Y666212D01*
X522469Y663023D01*
X524119Y660163D01*
X526454Y657829D01*
X529314Y656178D01*
X532503Y655323D01*
X535805D01*
X538994Y656178D01*
X541854Y657829D01*
X544188Y660163D01*
X545839Y663023D01*
X546694Y666212D01*
Y669514D01*
X545839Y672703D01*
X544188Y675563D01*
X541854Y677897D01*
X538994Y679548D01*
X535805Y680403D01*
D02*
G37*
G36*
X435984D02*
X432682D01*
X429493Y679548D01*
X426633Y677897D01*
X424299Y675563D01*
X422648Y672703D01*
X421793Y669514D01*
Y666212D01*
X422648Y663023D01*
X424299Y660163D01*
X426633Y657829D01*
X429493Y656178D01*
X432682Y655323D01*
X435984D01*
X439173Y656178D01*
X442033Y657829D01*
X444367Y660163D01*
X446018Y663023D01*
X446873Y666212D01*
Y669514D01*
X446018Y672703D01*
X444367Y675563D01*
X442033Y677897D01*
X439173Y679548D01*
X435984Y680403D01*
D02*
G37*
G36*
X346575D02*
X343273D01*
X340084Y679548D01*
X337224Y677897D01*
X334889Y675563D01*
X333239Y672703D01*
X332384Y669514D01*
Y666212D01*
X333239Y663023D01*
X334889Y660163D01*
X337224Y657829D01*
X340084Y656178D01*
X343273Y655323D01*
X346575D01*
X349764Y656178D01*
X352624Y657829D01*
X354958Y660163D01*
X356609Y663023D01*
X357464Y666212D01*
Y669514D01*
X356609Y672703D01*
X354958Y675563D01*
X352624Y677897D01*
X349764Y679548D01*
X346575Y680403D01*
D02*
G37*
G36*
X246754D02*
X243452D01*
X240263Y679548D01*
X237403Y677897D01*
X235068Y675563D01*
X233418Y672703D01*
X232563Y669514D01*
Y666212D01*
X233418Y663023D01*
X235068Y660163D01*
X237403Y657829D01*
X240263Y656178D01*
X243452Y655323D01*
X246754D01*
X249943Y656178D01*
X252803Y657829D01*
X255138Y660163D01*
X256788Y663023D01*
X257643Y666212D01*
Y669514D01*
X256788Y672703D01*
X255138Y675563D01*
X252803Y677897D01*
X249943Y679548D01*
X246754Y680403D01*
D02*
G37*
G36*
X157345D02*
X154043D01*
X150854Y679548D01*
X147994Y677897D01*
X145660Y675563D01*
X144009Y672703D01*
X143154Y669514D01*
Y666212D01*
X144009Y663023D01*
X145660Y660163D01*
X147994Y657829D01*
X150854Y656178D01*
X154043Y655323D01*
X157345D01*
X160534Y656178D01*
X163394Y657829D01*
X165728Y660163D01*
X167379Y663023D01*
X168234Y666212D01*
Y669514D01*
X167379Y672703D01*
X165728Y675563D01*
X163394Y677897D01*
X160534Y679548D01*
X157345Y680403D01*
D02*
G37*
G36*
X57524D02*
X54222D01*
X51033Y679548D01*
X48173Y677897D01*
X45838Y675563D01*
X44188Y672703D01*
X43333Y669514D01*
Y666212D01*
X44188Y663023D01*
X45838Y660163D01*
X48173Y657829D01*
X51033Y656178D01*
X54222Y655323D01*
X57524D01*
X60713Y656178D01*
X63573Y657829D01*
X65908Y660163D01*
X67558Y663023D01*
X68413Y666212D01*
Y669514D01*
X67558Y672703D01*
X65908Y675563D01*
X63573Y677897D01*
X60713Y679548D01*
X57524Y680403D01*
D02*
G37*
G36*
X675599Y689453D02*
X671347D01*
X667175Y688623D01*
X663246Y686996D01*
X659710Y684633D01*
X656703Y681626D01*
X654340Y678090D01*
X652713Y674161D01*
X651883Y669989D01*
Y665737D01*
X652713Y661565D01*
X654340Y657636D01*
X656703Y654100D01*
X659710Y651093D01*
X663246Y648730D01*
X667175Y647103D01*
X671347Y646273D01*
X675599D01*
X679771Y647103D01*
X683700Y648730D01*
X687236Y651093D01*
X690243Y654100D01*
X692606Y657636D01*
X694233Y661565D01*
X695063Y665737D01*
Y669989D01*
X694233Y674161D01*
X692606Y678090D01*
X690243Y681626D01*
X687236Y684633D01*
X683700Y686996D01*
X679771Y688623D01*
X675599Y689453D01*
D02*
G37*
G36*
X486369D02*
X482117D01*
X477945Y688623D01*
X474016Y686996D01*
X470480Y684633D01*
X467473Y681626D01*
X465110Y678090D01*
X463483Y674161D01*
X462653Y669989D01*
Y665737D01*
X463483Y661565D01*
X465110Y657636D01*
X467473Y654100D01*
X470480Y651093D01*
X474016Y648730D01*
X477945Y647103D01*
X482117Y646273D01*
X486369D01*
X490541Y647103D01*
X494470Y648730D01*
X498006Y651093D01*
X501013Y654100D01*
X503376Y657636D01*
X505003Y661565D01*
X505833Y665737D01*
Y669989D01*
X505003Y674161D01*
X503376Y678090D01*
X501013Y681626D01*
X498006Y684633D01*
X494470Y686996D01*
X490541Y688623D01*
X486369Y689453D01*
D02*
G37*
G36*
X297139D02*
X292887D01*
X288715Y688623D01*
X284786Y686996D01*
X281250Y684633D01*
X278243Y681626D01*
X275880Y678090D01*
X274253Y674161D01*
X273423Y669989D01*
Y665737D01*
X274253Y661565D01*
X275880Y657636D01*
X278243Y654100D01*
X281250Y651093D01*
X284786Y648730D01*
X288715Y647103D01*
X292887Y646273D01*
X297139D01*
X301311Y647103D01*
X305240Y648730D01*
X308776Y651093D01*
X311783Y654100D01*
X314146Y657636D01*
X315773Y661565D01*
X316603Y665737D01*
Y669989D01*
X315773Y674161D01*
X314146Y678090D01*
X311783Y681626D01*
X308776Y684633D01*
X305240Y686996D01*
X301311Y688623D01*
X297139Y689453D01*
D02*
G37*
G36*
X107909D02*
X103657D01*
X99485Y688623D01*
X95556Y686996D01*
X92020Y684633D01*
X89013Y681626D01*
X86650Y678090D01*
X85023Y674161D01*
X84193Y669989D01*
Y665737D01*
X85023Y661565D01*
X86650Y657636D01*
X89013Y654100D01*
X92020Y651093D01*
X95556Y648730D01*
X99485Y647103D01*
X103657Y646273D01*
X107909D01*
X112081Y647103D01*
X116010Y648730D01*
X119546Y651093D01*
X122553Y654100D01*
X124916Y657636D01*
X126543Y661565D01*
X127373Y665737D01*
Y669989D01*
X126543Y674161D01*
X124916Y678090D01*
X122553Y681626D01*
X119546Y684633D01*
X116010Y686996D01*
X112081Y688623D01*
X107909Y689453D01*
D02*
G37*
G36*
X712522Y654911D02*
X708844D01*
X705291Y653959D01*
X702105Y652120D01*
X699504Y649519D01*
X697665Y646333D01*
X696713Y642780D01*
Y639102D01*
X697665Y635549D01*
X699504Y632363D01*
X702105Y629762D01*
X705291Y627923D01*
X708844Y626971D01*
X712522D01*
X716075Y627923D01*
X719261Y629762D01*
X721862Y632363D01*
X723701Y635549D01*
X724653Y639102D01*
Y642780D01*
X723701Y646333D01*
X721862Y649519D01*
X719261Y652120D01*
X716075Y653959D01*
X712522Y654911D01*
D02*
G37*
G36*
X523292D02*
X519614D01*
X516061Y653959D01*
X512875Y652120D01*
X510274Y649519D01*
X508435Y646333D01*
X507483Y642780D01*
Y639102D01*
X508435Y635549D01*
X510274Y632363D01*
X512875Y629762D01*
X516061Y627923D01*
X519614Y626971D01*
X523292D01*
X526845Y627923D01*
X530031Y629762D01*
X532632Y632363D01*
X534471Y635549D01*
X535423Y639102D01*
Y642780D01*
X534471Y646333D01*
X532632Y649519D01*
X530031Y652120D01*
X526845Y653959D01*
X523292Y654911D01*
D02*
G37*
G36*
X334062D02*
X330384D01*
X326831Y653959D01*
X323645Y652120D01*
X321044Y649519D01*
X319205Y646333D01*
X318253Y642780D01*
Y639102D01*
X319205Y635549D01*
X321044Y632363D01*
X323645Y629762D01*
X326831Y627923D01*
X330384Y626971D01*
X334062D01*
X337615Y627923D01*
X340801Y629762D01*
X343402Y632363D01*
X345241Y635549D01*
X346193Y639102D01*
Y642780D01*
X345241Y646333D01*
X343402Y649519D01*
X340801Y652120D01*
X337615Y653959D01*
X334062Y654911D01*
D02*
G37*
G36*
X144832D02*
X141154D01*
X137601Y653959D01*
X134415Y652120D01*
X131814Y649519D01*
X129975Y646333D01*
X129023Y642780D01*
Y639102D01*
X129975Y635549D01*
X131814Y632363D01*
X134415Y629762D01*
X137601Y627923D01*
X141154Y626971D01*
X144832D01*
X148385Y627923D01*
X151571Y629762D01*
X154172Y632363D01*
X156011Y635549D01*
X156963Y639102D01*
Y642780D01*
X156011Y646333D01*
X154172Y649519D01*
X151571Y652120D01*
X148385Y653959D01*
X144832Y654911D01*
D02*
G37*
G36*
X650802Y631541D02*
X647124D01*
X643571Y630589D01*
X640385Y628750D01*
X637784Y626149D01*
X635945Y622963D01*
X634993Y619410D01*
Y616377D01*
X473703D01*
Y619410D01*
X472751Y622963D01*
X470912Y626149D01*
X468311Y628750D01*
X465125Y630589D01*
X461572Y631541D01*
X457894D01*
X454341Y630589D01*
X451155Y628750D01*
X448554Y626149D01*
X446715Y622963D01*
X445763Y619410D01*
Y616377D01*
X284473D01*
Y619410D01*
X283521Y622963D01*
X281682Y626149D01*
X279081Y628750D01*
X275895Y630589D01*
X272342Y631541D01*
X268664D01*
X265111Y630589D01*
X261925Y628750D01*
X259324Y626149D01*
X257485Y622963D01*
X256533Y619410D01*
Y616377D01*
X95243D01*
Y619410D01*
X94291Y622963D01*
X92452Y626149D01*
X89851Y628750D01*
X86665Y630589D01*
X83112Y631541D01*
X79434D01*
X75881Y630589D01*
X72695Y628750D01*
X70094Y626149D01*
X68255Y622963D01*
X67303Y619410D01*
Y615732D01*
X68255Y612179D01*
X70094Y608993D01*
X72695Y606392D01*
X75881Y604553D01*
X79434Y603601D01*
X83112D01*
X86665Y604553D01*
X89203Y606018D01*
X262573D01*
X265111Y604553D01*
X268664Y603601D01*
X272342D01*
X275895Y604553D01*
X278433Y606018D01*
X451803D01*
X454341Y604553D01*
X457894Y603601D01*
X461572D01*
X465125Y604553D01*
X467663Y606018D01*
X641033D01*
X643571Y604553D01*
X647124Y603601D01*
X650802D01*
X654355Y604553D01*
X657541Y606392D01*
X660142Y608993D01*
X661981Y612179D01*
X662933Y615732D01*
Y619410D01*
X661981Y622963D01*
X660142Y626149D01*
X657541Y628750D01*
X654355Y630589D01*
X650802Y631541D01*
D02*
G37*
G36*
X876778Y633448D02*
X873768D01*
X870861Y632669D01*
X868255Y631164D01*
X866127Y629036D01*
X864622Y626430D01*
X863843Y623523D01*
Y620513D01*
X864622Y617606D01*
X866127Y615000D01*
X868255Y612872D01*
X870861Y611367D01*
X873768Y610588D01*
X876778D01*
X879685Y611367D01*
X882291Y612872D01*
X884419Y615000D01*
X885924Y617606D01*
X886703Y620513D01*
Y623523D01*
X885924Y626430D01*
X884419Y629036D01*
X882291Y631164D01*
X879685Y632669D01*
X876778Y633448D01*
D02*
G37*
G36*
X841574Y649070D02*
X787400D01*
X785418Y648675D01*
X783737Y647552D01*
X776117Y639933D01*
X774995Y638252D01*
X774601Y636270D01*
Y599965D01*
X774065Y598672D01*
Y596398D01*
X774601Y595105D01*
Y560945D01*
X762395Y548740D01*
X676800D01*
X674818Y548345D01*
X673138Y547223D01*
X664199Y538284D01*
X662148Y538833D01*
X659138D01*
X657087Y538284D01*
X648148Y547223D01*
X646468Y548345D01*
X644486Y548740D01*
X487570D01*
X485588Y548345D01*
X483908Y547223D01*
X474968Y538284D01*
X472918Y538833D01*
X469908D01*
X467858Y538284D01*
X458918Y547223D01*
X457238Y548345D01*
X455256Y548740D01*
X298340D01*
X296358Y548345D01*
X294678Y547223D01*
X285739Y538284D01*
X283688Y538833D01*
X280678D01*
X278627Y538284D01*
X269688Y547223D01*
X268008Y548345D01*
X266026Y548740D01*
X109110D01*
X107128Y548345D01*
X105448Y547223D01*
X96509Y538284D01*
X94458Y538833D01*
X91448D01*
X88541Y538054D01*
X85935Y536549D01*
X83807Y534421D01*
X82302Y531815D01*
X81523Y528908D01*
Y525898D01*
X82302Y522991D01*
X83807Y520385D01*
X85935Y518257D01*
X88541Y516752D01*
X91448Y515973D01*
X94458D01*
X97365Y516752D01*
X99971Y518257D01*
X102099Y520385D01*
X103604Y522991D01*
X104383Y525898D01*
Y528908D01*
X103834Y530959D01*
X110779Y537904D01*
X111034Y537842D01*
X111263Y536860D01*
X111264Y536479D01*
X109207Y534421D01*
X107702Y531815D01*
X106923Y528908D01*
Y525898D01*
X107702Y522991D01*
X109207Y520385D01*
X111335Y518257D01*
X113941Y516752D01*
X116848Y515973D01*
X119858D01*
X122765Y516752D01*
X125371Y518257D01*
X127499Y520385D01*
X129004Y522991D01*
X129783Y525898D01*
Y528908D01*
X129004Y531815D01*
X127499Y534421D01*
X125371Y536549D01*
X124399Y537110D01*
X124740Y538381D01*
X137372D01*
X137712Y537110D01*
X136737Y536547D01*
X134609Y534419D01*
X133104Y531813D01*
X132325Y528906D01*
Y525896D01*
X133104Y522989D01*
X134609Y520383D01*
X136737Y518255D01*
X139343Y516750D01*
X142250Y515971D01*
X145260D01*
X148167Y516750D01*
X150773Y518255D01*
X152901Y520383D01*
X154406Y522989D01*
X155185Y525896D01*
Y528906D01*
X154406Y531813D01*
X152901Y534419D01*
X150773Y536547D01*
X149798Y537110D01*
X150138Y538381D01*
X250396D01*
X250737Y537110D01*
X249765Y536549D01*
X247637Y534421D01*
X246132Y531815D01*
X245353Y528908D01*
Y525898D01*
X246132Y522991D01*
X247637Y520385D01*
X249765Y518257D01*
X252371Y516752D01*
X255278Y515973D01*
X258288D01*
X261195Y516752D01*
X263801Y518257D01*
X265929Y520385D01*
X267434Y522991D01*
X268213Y525898D01*
Y528908D01*
X267434Y531815D01*
X265929Y534421D01*
X263872Y536479D01*
X263874Y536860D01*
X264102Y537842D01*
X264357Y537904D01*
X271303Y530959D01*
X270753Y528908D01*
Y525898D01*
X271532Y522991D01*
X273037Y520385D01*
X275165Y518257D01*
X277771Y516752D01*
X280678Y515973D01*
X283688D01*
X286595Y516752D01*
X289201Y518257D01*
X291329Y520385D01*
X292834Y522991D01*
X293613Y525898D01*
Y528908D01*
X293064Y530959D01*
X300009Y537904D01*
X300264Y537842D01*
X300492Y536860D01*
X300494Y536479D01*
X298437Y534421D01*
X296932Y531815D01*
X296153Y528908D01*
Y525898D01*
X296932Y522991D01*
X298437Y520385D01*
X300565Y518257D01*
X303171Y516752D01*
X306078Y515973D01*
X309088D01*
X311995Y516752D01*
X314601Y518257D01*
X316729Y520385D01*
X318234Y522991D01*
X319013Y525898D01*
Y528908D01*
X318234Y531815D01*
X316729Y534421D01*
X314601Y536549D01*
X313629Y537110D01*
X313969Y538381D01*
X326602D01*
X326942Y537110D01*
X325967Y536547D01*
X323839Y534419D01*
X322334Y531813D01*
X321555Y528906D01*
Y525896D01*
X322334Y522989D01*
X323839Y520383D01*
X325967Y518255D01*
X328573Y516750D01*
X331480Y515971D01*
X334490D01*
X337397Y516750D01*
X340003Y518255D01*
X342131Y520383D01*
X343636Y522989D01*
X344415Y525896D01*
Y528906D01*
X343636Y531813D01*
X342131Y534419D01*
X340003Y536547D01*
X339028Y537110D01*
X339368Y538381D01*
X439627D01*
X439967Y537110D01*
X438995Y536549D01*
X436867Y534421D01*
X435362Y531815D01*
X434583Y528908D01*
Y525898D01*
X435362Y522991D01*
X436867Y520385D01*
X438995Y518257D01*
X441601Y516752D01*
X444508Y515973D01*
X447518D01*
X450425Y516752D01*
X453031Y518257D01*
X455159Y520385D01*
X456664Y522991D01*
X457443Y525898D01*
Y528908D01*
X456664Y531815D01*
X455159Y534421D01*
X453102Y536479D01*
X453103Y536860D01*
X453332Y537842D01*
X453587Y537904D01*
X460532Y530959D01*
X459983Y528908D01*
Y525898D01*
X460762Y522991D01*
X462267Y520385D01*
X464395Y518257D01*
X467001Y516752D01*
X469908Y515973D01*
X472918D01*
X475825Y516752D01*
X478431Y518257D01*
X480559Y520385D01*
X482064Y522991D01*
X482843Y525898D01*
Y528908D01*
X482294Y530959D01*
X489239Y537904D01*
X489494Y537842D01*
X489723Y536860D01*
X489724Y536479D01*
X487667Y534421D01*
X486162Y531815D01*
X485383Y528908D01*
Y525898D01*
X486162Y522991D01*
X487667Y520385D01*
X489795Y518257D01*
X492401Y516752D01*
X495308Y515973D01*
X498318D01*
X501225Y516752D01*
X503831Y518257D01*
X505959Y520385D01*
X507464Y522991D01*
X508243Y525898D01*
Y528908D01*
X507464Y531815D01*
X505959Y534421D01*
X503831Y536549D01*
X502859Y537110D01*
X503200Y538381D01*
X515832D01*
X516172Y537110D01*
X515197Y536547D01*
X513069Y534419D01*
X511564Y531813D01*
X510785Y528906D01*
Y525896D01*
X511564Y522989D01*
X513069Y520383D01*
X515197Y518255D01*
X517803Y516750D01*
X520710Y515971D01*
X523720D01*
X526627Y516750D01*
X529233Y518255D01*
X531361Y520383D01*
X532866Y522989D01*
X533645Y525896D01*
Y528906D01*
X532866Y531813D01*
X531361Y534419D01*
X529233Y536547D01*
X528258Y537110D01*
X528598Y538381D01*
X628857D01*
X629197Y537110D01*
X628225Y536549D01*
X626097Y534421D01*
X624592Y531815D01*
X623813Y528908D01*
Y525898D01*
X624592Y522991D01*
X626097Y520385D01*
X628225Y518257D01*
X630831Y516752D01*
X633738Y515973D01*
X636748D01*
X639655Y516752D01*
X642261Y518257D01*
X644389Y520385D01*
X645894Y522991D01*
X646673Y525898D01*
Y528908D01*
X645894Y531815D01*
X644389Y534421D01*
X642332Y536479D01*
X642334Y536860D01*
X642562Y537842D01*
X642817Y537904D01*
X649762Y530959D01*
X649213Y528908D01*
Y525898D01*
X649992Y522991D01*
X651497Y520385D01*
X653625Y518257D01*
X656231Y516752D01*
X659138Y515973D01*
X662148D01*
X665055Y516752D01*
X667661Y518257D01*
X669789Y520385D01*
X671294Y522991D01*
X672073Y525898D01*
Y528908D01*
X671524Y530959D01*
X678469Y537904D01*
X678724Y537842D01*
X678952Y536860D01*
X678954Y536479D01*
X676897Y534421D01*
X675392Y531815D01*
X674613Y528908D01*
Y525898D01*
X675392Y522991D01*
X676897Y520385D01*
X679025Y518257D01*
X681631Y516752D01*
X684538Y515973D01*
X687548D01*
X690455Y516752D01*
X693061Y518257D01*
X695189Y520385D01*
X696694Y522991D01*
X697473Y525898D01*
Y528908D01*
X696694Y531815D01*
X695189Y534421D01*
X693061Y536549D01*
X692089Y537110D01*
X692430Y538381D01*
X705062D01*
X705402Y537110D01*
X704427Y536547D01*
X702299Y534419D01*
X700794Y531813D01*
X700015Y528906D01*
Y525896D01*
X700794Y522989D01*
X702299Y520383D01*
X704427Y518255D01*
X707033Y516750D01*
X709940Y515971D01*
X712950D01*
X715857Y516750D01*
X718463Y518255D01*
X720591Y520383D01*
X722096Y522989D01*
X722875Y525896D01*
Y528906D01*
X722096Y531813D01*
X720591Y534419D01*
X718463Y536547D01*
X717488Y537110D01*
X717828Y538381D01*
X764540D01*
X766522Y538775D01*
X768203Y539897D01*
X783443Y555137D01*
X784565Y556818D01*
X784959Y558800D01*
Y595105D01*
X785495Y596398D01*
Y598672D01*
X784959Y599965D01*
Y634125D01*
X789545Y638711D01*
X839429D01*
X844694Y633446D01*
Y632226D01*
X842855Y631164D01*
X840727Y629036D01*
X839222Y626430D01*
X838443Y623523D01*
Y620513D01*
X839222Y617606D01*
X840727Y615000D01*
X842855Y612872D01*
X845461Y611367D01*
X848368Y610588D01*
X851378D01*
X854285Y611367D01*
X856891Y612872D01*
X859019Y615000D01*
X860524Y617606D01*
X861303Y620513D01*
Y623523D01*
X860524Y626430D01*
X859019Y629036D01*
X856891Y631164D01*
X855052Y632226D01*
Y635591D01*
X854658Y637573D01*
X853536Y639254D01*
X845237Y647552D01*
X843556Y648675D01*
X841574Y649070D01*
D02*
G37*
G36*
X825978Y633448D02*
X822968D01*
X820061Y632669D01*
X817455Y631164D01*
X815327Y629036D01*
X813822Y626430D01*
X813043Y623523D01*
Y620513D01*
X813822Y617606D01*
X815327Y615000D01*
X817455Y612872D01*
X820061Y611367D01*
X822968Y610588D01*
X825978D01*
X828885Y611367D01*
X831491Y612872D01*
X833619Y615000D01*
X835124Y617606D01*
X835903Y620513D01*
Y623523D01*
X835124Y626430D01*
X833619Y629036D01*
X831491Y631164D01*
X828885Y632669D01*
X825978Y633448D01*
D02*
G37*
G36*
X902180Y633446D02*
X899170D01*
X896263Y632667D01*
X893657Y631162D01*
X891529Y629034D01*
X890024Y626428D01*
X889245Y623521D01*
Y620511D01*
X890024Y617604D01*
X891529Y614998D01*
X893657Y612870D01*
X896263Y611365D01*
X899170Y610586D01*
X902180D01*
X905087Y611365D01*
X907693Y612870D01*
X909821Y614998D01*
X911326Y617604D01*
X912105Y620511D01*
Y623521D01*
X911326Y626428D01*
X909821Y629034D01*
X907693Y631162D01*
X905087Y632667D01*
X902180Y633446D01*
D02*
G37*
G36*
X914265Y585788D02*
X910963D01*
X907774Y584933D01*
X904914Y583283D01*
X902579Y580948D01*
X900929Y578088D01*
X900074Y574899D01*
Y571597D01*
X900929Y568408D01*
X902579Y565548D01*
X904914Y563214D01*
X907774Y561563D01*
X910963Y560708D01*
X914265D01*
X917454Y561563D01*
X920314Y563214D01*
X922648Y565548D01*
X924299Y568408D01*
X925154Y571597D01*
Y574899D01*
X924299Y578088D01*
X922648Y580948D01*
X920314Y583283D01*
X917454Y584933D01*
X914265Y585788D01*
D02*
G37*
G36*
X814444D02*
X811142D01*
X807953Y584933D01*
X805093Y583283D01*
X802758Y580948D01*
X801108Y578088D01*
X800253Y574899D01*
Y571597D01*
X801108Y568408D01*
X802758Y565548D01*
X805093Y563214D01*
X807953Y561563D01*
X811142Y560708D01*
X814444D01*
X817633Y561563D01*
X820493Y563214D01*
X822828Y565548D01*
X824478Y568408D01*
X825333Y571597D01*
Y574899D01*
X824478Y578088D01*
X822828Y580948D01*
X820493Y583283D01*
X817633Y584933D01*
X814444Y585788D01*
D02*
G37*
G36*
X864829Y594838D02*
X860577D01*
X856405Y594008D01*
X852476Y592381D01*
X848940Y590018D01*
X845933Y587011D01*
X843570Y583475D01*
X841943Y579546D01*
X841113Y575374D01*
Y571122D01*
X841943Y566950D01*
X843570Y563021D01*
X845933Y559485D01*
X848940Y556478D01*
X852476Y554115D01*
X856405Y552488D01*
X860577Y551658D01*
X864829D01*
X869001Y552488D01*
X872930Y554115D01*
X876466Y556478D01*
X879473Y559485D01*
X881836Y563021D01*
X883463Y566950D01*
X884293Y571122D01*
Y575374D01*
X883463Y579546D01*
X881836Y583475D01*
X879473Y587011D01*
X876466Y590018D01*
X872930Y592381D01*
X869001Y594008D01*
X864829Y594838D01*
D02*
G37*
G36*
X901752Y560296D02*
X898074D01*
X894521Y559344D01*
X891335Y557505D01*
X888734Y554904D01*
X886895Y551718D01*
X885943Y548165D01*
Y544487D01*
X886895Y540934D01*
X888734Y537748D01*
X891335Y535147D01*
X894521Y533308D01*
X898074Y532356D01*
X901752D01*
X905305Y533308D01*
X908491Y535147D01*
X911092Y537748D01*
X912931Y540934D01*
X913883Y544487D01*
Y548165D01*
X912931Y551718D01*
X911092Y554904D01*
X908491Y557505D01*
X905305Y559344D01*
X901752Y560296D01*
D02*
G37*
G36*
X840032Y536926D02*
X836354D01*
X832801Y535974D01*
X829615Y534135D01*
X827014Y531534D01*
X825175Y528348D01*
X825118Y528135D01*
X811650D01*
X811650Y528135D01*
X809668Y527741D01*
X807987Y526618D01*
X807987Y526618D01*
X714889Y433521D01*
X662038D01*
X661981Y433733D01*
X660142Y436919D01*
X657541Y439520D01*
X654355Y441359D01*
X650802Y442311D01*
X647124D01*
X643571Y441359D01*
X640385Y439520D01*
X637784Y436919D01*
X635945Y433733D01*
X635888Y433521D01*
X472808D01*
X472751Y433733D01*
X470912Y436919D01*
X468311Y439520D01*
X465125Y441359D01*
X461572Y442311D01*
X457894D01*
X454341Y441359D01*
X451155Y439520D01*
X448554Y436919D01*
X446715Y433733D01*
X446658Y433521D01*
X283578D01*
X283521Y433733D01*
X281682Y436919D01*
X279081Y439520D01*
X275895Y441359D01*
X272342Y442311D01*
X268664D01*
X265111Y441359D01*
X261925Y439520D01*
X259324Y436919D01*
X257485Y433733D01*
X257428Y433521D01*
X94348D01*
X94291Y433733D01*
X92452Y436919D01*
X89851Y439520D01*
X86665Y441359D01*
X83112Y442311D01*
X79434D01*
X75881Y441359D01*
X72695Y439520D01*
X70094Y436919D01*
X68255Y433733D01*
X67303Y430180D01*
Y426502D01*
X68255Y422949D01*
X70094Y419763D01*
X72695Y417162D01*
X75881Y415323D01*
X79434Y414371D01*
X83112D01*
X86665Y415323D01*
X89851Y417162D01*
X92452Y419763D01*
X94291Y422949D01*
X94348Y423162D01*
X257428D01*
X257485Y422949D01*
X259324Y419763D01*
X261925Y417162D01*
X265111Y415323D01*
X268664Y414371D01*
X272342D01*
X275895Y415323D01*
X279081Y417162D01*
X281682Y419763D01*
X283521Y422949D01*
X283578Y423162D01*
X446658D01*
X446715Y422949D01*
X448554Y419763D01*
X451155Y417162D01*
X454341Y415323D01*
X457894Y414371D01*
X461572D01*
X465125Y415323D01*
X468311Y417162D01*
X470912Y419763D01*
X472751Y422949D01*
X472808Y423162D01*
X635888D01*
X635945Y422949D01*
X637784Y419763D01*
X640385Y417162D01*
X643571Y415323D01*
X647124Y414371D01*
X650802D01*
X654355Y415323D01*
X657541Y417162D01*
X660142Y419763D01*
X661981Y422949D01*
X662038Y423162D01*
X717035D01*
X719017Y423556D01*
X720697Y424678D01*
X757715Y461697D01*
X758771Y460991D01*
X758537Y460425D01*
X757673Y456082D01*
Y451654D01*
X758537Y447311D01*
X760231Y443220D01*
X762692Y439538D01*
X765823Y436407D01*
X769505Y433946D01*
X773596Y432252D01*
X777939Y431388D01*
X782367D01*
X786710Y432252D01*
X790801Y433946D01*
X794483Y436407D01*
X797614Y439538D01*
X800074Y443220D01*
X801769Y447311D01*
X802633Y451654D01*
Y456082D01*
X801769Y460425D01*
X800074Y464516D01*
X797614Y468198D01*
X794483Y471329D01*
X790801Y473789D01*
X786710Y475484D01*
X782367Y476348D01*
X777939D01*
X773596Y475484D01*
X773030Y475250D01*
X772324Y476306D01*
X813795Y517776D01*
X825118D01*
X825175Y517564D01*
X827014Y514378D01*
X829615Y511777D01*
X832801Y509938D01*
X836354Y508986D01*
X840032D01*
X843585Y509938D01*
X846771Y511777D01*
X849372Y514378D01*
X851211Y517564D01*
X852163Y521117D01*
Y524795D01*
X851211Y528348D01*
X849372Y531534D01*
X846771Y534135D01*
X843585Y535974D01*
X840032Y536926D01*
D02*
G37*
G36*
X69058Y538833D02*
X66048D01*
X63141Y538054D01*
X60535Y536549D01*
X58407Y534421D01*
X56902Y531815D01*
X56123Y528908D01*
Y525898D01*
X56902Y522991D01*
X58407Y520385D01*
X60535Y518257D01*
X63141Y516752D01*
X66048Y515973D01*
X66937D01*
X67553Y515850D01*
X68169Y515973D01*
X69058D01*
X71965Y516752D01*
X74571Y518257D01*
X76699Y520385D01*
X78204Y522991D01*
X78983Y525898D01*
Y528908D01*
X78204Y531815D01*
X76699Y534421D01*
X74571Y536549D01*
X71965Y538054D01*
X69058Y538833D01*
D02*
G37*
G36*
X725035Y491173D02*
X721733D01*
X718544Y490318D01*
X715684Y488667D01*
X713350Y486333D01*
X711699Y483473D01*
X710844Y480284D01*
Y476982D01*
X711699Y473793D01*
X713350Y470933D01*
X715684Y468599D01*
X718544Y466948D01*
X721733Y466093D01*
X725035D01*
X728224Y466948D01*
X731084Y468599D01*
X733419Y470933D01*
X735069Y473793D01*
X735924Y476982D01*
Y480284D01*
X735069Y483473D01*
X733419Y486333D01*
X731084Y488667D01*
X728224Y490318D01*
X725035Y491173D01*
D02*
G37*
G36*
X625214D02*
X621912D01*
X618723Y490318D01*
X615863Y488667D01*
X613529Y486333D01*
X611878Y483473D01*
X611023Y480284D01*
Y476982D01*
X611878Y473793D01*
X613529Y470933D01*
X615863Y468599D01*
X618723Y466948D01*
X621912Y466093D01*
X625214D01*
X628403Y466948D01*
X631263Y468599D01*
X633597Y470933D01*
X635248Y473793D01*
X636103Y476982D01*
Y480284D01*
X635248Y483473D01*
X633597Y486333D01*
X631263Y488667D01*
X628403Y490318D01*
X625214Y491173D01*
D02*
G37*
G36*
X535805D02*
X532503D01*
X529314Y490318D01*
X526454Y488667D01*
X524119Y486333D01*
X522469Y483473D01*
X521614Y480284D01*
Y476982D01*
X522469Y473793D01*
X524119Y470933D01*
X526454Y468599D01*
X529314Y466948D01*
X532503Y466093D01*
X535805D01*
X538994Y466948D01*
X541854Y468599D01*
X544188Y470933D01*
X545839Y473793D01*
X546694Y476982D01*
Y480284D01*
X545839Y483473D01*
X544188Y486333D01*
X541854Y488667D01*
X538994Y490318D01*
X535805Y491173D01*
D02*
G37*
G36*
X435984D02*
X432682D01*
X429493Y490318D01*
X426633Y488667D01*
X424299Y486333D01*
X422648Y483473D01*
X421793Y480284D01*
Y476982D01*
X422648Y473793D01*
X424299Y470933D01*
X426633Y468599D01*
X429493Y466948D01*
X432682Y466093D01*
X435984D01*
X439173Y466948D01*
X442033Y468599D01*
X444367Y470933D01*
X446018Y473793D01*
X446873Y476982D01*
Y480284D01*
X446018Y483473D01*
X444367Y486333D01*
X442033Y488667D01*
X439173Y490318D01*
X435984Y491173D01*
D02*
G37*
G36*
X346575D02*
X343273D01*
X340084Y490318D01*
X337224Y488667D01*
X334889Y486333D01*
X333239Y483473D01*
X332384Y480284D01*
Y476982D01*
X333239Y473793D01*
X334889Y470933D01*
X337224Y468599D01*
X340084Y466948D01*
X343273Y466093D01*
X346575D01*
X349764Y466948D01*
X352624Y468599D01*
X354958Y470933D01*
X356609Y473793D01*
X357464Y476982D01*
Y480284D01*
X356609Y483473D01*
X354958Y486333D01*
X352624Y488667D01*
X349764Y490318D01*
X346575Y491173D01*
D02*
G37*
G36*
X246754D02*
X243452D01*
X240263Y490318D01*
X237403Y488667D01*
X235068Y486333D01*
X233418Y483473D01*
X232563Y480284D01*
Y476982D01*
X233418Y473793D01*
X235068Y470933D01*
X237403Y468599D01*
X240263Y466948D01*
X243452Y466093D01*
X246754D01*
X249943Y466948D01*
X252803Y468599D01*
X255138Y470933D01*
X256788Y473793D01*
X257643Y476982D01*
Y480284D01*
X256788Y483473D01*
X255138Y486333D01*
X252803Y488667D01*
X249943Y490318D01*
X246754Y491173D01*
D02*
G37*
G36*
X157345D02*
X154043D01*
X150854Y490318D01*
X147994Y488667D01*
X145660Y486333D01*
X144009Y483473D01*
X143154Y480284D01*
Y476982D01*
X144009Y473793D01*
X145660Y470933D01*
X147994Y468599D01*
X150854Y466948D01*
X154043Y466093D01*
X157345D01*
X160534Y466948D01*
X163394Y468599D01*
X165728Y470933D01*
X167379Y473793D01*
X168234Y476982D01*
Y480284D01*
X167379Y483473D01*
X165728Y486333D01*
X163394Y488667D01*
X160534Y490318D01*
X157345Y491173D01*
D02*
G37*
G36*
X57524D02*
X54222D01*
X51033Y490318D01*
X48173Y488667D01*
X45838Y486333D01*
X44188Y483473D01*
X43333Y480284D01*
Y476982D01*
X44188Y473793D01*
X45838Y470933D01*
X48173Y468599D01*
X51033Y466948D01*
X54222Y466093D01*
X57524D01*
X60713Y466948D01*
X63573Y468599D01*
X65908Y470933D01*
X67558Y473793D01*
X68413Y476982D01*
Y480284D01*
X67558Y483473D01*
X65908Y486333D01*
X63573Y488667D01*
X60713Y490318D01*
X57524Y491173D01*
D02*
G37*
G36*
X675599Y500223D02*
X671347D01*
X667175Y499393D01*
X663246Y497766D01*
X659710Y495403D01*
X656703Y492396D01*
X654340Y488860D01*
X652713Y484931D01*
X651883Y480759D01*
Y476507D01*
X652713Y472335D01*
X654340Y468406D01*
X656703Y464870D01*
X659710Y461863D01*
X663246Y459500D01*
X667175Y457873D01*
X671347Y457043D01*
X675599D01*
X679771Y457873D01*
X683700Y459500D01*
X687236Y461863D01*
X690243Y464870D01*
X692606Y468406D01*
X694233Y472335D01*
X695063Y476507D01*
Y480759D01*
X694233Y484931D01*
X692606Y488860D01*
X690243Y492396D01*
X687236Y495403D01*
X683700Y497766D01*
X679771Y499393D01*
X675599Y500223D01*
D02*
G37*
G36*
X486369D02*
X482117D01*
X477945Y499393D01*
X474016Y497766D01*
X470480Y495403D01*
X467473Y492396D01*
X465110Y488860D01*
X463483Y484931D01*
X462653Y480759D01*
Y476507D01*
X463483Y472335D01*
X465110Y468406D01*
X467473Y464870D01*
X470480Y461863D01*
X474016Y459500D01*
X477945Y457873D01*
X482117Y457043D01*
X486369D01*
X490541Y457873D01*
X494470Y459500D01*
X498006Y461863D01*
X501013Y464870D01*
X503376Y468406D01*
X505003Y472335D01*
X505833Y476507D01*
Y480759D01*
X505003Y484931D01*
X503376Y488860D01*
X501013Y492396D01*
X498006Y495403D01*
X494470Y497766D01*
X490541Y499393D01*
X486369Y500223D01*
D02*
G37*
G36*
X297139D02*
X292887D01*
X288715Y499393D01*
X284786Y497766D01*
X281250Y495403D01*
X278243Y492396D01*
X275880Y488860D01*
X274253Y484931D01*
X273423Y480759D01*
Y476507D01*
X274253Y472335D01*
X275880Y468406D01*
X278243Y464870D01*
X281250Y461863D01*
X284786Y459500D01*
X288715Y457873D01*
X292887Y457043D01*
X297139D01*
X301311Y457873D01*
X305240Y459500D01*
X308776Y461863D01*
X311783Y464870D01*
X314146Y468406D01*
X315773Y472335D01*
X316603Y476507D01*
Y480759D01*
X315773Y484931D01*
X314146Y488860D01*
X311783Y492396D01*
X308776Y495403D01*
X305240Y497766D01*
X301311Y499393D01*
X297139Y500223D01*
D02*
G37*
G36*
X107909D02*
X103657D01*
X99485Y499393D01*
X95556Y497766D01*
X92020Y495403D01*
X89013Y492396D01*
X86650Y488860D01*
X85023Y484931D01*
X84193Y480759D01*
Y476507D01*
X85023Y472335D01*
X86650Y468406D01*
X89013Y464870D01*
X92020Y461863D01*
X95556Y459500D01*
X99485Y457873D01*
X103657Y457043D01*
X107909D01*
X112081Y457873D01*
X116010Y459500D01*
X119546Y461863D01*
X122553Y464870D01*
X124916Y468406D01*
X126543Y472335D01*
X127373Y476507D01*
Y480759D01*
X126543Y484931D01*
X124916Y488860D01*
X122553Y492396D01*
X119546Y495403D01*
X116010Y497766D01*
X112081Y499393D01*
X107909Y500223D01*
D02*
G37*
G36*
X712522Y465681D02*
X708844D01*
X705291Y464729D01*
X702105Y462890D01*
X699504Y460289D01*
X697665Y457103D01*
X696713Y453550D01*
Y449872D01*
X697665Y446319D01*
X699504Y443133D01*
X702105Y440532D01*
X705291Y438693D01*
X708844Y437741D01*
X712522D01*
X716075Y438693D01*
X719261Y440532D01*
X721862Y443133D01*
X723701Y446319D01*
X724653Y449872D01*
Y453550D01*
X723701Y457103D01*
X721862Y460289D01*
X719261Y462890D01*
X716075Y464729D01*
X712522Y465681D01*
D02*
G37*
G36*
X523292D02*
X519614D01*
X516061Y464729D01*
X512875Y462890D01*
X510274Y460289D01*
X508435Y457103D01*
X507483Y453550D01*
Y449872D01*
X508435Y446319D01*
X510274Y443133D01*
X512875Y440532D01*
X516061Y438693D01*
X519614Y437741D01*
X523292D01*
X526845Y438693D01*
X530031Y440532D01*
X532632Y443133D01*
X534471Y446319D01*
X535423Y449872D01*
Y453550D01*
X534471Y457103D01*
X532632Y460289D01*
X530031Y462890D01*
X526845Y464729D01*
X523292Y465681D01*
D02*
G37*
G36*
X334062D02*
X330384D01*
X326831Y464729D01*
X323645Y462890D01*
X321044Y460289D01*
X319205Y457103D01*
X318253Y453550D01*
Y449872D01*
X319205Y446319D01*
X321044Y443133D01*
X323645Y440532D01*
X326831Y438693D01*
X330384Y437741D01*
X334062D01*
X337615Y438693D01*
X340801Y440532D01*
X343402Y443133D01*
X345241Y446319D01*
X346193Y449872D01*
Y453550D01*
X345241Y457103D01*
X343402Y460289D01*
X340801Y462890D01*
X337615Y464729D01*
X334062Y465681D01*
D02*
G37*
G36*
X144832D02*
X141154D01*
X137601Y464729D01*
X134415Y462890D01*
X131814Y460289D01*
X129975Y457103D01*
X129023Y453550D01*
Y449872D01*
X129975Y446319D01*
X131814Y443133D01*
X134415Y440532D01*
X137601Y438693D01*
X141154Y437741D01*
X144832D01*
X148385Y438693D01*
X151571Y440532D01*
X154172Y443133D01*
X156011Y446319D01*
X156963Y449872D01*
Y453550D01*
X156011Y457103D01*
X154172Y460289D01*
X151571Y462890D01*
X148385Y464729D01*
X144832Y465681D01*
D02*
G37*
G36*
X934304Y471648D02*
X930802D01*
X927367Y470965D01*
X924131Y469624D01*
X921219Y467679D01*
X918742Y465202D01*
X916797Y462290D01*
X915456Y459054D01*
X914773Y455619D01*
Y452117D01*
X915456Y448682D01*
X916797Y445446D01*
X918742Y442534D01*
X921219Y440057D01*
X924131Y438112D01*
X927367Y436771D01*
X930802Y436088D01*
X934304D01*
X937739Y436771D01*
X940975Y438112D01*
X943887Y440057D01*
X946364Y442534D01*
X948309Y445446D01*
X949650Y448682D01*
X950333Y452117D01*
Y455619D01*
X949650Y459054D01*
X948309Y462290D01*
X946364Y465202D01*
X943887Y467679D01*
X940975Y469624D01*
X937739Y470965D01*
X934304Y471648D01*
D02*
G37*
G36*
X453986Y360779D02*
X299610D01*
X297628Y360385D01*
X295947Y359263D01*
X285739Y349053D01*
X283688Y349603D01*
X280678D01*
X278627Y349053D01*
X268419Y359263D01*
X266738Y360385D01*
X264756Y360779D01*
X110380D01*
X108398Y360385D01*
X106718Y359263D01*
X96509Y349053D01*
X94458Y349603D01*
X91448D01*
X88541Y348824D01*
X85935Y347319D01*
X83807Y345191D01*
X82302Y342585D01*
X81523Y339678D01*
Y336668D01*
X82302Y333761D01*
X83807Y331155D01*
X85935Y329027D01*
X88541Y327522D01*
X91448Y326743D01*
X94458D01*
X97365Y327522D01*
X99971Y329027D01*
X102099Y331155D01*
X103604Y333761D01*
X104383Y336668D01*
Y339678D01*
X103834Y341729D01*
X112525Y350420D01*
X114992D01*
X115159Y349151D01*
X113941Y348824D01*
X111335Y347319D01*
X109207Y345191D01*
X107702Y342585D01*
X106923Y339678D01*
Y336668D01*
X107702Y333761D01*
X109207Y331155D01*
X111335Y329027D01*
X113941Y327522D01*
X116848Y326743D01*
X119858D01*
X122765Y327522D01*
X125371Y329027D01*
X127499Y331155D01*
X129004Y333761D01*
X129783Y336668D01*
Y339678D01*
X129004Y342585D01*
X127499Y345191D01*
X125371Y347319D01*
X122765Y348824D01*
X121547Y349151D01*
X121714Y350420D01*
X140402D01*
X140569Y349151D01*
X139343Y348822D01*
X136737Y347317D01*
X134609Y345189D01*
X133104Y342583D01*
X132325Y339676D01*
Y336666D01*
X133104Y333759D01*
X134609Y331153D01*
X136737Y329025D01*
X139343Y327520D01*
X142250Y326741D01*
X145260D01*
X148167Y327520D01*
X150773Y329025D01*
X152901Y331153D01*
X154406Y333759D01*
X155185Y336666D01*
Y339676D01*
X154406Y342583D01*
X152901Y345189D01*
X150773Y347317D01*
X148167Y348822D01*
X146941Y349151D01*
X147108Y350420D01*
X253422D01*
X253589Y349151D01*
X252371Y348824D01*
X249765Y347319D01*
X247637Y345191D01*
X246132Y342585D01*
X245353Y339678D01*
Y336668D01*
X246132Y333761D01*
X247637Y331155D01*
X249765Y329027D01*
X252371Y327522D01*
X255278Y326743D01*
X258288D01*
X261195Y327522D01*
X263801Y329027D01*
X265929Y331155D01*
X267434Y333761D01*
X268213Y336668D01*
Y339678D01*
X267434Y342585D01*
X265929Y345191D01*
X263801Y347319D01*
X261195Y348824D01*
X259977Y349151D01*
X260144Y350420D01*
X262611D01*
X271303Y341729D01*
X270753Y339678D01*
Y336668D01*
X271532Y333761D01*
X273037Y331155D01*
X275165Y329027D01*
X277771Y327522D01*
X280678Y326743D01*
X283688D01*
X286595Y327522D01*
X289201Y329027D01*
X291329Y331155D01*
X292834Y333761D01*
X293613Y336668D01*
Y339678D01*
X293064Y341729D01*
X301755Y350420D01*
X304222D01*
X304389Y349151D01*
X303171Y348824D01*
X300565Y347319D01*
X298437Y345191D01*
X296932Y342585D01*
X296153Y339678D01*
Y336668D01*
X296932Y333761D01*
X298437Y331155D01*
X300565Y329027D01*
X303171Y327522D01*
X306078Y326743D01*
X309088D01*
X311995Y327522D01*
X314601Y329027D01*
X316729Y331155D01*
X318234Y333761D01*
X319013Y336668D01*
Y339678D01*
X318234Y342585D01*
X316729Y345191D01*
X314601Y347319D01*
X311995Y348824D01*
X310777Y349151D01*
X310944Y350420D01*
X329632D01*
X329799Y349151D01*
X328573Y348822D01*
X325967Y347317D01*
X323839Y345189D01*
X322334Y342583D01*
X321555Y339676D01*
Y336666D01*
X322334Y333759D01*
X323839Y331153D01*
X325967Y329025D01*
X328573Y327520D01*
X331480Y326741D01*
X334490D01*
X337397Y327520D01*
X340003Y329025D01*
X342131Y331153D01*
X343636Y333759D01*
X344415Y336666D01*
Y339676D01*
X343636Y342583D01*
X342131Y345189D01*
X340003Y347317D01*
X337397Y348822D01*
X336171Y349151D01*
X336338Y350420D01*
X442652D01*
X442819Y349151D01*
X441601Y348824D01*
X438995Y347319D01*
X436867Y345191D01*
X435362Y342585D01*
X434583Y339678D01*
Y336668D01*
X435362Y333761D01*
X436867Y331155D01*
X438995Y329027D01*
X441601Y327522D01*
X444508Y326743D01*
X447518D01*
X450425Y327522D01*
X453031Y329027D01*
X455159Y331155D01*
X456664Y333761D01*
X457443Y336668D01*
Y339678D01*
X456664Y342585D01*
X455159Y345191D01*
X453031Y347319D01*
X450425Y348824D01*
X449207Y349151D01*
X449374Y350420D01*
X451841D01*
X460532Y341729D01*
X459983Y339678D01*
Y336668D01*
X460762Y333761D01*
X462267Y331155D01*
X464395Y329027D01*
X467001Y327522D01*
X469908Y326743D01*
X472918D01*
X475825Y327522D01*
X478431Y329027D01*
X480559Y331155D01*
X482064Y333761D01*
X482843Y336668D01*
Y339678D01*
X482294Y341729D01*
X489239Y348674D01*
X489494Y348612D01*
X489723Y347630D01*
X489724Y347249D01*
X487667Y345191D01*
X486162Y342585D01*
X485383Y339678D01*
Y336668D01*
X486162Y333761D01*
X487667Y331155D01*
X489795Y329027D01*
X492401Y327522D01*
X495308Y326743D01*
X498318D01*
X501225Y327522D01*
X503831Y329027D01*
X505959Y331155D01*
X507464Y333761D01*
X508243Y336668D01*
Y339678D01*
X507464Y342585D01*
X505959Y345191D01*
X503831Y347319D01*
X502859Y347881D01*
X503200Y349151D01*
X515832D01*
X516172Y347881D01*
X515197Y347317D01*
X513069Y345189D01*
X511564Y342583D01*
X510785Y339676D01*
Y336666D01*
X511564Y333759D01*
X513069Y331153D01*
X515197Y329025D01*
X517803Y327520D01*
X520710Y326741D01*
X523720D01*
X526627Y327520D01*
X529233Y329025D01*
X531361Y331153D01*
X532866Y333759D01*
X533645Y336666D01*
Y339676D01*
X532866Y342583D01*
X531361Y345189D01*
X529233Y347317D01*
X528258Y347881D01*
X528598Y349151D01*
X628857D01*
X629197Y347881D01*
X628225Y347319D01*
X626097Y345191D01*
X624592Y342585D01*
X623813Y339678D01*
Y336668D01*
X624592Y333761D01*
X626097Y331155D01*
X628225Y329027D01*
X630831Y327522D01*
X633738Y326743D01*
X636748D01*
X639655Y327522D01*
X642261Y329027D01*
X644389Y331155D01*
X645894Y333761D01*
X646673Y336668D01*
Y339678D01*
X645894Y342585D01*
X644389Y345191D01*
X642332Y347249D01*
X642334Y347630D01*
X642562Y348612D01*
X642817Y348674D01*
X649762Y341729D01*
X649213Y339678D01*
Y336668D01*
X649992Y333761D01*
X651497Y331155D01*
X653625Y329027D01*
X656231Y327522D01*
X659138Y326743D01*
X662148D01*
X665055Y327522D01*
X667661Y329027D01*
X669789Y331155D01*
X671294Y333761D01*
X672073Y336668D01*
Y339678D01*
X671524Y341729D01*
X676784Y346989D01*
X676880Y346970D01*
X677298Y345592D01*
X676897Y345191D01*
X675392Y342585D01*
X674613Y339678D01*
Y336668D01*
X675392Y333761D01*
X676897Y331155D01*
X679025Y329027D01*
X681631Y327522D01*
X684538Y326743D01*
X687548D01*
X690455Y327522D01*
X693061Y329027D01*
X695189Y331155D01*
X696694Y333761D01*
X697473Y336668D01*
Y339678D01*
X696694Y342585D01*
X695189Y345191D01*
X693770Y346610D01*
X694296Y347881D01*
X703194D01*
X703720Y346610D01*
X702299Y345189D01*
X700794Y342583D01*
X700015Y339676D01*
Y336666D01*
X700794Y333759D01*
X702299Y331153D01*
X704427Y329025D01*
X707033Y327520D01*
X709940Y326741D01*
X712950D01*
X715857Y327520D01*
X718463Y329025D01*
X720591Y331153D01*
X722096Y333759D01*
X722875Y336666D01*
Y339676D01*
X722096Y342583D01*
X720591Y345189D01*
X719170Y346610D01*
X719696Y347881D01*
X774810D01*
X776103Y347345D01*
X778377D01*
X780477Y348215D01*
X782085Y349823D01*
X782955Y351923D01*
Y354197D01*
X782085Y356297D01*
X780477Y357905D01*
X778377Y358775D01*
X776103D01*
X774810Y358240D01*
X675530D01*
X673548Y357845D01*
X671868Y356722D01*
X664199Y349053D01*
X662148Y349603D01*
X659138D01*
X657087Y349053D01*
X648148Y357993D01*
X646468Y359115D01*
X644486Y359510D01*
X487570D01*
X485588Y359115D01*
X483908Y357993D01*
X474968Y349053D01*
X472918Y349603D01*
X469908D01*
X467858Y349053D01*
X457649Y359263D01*
X455968Y360385D01*
X453986Y360779D01*
D02*
G37*
G36*
X69058Y349603D02*
X66048D01*
X63141Y348824D01*
X60535Y347319D01*
X58407Y345191D01*
X56902Y342585D01*
X56123Y339678D01*
Y336668D01*
X56902Y333761D01*
X58407Y331155D01*
X60535Y329027D01*
X63141Y327522D01*
X66048Y326743D01*
X69058D01*
X71965Y327522D01*
X74571Y329027D01*
X76699Y331155D01*
X78204Y333761D01*
X78983Y336668D01*
Y339678D01*
X78204Y342585D01*
X76699Y345191D01*
X74571Y347319D01*
X71965Y348824D01*
X69058Y349603D01*
D02*
G37*
G36*
X934304Y331948D02*
X930802D01*
X927367Y331265D01*
X924131Y329924D01*
X921219Y327979D01*
X918742Y325502D01*
X916797Y322590D01*
X915456Y319354D01*
X914773Y315919D01*
Y312417D01*
X915456Y308982D01*
X916797Y305746D01*
X918742Y302834D01*
X921219Y300357D01*
X924131Y298412D01*
X927367Y297071D01*
X930802Y296388D01*
X934304D01*
X937739Y297071D01*
X940975Y298412D01*
X943887Y300357D01*
X946364Y302834D01*
X948309Y305746D01*
X949650Y308982D01*
X950333Y312417D01*
Y315919D01*
X949650Y319354D01*
X948309Y322590D01*
X946364Y325502D01*
X943887Y327979D01*
X940975Y329924D01*
X937739Y331265D01*
X934304Y331948D01*
D02*
G37*
G36*
X782367Y336648D02*
X777939D01*
X773596Y335784D01*
X769505Y334090D01*
X765823Y331629D01*
X762692Y328498D01*
X760231Y324816D01*
X758537Y320725D01*
X757673Y316382D01*
Y311954D01*
X758537Y307611D01*
X760231Y303520D01*
X762692Y299838D01*
X765823Y296707D01*
X769505Y294247D01*
X773596Y292552D01*
X777939Y291688D01*
X782367D01*
X786710Y292552D01*
X790801Y294247D01*
X794483Y296707D01*
X797614Y299838D01*
X800074Y303520D01*
X801769Y307611D01*
X802633Y311954D01*
Y316382D01*
X801769Y320725D01*
X800074Y324816D01*
X797614Y328498D01*
X794483Y331629D01*
X790801Y334090D01*
X786710Y335784D01*
X782367Y336648D01*
D02*
G37*
G36*
X725035Y301943D02*
X721733D01*
X718544Y301088D01*
X715684Y299438D01*
X713350Y297103D01*
X711699Y294243D01*
X710844Y291054D01*
Y287752D01*
X711699Y284563D01*
X713350Y281703D01*
X715684Y279368D01*
X718544Y277718D01*
X721733Y276863D01*
X725035D01*
X728224Y277718D01*
X731084Y279368D01*
X733419Y281703D01*
X735069Y284563D01*
X735924Y287752D01*
Y291054D01*
X735069Y294243D01*
X733419Y297103D01*
X731084Y299438D01*
X728224Y301088D01*
X725035Y301943D01*
D02*
G37*
G36*
X625214D02*
X621912D01*
X618723Y301088D01*
X615863Y299438D01*
X613529Y297103D01*
X611878Y294243D01*
X611023Y291054D01*
Y287752D01*
X611878Y284563D01*
X613529Y281703D01*
X615863Y279368D01*
X618723Y277718D01*
X621912Y276863D01*
X625214D01*
X628403Y277718D01*
X631263Y279368D01*
X633597Y281703D01*
X635248Y284563D01*
X636103Y287752D01*
Y291054D01*
X635248Y294243D01*
X633597Y297103D01*
X631263Y299438D01*
X628403Y301088D01*
X625214Y301943D01*
D02*
G37*
G36*
X535805D02*
X532503D01*
X529314Y301088D01*
X526454Y299438D01*
X524119Y297103D01*
X522469Y294243D01*
X521614Y291054D01*
Y287752D01*
X522469Y284563D01*
X524119Y281703D01*
X526454Y279368D01*
X529314Y277718D01*
X532503Y276863D01*
X535805D01*
X538994Y277718D01*
X541854Y279368D01*
X544188Y281703D01*
X545839Y284563D01*
X546694Y287752D01*
Y291054D01*
X545839Y294243D01*
X544188Y297103D01*
X541854Y299438D01*
X538994Y301088D01*
X535805Y301943D01*
D02*
G37*
G36*
X435984D02*
X432682D01*
X429493Y301088D01*
X426633Y299438D01*
X424299Y297103D01*
X422648Y294243D01*
X421793Y291054D01*
Y287752D01*
X422648Y284563D01*
X424299Y281703D01*
X426633Y279368D01*
X429493Y277718D01*
X432682Y276863D01*
X435984D01*
X439173Y277718D01*
X442033Y279368D01*
X444367Y281703D01*
X446018Y284563D01*
X446873Y287752D01*
Y291054D01*
X446018Y294243D01*
X444367Y297103D01*
X442033Y299438D01*
X439173Y301088D01*
X435984Y301943D01*
D02*
G37*
G36*
X346575D02*
X343273D01*
X340084Y301088D01*
X337224Y299438D01*
X334889Y297103D01*
X333239Y294243D01*
X332384Y291054D01*
Y287752D01*
X333239Y284563D01*
X334889Y281703D01*
X337224Y279368D01*
X340084Y277718D01*
X343273Y276863D01*
X346575D01*
X349764Y277718D01*
X352624Y279368D01*
X354958Y281703D01*
X356609Y284563D01*
X357464Y287752D01*
Y291054D01*
X356609Y294243D01*
X354958Y297103D01*
X352624Y299438D01*
X349764Y301088D01*
X346575Y301943D01*
D02*
G37*
G36*
X246754D02*
X243452D01*
X240263Y301088D01*
X237403Y299438D01*
X235068Y297103D01*
X233418Y294243D01*
X232563Y291054D01*
Y287752D01*
X233418Y284563D01*
X235068Y281703D01*
X237403Y279368D01*
X240263Y277718D01*
X243452Y276863D01*
X246754D01*
X249943Y277718D01*
X252803Y279368D01*
X255138Y281703D01*
X256788Y284563D01*
X257643Y287752D01*
Y291054D01*
X256788Y294243D01*
X255138Y297103D01*
X252803Y299438D01*
X249943Y301088D01*
X246754Y301943D01*
D02*
G37*
G36*
X157345D02*
X154043D01*
X150854Y301088D01*
X147994Y299438D01*
X145660Y297103D01*
X144009Y294243D01*
X143154Y291054D01*
Y287752D01*
X144009Y284563D01*
X145660Y281703D01*
X147994Y279368D01*
X150854Y277718D01*
X154043Y276863D01*
X157345D01*
X160534Y277718D01*
X163394Y279368D01*
X165728Y281703D01*
X167379Y284563D01*
X168234Y287752D01*
Y291054D01*
X167379Y294243D01*
X165728Y297103D01*
X163394Y299438D01*
X160534Y301088D01*
X157345Y301943D01*
D02*
G37*
G36*
X57524D02*
X54222D01*
X51033Y301088D01*
X48173Y299438D01*
X45838Y297103D01*
X44188Y294243D01*
X43333Y291054D01*
Y287752D01*
X44188Y284563D01*
X45838Y281703D01*
X48173Y279368D01*
X51033Y277718D01*
X54222Y276863D01*
X57524D01*
X60713Y277718D01*
X63573Y279368D01*
X65908Y281703D01*
X67558Y284563D01*
X68413Y287752D01*
Y291054D01*
X67558Y294243D01*
X65908Y297103D01*
X63573Y299438D01*
X60713Y301088D01*
X57524Y301943D01*
D02*
G37*
G36*
X675599Y310993D02*
X671347D01*
X667175Y310163D01*
X663246Y308536D01*
X659710Y306173D01*
X656703Y303166D01*
X654340Y299630D01*
X652713Y295701D01*
X651883Y291529D01*
Y287277D01*
X652713Y283105D01*
X654340Y279176D01*
X656703Y275640D01*
X659710Y272633D01*
X663246Y270270D01*
X667175Y268643D01*
X671347Y267813D01*
X675599D01*
X679771Y268643D01*
X683700Y270270D01*
X687236Y272633D01*
X690243Y275640D01*
X692606Y279176D01*
X694233Y283105D01*
X695063Y287277D01*
Y291529D01*
X694233Y295701D01*
X692606Y299630D01*
X690243Y303166D01*
X687236Y306173D01*
X683700Y308536D01*
X679771Y310163D01*
X675599Y310993D01*
D02*
G37*
G36*
X486369D02*
X482117D01*
X477945Y310163D01*
X474016Y308536D01*
X470480Y306173D01*
X467473Y303166D01*
X465110Y299630D01*
X463483Y295701D01*
X462653Y291529D01*
Y287277D01*
X463483Y283105D01*
X465110Y279176D01*
X467473Y275640D01*
X470480Y272633D01*
X474016Y270270D01*
X477945Y268643D01*
X482117Y267813D01*
X486369D01*
X490541Y268643D01*
X494470Y270270D01*
X498006Y272633D01*
X501013Y275640D01*
X503376Y279176D01*
X505003Y283105D01*
X505833Y287277D01*
Y291529D01*
X505003Y295701D01*
X503376Y299630D01*
X501013Y303166D01*
X498006Y306173D01*
X494470Y308536D01*
X490541Y310163D01*
X486369Y310993D01*
D02*
G37*
G36*
X297139D02*
X292887D01*
X288715Y310163D01*
X284786Y308536D01*
X281250Y306173D01*
X278243Y303166D01*
X275880Y299630D01*
X274253Y295701D01*
X273423Y291529D01*
Y287277D01*
X274253Y283105D01*
X275880Y279176D01*
X278243Y275640D01*
X281250Y272633D01*
X284786Y270270D01*
X288715Y268643D01*
X292887Y267813D01*
X297139D01*
X301311Y268643D01*
X305240Y270270D01*
X308776Y272633D01*
X311783Y275640D01*
X314146Y279176D01*
X315773Y283105D01*
X316603Y287277D01*
Y291529D01*
X315773Y295701D01*
X314146Y299630D01*
X311783Y303166D01*
X308776Y306173D01*
X305240Y308536D01*
X301311Y310163D01*
X297139Y310993D01*
D02*
G37*
G36*
X107909D02*
X103657D01*
X99485Y310163D01*
X95556Y308536D01*
X92020Y306173D01*
X89013Y303166D01*
X86650Y299630D01*
X85023Y295701D01*
X84193Y291529D01*
Y287277D01*
X85023Y283105D01*
X86650Y279176D01*
X89013Y275640D01*
X92020Y272633D01*
X95556Y270270D01*
X99485Y268643D01*
X103657Y267813D01*
X107909D01*
X112081Y268643D01*
X116010Y270270D01*
X119546Y272633D01*
X122553Y275640D01*
X124916Y279176D01*
X126543Y283105D01*
X127373Y287277D01*
Y291529D01*
X126543Y295701D01*
X124916Y299630D01*
X122553Y303166D01*
X119546Y306173D01*
X116010Y308536D01*
X112081Y310163D01*
X107909Y310993D01*
D02*
G37*
G36*
X712522Y276451D02*
X708844D01*
X705291Y275499D01*
X702105Y273660D01*
X699504Y271059D01*
X697665Y267873D01*
X696713Y264320D01*
Y260642D01*
X697665Y257089D01*
X699504Y253903D01*
X702105Y251302D01*
X705291Y249463D01*
X708844Y248511D01*
X712522D01*
X716075Y249463D01*
X719261Y251302D01*
X721862Y253903D01*
X723701Y257089D01*
X724653Y260642D01*
Y264320D01*
X723701Y267873D01*
X721862Y271059D01*
X719261Y273660D01*
X716075Y275499D01*
X712522Y276451D01*
D02*
G37*
G36*
X523292D02*
X519614D01*
X516061Y275499D01*
X512875Y273660D01*
X510274Y271059D01*
X508435Y267873D01*
X507483Y264320D01*
Y260642D01*
X508435Y257089D01*
X510274Y253903D01*
X512875Y251302D01*
X516061Y249463D01*
X519614Y248511D01*
X523292D01*
X526845Y249463D01*
X530031Y251302D01*
X532632Y253903D01*
X534471Y257089D01*
X535423Y260642D01*
Y264320D01*
X534471Y267873D01*
X532632Y271059D01*
X530031Y273660D01*
X526845Y275499D01*
X523292Y276451D01*
D02*
G37*
G36*
X334062D02*
X330384D01*
X326831Y275499D01*
X323645Y273660D01*
X321044Y271059D01*
X319205Y267873D01*
X318253Y264320D01*
Y260642D01*
X319205Y257089D01*
X321044Y253903D01*
X323645Y251302D01*
X326831Y249463D01*
X330384Y248511D01*
X334062D01*
X337615Y249463D01*
X340801Y251302D01*
X343402Y253903D01*
X345241Y257089D01*
X346193Y260642D01*
Y264320D01*
X345241Y267873D01*
X343402Y271059D01*
X340801Y273660D01*
X337615Y275499D01*
X334062Y276451D01*
D02*
G37*
G36*
X144832D02*
X141154D01*
X137601Y275499D01*
X134415Y273660D01*
X131814Y271059D01*
X129975Y267873D01*
X129023Y264320D01*
Y260642D01*
X129975Y257089D01*
X131814Y253903D01*
X134415Y251302D01*
X137601Y249463D01*
X141154Y248511D01*
X144832D01*
X148385Y249463D01*
X151571Y251302D01*
X154172Y253903D01*
X156011Y257089D01*
X156963Y260642D01*
Y264320D01*
X156011Y267873D01*
X154172Y271059D01*
X151571Y273660D01*
X148385Y275499D01*
X144832Y276451D01*
D02*
G37*
G36*
X650802Y253081D02*
X647124D01*
X643571Y252129D01*
X640385Y250290D01*
X637784Y247689D01*
X635945Y244503D01*
X635888Y244291D01*
X472808D01*
X472751Y244503D01*
X470912Y247689D01*
X468311Y250290D01*
X465125Y252129D01*
X461572Y253081D01*
X457894D01*
X454341Y252129D01*
X451155Y250290D01*
X448554Y247689D01*
X446715Y244503D01*
X446658Y244291D01*
X283578D01*
X283521Y244503D01*
X281682Y247689D01*
X279081Y250290D01*
X275895Y252129D01*
X272342Y253081D01*
X268664D01*
X265111Y252129D01*
X261925Y250290D01*
X259324Y247689D01*
X257485Y244503D01*
X257428Y244291D01*
X94348D01*
X94291Y244503D01*
X92452Y247689D01*
X89851Y250290D01*
X86665Y252129D01*
X83112Y253081D01*
X79434D01*
X75881Y252129D01*
X72695Y250290D01*
X70094Y247689D01*
X68255Y244503D01*
X67303Y240950D01*
Y237272D01*
X68255Y233719D01*
X70094Y230533D01*
X72695Y227932D01*
X75881Y226093D01*
X79434Y225141D01*
X83112D01*
X86665Y226093D01*
X89851Y227932D01*
X92452Y230533D01*
X94291Y233719D01*
X94348Y233932D01*
X257428D01*
X257485Y233719D01*
X259324Y230533D01*
X261925Y227932D01*
X265111Y226093D01*
X268664Y225141D01*
X272342D01*
X275895Y226093D01*
X279081Y227932D01*
X281682Y230533D01*
X283521Y233719D01*
X283578Y233932D01*
X446658D01*
X446715Y233719D01*
X448554Y230533D01*
X451155Y227932D01*
X454341Y226093D01*
X457894Y225141D01*
X461572D01*
X465125Y226093D01*
X468311Y227932D01*
X470912Y230533D01*
X472751Y233719D01*
X472808Y233932D01*
X635888D01*
X635945Y233719D01*
X637784Y230533D01*
X640385Y227932D01*
X643571Y226093D01*
X647124Y225141D01*
X650802D01*
X654355Y226093D01*
X657541Y227932D01*
X660142Y230533D01*
X661981Y233719D01*
X662933Y237272D01*
Y240950D01*
X661981Y244503D01*
X660142Y247689D01*
X657541Y250290D01*
X654355Y252129D01*
X650802Y253081D01*
D02*
G37*
G36*
X876778Y254988D02*
X873768D01*
X870861Y254209D01*
X868255Y252704D01*
X866127Y250576D01*
X864622Y247970D01*
X863843Y245063D01*
Y242053D01*
X864622Y239146D01*
X866127Y236540D01*
X868255Y234412D01*
X870861Y232907D01*
X873768Y232128D01*
X876778D01*
X879685Y232907D01*
X882291Y234412D01*
X884419Y236540D01*
X885924Y239146D01*
X886703Y242053D01*
Y245063D01*
X885924Y247970D01*
X884419Y250576D01*
X882291Y252704D01*
X879685Y254209D01*
X876778Y254988D01*
D02*
G37*
G36*
X851378D02*
X848368D01*
X845461Y254209D01*
X842855Y252704D01*
X840727Y250576D01*
X839222Y247970D01*
X838443Y245063D01*
Y242053D01*
X838992Y240002D01*
X828187Y229198D01*
X827065Y227517D01*
X826671Y225535D01*
Y183755D01*
X780175Y137260D01*
X716612D01*
X716272Y138530D01*
X718463Y139795D01*
X720591Y141923D01*
X722096Y144529D01*
X722875Y147436D01*
Y150446D01*
X722096Y153353D01*
X720591Y155959D01*
X718463Y158087D01*
X715857Y159592D01*
X712950Y160371D01*
X709940D01*
X707033Y159592D01*
X704427Y158087D01*
X702299Y155959D01*
X700794Y153353D01*
X700015Y150446D01*
Y147436D01*
X700794Y144529D01*
X702299Y141923D01*
X704427Y139795D01*
X706618Y138530D01*
X706278Y137260D01*
X691207D01*
X690866Y138530D01*
X693061Y139797D01*
X695189Y141925D01*
X696694Y144531D01*
X697473Y147438D01*
Y150448D01*
X696694Y153355D01*
X695189Y155961D01*
X693061Y158089D01*
X690455Y159594D01*
X687548Y160373D01*
X684538D01*
X681631Y159594D01*
X679025Y158089D01*
X676897Y155961D01*
X675392Y153355D01*
X674613Y150448D01*
Y147438D01*
X675392Y144531D01*
X676897Y141925D01*
X679025Y139797D01*
X681220Y138530D01*
X680879Y137260D01*
X679651D01*
X671524Y145387D01*
X672073Y147438D01*
Y150448D01*
X671294Y153355D01*
X669789Y155961D01*
X667661Y158089D01*
X665055Y159594D01*
X662148Y160373D01*
X659138D01*
X656231Y159594D01*
X653625Y158089D01*
X651497Y155961D01*
X649992Y153355D01*
X649213Y150448D01*
Y147438D01*
X649762Y145387D01*
X640365Y135990D01*
X397076D01*
X387678Y145387D01*
X388228Y147438D01*
Y150448D01*
X387449Y153355D01*
X385944Y155961D01*
X383816Y158089D01*
X381210Y159594D01*
X378303Y160373D01*
X375293D01*
X372386Y159594D01*
X369780Y158089D01*
X367652Y155961D01*
X366147Y153355D01*
X365368Y150448D01*
Y147438D01*
X365918Y145387D01*
X356520Y135990D01*
X113231D01*
X103834Y145387D01*
X104383Y147438D01*
Y150448D01*
X103604Y153355D01*
X102099Y155961D01*
X99971Y158089D01*
X97365Y159594D01*
X94458Y160373D01*
X91448D01*
X88541Y159594D01*
X85935Y158089D01*
X83807Y155961D01*
X82302Y153355D01*
X81523Y150448D01*
Y147438D01*
X82302Y144531D01*
X83807Y141925D01*
X85935Y139797D01*
X88541Y138292D01*
X91448Y137513D01*
X94458D01*
X96509Y138062D01*
X107423Y127148D01*
X109104Y126025D01*
X111086Y125631D01*
X358665D01*
X360647Y126025D01*
X362327Y127148D01*
X373242Y138062D01*
X375293Y137513D01*
X378303D01*
X380354Y138062D01*
X391269Y127148D01*
X392949Y126025D01*
X394931Y125631D01*
X642510D01*
X644492Y126025D01*
X646172Y127148D01*
X657087Y138062D01*
X659138Y137513D01*
X662148D01*
X664199Y138062D01*
X673844Y128418D01*
X673844Y128418D01*
X675524Y127295D01*
X677506Y126901D01*
X677506Y126901D01*
X782320D01*
X784302Y127295D01*
X785983Y128418D01*
X835512Y177948D01*
X835512Y177948D01*
X836635Y179628D01*
X837029Y181610D01*
Y223390D01*
X846318Y232677D01*
X848368Y232128D01*
X851378D01*
X854285Y232907D01*
X856891Y234412D01*
X859019Y236540D01*
X860524Y239146D01*
X861303Y242053D01*
Y245063D01*
X860524Y247970D01*
X859019Y250576D01*
X856891Y252704D01*
X854285Y254209D01*
X851378Y254988D01*
D02*
G37*
G36*
X825978D02*
X822968D01*
X820061Y254209D01*
X817455Y252704D01*
X815327Y250576D01*
X813822Y247970D01*
X813043Y245063D01*
Y242053D01*
X813822Y239146D01*
X815327Y236540D01*
X817455Y234412D01*
X820061Y232907D01*
X822968Y232128D01*
X825978D01*
X828885Y232907D01*
X831491Y234412D01*
X833619Y236540D01*
X835124Y239146D01*
X835903Y242053D01*
Y245063D01*
X835124Y247970D01*
X833619Y250576D01*
X831491Y252704D01*
X828885Y254209D01*
X825978Y254988D01*
D02*
G37*
G36*
X902180Y254986D02*
X899170D01*
X896263Y254207D01*
X893657Y252702D01*
X891529Y250574D01*
X890024Y247968D01*
X889245Y245061D01*
Y242051D01*
X890024Y239144D01*
X891529Y236538D01*
X893657Y234410D01*
X896263Y232905D01*
X899170Y232126D01*
X902180D01*
X905087Y232905D01*
X907693Y234410D01*
X909821Y236538D01*
X911326Y239144D01*
X912105Y242051D01*
Y245061D01*
X911326Y247968D01*
X909821Y250574D01*
X907693Y252702D01*
X905087Y254207D01*
X902180Y254986D01*
D02*
G37*
G36*
X914265Y207328D02*
X910963D01*
X907774Y206473D01*
X904914Y204823D01*
X902579Y202488D01*
X900929Y199628D01*
X900074Y196439D01*
Y193137D01*
X900929Y189948D01*
X902579Y187088D01*
X904914Y184753D01*
X907774Y183103D01*
X910963Y182248D01*
X914265D01*
X917454Y183103D01*
X920314Y184753D01*
X922648Y187088D01*
X924299Y189948D01*
X925154Y193137D01*
Y196439D01*
X924299Y199628D01*
X922648Y202488D01*
X920314Y204823D01*
X917454Y206473D01*
X914265Y207328D01*
D02*
G37*
G36*
X814444D02*
X811142D01*
X807953Y206473D01*
X805093Y204823D01*
X802758Y202488D01*
X801108Y199628D01*
X800253Y196439D01*
Y193137D01*
X801108Y189948D01*
X802758Y187088D01*
X805093Y184753D01*
X807953Y183103D01*
X811142Y182248D01*
X814444D01*
X817633Y183103D01*
X820493Y184753D01*
X822828Y187088D01*
X824478Y189948D01*
X825333Y193137D01*
Y196439D01*
X824478Y199628D01*
X822828Y202488D01*
X820493Y204823D01*
X817633Y206473D01*
X814444Y207328D01*
D02*
G37*
G36*
X864829Y216378D02*
X860577D01*
X856405Y215548D01*
X852476Y213921D01*
X848940Y211558D01*
X845933Y208551D01*
X843570Y205015D01*
X841943Y201086D01*
X841113Y196914D01*
Y192662D01*
X841943Y188490D01*
X843570Y184561D01*
X845933Y181025D01*
X848940Y178018D01*
X852476Y175655D01*
X856405Y174028D01*
X860577Y173198D01*
X864829D01*
X869001Y174028D01*
X872930Y175655D01*
X876466Y178018D01*
X879473Y181025D01*
X881836Y184561D01*
X883463Y188490D01*
X884293Y192662D01*
Y196914D01*
X883463Y201086D01*
X881836Y205015D01*
X879473Y208551D01*
X876466Y211558D01*
X872930Y213921D01*
X869001Y215548D01*
X864829Y216378D01*
D02*
G37*
G36*
X511222Y205203D02*
X506794D01*
X502451Y204339D01*
X498360Y202645D01*
X494678Y200184D01*
X491547Y197053D01*
X489086Y193371D01*
X487392Y189280D01*
X486528Y184937D01*
Y180509D01*
X487392Y176166D01*
X489086Y172075D01*
X491547Y168393D01*
X494678Y165262D01*
X498360Y162801D01*
X502451Y161107D01*
X506794Y160243D01*
X511222D01*
X515565Y161107D01*
X519656Y162801D01*
X523338Y165262D01*
X526469Y168393D01*
X528929Y172075D01*
X530624Y176166D01*
X531488Y180509D01*
Y184937D01*
X530624Y189280D01*
X528929Y193371D01*
X526469Y197053D01*
X523338Y200184D01*
X519656Y202645D01*
X515565Y204339D01*
X511222Y205203D01*
D02*
G37*
G36*
X272462D02*
X268034D01*
X263691Y204339D01*
X259600Y202645D01*
X255918Y200184D01*
X252787Y197053D01*
X250326Y193371D01*
X248632Y189280D01*
X247768Y184937D01*
Y180509D01*
X248632Y176166D01*
X250326Y172075D01*
X252787Y168393D01*
X255918Y165262D01*
X259600Y162801D01*
X263691Y161107D01*
X268034Y160243D01*
X272462D01*
X276805Y161107D01*
X280896Y162801D01*
X284578Y165262D01*
X287709Y168393D01*
X290170Y172075D01*
X291864Y176166D01*
X292728Y180509D01*
Y184937D01*
X291864Y189280D01*
X290170Y193371D01*
X287709Y197053D01*
X284578Y200184D01*
X280896Y202645D01*
X276805Y204339D01*
X272462Y205203D01*
D02*
G37*
G36*
X901752Y181836D02*
X898074D01*
X894521Y180884D01*
X891335Y179045D01*
X888734Y176444D01*
X886895Y173258D01*
X885943Y169705D01*
Y166027D01*
X886895Y162474D01*
X888734Y159288D01*
X891335Y156687D01*
X894521Y154848D01*
X898074Y153896D01*
X901752D01*
X905305Y154848D01*
X908491Y156687D01*
X911092Y159288D01*
X912931Y162474D01*
X913883Y166027D01*
Y169705D01*
X912931Y173258D01*
X911092Y176444D01*
X908491Y179045D01*
X905305Y180884D01*
X901752Y181836D01*
D02*
G37*
G36*
X636748Y160373D02*
X633738D01*
X630831Y159594D01*
X628225Y158089D01*
X626097Y155961D01*
X624592Y153355D01*
X623813Y150448D01*
Y147438D01*
X624592Y144531D01*
X626097Y141925D01*
X628225Y139797D01*
X630831Y138292D01*
X633738Y137513D01*
X636748D01*
X639655Y138292D01*
X642261Y139797D01*
X644389Y141925D01*
X645894Y144531D01*
X646673Y147438D01*
Y150448D01*
X645894Y153355D01*
X644389Y155961D01*
X642261Y158089D01*
X639655Y159594D01*
X636748Y160373D01*
D02*
G37*
G36*
X403703D02*
X400693D01*
X397786Y159594D01*
X395180Y158089D01*
X393052Y155961D01*
X391547Y153355D01*
X390768Y150448D01*
Y147438D01*
X391547Y144531D01*
X393052Y141925D01*
X395180Y139797D01*
X397786Y138292D01*
X400693Y137513D01*
X403703D01*
X406610Y138292D01*
X409216Y139797D01*
X411344Y141925D01*
X412849Y144531D01*
X413628Y147438D01*
Y150448D01*
X412849Y153355D01*
X411344Y155961D01*
X409216Y158089D01*
X406610Y159594D01*
X403703Y160373D01*
D02*
G37*
G36*
X352903D02*
X349893D01*
X346986Y159594D01*
X344380Y158089D01*
X342252Y155961D01*
X340747Y153355D01*
X339968Y150448D01*
Y147438D01*
X340747Y144531D01*
X342252Y141925D01*
X344380Y139797D01*
X346986Y138292D01*
X349893Y137513D01*
X352903D01*
X355810Y138292D01*
X358416Y139797D01*
X360544Y141925D01*
X362049Y144531D01*
X362828Y147438D01*
Y150448D01*
X362049Y153355D01*
X360544Y155961D01*
X358416Y158089D01*
X355810Y159594D01*
X352903Y160373D01*
D02*
G37*
G36*
X119858D02*
X116848D01*
X113941Y159594D01*
X111335Y158089D01*
X109207Y155961D01*
X107702Y153355D01*
X106923Y150448D01*
Y147438D01*
X107702Y144531D01*
X109207Y141925D01*
X111335Y139797D01*
X113941Y138292D01*
X116848Y137513D01*
X119858D01*
X122765Y138292D01*
X125371Y139797D01*
X127499Y141925D01*
X129004Y144531D01*
X129783Y147438D01*
Y150448D01*
X129004Y153355D01*
X127499Y155961D01*
X125371Y158089D01*
X122765Y159594D01*
X119858Y160373D01*
D02*
G37*
G36*
X69058D02*
X66048D01*
X63141Y159594D01*
X60535Y158089D01*
X58407Y155961D01*
X56902Y153355D01*
X56123Y150448D01*
Y147438D01*
X56902Y144531D01*
X58407Y141925D01*
X60535Y139797D01*
X63141Y138292D01*
X66048Y137513D01*
X69058D01*
X71965Y138292D01*
X74571Y139797D01*
X76699Y141925D01*
X78204Y144531D01*
X78983Y147438D01*
Y150448D01*
X78204Y153355D01*
X76699Y155961D01*
X74571Y158089D01*
X71965Y159594D01*
X69058Y160373D01*
D02*
G37*
G36*
X429105Y160371D02*
X426095D01*
X423188Y159592D01*
X420582Y158087D01*
X418454Y155959D01*
X416949Y153353D01*
X416170Y150446D01*
Y147436D01*
X416949Y144529D01*
X418454Y141923D01*
X420582Y139795D01*
X423188Y138290D01*
X426095Y137511D01*
X429105D01*
X432012Y138290D01*
X434618Y139795D01*
X436746Y141923D01*
X438251Y144529D01*
X439030Y147436D01*
Y150446D01*
X438251Y153353D01*
X436746Y155959D01*
X434618Y158087D01*
X432012Y159592D01*
X429105Y160371D01*
D02*
G37*
G36*
X145260D02*
X142250D01*
X139343Y159592D01*
X136737Y158087D01*
X134609Y155959D01*
X133104Y153353D01*
X132325Y150446D01*
Y147436D01*
X133104Y144529D01*
X134609Y141923D01*
X136737Y139795D01*
X139343Y138290D01*
X142250Y137511D01*
X145260D01*
X148167Y138290D01*
X150773Y139795D01*
X152901Y141923D01*
X154406Y144529D01*
X155185Y147436D01*
Y150446D01*
X154406Y153353D01*
X152901Y155959D01*
X150773Y158087D01*
X148167Y159592D01*
X145260Y160371D01*
D02*
G37*
G36*
X725035Y112713D02*
X721733D01*
X718544Y111858D01*
X715684Y110208D01*
X713350Y107873D01*
X711699Y105013D01*
X710844Y101824D01*
Y98522D01*
X711699Y95333D01*
X713350Y92473D01*
X715684Y90139D01*
X718544Y88488D01*
X721733Y87633D01*
X725035D01*
X728224Y88488D01*
X731084Y90139D01*
X733419Y92473D01*
X735069Y95333D01*
X735924Y98522D01*
Y101824D01*
X735069Y105013D01*
X733419Y107873D01*
X731084Y110208D01*
X728224Y111858D01*
X725035Y112713D01*
D02*
G37*
G36*
X625214D02*
X621912D01*
X618723Y111858D01*
X615863Y110208D01*
X613529Y107873D01*
X611878Y105013D01*
X611023Y101824D01*
Y98522D01*
X611878Y95333D01*
X613529Y92473D01*
X615863Y90139D01*
X618723Y88488D01*
X621912Y87633D01*
X625214D01*
X628403Y88488D01*
X631263Y90139D01*
X633597Y92473D01*
X635248Y95333D01*
X636103Y98522D01*
Y101824D01*
X635248Y105013D01*
X633597Y107873D01*
X631263Y110208D01*
X628403Y111858D01*
X625214Y112713D01*
D02*
G37*
G36*
X441190D02*
X437888D01*
X434699Y111858D01*
X431839Y110208D01*
X429505Y107873D01*
X427854Y105013D01*
X426999Y101824D01*
Y98522D01*
X427854Y95333D01*
X429505Y92473D01*
X431839Y90139D01*
X434699Y88488D01*
X437888Y87633D01*
X441190D01*
X444379Y88488D01*
X447239Y90139D01*
X449574Y92473D01*
X451224Y95333D01*
X452079Y98522D01*
Y101824D01*
X451224Y105013D01*
X449574Y107873D01*
X447239Y110208D01*
X444379Y111858D01*
X441190Y112713D01*
D02*
G37*
G36*
X341369D02*
X338067D01*
X334878Y111858D01*
X332018Y110208D01*
X329683Y107873D01*
X328033Y105013D01*
X327178Y101824D01*
Y98522D01*
X328033Y95333D01*
X329683Y92473D01*
X332018Y90139D01*
X334878Y88488D01*
X338067Y87633D01*
X341369D01*
X344558Y88488D01*
X347418Y90139D01*
X349753Y92473D01*
X351403Y95333D01*
X352258Y98522D01*
Y101824D01*
X351403Y105013D01*
X349753Y107873D01*
X347418Y110208D01*
X344558Y111858D01*
X341369Y112713D01*
D02*
G37*
G36*
X157345D02*
X154043D01*
X150854Y111858D01*
X147994Y110208D01*
X145660Y107873D01*
X144009Y105013D01*
X143154Y101824D01*
Y98522D01*
X144009Y95333D01*
X145660Y92473D01*
X147994Y90139D01*
X150854Y88488D01*
X154043Y87633D01*
X157345D01*
X160534Y88488D01*
X163394Y90139D01*
X165728Y92473D01*
X167379Y95333D01*
X168234Y98522D01*
Y101824D01*
X167379Y105013D01*
X165728Y107873D01*
X163394Y110208D01*
X160534Y111858D01*
X157345Y112713D01*
D02*
G37*
G36*
X57524D02*
X54222D01*
X51033Y111858D01*
X48173Y110208D01*
X45838Y107873D01*
X44188Y105013D01*
X43333Y101824D01*
Y98522D01*
X44188Y95333D01*
X45838Y92473D01*
X48173Y90139D01*
X51033Y88488D01*
X54222Y87633D01*
X57524D01*
X60713Y88488D01*
X63573Y90139D01*
X65908Y92473D01*
X67558Y95333D01*
X68413Y98522D01*
Y101824D01*
X67558Y105013D01*
X65908Y107873D01*
X63573Y110208D01*
X60713Y111858D01*
X57524Y112713D01*
D02*
G37*
G36*
X675599Y121763D02*
X671347D01*
X667175Y120933D01*
X663246Y119306D01*
X659710Y116943D01*
X656703Y113936D01*
X654340Y110400D01*
X652713Y106471D01*
X651883Y102299D01*
Y98047D01*
X652713Y93875D01*
X654340Y89946D01*
X656703Y86410D01*
X659710Y83403D01*
X663246Y81040D01*
X667175Y79413D01*
X671347Y78583D01*
X675599D01*
X679771Y79413D01*
X683700Y81040D01*
X687236Y83403D01*
X690243Y86410D01*
X692606Y89946D01*
X694233Y93875D01*
X695063Y98047D01*
Y102299D01*
X694233Y106471D01*
X692606Y110400D01*
X690243Y113936D01*
X687236Y116943D01*
X683700Y119306D01*
X679771Y120933D01*
X675599Y121763D01*
D02*
G37*
G36*
X391754D02*
X387502D01*
X383330Y120933D01*
X379401Y119306D01*
X375865Y116943D01*
X372858Y113936D01*
X370495Y110400D01*
X368868Y106471D01*
X368038Y102299D01*
Y98047D01*
X368868Y93875D01*
X370495Y89946D01*
X372858Y86410D01*
X375865Y83403D01*
X379401Y81040D01*
X383330Y79413D01*
X387502Y78583D01*
X391754D01*
X395926Y79413D01*
X399855Y81040D01*
X403391Y83403D01*
X406398Y86410D01*
X408761Y89946D01*
X410388Y93875D01*
X411218Y98047D01*
Y102299D01*
X410388Y106471D01*
X408761Y110400D01*
X406398Y113936D01*
X403391Y116943D01*
X399855Y119306D01*
X395926Y120933D01*
X391754Y121763D01*
D02*
G37*
G36*
X107909D02*
X103657D01*
X99485Y120933D01*
X95556Y119306D01*
X92020Y116943D01*
X89013Y113936D01*
X86650Y110400D01*
X85023Y106471D01*
X84193Y102299D01*
Y98047D01*
X85023Y93875D01*
X86650Y89946D01*
X89013Y86410D01*
X92020Y83403D01*
X95556Y81040D01*
X99485Y79413D01*
X103657Y78583D01*
X107909D01*
X112081Y79413D01*
X116010Y81040D01*
X119546Y83403D01*
X122553Y86410D01*
X124916Y89946D01*
X126543Y93875D01*
X127373Y98047D01*
Y102299D01*
X126543Y106471D01*
X124916Y110400D01*
X122553Y113936D01*
X119546Y116943D01*
X116010Y119306D01*
X112081Y120933D01*
X107909Y121763D01*
D02*
G37*
G36*
X712522Y87221D02*
X708844D01*
X705291Y86269D01*
X702105Y84430D01*
X699504Y81829D01*
X697665Y78643D01*
X696713Y75090D01*
Y71412D01*
X697665Y67859D01*
X699504Y64673D01*
X702105Y62072D01*
X705291Y60233D01*
X708844Y59281D01*
X712522D01*
X716075Y60233D01*
X719261Y62072D01*
X721862Y64673D01*
X723701Y67859D01*
X724653Y71412D01*
Y75090D01*
X723701Y78643D01*
X721862Y81829D01*
X719261Y84430D01*
X716075Y86269D01*
X712522Y87221D01*
D02*
G37*
G36*
X144832D02*
X141154D01*
X137601Y86269D01*
X134415Y84430D01*
X131814Y81829D01*
X129975Y78643D01*
X129023Y75090D01*
Y71412D01*
X129975Y67859D01*
X131814Y64673D01*
X134415Y62072D01*
X137601Y60233D01*
X141154Y59281D01*
X144832D01*
X148385Y60233D01*
X151571Y62072D01*
X154172Y64673D01*
X156011Y67859D01*
X156963Y71412D01*
Y75090D01*
X156011Y78643D01*
X154172Y81829D01*
X151571Y84430D01*
X148385Y86269D01*
X144832Y87221D01*
D02*
G37*
G36*
X934304Y93188D02*
X930802D01*
X927367Y92505D01*
X924131Y91164D01*
X921219Y89219D01*
X918742Y86742D01*
X916797Y83830D01*
X915456Y80594D01*
X914773Y77159D01*
Y73657D01*
X915456Y70222D01*
X916797Y66986D01*
X918742Y64074D01*
X921219Y61597D01*
X924131Y59652D01*
X927367Y58311D01*
X930802Y57628D01*
X934304D01*
X937739Y58311D01*
X940975Y59652D01*
X943887Y61597D01*
X946364Y64074D01*
X948309Y66986D01*
X949650Y70222D01*
X950333Y73657D01*
Y77159D01*
X949650Y80594D01*
X948309Y83830D01*
X946364Y86742D01*
X943887Y89219D01*
X940975Y91164D01*
X937739Y92505D01*
X934304Y93188D01*
D02*
G37*
G36*
X840032Y158466D02*
X836354D01*
X832801Y157514D01*
X829615Y155675D01*
X827014Y153074D01*
X825175Y149888D01*
X824223Y146335D01*
Y142657D01*
X825175Y139104D01*
X827014Y135918D01*
X829615Y133317D01*
X832801Y131478D01*
X833014Y131421D01*
Y93837D01*
X791346Y52169D01*
X785064D01*
X784939Y53439D01*
X786710Y53792D01*
X790801Y55486D01*
X794483Y57947D01*
X797614Y61078D01*
X800074Y64760D01*
X801769Y68851D01*
X802633Y73194D01*
Y77622D01*
X801769Y81965D01*
X800074Y86056D01*
X797614Y89738D01*
X794483Y92869D01*
X790801Y95330D01*
X786710Y97024D01*
X782367Y97888D01*
X777939D01*
X773596Y97024D01*
X769505Y95330D01*
X765823Y92869D01*
X762692Y89738D01*
X760231Y86056D01*
X758537Y81965D01*
X757673Y77622D01*
Y73194D01*
X758537Y68851D01*
X760231Y64760D01*
X762692Y61078D01*
X765823Y57947D01*
X769505Y55486D01*
X773596Y53792D01*
X775367Y53439D01*
X775242Y52169D01*
X662813D01*
X661981Y55273D01*
X660142Y58459D01*
X657541Y61060D01*
X654355Y62899D01*
X650802Y63851D01*
X647124D01*
X643571Y62899D01*
X640385Y61060D01*
X637788Y58463D01*
X637384D01*
X637097Y58520D01*
X430742D01*
X430575Y59790D01*
X432230Y60233D01*
X435416Y62072D01*
X438017Y64673D01*
X439856Y67859D01*
X440808Y71412D01*
Y75090D01*
X439856Y78643D01*
X438017Y81829D01*
X435416Y84430D01*
X432230Y86269D01*
X428677Y87221D01*
X424999D01*
X421446Y86269D01*
X418260Y84430D01*
X415659Y81829D01*
X413820Y78643D01*
X412868Y75090D01*
Y71412D01*
X413820Y67859D01*
X415659Y64673D01*
X418260Y62072D01*
X421446Y60233D01*
X423101Y59790D01*
X422934Y58520D01*
X376984D01*
X376697Y58463D01*
X376293D01*
X373696Y61060D01*
X370510Y62899D01*
X366957Y63851D01*
X363279D01*
X359726Y62899D01*
X356540Y61060D01*
X355745Y60265D01*
X354943Y60424D01*
X161734D01*
X159752Y60030D01*
X158071Y58907D01*
X154224Y55061D01*
X94348D01*
X94291Y55273D01*
X92452Y58459D01*
X89851Y61060D01*
X86665Y62899D01*
X83112Y63851D01*
X79434D01*
X75881Y62899D01*
X72695Y61060D01*
X70094Y58459D01*
X68255Y55273D01*
X67303Y51720D01*
Y48042D01*
X68255Y44489D01*
X70094Y41303D01*
X72695Y38702D01*
X75881Y36863D01*
X79434Y35911D01*
X83112D01*
X86665Y36863D01*
X89851Y38702D01*
X92452Y41303D01*
X94291Y44489D01*
X94348Y44701D01*
X156370D01*
X158352Y45096D01*
X160032Y46219D01*
X163879Y50065D01*
X351148D01*
Y48042D01*
X352100Y44489D01*
X353939Y41303D01*
X356540Y38702D01*
X359726Y36863D01*
X363279Y35911D01*
X366957D01*
X370510Y36863D01*
X373696Y38702D01*
X376297Y41303D01*
X378136Y44489D01*
X379088Y48042D01*
Y48161D01*
X502291D01*
X502544Y46891D01*
X500586Y46079D01*
X497674Y44134D01*
X495197Y41657D01*
X493252Y38745D01*
X491911Y35509D01*
X491228Y32074D01*
Y28572D01*
X491911Y25137D01*
X493252Y21901D01*
X495197Y18989D01*
X497674Y16512D01*
X500586Y14567D01*
X503822Y13226D01*
X507257Y12543D01*
X510759D01*
X514194Y13226D01*
X517430Y14567D01*
X520342Y16512D01*
X522819Y18989D01*
X524764Y21901D01*
X526105Y25137D01*
X526788Y28572D01*
Y32074D01*
X526105Y35509D01*
X524764Y38745D01*
X522819Y41657D01*
X520342Y44134D01*
X517430Y46079D01*
X515472Y46891D01*
X515724Y48161D01*
X634993D01*
Y48042D01*
X635945Y44489D01*
X637784Y41303D01*
X640385Y38702D01*
X643571Y36863D01*
X647124Y35911D01*
X650802D01*
X654355Y36863D01*
X657541Y38702D01*
X660142Y41303D01*
X660435Y41810D01*
X793492D01*
X795474Y42205D01*
X797154Y43327D01*
X841855Y88029D01*
X841855Y88029D01*
X842978Y89709D01*
X843372Y91691D01*
X843372Y91691D01*
Y131421D01*
X843585Y131478D01*
X846771Y133317D01*
X849372Y135918D01*
X851211Y139104D01*
X852163Y142657D01*
Y146335D01*
X851211Y149888D01*
X849372Y153074D01*
X846771Y155675D01*
X843585Y157514D01*
X840032Y158466D01*
D02*
G37*
G36*
X271999Y48103D02*
X268497D01*
X265062Y47420D01*
X261826Y46079D01*
X258914Y44134D01*
X256437Y41657D01*
X254492Y38745D01*
X253151Y35509D01*
X252468Y32074D01*
Y28572D01*
X253151Y25137D01*
X254492Y21901D01*
X256437Y18989D01*
X258914Y16512D01*
X261826Y14567D01*
X265062Y13226D01*
X268497Y12543D01*
X271999D01*
X275434Y13226D01*
X278670Y14567D01*
X281582Y16512D01*
X284059Y18989D01*
X286004Y21901D01*
X287345Y25137D01*
X288028Y28572D01*
Y32074D01*
X287345Y35509D01*
X286004Y38745D01*
X284059Y41657D01*
X281582Y44134D01*
X278670Y46079D01*
X275434Y47420D01*
X271999Y48103D01*
D02*
G37*
G36*
X943908Y1761170D02*
X941264D01*
X938711Y1760486D01*
X936421Y1759164D01*
X934552Y1757295D01*
X933230Y1755005D01*
X932546Y1752452D01*
Y1749808D01*
X933230Y1747255D01*
X934552Y1744965D01*
X936421Y1743096D01*
X938711Y1741774D01*
X941264Y1741090D01*
X943908D01*
X946461Y1741774D01*
X948751Y1743096D01*
X950620Y1744965D01*
X951942Y1747255D01*
X952626Y1749808D01*
Y1752452D01*
X951942Y1755005D01*
X950620Y1757295D01*
X948751Y1759164D01*
X946461Y1760486D01*
X943908Y1761170D01*
D02*
G37*
%LPD*%
D12*
X58420Y1682750D02*
D03*
X57150Y1522730D02*
D03*
Y1360170D02*
D03*
D13*
X83820Y1657350D02*
D03*
X109220Y1682750D02*
D03*
X107950Y1522730D02*
D03*
X82550Y1497330D02*
D03*
Y1334770D02*
D03*
X107950Y1360170D02*
D03*
D22*
X96520Y1201420D02*
X146050Y1151890D01*
X46990Y1560830D02*
X96520Y1511300D01*
Y1201420D02*
Y1511300D01*
X693138Y1169670D02*
X731520Y1131288D01*
X732693D02*
X741045D01*
X731520Y1130115D02*
X732693Y1131288D01*
X742315Y1130018D02*
X828603D01*
X741045Y1131288D02*
X742315Y1130018D01*
X698166Y1117318D02*
X835660D01*
X712487Y1129030D02*
X717849Y1123668D01*
X831234D02*
X832504Y1124938D01*
X717849Y1123668D02*
X831234D01*
X685184Y1130300D02*
X698166Y1117318D01*
X521970Y1169670D02*
X693138D01*
X645160Y1130300D02*
X685184D01*
X828603Y1130018D02*
X829873Y1131288D01*
X697230Y1129030D02*
X712487D01*
X455930Y1150620D02*
X476250Y1130300D01*
X645160D01*
X387440Y1131570D02*
X406490Y1150620D01*
X279400Y1131570D02*
X387440D01*
X273050Y1137920D02*
X279400Y1131570D01*
X406490Y1150620D02*
X455930D01*
X273050Y1137920D02*
X280670Y1145540D01*
X74930Y1151890D02*
X88900Y1137920D01*
X273050D01*
X528972Y1143000D02*
X552450D01*
X565150Y1155700D02*
X670560D01*
X552450Y1143000D02*
X565150Y1155700D01*
X879122Y1124938D02*
X887730Y1116330D01*
X829873Y1131288D02*
X915265D01*
X917523Y1129030D01*
X832504Y1124938D02*
X879122D01*
X917523Y1129030D02*
X918210D01*
X670560Y1155700D02*
X697230Y1129030D01*
X505460Y1150620D02*
X521352D01*
X528972Y1143000D01*
X410210Y1163320D02*
X492760D01*
X505460Y1150620D01*
X384810Y1137920D02*
X410210Y1163320D01*
X322580Y1137920D02*
X384810D01*
X314960Y1145540D02*
X322580Y1137920D01*
X299720Y1160780D02*
X314960Y1145540D01*
X171450Y1160780D02*
X299720D01*
X154940Y1144270D02*
X171450Y1160780D01*
X110490Y1151890D02*
X118110Y1144270D01*
X154940D01*
X521970Y1169670D02*
X541020Y1150620D01*
X326390Y1169670D02*
X521970D01*
X541020Y1150620D02*
X541020D01*
X326390Y1169670D02*
X350520Y1145540D01*
X163830Y1169670D02*
X326390D01*
X146050Y1151890D02*
X163830Y1169670D01*
X46990Y1560830D02*
Y1588770D01*
X878676Y1207606D02*
Y1342351D01*
X721258Y1191975D02*
X863045D01*
X878676Y1207606D01*
X712470Y1200763D02*
X721258Y1191975D01*
X687070Y1200763D02*
Y1201420D01*
X712470Y1200763D02*
Y1201420D01*
D23*
X81273Y49881D02*
X156370D01*
X161734Y55245D01*
X354943D01*
X360307Y49881D02*
X365118D01*
X354943Y55245D02*
X360307Y49881D01*
X115570Y1612900D02*
X121920Y1606550D01*
Y1451610D02*
Y1606550D01*
X725888Y1109063D02*
X726523Y1108428D01*
X777797D01*
X674613Y1109063D02*
X725888D01*
X121920Y1286510D02*
Y1451610D01*
Y1202690D02*
Y1286510D01*
X114543Y1285483D02*
X120893D01*
X121920Y1286510D01*
X114300Y1285240D02*
X114543Y1285483D01*
X113273Y1450583D02*
X120893D01*
X121920Y1451610D01*
X113030Y1450340D02*
X113273Y1450583D01*
X121920Y1202690D02*
X133270Y1191340D01*
X388985D02*
X394890Y1197245D01*
X133270Y1191340D02*
X388985D01*
X397510Y1200089D02*
Y1201420D01*
X394890Y1197469D02*
X397510Y1200089D01*
X394890Y1197245D02*
Y1197469D01*
X69850Y1192530D02*
X110490Y1151890D01*
X69850Y1192530D02*
Y1371600D01*
X49530Y1391920D02*
X69850Y1371600D01*
X49530Y1391920D02*
Y1427480D01*
X870792Y1179402D02*
X892683Y1201293D01*
Y1348640D01*
X893445Y1349402D02*
Y1369695D01*
X882650Y1380490D02*
X893445Y1369695D01*
X892683Y1348640D02*
X893445Y1349402D01*
X618633Y1179402D02*
X870792D01*
X600790Y1197245D02*
X618633Y1179402D01*
X598170Y1200089D02*
X600790Y1197469D01*
X598170Y1200089D02*
Y1201420D01*
X600790Y1197245D02*
Y1197469D01*
X287549Y1097523D02*
X290257D01*
X655276D02*
X659175Y1093625D01*
X282183Y1092157D02*
X287549Y1097523D01*
X778510Y1109063D02*
X781967D01*
X782320Y1108710D02*
X782673Y1109063D01*
X835903D02*
X849873Y1095093D01*
X782673Y1109063D02*
X835903D01*
X660643Y1095093D02*
X674613Y1109063D01*
X781967D02*
X782320Y1108710D01*
X788670Y919480D02*
X812282D01*
X773086D02*
X788670D01*
X812282D02*
X812635Y919833D01*
X835903D01*
X772733D02*
X773086Y919480D01*
X835903Y919833D02*
X849873Y905863D01*
X674613Y919833D02*
X772733D01*
X779780Y597535D02*
Y636270D01*
Y558800D02*
Y597535D01*
X764540Y543560D02*
X779780Y558800D01*
X676800Y543560D02*
X764540D01*
X660643Y527403D02*
X676800Y543560D01*
X779780Y636270D02*
X787400Y643890D01*
X755306Y730250D02*
X782320D01*
X754953Y730603D02*
X755306Y730250D01*
X674613Y730603D02*
X754953D01*
X831850Y225535D02*
X849873Y243558D01*
X831850Y181610D02*
Y225535D01*
X782320Y132080D02*
X831850Y181610D01*
X677506Y132080D02*
X782320D01*
X660643Y148943D02*
X677506Y132080D01*
X642510Y130810D02*
X660643Y148943D01*
X376798D02*
X394931Y130810D01*
X642510D01*
X358665D02*
X376798Y148943D01*
X111086Y130810D02*
X358665D01*
X92953Y148943D02*
X111086Y130810D01*
X675530Y353060D02*
X777240D01*
X660643Y338173D02*
X675530Y353060D01*
X644486Y354330D02*
X660643Y338173D01*
X487570Y354330D02*
X644486D01*
X471413Y338173D02*
X487570Y354330D01*
X453986Y355600D02*
X471413Y338173D01*
X282183D02*
X299610Y355600D01*
X453986D01*
X264756D02*
X282183Y338173D01*
X110380Y355600D02*
X264756D01*
X92953Y338173D02*
X110380Y355600D01*
X365118Y49881D02*
X368520Y53283D01*
X376927D01*
X376984Y53340D01*
X637097D01*
X637154Y53283D02*
X645561D01*
X651854Y46990D01*
X637097Y53340D02*
X637154Y53283D01*
X651854Y46990D02*
X793492D01*
X838193Y91691D01*
X81273Y239111D02*
X270503D01*
X648963D01*
Y428341D02*
X717035D01*
X811650Y522956D02*
X838193D01*
X459733Y428341D02*
X648963D01*
X717035D02*
X811650Y522956D01*
X270503Y428341D02*
X459733D01*
X81273D02*
X270503D01*
X841574Y643890D02*
X849873Y635591D01*
Y622018D02*
Y635591D01*
X787400Y643890D02*
X841574D01*
X487570Y543560D02*
X644486D01*
X660643Y527403D01*
X471413D02*
X487570Y543560D01*
X455256D02*
X471413Y527403D01*
X298340Y543560D02*
X455256D01*
X282183Y527403D02*
X298340Y543560D01*
X109110D02*
X266026D01*
X282183Y527403D01*
X92953D02*
X109110Y543560D01*
X660643Y716633D02*
X674613Y730603D01*
X644486Y732790D02*
X660643Y716633D01*
X487570Y732790D02*
X644486D01*
X471413Y716633D02*
X487570Y732790D01*
X458470D02*
X471413Y719847D01*
Y716633D02*
Y719847D01*
X298340Y732790D02*
X458470D01*
X282183Y716633D02*
X298340Y732790D01*
X109110D02*
X266026D01*
X282183Y716633D01*
X92953D02*
X109110Y732790D01*
X660643Y905863D02*
X674613Y919833D01*
X647700Y920750D02*
X660643Y907807D01*
Y905863D02*
Y907807D01*
X486300Y920750D02*
X647700D01*
X471413Y905863D02*
X486300Y920750D01*
X471413Y905863D02*
Y909077D01*
X458470Y922020D02*
X471413Y909077D01*
X282183Y905863D02*
X298340Y922020D01*
X458470D01*
X265430Y923290D02*
X282183Y906537D01*
Y905863D02*
Y906537D01*
X92953Y905863D02*
X110380Y923290D01*
X265430D01*
X838193Y91691D02*
Y138123D01*
X364356Y44270D02*
X365118Y43508D01*
X81273D02*
X82035Y44270D01*
X81273Y611198D02*
X648963D01*
X81273Y800428D02*
X838193D01*
X81273Y989658D02*
X838193D01*
X67553Y521030D02*
Y524467D01*
Y710260D02*
Y713697D01*
Y899490D02*
Y902926D01*
X652570Y1097523D02*
X655276D01*
X641030Y1109063D02*
X652570Y1097523D01*
X491026Y1109063D02*
X641030D01*
X479487Y1097523D02*
X491026Y1109063D01*
X477280Y1097523D02*
X479487D01*
X473131Y1090438D02*
Y1093375D01*
X477280Y1097523D01*
X447613Y1112520D02*
X451070Y1109063D01*
X466046Y1097523D02*
X473131Y1090438D01*
X451070Y1109063D02*
X451800D01*
X463340Y1097523D01*
X396388Y1098042D02*
X410866Y1112520D01*
X447613D01*
X463340Y1097523D02*
X466046D01*
X349791Y1098042D02*
X396388D01*
X301796Y1109063D02*
X338770D01*
X290257Y1097523D02*
X301796Y1109063D01*
X338770D02*
X349791Y1098042D01*
X262570Y1109063D02*
X262923Y1108710D01*
X265630D01*
X104383Y1100150D02*
Y1100880D01*
X92953Y1088720D02*
X104383Y1100150D01*
Y1100880D02*
X112566Y1109063D01*
X262570D01*
X265630Y1108710D02*
X282183Y1092157D01*
D24*
X879307Y1144877D02*
X921766Y1187336D01*
X779142Y1144004D02*
X782259D01*
X783131Y1144877D02*
X879307D01*
X825806Y1137638D02*
X826794Y1136650D01*
X778510Y1143372D02*
X779142Y1144004D01*
X782259D02*
X783131Y1144877D01*
X786130Y1137638D02*
X825806D01*
X826794Y1136650D02*
X827401Y1137257D01*
X880717D01*
X770845Y1150611D02*
X877139D01*
X916178Y1189650D01*
X880717Y1137257D02*
X929640Y1186180D01*
X921766Y1187336D02*
Y1331112D01*
X715066Y1186006D02*
X865966D01*
X885915Y1205955D01*
Y1345878D01*
X885721Y1346073D02*
X885915Y1345878D01*
X905002Y1343717D02*
X905637Y1344352D01*
X878135Y1159510D02*
X910590Y1191965D01*
X916178Y1189650D02*
Y1339088D01*
X910590Y1191965D02*
Y1341403D01*
X877933Y1167210D02*
X905002Y1194279D01*
X910590Y1341403D02*
X911225Y1342038D01*
X921766Y1331112D02*
X925926Y1335272D01*
X899414Y1346032D02*
X900049Y1346667D01*
X905002Y1194279D02*
Y1343717D01*
X875618Y1172798D02*
X899414Y1196594D01*
X916178Y1339088D02*
X932180Y1355090D01*
X899414Y1196594D02*
Y1346032D01*
X925926Y1336136D02*
X932180Y1342390D01*
X905637Y1353947D02*
X932180Y1380490D01*
X911225Y1342038D02*
Y1346835D01*
X900049Y1346667D02*
Y1361059D01*
X905637Y1344352D02*
Y1353947D01*
X911225Y1346835D02*
X932180Y1367790D01*
X925926Y1335272D02*
Y1336136D01*
X900049Y1361059D02*
X932180Y1393190D01*
X885190Y1353820D02*
X885721Y1353289D01*
Y1346073D02*
Y1353289D01*
X929640Y1186180D02*
Y1271938D01*
X932180Y1274478D02*
Y1329690D01*
X929640Y1271938D02*
X932180Y1274478D01*
X758531Y1167210D02*
X877933D01*
X756031Y1164709D02*
X758531Y1167210D01*
X755955Y1172798D02*
X875618D01*
X748662Y1165504D02*
X755955Y1172798D01*
X699770Y1201302D02*
X715066Y1186006D01*
X756031Y1151001D02*
Y1164709D01*
X763524Y1159510D02*
X878135D01*
X763270Y1159256D02*
X763524Y1159510D01*
X699770Y1201302D02*
Y1201420D01*
X748030Y1158240D02*
X748662Y1158872D01*
Y1165504D01*
X755650Y1150620D02*
X756031Y1151001D01*
D25*
X934243Y562926D02*
G03*
X943030Y541713I30000J0D01*
G01*
X943030Y609287D02*
G03*
X934243Y588074I21213J-21213D01*
G01*
X934243Y1112926D02*
G03*
X943030Y1091713I30000J0D01*
G01*
X943030Y1215544D02*
G03*
X934243Y1194331I21213J-21213D01*
G01*
X807986Y1220500D02*
G03*
X837986Y1250500I0J30000D01*
G01*
X130500D02*
G03*
X160500Y1220500I30000J0D01*
G01*
X34243Y1194331D02*
G03*
X25456Y1215544I-30000J-0D01*
G01*
X34243Y20500D02*
X54243Y500D01*
X914243D01*
X974243Y60500D01*
Y510500D01*
X943030Y541713D02*
X974243Y510500D01*
X934243Y562926D02*
X934243Y588074D01*
X943030Y609287D02*
X974243Y640500D01*
Y1060500D01*
X943030Y1091713D02*
X974243Y1060500D01*
X934243Y1112926D02*
X934243Y1194331D01*
X943030Y1215544D02*
X967986Y1240500D01*
Y1790500D01*
X837986D02*
X967986D01*
X837986Y1250500D02*
X837986Y1790500D01*
X160500Y1220500D02*
X807986D01*
X130500Y1250500D02*
Y1790500D01*
X500D02*
X130500D01*
X500Y1240500D02*
Y1790500D01*
Y1240500D02*
X25456Y1215544D01*
X34243Y20500D02*
Y1194331D01*
D26*
X875273Y1095093D02*
D03*
X824473D02*
D03*
X849873D02*
D03*
X900675Y1095091D02*
D03*
Y622016D02*
D03*
X849873Y622018D02*
D03*
X824473D02*
D03*
X875273D02*
D03*
X900675Y243556D02*
D03*
X849873Y243558D02*
D03*
X824473D02*
D03*
X875273D02*
D03*
X402198Y148943D02*
D03*
X351398D02*
D03*
X376798D02*
D03*
X427600Y148941D02*
D03*
X118353Y148943D02*
D03*
X67553D02*
D03*
X92953D02*
D03*
X143755Y148941D02*
D03*
X118353Y338173D02*
D03*
X67553D02*
D03*
X92953D02*
D03*
X143755Y338171D02*
D03*
X118353Y527403D02*
D03*
X67553D02*
D03*
X92953D02*
D03*
X143755Y527401D02*
D03*
X118353Y716633D02*
D03*
X67553D02*
D03*
X92953D02*
D03*
X143755Y716631D02*
D03*
X118353Y905863D02*
D03*
X67553D02*
D03*
X92953D02*
D03*
X143755Y905861D02*
D03*
X118353Y1095093D02*
D03*
X67553D02*
D03*
X92953D02*
D03*
X143755Y1095091D02*
D03*
X711445D02*
D03*
X660643Y1095093D02*
D03*
X635243D02*
D03*
X686043D02*
D03*
X522215Y338171D02*
D03*
X471413Y338173D02*
D03*
X446013D02*
D03*
X496813D02*
D03*
X711445Y148941D02*
D03*
X660643Y148943D02*
D03*
X635243D02*
D03*
X686043D02*
D03*
X711445Y338171D02*
D03*
X660643Y338173D02*
D03*
X635243D02*
D03*
X686043D02*
D03*
X711445Y527401D02*
D03*
X660643Y527403D02*
D03*
X635243D02*
D03*
X686043D02*
D03*
X522215Y905861D02*
D03*
X471413Y905863D02*
D03*
X446013D02*
D03*
X496813D02*
D03*
X522215Y1095091D02*
D03*
X471413Y1095093D02*
D03*
X446013D02*
D03*
X496813D02*
D03*
X711445Y905861D02*
D03*
X660643Y905863D02*
D03*
X635243D02*
D03*
X686043D02*
D03*
X711445Y716631D02*
D03*
X660643Y716633D02*
D03*
X635243D02*
D03*
X686043D02*
D03*
X522215Y716631D02*
D03*
X471413Y716633D02*
D03*
X446013D02*
D03*
X496813D02*
D03*
X522215Y527401D02*
D03*
X471413Y527403D02*
D03*
X446013D02*
D03*
X496813D02*
D03*
X900675Y905861D02*
D03*
X849873Y905863D02*
D03*
X824473D02*
D03*
X875273D02*
D03*
X332985Y716631D02*
D03*
X282183Y716633D02*
D03*
X256783D02*
D03*
X307583D02*
D03*
X332985Y527401D02*
D03*
X282183Y527403D02*
D03*
X256783D02*
D03*
X307583D02*
D03*
X332985Y1095091D02*
D03*
X282183Y1095093D02*
D03*
X256783D02*
D03*
X307583D02*
D03*
X332985Y338171D02*
D03*
X282183Y338173D02*
D03*
X256783D02*
D03*
X307583D02*
D03*
X332985Y905861D02*
D03*
X282183Y905863D02*
D03*
X256783D02*
D03*
X307583D02*
D03*
D27*
X838193Y996031D02*
D03*
X899913Y1019401D02*
D03*
Y546326D02*
D03*
X838193Y522956D02*
D03*
X899913Y167866D02*
D03*
X838193Y144496D02*
D03*
X365118Y49881D02*
D03*
X426838Y73251D02*
D03*
X81273Y49881D02*
D03*
X142993Y73251D02*
D03*
X81273Y239111D02*
D03*
X142993Y262481D02*
D03*
X81273Y428341D02*
D03*
X142993Y451711D02*
D03*
X81273Y617571D02*
D03*
X142993Y640941D02*
D03*
X81273Y806801D02*
D03*
X142993Y830171D02*
D03*
X81273Y996031D02*
D03*
X142993Y1019401D02*
D03*
X710683D02*
D03*
X648963Y996031D02*
D03*
X521453Y262481D02*
D03*
X459733Y239111D02*
D03*
X710683Y73251D02*
D03*
X648963Y49881D02*
D03*
X710683Y262481D02*
D03*
X648963Y239111D02*
D03*
X710683Y451711D02*
D03*
X648963Y428341D02*
D03*
X521453Y830171D02*
D03*
X459733Y806801D02*
D03*
X521453Y1019401D02*
D03*
X459733Y996031D02*
D03*
X710683Y830171D02*
D03*
X648963Y806801D02*
D03*
X710683Y640941D02*
D03*
X648963Y617571D02*
D03*
X521453Y640941D02*
D03*
X459733Y617571D02*
D03*
X521453Y451711D02*
D03*
X459733Y428341D02*
D03*
X899913Y830171D02*
D03*
X838193Y806801D02*
D03*
X332223Y640941D02*
D03*
X270503Y617571D02*
D03*
X332223Y451711D02*
D03*
X270503Y428341D02*
D03*
X332223Y1019401D02*
D03*
X270503Y996031D02*
D03*
X332223Y262481D02*
D03*
X270503Y239111D02*
D03*
X332223Y830171D02*
D03*
X270503Y806801D02*
D03*
D28*
X862703Y1046323D02*
D03*
Y573248D02*
D03*
Y194788D02*
D03*
X389628Y100173D02*
D03*
X105783D02*
D03*
Y289403D02*
D03*
Y478633D02*
D03*
Y667863D02*
D03*
Y857093D02*
D03*
Y1046323D02*
D03*
X673473D02*
D03*
X484243Y289403D02*
D03*
X673473Y100173D02*
D03*
Y289403D02*
D03*
Y478633D02*
D03*
X484243Y857093D02*
D03*
Y1046323D02*
D03*
X673473Y857093D02*
D03*
Y667863D02*
D03*
X484243D02*
D03*
Y478633D02*
D03*
X862703Y857093D02*
D03*
X295013Y667863D02*
D03*
Y478633D02*
D03*
Y1046323D02*
D03*
Y289403D02*
D03*
Y857093D02*
D03*
D29*
X912614Y1046323D02*
D03*
X812793D02*
D03*
Y573248D02*
D03*
X912614D02*
D03*
X812793Y194788D02*
D03*
X912614D02*
D03*
X439539Y100173D02*
D03*
X339718D02*
D03*
X155694D02*
D03*
X55873D02*
D03*
X155694Y289403D02*
D03*
X55873D02*
D03*
X155694Y478633D02*
D03*
X55873D02*
D03*
X155694Y667863D02*
D03*
X55873D02*
D03*
X155694Y857093D02*
D03*
X55873D02*
D03*
X155694Y1046323D02*
D03*
X55873D02*
D03*
X623563D02*
D03*
X723384D02*
D03*
X434333Y289403D02*
D03*
X534154D02*
D03*
X623563Y100173D02*
D03*
X723384D02*
D03*
X623563Y289403D02*
D03*
X723384D02*
D03*
X623563Y478633D02*
D03*
X723384D02*
D03*
X434333Y857093D02*
D03*
X534154D02*
D03*
X434333Y1046323D02*
D03*
X534154D02*
D03*
X623563Y857093D02*
D03*
X723384D02*
D03*
X623563Y667863D02*
D03*
X723384D02*
D03*
X434333D02*
D03*
X534154D02*
D03*
X434333Y478633D02*
D03*
X534154D02*
D03*
X812793Y857093D02*
D03*
X912614D02*
D03*
X245103Y667863D02*
D03*
X344924D02*
D03*
X245103Y478633D02*
D03*
X344924D02*
D03*
X245103Y1046323D02*
D03*
X344924D02*
D03*
X245103Y289403D02*
D03*
X344924D02*
D03*
X245103Y857093D02*
D03*
X344924D02*
D03*
D30*
X780153Y692628D02*
D03*
Y453868D02*
D03*
Y314168D02*
D03*
Y75408D02*
D03*
X270248Y182723D02*
D03*
X509008D02*
D03*
D31*
X932553Y692628D02*
D03*
Y453868D02*
D03*
Y314168D02*
D03*
Y75408D02*
D03*
X270248Y30323D02*
D03*
X509008D02*
D03*
D32*
X737870Y1201420D02*
D03*
X725170D02*
D03*
X712470D02*
D03*
X699770D02*
D03*
X687070D02*
D03*
X674370D02*
D03*
X661670D02*
D03*
X648970D02*
D03*
X636270D02*
D03*
X623570D02*
D03*
X610870D02*
D03*
X598170D02*
D03*
X585470D02*
D03*
X572770D02*
D03*
X560070D02*
D03*
X547370D02*
D03*
X534670D02*
D03*
X521970D02*
D03*
X509270D02*
D03*
X496570D02*
D03*
X435610D02*
D03*
X422910D02*
D03*
X410210D02*
D03*
X397510D02*
D03*
X384810D02*
D03*
X372110D02*
D03*
X359410D02*
D03*
X346710D02*
D03*
X334010D02*
D03*
X321310D02*
D03*
X308610D02*
D03*
X295910D02*
D03*
X283210D02*
D03*
X270510D02*
D03*
X257810D02*
D03*
X245110D02*
D03*
X232410D02*
D03*
X219710D02*
D03*
X207010D02*
D03*
X194310D02*
D03*
D33*
X25900Y1268530D02*
D03*
Y1293930D02*
D03*
Y1319330D02*
D03*
Y1344730D02*
D03*
Y1370130D02*
D03*
Y1395530D02*
D03*
Y1420930D02*
D03*
Y1446330D02*
D03*
Y1471730D02*
D03*
Y1497130D02*
D03*
Y1522530D02*
D03*
Y1547930D02*
D03*
Y1573330D02*
D03*
Y1598730D02*
D03*
Y1624130D02*
D03*
Y1649530D02*
D03*
Y1674930D02*
D03*
X942586Y1268530D02*
D03*
Y1751130D02*
D03*
X25900Y1700330D02*
D03*
Y1725730D02*
D03*
Y1751130D02*
D03*
D34*
X956310Y386080D02*
D03*
X957580Y651510D02*
D03*
X854710Y1515110D02*
D03*
Y1602740D02*
D03*
Y1677670D02*
D03*
X855980Y1775460D02*
D03*
X953770D02*
D03*
Y1677670D02*
D03*
Y1601470D02*
D03*
Y1515110D02*
D03*
Y1443990D02*
D03*
X955040Y1357630D02*
D03*
Y1303020D02*
D03*
X961390Y951230D02*
D03*
X157480Y1209040D02*
D03*
X109220Y1236980D02*
D03*
X123190Y1781810D02*
D03*
X10160D02*
D03*
X11430Y1714500D02*
D03*
Y1612900D02*
D03*
Y1484630D02*
D03*
Y1332230D02*
D03*
X25400Y1238250D02*
D03*
X49530Y1129030D02*
D03*
X48260Y1016000D02*
D03*
X49530Y927100D02*
D03*
X52070Y751840D02*
D03*
X50800Y551180D02*
D03*
X48260Y452120D02*
D03*
Y353060D02*
D03*
X46990Y234950D02*
D03*
Y133350D02*
D03*
Y54610D02*
D03*
X91440Y15240D02*
D03*
X218440D02*
D03*
X322580D02*
D03*
X459740D02*
D03*
X618490D02*
D03*
X769620D02*
D03*
X904240D02*
D03*
X958850Y101600D02*
D03*
X956310Y251460D02*
D03*
X958850Y499110D02*
D03*
X961390Y855980D02*
D03*
X960120Y1045210D02*
D03*
X577850Y1047750D02*
D03*
X389890Y1045210D02*
D03*
Y858520D02*
D03*
X579120Y859790D02*
D03*
Y670560D02*
D03*
X389890Y666750D02*
D03*
X577850Y294640D02*
D03*
Y480060D02*
D03*
X389890Y476250D02*
D03*
X388620Y298450D02*
D03*
X228600Y46990D02*
D03*
X513080Y73660D02*
D03*
X908050Y93980D02*
D03*
X797560Y132080D02*
D03*
X881380Y1367790D02*
D03*
X866140Y1423670D02*
D03*
X731520Y1131288D02*
D03*
X777797Y1108428D02*
D03*
X786130Y1137638D02*
D03*
X146050Y1151890D02*
D03*
X887730Y1116330D02*
D03*
X835660Y1117318D02*
D03*
X350520Y1145540D02*
D03*
X455930Y1150620D02*
D03*
X280670Y1145540D02*
D03*
X114300Y1285240D02*
D03*
X113030Y1450340D02*
D03*
X115570Y1612900D02*
D03*
X46990Y1588770D02*
D03*
X49530Y1427480D02*
D03*
X541020Y1150620D02*
D03*
X697230Y1129030D02*
D03*
X918210D02*
D03*
X645160Y1130300D02*
D03*
X505460Y1150620D02*
D03*
X314960Y1145540D02*
D03*
X110490Y1151890D02*
D03*
X74930D02*
D03*
X878676Y1342351D02*
D03*
X885190Y1353820D02*
D03*
X882650Y1380490D02*
D03*
X763270Y1159256D02*
D03*
X748030Y1158240D02*
D03*
X778510Y1143372D02*
D03*
X932180Y1393190D02*
D03*
Y1380490D02*
D03*
X770845Y1150611D02*
D03*
X932180Y1367790D02*
D03*
Y1355090D02*
D03*
Y1342390D02*
D03*
Y1329690D02*
D03*
X755650Y1150620D02*
D03*
X788670Y919480D02*
D03*
X779780Y597535D02*
D03*
X782320Y730250D02*
D03*
X777240Y353060D02*
D03*
M02*
