M48
;Layer_Color=9474304
;FILE_FORMAT=4:4
METRIC,LZ
;TYPE=PLATED
T1F00S00C0.3810
T2F00S00C0.6000
T3F00S00C0.8382
T4F00S00C0.9000
T5F00S00C1.0160
T6F00S00C1.1430
T7F00S00C2.0000
T8F00S00C3.8100
;TYPE=NON_PLATED
T9F00S00C3.0480
T10F00S00C3.9878
%
T01
X0004699Y0005461
Y0013335
Y0023495
X0004826Y0035306
X0009144Y0001524
X0021844
X002286Y0004699
X0032258Y0001524
X0038862Y0029845
X0057785Y0029464
X0077724Y0035306
X0076962Y0001524
X0061849
X0045974
X0051308Y0007366
X0079756Y0013208
X0090805Y0009398
X0095885Y001016
X0090424Y0001524
X0095631Y0025146
Y0038608
X0095885Y0049911
X0095758Y0065151
X0077978Y00597535
X0078232Y0073025
X0057912Y0067056
X0057785Y0048006
X0038989Y0047625
Y0066675
X0005207Y0075184
X000508Y0055118
X0004826Y0045212
X0004953Y009271
X0004826Y01016
X0004953Y0112903
X0007493Y0115189
X0011049
X0014605
X0028067Y0114554
X0031496
X0035052
X0038989Y0104521
Y0085852
X0057912Y0085979
X0057785Y0104775
X0054102Y0115062
X0050546
X0045593
X0064516Y011303
X0069723Y0112903
X0073152Y01131288
X0074803Y0115824
X0075565Y0115062
X00770845Y01150611
X0077851Y01143372
X0078613Y01137638
X00777797Y01108428
X0076327Y01159256
X0078867Y0091948
X0096139Y0095123
Y0085598
X0096012Y0104521
X0091821Y0112903
X0088773Y0111633
X0083566Y01117318
X00878676Y01342351
X0088519Y0135382
X0088138Y0136779
X0088265Y0138049
X0093218
Y0139319
Y0136779
Y0135509
Y0134239
Y0132969
X0095504Y0130302
Y0135763
X0095377Y0144399
Y0151511
X0085471
X0086614Y0142367
X0011303Y0145034
X0004953Y0142748
X0001143Y0148463
Y0133223
X000254Y0123825
X0010922Y0123698
X001143Y0128524
X0015748Y0120904
X0011557Y016129
X0004699Y0158877
X0001143Y016129
Y017145
X0001016Y0178181
X0012319
X0085598Y0177546
X0095377
Y0167767
Y0160147
X0085471Y0160274
Y0167767
T02
X0039751Y0120142
X0041021
X0042291
X0043561
X0049657
X0050927
X0052197
X0053467
X0054737
X0056007
X0057277
X0058547
X0059817
X0061087
X0062357
X0063627
X0064897
X0066167
X0067437
X0068707
X0069977
X0071247
X0072517
X0073787
X0038481
X0037211
X0035941
X0034671
X0033401
X0032131
X0030861
X0029591
X0028321
X0027051
X0025781
X0024511
X0023241
X0021971
X0020701
X0019431
T03
X0005715Y0136017
X0008255Y0133477
X0010795Y0136017
Y0152273
X0008255Y0149733
X0005715Y0152273
X0005842Y0168275
X0008382Y0165735
X0010922Y0168275
T04
X00942586Y0126853
X000259
Y0129393
Y0131933
Y0134473
Y0137013
Y0139553
Y0142093
Y0144633
Y0147173
Y0149713
Y0152253
Y0154793
Y0157333
Y0159873
Y0162413
Y0164953
Y0167493
Y0170033
Y0172573
Y0175113
X00942586
T05
X00067553Y00148943
X00092953
X00118353
X00143755Y00148941
Y00338171
X00118353Y00338173
X00092953
X00067553
X00256783
X00282183
X00307583
X00332985Y00338171
X00351398Y00148943
X00376798
X00402198
X004276Y00148941
X00446013Y00338173
X00471413
X00496813
X00522215Y00338171
X00635243Y00338173
X00660643
X00686043
X00711445Y00338171
Y00148941
X00686043Y00148943
X00660643
X00635243
X00824473Y00243558
X00849873
X00875273
X00900675Y00243556
Y00622016
X00875273Y00622018
X00849873
X00824473
X00711445Y00716631
X00686043Y00716633
X00660643
X00635243
X00522215Y00716631
X00496813Y00716633
X00471413
X00446013
Y00527403
X00471413
X00496813
X00522215Y00527401
X00635243Y00527403
X00660643
X00686043
X00711445Y00527401
X00332985
X00307583Y00527403
X00282183
X00256783
X00143755Y00527401
X00118353Y00527403
X00092953
X00067553
Y00716633
X00092953
X00118353
X00143755Y00716631
X00256783Y00716633
X00282183
X00307583
X00332985Y00716631
Y00905861
X00307583Y00905863
X00282183
X00256783
X00143755Y00905861
X00118353Y00905863
X00092953
X00067553
Y01095093
X00092953
X00118353
X00143755Y01095091
X00256783Y01095093
X00282183
X00307583
X00332985Y01095091
X00446013Y01095093
X00471413
X00496813
X00522215Y01095091
X00635243Y01095093
X00660643
X00686043
X00711445Y01095091
Y00905861
X00686043Y00905863
X00660643
X00635243
X00522215Y00905861
X00496813Y00905863
X00471413
X00446013
X00824473
X00849873
X00875273
X00900675Y00905861
Y01095091
X00875273Y01095093
X00849873
X00824473
T06
X00081273Y00049881
X00142993Y00073251
Y00262481
X00081273Y00239111
X00270503
X00332223Y00262481
X00365118Y00049881
X00426838Y00073251
X00459733Y00239111
X00521453Y00262481
X00648963Y00239111
X00710683Y00262481
Y00073251
X00648963Y00049881
X00838193Y00144496
X00899913Y00167866
Y00546326
X00838193Y00522956
X00710683Y00451711
X00648963Y00428341
X00521453Y00451711
X00459733Y00428341
Y00617571
X00521453Y00640941
X00648963Y00617571
X00710683Y00640941
X00332223
X00270503Y00617571
X00142993Y00640941
X00081273Y00617571
Y00428341
X00142993Y00451711
X00270503Y00428341
X00332223Y00451711
Y00830171
X00270503Y00806801
X00142993Y00830171
X00081273Y00806801
Y00996031
X00142993Y01019401
X00270503Y00996031
X00332223Y01019401
X00459733Y00996031
X00521453Y01019401
X00648963Y00996031
X00710683Y01019401
Y00830171
X00648963Y00806801
X00521453Y00830171
X00459733Y00806801
X00838193
X00899913Y00830171
Y01019401
X00838193Y00996031
T07
X00055873Y00100173
X00155694
X00339718
X00344924Y00289403
X00245103
X00155694
X00055873
X00434333
X00534154
X00623563
X00723384
Y00100173
X00623563
X00439539
X00812793Y00194788
X00912614
Y00573248
X00812793
X00723384Y00478633
X00623563
X00534154
X00434333
Y00667863
X00534154
X00623563
X00723384
X00344924
X00245103
X00155694
X00055873
Y00478633
X00155694
X00245103
X00344924
Y00857093
X00245103
X00155694
X00055873
Y01046323
X00155694
X00245103
X00344924
X00434333
X00534154
X00623563
X00723384
Y00857093
X00623563
X00534154
X00434333
X00812793
X00912614
Y01046323
X00812793
T08
X00105783Y00100173
Y00289403
X00295013
X00389628Y00100173
X00484243Y00289403
X00673473
Y00100173
X00862703Y00194788
Y00573248
X00673473Y00478633
Y00667863
X00484243
Y00478633
X00295013
X00105783
Y00667863
X00295013
Y00857093
X00105783
Y01046323
X00295013
X00484243
X00673473
Y00857093
X00484243
X00862703
Y01046323
T09
X00270248Y00030323
X00509008
X00932553Y00075408
Y00314168
Y00453868
Y00692628
T10
X00270248Y00182723
X00509008
X00780153Y00075408
Y00314168
Y00453868
Y00692628
M30
