G04*
G04 #@! TF.GenerationSoftware,Altium Limited,Altium Designer,24.1.2 (44)*
G04*
G04 Layer_Color=32768*
%FSLAX44Y44*%
%MOMM*%
G71*
G04*
G04 #@! TF.SameCoordinates,39859149-EBAD-4231-980B-4E5C47F9036E*
G04*
G04*
G04 #@! TF.FilePolarity,Positive*
G04*
G01*
G75*
%ADD60C,0.1000*%
%ADD62C,0.0500*%
D60*
X591900Y1236410D02*
X601900D01*
X596900Y1231410D02*
Y1241410D01*
X602060Y1178560D02*
X612060D01*
X607060Y1173560D02*
Y1183560D01*
X871220Y1145620D02*
Y1155620D01*
X866220Y1150620D02*
X876220D01*
X643890Y1148160D02*
Y1158160D01*
X638890Y1153160D02*
X648890D01*
X477520Y1146890D02*
Y1156890D01*
X472520Y1151890D02*
X482520D01*
X300990Y1145620D02*
Y1155620D01*
X295990Y1150620D02*
X305990D01*
X556340Y1253490D02*
X566340D01*
X561340Y1248490D02*
Y1258490D01*
X717550Y1165940D02*
Y1175940D01*
X712550Y1170940D02*
X722550D01*
X924640Y1004570D02*
X934640D01*
X929640Y999570D02*
Y1009570D01*
X944960Y808990D02*
X954960D01*
X949960Y803990D02*
Y813990D01*
X877650Y671830D02*
X887650D01*
X882650Y666830D02*
Y676830D01*
X674370Y414100D02*
Y424100D01*
X669370Y419100D02*
X679370D01*
X856060Y246380D02*
X866060D01*
X861060Y241380D02*
Y251380D01*
X440690Y1168480D02*
Y1178480D01*
X435690Y1173480D02*
X445690D01*
X228600Y1173560D02*
Y1183560D01*
X223600Y1178560D02*
X233600D01*
X943610Y1226330D02*
Y1236330D01*
X938610Y1231330D02*
X948610D01*
X514350Y1146890D02*
Y1156890D01*
X509350Y1151890D02*
X519350D01*
X681990Y1148160D02*
Y1158160D01*
X676990Y1153160D02*
X686990D01*
X219710Y1231980D02*
Y1241980D01*
X214710Y1236980D02*
X224710D01*
X264160Y1145620D02*
Y1155620D01*
X259160Y1150620D02*
X269160D01*
X833120Y1145620D02*
Y1155620D01*
X828120Y1150620D02*
X838120D01*
X796290Y1173560D02*
Y1183560D01*
X791290Y1178560D02*
X801290D01*
X256540Y1231980D02*
Y1241980D01*
X251540Y1236980D02*
X261540D01*
X984250Y1172290D02*
Y1182290D01*
X979250Y1177290D02*
X989250D01*
X906170Y1226330D02*
Y1236330D01*
X901170Y1231330D02*
X911170D01*
X337820Y1168480D02*
Y1178480D01*
X332820Y1173480D02*
X342820D01*
X173990Y1173560D02*
Y1183560D01*
X168990Y1178560D02*
X178990D01*
X295990Y1108710D02*
X305990D01*
X300990Y1103710D02*
Y1113710D01*
X485220Y1107440D02*
X495220D01*
X490220Y1102440D02*
Y1112440D01*
X674450Y1107440D02*
X684450D01*
X679450Y1102440D02*
Y1112440D01*
X863680Y1106170D02*
X873680D01*
X868680Y1101170D02*
Y1111170D01*
X1030050Y1112520D02*
X1040050D01*
X1035050Y1107520D02*
Y1117520D01*
X290910Y932180D02*
X300910D01*
X295910Y927180D02*
Y937180D01*
X478870Y932180D02*
X488870D01*
X483870Y927180D02*
Y937180D01*
X668100Y930910D02*
X678100D01*
X673100Y925910D02*
Y935910D01*
X857330Y929640D02*
X867330D01*
X862330Y924640D02*
Y934640D01*
X1028780Y932180D02*
X1038780D01*
X1033780Y927180D02*
Y937180D01*
X290910Y739140D02*
X300910D01*
X295910Y734140D02*
Y744140D01*
X478870Y739140D02*
X488870D01*
X483870Y734140D02*
Y744140D01*
X669370Y740410D02*
X679370D01*
X674370Y735410D02*
Y745410D01*
X838280Y802640D02*
X848280D01*
X843280Y797640D02*
Y807640D01*
X290910Y544830D02*
X300910D01*
X295910Y539830D02*
Y549830D01*
X478870Y543560D02*
X488870D01*
X483870Y538560D02*
Y548560D01*
X669370Y544830D02*
X679370D01*
X674370Y539830D02*
Y549830D01*
X853520Y575310D02*
X863520D01*
X858520Y570310D02*
Y580310D01*
X1027510Y676910D02*
X1037510D01*
X1032510Y671910D02*
Y681910D01*
X289640Y356870D02*
X299640D01*
X294640Y351870D02*
Y361870D01*
X475060Y360680D02*
X485060D01*
X480060Y355680D02*
Y365680D01*
X668100Y353060D02*
X678100D01*
X673100Y348060D02*
Y358060D01*
X796290Y243920D02*
Y253920D01*
X791290Y248920D02*
X801290D01*
X288370Y167640D02*
X298370D01*
X293370Y162640D02*
Y172640D01*
X572850Y167640D02*
X582850D01*
X577850Y162640D02*
Y172640D01*
X840820Y175260D02*
X850820D01*
X845820Y170260D02*
Y180260D01*
X1041480Y260350D02*
X1051480D01*
X1046480Y255350D02*
Y265350D01*
X485470Y323850D02*
X494970D01*
X490220Y319100D02*
Y328600D01*
X495720Y311850D02*
Y335850D01*
X484720Y311850D02*
Y335850D01*
Y311850D02*
X495720D01*
X484720Y335850D02*
X495720D01*
X593940Y183450D02*
X604940D01*
X593940Y159450D02*
X604940D01*
X593940D02*
Y183450D01*
X604940Y159450D02*
Y183450D01*
X599440Y166700D02*
Y176200D01*
X594690Y171450D02*
X604190D01*
X309460Y135190D02*
X320460D01*
X309460Y111190D02*
X320460D01*
X309460D02*
Y135190D01*
X320460Y111190D02*
Y135190D01*
X314960Y118440D02*
Y127940D01*
X310210Y123190D02*
X319710D01*
X860640Y188530D02*
X871640D01*
X860640Y164530D02*
X871640D01*
X860640D02*
Y188530D01*
X871640Y164530D02*
Y188530D01*
X866140Y171780D02*
Y181280D01*
X861390Y176530D02*
X870890D01*
X1034350Y266280D02*
Y277280D01*
X1010350Y266280D02*
Y277280D01*
X1034350D01*
X1010350Y266280D02*
X1034350D01*
X1017600Y271780D02*
X1027100D01*
X1022350Y267030D02*
Y276530D01*
X558880Y1200150D02*
X568880D01*
X563880Y1195150D02*
Y1205150D01*
X553720Y1223340D02*
Y1232840D01*
X548970Y1228090D02*
X558470D01*
X541720Y1222590D02*
X565720D01*
X541720Y1233590D02*
X565720D01*
X541720Y1222590D02*
Y1233590D01*
X565720Y1222590D02*
Y1233590D01*
X598170Y1222070D02*
Y1231570D01*
X593420Y1226820D02*
X602920D01*
X586170Y1232320D02*
X610170D01*
X586170Y1221320D02*
X610170D01*
Y1232320D01*
X586170Y1221320D02*
Y1232320D01*
X976630Y1256110D02*
Y1266110D01*
X971630Y1261110D02*
X981630D01*
X177800Y1258650D02*
Y1268650D01*
X172800Y1263650D02*
X182800D01*
X229870Y1257630D02*
Y1267130D01*
X225120Y1262380D02*
X234620D01*
X217870Y1267880D02*
X241870D01*
X217870Y1256880D02*
X241870D01*
Y1267880D01*
X217870Y1256880D02*
Y1267880D01*
X919480Y1260170D02*
Y1269670D01*
X914730Y1264920D02*
X924230D01*
X907480Y1259420D02*
X931480D01*
X907480Y1270420D02*
X931480D01*
X907480Y1259420D02*
Y1270420D01*
X931480Y1259420D02*
Y1270420D01*
X943610Y1197940D02*
Y1207440D01*
X938860Y1202690D02*
X948360D01*
X931610Y1208190D02*
X955610D01*
X931610Y1197190D02*
X955610D01*
Y1208190D01*
X931610Y1197190D02*
Y1208190D01*
X201930Y1205560D02*
Y1215060D01*
X197180Y1210310D02*
X206680D01*
X189930Y1204810D02*
X213930D01*
X189930Y1215810D02*
X213930D01*
X189930Y1204810D02*
Y1215810D01*
X213930Y1204810D02*
Y1215810D01*
D62*
X614400Y1217160D02*
Y1255660D01*
X579400Y1217160D02*
Y1255660D01*
X614400D01*
X579400Y1217160D02*
X614400D01*
X624560Y1159310D02*
Y1197810D01*
X589560Y1159310D02*
Y1197810D01*
Y1159310D02*
X624560D01*
X589560Y1197810D02*
X624560D01*
X853720Y1169870D02*
X888720D01*
X853720Y1131370D02*
X888720D01*
X853720D02*
Y1169870D01*
X888720Y1131370D02*
Y1169870D01*
X626390Y1172410D02*
X661390D01*
X626390Y1133910D02*
X661390D01*
X626390D02*
Y1172410D01*
X661390Y1133910D02*
Y1172410D01*
X460020Y1171140D02*
X495020D01*
X460020Y1132640D02*
X495020D01*
X460020D02*
Y1171140D01*
X495020Y1132640D02*
Y1171140D01*
X283490Y1169870D02*
X318490D01*
X283490Y1131370D02*
X318490D01*
X283490D02*
Y1169870D01*
X318490Y1131370D02*
Y1169870D01*
X580590Y1235990D02*
Y1270990D01*
X542090Y1235990D02*
Y1270990D01*
X580590D01*
X542090Y1235990D02*
X580590D01*
X700050Y1190190D02*
X735050D01*
X700050Y1151690D02*
X735050D01*
X700050D02*
Y1190190D01*
X735050Y1151690D02*
Y1190190D01*
X948890Y987070D02*
Y1022070D01*
X910390Y987070D02*
Y1022070D01*
X948890D01*
X910390Y987070D02*
X948890D01*
X969210Y791490D02*
Y826490D01*
X930710Y791490D02*
Y826490D01*
X969210D01*
X930710Y791490D02*
X969210D01*
X901900Y654330D02*
Y689330D01*
X863400Y654330D02*
Y689330D01*
X901900D01*
X863400Y654330D02*
X901900D01*
X656870Y438350D02*
X691870D01*
X656870Y399850D02*
X691870D01*
X656870D02*
Y438350D01*
X691870Y399850D02*
Y438350D01*
X841810Y228880D02*
Y263880D01*
X880310Y228880D02*
Y263880D01*
X841810Y228880D02*
X880310D01*
X841810Y263880D02*
X880310D01*
X423190Y1192730D02*
X458190D01*
X423190Y1154230D02*
X458190D01*
X423190D02*
Y1192730D01*
X458190Y1154230D02*
Y1192730D01*
X211100Y1197810D02*
X246100D01*
X211100Y1159310D02*
X246100D01*
X211100D02*
Y1197810D01*
X246100Y1159310D02*
Y1197810D01*
X926110Y1212080D02*
X961110D01*
X926110Y1250580D02*
X961110D01*
Y1212080D02*
Y1250580D01*
X926110Y1212080D02*
Y1250580D01*
X496850Y1171140D02*
X531850D01*
X496850Y1132640D02*
X531850D01*
X496850D02*
Y1171140D01*
X531850Y1132640D02*
Y1171140D01*
X664490Y1172410D02*
X699490D01*
X664490Y1133910D02*
X699490D01*
X664490D02*
Y1172410D01*
X699490Y1133910D02*
Y1172410D01*
X202210Y1217730D02*
X237210D01*
X202210Y1256230D02*
X237210D01*
Y1217730D02*
Y1256230D01*
X202210Y1217730D02*
Y1256230D01*
X246660Y1169870D02*
X281660D01*
X246660Y1131370D02*
X281660D01*
X246660D02*
Y1169870D01*
X281660Y1131370D02*
Y1169870D01*
X815620D02*
X850620D01*
X815620Y1131370D02*
X850620D01*
X815620D02*
Y1169870D01*
X850620Y1131370D02*
Y1169870D01*
X778790Y1197810D02*
X813790D01*
X778790Y1159310D02*
X813790D01*
X778790D02*
Y1197810D01*
X813790Y1159310D02*
Y1197810D01*
X239040Y1256230D02*
X274040D01*
X239040Y1217730D02*
X274040D01*
X239040D02*
Y1256230D01*
X274040Y1217730D02*
Y1256230D01*
X966750Y1196540D02*
X1001750D01*
X966750Y1158040D02*
X1001750D01*
X966750D02*
Y1196540D01*
X1001750Y1158040D02*
Y1196540D01*
X888670Y1250580D02*
X923670D01*
X888670Y1212080D02*
X923670D01*
X888670D02*
Y1250580D01*
X923670Y1212080D02*
Y1250580D01*
X320320Y1192730D02*
X355320D01*
X320320Y1154230D02*
X355320D01*
X320320D02*
Y1192730D01*
X355320Y1154230D02*
Y1192730D01*
X156490Y1197810D02*
X191490D01*
X156490Y1159310D02*
X191490D01*
X156490D02*
Y1197810D01*
X191490Y1159310D02*
Y1197810D01*
X309490Y1091710D02*
Y1125710D01*
X292490Y1091710D02*
Y1125710D01*
Y1091710D02*
X309490D01*
X292490Y1125710D02*
X309490D01*
X498720Y1090440D02*
Y1124440D01*
X481720Y1090440D02*
Y1124440D01*
Y1090440D02*
X498720D01*
X481720Y1124440D02*
X498720D01*
X687950Y1090440D02*
Y1124440D01*
X670950Y1090440D02*
Y1124440D01*
Y1090440D02*
X687950D01*
X670950Y1124440D02*
X687950D01*
X877180Y1089170D02*
Y1123170D01*
X860180Y1089170D02*
Y1123170D01*
Y1089170D02*
X877180D01*
X860180Y1123170D02*
X877180D01*
X1043550Y1095520D02*
Y1129520D01*
X1026550Y1095520D02*
Y1129520D01*
Y1095520D02*
X1043550D01*
X1026550Y1129520D02*
X1043550D01*
X304410Y915180D02*
Y949180D01*
X287410Y915180D02*
Y949180D01*
Y915180D02*
X304410D01*
X287410Y949180D02*
X304410D01*
X492370Y915180D02*
Y949180D01*
X475370Y915180D02*
Y949180D01*
Y915180D02*
X492370D01*
X475370Y949180D02*
X492370D01*
X681600Y913910D02*
Y947910D01*
X664600Y913910D02*
Y947910D01*
Y913910D02*
X681600D01*
X664600Y947910D02*
X681600D01*
X870830Y912640D02*
Y946640D01*
X853830Y912640D02*
Y946640D01*
Y912640D02*
X870830D01*
X853830Y946640D02*
X870830D01*
X1042280Y915180D02*
Y949180D01*
X1025280Y915180D02*
Y949180D01*
Y915180D02*
X1042280D01*
X1025280Y949180D02*
X1042280D01*
X304410Y722140D02*
Y756140D01*
X287410Y722140D02*
Y756140D01*
Y722140D02*
X304410D01*
X287410Y756140D02*
X304410D01*
X492370Y722140D02*
Y756140D01*
X475370Y722140D02*
Y756140D01*
Y722140D02*
X492370D01*
X475370Y756140D02*
X492370D01*
X682870Y723410D02*
Y757410D01*
X665870Y723410D02*
Y757410D01*
Y723410D02*
X682870D01*
X665870Y757410D02*
X682870D01*
X851780Y785640D02*
Y819640D01*
X834780Y785640D02*
Y819640D01*
Y785640D02*
X851780D01*
X834780Y819640D02*
X851780D01*
X304410Y527830D02*
Y561830D01*
X287410Y527830D02*
Y561830D01*
Y527830D02*
X304410D01*
X287410Y561830D02*
X304410D01*
X492370Y526560D02*
Y560560D01*
X475370Y526560D02*
Y560560D01*
Y526560D02*
X492370D01*
X475370Y560560D02*
X492370D01*
X682870Y527830D02*
Y561830D01*
X665870Y527830D02*
Y561830D01*
Y527830D02*
X682870D01*
X665870Y561830D02*
X682870D01*
X867020Y558310D02*
Y592310D01*
X850020Y558310D02*
Y592310D01*
Y558310D02*
X867020D01*
X850020Y592310D02*
X867020D01*
X1041010Y659910D02*
Y693910D01*
X1024010Y659910D02*
Y693910D01*
Y659910D02*
X1041010D01*
X1024010Y693910D02*
X1041010D01*
X303140Y339870D02*
Y373870D01*
X286140Y339870D02*
Y373870D01*
Y339870D02*
X303140D01*
X286140Y373870D02*
X303140D01*
X488560Y343680D02*
Y377680D01*
X471560Y343680D02*
Y377680D01*
Y343680D02*
X488560D01*
X471560Y377680D02*
X488560D01*
X681600Y336060D02*
Y370060D01*
X664600Y336060D02*
Y370060D01*
Y336060D02*
X681600D01*
X664600Y370060D02*
X681600D01*
X779290Y257420D02*
X813290D01*
X779290Y240420D02*
X813290D01*
Y257420D01*
X779290Y240420D02*
Y257420D01*
X301870Y150640D02*
Y184640D01*
X284870Y150640D02*
Y184640D01*
Y150640D02*
X301870D01*
X284870Y184640D02*
X301870D01*
X586350Y150640D02*
Y184640D01*
X569350Y150640D02*
Y184640D01*
Y150640D02*
X586350D01*
X569350Y184640D02*
X586350D01*
X854320Y158260D02*
Y192260D01*
X837320Y158260D02*
Y192260D01*
Y158260D02*
X854320D01*
X837320Y192260D02*
X854320D01*
X1054980Y243350D02*
Y277350D01*
X1037980Y243350D02*
Y277350D01*
Y243350D02*
X1054980D01*
X1037980Y277350D02*
X1054980D01*
X552730Y1180150D02*
Y1220150D01*
Y1180150D02*
X575030D01*
X552730Y1220150D02*
X575030D01*
Y1180150D02*
Y1220150D01*
X956630Y1249960D02*
X996630D01*
Y1272260D01*
X956630Y1249960D02*
Y1272260D01*
X996630D01*
X157800Y1252500D02*
X197800D01*
Y1274800D01*
X157800Y1252500D02*
Y1274800D01*
X197800D01*
M02*
