M48
;Layer_Color=9474304
;FILE_FORMAT=4:4
METRIC,LZ
;TYPE=PLATED
;TYPE=NON_PLATED
T08F00S00C3.4000
%
T08
X00201033Y00198513
Y00387743
X00390263
X00579493
X00768723
Y00198513
X00484878
X00957953Y00293128
Y00671588
X00768723Y00766203
X00579493
Y00576973
X00768723
X00390263
Y00766203
X00201033
Y00576973
Y00955433
Y01144663
X00390263
Y00955433
X00579493
Y01144663
X00768723
Y00955433
X00957953
Y01144663
M30
