G04*
G04 #@! TF.GenerationSoftware,Altium Limited,Altium Designer,22.7.1 (60)*
G04*
G04 Layer_Color=8388736*
%FSLAX44Y44*%
%MOMM*%
G71*
G04*
G04 #@! TF.SameCoordinates,EC5D1957-9DED-4F38-8C92-ABF119FEB4E7*
G04*
G04*
G04 #@! TF.FilePolarity,Negative*
G04*
G01*
G75*
%ADD12R,1.3462X1.3462*%
%ADD13C,1.3462*%
%ADD14C,1.9812*%
%ADD15C,2.4892*%
%ADD16C,4.0132*%
%ADD17C,2.2032*%
%ADD18C,4.1912*%
%ADD19C,3.2512*%
%ADD20C,1.2032*%
%ADD21C,1.7032*%
D12*
X58420Y1682750D02*
D03*
X57150Y1522730D02*
D03*
Y1360170D02*
D03*
D13*
X83820Y1657350D02*
D03*
X109220Y1682750D02*
D03*
X107950Y1522730D02*
D03*
X82550Y1497330D02*
D03*
Y1334770D02*
D03*
X107950Y1360170D02*
D03*
D14*
X875273Y1095093D02*
D03*
X824473D02*
D03*
X849873D02*
D03*
X900675Y1095091D02*
D03*
Y622016D02*
D03*
X849873Y622018D02*
D03*
X824473D02*
D03*
X875273D02*
D03*
X900675Y243556D02*
D03*
X849873Y243558D02*
D03*
X824473D02*
D03*
X875273D02*
D03*
X402198Y148943D02*
D03*
X351398D02*
D03*
X376798D02*
D03*
X427600Y148941D02*
D03*
X118353Y148943D02*
D03*
X67553D02*
D03*
X92953D02*
D03*
X143755Y148941D02*
D03*
X118353Y338173D02*
D03*
X67553D02*
D03*
X92953D02*
D03*
X143755Y338171D02*
D03*
X118353Y527403D02*
D03*
X67553D02*
D03*
X92953D02*
D03*
X143755Y527401D02*
D03*
X118353Y716633D02*
D03*
X67553D02*
D03*
X92953D02*
D03*
X143755Y716631D02*
D03*
X118353Y905863D02*
D03*
X67553D02*
D03*
X92953D02*
D03*
X143755Y905861D02*
D03*
X118353Y1095093D02*
D03*
X67553D02*
D03*
X92953D02*
D03*
X143755Y1095091D02*
D03*
X711445D02*
D03*
X660643Y1095093D02*
D03*
X635243D02*
D03*
X686043D02*
D03*
X522215Y338171D02*
D03*
X471413Y338173D02*
D03*
X446013D02*
D03*
X496813D02*
D03*
X711445Y148941D02*
D03*
X660643Y148943D02*
D03*
X635243D02*
D03*
X686043D02*
D03*
X711445Y338171D02*
D03*
X660643Y338173D02*
D03*
X635243D02*
D03*
X686043D02*
D03*
X711445Y527401D02*
D03*
X660643Y527403D02*
D03*
X635243D02*
D03*
X686043D02*
D03*
X522215Y905861D02*
D03*
X471413Y905863D02*
D03*
X446013D02*
D03*
X496813D02*
D03*
X522215Y1095091D02*
D03*
X471413Y1095093D02*
D03*
X446013D02*
D03*
X496813D02*
D03*
X711445Y905861D02*
D03*
X660643Y905863D02*
D03*
X635243D02*
D03*
X686043D02*
D03*
X711445Y716631D02*
D03*
X660643Y716633D02*
D03*
X635243D02*
D03*
X686043D02*
D03*
X522215Y716631D02*
D03*
X471413Y716633D02*
D03*
X446013D02*
D03*
X496813D02*
D03*
X522215Y527401D02*
D03*
X471413Y527403D02*
D03*
X446013D02*
D03*
X496813D02*
D03*
X900675Y905861D02*
D03*
X849873Y905863D02*
D03*
X824473D02*
D03*
X875273D02*
D03*
X332985Y716631D02*
D03*
X282183Y716633D02*
D03*
X256783D02*
D03*
X307583D02*
D03*
X332985Y527401D02*
D03*
X282183Y527403D02*
D03*
X256783D02*
D03*
X307583D02*
D03*
X332985Y1095091D02*
D03*
X282183Y1095093D02*
D03*
X256783D02*
D03*
X307583D02*
D03*
X332985Y338171D02*
D03*
X282183Y338173D02*
D03*
X256783D02*
D03*
X307583D02*
D03*
X332985Y905861D02*
D03*
X282183Y905863D02*
D03*
X256783D02*
D03*
X307583D02*
D03*
D15*
X838193Y996031D02*
D03*
X899913Y1019401D02*
D03*
Y546326D02*
D03*
X838193Y522956D02*
D03*
X899913Y167866D02*
D03*
X838193Y144496D02*
D03*
X365118Y49881D02*
D03*
X426838Y73251D02*
D03*
X81273Y49881D02*
D03*
X142993Y73251D02*
D03*
X81273Y239111D02*
D03*
X142993Y262481D02*
D03*
X81273Y428341D02*
D03*
X142993Y451711D02*
D03*
X81273Y617571D02*
D03*
X142993Y640941D02*
D03*
X81273Y806801D02*
D03*
X142993Y830171D02*
D03*
X81273Y996031D02*
D03*
X142993Y1019401D02*
D03*
X710683D02*
D03*
X648963Y996031D02*
D03*
X521453Y262481D02*
D03*
X459733Y239111D02*
D03*
X710683Y73251D02*
D03*
X648963Y49881D02*
D03*
X710683Y262481D02*
D03*
X648963Y239111D02*
D03*
X710683Y451711D02*
D03*
X648963Y428341D02*
D03*
X521453Y830171D02*
D03*
X459733Y806801D02*
D03*
X521453Y1019401D02*
D03*
X459733Y996031D02*
D03*
X710683Y830171D02*
D03*
X648963Y806801D02*
D03*
X710683Y640941D02*
D03*
X648963Y617571D02*
D03*
X521453Y640941D02*
D03*
X459733Y617571D02*
D03*
X521453Y451711D02*
D03*
X459733Y428341D02*
D03*
X899913Y830171D02*
D03*
X838193Y806801D02*
D03*
X332223Y640941D02*
D03*
X270503Y617571D02*
D03*
X332223Y451711D02*
D03*
X270503Y428341D02*
D03*
X332223Y1019401D02*
D03*
X270503Y996031D02*
D03*
X332223Y262481D02*
D03*
X270503Y239111D02*
D03*
X332223Y830171D02*
D03*
X270503Y806801D02*
D03*
D16*
X862703Y1046323D02*
D03*
Y573248D02*
D03*
Y194788D02*
D03*
X389628Y100173D02*
D03*
X105783D02*
D03*
Y289403D02*
D03*
Y478633D02*
D03*
Y667863D02*
D03*
Y857093D02*
D03*
Y1046323D02*
D03*
X673473D02*
D03*
X484243Y289403D02*
D03*
X673473Y100173D02*
D03*
Y289403D02*
D03*
Y478633D02*
D03*
X484243Y857093D02*
D03*
Y1046323D02*
D03*
X673473Y857093D02*
D03*
Y667863D02*
D03*
X484243D02*
D03*
Y478633D02*
D03*
X862703Y857093D02*
D03*
X295013Y667863D02*
D03*
Y478633D02*
D03*
Y1046323D02*
D03*
Y289403D02*
D03*
Y857093D02*
D03*
D17*
X912614Y1046323D02*
D03*
X812793D02*
D03*
Y573248D02*
D03*
X912614D02*
D03*
X812793Y194788D02*
D03*
X912614D02*
D03*
X439539Y100173D02*
D03*
X339718D02*
D03*
X155694D02*
D03*
X55873D02*
D03*
X155694Y289403D02*
D03*
X55873D02*
D03*
X155694Y478633D02*
D03*
X55873D02*
D03*
X155694Y667863D02*
D03*
X55873D02*
D03*
X155694Y857093D02*
D03*
X55873D02*
D03*
X155694Y1046323D02*
D03*
X55873D02*
D03*
X623563D02*
D03*
X723384D02*
D03*
X434333Y289403D02*
D03*
X534154D02*
D03*
X623563Y100173D02*
D03*
X723384D02*
D03*
X623563Y289403D02*
D03*
X723384D02*
D03*
X623563Y478633D02*
D03*
X723384D02*
D03*
X434333Y857093D02*
D03*
X534154D02*
D03*
X434333Y1046323D02*
D03*
X534154D02*
D03*
X623563Y857093D02*
D03*
X723384D02*
D03*
X623563Y667863D02*
D03*
X723384D02*
D03*
X434333D02*
D03*
X534154D02*
D03*
X434333Y478633D02*
D03*
X534154D02*
D03*
X812793Y857093D02*
D03*
X912614D02*
D03*
X245103Y667863D02*
D03*
X344924D02*
D03*
X245103Y478633D02*
D03*
X344924D02*
D03*
X245103Y1046323D02*
D03*
X344924D02*
D03*
X245103Y289403D02*
D03*
X344924D02*
D03*
X245103Y857093D02*
D03*
X344924D02*
D03*
D18*
X780153Y692628D02*
D03*
Y453868D02*
D03*
Y314168D02*
D03*
Y75408D02*
D03*
X270248Y182723D02*
D03*
X509008D02*
D03*
D19*
X932553Y692628D02*
D03*
Y453868D02*
D03*
Y314168D02*
D03*
Y75408D02*
D03*
X270248Y30323D02*
D03*
X509008D02*
D03*
D20*
X737870Y1201420D02*
D03*
X725170D02*
D03*
X712470D02*
D03*
X699770D02*
D03*
X687070D02*
D03*
X674370D02*
D03*
X661670D02*
D03*
X648970D02*
D03*
X636270D02*
D03*
X623570D02*
D03*
X610870D02*
D03*
X598170D02*
D03*
X585470D02*
D03*
X572770D02*
D03*
X560070D02*
D03*
X547370D02*
D03*
X534670D02*
D03*
X521970D02*
D03*
X509270D02*
D03*
X496570D02*
D03*
X435610D02*
D03*
X422910D02*
D03*
X410210D02*
D03*
X397510D02*
D03*
X384810D02*
D03*
X372110D02*
D03*
X359410D02*
D03*
X346710D02*
D03*
X334010D02*
D03*
X321310D02*
D03*
X308610D02*
D03*
X295910D02*
D03*
X283210D02*
D03*
X270510D02*
D03*
X257810D02*
D03*
X245110D02*
D03*
X232410D02*
D03*
X219710D02*
D03*
X207010D02*
D03*
X194310D02*
D03*
D21*
X25900Y1268530D02*
D03*
Y1293930D02*
D03*
Y1319330D02*
D03*
Y1344730D02*
D03*
Y1370130D02*
D03*
Y1395530D02*
D03*
Y1420930D02*
D03*
Y1446330D02*
D03*
Y1471730D02*
D03*
Y1497130D02*
D03*
Y1522530D02*
D03*
Y1547930D02*
D03*
Y1573330D02*
D03*
Y1598730D02*
D03*
Y1624130D02*
D03*
Y1649530D02*
D03*
Y1674930D02*
D03*
X942586Y1268530D02*
D03*
Y1751130D02*
D03*
X25900Y1700330D02*
D03*
Y1725730D02*
D03*
Y1751130D02*
D03*
M02*
