G04*
G04 #@! TF.GenerationSoftware,Altium Limited,Altium Designer,22.7.1 (60)*
G04*
G04 Layer_Color=128*
%FSLAX44Y44*%
%MOMM*%
G71*
G04*
G04 #@! TF.SameCoordinates,EC5D1957-9DED-4F38-8C92-ABF119FEB4E7*
G04*
G04*
G04 #@! TF.FilePolarity,Positive*
G04*
G01*
G75*
%ADD35R,0.7000X0.9000*%
%ADD36R,0.8000X0.4000*%
%ADD37R,0.9000X0.7000*%
%ADD38R,1.0000X0.6000*%
%ADD39R,0.6000X1.0000*%
%ADD40R,3.8000X2.0300*%
%ADD41R,1.4097X0.5080*%
D35*
X478910Y73660D02*
D03*
X493910D02*
D03*
X196970Y46990D02*
D03*
X211970D02*
D03*
X382390Y246380D02*
D03*
X397390D02*
D03*
X759580Y130810D02*
D03*
X774580D02*
D03*
X881500Y93980D02*
D03*
X896500D02*
D03*
X811410Y411480D02*
D03*
X796410D02*
D03*
X795140Y976630D02*
D03*
X810140D02*
D03*
X792600Y1113790D02*
D03*
X807600D02*
D03*
X112910Y1624330D02*
D03*
X97910D02*
D03*
X72270Y1576070D02*
D03*
X57270D02*
D03*
X115450Y1297940D02*
D03*
X100450D02*
D03*
X114060Y1463040D02*
D03*
X99060D02*
D03*
X74810Y1413510D02*
D03*
X59810D02*
D03*
X74810Y1248410D02*
D03*
X59810D02*
D03*
X805060Y646430D02*
D03*
X790060D02*
D03*
X807600Y775970D02*
D03*
X792600D02*
D03*
D36*
X332670Y234973D02*
D03*
X355670D02*
D03*
X143440Y424203D02*
D03*
X166440D02*
D03*
X711130Y802663D02*
D03*
X734130D02*
D03*
X521900D02*
D03*
X544900D02*
D03*
X332670D02*
D03*
X355670D02*
D03*
X143440D02*
D03*
X166440D02*
D03*
X143440Y991893D02*
D03*
X166440D02*
D03*
X332670D02*
D03*
X355670D02*
D03*
X521900D02*
D03*
X544900D02*
D03*
X711130D02*
D03*
X734130D02*
D03*
X900360Y990623D02*
D03*
X923360D02*
D03*
X167710Y613433D02*
D03*
X144710D02*
D03*
X734130Y614703D02*
D03*
X711130D02*
D03*
X544900Y613433D02*
D03*
X521900D02*
D03*
X355670D02*
D03*
X332670D02*
D03*
X166440Y234973D02*
D03*
X143440D02*
D03*
X544900Y237513D02*
D03*
X521900D02*
D03*
X449650Y47013D02*
D03*
X426650D02*
D03*
X166440D02*
D03*
X143440D02*
D03*
X734130Y237513D02*
D03*
X711130D02*
D03*
X734130Y47013D02*
D03*
X711130D02*
D03*
X924630Y133373D02*
D03*
X901630D02*
D03*
X923360Y803933D02*
D03*
X900360D02*
D03*
X923360Y519453D02*
D03*
X900360D02*
D03*
X734130Y421663D02*
D03*
X711130D02*
D03*
X544900D02*
D03*
X521900D02*
D03*
X355670Y424203D02*
D03*
X332670D02*
D03*
D37*
X734060Y200420D02*
D03*
Y185420D02*
D03*
D38*
X777810Y193040D02*
D03*
X753810Y202540D02*
D03*
Y183540D02*
D03*
X781750Y384810D02*
D03*
X805750Y375310D02*
D03*
Y394310D02*
D03*
X775400Y618490D02*
D03*
X799400Y608990D02*
D03*
Y627990D02*
D03*
X783020Y749300D02*
D03*
X807020Y739800D02*
D03*
Y758800D02*
D03*
X785560Y951230D02*
D03*
X809560Y941730D02*
D03*
Y960730D02*
D03*
X775400Y1083310D02*
D03*
X799400Y1073810D02*
D03*
Y1092810D02*
D03*
X72960Y1609700D02*
D03*
Y1590700D02*
D03*
X48960Y1600200D02*
D03*
X75500Y1282040D02*
D03*
Y1263040D02*
D03*
X51500Y1272540D02*
D03*
X74230Y1447140D02*
D03*
Y1428140D02*
D03*
X50230Y1437640D02*
D03*
D39*
X908050Y1138620D02*
D03*
X917550Y1162620D02*
D03*
X898550D02*
D03*
X721360Y1117030D02*
D03*
X730860Y1141030D02*
D03*
X711860D02*
D03*
X530860Y1138620D02*
D03*
X540360Y1162620D02*
D03*
X521360D02*
D03*
X340360Y1133540D02*
D03*
X349860Y1157540D02*
D03*
X330860D02*
D03*
X136100Y1139890D02*
D03*
X145600Y1163890D02*
D03*
X126600D02*
D03*
X107290Y1586930D02*
D03*
X88290D02*
D03*
X97790Y1610930D02*
D03*
X109830Y1259270D02*
D03*
X90830D02*
D03*
X100330Y1283270D02*
D03*
X108560Y1424370D02*
D03*
X89560D02*
D03*
X99060Y1448370D02*
D03*
X862990Y1162620D02*
D03*
X881990D02*
D03*
X872490Y1138620D02*
D03*
X814730Y1162620D02*
D03*
X833730D02*
D03*
X824230Y1138620D02*
D03*
X677570Y1141030D02*
D03*
X696570D02*
D03*
X687070Y1117030D02*
D03*
X625500Y1142300D02*
D03*
X644500D02*
D03*
X635000Y1118300D02*
D03*
X436270Y1162620D02*
D03*
X455270D02*
D03*
X445770Y1138620D02*
D03*
X485800Y1162620D02*
D03*
X504800D02*
D03*
X495300Y1138620D02*
D03*
X261010Y1157540D02*
D03*
X280010D02*
D03*
X270510Y1133540D02*
D03*
X295300Y1157540D02*
D03*
X314300D02*
D03*
X304800Y1133540D02*
D03*
X91040Y1163890D02*
D03*
X110040D02*
D03*
X100540Y1139890D02*
D03*
X55480Y1163890D02*
D03*
X74480D02*
D03*
X64980Y1139890D02*
D03*
D40*
X69850Y1629410D02*
D03*
X896620Y1438910D02*
D03*
X887730Y1475740D02*
D03*
X66040Y1469390D02*
D03*
X67310Y1303020D02*
D03*
D41*
X919353Y1316990D02*
D03*
Y1329690D02*
D03*
Y1342390D02*
D03*
Y1355090D02*
D03*
Y1367790D02*
D03*
Y1380490D02*
D03*
Y1393190D02*
D03*
Y1405890D02*
D03*
X866140D02*
D03*
Y1393190D02*
D03*
Y1380490D02*
D03*
Y1367790D02*
D03*
Y1355090D02*
D03*
Y1342390D02*
D03*
Y1329690D02*
D03*
Y1316990D02*
D03*
M02*
