%TF.GenerationSoftware,Altium Limited,Altium Designer,20.1.14 (287)*%
G04 Layer_Physical_Order=1*
G04 Layer_Color=255*
%FSLAX26Y26*%
%MOIN*%
%TF.SameCoordinates,6A0BC998-17C7-4340-AACC-798D36D37454*%
%TF.FilePolarity,Positive*%
%TF.FileFunction,Copper,L1,Top,Signal*%
%TF.Part,Single*%
G01*
G75*
%TA.AperFunction,ConnectorPad*%
%ADD10R,0.181102X0.137795*%
%ADD11R,0.078740X0.015748*%
%TA.AperFunction,Conductor*%
%ADD12C,0.012000*%
%TA.AperFunction,ComponentPad*%
%ADD13C,0.045276*%
%ADD14C,0.064961*%
%ADD15C,0.059055*%
%ADD16R,0.059055X0.059055*%
%TA.AperFunction,ViaPad*%
%ADD17C,0.050000*%
D10*
X1423976Y4845827D02*
D03*
Y2263150D02*
D03*
D11*
X2057835Y4788740D02*
D03*
X1735000Y4800551D02*
D03*
Y4776929D02*
D03*
Y4753307D02*
D03*
Y4729685D02*
D03*
Y4706063D02*
D03*
Y4682441D02*
D03*
Y4658819D02*
D03*
Y4635197D02*
D03*
Y4611575D02*
D03*
Y4587953D02*
D03*
Y4564331D02*
D03*
Y4540709D02*
D03*
Y4517087D02*
D03*
Y4493465D02*
D03*
Y4469842D02*
D03*
Y4446221D02*
D03*
Y4422598D02*
D03*
Y4398976D02*
D03*
Y4375354D02*
D03*
Y4351732D02*
D03*
Y4328110D02*
D03*
Y4304488D02*
D03*
Y4280866D02*
D03*
Y4257244D02*
D03*
Y4233622D02*
D03*
Y4210000D02*
D03*
Y4186378D02*
D03*
Y4162756D02*
D03*
Y4139134D02*
D03*
Y4115512D02*
D03*
Y4091890D02*
D03*
Y4068268D02*
D03*
Y4044646D02*
D03*
Y4021024D02*
D03*
Y3997402D02*
D03*
Y3973780D02*
D03*
Y3950157D02*
D03*
Y3926535D02*
D03*
Y3902913D02*
D03*
Y3879291D02*
D03*
Y3855669D02*
D03*
Y3832047D02*
D03*
Y3808425D02*
D03*
Y3761181D02*
D03*
Y3784803D02*
D03*
Y3737559D02*
D03*
Y3713937D02*
D03*
Y3690315D02*
D03*
Y3666693D02*
D03*
Y3643071D02*
D03*
Y3619449D02*
D03*
Y3595827D02*
D03*
Y3572205D02*
D03*
Y3548583D02*
D03*
Y3524961D02*
D03*
Y3501339D02*
D03*
Y3477717D02*
D03*
Y3454095D02*
D03*
Y3430472D02*
D03*
Y3406850D02*
D03*
Y3383228D02*
D03*
Y3359606D02*
D03*
Y3335984D02*
D03*
Y3312362D02*
D03*
Y3288740D02*
D03*
Y3265118D02*
D03*
Y3147008D02*
D03*
Y3123386D02*
D03*
Y3099764D02*
D03*
Y3076142D02*
D03*
Y3052520D02*
D03*
Y3028898D02*
D03*
Y3005276D02*
D03*
Y2981654D02*
D03*
Y2958032D02*
D03*
Y2934410D02*
D03*
Y2910787D02*
D03*
Y2887165D02*
D03*
Y2863543D02*
D03*
Y2839921D02*
D03*
Y2816299D02*
D03*
Y2792677D02*
D03*
Y2769055D02*
D03*
Y2745433D02*
D03*
Y2721811D02*
D03*
Y2698189D02*
D03*
Y2674567D02*
D03*
Y2650945D02*
D03*
Y2627323D02*
D03*
Y2603701D02*
D03*
Y2580079D02*
D03*
Y2556457D02*
D03*
Y2532835D02*
D03*
Y2509213D02*
D03*
Y2485591D02*
D03*
Y2461968D02*
D03*
Y2438347D02*
D03*
Y2414724D02*
D03*
Y2391102D02*
D03*
Y2367480D02*
D03*
Y2320236D02*
D03*
Y2343858D02*
D03*
X2057835Y4765118D02*
D03*
Y4741496D02*
D03*
Y4717874D02*
D03*
Y4694252D02*
D03*
Y4670630D02*
D03*
Y4647008D02*
D03*
Y4623386D02*
D03*
Y4599764D02*
D03*
Y4576142D02*
D03*
Y4552520D02*
D03*
Y4528898D02*
D03*
Y4505276D02*
D03*
Y4481654D02*
D03*
Y4458032D02*
D03*
Y4434409D02*
D03*
Y4410787D02*
D03*
Y4387165D02*
D03*
Y4363543D02*
D03*
Y4339921D02*
D03*
Y4316299D02*
D03*
Y4292677D02*
D03*
Y4269055D02*
D03*
Y4245433D02*
D03*
Y4221811D02*
D03*
Y4198189D02*
D03*
Y4174567D02*
D03*
Y4150945D02*
D03*
Y4127323D02*
D03*
Y4103701D02*
D03*
Y4080079D02*
D03*
Y4056457D02*
D03*
Y4032835D02*
D03*
Y4009213D02*
D03*
Y3985591D02*
D03*
Y3961968D02*
D03*
Y3938347D02*
D03*
Y3914724D02*
D03*
Y3891102D02*
D03*
Y3867480D02*
D03*
Y3843858D02*
D03*
Y3820236D02*
D03*
Y3796614D02*
D03*
Y3749370D02*
D03*
Y3772992D02*
D03*
Y3725748D02*
D03*
Y3702126D02*
D03*
Y3678504D02*
D03*
Y3654882D02*
D03*
Y3631260D02*
D03*
Y3607638D02*
D03*
Y3584016D02*
D03*
Y3560394D02*
D03*
Y3536772D02*
D03*
Y3513150D02*
D03*
Y3489528D02*
D03*
Y3465905D02*
D03*
Y3442284D02*
D03*
Y3418661D02*
D03*
Y3395039D02*
D03*
Y3371417D02*
D03*
Y3347795D02*
D03*
Y3324173D02*
D03*
Y3300551D02*
D03*
Y3276929D02*
D03*
Y3253307D02*
D03*
Y3135197D02*
D03*
Y3111575D02*
D03*
Y3087953D02*
D03*
Y3064331D02*
D03*
Y3040709D02*
D03*
Y3017087D02*
D03*
Y2993465D02*
D03*
Y2969843D02*
D03*
Y2946220D02*
D03*
Y2922598D02*
D03*
Y2898976D02*
D03*
Y2875354D02*
D03*
Y2851732D02*
D03*
Y2828110D02*
D03*
Y2804488D02*
D03*
Y2780866D02*
D03*
Y2757244D02*
D03*
Y2733622D02*
D03*
Y2710000D02*
D03*
Y2686378D02*
D03*
Y2662756D02*
D03*
Y2639134D02*
D03*
Y2615512D02*
D03*
Y2591890D02*
D03*
Y2568268D02*
D03*
Y2544646D02*
D03*
Y2521024D02*
D03*
Y2497402D02*
D03*
Y2473780D02*
D03*
Y2450157D02*
D03*
Y2426535D02*
D03*
Y2402913D02*
D03*
Y2379291D02*
D03*
Y2355669D02*
D03*
Y2308425D02*
D03*
Y2332047D02*
D03*
D12*
X1601654Y4746654D02*
X1608307Y4753307D01*
X1735000D01*
X1610000Y4670228D02*
Y4675456D01*
X1664229Y4729685D01*
X1910000Y3400000D02*
X1925000D01*
X1664229Y4729685D02*
X1735000D01*
X1672740Y4776929D02*
X1735000D01*
X1644669Y4805000D02*
X1672740Y4776929D01*
X1640000Y4805000D02*
X1644669D01*
X1895102Y3385102D02*
X1910000Y3400000D01*
X1736874Y3385102D02*
X1895102D01*
X2057835Y4717874D02*
X2059709Y4716000D01*
X2100301D01*
X2165000Y4651301D01*
Y4595000D02*
Y4651301D01*
X2055961Y4763244D02*
X2057835Y4765118D01*
X1973244Y4763244D02*
X2055961D01*
X1970000Y4760000D02*
X1973244Y4763244D01*
X2057835Y4741496D02*
X2133504D01*
X2165000Y4710000D01*
X2166260Y4788740D02*
X2365000Y4590000D01*
X2057835Y4788740D02*
X2166260D01*
X2255000Y3915000D02*
X2357970D01*
X2365000Y3922030D01*
Y4590000D01*
X2225000Y3885000D02*
X2255000Y3915000D01*
X2225000Y3840000D02*
Y3885000D01*
Y3840000D02*
X2300000Y3765000D01*
X2120000Y3170000D02*
X2230000Y3280000D01*
Y3445000D01*
X1845000Y3170000D02*
X2120000D01*
X2250000Y3465000D02*
X2300000D01*
X2230000Y3445000D02*
X2250000Y3465000D01*
X2196228Y3965000D02*
X2300000D01*
X2057835Y3938347D02*
X2169575D01*
X2196228Y3965000D01*
X2194933Y2865000D02*
X2300000D01*
X2181665Y2851732D02*
X2194933Y2865000D01*
X2057835Y2851732D02*
X2181665D01*
X2370000Y2347030D02*
Y3795000D01*
X2057835Y2308425D02*
X2331396D01*
X2370000Y2347030D01*
X2300000Y3865000D02*
X2370000Y3795000D01*
X1735000Y4800551D02*
X2014527D01*
X2026339Y4788740D01*
X2057835D01*
X1735000Y3383228D02*
X1736874Y3385102D01*
X2056181Y3940000D02*
X2057835Y3938347D01*
X2000000Y3940000D02*
X2056181D01*
X1990000Y3835000D02*
Y3930000D01*
X2000000Y3940000D01*
X2056693Y3845000D02*
X2057835Y3843858D01*
X2000000Y3845000D02*
X2056693D01*
X1990000Y3750000D02*
Y3835000D01*
X2000000Y3845000D01*
X1990000Y3405000D02*
X1999961Y3395039D01*
X2057835D01*
X1990000Y3405000D02*
Y3500000D01*
X2057362Y3490000D02*
X2057835Y3489528D01*
X2000000Y3490000D02*
X2057362D01*
X1990000Y3500000D02*
Y3595000D01*
Y3500000D02*
X2000000Y3490000D01*
X2056850Y3585000D02*
X2057835Y3584016D01*
X2000000Y3585000D02*
X2056850D01*
X1990000Y3595000D02*
Y3687030D01*
Y3595000D02*
X2000000Y3585000D01*
X1990000Y3687030D02*
Y3750000D01*
X1998525Y3678504D02*
X2057835D01*
X1990000Y3687030D02*
X1998525Y3678504D01*
X1800000Y3412030D02*
Y3507030D01*
X1735000Y3406850D02*
X1736850Y3405000D01*
X1792970D01*
X1800000Y3412030D01*
Y3507030D02*
Y3605000D01*
X1735000Y3501339D02*
X1736339Y3500000D01*
X1792970D01*
X1800000Y3507030D01*
X1797970Y3690315D02*
X1800000Y3692345D01*
Y3605000D02*
Y3692345D01*
X1805000Y3697345D01*
X1790827Y3595827D02*
X1800000Y3605000D01*
X1735000Y3595827D02*
X1790827D01*
X1735000Y3950157D02*
X1797970D01*
X1805000Y3943128D01*
Y3845000D02*
Y3943128D01*
X1735000Y3855669D02*
X1735669Y3855000D01*
X1795000D01*
X1805000Y3761181D02*
Y3845000D01*
X1795000Y3855000D02*
X1805000Y3845000D01*
Y3761181D02*
X1978819D01*
X1735000D02*
X1805000D01*
X1735000Y3690315D02*
X1797970D01*
X1805000Y3697345D02*
Y3761181D01*
X2057205Y3750000D02*
X2057835Y3749370D01*
X1990000Y3750000D02*
X2057205D01*
X1978819Y3761181D02*
X1990000Y3750000D01*
X1982362Y3262638D02*
X1991693Y3253307D01*
X2057835D01*
X1982362Y3262638D02*
Y3312362D01*
X2057008Y3325000D02*
X2057835Y3324173D01*
X1995000Y3325000D02*
X2057008D01*
X1735000Y3312362D02*
X1982362D01*
X1995000Y3325000D01*
X2057047Y4010000D02*
X2057835Y4009213D01*
X1995000Y4010000D02*
X2057047D01*
X1985000Y4020000D02*
Y4090000D01*
Y4020000D02*
X1995000Y4010000D01*
X1985000Y4090000D02*
X1994921Y4080079D01*
X2057835D01*
X1985000Y4090000D02*
Y4160000D01*
X1994055Y4150945D01*
X2057835D01*
X1985000Y4160000D02*
Y4230000D01*
X1993189Y4221811D01*
X2057835D01*
X1985000Y4230000D02*
Y4325000D01*
X1993701Y4316299D01*
X2057835D01*
X1985000Y4325000D02*
Y4395000D01*
X1992835Y4387165D01*
X2057835D01*
X1985000Y4395000D02*
Y4465061D01*
Y4540000D01*
X1992030Y4458032D02*
X2057835D01*
X1985000Y4465061D02*
X1992030Y4458032D01*
X2056732Y4530000D02*
X2057835Y4528898D01*
X1995000Y4530000D02*
X2056732D01*
X1985000Y4540000D02*
Y4610000D01*
Y4540000D02*
X1995000Y4530000D01*
X2057598Y4600000D02*
X2057835Y4599764D01*
X1995000Y4600000D02*
X2057598D01*
X1985000Y4610000D02*
Y4695000D01*
Y4610000D02*
X1995000Y4600000D01*
X2057087Y4695000D02*
X2057835Y4694252D01*
X1985000Y4695000D02*
X2057087D01*
X1735000Y4706063D02*
X1973937D01*
X1985000Y4695000D01*
X1666063Y4706063D02*
X1735000D01*
X1649970Y4689971D02*
X1666063Y4706063D01*
X1649970Y4619971D02*
Y4689971D01*
X1665197Y4635197D02*
X1735000D01*
X1649970Y4619971D02*
X1665197Y4635197D01*
X1649970Y4549971D02*
Y4619971D01*
X1734331Y4565000D02*
X1735000Y4564331D01*
X1665000Y4565000D02*
X1734331D01*
X1649970Y4479971D02*
Y4549971D01*
X1665000Y4565000D01*
X1733465Y4495000D02*
X1735000Y4493465D01*
X1665000Y4495000D02*
X1733465D01*
X1649970Y4384971D02*
Y4479971D01*
X1665000Y4495000D01*
X1733976Y4400000D02*
X1735000Y4398976D01*
X1665000Y4400000D02*
X1733976D01*
X1649970Y4314971D02*
Y4384971D01*
X1665000Y4400000D01*
X1733126Y4329984D02*
X1735000Y4328110D01*
X1677630Y4329984D02*
X1733126D01*
X1677614Y4330000D02*
X1677630Y4329984D01*
X1665000Y4330000D02*
X1677614D01*
X1649970Y4244971D02*
Y4314971D01*
X1665000Y4330000D01*
X1733126Y4259118D02*
X1735000Y4257244D01*
X1677630Y4259118D02*
X1733126D01*
X1676748Y4260000D02*
X1677630Y4259118D01*
X1665000Y4260000D02*
X1676748D01*
X1649970Y4169971D02*
Y4244971D01*
X1665000Y4260000D01*
X1666378Y4186378D02*
X1735000D01*
X1649970Y4169971D02*
X1666378Y4186378D01*
X1649970Y4104971D02*
Y4169971D01*
X1660512Y4115512D02*
X1735000D01*
X1649970Y4104971D02*
X1660512Y4115512D01*
X1649970Y4004970D02*
Y4104971D01*
X1666024Y4021024D02*
X1735000D01*
X1649970Y4004970D02*
X1666024Y4021024D01*
X1649970Y3299970D02*
Y4004970D01*
X1733126Y3314236D02*
X1735000Y3312362D01*
X1677630Y3314236D02*
X1733126D01*
X1676866Y3315000D02*
X1677630Y3314236D01*
X1665000Y3315000D02*
X1676866D01*
X1649970Y3116356D02*
Y3299970D01*
X1665000Y3315000D01*
X2055961Y3089827D02*
X2057835Y3087953D01*
X2005114Y3089827D02*
X2055961D01*
X2004941Y3090000D02*
X2005114Y3089827D01*
X1995000Y3090000D02*
X2004941D01*
X1975000Y3005000D02*
Y3070000D01*
X1995000Y3090000D01*
X2055961Y3018961D02*
X2057835Y3017087D01*
X2000980Y3018961D02*
X2055961D01*
X1999941Y3020000D02*
X2000980Y3018961D01*
X1990000Y3020000D02*
X1999941D01*
X1975000Y2910000D02*
Y3005000D01*
X1990000Y3020000D01*
X2055961Y2924472D02*
X2057835Y2922598D01*
X2000469Y2924472D02*
X2055961D01*
X1999941Y2925000D02*
X2000469Y2924472D01*
X1990000Y2925000D02*
X1999941D01*
X1975000Y2835000D02*
Y2910000D01*
X1990000Y2925000D01*
X1991732Y2851732D02*
X2057835D01*
X1975000Y2835000D02*
X1991732Y2851732D01*
X1975000Y2765000D02*
Y2835000D01*
X1990866Y2780866D02*
X2057835D01*
X1975000Y2765000D02*
X1990866Y2780866D01*
X1975000Y2695000D02*
Y2765000D01*
X1990000Y2710000D02*
X2057835D01*
X1975000Y2625000D02*
Y2695000D01*
X1990000Y2710000D01*
X2056968Y2640000D02*
X2057835Y2639134D01*
X1990000Y2640000D02*
X2056968D01*
X1975000Y2555000D02*
Y2625000D01*
X1990000Y2640000D01*
X2056102Y2570000D02*
X2057835Y2568268D01*
X1990000Y2570000D02*
X2056102D01*
X1975000Y2490000D02*
Y2555000D01*
X1990000Y2570000D01*
X1982402Y2497402D02*
X2057835D01*
X1975000Y2490000D02*
X1982402Y2497402D01*
X1975000Y2405000D02*
Y2490000D01*
Y2360000D02*
Y2405000D01*
X2002953Y2332047D02*
X2057835D01*
X1975000Y2360000D02*
X2002953Y2332047D01*
X2056587Y2404161D02*
X2057835Y2402913D01*
X2000465Y2404161D02*
X2056587D01*
X1999626Y2405000D02*
X2000465Y2404161D01*
X1975000Y2405000D02*
X1999626D01*
X1735000Y2391102D02*
X1961102D01*
X1975000Y2405000D01*
X1805000Y3130000D02*
X1845000Y3170000D01*
X1805000Y2680352D02*
Y3130000D01*
X1735000Y2650945D02*
X1736874Y2652819D01*
X1777467D01*
X1805000Y2680352D01*
X1649970Y2680000D02*
Y2720000D01*
Y2620000D02*
Y2680000D01*
X1655404Y2674567D02*
X1735000D01*
X1649970Y2680000D02*
X1655404Y2674567D01*
X1649970Y2545000D02*
Y2620000D01*
X1666270Y2603701D02*
X1735000D01*
X1649970Y2620000D02*
X1666270Y2603701D01*
X1649970Y2454939D02*
Y2545000D01*
X1662136Y2532835D02*
X1735000D01*
X1649970Y2545000D02*
X1662136Y2532835D01*
X1649970Y2720000D02*
Y2840000D01*
X1675404Y2745433D02*
X1735000D01*
X1649970Y2720000D02*
X1675404Y2745433D01*
X1649970Y2840000D02*
Y2910000D01*
X1650049Y2839921D02*
X1735000D01*
X1649970Y2840000D02*
X1650049Y2839921D01*
X1649970Y2910000D02*
Y2980000D01*
X1650758Y2910787D02*
X1735000D01*
X1649970Y2910000D02*
X1650758Y2910787D01*
X1649970Y2980000D02*
Y3050000D01*
X1651624Y2981654D02*
X1735000D01*
X1649970Y2980000D02*
X1651624Y2981654D01*
X1649970Y3050000D02*
Y3116356D01*
X1652490Y3052520D02*
X1735000D01*
X1649970Y3050000D02*
X1652490Y3052520D01*
X1657000Y3123386D02*
X1735000D01*
X1649970Y3116356D02*
X1657000Y3123386D01*
X1649970Y2369970D02*
Y2454939D01*
X1657000Y2461968D02*
X1735000D01*
X1649970Y2454939D02*
X1657000Y2461968D01*
X1649970Y2360030D02*
X1687890Y2322110D01*
X1671102Y2391102D02*
X1735000D01*
X1649970Y2369970D02*
X1671102Y2391102D01*
X1649970Y2360030D02*
Y2369970D01*
X1733126Y2322110D02*
X1735000Y2320236D01*
X1687890Y2322110D02*
X1733126D01*
D13*
X1896417Y4869449D02*
D03*
D14*
Y2239528D02*
D03*
D15*
X2300000Y2865000D02*
D03*
Y2965000D02*
D03*
Y3065000D02*
D03*
Y3165000D02*
D03*
Y3265000D02*
D03*
Y3365000D02*
D03*
Y3465000D02*
D03*
Y3565000D02*
D03*
Y3665000D02*
D03*
Y3765000D02*
D03*
Y3865000D02*
D03*
D16*
Y3965000D02*
D03*
D17*
X1601654Y4746654D02*
D03*
X1610000Y4670228D02*
D03*
X1925000Y3400000D02*
D03*
X1640000Y4805000D02*
D03*
X2165000Y4595000D02*
D03*
X1970000Y4760000D02*
D03*
X2165000Y4710000D02*
D03*
%TF.MD5,5bfe68ae8f9fc38ac778426a32f5c0d2*%
M02*
