M48
;Layer_Color=9474304
;FILE_FORMAT=2:5
INCH,LZ
;TYPE=PLATED
T1F00S00C0.02800
T2F00S00C0.03543
;TYPE=NON_PLATED
T3F00S00C0.04528
T4F00S00C0.06496
%
T01
X01925Y034
X02165Y04595
X0161Y0467023
X0160165Y0474665
X0164Y04805
X0197Y0476
X02165Y0471
T02
X023Y02865
Y02965
Y03065
Y03165
Y03265
Y03365
Y03465
Y03565
Y03665
Y03765
Y03865
Y03965
T03
X0189642Y0486945
T04
X0189642Y0223953
M30
