%TF.GenerationSoftware,Altium Limited,Altium Designer,20.1.14 (287)*%
G04 Layer_Color=128*
%FSLAX26Y26*%
%MOIN*%
%TF.SameCoordinates,6A0BC998-17C7-4340-AACC-798D36D37454*%
%TF.FilePolarity,Positive*%
%TF.FileFunction,Drillmap*%
%TF.Part,Single*%
G01*
G75*
%TA.AperFunction,NonConductor*%
%ADD24C,0.005000*%
D24*
X1873780Y4869449D02*
X1919055D01*
X1896417Y4846811D02*
Y4892087D01*
X1863937Y2239528D02*
X1928898D01*
X1896417Y2207047D02*
Y2272008D01*
X2282284Y2865000D02*
X2317716D01*
X2300000Y2847284D02*
Y2882716D01*
X2282284Y2965000D02*
X2317716D01*
X2300000Y2947284D02*
Y2982716D01*
X2282284Y3065000D02*
X2317716D01*
X2300000Y3047284D02*
Y3082716D01*
X2282284Y3165000D02*
X2317716D01*
X2300000Y3147284D02*
Y3182716D01*
X2282284Y3265000D02*
X2317716D01*
X2300000Y3247284D02*
Y3282716D01*
X2282284Y3365000D02*
X2317716D01*
X2300000Y3347284D02*
Y3382716D01*
X2282284Y3465000D02*
X2317716D01*
X2300000Y3447284D02*
Y3482716D01*
X2282284Y3565000D02*
X2317716D01*
X2300000Y3547284D02*
Y3582716D01*
X2282284Y3665000D02*
X2317716D01*
X2300000Y3647284D02*
Y3682716D01*
X2282284Y3765000D02*
X2317716D01*
X2300000Y3747284D02*
Y3782716D01*
X2282284Y3865000D02*
X2317716D01*
X2300000Y3847284D02*
Y3882716D01*
X2282284Y3965000D02*
X2317716D01*
X2300000Y3947284D02*
Y3982716D01*
X1587654Y4746654D02*
X1615654D01*
X1601654Y4732654D02*
Y4760654D01*
X1596000Y4670228D02*
X1624000D01*
X1610000Y4656228D02*
Y4684228D01*
X1911000Y3400000D02*
X1939000D01*
X1925000Y3386000D02*
Y3414000D01*
X1626000Y4805000D02*
X1654000D01*
X1640000Y4791000D02*
Y4819000D01*
X2151000Y4595000D02*
X2179000D01*
X2165000Y4581000D02*
Y4609000D01*
X1956000Y4760000D02*
X1984000D01*
X1970000Y4746000D02*
Y4774000D01*
X2151000Y4710000D02*
X2179000D01*
X2165000Y4696000D02*
Y4724000D01*
%TF.MD5,7a233593813f762db77983718cffda46*%
M02*
