%TF.GenerationSoftware,Altium Limited,Altium Designer,20.1.14 (287)*%
G04 Layer_Color=2752767*
%FSLAX26Y26*%
%MOIN*%
%TF.SameCoordinates,6A0BC998-17C7-4340-AACC-798D36D37454*%
%TF.FilePolarity,Positive*%
%TF.FileFunction,Drawing*%
%TF.Part,Single*%
G01*
G75*
%TA.AperFunction,NonConductor*%
%ADD24C,0.005000*%
%ADD34C,0.006667*%
D24*
X1876417Y4849449D02*
Y4889449D01*
X1916417D01*
Y4849449D01*
X1876417D01*
X2300000Y2845000D02*
X2280000Y2885000D01*
X2320000D01*
X2300000Y2845000D01*
Y2945000D02*
X2280000Y2985000D01*
X2320000D01*
X2300000Y2945000D01*
Y3045000D02*
X2280000Y3085000D01*
X2320000D01*
X2300000Y3045000D01*
Y3145000D02*
X2280000Y3185000D01*
X2320000D01*
X2300000Y3145000D01*
Y3245000D02*
X2280000Y3285000D01*
X2320000D01*
X2300000Y3245000D01*
Y3345000D02*
X2280000Y3385000D01*
X2320000D01*
X2300000Y3345000D01*
Y3445000D02*
X2280000Y3485000D01*
X2320000D01*
X2300000Y3445000D01*
Y3545000D02*
X2280000Y3585000D01*
X2320000D01*
X2300000Y3545000D01*
Y3645000D02*
X2280000Y3685000D01*
X2320000D01*
X2300000Y3645000D01*
Y3745000D02*
X2280000Y3785000D01*
X2320000D01*
X2300000Y3745000D01*
Y3845000D02*
X2280000Y3885000D01*
X2320000D01*
X2300000Y3845000D01*
Y3945000D02*
X2280000Y3985000D01*
X2320000D01*
X2300000Y3945000D01*
X1601654Y4726654D02*
X1611654Y4736654D01*
X1621654D01*
X1611654Y4746654D01*
X1621654Y4756654D01*
X1611654D01*
X1601654Y4766654D01*
X1591654Y4756654D01*
X1581654D01*
X1591654Y4746654D01*
X1581654Y4736654D01*
X1591654D01*
X1601654Y4726654D01*
X1610000Y4650228D02*
X1620000Y4660228D01*
X1630000D01*
X1620000Y4670228D01*
X1630000Y4680228D01*
X1620000D01*
X1610000Y4690228D01*
X1600000Y4680228D01*
X1590000D01*
X1600000Y4670228D01*
X1590000Y4660228D01*
X1600000D01*
X1610000Y4650228D01*
X1925000Y3380000D02*
X1935000Y3390000D01*
X1945000D01*
X1935000Y3400000D01*
X1945000Y3410000D01*
X1935000D01*
X1925000Y3420000D01*
X1915000Y3410000D01*
X1905000D01*
X1915000Y3400000D01*
X1905000Y3390000D01*
X1915000D01*
X1925000Y3380000D01*
X1640000Y4785000D02*
X1650000Y4795000D01*
X1660000D01*
X1650000Y4805000D01*
X1660000Y4815000D01*
X1650000D01*
X1640000Y4825000D01*
X1630000Y4815000D01*
X1620000D01*
X1630000Y4805000D01*
X1620000Y4795000D01*
X1630000D01*
X1640000Y4785000D01*
X2165000Y4575000D02*
X2175000Y4585000D01*
X2185000D01*
X2175000Y4595000D01*
X2185000Y4605000D01*
X2175000D01*
X2165000Y4615000D01*
X2155000Y4605000D01*
X2145000D01*
X2155000Y4595000D01*
X2145000Y4585000D01*
X2155000D01*
X2165000Y4575000D01*
X1970000Y4740000D02*
X1980000Y4750000D01*
X1990000D01*
X1980000Y4760000D01*
X1990000Y4770000D01*
X1980000D01*
X1970000Y4780000D01*
X1960000Y4770000D01*
X1950000D01*
X1960000Y4760000D01*
X1950000Y4750000D01*
X1960000D01*
X1970000Y4740000D01*
X2165000Y4690000D02*
X2175000Y4700000D01*
X2185000D01*
X2175000Y4710000D01*
X2185000Y4720000D01*
X2175000D01*
X2165000Y4730000D01*
X2155000Y4720000D01*
X2145000D01*
X2155000Y4710000D01*
X2145000Y4700000D01*
X2155000D01*
X2165000Y4690000D01*
D34*
X1916417Y2239528D02*
G03*
X1916417Y2239528I-20000J0D01*
G01*
%TF.MD5,ac1ec5dbff28bb740ff052b8b1ae70c0*%
M02*
