%TF.GenerationSoftware,Altium Limited,Altium Designer,20.1.14 (287)*%
G04 Layer_Color=32896*
%FSLAX26Y26*%
%MOIN*%
%TF.SameCoordinates,6A0BC998-17C7-4340-AACC-798D36D37454*%
%TF.FilePolarity,Positive*%
%TF.FileFunction,Legend,Bot*%
%TF.Part,Single*%
G01*
G75*
%TA.AperFunction,NonConductor*%
%ADD18C,0.010000*%
D18*
X1613881Y3020000D02*
X1553900D01*
Y3049990D01*
X1563897Y3059987D01*
X1603884D01*
X1613881Y3049990D01*
Y3020000D01*
Y3079981D02*
X1553900D01*
Y3109971D01*
X1563897Y3119968D01*
X1603884D01*
X1613881Y3109971D01*
Y3079981D01*
X1553900Y3139961D02*
X1613881D01*
Y3169952D01*
X1603884Y3179948D01*
X1583891D01*
X1573894Y3169952D01*
Y3139961D01*
Y3159955D02*
X1553900Y3179948D01*
X1603884Y3199942D02*
X1613881Y3209939D01*
Y3229932D01*
X1603884Y3239929D01*
X1593888D01*
X1583891Y3229932D01*
Y3219935D01*
Y3229932D01*
X1573894Y3239929D01*
X1563897D01*
X1553900Y3229932D01*
Y3209939D01*
X1563897Y3199942D01*
X1603884Y3359890D02*
X1613881Y3349893D01*
Y3329900D01*
X1603884Y3319903D01*
X1593888D01*
X1583891Y3329900D01*
Y3349893D01*
X1573894Y3359890D01*
X1563897D01*
X1553900Y3349893D01*
Y3329900D01*
X1563897Y3319903D01*
X1613881Y3409874D02*
Y3389881D01*
X1603884Y3379884D01*
X1563897D01*
X1553900Y3389881D01*
Y3409874D01*
X1563897Y3419871D01*
X1603884D01*
X1613881Y3409874D01*
Y3439864D02*
X1553900D01*
Y3469855D01*
X1563897Y3479851D01*
X1603884D01*
X1613881Y3469855D01*
Y3439864D01*
Y3499845D02*
Y3519838D01*
Y3509842D01*
X1553900D01*
Y3499845D01*
Y3519838D01*
Y3549829D02*
X1613881D01*
X1593888Y3569822D01*
X1613881Y3589816D01*
X1553900D01*
Y3609809D02*
X1613881D01*
X1593888Y3629803D01*
X1613881Y3649796D01*
X1553900D01*
X1603884Y3769758D02*
X1613881Y3759761D01*
Y3739767D01*
X1603884Y3729771D01*
X1593888D01*
X1583891Y3739767D01*
Y3759761D01*
X1573894Y3769758D01*
X1563897D01*
X1553900Y3759761D01*
Y3739767D01*
X1563897Y3729771D01*
X1553900Y3789751D02*
X1613881D01*
Y3819741D01*
X1603884Y3829738D01*
X1583891D01*
X1573894Y3819741D01*
Y3789751D01*
X1613881Y3849732D02*
X1553900D01*
Y3879722D01*
X1563897Y3889719D01*
X1603884D01*
X1613881Y3879722D01*
Y3849732D01*
X1517904Y3020000D02*
X1457924D01*
Y3049990D01*
X1467920Y3059987D01*
X1477917D01*
X1487914Y3049990D01*
Y3020000D01*
Y3049990D01*
X1497911Y3059987D01*
X1507908D01*
X1517904Y3049990D01*
Y3020000D01*
X1497911Y3079981D02*
X1457924D01*
X1477917D01*
X1487914Y3089977D01*
X1497911Y3099974D01*
Y3109971D01*
X1457924Y3169952D02*
Y3149958D01*
X1467920Y3139961D01*
X1487914D01*
X1497911Y3149958D01*
Y3169952D01*
X1487914Y3179948D01*
X1477917D01*
Y3139961D01*
X1497911Y3209939D02*
Y3229932D01*
X1487914Y3239929D01*
X1457924D01*
Y3209939D01*
X1467920Y3199942D01*
X1477917Y3209939D01*
Y3239929D01*
X1457924Y3259923D02*
X1517904D01*
X1477917D02*
X1497911Y3289913D01*
X1477917Y3259923D02*
X1457924Y3289913D01*
Y3329900D02*
Y3349893D01*
X1467920Y3359890D01*
X1487914D01*
X1497911Y3349893D01*
Y3329900D01*
X1487914Y3319903D01*
X1467920D01*
X1457924Y3329900D01*
X1497911Y3379884D02*
X1467920D01*
X1457924Y3389881D01*
Y3419871D01*
X1497911D01*
X1507908Y3449861D02*
X1497911D01*
Y3439864D01*
Y3459858D01*
Y3449861D01*
X1467920D01*
X1457924Y3459858D01*
Y3549829D02*
X1517904D01*
Y3579819D01*
X1507908Y3589816D01*
X1487914D01*
X1477917Y3579819D01*
Y3549829D01*
Y3569822D02*
X1457924Y3589816D01*
Y3639800D02*
Y3619806D01*
X1467920Y3609809D01*
X1487914D01*
X1497911Y3619806D01*
Y3639800D01*
X1487914Y3649796D01*
X1477917D01*
Y3609809D01*
X1497911Y3669790D02*
X1457924Y3689783D01*
X1497911Y3709777D01*
X1457924Y3789751D02*
X1497911D01*
X1517904Y3809745D01*
X1497911Y3829738D01*
X1457924D01*
X1487914D01*
Y3789751D01*
X1421928Y3020000D02*
X1361947D01*
Y3049990D01*
X1371944Y3059987D01*
X1411931D01*
X1421928Y3049990D01*
Y3020000D01*
X1361947Y3109971D02*
Y3089977D01*
X1371944Y3079981D01*
X1391937D01*
X1401934Y3089977D01*
Y3109971D01*
X1391937Y3119968D01*
X1381940D01*
Y3079981D01*
X1361947Y3139961D02*
Y3169952D01*
X1371944Y3179948D01*
X1381940Y3169952D01*
Y3149958D01*
X1391937Y3139961D01*
X1401934Y3149958D01*
Y3179948D01*
X1361947Y3199942D02*
Y3219935D01*
Y3209939D01*
X1401934D01*
Y3199942D01*
X1341954Y3269919D02*
Y3279916D01*
X1351950Y3289913D01*
X1401934D01*
Y3259923D01*
X1391937Y3249926D01*
X1371944D01*
X1361947Y3259923D01*
Y3289913D01*
Y3309906D02*
X1401934D01*
Y3339897D01*
X1391937Y3349893D01*
X1361947D01*
Y3399877D02*
Y3379884D01*
X1371944Y3369887D01*
X1391937D01*
X1401934Y3379884D01*
Y3399877D01*
X1391937Y3409874D01*
X1381940D01*
Y3369887D01*
X1421928Y3469855D02*
X1361947D01*
Y3439864D01*
X1371944Y3429867D01*
X1391937D01*
X1401934Y3439864D01*
Y3469855D01*
X1421928Y3549829D02*
X1361947D01*
Y3579819D01*
X1371944Y3589816D01*
X1381940D01*
X1391937D01*
X1401934Y3579819D01*
Y3549829D01*
Y3609809D02*
X1371944D01*
X1361947Y3619806D01*
Y3649796D01*
X1351950D01*
X1341954Y3639800D01*
Y3629803D01*
X1361947Y3649796D02*
X1401934D01*
X1421928Y3769758D02*
Y3729771D01*
X1361947D01*
Y3769758D01*
X1391937Y3729771D02*
Y3749764D01*
X1411931Y3799748D02*
X1401934D01*
Y3789751D01*
Y3809745D01*
Y3799748D01*
X1371944D01*
X1361947Y3809745D01*
X1421928Y3839735D02*
X1361947D01*
X1391937D01*
X1401934Y3849732D01*
Y3869725D01*
X1391937Y3879722D01*
X1361947D01*
X1401934Y3909712D02*
Y3929706D01*
X1391937Y3939703D01*
X1361947D01*
Y3909712D01*
X1371944Y3899715D01*
X1381940Y3909712D01*
Y3939703D01*
X1361947Y3959696D02*
X1401934D01*
Y3989686D01*
X1391937Y3999683D01*
X1361947D01*
X1295961Y3059987D02*
X1305957Y3049990D01*
Y3029997D01*
X1295961Y3020000D01*
X1255974D01*
X1245977Y3029997D01*
Y3049990D01*
X1255974Y3059987D01*
X1305957Y3079981D02*
X1245977D01*
X1275967D01*
X1285964Y3089977D01*
Y3109971D01*
X1275967Y3119968D01*
X1245977D01*
Y3139961D02*
Y3159955D01*
Y3149958D01*
X1285964D01*
Y3139961D01*
X1245977Y3189945D02*
Y3209939D01*
Y3199942D01*
X1305957D01*
Y3189945D01*
Y3279916D02*
X1245977D01*
Y3249926D01*
X1255974Y3239929D01*
X1275967D01*
X1285964Y3249926D01*
Y3279916D01*
X1245977Y3329900D02*
Y3309906D01*
X1255974Y3299910D01*
X1275967D01*
X1285964Y3309906D01*
Y3329900D01*
X1275967Y3339897D01*
X1265970D01*
Y3299910D01*
X1285964Y3359890D02*
X1245977D01*
X1265970D01*
X1275967Y3369887D01*
X1285964Y3379884D01*
Y3389880D01*
X1305957Y3419871D02*
X1245977D01*
X1275967D01*
X1285964Y3429867D01*
Y3449861D01*
X1275967Y3459858D01*
X1245977D01*
Y3489848D02*
Y3509842D01*
X1255974Y3519838D01*
X1275967D01*
X1285964Y3509842D01*
Y3489848D01*
X1275967Y3479851D01*
X1255974D01*
X1245977Y3489848D01*
Y3539832D02*
Y3569822D01*
X1255974Y3579819D01*
X1265970Y3569822D01*
Y3549829D01*
X1275967Y3539832D01*
X1285964Y3549829D01*
Y3579819D01*
X1245977Y3629803D02*
Y3609809D01*
X1255974Y3599812D01*
X1275967D01*
X1285964Y3609809D01*
Y3629803D01*
X1275967Y3639800D01*
X1265970D01*
Y3599812D01*
X1150000Y3059987D02*
Y3020000D01*
X1189987Y3059987D01*
X1199984D01*
X1209981Y3049990D01*
Y3029997D01*
X1199984Y3020000D01*
X1150000Y3079981D02*
X1189987Y3119968D01*
X1150000Y3139961D02*
Y3159955D01*
Y3149958D01*
X1209981D01*
X1199984Y3139961D01*
X1209981Y3229932D02*
Y3189945D01*
X1179990D01*
X1189987Y3209939D01*
Y3219935D01*
X1179990Y3229932D01*
X1159997D01*
X1150000Y3219935D01*
Y3199942D01*
X1159997Y3189945D01*
X1150000Y3249926D02*
X1189987Y3289913D01*
X1150000Y3349893D02*
Y3309906D01*
X1189987Y3349893D01*
X1199984D01*
X1209981Y3339897D01*
Y3319903D01*
X1199984Y3309906D01*
Y3369887D02*
X1209981Y3379884D01*
Y3399877D01*
X1199984Y3409874D01*
X1159997D01*
X1150000Y3399877D01*
Y3379884D01*
X1159997Y3369887D01*
X1199984D01*
X1150000Y3469855D02*
Y3429867D01*
X1189987Y3469855D01*
X1199984D01*
X1209981Y3459858D01*
Y3439864D01*
X1199984Y3429867D01*
X1150000Y3489848D02*
Y3509842D01*
Y3499845D01*
X1209981D01*
X1199984Y3489848D01*
%TF.MD5,bf16b590aee6c5b313d719d026752426*%
M02*
