<svg width="98.00000212mm" height="121.9224003mm" viewBox="0 0 38582678 48000945"  version="1.1" xmlns="http://www.w3.org/2000/svg" xmlns:xlink="http://www.w3.org/1999/xlink">
<desc>
Origin 0 0 Bound 3523346 2312835 38582678 48000945
</desc>
<g fill-rule="evenodd" fill="rgb(255, 0, 255)" stroke="black" stroke-width="1" transform="translate(0, 48000945) scale(1, -1) translate(-3523346, -2312835)">
<path id="N" d="M 39530860.00 47541548.00 L 39535599.00 47445075.00 A 984241.79 984241.79 0 0 1 39819141.00 46845578.00 L 41886289.00 44778427.00 A 989019.94 989019.94 0 0 0 42106022.00 44247943.00 L 42106023.00 26627905.00 A 989002.09 989002.09 0 0 0 41886289.00 26097422.00 L 41224492.00 25435625.00 L 41159627.00 25364057.00 A 984258.44 984258.44 0 0 1 40936212.00 24739653.00 L 40936212.00 24707038.00 L 40940951.00 24610565.00 A 984241.79 984241.79 0 0 1 41224493.00 24011068.00 L 41886289.00 23349270.00 A 989019.94 989019.94 0 0 0 42106022.00 22818786.00 L 42106023.00 5198747.00 A 989002.09 989002.09 0 0 0 41886289.00 4668264.00 L 39750592.00 2532568.00 A 989019.94 989019.94 0 0 0 39220108.00 2312835.00 L 6409259.00 2312834.00 A 989027.99 989027.99 0 0 0 5878776.00 2532568.00 L 4899651.63 3511693.00 L 5980275.00 3511693.00 L 5980275.00 4575945.00 L 4896339.00 4575945.00 L 4896339.00 3515005.63 L 3743079.00 4668264.00 A 989019.94 989019.94 0 0 0 3523346.00 5198748.00 L 3523346.00 21983622.00 A 989014.36 989014.36 0 0 0 3743079.00 22514106.00 L 4995427.00 23766453.00 L 5060292.00 23838022.00 A 984241.93 984241.93 0 0 1 5283709.00 24462425.00 L 5283708.00 24984269.00 L 5278968.00 25080742.00 A 984241.79 984241.79 0 0 1 4995428.00 25680240.00 L 3743079.00 26932587.00 A 989019.94 989019.94 0 0 0 3523346.00 27463071.00 L 3523346.00 44247943.00 A 989014.36 989014.36 0 0 0 3743079.00 44778427.00 L 5810229.00 46845578.00 L 5875094.00 46917146.00 A 984241.09 984241.09 0 0 1 6098510.00 47541549.00 L 6098510.00 50313780.00 L 39530860.00 50313780.00 L 39530860.00 47541548.00  zM 6914679.62 4043845.02 m -633575.98 0 a 633575.98 633575.98 0 1 1 1267151.97 0a 633575.98 633575.98 0 1 1 -1267151.97 0M 5914687.71 6043809.13 m -437452.87 0 a 437452.87 437452.87 0 1 1 874905.73 0a 437452.87 437452.87 0 1 1 -874905.73 0M 7914685.02 6043815.32 m -793825.68 0 a 793825.68 793825.68 0 1 1 1587651.37 0a 793825.68 793825.68 0 1 1 -1587651.37 0M 9414679.62 5043845.02 m -633575.98 0 a 633575.98 633575.98 0 1 1 1267151.97 0a 633575.98 633575.98 0 1 1 -1267151.97 0M 9914687.71 6043809.13 m -437452.87 0 a 437452.87 437452.87 0 1 1 874905.73 0a 437452.87 437452.87 0 1 1 -874905.73 0M 6000000.65 8099996.97 m -168236.03 0 a 168236.03 168236.03 0 1 1 336472.07 0a 168236.03 168236.03 0 1 1 -336472.07 0M 4699994.62 9650026.02 m -633575.98 0 a 633575.98 633575.98 0 1 1 1267151.97 0a 633575.98 633575.98 0 1 1 -1267151.97 0M 5980275.00 12025945.00 L 4896339.00 12025945.00 L 4896339.00 10961693.00 L 5980275.00 10961693.00 L 5980275.00 12025945.00  zM 8623976.00 8524764.00 L 7205394.00 8524764.00 L 7205394.00 8288544.00 L 6398307.00 8288544.00 L 6398307.00 7913268.00 L 7205394.00 7913268.00 L 7205394.00 7717677.00 L 6398307.00 7717677.00 L 6398307.00 7342401.00 L 7205394.00 7342401.00 L 7205394.00 7106182.00 L 8623976.00 7106182.00 L 8623976.00 7342401.00 L 9431063.00 7342401.00 L 9431063.00 7717677.00 L 8623976.00 7717677.00 L 8623976.00 7913268.00 L 9431063.00 7913268.00 L 9431063.00 8288544.00 L 8623976.00 8288544.00 L 8623976.00 8524764.00  zM 9600000.65 7549996.97 m -168236.03 0 a 168236.03 168236.03 0 1 1 336472.07 0a 168236.03 168236.03 0 1 1 -336472.07 0M 11433031.00 5575945.00 L 10349095.00 5575945.00 L 10349095.00 4511693.00 L 11433031.00 4511693.00 L 11433031.00 5575945.00  zM 11668740.00 6344724.00 L 11431260.00 6344724.00 L 11431260.00 5949764.00 L 11668740.00 5949764.00 L 11668740.00 6344724.00  zM 12617164.00 5323070.00 L 12182834.00 5323070.00 L 12182834.00 4967480.00 L 12617164.00 4967480.00 L 12617164.00 5323070.00  zM 12617164.00 4732519.00 L 12182834.00 4732519.00 L 12182834.00 4376929.00 L 12617164.00 4376929.00 L 12617164.00 4732519.00  zM 13850000.65 4449996.97 m -168236.03 0 a 168236.03 168236.03 0 1 1 336472.07 0a 168236.03 168236.03 0 1 1 -336472.07 0M 11668740.00 7250236.00 L 11431260.00 7250236.00 L 11431260.00 6855276.00 L 11668740.00 6855276.00 L 11668740.00 7250236.00  zM 11250000.65 7549996.97 m -168236.03 0 a 168236.03 168236.03 0 1 1 336472.07 0a 168236.03 168236.03 0 1 1 -336472.07 0M 10650000.65 8099996.97 m -168236.03 0 a 168236.03 168236.03 0 1 1 336472.07 0a 168236.03 168236.03 0 1 1 -336472.07 0M 14364679.62 11493845.02 m -633575.98 0 a 633575.98 633575.98 0 1 1 1267151.97 0a 633575.98 633575.98 0 1 1 -1267151.97 0M 6914679.62 11493845.02 m -633575.98 0 a 633575.98 633575.98 0 1 1 1267151.97 0a 633575.98 633575.98 0 1 1 -1267151.97 0M 5914687.71 13493809.13 m -437452.87 0 a 437452.87 437452.87 0 1 1 874905.73 0a 437452.87 437452.87 0 1 1 -874905.73 0M 7914685.02 13493815.32 m -793825.68 0 a 793825.68 793825.68 0 1 1 1587651.37 0a 793825.68 793825.68 0 1 1 -1587651.37 0M 9414679.62 12493845.02 m -633575.98 0 a 633575.98 633575.98 0 1 1 1267151.97 0a 633575.98 633575.98 0 1 1 -1267151.97 0M 9914687.71 13493809.13 m -437452.87 0 a 437452.87 437452.87 0 1 1 874905.73 0a 437452.87 437452.87 0 1 1 -874905.73 0M 5200000.65 15549996.97 m -168236.03 0 a 168236.03 168236.03 0 1 1 336472.07 0a 168236.03 168236.03 0 1 1 -336472.07 0M 5700001.63 17149994.96 m -292507.04 0 a 292507.04 292507.04 0 1 1 585014.09 0a 292507.04 292507.04 0 1 1 -585014.09 0M 8623976.00 15974764.00 L 7205394.00 15974764.00 L 7205394.00 15738544.00 L 6398307.00 15738544.00 L 6398307.00 15363268.00 L 7205394.00 15363268.00 L 7205394.00 15167677.00 L 6398307.00 15167677.00 L 6398307.00 14792401.00 L 7205394.00 14792401.00 L 7205394.00 14556182.00 L 8623976.00 14556182.00 L 8623976.00 14792401.00 L 9431063.00 14792401.00 L 9431063.00 15167677.00 L 8623976.00 15167677.00 L 8623976.00 15363268.00 L 9431063.00 15363268.00 L 9431063.00 15738544.00 L 8623976.00 15738544.00 L 8623976.00 15974764.00  zM 9600000.65 14999996.97 m -168236.03 0 a 168236.03 168236.03 0 1 1 336472.07 0a 168236.03 168236.03 0 1 1 -336472.07 0M 10650000.65 15549996.97 m -168236.03 0 a 168236.03 168236.03 0 1 1 336472.07 0a 168236.03 168236.03 0 1 1 -336472.07 0M 11433031.00 13025945.00 L 10349095.00 13025945.00 L 10349095.00 11961693.00 L 11433031.00 11961693.00 L 11433031.00 13025945.00  zM 11718740.00 13794724.00 L 11481260.00 13794724.00 L 11481260.00 13399764.00 L 11718740.00 13399764.00 L 11718740.00 13794724.00  zM 12350000.65 12799996.97 m -168236.03 0 a 168236.03 168236.03 0 1 1 336472.07 0a 168236.03 168236.03 0 1 1 -336472.07 0M 13430275.00 12025945.00 L 12346339.00 12025945.00 L 12346339.00 10961693.00 L 13430275.00 10961693.00 L 13430275.00 12025945.00  zM 13364687.71 13493809.13 m -437452.87 0 a 437452.87 437452.87 0 1 1 874905.73 0a 437452.87 437452.87 0 1 1 -874905.73 0M 11718740.00 14700236.00 L 11481260.00 14700236.00 L 11481260.00 14305276.00 L 11718740.00 14305276.00 L 11718740.00 14700236.00  zM 11250000.65 15049996.97 m -168236.03 0 a 168236.03 168236.03 0 1 1 336472.07 0a 168236.03 168236.03 0 1 1 -336472.07 0M 13300000.65 15549996.97 m -168236.03 0 a 168236.03 168236.03 0 1 1 336472.07 0a 168236.03 168236.03 0 1 1 -336472.07 0M 13430275.00 19475945.00 L 12346339.00 19475945.00 L 12346339.00 18411693.00 L 13430275.00 18411693.00 L 13430275.00 19475945.00  zM 14389685.77 3293814.85 m -643101.15 0 a 643101.15 643101.15 0 1 1 1286202.30 0a 643101.15 643101.15 0 1 1 -1286202.30 0M 17155275.00 4575945.00 L 16071339.00 4575945.00 L 16071339.00 3511693.00 L 17155275.00 3511693.00 L 17155275.00 4575945.00  zM 17089687.71 6043809.13 m -437452.87 0 a 437452.87 437452.87 0 1 1 874905.73 0a 437452.87 437452.87 0 1 1 -874905.73 0M 18089679.62 4043845.02 m -633575.98 0 a 633575.98 633575.98 0 1 1 1267151.97 0a 633575.98 633575.98 0 1 1 -1267151.97 0M 19089685.02 6043815.32 m -793825.68 0 a 793825.68 793825.68 0 1 1 1587651.37 0a 793825.68 793825.68 0 1 1 -1587651.37 0M 14800001.63 6899994.96 m -292507.04 0 a 292507.04 292507.04 0 1 1 585014.09 0a 292507.04 292507.04 0 1 1 -585014.09 0M 14389688.97 9293798.44 m -829051.56 0 a 829051.56 829051.56 0 1 1 1658103.12 0a 829051.56 829051.56 0 1 1 -1658103.12 0M 18000000.65 8599996.97 m -168236.03 0 a 168236.03 168236.03 0 1 1 336472.07 0a 168236.03 168236.03 0 1 1 -336472.07 0M 19798976.00 8524764.00 L 18380394.00 8524764.00 L 18380394.00 8288544.00 L 17573307.00 8288544.00 L 17573307.00 7913268.00 L 18380394.00 7913268.00 L 18380394.00 7717677.00 L 17573307.00 7717677.00 L 17573307.00 7342401.00 L 18380394.00 7342401.00 L 18380394.00 7106182.00 L 19798976.00 7106182.00 L 19798976.00 7342401.00 L 20606063.00 7342401.00 L 20606063.00 7717677.00 L 19798976.00 7717677.00 L 19798976.00 7913268.00 L 20606063.00 7913268.00 L 20606063.00 8288544.00 L 19798976.00 8288544.00 L 19798976.00 8524764.00  zM 20200000.65 8549996.97 m -168236.03 0 a 168236.03 168236.03 0 1 1 336472.07 0a 168236.03 168236.03 0 1 1 -336472.07 0M 20589679.62 5043845.02 m -633575.98 0 a 633575.98 633575.98 0 1 1 1267151.97 0a 633575.98 633575.98 0 1 1 -1267151.97 0M 21089687.71 6043809.13 m -437452.87 0 a 437452.87 437452.87 0 1 1 874905.73 0a 437452.87 437452.87 0 1 1 -874905.73 0M 22608031.00 5575945.00 L 21524095.00 5575945.00 L 21524095.00 4511693.00 L 22608031.00 4511693.00 L 22608031.00 5575945.00  zM 22868740.00 6344724.00 L 22631260.00 6344724.00 L 22631260.00 5949764.00 L 22868740.00 5949764.00 L 22868740.00 6344724.00  zM 23817164.00 6632519.00 L 23382834.00 6632519.00 L 23382834.00 6276929.00 L 23817164.00 6276929.00 L 23817164.00 6632519.00  zM 20900000.65 7549996.97 m -168236.03 0 a 168236.03 168236.03 0 1 1 336472.07 0a 168236.03 168236.03 0 1 1 -336472.07 0M 22868740.00 7250236.00 L 22631260.00 7250236.00 L 22631260.00 6855276.00 L 22868740.00 6855276.00 L 22868740.00 7250236.00  zM 20880275.00 12025945.00 L 19796339.00 12025945.00 L 19796339.00 10961693.00 L 20880275.00 10961693.00 L 20880275.00 12025945.00  zM 21814679.62 11493845.02 m -633575.98 0 a 633575.98 633575.98 0 1 1 1267151.97 0a 633575.98 633575.98 0 1 1 -1267151.97 0M 15364685.02 13493815.32 m -793825.68 0 a 793825.68 793825.68 0 1 1 1587651.37 0a 793825.68 793825.68 0 1 1 -1587651.37 0M 16864679.62 12493845.02 m -633575.98 0 a 633575.98 633575.98 0 1 1 1267151.97 0a 633575.98 633575.98 0 1 1 -1267151.97 0M 17364687.71 13493809.13 m -437452.87 0 a 437452.87 437452.87 0 1 1 874905.73 0a 437452.87 437452.87 0 1 1 -874905.73 0M 18883031.00 13025945.00 L 17799095.00 13025945.00 L 17799095.00 11961693.00 L 18883031.00 11961693.00 L 18883031.00 13025945.00  zM 19018740.00 13944724.00 L 18781260.00 13944724.00 L 18781260.00 13549764.00 L 19018740.00 13549764.00 L 19018740.00 13944724.00  zM 16073976.00 15974764.00 L 14655394.00 15974764.00 L 14655394.00 15738544.00 L 13848307.00 15738544.00 L 13848307.00 15363268.00 L 14655394.00 15363268.00 L 14655394.00 15167677.00 L 13848307.00 15167677.00 L 13848307.00 14792401.00 L 14655394.00 14792401.00 L 14655394.00 14556182.00 L 16073976.00 14556182.00 L 16073976.00 14792401.00 L 16881063.00 14792401.00 L 16881063.00 15167677.00 L 16073976.00 15167677.00 L 16073976.00 15363268.00 L 16881063.00 15363268.00 L 16881063.00 15738544.00 L 16073976.00 15738544.00 L 16073976.00 15974764.00  zM 16450000.65 15999996.97 m -168236.03 0 a 168236.03 168236.03 0 1 1 336472.07 0a 168236.03 168236.03 0 1 1 -336472.07 0M 14364679.62 18943845.02 m -633575.98 0 a 633575.98 633575.98 0 1 1 1267151.97 0a 633575.98 633575.98 0 1 1 -1267151.97 0M 17600000.65 14999996.97 m -168236.03 0 a 168236.03 168236.03 0 1 1 336472.07 0a 168236.03 168236.03 0 1 1 -336472.07 0M 18852756.65 15249996.97 m -168236.03 0 a 168236.03 168236.03 0 1 1 336472.07 0a 168236.03 168236.03 0 1 1 -336472.07 0M 19517164.00 12632519.00 L 19082834.00 12632519.00 L 19082834.00 12276929.00 L 19517164.00 12276929.00 L 19517164.00 12632519.00  zM 19517164.00 13223070.00 L 19082834.00 13223070.00 L 19082834.00 12867480.00 L 19517164.00 12867480.00 L 19517164.00 13223070.00  zM 19018740.00 14850236.00 L 18781260.00 14850236.00 L 18781260.00 14455276.00 L 19018740.00 14455276.00 L 19018740.00 14850236.00  zM 20814687.71 13493809.13 m -437452.87 0 a 437452.87 437452.87 0 1 1 874905.73 0a 437452.87 437452.87 0 1 1 -874905.73 0M 22814685.02 13493815.32 m -793825.68 0 a 793825.68 793825.68 0 1 1 1587651.37 0a 793825.68 793825.68 0 1 1 -1587651.37 0M 21050000.65 15899996.97 m -168236.03 0 a 168236.03 168236.03 0 1 1 336472.07 0a 168236.03 168236.03 0 1 1 -336472.07 0M 23523976.00 15974764.00 L 22105394.00 15974764.00 L 22105394.00 15738544.00 L 21298307.00 15738544.00 L 21298307.00 15363268.00 L 22105394.00 15363268.00 L 22105394.00 15167677.00 L 21298307.00 15167677.00 L 21298307.00 14792401.00 L 22105394.00 14792401.00 L 22105394.00 14556182.00 L 23523976.00 14556182.00 L 23523976.00 14792401.00 L 24331063.00 14792401.00 L 24331063.00 15167677.00 L 23523976.00 15167677.00 L 23523976.00 15363268.00 L 24331063.00 15363268.00 L 24331063.00 15738544.00 L 23523976.00 15738544.00 L 23523976.00 15974764.00  zM 20880275.00 19475945.00 L 19796339.00 19475945.00 L 19796339.00 18411693.00 L 20880275.00 18411693.00 L 20880275.00 19475945.00  zM 21814679.62 18943845.02 m -633575.98 0 a 633575.98 633575.98 0 1 1 1267151.97 0a 633575.98 633575.98 0 1 1 -1267151.97 0M 5980275.00 19475945.00 L 4896339.00 19475945.00 L 4896339.00 18411693.00 L 5980275.00 18411693.00 L 5980275.00 19475945.00  zM 6914679.62 18943845.02 m -633575.98 0 a 633575.98 633575.98 0 1 1 1267151.97 0a 633575.98 633575.98 0 1 1 -1267151.97 0M 5914687.71 20943809.13 m -437452.87 0 a 437452.87 437452.87 0 1 1 874905.73 0a 437452.87 437452.87 0 1 1 -874905.73 0M 7914685.02 20943815.32 m -793825.68 0 a 793825.68 793825.68 0 1 1 1587651.37 0a 793825.68 793825.68 0 1 1 -1587651.37 0M 9414679.62 19943845.02 m -633575.98 0 a 633575.98 633575.98 0 1 1 1267151.97 0a 633575.98 633575.98 0 1 1 -1267151.97 0M 5750000.65 23049996.97 m -168236.03 0 a 168236.03 168236.03 0 1 1 336472.07 0a 168236.03 168236.03 0 1 1 -336472.07 0M 8623976.00 23424764.00 L 7205394.00 23424764.00 L 7205394.00 23188544.00 L 6398307.00 23188544.00 L 6398307.00 22813268.00 L 7205394.00 22813268.00 L 7205394.00 22617677.00 L 6398307.00 22617677.00 L 6398307.00 22242401.00 L 7205394.00 22242401.00 L 7205394.00 22006182.00 L 8623976.00 22006182.00 L 8623976.00 22242401.00 L 9431063.00 22242401.00 L 9431063.00 22617677.00 L 8623976.00 22617677.00 L 8623976.00 22813268.00 L 9431063.00 22813268.00 L 9431063.00 23188544.00 L 8623976.00 23188544.00 L 8623976.00 23424764.00  zM 9650000.65 22449996.97 m -168236.03 0 a 168236.03 168236.03 0 1 1 336472.07 0a 168236.03 168236.03 0 1 1 -336472.07 0M 5980275.00 26925945.00 L 4896339.00 26925945.00 L 4896339.00 25861693.00 L 5980275.00 25861693.00 L 5980275.00 26925945.00  zM 6914679.62 26393845.02 m -633575.98 0 a 633575.98 633575.98 0 1 1 1267151.97 0a 633575.98 633575.98 0 1 1 -1267151.97 0M 11433031.00 20475945.00 L 10349095.00 20475945.00 L 10349095.00 19411693.00 L 11433031.00 19411693.00 L 11433031.00 20475945.00  zM 9914687.71 20943809.13 m -437452.87 0 a 437452.87 437452.87 0 1 1 874905.73 0a 437452.87 437452.87 0 1 1 -874905.73 0M 11768740.00 21194724.00 L 11531260.00 21194724.00 L 11531260.00 20799764.00 L 11768740.00 20799764.00 L 11768740.00 21194724.00  zM 11252756.65 22102752.97 m -168236.03 0 a 168236.03 168236.03 0 1 1 336472.07 0a 168236.03 168236.03 0 1 1 -336472.07 0M 10650000.65 22999996.97 m -168236.03 0 a 168236.03 168236.03 0 1 1 336472.07 0a 168236.03 168236.03 0 1 1 -336472.07 0M 12700000.65 20149996.97 m -168236.03 0 a 168236.03 168236.03 0 1 1 336472.07 0a 168236.03 168236.03 0 1 1 -336472.07 0M 13364687.71 20943809.13 m -437452.87 0 a 437452.87 437452.87 0 1 1 874905.73 0a 437452.87 437452.87 0 1 1 -874905.73 0M 11768740.00 22100236.00 L 11531260.00 22100236.00 L 11531260.00 21705276.00 L 11768740.00 21705276.00 L 11768740.00 22100236.00  zM 13250000.65 22999996.97 m -168236.03 0 a 168236.03 168236.03 0 1 1 336472.07 0a 168236.03 168236.03 0 1 1 -336472.07 0M 5914687.71 28393809.13 m -437452.87 0 a 437452.87 437452.87 0 1 1 874905.73 0a 437452.87 437452.87 0 1 1 -874905.73 0M 7914685.02 28393815.32 m -793825.68 0 a 793825.68 793825.68 0 1 1 1587651.37 0a 793825.68 793825.68 0 1 1 -1587651.37 0M 9414679.62 27393845.02 m -633575.98 0 a 633575.98 633575.98 0 1 1 1267151.97 0a 633575.98 633575.98 0 1 1 -1267151.97 0M 9914687.71 28393809.13 m -437452.87 0 a 437452.87 437452.87 0 1 1 874905.73 0a 437452.87 437452.87 0 1 1 -874905.73 0M 9650000.65 29899996.97 m -168236.03 0 a 168236.03 168236.03 0 1 1 336472.07 0a 168236.03 168236.03 0 1 1 -336472.07 0M 5200000.65 30449996.97 m -168236.03 0 a 168236.03 168236.03 0 1 1 336472.07 0a 168236.03 168236.03 0 1 1 -336472.07 0M 5980275.00 34375945.00 L 4896339.00 34375945.00 L 4896339.00 33311693.00 L 5980275.00 33311693.00 L 5980275.00 34375945.00  zM 6914679.62 33843845.02 m -633575.98 0 a 633575.98 633575.98 0 1 1 1267151.97 0a 633575.98 633575.98 0 1 1 -1267151.97 0M 8623976.00 30874764.00 L 7205394.00 30874764.00 L 7205394.00 30638544.00 L 6398307.00 30638544.00 L 6398307.00 30263268.00 L 7205394.00 30263268.00 L 7205394.00 30067677.00 L 6398307.00 30067677.00 L 6398307.00 29692401.00 L 7205394.00 29692401.00 L 7205394.00 29456182.00 L 8623976.00 29456182.00 L 8623976.00 29692401.00 L 9431063.00 29692401.00 L 9431063.00 30067677.00 L 8623976.00 30067677.00 L 8623976.00 30263268.00 L 9431063.00 30263268.00 L 9431063.00 30638544.00 L 8623976.00 30638544.00 L 8623976.00 30874764.00  zM 10700000.65 30449996.97 m -168236.03 0 a 168236.03 168236.03 0 1 1 336472.07 0a 168236.03 168236.03 0 1 1 -336472.07 0M 11433031.00 27925945.00 L 10349095.00 27925945.00 L 10349095.00 26861693.00 L 11433031.00 26861693.00 L 11433031.00 27925945.00  zM 13430275.00 26925945.00 L 12346339.00 26925945.00 L 12346339.00 25861693.00 L 13430275.00 25861693.00 L 13430275.00 26925945.00  zM 13364687.71 28393809.13 m -437452.87 0 a 437452.87 437452.87 0 1 1 874905.73 0a 437452.87 437452.87 0 1 1 -874905.73 0M 11768740.00 28844724.00 L 11531260.00 28844724.00 L 11531260.00 28449764.00 L 11768740.00 28449764.00 L 11768740.00 28844724.00  zM 13150000.65 29299996.97 m -168236.03 0 a 168236.03 168236.03 0 1 1 336472.07 0a 168236.03 168236.03 0 1 1 -336472.07 0M 11252756.65 29747240.97 m -168236.03 0 a 168236.03 168236.03 0 1 1 336472.07 0a 168236.03 168236.03 0 1 1 -336472.07 0M 11768740.00 29750236.00 L 11531260.00 29750236.00 L 11531260.00 29355276.00 L 11768740.00 29355276.00 L 11768740.00 29750236.00  zM 13300000.65 30449996.97 m -168236.03 0 a 168236.03 168236.03 0 1 1 336472.07 0a 168236.03 168236.03 0 1 1 -336472.07 0M 13430275.00 34375945.00 L 12346339.00 34375945.00 L 12346339.00 33311693.00 L 13430275.00 33311693.00 L 13430275.00 34375945.00  zM 15364685.02 20943815.32 m -793825.68 0 a 793825.68 793825.68 0 1 1 1587651.37 0a 793825.68 793825.68 0 1 1 -1587651.37 0M 16864679.62 19943845.02 m -633575.98 0 a 633575.98 633575.98 0 1 1 1267151.97 0a 633575.98 633575.98 0 1 1 -1267151.97 0M 17364687.71 20943809.13 m -437452.87 0 a 437452.87 437452.87 0 1 1 874905.73 0a 437452.87 437452.87 0 1 1 -874905.73 0M 18883031.00 20475945.00 L 17799095.00 20475945.00 L 17799095.00 19411693.00 L 18883031.00 19411693.00 L 18883031.00 20475945.00  zM 18000000.65 22349996.97 m -168236.03 0 a 168236.03 168236.03 0 1 1 336472.07 0a 168236.03 168236.03 0 1 1 -336472.07 0M 16073976.00 23424764.00 L 14655394.00 23424764.00 L 14655394.00 23188544.00 L 13848307.00 23188544.00 L 13848307.00 22813268.00 L 14655394.00 22813268.00 L 14655394.00 22617677.00 L 13848307.00 22617677.00 L 13848307.00 22242401.00 L 14655394.00 22242401.00 L 14655394.00 22006182.00 L 16073976.00 22006182.00 L 16073976.00 22242401.00 L 16881063.00 22242401.00 L 16881063.00 22617677.00 L 16073976.00 22617677.00 L 16073976.00 22813268.00 L 16881063.00 22813268.00 L 16881063.00 23188544.00 L 16073976.00 23188544.00 L 16073976.00 23424764.00  zM 16450000.65 23499996.97 m -168236.03 0 a 168236.03 168236.03 0 1 1 336472.07 0a 168236.03 168236.03 0 1 1 -336472.07 0M 14364679.62 26393845.02 m -633575.98 0 a 633575.98 633575.98 0 1 1 1267151.97 0a 633575.98 633575.98 0 1 1 -1267151.97 0M 16864679.62 27393845.02 m -633575.98 0 a 633575.98 633575.98 0 1 1 1267151.97 0a 633575.98 633575.98 0 1 1 -1267151.97 0M 18883031.00 27925945.00 L 17799095.00 27925945.00 L 17799095.00 26861693.00 L 18883031.00 26861693.00 L 18883031.00 27925945.00  zM 19168740.00 21144724.00 L 18931260.00 21144724.00 L 18931260.00 20749764.00 L 19168740.00 20749764.00 L 19168740.00 21144724.00  zM 19168740.00 22050236.00 L 18931260.00 22050236.00 L 18931260.00 21655276.00 L 19168740.00 21655276.00 L 19168740.00 22050236.00  zM 18852756.65 22352752.97 m -168236.03 0 a 168236.03 168236.03 0 1 1 336472.07 0a 168236.03 168236.03 0 1 1 -336472.07 0M 20814687.71 20943809.13 m -437452.87 0 a 437452.87 437452.87 0 1 1 874905.73 0a 437452.87 437452.87 0 1 1 -874905.73 0M 22814685.02 20943815.32 m -793825.68 0 a 793825.68 793825.68 0 1 1 1587651.37 0a 793825.68 793825.68 0 1 1 -1587651.37 0M 21050000.65 22999996.97 m -168236.03 0 a 168236.03 168236.03 0 1 1 336472.07 0a 168236.03 168236.03 0 1 1 -336472.07 0M 23523976.00 23424764.00 L 22105394.00 23424764.00 L 22105394.00 23188544.00 L 21298307.00 23188544.00 L 21298307.00 22813268.00 L 22105394.00 22813268.00 L 22105394.00 22617677.00 L 21298307.00 22617677.00 L 21298307.00 22242401.00 L 22105394.00 22242401.00 L 22105394.00 22006182.00 L 23523976.00 22006182.00 L 23523976.00 22242401.00 L 24331063.00 22242401.00 L 24331063.00 22617677.00 L 23523976.00 22617677.00 L 23523976.00 22813268.00 L 24331063.00 22813268.00 L 24331063.00 23188544.00 L 23523976.00 23188544.00 L 23523976.00 23424764.00  zM 20880275.00 26925945.00 L 19796339.00 26925945.00 L 19796339.00 25861693.00 L 20880275.00 25861693.00 L 20880275.00 26925945.00  zM 21814679.62 26393845.02 m -633575.98 0 a 633575.98 633575.98 0 1 1 1267151.97 0a 633575.98 633575.98 0 1 1 -1267151.97 0M 15364685.02 28393815.32 m -793825.68 0 a 793825.68 793825.68 0 1 1 1587651.37 0a 793825.68 793825.68 0 1 1 -1587651.37 0M 16073976.00 30874764.00 L 14655394.00 30874764.00 L 14655394.00 30638544.00 L 13848307.00 30638544.00 L 13848307.00 30263268.00 L 14655394.00 30263268.00 L 14655394.00 30067677.00 L 13848307.00 30067677.00 L 13848307.00 29692401.00 L 14655394.00 29692401.00 L 14655394.00 29456182.00 L 16073976.00 29456182.00 L 16073976.00 29692401.00 L 16881063.00 29692401.00 L 16881063.00 30067677.00 L 16073976.00 30067677.00 L 16073976.00 30263268.00 L 16881063.00 30263268.00 L 16881063.00 30638544.00 L 16073976.00 30638544.00 L 16073976.00 30874764.00  zM 17364687.71 28393809.13 m -437452.87 0 a 437452.87 437452.87 0 1 1 874905.73 0a 437452.87 437452.87 0 1 1 -874905.73 0M 18000000.65 29899996.97 m -168236.03 0 a 168236.03 168236.03 0 1 1 336472.07 0a 168236.03 168236.03 0 1 1 -336472.07 0M 18852756.65 30002752.97 m -168236.03 0 a 168236.03 168236.03 0 1 1 336472.07 0a 168236.03 168236.03 0 1 1 -336472.07 0M 16450000.65 30999996.97 m -168236.03 0 a 168236.03 168236.03 0 1 1 336472.07 0a 168236.03 168236.03 0 1 1 -336472.07 0M 17100001.63 31799994.96 m -292507.04 0 a 292507.04 292507.04 0 1 1 585014.09 0a 292507.04 292507.04 0 1 1 -585014.09 0M 14364679.62 33843845.02 m -633575.98 0 a 633575.98 633575.98 0 1 1 1267151.97 0a 633575.98 633575.98 0 1 1 -1267151.97 0M 16864679.62 34843845.02 m -633575.98 0 a 633575.98 633575.98 0 1 1 1267151.97 0a 633575.98 633575.98 0 1 1 -1267151.97 0M 19168740.00 28844724.00 L 18931260.00 28844724.00 L 18931260.00 28449764.00 L 19168740.00 28449764.00 L 19168740.00 28844724.00  zM 19168740.00 29750236.00 L 18931260.00 29750236.00 L 18931260.00 29355276.00 L 19168740.00 29355276.00 L 19168740.00 29750236.00  zM 20814687.71 28393809.13 m -437452.87 0 a 437452.87 437452.87 0 1 1 874905.73 0a 437452.87 437452.87 0 1 1 -874905.73 0M 22814685.02 28393815.32 m -793825.68 0 a 793825.68 793825.68 0 1 1 1587651.37 0a 793825.68 793825.68 0 1 1 -1587651.37 0M 23523976.00 30874764.00 L 22105394.00 30874764.00 L 22105394.00 30638544.00 L 21298307.00 30638544.00 L 21298307.00 30263268.00 L 22105394.00 30263268.00 L 22105394.00 30067677.00 L 21298307.00 30067677.00 L 21298307.00 29692401.00 L 22105394.00 29692401.00 L 22105394.00 29456182.00 L 23523976.00 29456182.00 L 23523976.00 29692401.00 L 24331063.00 29692401.00 L 24331063.00 30067677.00 L 23523976.00 30067677.00 L 23523976.00 30263268.00 L 24331063.00 30263268.00 L 24331063.00 30638544.00 L 23523976.00 30638544.00 L 23523976.00 30874764.00  zM 21050000.65 30449996.97 m -168236.03 0 a 168236.03 168236.03 0 1 1 336472.07 0a 168236.03 168236.03 0 1 1 -336472.07 0M 21814679.62 33843845.02 m -633575.98 0 a 633575.98 633575.98 0 1 1 1267151.97 0a 633575.98 633575.98 0 1 1 -1267151.97 0M 19550000.65 33949996.97 m -168236.03 0 a 168236.03 168236.03 0 1 1 336472.07 0a 168236.03 168236.03 0 1 1 -336472.07 0M 20880275.00 34375945.00 L 19796339.00 34375945.00 L 19796339.00 33311693.00 L 20880275.00 33311693.00 L 20880275.00 34375945.00  zM 23789685.77 3293814.85 m -643101.15 0 a 643101.15 643101.15 0 1 1 1286202.30 0a 643101.15 643101.15 0 1 1 -1286202.30 0M 23817164.00 7223070.00 L 23382834.00 7223070.00 L 23382834.00 6867480.00 L 23817164.00 6867480.00 L 23817164.00 7223070.00  zM 24250000.65 7049996.97 m -168236.03 0 a 168236.03 168236.03 0 1 1 336472.07 0a 168236.03 168236.03 0 1 1 -336472.07 0M 28330275.00 4575945.00 L 27246339.00 4575945.00 L 27246339.00 3511693.00 L 28330275.00 3511693.00 L 28330275.00 4575945.00  zM 28264687.71 6043809.13 m -437452.87 0 a 437452.87 437452.87 0 1 1 874905.73 0a 437452.87 437452.87 0 1 1 -874905.73 0M 29264679.62 4043845.02 m -633575.98 0 a 633575.98 633575.98 0 1 1 1267151.97 0a 633575.98 633575.98 0 1 1 -1267151.97 0M 30264685.02 6043815.32 m -793825.68 0 a 793825.68 793825.68 0 1 1 1587651.37 0a 793825.68 793825.68 0 1 1 -1587651.37 0M 31764679.62 5043845.02 m -633575.98 0 a 633575.98 633575.98 0 1 1 1267151.97 0a 633575.98 633575.98 0 1 1 -1267151.97 0M 30973976.00 8524764.00 L 29555394.00 8524764.00 L 29555394.00 8288544.00 L 28748307.00 8288544.00 L 28748307.00 7913268.00 L 29555394.00 7913268.00 L 29555394.00 7717677.00 L 28748307.00 7717677.00 L 28748307.00 7342401.00 L 29555394.00 7342401.00 L 29555394.00 7106182.00 L 30973976.00 7106182.00 L 30973976.00 7342401.00 L 31781063.00 7342401.00 L 31781063.00 7717677.00 L 30973976.00 7717677.00 L 30973976.00 7913268.00 L 31781063.00 7913268.00 L 31781063.00 8288544.00 L 30973976.00 8288544.00 L 30973976.00 8524764.00  zM 32150000.65 7549996.97 m -168236.03 0 a 168236.03 168236.03 0 1 1 336472.07 0a 168236.03 168236.03 0 1 1 -336472.07 0M 23789688.97 9293798.44 m -829051.56 0 a 829051.56 829051.56 0 1 1 1658103.12 0a 829051.56 829051.56 0 1 1 -1658103.12 0M 24314679.62 12493845.02 m -633575.98 0 a 633575.98 633575.98 0 1 1 1267151.97 0a 633575.98 633575.98 0 1 1 -1267151.97 0M 26333031.00 13025945.00 L 25249095.00 13025945.00 L 25249095.00 11961693.00 L 26333031.00 11961693.00 L 26333031.00 13025945.00  zM 28500000.65 8099996.97 m -168236.03 0 a 168236.03 168236.03 0 1 1 336472.07 0a 168236.03 168236.03 0 1 1 -336472.07 0M 28330275.00 12025945.00 L 27246339.00 12025945.00 L 27246339.00 10961693.00 L 28330275.00 10961693.00 L 28330275.00 12025945.00  zM 31300000.65 8549996.97 m -168236.03 0 a 168236.03 168236.03 0 1 1 336472.07 0a 168236.03 168236.03 0 1 1 -336472.07 0M 31094724.00 9918740.00 L 30699764.00 9918740.00 L 30699764.00 9681260.00 L 31094724.00 9681260.00 L 31094724.00 9918740.00  zM 29264679.62 11493845.02 m -633575.98 0 a 633575.98 633575.98 0 1 1 1267151.97 0a 633575.98 633575.98 0 1 1 -1267151.97 0M 32000236.00 9918740.00 L 31605276.00 9918740.00 L 31605276.00 9681260.00 L 32000236.00 9681260.00 L 32000236.00 9918740.00  zM 24814687.71 13493809.13 m -437452.87 0 a 437452.87 437452.87 0 1 1 874905.73 0a 437452.87 437452.87 0 1 1 -874905.73 0M 25381614.65 14968382.97 m -168236.03 0 a 168236.03 168236.03 0 1 1 336472.07 0a 168236.03 168236.03 0 1 1 -336472.07 0M 26618740.00 14550236.00 L 26381260.00 14550236.00 L 26381260.00 14155276.00 L 26618740.00 14155276.00 L 26618740.00 14550236.00  zM 26618740.00 13644724.00 L 26381260.00 13644724.00 L 26381260.00 13249764.00 L 26618740.00 13249764.00 L 26618740.00 13644724.00  zM 26500000.65 14849996.97 m -168236.03 0 a 168236.03 168236.03 0 1 1 336472.07 0a 168236.03 168236.03 0 1 1 -336472.07 0M 23850000.65 15999996.97 m -168236.03 0 a 168236.03 168236.03 0 1 1 336472.07 0a 168236.03 168236.03 0 1 1 -336472.07 0M 25750000.65 17149996.97 m -168236.03 0 a 168236.03 168236.03 0 1 1 336472.07 0a 168236.03 168236.03 0 1 1 -336472.07 0M 26334094.00 17209291.00 L 26017874.00 17209291.00 L 26017874.00 16735591.00 L 26334094.00 16735591.00 L 26334094.00 17209291.00  zM 26708110.00 16264409.00 L 26391890.00 16264409.00 L 26391890.00 15790709.00 L 26708110.00 15790709.00 L 26708110.00 16264409.00  zM 27082125.00 17209291.00 L 26765905.00 17209291.00 L 26765905.00 16735591.00 L 27082125.00 16735591.00 L 27082125.00 17209291.00  zM 28264687.71 13493809.13 m -437452.87 0 a 437452.87 437452.87 0 1 1 874905.73 0a 437452.87 437452.87 0 1 1 -874905.73 0M 28500000.65 15549996.97 m -168236.03 0 a 168236.03 168236.03 0 1 1 336472.07 0a 168236.03 168236.03 0 1 1 -336472.07 0M 30264685.02 13493815.32 m -793825.68 0 a 793825.68 793825.68 0 1 1 1587651.37 0a 793825.68 793825.68 0 1 1 -1587651.37 0M 31764679.62 12493845.02 m -633575.98 0 a 633575.98 633575.98 0 1 1 1267151.97 0a 633575.98 633575.98 0 1 1 -1267151.97 0M 30973976.00 15974764.00 L 29555394.00 15974764.00 L 29555394.00 15738544.00 L 28748307.00 15738544.00 L 28748307.00 15363268.00 L 29555394.00 15363268.00 L 29555394.00 15167677.00 L 28748307.00 15167677.00 L 28748307.00 14792401.00 L 29555394.00 14792401.00 L 29555394.00 14556182.00 L 30973976.00 14556182.00 L 30973976.00 14792401.00 L 31781063.00 14792401.00 L 31781063.00 15167677.00 L 30973976.00 15167677.00 L 30973976.00 15363268.00 L 31781063.00 15363268.00 L 31781063.00 15738544.00 L 30973976.00 15738544.00 L 30973976.00 15974764.00  zM 27500000.65 16999996.97 m -168236.03 0 a 168236.03 168236.03 0 1 1 336472.07 0a 168236.03 168236.03 0 1 1 -336472.07 0M 28330275.00 19475945.00 L 27246339.00 19475945.00 L 27246339.00 18411693.00 L 28330275.00 18411693.00 L 28330275.00 19475945.00  zM 31350000.65 16049996.97 m -168236.03 0 a 168236.03 168236.03 0 1 1 336472.07 0a 168236.03 168236.03 0 1 1 -336472.07 0M 29264679.62 18943845.02 m -633575.98 0 a 633575.98 633575.98 0 1 1 1267151.97 0a 633575.98 633575.98 0 1 1 -1267151.97 0M 33581063.00 5575945.00 L 32901063.00 5575945.00 L 32901063.00 4511693.00 L 33581063.00 4511693.00 L 33581063.00 5575945.00  zM 32264687.71 6043809.13 m -437452.87 0 a 437452.87 437452.87 0 1 1 874905.73 0a 437452.87 437452.87 0 1 1 -874905.73 0M 33418740.00 6644724.00 L 33181260.00 6644724.00 L 33181260.00 6249764.00 L 33418740.00 6249764.00 L 33418740.00 6644724.00  zM 34317164.00 6832519.00 L 33882834.00 6832519.00 L 33882834.00 6476929.00 L 34317164.00 6476929.00 L 34317164.00 6832519.00  zM 34317164.00 7423070.00 L 33882834.00 7423070.00 L 33882834.00 7067480.00 L 34317164.00 7067480.00 L 34317164.00 7423070.00  zM 33418740.00 7550236.00 L 33181260.00 7550236.00 L 33181260.00 7155276.00 L 33418740.00 7155276.00 L 33418740.00 7550236.00  zM 33300000.65 8049996.97 m -168236.03 0 a 168236.03 168236.03 0 1 1 336472.07 0a 168236.03 168236.03 0 1 1 -336472.07 0M 33664409.00 9484094.00 L 33190709.00 9484094.00 L 33190709.00 9167874.00 L 33664409.00 9167874.00 L 33664409.00 9484094.00  zM 32550000.65 9549996.97 m -168236.03 0 a 168236.03 168236.03 0 1 1 336472.07 0a 168236.03 168236.03 0 1 1 -336472.07 0M 32950000.65 9649996.97 m -168236.03 0 a 168236.03 168236.03 0 1 1 336472.07 0a 168236.03 168236.03 0 1 1 -336472.07 0M 34464688.97 5068798.44 m -829051.56 0 a 829051.56 829051.56 0 1 1 1658103.12 0a 829051.56 829051.56 0 1 1 -1658103.12 0M 35780275.00 8300945.00 L 34696339.00 8300945.00 L 34696339.00 7236693.00 L 35780275.00 7236693.00 L 35780275.00 8300945.00  zM 36714679.62 7768845.02 m -633575.98 0 a 633575.98 633575.98 0 1 1 1267151.97 0a 633575.98 633575.98 0 1 1 -1267151.97 0M 34609291.00 9858110.00 L 34135591.00 9858110.00 L 34135591.00 9541890.00 L 34609291.00 9541890.00 L 34609291.00 9858110.00  zM 35714687.71 9768809.13 m -437452.87 0 a 437452.87 437452.87 0 1 1 874905.73 0a 437452.87 437452.87 0 1 1 -874905.73 0M 40464685.77 5068814.85 m -643101.15 0 a 643101.15 643101.15 0 1 1 1286202.30 0a 643101.15 643101.15 0 1 1 -1286202.30 0M 39214679.62 8768845.02 m -633575.98 0 a 633575.98 633575.98 0 1 1 1267151.97 0a 633575.98 633575.98 0 1 1 -1267151.97 0M 37714685.02 9768815.32 m -793825.68 0 a 793825.68 793825.68 0 1 1 1587651.37 0a 793825.68 793825.68 0 1 1 -1587651.37 0M 41233031.00 9300945.00 L 40149095.00 9300945.00 L 40149095.00 8236693.00 L 41233031.00 8236693.00 L 41233031.00 9300945.00  zM 33664409.00 10232125.00 L 33190709.00 10232125.00 L 33190709.00 9915905.00 L 33664409.00 9915905.00 L 33664409.00 10232125.00  zM 33700000.65 10549996.97 m -168236.03 0 a 168236.03 168236.03 0 1 1 336472.07 0a 168236.03 168236.03 0 1 1 -336472.07 0M 35950000.65 11849996.97 m -168236.03 0 a 168236.03 168236.03 0 1 1 336472.07 0a 168236.03 168236.03 0 1 1 -336472.07 0M 38423976.00 12249764.00 L 37005394.00 12249764.00 L 37005394.00 12013544.00 L 36198307.00 12013544.00 L 36198307.00 11638268.00 L 37005394.00 11638268.00 L 37005394.00 11442677.00 L 36198307.00 11442677.00 L 36198307.00 11067401.00 L 37005394.00 11067401.00 L 37005394.00 10831182.00 L 38423976.00 10831182.00 L 38423976.00 11067401.00 L 39231063.00 11067401.00 L 39231063.00 11442677.00 L 38423976.00 11442677.00 L 38423976.00 11638268.00 L 39231063.00 11638268.00 L 39231063.00 12013544.00 L 38423976.00 12013544.00 L 38423976.00 12249764.00  zM 38700000.65 12349996.97 m -168236.03 0 a 168236.03 168236.03 0 1 1 336472.07 0a 168236.03 168236.03 0 1 1 -336472.07 0M 33783031.00 13025945.00 L 32699095.00 13025945.00 L 32699095.00 11961693.00 L 33783031.00 11961693.00 L 33783031.00 13025945.00  zM 32264687.71 13493809.13 m -437452.87 0 a 437452.87 437452.87 0 1 1 874905.73 0a 437452.87 437452.87 0 1 1 -874905.73 0M 34464688.97 14468798.44 m -829051.56 0 a 829051.56 829051.56 0 1 1 1658103.12 0a 829051.56 829051.56 0 1 1 -1658103.12 0M 32950000.65 14949996.97 m -168236.03 0 a 168236.03 168236.03 0 1 1 336472.07 0a 168236.03 168236.03 0 1 1 -336472.07 0M 34800001.63 17049994.96 m -292507.04 0 a 292507.04 292507.04 0 1 1 585014.09 0a 292507.04 292507.04 0 1 1 -585014.09 0M 39714687.71 9768809.13 m -437452.87 0 a 437452.87 437452.87 0 1 1 874905.73 0a 437452.87 437452.87 0 1 1 -874905.73 0M 40132519.00 10917166.00 L 39776929.00 10917166.00 L 39776929.00 10482836.00 L 40132519.00 10482836.00 L 40132519.00 10917166.00  zM 40723070.00 10917166.00 L 40367480.00 10917166.00 L 40367480.00 10482836.00 L 40723070.00 10482836.00 L 40723070.00 10917166.00  zM 41318740.00 9994724.00 L 41081260.00 9994724.00 L 41081260.00 9599764.00 L 41318740.00 9599764.00 L 41318740.00 9994724.00  zM 41318740.00 10900236.00 L 41081260.00 10900236.00 L 41081260.00 10505276.00 L 41318740.00 10505276.00 L 41318740.00 10900236.00  zM 39650000.65 11249996.97 m -168236.03 0 a 168236.03 168236.03 0 1 1 336472.07 0a 168236.03 168236.03 0 1 1 -336472.07 0M 41200000.65 11299996.97 m -168236.03 0 a 168236.03 168236.03 0 1 1 336472.07 0a 168236.03 168236.03 0 1 1 -336472.07 0M 40464685.77 14468814.85 m -643101.15 0 a 643101.15 643101.15 0 1 1 1286202.30 0a 643101.15 643101.15 0 1 1 -1286202.30 0M 40399994.62 17250026.02 m -633575.98 0 a 633575.98 633575.98 0 1 1 1267151.97 0a 633575.98 633575.98 0 1 1 -1267151.97 0M 24314679.62 19943845.02 m -633575.98 0 a 633575.98 633575.98 0 1 1 1267151.97 0a 633575.98 633575.98 0 1 1 -1267151.97 0M 24814687.71 20943809.13 m -437452.87 0 a 437452.87 437452.87 0 1 1 874905.73 0a 437452.87 437452.87 0 1 1 -874905.73 0M 26333031.00 20475945.00 L 25249095.00 20475945.00 L 25249095.00 19411693.00 L 26333031.00 19411693.00 L 26333031.00 20475945.00  zM 26668740.00 21194724.00 L 26431260.00 21194724.00 L 26431260.00 20799764.00 L 26668740.00 20799764.00 L 26668740.00 21194724.00  zM 26668740.00 22100236.00 L 26431260.00 22100236.00 L 26431260.00 21705276.00 L 26668740.00 21705276.00 L 26668740.00 22100236.00  zM 23850000.65 23499996.97 m -168236.03 0 a 168236.03 168236.03 0 1 1 336472.07 0a 168236.03 168236.03 0 1 1 -336472.07 0M 25381614.65 22418382.97 m -168236.03 0 a 168236.03 168236.03 0 1 1 336472.07 0a 168236.03 168236.03 0 1 1 -336472.07 0M 26500000.65 22449996.97 m -168236.03 0 a 168236.03 168236.03 0 1 1 336472.07 0a 168236.03 168236.03 0 1 1 -336472.07 0M 27800000.65 24299996.97 m -168236.03 0 a 168236.03 168236.03 0 1 1 336472.07 0a 168236.03 168236.03 0 1 1 -336472.07 0M 28330275.00 26925945.00 L 27246339.00 26925945.00 L 27246339.00 25861693.00 L 28330275.00 25861693.00 L 28330275.00 26925945.00  zM 28264687.71 20943809.13 m -437452.87 0 a 437452.87 437452.87 0 1 1 874905.73 0a 437452.87 437452.87 0 1 1 -874905.73 0M 30264685.02 20943815.32 m -793825.68 0 a 793825.68 793825.68 0 1 1 1587651.37 0a 793825.68 793825.68 0 1 1 -1587651.37 0M 31764679.62 19943845.02 m -633575.98 0 a 633575.98 633575.98 0 1 1 1267151.97 0a 633575.98 633575.98 0 1 1 -1267151.97 0M 32264687.71 20943809.13 m -437452.87 0 a 437452.87 437452.87 0 1 1 874905.73 0a 437452.87 437452.87 0 1 1 -874905.73 0M 32950000.65 22449996.97 m -168236.03 0 a 168236.03 168236.03 0 1 1 336472.07 0a 168236.03 168236.03 0 1 1 -336472.07 0M 28450000.65 23049996.97 m -168236.03 0 a 168236.03 168236.03 0 1 1 336472.07 0a 168236.03 168236.03 0 1 1 -336472.07 0M 30973976.00 23424764.00 L 29555394.00 23424764.00 L 29555394.00 23188544.00 L 28748307.00 23188544.00 L 28748307.00 22813268.00 L 29555394.00 22813268.00 L 29555394.00 22617677.00 L 28748307.00 22617677.00 L 28748307.00 22242401.00 L 29555394.00 22242401.00 L 29555394.00 22006182.00 L 30973976.00 22006182.00 L 30973976.00 22242401.00 L 31781063.00 22242401.00 L 31781063.00 22617677.00 L 30973976.00 22617677.00 L 30973976.00 22813268.00 L 31781063.00 22813268.00 L 31781063.00 23188544.00 L 30973976.00 23188544.00 L 30973976.00 23424764.00  zM 31350000.65 23449996.97 m -168236.03 0 a 168236.03 168236.03 0 1 1 336472.07 0a 168236.03 168236.03 0 1 1 -336472.07 0M 29264679.62 26393845.02 m -633575.98 0 a 633575.98 633575.98 0 1 1 1267151.97 0a 633575.98 633575.98 0 1 1 -1267151.97 0M 24314679.62 27393845.02 m -633575.98 0 a 633575.98 633575.98 0 1 1 1267151.97 0a 633575.98 633575.98 0 1 1 -1267151.97 0M 24814687.71 28393809.13 m -437452.87 0 a 437452.87 437452.87 0 1 1 874905.73 0a 437452.87 437452.87 0 1 1 -874905.73 0M 26333031.00 27925945.00 L 25249095.00 27925945.00 L 25249095.00 26861693.00 L 26333031.00 26861693.00 L 26333031.00 27925945.00  zM 27500000.65 27299996.97 m -168236.03 0 a 168236.03 168236.03 0 1 1 336472.07 0a 168236.03 168236.03 0 1 1 -336472.07 0M 26668740.00 28894724.00 L 26431260.00 28894724.00 L 26431260.00 28499764.00 L 26668740.00 28499764.00 L 26668740.00 28894724.00  zM 25381614.65 29868382.97 m -168236.03 0 a 168236.03 168236.03 0 1 1 336472.07 0a 168236.03 168236.03 0 1 1 -336472.07 0M 26500000.65 30249996.97 m -168236.03 0 a 168236.03 168236.03 0 1 1 336472.07 0a 168236.03 168236.03 0 1 1 -336472.07 0M 26668740.00 29800236.00 L 26431260.00 29800236.00 L 26431260.00 29405276.00 L 26668740.00 29405276.00 L 26668740.00 29800236.00  zM 23900000.65 30899996.97 m -168236.03 0 a 168236.03 168236.03 0 1 1 336472.07 0a 168236.03 168236.03 0 1 1 -336472.07 0M 28330275.00 34375945.00 L 27246339.00 34375945.00 L 27246339.00 33311693.00 L 28330275.00 33311693.00 L 28330275.00 34375945.00  zM 28264687.71 28393809.13 m -437452.87 0 a 437452.87 437452.87 0 1 1 874905.73 0a 437452.87 437452.87 0 1 1 -874905.73 0M 30264685.02 28393815.32 m -793825.68 0 a 793825.68 793825.68 0 1 1 1587651.37 0a 793825.68 793825.68 0 1 1 -1587651.37 0M 31764679.62 27393845.02 m -633575.98 0 a 633575.98 633575.98 0 1 1 1267151.97 0a 633575.98 633575.98 0 1 1 -1267151.97 0M 32264687.71 28393809.13 m -437452.87 0 a 437452.87 437452.87 0 1 1 874905.73 0a 437452.87 437452.87 0 1 1 -874905.73 0M 32950000.65 29849996.97 m -168236.03 0 a 168236.03 168236.03 0 1 1 336472.07 0a 168236.03 168236.03 0 1 1 -336472.07 0M 28450000.65 30449996.97 m -168236.03 0 a 168236.03 168236.03 0 1 1 336472.07 0a 168236.03 168236.03 0 1 1 -336472.07 0M 30973976.00 30874764.00 L 29555394.00 30874764.00 L 29555394.00 30638544.00 L 28748307.00 30638544.00 L 28748307.00 30263268.00 L 29555394.00 30263268.00 L 29555394.00 30067677.00 L 28748307.00 30067677.00 L 28748307.00 29692401.00 L 29555394.00 29692401.00 L 29555394.00 29456182.00 L 30973976.00 29456182.00 L 30973976.00 29692401.00 L 31781063.00 29692401.00 L 31781063.00 30067677.00 L 30973976.00 30067677.00 L 30973976.00 30263268.00 L 31781063.00 30263268.00 L 31781063.00 30638544.00 L 30973976.00 30638544.00 L 30973976.00 30874764.00  zM 31300000.65 30899996.97 m -168236.03 0 a 168236.03 168236.03 0 1 1 336472.07 0a 168236.03 168236.03 0 1 1 -336472.07 0M 29264679.62 33843845.02 m -633575.98 0 a 633575.98 633575.98 0 1 1 1267151.97 0a 633575.98 633575.98 0 1 1 -1267151.97 0M 33581063.00 20475945.00 L 32901063.00 20475945.00 L 32901063.00 19411693.00 L 33581063.00 19411693.00 L 33581063.00 20475945.00  zM 34464688.97 19968798.44 m -829051.56 0 a 829051.56 829051.56 0 1 1 1658103.12 0a 829051.56 829051.56 0 1 1 -1658103.12 0M 33918740.00 22394724.00 L 33681260.00 22394724.00 L 33681260.00 21999764.00 L 33918740.00 21999764.00 L 33918740.00 22394724.00  zM 33918740.00 23300236.00 L 33681260.00 23300236.00 L 33681260.00 22905276.00 L 33918740.00 22905276.00 L 33918740.00 23300236.00  zM 35780275.00 23200945.00 L 34696339.00 23200945.00 L 34696339.00 22136693.00 L 35780275.00 22136693.00 L 35780275.00 23200945.00  zM 33204645.65 23149996.97 m -168236.03 0 a 168236.03 168236.03 0 1 1 336472.07 0a 168236.03 168236.03 0 1 1 -336472.07 0M 35714687.71 24668809.13 m -437452.87 0 a 437452.87 437452.87 0 1 1 874905.73 0a 437452.87 437452.87 0 1 1 -874905.73 0M 35459291.00 26234095.00 L 34985591.00 26234095.00 L 34985591.00 25917875.00 L 35459291.00 25917875.00 L 35459291.00 26234095.00  zM 34514409.00 26608110.00 L 34040709.00 26608110.00 L 34040709.00 26291890.00 L 34514409.00 26291890.00 L 34514409.00 26608110.00  zM 35950000.65 26749996.97 m -168236.03 0 a 168236.03 168236.03 0 1 1 336472.07 0a 168236.03 168236.03 0 1 1 -336472.07 0M 36714679.62 22668845.02 m -633575.98 0 a 633575.98 633575.98 0 1 1 1267151.97 0a 633575.98 633575.98 0 1 1 -1267151.97 0M 40464685.77 19968814.85 m -643101.15 0 a 643101.15 643101.15 0 1 1 1286202.30 0a 643101.15 643101.15 0 1 1 -1286202.30 0M 41081063.00 24108819.00 L 40301063.00 24108819.00 L 40301063.00 23228819.00 L 41081063.00 23228819.00 L 41081063.00 24108819.00  zM 39214679.62 23668845.02 m -633575.98 0 a 633575.98 633575.98 0 1 1 1267151.97 0a 633575.98 633575.98 0 1 1 -1267151.97 0M 39714687.71 24668809.13 m -437452.87 0 a 437452.87 437452.87 0 1 1 874905.73 0a 437452.87 437452.87 0 1 1 -874905.73 0M 37714685.02 24668815.32 m -793825.68 0 a 793825.68 793825.68 0 1 1 1587651.37 0a 793825.68 793825.68 0 1 1 -1587651.37 0M 38423976.00 27149764.00 L 37005394.00 27149764.00 L 37005394.00 26913544.00 L 36198307.00 26913544.00 L 36198307.00 26538268.00 L 37005394.00 26538268.00 L 37005394.00 26342677.00 L 36198307.00 26342677.00 L 36198307.00 25967401.00 L 37005394.00 25967401.00 L 37005394.00 25731182.00 L 38423976.00 25731182.00 L 38423976.00 25967401.00 L 39231063.00 25967401.00 L 39231063.00 26342677.00 L 38423976.00 26342677.00 L 38423976.00 26538268.00 L 39231063.00 26538268.00 L 39231063.00 26913544.00 L 38423976.00 26913544.00 L 38423976.00 27149764.00  zM 39700000.65 26149996.97 m -168236.03 0 a 168236.03 168236.03 0 1 1 336472.07 0a 168236.03 168236.03 0 1 1 -336472.07 0M 40768740.00 26394724.00 L 40531260.00 26394724.00 L 40531260.00 25999764.00 L 40768740.00 25999764.00 L 40768740.00 26394724.00  zM 33783031.00 27925945.00 L 32699095.00 27925945.00 L 32699095.00 26861693.00 L 33783031.00 26861693.00 L 33783031.00 27925945.00  zM 35459291.00 26982126.00 L 34985591.00 26982126.00 L 34985591.00 26665906.00 L 35459291.00 26665906.00 L 35459291.00 26982126.00  zM 35250000.65 27349996.97 m -168236.03 0 a 168236.03 168236.03 0 1 1 336472.07 0a 168236.03 168236.03 0 1 1 -336472.07 0M 34464688.97 29368798.44 m -829051.56 0 a 829051.56 829051.56 0 1 1 1658103.12 0a 829051.56 829051.56 0 1 1 -1658103.12 0M 33318740.00 31344724.00 L 33081260.00 31344724.00 L 33081260.00 30949764.00 L 33318740.00 30949764.00 L 33318740.00 31344724.00  zM 38750000.65 27299996.97 m -168236.03 0 a 168236.03 168236.03 0 1 1 336472.07 0a 168236.03 168236.03 0 1 1 -336472.07 0M 40768740.00 27300236.00 L 40531260.00 27300236.00 L 40531260.00 26905276.00 L 40768740.00 26905276.00 L 40768740.00 27300236.00  zM 40650000.65 27649996.97 m -168236.03 0 a 168236.03 168236.03 0 1 1 336472.07 0a 168236.03 168236.03 0 1 1 -336472.07 0M 40464685.77 29368814.85 m -643101.15 0 a 643101.15 643101.15 0 1 1 1286202.30 0a 643101.15 643101.15 0 1 1 -1286202.30 0M 33318740.00 32250236.00 L 33081260.00 32250236.00 L 33081260.00 31855276.00 L 33318740.00 31855276.00 L 33318740.00 32250236.00  zM 33650000.65 32099996.97 m -168236.03 0 a 168236.03 168236.03 0 1 1 336472.07 0a 168236.03 168236.03 0 1 1 -336472.07 0M 35780275.00 34375945.00 L 34696339.00 34375945.00 L 34696339.00 33311693.00 L 35780275.00 33311693.00 L 35780275.00 34375945.00  zM 37164409.00 32008110.00 L 36690709.00 32008110.00 L 36690709.00 31691890.00 L 37164409.00 31691890.00 L 37164409.00 32008110.00  zM 36714679.62 33843845.02 m -633575.98 0 a 633575.98 633575.98 0 1 1 1267151.97 0a 633575.98 633575.98 0 1 1 -1267151.97 0M 38109291.00 31634095.00 L 37635591.00 31634095.00 L 37635591.00 31317875.00 L 38109291.00 31317875.00 L 38109291.00 31634095.00  zM 38109291.00 32382126.00 L 37635591.00 32382126.00 L 37635591.00 32065906.00 L 38109291.00 32065906.00 L 38109291.00 32382126.00  zM 37900000.65 32949996.97 m -168236.03 0 a 168236.03 168236.03 0 1 1 336472.07 0a 168236.03 168236.03 0 1 1 -336472.07 0M 39214679.62 34843845.02 m -633575.98 0 a 633575.98 633575.98 0 1 1 1267151.97 0a 633575.98 633575.98 0 1 1 -1267151.97 0M 5914687.71 35843809.13 m -437452.87 0 a 437452.87 437452.87 0 1 1 874905.73 0a 437452.87 437452.87 0 1 1 -874905.73 0M 8623976.00 38324764.00 L 7205394.00 38324764.00 L 7205394.00 38088544.00 L 6398307.00 38088544.00 L 6398307.00 37713268.00 L 7205394.00 37713268.00 L 7205394.00 37517677.00 L 6398307.00 37517677.00 L 6398307.00 37142401.00 L 7205394.00 37142401.00 L 7205394.00 36906182.00 L 8623976.00 36906182.00 L 8623976.00 37142401.00 L 9431063.00 37142401.00 L 9431063.00 37517677.00 L 8623976.00 37517677.00 L 8623976.00 37713268.00 L 9431063.00 37713268.00 L 9431063.00 38088544.00 L 8623976.00 38088544.00 L 8623976.00 38324764.00  zM 7914685.02 35843815.32 m -793825.68 0 a 793825.68 793825.68 0 1 1 1587651.37 0a 793825.68 793825.68 0 1 1 -1587651.37 0M 9414679.62 34843845.02 m -633575.98 0 a 633575.98 633575.98 0 1 1 1267151.97 0a 633575.98 633575.98 0 1 1 -1267151.97 0M 9750000.65 37349996.97 m -168236.03 0 a 168236.03 168236.03 0 1 1 336472.07 0a 168236.03 168236.03 0 1 1 -336472.07 0M 5600000.65 37899996.97 m -168236.03 0 a 168236.03 168236.03 0 1 1 336472.07 0a 168236.03 168236.03 0 1 1 -336472.07 0M 4649994.62 39350026.02 m -633575.98 0 a 633575.98 633575.98 0 1 1 1267151.97 0a 633575.98 633575.98 0 1 1 -1267151.97 0M 5980275.00 41825945.00 L 4896339.00 41825945.00 L 4896339.00 40761693.00 L 5980275.00 40761693.00 L 5980275.00 41825945.00  zM 7950001.63 39499994.96 m -292507.04 0 a 292507.04 292507.04 0 1 1 585014.09 0a 292507.04 292507.04 0 1 1 -585014.09 0M 6914679.62 41293845.02 m -633575.98 0 a 633575.98 633575.98 0 1 1 1267151.97 0a 633575.98 633575.98 0 1 1 -1267151.97 0M 11433031.00 35375945.00 L 10349095.00 35375945.00 L 10349095.00 34311693.00 L 11433031.00 34311693.00 L 11433031.00 35375945.00  zM 9914687.71 35843809.13 m -437452.87 0 a 437452.87 437452.87 0 1 1 874905.73 0a 437452.87 437452.87 0 1 1 -874905.73 0M 11768740.00 37350236.00 L 11531260.00 37350236.00 L 11531260.00 36955276.00 L 11768740.00 36955276.00 L 11768740.00 37350236.00  zM 11768740.00 36444724.00 L 11531260.00 36444724.00 L 11531260.00 36049764.00 L 11768740.00 36049764.00 L 11768740.00 36444724.00  zM 13364687.71 35843809.13 m -437452.87 0 a 437452.87 437452.87 0 1 1 874905.73 0a 437452.87 437452.87 0 1 1 -874905.73 0M 11252756.65 37252752.97 m -168236.03 0 a 168236.03 168236.03 0 1 1 336472.07 0a 168236.03 168236.03 0 1 1 -336472.07 0M 13200000.65 37899996.97 m -168236.03 0 a 168236.03 168236.03 0 1 1 336472.07 0a 168236.03 168236.03 0 1 1 -336472.07 0M 10700000.65 37899996.97 m -168236.03 0 a 168236.03 168236.03 0 1 1 336472.07 0a 168236.03 168236.03 0 1 1 -336472.07 0M 13430275.00 41825945.00 L 12346339.00 41825945.00 L 12346339.00 40761693.00 L 13430275.00 40761693.00 L 13430275.00 41825945.00  zM 5914687.71 43293809.13 m -437452.87 0 a 437452.87 437452.87 0 1 1 874905.73 0a 437452.87 437452.87 0 1 1 -874905.73 0M 6200906.65 45350902.97 m -168236.03 0 a 168236.03 168236.03 0 1 1 336472.07 0a 168236.03 168236.03 0 1 1 -336472.07 0M 7914685.02 43293815.32 m -793825.68 0 a 793825.68 793825.68 0 1 1 1587651.37 0a 793825.68 793825.68 0 1 1 -1587651.37 0M 9414679.62 42293845.02 m -633575.98 0 a 633575.98 633575.98 0 1 1 1267151.97 0a 633575.98 633575.98 0 1 1 -1267151.97 0M 8623976.00 45774764.00 L 7205394.00 45774764.00 L 7205394.00 45538544.00 L 6398307.00 45538544.00 L 6398307.00 45163268.00 L 7205394.00 45163268.00 L 7205394.00 44967677.00 L 6398307.00 44967677.00 L 6398307.00 44592401.00 L 7205394.00 44592401.00 L 7205394.00 44356182.00 L 8623976.00 44356182.00 L 8623976.00 44592401.00 L 9431063.00 44592401.00 L 9431063.00 44967677.00 L 8623976.00 44967677.00 L 8623976.00 45163268.00 L 9431063.00 45163268.00 L 9431063.00 45538544.00 L 8623976.00 45538544.00 L 8623976.00 45774764.00  zM 9914687.71 43293809.13 m -437452.87 0 a 437452.87 437452.87 0 1 1 874905.73 0a 437452.87 437452.87 0 1 1 -874905.73 0M 10400000.65 44249996.97 m -168236.03 0 a 168236.03 168236.03 0 1 1 336472.07 0a 168236.03 168236.03 0 1 1 -336472.07 0M 10800000.65 44349996.97 m -168236.03 0 a 168236.03 168236.03 0 1 1 336472.07 0a 168236.03 168236.03 0 1 1 -336472.07 0M 10558110.00 45064409.00 L 10241890.00 45064409.00 L 10241890.00 44590709.00 L 10558110.00 44590709.00 L 10558110.00 45064409.00  zM 10184094.00 46009291.00 L 9867874.00 46009291.00 L 9867874.00 45535591.00 L 10184094.00 45535591.00 L 10184094.00 46009291.00  zM 11433031.00 42825945.00 L 10349095.00 42825945.00 L 10349095.00 41761693.00 L 11433031.00 41761693.00 L 11433031.00 42825945.00  zM 11968740.00 43394724.00 L 11731260.00 43394724.00 L 11731260.00 42999764.00 L 11968740.00 42999764.00 L 11968740.00 43394724.00  zM 11252756.65 44102752.97 m -168236.03 0 a 168236.03 168236.03 0 1 1 336472.07 0a 168236.03 168236.03 0 1 1 -336472.07 0M 11968740.00 44300236.00 L 11731260.00 44300236.00 L 11731260.00 43905276.00 L 11968740.00 43905276.00 L 11968740.00 44300236.00  zM 13364687.71 43293809.13 m -437452.87 0 a 437452.87 437452.87 0 1 1 874905.73 0a 437452.87 437452.87 0 1 1 -874905.73 0M 12008110.00 45064409.00 L 11691890.00 45064409.00 L 11691890.00 44590709.00 L 12008110.00 44590709.00 L 12008110.00 45064409.00  zM 11634094.00 46009291.00 L 11317874.00 46009291.00 L 11317874.00 45535591.00 L 11634094.00 45535591.00 L 11634094.00 46009291.00  zM 13551189.65 45349279.97 m -168236.03 0 a 168236.03 168236.03 0 1 1 336472.07 0a 168236.03 168236.03 0 1 1 -336472.07 0M 13458110.00 45964409.00 L 13141890.00 45964409.00 L 13141890.00 45490709.00 L 13458110.00 45490709.00 L 13458110.00 45964409.00  zM 7008110.00 46164409.00 L 6691890.00 46164409.00 L 6691890.00 45690709.00 L 7008110.00 45690709.00 L 7008110.00 46164409.00  zM 7382125.00 47109291.00 L 7065905.00 47109291.00 L 7065905.00 46635591.00 L 7382125.00 46635591.00 L 7382125.00 47109291.00  zM 6634094.00 47109291.00 L 6317874.00 47109291.00 L 6317874.00 46635591.00 L 6634094.00 46635591.00 L 6634094.00 47109291.00  zM 6475984.65 47325980.97 m -168236.03 0 a 168236.03 168236.03 0 1 1 336472.07 0a 168236.03 168236.03 0 1 1 -336472.07 0M 7832519.00 47867166.00 L 7476929.00 47867166.00 L 7476929.00 47432836.00 L 7832519.00 47432836.00 L 7832519.00 47867166.00  zM 9158110.00 46164409.00 L 8841890.00 46164409.00 L 8841890.00 45690709.00 L 9158110.00 45690709.00 L 9158110.00 46164409.00  zM 8784094.00 47109291.00 L 8467874.00 47109291.00 L 8467874.00 46635591.00 L 8784094.00 46635591.00 L 8784094.00 47109291.00  zM 9532125.00 47109291.00 L 9215905.00 47109291.00 L 9215905.00 46635591.00 L 9532125.00 46635591.00 L 9532125.00 47109291.00  zM 8172441.65 46872437.97 m -168236.03 0 a 168236.03 168236.03 0 1 1 336472.07 0a 168236.03 168236.03 0 1 1 -336472.07 0M 8423070.00 47867166.00 L 8067480.00 47867166.00 L 8067480.00 47432836.00 L 8423070.00 47432836.00 L 8423070.00 47867166.00  zM 6803779.00 48736850.00 L 6448189.00 48736850.00 L 6448189.00 48263150.00 L 6803779.00 48263150.00 L 6803779.00 48736850.00  zM 6650000.65 49149996.97 m -168236.03 0 a 168236.03 168236.03 0 1 1 336472.07 0a 168236.03 168236.03 0 1 1 -336472.07 0M 7748661.00 48402204.00 L 7353701.00 48402204.00 L 7353701.00 48085984.00 L 7748661.00 48085984.00 L 7748661.00 48402204.00  zM 7748661.00 48914016.00 L 7353701.00 48914016.00 L 7353701.00 48597796.00 L 7748661.00 48597796.00 L 7748661.00 48914016.00  zM 8434095.00 48464409.00 L 8117875.00 48464409.00 L 8117875.00 47990709.00 L 8434095.00 47990709.00 L 8434095.00 48464409.00  zM 9182126.00 48464409.00 L 8865906.00 48464409.00 L 8865906.00 47990709.00 L 9182126.00 47990709.00 L 9182126.00 48464409.00  zM 8808110.00 49409291.00 L 8491890.00 49409291.00 L 8491890.00 48935591.00 L 8808110.00 48935591.00 L 8808110.00 49409291.00  zM 8932520.00 49917164.00 L 8576930.00 49917164.00 L 8576930.00 49482834.00 L 8932520.00 49482834.00 L 8932520.00 49917164.00  zM 9523071.00 49917164.00 L 9167481.00 49917164.00 L 9167481.00 49482834.00 L 9523071.00 49482834.00 L 9523071.00 49917164.00  zM 10932125.00 46009291.00 L 10615905.00 46009291.00 L 10615905.00 45535591.00 L 10932125.00 45535591.00 L 10932125.00 46009291.00  zM 10774015.65 46224011.97 m -168236.03 0 a 168236.03 168236.03 0 1 1 336472.07 0a 168236.03 168236.03 0 1 1 -336472.07 0M 11600000.65 46199996.97 m -168236.03 0 a 168236.03 168236.03 0 1 1 336472.07 0a 168236.03 168236.03 0 1 1 -336472.07 0M 10025984.65 46274012.97 m -168236.03 0 a 168236.03 168236.03 0 1 1 336472.07 0a 168236.03 168236.03 0 1 1 -336472.07 0M 10750000.65 47949996.97 m -168236.03 0 a 168236.03 168236.03 0 1 1 336472.07 0a 168236.03 168236.03 0 1 1 -336472.07 0M 10258110.00 48464409.00 L 9941890.00 48464409.00 L 9941890.00 47990709.00 L 10258110.00 47990709.00 L 10258110.00 48464409.00  zM 9884094.00 49409291.00 L 9567874.00 49409291.00 L 9567874.00 48935591.00 L 9884094.00 48935591.00 L 9884094.00 49409291.00  zM 10632125.00 49409291.00 L 10315905.00 49409291.00 L 10315905.00 48935591.00 L 10632125.00 48935591.00 L 10632125.00 49409291.00  zM 11346179.49 49427957.70 m -241485.30 0 a 241485.30 241485.30 0 1 1 482970.60 0a 241485.30 241485.30 0 1 1 -482970.60 0M 11846179.49 49427957.70 m -241485.30 0 a 241485.30 241485.30 0 1 1 482970.60 0a 241485.30 241485.30 0 1 1 -482970.60 0M 12216277.94 46009291.00 L 12065905.00 46009291.00 L 12065905.00 45535591.00 L 12382125.00 45535591.00 L 12382125.00 46009291.00 L 12231752.06 46009291.00 L 12288395.00 46020558.00 A 168227.55 168227.55 0 1 1 12216277.94 46009291.00  zM 13084094.00 46909291.00 L 12767874.00 46909291.00 L 12767874.00 46701804.81 A 165878.55 165878.55 0 1 1 12755427.00 46635620.00 L 12767874.00 46698195.19 L 12767874.00 46435591.00 L 13084094.00 46435591.00 L 13084094.00 46909291.00  zM 13832125.00 46909291.00 L 13515905.00 46909291.00 L 13515905.00 46435591.00 L 13832125.00 46435591.00 L 13832125.00 46909291.00  zM 12200000.65 47599996.97 m -168236.03 0 a 168236.03 168236.03 0 1 1 336472.07 0a 168236.03 168236.03 0 1 1 -336472.07 0M 12900000.65 48249996.97 m -168236.03 0 a 168236.03 168236.03 0 1 1 336472.07 0a 168236.03 168236.03 0 1 1 -336472.07 0M 12346179.49 49427957.70 m -241485.30 0 a 241485.30 241485.30 0 1 1 482970.60 0a 241485.30 241485.30 0 1 1 -482970.60 0M 12846179.49 49427957.70 m -241485.30 0 a 241485.30 241485.30 0 1 1 482970.60 0a 241485.30 241485.30 0 1 1 -482970.60 0M 13346179.49 49427957.70 m -241485.30 0 a 241485.30 241485.30 0 1 1 482970.60 0a 241485.30 241485.30 0 1 1 -482970.60 0M 13846179.49 49427957.70 m -241485.30 0 a 241485.30 241485.30 0 1 1 482970.60 0a 241485.30 241485.30 0 1 1 -482970.60 0M 15364685.02 35843815.32 m -793825.68 0 a 793825.68 793825.68 0 1 1 1587651.37 0a 793825.68 793825.68 0 1 1 -1587651.37 0M 16073976.00 38324764.00 L 14655394.00 38324764.00 L 14655394.00 38088544.00 L 13848307.00 38088544.00 L 13848307.00 37713268.00 L 14655394.00 37713268.00 L 14655394.00 37517677.00 L 13848307.00 37517677.00 L 13848307.00 37142401.00 L 14655394.00 37142401.00 L 14655394.00 36906182.00 L 16073976.00 36906182.00 L 16073976.00 37142401.00 L 16881063.00 37142401.00 L 16881063.00 37517677.00 L 16073976.00 37517677.00 L 16073976.00 37713268.00 L 16881063.00 37713268.00 L 16881063.00 38088544.00 L 16073976.00 38088544.00 L 16073976.00 38324764.00  zM 17364687.71 35843809.13 m -437452.87 0 a 437452.87 437452.87 0 1 1 874905.73 0a 437452.87 437452.87 0 1 1 -874905.73 0M 18883031.00 35375945.00 L 17799095.00 35375945.00 L 17799095.00 34311693.00 L 18883031.00 34311693.00 L 18883031.00 35375945.00  zM 18000000.65 37349996.97 m -168236.03 0 a 168236.03 168236.03 0 1 1 336472.07 0a 168236.03 168236.03 0 1 1 -336472.07 0M 16500000.65 38399996.97 m -168236.03 0 a 168236.03 168236.03 0 1 1 336472.07 0a 168236.03 168236.03 0 1 1 -336472.07 0M 14364679.62 41293845.02 m -633575.98 0 a 633575.98 633575.98 0 1 1 1267151.97 0a 633575.98 633575.98 0 1 1 -1267151.97 0M 18852756.65 37652752.97 m -168236.03 0 a 168236.03 168236.03 0 1 1 336472.07 0a 168236.03 168236.03 0 1 1 -336472.07 0M 16864679.62 42293845.02 m -633575.98 0 a 633575.98 633575.98 0 1 1 1267151.97 0a 633575.98 633575.98 0 1 1 -1267151.97 0M 18883031.00 42825945.00 L 17799095.00 42825945.00 L 17799095.00 41761693.00 L 18883031.00 41761693.00 L 18883031.00 42825945.00  zM 19168740.00 36444724.00 L 18931260.00 36444724.00 L 18931260.00 36049764.00 L 19168740.00 36049764.00 L 19168740.00 36444724.00  zM 19168740.00 37350236.00 L 18931260.00 37350236.00 L 18931260.00 36955276.00 L 19168740.00 36955276.00 L 19168740.00 37350236.00  zM 20814687.71 35843809.13 m -437452.87 0 a 437452.87 437452.87 0 1 1 874905.73 0a 437452.87 437452.87 0 1 1 -874905.73 0M 22814685.02 35843815.32 m -793825.68 0 a 793825.68 793825.68 0 1 1 1587651.37 0a 793825.68 793825.68 0 1 1 -1587651.37 0M 23523976.00 38324764.00 L 22105394.00 38324764.00 L 22105394.00 38088544.00 L 21298307.00 38088544.00 L 21298307.00 37713268.00 L 22105394.00 37713268.00 L 22105394.00 37517677.00 L 21298307.00 37517677.00 L 21298307.00 37142401.00 L 22105394.00 37142401.00 L 22105394.00 36906182.00 L 23523976.00 36906182.00 L 23523976.00 37142401.00 L 24331063.00 37142401.00 L 24331063.00 37517677.00 L 23523976.00 37517677.00 L 23523976.00 37713268.00 L 24331063.00 37713268.00 L 24331063.00 38088544.00 L 23523976.00 38088544.00 L 23523976.00 38324764.00  zM 21050000.65 37899996.97 m -168236.03 0 a 168236.03 168236.03 0 1 1 336472.07 0a 168236.03 168236.03 0 1 1 -336472.07 0M 20880275.00 41825945.00 L 19796339.00 41825945.00 L 19796339.00 40761693.00 L 20880275.00 40761693.00 L 20880275.00 41825945.00  zM 23850000.65 38349996.97 m -168236.03 0 a 168236.03 168236.03 0 1 1 336472.07 0a 168236.03 168236.03 0 1 1 -336472.07 0M 21814679.62 41293845.02 m -633575.98 0 a 633575.98 633575.98 0 1 1 1267151.97 0a 633575.98 633575.98 0 1 1 -1267151.97 0M 15364685.02 43293815.32 m -793825.68 0 a 793825.68 793825.68 0 1 1 1587651.37 0a 793825.68 793825.68 0 1 1 -1587651.37 0M 16073976.00 45774764.00 L 14655394.00 45774764.00 L 14655394.00 45538544.00 L 13848307.00 45538544.00 L 13848307.00 45163268.00 L 14655394.00 45163268.00 L 14655394.00 44967677.00 L 13848307.00 44967677.00 L 13848307.00 44592401.00 L 14655394.00 44592401.00 L 14655394.00 44356182.00 L 16073976.00 44356182.00 L 16073976.00 44592401.00 L 16881063.00 44592401.00 L 16881063.00 44967677.00 L 16073976.00 44967677.00 L 16073976.00 45163268.00 L 16881063.00 45163268.00 L 16881063.00 45538544.00 L 16073976.00 45538544.00 L 16073976.00 45774764.00  zM 16550000.65 45749996.97 m -168236.03 0 a 168236.03 168236.03 0 1 1 336472.07 0a 168236.03 168236.03 0 1 1 -336472.07 0M 17364687.71 43293809.13 m -437452.87 0 a 437452.87 437452.87 0 1 1 874905.73 0a 437452.87 437452.87 0 1 1 -874905.73 0M 17508110.00 45964409.00 L 17191890.00 45964409.00 L 17191890.00 45490709.00 L 17508110.00 45490709.00 L 17508110.00 45964409.00  zM 17480039.65 44780035.97 m -168236.03 0 a 168236.03 168236.03 0 1 1 336472.07 0a 168236.03 168236.03 0 1 1 -336472.07 0M 18958110.00 45114409.00 L 18641890.00 45114409.00 L 18641890.00 44640709.00 L 18958110.00 44640709.00 L 18958110.00 45114409.00  zM 18852756.65 44052752.97 m -168236.03 0 a 168236.03 168236.03 0 1 1 336472.07 0a 168236.03 168236.03 0 1 1 -336472.07 0M 18584094.00 46059291.00 L 18267874.00 46059291.00 L 18267874.00 45585591.00 L 18584094.00 45585591.00 L 18584094.00 46059291.00  zM 19332125.00 46059291.00 L 19015905.00 46059291.00 L 19015905.00 45585591.00 L 19332125.00 45585591.00 L 19332125.00 46059291.00  zM 19418740.00 43344724.00 L 19181260.00 43344724.00 L 19181260.00 42949764.00 L 19418740.00 42949764.00 L 19418740.00 43344724.00  zM 19418740.00 44250236.00 L 19181260.00 44250236.00 L 19181260.00 43855276.00 L 19418740.00 43855276.00 L 19418740.00 44250236.00  zM 20408110.00 45114409.00 L 20091890.00 45114409.00 L 20091890.00 44640709.00 L 20408110.00 44640709.00 L 20408110.00 45114409.00  zM 20034094.00 46059291.00 L 19717874.00 46059291.00 L 19717874.00 45585591.00 L 20034094.00 45585591.00 L 20034094.00 46059291.00  zM 20782125.00 46059291.00 L 20465905.00 46059291.00 L 20465905.00 45585591.00 L 20782125.00 45585591.00 L 20782125.00 45735445.47 L 20803482.00 45703482.00 A 168236.03 168236.03 0 1 1 20803482.00 45941400.00 L 20782125.00 45909436.53 L 20782125.00 46059291.00  zM 20814687.71 43293809.13 m -437452.87 0 a 437452.87 437452.87 0 1 1 874905.73 0a 437452.87 437452.87 0 1 1 -874905.73 0M 21764016.65 45749996.97 m -168236.03 0 a 168236.03 168236.03 0 1 1 336472.07 0a 168236.03 168236.03 0 1 1 -336472.07 0M 22814685.02 43293815.32 m -793825.68 0 a 793825.68 793825.68 0 1 1 1587651.37 0a 793825.68 793825.68 0 1 1 -1587651.37 0M 23523976.00 45774764.00 L 22105394.00 45774764.00 L 22105394.00 45538544.00 L 21298307.00 45538544.00 L 21298307.00 45163268.00 L 22105394.00 45163268.00 L 22105394.00 44967677.00 L 21298307.00 44967677.00 L 21298307.00 44592401.00 L 22105394.00 44592401.00 L 22105394.00 44356182.00 L 23523976.00 44356182.00 L 23523976.00 44592401.00 L 24331063.00 44592401.00 L 24331063.00 44967677.00 L 23523976.00 44967677.00 L 23523976.00 45163268.00 L 24331063.00 45163268.00 L 24331063.00 45538544.00 L 23523976.00 45538544.00 L 23523976.00 45774764.00  zM 14346179.49 49427957.70 m -241485.30 0 a 241485.30 241485.30 0 1 1 482970.60 0a 241485.30 241485.30 0 1 1 -482970.60 0M 14846179.49 49427957.70 m -241485.30 0 a 241485.30 241485.30 0 1 1 482970.60 0a 241485.30 241485.30 0 1 1 -482970.60 0M 15346179.49 49427957.70 m -241485.30 0 a 241485.30 241485.30 0 1 1 482970.60 0a 241485.30 241485.30 0 1 1 -482970.60 0M 15846179.49 49427957.70 m -241485.30 0 a 241485.30 241485.30 0 1 1 482970.60 0a 241485.30 241485.30 0 1 1 -482970.60 0M 16346179.49 49427957.70 m -241485.30 0 a 241485.30 241485.30 0 1 1 482970.60 0a 241485.30 241485.30 0 1 1 -482970.60 0M 16500000.65 46699996.97 m -168236.03 0 a 168236.03 168236.03 0 1 1 336472.07 0a 168236.03 168236.03 0 1 1 -336472.07 0M 17134094.00 46909291.00 L 16817874.00 46909291.00 L 16817874.00 46435591.00 L 17134094.00 46435591.00 L 17134094.00 46909291.00  zM 16800000.65 47799996.97 m -168236.03 0 a 168236.03 168236.03 0 1 1 336472.07 0a 168236.03 168236.03 0 1 1 -336472.07 0M 16846179.49 49427957.70 m -241485.30 0 a 241485.30 241485.30 0 1 1 482970.60 0a 241485.30 241485.30 0 1 1 -482970.60 0M 17346179.49 49427957.70 m -241485.30 0 a 241485.30 241485.30 0 1 1 482970.60 0a 241485.30 241485.30 0 1 1 -482970.60 0M 17882125.00 46909291.00 L 17565905.00 46909291.00 L 17565905.00 46435591.00 L 17882125.00 46435591.00 L 17882125.00 46589297.85 L 17907075.00 46551957.00 A 168236.03 168236.03 0 1 1 17907075.00 46789875.00 L 17882125.00 46752534.15 L 17882125.00 46909291.00  zM 18425984.65 46274012.97 m -168236.03 0 a 168236.03 168236.03 0 1 1 336472.07 0a 168236.03 168236.03 0 1 1 -336472.07 0M 19800000.65 46949996.97 m -168236.03 0 a 168236.03 168236.03 0 1 1 336472.07 0a 168236.03 168236.03 0 1 1 -336472.07 0M 19800000.65 46299996.97 m -168236.03 0 a 168236.03 168236.03 0 1 1 336472.07 0a 168236.03 168236.03 0 1 1 -336472.07 0M 19800000.65 48249996.97 m -168236.03 0 a 168236.03 168236.03 0 1 1 336472.07 0a 168236.03 168236.03 0 1 1 -336472.07 0M 17846179.49 49427957.70 m -241485.30 0 a 241485.30 241485.30 0 1 1 482970.60 0a 241485.30 241485.30 0 1 1 -482970.60 0M 18346179.49 49427957.70 m -241485.30 0 a 241485.30 241485.30 0 1 1 482970.60 0a 241485.30 241485.30 0 1 1 -482970.60 0M 18846179.49 49427957.70 m -241485.30 0 a 241485.30 241485.30 0 1 1 482970.60 0a 241485.30 241485.30 0 1 1 -482970.60 0M 19346179.49 49427957.70 m -241485.30 0 a 241485.30 241485.30 0 1 1 482970.60 0a 241485.30 241485.30 0 1 1 -482970.60 0M 20400000.65 47699996.97 m -168236.03 0 a 168236.03 168236.03 0 1 1 336472.07 0a 168236.03 168236.03 0 1 1 -336472.07 0M 21450000.65 48749996.97 m -168236.03 0 a 168236.03 168236.03 0 1 1 336472.07 0a 168236.03 168236.03 0 1 1 -336472.07 0M 19846179.49 49427957.70 m -241485.30 0 a 241485.30 241485.30 0 1 1 482970.60 0a 241485.30 241485.30 0 1 1 -482970.60 0M 20346179.49 49427957.70 m -241485.30 0 a 241485.30 241485.30 0 1 1 482970.60 0a 241485.30 241485.30 0 1 1 -482970.60 0M 20846179.49 49427957.70 m -241485.30 0 a 241485.30 241485.30 0 1 1 482970.60 0a 241485.30 241485.30 0 1 1 -482970.60 0M 21682519.00 48567166.00 L 21326929.00 48567166.00 L 21326929.00 48132836.00 L 21682519.00 48132836.00 L 21682519.00 48567166.00  zM 21864409.00 49508110.00 L 21390709.00 49508110.00 L 21390709.00 49191890.00 L 21864409.00 49191890.00 L 21864409.00 49508110.00  zM 22273070.00 48567166.00 L 21917480.00 48567166.00 L 21917480.00 48132836.00 L 22273070.00 48132836.00 L 22273070.00 48567166.00  zM 22550000.65 48549996.97 m -168236.03 0 a 168236.03 168236.03 0 1 1 336472.07 0a 168236.03 168236.03 0 1 1 -336472.07 0M 24058110.00 46164409.00 L 23741890.00 46164409.00 L 23741890.00 45690709.00 L 24058110.00 45690709.00 L 24058110.00 46164409.00  zM 22977559.65 46872437.97 m -168236.03 0 a 168236.03 168236.03 0 1 1 336472.07 0a 168236.03 168236.03 0 1 1 -336472.07 0M 23684094.00 47109291.00 L 23367874.00 47109291.00 L 23367874.00 46635591.00 L 23684094.00 46635591.00 L 23684094.00 47109291.00  zM 23334095.00 49064409.00 L 23017875.00 49064409.00 L 23017875.00 48814677.44 L 23000000.00 48818233.00 A 168236.03 168236.03 0 1 1 23064380.00 48494573.00 L 23076930.00 48502958.52 L 23076930.00 48082834.00 L 23432520.00 48082834.00 L 23432520.00 48517164.00 L 23098190.30 48517164.00 L 23118959.00 48531041.00 L 23155427.00 48585620.00 L 23156439.27 48590709.00 L 23334095.00 48590709.00 L 23334095.00 49064409.00  zM 24023071.00 48517164.00 L 23667481.00 48517164.00 L 23667481.00 48082834.00 L 24023071.00 48082834.00 L 24023071.00 48517164.00  zM 22809291.00 49134095.00 L 22335591.00 49134095.00 L 22335591.00 48817875.00 L 22809291.00 48817875.00 L 22809291.00 49134095.00  zM 22809291.00 49882126.00 L 22335591.00 49882126.00 L 22335591.00 49565906.00 L 22809291.00 49565906.00 L 22809291.00 49882126.00  zM 24082126.00 49064409.00 L 23765906.00 49064409.00 L 23765906.00 48590709.00 L 24082126.00 48590709.00 L 24082126.00 49064409.00  zM 23708110.00 50009291.00 L 23391890.00 50009291.00 L 23391890.00 49535591.00 L 23708110.00 49535591.00 L 23708110.00 50009291.00  zM 24314679.62 34843845.02 m -633575.98 0 a 633575.98 633575.98 0 1 1 1267151.97 0a 633575.98 633575.98 0 1 1 -1267151.97 0M 24814687.71 35843809.13 m -437452.87 0 a 437452.87 437452.87 0 1 1 874905.73 0a 437452.87 437452.87 0 1 1 -874905.73 0M 26333031.00 35375945.00 L 25249095.00 35375945.00 L 25249095.00 34311693.00 L 26333031.00 34311693.00 L 26333031.00 35375945.00  zM 26618740.00 36394724.00 L 26381260.00 36394724.00 L 26381260.00 35999764.00 L 26618740.00 35999764.00 L 26618740.00 36394724.00  zM 26618740.00 37300236.00 L 26381260.00 37300236.00 L 26381260.00 36905276.00 L 26618740.00 36905276.00 L 26618740.00 37300236.00  zM 25381614.65 37318382.97 m -168236.03 0 a 168236.03 168236.03 0 1 1 336472.07 0a 168236.03 168236.03 0 1 1 -336472.07 0M 26500000.65 37749996.97 m -168236.03 0 a 168236.03 168236.03 0 1 1 336472.07 0a 168236.03 168236.03 0 1 1 -336472.07 0M 27500000.65 39499996.97 m -168236.03 0 a 168236.03 168236.03 0 1 1 336472.07 0a 168236.03 168236.03 0 1 1 -336472.07 0M 26333031.00 42825945.00 L 25249095.00 42825945.00 L 25249095.00 41761693.00 L 26333031.00 41761693.00 L 26333031.00 42825945.00  zM 26843819.65 41293815.97 m -168236.03 0 a 168236.03 168236.03 0 1 1 336472.07 0a 168236.03 168236.03 0 1 1 -336472.07 0M 28264687.71 35843809.13 m -437452.87 0 a 437452.87 437452.87 0 1 1 874905.73 0a 437452.87 437452.87 0 1 1 -874905.73 0M 30264685.02 35843815.32 m -793825.68 0 a 793825.68 793825.68 0 1 1 1587651.37 0a 793825.68 793825.68 0 1 1 -1587651.37 0M 30973976.00 38324764.00 L 29555394.00 38324764.00 L 29555394.00 38088544.00 L 28748307.00 38088544.00 L 28748307.00 37713268.00 L 29555394.00 37713268.00 L 29555394.00 37517677.00 L 28748307.00 37517677.00 L 28748307.00 37142401.00 L 29555394.00 37142401.00 L 29555394.00 36906182.00 L 30973976.00 36906182.00 L 30973976.00 37142401.00 L 31781063.00 37142401.00 L 31781063.00 37517677.00 L 30973976.00 37517677.00 L 30973976.00 37713268.00 L 31781063.00 37713268.00 L 31781063.00 38088544.00 L 30973976.00 38088544.00 L 30973976.00 38324764.00  zM 31764679.62 34843845.02 m -633575.98 0 a 633575.98 633575.98 0 1 1 1267151.97 0a 633575.98 633575.98 0 1 1 -1267151.97 0M 32264687.71 35843809.13 m -437452.87 0 a 437452.87 437452.87 0 1 1 874905.73 0a 437452.87 437452.87 0 1 1 -874905.73 0M 28400000.65 37899996.97 m -168236.03 0 a 168236.03 168236.03 0 1 1 336472.07 0a 168236.03 168236.03 0 1 1 -336472.07 0M 28330275.00 41825945.00 L 27246339.00 41825945.00 L 27246339.00 40761693.00 L 28330275.00 40761693.00 L 28330275.00 41825945.00  zM 31300000.65 38399996.97 m -168236.03 0 a 168236.03 168236.03 0 1 1 336472.07 0a 168236.03 168236.03 0 1 1 -336472.07 0M 29264679.62 41293845.02 m -633575.98 0 a 633575.98 633575.98 0 1 1 1267151.97 0a 633575.98 633575.98 0 1 1 -1267151.97 0M 24314679.62 42293845.02 m -633575.98 0 a 633575.98 633575.98 0 1 1 1267151.97 0a 633575.98 633575.98 0 1 1 -1267151.97 0M 24814687.71 43293809.13 m -437452.87 0 a 437452.87 437452.87 0 1 1 874905.73 0a 437452.87 437452.87 0 1 1 -874905.73 0M 24800000.65 44549996.97 m -168236.03 0 a 168236.03 168236.03 0 1 1 336472.07 0a 168236.03 168236.03 0 1 1 -336472.07 0M 24350000.65 45799996.97 m -168236.03 0 a 168236.03 168236.03 0 1 1 336472.07 0a 168236.03 168236.03 0 1 1 -336472.07 0M 25508110.00 45164409.00 L 25191890.00 45164409.00 L 25191890.00 44690709.00 L 25508110.00 44690709.00 L 25508110.00 45164409.00  zM 26868740.00 43344724.00 L 26631260.00 43344724.00 L 26631260.00 42949764.00 L 26868740.00 42949764.00 L 26868740.00 43344724.00  zM 26200000.65 44049996.97 m -168236.03 0 a 168236.03 168236.03 0 1 1 336472.07 0a 168236.03 168236.03 0 1 1 -336472.07 0M 26868740.00 44250236.00 L 26631260.00 44250236.00 L 26631260.00 43855276.00 L 26868740.00 43855276.00 L 26868740.00 44250236.00  zM 27008110.00 45164409.00 L 26691890.00 45164409.00 L 26691890.00 44690709.00 L 27008110.00 44690709.00 L 27008110.00 45164409.00  zM 27900000.65 44349996.97 m -168236.03 0 a 168236.03 168236.03 0 1 1 336472.07 0a 168236.03 168236.03 0 1 1 -336472.07 0M 28264687.71 43293809.13 m -437452.87 0 a 437452.87 437452.87 0 1 1 874905.73 0a 437452.87 437452.87 0 1 1 -874905.73 0M 27922441.65 45627555.97 m -168236.03 0 a 168236.03 168236.03 0 1 1 336472.07 0a 168236.03 168236.03 0 1 1 -336472.07 0M 30264685.02 43293815.32 m -793825.68 0 a 793825.68 793825.68 0 1 1 1587651.37 0a 793825.68 793825.68 0 1 1 -1587651.37 0M 28408110.00 45864409.00 L 28091890.00 45864409.00 L 28091890.00 45390709.00 L 28408110.00 45390709.00 L 28408110.00 45864409.00  zM 29182008.65 45832004.97 m -168236.03 0 a 168236.03 168236.03 0 1 1 336472.07 0a 168236.03 168236.03 0 1 1 -336472.07 0M 31764679.62 42293845.02 m -633575.98 0 a 633575.98 633575.98 0 1 1 1267151.97 0a 633575.98 633575.98 0 1 1 -1267151.97 0M 32264687.71 43293809.13 m -437452.87 0 a 437452.87 437452.87 0 1 1 874905.73 0a 437452.87 437452.87 0 1 1 -874905.73 0M 30973976.00 45774764.00 L 29555394.00 45774764.00 L 29555394.00 45538544.00 L 28748307.00 45538544.00 L 28748307.00 45163268.00 L 29555394.00 45163268.00 L 29555394.00 44967677.00 L 28748307.00 44967677.00 L 28748307.00 44592401.00 L 29555394.00 44592401.00 L 29555394.00 44356182.00 L 30973976.00 44356182.00 L 30973976.00 44592401.00 L 31781063.00 44592401.00 L 31781063.00 44967677.00 L 30973976.00 44967677.00 L 30973976.00 45163268.00 L 31781063.00 45163268.00 L 31781063.00 45538544.00 L 30973976.00 45538544.00 L 30973976.00 45774764.00  zM 31968740.65 45049996.97 m -168236.03 0 a 168236.03 168236.03 0 1 1 336472.07 0a 168236.03 168236.03 0 1 1 -336472.07 0M 25134094.00 46109291.00 L 24817874.00 46109291.00 L 24817874.00 45635591.00 L 25134094.00 45635591.00 L 25134094.00 46109291.00  zM 24975984.65 46324012.97 m -168236.03 0 a 168236.03 168236.03 0 1 1 336472.07 0a 168236.03 168236.03 0 1 1 -336472.07 0M 25630620.00 46118588.00 L 25677359.10 46109291.00 L 25565905.00 46109291.00 L 25565905.00 45635591.00 L 25882125.00 45635591.00 L 25882125.00 46109291.00 L 25712640.90 46109291.00 L 25759380.00 46118588.00 A 168227.55 168227.55 0 1 1 25630620.00 46118588.00  zM 24432125.00 47109291.00 L 24115905.00 47109291.00 L 24115905.00 46635591.00 L 24432125.00 46635591.00 L 24432125.00 47109291.00  zM 25695000.65 47799996.97 m -168236.03 0 a 168236.03 168236.03 0 1 1 336472.07 0a 168236.03 168236.03 0 1 1 -336472.07 0M 26634094.00 46109291.00 L 26317874.00 46109291.00 L 26317874.00 45635591.00 L 26634094.00 45635591.00 L 26634094.00 46109291.00  zM 27382125.00 46109291.00 L 27065905.00 46109291.00 L 27065905.00 45635591.00 L 27382125.00 45635591.00 L 27382125.00 46109291.00  zM 27250000.65 46299996.97 m -168236.03 0 a 168236.03 168236.03 0 1 1 336472.07 0a 168236.03 168236.03 0 1 1 -336472.07 0M 26485000.65 46375980.97 m -168236.03 0 a 168236.03 168236.03 0 1 1 336472.07 0a 168236.03 168236.03 0 1 1 -336472.07 0M 27250000.65 47699996.97 m -168236.03 0 a 168236.03 168236.03 0 1 1 336472.07 0a 168236.03 168236.03 0 1 1 -336472.07 0M 24703779.00 48636850.00 L 24348189.00 48636850.00 L 24348189.00 48163150.00 L 24703779.00 48163150.00 L 24703779.00 48636850.00  zM 25648661.00 48302204.00 L 25253701.00 48302204.00 L 25253701.00 47985984.00 L 25648661.00 47985984.00 L 25648661.00 48302204.00  zM 25648661.00 48814016.00 L 25253701.00 48814016.00 L 25253701.00 48497796.00 L 25648661.00 48497796.00 L 25648661.00 48814016.00  zM 24783187.49 49427957.70 m -241485.30 0 a 241485.30 241485.30 0 1 1 482970.60 0a 241485.30 241485.30 0 1 1 -482970.60 0M 25283187.49 49427957.70 m -241485.30 0 a 241485.30 241485.30 0 1 1 482970.60 0a 241485.30 241485.30 0 1 1 -482970.60 0M 25783187.49 49427957.70 m -241485.30 0 a 241485.30 241485.30 0 1 1 482970.60 0a 241485.30 241485.30 0 1 1 -482970.60 0M 26283187.49 49427957.70 m -241485.30 0 a 241485.30 241485.30 0 1 1 482970.60 0a 241485.30 241485.30 0 1 1 -482970.60 0M 26783187.49 49427957.70 m -241485.30 0 a 241485.30 241485.30 0 1 1 482970.60 0a 241485.30 241485.30 0 1 1 -482970.60 0M 27283187.49 49427957.70 m -241485.30 0 a 241485.30 241485.30 0 1 1 482970.60 0a 241485.30 241485.30 0 1 1 -482970.60 0M 27811604.00 46818589.00 L 27858348.12 46809291.00 L 27717874.00 46809291.00 L 27717874.00 46335591.00 L 28034094.00 46335591.00 L 28034094.00 46809291.00 L 27893619.88 46809291.00 L 27940364.00 46818589.00 A 168227.55 168227.55 0 1 1 27811604.00 46818589.00  zM 28782125.00 46809291.00 L 28465905.00 46809291.00 L 28465905.00 46335591.00 L 28782125.00 46335591.00 L 28782125.00 46809291.00  zM 28972441.65 46572437.97 m -168236.03 0 a 168236.03 168236.03 0 1 1 336472.07 0a 168236.03 168236.03 0 1 1 -336472.07 0M 28392139.65 46963407.97 m -168236.03 0 a 168236.03 168236.03 0 1 1 336472.07 0a 168236.03 168236.03 0 1 1 -336472.07 0M 28972441.65 48472437.97 m -168236.03 0 a 168236.03 168236.03 0 1 1 336472.07 0a 168236.03 168236.03 0 1 1 -336472.07 0M 27783187.49 49427957.70 m -241485.30 0 a 241485.30 241485.30 0 1 1 482970.60 0a 241485.30 241485.30 0 1 1 -482970.60 0M 28283187.49 49427957.70 m -241485.30 0 a 241485.30 241485.30 0 1 1 482970.60 0a 241485.30 241485.30 0 1 1 -482970.60 0M 28783187.49 49427957.70 m -241485.30 0 a 241485.30 241485.30 0 1 1 482970.60 0a 241485.30 241485.30 0 1 1 -482970.60 0M 29283187.49 49427957.70 m -241485.30 0 a 241485.30 241485.30 0 1 1 482970.60 0a 241485.30 241485.30 0 1 1 -482970.60 0M 30300000.65 45999406.97 m -168236.03 0 a 168236.03 168236.03 0 1 1 336472.07 0a 168236.03 168236.03 0 1 1 -336472.07 0M 31508110.00 46164409.00 L 31191890.00 46164409.00 L 31191890.00 45690709.00 L 31508110.00 45690709.00 L 31508110.00 46164409.00  zM 31134094.00 47109291.00 L 30817874.00 47109291.00 L 30817874.00 46635591.00 L 31134094.00 46635591.00 L 31134094.00 47109291.00  zM 31882125.00 47109291.00 L 31565905.00 47109291.00 L 31565905.00 46635591.00 L 31882125.00 46635591.00 L 31882125.00 47109291.00  zM 29783187.49 49427957.70 m -241485.30 0 a 241485.30 241485.30 0 1 1 482970.60 0a 241485.30 241485.30 0 1 1 -482970.60 0M 30283187.49 49427957.70 m -241485.30 0 a 241485.30 241485.30 0 1 1 482970.60 0a 241485.30 241485.30 0 1 1 -482970.60 0M 30783187.49 49427957.70 m -241485.30 0 a 241485.30 241485.30 0 1 1 482970.60 0a 241485.30 241485.30 0 1 1 -482970.60 0M 31283187.49 49427957.70 m -241485.30 0 a 241485.30 241485.30 0 1 1 482970.60 0a 241485.30 241485.30 0 1 1 -482970.60 0M 31783187.49 49427957.70 m -241485.30 0 a 241485.30 241485.30 0 1 1 482970.60 0a 241485.30 241485.30 0 1 1 -482970.60 0M 33783031.00 35375945.00 L 32699095.00 35375945.00 L 32699095.00 34311693.00 L 33783031.00 34311693.00 L 33783031.00 35375945.00  zM 34068740.00 36344724.00 L 33831260.00 36344724.00 L 33831260.00 35949764.00 L 34068740.00 35949764.00 L 34068740.00 36344724.00  zM 34068740.00 37250236.00 L 33831260.00 37250236.00 L 33831260.00 36855276.00 L 34068740.00 36855276.00 L 34068740.00 37250236.00  zM 32950000.65 37299996.97 m -168236.03 0 a 168236.03 168236.03 0 1 1 336472.07 0a 168236.03 168236.03 0 1 1 -336472.07 0M 33650000.65 37599996.97 m -168236.03 0 a 168236.03 168236.03 0 1 1 336472.07 0a 168236.03 168236.03 0 1 1 -336472.07 0M 35714687.71 35843809.13 m -437452.87 0 a 437452.87 437452.87 0 1 1 874905.73 0a 437452.87 437452.87 0 1 1 -874905.73 0M 35950000.65 37899996.97 m -168236.03 0 a 168236.03 168236.03 0 1 1 336472.07 0a 168236.03 168236.03 0 1 1 -336472.07 0M 38423976.00 38324764.00 L 37005394.00 38324764.00 L 37005394.00 38088544.00 L 36198307.00 38088544.00 L 36198307.00 37713268.00 L 37005394.00 37713268.00 L 37005394.00 37517677.00 L 36198307.00 37517677.00 L 36198307.00 37142401.00 L 37005394.00 37142401.00 L 37005394.00 36906182.00 L 38423976.00 36906182.00 L 38423976.00 37142401.00 L 39231063.00 37142401.00 L 39231063.00 37517677.00 L 38423976.00 37517677.00 L 38423976.00 37713268.00 L 39231063.00 37713268.00 L 39231063.00 38088544.00 L 38423976.00 38088544.00 L 38423976.00 38324764.00  zM 36364409.00 39708110.00 L 35890709.00 39708110.00 L 35890709.00 39391890.00 L 36364409.00 39391890.00 L 36364409.00 39708110.00  zM 37309291.00 39334095.00 L 36835591.00 39334095.00 L 36835591.00 39017875.00 L 37309291.00 39017875.00 L 37309291.00 39334095.00  zM 37714685.02 35843815.32 m -793825.68 0 a 793825.68 793825.68 0 1 1 1587651.37 0a 793825.68 793825.68 0 1 1 -1587651.37 0M 39714687.71 35843809.13 m -437452.87 0 a 437452.87 437452.87 0 1 1 874905.73 0a 437452.87 437452.87 0 1 1 -874905.73 0M 41233031.00 35375945.00 L 40149095.00 35375945.00 L 40149095.00 34311693.00 L 41233031.00 34311693.00 L 41233031.00 35375945.00  zM 40818740.00 36444724.00 L 40581260.00 36444724.00 L 40581260.00 36049764.00 L 40818740.00 36049764.00 L 40818740.00 36444724.00  zM 40818740.00 37350236.00 L 40581260.00 37350236.00 L 40581260.00 36955276.00 L 40818740.00 36955276.00 L 40818740.00 37350236.00  zM 39550000.65 37349996.97 m -168236.03 0 a 168236.03 168236.03 0 1 1 336472.07 0a 168236.03 168236.03 0 1 1 -336472.07 0M 38750000.65 38349996.97 m -168236.03 0 a 168236.03 168236.03 0 1 1 336472.07 0a 168236.03 168236.03 0 1 1 -336472.07 0M 41600000.65 37299996.97 m -168236.03 0 a 168236.03 168236.03 0 1 1 336472.07 0a 168236.03 168236.03 0 1 1 -336472.07 0M 40849994.62 39300026.02 m -633575.98 0 a 633575.98 633575.98 0 1 1 1267151.97 0a 633575.98 633575.98 0 1 1 -1267151.97 0M 34950000.65 40499996.97 m -168236.03 0 a 168236.03 168236.03 0 1 1 336472.07 0a 168236.03 168236.03 0 1 1 -336472.07 0M 33783031.00 42825945.00 L 32699095.00 42825945.00 L 32699095.00 41761693.00 L 33783031.00 41761693.00 L 33783031.00 42825945.00  zM 34318740.00 43294724.00 L 34081260.00 43294724.00 L 34081260.00 42899764.00 L 34318740.00 42899764.00 L 34318740.00 43294724.00  zM 35780275.00 41825945.00 L 34696339.00 41825945.00 L 34696339.00 40761693.00 L 35780275.00 40761693.00 L 35780275.00 41825945.00  zM 36714679.62 41293845.02 m -633575.98 0 a 633575.98 633575.98 0 1 1 1267151.97 0a 633575.98 633575.98 0 1 1 -1267151.97 0M 32958110.00 45064409.00 L 32641890.00 45064409.00 L 32641890.00 44590709.00 L 32958110.00 44590709.00 L 32958110.00 45064409.00  zM 33700000.65 44499996.97 m -168236.03 0 a 168236.03 168236.03 0 1 1 336472.07 0a 168236.03 168236.03 0 1 1 -336472.07 0M 34318740.00 44200236.00 L 34081260.00 44200236.00 L 34081260.00 43805276.00 L 34318740.00 43805276.00 L 34318740.00 44200236.00  zM 35714687.71 43293809.13 m -437452.87 0 a 437452.87 437452.87 0 1 1 874905.73 0a 437452.87 437452.87 0 1 1 -874905.73 0M 34458110.00 45064409.00 L 34141890.00 45064409.00 L 34141890.00 44590709.00 L 34458110.00 44590709.00 L 34458110.00 45064409.00  zM 37309291.00 40082126.00 L 36835591.00 40082126.00 L 36835591.00 39765906.00 L 37309291.00 39765906.00 L 37309291.00 40082126.00  zM 39214679.62 42293845.02 m -633575.98 0 a 633575.98 633575.98 0 1 1 1267151.97 0a 633575.98 633575.98 0 1 1 -1267151.97 0M 37714685.02 43293815.32 m -793825.68 0 a 793825.68 793825.68 0 1 1 1587651.37 0a 793825.68 793825.68 0 1 1 -1587651.37 0M 41233031.00 42825945.00 L 40149095.00 42825945.00 L 40149095.00 41761693.00 L 41233031.00 41761693.00 L 41233031.00 42825945.00  zM 39714687.71 43293809.13 m -437452.87 0 a 437452.87 437452.87 0 1 1 874905.73 0a 437452.87 437452.87 0 1 1 -874905.73 0M 38835000.65 44302634.97 m -168236.03 0 a 168236.03 168236.03 0 1 1 336472.07 0a 168236.03 168236.03 0 1 1 -336472.07 0M 40650000.65 44949996.97 m -168236.03 0 a 168236.03 168236.03 0 1 1 336472.07 0a 168236.03 168236.03 0 1 1 -336472.07 0M 40868740.00 43544724.00 L 40631260.00 43544724.00 L 40631260.00 43149764.00 L 40868740.00 43149764.00 L 40868740.00 43544724.00  zM 40868740.00 44450236.00 L 40631260.00 44450236.00 L 40631260.00 44055276.00 L 40868740.00 44055276.00 L 40868740.00 44450236.00  zM 32584094.00 46009291.00 L 32267874.00 46009291.00 L 32267874.00 45535591.00 L 32584094.00 45535591.00 L 32584094.00 46009291.00  zM 32400000.65 46299996.97 m -168236.03 0 a 168236.03 168236.03 0 1 1 336472.07 0a 168236.03 168236.03 0 1 1 -336472.07 0M 33150000.65 46199996.97 m -168236.03 0 a 168236.03 168236.03 0 1 1 336472.07 0a 168236.03 168236.03 0 1 1 -336472.07 0M 32750000.65 46849996.97 m -168236.03 0 a 168236.03 168236.03 0 1 1 336472.07 0a 168236.03 168236.03 0 1 1 -336472.07 0M 33150000.65 47699996.97 m -168236.03 0 a 168236.03 168236.03 0 1 1 336472.07 0a 168236.03 168236.03 0 1 1 -336472.07 0M 33332125.00 46009291.00 L 33015905.00 46009291.00 L 33015905.00 45535591.00 L 33332125.00 45535591.00 L 33332125.00 46009291.00  zM 34084094.00 46009291.00 L 33767874.00 46009291.00 L 33767874.00 45535591.00 L 34084094.00 45535591.00 L 34084094.00 46009291.00  zM 34832125.00 46009291.00 L 34515905.00 46009291.00 L 34515905.00 45535591.00 L 34832125.00 45535591.00 L 34832125.00 46009291.00  zM 35250000.65 45799996.97 m -168236.03 0 a 168236.03 168236.03 0 1 1 336472.07 0a 168236.03 168236.03 0 1 1 -336472.07 0M 35000000.65 47999996.97 m -168236.03 0 a 168236.03 168236.03 0 1 1 336472.07 0a 168236.03 168236.03 0 1 1 -336472.07 0M 32283187.49 49427957.70 m -241485.30 0 a 241485.30 241485.30 0 1 1 482970.60 0a 241485.30 241485.30 0 1 1 -482970.60 0M 32783187.49 49427957.70 m -241485.30 0 a 241485.30 241485.30 0 1 1 482970.60 0a 241485.30 241485.30 0 1 1 -482970.60 0M 33283187.49 49427957.70 m -241485.30 0 a 241485.30 241485.30 0 1 1 482970.60 0a 241485.30 241485.30 0 1 1 -482970.60 0M 33783187.49 49427957.70 m -241485.30 0 a 241485.30 241485.30 0 1 1 482970.60 0a 241485.30 241485.30 0 1 1 -482970.60 0M 34283187.49 49427957.70 m -241485.30 0 a 241485.30 241485.30 0 1 1 482970.60 0a 241485.30 241485.30 0 1 1 -482970.60 0M 35834095.00 48241968.00 L 35517875.00 48241968.00 L 35517875.00 47768268.00 L 35834095.00 47768268.00 L 35834095.00 48241968.00  zM 35460079.00 49186850.00 L 35143859.00 49186850.00 L 35143859.00 48713150.00 L 35460079.00 48713150.00 L 35460079.00 49186850.00  zM 35500000.65 49999996.97 m -168236.03 0 a 168236.03 168236.03 0 1 1 336472.07 0a 168236.03 168236.03 0 1 1 -336472.07 0M 36082519.00 50017166.00 L 35726929.00 50017166.00 L 35726929.00 49582836.00 L 36082519.00 49582836.00 L 36082519.00 50017166.00  zM 36300000.65 45749996.97 m -168236.03 0 a 168236.03 168236.03 0 1 1 336472.07 0a 168236.03 168236.03 0 1 1 -336472.07 0M 38423976.00 45774764.00 L 37005394.00 45774764.00 L 37005394.00 45538544.00 L 36198307.00 45538544.00 L 36198307.00 45163268.00 L 37005394.00 45163268.00 L 37005394.00 44967677.00 L 36198307.00 44967677.00 L 36198307.00 44592401.00 L 37005394.00 44592401.00 L 37005394.00 44356182.00 L 38423976.00 44356182.00 L 38423976.00 44592401.00 L 39231063.00 44592401.00 L 39231063.00 44967677.00 L 38423976.00 44967677.00 L 38423976.00 45163268.00 L 39231063.00 45163268.00 L 39231063.00 45538544.00 L 38423976.00 45538544.00 L 38423976.00 45774764.00  zM 37800000.65 46649996.97 m -168236.03 0 a 168236.03 168236.03 0 1 1 336472.07 0a 168236.03 168236.03 0 1 1 -336472.07 0M 38200000.65 46049996.97 m -168236.03 0 a 168236.03 168236.03 0 1 1 336472.07 0a 168236.03 168236.03 0 1 1 -336472.07 0M 38908110.00 46114409.00 L 38591890.00 46114409.00 L 38591890.00 45640709.00 L 38908110.00 45640709.00 L 38908110.00 46114409.00  zM 37032520.00 47567164.00 L 36676930.00 47567164.00 L 36676930.00 47132834.00 L 37032520.00 47132834.00 L 37032520.00 47567164.00  zM 37623071.00 47567164.00 L 37267481.00 47567164.00 L 37267481.00 47132834.00 L 37623071.00 47132834.00 L 37623071.00 47567164.00  zM 38534094.00 47059291.00 L 38217874.00 47059291.00 L 38217874.00 46585591.00 L 38534094.00 46585591.00 L 38534094.00 47059291.00  zM 39282125.00 47059291.00 L 38965905.00 47059291.00 L 38965905.00 46585591.00 L 39282125.00 46585591.00 L 39282125.00 47059291.00  zM 36934095.00 48241968.00 L 36617875.00 48241968.00 L 36617875.00 47768268.00 L 36934095.00 47768268.00 L 36934095.00 48241968.00  zM 36208110.00 49186850.00 L 35891890.00 49186850.00 L 35891890.00 48713150.00 L 36208110.00 48713150.00 L 36208110.00 49186850.00  zM 37682126.00 48241968.00 L 37365906.00 48241968.00 L 37365906.00 47768268.00 L 37682126.00 47768268.00 L 37682126.00 48241968.00  zM 37308110.00 49186850.00 L 36991890.00 49186850.00 L 36991890.00 48713150.00 L 37308110.00 48713150.00 L 37308110.00 49186850.00  zM 36673070.00 50017166.00 L 36317480.00 50017166.00 L 36317480.00 49582836.00 L 36673070.00 49582836.00 L 36673070.00 50017166.00  zM 38446299.00 48252204.00 L 38051339.00 48252204.00 L 38051339.00 47935984.00 L 38446299.00 47935984.00 L 38446299.00 48252204.00  zM 38446299.00 48764016.00 L 38051339.00 48764016.00 L 38051339.00 48447796.00 L 38446299.00 48447796.00 L 38446299.00 48764016.00  zM 39351811.00 48586850.00 L 38996221.00 48586850.00 L 38996221.00 48113150.00 L 39351811.00 48113150.00 L 39351811.00 48586850.00  zM 39174016.65 48975980.97 m -168236.03 0 a 168236.03 168236.03 0 1 1 336472.07 0a 168236.03 168236.03 0 1 1 -336472.07 0"/>
</g>
</svg>
