<svg width="98.00000212mm" height="121.9224003mm" viewBox="0 0 38582678 48000945"  version="1.1" xmlns="http://www.w3.org/2000/svg" xmlns:xlink="http://www.w3.org/1999/xlink">
<desc>
Origin 0 0 Bound 3523346 2312835 38582678 48000945
</desc>
<g fill-rule="evenodd" fill="rgb(128, 0, 128)" stroke="black" stroke-width="1" transform="translate(0, 48000945) scale(1, -1) translate(-3523346, -2312835)">
<path id="N" d="M 39530860.00 47541548.00 L 39535599.00 47445075.00 A 984241.79 984241.79 0 0 1 39819141.00 46845578.00 L 41886289.00 44778427.00 A 989019.94 989019.94 0 0 0 42106022.00 44247943.00 L 42106023.00 26627905.00 A 989002.09 989002.09 0 0 0 41886289.00 26097422.00 L 41224492.00 25435625.00 L 41159627.00 25364057.00 A 984258.44 984258.44 0 0 1 40936212.00 24739653.00 L 40936212.00 24707038.00 L 40940951.00 24610565.00 A 984241.79 984241.79 0 0 1 41224493.00 24011068.00 L 41886289.00 23349270.00 A 989019.94 989019.94 0 0 0 42106022.00 22818786.00 L 42106023.00 5198747.00 A 989002.09 989002.09 0 0 0 41886289.00 4668264.00 L 39750592.00 2532568.00 A 989019.94 989019.94 0 0 0 39220108.00 2312835.00 L 6409259.00 2312834.00 A 989027.99 989027.99 0 0 0 5878776.00 2532568.00 L 3743079.00 4668264.00 A 989019.94 989019.94 0 0 0 3523346.00 5198748.00 L 3523346.00 21983622.00 A 989014.36 989014.36 0 0 0 3743079.00 22514106.00 L 4995427.00 23766453.00 L 5060292.00 23838022.00 A 984241.93 984241.93 0 0 1 5283709.00 24462425.00 L 5283708.00 24984269.00 L 5278968.00 25080742.00 A 984241.79 984241.79 0 0 1 4995428.00 25680240.00 L 3743079.00 26932587.00 A 989019.94 989019.94 0 0 0 3523346.00 27463071.00 L 3523346.00 44247943.00 A 989014.36 989014.36 0 0 0 3743079.00 44778427.00 L 5810229.00 46845578.00 L 5875094.00 46917146.00 A 984241.09 984241.09 0 0 1 6098510.00 47541549.00 L 6098510.00 50313780.00 L 39530860.00 50313780.00 L 39530860.00 47541548.00  zM 6914679.62 4043845.02 m -633575.98 0 a 633575.98 633575.98 0 1 1 1267151.97 0a 633575.98 633575.98 0 1 1 -1267151.97 0M 5914687.71 6043809.13 m -437452.87 0 a 437452.87 437452.87 0 1 1 874905.73 0a 437452.87 437452.87 0 1 1 -874905.73 0M 7914685.02 6043815.32 m -793825.68 0 a 793825.68 793825.68 0 1 1 1587651.37 0a 793825.68 793825.68 0 1 1 -1587651.37 0M 9414679.62 5043845.02 m -633575.98 0 a 633575.98 633575.98 0 1 1 1267151.97 0a 633575.98 633575.98 0 1 1 -1267151.97 0M 9914687.71 6043809.13 m -437452.87 0 a 437452.87 437452.87 0 1 1 874905.73 0a 437452.87 437452.87 0 1 1 -874905.73 0M 9600000.65 7549996.97 m -168236.03 0 a 168236.03 168236.03 0 1 1 336472.07 0a 168236.03 168236.03 0 1 1 -336472.07 0M 11250000.65 7549996.97 m -168236.03 0 a 168236.03 168236.03 0 1 1 336472.07 0a 168236.03 168236.03 0 1 1 -336472.07 0M 6000000.65 8099996.97 m -168236.03 0 a 168236.03 168236.03 0 1 1 336472.07 0a 168236.03 168236.03 0 1 1 -336472.07 0M 4699994.62 9650026.02 m -633575.98 0 a 633575.98 633575.98 0 1 1 1267151.97 0a 633575.98 633575.98 0 1 1 -1267151.97 0M 6914679.62 11493845.02 m -633575.98 0 a 633575.98 633575.98 0 1 1 1267151.97 0a 633575.98 633575.98 0 1 1 -1267151.97 0M 8623976.00 8524764.00 L 7205394.00 8524764.00 L 7205394.00 7106182.00 L 8623976.00 7106182.00 L 8623976.00 8524764.00  zM 10650000.65 8099996.97 m -168236.03 0 a 168236.03 168236.03 0 1 1 336472.07 0a 168236.03 168236.03 0 1 1 -336472.07 0M 9414679.62 12493845.02 m -633575.98 0 a 633575.98 633575.98 0 1 1 1267151.97 0a 633575.98 633575.98 0 1 1 -1267151.97 0M 5914687.71 13493809.13 m -437452.87 0 a 437452.87 437452.87 0 1 1 874905.73 0a 437452.87 437452.87 0 1 1 -874905.73 0M 7914685.02 13493815.32 m -793825.68 0 a 793825.68 793825.68 0 1 1 1587651.37 0a 793825.68 793825.68 0 1 1 -1587651.37 0M 8623976.00 15974764.00 L 7205394.00 15974764.00 L 7205394.00 14556182.00 L 8623976.00 14556182.00 L 8623976.00 15974764.00  zM 5200000.65 15549996.97 m -168236.03 0 a 168236.03 168236.03 0 1 1 336472.07 0a 168236.03 168236.03 0 1 1 -336472.07 0M 5700001.63 17149994.96 m -292507.04 0 a 292507.04 292507.04 0 1 1 585014.09 0a 292507.04 292507.04 0 1 1 -585014.09 0M 6914679.62 18943845.02 m -633575.98 0 a 633575.98 633575.98 0 1 1 1267151.97 0a 633575.98 633575.98 0 1 1 -1267151.97 0M 9914687.71 13493809.13 m -437452.87 0 a 437452.87 437452.87 0 1 1 874905.73 0a 437452.87 437452.87 0 1 1 -874905.73 0M 9600000.65 14999996.97 m -168236.03 0 a 168236.03 168236.03 0 1 1 336472.07 0a 168236.03 168236.03 0 1 1 -336472.07 0M 10650000.65 15549996.97 m -168236.03 0 a 168236.03 168236.03 0 1 1 336472.07 0a 168236.03 168236.03 0 1 1 -336472.07 0M 12350000.65 12799996.97 m -168236.03 0 a 168236.03 168236.03 0 1 1 336472.07 0a 168236.03 168236.03 0 1 1 -336472.07 0M 11250000.65 15049996.97 m -168236.03 0 a 168236.03 168236.03 0 1 1 336472.07 0a 168236.03 168236.03 0 1 1 -336472.07 0M 13300000.65 15549996.97 m -168236.03 0 a 168236.03 168236.03 0 1 1 336472.07 0a 168236.03 168236.03 0 1 1 -336472.07 0M 14389685.77 3293814.85 m -643101.15 0 a 643101.15 643101.15 0 1 1 1286202.30 0a 643101.15 643101.15 0 1 1 -1286202.30 0M 13850000.65 4449996.97 m -168236.03 0 a 168236.03 168236.03 0 1 1 336472.07 0a 168236.03 168236.03 0 1 1 -336472.07 0M 18089679.62 4043845.02 m -633575.98 0 a 633575.98 633575.98 0 1 1 1267151.97 0a 633575.98 633575.98 0 1 1 -1267151.97 0M 17089687.71 6043809.13 m -437452.87 0 a 437452.87 437452.87 0 1 1 874905.73 0a 437452.87 437452.87 0 1 1 -874905.73 0M 14800001.63 6899994.96 m -292507.04 0 a 292507.04 292507.04 0 1 1 585014.09 0a 292507.04 292507.04 0 1 1 -585014.09 0M 14389688.97 9293798.44 m -829051.56 0 a 829051.56 829051.56 0 1 1 1658103.12 0a 829051.56 829051.56 0 1 1 -1658103.12 0M 18000000.65 8599996.97 m -168236.03 0 a 168236.03 168236.03 0 1 1 336472.07 0a 168236.03 168236.03 0 1 1 -336472.07 0M 19089685.02 6043815.32 m -793825.68 0 a 793825.68 793825.68 0 1 1 1587651.37 0a 793825.68 793825.68 0 1 1 -1587651.37 0M 20589679.62 5043845.02 m -633575.98 0 a 633575.98 633575.98 0 1 1 1267151.97 0a 633575.98 633575.98 0 1 1 -1267151.97 0M 21089687.71 6043809.13 m -437452.87 0 a 437452.87 437452.87 0 1 1 874905.73 0a 437452.87 437452.87 0 1 1 -874905.73 0M 19798976.00 8524764.00 L 18380394.00 8524764.00 L 18380394.00 7106182.00 L 19798976.00 7106182.00 L 19798976.00 8524764.00  zM 20200000.65 8549996.97 m -168236.03 0 a 168236.03 168236.03 0 1 1 336472.07 0a 168236.03 168236.03 0 1 1 -336472.07 0M 20900000.65 7549996.97 m -168236.03 0 a 168236.03 168236.03 0 1 1 336472.07 0a 168236.03 168236.03 0 1 1 -336472.07 0M 14364679.62 11493845.02 m -633575.98 0 a 633575.98 633575.98 0 1 1 1267151.97 0a 633575.98 633575.98 0 1 1 -1267151.97 0M 13364687.71 13493809.13 m -437452.87 0 a 437452.87 437452.87 0 1 1 874905.73 0a 437452.87 437452.87 0 1 1 -874905.73 0M 16864679.62 12493845.02 m -633575.98 0 a 633575.98 633575.98 0 1 1 1267151.97 0a 633575.98 633575.98 0 1 1 -1267151.97 0M 15364685.02 13493815.32 m -793825.68 0 a 793825.68 793825.68 0 1 1 1587651.37 0a 793825.68 793825.68 0 1 1 -1587651.37 0M 16073976.00 15974764.00 L 14655394.00 15974764.00 L 14655394.00 14556182.00 L 16073976.00 14556182.00 L 16073976.00 15974764.00  zM 16450000.65 15999996.97 m -168236.03 0 a 168236.03 168236.03 0 1 1 336472.07 0a 168236.03 168236.03 0 1 1 -336472.07 0M 17364687.71 13493809.13 m -437452.87 0 a 437452.87 437452.87 0 1 1 874905.73 0a 437452.87 437452.87 0 1 1 -874905.73 0M 17600000.65 14999996.97 m -168236.03 0 a 168236.03 168236.03 0 1 1 336472.07 0a 168236.03 168236.03 0 1 1 -336472.07 0M 18852756.65 15249996.97 m -168236.03 0 a 168236.03 168236.03 0 1 1 336472.07 0a 168236.03 168236.03 0 1 1 -336472.07 0M 21814679.62 11493845.02 m -633575.98 0 a 633575.98 633575.98 0 1 1 1267151.97 0a 633575.98 633575.98 0 1 1 -1267151.97 0M 20814687.71 13493809.13 m -437452.87 0 a 437452.87 437452.87 0 1 1 874905.73 0a 437452.87 437452.87 0 1 1 -874905.73 0M 21050000.65 15899996.97 m -168236.03 0 a 168236.03 168236.03 0 1 1 336472.07 0a 168236.03 168236.03 0 1 1 -336472.07 0M 5914687.71 20943809.13 m -437452.87 0 a 437452.87 437452.87 0 1 1 874905.73 0a 437452.87 437452.87 0 1 1 -874905.73 0M 7914685.02 20943815.32 m -793825.68 0 a 793825.68 793825.68 0 1 1 1587651.37 0a 793825.68 793825.68 0 1 1 -1587651.37 0M 9414679.62 19943845.02 m -633575.98 0 a 633575.98 633575.98 0 1 1 1267151.97 0a 633575.98 633575.98 0 1 1 -1267151.97 0M 9650000.65 22449996.97 m -168236.03 0 a 168236.03 168236.03 0 1 1 336472.07 0a 168236.03 168236.03 0 1 1 -336472.07 0M 5750000.65 23049996.97 m -168236.03 0 a 168236.03 168236.03 0 1 1 336472.07 0a 168236.03 168236.03 0 1 1 -336472.07 0M 8623976.00 23424764.00 L 7205394.00 23424764.00 L 7205394.00 22006182.00 L 8623976.00 22006182.00 L 8623976.00 23424764.00  zM 6914679.62 26393845.02 m -633575.98 0 a 633575.98 633575.98 0 1 1 1267151.97 0a 633575.98 633575.98 0 1 1 -1267151.97 0M 9914687.71 20943809.13 m -437452.87 0 a 437452.87 437452.87 0 1 1 874905.73 0a 437452.87 437452.87 0 1 1 -874905.73 0M 11252756.65 22102752.97 m -168236.03 0 a 168236.03 168236.03 0 1 1 336472.07 0a 168236.03 168236.03 0 1 1 -336472.07 0M 10650000.65 22999996.97 m -168236.03 0 a 168236.03 168236.03 0 1 1 336472.07 0a 168236.03 168236.03 0 1 1 -336472.07 0M 12700000.65 20149996.97 m -168236.03 0 a 168236.03 168236.03 0 1 1 336472.07 0a 168236.03 168236.03 0 1 1 -336472.07 0M 13364687.71 20943809.13 m -437452.87 0 a 437452.87 437452.87 0 1 1 874905.73 0a 437452.87 437452.87 0 1 1 -874905.73 0M 13250000.65 22999996.97 m -168236.03 0 a 168236.03 168236.03 0 1 1 336472.07 0a 168236.03 168236.03 0 1 1 -336472.07 0M 5914687.71 28393809.13 m -437452.87 0 a 437452.87 437452.87 0 1 1 874905.73 0a 437452.87 437452.87 0 1 1 -874905.73 0M 5200000.65 30449996.97 m -168236.03 0 a 168236.03 168236.03 0 1 1 336472.07 0a 168236.03 168236.03 0 1 1 -336472.07 0M 7914685.02 28393815.32 m -793825.68 0 a 793825.68 793825.68 0 1 1 1587651.37 0a 793825.68 793825.68 0 1 1 -1587651.37 0M 9414679.62 27393845.02 m -633575.98 0 a 633575.98 633575.98 0 1 1 1267151.97 0a 633575.98 633575.98 0 1 1 -1267151.97 0M 9650000.65 29899996.97 m -168236.03 0 a 168236.03 168236.03 0 1 1 336472.07 0a 168236.03 168236.03 0 1 1 -336472.07 0M 8623976.00 30874764.00 L 7205394.00 30874764.00 L 7205394.00 29456182.00 L 8623976.00 29456182.00 L 8623976.00 30874764.00  zM 9914687.71 28393809.13 m -437452.87 0 a 437452.87 437452.87 0 1 1 874905.73 0a 437452.87 437452.87 0 1 1 -874905.73 0M 11252756.65 29747240.97 m -168236.03 0 a 168236.03 168236.03 0 1 1 336472.07 0a 168236.03 168236.03 0 1 1 -336472.07 0M 10700000.65 30449996.97 m -168236.03 0 a 168236.03 168236.03 0 1 1 336472.07 0a 168236.03 168236.03 0 1 1 -336472.07 0M 13364687.71 28393809.13 m -437452.87 0 a 437452.87 437452.87 0 1 1 874905.73 0a 437452.87 437452.87 0 1 1 -874905.73 0M 13150000.65 29299996.97 m -168236.03 0 a 168236.03 168236.03 0 1 1 336472.07 0a 168236.03 168236.03 0 1 1 -336472.07 0M 13300000.65 30449996.97 m -168236.03 0 a 168236.03 168236.03 0 1 1 336472.07 0a 168236.03 168236.03 0 1 1 -336472.07 0M 14364679.62 18943845.02 m -633575.98 0 a 633575.98 633575.98 0 1 1 1267151.97 0a 633575.98 633575.98 0 1 1 -1267151.97 0M 15364685.02 20943815.32 m -793825.68 0 a 793825.68 793825.68 0 1 1 1587651.37 0a 793825.68 793825.68 0 1 1 -1587651.37 0M 16864679.62 19943845.02 m -633575.98 0 a 633575.98 633575.98 0 1 1 1267151.97 0a 633575.98 633575.98 0 1 1 -1267151.97 0M 17364687.71 20943809.13 m -437452.87 0 a 437452.87 437452.87 0 1 1 874905.73 0a 437452.87 437452.87 0 1 1 -874905.73 0M 16073976.00 23424764.00 L 14655394.00 23424764.00 L 14655394.00 22006182.00 L 16073976.00 22006182.00 L 16073976.00 23424764.00  zM 16450000.65 23499996.97 m -168236.03 0 a 168236.03 168236.03 0 1 1 336472.07 0a 168236.03 168236.03 0 1 1 -336472.07 0M 14364679.62 26393845.02 m -633575.98 0 a 633575.98 633575.98 0 1 1 1267151.97 0a 633575.98 633575.98 0 1 1 -1267151.97 0M 18000000.65 22349996.97 m -168236.03 0 a 168236.03 168236.03 0 1 1 336472.07 0a 168236.03 168236.03 0 1 1 -336472.07 0M 18852756.65 22352752.97 m -168236.03 0 a 168236.03 168236.03 0 1 1 336472.07 0a 168236.03 168236.03 0 1 1 -336472.07 0M 20814687.71 20943809.13 m -437452.87 0 a 437452.87 437452.87 0 1 1 874905.73 0a 437452.87 437452.87 0 1 1 -874905.73 0M 21814679.62 18943845.02 m -633575.98 0 a 633575.98 633575.98 0 1 1 1267151.97 0a 633575.98 633575.98 0 1 1 -1267151.97 0M 23523976.00 23424764.00 L 22105394.00 23424764.00 L 22105394.00 22006182.00 L 23523976.00 22006182.00 L 23523976.00 23424764.00  zM 21050000.65 22999996.97 m -168236.03 0 a 168236.03 168236.03 0 1 1 336472.07 0a 168236.03 168236.03 0 1 1 -336472.07 0M 15364685.02 28393815.32 m -793825.68 0 a 793825.68 793825.68 0 1 1 1587651.37 0a 793825.68 793825.68 0 1 1 -1587651.37 0M 16864679.62 27393845.02 m -633575.98 0 a 633575.98 633575.98 0 1 1 1267151.97 0a 633575.98 633575.98 0 1 1 -1267151.97 0M 17364687.71 28393809.13 m -437452.87 0 a 437452.87 437452.87 0 1 1 874905.73 0a 437452.87 437452.87 0 1 1 -874905.73 0M 16073976.00 30874764.00 L 14655394.00 30874764.00 L 14655394.00 29456182.00 L 16073976.00 29456182.00 L 16073976.00 30874764.00  zM 16450000.65 30999996.97 m -168236.03 0 a 168236.03 168236.03 0 1 1 336472.07 0a 168236.03 168236.03 0 1 1 -336472.07 0M 17100001.63 31799994.96 m -292507.04 0 a 292507.04 292507.04 0 1 1 585014.09 0a 292507.04 292507.04 0 1 1 -585014.09 0M 18000000.65 29899996.97 m -168236.03 0 a 168236.03 168236.03 0 1 1 336472.07 0a 168236.03 168236.03 0 1 1 -336472.07 0M 18852756.65 30002752.97 m -168236.03 0 a 168236.03 168236.03 0 1 1 336472.07 0a 168236.03 168236.03 0 1 1 -336472.07 0M 20814687.71 28393809.13 m -437452.87 0 a 437452.87 437452.87 0 1 1 874905.73 0a 437452.87 437452.87 0 1 1 -874905.73 0M 21814679.62 26393845.02 m -633575.98 0 a 633575.98 633575.98 0 1 1 1267151.97 0a 633575.98 633575.98 0 1 1 -1267151.97 0M 23523976.00 30874764.00 L 22105394.00 30874764.00 L 22105394.00 29456182.00 L 23523976.00 29456182.00 L 23523976.00 30874764.00  zM 21050000.65 30449996.97 m -168236.03 0 a 168236.03 168236.03 0 1 1 336472.07 0a 168236.03 168236.03 0 1 1 -336472.07 0M 23789685.77 3293814.85 m -643101.15 0 a 643101.15 643101.15 0 1 1 1286202.30 0a 643101.15 643101.15 0 1 1 -1286202.30 0M 24250000.65 7049996.97 m -168236.03 0 a 168236.03 168236.03 0 1 1 336472.07 0a 168236.03 168236.03 0 1 1 -336472.07 0M 29264679.62 4043845.02 m -633575.98 0 a 633575.98 633575.98 0 1 1 1267151.97 0a 633575.98 633575.98 0 1 1 -1267151.97 0M 28264687.71 6043809.13 m -437452.87 0 a 437452.87 437452.87 0 1 1 874905.73 0a 437452.87 437452.87 0 1 1 -874905.73 0M 30264685.02 6043815.32 m -793825.68 0 a 793825.68 793825.68 0 1 1 1587651.37 0a 793825.68 793825.68 0 1 1 -1587651.37 0M 31764679.62 5043845.02 m -633575.98 0 a 633575.98 633575.98 0 1 1 1267151.97 0a 633575.98 633575.98 0 1 1 -1267151.97 0M 30973976.00 8524764.00 L 29555394.00 8524764.00 L 29555394.00 7106182.00 L 30973976.00 7106182.00 L 30973976.00 8524764.00  zM 23789688.97 9293798.44 m -829051.56 0 a 829051.56 829051.56 0 1 1 1658103.12 0a 829051.56 829051.56 0 1 1 -1658103.12 0M 24314679.62 12493845.02 m -633575.98 0 a 633575.98 633575.98 0 1 1 1267151.97 0a 633575.98 633575.98 0 1 1 -1267151.97 0M 24814687.71 13493809.13 m -437452.87 0 a 437452.87 437452.87 0 1 1 874905.73 0a 437452.87 437452.87 0 1 1 -874905.73 0M 28500000.65 8099996.97 m -168236.03 0 a 168236.03 168236.03 0 1 1 336472.07 0a 168236.03 168236.03 0 1 1 -336472.07 0M 31300000.65 8549996.97 m -168236.03 0 a 168236.03 168236.03 0 1 1 336472.07 0a 168236.03 168236.03 0 1 1 -336472.07 0M 29264679.62 11493845.02 m -633575.98 0 a 633575.98 633575.98 0 1 1 1267151.97 0a 633575.98 633575.98 0 1 1 -1267151.97 0M 22814685.02 13493815.32 m -793825.68 0 a 793825.68 793825.68 0 1 1 1587651.37 0a 793825.68 793825.68 0 1 1 -1587651.37 0M 23523976.00 15974764.00 L 22105394.00 15974764.00 L 22105394.00 14556182.00 L 23523976.00 14556182.00 L 23523976.00 15974764.00  zM 23850000.65 15999996.97 m -168236.03 0 a 168236.03 168236.03 0 1 1 336472.07 0a 168236.03 168236.03 0 1 1 -336472.07 0M 25381614.65 14968382.97 m -168236.03 0 a 168236.03 168236.03 0 1 1 336472.07 0a 168236.03 168236.03 0 1 1 -336472.07 0M 26500000.65 14849996.97 m -168236.03 0 a 168236.03 168236.03 0 1 1 336472.07 0a 168236.03 168236.03 0 1 1 -336472.07 0M 25750000.65 17149996.97 m -168236.03 0 a 168236.03 168236.03 0 1 1 336472.07 0a 168236.03 168236.03 0 1 1 -336472.07 0M 28264687.71 13493809.13 m -437452.87 0 a 437452.87 437452.87 0 1 1 874905.73 0a 437452.87 437452.87 0 1 1 -874905.73 0M 30264685.02 13493815.32 m -793825.68 0 a 793825.68 793825.68 0 1 1 1587651.37 0a 793825.68 793825.68 0 1 1 -1587651.37 0M 30973976.00 15974764.00 L 29555394.00 15974764.00 L 29555394.00 14556182.00 L 30973976.00 14556182.00 L 30973976.00 15974764.00  zM 28500000.65 15549996.97 m -168236.03 0 a 168236.03 168236.03 0 1 1 336472.07 0a 168236.03 168236.03 0 1 1 -336472.07 0M 27500000.65 16999996.97 m -168236.03 0 a 168236.03 168236.03 0 1 1 336472.07 0a 168236.03 168236.03 0 1 1 -336472.07 0M 31350000.65 16049996.97 m -168236.03 0 a 168236.03 168236.03 0 1 1 336472.07 0a 168236.03 168236.03 0 1 1 -336472.07 0M 32264687.71 6043809.13 m -437452.87 0 a 437452.87 437452.87 0 1 1 874905.73 0a 437452.87 437452.87 0 1 1 -874905.73 0M 34464688.97 5068798.44 m -829051.56 0 a 829051.56 829051.56 0 1 1 1658103.12 0a 829051.56 829051.56 0 1 1 -1658103.12 0M 32150000.65 7549996.97 m -168236.03 0 a 168236.03 168236.03 0 1 1 336472.07 0a 168236.03 168236.03 0 1 1 -336472.07 0M 33300000.65 8049996.97 m -168236.03 0 a 168236.03 168236.03 0 1 1 336472.07 0a 168236.03 168236.03 0 1 1 -336472.07 0M 32550000.65 9549996.97 m -168236.03 0 a 168236.03 168236.03 0 1 1 336472.07 0a 168236.03 168236.03 0 1 1 -336472.07 0M 32950000.65 9649996.97 m -168236.03 0 a 168236.03 168236.03 0 1 1 336472.07 0a 168236.03 168236.03 0 1 1 -336472.07 0M 33700000.65 10549996.97 m -168236.03 0 a 168236.03 168236.03 0 1 1 336472.07 0a 168236.03 168236.03 0 1 1 -336472.07 0M 36714679.62 7768845.02 m -633575.98 0 a 633575.98 633575.98 0 1 1 1267151.97 0a 633575.98 633575.98 0 1 1 -1267151.97 0M 39214679.62 8768845.02 m -633575.98 0 a 633575.98 633575.98 0 1 1 1267151.97 0a 633575.98 633575.98 0 1 1 -1267151.97 0M 40464685.77 5068814.85 m -643101.15 0 a 643101.15 643101.15 0 1 1 1286202.30 0a 643101.15 643101.15 0 1 1 -1286202.30 0M 35714687.71 9768809.13 m -437452.87 0 a 437452.87 437452.87 0 1 1 874905.73 0a 437452.87 437452.87 0 1 1 -874905.73 0M 37714685.02 9768815.32 m -793825.68 0 a 793825.68 793825.68 0 1 1 1587651.37 0a 793825.68 793825.68 0 1 1 -1587651.37 0M 39714687.71 9768809.13 m -437452.87 0 a 437452.87 437452.87 0 1 1 874905.73 0a 437452.87 437452.87 0 1 1 -874905.73 0M 31764679.62 12493845.02 m -633575.98 0 a 633575.98 633575.98 0 1 1 1267151.97 0a 633575.98 633575.98 0 1 1 -1267151.97 0M 32264687.71 13493809.13 m -437452.87 0 a 437452.87 437452.87 0 1 1 874905.73 0a 437452.87 437452.87 0 1 1 -874905.73 0M 35950000.65 11849996.97 m -168236.03 0 a 168236.03 168236.03 0 1 1 336472.07 0a 168236.03 168236.03 0 1 1 -336472.07 0M 32950000.65 14949996.97 m -168236.03 0 a 168236.03 168236.03 0 1 1 336472.07 0a 168236.03 168236.03 0 1 1 -336472.07 0M 34464688.97 14468798.44 m -829051.56 0 a 829051.56 829051.56 0 1 1 1658103.12 0a 829051.56 829051.56 0 1 1 -1658103.12 0M 34800001.63 17049994.96 m -292507.04 0 a 292507.04 292507.04 0 1 1 585014.09 0a 292507.04 292507.04 0 1 1 -585014.09 0M 38423976.00 12249764.00 L 37005394.00 12249764.00 L 37005394.00 10831182.00 L 38423976.00 10831182.00 L 38423976.00 12249764.00  zM 39650000.65 11249996.97 m -168236.03 0 a 168236.03 168236.03 0 1 1 336472.07 0a 168236.03 168236.03 0 1 1 -336472.07 0M 41200000.65 11299996.97 m -168236.03 0 a 168236.03 168236.03 0 1 1 336472.07 0a 168236.03 168236.03 0 1 1 -336472.07 0M 38700000.65 12349996.97 m -168236.03 0 a 168236.03 168236.03 0 1 1 336472.07 0a 168236.03 168236.03 0 1 1 -336472.07 0M 40464685.77 14468814.85 m -643101.15 0 a 643101.15 643101.15 0 1 1 1286202.30 0a 643101.15 643101.15 0 1 1 -1286202.30 0M 40399994.62 17250026.02 m -633575.98 0 a 633575.98 633575.98 0 1 1 1267151.97 0a 633575.98 633575.98 0 1 1 -1267151.97 0M 22814685.02 20943815.32 m -793825.68 0 a 793825.68 793825.68 0 1 1 1587651.37 0a 793825.68 793825.68 0 1 1 -1587651.37 0M 24314679.62 19943845.02 m -633575.98 0 a 633575.98 633575.98 0 1 1 1267151.97 0a 633575.98 633575.98 0 1 1 -1267151.97 0M 24814687.71 20943809.13 m -437452.87 0 a 437452.87 437452.87 0 1 1 874905.73 0a 437452.87 437452.87 0 1 1 -874905.73 0M 23850000.65 23499996.97 m -168236.03 0 a 168236.03 168236.03 0 1 1 336472.07 0a 168236.03 168236.03 0 1 1 -336472.07 0M 25381614.65 22418382.97 m -168236.03 0 a 168236.03 168236.03 0 1 1 336472.07 0a 168236.03 168236.03 0 1 1 -336472.07 0M 26500000.65 22449996.97 m -168236.03 0 a 168236.03 168236.03 0 1 1 336472.07 0a 168236.03 168236.03 0 1 1 -336472.07 0M 27800000.65 24299996.97 m -168236.03 0 a 168236.03 168236.03 0 1 1 336472.07 0a 168236.03 168236.03 0 1 1 -336472.07 0M 29264679.62 18943845.02 m -633575.98 0 a 633575.98 633575.98 0 1 1 1267151.97 0a 633575.98 633575.98 0 1 1 -1267151.97 0M 28264687.71 20943809.13 m -437452.87 0 a 437452.87 437452.87 0 1 1 874905.73 0a 437452.87 437452.87 0 1 1 -874905.73 0M 30264685.02 20943815.32 m -793825.68 0 a 793825.68 793825.68 0 1 1 1587651.37 0a 793825.68 793825.68 0 1 1 -1587651.37 0M 28450000.65 23049996.97 m -168236.03 0 a 168236.03 168236.03 0 1 1 336472.07 0a 168236.03 168236.03 0 1 1 -336472.07 0M 30973976.00 23424764.00 L 29555394.00 23424764.00 L 29555394.00 22006182.00 L 30973976.00 22006182.00 L 30973976.00 23424764.00  zM 29264679.62 26393845.02 m -633575.98 0 a 633575.98 633575.98 0 1 1 1267151.97 0a 633575.98 633575.98 0 1 1 -1267151.97 0M 22814685.02 28393815.32 m -793825.68 0 a 793825.68 793825.68 0 1 1 1587651.37 0a 793825.68 793825.68 0 1 1 -1587651.37 0M 24314679.62 27393845.02 m -633575.98 0 a 633575.98 633575.98 0 1 1 1267151.97 0a 633575.98 633575.98 0 1 1 -1267151.97 0M 23900000.65 30899996.97 m -168236.03 0 a 168236.03 168236.03 0 1 1 336472.07 0a 168236.03 168236.03 0 1 1 -336472.07 0M 24814687.71 28393809.13 m -437452.87 0 a 437452.87 437452.87 0 1 1 874905.73 0a 437452.87 437452.87 0 1 1 -874905.73 0M 25381614.65 29868382.97 m -168236.03 0 a 168236.03 168236.03 0 1 1 336472.07 0a 168236.03 168236.03 0 1 1 -336472.07 0M 26500000.65 30249996.97 m -168236.03 0 a 168236.03 168236.03 0 1 1 336472.07 0a 168236.03 168236.03 0 1 1 -336472.07 0M 27500000.65 27299996.97 m -168236.03 0 a 168236.03 168236.03 0 1 1 336472.07 0a 168236.03 168236.03 0 1 1 -336472.07 0M 28264687.71 28393809.13 m -437452.87 0 a 437452.87 437452.87 0 1 1 874905.73 0a 437452.87 437452.87 0 1 1 -874905.73 0M 28450000.65 30449996.97 m -168236.03 0 a 168236.03 168236.03 0 1 1 336472.07 0a 168236.03 168236.03 0 1 1 -336472.07 0M 30264685.02 28393815.32 m -793825.68 0 a 793825.68 793825.68 0 1 1 1587651.37 0a 793825.68 793825.68 0 1 1 -1587651.37 0M 30973976.00 30874764.00 L 29555394.00 30874764.00 L 29555394.00 29456182.00 L 30973976.00 29456182.00 L 30973976.00 30874764.00  zM 31300000.65 30899996.97 m -168236.03 0 a 168236.03 168236.03 0 1 1 336472.07 0a 168236.03 168236.03 0 1 1 -336472.07 0M 31764679.62 19943845.02 m -633575.98 0 a 633575.98 633575.98 0 1 1 1267151.97 0a 633575.98 633575.98 0 1 1 -1267151.97 0M 32264687.71 20943809.13 m -437452.87 0 a 437452.87 437452.87 0 1 1 874905.73 0a 437452.87 437452.87 0 1 1 -874905.73 0M 34464688.97 19968798.44 m -829051.56 0 a 829051.56 829051.56 0 1 1 1658103.12 0a 829051.56 829051.56 0 1 1 -1658103.12 0M 31350000.65 23449996.97 m -168236.03 0 a 168236.03 168236.03 0 1 1 336472.07 0a 168236.03 168236.03 0 1 1 -336472.07 0M 32950000.65 22449996.97 m -168236.03 0 a 168236.03 168236.03 0 1 1 336472.07 0a 168236.03 168236.03 0 1 1 -336472.07 0M 33204645.65 23149996.97 m -168236.03 0 a 168236.03 168236.03 0 1 1 336472.07 0a 168236.03 168236.03 0 1 1 -336472.07 0M 36714679.62 22668845.02 m -633575.98 0 a 633575.98 633575.98 0 1 1 1267151.97 0a 633575.98 633575.98 0 1 1 -1267151.97 0M 39214679.62 23668845.02 m -633575.98 0 a 633575.98 633575.98 0 1 1 1267151.97 0a 633575.98 633575.98 0 1 1 -1267151.97 0M 40464685.77 19968814.85 m -643101.15 0 a 643101.15 643101.15 0 1 1 1286202.30 0a 643101.15 643101.15 0 1 1 -1286202.30 0M 35714687.71 24668809.13 m -437452.87 0 a 437452.87 437452.87 0 1 1 874905.73 0a 437452.87 437452.87 0 1 1 -874905.73 0M 37714685.02 24668815.32 m -793825.68 0 a 793825.68 793825.68 0 1 1 1587651.37 0a 793825.68 793825.68 0 1 1 -1587651.37 0M 39714687.71 24668809.13 m -437452.87 0 a 437452.87 437452.87 0 1 1 874905.73 0a 437452.87 437452.87 0 1 1 -874905.73 0M 31764679.62 27393845.02 m -633575.98 0 a 633575.98 633575.98 0 1 1 1267151.97 0a 633575.98 633575.98 0 1 1 -1267151.97 0M 32264687.71 28393809.13 m -437452.87 0 a 437452.87 437452.87 0 1 1 874905.73 0a 437452.87 437452.87 0 1 1 -874905.73 0M 35250000.65 27349996.97 m -168236.03 0 a 168236.03 168236.03 0 1 1 336472.07 0a 168236.03 168236.03 0 1 1 -336472.07 0M 32950000.65 29849996.97 m -168236.03 0 a 168236.03 168236.03 0 1 1 336472.07 0a 168236.03 168236.03 0 1 1 -336472.07 0M 34464688.97 29368798.44 m -829051.56 0 a 829051.56 829051.56 0 1 1 1658103.12 0a 829051.56 829051.56 0 1 1 -1658103.12 0M 33650000.65 32099996.97 m -168236.03 0 a 168236.03 168236.03 0 1 1 336472.07 0a 168236.03 168236.03 0 1 1 -336472.07 0M 35950000.65 26749996.97 m -168236.03 0 a 168236.03 168236.03 0 1 1 336472.07 0a 168236.03 168236.03 0 1 1 -336472.07 0M 38423976.00 27149764.00 L 37005394.00 27149764.00 L 37005394.00 25731182.00 L 38423976.00 25731182.00 L 38423976.00 27149764.00  zM 38750000.65 27299996.97 m -168236.03 0 a 168236.03 168236.03 0 1 1 336472.07 0a 168236.03 168236.03 0 1 1 -336472.07 0M 39700000.65 26149996.97 m -168236.03 0 a 168236.03 168236.03 0 1 1 336472.07 0a 168236.03 168236.03 0 1 1 -336472.07 0M 40650000.65 27649996.97 m -168236.03 0 a 168236.03 168236.03 0 1 1 336472.07 0a 168236.03 168236.03 0 1 1 -336472.07 0M 40464685.77 29368814.85 m -643101.15 0 a 643101.15 643101.15 0 1 1 1286202.30 0a 643101.15 643101.15 0 1 1 -1286202.30 0M 6914679.62 33843845.02 m -633575.98 0 a 633575.98 633575.98 0 1 1 1267151.97 0a 633575.98 633575.98 0 1 1 -1267151.97 0M 5914687.71 35843809.13 m -437452.87 0 a 437452.87 437452.87 0 1 1 874905.73 0a 437452.87 437452.87 0 1 1 -874905.73 0M 7914685.02 35843815.32 m -793825.68 0 a 793825.68 793825.68 0 1 1 1587651.37 0a 793825.68 793825.68 0 1 1 -1587651.37 0M 9414679.62 34843845.02 m -633575.98 0 a 633575.98 633575.98 0 1 1 1267151.97 0a 633575.98 633575.98 0 1 1 -1267151.97 0M 8623976.00 38324764.00 L 7205394.00 38324764.00 L 7205394.00 36906182.00 L 8623976.00 36906182.00 L 8623976.00 38324764.00  zM 9750000.65 37349996.97 m -168236.03 0 a 168236.03 168236.03 0 1 1 336472.07 0a 168236.03 168236.03 0 1 1 -336472.07 0M 9914687.71 35843809.13 m -437452.87 0 a 437452.87 437452.87 0 1 1 874905.73 0a 437452.87 437452.87 0 1 1 -874905.73 0M 11252756.65 37252752.97 m -168236.03 0 a 168236.03 168236.03 0 1 1 336472.07 0a 168236.03 168236.03 0 1 1 -336472.07 0M 10700000.65 37899996.97 m -168236.03 0 a 168236.03 168236.03 0 1 1 336472.07 0a 168236.03 168236.03 0 1 1 -336472.07 0M 13200000.65 37899996.97 m -168236.03 0 a 168236.03 168236.03 0 1 1 336472.07 0a 168236.03 168236.03 0 1 1 -336472.07 0M 14364679.62 33843845.02 m -633575.98 0 a 633575.98 633575.98 0 1 1 1267151.97 0a 633575.98 633575.98 0 1 1 -1267151.97 0M 15364685.02 35843815.32 m -793825.68 0 a 793825.68 793825.68 0 1 1 1587651.37 0a 793825.68 793825.68 0 1 1 -1587651.37 0M 13364687.71 35843809.13 m -437452.87 0 a 437452.87 437452.87 0 1 1 874905.73 0a 437452.87 437452.87 0 1 1 -874905.73 0M 5600000.65 37899996.97 m -168236.03 0 a 168236.03 168236.03 0 1 1 336472.07 0a 168236.03 168236.03 0 1 1 -336472.07 0M 4649994.62 39350026.02 m -633575.98 0 a 633575.98 633575.98 0 1 1 1267151.97 0a 633575.98 633575.98 0 1 1 -1267151.97 0M 7950001.63 39499994.96 m -292507.04 0 a 292507.04 292507.04 0 1 1 585014.09 0a 292507.04 292507.04 0 1 1 -585014.09 0M 6914679.62 41293845.02 m -633575.98 0 a 633575.98 633575.98 0 1 1 1267151.97 0a 633575.98 633575.98 0 1 1 -1267151.97 0M 5914687.71 43293809.13 m -437452.87 0 a 437452.87 437452.87 0 1 1 874905.73 0a 437452.87 437452.87 0 1 1 -874905.73 0M 7914685.02 43293815.32 m -793825.68 0 a 793825.68 793825.68 0 1 1 1587651.37 0a 793825.68 793825.68 0 1 1 -1587651.37 0M 9414679.62 42293845.02 m -633575.98 0 a 633575.98 633575.98 0 1 1 1267151.97 0a 633575.98 633575.98 0 1 1 -1267151.97 0M 9914687.71 43293809.13 m -437452.87 0 a 437452.87 437452.87 0 1 1 874905.73 0a 437452.87 437452.87 0 1 1 -874905.73 0M 10400000.65 44249996.97 m -168236.03 0 a 168236.03 168236.03 0 1 1 336472.07 0a 168236.03 168236.03 0 1 1 -336472.07 0M 11252756.65 44102752.97 m -168236.03 0 a 168236.03 168236.03 0 1 1 336472.07 0a 168236.03 168236.03 0 1 1 -336472.07 0M 13364687.71 43293809.13 m -437452.87 0 a 437452.87 437452.87 0 1 1 874905.73 0a 437452.87 437452.87 0 1 1 -874905.73 0M 14364679.62 41293845.02 m -633575.98 0 a 633575.98 633575.98 0 1 1 1267151.97 0a 633575.98 633575.98 0 1 1 -1267151.97 0M 6200906.65 45350902.97 m -168236.03 0 a 168236.03 168236.03 0 1 1 336472.07 0a 168236.03 168236.03 0 1 1 -336472.07 0M 8623976.00 45774764.00 L 7205394.00 45774764.00 L 7205394.00 44356182.00 L 8623976.00 44356182.00 L 8623976.00 45774764.00  zM 8172441.65 46872437.97 m -168236.03 0 a 168236.03 168236.03 0 1 1 336472.07 0a 168236.03 168236.03 0 1 1 -336472.07 0M 10025984.65 46274012.97 m -168236.03 0 a 168236.03 168236.03 0 1 1 336472.07 0a 168236.03 168236.03 0 1 1 -336472.07 0M 6475984.65 47325980.97 m -168236.03 0 a 168236.03 168236.03 0 1 1 336472.07 0a 168236.03 168236.03 0 1 1 -336472.07 0M 7788031.00 50189606.00 L 6211969.00 50189606.00 L 6211969.00 49310394.00 L 6610590.75 49310394.00 L 6585620.00 49305427.00 A 168227.55 168227.55 0 1 1 6714380.00 49305427.00 L 6689409.25 49310394.00 L 7788031.00 49310394.00 L 7788031.00 50189606.00  zM 10750000.65 47949996.97 m -168236.03 0 a 168236.03 168236.03 0 1 1 336472.07 0a 168236.03 168236.03 0 1 1 -336472.07 0M 10800000.65 44349996.97 m -168236.03 0 a 168236.03 168236.03 0 1 1 336472.07 0a 168236.03 168236.03 0 1 1 -336472.07 0M 11600000.65 46199996.97 m -168236.03 0 a 168236.03 168236.03 0 1 1 336472.07 0a 168236.03 168236.03 0 1 1 -336472.07 0M 10774015.65 46224011.97 m -168236.03 0 a 168236.03 168236.03 0 1 1 336472.07 0a 168236.03 168236.03 0 1 1 -336472.07 0M 12200000.65 47599996.97 m -168236.03 0 a 168236.03 168236.03 0 1 1 336472.07 0a 168236.03 168236.03 0 1 1 -336472.07 0M 11346179.49 49427957.70 m -241485.30 0 a 241485.30 241485.30 0 1 1 482970.60 0a 241485.30 241485.30 0 1 1 -482970.60 0M 11846179.49 49427957.70 m -241485.30 0 a 241485.30 241485.30 0 1 1 482970.60 0a 241485.30 241485.30 0 1 1 -482970.60 0M 12224015.65 46175981.97 m -168236.03 0 a 168236.03 168236.03 0 1 1 336472.07 0a 168236.03 168236.03 0 1 1 -336472.07 0M 13551189.65 45349279.97 m -168236.03 0 a 168236.03 168236.03 0 1 1 336472.07 0a 168236.03 168236.03 0 1 1 -336472.07 0M 16073976.00 45774764.00 L 14655394.00 45774764.00 L 14655394.00 44356182.00 L 16073976.00 44356182.00 L 16073976.00 45774764.00  zM 12600000.65 46699996.97 m -168236.03 0 a 168236.03 168236.03 0 1 1 336472.07 0a 168236.03 168236.03 0 1 1 -336472.07 0M 12900000.65 48249996.97 m -168236.03 0 a 168236.03 168236.03 0 1 1 336472.07 0a 168236.03 168236.03 0 1 1 -336472.07 0M 13846179.49 49427957.70 m -241485.30 0 a 241485.30 241485.30 0 1 1 482970.60 0a 241485.30 241485.30 0 1 1 -482970.60 0M 12346179.49 49427957.70 m -241485.30 0 a 241485.30 241485.30 0 1 1 482970.60 0a 241485.30 241485.30 0 1 1 -482970.60 0M 12846179.49 49427957.70 m -241485.30 0 a 241485.30 241485.30 0 1 1 482970.60 0a 241485.30 241485.30 0 1 1 -482970.60 0M 13346179.49 49427957.70 m -241485.30 0 a 241485.30 241485.30 0 1 1 482970.60 0a 241485.30 241485.30 0 1 1 -482970.60 0M 14346179.49 49427957.70 m -241485.30 0 a 241485.30 241485.30 0 1 1 482970.60 0a 241485.30 241485.30 0 1 1 -482970.60 0M 14846179.49 49427957.70 m -241485.30 0 a 241485.30 241485.30 0 1 1 482970.60 0a 241485.30 241485.30 0 1 1 -482970.60 0M 15346179.49 49427957.70 m -241485.30 0 a 241485.30 241485.30 0 1 1 482970.60 0a 241485.30 241485.30 0 1 1 -482970.60 0M 16864679.62 34843845.02 m -633575.98 0 a 633575.98 633575.98 0 1 1 1267151.97 0a 633575.98 633575.98 0 1 1 -1267151.97 0M 17364687.71 35843809.13 m -437452.87 0 a 437452.87 437452.87 0 1 1 874905.73 0a 437452.87 437452.87 0 1 1 -874905.73 0M 16073976.00 38324764.00 L 14655394.00 38324764.00 L 14655394.00 36906182.00 L 16073976.00 36906182.00 L 16073976.00 38324764.00  zM 16500000.65 38399996.97 m -168236.03 0 a 168236.03 168236.03 0 1 1 336472.07 0a 168236.03 168236.03 0 1 1 -336472.07 0M 19550000.65 33949996.97 m -168236.03 0 a 168236.03 168236.03 0 1 1 336472.07 0a 168236.03 168236.03 0 1 1 -336472.07 0M 18000000.65 37349996.97 m -168236.03 0 a 168236.03 168236.03 0 1 1 336472.07 0a 168236.03 168236.03 0 1 1 -336472.07 0M 18852756.65 37652752.97 m -168236.03 0 a 168236.03 168236.03 0 1 1 336472.07 0a 168236.03 168236.03 0 1 1 -336472.07 0M 21814679.62 33843845.02 m -633575.98 0 a 633575.98 633575.98 0 1 1 1267151.97 0a 633575.98 633575.98 0 1 1 -1267151.97 0M 22814685.02 35843815.32 m -793825.68 0 a 793825.68 793825.68 0 1 1 1587651.37 0a 793825.68 793825.68 0 1 1 -1587651.37 0M 20814687.71 35843809.13 m -437452.87 0 a 437452.87 437452.87 0 1 1 874905.73 0a 437452.87 437452.87 0 1 1 -874905.73 0M 21050000.65 37899996.97 m -168236.03 0 a 168236.03 168236.03 0 1 1 336472.07 0a 168236.03 168236.03 0 1 1 -336472.07 0M 23523976.00 38324764.00 L 22105394.00 38324764.00 L 22105394.00 36906182.00 L 23523976.00 36906182.00 L 23523976.00 38324764.00  zM 21814679.62 41293845.02 m -633575.98 0 a 633575.98 633575.98 0 1 1 1267151.97 0a 633575.98 633575.98 0 1 1 -1267151.97 0M 15364685.02 43293815.32 m -793825.68 0 a 793825.68 793825.68 0 1 1 1587651.37 0a 793825.68 793825.68 0 1 1 -1587651.37 0M 16864679.62 42293845.02 m -633575.98 0 a 633575.98 633575.98 0 1 1 1267151.97 0a 633575.98 633575.98 0 1 1 -1267151.97 0M 17364687.71 43293809.13 m -437452.87 0 a 437452.87 437452.87 0 1 1 874905.73 0a 437452.87 437452.87 0 1 1 -874905.73 0M 17480039.65 44780035.97 m -168236.03 0 a 168236.03 168236.03 0 1 1 336472.07 0a 168236.03 168236.03 0 1 1 -336472.07 0M 16550000.65 45749996.97 m -168236.03 0 a 168236.03 168236.03 0 1 1 336472.07 0a 168236.03 168236.03 0 1 1 -336472.07 0M 18425984.65 46274012.97 m -168236.03 0 a 168236.03 168236.03 0 1 1 336472.07 0a 168236.03 168236.03 0 1 1 -336472.07 0M 18852756.65 44052752.97 m -168236.03 0 a 168236.03 168236.03 0 1 1 336472.07 0a 168236.03 168236.03 0 1 1 -336472.07 0M 20814687.71 43293809.13 m -437452.87 0 a 437452.87 437452.87 0 1 1 874905.73 0a 437452.87 437452.87 0 1 1 -874905.73 0M 20922441.65 45822437.97 m -168236.03 0 a 168236.03 168236.03 0 1 1 336472.07 0a 168236.03 168236.03 0 1 1 -336472.07 0M 22814685.02 43293815.32 m -793825.68 0 a 793825.68 793825.68 0 1 1 1587651.37 0a 793825.68 793825.68 0 1 1 -1587651.37 0M 23523976.00 45774764.00 L 22105394.00 45774764.00 L 22105394.00 44356182.00 L 23523976.00 44356182.00 L 23523976.00 45774764.00  zM 21764016.65 45749996.97 m -168236.03 0 a 168236.03 168236.03 0 1 1 336472.07 0a 168236.03 168236.03 0 1 1 -336472.07 0M 16500000.65 46699996.97 m -168236.03 0 a 168236.03 168236.03 0 1 1 336472.07 0a 168236.03 168236.03 0 1 1 -336472.07 0M 16800000.65 47799996.97 m -168236.03 0 a 168236.03 168236.03 0 1 1 336472.07 0a 168236.03 168236.03 0 1 1 -336472.07 0M 16346179.49 49427957.70 m -241485.30 0 a 241485.30 241485.30 0 1 1 482970.60 0a 241485.30 241485.30 0 1 1 -482970.60 0M 16846179.49 49427957.70 m -241485.30 0 a 241485.30 241485.30 0 1 1 482970.60 0a 241485.30 241485.30 0 1 1 -482970.60 0M 15846179.49 49427957.70 m -241485.30 0 a 241485.30 241485.30 0 1 1 482970.60 0a 241485.30 241485.30 0 1 1 -482970.60 0M 17346179.49 49427957.70 m -241485.30 0 a 241485.30 241485.30 0 1 1 482970.60 0a 241485.30 241485.30 0 1 1 -482970.60 0M 17846179.49 49427957.70 m -241485.30 0 a 241485.30 241485.30 0 1 1 482970.60 0a 241485.30 241485.30 0 1 1 -482970.60 0M 18026034.65 46670912.97 m -168236.03 0 a 168236.03 168236.03 0 1 1 336472.07 0a 168236.03 168236.03 0 1 1 -336472.07 0M 19800000.65 46299996.97 m -168236.03 0 a 168236.03 168236.03 0 1 1 336472.07 0a 168236.03 168236.03 0 1 1 -336472.07 0M 19800000.65 46949996.97 m -168236.03 0 a 168236.03 168236.03 0 1 1 336472.07 0a 168236.03 168236.03 0 1 1 -336472.07 0M 18346179.49 49427957.70 m -241485.30 0 a 241485.30 241485.30 0 1 1 482970.60 0a 241485.30 241485.30 0 1 1 -482970.60 0M 18846179.49 49427957.70 m -241485.30 0 a 241485.30 241485.30 0 1 1 482970.60 0a 241485.30 241485.30 0 1 1 -482970.60 0M 19346179.49 49427957.70 m -241485.30 0 a 241485.30 241485.30 0 1 1 482970.60 0a 241485.30 241485.30 0 1 1 -482970.60 0M 19800000.65 48249996.97 m -168236.03 0 a 168236.03 168236.03 0 1 1 336472.07 0a 168236.03 168236.03 0 1 1 -336472.07 0M 20400000.65 47699996.97 m -168236.03 0 a 168236.03 168236.03 0 1 1 336472.07 0a 168236.03 168236.03 0 1 1 -336472.07 0M 21450000.65 48749996.97 m -168236.03 0 a 168236.03 168236.03 0 1 1 336472.07 0a 168236.03 168236.03 0 1 1 -336472.07 0M 19846179.49 49427957.70 m -241485.30 0 a 241485.30 241485.30 0 1 1 482970.60 0a 241485.30 241485.30 0 1 1 -482970.60 0M 20346179.49 49427957.70 m -241485.30 0 a 241485.30 241485.30 0 1 1 482970.60 0a 241485.30 241485.30 0 1 1 -482970.60 0M 20846179.49 49427957.70 m -241485.30 0 a 241485.30 241485.30 0 1 1 482970.60 0a 241485.30 241485.30 0 1 1 -482970.60 0M 22977559.65 46872437.97 m -168236.03 0 a 168236.03 168236.03 0 1 1 336472.07 0a 168236.03 168236.03 0 1 1 -336472.07 0M 22639606.00 48038031.00 L 21760394.00 48038031.00 L 21760394.00 46461969.00 L 22639606.00 46461969.00 L 22639606.00 48038031.00  zM 23284094.00 48441968.00 L 22967874.00 48441968.00 L 22967874.00 47968268.00 L 23284094.00 47968268.00 L 23284094.00 48441968.00  zM 22550000.65 48549996.97 m -168236.03 0 a 168236.03 168236.03 0 1 1 336472.07 0a 168236.03 168236.03 0 1 1 -336472.07 0M 22966745.65 48749996.97 m -168236.03 0 a 168236.03 168236.03 0 1 1 336472.07 0a 168236.03 168236.03 0 1 1 -336472.07 0M 22600000.65 49349996.97 m -168236.03 0 a 168236.03 168236.03 0 1 1 336472.07 0a 168236.03 168236.03 0 1 1 -336472.07 0M 24314679.62 34843845.02 m -633575.98 0 a 633575.98 633575.98 0 1 1 1267151.97 0a 633575.98 633575.98 0 1 1 -1267151.97 0M 24814687.71 35843809.13 m -437452.87 0 a 437452.87 437452.87 0 1 1 874905.73 0a 437452.87 437452.87 0 1 1 -874905.73 0M 25381614.65 37318382.97 m -168236.03 0 a 168236.03 168236.03 0 1 1 336472.07 0a 168236.03 168236.03 0 1 1 -336472.07 0M 28264687.71 35843809.13 m -437452.87 0 a 437452.87 437452.87 0 1 1 874905.73 0a 437452.87 437452.87 0 1 1 -874905.73 0M 23850000.65 38349996.97 m -168236.03 0 a 168236.03 168236.03 0 1 1 336472.07 0a 168236.03 168236.03 0 1 1 -336472.07 0M 26500000.65 37749996.97 m -168236.03 0 a 168236.03 168236.03 0 1 1 336472.07 0a 168236.03 168236.03 0 1 1 -336472.07 0M 27500000.65 39499996.97 m -168236.03 0 a 168236.03 168236.03 0 1 1 336472.07 0a 168236.03 168236.03 0 1 1 -336472.07 0M 29264679.62 33843845.02 m -633575.98 0 a 633575.98 633575.98 0 1 1 1267151.97 0a 633575.98 633575.98 0 1 1 -1267151.97 0M 30264685.02 35843815.32 m -793825.68 0 a 793825.68 793825.68 0 1 1 1587651.37 0a 793825.68 793825.68 0 1 1 -1587651.37 0M 31764679.62 34843845.02 m -633575.98 0 a 633575.98 633575.98 0 1 1 1267151.97 0a 633575.98 633575.98 0 1 1 -1267151.97 0M 28400000.65 37899996.97 m -168236.03 0 a 168236.03 168236.03 0 1 1 336472.07 0a 168236.03 168236.03 0 1 1 -336472.07 0M 30973976.00 38324764.00 L 29555394.00 38324764.00 L 29555394.00 36906182.00 L 30973976.00 36906182.00 L 30973976.00 38324764.00  zM 31300000.65 38399996.97 m -168236.03 0 a 168236.03 168236.03 0 1 1 336472.07 0a 168236.03 168236.03 0 1 1 -336472.07 0M 24314679.62 42293845.02 m -633575.98 0 a 633575.98 633575.98 0 1 1 1267151.97 0a 633575.98 633575.98 0 1 1 -1267151.97 0M 24814687.71 43293809.13 m -437452.87 0 a 437452.87 437452.87 0 1 1 874905.73 0a 437452.87 437452.87 0 1 1 -874905.73 0M 24800000.65 44549996.97 m -168236.03 0 a 168236.03 168236.03 0 1 1 336472.07 0a 168236.03 168236.03 0 1 1 -336472.07 0M 26843819.65 41293815.97 m -168236.03 0 a 168236.03 168236.03 0 1 1 336472.07 0a 168236.03 168236.03 0 1 1 -336472.07 0M 26200000.65 44049996.97 m -168236.03 0 a 168236.03 168236.03 0 1 1 336472.07 0a 168236.03 168236.03 0 1 1 -336472.07 0M 27900000.65 44349996.97 m -168236.03 0 a 168236.03 168236.03 0 1 1 336472.07 0a 168236.03 168236.03 0 1 1 -336472.07 0M 29264679.62 41293845.02 m -633575.98 0 a 633575.98 633575.98 0 1 1 1267151.97 0a 633575.98 633575.98 0 1 1 -1267151.97 0M 30264685.02 43293815.32 m -793825.68 0 a 793825.68 793825.68 0 1 1 1587651.37 0a 793825.68 793825.68 0 1 1 -1587651.37 0M 31764679.62 42293845.02 m -633575.98 0 a 633575.98 633575.98 0 1 1 1267151.97 0a 633575.98 633575.98 0 1 1 -1267151.97 0M 28264687.71 43293809.13 m -437452.87 0 a 437452.87 437452.87 0 1 1 874905.73 0a 437452.87 437452.87 0 1 1 -874905.73 0M 30973976.00 45774764.00 L 29555394.00 45774764.00 L 29555394.00 44356182.00 L 30973976.00 44356182.00 L 30973976.00 45774764.00  zM 31968740.65 45049996.97 m -168236.03 0 a 168236.03 168236.03 0 1 1 336472.07 0a 168236.03 168236.03 0 1 1 -336472.07 0M 32264687.71 35843809.13 m -437452.87 0 a 437452.87 437452.87 0 1 1 874905.73 0a 437452.87 437452.87 0 1 1 -874905.73 0M 32950000.65 37299996.97 m -168236.03 0 a 168236.03 168236.03 0 1 1 336472.07 0a 168236.03 168236.03 0 1 1 -336472.07 0M 33650000.65 37599996.97 m -168236.03 0 a 168236.03 168236.03 0 1 1 336472.07 0a 168236.03 168236.03 0 1 1 -336472.07 0M 35714687.71 35843809.13 m -437452.87 0 a 437452.87 437452.87 0 1 1 874905.73 0a 437452.87 437452.87 0 1 1 -874905.73 0M 36714679.62 33843845.02 m -633575.98 0 a 633575.98 633575.98 0 1 1 1267151.97 0a 633575.98 633575.98 0 1 1 -1267151.97 0M 38423976.00 38324764.00 L 37005394.00 38324764.00 L 37005394.00 36906182.00 L 38423976.00 36906182.00 L 38423976.00 38324764.00  zM 35950000.65 37899996.97 m -168236.03 0 a 168236.03 168236.03 0 1 1 336472.07 0a 168236.03 168236.03 0 1 1 -336472.07 0M 37900000.65 32949996.97 m -168236.03 0 a 168236.03 168236.03 0 1 1 336472.07 0a 168236.03 168236.03 0 1 1 -336472.07 0M 39214679.62 34843845.02 m -633575.98 0 a 633575.98 633575.98 0 1 1 1267151.97 0a 633575.98 633575.98 0 1 1 -1267151.97 0M 37714685.02 35843815.32 m -793825.68 0 a 793825.68 793825.68 0 1 1 1587651.37 0a 793825.68 793825.68 0 1 1 -1587651.37 0M 39714687.71 35843809.13 m -437452.87 0 a 437452.87 437452.87 0 1 1 874905.73 0a 437452.87 437452.87 0 1 1 -874905.73 0M 39550000.65 37349996.97 m -168236.03 0 a 168236.03 168236.03 0 1 1 336472.07 0a 168236.03 168236.03 0 1 1 -336472.07 0M 41600000.65 37299996.97 m -168236.03 0 a 168236.03 168236.03 0 1 1 336472.07 0a 168236.03 168236.03 0 1 1 -336472.07 0M 34950000.65 40499996.97 m -168236.03 0 a 168236.03 168236.03 0 1 1 336472.07 0a 168236.03 168236.03 0 1 1 -336472.07 0M 32264687.71 43293809.13 m -437452.87 0 a 437452.87 437452.87 0 1 1 874905.73 0a 437452.87 437452.87 0 1 1 -874905.73 0M 33700000.65 44499996.97 m -168236.03 0 a 168236.03 168236.03 0 1 1 336472.07 0a 168236.03 168236.03 0 1 1 -336472.07 0M 36714679.62 41293845.02 m -633575.98 0 a 633575.98 633575.98 0 1 1 1267151.97 0a 633575.98 633575.98 0 1 1 -1267151.97 0M 35714687.71 43293809.13 m -437452.87 0 a 437452.87 437452.87 0 1 1 874905.73 0a 437452.87 437452.87 0 1 1 -874905.73 0M 37714685.02 43293815.32 m -793825.68 0 a 793825.68 793825.68 0 1 1 1587651.37 0a 793825.68 793825.68 0 1 1 -1587651.37 0M 38750000.65 38349996.97 m -168236.03 0 a 168236.03 168236.03 0 1 1 336472.07 0a 168236.03 168236.03 0 1 1 -336472.07 0M 40849994.62 39300026.02 m -633575.98 0 a 633575.98 633575.98 0 1 1 1267151.97 0a 633575.98 633575.98 0 1 1 -1267151.97 0M 39214679.62 42293845.02 m -633575.98 0 a 633575.98 633575.98 0 1 1 1267151.97 0a 633575.98 633575.98 0 1 1 -1267151.97 0M 39714687.71 43293809.13 m -437452.87 0 a 437452.87 437452.87 0 1 1 874905.73 0a 437452.87 437452.87 0 1 1 -874905.73 0M 38835000.65 44302634.97 m -168236.03 0 a 168236.03 168236.03 0 1 1 336472.07 0a 168236.03 168236.03 0 1 1 -336472.07 0M 40650000.65 44949996.97 m -168236.03 0 a 168236.03 168236.03 0 1 1 336472.07 0a 168236.03 168236.03 0 1 1 -336472.07 0M 24350000.65 45799996.97 m -168236.03 0 a 168236.03 168236.03 0 1 1 336472.07 0a 168236.03 168236.03 0 1 1 -336472.07 0M 24975984.65 46324012.97 m -168236.03 0 a 168236.03 168236.03 0 1 1 336472.07 0a 168236.03 168236.03 0 1 1 -336472.07 0M 24032125.00 48441968.00 L 23715905.00 48441968.00 L 23715905.00 47968268.00 L 24032125.00 47968268.00 L 24032125.00 48441968.00  zM 25695000.65 47799996.97 m -168236.03 0 a 168236.03 168236.03 0 1 1 336472.07 0a 168236.03 168236.03 0 1 1 -336472.07 0M 23658110.00 49386850.00 L 23341890.00 49386850.00 L 23341890.00 48913150.00 L 23658110.00 48913150.00 L 23658110.00 49386850.00  zM 24783187.49 49427957.70 m -241485.30 0 a 241485.30 241485.30 0 1 1 482970.60 0a 241485.30 241485.30 0 1 1 -482970.60 0M 25283187.49 49427957.70 m -241485.30 0 a 241485.30 241485.30 0 1 1 482970.60 0a 241485.30 241485.30 0 1 1 -482970.60 0M 25695000.65 46274011.97 m -168236.03 0 a 168236.03 168236.03 0 1 1 336472.07 0a 168236.03 168236.03 0 1 1 -336472.07 0M 26485000.65 46375980.97 m -168236.03 0 a 168236.03 168236.03 0 1 1 336472.07 0a 168236.03 168236.03 0 1 1 -336472.07 0M 27250000.65 47699996.97 m -168236.03 0 a 168236.03 168236.03 0 1 1 336472.07 0a 168236.03 168236.03 0 1 1 -336472.07 0M 25783187.49 49427957.70 m -241485.30 0 a 241485.30 241485.30 0 1 1 482970.60 0a 241485.30 241485.30 0 1 1 -482970.60 0M 26283187.49 49427957.70 m -241485.30 0 a 241485.30 241485.30 0 1 1 482970.60 0a 241485.30 241485.30 0 1 1 -482970.60 0M 26783187.49 49427957.70 m -241485.30 0 a 241485.30 241485.30 0 1 1 482970.60 0a 241485.30 241485.30 0 1 1 -482970.60 0M 27250000.65 46299996.97 m -168236.03 0 a 168236.03 168236.03 0 1 1 336472.07 0a 168236.03 168236.03 0 1 1 -336472.07 0M 27922441.65 45627555.97 m -168236.03 0 a 168236.03 168236.03 0 1 1 336472.07 0a 168236.03 168236.03 0 1 1 -336472.07 0M 27875984.65 46974012.97 m -168236.03 0 a 168236.03 168236.03 0 1 1 336472.07 0a 168236.03 168236.03 0 1 1 -336472.07 0M 29182008.65 45832004.97 m -168236.03 0 a 168236.03 168236.03 0 1 1 336472.07 0a 168236.03 168236.03 0 1 1 -336472.07 0M 28972441.65 46572437.97 m -168236.03 0 a 168236.03 168236.03 0 1 1 336472.07 0a 168236.03 168236.03 0 1 1 -336472.07 0M 28392139.65 46963407.97 m -168236.03 0 a 168236.03 168236.03 0 1 1 336472.07 0a 168236.03 168236.03 0 1 1 -336472.07 0M 27283187.49 49427957.70 m -241485.30 0 a 241485.30 241485.30 0 1 1 482970.60 0a 241485.30 241485.30 0 1 1 -482970.60 0M 27783187.49 49427957.70 m -241485.30 0 a 241485.30 241485.30 0 1 1 482970.60 0a 241485.30 241485.30 0 1 1 -482970.60 0M 28283187.49 49427957.70 m -241485.30 0 a 241485.30 241485.30 0 1 1 482970.60 0a 241485.30 241485.30 0 1 1 -482970.60 0M 28972441.65 48472437.97 m -168236.03 0 a 168236.03 168236.03 0 1 1 336472.07 0a 168236.03 168236.03 0 1 1 -336472.07 0M 28783187.49 49427957.70 m -241485.30 0 a 241485.30 241485.30 0 1 1 482970.60 0a 241485.30 241485.30 0 1 1 -482970.60 0M 29283187.49 49427957.70 m -241485.30 0 a 241485.30 241485.30 0 1 1 482970.60 0a 241485.30 241485.30 0 1 1 -482970.60 0M 30300000.65 45999406.97 m -168236.03 0 a 168236.03 168236.03 0 1 1 336472.07 0a 168236.03 168236.03 0 1 1 -336472.07 0M 32400000.65 46299996.97 m -168236.03 0 a 168236.03 168236.03 0 1 1 336472.07 0a 168236.03 168236.03 0 1 1 -336472.07 0M 33150000.65 46199996.97 m -168236.03 0 a 168236.03 168236.03 0 1 1 336472.07 0a 168236.03 168236.03 0 1 1 -336472.07 0M 32750000.65 46849996.97 m -168236.03 0 a 168236.03 168236.03 0 1 1 336472.07 0a 168236.03 168236.03 0 1 1 -336472.07 0M 33150000.65 47699996.97 m -168236.03 0 a 168236.03 168236.03 0 1 1 336472.07 0a 168236.03 168236.03 0 1 1 -336472.07 0M 31283187.49 49427957.70 m -241485.30 0 a 241485.30 241485.30 0 1 1 482970.60 0a 241485.30 241485.30 0 1 1 -482970.60 0M 29783187.49 49427957.70 m -241485.30 0 a 241485.30 241485.30 0 1 1 482970.60 0a 241485.30 241485.30 0 1 1 -482970.60 0M 30283187.49 49427957.70 m -241485.30 0 a 241485.30 241485.30 0 1 1 482970.60 0a 241485.30 241485.30 0 1 1 -482970.60 0M 30783187.49 49427957.70 m -241485.30 0 a 241485.30 241485.30 0 1 1 482970.60 0a 241485.30 241485.30 0 1 1 -482970.60 0M 31783187.49 49427957.70 m -241485.30 0 a 241485.30 241485.30 0 1 1 482970.60 0a 241485.30 241485.30 0 1 1 -482970.60 0M 32283187.49 49427957.70 m -241485.30 0 a 241485.30 241485.30 0 1 1 482970.60 0a 241485.30 241485.30 0 1 1 -482970.60 0M 32783187.49 49427957.70 m -241485.30 0 a 241485.30 241485.30 0 1 1 482970.60 0a 241485.30 241485.30 0 1 1 -482970.60 0M 35250000.65 45799996.97 m -168236.03 0 a 168236.03 168236.03 0 1 1 336472.07 0a 168236.03 168236.03 0 1 1 -336472.07 0M 35000000.65 47999996.97 m -168236.03 0 a 168236.03 168236.03 0 1 1 336472.07 0a 168236.03 168236.03 0 1 1 -336472.07 0M 34283187.49 49427957.70 m -241485.30 0 a 241485.30 241485.30 0 1 1 482970.60 0a 241485.30 241485.30 0 1 1 -482970.60 0M 33283187.49 49427957.70 m -241485.30 0 a 241485.30 241485.30 0 1 1 482970.60 0a 241485.30 241485.30 0 1 1 -482970.60 0M 33783187.49 49427957.70 m -241485.30 0 a 241485.30 241485.30 0 1 1 482970.60 0a 241485.30 241485.30 0 1 1 -482970.60 0M 35500000.65 49999996.97 m -168236.03 0 a 168236.03 168236.03 0 1 1 336472.07 0a 168236.03 168236.03 0 1 1 -336472.07 0M 36300000.65 45749996.97 m -168236.03 0 a 168236.03 168236.03 0 1 1 336472.07 0a 168236.03 168236.03 0 1 1 -336472.07 0M 38423976.00 45774764.00 L 37005394.00 45774764.00 L 37005394.00 44356182.00 L 38423976.00 44356182.00 L 38423976.00 45774764.00  zM 38200000.65 46049996.97 m -168236.03 0 a 168236.03 168236.03 0 1 1 336472.07 0a 168236.03 168236.03 0 1 1 -336472.07 0M 37800000.65 46649996.97 m -168236.03 0 a 168236.03 168236.03 0 1 1 336472.07 0a 168236.03 168236.03 0 1 1 -336472.07 0M 39174016.65 48975980.97 m -168236.03 0 a 168236.03 168236.03 0 1 1 336472.07 0a 168236.03 168236.03 0 1 1 -336472.07 0M 39238031.00 50089606.00 L 37661969.00 50089606.00 L 37661969.00 49210394.00 L 39238031.00 49210394.00 L 39238031.00 50089606.00  z"/>
</g>
</svg>
