<svg width="98.00000212mm" height="121.9224003mm" viewBox="0 0 38582678 48000945"  version="1.1" xmlns="http://www.w3.org/2000/svg" xmlns:xlink="http://www.w3.org/1999/xlink">
<desc>
Origin 0 0 Bound 3523346 2312835 38582678 48000945
</desc>
<g fill-rule="evenodd" fill="rgb(0, 0, 255)" stroke="black" stroke-width="1" transform="translate(0, 48000945) scale(1, -1) translate(-3523346, -2312835)">
<path id="N" d="M 37437795.00 49122835.00 L 37162205.00 49122835.00 L 37162205.00 49477165.00 L 37437795.00 49477165.00 L 37437795.00 49122835.00  z"/>
<path id="N" d="M 37418110.00 48525591.00 L 37181890.00 48525591.00 L 37181890.00 48919291.00 L 37418110.00 48919291.00 L 37418110.00 48525591.00  z"/>
<path id="N" d="M 36519291.00 48555906.00 L 36125591.00 48555906.00 L 36125591.00 48792126.00 L 36519291.00 48792126.00 L 36519291.00 48555906.00  z"/>
<path id="N" d="M 19128740.00 36089764.00 L 19043197.98 36089764.00 L 19031260.00 36084819.00 L 19001781.00 36084819.00 L 18406007.00 35489045.00 L 18406007.00 35335945.00 L 18843031.00 35335945.00 L 18843031.00 34351693.00 L 17839095.00 34351693.00 L 17839095.00 35335945.00 L 18276119.00 35335945.00 L 18276119.00 35515945.00 L 18295141.00 35561867.00 L 18928959.00 36195685.00 L 18971260.00 36213207.09 L 18971260.00 36404724.00 L 19128740.00 36404724.00 L 19128740.00 36089764.00  z"/>
<path id="N" d="M 16841063.00 37182401.00 L 16053661.00 37182401.00 L 16053661.00 37477677.00 L 16841063.00 37477677.00 L 16841063.00 37182401.00  z"/>
<path id="N" d="M 17468110.00 45730709.00 L 17231890.00 45730709.00 L 17231890.00 46124409.00 L 17468110.00 46124409.00 L 17468110.00 45730709.00  z"/>
<path id="N" d="M 16841063.00 29732401.00 L 16053661.00 29732401.00 L 16053661.00 30027677.00 L 16841063.00 30027677.00 L 16841063.00 29732401.00  z"/>
<path id="N" d="M 16841063.00 44632401.00 L 16053661.00 44632401.00 L 16053661.00 44927677.00 L 16841063.00 44927677.00 L 16841063.00 44632401.00  z"/>
<path id="N" d="M 16841063.00 22282401.00 L 16053661.00 22282401.00 L 16053661.00 22577677.00 L 16841063.00 22577677.00 L 16841063.00 22282401.00  z"/>
<path id="N" d="M 16841063.00 14832401.00 L 16053661.00 14832401.00 L 16053661.00 15127677.00 L 16841063.00 15127677.00 L 16841063.00 14832401.00  z"/>
<path id="N" d="M 35740275.00 22274995.00 L 36404072.00 21611198.00 L 36420648.00 21586390.00 L 36426469.00 21557126.00 L 36426470.00 18700000.00 L 36420648.00 18670737.00 L 36404068.99 18645925.99 L 35404072.00 17645928.00 L 35379264.00 17629352.00 L 35350000.00 17623531.00 L 29041969.00 17623530.00 L 29012706.00 17629352.00 L 28987897.00 17645928.00 L 28182132.00 18451693.00 L 27394481.34 18451693.00 L 26538717.00 17595928.00 L 26513909.00 17579352.00 L 26484645.00 17573531.00 L 21641969.00 17573531.00 L 21612706.00 17579352.00 L 21587894.99 17595931.01 L 20732132.34 18451693.00 L 19944482.00 18451693.00 L 19138717.00 17645928.00 L 19113909.00 17629352.00 L 19084645.00 17623531.00 L 14141969.00 17623530.00 L 14112706.00 17629352.00 L 14087897.00 17645928.00 L 13282132.00 18451693.00 L 12494482.00 18451693.00 L 11588717.00 17545928.00 L 11563909.00 17529352.00 L 11534645.00 17523531.00 L 6791969.00 17523531.00 L 6762705.00 17529352.00 L 6737897.00 17545928.00 L 5832132.00 18451693.00 L 4936339.00 18451693.00 L 4936339.00 19435945.00 L 5940275.00 19435945.00 L 5940275.00 18559838.00 L 6823644.00 17676469.00 L 11502970.00 17676469.00 L 12386339.00 18559838.00 L 12386339.00 19435945.00 L 13390275.00 19435945.00 L 13390275.00 18559838.00 L 14173644.00 17776469.00 L 19052970.00 17776469.00 L 19836339.00 18559838.00 L 19836339.00 19435945.00 L 20840275.00 19435945.00 L 20840275.00 18559837.66 L 21673643.02 17726469.00 L 26452970.02 17726469.00 L 27286339.00 18559837.34 L 27286339.00 19435945.00 L 28290275.00 19435945.00 L 28290275.00 18559838.00 L 29073644.00 17776469.00 L 35318325.02 17776469.00 L 36273531.00 18731674.02 L 36273531.00 21525451.00 L 35622289.00 22176693.00 L 34736339.00 22176693.00 L 34736339.00 23160945.00 L 35740275.00 23160945.00 L 35740275.00 22274995.00  z"/>
<path id="N" d="M 14346178.94 49427950.94 m -200709.51 0 a 200709.51 200709.51 0 1 1 401419.02 0a 200709.51 200709.51 0 1 1 -401419.02 0M 14346183.46 49427945.27 m -120431.73 0 a 120431.73 120431.73 0 1 1 240863.46 0a 120431.73 120431.73 0 1 1 -240863.46 0"/>
<path id="N" d="M 19128740.00 28489764.00 L 18971260.00 28489764.00 L 18971260.00 28804724.00 L 19128740.00 28804724.00 L 19128740.00 28489764.00  z"/>
<path id="N" d="M 18843031.00 26901693.00 L 17839095.00 26901693.00 L 17839095.00 27885945.00 L 18843031.00 27885945.00 L 18843031.00 26901693.00  z"/>
<path id="N" d="M 11678740.00 13439764.00 L 11664944.00 13439764.00 L 11664944.00 13192913.00 L 11645922.00 13146991.00 L 11393031.00 12894100.00 L 11393031.00 12001693.00 L 10389095.00 12001693.00 L 10389095.00 12985945.00 L 11301188.00 12985945.00 L 11535056.00 13219813.00 L 11535056.00 13439764.00 L 11521260.00 13439764.00 L 11521260.00 13754724.00 L 11678740.00 13754724.00 L 11678740.00 13439764.00  z"/>
<path id="N" d="M 33878740.00 22039764.00 L 33813105.94 22039764.00 L 33306007.00 21532665.97 L 33306007.00 20435945.00 L 33541063.00 20435945.00 L 33541063.00 19451693.00 L 32941063.00 19451693.00 L 32941063.00 20435945.00 L 33176119.00 20435945.00 L 33176119.00 21559566.00 L 33195141.00 21605488.00 L 33721260.00 22131607.94 L 33721260.00 22354724.00 L 33878740.00 22354724.00 L 33878740.00 22039764.00  z"/>
<path id="N" d="M 19292125.00 45625591.00 L 19055905.00 45625591.00 L 19055905.00 46019291.00 L 19292125.00 46019291.00 L 19292125.00 45625591.00  z"/>
<path id="N" d="M 34792125.00 45575591.00 L 34555905.00 45575591.00 L 34555905.00 45969291.00 L 34792125.00 45969291.00 L 34792125.00 45575591.00  z"/>
<path id="N" d="M 7342125.00 46675591.00 L 7105905.00 46675591.00 L 7105905.00 47069291.00 L 7342125.00 47069291.00 L 7342125.00 46675591.00  z"/>
<path id="N" d="M 25842125.00 45675591.00 L 25605905.00 45675591.00 L 25605905.00 46069291.00 L 25842125.00 46069291.00 L 25842125.00 45675591.00  z"/>
<path id="N" d="M 12342125.00 45575591.00 L 12105905.00 45575591.00 L 12105905.00 45969291.00 L 12342125.00 45969291.00 L 12342125.00 45575591.00  z"/>
<path id="N" d="M 21824409.00 49131890.00 L 21430709.00 49131890.00 L 21430709.00 49368110.00 L 21824409.00 49368110.00 L 21824409.00 49131890.00  z"/>
<path id="N" d="M 34418110.00 44630709.00 L 34181890.00 44630709.00 L 34181890.00 45024409.00 L 34418110.00 45024409.00 L 34418110.00 44630709.00  z"/>
<path id="N" d="M 37025709.00 45203268.00 L 36238307.00 45203268.00 L 36238307.00 45498544.00 L 37025709.00 45498544.00 L 37025709.00 45203268.00  z"/>
<path id="N" d="M 37025709.00 37753268.00 L 36238307.00 37753268.00 L 36238307.00 38048544.00 L 37025709.00 38048544.00 L 37025709.00 37753268.00  z"/>
<path id="N" d="M 37025709.00 26578268.00 L 36238307.00 26578268.00 L 36238307.00 26873544.00 L 37025709.00 26873544.00 L 37025709.00 26578268.00  z"/>
<path id="N" d="M 37025709.00 11678268.00 L 36238307.00 11678268.00 L 36238307.00 11973544.00 L 37025709.00 11973544.00 L 37025709.00 11678268.00  z"/>
<path id="N" d="M 17346178.94 49427950.94 m -200709.51 0 a 200709.51 200709.51 0 1 1 401419.02 0a 200709.51 200709.51 0 1 1 -401419.02 0M 17346183.46 49427945.27 m -120431.73 0 a 120431.73 120431.73 0 1 1 240863.46 0a 120431.73 120431.73 0 1 1 -240863.46 0"/>
<path id="N" d="M 11594094.00 45575591.00 L 11357874.00 45575591.00 L 11357874.00 45969291.00 L 11594094.00 45969291.00 L 11594094.00 45575591.00  z"/>
<path id="N" d="M 22568031.00 4551693.00 L 21564095.00 4551693.00 L 21564095.00 5535945.00 L 22568031.00 5535945.00 L 22568031.00 4551693.00  z"/>
<path id="N" d="M 22828740.00 5989764.00 L 22671260.00 5989764.00 L 22671260.00 6304724.00 L 22828740.00 6304724.00 L 22828740.00 5989764.00  z"/>
<path id="N" d="M 30283186.94 49427950.94 m -200709.51 0 a 200709.51 200709.51 0 1 1 401419.02 0a 200709.51 200709.51 0 1 1 -401419.02 0M 30283191.46 49427945.27 m -120431.73 0 a 120431.73 120431.73 0 1 1 240863.46 0a 120431.73 120431.73 0 1 1 -240863.46 0"/>
<path id="N" d="M 20846178.94 49427950.94 m -200709.51 0 a 200709.51 200709.51 0 1 1 401419.02 0a 200709.51 200709.51 0 1 1 -401419.02 0M 20846183.46 49427945.27 m -120431.73 0 a 120431.73 120431.73 0 1 1 240863.46 0a 120431.73 120431.73 0 1 1 -240863.46 0"/>
<path id="N" d="M 30783186.94 49427950.94 m -200709.51 0 a 200709.51 200709.51 0 1 1 401419.02 0a 200709.51 200709.51 0 1 1 -401419.02 0M 30783191.46 49427945.27 m -120431.73 0 a 120431.73 120431.73 0 1 1 240863.46 0a 120431.73 120431.73 0 1 1 -240863.46 0"/>
<path id="N" d="M 31283186.94 49427950.94 m -200709.51 0 a 200709.51 200709.51 0 1 1 401419.02 0a 200709.51 200709.51 0 1 1 -401419.02 0M 31283191.46 49427945.27 m -120431.73 0 a 120431.73 120431.73 0 1 1 240863.46 0a 120431.73 120431.73 0 1 1 -240863.46 0"/>
<path id="N" d="M 7892520.00 47322834.00 L 7616930.00 47322834.00 L 7616930.00 47677164.00 L 7892520.00 47677164.00 L 7892520.00 47322834.00  z"/>
<path id="N" d="M 24277164.00 5516929.00 L 23922834.00 5516929.00 L 23922834.00 5792519.00 L 24277164.00 5792519.00 L 24277164.00 5516929.00  z"/>
<path id="N" d="M 22092520.00 48122834.00 L 21816930.00 48122834.00 L 21816930.00 48477164.00 L 22092520.00 48477164.00 L 22092520.00 48122834.00  z"/>
<path id="N" d="M 12577164.00 4416929.00 L 12222834.00 4416929.00 L 12222834.00 4692519.00 L 12577164.00 4692519.00 L 12577164.00 4416929.00  z"/>
<path id="N" d="M 37044095.00 47580709.00 L 36807875.00 47580709.00 L 36807875.00 47974409.00 L 37044095.00 47974409.00 L 37044095.00 47580709.00  z"/>
<path id="N" d="M 23294095.00 48530709.00 L 23057875.00 48530709.00 L 23057875.00 48924409.00 L 23294095.00 48924409.00 L 23294095.00 48530709.00  z"/>
<path id="N" d="M 11512204.00 47141339.00 L 11275984.00 47141339.00 L 11275984.00 47456299.00 L 11512204.00 47456299.00 L 11512204.00 47141339.00  z"/>
<path id="N" d="M 9094095.00 47730709.00 L 8857875.00 47730709.00 L 8857875.00 48124409.00 L 9094095.00 48124409.00 L 9094095.00 47730709.00  z"/>
<path id="N" d="M 40092519.00 10522836.00 L 39816929.00 10522836.00 L 39816929.00 10877166.00 L 40092519.00 10877166.00 L 40092519.00 10522836.00  z"/>
<path id="N" d="M 19477164.00 12316929.00 L 19122834.00 12316929.00 L 19122834.00 12592519.00 L 19477164.00 12592519.00 L 19477164.00 12316929.00  z"/>
<path id="N" d="M 35892520.00 47172834.00 L 35616930.00 47172834.00 L 35616930.00 47527164.00 L 35892520.00 47527164.00 L 35892520.00 47172834.00  z"/>
<path id="N" d="M 34277164.00 6516929.00 L 33922834.00 6516929.00 L 33922834.00 6792519.00 L 34277164.00 6792519.00 L 34277164.00 6516929.00  z"/>
<path id="N" d="M 33962204.00 47291339.00 L 33725984.00 47291339.00 L 33725984.00 47606299.00 L 33962204.00 47606299.00 L 33962204.00 47291339.00  z"/>
<path id="N" d="M 25162204.00 47341339.00 L 24925984.00 47341339.00 L 24925984.00 47656299.00 L 25162204.00 47656299.00 L 25162204.00 47341339.00  z"/>
<path id="N" d="M 9391063.00 37182401.00 L 8603661.00 37182401.00 L 8603661.00 37477677.00 L 9391063.00 37477677.00 L 9391063.00 37182401.00  z"/>
<path id="N" d="M 9391063.00 29732401.00 L 8603661.00 29732401.00 L 8603661.00 30027677.00 L 9391063.00 30027677.00 L 9391063.00 29732401.00  z"/>
<path id="N" d="M 9391063.00 44632401.00 L 8603661.00 44632401.00 L 8603661.00 44927677.00 L 9391063.00 44927677.00 L 9391063.00 44632401.00  z"/>
<path id="N" d="M 9391063.00 14832401.00 L 8603661.00 14832401.00 L 8603661.00 15127677.00 L 9391063.00 15127677.00 L 9391063.00 14832401.00  z"/>
<path id="N" d="M 9391063.00 7382401.00 L 8603661.00 7382401.00 L 8603661.00 7677677.00 L 9391063.00 7677677.00 L 9391063.00 7382401.00  z"/>
<path id="N" d="M 10518110.00 44630709.00 L 10281890.00 44630709.00 L 10281890.00 45024409.00 L 10518110.00 45024409.00 L 10518110.00 44630709.00  z"/>
<path id="N" d="M 9391063.00 22282401.00 L 8603661.00 22282401.00 L 8603661.00 22577677.00 L 9391063.00 22577677.00 L 9391063.00 22282401.00  z"/>
<path id="N" d="M 34474016.00 47291339.00 L 34237796.00 47291339.00 L 34237796.00 47606299.00 L 34474016.00 47606299.00 L 34474016.00 47291339.00  z"/>
<path id="N" d="M 37792126.00 47580709.00 L 37555906.00 47580709.00 L 37555906.00 47974409.00 L 37792126.00 47974409.00 L 37792126.00 47580709.00  z"/>
<path id="N" d="M 34296850.00 48236221.00 L 33903150.00 48236221.00 L 33903150.00 48511811.00 L 34296850.00 48511811.00 L 34296850.00 48236221.00  z"/>
<path id="N" d="M 36748031.00 49150394.00 L 35251969.00 49150394.00 L 35251969.00 49949606.00 L 36748031.00 49949606.00 L 36748031.00 49150394.00  z"/>
<path id="N" d="M 36519291.00 47807875.00 L 36125591.00 47807875.00 L 36125591.00 48044095.00 L 36519291.00 48044095.00 L 36519291.00 47807875.00  z"/>
<path id="N" d="M 36483071.00 47172834.00 L 36207481.00 47172834.00 L 36207481.00 47527164.00 L 36483071.00 47527164.00 L 36483071.00 47172834.00  z"/>
<path id="N" d="M 20742125.00 45625591.00 L 20505905.00 45625591.00 L 20505905.00 46019291.00 L 20742125.00 46019291.00 L 20742125.00 45625591.00  z"/>
<path id="N" d="M 7624409.00 48331890.00 L 7230709.00 48331890.00 L 7230709.00 48568110.00 L 7624409.00 48568110.00 L 7624409.00 48331890.00  z"/>
<path id="N" d="M 17842125.00 46675591.00 L 17605905.00 46675591.00 L 17605905.00 47069291.00 L 17842125.00 47069291.00 L 17842125.00 46675591.00  z"/>
<path id="N" d="M 33292125.00 45575591.00 L 33055905.00 45575591.00 L 33055905.00 45969291.00 L 33292125.00 45969291.00 L 33292125.00 45575591.00  z"/>
<path id="N" d="M 10892125.00 45575591.00 L 10655905.00 45575591.00 L 10655905.00 45969291.00 L 10892125.00 45969291.00 L 10892125.00 45575591.00  z"/>
<path id="N" d="M 27342125.00 45675591.00 L 27105905.00 45675591.00 L 27105905.00 46069291.00 L 27342125.00 46069291.00 L 27342125.00 45675591.00  z"/>
<path id="N" d="M 33783186.94 49427950.94 m -200709.51 0 a 200709.51 200709.51 0 1 1 401419.02 0a 200709.51 200709.51 0 1 1 -401419.02 0M 33783191.46 49427945.27 m -120431.73 0 a 120431.73 120431.73 0 1 1 240863.46 0a 120431.73 120431.73 0 1 1 -240863.46 0"/>
<path id="N" d="M 37269291.00 39805906.00 L 36875591.00 39805906.00 L 36875591.00 40042126.00 L 37269291.00 40042126.00 L 37269291.00 39805906.00  z"/>
<path id="N" d="M 26628740.00 20839764.00 L 26614944.00 20839764.00 L 26614944.00 20692913.00 L 26595922.00 20646991.00 L 26293031.00 20344100.00 L 26293031.00 19451693.00 L 25289095.00 19451693.00 L 25289095.00 20435945.00 L 26201188.00 20435945.00 L 26485056.00 20719813.00 L 26485056.00 20839764.00 L 26471260.00 20839764.00 L 26471260.00 21154724.00 L 26628740.00 21154724.00 L 26628740.00 20839764.00  z"/>
<path id="N" d="M 24783186.94 49427950.94 m -200709.51 0 a 200709.51 200709.51 0 1 1 401419.02 0a 200709.51 200709.51 0 1 1 -401419.02 0M 24783191.46 49427945.27 m -120431.73 0 a 120431.73 120431.73 0 1 1 240863.46 0a 120431.73 120431.73 0 1 1 -240863.46 0"/>
<path id="N" d="M 23644094.00 46675591.00 L 23407874.00 46675591.00 L 23407874.00 47069291.00 L 23644094.00 47069291.00 L 23644094.00 46675591.00  z"/>
<path id="N" d="M 18978740.00 13589764.00 L 18964944.00 13589764.00 L 18964944.00 13042913.00 L 18945922.00 12996991.00 L 18843031.00 12894100.00 L 18843031.00 12001693.00 L 17839095.00 12001693.00 L 17839095.00 12985945.00 L 18751188.00 12985945.00 L 18835056.00 13069813.00 L 18835056.00 13589764.00 L 18821260.00 13589764.00 L 18821260.00 13904724.00 L 18978740.00 13904724.00 L 18978740.00 13589764.00  z"/>
<path id="N" d="M 27783186.94 49427950.94 m -200709.51 0 a 200709.51 200709.51 0 1 1 401419.02 0a 200709.51 200709.51 0 1 1 -401419.02 0M 27783191.46 49427945.27 m -120431.73 0 a 120431.73 120431.73 0 1 1 240863.46 0a 120431.73 120431.73 0 1 1 -240863.46 0"/>
<path id="N" d="M 33378740.00 7417700.00 L 33953148.00 7417700.00 L 33999070.00 7398678.00 L 34014678.00 7383070.00 L 34277164.00 7383070.00 L 34277164.00 7107480.00 L 33922834.00 7107480.00 L 33922834.00 7287812.00 L 33378740.00 7287812.00 L 33378740.00 7195276.00 L 33221260.00 7195276.00 L 33221260.00 7510236.00 L 33378740.00 7510236.00 L 33378740.00 7417700.00  z"/>
<path id="N" d="M 34028740.00 36895276.00 L 33871260.00 36895276.00 L 33871260.00 37210236.00 L 34028740.00 37210236.00 L 34028740.00 36895276.00  z"/>
<path id="N" d="M 31054724.00 9721260.00 L 30739764.00 9721260.00 L 30739764.00 9878740.00 L 31054724.00 9878740.00 L 31054724.00 9721260.00  z"/>
<path id="N" d="M 34278740.00 43845276.00 L 34121260.00 43845276.00 L 34121260.00 44160236.00 L 34278740.00 44160236.00 L 34278740.00 43845276.00  z"/>
<path id="N" d="M 33878740.00 22945276.00 L 33721260.00 22945276.00 L 33721260.00 23260236.00 L 33878740.00 23260236.00 L 33878740.00 22945276.00  z"/>
<path id="N" d="M 33278740.00 31895276.00 L 33121260.00 31895276.00 L 33121260.00 32210236.00 L 33278740.00 32210236.00 L 33278740.00 31895276.00  z"/>
<path id="N" d="M 12846178.94 49427950.94 m -200709.51 0 a 200709.51 200709.51 0 1 1 401419.02 0a 200709.51 200709.51 0 1 1 -401419.02 0M 12846183.46 49427945.27 m -120431.73 0 a 120431.73 120431.73 0 1 1 240863.46 0a 120431.73 120431.73 0 1 1 -240863.46 0"/>
<path id="N" d="M 11628740.00 6987119.00 L 12445921.00 6169938.00 L 12464943.00 6124016.00 L 12464943.00 5283070.00 L 12577164.00 5283070.00 L 12577164.00 5007480.00 L 12222834.00 5007480.00 L 12222834.00 5283070.00 L 12310265.02 5283070.00 L 12322203.00 5288015.00 L 12335055.00 5283070.00 L 12335055.00 6097116.00 L 11536895.00 6895276.00 L 11471260.00 6895276.00 L 11471260.00 7210236.00 L 11628740.00 7210236.00 L 11628740.00 6987119.00  z"/>
<path id="N" d="M 11728740.00 29395276.00 L 11571260.00 29395276.00 L 11571260.00 29710236.00 L 11728740.00 29710236.00 L 11728740.00 29395276.00  z"/>
<path id="N" d="M 11928740.00 43945276.00 L 11771260.00 43945276.00 L 11771260.00 44260236.00 L 11928740.00 44260236.00 L 11928740.00 43945276.00  z"/>
<path id="N" d="M 11728740.00 36995276.00 L 11571260.00 36995276.00 L 11571260.00 37310236.00 L 11728740.00 37310236.00 L 11728740.00 36995276.00  z"/>
<path id="N" d="M 11728740.00 21745276.00 L 11571260.00 21745276.00 L 11571260.00 22060236.00 L 11728740.00 22060236.00 L 11728740.00 21745276.00  z"/>
<path id="N" d="M 11678740.00 14345276.00 L 11521260.00 14345276.00 L 11521260.00 14660236.00 L 11678740.00 14660236.00 L 11678740.00 14345276.00  z"/>
<path id="N" d="M 26578740.00 36039764.00 L 26493197.98 36039764.00 L 26481260.00 36034819.00 L 26429419.97 36034819.00 L 25856007.00 35461406.97 L 25856007.00 35335945.00 L 26293031.00 35335945.00 L 26293031.00 34351693.00 L 25289095.00 34351693.00 L 25289095.00 35335945.00 L 25726119.00 35335945.00 L 25726119.00 35488307.00 L 25745141.00 35534229.00 L 26356596.00 36145685.00 L 26402519.00 36164707.00 L 26421260.00 36164707.00 L 26421260.00 36354724.00 L 26578740.00 36354724.00 L 26578740.00 36039764.00  z"/>
<path id="N" d="M 41278740.00 9639764.00 L 41213105.00 9639764.00 L 41197976.00 9624635.00 L 41197976.00 9200945.00 L 41193031.00 9189007.02 L 41193031.00 8276693.00 L 40189095.00 8276693.00 L 40189095.00 9260945.00 L 41068088.00 9260945.00 L 41068088.00 9651535.00 L 41087110.00 9697457.00 L 41121260.00 9731607.00 L 41121260.00 9954724.00 L 41278740.00 9954724.00 L 41278740.00 9639764.00  z"/>
<path id="N" d="M 25468110.00 44730709.00 L 25231890.00 44730709.00 L 25231890.00 45124409.00 L 25468110.00 45124409.00 L 25468110.00 44730709.00  z"/>
<path id="N" d="M 29575709.00 7953268.00 L 28788307.00 7953268.00 L 28788307.00 8248544.00 L 29575709.00 8248544.00 L 29575709.00 7953268.00  z"/>
<path id="N" d="M 29575709.00 45203268.00 L 28788307.00 45203268.00 L 28788307.00 45498544.00 L 29575709.00 45498544.00 L 29575709.00 45203268.00  z"/>
<path id="N" d="M 29575709.00 22853268.00 L 28788307.00 22853268.00 L 28788307.00 23148544.00 L 29575709.00 23148544.00 L 29575709.00 22853268.00  z"/>
<path id="N" d="M 29575709.00 15403268.00 L 28788307.00 15403268.00 L 28788307.00 15698544.00 L 29575709.00 15698544.00 L 29575709.00 15403268.00  z"/>
<path id="N" d="M 29575709.00 37753268.00 L 28788307.00 37753268.00 L 28788307.00 38048544.00 L 29575709.00 38048544.00 L 29575709.00 37753268.00  z"/>
<path id="N" d="M 29575709.00 30303268.00 L 28788307.00 30303268.00 L 28788307.00 30598544.00 L 29575709.00 30598544.00 L 29575709.00 30303268.00  z"/>
<path id="N" d="M 38868110.00 45680709.00 L 38631890.00 45680709.00 L 38631890.00 46074409.00 L 38868110.00 46074409.00 L 38868110.00 45680709.00  z"/>
<path id="N" d="M 39191063.00 26578268.00 L 38403661.00 26578268.00 L 38403661.00 26873544.00 L 39191063.00 26873544.00 L 39191063.00 26578268.00  z"/>
<path id="N" d="M 39191063.00 37753268.00 L 38403661.00 37753268.00 L 38403661.00 38048544.00 L 39191063.00 38048544.00 L 39191063.00 37753268.00  z"/>
<path id="N" d="M 39191063.00 11678268.00 L 38403661.00 11678268.00 L 38403661.00 11973544.00 L 39191063.00 11973544.00 L 39191063.00 11678268.00  z"/>
<path id="N" d="M 39191063.00 45203268.00 L 38403661.00 45203268.00 L 38403661.00 45498544.00 L 39191063.00 45498544.00 L 39191063.00 45203268.00  z"/>
<path id="N" d="M 39191063.00 44632401.00 L 38403661.00 44632401.00 L 38403661.00 44927677.00 L 39191063.00 44927677.00 L 39191063.00 44632401.00  z"/>
<path id="N" d="M 39191063.00 37182401.00 L 38403661.00 37182401.00 L 38403661.00 37477677.00 L 39191063.00 37477677.00 L 39191063.00 37182401.00  z"/>
<path id="N" d="M 39191063.00 11107401.00 L 38403661.00 11107401.00 L 38403661.00 11402677.00 L 39191063.00 11402677.00 L 39191063.00 11107401.00  z"/>
<path id="N" d="M 32918110.00 44630709.00 L 32681890.00 44630709.00 L 32681890.00 45024409.00 L 32918110.00 45024409.00 L 32918110.00 44630709.00  z"/>
<path id="N" d="M 39191063.00 26007401.00 L 38403661.00 26007401.00 L 38403661.00 26302677.00 L 39191063.00 26302677.00 L 39191063.00 26007401.00  z"/>
<path id="N" d="M 31783186.94 49427950.94 m -200709.51 0 a 200709.51 200709.51 0 1 1 401419.02 0a 200709.51 200709.51 0 1 1 -401419.02 0M 31783191.46 49427945.27 m -120431.73 0 a 120431.73 120431.73 0 1 1 240863.46 0a 120431.73 120431.73 0 1 1 -240863.46 0"/>
<path id="N" d="M 33624409.00 9207874.00 L 33230709.00 9207874.00 L 33230709.00 9444094.00 L 33624409.00 9444094.00 L 33624409.00 9207874.00  z"/>
<path id="N" d="M 28283186.94 49427950.94 m -200709.51 0 a 200709.51 200709.51 0 1 1 401419.02 0a 200709.51 200709.51 0 1 1 -401419.02 0M 28283191.46 49427945.27 m -120431.73 0 a 120431.73 120431.73 0 1 1 240863.46 0a 120431.73 120431.73 0 1 1 -240863.46 0"/>
<path id="N" d="M 32544094.00 45575591.00 L 32307874.00 45575591.00 L 32307874.00 45969291.00 L 32544094.00 45969291.00 L 32544094.00 45575591.00  z"/>
<path id="N" d="M 39242125.00 46625591.00 L 39005905.00 46625591.00 L 39005905.00 47019291.00 L 39242125.00 47019291.00 L 39242125.00 46625591.00  z"/>
<path id="N" d="M 35574409.00 48181890.00 L 35180709.00 48181890.00 L 35180709.00 48418110.00 L 35574409.00 48418110.00 L 35574409.00 48181890.00  z"/>
<path id="N" d="M 13792125.00 46675591.00 L 13555905.00 46675591.00 L 13555905.00 47069291.00 L 13792125.00 47069291.00 L 13792125.00 46675591.00  z"/>
<path id="N" d="M 9492125.00 46675591.00 L 9255905.00 46675591.00 L 9255905.00 47069291.00 L 9492125.00 47069291.00 L 9492125.00 46675591.00  z"/>
<path id="N" d="M 31842125.00 46675591.00 L 31605905.00 46675591.00 L 31605905.00 47069291.00 L 31842125.00 47069291.00 L 31842125.00 46675591.00  z"/>
<path id="N" d="M 24392125.00 46675591.00 L 24155905.00 46675591.00 L 24155905.00 47069291.00 L 24392125.00 47069291.00 L 24392125.00 46675591.00  z"/>
<path id="N" d="M 29283186.94 49427950.94 m -200709.51 0 a 200709.51 200709.51 0 1 1 401419.02 0a 200709.51 200709.51 0 1 1 -401419.02 0M 29283191.46 49427945.27 m -120431.73 0 a 120431.73 120431.73 0 1 1 240863.46 0a 120431.73 120431.73 0 1 1 -240863.46 0"/>
<path id="N" d="M 34044094.00 45575591.00 L 33807874.00 45575591.00 L 33807874.00 45969291.00 L 34044094.00 45969291.00 L 34044094.00 45575591.00  z"/>
<path id="N" d="M 17846178.94 49427950.94 m -200709.51 0 a 200709.51 200709.51 0 1 1 401419.02 0a 200709.51 200709.51 0 1 1 -401419.02 0M 17846183.46 49427945.27 m -120431.73 0 a 120431.73 120431.73 0 1 1 240863.46 0a 120431.73 120431.73 0 1 1 -240863.46 0"/>
<path id="N" d="M 18978740.00 14587119.00 L 19345921.00 14219938.00 L 19364943.00 14174016.00 L 19364943.00 13183070.00 L 19477164.00 13183070.00 L 19477164.00 12907480.00 L 19122834.00 12907480.00 L 19122834.00 13183070.00 L 19235055.00 13183070.00 L 19235055.00 14147116.00 L 18886895.00 14495276.00 L 18821260.00 14495276.00 L 18821260.00 14810236.00 L 18978740.00 14810236.00 L 18978740.00 14587119.00  z"/>
<path id="N" d="M 19128740.00 36995276.00 L 18971260.00 36995276.00 L 18971260.00 37310236.00 L 19128740.00 37310236.00 L 19128740.00 36995276.00  z"/>
<path id="N" d="M 19378740.00 43895276.00 L 19221260.00 43895276.00 L 19221260.00 44210236.00 L 19378740.00 44210236.00 L 19378740.00 43895276.00  z"/>
<path id="N" d="M 19128740.00 21695276.00 L 18971260.00 21695276.00 L 18971260.00 22010236.00 L 19128740.00 22010236.00 L 19128740.00 21695276.00  z"/>
<path id="N" d="M 19128740.00 29395276.00 L 18971260.00 29395276.00 L 18971260.00 29710236.00 L 19128740.00 29710236.00 L 19128740.00 29395276.00  z"/>
<path id="N" d="M 26668110.00 15830709.00 L 26431890.00 15830709.00 L 26431890.00 16224409.00 L 26668110.00 16224409.00 L 26668110.00 15830709.00  z"/>
<path id="N" d="M 14675709.00 14832401.00 L 13888307.00 14832401.00 L 13888307.00 15127677.00 L 14675709.00 15127677.00 L 14675709.00 14832401.00  z"/>
<path id="N" d="M 22125709.00 14832401.00 L 21338307.00 14832401.00 L 21338307.00 15127677.00 L 22125709.00 15127677.00 L 22125709.00 14832401.00  z"/>
<path id="N" d="M 7225709.00 14832401.00 L 6438307.00 14832401.00 L 6438307.00 15127677.00 L 7225709.00 15127677.00 L 7225709.00 14832401.00  z"/>
<path id="N" d="M 29575709.00 14832401.00 L 28788307.00 14832401.00 L 28788307.00 15127677.00 L 29575709.00 15127677.00 L 29575709.00 14832401.00  z"/>
<path id="N" d="M 11928740.00 43039764.00 L 11843197.98 43039764.00 L 11831260.00 43034819.00 L 11733750.00 43034819.00 L 11393031.00 42694100.00 L 11393031.00 41801693.00 L 10389095.00 41801693.00 L 10389095.00 42785945.00 L 11301188.00 42785945.00 L 11660928.00 43145685.00 L 11706850.00 43164707.00 L 11771260.00 43164707.00 L 11771260.00 43354724.00 L 11928740.00 43354724.00 L 11928740.00 43039764.00  z"/>
<path id="N" d="M 34464678.71 19968806.36 m -788850.81 0 a 788850.81 788850.81 0 1 1 1577701.62 0a 788850.81 788850.81 0 1 1 -1577701.62 0M 34464688.67 19968804.16 m -788812.84 0 a 788812.84 788812.84 0 1 1 1577625.67 0a 788812.84 788812.84 0 1 1 -1577625.67 0"/>
<path id="N" d="M 34464678.71 14468806.36 m -788850.81 0 a 788850.81 788850.81 0 1 1 1577701.62 0a 788850.81 788850.81 0 1 1 -1577701.62 0M 34464688.67 14468804.16 m -788812.84 0 a 788812.84 788812.84 0 1 1 1577625.67 0a 788812.84 788812.84 0 1 1 -1577625.67 0"/>
<path id="N" d="M 14389678.71 9293806.36 m -788850.81 0 a 788850.81 788850.81 0 1 1 1577701.62 0a 788850.81 788850.81 0 1 1 -1577701.62 0M 14389688.67 9293804.16 m -788812.84 0 a 788812.84 788812.84 0 1 1 1577625.67 0a 788812.84 788812.84 0 1 1 -1577625.67 0"/>
<path id="N" d="M 23789678.71 9293806.36 m -788850.81 0 a 788850.81 788850.81 0 1 1 1577701.62 0a 788850.81 788850.81 0 1 1 -1577701.62 0M 23789688.67 9293804.16 m -788812.84 0 a 788812.84 788812.84 0 1 1 1577625.67 0a 788812.84 788812.84 0 1 1 -1577625.67 0"/>
<path id="N" d="M 34464678.71 29368806.36 m -788850.81 0 a 788850.81 788850.81 0 1 1 1577701.62 0a 788850.81 788850.81 0 1 1 -1577701.62 0M 34464688.67 29368804.16 m -788812.84 0 a 788812.84 788812.84 0 1 1 1577625.67 0a 788812.84 788812.84 0 1 1 -1577625.67 0"/>
<path id="N" d="M 34464678.71 5068806.36 m -788850.81 0 a 788850.81 788850.81 0 1 1 1577701.62 0a 788850.81 788850.81 0 1 1 -1577701.62 0M 34464688.67 5068804.16 m -788812.84 0 a 788812.84 788812.84 0 1 1 1577625.67 0a 788812.84 788812.84 0 1 1 -1577625.67 0"/>
<path id="N" d="M 18846178.94 49427950.94 m -200709.51 0 a 200709.51 200709.51 0 1 1 401419.02 0a 200709.51 200709.51 0 1 1 -401419.02 0M 18846183.46 49427945.27 m -120431.73 0 a 120431.73 120431.73 0 1 1 240863.46 0a 120431.73 120431.73 0 1 1 -240863.46 0"/>
<path id="N" d="M 20346178.94 49427950.94 m -200709.51 0 a 200709.51 200709.51 0 1 1 401419.02 0a 200709.51 200709.51 0 1 1 -401419.02 0M 20346183.46 49427945.27 m -120431.73 0 a 120431.73 120431.73 0 1 1 240863.46 0a 120431.73 120431.73 0 1 1 -240863.46 0"/>
<path id="N" d="M 11728740.00 36089764.00 L 11714944.00 36089764.00 L 11714944.00 35602756.00 L 11695922.00 35556833.00 L 11393031.00 35253942.96 L 11393031.00 34351693.00 L 10389095.00 34351693.00 L 10389095.00 35335945.00 L 11291344.99 35335945.00 L 11585056.00 35629656.94 L 11585056.00 36089764.00 L 11571260.00 36089764.00 L 11571260.00 36404724.00 L 11728740.00 36404724.00 L 11728740.00 36089764.00  z"/>
<path id="N" d="M 22125709.00 37182401.00 L 21338307.00 37182401.00 L 21338307.00 37477677.00 L 22125709.00 37477677.00 L 22125709.00 37182401.00  z"/>
<path id="N" d="M 37025709.00 37182401.00 L 36238307.00 37182401.00 L 36238307.00 37477677.00 L 37025709.00 37477677.00 L 37025709.00 37182401.00  z"/>
<path id="N" d="M 14675709.00 37182401.00 L 13888307.00 37182401.00 L 13888307.00 37477677.00 L 14675709.00 37477677.00 L 14675709.00 37182401.00  z"/>
<path id="N" d="M 7225709.00 37182401.00 L 6438307.00 37182401.00 L 6438307.00 37477677.00 L 7225709.00 37477677.00 L 7225709.00 37182401.00  z"/>
<path id="N" d="M 29575709.00 37182401.00 L 28788307.00 37182401.00 L 28788307.00 37477677.00 L 29575709.00 37477677.00 L 29575709.00 37182401.00  z"/>
<path id="N" d="M 36324409.00 39431890.00 L 35930709.00 39431890.00 L 35930709.00 39668110.00 L 36324409.00 39668110.00 L 36324409.00 39431890.00  z"/>
<path id="N" d="M 32283186.94 49427950.94 m -200709.51 0 a 200709.51 200709.51 0 1 1 401419.02 0a 200709.51 200709.51 0 1 1 -401419.02 0M 32283191.46 49427945.27 m -120431.73 0 a 120431.73 120431.73 0 1 1 240863.46 0a 120431.73 120431.73 0 1 1 -240863.46 0"/>
<path id="N" d="M 26294094.00 16775591.00 L 26057874.00 16775591.00 L 26057874.00 17169291.00 L 26294094.00 17169291.00 L 26294094.00 16775591.00  z"/>
<path id="N" d="M 26628740.00 28539764.00 L 26614944.00 28539764.00 L 26614944.00 28142913.00 L 26595922.00 28096991.00 L 26293031.00 27794100.00 L 26293031.00 26901693.00 L 25289095.00 26901693.00 L 25289095.00 27885945.00 L 26201188.00 27885945.00 L 26485056.00 28169813.00 L 26485056.00 28539764.00 L 26471260.00 28539764.00 L 26471260.00 28854724.00 L 26628740.00 28854724.00 L 26628740.00 28539764.00  z"/>
<path id="N" d="M 19128740.00 20789764.00 L 18971260.00 20789764.00 L 18971260.00 21104724.00 L 19128740.00 21104724.00 L 19128740.00 20789764.00  z"/>
<path id="N" d="M 18843031.00 19451693.00 L 17839095.00 19451693.00 L 17839095.00 20435945.00 L 18843031.00 20435945.00 L 18843031.00 19451693.00  z"/>
<path id="N" d="M 16841063.00 30303268.00 L 16053661.00 30303268.00 L 16053661.00 30598544.00 L 16841063.00 30598544.00 L 16841063.00 30303268.00  z"/>
<path id="N" d="M 16841063.00 45203268.00 L 16053661.00 45203268.00 L 16053661.00 45498544.00 L 16841063.00 45498544.00 L 16841063.00 45203268.00  z"/>
<path id="N" d="M 16841063.00 22853268.00 L 16053661.00 22853268.00 L 16053661.00 23148544.00 L 16841063.00 23148544.00 L 16841063.00 22853268.00  z"/>
<path id="N" d="M 16841063.00 15403268.00 L 16053661.00 15403268.00 L 16053661.00 15698544.00 L 16841063.00 15698544.00 L 16841063.00 15403268.00  z"/>
<path id="N" d="M 16841063.00 37753268.00 L 16053661.00 37753268.00 L 16053661.00 38048544.00 L 16841063.00 38048544.00 L 16841063.00 37753268.00  z"/>
<path id="N" d="M 13418110.00 45730709.00 L 13181890.00 45730709.00 L 13181890.00 46124409.00 L 13418110.00 46124409.00 L 13418110.00 45730709.00  z"/>
<path id="N" d="M 26828740.00 42989764.00 L 26743197.98 42989764.00 L 26731260.00 42984819.00 L 26583750.97 42984819.00 L 26293031.00 42694099.41 L 26293031.00 41801693.00 L 25289095.00 41801693.00 L 25289095.00 42785945.00 L 26201187.41 42785945.00 L 26510927.00 43095685.00 L 26556850.00 43114707.00 L 26671260.00 43114707.00 L 26671260.00 43304724.00 L 26828740.00 43304724.00 L 26828740.00 42989764.00  z"/>
<path id="N" d="M 14675709.00 22282401.00 L 13888307.00 22282401.00 L 13888307.00 22577677.00 L 14675709.00 22577677.00 L 14675709.00 22282401.00  z"/>
<path id="N" d="M 7225709.00 22282401.00 L 6438307.00 22282401.00 L 6438307.00 22577677.00 L 7225709.00 22577677.00 L 7225709.00 22282401.00  z"/>
<path id="N" d="M 34474409.00 26331890.00 L 34080709.00 26331890.00 L 34080709.00 26568110.00 L 34474409.00 26568110.00 L 34474409.00 26331890.00  z"/>
<path id="N" d="M 22125709.00 22282401.00 L 21338307.00 22282401.00 L 21338307.00 22577677.00 L 22125709.00 22577677.00 L 22125709.00 22282401.00  z"/>
<path id="N" d="M 37025709.00 26007401.00 L 36238307.00 26007401.00 L 36238307.00 26302677.00 L 37025709.00 26302677.00 L 37025709.00 26007401.00  z"/>
<path id="N" d="M 29575709.00 22282401.00 L 28788307.00 22282401.00 L 28788307.00 22577677.00 L 29575709.00 22577677.00 L 29575709.00 22282401.00  z"/>
<path id="N" d="M 18346178.94 49427950.94 m -200709.51 0 a 200709.51 200709.51 0 1 1 401419.02 0a 200709.51 200709.51 0 1 1 -401419.02 0M 18346183.46 49427945.27 m -120431.73 0 a 120431.73 120431.73 0 1 1 240863.46 0a 120431.73 120431.73 0 1 1 -240863.46 0"/>
<path id="N" d="M 19994094.00 45625591.00 L 19757874.00 45625591.00 L 19757874.00 46019291.00 L 19994094.00 46019291.00 L 19994094.00 45625591.00  z"/>
<path id="N" d="M 8798031.00 49250394.00 L 7301969.00 49250394.00 L 7301969.00 50049606.00 L 8798031.00 50049606.00 L 8798031.00 49250394.00  z"/>
<path id="N" d="M 12024016.00 47141339.00 L 11787796.00 47141339.00 L 11787796.00 47456299.00 L 12024016.00 47456299.00 L 12024016.00 47141339.00  z"/>
<path id="N" d="M 8483071.00 47322834.00 L 8207481.00 47322834.00 L 8207481.00 47677164.00 L 8483071.00 47677164.00 L 8483071.00 47322834.00  z"/>
<path id="N" d="M 11846850.00 48086221.00 L 11453150.00 48086221.00 L 11453150.00 48361811.00 L 11846850.00 48361811.00 L 11846850.00 48086221.00  z"/>
<path id="N" d="M 9842126.00 47730709.00 L 9605906.00 47730709.00 L 9605906.00 48124409.00 L 9842126.00 48124409.00 L 9842126.00 47730709.00  z"/>
<path id="N" d="M 8569291.00 47957875.00 L 8175591.00 47957875.00 L 8175591.00 48194095.00 L 8569291.00 48194095.00 L 8569291.00 47957875.00  z"/>
<path id="N" d="M 11846178.94 49427950.94 m -200709.51 0 a 200709.51 200709.51 0 1 1 401419.02 0a 200709.51 200709.51 0 1 1 -401419.02 0M 11846183.46 49427945.27 m -120431.73 0 a 120431.73 120431.73 0 1 1 240863.46 0a 120431.73 120431.73 0 1 1 -240863.46 0"/>
<path id="N" d="M 8744094.00 46675591.00 L 8507874.00 46675591.00 L 8507874.00 47069291.00 L 8744094.00 47069291.00 L 8744094.00 46675591.00  z"/>
<path id="N" d="M 28783186.94 49427950.94 m -200709.51 0 a 200709.51 200709.51 0 1 1 401419.02 0a 200709.51 200709.51 0 1 1 -401419.02 0M 28783191.46 49427945.27 m -120431.73 0 a 120431.73 120431.73 0 1 1 240863.46 0a 120431.73 120431.73 0 1 1 -240863.46 0"/>
<path id="N" d="M 38494094.00 46625591.00 L 38257874.00 46625591.00 L 38257874.00 47019291.00 L 38494094.00 47019291.00 L 38494094.00 46625591.00  z"/>
<path id="N" d="M 27283186.94 49427950.94 m -200709.51 0 a 200709.51 200709.51 0 1 1 401419.02 0a 200709.51 200709.51 0 1 1 -401419.02 0M 27283191.46 49427945.27 m -120431.73 0 a 120431.73 120431.73 0 1 1 240863.46 0a 120431.73 120431.73 0 1 1 -240863.46 0"/>
<path id="N" d="M 25094094.00 45675591.00 L 24857874.00 45675591.00 L 24857874.00 46069291.00 L 25094094.00 46069291.00 L 25094094.00 45675591.00  z"/>
<path id="N" d="M 41278740.00 35889764.00 L 41193197.98 35889764.00 L 41181260.00 35884819.00 L 41151781.96 35884819.00 L 40756007.00 35489044.96 L 40756007.00 35335945.00 L 41193031.00 35335945.00 L 41193031.00 34351693.00 L 40189095.00 34351693.00 L 40189095.00 35335945.00 L 40626119.00 35335945.00 L 40626119.00 35515945.00 L 40645141.00 35561867.00 L 41078958.00 35995685.00 L 41121260.00 36013207.09 L 41121260.00 36204724.00 L 41278740.00 36204724.00 L 41278740.00 35889764.00  z"/>
<path id="N" d="M 7225709.00 30303268.00 L 6438307.00 30303268.00 L 6438307.00 30598544.00 L 7225709.00 30598544.00 L 7225709.00 30303268.00  z"/>
<path id="N" d="M 7225709.00 37753268.00 L 6438307.00 37753268.00 L 6438307.00 38048544.00 L 7225709.00 38048544.00 L 7225709.00 37753268.00  z"/>
<path id="N" d="M 6968110.00 45730709.00 L 6731890.00 45730709.00 L 6731890.00 46124409.00 L 6968110.00 46124409.00 L 6968110.00 45730709.00  z"/>
<path id="N" d="M 7225709.00 7953268.00 L 6438307.00 7953268.00 L 6438307.00 8248544.00 L 7225709.00 8248544.00 L 7225709.00 7953268.00  z"/>
<path id="N" d="M 7225709.00 45203268.00 L 6438307.00 45203268.00 L 6438307.00 45498544.00 L 7225709.00 45498544.00 L 7225709.00 45203268.00  z"/>
<path id="N" d="M 7225709.00 22853268.00 L 6438307.00 22853268.00 L 6438307.00 23148544.00 L 7225709.00 23148544.00 L 7225709.00 22853268.00  z"/>
<path id="N" d="M 7225709.00 15403268.00 L 6438307.00 15403268.00 L 6438307.00 15698544.00 L 7225709.00 15698544.00 L 7225709.00 15403268.00  z"/>
<path id="N" d="M 24291063.00 37753268.00 L 23503661.00 37753268.00 L 23503661.00 38048544.00 L 24291063.00 38048544.00 L 24291063.00 37753268.00  z"/>
<path id="N" d="M 24291063.00 45203268.00 L 23503661.00 45203268.00 L 23503661.00 45498544.00 L 24291063.00 45498544.00 L 24291063.00 45203268.00  z"/>
<path id="N" d="M 24291063.00 30303268.00 L 23503661.00 30303268.00 L 23503661.00 30598544.00 L 24291063.00 30598544.00 L 24291063.00 30303268.00  z"/>
<path id="N" d="M 24291063.00 22853268.00 L 23503661.00 22853268.00 L 23503661.00 23148544.00 L 24291063.00 23148544.00 L 24291063.00 22853268.00  z"/>
<path id="N" d="M 24018110.00 45730709.00 L 23781890.00 45730709.00 L 23781890.00 46124409.00 L 24018110.00 46124409.00 L 24018110.00 45730709.00  z"/>
<path id="N" d="M 24291063.00 15403268.00 L 23503661.00 15403268.00 L 23503661.00 15698544.00 L 24291063.00 15698544.00 L 24291063.00 15403268.00  z"/>
<path id="N" d="M 20566063.00 7953268.00 L 19778661.00 7953268.00 L 19778661.00 8248544.00 L 20566063.00 8248544.00 L 20566063.00 7953268.00  z"/>
<path id="N" d="M 22769291.00 49505906.00 L 22375591.00 49505906.00 L 22375591.00 49742126.00 L 22769291.00 49742126.00 L 22769291.00 49505906.00  z"/>
<path id="N" d="M 23668110.00 49475591.00 L 23431890.00 49475591.00 L 23431890.00 49869291.00 L 23668110.00 49869291.00 L 23668110.00 49475591.00  z"/>
<path id="N" d="M 23692520.00 47722834.00 L 23416930.00 47722834.00 L 23416930.00 48077164.00 L 23692520.00 48077164.00 L 23692520.00 47722834.00  z"/>
<path id="N" d="M 35740275.00 7374995.00 L 35954072.00 7161198.00 L 35970648.00 7136390.00 L 35976469.00 7107126.00 L 35976469.00 4450000.00 L 35970648.00 4420736.00 L 35954072.00 4395928.00 L 34454072.00 2895928.00 L 34429264.00 2879352.00 L 34400000.00 2873531.00 L 28891969.00 2873530.00 L 28862706.00 2879352.00 L 28837897.00 2895928.00 L 28182132.00 3551693.00 L 27286339.00 3551693.00 L 27286339.00 4323531.00 L 23231675.00 4323531.00 L 21971041.00 3062897.00 L 21946233.00 3046321.00 L 21916969.00 3040500.00 L 17550000.00 3040500.00 L 17520736.00 3046321.00 L 17495928.00 3062897.00 L 17007132.00 3551693.00 L 16111339.00 3551693.00 L 16111339.00 4373531.00 L 13881675.00 4373531.00 L 12204072.00 2695928.00 L 12179264.00 2679352.00 L 12150000.00 2673531.00 L 6741969.00 2673531.00 L 6712706.00 2679352.00 L 6687894.99 2695931.01 L 5832132.34 3551693.00 L 4936339.00 3551693.00 L 4936339.00 4535945.00 L 5940275.00 4535945.00 L 5940275.00 3659837.66 L 6773643.02 2826469.00 L 12118325.00 2826469.00 L 13795928.00 4504072.00 L 13820736.00 4520648.00 L 13850000.00 4526469.00 L 16111339.00 4526469.00 L 16111339.00 4535945.00 L 17115275.00 4535945.00 L 17115275.00 3659838.00 L 17581675.00 3193438.00 L 21885294.00 3193438.00 L 23145928.00 4454072.00 L 23170736.00 4470648.00 L 23200000.00 4476469.00 L 27286339.00 4476469.00 L 27286339.00 4535945.00 L 28290275.00 4535945.00 L 28290275.00 3659838.00 L 28923644.00 3026469.00 L 34368325.00 3026469.00 L 35823531.00 4481675.00 L 35823531.00 7075451.00 L 35622289.00 7276693.00 L 34736339.00 7276693.00 L 34736339.00 8260945.00 L 35740275.00 8260945.00 L 35740275.00 7374995.00  z"/>
<path id="N" d="M 13346178.94 49427950.94 m -200709.51 0 a 200709.51 200709.51 0 1 1 401419.02 0a 200709.51 200709.51 0 1 1 -401419.02 0M 13346183.46 49427945.27 m -120431.73 0 a 120431.73 120431.73 0 1 1 240863.46 0a 120431.73 120431.73 0 1 1 -240863.46 0"/>
<path id="N" d="M 22698031.00 46950394.00 L 21201969.00 46950394.00 L 21201969.00 47749606.00 L 22698031.00 47749606.00 L 22698031.00 46950394.00  z"/>
<path id="N" d="M 25496850.00 48286221.00 L 25103150.00 48286221.00 L 25103150.00 48561811.00 L 25496850.00 48561811.00 L 25496850.00 48286221.00  z"/>
<path id="N" d="M 25674016.00 47341339.00 L 25437796.00 47341339.00 L 25437796.00 47656299.00 L 25674016.00 47656299.00 L 25674016.00 47341339.00  z"/>
<path id="N" d="M 24042126.00 48530709.00 L 23805906.00 48530709.00 L 23805906.00 48924409.00 L 24042126.00 48924409.00 L 24042126.00 48530709.00  z"/>
<path id="N" d="M 22683071.00 48122834.00 L 22407481.00 48122834.00 L 22407481.00 48477164.00 L 22683071.00 48477164.00 L 22683071.00 48122834.00  z"/>
<path id="N" d="M 22769291.00 48757875.00 L 22375591.00 48757875.00 L 22375591.00 48994095.00 L 22769291.00 48994095.00 L 22769291.00 48757875.00  z"/>
<path id="N" d="M 22125709.00 29732401.00 L 21338307.00 29732401.00 L 21338307.00 30027677.00 L 22125709.00 30027677.00 L 22125709.00 29732401.00  z"/>
<path id="N" d="M 29575709.00 29732401.00 L 28788307.00 29732401.00 L 28788307.00 30027677.00 L 29575709.00 30027677.00 L 29575709.00 29732401.00  z"/>
<path id="N" d="M 37124409.00 31731890.00 L 36730709.00 31731890.00 L 36730709.00 31968110.00 L 37124409.00 31968110.00 L 37124409.00 31731890.00  z"/>
<path id="N" d="M 7225709.00 29732401.00 L 6438307.00 29732401.00 L 6438307.00 30027677.00 L 7225709.00 30027677.00 L 7225709.00 29732401.00  z"/>
<path id="N" d="M 14675709.00 29732401.00 L 13888307.00 29732401.00 L 13888307.00 30027677.00 L 14675709.00 30027677.00 L 14675709.00 29732401.00  z"/>
<path id="N" d="M 19846178.94 49427950.94 m -200709.51 0 a 200709.51 200709.51 0 1 1 401419.02 0a 200709.51 200709.51 0 1 1 -401419.02 0M 19846183.46 49427945.27 m -120431.73 0 a 120431.73 120431.73 0 1 1 240863.46 0a 120431.73 120431.73 0 1 1 -240863.46 0"/>
<path id="N" d="M 19346178.94 49427950.94 m -200709.51 0 a 200709.51 200709.51 0 1 1 401419.02 0a 200709.51 200709.51 0 1 1 -401419.02 0M 19346183.46 49427945.27 m -120431.73 0 a 120431.73 120431.73 0 1 1 240863.46 0a 120431.73 120431.73 0 1 1 -240863.46 0"/>
<path id="N" d="M 28742125.00 46375591.00 L 28505905.00 46375591.00 L 28505905.00 46769291.00 L 28742125.00 46769291.00 L 28742125.00 46375591.00  z"/>
<path id="N" d="M 37269291.00 39057875.00 L 36875591.00 39057875.00 L 36875591.00 39294095.00 L 37269291.00 39294095.00 L 37269291.00 39057875.00  z"/>
<path id="N" d="M 38069291.00 31357875.00 L 37675591.00 31357875.00 L 37675591.00 31594095.00 L 38069291.00 31594095.00 L 38069291.00 31357875.00  z"/>
<path id="N" d="M 27042125.00 16775591.00 L 26805905.00 16775591.00 L 26805905.00 17169291.00 L 27042125.00 17169291.00 L 27042125.00 16775591.00  z"/>
<path id="N" d="M 33624409.00 9955905.00 L 33230709.00 9955905.00 L 33230709.00 10192125.00 L 33624409.00 10192125.00 L 33624409.00 9955905.00  z"/>
<path id="N" d="M 35419291.00 25957875.00 L 35025591.00 25957875.00 L 35025591.00 26194095.00 L 35419291.00 26194095.00 L 35419291.00 25957875.00  z"/>
<path id="N" d="M 38028346.00 49122835.00 L 37752756.00 49122835.00 L 37752756.00 49477165.00 L 38028346.00 49477165.00 L 38028346.00 49122835.00  z"/>
<path id="N" d="M 10083071.00 49272834.00 L 9807481.00 49272834.00 L 9807481.00 49627164.00 L 10083071.00 49627164.00 L 10083071.00 49272834.00  z"/>
<path id="N" d="M 24283071.00 47722834.00 L 24007481.00 47722834.00 L 24007481.00 48077164.00 L 24283071.00 48077164.00 L 24283071.00 47722834.00  z"/>
<path id="N" d="M 37025709.00 11107401.00 L 36733967.00 11107401.00 L 36733967.00 9382008.00 L 36726206.00 9342990.00 L 36704104.00 9309912.00 L 36322096.00 8927904.00 L 36289018.00 8905802.00 L 36250000.00 8898041.00 L 28209391.00 8898041.00 L 27951959.00 8640609.00 L 27951959.00 7631998.00 L 28788307.00 7631998.00 L 28788307.00 7677677.00 L 29575709.00 7677677.00 L 29575709.00 7382401.00 L 28788307.00 7382401.00 L 28788307.00 7428080.00 L 23619961.00 7428080.00 L 23580943.00 7435841.00 L 23547865.00 7457943.00 L 22007767.00 8998041.00 L 16892233.00 8998041.00 L 16751959.00 8857767.00 L 16751959.00 7631998.00 L 17613307.00 7631998.00 L 17613307.00 7677677.00 L 18400709.00 7677677.00 L 18400709.00 7382401.00 L 17613307.00 7382401.00 L 17613307.00 7428080.00 L 12019961.00 7428080.00 L 11980943.00 7435841.00 L 11947865.00 7457943.00 L 10507767.00 8898041.00 L 5809391.00 8898041.00 L 5751959.00 8840609.00 L 5751959.00 7992233.00 L 6112194.00 7631998.00 L 6438307.00 7631998.00 L 6438307.00 7677677.00 L 7225709.00 7677677.00 L 7225709.00 7382401.00 L 6438307.00 7382401.00 L 6438307.00 7428080.00 L 6069961.00 7428080.00 L 6030943.00 7435841.00 L 5997865.00 7457943.00 L 5577904.00 7877904.00 L 5555802.00 7910982.00 L 5548041.00 7950000.00 L 5548041.00 8882842.00 L 5555802.00 8921860.00 L 5577904.00 8954938.00 L 5695062.00 9072096.00 L 5728140.00 9094198.00 L 5767158.00 9101959.00 L 10550000.00 9101959.00 L 10589018.00 9094198.00 L 10622096.00 9072096.00 L 12062194.00 7631998.00 L 16548041.00 7631998.00 L 16548041.00 8900000.00 L 16555802.00 8939018.00 L 16577904.00 8972096.00 L 16777904.00 9172096.00 L 16810982.00 9194198.00 L 16850000.00 9201959.00 L 22050000.00 9201959.00 L 22089018.00 9194198.00 L 22122096.00 9172096.00 L 23662194.00 7631998.00 L 27748041.00 7631998.00 L 27748041.00 8682842.00 L 27755802.00 8721860.00 L 27777904.00 8754938.00 L 28095062.00 9072096.00 L 28128140.00 9094198.00 L 28167158.00 9101959.00 L 34448041.00 9101959.00 L 34448041.00 9480208.00 L 34397196.00 9531053.00 L 34375094.00 9564131.00 L 34371561.59 9581890.00 L 34175591.00 9581890.00 L 34175591.00 9818110.00 L 34569291.00 9818110.00 L 34569291.00 9691743.79 L 34571251.00 9681890.00 L 34571251.00 9645382.00 L 34622096.00 9594537.00 L 34644198.00 9561459.00 L 34651959.00 9522441.00 L 34651959.00 9101959.00 L 36207767.00 9101959.00 L 36530049.00 9424241.00 L 36530049.00 11107401.00 L 36238307.00 11107401.00 L 36238307.00 11402677.00 L 37025709.00 11402677.00 L 37025709.00 11107401.00  z"/>
<path id="N" d="M 12346178.94 49427950.94 m -200709.51 0 a 200709.51 200709.51 0 1 1 401419.02 0a 200709.51 200709.51 0 1 1 -401419.02 0M 12346183.46 49427945.27 m -120431.73 0 a 120431.73 120431.73 0 1 1 240863.46 0a 120431.73 120431.73 0 1 1 -240863.46 0"/>
<path id="N" d="M 6594094.00 46675591.00 L 6357874.00 46675591.00 L 6357874.00 47069291.00 L 6594094.00 47069291.00 L 6594094.00 46675591.00  z"/>
<path id="N" d="M 25783186.94 49427950.94 m -200709.51 0 a 200709.51 200709.51 0 1 1 401419.02 0a 200709.51 200709.51 0 1 1 -401419.02 0M 25783191.46 49427945.27 m -120431.73 0 a 120431.73 120431.73 0 1 1 240863.46 0a 120431.73 120431.73 0 1 1 -240863.46 0"/>
<path id="N" d="M 24277164.00 6107480.00 L 23922834.00 6107480.00 L 23922834.00 6383070.00 L 24277164.00 6383070.00 L 24277164.00 6107480.00  z"/>
<path id="N" d="M 26578740.00 36945276.00 L 26421260.00 36945276.00 L 26421260.00 37260236.00 L 26578740.00 37260236.00 L 26578740.00 36945276.00  z"/>
<path id="N" d="M 26828740.00 43895276.00 L 26671260.00 43895276.00 L 26671260.00 44210236.00 L 26828740.00 44210236.00 L 26828740.00 43895276.00  z"/>
<path id="N" d="M 26578740.00 14195276.00 L 26421260.00 14195276.00 L 26421260.00 14510236.00 L 26578740.00 14510236.00 L 26578740.00 14195276.00  z"/>
<path id="N" d="M 26628740.00 21745276.00 L 26471260.00 21745276.00 L 26471260.00 22060236.00 L 26628740.00 22060236.00 L 26628740.00 21745276.00  z"/>
<path id="N" d="M 26628740.00 29445276.00 L 26471260.00 29445276.00 L 26471260.00 29760236.00 L 26628740.00 29760236.00 L 26628740.00 29445276.00  z"/>
<path id="N" d="M 22828740.00 6895276.00 L 22671260.00 6895276.00 L 22671260.00 7210236.00 L 22828740.00 7210236.00 L 22828740.00 6895276.00  z"/>
<path id="N" d="M 26783186.94 49427950.94 m -200709.51 0 a 200709.51 200709.51 0 1 1 401419.02 0a 200709.51 200709.51 0 1 1 -401419.02 0M 26783191.46 49427945.27 m -120431.73 0 a 120431.73 120431.73 0 1 1 240863.46 0a 120431.73 120431.73 0 1 1 -240863.46 0"/>
<path id="N" d="M 31094094.00 46675591.00 L 30857874.00 46675591.00 L 30857874.00 47069291.00 L 31094094.00 47069291.00 L 31094094.00 46675591.00  z"/>
<path id="N" d="M 11393031.00 19451693.00 L 10389095.00 19451693.00 L 10389095.00 20435945.00 L 11393031.00 20435945.00 L 11393031.00 19451693.00  z"/>
<path id="N" d="M 11728740.00 20839764.00 L 11571260.00 20839764.00 L 11571260.00 21154724.00 L 11728740.00 21154724.00 L 11728740.00 20839764.00  z"/>
<path id="N" d="M 32783186.94 49427950.94 m -200709.51 0 a 200709.51 200709.51 0 1 1 401419.02 0a 200709.51 200709.51 0 1 1 -401419.02 0M 32783191.46 49427945.27 m -120431.73 0 a 120431.73 120431.73 0 1 1 240863.46 0a 120431.73 120431.73 0 1 1 -240863.46 0"/>
<path id="N" d="M 35419291.00 26705906.00 L 35025591.00 26705906.00 L 35025591.00 26942126.00 L 35419291.00 26942126.00 L 35419291.00 26705906.00  z"/>
<path id="N" d="M 16346178.94 49427950.94 m -200709.51 0 a 200709.51 200709.51 0 1 1 401419.02 0a 200709.51 200709.51 0 1 1 -401419.02 0M 16346183.46 49427945.27 m -120431.73 0 a 120431.73 120431.73 0 1 1 240863.46 0a 120431.73 120431.73 0 1 1 -240863.46 0"/>
<path id="N" d="M 17094094.00 46675591.00 L 16857874.00 46675591.00 L 16857874.00 47069291.00 L 17094094.00 47069291.00 L 17094094.00 46675591.00  z"/>
<path id="N" d="M 40728740.00 26039764.00 L 40643197.98 26039764.00 L 40631260.00 26034819.00 L 40597195.00 26034819.00 L 40564944.00 26002568.00 L 40564944.00 24068819.00 L 41041063.00 24068819.00 L 41041063.00 23268819.00 L 40341063.00 23268819.00 L 40341063.00 24068819.00 L 40435056.00 24068819.00 L 40435056.00 26029468.00 L 40454078.00 26075390.00 L 40524373.00 26145685.00 L 40571260.00 26164707.00 L 40571260.00 26354724.00 L 40728740.00 26354724.00 L 40728740.00 26039764.00  z"/>
<path id="N" d="M 34028740.00 35989764.00 L 33963105.88 35989764.00 L 33747976.00 35774634.93 L 33747976.00 35275945.00 L 33743031.00 35264007.02 L 33743031.00 34351693.00 L 32739095.00 34351693.00 L 32739095.00 35335945.00 L 33618088.00 35335945.00 L 33618088.00 35801535.00 L 33637110.00 35847457.00 L 33871260.00 36081607.88 L 33871260.00 36304724.00 L 34028740.00 36304724.00 L 34028740.00 35989764.00  z"/>
<path id="N" d="M 31741063.00 7382401.00 L 30953661.00 7382401.00 L 30953661.00 7677677.00 L 31741063.00 7677677.00 L 31741063.00 7382401.00  z"/>
<path id="N" d="M 31741063.00 14832401.00 L 30953661.00 14832401.00 L 30953661.00 15127677.00 L 31741063.00 15127677.00 L 31741063.00 14832401.00  z"/>
<path id="N" d="M 31741063.00 22282401.00 L 30953661.00 22282401.00 L 30953661.00 22577677.00 L 31741063.00 22577677.00 L 31741063.00 22282401.00  z"/>
<path id="N" d="M 31741063.00 29732401.00 L 30953661.00 29732401.00 L 30953661.00 30027677.00 L 31741063.00 30027677.00 L 31741063.00 29732401.00  z"/>
<path id="N" d="M 31741063.00 37182401.00 L 30953661.00 37182401.00 L 30953661.00 37477677.00 L 31741063.00 37477677.00 L 31741063.00 37182401.00  z"/>
<path id="N" d="M 31741063.00 44632401.00 L 30953661.00 44632401.00 L 30953661.00 44927677.00 L 31741063.00 44927677.00 L 31741063.00 44632401.00  z"/>
<path id="N" d="M 26968110.00 44730709.00 L 26731890.00 44730709.00 L 26731890.00 45124409.00 L 26968110.00 45124409.00 L 26968110.00 44730709.00  z"/>
<path id="N" d="M 20368110.00 44680709.00 L 20131890.00 44680709.00 L 20131890.00 45074409.00 L 20368110.00 45074409.00 L 20368110.00 44680709.00  z"/>
<path id="N" d="M 24291063.00 22282401.00 L 23503661.00 22282401.00 L 23503661.00 22577677.00 L 24291063.00 22577677.00 L 24291063.00 22282401.00  z"/>
<path id="N" d="M 24291063.00 29732401.00 L 23503661.00 29732401.00 L 23503661.00 30027677.00 L 24291063.00 30027677.00 L 24291063.00 29732401.00  z"/>
<path id="N" d="M 20566063.00 7382401.00 L 19778661.00 7382401.00 L 19778661.00 7677677.00 L 20566063.00 7677677.00 L 20566063.00 7382401.00  z"/>
<path id="N" d="M 24291063.00 14832401.00 L 23503661.00 14832401.00 L 23503661.00 15127677.00 L 24291063.00 15127677.00 L 24291063.00 14832401.00  z"/>
<path id="N" d="M 24291063.00 37182401.00 L 23503661.00 37182401.00 L 23503661.00 37477677.00 L 24291063.00 37477677.00 L 24291063.00 37182401.00  z"/>
<path id="N" d="M 24291063.00 44632401.00 L 23503661.00 44632401.00 L 23503661.00 44927677.00 L 24291063.00 44927677.00 L 24291063.00 44632401.00  z"/>
<path id="N" d="M 33378740.00 6289764.00 L 33364944.00 6289764.00 L 33364944.00 5535945.00 L 33541063.00 5535945.00 L 33541063.00 4551693.00 L 32941063.00 4551693.00 L 32941063.00 5535945.00 L 33235056.00 5535945.00 L 33235056.00 6289764.00 L 33221260.00 6289764.00 L 33221260.00 6604724.00 L 33378740.00 6604724.00 L 33378740.00 6289764.00  z"/>
<path id="N" d="M 26578740.00 13289764.00 L 26546204.00 13289764.00 L 26546204.00 13174173.00 L 26527182.00 13128251.00 L 26293031.00 12894100.00 L 26293031.00 12001693.00 L 25289095.00 12001693.00 L 25289095.00 12985945.00 L 26201188.00 12985945.00 L 26416316.00 13201073.00 L 26416316.00 13428504.00 L 26421260.00 13440439.57 L 26421260.00 13604724.00 L 26578740.00 13604724.00 L 26578740.00 13289764.00  z"/>
<path id="N" d="M 9118110.00 45730709.00 L 8881890.00 45730709.00 L 8881890.00 46124409.00 L 9118110.00 46124409.00 L 9118110.00 45730709.00  z"/>
<path id="N" d="M 9391063.00 22853268.00 L 8603661.00 22853268.00 L 8603661.00 23148544.00 L 9391063.00 23148544.00 L 9391063.00 22853268.00  z"/>
<path id="N" d="M 9391063.00 7953268.00 L 8603661.00 7953268.00 L 8603661.00 8248544.00 L 9391063.00 8248544.00 L 9391063.00 7953268.00  z"/>
<path id="N" d="M 9391063.00 15403268.00 L 8603661.00 15403268.00 L 8603661.00 15698544.00 L 9391063.00 15698544.00 L 9391063.00 15403268.00  z"/>
<path id="N" d="M 9391063.00 30303268.00 L 8603661.00 30303268.00 L 8603661.00 30598544.00 L 9391063.00 30598544.00 L 9391063.00 30303268.00  z"/>
<path id="N" d="M 9391063.00 37753268.00 L 8603661.00 37753268.00 L 8603661.00 38048544.00 L 9391063.00 38048544.00 L 9391063.00 37753268.00  z"/>
<path id="N" d="M 9391063.00 45203268.00 L 8603661.00 45203268.00 L 8603661.00 45498544.00 L 9391063.00 45498544.00 L 9391063.00 45203268.00  z"/>
<path id="N" d="M 8569291.00 48705906.00 L 8175591.00 48705906.00 L 8175591.00 48942126.00 L 8569291.00 48942126.00 L 8569291.00 48705906.00  z"/>
<path id="N" d="M 9492520.00 49272834.00 L 9216930.00 49272834.00 L 9216930.00 49627164.00 L 9492520.00 49627164.00 L 9492520.00 49272834.00  z"/>
<path id="N" d="M 9468110.00 48675591.00 L 9231890.00 48675591.00 L 9231890.00 49069291.00 L 9468110.00 49069291.00 L 9468110.00 48675591.00  z"/>
<path id="N" d="M 33283186.94 49427950.94 m -200709.51 0 a 200709.51 200709.51 0 1 1 401419.02 0a 200709.51 200709.51 0 1 1 -401419.02 0M 33283191.46 49427945.27 m -120431.73 0 a 120431.73 120431.73 0 1 1 240863.46 0a 120431.73 120431.73 0 1 1 -240863.46 0"/>
<path id="N" d="M 38069291.00 32105906.00 L 37675591.00 32105906.00 L 37675591.00 32342126.00 L 38069291.00 32342126.00 L 38069291.00 32105906.00  z"/>
<path id="N" d="M 16846178.94 49427950.94 m -200709.51 0 a 200709.51 200709.51 0 1 1 401419.02 0a 200709.51 200709.51 0 1 1 -401419.02 0M 16846183.46 49427945.27 m -120431.73 0 a 120431.73 120431.73 0 1 1 240863.46 0a 120431.73 120431.73 0 1 1 -240863.46 0"/>
<path id="N" d="M 13044094.00 46675591.00 L 12807874.00 46675591.00 L 12807874.00 47069291.00 L 13044094.00 47069291.00 L 13044094.00 46675591.00  z"/>
<path id="N" d="M 40828740.00 43189764.00 L 40763105.44 43189764.00 L 40756007.00 43182665.68 L 40756007.00 42785945.00 L 41193031.00 42785945.00 L 41193031.00 41801693.00 L 40189095.00 41801693.00 L 40189095.00 42785945.00 L 40626119.00 42785945.00 L 40626119.00 43209566.00 L 40645141.00 43255488.00 L 40671260.00 43281607.44 L 40671260.00 43504724.00 L 40828740.00 43504724.00 L 40828740.00 43189764.00  z"/>
<path id="N" d="M 31741063.00 37753268.00 L 30953661.00 37753268.00 L 30953661.00 38048544.00 L 31741063.00 38048544.00 L 31741063.00 37753268.00  z"/>
<path id="N" d="M 31741063.00 7953268.00 L 30953661.00 7953268.00 L 30953661.00 8248544.00 L 31741063.00 8248544.00 L 31741063.00 7953268.00  z"/>
<path id="N" d="M 31741063.00 45203268.00 L 30953661.00 45203268.00 L 30953661.00 45498544.00 L 31741063.00 45498544.00 L 31741063.00 45203268.00  z"/>
<path id="N" d="M 31741063.00 30303268.00 L 30953661.00 30303268.00 L 30953661.00 30598544.00 L 31741063.00 30598544.00 L 31741063.00 30303268.00  z"/>
<path id="N" d="M 31468110.00 45730709.00 L 31231890.00 45730709.00 L 31231890.00 46124409.00 L 31468110.00 46124409.00 L 31468110.00 45730709.00  z"/>
<path id="N" d="M 31741063.00 22853268.00 L 30953661.00 22853268.00 L 30953661.00 23148544.00 L 31741063.00 23148544.00 L 31741063.00 22853268.00  z"/>
<path id="N" d="M 31741063.00 15403268.00 L 30953661.00 15403268.00 L 30953661.00 15698544.00 L 31741063.00 15698544.00 L 31741063.00 15403268.00  z"/>
<path id="N" d="M 28290275.00 11001693.00 L 27853251.00 11001693.00 L 27853251.00 10538307.00 L 27834230.00 10492385.00 L 27245922.00 9904078.00 L 27200000.00 9885056.00 L 25150000.00 9885056.00 L 25104077.00 9904078.00 L 24573099.97 10435056.00 L 21341969.00 10435056.00 L 21296046.00 10454078.00 L 20748431.55 11001693.00 L 19928182.53 11001693.00 L 19430567.00 10504078.00 L 19384645.00 10485056.00 L 13841969.00 10485056.00 L 13796047.00 10504077.00 L 13298431.53 11001693.00 L 12386339.00 11001693.00 L 12386339.00 11428875.00 L 11670719.98 11428875.00 L 10445922.00 10204078.00 L 10400000.00 10185056.00 L 6691969.00 10185056.00 L 6646047.00 10204077.00 L 5848431.64 11001693.00 L 4936339.00 11001693.00 L 4936339.00 11985945.00 L 5940275.00 11985945.00 L 5940275.00 11093538.36 L 6718869.98 10314944.00 L 10373099.98 10314944.00 L 11597897.00 11539742.00 L 11643819.00 11558763.00 L 12386339.00 11558763.00 L 12386339.00 11985945.00 L 13390275.00 11985945.00 L 13390275.00 11093538.47 L 13868869.98 10614944.00 L 19357744.98 10614944.00 L 19836339.00 11093538.53 L 19836339.00 11985945.00 L 20840275.00 11985945.00 L 20840275.00 11093538.45 L 21368869.98 10564944.00 L 24600000.00 10564944.00 L 24645922.00 10545922.00 L 25176900.97 10014944.00 L 27173099.97 10014944.00 L 27723363.00 10565207.97 L 27723363.00 11001693.00 L 27286339.00 11001693.00 L 27286339.00 11985945.00 L 28290275.00 11985945.00 L 28290275.00 11001693.00  z"/>
<path id="N" d="M 13846178.94 49427950.94 m -200709.51 0 a 200709.51 200709.51 0 1 1 401419.02 0a 200709.51 200709.51 0 1 1 -401419.02 0M 13846183.46 49427945.27 m -120431.73 0 a 120431.73 120431.73 0 1 1 240863.46 0a 120431.73 120431.73 0 1 1 -240863.46 0"/>
<path id="N" d="M 11346178.94 49427950.94 m -200709.51 0 a 200709.51 200709.51 0 1 1 401419.02 0a 200709.51 200709.51 0 1 1 -401419.02 0M 11346183.46 49427945.27 m -120431.73 0 a 120431.73 120431.73 0 1 1 240863.46 0a 120431.73 120431.73 0 1 1 -240863.46 0"/>
<path id="N" d="M 10144094.00 45575591.00 L 9907874.00 45575591.00 L 9907874.00 45969291.00 L 10144094.00 45969291.00 L 10144094.00 45575591.00  z"/>
<path id="N" d="M 34278740.00 42939764.00 L 34193197.98 42939764.00 L 34181260.00 42934819.00 L 33983750.97 42934819.00 L 33743031.00 42694099.37 L 33743031.00 41801693.00 L 32739095.00 41801693.00 L 32739095.00 42785945.00 L 33651187.37 42785945.00 L 33910928.00 43045686.00 L 33956850.00 43064707.00 L 34121260.00 43064707.00 L 34121260.00 43254724.00 L 34278740.00 43254724.00 L 34278740.00 42939764.00  z"/>
<path id="N" d="M 28290275.00 25901693.00 L 27394481.30 25901693.00 L 26388717.00 24895928.00 L 26363909.00 24879352.00 L 26334645.00 24873531.00 L 21791969.00 24873531.00 L 21762706.00 24879352.00 L 21737894.99 24895931.01 L 20732132.30 25901693.00 L 19836339.00 25901693.00 L 19836339.00 26317350.00 L 18525494.00 26317350.00 L 17154072.00 24945928.00 L 17129264.00 24929352.00 L 17100000.00 24923531.00 L 14291969.00 24923530.00 L 14262706.00 24929352.00 L 14237897.00 24945928.00 L 13282132.00 25901693.00 L 12494482.00 25901693.00 L 11588717.00 24995928.00 L 11563909.00 24979352.00 L 11534645.00 24973531.00 L 6791969.00 24973531.00 L 6762705.00 24979352.00 L 6737897.00 24995928.00 L 5832132.00 25901693.00 L 4936339.00 25901693.00 L 4936339.00 26885945.00 L 5940275.00 26885945.00 L 5940275.00 26009838.00 L 6823644.00 25126469.00 L 11502970.00 25126469.00 L 12386339.00 26009838.00 L 12386339.00 26885945.00 L 13390275.00 26885945.00 L 13390275.00 26009838.00 L 14323644.00 25076469.00 L 17068325.00 25076469.00 L 18439747.00 26447891.00 L 18464556.00 26464467.00 L 18493824.03 26470288.00 L 19836339.00 26470288.00 L 19836339.00 26885945.00 L 20840275.00 26885945.00 L 20840275.00 26009837.70 L 21823643.02 25026469.00 L 26302970.02 25026469.00 L 27286339.00 26009837.30 L 27286339.00 26885945.00 L 28290275.00 26885945.00 L 28290275.00 25901693.00  z"/>
<path id="N" d="M 14846178.94 49427950.94 m -200709.51 0 a 200709.51 200709.51 0 1 1 401419.02 0a 200709.51 200709.51 0 1 1 -401419.02 0M 14846183.46 49427945.27 m -120431.73 0 a 120431.73 120431.73 0 1 1 240863.46 0a 120431.73 120431.73 0 1 1 -240863.46 0"/>
<path id="N" d="M 33743031.00 12001693.00 L 33296164.00 12001693.00 L 33296164.00 11228464.00 L 33277142.00 11182542.00 L 31965181.00 9870581.00 L 31965181.00 9818740.00 L 31960236.00 9806802.02 L 31960236.00 9721260.00 L 31645276.00 9721260.00 L 31645276.00 9878740.00 L 31835293.00 9878740.00 L 31835293.00 9897481.00 L 31854315.00 9943403.00 L 33166276.00 11255364.00 L 33166276.00 12001693.00 L 32739095.00 12001693.00 L 32739095.00 12985945.00 L 33743031.00 12985945.00 L 33743031.00 12001693.00  z"/>
<path id="N" d="M 33278740.00 31081607.00 L 33286985.00 31073362.00 L 33306007.00 31027440.00 L 33306007.00 27885945.00 L 33743031.00 27885945.00 L 33743031.00 26901693.00 L 32739095.00 26901693.00 L 32739095.00 27885945.00 L 33176119.00 27885945.00 L 33176119.00 30989764.00 L 33121260.00 30989764.00 L 33121260.00 31304724.00 L 33278740.00 31304724.00 L 33278740.00 31081607.00  z"/>
<path id="N" d="M 29575709.00 44632401.00 L 28788307.00 44632401.00 L 28788307.00 44927677.00 L 29575709.00 44927677.00 L 29575709.00 44632401.00  z"/>
<path id="N" d="M 37025709.00 44632401.00 L 36238307.00 44632401.00 L 36238307.00 44927677.00 L 37025709.00 44927677.00 L 37025709.00 44632401.00  z"/>
<path id="N" d="M 28368110.00 45430709.00 L 28131890.00 45430709.00 L 28131890.00 45824409.00 L 28368110.00 45824409.00 L 28368110.00 45430709.00  z"/>
<path id="N" d="M 14675709.00 44632401.00 L 13888307.00 44632401.00 L 13888307.00 44927677.00 L 14675709.00 44927677.00 L 14675709.00 44632401.00  z"/>
<path id="N" d="M 22125709.00 44632401.00 L 21338307.00 44632401.00 L 21338307.00 44927677.00 L 22125709.00 44927677.00 L 22125709.00 44632401.00  z"/>
<path id="N" d="M 7225709.00 44632401.00 L 6438307.00 44632401.00 L 6438307.00 44927677.00 L 7225709.00 44927677.00 L 7225709.00 44632401.00  z"/>
<path id="N" d="M 34283186.94 49427950.94 m -200709.51 0 a 200709.51 200709.51 0 1 1 401419.02 0a 200709.51 200709.51 0 1 1 -401419.02 0M 34283191.46 49427945.27 m -120431.73 0 a 120431.73 120431.73 0 1 1 240863.46 0a 120431.73 120431.73 0 1 1 -240863.46 0"/>
<path id="N" d="M 27994094.00 46375591.00 L 27757874.00 46375591.00 L 27757874.00 46769291.00 L 27994094.00 46769291.00 L 27994094.00 46375591.00  z"/>
<path id="N" d="M 19378740.00 42989764.00 L 19293197.98 42989764.00 L 19281260.00 42984819.00 L 19133750.97 42984819.00 L 18843031.00 42694099.41 L 18843031.00 41801693.00 L 17839095.00 41801693.00 L 17839095.00 42785945.00 L 18751187.41 42785945.00 L 19060927.00 43095685.00 L 19106850.00 43114707.00 L 19221260.00 43114707.00 L 19221260.00 43304724.00 L 19378740.00 43304724.00 L 19378740.00 42989764.00  z"/>
<path id="N" d="M 25283186.94 49427950.94 m -200709.51 0 a 200709.51 200709.51 0 1 1 401419.02 0a 200709.51 200709.51 0 1 1 -401419.02 0M 25283191.46 49427945.27 m -120431.73 0 a 120431.73 120431.73 0 1 1 240863.46 0a 120431.73 120431.73 0 1 1 -240863.46 0"/>
<path id="N" d="M 18544094.00 45625591.00 L 18307874.00 45625591.00 L 18307874.00 46019291.00 L 18544094.00 46019291.00 L 18544094.00 45625591.00  z"/>
<path id="N" d="M 11628740.00 5989764.00 L 11614944.00 5989764.00 L 11614944.00 5692913.00 L 11595923.00 5646991.00 L 11393031.00 5444099.31 L 11393031.00 4551693.00 L 10389095.00 4551693.00 L 10389095.00 5535945.00 L 11301187.31 5535945.00 L 11485056.00 5719813.97 L 11485056.00 5989764.00 L 11471260.00 5989764.00 L 11471260.00 6304724.00 L 11628740.00 6304724.00 L 11628740.00 5989764.00  z"/>
<path id="N" d="M 29783186.94 49427950.94 m -200709.51 0 a 200709.51 200709.51 0 1 1 401419.02 0a 200709.51 200709.51 0 1 1 -401419.02 0M 29783191.46 49427945.27 m -120431.73 0 a 120431.73 120431.73 0 1 1 240863.46 0a 120431.73 120431.73 0 1 1 -240863.46 0"/>
<path id="N" d="M 40683070.00 10766323.00 L 41121260.00 10766323.00 L 41121260.00 10860236.00 L 41278740.00 10860236.00 L 41278740.00 10545276.00 L 41121260.00 10545276.00 L 41121260.00 10636435.00 L 40683070.00 10636435.00 L 40683070.00 10522836.00 L 40407480.00 10522836.00 L 40407480.00 10877166.00 L 40683070.00 10877166.00 L 40683070.00 10766323.00  z"/>
<path id="N" d="M 41278740.00 36795276.00 L 41121260.00 36795276.00 L 41121260.00 37110236.00 L 41278740.00 37110236.00 L 41278740.00 36795276.00  z"/>
<path id="N" d="M 40728740.00 26945276.00 L 40571260.00 26945276.00 L 40571260.00 27260236.00 L 40728740.00 27260236.00 L 40728740.00 26945276.00  z"/>
<path id="N" d="M 40828740.00 44095276.00 L 40671260.00 44095276.00 L 40671260.00 44410236.00 L 40828740.00 44410236.00 L 40828740.00 44095276.00  z"/>
<path id="N" d="M 35740275.00 33351693.00 L 34844482.00 33351693.00 L 33938717.00 32445928.00 L 33913909.00 32429352.00 L 33884645.00 32423531.00 L 29141969.00 32423531.00 L 29112705.00 32429352.00 L 29087897.00 32445928.00 L 28182132.00 33351693.00 L 27394482.00 33351693.00 L 26488717.00 32445928.00 L 26463909.00 32429352.00 L 26434645.00 32423531.00 L 21691969.00 32423531.00 L 21662705.00 32429352.00 L 21637897.00 32445928.00 L 20732132.00 33351693.00 L 19944482.00 33351693.00 L 19038717.00 32445928.00 L 19013909.00 32429352.00 L 18984645.00 32423531.00 L 14241969.00 32423531.00 L 14212705.00 32429352.00 L 14187897.00 32445928.00 L 13282132.00 33351693.00 L 12494482.00 33351693.00 L 11588717.00 32445928.00 L 11563909.00 32429352.00 L 11534645.00 32423531.00 L 6791969.00 32423531.00 L 6762705.00 32429352.00 L 6737897.00 32445928.00 L 5832132.00 33351693.00 L 4936339.00 33351693.00 L 4936339.00 34335945.00 L 5940275.00 34335945.00 L 5940275.00 33459838.00 L 6823644.00 32576469.00 L 11502970.00 32576469.00 L 12386339.00 33459838.00 L 12386339.00 34335945.00 L 13390275.00 34335945.00 L 13390275.00 33459838.00 L 14273644.00 32576469.00 L 18952970.00 32576469.00 L 19836339.00 33459838.00 L 19836339.00 34335945.00 L 20840275.00 34335945.00 L 20840275.00 33459838.00 L 21723644.00 32576469.00 L 26402970.00 32576469.00 L 27286339.00 33459838.00 L 27286339.00 34335945.00 L 28290275.00 34335945.00 L 28290275.00 33459838.00 L 29173644.00 32576469.00 L 33852970.00 32576469.00 L 34736339.00 33459838.00 L 34736339.00 34335945.00 L 35740275.00 34335945.00 L 35740275.00 33351693.00  z"/>
<path id="N" d="M 15346178.94 49427950.94 m -200709.51 0 a 200709.51 200709.51 0 1 1 401419.02 0a 200709.51 200709.51 0 1 1 -401419.02 0M 15346183.46 49427945.27 m -120431.73 0 a 120431.73 120431.73 0 1 1 240863.46 0a 120431.73 120431.73 0 1 1 -240863.46 0"/>
<path id="N" d="M 35740275.00 40801693.00 L 34828566.13 40801693.00 L 34821181.00 40800224.00 L 32471675.00 40800224.00 L 31567379.00 39895928.00 L 31542571.00 39879352.00 L 31513307.00 39873531.00 L 29141969.00 39873531.00 L 29112705.00 39879352.00 L 29087897.00 39895928.00 L 28182132.00 40801693.00 L 27394482.00 40801693.00 L 26488717.00 39895928.00 L 26463909.00 39879352.00 L 26434645.00 39873531.00 L 21691969.00 39873531.00 L 21662705.00 39879352.00 L 21637897.00 39895928.00 L 20732132.00 40801693.00 L 19944482.00 40801693.00 L 19038717.00 39895928.00 L 19013909.00 39879352.00 L 18984645.00 39873531.00 L 14241969.00 39873531.00 L 14212705.00 39879352.00 L 14187897.00 39895928.00 L 13282132.00 40801693.00 L 12478566.13 40801693.00 L 12471181.00 40800224.00 L 10071675.00 40800224.00 L 9217379.00 39945928.00 L 9192571.00 39929352.00 L 9163307.00 39923531.00 L 6741969.00 39923531.00 L 6712706.00 39929352.00 L 6687894.99 39945931.01 L 5832132.34 40801693.00 L 4936339.00 40801693.00 L 4936339.00 41785945.00 L 5940275.00 41785945.00 L 5940275.00 40909837.66 L 6773643.02 40076469.00 L 9131632.00 40076469.00 L 9985928.00 40930765.00 L 10010736.00 40947341.00 L 10040000.00 40953162.00 L 12386339.00 40953162.00 L 12386339.00 41785945.00 L 13390275.00 41785945.00 L 13390275.00 40909838.00 L 14273644.00 40026469.00 L 18952970.00 40026469.00 L 19836339.00 40909838.00 L 19836339.00 41785945.00 L 20840275.00 41785945.00 L 20840275.00 40909838.00 L 21723644.00 40026469.00 L 26402970.00 40026469.00 L 27286339.00 40909838.00 L 27286339.00 41785945.00 L 28290275.00 41785945.00 L 28290275.00 40909838.00 L 29173644.00 40026469.00 L 31481632.00 40026469.00 L 32385928.00 40930765.00 L 32410737.00 40947341.00 L 32440000.00 40953162.00 L 34736339.00 40953162.00 L 34736339.00 41785945.00 L 35740275.00 41785945.00 L 35740275.00 40801693.00  z"/>
<path id="N" d="M 15846178.94 49427950.94 m -200709.51 0 a 200709.51 200709.51 0 1 1 401419.02 0a 200709.51 200709.51 0 1 1 -401419.02 0M 15846183.46 49427945.27 m -120431.73 0 a 120431.73 120431.73 0 1 1 240863.46 0a 120431.73 120431.73 0 1 1 -240863.46 0"/>
<path id="N" d="M 26283186.94 49427950.94 m -200709.51 0 a 200709.51 200709.51 0 1 1 401419.02 0a 200709.51 200709.51 0 1 1 -401419.02 0M 26283191.46 49427945.27 m -120431.73 0 a 120431.73 120431.73 0 1 1 240863.46 0a 120431.73 120431.73 0 1 1 -240863.46 0"/>
<path id="N" d="M 26594094.00 45675591.00 L 26357874.00 45675591.00 L 26357874.00 46069291.00 L 26594094.00 46069291.00 L 26594094.00 45675591.00  z"/>
<path id="N" d="M 22125709.00 37753268.00 L 21338307.00 37753268.00 L 21338307.00 38048544.00 L 22125709.00 38048544.00 L 22125709.00 37753268.00  z"/>
<path id="N" d="M 22125709.00 30303268.00 L 21338307.00 30303268.00 L 21338307.00 30598544.00 L 22125709.00 30598544.00 L 22125709.00 30303268.00  z"/>
<path id="N" d="M 18918110.00 44680709.00 L 18681890.00 44680709.00 L 18681890.00 45074409.00 L 18918110.00 45074409.00 L 18918110.00 44680709.00  z"/>
<path id="N" d="M 22125709.00 22853268.00 L 21338307.00 22853268.00 L 21338307.00 23148544.00 L 22125709.00 23148544.00 L 22125709.00 22853268.00  z"/>
<path id="N" d="M 22125709.00 45203268.00 L 21338307.00 45203268.00 L 21338307.00 45498544.00 L 22125709.00 45498544.00 L 22125709.00 45203268.00  z"/>
<path id="N" d="M 22125709.00 15403268.00 L 21338307.00 15403268.00 L 21338307.00 15698544.00 L 22125709.00 15698544.00 L 22125709.00 15403268.00  z"/>
<path id="N" d="M 18400709.00 7953268.00 L 17613307.00 7953268.00 L 17613307.00 8248544.00 L 18400709.00 8248544.00 L 18400709.00 7953268.00  z"/>
<path id="N" d="M 11728740.00 28489764.00 L 11571260.00 28489764.00 L 11571260.00 28804724.00 L 11728740.00 28804724.00 L 11728740.00 28489764.00  z"/>
<path id="N" d="M 11393031.00 26901693.00 L 10389095.00 26901693.00 L 10389095.00 27885945.00 L 11393031.00 27885945.00 L 11393031.00 26901693.00  z"/>
<path id="N" d="M 14675709.00 30303268.00 L 13888307.00 30303268.00 L 13888307.00 30598544.00 L 14675709.00 30598544.00 L 14675709.00 30303268.00  z"/>
<path id="N" d="M 14675709.00 15403268.00 L 13888307.00 15403268.00 L 13888307.00 15698544.00 L 14675709.00 15698544.00 L 14675709.00 15403268.00  z"/>
<path id="N" d="M 14675709.00 45203268.00 L 13888307.00 45203268.00 L 13888307.00 45498544.00 L 14675709.00 45498544.00 L 14675709.00 45203268.00  z"/>
<path id="N" d="M 14675709.00 37753268.00 L 13888307.00 37753268.00 L 13888307.00 38048544.00 L 14675709.00 38048544.00 L 14675709.00 37753268.00  z"/>
<path id="N" d="M 11968110.00 44630709.00 L 11731890.00 44630709.00 L 11731890.00 45024409.00 L 11968110.00 45024409.00 L 11968110.00 44630709.00  z"/>
<path id="N" d="M 14675709.00 22853268.00 L 13888307.00 22853268.00 L 13888307.00 23148544.00 L 14675709.00 23148544.00 L 14675709.00 22853268.00  z"/>
</g>
</svg>
