<svg width="98.00000212mm" height="121.9224003mm" viewBox="0 0 38582678 48000945"  version="1.1" xmlns="http://www.w3.org/2000/svg" xmlns:xlink="http://www.w3.org/1999/xlink">
<desc>
Origin 0 0 Bound 3523346 2312835 38582678 48000945
</desc>
<g fill-rule="evenodd" fill="rgb(128, 0, 128)" stroke="black" stroke-width="1" transform="translate(0, 48000945) scale(1, -1) translate(-3523346, -2312835)">
<path id="N" d="M 39530860.00 47541548.00 L 39535599.00 47445075.00 A 984241.79 984241.79 0 0 1 39819141.00 46845578.00 L 41886289.00 44778427.00 A 989019.94 989019.94 0 0 0 42106022.00 44247943.00 L 42106023.00 26627905.00 A 989002.09 989002.09 0 0 0 41886289.00 26097422.00 L 41224492.00 25435625.00 L 41159627.00 25364057.00 A 984258.44 984258.44 0 0 1 40936212.00 24739653.00 L 40936212.00 24707038.00 L 40940951.00 24610565.00 A 984241.79 984241.79 0 0 1 41224493.00 24011068.00 L 41886289.00 23349270.00 A 989019.94 989019.94 0 0 0 42106022.00 22818786.00 L 42106023.00 5198747.00 A 989002.09 989002.09 0 0 0 41886289.00 4668264.00 L 39750592.00 2532568.00 A 989019.94 989019.94 0 0 0 39220108.00 2312835.00 L 6409259.00 2312834.00 A 989027.99 989027.99 0 0 0 5878776.00 2532568.00 L 3743079.00 4668264.00 A 989019.94 989019.94 0 0 0 3523346.00 5198748.00 L 3523346.00 21983622.00 A 989014.36 989014.36 0 0 0 3743079.00 22514106.00 L 4995427.00 23766453.00 L 5060292.00 23838022.00 A 984241.93 984241.93 0 0 1 5283709.00 24462425.00 L 5283708.00 24984269.00 L 5278968.00 25080742.00 A 984241.79 984241.79 0 0 1 4995428.00 25680240.00 L 3743079.00 26932587.00 A 989019.94 989019.94 0 0 0 3523346.00 27463071.00 L 3523346.00 44247943.00 A 989014.36 989014.36 0 0 0 3743079.00 44778427.00 L 5810229.00 46845578.00 L 5875094.00 46917146.00 A 984241.09 984241.09 0 0 1 6098510.00 47541549.00 L 6098510.00 50313780.00 L 39530860.00 50313780.00 L 39530860.00 47541548.00  zM 6914679.62 4043845.02 m -633575.98 0 a 633575.98 633575.98 0 1 1 1267151.97 0a 633575.98 633575.98 0 1 1 -1267151.97 0M 5914687.71 6043809.13 m -437452.87 0 a 437452.87 437452.87 0 1 1 874905.73 0a 437452.87 437452.87 0 1 1 -874905.73 0M 9414679.62 5043845.02 m -633575.98 0 a 633575.98 633575.98 0 1 1 1267151.97 0a 633575.98 633575.98 0 1 1 -1267151.97 0M 9914687.71 6043809.13 m -437452.87 0 a 437452.87 437452.87 0 1 1 874905.73 0a 437452.87 437452.87 0 1 1 -874905.73 0M 7914685.02 6043815.32 m -793825.68 0 a 793825.68 793825.68 0 1 1 1587651.37 0a 793825.68 793825.68 0 1 1 -1587651.37 0M 8623976.00 8524764.00 L 7205394.00 8524764.00 L 7205394.00 7106182.00 L 8623976.00 7106182.00 L 8623976.00 8524764.00  zM 11649994.62 9750026.02 m -633575.98 0 a 633575.98 633575.98 0 1 1 1267151.97 0a 633575.98 633575.98 0 1 1 -1267151.97 0M 6914679.62 11493845.02 m -633575.98 0 a 633575.98 633575.98 0 1 1 1267151.97 0a 633575.98 633575.98 0 1 1 -1267151.97 0M 5914687.71 13493809.13 m -437452.87 0 a 437452.87 437452.87 0 1 1 874905.73 0a 437452.87 437452.87 0 1 1 -874905.73 0M 7914685.02 13493815.32 m -793825.68 0 a 793825.68 793825.68 0 1 1 1587651.37 0a 793825.68 793825.68 0 1 1 -1587651.37 0M 9414679.62 12493845.02 m -633575.98 0 a 633575.98 633575.98 0 1 1 1267151.97 0a 633575.98 633575.98 0 1 1 -1267151.97 0M 9914687.71 13493809.13 m -437452.87 0 a 437452.87 437452.87 0 1 1 874905.73 0a 437452.87 437452.87 0 1 1 -874905.73 0M 13364687.71 13493809.13 m -437452.87 0 a 437452.87 437452.87 0 1 1 874905.73 0a 437452.87 437452.87 0 1 1 -874905.73 0M 14364679.62 11493845.02 m -633575.98 0 a 633575.98 633575.98 0 1 1 1267151.97 0a 633575.98 633575.98 0 1 1 -1267151.97 0M 14389685.77 3293814.85 m -643101.15 0 a 643101.15 643101.15 0 1 1 1286202.30 0a 643101.15 643101.15 0 1 1 -1286202.30 0M 17089687.71 6043809.13 m -437452.87 0 a 437452.87 437452.87 0 1 1 874905.73 0a 437452.87 437452.87 0 1 1 -874905.73 0M 18089679.62 4043845.02 m -633575.98 0 a 633575.98 633575.98 0 1 1 1267151.97 0a 633575.98 633575.98 0 1 1 -1267151.97 0M 19089685.02 6043815.32 m -793825.68 0 a 793825.68 793825.68 0 1 1 1587651.37 0a 793825.68 793825.68 0 1 1 -1587651.37 0M 20589679.62 5043845.02 m -633575.98 0 a 633575.98 633575.98 0 1 1 1267151.97 0a 633575.98 633575.98 0 1 1 -1267151.97 0M 21089687.71 6043809.13 m -437452.87 0 a 437452.87 437452.87 0 1 1 874905.73 0a 437452.87 437452.87 0 1 1 -874905.73 0M 19798976.00 8524764.00 L 18380394.00 8524764.00 L 18380394.00 7106182.00 L 19798976.00 7106182.00 L 19798976.00 8524764.00  zM 14389688.97 9293798.44 m -829051.56 0 a 829051.56 829051.56 0 1 1 1658103.12 0a 829051.56 829051.56 0 1 1 -1658103.12 0M 16864679.62 12493845.02 m -633575.98 0 a 633575.98 633575.98 0 1 1 1267151.97 0a 633575.98 633575.98 0 1 1 -1267151.97 0M 15364685.02 13493815.32 m -793825.68 0 a 793825.68 793825.68 0 1 1 1587651.37 0a 793825.68 793825.68 0 1 1 -1587651.37 0M 16073976.00 15974764.00 L 14655394.00 15974764.00 L 14655394.00 14556182.00 L 16073976.00 14556182.00 L 16073976.00 15974764.00  zM 17364687.71 13493809.13 m -437452.87 0 a 437452.87 437452.87 0 1 1 874905.73 0a 437452.87 437452.87 0 1 1 -874905.73 0M 20814687.71 13493809.13 m -437452.87 0 a 437452.87 437452.87 0 1 1 874905.73 0a 437452.87 437452.87 0 1 1 -874905.73 0M 21814679.62 11493845.02 m -633575.98 0 a 633575.98 633575.98 0 1 1 1267151.97 0a 633575.98 633575.98 0 1 1 -1267151.97 0M 8623976.00 15974764.00 L 7205394.00 15974764.00 L 7205394.00 14556182.00 L 8623976.00 14556182.00 L 8623976.00 15974764.00  zM 6914679.62 18943845.02 m -633575.98 0 a 633575.98 633575.98 0 1 1 1267151.97 0a 633575.98 633575.98 0 1 1 -1267151.97 0M 5914687.71 20943809.13 m -437452.87 0 a 437452.87 437452.87 0 1 1 874905.73 0a 437452.87 437452.87 0 1 1 -874905.73 0M 7914685.02 20943815.32 m -793825.68 0 a 793825.68 793825.68 0 1 1 1587651.37 0a 793825.68 793825.68 0 1 1 -1587651.37 0M 9414679.62 19943845.02 m -633575.98 0 a 633575.98 633575.98 0 1 1 1267151.97 0a 633575.98 633575.98 0 1 1 -1267151.97 0M 9914687.71 20943809.13 m -437452.87 0 a 437452.87 437452.87 0 1 1 874905.73 0a 437452.87 437452.87 0 1 1 -874905.73 0M 13364687.71 20943809.13 m -437452.87 0 a 437452.87 437452.87 0 1 1 874905.73 0a 437452.87 437452.87 0 1 1 -874905.73 0M 8623976.00 23424764.00 L 7205394.00 23424764.00 L 7205394.00 22006182.00 L 8623976.00 22006182.00 L 8623976.00 23424764.00  zM 6914679.62 26393845.02 m -633575.98 0 a 633575.98 633575.98 0 1 1 1267151.97 0a 633575.98 633575.98 0 1 1 -1267151.97 0M 5914687.71 28393809.13 m -437452.87 0 a 437452.87 437452.87 0 1 1 874905.73 0a 437452.87 437452.87 0 1 1 -874905.73 0M 7914685.02 28393815.32 m -793825.68 0 a 793825.68 793825.68 0 1 1 1587651.37 0a 793825.68 793825.68 0 1 1 -1587651.37 0M 9414679.62 27393845.02 m -633575.98 0 a 633575.98 633575.98 0 1 1 1267151.97 0a 633575.98 633575.98 0 1 1 -1267151.97 0M 9914687.71 28393809.13 m -437452.87 0 a 437452.87 437452.87 0 1 1 874905.73 0a 437452.87 437452.87 0 1 1 -874905.73 0M 13364687.71 28393809.13 m -437452.87 0 a 437452.87 437452.87 0 1 1 874905.73 0a 437452.87 437452.87 0 1 1 -874905.73 0M 14364679.62 18943845.02 m -633575.98 0 a 633575.98 633575.98 0 1 1 1267151.97 0a 633575.98 633575.98 0 1 1 -1267151.97 0M 16864679.62 19943845.02 m -633575.98 0 a 633575.98 633575.98 0 1 1 1267151.97 0a 633575.98 633575.98 0 1 1 -1267151.97 0M 15364685.02 20943815.32 m -793825.68 0 a 793825.68 793825.68 0 1 1 1587651.37 0a 793825.68 793825.68 0 1 1 -1587651.37 0M 16073976.00 23424764.00 L 14655394.00 23424764.00 L 14655394.00 22006182.00 L 16073976.00 22006182.00 L 16073976.00 23424764.00  zM 17364687.71 20943809.13 m -437452.87 0 a 437452.87 437452.87 0 1 1 874905.73 0a 437452.87 437452.87 0 1 1 -874905.73 0M 20814687.71 20943809.13 m -437452.87 0 a 437452.87 437452.87 0 1 1 874905.73 0a 437452.87 437452.87 0 1 1 -874905.73 0M 21814679.62 18943845.02 m -633575.98 0 a 633575.98 633575.98 0 1 1 1267151.97 0a 633575.98 633575.98 0 1 1 -1267151.97 0M 14364679.62 26393845.02 m -633575.98 0 a 633575.98 633575.98 0 1 1 1267151.97 0a 633575.98 633575.98 0 1 1 -1267151.97 0M 15364685.02 28393815.32 m -793825.68 0 a 793825.68 793825.68 0 1 1 1587651.37 0a 793825.68 793825.68 0 1 1 -1587651.37 0M 16864679.62 27393845.02 m -633575.98 0 a 633575.98 633575.98 0 1 1 1267151.97 0a 633575.98 633575.98 0 1 1 -1267151.97 0M 19049994.62 24700026.02 m -633575.98 0 a 633575.98 633575.98 0 1 1 1267151.97 0a 633575.98 633575.98 0 1 1 -1267151.97 0M 17364687.71 28393809.13 m -437452.87 0 a 437452.87 437452.87 0 1 1 874905.73 0a 437452.87 437452.87 0 1 1 -874905.73 0M 20814687.71 28393809.13 m -437452.87 0 a 437452.87 437452.87 0 1 1 874905.73 0a 437452.87 437452.87 0 1 1 -874905.73 0M 23789685.77 3293814.85 m -643101.15 0 a 643101.15 643101.15 0 1 1 1286202.30 0a 643101.15 643101.15 0 1 1 -1286202.30 0M 28264687.71 6043809.13 m -437452.87 0 a 437452.87 437452.87 0 1 1 874905.73 0a 437452.87 437452.87 0 1 1 -874905.73 0M 29264679.62 4043845.02 m -633575.98 0 a 633575.98 633575.98 0 1 1 1267151.97 0a 633575.98 633575.98 0 1 1 -1267151.97 0M 30264685.02 6043815.32 m -793825.68 0 a 793825.68 793825.68 0 1 1 1587651.37 0a 793825.68 793825.68 0 1 1 -1587651.37 0M 23789688.97 9293798.44 m -829051.56 0 a 829051.56 829051.56 0 1 1 1658103.12 0a 829051.56 829051.56 0 1 1 -1658103.12 0M 29264679.62 11493845.02 m -633575.98 0 a 633575.98 633575.98 0 1 1 1267151.97 0a 633575.98 633575.98 0 1 1 -1267151.97 0M 30973976.00 8524764.00 L 29555394.00 8524764.00 L 29555394.00 7106182.00 L 30973976.00 7106182.00 L 30973976.00 8524764.00  zM 22814685.02 13493815.32 m -793825.68 0 a 793825.68 793825.68 0 1 1 1587651.37 0a 793825.68 793825.68 0 1 1 -1587651.37 0M 24314679.62 12493845.02 m -633575.98 0 a 633575.98 633575.98 0 1 1 1267151.97 0a 633575.98 633575.98 0 1 1 -1267151.97 0M 23523976.00 15974764.00 L 22105394.00 15974764.00 L 22105394.00 14556182.00 L 23523976.00 14556182.00 L 23523976.00 15974764.00  zM 24814687.71 13493809.13 m -437452.87 0 a 437452.87 437452.87 0 1 1 874905.73 0a 437452.87 437452.87 0 1 1 -874905.73 0M 28264687.71 13493809.13 m -437452.87 0 a 437452.87 437452.87 0 1 1 874905.73 0a 437452.87 437452.87 0 1 1 -874905.73 0M 30264685.02 13493815.32 m -793825.68 0 a 793825.68 793825.68 0 1 1 1587651.37 0a 793825.68 793825.68 0 1 1 -1587651.37 0M 30973976.00 15974764.00 L 29555394.00 15974764.00 L 29555394.00 14556182.00 L 30973976.00 14556182.00 L 30973976.00 15974764.00  zM 31764679.62 5043845.02 m -633575.98 0 a 633575.98 633575.98 0 1 1 1267151.97 0a 633575.98 633575.98 0 1 1 -1267151.97 0M 34464688.97 5068798.44 m -829051.56 0 a 829051.56 829051.56 0 1 1 1658103.12 0a 829051.56 829051.56 0 1 1 -1658103.12 0M 32264687.71 6043809.13 m -437452.87 0 a 437452.87 437452.87 0 1 1 874905.73 0a 437452.87 437452.87 0 1 1 -874905.73 0M 35714687.71 9768809.13 m -437452.87 0 a 437452.87 437452.87 0 1 1 874905.73 0a 437452.87 437452.87 0 1 1 -874905.73 0M 36714679.62 7768845.02 m -633575.98 0 a 633575.98 633575.98 0 1 1 1267151.97 0a 633575.98 633575.98 0 1 1 -1267151.97 0M 39214679.62 8768845.02 m -633575.98 0 a 633575.98 633575.98 0 1 1 1267151.97 0a 633575.98 633575.98 0 1 1 -1267151.97 0M 40464685.77 5068814.85 m -643101.15 0 a 643101.15 643101.15 0 1 1 1286202.30 0a 643101.15 643101.15 0 1 1 -1286202.30 0M 31764679.62 12493845.02 m -633575.98 0 a 633575.98 633575.98 0 1 1 1267151.97 0a 633575.98 633575.98 0 1 1 -1267151.97 0M 32264687.71 13493809.13 m -437452.87 0 a 437452.87 437452.87 0 1 1 874905.73 0a 437452.87 437452.87 0 1 1 -874905.73 0M 34464688.97 14468798.44 m -829051.56 0 a 829051.56 829051.56 0 1 1 1658103.12 0a 829051.56 829051.56 0 1 1 -1658103.12 0M 38423976.00 12249764.00 L 37005394.00 12249764.00 L 37005394.00 10831182.00 L 38423976.00 10831182.00 L 38423976.00 12249764.00  zM 37714685.02 9768815.32 m -793825.68 0 a 793825.68 793825.68 0 1 1 1587651.37 0a 793825.68 793825.68 0 1 1 -1587651.37 0M 39714687.71 9768809.13 m -437452.87 0 a 437452.87 437452.87 0 1 1 874905.73 0a 437452.87 437452.87 0 1 1 -874905.73 0M 40464685.77 14468814.85 m -643101.15 0 a 643101.15 643101.15 0 1 1 1286202.30 0a 643101.15 643101.15 0 1 1 -1286202.30 0M 22814685.02 20943815.32 m -793825.68 0 a 793825.68 793825.68 0 1 1 1587651.37 0a 793825.68 793825.68 0 1 1 -1587651.37 0M 24314679.62 19943845.02 m -633575.98 0 a 633575.98 633575.98 0 1 1 1267151.97 0a 633575.98 633575.98 0 1 1 -1267151.97 0M 23523976.00 23424764.00 L 22105394.00 23424764.00 L 22105394.00 22006182.00 L 23523976.00 22006182.00 L 23523976.00 23424764.00  zM 24814687.71 20943809.13 m -437452.87 0 a 437452.87 437452.87 0 1 1 874905.73 0a 437452.87 437452.87 0 1 1 -874905.73 0M 29264679.62 18943845.02 m -633575.98 0 a 633575.98 633575.98 0 1 1 1267151.97 0a 633575.98 633575.98 0 1 1 -1267151.97 0M 28264687.71 20943809.13 m -437452.87 0 a 437452.87 437452.87 0 1 1 874905.73 0a 437452.87 437452.87 0 1 1 -874905.73 0M 30264685.02 20943815.32 m -793825.68 0 a 793825.68 793825.68 0 1 1 1587651.37 0a 793825.68 793825.68 0 1 1 -1587651.37 0M 21814679.62 26393845.02 m -633575.98 0 a 633575.98 633575.98 0 1 1 1267151.97 0a 633575.98 633575.98 0 1 1 -1267151.97 0M 22814685.02 28393815.32 m -793825.68 0 a 793825.68 793825.68 0 1 1 1587651.37 0a 793825.68 793825.68 0 1 1 -1587651.37 0M 24314679.62 27393845.02 m -633575.98 0 a 633575.98 633575.98 0 1 1 1267151.97 0a 633575.98 633575.98 0 1 1 -1267151.97 0M 24814687.71 28393809.13 m -437452.87 0 a 437452.87 437452.87 0 1 1 874905.73 0a 437452.87 437452.87 0 1 1 -874905.73 0M 30973976.00 23424764.00 L 29555394.00 23424764.00 L 29555394.00 22006182.00 L 30973976.00 22006182.00 L 30973976.00 23424764.00  zM 29264679.62 26393845.02 m -633575.98 0 a 633575.98 633575.98 0 1 1 1267151.97 0a 633575.98 633575.98 0 1 1 -1267151.97 0M 28264687.71 28393809.13 m -437452.87 0 a 437452.87 437452.87 0 1 1 874905.73 0a 437452.87 437452.87 0 1 1 -874905.73 0M 31764679.62 19943845.02 m -633575.98 0 a 633575.98 633575.98 0 1 1 1267151.97 0a 633575.98 633575.98 0 1 1 -1267151.97 0M 32264687.71 20943809.13 m -437452.87 0 a 437452.87 437452.87 0 1 1 874905.73 0a 437452.87 437452.87 0 1 1 -874905.73 0M 34464688.97 19968798.44 m -829051.56 0 a 829051.56 829051.56 0 1 1 1658103.12 0a 829051.56 829051.56 0 1 1 -1658103.12 0M 36714679.62 22668845.02 m -633575.98 0 a 633575.98 633575.98 0 1 1 1267151.97 0a 633575.98 633575.98 0 1 1 -1267151.97 0M 37699994.62 17250026.02 m -633575.98 0 a 633575.98 633575.98 0 1 1 1267151.97 0a 633575.98 633575.98 0 1 1 -1267151.97 0M 40464685.77 19968814.85 m -643101.15 0 a 643101.15 643101.15 0 1 1 1286202.30 0a 643101.15 643101.15 0 1 1 -1286202.30 0M 39214679.62 23668845.02 m -633575.98 0 a 633575.98 633575.98 0 1 1 1267151.97 0a 633575.98 633575.98 0 1 1 -1267151.97 0M 31764679.62 27393845.02 m -633575.98 0 a 633575.98 633575.98 0 1 1 1267151.97 0a 633575.98 633575.98 0 1 1 -1267151.97 0M 32264687.71 28393809.13 m -437452.87 0 a 437452.87 437452.87 0 1 1 874905.73 0a 437452.87 437452.87 0 1 1 -874905.73 0M 35714687.71 24668809.13 m -437452.87 0 a 437452.87 437452.87 0 1 1 874905.73 0a 437452.87 437452.87 0 1 1 -874905.73 0M 37714685.02 24668815.32 m -793825.68 0 a 793825.68 793825.68 0 1 1 1587651.37 0a 793825.68 793825.68 0 1 1 -1587651.37 0M 39714687.71 24668809.13 m -437452.87 0 a 437452.87 437452.87 0 1 1 874905.73 0a 437452.87 437452.87 0 1 1 -874905.73 0M 38423976.00 27149764.00 L 37005394.00 27149764.00 L 37005394.00 25731182.00 L 38423976.00 25731182.00 L 38423976.00 27149764.00  zM 8623976.00 30874764.00 L 7205394.00 30874764.00 L 7205394.00 29456182.00 L 8623976.00 29456182.00 L 8623976.00 30874764.00  zM 6914679.62 33843845.02 m -633575.98 0 a 633575.98 633575.98 0 1 1 1267151.97 0a 633575.98 633575.98 0 1 1 -1267151.97 0M 5914687.71 35843809.13 m -437452.87 0 a 437452.87 437452.87 0 1 1 874905.73 0a 437452.87 437452.87 0 1 1 -874905.73 0M 7914685.02 35843815.32 m -793825.68 0 a 793825.68 793825.68 0 1 1 1587651.37 0a 793825.68 793825.68 0 1 1 -1587651.37 0M 9414679.62 34843845.02 m -633575.98 0 a 633575.98 633575.98 0 1 1 1267151.97 0a 633575.98 633575.98 0 1 1 -1267151.97 0M 9914687.71 35843809.13 m -437452.87 0 a 437452.87 437452.87 0 1 1 874905.73 0a 437452.87 437452.87 0 1 1 -874905.73 0M 14364679.62 33843845.02 m -633575.98 0 a 633575.98 633575.98 0 1 1 1267151.97 0a 633575.98 633575.98 0 1 1 -1267151.97 0M 8623976.00 38324764.00 L 7205394.00 38324764.00 L 7205394.00 36906182.00 L 8623976.00 36906182.00 L 8623976.00 38324764.00  zM 6914679.62 41293845.02 m -633575.98 0 a 633575.98 633575.98 0 1 1 1267151.97 0a 633575.98 633575.98 0 1 1 -1267151.97 0M 7914685.02 43293815.32 m -793825.68 0 a 793825.68 793825.68 0 1 1 1587651.37 0a 793825.68 793825.68 0 1 1 -1587651.37 0M 9414679.62 42293845.02 m -633575.98 0 a 633575.98 633575.98 0 1 1 1267151.97 0a 633575.98 633575.98 0 1 1 -1267151.97 0M 13364687.71 35843809.13 m -437452.87 0 a 437452.87 437452.87 0 1 1 874905.73 0a 437452.87 437452.87 0 1 1 -874905.73 0M 11599994.62 39550026.02 m -633575.98 0 a 633575.98 633575.98 0 1 1 1267151.97 0a 633575.98 633575.98 0 1 1 -1267151.97 0M 14364679.62 41293845.02 m -633575.98 0 a 633575.98 633575.98 0 1 1 1267151.97 0a 633575.98 633575.98 0 1 1 -1267151.97 0M 5914687.71 43293809.13 m -437452.87 0 a 437452.87 437452.87 0 1 1 874905.73 0a 437452.87 437452.87 0 1 1 -874905.73 0M 9914687.71 43293809.13 m -437452.87 0 a 437452.87 437452.87 0 1 1 874905.73 0a 437452.87 437452.87 0 1 1 -874905.73 0M 8623976.00 45774764.00 L 7205394.00 45774764.00 L 7205394.00 44356182.00 L 8623976.00 44356182.00 L 8623976.00 45774764.00  zM 11346179.49 49427957.70 m -241485.30 0 a 241485.30 241485.30 0 1 1 482970.60 0a 241485.30 241485.30 0 1 1 -482970.60 0M 11846179.49 49427957.70 m -241485.30 0 a 241485.30 241485.30 0 1 1 482970.60 0a 241485.30 241485.30 0 1 1 -482970.60 0M 12346179.49 49427957.70 m -241485.30 0 a 241485.30 241485.30 0 1 1 482970.60 0a 241485.30 241485.30 0 1 1 -482970.60 0M 12846179.49 49427957.70 m -241485.30 0 a 241485.30 241485.30 0 1 1 482970.60 0a 241485.30 241485.30 0 1 1 -482970.60 0M 13364687.71 43293809.13 m -437452.87 0 a 437452.87 437452.87 0 1 1 874905.73 0a 437452.87 437452.87 0 1 1 -874905.73 0M 16073976.00 45774764.00 L 14655394.00 45774764.00 L 14655394.00 44356182.00 L 16073976.00 44356182.00 L 16073976.00 45774764.00  zM 14346179.49 49427957.70 m -241485.30 0 a 241485.30 241485.30 0 1 1 482970.60 0a 241485.30 241485.30 0 1 1 -482970.60 0M 15346179.49 49427957.70 m -241485.30 0 a 241485.30 241485.30 0 1 1 482970.60 0a 241485.30 241485.30 0 1 1 -482970.60 0M 13346179.49 49427957.70 m -241485.30 0 a 241485.30 241485.30 0 1 1 482970.60 0a 241485.30 241485.30 0 1 1 -482970.60 0M 13846179.49 49427957.70 m -241485.30 0 a 241485.30 241485.30 0 1 1 482970.60 0a 241485.30 241485.30 0 1 1 -482970.60 0M 14846179.49 49427957.70 m -241485.30 0 a 241485.30 241485.30 0 1 1 482970.60 0a 241485.30 241485.30 0 1 1 -482970.60 0M 16073976.00 30874764.00 L 14655394.00 30874764.00 L 14655394.00 29456182.00 L 16073976.00 29456182.00 L 16073976.00 30874764.00  zM 16864679.62 34843845.02 m -633575.98 0 a 633575.98 633575.98 0 1 1 1267151.97 0a 633575.98 633575.98 0 1 1 -1267151.97 0M 15364685.02 35843815.32 m -793825.68 0 a 793825.68 793825.68 0 1 1 1587651.37 0a 793825.68 793825.68 0 1 1 -1587651.37 0M 17364687.71 35843809.13 m -437452.87 0 a 437452.87 437452.87 0 1 1 874905.73 0a 437452.87 437452.87 0 1 1 -874905.73 0M 23523976.00 30874764.00 L 22105394.00 30874764.00 L 22105394.00 29456182.00 L 23523976.00 29456182.00 L 23523976.00 30874764.00  zM 21814679.62 33843845.02 m -633575.98 0 a 633575.98 633575.98 0 1 1 1267151.97 0a 633575.98 633575.98 0 1 1 -1267151.97 0M 20814687.71 35843809.13 m -437452.87 0 a 437452.87 437452.87 0 1 1 874905.73 0a 437452.87 437452.87 0 1 1 -874905.73 0M 16073976.00 38324764.00 L 14655394.00 38324764.00 L 14655394.00 36906182.00 L 16073976.00 36906182.00 L 16073976.00 38324764.00  zM 16864679.62 42293845.02 m -633575.98 0 a 633575.98 633575.98 0 1 1 1267151.97 0a 633575.98 633575.98 0 1 1 -1267151.97 0M 15364685.02 43293815.32 m -793825.68 0 a 793825.68 793825.68 0 1 1 1587651.37 0a 793825.68 793825.68 0 1 1 -1587651.37 0M 20814687.71 43293809.13 m -437452.87 0 a 437452.87 437452.87 0 1 1 874905.73 0a 437452.87 437452.87 0 1 1 -874905.73 0M 22814685.02 35843815.32 m -793825.68 0 a 793825.68 793825.68 0 1 1 1587651.37 0a 793825.68 793825.68 0 1 1 -1587651.37 0M 21814679.62 41293845.02 m -633575.98 0 a 633575.98 633575.98 0 1 1 1267151.97 0a 633575.98 633575.98 0 1 1 -1267151.97 0M 22814685.02 43293815.32 m -793825.68 0 a 793825.68 793825.68 0 1 1 1587651.37 0a 793825.68 793825.68 0 1 1 -1587651.37 0M 17364687.71 43293809.13 m -437452.87 0 a 437452.87 437452.87 0 1 1 874905.73 0a 437452.87 437452.87 0 1 1 -874905.73 0M 15846179.49 49427957.70 m -241485.30 0 a 241485.30 241485.30 0 1 1 482970.60 0a 241485.30 241485.30 0 1 1 -482970.60 0M 16346179.49 49427957.70 m -241485.30 0 a 241485.30 241485.30 0 1 1 482970.60 0a 241485.30 241485.30 0 1 1 -482970.60 0M 17346179.49 49427957.70 m -241485.30 0 a 241485.30 241485.30 0 1 1 482970.60 0a 241485.30 241485.30 0 1 1 -482970.60 0M 16846179.49 49427957.70 m -241485.30 0 a 241485.30 241485.30 0 1 1 482970.60 0a 241485.30 241485.30 0 1 1 -482970.60 0M 17846179.49 49427957.70 m -241485.30 0 a 241485.30 241485.30 0 1 1 482970.60 0a 241485.30 241485.30 0 1 1 -482970.60 0M 18346179.49 49427957.70 m -241485.30 0 a 241485.30 241485.30 0 1 1 482970.60 0a 241485.30 241485.30 0 1 1 -482970.60 0M 23523976.00 45774764.00 L 22105394.00 45774764.00 L 22105394.00 44356182.00 L 23523976.00 44356182.00 L 23523976.00 45774764.00  zM 20346179.49 49427957.70 m -241485.30 0 a 241485.30 241485.30 0 1 1 482970.60 0a 241485.30 241485.30 0 1 1 -482970.60 0M 19846179.49 49427957.70 m -241485.30 0 a 241485.30 241485.30 0 1 1 482970.60 0a 241485.30 241485.30 0 1 1 -482970.60 0M 18846179.49 49427957.70 m -241485.30 0 a 241485.30 241485.30 0 1 1 482970.60 0a 241485.30 241485.30 0 1 1 -482970.60 0M 19346179.49 49427957.70 m -241485.30 0 a 241485.30 241485.30 0 1 1 482970.60 0a 241485.30 241485.30 0 1 1 -482970.60 0M 20846179.49 49427957.70 m -241485.30 0 a 241485.30 241485.30 0 1 1 482970.60 0a 241485.30 241485.30 0 1 1 -482970.60 0M 24314679.62 34843845.02 m -633575.98 0 a 633575.98 633575.98 0 1 1 1267151.97 0a 633575.98 633575.98 0 1 1 -1267151.97 0M 24814687.71 35843809.13 m -437452.87 0 a 437452.87 437452.87 0 1 1 874905.73 0a 437452.87 437452.87 0 1 1 -874905.73 0M 29264679.62 33843845.02 m -633575.98 0 a 633575.98 633575.98 0 1 1 1267151.97 0a 633575.98 633575.98 0 1 1 -1267151.97 0M 28264687.71 35843809.13 m -437452.87 0 a 437452.87 437452.87 0 1 1 874905.73 0a 437452.87 437452.87 0 1 1 -874905.73 0M 30264685.02 28393815.32 m -793825.68 0 a 793825.68 793825.68 0 1 1 1587651.37 0a 793825.68 793825.68 0 1 1 -1587651.37 0M 30973976.00 30874764.00 L 29555394.00 30874764.00 L 29555394.00 29456182.00 L 30973976.00 29456182.00 L 30973976.00 30874764.00  zM 31764679.62 34843845.02 m -633575.98 0 a 633575.98 633575.98 0 1 1 1267151.97 0a 633575.98 633575.98 0 1 1 -1267151.97 0M 23523976.00 38324764.00 L 22105394.00 38324764.00 L 22105394.00 36906182.00 L 23523976.00 36906182.00 L 23523976.00 38324764.00  zM 24314679.62 42293845.02 m -633575.98 0 a 633575.98 633575.98 0 1 1 1267151.97 0a 633575.98 633575.98 0 1 1 -1267151.97 0M 24814687.71 43293809.13 m -437452.87 0 a 437452.87 437452.87 0 1 1 874905.73 0a 437452.87 437452.87 0 1 1 -874905.73 0M 29264679.62 41293845.02 m -633575.98 0 a 633575.98 633575.98 0 1 1 1267151.97 0a 633575.98 633575.98 0 1 1 -1267151.97 0M 30264685.02 35843815.32 m -793825.68 0 a 793825.68 793825.68 0 1 1 1587651.37 0a 793825.68 793825.68 0 1 1 -1587651.37 0M 30973976.00 38324764.00 L 29555394.00 38324764.00 L 29555394.00 36906182.00 L 30973976.00 36906182.00 L 30973976.00 38324764.00  zM 31764679.62 42293845.02 m -633575.98 0 a 633575.98 633575.98 0 1 1 1267151.97 0a 633575.98 633575.98 0 1 1 -1267151.97 0M 34464688.97 29368798.44 m -829051.56 0 a 829051.56 829051.56 0 1 1 1658103.12 0a 829051.56 829051.56 0 1 1 -1658103.12 0M 36714679.62 33843845.02 m -633575.98 0 a 633575.98 633575.98 0 1 1 1267151.97 0a 633575.98 633575.98 0 1 1 -1267151.97 0M 32264687.71 35843809.13 m -437452.87 0 a 437452.87 437452.87 0 1 1 874905.73 0a 437452.87 437452.87 0 1 1 -874905.73 0M 37714685.02 35843815.32 m -793825.68 0 a 793825.68 793825.68 0 1 1 1587651.37 0a 793825.68 793825.68 0 1 1 -1587651.37 0M 40464685.77 29368814.85 m -643101.15 0 a 643101.15 643101.15 0 1 1 1286202.30 0a 643101.15 643101.15 0 1 1 -1286202.30 0M 39214679.62 34843845.02 m -633575.98 0 a 633575.98 633575.98 0 1 1 1267151.97 0a 633575.98 633575.98 0 1 1 -1267151.97 0M 39714687.71 35843809.13 m -437452.87 0 a 437452.87 437452.87 0 1 1 874905.73 0a 437452.87 437452.87 0 1 1 -874905.73 0M 35714687.71 35843809.13 m -437452.87 0 a 437452.87 437452.87 0 1 1 874905.73 0a 437452.87 437452.87 0 1 1 -874905.73 0M 34049994.62 39600026.02 m -633575.98 0 a 633575.98 633575.98 0 1 1 1267151.97 0a 633575.98 633575.98 0 1 1 -1267151.97 0M 38423976.00 38324764.00 L 37005394.00 38324764.00 L 37005394.00 36906182.00 L 38423976.00 36906182.00 L 38423976.00 38324764.00  zM 36714679.62 41293845.02 m -633575.98 0 a 633575.98 633575.98 0 1 1 1267151.97 0a 633575.98 633575.98 0 1 1 -1267151.97 0M 37714685.02 43293815.32 m -793825.68 0 a 793825.68 793825.68 0 1 1 1587651.37 0a 793825.68 793825.68 0 1 1 -1587651.37 0M 39214679.62 42293845.02 m -633575.98 0 a 633575.98 633575.98 0 1 1 1267151.97 0a 633575.98 633575.98 0 1 1 -1267151.97 0M 28264687.71 43293809.13 m -437452.87 0 a 437452.87 437452.87 0 1 1 874905.73 0a 437452.87 437452.87 0 1 1 -874905.73 0M 30264685.02 43293815.32 m -793825.68 0 a 793825.68 793825.68 0 1 1 1587651.37 0a 793825.68 793825.68 0 1 1 -1587651.37 0M 30973976.00 45774764.00 L 29555394.00 45774764.00 L 29555394.00 44356182.00 L 30973976.00 44356182.00 L 30973976.00 45774764.00  zM 27783187.49 49427957.70 m -241485.30 0 a 241485.30 241485.30 0 1 1 482970.60 0a 241485.30 241485.30 0 1 1 -482970.60 0M 27283187.49 49427957.70 m -241485.30 0 a 241485.30 241485.30 0 1 1 482970.60 0a 241485.30 241485.30 0 1 1 -482970.60 0M 28283187.49 49427957.70 m -241485.30 0 a 241485.30 241485.30 0 1 1 482970.60 0a 241485.30 241485.30 0 1 1 -482970.60 0M 28783187.49 49427957.70 m -241485.30 0 a 241485.30 241485.30 0 1 1 482970.60 0a 241485.30 241485.30 0 1 1 -482970.60 0M 24783187.49 49427957.70 m -241485.30 0 a 241485.30 241485.30 0 1 1 482970.60 0a 241485.30 241485.30 0 1 1 -482970.60 0M 25283187.49 49427957.70 m -241485.30 0 a 241485.30 241485.30 0 1 1 482970.60 0a 241485.30 241485.30 0 1 1 -482970.60 0M 25783187.49 49427957.70 m -241485.30 0 a 241485.30 241485.30 0 1 1 482970.60 0a 241485.30 241485.30 0 1 1 -482970.60 0M 26283187.49 49427957.70 m -241485.30 0 a 241485.30 241485.30 0 1 1 482970.60 0a 241485.30 241485.30 0 1 1 -482970.60 0M 26783187.49 49427957.70 m -241485.30 0 a 241485.30 241485.30 0 1 1 482970.60 0a 241485.30 241485.30 0 1 1 -482970.60 0M 29283187.49 49427957.70 m -241485.30 0 a 241485.30 241485.30 0 1 1 482970.60 0a 241485.30 241485.30 0 1 1 -482970.60 0M 29783187.49 49427957.70 m -241485.30 0 a 241485.30 241485.30 0 1 1 482970.60 0a 241485.30 241485.30 0 1 1 -482970.60 0M 32264687.71 43293809.13 m -437452.87 0 a 437452.87 437452.87 0 1 1 874905.73 0a 437452.87 437452.87 0 1 1 -874905.73 0M 31783187.49 49427957.70 m -241485.30 0 a 241485.30 241485.30 0 1 1 482970.60 0a 241485.30 241485.30 0 1 1 -482970.60 0M 30283187.49 49427957.70 m -241485.30 0 a 241485.30 241485.30 0 1 1 482970.60 0a 241485.30 241485.30 0 1 1 -482970.60 0M 31283187.49 49427957.70 m -241485.30 0 a 241485.30 241485.30 0 1 1 482970.60 0a 241485.30 241485.30 0 1 1 -482970.60 0M 30783187.49 49427957.70 m -241485.30 0 a 241485.30 241485.30 0 1 1 482970.60 0a 241485.30 241485.30 0 1 1 -482970.60 0M 32283187.49 49427957.70 m -241485.30 0 a 241485.30 241485.30 0 1 1 482970.60 0a 241485.30 241485.30 0 1 1 -482970.60 0M 32783187.49 49427957.70 m -241485.30 0 a 241485.30 241485.30 0 1 1 482970.60 0a 241485.30 241485.30 0 1 1 -482970.60 0M 33283187.49 49427957.70 m -241485.30 0 a 241485.30 241485.30 0 1 1 482970.60 0a 241485.30 241485.30 0 1 1 -482970.60 0M 33783187.49 49427957.70 m -241485.30 0 a 241485.30 241485.30 0 1 1 482970.60 0a 241485.30 241485.30 0 1 1 -482970.60 0M 34283187.49 49427957.70 m -241485.30 0 a 241485.30 241485.30 0 1 1 482970.60 0a 241485.30 241485.30 0 1 1 -482970.60 0M 35714687.71 43293809.13 m -437452.87 0 a 437452.87 437452.87 0 1 1 874905.73 0a 437452.87 437452.87 0 1 1 -874905.73 0M 38423976.00 45774764.00 L 37005394.00 45774764.00 L 37005394.00 44356182.00 L 38423976.00 44356182.00 L 38423976.00 45774764.00  zM 39714687.71 43293809.13 m -437452.87 0 a 437452.87 437452.87 0 1 1 874905.73 0a 437452.87 437452.87 0 1 1 -874905.73 0"/>
</g>
</svg>
