**ABCDEFGHIJKLMNOPQRSTUVWXYZabcdefghijklmnopqrstuvwxyz**************************
**PARASOLID !"#$%&'()*+,-./:;<=>?@[\]^_`{|}~0123456789**************************
**PART1;
MC=AMD64;
MC_MODEL=AMD64 Family 25 Model 33 Stepping 0, AuthenticAMD;
MC_ID=unknown;
OS=Windows_NT;
OS_RELEASE=unknown;
FRU=CAD Exchanger 3.13.0 (cadexchanger.com);
APPL=unknown;
SITE=unknown;
USER=unknown;
FORMAT=text;
GUISE=transmit;
KEY=KSTN-5019_V_CMP-1672-00008-1;
FILE=KSTN-5019_V_CMP-1672-00008-1.x_t;
DATE=Thu Oct 26 18:55:19 2023;
**PART2;
SCH=SCH_1200000_12103;
USFLD_SIZE=0;
**PART3;
**END_OF_HEADER*****************************************************************
T51 : TRANSMIT FILE created by modeller version 120000017 SCH_1200000_121030 12
 1 444 0 2 0 0 0 0 1000.0 1.0e-08 0 0 0 1 0 1 1 11 13 19 17 8 18 16 70 2 0 1 0 0
 4 1 20 0 3 3 1 T74 20 3 1 0 4 0 0 0 0 0 0 0 0 0 0 0 0 0 0 0 0 0 0 0 81 1 4 7 5
 12 0 0 41 0 7 80 1 5 0 6 8001 0 0 0 0 3 5 0 0 0 FFFFTFTFFFFFFF2 79 15 6 SDL/TYS
A_COLOUR83 3 7 0.9882352948188782 1.0 0.9882352948188782 19 8 1 0 1 10 0 9 V13 9
 2 0 1 0 0 0 0 8 12 19 10 3 0 1 0 8 11 S13 11 4 0 1 0 12 0 0 10 0 14 12 5 4 1.0e
-08 39 0 14 11 13 -0 0 39 0 9 50 13 6 0 12 40 0 0 +0.0037186584278201 5.08944879
99999978e-04 -0.00390652 1.1662038837572362e-16 -1.0 1.8369701987210296e-16 1.0
 1.1662038837572359e-16 -9.9579925010296026e-17 15 14 8 0 15 12 0 17 15 0 14 23
 35 16 20 18 0 28 -18 16 9 0 15 0 21 17 ?1 29 17 10 0 16 22 0 -0.00129548128 5.0
894487999999942e-04 -0.00355092 16 18 11 0 ?20 0 26 19 0 0 1 30 19 12 0 18 27 0
 0 +-0.00129548128 5.0894487999999942e-04 -0.00355092 0.0 -1.8369701987210296e-1
6 -1.0 17 20 0 406 419 415 21 15 18 0 422 +18 21 13 0 20 16 24 22 ?1 29 22 14 0
 21 25 17 -0.00129548128 5.089448799999988e-04 -0.00390652 17 23 0 14 29 15 24 2
8 26 0 34 +18 24 15 0 23 21 30 25 ?1 29 25 16 0 24 31 22 0.00129531872 5.0894487
999999942e-04 -0.00355092 16 26 17 0 ?23 18 32 27 0 0 1 30 27 18 0 26 33 19 0 +0
.0037186584278201 5.0894487999999987e-04 -0.00355092 1.0 1.1662038837572362e-16
 7.5350657553289428e-17 17 28 0 85 86 90 16 23 26 0 415 -17 29 0 14 35 23 30 34
 32 0 367 -18 30 19 0 29 24 45 31 ?1 29 31 20 0 30 46 25 0.00129531872 5.0894487
999999933e-04 -0.00390652 16 32 21 0 ?34 26 36 33 0 0 1 30 33 22 0 32 37 27 0 +0
.00129531872 5.0894487999999951e-04 -0.00390652 -6.1232339957367659e-17 1.836970
1987210296e-16 1.0 17 34 0 362 363 367 24 29 32 0 90 +17 35 0 14 15 29 21 38 36
 0 73 -16 36 23 0 ?38 32 47 37 0 0 1 30 37 24 0 36 48 33 0 +0.0037186584278201 5
.0894487999999978e-04 -0.00390652 1.0 1.1662038837572362e-16 7.5350657553289428e
-17 17 38 0 72 77 73 30 35 36 0 80 +14 39 25 41 1.0e-08 68 12 43 11 40 -0 0 68 1
2 9 50 40 26 0 39 69 13 0 +0.0037186584278201 -5.0705512000000059e-04 -0.0039065
2 -1.1662038837572362e-16 1.0 -1.8369701987210296e-16 -1.0 -1.1662038837572359e-
16 9.9579925010296026e-17 81 1 41 27 5 39 0 0 70 4 42 83 3 42 0.9882352948188782
 1.0 0.9882352948188782 15 43 28 0 44 39 0 17 44 0 43 52 64 45 49 47 0 76 -18 45
 29 0 57 30 50 46 ?1 29 46 30 0 45 51 31 -0.00129548128 -5.0705512000000121e-04
 -0.00390652 16 47 31 0 ?49 36 55 48 0 0 1 30 48 32 0 47 56 37 0 +-0.00129548128
 -5.0705512000000121e-04 -0.00390652 0.0 1.8369701987210296e-16 1.0 17 49 0 385
 386 398 50 44 47 0 64 +18 50 33 0 391 45 53 51 ?1 29 51 34 0 50 54 46 -0.001295
48128 -5.0705512000000113e-04 -0.00355092 17 52 0 43 58 44 53 57 55 0 63 -18 53
 35 0 52 50 59 54 ?1 29 54 36 0 53 60 51 0.00129531872 -5.0705512000000104e-04 -
0.00390652 16 55 37 0 ?57 47 61 56 0 0 1 30 56 38 0 55 62 48 0 +0.00371865842782
01 -5.0705512000000059e-04 -0.00390652 -1.0 -1.1662038837572362e-16 -7.535065755
3289428e-17 17 57 0 72 73 77 45 52 55 0 398 +17 58 0 43 64 52 59 63 61 0 350 -18
 59 39 0 93 53 100 60 ?1 29 60 40 0 59 101 54 0.00129531872 -5.0705512000000077e
-04 -0.00355092 16 61 41 0 ?63 55 65 62 0 0 1 30 62 42 0 61 66 56 0 +0.001295318
72 -5.0705512000000086e-04 -0.00355092 6.1232339957367659e-17 -1.836970198721029
6e-16 -1.0 17 63 0 349 354 350 53 58 61 0 357 +17 64 0 43 44 58 50 67 65 0 86 +1
6 65 43 0 ?64 61 74 66 0 0 1 30 66 44 0 65 75 62 0 +0.0037186584278201 -5.070551
2000000042e-04 -0.00355092 -1.0 -1.1662038837572362e-16 -7.5350657553289428e-17
 17 67 0 85 90 86 59 64 65 0 0 -14 68 45 70 1.0e-08 81 39 72 11 69 +0 0 81 39 9
 50 69 46 0 68 82 40 0 +0.00129531872 0.00101694488 -0.00390652 -1.6739264667060
424e-16 -1.8369701987210296e-16 -1.0 -1.0 3.0749530341893898e-32 1.6739264667060
424e-16 81 1 70 47 5 68 0 0 83 41 71 83 3 71 0.9882352948188782 1.0 0.9882352948
188782 15 72 48 0 57 68 0 17 73 0 72 38 57 21 76 74 0 0 -16 74 49 0 ?76 65 78 75
 0 0 1 30 75 50 0 74 79 66 0 +-0.00129548128 0.00101694488 -0.00390652 0.0 -1.0
 1.8369701987210296e-16 17 76 0 427 401 422 45 73 74 0 0 +17 77 0 72 57 38 53 80
 78 0 0 +16 78 51 0 ?77 74 87 79 0 0 1 30 79 52 0 78 88 75 0 +0.00129531872 0.00
101694488 -0.00390652 0.0 -1.0 1.8369701987210296e-16 17 80 0 375 370 357 30 77
 78 0 0 -14 81 53 83 1.0e-08 94 68 85 11 82 -0 0 94 68 9 50 82 54 0 81 95 69 0 +
0.00129531872 0.00101694488 -0.00355092 -1.6739264667060428e-16 -1.8369701987210
296e-16 -1.0 -1.0 3.0749530341893907e-32 1.6739264667060428e-16 81 1 83 55 5 81
 0 0 96 70 84 83 3 84 0.9882352948188782 1.0 0.9882352948188782 15 85 56 0 86 81
 0 17 86 0 85 67 28 50 89 87 0 0 +16 87 57 0 ?86 78 91 88 0 0 1 30 88 58 0 87 92
 79 0 +-0.00129548128 0.00101694488 -0.00355092 0.0 -1.0 1.8369701987210296e-16
 17 89 0 436 418 391 16 86 87 0 0 -17 90 0 85 28 67 24 93 91 0 366 -16 91 59 0 ?
93 87 102 92 0 0 1 30 92 60 0 91 103 88 0 +0.00129531872 0.00101694488 -0.003550
92 0.0 -1.0 1.8369701987210296e-16 17 93 0 380 353 366 59 90 91 0 58 +14 94 61 9
6 1.0e-08 123 81 98 11 95 +0 0 123 81 9 50 95 62 0 94 124 82 0 +2.53187200000002
66e-05 0.00101694488 -0.00162052 -1.0 1.5752270565769322e-32 8.5751366988624352e
-17 8.5751366988624352e-17 1.8369701987210296e-16 1.0 81 1 96 63 5 94 0 0 125 83
 97 83 3 97 0.9882352948188782 1.0 0.9882352948188782 15 98 64 0 99 94 0 17 99 0
 98 107 119 100 104 102 0 161 -18 100 65 0 112 59 105 101 ?1 29 101 66 0 100 106
 60 2.5318720000000266e-05 -0.00101505512 -0.00162052 16 102 67 0 ?104 91 110 10
3 0 0 1 30 103 68 0 102 111 92 0 +2.5318720000000266e-05 -0.00101505512 -0.00162
052 -8.5751366988624316e-17 -1.8369701987210296e-16 -1.0 17 104 0 148 149 161 10
5 99 102 0 0 +18 105 69 0 154 100 108 106 ?1 29 106 70 0 105 109 101 2.531872000
000023e-05 -0.00101505512 -0.00197612 17 107 0 98 113 99 108 112 110 0 0 -18 108
 71 0 133 105 114 109 ?1 29 109 72 0 108 115 106 2.5318720000000266e-05 0.001016
94488 -0.00162052 16 110 73 0 ?112 102 116 111 0 0 1 30 111 74 0 110 117 103 0 +
2.5318720000000266e-05 0.00101694488 -0.00162052 0.0 -1.0 1.8369701987210296e-16
 17 112 0 220 164 133 100 107 110 0 99 +17 113 0 98 119 107 114 118 116 0 140 +1
8 114 75 0 113 108 129 115 ?1 29 115 76 0 114 130 109 2.531872000000023e-05 0.00
101694488 -0.00197612 16 116 77 0 ?113 110 120 117 0 0 1 30 117 78 0 116 121 111
 0 +2.5318720000000266e-05 0.00101694488 -0.00162052 -8.5751366988624316e-17 -1.
8369701987210296e-16 -1.0 17 118 0 127 128 140 108 113 116 0 107 -17 119 0 98 99
 113 105 122 120 0 104 +16 120 79 0 ?119 116 131 121 0 0 1 30 121 80 0 120 132 1
17 0 +2.531872000000023e-05 0.00101694488 -0.00197612 0.0 -1.0 1.836970198721029
6e-16 17 122 0 190 143 154 114 119 120 0 0 -14 123 81 125 1.0e-08 144 94 127 11
 124 +0 0 144 94 9 50 124 82 0 123 145 95 0 +0.00154931872 0.00101694488 -0.0022
3012 0.0 1.0 -1.8369701987210296e-16 1.0 0.0 0.0 81 1 125 83 5 123 0 0 146 96 12
6 83 3 126 0.9882352948188782 1.0 0.9882352948188782 15 127 84 0 128 123 0 17 12
8 0 127 134 118 129 133 131 0 139 -18 129 85 0 128 114 135 130 ?1 29 130 86 0 12
9 136 115 0.00129531872 0.00101694488 -0.00162052 16 131 87 0 ?133 120 137 132 0
 0 1 30 132 88 0 131 138 121 0 +2.5318720000000266e-05 0.00101694488 -0.00162052
 -1.0 1.5682260474365892e-32 8.5370249802008172e-17 17 133 0 220 112 211 108 128
 131 0 118 +17 134 0 127 140 128 135 139 137 0 143 +18 135 89 0 134 129 150 136
 ?1 29 136 90 0 135 151 130 0.00129531872 0.00101694488 -0.00197612 16 137 91 0
 ?134 131 141 138 0 0 1 30 138 92 0 137 142 132 0 +0.00129531872 0.00101694488 -
0.00162052 0.0 -1.8369701987210296e-16 -1.0 17 139 0 205 206 196 129 134 137 0 2
11 -17 140 0 127 118 134 114 143 141 0 122 +16 141 93 0 ?140 137 152 142 0 0 1 3
0 142 94 0 141 153 138 0 +2.531872000000023e-05 0.00101694488 -0.00197612 -1.0 1
.5682260474365894e-32 8.537024980200819e-17 17 143 0 190 191 122 135 140 141 0 1
96 -14 144 95 146 1.0e-08 165 123 148 11 145 +0 0 165 123 9 50 145 96 0 144 166
 124 0 +0.00129531872 -0.00101505512 -0.00223012 0.0 -1.0 1.8369701987210296e-16
 -1.0 0.0 0.0 81 1 146 97 5 144 0 0 167 125 147 83 3 147 0.9882352948188782 1.0
 0.9882352948188782 15 148 98 0 149 144 0 17 149 0 148 155 104 150 154 152 0 160
 -18 150 99 0 175 135 156 151 ?1 29 151 100 0 150 157 136 0.00129531872 -0.00101
505512 -0.00197612 16 152 101 0 ?154 141 158 153 0 0 1 30 153 102 0 152 159 142
 0 +2.531872000000023e-05 -0.00101505512 -0.00197612 -1.0 1.5682260474365894e-32
 8.537024980200819e-17 17 154 0 190 122 175 105 149 152 0 119 +17 155 0 148 161
 149 156 160 158 0 164 +18 156 103 0 155 150 171 157 ?1 29 157 104 0 156 172 151
 0.00129531872 -0.00101505512 -0.00162052 16 158 105 0 ?155 152 162 159 0 0 1 30
 159 106 0 158 163 153 0 +0.00129531872 -0.00101505512 -0.00197612 0.0 1.8369701
987210296e-16 1.0 17 160 0 169 170 182 150 155 158 0 0 -17 161 0 148 104 155 100
 164 162 0 0 +16 162 107 0 ?161 158 173 163 0 0 1 30 163 108 0 162 174 159 0 +2.
5318720000000266e-05 -0.00101505512 -0.00162052 -1.0 1.5682260474365892e-32 8.53
70249802008172e-17 17 164 0 220 185 112 156 161 162 0 182 -14 165 109 167 1.0e-0
8 186 144 169 11 166 -0 0 186 144 9 50 166 110 0 165 187 145 0 +0.00129531872 -0
.00101505512 -0.00162052 -1.0 1.2805537470301261e-15 -1.7422499959593544e-16 1.2
805537470301261e-15 1.0 -1.8369701987210296e-16 81 1 167 111 5 165 0 0 188 146 1
68 83 3 168 0.9882352948188782 1.0 0.9882352948188782 15 169 112 0 170 165 0 17
 170 0 169 176 160 171 175 173 0 181 +18 171 113 0 170 156 177 172 ?1 29 172 114
 0 171 178 157 0.00129531872 -5.0705512000000024e-04 -0.00197612 16 173 115 0 ?1
70 162 179 174 0 0 1 30 174 116 0 173 180 163 0 +0.00129531872 -0.00101505512 -0
.00197612 1.2805537470301261e-15 1.0 -1.8369701987210296e-16 17 175 0 190 154 19
7 150 170 173 0 149 -17 176 0 169 182 170 177 181 179 0 185 -18 177 117 0 176 17
1 192 178 ?1 29 178 118 0 177 193 172 0.00129531872 -5.0705512000000015e-04 -0.0
0162052 16 179 119 0 ?181 173 183 180 0 0 1 30 180 120 0 179 184 174 0 +0.001295
31872 -5.0705512000000015e-04 -0.00162052 1.7422499959593518e-16 -1.836970198721
0296e-16 -1.0 17 181 0 229 230 242 171 176 179 0 235 +17 182 0 169 160 176 156 1
85 183 0 0 -16 183 121 0 ?185 179 194 184 0 0 1 30 184 122 0 183 195 180 0 +0.00
129531872 -0.00101505512 -0.00162052 1.2805537470301261e-15 1.0 -1.8369701987210
296e-16 17 185 0 220 221 164 177 182 183 0 224 +14 186 123 188 1.0e-08 201 165 1
90 11 187 -0 0 201 165 9 50 187 124 0 186 202 166 0 +2.5318720000000234e-05 0.00
101694488 -0.00197612 8.5370249802008208e-17 1.8369701987210296e-16 1.0 1.0 -1.5
682260474365898e-32 -8.5370249802008208e-17 81 1 188 125 5 186 0 0 203 167 189 8
3 3 189 0.9882352948188782 1.0 0.9882352948188782 15 190 126 0 154 186 0 17 191
 0 190 197 143 192 196 194 0 200 +18 192 127 0 212 177 207 193 ?1 29 193 128 0 1
92 208 178 0.00129531872 5.0894488000000004e-04 -0.00197612 16 194 129 0 ?191 18
3 198 195 0 0 1 30 195 130 0 194 199 184 0 +0.00129531872 0.00101694488 -0.00197
612 0.0 -1.0 1.8369701987210296e-16 17 196 0 205 139 212 135 191 194 0 0 -17 197
 0 190 175 191 171 200 198 0 0 +16 198 131 0 ?197 194 209 199 0 0 1 30 199 132 0
 198 210 195 0 +0.00129531872 0.00101694488 -0.00197612 0.0 -1.0 1.8369701987210
296e-16 17 200 0 250 251 235 192 197 198 0 0 -14 201 133 203 1.0e-08 216 186 205
 11 202 -0 0 216 186 9 50 202 134 0 201 217 187 0 +0.00129531872 0.00101694488 -
0.00162052 -1.0 -1.2805537470301261e-15 -1.7422499959593494e-16 -1.2805537470301
261e-15 1.0 -1.8369701987210296e-16 81 1 203 135 5 201 0 0 218 188 204 83 3 204
 0.9882352948188782 1.0 0.9882352948188782 15 205 136 0 196 201 0 17 206 0 205 2
12 139 207 211 209 0 215 +18 207 137 0 206 192 231 208 ?1 29 208 138 0 207 232 1
93 0.00129531872 5.0894488000000004e-04 -0.00162052 16 209 139 0 ?206 198 213 21
0 0 0 1 30 210 140 0 209 214 199 0 +0.00129531872 0.00101694488 -0.00162052 0.0
 -1.0 1.8369701987210296e-16 17 211 0 220 133 221 129 206 209 0 0 -17 212 0 205
 196 206 192 215 213 0 256 +16 213 141 0 ?212 209 222 214 0 0 1 30 214 142 0 213
 223 210 0 +0.00129531872 5.0894488000000013e-04 -0.00162052 1.7422499959593518e
-16 -1.8369701987210296e-16 -1.0 17 215 0 265 272 256 207 212 213 0 275 -14 216
 143 218 1.0e-08 225 201 220 11 217 +0 0 225 201 9 50 217 144 0 216 226 202 0 +2
.5318720000000266e-05 0.00101694488 -0.00162052 8.5370249802008208e-17 1.8369701
987210296e-16 1.0 1.0 -1.5682260474365894e-32 -8.5370249802008208e-17 81 1 218 1
45 5 216 0 0 227 203 219 83 3 219 0.9882352948188782 1.0 0.9882352948188782 15 2
20 146 0 164 216 0 17 221 0 220 211 185 207 224 222 0 0 -16 222 147 0 ?224 213 2
33 223 0 0 1 30 223 148 0 222 234 214 0 +0.00129531872 0.00101694488 -0.00162052
 0.0 -1.0 1.8369701987210296e-16 17 224 0 280 245 275 177 221 222 0 242 +14 225
 149 227 1.0e-08 246 216 229 11 226 +0 0 246 216 9 50 226 150 0 225 247 217 0 +0
.00129531872 -5.0705512000000024e-04 -0.00223012 0.0 -1.0 1.8369701987210296e-16
 -1.0 0.0 0.0 81 1 227 151 5 225 0 0 248 218 228 83 3 228 0.9882352948188782 1.0
 0.9882352948188782 15 229 152 0 181 225 0 17 230 0 229 236 181 231 235 233 0 24
1 +18 231 153 0 332 207 237 232 ?1 29 232 154 0 231 238 208 0.00154931872 -5.070
5512000000024e-04 -0.00223012 16 233 155 0 ?230 222 239 234 0 0 1 31 234 156 0 2
33 240 223 0 +0.00129531872 -5.0705512000000024e-04 -0.00223012 0.0 1.0 -1.83697
01987210296e-16 1.0 0.0 0.0 2.5400000000000006e-04 17 235 0 250 200 257 171 230
 233 0 197 -17 236 0 229 242 230 237 241 239 0 245 +18 237 157 0 295 231 252 238
 ?1 29 238 158 0 237 253 232 0.00190491872 -5.0705512000000042e-04 -0.00223012 1
6 239 159 0 ?236 233 243 240 0 0 1 30 240 160 0 239 244 234 0 +0.00154931872 -5.
0705512000000042e-04 -0.00223012 1.0 -2.535730263243842e-31 -1.3803872621392097e
-15 17 241 0 340 335 295 231 236 239 0 0 -17 242 0 229 181 236 177 245 243 0 0 -
16 243 161 0 ?245 239 254 244 0 0 1 31 244 162 0 243 255 240 0 +0.00129531872 -5
.0705512000000024e-04 -0.00223012 0.0 1.0 -1.8369701987210296e-16 1.0 0.0 0.0 6.
096000000000001e-04 17 245 0 280 281 224 237 242 243 0 0 +14 246 163 248 1.0e-08
 261 225 250 11 247 -0 0 261 225 9 51 247 164 0 246 262 226 0 +0.00129531872 -0.
0012713590753201 -0.00223012 0.0 1.0 -1.8369701987210296e-16 2.5400000000000006e
-04 1.0 0.0 0.0 81 1 248 165 5 246 0 0 263 227 249 83 3 249 0.9882352948188782 1
.0 0.9882352948188782 15 250 166 0 251 246 0 17 251 0 250 257 200 252 256 254 0
 317 -18 252 167 0 266 237 270 253 ?1 29 253 168 0 252 271 238 0.00154931872 5.0
894487999999996e-04 -0.00223012 16 254 169 0 ?256 243 258 255 0 0 1 31 255 170 0
 254 259 244 0 +0.00129531872 5.0894487999999996e-04 -0.00223012 0.0 -1.0 1.8369
701987210296e-16 1.0 0.0 0.0 2.5400000000000006e-04 17 256 0 265 215 266 192 251
 254 0 191 +17 257 0 250 235 251 231 260 258 0 230 +16 258 171 0 ?257 254 267 25
9 0 0 1 30 259 172 0 258 268 255 0 +0.00154931872 0.00101694488 -0.00223012 0.0
 -1.0 1.8369701987210296e-16 17 260 0 325 320 332 252 257 258 0 251 -14 261 173
 263 1.0e-08 276 246 265 11 262 +0 0 276 246 9 50 262 174 0 261 277 247 0 +0.001
29531872 5.0894487999999996e-04 -0.00223012 0.0 1.0 -1.8369701987210296e-16 1.0
 0.0 0.0 81 1 263 175 5 261 0 0 278 248 264 83 3 264 0.9882352948188782 1.0 0.98
82352948188782 15 265 176 0 266 261 0 17 266 0 265 256 272 252 269 267 0 260 +16
 267 177 0 ?266 258 273 268 0 0 1 30 268 178 0 267 274 259 0 +0.00190491872 5.08
94488000000004e-04 -0.00223012 -1.0 2.535730263243842e-31 1.3803872621392097e-15
 17 269 0 310 305 317 270 266 267 0 272 -18 270 179 0 269 252 291 271 ?1 29 271
 180 0 270 292 253 0.00190491872 5.0894487999999996e-04 -0.00223012 17 272 0 265
 266 215 270 275 273 0 281 -16 273 181 0 ?275 267 282 274 0 0 1 31 274 182 0 273
 283 268 0 +0.00129531872 5.0894487999999996e-04 -0.00223012 0.0 -1.0 1.83697019
87210296e-16 -1.0 0.0 0.0 6.096000000000001e-04 17 275 0 280 224 281 207 272 273
 0 221 +14 276 183 278 1.0e-08 285 261 280 11 277 +0 0 285 261 9 51 277 184 0 27
6 286 262 0 +0.00129531872 -0.0012713590753201 -0.00223012 0.0 1.0 -1.8369701987
210296e-16 6.096000000000001e-04 1.0 0.0 0.0 81 1 278 185 5 276 0 0 287 263 279
 83 3 279 0.9882352948188782 1.0 0.9882352948188782 15 280 186 0 275 276 0 17 28
1 0 280 275 245 270 284 282 0 302 -16 282 187 0 ?284 273 293 283 0 0 1 30 283 18
8 0 282 294 274 0 +0.00190491872 0.00101694488 -0.00223012 0.0 -1.0 1.8369701987
210296e-16 17 284 0 289 290 302 237 281 282 0 236 +14 285 189 287 1.0e-08 306 27
6 289 11 286 +0 0 306 276 9 50 286 190 0 285 307 277 0 +0.00190491872 0.00101694
488 -0.00223012 1.0 -7.4677430830313832e-32 -4.0652499905718216e-16 -4.065249990
5718216e-16 -1.8369701987210296e-16 -1.0 81 1 287 191 5 285 0 0 308 278 288 83 3
 288 0.9882352948188782 1.0 0.9882352948188782 15 289 192 0 290 285 0 17 290 0 2
89 296 284 291 295 293 0 301 +18 291 193 0 290 270 297 292 ?1 29 292 194 0 291 2
98 271 0.00190491872 -5.0705512000000077e-04 -0.00329692 16 293 195 0 ?290 282 2
99 294 0 0 1 30 294 196 0 293 300 283 0 +0.00190491872 -5.0705512000000015e-04 -
0.00155185014609 1.4118317595921792e-17 -3.0031740824782656e-16 -1.0 17 295 0 34
0 241 341 237 290 293 0 284 -17 296 0 289 302 290 297 301 299 0 370 -18 297 197
 0 316 291 312 298 ?1 29 298 198 0 297 313 292 0.00190491872 5.0894487999999942e
-04 -0.00329692 16 299 199 0 ?301 293 303 300 0 0 1 30 300 200 0 299 304 294 0 +
0.00190491872 0.00101694488 -0.00329692 0.0 -1.0 1.8369701987210296e-16 17 301 0
 375 357 370 291 296 299 0 341 +17 302 0 289 284 296 270 305 303 0 0 +16 303 201
 0 ?302 299 314 304 0 0 1 30 304 202 0 303 315 300 0 +0.00190491872 5.0894488000
000013e-04 -0.00155185014609 -1.4118317595921792e-17 3.0031740824782656e-16 1.0
 17 305 0 310 311 269 297 302 303 0 0 -14 306 203 308 1.0e-08 321 285 310 11 307
 -0 0 321 285 9 50 307 204 0 306 322 286 0 +0.00190491872 5.0894488000000013e-04
 -0.00155185014609 -1.5641983215295394e-33 -1.0 3.003174082478266e-16 1.60812264
96766366e-16 3.003174082478266e-16 1.0 81 1 308 205 5 306 0 0 323 287 309 83 3 3
09 0.9882352948188782 1.0 0.9882352948188782 15 310 206 0 311 306 0 17 311 0 310
 317 305 312 316 314 0 320 -18 312 207 0 311 297 327 313 ?1 29 313 208 0 312 328
 298 0.00154931872 5.0894487999999978e-04 -0.00329692 16 314 209 0 ?316 303 318
 315 0 0 1 30 315 210 0 314 319 304 0 +0.00154931872 5.0894487999999978e-04 -0.0
0329692 1.0 0.0 0.0 17 316 0 362 367 363 297 311 314 0 296 +17 317 0 310 269 311
 252 320 318 0 0 +16 318 211 0 ?317 314 329 319 0 0 1 30 319 212 0 318 330 315 0
 +0.00154931872 5.0894488000000013e-04 -0.00155185014609 -1.4118317595921792e-17
 3.0031740824782656e-16 1.0 17 320 0 325 326 260 312 317 318 0 331 -14 321 213 3
23 1.0e-08 336 306 325 11 322 -0 0 336 306 9 50 322 214 0 321 337 307 0 +0.00154
931872 0.00101694488 -0.00223012 1.0 -7.4677430830313832e-32 -4.0652499905718216
e-16 -4.0652499905718216e-16 -1.8369701987210296e-16 -1.0 81 1 323 215 5 321 0 0
 338 308 324 83 3 324 0.9882352948188782 1.0 0.9882352948188782 15 325 216 0 326
 321 0 17 326 0 325 332 320 327 331 329 0 353 +18 327 217 0 335 312 387 328 ?1 2
9 328 218 0 327 388 313 0.00154931872 -5.0705512000000077e-04 -0.00329692 16 329
 219 0 ?326 318 333 330 0 0 1 30 330 220 0 329 334 319 0 +0.00154931872 0.001016
94488 -0.00329692 0.0 -1.0 1.8369701987210296e-16 17 331 0 380 366 353 312 326 3
29 0 363 -17 332 0 325 260 326 231 335 333 0 257 -16 333 221 0 ?335 329 342 334
 0 0 1 30 334 222 0 333 343 330 0 +0.00154931872 -5.0705512000000015e-04 -0.0015
5185014609 1.4118317595921792e-17 -3.0031740824782656e-16 -1.0 17 335 0 340 341
 241 327 332 333 0 344 +14 336 223 338 1.0e-08 345 321 340 11 337 -0 0 345 321 9
 50 337 224 0 336 346 322 0 +0.00190491872 -5.0705512000000015e-04 -0.0015518501
4609 1.5641983215295394e-33 1.0 -3.003174082478266e-16 -1.6081226496766366e-16 -
3.003174082478266e-16 -1.0 81 1 338 225 5 336 0 0 347 323 339 83 3 339 0.9882352
948188782 1.0 0.9882352948188782 15 340 226 0 341 336 0 17 341 0 340 295 335 291
 344 342 0 354 -16 342 227 0 ?344 333 351 343 0 0 1 30 343 228 0 342 352 334 0 +
0.00190491872 -5.0705512000000077e-04 -0.00329692 -1.0 0.0 0.0 17 344 0 349 350
 354 327 341 342 0 326 +14 345 229 347 1.0e-08 358 336 349 11 346 +0 0 358 336 9
 50 346 230 0 345 359 337 0 +0.00129531872 -5.0705512000000077e-04 -0.00329692 0
.0 -1.0 1.8369701987210296e-16 -1.0 0.0 0.0 81 1 347 231 5 345 0 0 360 338 348 8
3 3 348 0.9882352948188782 1.0 0.9882352948188782 15 349 232 0 344 345 0 17 350
 0 349 63 344 59 353 351 0 67 +16 351 233 0 ?350 342 355 352 0 0 1 31 352 234 0
 351 356 343 0 +0.00129531872 -5.0705512000000077e-04 -0.00329692 0.0 1.0 -1.836
9701987210296e-16 1.0 0.0 0.0 2.5400000000000028e-04 17 353 0 380 331 93 327 350
 351 0 0 -17 354 0 349 344 63 291 357 355 0 0 -16 355 235 0 ?357 351 364 356 0 0
 1 31 356 236 0 355 365 352 0 +0.00129531872 -5.0705512000000077e-04 -0.00329692
 0.0 1.0 -1.8369701987210296e-16 1.0 0.0 0.0 6.0960000000000028e-04 17 357 0 375
 80 301 53 354 355 0 77 +14 358 237 360 1.0e-08 371 345 362 11 359 +0 0 371 345
 9 50 359 238 0 358 372 346 0 +0.00129531872 5.0894487999999942e-04 -0.00329692
 0.0 1.0 -1.8369701987210296e-16 1.0 0.0 0.0 81 1 360 239 5 358 0 0 373 347 361
 83 3 361 0.9882352948188782 1.0 0.9882352948188782 15 362 240 0 34 358 0 17 363
 0 362 316 34 312 366 364 0 0 +16 364 241 0 ?363 355 368 365 0 0 1 31 365 242 0
 364 369 356 0 +0.00129531872 5.0894487999999942e-04 -0.00329692 0.0 -1.0 1.8369
701987210296e-16 1.0 0.0 0.0 2.5400000000000028e-04 17 366 0 380 93 331 24 363 3
64 0 0 -17 367 0 362 34 316 30 370 368 0 38 -16 368 243 0 ?370 364 389 369 0 0 1
 31 369 244 0 368 390 365 0 +0.00129531872 5.0894487999999942e-04 -0.00329692 0.
0 -1.0 1.8369701987210296e-16 -1.0 0.0 0.0 6.0960000000000028e-04 17 370 0 375 3
01 80 297 367 368 0 305 +14 371 245 373 1.0e-08 376 358 375 11 372 +0 0 376 358
 9 51 372 246 0 371 377 359 0 +0.00129531872 -0.0012713590753201 -0.00329692 0.0
 1.0 -1.8369701987210296e-16 6.0960000000000028e-04 1.0 0.0 0.0 81 1 373 247 5 3
71 0 0 378 360 374 83 3 374 0.9882352948188782 1.0 0.9882352948188782 15 375 248
 0 370 371 0 14 376 249 378 1.0e-08 381 371 380 11 377 -0 0 381 371 9 51 377 250
 0 376 382 372 0 +0.00129531872 -0.0012713590753201 -0.00329692 0.0 1.0 -1.83697
01987210296e-16 2.5400000000000028e-04 1.0 0.0 0.0 81 1 378 251 5 376 0 0 383 37
3 379 83 3 379 0.9882352948188782 1.0 0.9882352948188782 15 380 252 0 366 376 0
 14 381 253 383 1.0e-08 402 376 385 11 382 +0 0 402 376 9 50 382 254 0 381 403 3
77 0 +-0.00129548128 -5.070551200000013e-04 -0.00329692 0.0 -1.0 1.8369701987210
296e-16 -1.0 0.0 0.0 81 1 383 255 5 381 0 0 404 378 384 83 3 384 0.9882352948188
782 1.0 0.9882352948188782 15 385 256 0 49 381 0 17 386 0 385 392 49 387 391 389
 0 397 +18 387 257 0 437 327 393 388 ?1 29 388 258 0 387 394 328 -0.00154948128
 -5.0705512000000121e-04 -0.00329692 16 389 259 0 ?386 368 395 390 0 0 1 31 390
 260 0 389 396 369 0 +-0.00129548128 -5.0705512000000139e-04 -0.00329692 0.0 1.0
 -1.8369701987210296e-16 1.0 0.0 0.0 2.5400000000000006e-04 17 391 0 436 89 437
 50 386 389 0 49 -17 392 0 385 398 386 393 397 395 0 0 +18 393 261 0 431 387 408
 394 ?1 29 394 262 0 393 409 388 -0.00190508128 -5.0705512000000121e-04 -0.00329
692 16 395 263 0 ?392 389 399 396 0 0 1 30 396 264 0 395 400 390 0 +-0.001549481
28 -5.0705512000000121e-04 -0.00329692 -1.0 -1.1248198369963933e-32 -6.123233995
7367659e-17 17 397 0 466 473 451 387 392 395 0 476 -17 398 0 385 49 392 45 401 3
99 0 44 -16 399 265 0 ?401 395 410 400 0 0 1 31 400 266 0 399 411 396 0 +-0.0012
9548128 -5.070551200000013e-04 -0.00329692 0.0 1.0 -1.8369701987210296e-16 1.0 0
.0 0.0 6.096000000000001e-04 17 401 0 427 428 76 393 398 399 0 451 +14 402 267 4
04 1.0e-08 423 381 406 11 403 +0 0 423 381 9 50 403 268 0 402 424 382 0 +-0.0012
9548128 5.0894487999999889e-04 -0.00329692 0.0 1.0 -1.8369701987210296e-16 1.0 0
.0 0.0 81 1 404 269 5 402 0 0 425 383 405 83 3 405 0.9882352948188782 1.0 0.9882
352948188782 15 406 270 0 407 402 0 17 407 0 406 415 419 408 412 410 0 491 +18 4
08 271 0 440 393 413 409 ?1 29 409 272 0 408 414 394 -0.00154948128 5.0894487999
999933e-04 -0.00329692 16 410 273 0 ?407 399 416 411 0 0 1 30 411 274 0 410 417
 400 0 +-0.00190508128 5.0894487999999933e-04 -0.00329692 1.0 1.1248198369963933
e-32 6.1232339957367659e-17 17 412 0 496 461 491 413 407 410 0 0 -18 413 275 0 4
19 408 447 414 ?1 29 414 276 0 413 448 409 -0.00190508128 5.0894487999999889e-04
 -0.00329692 17 415 0 406 20 407 16 418 416 0 89 +16 416 277 0 ?415 410 420 417
 0 0 1 31 417 278 0 416 421 411 0 +-0.00129548128 5.0894487999999845e-04 -0.0032
9692 0.0 -1.0 1.8369701987210296e-16 1.0 0.0 0.0 2.5400000000000006e-04 17 418 0
 436 437 89 408 415 416 0 0 -17 419 0 406 407 20 413 422 420 0 428 -16 420 279 0
 ?422 416 429 421 0 0 1 31 421 280 0 420 430 417 0 +-0.00129548128 5.08944879999
99889e-04 -0.00329692 0.0 -1.0 1.8369701987210296e-16 -1.0 0.0 0.0 6.09600000000
0001e-04 17 422 0 427 76 428 21 419 420 0 35 +14 423 281 425 1.0e-08 432 402 427
 11 424 +0 0 432 402 9 51 424 282 0 423 433 403 0 +-0.00129548128 -0.00127135907
53201 -0.00329692 0.0 1.0 -1.8369701987210296e-16 6.0960000000000019e-04 1.0 0.0
 0.0 81 1 425 283 5 423 0 0 434 404 426 83 3 426 0.9882352948188782 1.0 0.988235
2948188782 15 427 284 0 422 423 0 17 428 0 427 422 401 413 431 429 0 458 -16 429
 285 0 ?431 420 438 430 0 0 1 30 430 286 0 429 439 421 0 +-0.00190508128 0.00101
694488 -0.00329692 0.0 -1.0 1.8369701987210296e-16 17 431 0 445 446 458 393 428
 429 0 401 +14 432 287 434 1.0e-08 441 423 436 11 433 -0 0 441 423 9 51 433 288
 0 432 442 424 0 +-0.00129548128 -0.0012713590753201 -0.00329692 0.0 1.0 -1.8369
701987210296e-16 2.5400000000000006e-04 1.0 0.0 0.0 81 1 434 289 5 432 0 0 443 4
25 435 83 3 435 0.9882352948188782 1.0 0.9882352948188782 15 436 290 0 418 432 0
 17 437 0 436 391 418 387 440 438 0 386 +16 438 291 0 ?437 429 449 439 0 0 1 30
 439 292 0 438 450 430 0 +-0.00154948128 0.00101694488 -0.00329692 0.0 -1.0 1.83
69701987210296e-16 17 440 0 481 488 476 408 437 438 0 407 -14 441 293 443 1.0e-0
8 462 432 445 11 442 +0 0 462 432 9 50 442 294 0 441 463 433 0 +-0.00190508128 0
.00101694488 -0.00223012 -1.0 0.0 0.0 0.0 1.0 -1.8369701987210296e-16 81 1 443 2
95 5 441 0 0 464 434 444 83 3 444 0.9882352948188782 1.0 0.9882352948188782 15 4
45 296 0 446 441 0 17 446 0 445 452 431 447 451 449 0 457 +18 447 297 0 518 413
 453 448 ?1 29 448 298 0 447 454 414 -0.00190508128 -5.0705512000000113e-04 -0.0
0223012 16 449 299 0 ?446 438 455 450 0 0 1 30 450 300 0 449 456 439 0 +-0.00190
508128 -5.0705512000000139e-04 -0.0089893295617301 -1.3658299751065713e-16 6.707
663149637937e-17 1.0 17 451 0 466 397 467 393 446 449 0 392 -17 452 0 445 458 44
6 453 457 455 0 500 -18 453 301 0 542 447 471 454 ?1 29 454 302 0 453 472 448 -0
.00190508128 5.0894487999999933e-04 -0.00223012 16 455 303 0 ?457 449 459 456 0
 0 1 30 456 304 0 455 460 450 0 +-0.00190508128 0.00101694488 -0.00223012 0.0 -1
.0 1.8369701987210296e-16 17 457 0 547 521 542 447 452 455 0 467 +17 458 0 445 4
31 452 413 461 459 0 412 +16 459 305 0 ?458 455 468 460 0 0 1 30 460 306 0 459 4
69 456 0 +-0.00190508128 5.0894487999999889e-04 -0.0089893295617301 1.3658299751
065713e-16 -6.707663149637937e-17 -1.0 17 461 0 496 497 412 453 458 459 0 452 -1
4 462 307 464 1.0e-08 477 441 466 11 463 -0 0 477 441 9 50 463 308 0 462 478 442
 0 +-0.00190508128 -5.0705512000000139e-04 -0.0089893295617301 -1.58460768554946
54e-32 1.0 -6.7076631496379342e-17 3.8347585052928342e-17 6.7076631496379342e-17
 1.0 81 1 464 309 5 462 0 0 479 443 465 83 3 465 0.9882352948188782 1.0 0.988235
2948188782 15 466 310 0 467 462 0 17 467 0 466 451 473 447 470 468 0 0 -16 468 3
11 0 ?470 459 474 469 0 0 1 30 469 312 0 468 475 460 0 +-0.00190508128 -5.070551
2000000113e-04 -0.00223012 1.0 0.0 0.0 17 470 0 505 506 518 471 467 468 0 482 +1
8 471 313 0 511 453 486 472 ?1 29 472 314 0 471 487 454 -0.00154948128 -5.070551
2000000113e-04 -0.00223012 17 473 0 466 467 397 471 476 474 0 0 +16 474 315 0 ?4
73 468 483 475 0 0 1 30 475 316 0 474 484 469 0 +-0.00154948128 -5.0705512000000
139e-04 -0.0089893295617301 -1.3658299751065713e-16 6.707663149637937e-17 1.0 17
 476 0 481 440 482 387 473 474 0 0 -14 477 317 479 1.0e-08 492 462 481 11 478 -0
 0 492 462 9 50 478 318 0 477 493 463 0 +-0.00154948128 0.00101694488 -0.0022301
2 -1.0 0.0 0.0 0.0 1.0 -1.8369701987210296e-16 81 1 479 319 5 477 0 0 494 464 48
0 83 3 480 0.9882352948188782 1.0 0.9882352948188782 15 481 320 0 482 477 0 17 4
82 0 481 476 488 471 485 483 0 473 +16 483 321 0 ?482 474 489 484 0 0 1 30 484 3
22 0 483 490 475 0 +-0.00154948128 0.00101694488 -0.00223012 0.0 -1.0 1.83697019
87210296e-16 17 485 0 556 538 511 486 482 483 0 497 -18 486 323 0 535 471 507 48
7 ?1 29 487 324 0 486 508 472 -0.00154948128 5.0894487999999942e-04 -0.00223012
 17 488 0 481 482 440 486 491 489 0 0 -16 489 325 0 ?491 483 498 490 0 0 1 30 49
0 326 0 489 499 484 0 +-0.00154948128 5.0894487999999889e-04 -0.0089893295617301
 1.3658299751065713e-16 -6.707663149637937e-17 -1.0 17 491 0 496 412 497 408 488
 489 0 418 +14 492 327 494 1.0e-08 501 477 496 11 493 -0 0 501 477 9 50 493 328
 0 492 502 478 0 +-0.00190508128 5.0894487999999889e-04 -0.0089893295617301 1.58
46076855494654e-32 -1.0 6.7076631496379342e-17 -3.8347585052928342e-17 -6.707663
1496379342e-17 -1.0 81 1 494 329 5 492 0 0 503 479 495 83 3 495 0.98823529481887
82 1.0 0.9882352948188782 15 496 330 0 497 492 0 17 497 0 496 491 461 486 500 49
8 0 488 -16 498 331 0 ?500 489 509 499 0 0 1 30 499 332 0 498 510 490 0 +-0.0015
4948128 5.0894487999999942e-04 -0.00223012 -1.0 0.0 0.0 17 500 0 526 539 535 453
 497 498 0 0 +14 501 333 503 1.0e-08 522 492 505 11 502 +0 0 522 492 9 50 502 33
4 0 501 523 493 0 +-0.00129548128 -5.0705512000000113e-04 -0.00223012 0.0 -1.0 1
.8369701987210296e-16 -1.0 0.0 0.0 81 1 503 335 5 501 0 0 524 494 504 83 3 504 0
.9882352948188782 1.0 0.9882352948188782 15 505 336 0 470 501 0 17 506 0 505 512
 470 507 511 509 0 517 +18 507 337 0 506 486 513 508 ?1 29 508 338 0 507 514 487
 -0.00129548128 -5.0705512000000104e-04 -0.00197612 16 509 339 0 ?506 498 515 51
0 0 0 1 31 510 340 0 509 516 499 0 +-0.00129548128 -5.0705512000000113e-04 -0.00
223012 0.0 1.0 -1.8369701987210296e-16 1.0 0.0 0.0 2.5400000000000006e-04 17 511
 0 556 485 557 471 506 509 0 470 -17 512 0 505 518 506 513 517 515 0 521 -18 513
 341 0 512 507 528 514 ?1 29 514 342 0 513 529 508 -0.00129548128 -5.07055120000
00104e-04 -0.00162052 16 515 343 0 ?517 509 519 516 0 0 1 30 516 344 0 515 520 5
10 0 +-0.00129548128 -5.0705512000000104e-04 -0.00162052 6.4119896435043718e-16
 -1.8369701987210296e-16 -1.0 17 517 0 649 650 644 507 512 515 0 557 +17 518 0 5
05 470 512 447 521 519 0 446 -16 519 345 0 ?521 515 530 520 0 0 1 31 520 346 0 5
19 531 516 0 +-0.00129548128 -5.0705512000000113e-04 -0.00223012 0.0 1.0 -1.8369
701987210296e-16 1.0 0.0 0.0 6.096000000000001e-04 17 521 0 547 548 457 513 518
 519 0 551 +14 522 347 524 1.0e-08 543 501 526 11 523 +0 0 543 501 9 50 523 348
 0 522 544 502 0 +-0.00129548128 5.0894487999999933e-04 -0.00223012 0.0 1.0 -1.8
369701987210296e-16 1.0 0.0 0.0 81 1 524 349 5 522 0 0 545 503 525 83 3 525 0.98
82352948188782 1.0 0.9882352948188782 15 526 350 0 527 522 0 17 527 0 526 535 53
9 528 532 530 0 538 +18 528 351 0 527 513 533 529 ?1 29 529 352 0 528 534 514 -0
.00129548128 5.0894487999999933e-04 -0.00197612 16 530 353 0 ?527 519 536 531 0
 0 1 30 531 354 0 530 537 520 0 +-0.00129548128 5.0894487999999942e-04 -0.001620
52 6.4119896435043718e-16 -1.8369701987210296e-16 -1.0 17 532 0 667 640 662 533
 527 530 0 548 -18 533 355 0 539 528 567 534 ?1 29 534 356 0 533 568 529 -0.0012
9548128 5.0894487999999942e-04 -0.00162052 17 535 0 526 500 527 486 538 536 0 48
5 +16 536 357 0 ?535 530 540 537 0 0 1 31 537 358 0 536 541 531 0 +-0.0012954812
8 5.0894487999999933e-04 -0.00223012 0.0 -1.0 1.8369701987210296e-16 1.0 -1.5682
260474365892e-31 -8.5370249802008208e-16 2.5400000000000006e-04 17 538 0 556 557
 485 528 535 536 0 560 -17 539 0 526 527 500 533 542 540 0 532 -16 540 359 0 ?54
2 536 549 541 0 0 1 31 541 360 0 540 550 537 0 +-0.00129548128 5.089448799999993
3e-04 -0.00223012 0.0 -1.0 1.8369701987210296e-16 -1.0 0.0 0.0 6.096000000000001
e-04 17 542 0 547 457 548 453 539 540 0 461 +14 543 361 545 1.0e-08 552 522 547
 11 544 +0 0 552 522 9 51 544 362 0 543 553 523 0 +-0.00129548128 -0.00127135907
53201 -0.00223012 0.0 1.0 -1.8369701987210296e-16 6.0960000000000019e-04 1.0 0.0
 0.0 81 1 545 363 5 543 0 0 554 524 546 83 3 546 0.9882352948188782 1.0 0.988235
2948188782 15 547 364 0 542 543 0 17 548 0 547 542 521 533 551 549 0 637 -16 549
 365 0 ?551 540 558 550 0 0 1 30 550 366 0 549 559 541 0 +-0.00129548128 0.00101
694488 -0.00162052 0.0 -1.0 1.8369701987210296e-16 17 551 0 636 641 637 513 548
 549 0 644 +14 552 367 554 1.0e-08 561 543 556 11 553 -0 0 561 543 9 51 553 368
 0 552 562 544 0 +-0.00129548128 -0.0012713590753201 -0.00223012 0.0 1.0 -1.8369
701987210296e-16 2.5400000000000006e-04 1.0 0.0 0.0 81 1 554 369 5 552 0 0 563 5
45 555 83 3 555 0.9882352948188782 1.0 0.9882352948188782 15 556 370 0 538 552 0
 17 557 0 556 511 538 507 560 558 0 653 +16 558 371 0 ?557 549 569 559 0 0 1 30
 559 372 0 558 570 550 0 +-0.00129548128 0.00101694488 -0.00197612 0.0 -1.0 1.83
69701987210296e-16 17 560 0 658 659 653 528 557 558 0 662 -14 561 373 563 1.0e-0
8 590 552 565 11 562 -0 0 590 552 9 50 562 374 0 561 591 553 0 +0.00129531872 0.
00101694488 -0.00223012 0.0 -1.0 1.8369701987210296e-16 -1.0 0.0 0.0 81 1 563 37
5 5 561 0 0 592 554 564 83 3 564 0.9882352948188782 1.0 0.9882352948188782 15 56
5 376 0 566 561 0 17 566 0 565 574 586 567 571 569 0 579 +18 567 377 0 566 533 5
72 568 ?1 29 568 378 0 567 573 534 -0.00129548128 0.00101694488 -0.00197612 16 5
69 379 0 ?566 558 577 570 0 0 1 30 570 380 0 569 578 559 0 +-2.5481279999998554e
-05 0.00101694488 -0.00197612 -1.0 3.1364520948731767e-32 1.7074049960401626e-16
 17 571 0 658 606 659 572 566 569 0 603 -18 572 381 0 586 567 575 573 ?1 29 573
 382 0 572 576 568 -2.5481279999998554e-05 0.00101694488 -0.00197612 17 574 0 56
5 580 566 575 579 577 0 640 +18 575 383 0 574 572 581 576 ?1 29 576 384 0 575 58
2 573 -0.00129548128 0.00101694488 -0.00162052 16 577 385 0 ?574 569 583 578 0 0
 1 30 578 386 0 577 584 570 0 +-0.00129548128 0.00101694488 -0.00197612 -6.09787
49858577288e-16 1.8369701987210296e-16 1.0 17 579 0 667 662 640 567 574 577 0 65
9 -17 580 0 565 586 574 581 585 583 0 0 -18 581 387 0 589 575 596 582 ?1 29 582
 388 0 581 597 576 -2.5481279999998554e-05 0.00101694488 -0.00162052 16 583 389
 0 ?585 577 587 584 0 0 1 30 584 390 0 583 588 578 0 +-2.5481279999998554e-05 0.
00101694488 -0.00162052 -1.0 3.1364520948731767e-32 1.7074049960401626e-16 17 58
5 0 636 637 610 575 580 583 0 0 +17 586 0 565 566 580 572 589 587 0 571 -16 587
 391 0 ?589 583 598 588 0 0 1 30 588 392 0 587 599 584 0 +-2.5481279999998554e-0
5 0.00101694488 -0.00197612 1.7150273397724858e-16 1.8369701987210296e-16 1.0 17
 589 0 594 607 603 581 586 587 0 610 +14 590 393 592 1.0e-08 611 561 594 11 591
 +0 0 611 561 9 50 591 394 0 590 612 562 0 +-2.5481279999998554e-05 0.0010169448
8 -0.00197612 1.0 -3.1504541131538639e-32 -1.7150273397724868e-16 -1.71502733977
24868e-16 -1.8369701987210296e-16 -1.0 81 1 592 395 5 590 0 0 613 563 593 83 3 5
93 0.9882352948188782 1.0 0.9882352948188782 15 594 396 0 595 590 0 17 595 0 594
 603 607 596 600 598 0 628 -18 596 397 0 595 581 601 597 ?1 29 597 398 0 596 602
 582 -2.5481279999998554e-05 -0.00101505512 -0.00197612 16 598 399 0 ?600 587 60
4 599 0 0 1 30 599 400 0 598 605 588 0 +-2.5481279999998554e-05 -0.00101505512 -
0.00197612 1.7150273397724858e-16 1.8369701987210296e-16 1.0 17 600 0 615 616 62
8 601 595 598 0 607 +18 601 401 0 600 596 617 602 ?1 29 602 402 0 601 618 597 -2
.5481279999998554e-05 -0.00101505512 -0.00162052 17 603 0 594 589 595 572 606 60
4 0 0 -16 604 403 0 ?606 598 608 605 0 0 1 30 605 404 0 604 609 599 0 +-2.548127
9999998554e-05 0.00101694488 -0.00197612 0.0 -1.0 1.8369701987210296e-16 17 606
 0 658 631 571 596 603 604 0 0 +17 607 0 594 595 589 601 610 608 0 621 +16 608 4
05 0 ?607 604 619 609 0 0 1 30 609 406 0 608 620 605 0 +-2.5481279999998554e-05
 0.00101694488 -0.00162052 0.0 -1.0 1.8369701987210296e-16 17 610 0 636 585 621
 581 607 608 0 580 -14 611 407 613 1.0e-08 632 590 615 11 612 +0 0 632 590 9 50
 612 408 0 611 633 591 0 +-0.00154948128 -0.00101505512 -0.00223012 0.0 -1.0 1.8
369701987210296e-16 -1.0 0.0 0.0 81 1 613 409 5 611 0 0 634 592 614 83 3 614 0.9
882352948188782 1.0 0.9882352948188782 15 615 410 0 616 611 0 17 616 0 615 622 6
00 617 621 619 0 0 +18 617 411 0 627 601 623 618 ?1 29 618 412 0 617 624 602 -0.
00129548128 -0.00101505512 -0.00162052 16 619 413 0 ?616 608 625 620 0 0 1 30 62
0 414 0 619 626 609 0 +-2.5481279999998554e-05 -0.00101505512 -0.00162052 -1.0 3
.1364520948731767e-32 1.7074049960401626e-16 17 621 0 636 610 641 601 616 619 0
 0 -17 622 0 615 628 616 623 627 625 0 631 +18 623 415 0 622 617 0 624 ?1 29 624
 416 0 623 0 618 -0.00129548128 -0.00101505512 -0.00197612 16 625 417 0 ?622 619
 629 626 0 0 1 30 626 418 0 625 630 620 0 +-0.00129548128 -0.00101505512 -0.0016
2052 6.0978749858577288e-16 -1.8369701987210296e-16 -1.0 17 627 0 649 644 650 61
7 622 625 0 641 -17 628 0 615 600 622 596 631 629 0 606 -16 629 419 0 ?631 625 6
38 630 0 0 1 30 630 420 0 629 639 626 0 +-2.5481279999998554e-05 -0.00101505512
 -0.00197612 -1.0 3.1364520948731767e-32 1.7074049960401626e-16 17 631 0 658 653
 606 623 628 629 0 650 +14 632 421 634 1.0e-08 645 611 636 11 633 +0 0 645 611 9
 50 633 422 0 632 646 612 0 +-2.5481279999998554e-05 0.00101694488 -0.00162052 1
.7074049960401628e-16 1.8369701987210296e-16 1.0 1.0 -3.1364520948731767e-32 -1.
7074049960401628e-16 81 1 634 423 5 632 0 0 647 613 635 83 3 635 0.9882352948188
782 1.0 0.9882352948188782 15 636 424 0 621 632 0 17 637 0 636 551 585 533 640 6
38 0 0 +16 638 425 0 ?637 629 642 639 0 0 1 30 639 426 0 638 643 630 0 +-0.00129
548128 0.00101694488 -0.00162052 0.0 -1.0 1.8369701987210296e-16 17 640 0 667 57
9 532 575 637 638 0 585 -17 641 0 636 621 551 617 644 642 0 616 +16 642 427 0 ?6
41 638 651 643 0 0 1 30 643 428 0 642 652 639 0 +-0.00129548128 -0.00101505512 -
0.00162052 3.4148099920803361e-15 -1.0 1.8369701987210456e-16 17 644 0 649 517 6
27 513 641 642 0 0 -14 645 429 647 1.0e-08 654 632 649 11 646 -0 0 654 632 9 50
 646 430 0 645 655 633 0 +-0.00129548128 -0.00101505512 -0.00162052 1.0 3.414809
9920803366e-15 6.4119896435043655e-16 3.4148099920803366e-15 -1.0 1.836970198721
0456e-16 81 1 647 431 5 645 0 0 656 634 648 83 3 648 0.9882352948188782 1.0 0.98
82352948188782 15 649 432 0 650 645 0 17 650 0 649 627 517 623 653 651 0 0 +16 6
51 433 0 ?650 642 660 652 0 0 1 30 652 434 0 651 661 643 0 +-0.00129548128 -0.00
101505512 -0.00197612 3.4148099920803361e-15 -1.0 1.8369701987210456e-16 17 653
 0 658 560 631 507 650 651 0 0 -14 654 435 656 1.0e-08 663 645 658 11 655 -0 0 6
63 645 9 50 655 436 0 654 664 646 0 +-2.5481279999998554e-05 0.00101694488 -0.00
197612 1.7074049960401628e-16 1.8369701987210296e-16 1.0 1.0 -3.1364520948731767
e-32 -1.7074049960401628e-16 81 1 656 437 5 654 0 0 665 647 657 83 3 657 0.98823
52948188782 1.0 0.9882352948188782 15 658 438 0 631 654 0 17 659 0 658 571 560 5
67 662 660 0 0 -16 660 439 0 ?662 651 0 661 0 0 1 30 661 440 0 660 0 652 0 +-0.0
0129548128 0.00101694488 -0.00197612 0.0 -1.0 1.8369701987210296e-16 17 662 0 66
7 532 579 528 659 660 0 0 +14 663 441 665 1.0e-08 0 654 667 11 664 -0 0 0 654 9
 50 664 442 0 663 0 655 0 +-0.00129548128 0.00101694488 -0.00162052 1.0 -6.82961
99841606732e-15 6.4119896435043842e-16 -6.8296199841606732e-15 -1.0 1.8369701987
20998e-16 81 1 665 443 5 663 0 0 0 656 666 83 3 666 0.9882352948188782 1.0 0.988
2352948188782 15 667 444 0 662 663 0 1 0 
