%TF.GenerationSoftware,Altium Limited,Altium Designer,22.7.1 (60)*%
G04 Layer_Color=65535*
%FSLAX45Y45*%
%MOMM*%
%TF.SameCoordinates,04235CBA-543E-4B11-AFE6-CF9E8B66919D*%
%TF.FilePolarity,Positive*%
%TF.FileFunction,Legend,Top*%
%TF.Part,Single*%
G01*
G75*
%TA.AperFunction,NonConductor*%
%ADD27C,0.25000*%
%ADD28C,0.20000*%
%ADD29C,0.15000*%
%ADD30C,0.15240*%
%ADD31C,0.25400*%
%ADD32C,0.07620*%
D27*
X10451900Y7603600D02*
G03*
X10451900Y7603600I-12500J0D01*
G01*
X9791500D02*
G03*
X9791500Y7603600I-12500J0D01*
G01*
D28*
X10833100Y6311900D02*
Y7073900D01*
Y6311900D02*
X11087100D01*
Y7073900D01*
X10833100D02*
X11087100D01*
X10096500Y7264400D02*
Y7518400D01*
X9588500Y7264400D02*
X10096500D01*
X9588500D02*
Y7518400D01*
X10096500D01*
X10632805Y7646395D02*
Y8406396D01*
X10532800Y7646395D02*
X10632805D01*
X10042802Y8406396D02*
X10632805D01*
X10042777Y7646371D02*
Y8406372D01*
X10042802Y7646395D02*
X10142801D01*
X9972405D02*
Y8406396D01*
X9872400Y7646395D02*
X9972405D01*
X9382402Y8406396D02*
X9972405D01*
X9382377Y7646371D02*
Y8406372D01*
X9382402Y7646395D02*
X9482401D01*
D29*
X10396400Y6699400D02*
Y6719400D01*
X10736400D01*
Y6699400D02*
Y6719400D01*
X10396400Y6539400D02*
Y6559400D01*
Y6539400D02*
X10736400D01*
Y6559400D01*
X10566400Y6539400D02*
Y6719400D01*
X10395000Y6928000D02*
Y6948000D01*
X10735000D01*
Y6928000D02*
Y6948000D01*
X10395000Y6768000D02*
Y6788000D01*
Y6768000D02*
X10735000D01*
Y6788000D01*
X10565000Y6768000D02*
Y6948000D01*
X9893000Y6318100D02*
Y6348100D01*
Y6318100D02*
X10173000D01*
Y6348100D01*
Y6428100D02*
Y6458100D01*
X9893000D02*
X10173000D01*
X9893000Y6428100D02*
Y6458100D01*
X10033000Y6318100D02*
Y6458100D01*
X9582000Y6794800D02*
X9612000D01*
X9582000Y6514800D02*
Y6794800D01*
Y6514800D02*
X9612000D01*
X9692000D02*
X9722000D01*
Y6794800D01*
X9692000D02*
X9722000D01*
X9582000Y6654800D02*
X9722000D01*
X9391500Y6794800D02*
X9421500D01*
X9391500Y6514800D02*
Y6794800D01*
Y6514800D02*
X9421500D01*
X9501500D02*
X9531500D01*
Y6794800D01*
X9501500D02*
X9531500D01*
X9391500Y6654800D02*
X9531500D01*
D30*
X9932035Y6545580D02*
X10137775D01*
X9932035Y6880860D02*
X10137775D01*
D31*
X10820441Y7150125D02*
Y7302475D01*
X10896617D01*
X10922008Y7277083D01*
Y7226300D01*
X10896617Y7200908D01*
X10820441D01*
X11074359Y7150125D02*
X10972792D01*
X11074359Y7251692D01*
Y7277083D01*
X11048967Y7302475D01*
X10998184D01*
X10972792Y7277083D01*
X10439441Y6337325D02*
Y6489675D01*
X10515617D01*
X10541008Y6464283D01*
Y6413500D01*
X10515617Y6388108D01*
X10439441D01*
X10490225D02*
X10541008Y6337325D01*
X10693359D02*
X10591792D01*
X10693359Y6438892D01*
Y6464283D01*
X10667967Y6489675D01*
X10617184D01*
X10591792Y6464283D01*
X10464833Y6997725D02*
Y7150075D01*
X10541008D01*
X10566400Y7124683D01*
Y7073900D01*
X10541008Y7048508D01*
X10464833D01*
X10515617D02*
X10566400Y6997725D01*
X10617184D02*
X10667967D01*
X10642576D01*
Y7150075D01*
X10617184Y7124683D01*
X9994933Y7124675D02*
Y6997717D01*
X10020325Y6972325D01*
X10071108D01*
X10096500Y6997717D01*
Y7124675D01*
X10147284Y6972325D02*
X10198067D01*
X10172676D01*
Y7124675D01*
X10147284Y7099283D01*
X9677408Y6451583D02*
X9652017Y6476975D01*
X9601233D01*
X9575841Y6451583D01*
Y6350017D01*
X9601233Y6324625D01*
X9652017D01*
X9677408Y6350017D01*
X9728192Y6451583D02*
X9753584Y6476975D01*
X9804367D01*
X9829759Y6451583D01*
Y6426192D01*
X9804367Y6400800D01*
X9778975D01*
X9804367D01*
X9829759Y6375408D01*
Y6350017D01*
X9804367Y6324625D01*
X9753584D01*
X9728192Y6350017D01*
X9601217Y6959600D02*
X9575825Y6934208D01*
Y6883425D01*
X9601217Y6858033D01*
X9702783D01*
X9728175Y6883425D01*
Y6934208D01*
X9702783Y6959600D01*
X9728175Y7010384D02*
Y7061167D01*
Y7035776D01*
X9575825D01*
X9601217Y7010384D01*
X9410717Y6959608D02*
X9385325Y6934217D01*
Y6883433D01*
X9410717Y6858041D01*
X9512283D01*
X9537675Y6883433D01*
Y6934217D01*
X9512283Y6959608D01*
X9537675Y7111959D02*
Y7010392D01*
X9436108Y7111959D01*
X9410717D01*
X9385325Y7086567D01*
Y7035784D01*
X9410717Y7010392D01*
X9537675Y7289833D02*
X9385325D01*
Y7366008D01*
X9410717Y7391400D01*
X9461500D01*
X9486892Y7366008D01*
Y7289833D01*
X9537675Y7442184D02*
Y7492967D01*
Y7467576D01*
X9385325D01*
X9410717Y7442184D01*
X10055860Y8496300D02*
Y8648651D01*
X10132035D01*
X10157427Y8623259D01*
Y8572475D01*
X10132035Y8547083D01*
X10055860D01*
X10284386Y8496300D02*
Y8648651D01*
X10208211Y8572475D01*
X10309778D01*
X9395460Y8496300D02*
Y8648651D01*
X9471635D01*
X9497027Y8623259D01*
Y8572475D01*
X9471635Y8547083D01*
X9395460D01*
X9547811Y8623259D02*
X9573203Y8648651D01*
X9623986D01*
X9649378Y8623259D01*
Y8597867D01*
X9623986Y8572475D01*
X9598594D01*
X9623986D01*
X9649378Y8547083D01*
Y8521692D01*
X9623986Y8496300D01*
X9573203D01*
X9547811Y8521692D01*
D32*
X9839960Y6961259D02*
X9924599Y6876620D01*
X9839960D02*
X9924599Y6961259D01*
X9839960Y6918939D02*
X9924599D01*
X9882280Y6876620D02*
Y6961259D01*
%TF.MD5,62e893a9c425a696a232be58db33dd5d*%
M02*
