%TF.GenerationSoftware,Altium Limited,Altium Designer,22.7.1 (60)*%
G04 Layer_Color=255*
%FSLAX45Y45*%
%MOMM*%
%TF.SameCoordinates,04235CBA-543E-4B11-AFE6-CF9E8B66919D*%
%TF.FilePolarity,Positive*%
%TF.FileFunction,Pads,Top*%
%TF.Part,Single*%
G01*
G75*
%TA.AperFunction,SMDPad,CuDef*%
%ADD10R,1.15000X1.35000*%
%ADD11R,0.95250X0.60960*%
%TA.AperFunction,ConnectorPad*%
%ADD12R,0.90000X1.00000*%
%TA.AperFunction,SMDPad,CuDef*%
%ADD13R,1.00000X0.90000*%
%TA.AperFunction,ComponentPad*%
%ADD17R,1.50000X1.50000*%
%ADD18C,1.50000*%
%ADD19R,1.50000X1.50000*%
%ADD20C,1.20000*%
%ADD21R,1.20000X1.20000*%
D10*
X10478900Y6629400D02*
D03*
X10653900D02*
D03*
X10477500Y6858000D02*
D03*
X10652500D02*
D03*
D11*
X9897110Y6807200D02*
D03*
Y6713220D02*
D03*
Y6619240D02*
D03*
X10172700D02*
D03*
Y6713220D02*
D03*
Y6807200D02*
D03*
D12*
X9965500Y6388100D02*
D03*
X10100500D02*
D03*
D13*
X9652000Y6722300D02*
D03*
Y6587300D02*
D03*
X9461500Y6722300D02*
D03*
Y6587300D02*
D03*
D17*
X10960100Y6946900D02*
D03*
D18*
Y6692900D02*
D03*
Y6438900D02*
D03*
X9969500Y7391400D02*
D03*
D19*
X9715500D02*
D03*
D20*
X10237800Y7781400D02*
D03*
X9577400D02*
D03*
D21*
X10437800D02*
D03*
X9777400D02*
D03*
%TF.MD5,19c9dad3c5f5cc285e02b048db46493d*%
M02*
