%TF.GenerationSoftware,Altium Limited,Altium Designer,22.7.1 (60)*%
G04 Layer_Color=8388736*
%FSLAX45Y45*%
%MOMM*%
%TF.SameCoordinates,04235CBA-543E-4B11-AFE6-CF9E8B66919D*%
%TF.FilePolarity,Negative*%
%TF.FileFunction,Soldermask,Top*%
%TF.Part,Single*%
G01*
G75*
%TA.AperFunction,SMDPad,CuDef*%
%ADD11R,0.95250X0.60960*%
%TA.AperFunction,ComponentPad*%
%ADD22R,1.70320X1.70320*%
%ADD23C,1.70320*%
%ADD24R,1.70320X1.70320*%
%ADD25C,1.40320*%
%ADD26R,1.40320X1.40320*%
%TA.AperFunction,SMDPad,CuDef*%
%ADD33R,1.35320X1.55320*%
%TA.AperFunction,ConnectorPad*%
%ADD34R,1.10320X1.20320*%
%TA.AperFunction,SMDPad,CuDef*%
%ADD35R,1.20320X1.10320*%
D11*
X9897110Y6807200D02*
D03*
Y6713220D02*
D03*
Y6619240D02*
D03*
X10172700D02*
D03*
Y6713220D02*
D03*
Y6807200D02*
D03*
D22*
X10960100Y6946900D02*
D03*
D23*
Y6692900D02*
D03*
Y6438900D02*
D03*
X9969500Y7391400D02*
D03*
D24*
X9715500D02*
D03*
D25*
X10237800Y7781400D02*
D03*
X9577400D02*
D03*
D26*
X10437800D02*
D03*
X9777400D02*
D03*
D33*
X10478900Y6629400D02*
D03*
X10653900D02*
D03*
X10477500Y6858000D02*
D03*
X10652500D02*
D03*
D34*
X9965500Y6388100D02*
D03*
X10100500D02*
D03*
D35*
X9652000Y6722300D02*
D03*
Y6587300D02*
D03*
X9461500Y6722300D02*
D03*
Y6587300D02*
D03*
%TF.MD5,b8d8b52c4f806d90407932c03c4ace5b*%
M02*
